%TF.GenerationSoftware,KiCad,Pcbnew,(6.0.5)*%
%TF.CreationDate,2022-06-27T00:12:11-04:00*%
%TF.ProjectId,sensor_node,73656e73-6f72-45f6-9e6f-64652e6b6963,rev?*%
%TF.SameCoordinates,Original*%
%TF.FileFunction,Copper,L1,Top*%
%TF.FilePolarity,Positive*%
%FSLAX46Y46*%
G04 Gerber Fmt 4.6, Leading zero omitted, Abs format (unit mm)*
G04 Created by KiCad (PCBNEW (6.0.5)) date 2022-06-27 00:12:11*
%MOMM*%
%LPD*%
G01*
G04 APERTURE LIST*
%TA.AperFunction,ComponentPad*%
%ADD10C,1.600000*%
%TD*%
%TA.AperFunction,ComponentPad*%
%ADD11R,1.600000X1.600000*%
%TD*%
%TA.AperFunction,ComponentPad*%
%ADD12O,1.600000X1.600000*%
%TD*%
%TA.AperFunction,ComponentPad*%
%ADD13C,1.524000*%
%TD*%
%TA.AperFunction,ComponentPad*%
%ADD14R,1.700000X1.700000*%
%TD*%
%TA.AperFunction,ComponentPad*%
%ADD15O,1.700000X1.700000*%
%TD*%
%TA.AperFunction,ComponentPad*%
%ADD16R,2.000000X2.000000*%
%TD*%
%TA.AperFunction,ComponentPad*%
%ADD17C,2.000000*%
%TD*%
%TA.AperFunction,ViaPad*%
%ADD18C,0.800000*%
%TD*%
%TA.AperFunction,Conductor*%
%ADD19C,0.150000*%
%TD*%
G04 APERTURE END LIST*
D10*
%TO.P,SW2,1,1*%
%TO.N,/BTN2*%
X142460000Y-88600000D03*
%TO.P,SW2,2,2*%
%TO.N,GND*%
X147540000Y-88600000D03*
%TO.P,SW2,3*%
%TO.N,N/C*%
X142460000Y-76000000D03*
%TO.P,SW2,4*%
X147540000Y-76000000D03*
%TD*%
D11*
%TO.P,SW3,1*%
%TO.N,/#SCK*%
X141266500Y-61986000D03*
D12*
%TO.P,SW3,2*%
%TO.N,/#SDA*%
X141266500Y-64526000D03*
%TO.P,SW3,3*%
%TO.N,/#A0*%
X141266500Y-67066000D03*
%TO.P,SW3,4*%
%TO.N,/#RST*%
X141266500Y-69606000D03*
%TO.P,SW3,5*%
%TO.N,GND*%
X148886500Y-69606000D03*
%TO.P,SW3,6*%
X148886500Y-67066000D03*
%TO.P,SW3,7*%
X148886500Y-64526000D03*
%TO.P,SW3,8*%
X148886500Y-61986000D03*
%TD*%
D13*
%TO.P,U6,1,GND*%
%TO.N,unconnected-(U6-Pad1)*%
X138538000Y-123572000D03*
%TO.P,U6,2,MISO*%
%TO.N,/MISO*%
X138538000Y-125572000D03*
%TO.P,U6,3,MOSI*%
%TO.N,/MOSI*%
X138538000Y-127572000D03*
%TO.P,U6,4,SCK*%
%TO.N,/SCK*%
X138538000Y-129572000D03*
%TO.P,U6,5,CS*%
%TO.N,/CS*%
X138538000Y-131572000D03*
%TO.P,U6,6,RST*%
%TO.N,unconnected-(U6-Pad6)*%
X138538000Y-133572000D03*
%TO.P,U6,7,DIO5*%
%TO.N,unconnected-(U6-Pad7)*%
X138538000Y-135572000D03*
%TO.P,U6,8,GND*%
%TO.N,GND*%
X138538000Y-137572000D03*
%TO.P,U6,9,DIO2*%
%TO.N,unconnected-(U6-Pad9)*%
X152138000Y-123572000D03*
%TO.P,U6,10,DIO1*%
%TO.N,unconnected-(U6-Pad10)*%
X152138000Y-125572000D03*
%TO.P,U6,11,DIO0*%
%TO.N,/DI0*%
X152138000Y-127572000D03*
%TO.P,U6,12,3.3V*%
%TO.N,+3V3*%
X152138000Y-129572000D03*
%TO.P,U6,13,DIO4*%
%TO.N,unconnected-(U6-Pad13)*%
X152138000Y-131572000D03*
%TO.P,U6,14,DIO3*%
%TO.N,unconnected-(U6-Pad14)*%
X152138000Y-133572000D03*
%TO.P,U6,15,GND*%
%TO.N,unconnected-(U6-Pad15)*%
X152138000Y-135572000D03*
%TO.P,U6,16,ANT*%
%TO.N,Net-(J1-Pad1)*%
X152138000Y-137572000D03*
%TD*%
D14*
%TO.P,U3,1,_EN2*%
%TO.N,/EN2*%
X136652000Y-60960000D03*
D15*
%TO.P,U3,2,IO_1*%
%TO.N,/IO_1*%
X134112000Y-60960000D03*
%TO.P,U3,3,EN2*%
%TO.N,/EN2*%
X136652000Y-63500000D03*
%TO.P,U3,4,RST2*%
%TO.N,/RST2*%
X134112000Y-63500000D03*
%TO.P,U3,5,3.3V*%
%TO.N,+3V3*%
X136652000Y-66040000D03*
%TO.P,U3,6,_RST2*%
%TO.N,/RST2*%
X134112000Y-66040000D03*
%TO.P,U3,7,33*%
%TO.N,/SCL1*%
X136652000Y-68580000D03*
%TO.P,U3,8,25*%
%TO.N,/SCL*%
X134112000Y-68580000D03*
%TO.P,U3,9,26*%
%TO.N,/SDA*%
X136652000Y-71120000D03*
%TO.P,U3,10,27*%
%TO.N,/X_1*%
X134112000Y-71120000D03*
%TO.P,U3,11,14*%
%TO.N,unconnected-(U3-Pad11)*%
X136652000Y-73660000D03*
%TO.P,U3,12,12*%
%TO.N,/WS28*%
X134112000Y-73660000D03*
%TO.P,U3,13,GND*%
%TO.N,GND*%
X136652000Y-76200000D03*
%TO.P,U3,14,GND*%
X134112000Y-76200000D03*
%TO.P,U3,15,GND*%
X136652000Y-78740000D03*
%TO.P,U3,16,_IO_2*%
%TO.N,/IO_2*%
X134112000Y-78740000D03*
%TO.P,U3,17,GND*%
%TO.N,GND*%
X136652000Y-81280000D03*
%TO.P,U3,18,IO_2*%
%TO.N,/IO_2*%
X134112000Y-81280000D03*
%TO.P,U3,19,IO_0*%
%TO.N,/IO_0*%
X136652000Y-83820000D03*
%TO.P,U3,20,IO_3*%
%TO.N,/IO_3*%
X134112000Y-83820000D03*
%TO.P,U3,21,_IO_3*%
X136652000Y-86360000D03*
%TO.P,U3,22,VP_36*%
%TO.N,/PIR0*%
X134112000Y-86360000D03*
%TO.P,U3,23,VN_39*%
%TO.N,/PIR1*%
X136652000Y-88900000D03*
%TO.P,U3,24,EN*%
%TO.N,/EN*%
X134112000Y-88900000D03*
%TO.P,U3,25,34*%
%TO.N,/PIR2*%
X136652000Y-91440000D03*
%TO.P,U3,26,35*%
%TO.N,/PIR3*%
X134112000Y-91440000D03*
%TO.P,U3,27,32*%
%TO.N,/SDA1*%
X136652000Y-93980000D03*
%TO.P,U3,28,3.3V*%
%TO.N,+3V3*%
X134112000Y-93980000D03*
%TO.P,U3,29,3.3V*%
X136652000Y-96520000D03*
%TO.P,U3,30,3.3V*%
X134112000Y-96520000D03*
%TD*%
D14*
%TO.P,U1,1,GND*%
%TO.N,GND*%
X130556000Y-60960000D03*
D15*
%TO.P,U1,2,VN_39*%
%TO.N,/PIR1*%
X130556000Y-63500000D03*
%TO.P,U1,3,3.3V*%
%TO.N,+3V3*%
X130556000Y-66040000D03*
%TO.P,U1,4,#SCK*%
%TO.N,/#SCK*%
X130556000Y-68580000D03*
%TO.P,U1,5,#SDA*%
%TO.N,/#SDA*%
X130556000Y-71120000D03*
%TO.P,U1,6,#A0*%
%TO.N,/#A0*%
X130556000Y-73660000D03*
%TO.P,U1,7,#RST*%
%TO.N,/#RST*%
X130556000Y-76200000D03*
%TO.P,U1,8,#CS*%
%TO.N,/#CS*%
X130556000Y-78740000D03*
%TO.P,U1,9,GND*%
%TO.N,GND*%
X130556000Y-81280000D03*
%TO.P,U1,10,3.3V*%
%TO.N,+3V3*%
X130556000Y-83820000D03*
%TO.P,U1,11,_SCL*%
%TO.N,/SDA*%
X130556000Y-86360000D03*
%TO.P,U1,12,_SDA*%
%TO.N,/SCL*%
X130556000Y-88900000D03*
%TO.P,U1,13,_GND*%
%TO.N,GND*%
X130556000Y-91440000D03*
%TO.P,U1,14,3.3V*%
%TO.N,+3V3*%
X130556000Y-93980000D03*
%TO.P,U1,15,GND*%
%TO.N,GND*%
X130556000Y-96520000D03*
%TO.P,U1,16,SCL*%
%TO.N,/SDA*%
X130556000Y-99060000D03*
%TO.P,U1,17,SDA*%
%TO.N,/SCL*%
X130556000Y-101600000D03*
%TO.P,U1,18,ADDR*%
%TO.N,unconnected-(U1-Pad18)*%
X130556000Y-104140000D03*
%TO.P,U1,19,VP_36*%
%TO.N,/PIR0*%
X130556000Y-106680000D03*
%TO.P,U1,20,SDA*%
%TO.N,/SDA*%
X130556000Y-109220000D03*
%TO.P,U1,21,SCL*%
%TO.N,/SCL*%
X130556000Y-111760000D03*
%TO.P,U1,22,GND*%
%TO.N,GND*%
X130556000Y-114300000D03*
%TO.P,U1,23,3.3V*%
%TO.N,+3V3*%
X130556000Y-116840000D03*
%TO.P,U1,24,_3.3V*%
X130556000Y-119380000D03*
%TO.P,U1,25,_3.3V*%
X130556000Y-121920000D03*
%TO.P,U1,26,_GND*%
%TO.N,GND*%
X130556000Y-124460000D03*
%TO.P,U1,27,SCL*%
%TO.N,/SCL*%
X130556000Y-127000000D03*
%TO.P,U1,28,SDA*%
%TO.N,/SDA*%
X130556000Y-129540000D03*
%TO.P,U1,29,3.3V*%
%TO.N,+3V3*%
X130556000Y-132080000D03*
%TO.P,U1,30,GND*%
%TO.N,GND*%
X130556000Y-134620000D03*
%TO.P,U1,31,GND*%
X130556000Y-137160000D03*
%TO.P,U1,32,35*%
%TO.N,/PIR3*%
X130556000Y-139700000D03*
%TO.P,U1,33,5V*%
%TO.N,unconnected-(U1-Pad33)*%
X130556000Y-142240000D03*
%TO.P,U1,34,5V*%
%TO.N,unconnected-(U1-Pad34)*%
X130556000Y-144780000D03*
%TO.P,U1,35,5V*%
%TO.N,unconnected-(U1-Pad35)*%
X130556000Y-147320000D03*
%TD*%
D10*
%TO.P,U2,1,VP_36*%
%TO.N,/PIR0*%
X133784000Y-106680000D03*
%TO.P,U2,2,VN_39*%
%TO.N,/PIR1*%
X133784000Y-109220000D03*
%TO.P,U2,3,EN*%
%TO.N,/EN*%
X133784000Y-111760000D03*
%TO.P,U2,4,34*%
%TO.N,/PIR2*%
X133784000Y-114300000D03*
%TO.P,U2,5,35*%
%TO.N,/PIR3*%
X133781759Y-116784827D03*
%TO.P,U2,6,32*%
%TO.N,/SDA1*%
X133784000Y-119380000D03*
%TO.P,U2,7,33*%
%TO.N,/SCL1*%
X133784000Y-121920000D03*
%TO.P,U2,8,25*%
%TO.N,/SCL*%
X133784000Y-124460000D03*
%TO.P,U2,9,26*%
%TO.N,/SDA*%
X133784000Y-127000000D03*
%TO.P,U2,10,27*%
%TO.N,/X_1*%
X133784000Y-129540000D03*
%TO.P,U2,11,14*%
%TO.N,/#CS*%
X133784000Y-132080000D03*
%TO.P,U2,12,12*%
%TO.N,/WS28*%
X133724345Y-134353448D03*
%TO.P,U2,13,GND*%
%TO.N,GND*%
X133784000Y-137160000D03*
%TO.P,U2,14,3.3V*%
%TO.N,+3V3*%
X156384000Y-106680000D03*
%TO.P,U2,15,22*%
%TO.N,/LED*%
X156384000Y-109220000D03*
%TO.P,U2,16,19*%
%TO.N,/BUZ1*%
X156384000Y-111760000D03*
%TO.P,U2,17,23*%
%TO.N,/BTN2*%
X156384000Y-114300000D03*
%TO.P,U2,18,18*%
%TO.N,/MISO*%
X156381759Y-116784827D03*
%TO.P,U2,19,5*%
%TO.N,/MOSI*%
X156384000Y-119380000D03*
%TO.P,U2,20,7*%
%TO.N,/SCK*%
X156384000Y-121920000D03*
%TO.P,U2,21,16*%
%TO.N,/CS*%
X156384000Y-124460000D03*
%TO.P,U2,22,4*%
%TO.N,/DIO*%
X156384000Y-127000000D03*
%TO.P,U2,23,0*%
%TO.N,/#SCK*%
X156384000Y-129540000D03*
%TO.P,U2,24,2*%
%TO.N,/#SDA*%
X156384000Y-132080000D03*
%TO.P,U2,25,15*%
%TO.N,/#A0*%
X156324345Y-134353448D03*
%TO.P,U2,26,13*%
%TO.N,/#RST*%
X156384000Y-137160000D03*
%TD*%
D14*
%TO.P,J1,1,Pin_1*%
%TO.N,Net-(J1-Pad1)*%
X138176000Y-142748000D03*
%TD*%
%TO.P,U4,1,_SCL*%
%TO.N,/SCL1*%
X155956000Y-60960000D03*
D15*
%TO.P,U4,2,_SDA*%
%TO.N,/SDA1*%
X153416000Y-60960000D03*
%TO.P,U4,3,3.3V*%
%TO.N,+3V3*%
X155956000Y-63500000D03*
%TO.P,U4,4,GND*%
%TO.N,GND*%
X153416000Y-63500000D03*
%TO.P,U4,5,23*%
%TO.N,/DIO*%
X155956000Y-66040000D03*
%TO.P,U4,6,X*%
%TO.N,unconnected-(U4-Pad6)*%
X153416000Y-66040000D03*
%TO.P,U4,7,22*%
%TO.N,/LED*%
X155956000Y-68580000D03*
%TO.P,U4,8,19*%
%TO.N,/BUZ1*%
X153416000Y-68580000D03*
%TO.P,U4,9,23*%
%TO.N,/BTN2*%
X155956000Y-71120000D03*
%TO.P,U4,10,18*%
%TO.N,/MISO*%
X153416000Y-71120000D03*
%TO.P,U4,11,5*%
%TO.N,/MOSI*%
X155956000Y-73660000D03*
%TO.P,U4,12,17*%
%TO.N,/X_1*%
X153416000Y-73660000D03*
%TO.P,U4,13,3.3V*%
%TO.N,+3V3*%
X155956000Y-76200000D03*
%TO.P,U4,14,3.3V*%
X153416000Y-76200000D03*
%TO.P,U4,15,3.3V*%
X155956000Y-78740000D03*
%TO.P,U4,16,_VCC*%
X153416000Y-78740000D03*
%TO.P,U4,17,_GND*%
%TO.N,GND*%
X155956000Y-81280000D03*
%TO.P,U4,18,SDA*%
%TO.N,/SDA1*%
X153416000Y-81280000D03*
%TO.P,U4,19,SCL*%
%TO.N,/SCL1*%
X155956000Y-83820000D03*
%TO.P,U4,20,GND*%
%TO.N,GND*%
X153416000Y-83820000D03*
%TO.P,U4,21,3.3V*%
%TO.N,+3V3*%
X155956000Y-86360000D03*
%TO.P,U4,22,16*%
%TO.N,/SCK*%
X153416000Y-86360000D03*
%TO.P,U4,23,4*%
%TO.N,/DIO*%
X155956000Y-88900000D03*
%TO.P,U4,24,0*%
%TO.N,/#SCK*%
X153416000Y-88900000D03*
%TO.P,U4,25,2*%
%TO.N,/#SDA*%
X155956000Y-91440000D03*
%TO.P,U4,26,15*%
%TO.N,/#A0*%
X153416000Y-91440000D03*
%TO.P,U4,27,13*%
%TO.N,/#RST*%
X155956000Y-93980000D03*
%TO.P,U4,28,GND*%
%TO.N,GND*%
X153416000Y-93980000D03*
%TO.P,U4,29,GND*%
X155956000Y-96520000D03*
%TO.P,U4,30,GND*%
X153416000Y-96520000D03*
%TD*%
D16*
%TO.P,BZ1,1,-*%
%TO.N,/BUZ1*%
X141234000Y-97400000D03*
D17*
%TO.P,BZ1,2,+*%
%TO.N,GND*%
X148834000Y-97400000D03*
%TD*%
D14*
%TO.P,U5,1,_X*%
%TO.N,unconnected-(U5-Pad1)*%
X159512000Y-60960000D03*
D15*
%TO.P,U5,2,SDA1*%
%TO.N,/SDA1*%
X159512000Y-63500000D03*
%TO.P,U5,3,SCL1*%
%TO.N,/SCL1*%
X159512000Y-66040000D03*
%TO.P,U5,4,GND*%
%TO.N,GND*%
X159512000Y-68580000D03*
%TO.P,U5,5,3.3V*%
%TO.N,+3V3*%
X159512000Y-71120000D03*
%TO.P,U5,6,SDA1*%
%TO.N,/SDA1*%
X159512000Y-73660000D03*
%TO.P,U5,7,SCL1*%
%TO.N,/SCL1*%
X159512000Y-76200000D03*
%TO.P,U5,8,3.3V*%
%TO.N,+3V3*%
X159512000Y-78740000D03*
%TO.P,U5,9,GND*%
%TO.N,GND*%
X159512000Y-81280000D03*
%TO.P,U5,10,_SCL1*%
%TO.N,/SCL1*%
X159512000Y-83820000D03*
%TO.P,U5,11,_SDA1*%
%TO.N,/SDA1*%
X159512000Y-86360000D03*
%TO.P,U5,12,_GND*%
%TO.N,/SCL1*%
X159512000Y-88900000D03*
%TO.P,U5,13,_3.3V*%
%TO.N,GND*%
X159512000Y-91440000D03*
%TO.P,U5,14,ADDR*%
%TO.N,+3V3*%
X159512000Y-93980000D03*
%TO.P,U5,15,SDA1*%
%TO.N,/SDA1*%
X159512000Y-96520000D03*
%TO.P,U5,16,SCL1*%
%TO.N,/SCL1*%
X159512000Y-99060000D03*
%TO.P,U5,17,GND*%
%TO.N,GND*%
X159512000Y-101600000D03*
%TO.P,U5,18,3.3V*%
%TO.N,+3V3*%
X159512000Y-104140000D03*
%TO.P,U5,19,_3.3V*%
X159512000Y-106680000D03*
%TO.P,U5,20,3.3V*%
X159512000Y-109220000D03*
%TO.P,U5,21,GND*%
%TO.N,GND*%
X159512000Y-111760000D03*
%TO.P,U5,22,SCL1*%
%TO.N,/SDA1*%
X159512000Y-114300000D03*
%TO.P,U5,23,SDA1*%
%TO.N,/SCL1*%
X159512000Y-116840000D03*
%TO.P,U5,24,MISO*%
%TO.N,/MISO*%
X159512000Y-119380000D03*
%TO.P,U5,25,MOSI*%
%TO.N,/MOSI*%
X159512000Y-121920000D03*
%TO.P,U5,26,CS*%
%TO.N,/SCK*%
X159512000Y-124460000D03*
%TO.P,U5,27,RST*%
%TO.N,/CS*%
X159512000Y-127000000D03*
%TO.P,U5,28,DIO*%
%TO.N,/DIO*%
X159512000Y-129540000D03*
%TO.P,U5,29,GND*%
%TO.N,GND*%
X159512000Y-132080000D03*
%TO.P,U5,30,GND*%
X159512000Y-134620000D03*
%TO.P,U5,31,3.3V*%
%TO.N,+3V3*%
X159512000Y-137160000D03*
%TO.P,U5,32,SDA1*%
%TO.N,/SCL1*%
X159512000Y-139700000D03*
%TO.P,U5,33,SCL1*%
%TO.N,/SDA1*%
X159512000Y-142240000D03*
%TO.P,U5,34,_3.3V*%
%TO.N,+3V3*%
X159512000Y-144780000D03*
%TO.P,U5,35,_GND*%
%TO.N,GND*%
X159512000Y-147320000D03*
%TD*%
D18*
%TO.N,/BTN2*%
X143500000Y-79100000D03*
X147200000Y-78700000D03*
%TO.N,GND*%
X129500000Y-67056000D03*
%TO.N,/PIR0*%
X132900000Y-102600000D03*
%TO.N,/X_1*%
X148336000Y-73660000D03*
%TO.N,/LED*%
X147320000Y-90600000D03*
%TO.N,/MISO*%
X148336000Y-120396000D03*
%TO.N,/MOSI*%
X150876000Y-119888000D03*
%TO.N,/#RST*%
X153807500Y-128016000D03*
%TO.N,/#A0*%
X154432000Y-126492000D03*
%TO.N,/#SDA*%
X154569500Y-125209989D03*
%TO.N,/#CS*%
X138900000Y-114700000D03*
%TO.N,/SCK*%
X151892000Y-121920000D03*
%TD*%
D19*
%TO.N,GND*%
X137392000Y-78000000D02*
X136652000Y-78740000D01*
X144663961Y-78000000D02*
X137392000Y-78000000D01*
X144663961Y-85723961D02*
X144663961Y-78000000D01*
X147540000Y-88600000D02*
X144663961Y-85723961D01*
%TO.N,/BTN2*%
X144000000Y-88600000D02*
X144000000Y-79600000D01*
X142460000Y-88600000D02*
X144000000Y-88600000D01*
X144000000Y-98320234D02*
X144000000Y-88600000D01*
X156123277Y-110443511D02*
X144000000Y-98320234D01*
X157433511Y-113250489D02*
X157433511Y-110443511D01*
X157433511Y-110443511D02*
X156123277Y-110443511D01*
X144000000Y-79600000D02*
X143500000Y-79100000D01*
X156384000Y-114300000D02*
X157433511Y-113250489D01*
X150522489Y-75377511D02*
X147200000Y-78700000D01*
X150522489Y-74759511D02*
X150522489Y-75377511D01*
%TO.N,GND*%
X153120000Y-93980000D02*
X153416000Y-93980000D01*
X147540000Y-88400000D02*
X153120000Y-93980000D01*
%TO.N,/LED*%
X147320000Y-100156000D02*
X156384000Y-109220000D01*
X147320000Y-90600000D02*
X147320000Y-100156000D01*
%TO.N,GND*%
X152254000Y-93980000D02*
X153416000Y-93980000D01*
%TO.N,/BUZ1*%
X142024000Y-97400000D02*
X156384000Y-111760000D01*
%TO.N,GND*%
X148834000Y-97400000D02*
X152254000Y-93980000D01*
%TO.N,/BUZ1*%
X141234000Y-97400000D02*
X142024000Y-97400000D01*
%TO.N,GND*%
X159397545Y-87459511D02*
X159967433Y-87459511D01*
X158087970Y-100175970D02*
X158087970Y-95404030D01*
X161036000Y-67056000D02*
X159512000Y-68580000D01*
X148886500Y-59613500D02*
X148939031Y-59560969D01*
X130556000Y-60960000D02*
X131955031Y-59560969D01*
X160711480Y-92639480D02*
X159512000Y-91440000D01*
X159512000Y-132080000D02*
X161036000Y-130556000D01*
X159512000Y-81280000D02*
X160961031Y-79830969D01*
X129456489Y-130486193D02*
X129456489Y-125559511D01*
X129131969Y-67424031D02*
X129500000Y-67056000D01*
X148886500Y-61986000D02*
X151902000Y-61986000D01*
X158242000Y-100330000D02*
X158087970Y-100175970D01*
X155956000Y-96520000D02*
X153416000Y-96520000D01*
X155956000Y-81280000D02*
X159512000Y-81280000D01*
X159967433Y-95079511D02*
X160711480Y-94335464D01*
X160961031Y-145870969D02*
X160961031Y-136069031D01*
X151902000Y-61986000D02*
X153416000Y-63500000D01*
X129131969Y-79855969D02*
X129131969Y-67990147D01*
X159512000Y-134620000D02*
X159512000Y-132080000D01*
X136870000Y-81498000D02*
X136652000Y-81280000D01*
X129950785Y-130980489D02*
X129456489Y-130486193D01*
X148886500Y-61986000D02*
X148886500Y-69606000D01*
X155956000Y-96520000D02*
X155956000Y-98044000D01*
X148886500Y-61986000D02*
X148886500Y-59613500D01*
X148939031Y-59560969D02*
X160311991Y-59560969D01*
X130556000Y-137160000D02*
X133784000Y-137160000D01*
X161036000Y-113284000D02*
X159512000Y-111760000D01*
X158412489Y-95079511D02*
X159967433Y-95079511D01*
X160961031Y-136069031D02*
X159512000Y-134620000D01*
X129131969Y-67990147D02*
X129131969Y-67424031D01*
X159512000Y-91440000D02*
X158412489Y-90340489D01*
X131900000Y-90096000D02*
X131900000Y-84254000D01*
X153416000Y-96520000D02*
X153416000Y-93980000D01*
X131011433Y-130980489D02*
X129950785Y-130980489D01*
X129456489Y-125559511D02*
X130556000Y-124460000D01*
X158242000Y-100330000D02*
X159512000Y-101600000D01*
X155956000Y-98044000D02*
X158242000Y-100330000D01*
X160961031Y-79830969D02*
X160961031Y-70029031D01*
X130556000Y-91440000D02*
X131900000Y-90096000D01*
X159967433Y-87459511D02*
X160611511Y-86815433D01*
X131955031Y-59560969D02*
X148939031Y-59560969D01*
X130556000Y-137160000D02*
X130556000Y-134620000D01*
X161036000Y-60284978D02*
X161036000Y-67056000D01*
X136652000Y-81280000D02*
X136652000Y-76200000D01*
X131655511Y-133520489D02*
X131655511Y-131624567D01*
X159512000Y-101600000D02*
X160611511Y-102699511D01*
X131900000Y-82624000D02*
X131900000Y-84300000D01*
X158087970Y-95404030D02*
X158412489Y-95079511D01*
X160311991Y-59560969D02*
X161036000Y-60284978D01*
X160611511Y-102699511D02*
X160611511Y-110660489D01*
X158412489Y-88444567D02*
X159397545Y-87459511D01*
X131655511Y-131624567D02*
X131011433Y-130980489D01*
X130556000Y-81280000D02*
X129131969Y-79855969D01*
X130556000Y-134620000D02*
X131655511Y-133520489D01*
X159512000Y-147320000D02*
X160961031Y-145870969D01*
X134112000Y-76200000D02*
X136652000Y-76200000D01*
X160711480Y-94335464D02*
X160711480Y-92639480D01*
X160611511Y-86815433D02*
X160611511Y-82379511D01*
X160611511Y-110660489D02*
X159512000Y-111760000D01*
X158412489Y-90340489D02*
X158412489Y-88444567D01*
X160961031Y-70029031D02*
X159512000Y-68580000D01*
X130556000Y-81280000D02*
X131900000Y-82624000D01*
X160611511Y-82379511D02*
X159512000Y-81280000D01*
X161036000Y-130556000D02*
X161036000Y-113284000D01*
%TO.N,/BTN2*%
X150522489Y-74759511D02*
X154212411Y-74759511D01*
X154856489Y-72219511D02*
X155956000Y-71120000D01*
X154212411Y-74759511D02*
X154856489Y-74115433D01*
X154856489Y-74115433D02*
X154856489Y-72219511D01*
%TO.N,/PIR1*%
X137946999Y-105057001D02*
X133784000Y-109220000D01*
X135500000Y-87748000D02*
X136652000Y-88900000D01*
X135500000Y-90052000D02*
X135500000Y-94347589D01*
X136652000Y-88900000D02*
X135500000Y-90052000D01*
X137946999Y-95698585D02*
X137946999Y-105057001D01*
X133012489Y-82751433D02*
X133012489Y-84616411D01*
X133496078Y-85100000D02*
X134900000Y-85100000D01*
X131655511Y-81394455D02*
X133012489Y-82751433D01*
X130810000Y-67480489D02*
X130100567Y-67480489D01*
X133012489Y-84616411D02*
X133496078Y-85100000D01*
X131011433Y-80180489D02*
X131655511Y-80824567D01*
X136206922Y-95054511D02*
X137302925Y-95054511D01*
X129456489Y-79195433D02*
X130441545Y-80180489D01*
X135500000Y-85700000D02*
X135500000Y-87748000D01*
X137302925Y-95054511D02*
X137946999Y-95698585D01*
X134900000Y-85100000D02*
X135500000Y-85700000D01*
X130556000Y-63500000D02*
X131655511Y-64599511D01*
X130441545Y-80180489D02*
X131011433Y-80180489D01*
X129456489Y-68124567D02*
X129456489Y-79195433D01*
X135500000Y-94347589D02*
X136206922Y-95054511D01*
X131655511Y-66634978D02*
X130810000Y-67480489D01*
X131655511Y-64599511D02*
X131655511Y-66634978D01*
X131655511Y-80824567D02*
X131655511Y-81394455D01*
X130100567Y-67480489D02*
X129456489Y-68124567D01*
%TO.N,+3V3*%
X160611511Y-113367511D02*
X160274000Y-113030000D01*
X159967433Y-130639511D02*
X160611511Y-129995433D01*
X158242000Y-65786000D02*
X158242000Y-69850000D01*
X128524000Y-68076000D02*
X128524000Y-81788000D01*
X158087969Y-88491969D02*
X158087969Y-92555969D01*
X128682481Y-114966481D02*
X130556000Y-116840000D01*
X130556000Y-132080000D02*
X128778000Y-130302000D01*
X160611511Y-72219511D02*
X159512000Y-71120000D01*
X159512000Y-109220000D02*
X159512000Y-104140000D01*
X134112000Y-96520000D02*
X134112000Y-93980000D01*
X153416000Y-78740000D02*
X155956000Y-78740000D01*
X156384000Y-106680000D02*
X159512000Y-106680000D01*
X160611511Y-77640489D02*
X160611511Y-72219511D01*
X160274000Y-113030000D02*
X159227056Y-113030000D01*
X155956000Y-63500000D02*
X158242000Y-65786000D01*
X128524000Y-85852000D02*
X128524000Y-91948000D01*
X160611511Y-129995433D02*
X160611511Y-113367511D01*
X160611511Y-143680489D02*
X159512000Y-144780000D01*
X129353919Y-66040000D02*
X128524000Y-66869919D01*
X130556000Y-93980000D02*
X134112000Y-93980000D01*
X134112000Y-96520000D02*
X136652000Y-96520000D01*
X159512000Y-78740000D02*
X160611511Y-77640489D01*
X158462489Y-138209511D02*
X155723022Y-138209511D01*
X153162000Y-130538406D02*
X152177961Y-129554367D01*
X130556000Y-83820000D02*
X128524000Y-85852000D01*
X158412489Y-110319511D02*
X159512000Y-109220000D01*
X128778000Y-130302000D02*
X128778000Y-123698000D01*
X128524000Y-81788000D02*
X130556000Y-83820000D01*
X159512000Y-137160000D02*
X160611511Y-138259511D01*
X128524000Y-66869919D02*
X128524000Y-68076000D01*
X155956000Y-78740000D02*
X159512000Y-78740000D01*
X128682481Y-95853519D02*
X128682481Y-114966481D01*
X158412489Y-136060489D02*
X158412489Y-131283589D01*
X159227056Y-113030000D02*
X158412489Y-112215433D01*
X130556000Y-93980000D02*
X128682481Y-95853519D01*
X158412489Y-131283589D02*
X159056567Y-130639511D01*
X158087969Y-92555969D02*
X159512000Y-93980000D01*
X155723022Y-138209511D02*
X153162000Y-135648489D01*
X160611511Y-138259511D02*
X160611511Y-143680489D01*
X130556000Y-121920000D02*
X130556000Y-116840000D01*
X128778000Y-123698000D02*
X130556000Y-121920000D01*
X155956000Y-76200000D02*
X155956000Y-78740000D01*
X159056567Y-130639511D02*
X159967433Y-130639511D01*
X155956000Y-86360000D02*
X158087969Y-88491969D01*
X153162000Y-135648489D02*
X153162000Y-130538406D01*
X158242000Y-69850000D02*
X159512000Y-71120000D01*
X128524000Y-91948000D02*
X130556000Y-93980000D01*
X159512000Y-137160000D02*
X158412489Y-136060489D01*
X129353919Y-66040000D02*
X130556000Y-66040000D01*
X159512000Y-137160000D02*
X158462489Y-138209511D01*
X158412489Y-112215433D02*
X158412489Y-110319511D01*
X153416000Y-76200000D02*
X153416000Y-78740000D01*
%TO.N,/SDA*%
X129481489Y-100134511D02*
X130556000Y-99060000D01*
X129481489Y-108145489D02*
X129481489Y-100134511D01*
X133096000Y-127000000D02*
X133784000Y-127000000D01*
X130556000Y-129540000D02*
X133096000Y-127000000D01*
X130556000Y-109220000D02*
X129481489Y-108145489D01*
%TO.N,/SCL*%
X132000000Y-113204000D02*
X130556000Y-111760000D01*
X133784000Y-124460000D02*
X132000000Y-122676000D01*
X133096000Y-124460000D02*
X133784000Y-124460000D01*
X132000000Y-122676000D02*
X132000000Y-113204000D01*
X130556000Y-127000000D02*
X133096000Y-124460000D01*
%TO.N,/PIR0*%
X133784000Y-103984000D02*
X132900000Y-103100000D01*
X132900000Y-103100000D02*
X132900000Y-102600000D01*
X130556000Y-106680000D02*
X133784000Y-106680000D01*
X133784000Y-106680000D02*
X133784000Y-103984000D01*
%TO.N,/PIR3*%
X133781759Y-116784827D02*
X132600000Y-117966586D01*
X132600000Y-122817060D02*
X133182940Y-123400000D01*
X130556000Y-139700000D02*
X132728234Y-139700000D01*
X133182940Y-123400000D02*
X135100000Y-123400000D01*
X132600000Y-117966586D02*
X132600000Y-122817060D01*
X135100000Y-137328234D02*
X135100000Y-123400000D01*
X132728234Y-139700000D02*
X135100000Y-137328234D01*
%TO.N,/SDA1*%
X136652000Y-93980000D02*
X138246519Y-95574519D01*
X138246519Y-95574519D02*
X138246519Y-115425073D01*
X157055511Y-59860489D02*
X157055511Y-61043511D01*
X155735796Y-115435796D02*
X153264204Y-115435796D01*
X155159589Y-84919511D02*
X154515511Y-84275433D01*
X133784000Y-119380000D02*
X137728204Y-115435796D01*
X157055511Y-61043511D02*
X159512000Y-63500000D01*
X159512000Y-114300000D02*
X158376204Y-115435796D01*
X154515511Y-59860489D02*
X157055511Y-59860489D01*
X153416000Y-60960000D02*
X154515511Y-59860489D01*
X158071511Y-84919511D02*
X155159589Y-84919511D01*
X137728204Y-115435796D02*
X138235796Y-115435796D01*
X154515511Y-84275433D02*
X154515511Y-82379511D01*
X154515511Y-82379511D02*
X153416000Y-81280000D01*
X138246519Y-115425073D02*
X138235796Y-115435796D01*
X159512000Y-86360000D02*
X158071511Y-84919511D01*
X138235796Y-115435796D02*
X153300000Y-115435797D01*
X158376204Y-115435796D02*
X155735796Y-115435796D01*
%TO.N,/SCL1*%
X158808511Y-95445489D02*
X159957078Y-95445489D01*
X161036000Y-90424000D02*
X159512000Y-88900000D01*
X159512000Y-65054944D02*
X159512000Y-66040000D01*
X158432316Y-115760316D02*
X159512000Y-116840000D01*
X152802098Y-115760316D02*
X158432316Y-115760316D01*
X158412489Y-95841511D02*
X158808511Y-95445489D01*
X155956000Y-61498944D02*
X159512000Y-65054944D01*
X159512000Y-99060000D02*
X158412489Y-97960489D01*
X138104000Y-117600000D02*
X150962414Y-117600000D01*
X155956000Y-83820000D02*
X159512000Y-83820000D01*
X133784000Y-121920000D02*
X138104000Y-117600000D01*
X159957078Y-95445489D02*
X160095750Y-95445489D01*
X155956000Y-60960000D02*
X155956000Y-61498944D01*
X160095750Y-95445489D02*
X161044620Y-94496620D01*
X158412489Y-97960489D02*
X158412489Y-95841511D01*
X150962414Y-117600000D02*
X152802098Y-115760316D01*
X161036000Y-94488000D02*
X161036000Y-90424000D01*
%TO.N,/X_1*%
X148336000Y-73660000D02*
X153416000Y-73660000D01*
%TO.N,/MISO*%
X158976932Y-119380000D02*
X159512000Y-119380000D01*
X143414000Y-125572000D02*
X152201173Y-116784827D01*
X152201173Y-116784827D02*
X156381759Y-116784827D01*
X138538000Y-125572000D02*
X143414000Y-125572000D01*
X156381759Y-116784827D02*
X158976932Y-119380000D01*
%TO.N,/MOSI*%
X151384000Y-119380000D02*
X156384000Y-119380000D01*
X158924000Y-121920000D02*
X159512000Y-121920000D01*
X138538000Y-127572000D02*
X143192000Y-127572000D01*
X143192000Y-127572000D02*
X151384000Y-119380000D01*
X156384000Y-119380000D02*
X158924000Y-121920000D01*
%TO.N,/CS*%
X148718511Y-124585489D02*
X156258511Y-124585489D01*
X141732000Y-131572000D02*
X148718511Y-124585489D01*
X156384000Y-124460000D02*
X158924000Y-127000000D01*
X158924000Y-127000000D02*
X159512000Y-127000000D01*
X156258511Y-124585489D02*
X156384000Y-124460000D01*
X138538000Y-131572000D02*
X141732000Y-131572000D01*
%TO.N,/#RST*%
X153670000Y-128153500D02*
X153670000Y-134549478D01*
X153670000Y-134549478D02*
X156280522Y-137160000D01*
X141266500Y-69606000D02*
X144963481Y-73302981D01*
X144963481Y-84542425D02*
X153131056Y-92710000D01*
X154686000Y-92710000D02*
X155956000Y-93980000D01*
X130556000Y-76200000D02*
X131655511Y-75100489D01*
X136766455Y-75100489D02*
X141266500Y-70600444D01*
X153131056Y-92710000D02*
X154686000Y-92710000D01*
X141266500Y-70600444D02*
X141266500Y-69606000D01*
X153807500Y-128016000D02*
X153670000Y-128153500D01*
X144963481Y-73302981D02*
X144963481Y-84542425D01*
X131655511Y-75100489D02*
X136766455Y-75100489D01*
X156280522Y-137160000D02*
X156384000Y-137160000D01*
%TO.N,/DIO*%
X158924000Y-129540000D02*
X159512000Y-129540000D01*
X156384000Y-127000000D02*
X158924000Y-129540000D01*
%TO.N,/EN2*%
X136652000Y-60960000D02*
X136652000Y-63500000D01*
%TO.N,/RST2*%
X134112000Y-63500000D02*
X134112000Y-66040000D01*
%TO.N,/IO_2*%
X134112000Y-81280000D02*
X134112000Y-78740000D01*
%TO.N,/IO_3*%
X134112000Y-83820000D02*
X136652000Y-86360000D01*
%TO.N,/#A0*%
X136827777Y-72560489D02*
X141266500Y-68121766D01*
X154432000Y-126492000D02*
X154432000Y-132461103D01*
X141266500Y-67066000D02*
X145288000Y-71087500D01*
X141266500Y-68121766D02*
X141266500Y-67066000D01*
X154432000Y-132461103D02*
X156324345Y-134353448D01*
X145288000Y-71087500D02*
X145288000Y-83312000D01*
X145288000Y-83312000D02*
X153416000Y-91440000D01*
X130556000Y-73660000D02*
X131655511Y-72560489D01*
X131655511Y-72560489D02*
X136827777Y-72560489D01*
%TO.N,/#SDA*%
X141266500Y-65581766D02*
X141266500Y-64526000D01*
X154856489Y-90340489D02*
X155956000Y-91440000D01*
X155194000Y-130890000D02*
X156384000Y-132080000D01*
X130556000Y-71120000D02*
X131996489Y-69679511D01*
X141266500Y-64526000D02*
X145587520Y-68847020D01*
X137168755Y-69679511D02*
X141266500Y-65581766D01*
X131996489Y-69679511D02*
X132163511Y-69679511D01*
X154569500Y-125209989D02*
X155194000Y-125834489D01*
X153301545Y-90340489D02*
X154856489Y-90340489D01*
X145587520Y-82626464D02*
X153301545Y-90340489D01*
X132163511Y-69679511D02*
X137168755Y-69679511D01*
X145587520Y-68847020D02*
X145587520Y-82626464D01*
X155194000Y-125834489D02*
X155194000Y-130890000D01*
%TO.N,/#SCK*%
X145887040Y-81371040D02*
X153416000Y-88900000D01*
X141266500Y-63041766D02*
X141266500Y-61986000D01*
X130556000Y-68580000D02*
X131655511Y-67480489D01*
X145887040Y-66606540D02*
X145887040Y-81371040D01*
X136827777Y-67480489D02*
X141266500Y-63041766D01*
X131655511Y-67480489D02*
X136827777Y-67480489D01*
X141266500Y-61986000D02*
X145887040Y-66606540D01*
%TO.N,/#CS*%
X138819477Y-84432533D02*
X138819477Y-87003477D01*
X133012489Y-81196489D02*
X130556000Y-78740000D01*
X138900000Y-114700000D02*
X138819477Y-114619477D01*
X138819477Y-114619477D02*
X138819477Y-87003477D01*
X134737922Y-82550000D02*
X133827056Y-82550000D01*
X133012489Y-81735433D02*
X133012489Y-81196489D01*
X133827056Y-82550000D02*
X133012489Y-81735433D01*
X136936944Y-82550000D02*
X138819477Y-84432533D01*
X134737922Y-82550000D02*
X136936944Y-82550000D01*
%TO.N,/SCK*%
X156384000Y-121920000D02*
X158924000Y-124460000D01*
X138538000Y-129572000D02*
X142208000Y-129572000D01*
X158924000Y-124460000D02*
X159512000Y-124460000D01*
X149860000Y-121920000D02*
X156384000Y-121920000D01*
X142208000Y-129572000D02*
X149860000Y-121920000D01*
%TO.N,Net-(J1-Pad1)*%
X138176000Y-142748000D02*
X146962000Y-142748000D01*
X146962000Y-142748000D02*
X152138000Y-137572000D01*
%TD*%
M02*
