M48
; DRILL file {KiCad (6.0.5)} date Mon Jun 27 00:13:01 2022
; FORMAT={-:-/ absolute / inch / decimal}
; #@! TF.CreationDate,2022-06-27T00:13:01-04:00
; #@! TF.GenerationSoftware,Kicad,Pcbnew,(6.0.5)
; #@! TF.FileFunction,Plated,1,2,PTH
FMAT,2
INCH
; #@! TA.AperFunction,Plated,PTH,ViaDrill
T1C0.0157
; #@! TA.AperFunction,Plated,PTH,ComponentDrill
T2C0.0300
; #@! TA.AperFunction,Plated,PTH,ComponentDrill
T3C0.0315
; #@! TA.AperFunction,Plated,PTH,ComponentDrill
T4C0.0354
; #@! TA.AperFunction,Plated,PTH,ComponentDrill
T5C0.0394
%
G90
G05
T1
X5.0984Y-2.64
X5.2323Y-4.0394
X5.4685Y-4.5157
X5.6496Y-3.1142
X5.7953Y-3.0984
X5.8Y-3.5669
X5.84Y-2.9
X5.84Y-4.74
X5.94Y-4.72
X5.98Y-4.8
X6.0554Y-5.04
X6.08Y-4.98
X6.0854Y-4.9295
T2
X5.4543Y-4.865
X5.4543Y-4.9438
X5.4543Y-5.0225
X5.4543Y-5.1013
X5.4543Y-5.18
X5.4543Y-5.2587
X5.4543Y-5.3375
X5.4543Y-5.4162
X5.9897Y-4.865
X5.9897Y-4.9438
X5.9897Y-5.0225
X5.9897Y-5.1013
X5.9897Y-5.18
X5.9897Y-5.2587
X5.9897Y-5.3375
X5.9897Y-5.4162
T3
X5.5617Y-2.4404
X5.5617Y-2.5404
X5.5617Y-2.6404
X5.5617Y-2.7404
X5.8617Y-2.4404
X5.8617Y-2.5404
X5.8617Y-2.6404
X5.8617Y-2.7404
T4
X5.2647Y-5.2895
X5.267Y-4.5978
X5.2671Y-4.2
X5.2671Y-4.3
X5.2671Y-4.4
X5.2671Y-4.5
X5.2671Y-4.7
X5.2671Y-4.8
X5.2671Y-4.9
X5.2671Y-5.0
X5.2671Y-5.1
X5.2671Y-5.2
X5.2671Y-5.4
X5.6087Y-2.9921
X5.6087Y-3.4882
X5.8087Y-2.9921
X5.8087Y-3.4882
X6.1545Y-5.2895
X6.1568Y-4.5978
X6.1569Y-4.2
X6.1569Y-4.3
X6.1569Y-4.4
X6.1569Y-4.5
X6.1569Y-4.7
X6.1569Y-4.8
X6.1569Y-4.9
X6.1569Y-5.0
X6.1569Y-5.1
X6.1569Y-5.2
X6.1569Y-5.4
T5
X5.14Y-2.4
X5.14Y-2.5
X5.14Y-2.6
X5.14Y-2.7
X5.14Y-2.8
X5.14Y-2.9
X5.14Y-3.0
X5.14Y-3.1
X5.14Y-3.2
X5.14Y-3.3
X5.14Y-3.4
X5.14Y-3.5
X5.14Y-3.6
X5.14Y-3.7
X5.14Y-3.8
X5.14Y-3.9
X5.14Y-4.0
X5.14Y-4.1
X5.14Y-4.2
X5.14Y-4.3
X5.14Y-4.4
X5.14Y-4.5
X5.14Y-4.6
X5.14Y-4.7
X5.14Y-4.8
X5.14Y-4.9
X5.14Y-5.0
X5.14Y-5.1
X5.14Y-5.2
X5.14Y-5.3
X5.14Y-5.4
X5.14Y-5.5
X5.14Y-5.6
X5.14Y-5.7
X5.14Y-5.8
X5.28Y-2.4
X5.28Y-2.5
X5.28Y-2.6
X5.28Y-2.7
X5.28Y-2.8
X5.28Y-2.9
X5.28Y-3.0
X5.28Y-3.1
X5.28Y-3.2
X5.28Y-3.3
X5.28Y-3.4
X5.28Y-3.5
X5.28Y-3.6
X5.28Y-3.7
X5.28Y-3.8
X5.38Y-2.4
X5.38Y-2.5
X5.38Y-2.6
X5.38Y-2.7
X5.38Y-2.8
X5.38Y-2.9
X5.38Y-3.0
X5.38Y-3.1
X5.38Y-3.2
X5.38Y-3.3
X5.38Y-3.4
X5.38Y-3.5
X5.38Y-3.6
X5.38Y-3.7
X5.38Y-3.8
X5.44Y-5.62
X5.5604Y-3.8346
X5.8596Y-3.8346
X6.04Y-2.4
X6.04Y-2.5
X6.04Y-2.6
X6.04Y-2.7
X6.04Y-2.8
X6.04Y-2.9
X6.04Y-3.0
X6.04Y-3.1
X6.04Y-3.2
X6.04Y-3.3
X6.04Y-3.4
X6.04Y-3.5
X6.04Y-3.6
X6.04Y-3.7
X6.04Y-3.8
X6.14Y-2.4
X6.14Y-2.5
X6.14Y-2.6
X6.14Y-2.7
X6.14Y-2.8
X6.14Y-2.9
X6.14Y-3.0
X6.14Y-3.1
X6.14Y-3.2
X6.14Y-3.3
X6.14Y-3.4
X6.14Y-3.5
X6.14Y-3.6
X6.14Y-3.7
X6.14Y-3.8
X6.28Y-2.4
X6.28Y-2.5
X6.28Y-2.6
X6.28Y-2.7
X6.28Y-2.8
X6.28Y-2.9
X6.28Y-3.0
X6.28Y-3.1
X6.28Y-3.2
X6.28Y-3.3
X6.28Y-3.4
X6.28Y-3.5
X6.28Y-3.6
X6.28Y-3.7
X6.28Y-3.8
X6.28Y-3.9
X6.28Y-4.0
X6.28Y-4.1
X6.28Y-4.2
X6.28Y-4.3
X6.28Y-4.4
X6.28Y-4.5
X6.28Y-4.6
X6.28Y-4.7
X6.28Y-4.8
X6.28Y-4.9
X6.28Y-5.0
X6.28Y-5.1
X6.28Y-5.2
X6.28Y-5.3
X6.28Y-5.4
X6.28Y-5.5
X6.28Y-5.6
X6.28Y-5.7
X6.28Y-5.8
T0
M30
