%TF.GenerationSoftware,KiCad,Pcbnew,(6.0.5)*%
%TF.CreationDate,2022-06-27T00:12:11-04:00*%
%TF.ProjectId,sensor_node,73656e73-6f72-45f6-9e6f-64652e6b6963,rev?*%
%TF.SameCoordinates,Original*%
%TF.FileFunction,Soldermask,Top*%
%TF.FilePolarity,Negative*%
%FSLAX46Y46*%
G04 Gerber Fmt 4.6, Leading zero omitted, Abs format (unit mm)*
G04 Created by KiCad (PCBNEW (6.0.5)) date 2022-06-27 00:12:11*
%MOMM*%
%LPD*%
G01*
G04 APERTURE LIST*
%ADD10C,1.600000*%
%ADD11R,1.600000X1.600000*%
%ADD12O,1.600000X1.600000*%
%ADD13C,1.524000*%
%ADD14R,1.700000X1.700000*%
%ADD15O,1.700000X1.700000*%
%ADD16R,2.000000X2.000000*%
%ADD17C,2.000000*%
G04 APERTURE END LIST*
D10*
%TO.C,SW2*%
X142460000Y-88600000D03*
X147540000Y-88600000D03*
X142460000Y-76000000D03*
X147540000Y-76000000D03*
%TD*%
D11*
%TO.C,SW3*%
X141266500Y-61986000D03*
D12*
X141266500Y-64526000D03*
X141266500Y-67066000D03*
X141266500Y-69606000D03*
X148886500Y-69606000D03*
X148886500Y-67066000D03*
X148886500Y-64526000D03*
X148886500Y-61986000D03*
%TD*%
D13*
%TO.C,U6*%
X138538000Y-123572000D03*
X138538000Y-125572000D03*
X138538000Y-127572000D03*
X138538000Y-129572000D03*
X138538000Y-131572000D03*
X138538000Y-133572000D03*
X138538000Y-135572000D03*
X138538000Y-137572000D03*
X152138000Y-123572000D03*
X152138000Y-125572000D03*
X152138000Y-127572000D03*
X152138000Y-129572000D03*
X152138000Y-131572000D03*
X152138000Y-133572000D03*
X152138000Y-135572000D03*
X152138000Y-137572000D03*
%TD*%
D14*
%TO.C,U3*%
X136652000Y-60960000D03*
D15*
X134112000Y-60960000D03*
X136652000Y-63500000D03*
X134112000Y-63500000D03*
X136652000Y-66040000D03*
X134112000Y-66040000D03*
X136652000Y-68580000D03*
X134112000Y-68580000D03*
X136652000Y-71120000D03*
X134112000Y-71120000D03*
X136652000Y-73660000D03*
X134112000Y-73660000D03*
X136652000Y-76200000D03*
X134112000Y-76200000D03*
X136652000Y-78740000D03*
X134112000Y-78740000D03*
X136652000Y-81280000D03*
X134112000Y-81280000D03*
X136652000Y-83820000D03*
X134112000Y-83820000D03*
X136652000Y-86360000D03*
X134112000Y-86360000D03*
X136652000Y-88900000D03*
X134112000Y-88900000D03*
X136652000Y-91440000D03*
X134112000Y-91440000D03*
X136652000Y-93980000D03*
X134112000Y-93980000D03*
X136652000Y-96520000D03*
X134112000Y-96520000D03*
%TD*%
D14*
%TO.C,U1*%
X130556000Y-60960000D03*
D15*
X130556000Y-63500000D03*
X130556000Y-66040000D03*
X130556000Y-68580000D03*
X130556000Y-71120000D03*
X130556000Y-73660000D03*
X130556000Y-76200000D03*
X130556000Y-78740000D03*
X130556000Y-81280000D03*
X130556000Y-83820000D03*
X130556000Y-86360000D03*
X130556000Y-88900000D03*
X130556000Y-91440000D03*
X130556000Y-93980000D03*
X130556000Y-96520000D03*
X130556000Y-99060000D03*
X130556000Y-101600000D03*
X130556000Y-104140000D03*
X130556000Y-106680000D03*
X130556000Y-109220000D03*
X130556000Y-111760000D03*
X130556000Y-114300000D03*
X130556000Y-116840000D03*
X130556000Y-119380000D03*
X130556000Y-121920000D03*
X130556000Y-124460000D03*
X130556000Y-127000000D03*
X130556000Y-129540000D03*
X130556000Y-132080000D03*
X130556000Y-134620000D03*
X130556000Y-137160000D03*
X130556000Y-139700000D03*
X130556000Y-142240000D03*
X130556000Y-144780000D03*
X130556000Y-147320000D03*
%TD*%
D10*
%TO.C,U2*%
X133784000Y-106680000D03*
X133784000Y-109220000D03*
X133784000Y-111760000D03*
X133784000Y-114300000D03*
X133781759Y-116784827D03*
X133784000Y-119380000D03*
X133784000Y-121920000D03*
X133784000Y-124460000D03*
X133784000Y-127000000D03*
X133784000Y-129540000D03*
X133784000Y-132080000D03*
X133724345Y-134353448D03*
X133784000Y-137160000D03*
X156384000Y-106680000D03*
X156384000Y-109220000D03*
X156384000Y-111760000D03*
X156384000Y-114300000D03*
X156381759Y-116784827D03*
X156384000Y-119380000D03*
X156384000Y-121920000D03*
X156384000Y-124460000D03*
X156384000Y-127000000D03*
X156384000Y-129540000D03*
X156384000Y-132080000D03*
X156324345Y-134353448D03*
X156384000Y-137160000D03*
%TD*%
D14*
%TO.C,J1*%
X138176000Y-142748000D03*
%TD*%
%TO.C,U4*%
X155956000Y-60960000D03*
D15*
X153416000Y-60960000D03*
X155956000Y-63500000D03*
X153416000Y-63500000D03*
X155956000Y-66040000D03*
X153416000Y-66040000D03*
X155956000Y-68580000D03*
X153416000Y-68580000D03*
X155956000Y-71120000D03*
X153416000Y-71120000D03*
X155956000Y-73660000D03*
X153416000Y-73660000D03*
X155956000Y-76200000D03*
X153416000Y-76200000D03*
X155956000Y-78740000D03*
X153416000Y-78740000D03*
X155956000Y-81280000D03*
X153416000Y-81280000D03*
X155956000Y-83820000D03*
X153416000Y-83820000D03*
X155956000Y-86360000D03*
X153416000Y-86360000D03*
X155956000Y-88900000D03*
X153416000Y-88900000D03*
X155956000Y-91440000D03*
X153416000Y-91440000D03*
X155956000Y-93980000D03*
X153416000Y-93980000D03*
X155956000Y-96520000D03*
X153416000Y-96520000D03*
%TD*%
D16*
%TO.C,BZ1*%
X141234000Y-97400000D03*
D17*
X148834000Y-97400000D03*
%TD*%
D14*
%TO.C,U5*%
X159512000Y-60960000D03*
D15*
X159512000Y-63500000D03*
X159512000Y-66040000D03*
X159512000Y-68580000D03*
X159512000Y-71120000D03*
X159512000Y-73660000D03*
X159512000Y-76200000D03*
X159512000Y-78740000D03*
X159512000Y-81280000D03*
X159512000Y-83820000D03*
X159512000Y-86360000D03*
X159512000Y-88900000D03*
X159512000Y-91440000D03*
X159512000Y-93980000D03*
X159512000Y-96520000D03*
X159512000Y-99060000D03*
X159512000Y-101600000D03*
X159512000Y-104140000D03*
X159512000Y-106680000D03*
X159512000Y-109220000D03*
X159512000Y-111760000D03*
X159512000Y-114300000D03*
X159512000Y-116840000D03*
X159512000Y-119380000D03*
X159512000Y-121920000D03*
X159512000Y-124460000D03*
X159512000Y-127000000D03*
X159512000Y-129540000D03*
X159512000Y-132080000D03*
X159512000Y-134620000D03*
X159512000Y-137160000D03*
X159512000Y-139700000D03*
X159512000Y-142240000D03*
X159512000Y-144780000D03*
X159512000Y-147320000D03*
%TD*%
M02*
