G04 #@! TF.GenerationSoftware,KiCad,Pcbnew,7.0.7*
G04 #@! TF.CreationDate,2023-12-30T17:03:26-05:00*
G04 #@! TF.ProjectId,sensor_node,73656e73-6f72-45f6-9e6f-64652e6b6963,rev?*
G04 #@! TF.SameCoordinates,Original*
G04 #@! TF.FileFunction,Paste,Bot*
G04 #@! TF.FilePolarity,Positive*
%FSLAX46Y46*%
G04 Gerber Fmt 4.6, Leading zero omitted, Abs format (unit mm)*
G04 Created by KiCad (PCBNEW 7.0.7) date 2023-12-30 17:03:26*
%MOMM*%
%LPD*%
G01*
G04 APERTURE LIST*
G04 Aperture macros list*
%AMRoundRect*
0 Rectangle with rounded corners*
0 $1 Rounding radius*
0 $2 $3 $4 $5 $6 $7 $8 $9 X,Y pos of 4 corners*
0 Add a 4 corners polygon primitive as box body*
4,1,4,$2,$3,$4,$5,$6,$7,$8,$9,$2,$3,0*
0 Add four circle primitives for the rounded corners*
1,1,$1+$1,$2,$3*
1,1,$1+$1,$4,$5*
1,1,$1+$1,$6,$7*
1,1,$1+$1,$8,$9*
0 Add four rect primitives between the rounded corners*
20,1,$1+$1,$2,$3,$4,$5,0*
20,1,$1+$1,$4,$5,$6,$7,0*
20,1,$1+$1,$6,$7,$8,$9,0*
20,1,$1+$1,$8,$9,$2,$3,0*%
G04 Aperture macros list end*
%ADD10RoundRect,0.250000X0.450000X-0.262500X0.450000X0.262500X-0.450000X0.262500X-0.450000X-0.262500X0*%
%ADD11RoundRect,0.250000X-0.262500X-0.450000X0.262500X-0.450000X0.262500X0.450000X-0.262500X0.450000X0*%
%ADD12R,2.500000X1.200000*%
%ADD13RoundRect,0.200000X0.275000X-0.200000X0.275000X0.200000X-0.275000X0.200000X-0.275000X-0.200000X0*%
%ADD14RoundRect,0.150000X0.875000X0.150000X-0.875000X0.150000X-0.875000X-0.150000X0.875000X-0.150000X0*%
%ADD15RoundRect,0.200000X-0.200000X0.800000X-0.200000X-0.800000X0.200000X-0.800000X0.200000X0.800000X0*%
%ADD16RoundRect,0.200000X0.800000X0.200000X-0.800000X0.200000X-0.800000X-0.200000X0.800000X-0.200000X0*%
%ADD17RoundRect,0.218750X-0.218750X-0.256250X0.218750X-0.256250X0.218750X0.256250X-0.218750X0.256250X0*%
%ADD18R,1.800000X1.000000*%
%ADD19R,0.700000X2.000000*%
%ADD20R,1.100000X2.500000*%
%ADD21R,2.500000X1.100000*%
%ADD22RoundRect,0.218750X-0.256250X0.218750X-0.256250X-0.218750X0.256250X-0.218750X0.256250X0.218750X0*%
%ADD23RoundRect,0.218750X0.256250X-0.218750X0.256250X0.218750X-0.256250X0.218750X-0.256250X-0.218750X0*%
%ADD24RoundRect,0.150000X-0.825000X-0.150000X0.825000X-0.150000X0.825000X0.150000X-0.825000X0.150000X0*%
G04 APERTURE END LIST*
D10*
X182324500Y-138412500D03*
X182324500Y-136587500D03*
D11*
X184499500Y-123250000D03*
X186324500Y-123250000D03*
D10*
X184324500Y-143412500D03*
X184324500Y-141587500D03*
D12*
X173125000Y-133900000D03*
X179625000Y-135000000D03*
X179625000Y-139000000D03*
X179625000Y-142000000D03*
D13*
X191025000Y-110400000D03*
X191025000Y-108750000D03*
X193025000Y-110400000D03*
X193025000Y-108750000D03*
D14*
X181775000Y-105420000D03*
X181775000Y-106690000D03*
X181775000Y-107960000D03*
X181775000Y-109230000D03*
X181775000Y-110500000D03*
X181775000Y-111770000D03*
X181775000Y-113040000D03*
X181775000Y-114310000D03*
X172475000Y-114310000D03*
X172475000Y-113040000D03*
X172475000Y-111770000D03*
X172475000Y-110500000D03*
X172475000Y-109230000D03*
X172475000Y-107960000D03*
X172475000Y-106690000D03*
X172475000Y-105420000D03*
D13*
X193824500Y-122575000D03*
X193824500Y-120925000D03*
D15*
X196824500Y-140450000D03*
X195324500Y-140450000D03*
X193824500Y-140450000D03*
X192324500Y-140450000D03*
X190824500Y-140450000D03*
X189324500Y-140450000D03*
X187824500Y-140450000D03*
X186324500Y-140500000D03*
D16*
X184824500Y-138200000D03*
X184824500Y-136700000D03*
X184824500Y-135200000D03*
X184824500Y-133700000D03*
X184824500Y-132200000D03*
X184824500Y-130700000D03*
X184824500Y-129200000D03*
X184774500Y-127700000D03*
D15*
X186324500Y-125500000D03*
X187824500Y-125500000D03*
X189324500Y-125500000D03*
X190824500Y-125500000D03*
X192324500Y-125500000D03*
X193824500Y-125500000D03*
X195324500Y-125500000D03*
X196824500Y-125500000D03*
D17*
X180787000Y-126000000D03*
X182362000Y-126000000D03*
D18*
X186875000Y-106500000D03*
X186875000Y-109000000D03*
D19*
X199574500Y-143100000D03*
X198304500Y-143100000D03*
X197034500Y-143100000D03*
X195764500Y-143100000D03*
X194494500Y-143100000D03*
X193224500Y-143100000D03*
X191954500Y-143100000D03*
X190684500Y-143100000D03*
X189414500Y-143100000D03*
X188144500Y-143100000D03*
X186874500Y-143100000D03*
X186874500Y-129000000D03*
X188144500Y-129000000D03*
X189414500Y-129000000D03*
X190684500Y-129000000D03*
X191954500Y-129000000D03*
X193224500Y-129000000D03*
X194494500Y-129000000D03*
X195764500Y-129000000D03*
X197034500Y-129000000D03*
X198304500Y-129000000D03*
X199574500Y-129000000D03*
D20*
X151625000Y-107550000D03*
X153625000Y-107550000D03*
X155625000Y-107550000D03*
X157625000Y-107550000D03*
X159625000Y-107550000D03*
X161625000Y-107550000D03*
X163625000Y-107550000D03*
X165625000Y-107550000D03*
X165625000Y-122950000D03*
X163625000Y-122950000D03*
X161625000Y-122950000D03*
X159625000Y-122950000D03*
X157625000Y-122950000D03*
X155625000Y-122950000D03*
X153625000Y-122950000D03*
X151625000Y-122950000D03*
D21*
X167325000Y-110240000D03*
X167325000Y-112240000D03*
X167325000Y-114240000D03*
X167325000Y-116240000D03*
X167325000Y-118240000D03*
X167325000Y-120240000D03*
D13*
X191025000Y-106750000D03*
X191025000Y-105100000D03*
D22*
X182324500Y-133462500D03*
X182324500Y-135037500D03*
D13*
X193025000Y-106750000D03*
X193025000Y-105100000D03*
D17*
X190287000Y-122500000D03*
X191862000Y-122500000D03*
D23*
X182574500Y-143287500D03*
X182574500Y-141712500D03*
D24*
X186824500Y-117655000D03*
X186824500Y-116385000D03*
X186824500Y-115115000D03*
X186824500Y-113845000D03*
X191774500Y-113845000D03*
X191774500Y-115115000D03*
X191774500Y-116385000D03*
X191774500Y-117655000D03*
D10*
X132074500Y-138412500D03*
X132074500Y-136587500D03*
D11*
X134249500Y-123250000D03*
X136074500Y-123250000D03*
D10*
X134074500Y-143412500D03*
X134074500Y-141587500D03*
D12*
X122875000Y-133900000D03*
X129375000Y-135000000D03*
X129375000Y-139000000D03*
X129375000Y-142000000D03*
D13*
X140775000Y-110400000D03*
X140775000Y-108750000D03*
X142775000Y-110400000D03*
X142775000Y-108750000D03*
D14*
X131525000Y-105420000D03*
X131525000Y-106690000D03*
X131525000Y-107960000D03*
X131525000Y-109230000D03*
X131525000Y-110500000D03*
X131525000Y-111770000D03*
X131525000Y-113040000D03*
X131525000Y-114310000D03*
X122225000Y-114310000D03*
X122225000Y-113040000D03*
X122225000Y-111770000D03*
X122225000Y-110500000D03*
X122225000Y-109230000D03*
X122225000Y-107960000D03*
X122225000Y-106690000D03*
X122225000Y-105420000D03*
D13*
X143574500Y-122575000D03*
X143574500Y-120925000D03*
D15*
X146574500Y-140450000D03*
X145074500Y-140450000D03*
X143574500Y-140450000D03*
X142074500Y-140450000D03*
X140574500Y-140450000D03*
X139074500Y-140450000D03*
X137574500Y-140450000D03*
X136074500Y-140500000D03*
D16*
X134574500Y-138200000D03*
X134574500Y-136700000D03*
X134574500Y-135200000D03*
X134574500Y-133700000D03*
X134574500Y-132200000D03*
X134574500Y-130700000D03*
X134574500Y-129200000D03*
X134524500Y-127700000D03*
D15*
X136074500Y-125500000D03*
X137574500Y-125500000D03*
X139074500Y-125500000D03*
X140574500Y-125500000D03*
X142074500Y-125500000D03*
X143574500Y-125500000D03*
X145074500Y-125500000D03*
X146574500Y-125500000D03*
D17*
X130537000Y-126000000D03*
X132112000Y-126000000D03*
D18*
X136625000Y-106500000D03*
X136625000Y-109000000D03*
D19*
X149324500Y-143100000D03*
X148054500Y-143100000D03*
X146784500Y-143100000D03*
X145514500Y-143100000D03*
X144244500Y-143100000D03*
X142974500Y-143100000D03*
X141704500Y-143100000D03*
X140434500Y-143100000D03*
X139164500Y-143100000D03*
X137894500Y-143100000D03*
X136624500Y-143100000D03*
X136624500Y-129000000D03*
X137894500Y-129000000D03*
X139164500Y-129000000D03*
X140434500Y-129000000D03*
X141704500Y-129000000D03*
X142974500Y-129000000D03*
X144244500Y-129000000D03*
X145514500Y-129000000D03*
X146784500Y-129000000D03*
X148054500Y-129000000D03*
X149324500Y-129000000D03*
D20*
X101375000Y-107550000D03*
X103375000Y-107550000D03*
X105375000Y-107550000D03*
X107375000Y-107550000D03*
X109375000Y-107550000D03*
X111375000Y-107550000D03*
X113375000Y-107550000D03*
X115375000Y-107550000D03*
X115375000Y-122950000D03*
X113375000Y-122950000D03*
X111375000Y-122950000D03*
X109375000Y-122950000D03*
X107375000Y-122950000D03*
X105375000Y-122950000D03*
X103375000Y-122950000D03*
X101375000Y-122950000D03*
D21*
X117075000Y-110240000D03*
X117075000Y-112240000D03*
X117075000Y-114240000D03*
X117075000Y-116240000D03*
X117075000Y-118240000D03*
X117075000Y-120240000D03*
D13*
X140775000Y-106750000D03*
X140775000Y-105100000D03*
D22*
X132074500Y-133462500D03*
X132074500Y-135037500D03*
D13*
X142775000Y-106750000D03*
X142775000Y-105100000D03*
D17*
X140037000Y-122500000D03*
X141612000Y-122500000D03*
D23*
X132324500Y-143287500D03*
X132324500Y-141712500D03*
D24*
X136574500Y-117655000D03*
X136574500Y-116385000D03*
X136574500Y-115115000D03*
X136574500Y-113845000D03*
X141524500Y-113845000D03*
X141524500Y-115115000D03*
X141524500Y-116385000D03*
X141524500Y-117655000D03*
D10*
X182324500Y-88162500D03*
X182324500Y-86337500D03*
D11*
X184499500Y-73000000D03*
X186324500Y-73000000D03*
D10*
X184324500Y-93162500D03*
X184324500Y-91337500D03*
D12*
X173125000Y-83650000D03*
X179625000Y-84750000D03*
X179625000Y-88750000D03*
X179625000Y-91750000D03*
D13*
X191025000Y-60150000D03*
X191025000Y-58500000D03*
X193025000Y-60150000D03*
X193025000Y-58500000D03*
D14*
X181775000Y-55170000D03*
X181775000Y-56440000D03*
X181775000Y-57710000D03*
X181775000Y-58980000D03*
X181775000Y-60250000D03*
X181775000Y-61520000D03*
X181775000Y-62790000D03*
X181775000Y-64060000D03*
X172475000Y-64060000D03*
X172475000Y-62790000D03*
X172475000Y-61520000D03*
X172475000Y-60250000D03*
X172475000Y-58980000D03*
X172475000Y-57710000D03*
X172475000Y-56440000D03*
X172475000Y-55170000D03*
D13*
X193824500Y-72325000D03*
X193824500Y-70675000D03*
D15*
X196824500Y-90200000D03*
X195324500Y-90200000D03*
X193824500Y-90200000D03*
X192324500Y-90200000D03*
X190824500Y-90200000D03*
X189324500Y-90200000D03*
X187824500Y-90200000D03*
X186324500Y-90250000D03*
D16*
X184824500Y-87950000D03*
X184824500Y-86450000D03*
X184824500Y-84950000D03*
X184824500Y-83450000D03*
X184824500Y-81950000D03*
X184824500Y-80450000D03*
X184824500Y-78950000D03*
X184774500Y-77450000D03*
D15*
X186324500Y-75250000D03*
X187824500Y-75250000D03*
X189324500Y-75250000D03*
X190824500Y-75250000D03*
X192324500Y-75250000D03*
X193824500Y-75250000D03*
X195324500Y-75250000D03*
X196824500Y-75250000D03*
D17*
X180787000Y-75750000D03*
X182362000Y-75750000D03*
D18*
X186875000Y-56250000D03*
X186875000Y-58750000D03*
D19*
X199574500Y-92850000D03*
X198304500Y-92850000D03*
X197034500Y-92850000D03*
X195764500Y-92850000D03*
X194494500Y-92850000D03*
X193224500Y-92850000D03*
X191954500Y-92850000D03*
X190684500Y-92850000D03*
X189414500Y-92850000D03*
X188144500Y-92850000D03*
X186874500Y-92850000D03*
X186874500Y-78750000D03*
X188144500Y-78750000D03*
X189414500Y-78750000D03*
X190684500Y-78750000D03*
X191954500Y-78750000D03*
X193224500Y-78750000D03*
X194494500Y-78750000D03*
X195764500Y-78750000D03*
X197034500Y-78750000D03*
X198304500Y-78750000D03*
X199574500Y-78750000D03*
D20*
X151625000Y-57300000D03*
X153625000Y-57300000D03*
X155625000Y-57300000D03*
X157625000Y-57300000D03*
X159625000Y-57300000D03*
X161625000Y-57300000D03*
X163625000Y-57300000D03*
X165625000Y-57300000D03*
X165625000Y-72700000D03*
X163625000Y-72700000D03*
X161625000Y-72700000D03*
X159625000Y-72700000D03*
X157625000Y-72700000D03*
X155625000Y-72700000D03*
X153625000Y-72700000D03*
X151625000Y-72700000D03*
D21*
X167325000Y-59990000D03*
X167325000Y-61990000D03*
X167325000Y-63990000D03*
X167325000Y-65990000D03*
X167325000Y-67990000D03*
X167325000Y-69990000D03*
D13*
X191025000Y-56500000D03*
X191025000Y-54850000D03*
D22*
X182324500Y-83212500D03*
X182324500Y-84787500D03*
D13*
X193025000Y-56500000D03*
X193025000Y-54850000D03*
D17*
X190287000Y-72250000D03*
X191862000Y-72250000D03*
D23*
X182574500Y-93037500D03*
X182574500Y-91462500D03*
D24*
X186824500Y-67405000D03*
X186824500Y-66135000D03*
X186824500Y-64865000D03*
X186824500Y-63595000D03*
X191774500Y-63595000D03*
X191774500Y-64865000D03*
X191774500Y-66135000D03*
X191774500Y-67405000D03*
D11*
X134195000Y-73000000D03*
X136020000Y-73000000D03*
D10*
X134020000Y-93162500D03*
X134020000Y-91337500D03*
X132020000Y-88162500D03*
X132020000Y-86337500D03*
D23*
X132270000Y-93037500D03*
X132270000Y-91462500D03*
D22*
X132020000Y-83212500D03*
X132020000Y-84787500D03*
D24*
X136520000Y-67405000D03*
X136520000Y-66135000D03*
X136520000Y-64865000D03*
X136520000Y-63595000D03*
X141470000Y-63595000D03*
X141470000Y-64865000D03*
X141470000Y-66135000D03*
X141470000Y-67405000D03*
D13*
X142720500Y-56500000D03*
X142720500Y-54850000D03*
D20*
X101320500Y-57300000D03*
X103320500Y-57300000D03*
X105320500Y-57300000D03*
X107320500Y-57300000D03*
X109320500Y-57300000D03*
X111320500Y-57300000D03*
X113320500Y-57300000D03*
X115320500Y-57300000D03*
X115320500Y-72700000D03*
X113320500Y-72700000D03*
X111320500Y-72700000D03*
X109320500Y-72700000D03*
X107320500Y-72700000D03*
X105320500Y-72700000D03*
X103320500Y-72700000D03*
X101320500Y-72700000D03*
D21*
X117020500Y-59990000D03*
X117020500Y-61990000D03*
X117020500Y-63990000D03*
X117020500Y-65990000D03*
X117020500Y-67990000D03*
X117020500Y-69990000D03*
D13*
X140720500Y-56500000D03*
X140720500Y-54850000D03*
D19*
X149270000Y-92850000D03*
X148000000Y-92850000D03*
X146730000Y-92850000D03*
X145460000Y-92850000D03*
X144190000Y-92850000D03*
X142920000Y-92850000D03*
X141650000Y-92850000D03*
X140380000Y-92850000D03*
X139110000Y-92850000D03*
X137840000Y-92850000D03*
X136570000Y-92850000D03*
X136570000Y-78750000D03*
X137840000Y-78750000D03*
X139110000Y-78750000D03*
X140380000Y-78750000D03*
X141650000Y-78750000D03*
X142920000Y-78750000D03*
X144190000Y-78750000D03*
X145460000Y-78750000D03*
X146730000Y-78750000D03*
X148000000Y-78750000D03*
X149270000Y-78750000D03*
D18*
X136570500Y-56250000D03*
X136570500Y-58750000D03*
D17*
X130482500Y-75750000D03*
X132057500Y-75750000D03*
D15*
X146520000Y-90200000D03*
X145020000Y-90200000D03*
X143520000Y-90200000D03*
X142020000Y-90200000D03*
X140520000Y-90200000D03*
X139020000Y-90200000D03*
X137520000Y-90200000D03*
X136020000Y-90250000D03*
D16*
X134520000Y-87950000D03*
X134520000Y-86450000D03*
X134520000Y-84950000D03*
X134520000Y-83450000D03*
X134520000Y-81950000D03*
X134520000Y-80450000D03*
X134520000Y-78950000D03*
X134470000Y-77450000D03*
D15*
X136020000Y-75250000D03*
X137520000Y-75250000D03*
X139020000Y-75250000D03*
X140520000Y-75250000D03*
X142020000Y-75250000D03*
X143520000Y-75250000D03*
X145020000Y-75250000D03*
X146520000Y-75250000D03*
D13*
X143520000Y-72325000D03*
X143520000Y-70675000D03*
D14*
X131470500Y-55170000D03*
X131470500Y-56440000D03*
X131470500Y-57710000D03*
X131470500Y-58980000D03*
X131470500Y-60250000D03*
X131470500Y-61520000D03*
X131470500Y-62790000D03*
X131470500Y-64060000D03*
X122170500Y-64060000D03*
X122170500Y-62790000D03*
X122170500Y-61520000D03*
X122170500Y-60250000D03*
X122170500Y-58980000D03*
X122170500Y-57710000D03*
X122170500Y-56440000D03*
X122170500Y-55170000D03*
D13*
X142720500Y-60150000D03*
X142720500Y-58500000D03*
D17*
X139982500Y-72250000D03*
X141557500Y-72250000D03*
D13*
X140720500Y-60150000D03*
X140720500Y-58500000D03*
D12*
X122820500Y-83650000D03*
X129320500Y-84750000D03*
X129320500Y-88750000D03*
X129320500Y-91750000D03*
M02*
