G04 #@! TF.GenerationSoftware,KiCad,Pcbnew,7.0.7*
G04 #@! TF.CreationDate,2024-01-09T19:06:28-05:00*
G04 #@! TF.ProjectId,sensor_node,73656e73-6f72-45f6-9e6f-64652e6b6963,rev?*
G04 #@! TF.SameCoordinates,Original*
G04 #@! TF.FileFunction,Paste,Bot*
G04 #@! TF.FilePolarity,Positive*
%FSLAX46Y46*%
G04 Gerber Fmt 4.6, Leading zero omitted, Abs format (unit mm)*
G04 Created by KiCad (PCBNEW 7.0.7) date 2024-01-09 19:06:28*
%MOMM*%
%LPD*%
G01*
G04 APERTURE LIST*
G04 Aperture macros list*
%AMRoundRect*
0 Rectangle with rounded corners*
0 $1 Rounding radius*
0 $2 $3 $4 $5 $6 $7 $8 $9 X,Y pos of 4 corners*
0 Add a 4 corners polygon primitive as box body*
4,1,4,$2,$3,$4,$5,$6,$7,$8,$9,$2,$3,0*
0 Add four circle primitives for the rounded corners*
1,1,$1+$1,$2,$3*
1,1,$1+$1,$4,$5*
1,1,$1+$1,$6,$7*
1,1,$1+$1,$8,$9*
0 Add four rect primitives between the rounded corners*
20,1,$1+$1,$2,$3,$4,$5,0*
20,1,$1+$1,$4,$5,$6,$7,0*
20,1,$1+$1,$6,$7,$8,$9,0*
20,1,$1+$1,$8,$9,$2,$3,0*%
G04 Aperture macros list end*
%ADD10RoundRect,0.350000X-0.350000X0.650000X-0.350000X-0.650000X0.350000X-0.650000X0.350000X0.650000X0*%
%ADD11RoundRect,0.250000X0.262500X0.450000X-0.262500X0.450000X-0.262500X-0.450000X0.262500X-0.450000X0*%
%ADD12R,2.000000X0.700000*%
%ADD13R,0.700000X2.000000*%
%ADD14RoundRect,0.200000X0.200000X-0.800000X0.200000X0.800000X-0.200000X0.800000X-0.200000X-0.800000X0*%
%ADD15RoundRect,0.200000X-0.800000X-0.200000X0.800000X-0.200000X0.800000X0.200000X-0.800000X0.200000X0*%
%ADD16R,2.500000X1.100000*%
%ADD17R,1.100000X2.500000*%
G04 APERTURE END LIST*
D10*
X181750000Y-128050000D03*
X183750000Y-128050000D03*
X185750000Y-128050000D03*
X187750000Y-128050000D03*
X189750000Y-128050000D03*
X191750000Y-128050000D03*
D11*
X176300000Y-52700000D03*
X174475000Y-52700000D03*
X176300000Y-49750000D03*
X174475000Y-49750000D03*
X176287500Y-47350000D03*
X174462500Y-47350000D03*
X176287500Y-55100000D03*
X174462500Y-55100000D03*
D12*
X195050000Y-68350000D03*
X195050000Y-69620000D03*
X195050000Y-70890000D03*
X195050000Y-72160000D03*
X195050000Y-73430000D03*
D13*
X192200000Y-75950000D03*
X190930000Y-75950000D03*
X189660000Y-75950000D03*
X188390000Y-75950000D03*
X187120000Y-75950000D03*
D12*
X184250000Y-73480000D03*
X184250000Y-72210000D03*
X184250000Y-70940000D03*
X184250000Y-69670000D03*
X184250000Y-68400000D03*
D13*
X187120000Y-65850000D03*
X188390000Y-65850000D03*
X189660000Y-65850000D03*
X190930000Y-65850000D03*
X192200000Y-65850000D03*
X146650000Y-104650000D03*
X147920000Y-104650000D03*
X149190000Y-104650000D03*
X150460000Y-104650000D03*
X151730000Y-104650000D03*
X153000000Y-104650000D03*
X154270000Y-104650000D03*
X155540000Y-104650000D03*
D12*
X157800000Y-102030000D03*
X157800000Y-100760000D03*
X157800000Y-99490000D03*
X157800000Y-98220000D03*
X157800000Y-96950000D03*
X157800000Y-95680000D03*
X157800000Y-94410000D03*
X157800000Y-93140000D03*
D13*
X155540000Y-90550000D03*
X154270000Y-90550000D03*
X153000000Y-90550000D03*
X151730000Y-90550000D03*
X150460000Y-90550000D03*
X149190000Y-90550000D03*
X147920000Y-90550000D03*
X146650000Y-90550000D03*
D14*
X145900000Y-122850000D03*
X147400000Y-122850000D03*
X148900000Y-122850000D03*
X150400000Y-122850000D03*
X151900000Y-122850000D03*
X153400000Y-122850000D03*
X154900000Y-122850000D03*
X156400000Y-122800000D03*
D15*
X157900000Y-125100000D03*
X157900000Y-126600000D03*
X157900000Y-128100000D03*
X157900000Y-129600000D03*
X157900000Y-131100000D03*
X157900000Y-132600000D03*
X157900000Y-134100000D03*
X157950000Y-135600000D03*
D14*
X156400000Y-137800000D03*
X154900000Y-137800000D03*
X153400000Y-137800000D03*
X151900000Y-137800000D03*
X150400000Y-137800000D03*
X148900000Y-137800000D03*
X147400000Y-137800000D03*
X145900000Y-137800000D03*
D16*
X196900000Y-44600000D03*
X196900000Y-46600000D03*
X196900000Y-48600000D03*
X196900000Y-50600000D03*
X196900000Y-52600000D03*
X196900000Y-54600000D03*
X196900000Y-56600000D03*
X196900000Y-58600000D03*
X181500000Y-58600000D03*
X181500000Y-56600000D03*
X181500000Y-54600000D03*
X181500000Y-52600000D03*
X181500000Y-50600000D03*
X181500000Y-48600000D03*
X181500000Y-46600000D03*
X181500000Y-44600000D03*
D17*
X194210000Y-60300000D03*
X192210000Y-60300000D03*
X190210000Y-60300000D03*
X188210000Y-60300000D03*
X186210000Y-60300000D03*
X184210000Y-60300000D03*
D12*
X152000000Y-44212500D03*
X152000000Y-45482500D03*
X152000000Y-46752500D03*
X152000000Y-48022500D03*
X152000000Y-49292500D03*
X152000000Y-50562500D03*
X152000000Y-51832500D03*
X152000000Y-53102500D03*
X152000000Y-54372500D03*
X152000000Y-55642500D03*
X152000000Y-56912500D03*
X166100000Y-56912500D03*
X166100000Y-55642500D03*
X166100000Y-54372500D03*
X166100000Y-53102500D03*
X166100000Y-51832500D03*
X166100000Y-50562500D03*
X166100000Y-49292500D03*
X166100000Y-48022500D03*
X166100000Y-46752500D03*
X166100000Y-45482500D03*
X166100000Y-44212500D03*
M02*
