G04 #@! TF.GenerationSoftware,KiCad,Pcbnew,7.0.7*
G04 #@! TF.CreationDate,2024-01-02T16:25:42-05:00*
G04 #@! TF.ProjectId,sensor_node,73656e73-6f72-45f6-9e6f-64652e6b6963,rev?*
G04 #@! TF.SameCoordinates,Original*
G04 #@! TF.FileFunction,Paste,Bot*
G04 #@! TF.FilePolarity,Positive*
%FSLAX46Y46*%
G04 Gerber Fmt 4.6, Leading zero omitted, Abs format (unit mm)*
G04 Created by KiCad (PCBNEW 7.0.7) date 2024-01-02 16:25:42*
%MOMM*%
%LPD*%
G01*
G04 APERTURE LIST*
G04 Aperture macros list*
%AMRoundRect*
0 Rectangle with rounded corners*
0 $1 Rounding radius*
0 $2 $3 $4 $5 $6 $7 $8 $9 X,Y pos of 4 corners*
0 Add a 4 corners polygon primitive as box body*
4,1,4,$2,$3,$4,$5,$6,$7,$8,$9,$2,$3,0*
0 Add four circle primitives for the rounded corners*
1,1,$1+$1,$2,$3*
1,1,$1+$1,$4,$5*
1,1,$1+$1,$6,$7*
1,1,$1+$1,$8,$9*
0 Add four rect primitives between the rounded corners*
20,1,$1+$1,$2,$3,$4,$5,0*
20,1,$1+$1,$4,$5,$6,$7,0*
20,1,$1+$1,$6,$7,$8,$9,0*
20,1,$1+$1,$8,$9,$2,$3,0*%
G04 Aperture macros list end*
%ADD10RoundRect,0.218750X-0.218750X-0.256250X0.218750X-0.256250X0.218750X0.256250X-0.218750X0.256250X0*%
%ADD11R,0.700000X2.000000*%
%ADD12RoundRect,0.200000X0.275000X-0.200000X0.275000X0.200000X-0.275000X0.200000X-0.275000X-0.200000X0*%
%ADD13RoundRect,0.150000X0.875000X0.150000X-0.875000X0.150000X-0.875000X-0.150000X0.875000X-0.150000X0*%
%ADD14R,1.800000X1.000000*%
%ADD15R,1.100000X2.500000*%
%ADD16R,2.500000X1.100000*%
%ADD17RoundRect,0.218750X0.256250X-0.218750X0.256250X0.218750X-0.256250X0.218750X-0.256250X-0.218750X0*%
%ADD18RoundRect,0.250000X-0.262500X-0.450000X0.262500X-0.450000X0.262500X0.450000X-0.262500X0.450000X0*%
%ADD19RoundRect,0.250000X0.450000X-0.262500X0.450000X0.262500X-0.450000X0.262500X-0.450000X-0.262500X0*%
%ADD20RoundRect,0.200000X-0.200000X0.800000X-0.200000X-0.800000X0.200000X-0.800000X0.200000X0.800000X0*%
%ADD21RoundRect,0.200000X0.800000X0.200000X-0.800000X0.200000X-0.800000X-0.200000X0.800000X-0.200000X0*%
%ADD22R,2.500000X1.200000*%
%ADD23RoundRect,0.150000X-0.825000X-0.150000X0.825000X-0.150000X0.825000X0.150000X-0.825000X0.150000X0*%
G04 APERTURE END LIST*
D10*
X79682500Y-124000000D03*
X81257500Y-124000000D03*
D11*
X98300000Y-127000000D03*
X97030000Y-127000000D03*
X95760000Y-127000000D03*
X94490000Y-127000000D03*
X93220000Y-127000000D03*
X91950000Y-127000000D03*
X90680000Y-127000000D03*
X89410000Y-127000000D03*
X88140000Y-127000000D03*
X86870000Y-127000000D03*
X85600000Y-127000000D03*
X85600000Y-141100000D03*
X86870000Y-141100000D03*
X88140000Y-141100000D03*
X89410000Y-141100000D03*
X90680000Y-141100000D03*
X91950000Y-141100000D03*
X93220000Y-141100000D03*
X94490000Y-141100000D03*
X95760000Y-141100000D03*
X97030000Y-141100000D03*
X98300000Y-141100000D03*
D12*
X89920500Y-104750000D03*
X89920500Y-103100000D03*
D13*
X80670500Y-103420000D03*
X80670500Y-104690000D03*
X80670500Y-105960000D03*
X80670500Y-107230000D03*
X80670500Y-108500000D03*
X80670500Y-109770000D03*
X80670500Y-111040000D03*
X80670500Y-112310000D03*
X71370500Y-112310000D03*
X71370500Y-111040000D03*
X71370500Y-109770000D03*
X71370500Y-108500000D03*
X71370500Y-107230000D03*
X71370500Y-105960000D03*
X71370500Y-104690000D03*
X71370500Y-103420000D03*
D12*
X89920500Y-108400000D03*
X89920500Y-106750000D03*
D14*
X85770500Y-104500000D03*
X85770500Y-107000000D03*
D12*
X92720000Y-120575000D03*
X92720000Y-118925000D03*
D15*
X51500000Y-105550000D03*
X53500000Y-105550000D03*
X55500000Y-105550000D03*
X57500000Y-105550000D03*
X59500000Y-105550000D03*
X61500000Y-105550000D03*
X63500000Y-105550000D03*
X65500000Y-105550000D03*
X65500000Y-120950000D03*
X63500000Y-120950000D03*
X61500000Y-120950000D03*
X59500000Y-120950000D03*
X57500000Y-120950000D03*
X55500000Y-120950000D03*
X53500000Y-120950000D03*
X51500000Y-120950000D03*
D16*
X67200000Y-108240000D03*
X67200000Y-110240000D03*
X67200000Y-112240000D03*
X67200000Y-114240000D03*
X67200000Y-116240000D03*
X67200000Y-118240000D03*
D17*
X81470000Y-141287500D03*
X81470000Y-139712500D03*
D12*
X91920500Y-104750000D03*
X91920500Y-103100000D03*
D10*
X89182500Y-120500000D03*
X90757500Y-120500000D03*
X76812500Y-127250000D03*
X78387500Y-127250000D03*
D18*
X83395000Y-121250000D03*
X85220000Y-121250000D03*
D19*
X83220000Y-141412500D03*
X83220000Y-139587500D03*
D12*
X91920500Y-108400000D03*
X91920500Y-106750000D03*
D20*
X95500000Y-123500000D03*
X94000000Y-123500000D03*
X92500000Y-123500000D03*
X91000000Y-123500000D03*
X89500000Y-123500000D03*
X88000000Y-123500000D03*
X86500000Y-123500000D03*
X85000000Y-123500000D03*
D21*
X83450000Y-125700000D03*
X83500000Y-127200000D03*
X83500000Y-128700000D03*
X83500000Y-130200000D03*
X83500000Y-131700000D03*
X83500000Y-133200000D03*
X83500000Y-134700000D03*
X83500000Y-136200000D03*
D20*
X85000000Y-138500000D03*
X86500000Y-138450000D03*
X88000000Y-138450000D03*
X89500000Y-138450000D03*
X91000000Y-138450000D03*
X92500000Y-138450000D03*
X94000000Y-138450000D03*
X95500000Y-138450000D03*
D22*
X72162500Y-131900000D03*
X78662500Y-133000000D03*
X78662500Y-137000000D03*
X78662500Y-140000000D03*
D23*
X85720000Y-115655000D03*
X85720000Y-114385000D03*
X85720000Y-113115000D03*
X85720000Y-111845000D03*
X90670000Y-111845000D03*
X90670000Y-113115000D03*
X90670000Y-114385000D03*
X90670000Y-115655000D03*
D19*
X80600000Y-129162500D03*
X80600000Y-127337500D03*
D10*
X129682500Y-124000000D03*
X131257500Y-124000000D03*
D11*
X148300000Y-127000000D03*
X147030000Y-127000000D03*
X145760000Y-127000000D03*
X144490000Y-127000000D03*
X143220000Y-127000000D03*
X141950000Y-127000000D03*
X140680000Y-127000000D03*
X139410000Y-127000000D03*
X138140000Y-127000000D03*
X136870000Y-127000000D03*
X135600000Y-127000000D03*
X135600000Y-141100000D03*
X136870000Y-141100000D03*
X138140000Y-141100000D03*
X139410000Y-141100000D03*
X140680000Y-141100000D03*
X141950000Y-141100000D03*
X143220000Y-141100000D03*
X144490000Y-141100000D03*
X145760000Y-141100000D03*
X147030000Y-141100000D03*
X148300000Y-141100000D03*
D13*
X130670500Y-103420000D03*
X130670500Y-104690000D03*
X130670500Y-105960000D03*
X130670500Y-107230000D03*
X130670500Y-108500000D03*
X130670500Y-109770000D03*
X130670500Y-111040000D03*
X130670500Y-112310000D03*
X121370500Y-112310000D03*
X121370500Y-111040000D03*
X121370500Y-109770000D03*
X121370500Y-108500000D03*
X121370500Y-107230000D03*
X121370500Y-105960000D03*
X121370500Y-104690000D03*
X121370500Y-103420000D03*
D12*
X139920500Y-108400000D03*
X139920500Y-106750000D03*
D14*
X135770500Y-104500000D03*
X135770500Y-107000000D03*
D12*
X142720000Y-120575000D03*
X142720000Y-118925000D03*
D15*
X101500000Y-105550000D03*
X103500000Y-105550000D03*
X105500000Y-105550000D03*
X107500000Y-105550000D03*
X109500000Y-105550000D03*
X111500000Y-105550000D03*
X113500000Y-105550000D03*
X115500000Y-105550000D03*
X115500000Y-120950000D03*
X113500000Y-120950000D03*
X111500000Y-120950000D03*
X109500000Y-120950000D03*
X107500000Y-120950000D03*
X105500000Y-120950000D03*
X103500000Y-120950000D03*
X101500000Y-120950000D03*
D16*
X117200000Y-108240000D03*
X117200000Y-110240000D03*
X117200000Y-112240000D03*
X117200000Y-114240000D03*
X117200000Y-116240000D03*
X117200000Y-118240000D03*
D17*
X131470000Y-141287500D03*
X131470000Y-139712500D03*
D12*
X141920500Y-104750000D03*
X141920500Y-103100000D03*
X139920500Y-104750000D03*
X139920500Y-103100000D03*
D18*
X133395000Y-121250000D03*
X135220000Y-121250000D03*
D19*
X133220000Y-141412500D03*
X133220000Y-139587500D03*
D12*
X141920500Y-108400000D03*
X141920500Y-106750000D03*
D20*
X145500000Y-123500000D03*
X144000000Y-123500000D03*
X142500000Y-123500000D03*
X141000000Y-123500000D03*
X139500000Y-123500000D03*
X138000000Y-123500000D03*
X136500000Y-123500000D03*
X135000000Y-123500000D03*
D21*
X133450000Y-125700000D03*
X133500000Y-127200000D03*
X133500000Y-128700000D03*
X133500000Y-130200000D03*
X133500000Y-131700000D03*
X133500000Y-133200000D03*
X133500000Y-134700000D03*
X133500000Y-136200000D03*
D20*
X135000000Y-138500000D03*
X136500000Y-138450000D03*
X138000000Y-138450000D03*
X139500000Y-138450000D03*
X141000000Y-138450000D03*
X142500000Y-138450000D03*
X144000000Y-138450000D03*
X145500000Y-138450000D03*
D22*
X122162500Y-131900000D03*
X128662500Y-133000000D03*
X128662500Y-137000000D03*
X128662500Y-140000000D03*
D10*
X126812500Y-127250000D03*
X128387500Y-127250000D03*
D23*
X135720000Y-115655000D03*
X135720000Y-114385000D03*
X135720000Y-113115000D03*
X135720000Y-111845000D03*
X140670000Y-111845000D03*
X140670000Y-113115000D03*
X140670000Y-114385000D03*
X140670000Y-115655000D03*
D10*
X139182500Y-120500000D03*
X140757500Y-120500000D03*
D19*
X130600000Y-129162500D03*
X130600000Y-127337500D03*
D10*
X79682500Y-74000000D03*
X81257500Y-74000000D03*
D11*
X98300000Y-77000000D03*
X97030000Y-77000000D03*
X95760000Y-77000000D03*
X94490000Y-77000000D03*
X93220000Y-77000000D03*
X91950000Y-77000000D03*
X90680000Y-77000000D03*
X89410000Y-77000000D03*
X88140000Y-77000000D03*
X86870000Y-77000000D03*
X85600000Y-77000000D03*
X85600000Y-91100000D03*
X86870000Y-91100000D03*
X88140000Y-91100000D03*
X89410000Y-91100000D03*
X90680000Y-91100000D03*
X91950000Y-91100000D03*
X93220000Y-91100000D03*
X94490000Y-91100000D03*
X95760000Y-91100000D03*
X97030000Y-91100000D03*
X98300000Y-91100000D03*
D12*
X89920500Y-54750000D03*
X89920500Y-53100000D03*
D14*
X85770500Y-54500000D03*
X85770500Y-57000000D03*
D12*
X92720000Y-70575000D03*
X92720000Y-68925000D03*
D23*
X85720000Y-65655000D03*
X85720000Y-64385000D03*
X85720000Y-63115000D03*
X85720000Y-61845000D03*
X90670000Y-61845000D03*
X90670000Y-63115000D03*
X90670000Y-64385000D03*
X90670000Y-65655000D03*
D17*
X81470000Y-91287500D03*
X81470000Y-89712500D03*
D18*
X83395000Y-71250000D03*
X85220000Y-71250000D03*
D10*
X89182500Y-70500000D03*
X90757500Y-70500000D03*
D22*
X72162500Y-81900000D03*
X78662500Y-83000000D03*
X78662500Y-87000000D03*
X78662500Y-90000000D03*
D12*
X91920500Y-58400000D03*
X91920500Y-56750000D03*
D20*
X95500000Y-73500000D03*
X94000000Y-73500000D03*
X92500000Y-73500000D03*
X91000000Y-73500000D03*
X89500000Y-73500000D03*
X88000000Y-73500000D03*
X86500000Y-73500000D03*
X85000000Y-73500000D03*
D21*
X83450000Y-75700000D03*
X83500000Y-77200000D03*
X83500000Y-78700000D03*
X83500000Y-80200000D03*
X83500000Y-81700000D03*
X83500000Y-83200000D03*
X83500000Y-84700000D03*
X83500000Y-86200000D03*
D20*
X85000000Y-88500000D03*
X86500000Y-88450000D03*
X88000000Y-88450000D03*
X89500000Y-88450000D03*
X91000000Y-88450000D03*
X92500000Y-88450000D03*
X94000000Y-88450000D03*
X95500000Y-88450000D03*
D12*
X91920500Y-54750000D03*
X91920500Y-53100000D03*
D10*
X76812500Y-77250000D03*
X78387500Y-77250000D03*
D19*
X83220000Y-91412500D03*
X83220000Y-89587500D03*
D15*
X51500000Y-55550000D03*
X53500000Y-55550000D03*
X55500000Y-55550000D03*
X57500000Y-55550000D03*
X59500000Y-55550000D03*
X61500000Y-55550000D03*
X63500000Y-55550000D03*
X65500000Y-55550000D03*
X65500000Y-70950000D03*
X63500000Y-70950000D03*
X61500000Y-70950000D03*
X59500000Y-70950000D03*
X57500000Y-70950000D03*
X55500000Y-70950000D03*
X53500000Y-70950000D03*
X51500000Y-70950000D03*
D16*
X67200000Y-58240000D03*
X67200000Y-60240000D03*
X67200000Y-62240000D03*
X67200000Y-64240000D03*
X67200000Y-66240000D03*
X67200000Y-68240000D03*
D12*
X89920500Y-58400000D03*
X89920500Y-56750000D03*
D19*
X80600000Y-79162500D03*
X80600000Y-77337500D03*
D13*
X80670500Y-53420000D03*
X80670500Y-54690000D03*
X80670500Y-55960000D03*
X80670500Y-57230000D03*
X80670500Y-58500000D03*
X80670500Y-59770000D03*
X80670500Y-61040000D03*
X80670500Y-62310000D03*
X71370500Y-62310000D03*
X71370500Y-61040000D03*
X71370500Y-59770000D03*
X71370500Y-58500000D03*
X71370500Y-57230000D03*
X71370500Y-55960000D03*
X71370500Y-54690000D03*
X71370500Y-53420000D03*
D17*
X131470000Y-91287500D03*
X131470000Y-89712500D03*
D19*
X133220000Y-91412500D03*
X133220000Y-89587500D03*
D18*
X133395000Y-71250000D03*
X135220000Y-71250000D03*
D10*
X126812500Y-77250000D03*
X128387500Y-77250000D03*
D23*
X135720000Y-65655000D03*
X135720000Y-64385000D03*
X135720000Y-63115000D03*
X135720000Y-61845000D03*
X140670000Y-61845000D03*
X140670000Y-63115000D03*
X140670000Y-64385000D03*
X140670000Y-65655000D03*
D12*
X141920500Y-54750000D03*
X141920500Y-53100000D03*
D15*
X101500000Y-55550000D03*
X103500000Y-55550000D03*
X105500000Y-55550000D03*
X107500000Y-55550000D03*
X109500000Y-55550000D03*
X111500000Y-55550000D03*
X113500000Y-55550000D03*
X115500000Y-55550000D03*
X115500000Y-70950000D03*
X113500000Y-70950000D03*
X111500000Y-70950000D03*
X109500000Y-70950000D03*
X107500000Y-70950000D03*
X105500000Y-70950000D03*
X103500000Y-70950000D03*
X101500000Y-70950000D03*
D16*
X117200000Y-58240000D03*
X117200000Y-60240000D03*
X117200000Y-62240000D03*
X117200000Y-64240000D03*
X117200000Y-66240000D03*
X117200000Y-68240000D03*
D12*
X139920500Y-54750000D03*
X139920500Y-53100000D03*
D19*
X130600000Y-79162500D03*
X130600000Y-77337500D03*
D11*
X148300000Y-77000000D03*
X147030000Y-77000000D03*
X145760000Y-77000000D03*
X144490000Y-77000000D03*
X143220000Y-77000000D03*
X141950000Y-77000000D03*
X140680000Y-77000000D03*
X139410000Y-77000000D03*
X138140000Y-77000000D03*
X136870000Y-77000000D03*
X135600000Y-77000000D03*
X135600000Y-91100000D03*
X136870000Y-91100000D03*
X138140000Y-91100000D03*
X139410000Y-91100000D03*
X140680000Y-91100000D03*
X141950000Y-91100000D03*
X143220000Y-91100000D03*
X144490000Y-91100000D03*
X145760000Y-91100000D03*
X147030000Y-91100000D03*
X148300000Y-91100000D03*
D14*
X135770500Y-54500000D03*
X135770500Y-57000000D03*
D10*
X129682500Y-74000000D03*
X131257500Y-74000000D03*
D20*
X145500000Y-73500000D03*
X144000000Y-73500000D03*
X142500000Y-73500000D03*
X141000000Y-73500000D03*
X139500000Y-73500000D03*
X138000000Y-73500000D03*
X136500000Y-73500000D03*
X135000000Y-73500000D03*
D21*
X133450000Y-75700000D03*
X133500000Y-77200000D03*
X133500000Y-78700000D03*
X133500000Y-80200000D03*
X133500000Y-81700000D03*
X133500000Y-83200000D03*
X133500000Y-84700000D03*
X133500000Y-86200000D03*
D20*
X135000000Y-88500000D03*
X136500000Y-88450000D03*
X138000000Y-88450000D03*
X139500000Y-88450000D03*
X141000000Y-88450000D03*
X142500000Y-88450000D03*
X144000000Y-88450000D03*
X145500000Y-88450000D03*
D12*
X142720000Y-70575000D03*
X142720000Y-68925000D03*
D13*
X130670500Y-53420000D03*
X130670500Y-54690000D03*
X130670500Y-55960000D03*
X130670500Y-57230000D03*
X130670500Y-58500000D03*
X130670500Y-59770000D03*
X130670500Y-61040000D03*
X130670500Y-62310000D03*
X121370500Y-62310000D03*
X121370500Y-61040000D03*
X121370500Y-59770000D03*
X121370500Y-58500000D03*
X121370500Y-57230000D03*
X121370500Y-55960000D03*
X121370500Y-54690000D03*
X121370500Y-53420000D03*
D12*
X141920500Y-58400000D03*
X141920500Y-56750000D03*
D10*
X139182500Y-70500000D03*
X140757500Y-70500000D03*
D12*
X139920500Y-58400000D03*
X139920500Y-56750000D03*
D22*
X122162500Y-81900000D03*
X128662500Y-83000000D03*
X128662500Y-87000000D03*
X128662500Y-90000000D03*
M02*
