G04 #@! TF.GenerationSoftware,KiCad,Pcbnew,7.0.7*
G04 #@! TF.CreationDate,2023-12-30T15:49:33-05:00*
G04 #@! TF.ProjectId,sensor_node,73656e73-6f72-45f6-9e6f-64652e6b6963,rev?*
G04 #@! TF.SameCoordinates,Original*
G04 #@! TF.FileFunction,Legend,Top*
G04 #@! TF.FilePolarity,Positive*
%FSLAX46Y46*%
G04 Gerber Fmt 4.6, Leading zero omitted, Abs format (unit mm)*
G04 Created by KiCad (PCBNEW 7.0.7) date 2023-12-30 15:49:33*
%MOMM*%
%LPD*%
G01*
G04 APERTURE LIST*
G04 Aperture macros list*
%AMRoundRect*
0 Rectangle with rounded corners*
0 $1 Rounding radius*
0 $2 $3 $4 $5 $6 $7 $8 $9 X,Y pos of 4 corners*
0 Add a 4 corners polygon primitive as box body*
4,1,4,$2,$3,$4,$5,$6,$7,$8,$9,$2,$3,0*
0 Add four circle primitives for the rounded corners*
1,1,$1+$1,$2,$3*
1,1,$1+$1,$4,$5*
1,1,$1+$1,$6,$7*
1,1,$1+$1,$8,$9*
0 Add four rect primitives between the rounded corners*
20,1,$1+$1,$2,$3,$4,$5,0*
20,1,$1+$1,$4,$5,$6,$7,0*
20,1,$1+$1,$6,$7,$8,$9,0*
20,1,$1+$1,$8,$9,$2,$3,0*%
%AMFreePoly0*
4,1,6,0.500000,-0.850000,-0.500000,-0.850000,-0.500000,0.550000,-0.200000,0.850000,0.500000,0.850000,0.500000,-0.850000,0.500000,-0.850000,$1*%
G04 Aperture macros list end*
%ADD10C,0.150000*%
%ADD11C,0.120000*%
%ADD12C,0.200000*%
%ADD13C,0.127000*%
%ADD14C,0.152400*%
%ADD15RoundRect,0.250000X-0.450000X0.262500X-0.450000X-0.262500X0.450000X-0.262500X0.450000X0.262500X0*%
%ADD16RoundRect,0.250000X-0.625000X0.312500X-0.625000X-0.312500X0.625000X-0.312500X0.625000X0.312500X0*%
%ADD17RoundRect,0.102000X-0.600000X-0.450000X0.600000X-0.450000X0.600000X0.450000X-0.600000X0.450000X0*%
%ADD18RoundRect,0.150000X0.150000X-0.587500X0.150000X0.587500X-0.150000X0.587500X-0.150000X-0.587500X0*%
%ADD19RoundRect,0.250000X0.650000X-0.325000X0.650000X0.325000X-0.650000X0.325000X-0.650000X-0.325000X0*%
%ADD20RoundRect,0.250000X0.325000X0.650000X-0.325000X0.650000X-0.325000X-0.650000X0.325000X-0.650000X0*%
%ADD21RoundRect,0.250000X-0.312500X-0.625000X0.312500X-0.625000X0.312500X0.625000X-0.312500X0.625000X0*%
%ADD22RoundRect,0.200000X0.200000X0.275000X-0.200000X0.275000X-0.200000X-0.275000X0.200000X-0.275000X0*%
%ADD23R,0.700000X1.200000*%
%ADD24R,0.760000X1.200000*%
%ADD25R,0.800000X1.200000*%
%ADD26R,1.800000X1.350000*%
%ADD27R,1.800000X1.500000*%
%ADD28RoundRect,0.102000X1.750000X-0.500000X1.750000X0.500000X-1.750000X0.500000X-1.750000X-0.500000X0*%
%ADD29RoundRect,0.102000X1.700000X-0.750000X1.700000X0.750000X-1.700000X0.750000X-1.700000X-0.750000X0*%
%ADD30C,1.000000*%
%ADD31RoundRect,0.102000X0.125000X-0.275000X0.125000X0.275000X-0.125000X0.275000X-0.125000X-0.275000X0*%
%ADD32RoundRect,0.200000X-0.275000X0.200000X-0.275000X-0.200000X0.275000X-0.200000X0.275000X0.200000X0*%
%ADD33R,1.000000X1.000000*%
%ADD34O,1.000000X1.000000*%
%ADD35RoundRect,0.200000X0.275000X-0.200000X0.275000X0.200000X-0.275000X0.200000X-0.275000X-0.200000X0*%
%ADD36RoundRect,0.150000X-0.512500X-0.150000X0.512500X-0.150000X0.512500X0.150000X-0.512500X0.150000X0*%
%ADD37R,1.700000X1.700000*%
%ADD38O,1.700000X1.700000*%
%ADD39RoundRect,0.112500X0.112500X-0.187500X0.112500X0.187500X-0.112500X0.187500X-0.112500X-0.187500X0*%
%ADD40RoundRect,0.150000X-0.587500X-0.150000X0.587500X-0.150000X0.587500X0.150000X-0.587500X0.150000X0*%
%ADD41RoundRect,0.150000X-0.150000X0.512500X-0.150000X-0.512500X0.150000X-0.512500X0.150000X0.512500X0*%
%ADD42R,1.500000X1.050000*%
%ADD43O,1.500000X1.050000*%
%ADD44R,0.250000X0.550000*%
%ADD45FreePoly0,270.000000*%
%ADD46RoundRect,0.100000X0.100000X-0.637500X0.100000X0.637500X-0.100000X0.637500X-0.100000X-0.637500X0*%
%ADD47RoundRect,0.102000X0.750000X-0.800000X0.750000X0.800000X-0.750000X0.800000X-0.750000X-0.800000X0*%
%ADD48R,2.100000X2.100000*%
%ADD49C,2.100000*%
%ADD50RoundRect,0.250000X-0.650000X0.325000X-0.650000X-0.325000X0.650000X-0.325000X0.650000X0.325000X0*%
%ADD51R,0.600000X0.720000*%
%ADD52R,0.650000X1.050000*%
%ADD53RoundRect,0.250000X0.312500X0.625000X-0.312500X0.625000X-0.312500X-0.625000X0.312500X-0.625000X0*%
%ADD54RoundRect,0.250000X-0.325000X-0.650000X0.325000X-0.650000X0.325000X0.650000X-0.325000X0.650000X0*%
%ADD55R,1.350000X1.350000*%
%ADD56O,1.350000X1.350000*%
%ADD57RoundRect,0.218750X0.218750X0.256250X-0.218750X0.256250X-0.218750X-0.256250X0.218750X-0.256250X0*%
%ADD58R,1.050000X0.650000*%
G04 APERTURE END LIST*
D10*
X140224300Y-82289160D02*
X140176680Y-82432017D01*
X140176680Y-82432017D02*
X140176680Y-82670112D01*
X140176680Y-82670112D02*
X140224300Y-82765350D01*
X140224300Y-82765350D02*
X140271919Y-82812969D01*
X140271919Y-82812969D02*
X140367157Y-82860588D01*
X140367157Y-82860588D02*
X140462395Y-82860588D01*
X140462395Y-82860588D02*
X140557633Y-82812969D01*
X140557633Y-82812969D02*
X140605252Y-82765350D01*
X140605252Y-82765350D02*
X140652871Y-82670112D01*
X140652871Y-82670112D02*
X140700490Y-82479636D01*
X140700490Y-82479636D02*
X140748109Y-82384398D01*
X140748109Y-82384398D02*
X140795728Y-82336779D01*
X140795728Y-82336779D02*
X140890966Y-82289160D01*
X140890966Y-82289160D02*
X140986204Y-82289160D01*
X140986204Y-82289160D02*
X141081442Y-82336779D01*
X141081442Y-82336779D02*
X141129061Y-82384398D01*
X141129061Y-82384398D02*
X141176680Y-82479636D01*
X141176680Y-82479636D02*
X141176680Y-82717731D01*
X141176680Y-82717731D02*
X141129061Y-82860588D01*
X140176680Y-83289160D02*
X141176680Y-83289160D01*
X141176680Y-83289160D02*
X141176680Y-83527255D01*
X141176680Y-83527255D02*
X141129061Y-83670112D01*
X141129061Y-83670112D02*
X141033823Y-83765350D01*
X141033823Y-83765350D02*
X140938585Y-83812969D01*
X140938585Y-83812969D02*
X140748109Y-83860588D01*
X140748109Y-83860588D02*
X140605252Y-83860588D01*
X140605252Y-83860588D02*
X140414776Y-83812969D01*
X140414776Y-83812969D02*
X140319538Y-83765350D01*
X140319538Y-83765350D02*
X140224300Y-83670112D01*
X140224300Y-83670112D02*
X140176680Y-83527255D01*
X140176680Y-83527255D02*
X140176680Y-83289160D01*
X140462395Y-84241541D02*
X140462395Y-84717731D01*
X140176680Y-84146303D02*
X141176680Y-84479636D01*
X141176680Y-84479636D02*
X140176680Y-84812969D01*
X146176680Y-82443922D02*
X145176680Y-82777255D01*
X145176680Y-82777255D02*
X146176680Y-83110588D01*
X145557633Y-83443922D02*
X145557633Y-84205827D01*
X142724300Y-82289160D02*
X142676680Y-82432017D01*
X142676680Y-82432017D02*
X142676680Y-82670112D01*
X142676680Y-82670112D02*
X142724300Y-82765350D01*
X142724300Y-82765350D02*
X142771919Y-82812969D01*
X142771919Y-82812969D02*
X142867157Y-82860588D01*
X142867157Y-82860588D02*
X142962395Y-82860588D01*
X142962395Y-82860588D02*
X143057633Y-82812969D01*
X143057633Y-82812969D02*
X143105252Y-82765350D01*
X143105252Y-82765350D02*
X143152871Y-82670112D01*
X143152871Y-82670112D02*
X143200490Y-82479636D01*
X143200490Y-82479636D02*
X143248109Y-82384398D01*
X143248109Y-82384398D02*
X143295728Y-82336779D01*
X143295728Y-82336779D02*
X143390966Y-82289160D01*
X143390966Y-82289160D02*
X143486204Y-82289160D01*
X143486204Y-82289160D02*
X143581442Y-82336779D01*
X143581442Y-82336779D02*
X143629061Y-82384398D01*
X143629061Y-82384398D02*
X143676680Y-82479636D01*
X143676680Y-82479636D02*
X143676680Y-82717731D01*
X143676680Y-82717731D02*
X143629061Y-82860588D01*
X142771919Y-83860588D02*
X142724300Y-83812969D01*
X142724300Y-83812969D02*
X142676680Y-83670112D01*
X142676680Y-83670112D02*
X142676680Y-83574874D01*
X142676680Y-83574874D02*
X142724300Y-83432017D01*
X142724300Y-83432017D02*
X142819538Y-83336779D01*
X142819538Y-83336779D02*
X142914776Y-83289160D01*
X142914776Y-83289160D02*
X143105252Y-83241541D01*
X143105252Y-83241541D02*
X143248109Y-83241541D01*
X143248109Y-83241541D02*
X143438585Y-83289160D01*
X143438585Y-83289160D02*
X143533823Y-83336779D01*
X143533823Y-83336779D02*
X143629061Y-83432017D01*
X143629061Y-83432017D02*
X143676680Y-83574874D01*
X143676680Y-83574874D02*
X143676680Y-83670112D01*
X143676680Y-83670112D02*
X143629061Y-83812969D01*
X143629061Y-83812969D02*
X143581442Y-83860588D01*
X142676680Y-84765350D02*
X142676680Y-84289160D01*
X142676680Y-84289160D02*
X143676680Y-84289160D01*
X148630180Y-82443922D02*
X147630180Y-82777255D01*
X147630180Y-82777255D02*
X148630180Y-83110588D01*
X148011133Y-83443922D02*
X148011133Y-84205827D01*
X147630180Y-83824874D02*
X148392085Y-83824874D01*
X140176680Y-77836779D02*
X141176680Y-77836779D01*
X141176680Y-77836779D02*
X140462395Y-78170112D01*
X140462395Y-78170112D02*
X141176680Y-78503445D01*
X141176680Y-78503445D02*
X140176680Y-78503445D01*
X141176680Y-79170112D02*
X141176680Y-79360588D01*
X141176680Y-79360588D02*
X141129061Y-79455826D01*
X141129061Y-79455826D02*
X141033823Y-79551064D01*
X141033823Y-79551064D02*
X140843347Y-79598683D01*
X140843347Y-79598683D02*
X140510014Y-79598683D01*
X140510014Y-79598683D02*
X140319538Y-79551064D01*
X140319538Y-79551064D02*
X140224300Y-79455826D01*
X140224300Y-79455826D02*
X140176680Y-79360588D01*
X140176680Y-79360588D02*
X140176680Y-79170112D01*
X140176680Y-79170112D02*
X140224300Y-79074874D01*
X140224300Y-79074874D02*
X140319538Y-78979636D01*
X140319538Y-78979636D02*
X140510014Y-78932017D01*
X140510014Y-78932017D02*
X140843347Y-78932017D01*
X140843347Y-78932017D02*
X141033823Y-78979636D01*
X141033823Y-78979636D02*
X141129061Y-79074874D01*
X141129061Y-79074874D02*
X141176680Y-79170112D01*
X140224300Y-79979636D02*
X140176680Y-80122493D01*
X140176680Y-80122493D02*
X140176680Y-80360588D01*
X140176680Y-80360588D02*
X140224300Y-80455826D01*
X140224300Y-80455826D02*
X140271919Y-80503445D01*
X140271919Y-80503445D02*
X140367157Y-80551064D01*
X140367157Y-80551064D02*
X140462395Y-80551064D01*
X140462395Y-80551064D02*
X140557633Y-80503445D01*
X140557633Y-80503445D02*
X140605252Y-80455826D01*
X140605252Y-80455826D02*
X140652871Y-80360588D01*
X140652871Y-80360588D02*
X140700490Y-80170112D01*
X140700490Y-80170112D02*
X140748109Y-80074874D01*
X140748109Y-80074874D02*
X140795728Y-80027255D01*
X140795728Y-80027255D02*
X140890966Y-79979636D01*
X140890966Y-79979636D02*
X140986204Y-79979636D01*
X140986204Y-79979636D02*
X141081442Y-80027255D01*
X141081442Y-80027255D02*
X141129061Y-80074874D01*
X141129061Y-80074874D02*
X141176680Y-80170112D01*
X141176680Y-80170112D02*
X141176680Y-80408207D01*
X141176680Y-80408207D02*
X141129061Y-80551064D01*
X140176680Y-80979636D02*
X141176680Y-80979636D01*
X148676680Y-78193922D02*
X147676680Y-78527255D01*
X147676680Y-78527255D02*
X148676680Y-78860588D01*
X148057633Y-79193922D02*
X148057633Y-79955827D01*
X142724300Y-78289160D02*
X142676680Y-78432017D01*
X142676680Y-78432017D02*
X142676680Y-78670112D01*
X142676680Y-78670112D02*
X142724300Y-78765350D01*
X142724300Y-78765350D02*
X142771919Y-78812969D01*
X142771919Y-78812969D02*
X142867157Y-78860588D01*
X142867157Y-78860588D02*
X142962395Y-78860588D01*
X142962395Y-78860588D02*
X143057633Y-78812969D01*
X143057633Y-78812969D02*
X143105252Y-78765350D01*
X143105252Y-78765350D02*
X143152871Y-78670112D01*
X143152871Y-78670112D02*
X143200490Y-78479636D01*
X143200490Y-78479636D02*
X143248109Y-78384398D01*
X143248109Y-78384398D02*
X143295728Y-78336779D01*
X143295728Y-78336779D02*
X143390966Y-78289160D01*
X143390966Y-78289160D02*
X143486204Y-78289160D01*
X143486204Y-78289160D02*
X143581442Y-78336779D01*
X143581442Y-78336779D02*
X143629061Y-78384398D01*
X143629061Y-78384398D02*
X143676680Y-78479636D01*
X143676680Y-78479636D02*
X143676680Y-78717731D01*
X143676680Y-78717731D02*
X143629061Y-78860588D01*
X142771919Y-79860588D02*
X142724300Y-79812969D01*
X142724300Y-79812969D02*
X142676680Y-79670112D01*
X142676680Y-79670112D02*
X142676680Y-79574874D01*
X142676680Y-79574874D02*
X142724300Y-79432017D01*
X142724300Y-79432017D02*
X142819538Y-79336779D01*
X142819538Y-79336779D02*
X142914776Y-79289160D01*
X142914776Y-79289160D02*
X143105252Y-79241541D01*
X143105252Y-79241541D02*
X143248109Y-79241541D01*
X143248109Y-79241541D02*
X143438585Y-79289160D01*
X143438585Y-79289160D02*
X143533823Y-79336779D01*
X143533823Y-79336779D02*
X143629061Y-79432017D01*
X143629061Y-79432017D02*
X143676680Y-79574874D01*
X143676680Y-79574874D02*
X143676680Y-79670112D01*
X143676680Y-79670112D02*
X143629061Y-79812969D01*
X143629061Y-79812969D02*
X143581442Y-79860588D01*
X142676680Y-80289160D02*
X143676680Y-80289160D01*
X142676680Y-80860588D02*
X143248109Y-80432017D01*
X143676680Y-80860588D02*
X143105252Y-80289160D01*
X146176680Y-78193922D02*
X145176680Y-78527255D01*
X145176680Y-78527255D02*
X146176680Y-78860588D01*
X145557633Y-79193922D02*
X145557633Y-79955827D01*
X145176680Y-79574874D02*
X145938585Y-79574874D01*
X124926680Y-78086779D02*
X125926680Y-78086779D01*
X125926680Y-78086779D02*
X125926680Y-78324874D01*
X125926680Y-78324874D02*
X125879061Y-78467731D01*
X125879061Y-78467731D02*
X125783823Y-78562969D01*
X125783823Y-78562969D02*
X125688585Y-78610588D01*
X125688585Y-78610588D02*
X125498109Y-78658207D01*
X125498109Y-78658207D02*
X125355252Y-78658207D01*
X125355252Y-78658207D02*
X125164776Y-78610588D01*
X125164776Y-78610588D02*
X125069538Y-78562969D01*
X125069538Y-78562969D02*
X124974300Y-78467731D01*
X124974300Y-78467731D02*
X124926680Y-78324874D01*
X124926680Y-78324874D02*
X124926680Y-78086779D01*
X125926680Y-79277255D02*
X125926680Y-79467731D01*
X125926680Y-79467731D02*
X125879061Y-79562969D01*
X125879061Y-79562969D02*
X125783823Y-79658207D01*
X125783823Y-79658207D02*
X125593347Y-79705826D01*
X125593347Y-79705826D02*
X125260014Y-79705826D01*
X125260014Y-79705826D02*
X125069538Y-79658207D01*
X125069538Y-79658207D02*
X124974300Y-79562969D01*
X124974300Y-79562969D02*
X124926680Y-79467731D01*
X124926680Y-79467731D02*
X124926680Y-79277255D01*
X124926680Y-79277255D02*
X124974300Y-79182017D01*
X124974300Y-79182017D02*
X125069538Y-79086779D01*
X125069538Y-79086779D02*
X125260014Y-79039160D01*
X125260014Y-79039160D02*
X125593347Y-79039160D01*
X125593347Y-79039160D02*
X125783823Y-79086779D01*
X125783823Y-79086779D02*
X125879061Y-79182017D01*
X125879061Y-79182017D02*
X125926680Y-79277255D01*
X124926680Y-80134398D02*
X125926680Y-80134398D01*
X125926680Y-80134398D02*
X124926680Y-80705826D01*
X124926680Y-80705826D02*
X125926680Y-80705826D01*
X125450490Y-81182017D02*
X125450490Y-81515350D01*
X124926680Y-81658207D02*
X124926680Y-81182017D01*
X124926680Y-81182017D02*
X125926680Y-81182017D01*
X125926680Y-81182017D02*
X125926680Y-81658207D01*
X133426680Y-78193922D02*
X132426680Y-78527255D01*
X132426680Y-78527255D02*
X133426680Y-78860588D01*
X132807633Y-79193922D02*
X132807633Y-79955827D01*
X130926680Y-78193922D02*
X129926680Y-78527255D01*
X129926680Y-78527255D02*
X130926680Y-78860588D01*
X130307633Y-79193922D02*
X130307633Y-79955827D01*
X129926680Y-79574874D02*
X130688585Y-79574874D01*
X123426680Y-78193922D02*
X122426680Y-78527255D01*
X122426680Y-78527255D02*
X123426680Y-78860588D01*
X122807633Y-79193922D02*
X122807633Y-79955827D01*
X122426680Y-79574874D02*
X123188585Y-79574874D01*
X138676680Y-82443922D02*
X137676680Y-82777255D01*
X137676680Y-82777255D02*
X138676680Y-83110588D01*
X137676680Y-83443922D02*
X138343347Y-83443922D01*
X138676680Y-83443922D02*
X138629061Y-83396303D01*
X138629061Y-83396303D02*
X138581442Y-83443922D01*
X138581442Y-83443922D02*
X138629061Y-83491541D01*
X138629061Y-83491541D02*
X138676680Y-83443922D01*
X138676680Y-83443922D02*
X138581442Y-83443922D01*
X138343347Y-83920112D02*
X137676680Y-83920112D01*
X138248109Y-83920112D02*
X138295728Y-83967731D01*
X138295728Y-83967731D02*
X138343347Y-84062969D01*
X138343347Y-84062969D02*
X138343347Y-84205826D01*
X138343347Y-84205826D02*
X138295728Y-84301064D01*
X138295728Y-84301064D02*
X138200490Y-84348683D01*
X138200490Y-84348683D02*
X137676680Y-84348683D01*
X138057633Y-84824874D02*
X138057633Y-85586779D01*
X133380180Y-82443922D02*
X132380180Y-82777255D01*
X132380180Y-82777255D02*
X133380180Y-83110588D01*
X132761133Y-83443922D02*
X132761133Y-84205827D01*
X132380180Y-83824874D02*
X133142085Y-83824874D01*
X125212395Y-82789160D02*
X125212395Y-83265350D01*
X124926680Y-82693922D02*
X125926680Y-83027255D01*
X125926680Y-83027255D02*
X124926680Y-83360588D01*
X124926680Y-83693922D02*
X125926680Y-83693922D01*
X125926680Y-83693922D02*
X125926680Y-83932017D01*
X125926680Y-83932017D02*
X125879061Y-84074874D01*
X125879061Y-84074874D02*
X125783823Y-84170112D01*
X125783823Y-84170112D02*
X125688585Y-84217731D01*
X125688585Y-84217731D02*
X125498109Y-84265350D01*
X125498109Y-84265350D02*
X125355252Y-84265350D01*
X125355252Y-84265350D02*
X125164776Y-84217731D01*
X125164776Y-84217731D02*
X125069538Y-84170112D01*
X125069538Y-84170112D02*
X124974300Y-84074874D01*
X124974300Y-84074874D02*
X124926680Y-83932017D01*
X124926680Y-83932017D02*
X124926680Y-83693922D01*
X124926680Y-84693922D02*
X125926680Y-84693922D01*
X125926680Y-84693922D02*
X125926680Y-84932017D01*
X125926680Y-84932017D02*
X125879061Y-85074874D01*
X125879061Y-85074874D02*
X125783823Y-85170112D01*
X125783823Y-85170112D02*
X125688585Y-85217731D01*
X125688585Y-85217731D02*
X125498109Y-85265350D01*
X125498109Y-85265350D02*
X125355252Y-85265350D01*
X125355252Y-85265350D02*
X125164776Y-85217731D01*
X125164776Y-85217731D02*
X125069538Y-85170112D01*
X125069538Y-85170112D02*
X124974300Y-85074874D01*
X124974300Y-85074874D02*
X124926680Y-84932017D01*
X124926680Y-84932017D02*
X124926680Y-84693922D01*
X124926680Y-86265350D02*
X125402871Y-85932017D01*
X124926680Y-85693922D02*
X125926680Y-85693922D01*
X125926680Y-85693922D02*
X125926680Y-86074874D01*
X125926680Y-86074874D02*
X125879061Y-86170112D01*
X125879061Y-86170112D02*
X125831442Y-86217731D01*
X125831442Y-86217731D02*
X125736204Y-86265350D01*
X125736204Y-86265350D02*
X125593347Y-86265350D01*
X125593347Y-86265350D02*
X125498109Y-86217731D01*
X125498109Y-86217731D02*
X125450490Y-86170112D01*
X125450490Y-86170112D02*
X125402871Y-86074874D01*
X125402871Y-86074874D02*
X125402871Y-85693922D01*
X127426680Y-82586779D02*
X128426680Y-82586779D01*
X128426680Y-82586779D02*
X128426680Y-82824874D01*
X128426680Y-82824874D02*
X128379061Y-82967731D01*
X128379061Y-82967731D02*
X128283823Y-83062969D01*
X128283823Y-83062969D02*
X128188585Y-83110588D01*
X128188585Y-83110588D02*
X127998109Y-83158207D01*
X127998109Y-83158207D02*
X127855252Y-83158207D01*
X127855252Y-83158207D02*
X127664776Y-83110588D01*
X127664776Y-83110588D02*
X127569538Y-83062969D01*
X127569538Y-83062969D02*
X127474300Y-82967731D01*
X127474300Y-82967731D02*
X127426680Y-82824874D01*
X127426680Y-82824874D02*
X127426680Y-82586779D01*
X127426680Y-84110588D02*
X127426680Y-83539160D01*
X127426680Y-83824874D02*
X128426680Y-83824874D01*
X128426680Y-83824874D02*
X128283823Y-83729636D01*
X128283823Y-83729636D02*
X128188585Y-83634398D01*
X128188585Y-83634398D02*
X128140966Y-83539160D01*
X128426680Y-85015350D02*
X128426680Y-84539160D01*
X128426680Y-84539160D02*
X127950490Y-84491541D01*
X127950490Y-84491541D02*
X127998109Y-84539160D01*
X127998109Y-84539160D02*
X128045728Y-84634398D01*
X128045728Y-84634398D02*
X128045728Y-84872493D01*
X128045728Y-84872493D02*
X127998109Y-84967731D01*
X127998109Y-84967731D02*
X127950490Y-85015350D01*
X127950490Y-85015350D02*
X127855252Y-85062969D01*
X127855252Y-85062969D02*
X127617157Y-85062969D01*
X127617157Y-85062969D02*
X127521919Y-85015350D01*
X127521919Y-85015350D02*
X127474300Y-84967731D01*
X127474300Y-84967731D02*
X127426680Y-84872493D01*
X127426680Y-84872493D02*
X127426680Y-84634398D01*
X127426680Y-84634398D02*
X127474300Y-84539160D01*
X127474300Y-84539160D02*
X127521919Y-84491541D01*
X122474300Y-82539160D02*
X122426680Y-82682017D01*
X122426680Y-82682017D02*
X122426680Y-82920112D01*
X122426680Y-82920112D02*
X122474300Y-83015350D01*
X122474300Y-83015350D02*
X122521919Y-83062969D01*
X122521919Y-83062969D02*
X122617157Y-83110588D01*
X122617157Y-83110588D02*
X122712395Y-83110588D01*
X122712395Y-83110588D02*
X122807633Y-83062969D01*
X122807633Y-83062969D02*
X122855252Y-83015350D01*
X122855252Y-83015350D02*
X122902871Y-82920112D01*
X122902871Y-82920112D02*
X122950490Y-82729636D01*
X122950490Y-82729636D02*
X122998109Y-82634398D01*
X122998109Y-82634398D02*
X123045728Y-82586779D01*
X123045728Y-82586779D02*
X123140966Y-82539160D01*
X123140966Y-82539160D02*
X123236204Y-82539160D01*
X123236204Y-82539160D02*
X123331442Y-82586779D01*
X123331442Y-82586779D02*
X123379061Y-82634398D01*
X123379061Y-82634398D02*
X123426680Y-82729636D01*
X123426680Y-82729636D02*
X123426680Y-82967731D01*
X123426680Y-82967731D02*
X123379061Y-83110588D01*
X122521919Y-84110588D02*
X122474300Y-84062969D01*
X122474300Y-84062969D02*
X122426680Y-83920112D01*
X122426680Y-83920112D02*
X122426680Y-83824874D01*
X122426680Y-83824874D02*
X122474300Y-83682017D01*
X122474300Y-83682017D02*
X122569538Y-83586779D01*
X122569538Y-83586779D02*
X122664776Y-83539160D01*
X122664776Y-83539160D02*
X122855252Y-83491541D01*
X122855252Y-83491541D02*
X122998109Y-83491541D01*
X122998109Y-83491541D02*
X123188585Y-83539160D01*
X123188585Y-83539160D02*
X123283823Y-83586779D01*
X123283823Y-83586779D02*
X123379061Y-83682017D01*
X123379061Y-83682017D02*
X123426680Y-83824874D01*
X123426680Y-83824874D02*
X123426680Y-83920112D01*
X123426680Y-83920112D02*
X123379061Y-84062969D01*
X123379061Y-84062969D02*
X123331442Y-84110588D01*
X122426680Y-85015350D02*
X122426680Y-84539160D01*
X122426680Y-84539160D02*
X123426680Y-84539160D01*
X136176680Y-82443922D02*
X135176680Y-82777255D01*
X135176680Y-82777255D02*
X136176680Y-83110588D01*
X135176680Y-83443922D02*
X135843347Y-83443922D01*
X136176680Y-83443922D02*
X136129061Y-83396303D01*
X136129061Y-83396303D02*
X136081442Y-83443922D01*
X136081442Y-83443922D02*
X136129061Y-83491541D01*
X136129061Y-83491541D02*
X136176680Y-83443922D01*
X136176680Y-83443922D02*
X136081442Y-83443922D01*
X135843347Y-83920112D02*
X135176680Y-83920112D01*
X135748109Y-83920112D02*
X135795728Y-83967731D01*
X135795728Y-83967731D02*
X135843347Y-84062969D01*
X135843347Y-84062969D02*
X135843347Y-84205826D01*
X135843347Y-84205826D02*
X135795728Y-84301064D01*
X135795728Y-84301064D02*
X135700490Y-84348683D01*
X135700490Y-84348683D02*
X135176680Y-84348683D01*
X135557633Y-84824874D02*
X135557633Y-85586779D01*
X135176680Y-85205826D02*
X135938585Y-85205826D01*
X130926680Y-82443922D02*
X129926680Y-82777255D01*
X129926680Y-82777255D02*
X130926680Y-83110588D01*
X130307633Y-83443922D02*
X130307633Y-84205827D01*
X119974300Y-82539160D02*
X119926680Y-82682017D01*
X119926680Y-82682017D02*
X119926680Y-82920112D01*
X119926680Y-82920112D02*
X119974300Y-83015350D01*
X119974300Y-83015350D02*
X120021919Y-83062969D01*
X120021919Y-83062969D02*
X120117157Y-83110588D01*
X120117157Y-83110588D02*
X120212395Y-83110588D01*
X120212395Y-83110588D02*
X120307633Y-83062969D01*
X120307633Y-83062969D02*
X120355252Y-83015350D01*
X120355252Y-83015350D02*
X120402871Y-82920112D01*
X120402871Y-82920112D02*
X120450490Y-82729636D01*
X120450490Y-82729636D02*
X120498109Y-82634398D01*
X120498109Y-82634398D02*
X120545728Y-82586779D01*
X120545728Y-82586779D02*
X120640966Y-82539160D01*
X120640966Y-82539160D02*
X120736204Y-82539160D01*
X120736204Y-82539160D02*
X120831442Y-82586779D01*
X120831442Y-82586779D02*
X120879061Y-82634398D01*
X120879061Y-82634398D02*
X120926680Y-82729636D01*
X120926680Y-82729636D02*
X120926680Y-82967731D01*
X120926680Y-82967731D02*
X120879061Y-83110588D01*
X119926680Y-83539160D02*
X120926680Y-83539160D01*
X120926680Y-83539160D02*
X120926680Y-83777255D01*
X120926680Y-83777255D02*
X120879061Y-83920112D01*
X120879061Y-83920112D02*
X120783823Y-84015350D01*
X120783823Y-84015350D02*
X120688585Y-84062969D01*
X120688585Y-84062969D02*
X120498109Y-84110588D01*
X120498109Y-84110588D02*
X120355252Y-84110588D01*
X120355252Y-84110588D02*
X120164776Y-84062969D01*
X120164776Y-84062969D02*
X120069538Y-84015350D01*
X120069538Y-84015350D02*
X119974300Y-83920112D01*
X119974300Y-83920112D02*
X119926680Y-83777255D01*
X119926680Y-83777255D02*
X119926680Y-83539160D01*
X120212395Y-84491541D02*
X120212395Y-84967731D01*
X119926680Y-84396303D02*
X120926680Y-84729636D01*
X120926680Y-84729636D02*
X119926680Y-85062969D01*
X112224300Y-77539160D02*
X112176680Y-77682017D01*
X112176680Y-77682017D02*
X112176680Y-77920112D01*
X112176680Y-77920112D02*
X112224300Y-78015350D01*
X112224300Y-78015350D02*
X112271919Y-78062969D01*
X112271919Y-78062969D02*
X112367157Y-78110588D01*
X112367157Y-78110588D02*
X112462395Y-78110588D01*
X112462395Y-78110588D02*
X112557633Y-78062969D01*
X112557633Y-78062969D02*
X112605252Y-78015350D01*
X112605252Y-78015350D02*
X112652871Y-77920112D01*
X112652871Y-77920112D02*
X112700490Y-77729636D01*
X112700490Y-77729636D02*
X112748109Y-77634398D01*
X112748109Y-77634398D02*
X112795728Y-77586779D01*
X112795728Y-77586779D02*
X112890966Y-77539160D01*
X112890966Y-77539160D02*
X112986204Y-77539160D01*
X112986204Y-77539160D02*
X113081442Y-77586779D01*
X113081442Y-77586779D02*
X113129061Y-77634398D01*
X113129061Y-77634398D02*
X113176680Y-77729636D01*
X113176680Y-77729636D02*
X113176680Y-77967731D01*
X113176680Y-77967731D02*
X113129061Y-78110588D01*
X112271919Y-79110588D02*
X112224300Y-79062969D01*
X112224300Y-79062969D02*
X112176680Y-78920112D01*
X112176680Y-78920112D02*
X112176680Y-78824874D01*
X112176680Y-78824874D02*
X112224300Y-78682017D01*
X112224300Y-78682017D02*
X112319538Y-78586779D01*
X112319538Y-78586779D02*
X112414776Y-78539160D01*
X112414776Y-78539160D02*
X112605252Y-78491541D01*
X112605252Y-78491541D02*
X112748109Y-78491541D01*
X112748109Y-78491541D02*
X112938585Y-78539160D01*
X112938585Y-78539160D02*
X113033823Y-78586779D01*
X113033823Y-78586779D02*
X113129061Y-78682017D01*
X113129061Y-78682017D02*
X113176680Y-78824874D01*
X113176680Y-78824874D02*
X113176680Y-78920112D01*
X113176680Y-78920112D02*
X113129061Y-79062969D01*
X113129061Y-79062969D02*
X113081442Y-79110588D01*
X112176680Y-80015350D02*
X112176680Y-79539160D01*
X112176680Y-79539160D02*
X113176680Y-79539160D01*
X108176680Y-78193922D02*
X107176680Y-78527255D01*
X107176680Y-78527255D02*
X108176680Y-78860588D01*
X107557633Y-79193922D02*
X107557633Y-79955827D01*
X107176680Y-79574874D02*
X107938585Y-79574874D01*
X109724300Y-77539160D02*
X109676680Y-77682017D01*
X109676680Y-77682017D02*
X109676680Y-77920112D01*
X109676680Y-77920112D02*
X109724300Y-78015350D01*
X109724300Y-78015350D02*
X109771919Y-78062969D01*
X109771919Y-78062969D02*
X109867157Y-78110588D01*
X109867157Y-78110588D02*
X109962395Y-78110588D01*
X109962395Y-78110588D02*
X110057633Y-78062969D01*
X110057633Y-78062969D02*
X110105252Y-78015350D01*
X110105252Y-78015350D02*
X110152871Y-77920112D01*
X110152871Y-77920112D02*
X110200490Y-77729636D01*
X110200490Y-77729636D02*
X110248109Y-77634398D01*
X110248109Y-77634398D02*
X110295728Y-77586779D01*
X110295728Y-77586779D02*
X110390966Y-77539160D01*
X110390966Y-77539160D02*
X110486204Y-77539160D01*
X110486204Y-77539160D02*
X110581442Y-77586779D01*
X110581442Y-77586779D02*
X110629061Y-77634398D01*
X110629061Y-77634398D02*
X110676680Y-77729636D01*
X110676680Y-77729636D02*
X110676680Y-77967731D01*
X110676680Y-77967731D02*
X110629061Y-78110588D01*
X109676680Y-78539160D02*
X110676680Y-78539160D01*
X110676680Y-78539160D02*
X110676680Y-78777255D01*
X110676680Y-78777255D02*
X110629061Y-78920112D01*
X110629061Y-78920112D02*
X110533823Y-79015350D01*
X110533823Y-79015350D02*
X110438585Y-79062969D01*
X110438585Y-79062969D02*
X110248109Y-79110588D01*
X110248109Y-79110588D02*
X110105252Y-79110588D01*
X110105252Y-79110588D02*
X109914776Y-79062969D01*
X109914776Y-79062969D02*
X109819538Y-79015350D01*
X109819538Y-79015350D02*
X109724300Y-78920112D01*
X109724300Y-78920112D02*
X109676680Y-78777255D01*
X109676680Y-78777255D02*
X109676680Y-78539160D01*
X109962395Y-79491541D02*
X109962395Y-79967731D01*
X109676680Y-79396303D02*
X110676680Y-79729636D01*
X110676680Y-79729636D02*
X109676680Y-80062969D01*
X102926680Y-78193922D02*
X101926680Y-78527255D01*
X101926680Y-78527255D02*
X102926680Y-78860588D01*
X102307633Y-79193922D02*
X102307633Y-79955827D01*
X101926680Y-79574874D02*
X102688585Y-79574874D01*
X105676680Y-78193922D02*
X104676680Y-78527255D01*
X104676680Y-78527255D02*
X105676680Y-78860588D01*
X105057633Y-79193922D02*
X105057633Y-79955827D01*
X118176680Y-78193922D02*
X117176680Y-78527255D01*
X117176680Y-78527255D02*
X118176680Y-78860588D01*
X117557633Y-79193922D02*
X117557633Y-79955827D01*
X108176680Y-82443922D02*
X107176680Y-82777255D01*
X107176680Y-82777255D02*
X108176680Y-83110588D01*
X107557633Y-83443922D02*
X107557633Y-84205827D01*
X115630180Y-82443922D02*
X114630180Y-82777255D01*
X114630180Y-82777255D02*
X115630180Y-83110588D01*
X115011133Y-83443922D02*
X115011133Y-84205827D01*
X114630180Y-83824874D02*
X115392085Y-83824874D01*
X104474300Y-82539160D02*
X104426680Y-82682017D01*
X104426680Y-82682017D02*
X104426680Y-82920112D01*
X104426680Y-82920112D02*
X104474300Y-83015350D01*
X104474300Y-83015350D02*
X104521919Y-83062969D01*
X104521919Y-83062969D02*
X104617157Y-83110588D01*
X104617157Y-83110588D02*
X104712395Y-83110588D01*
X104712395Y-83110588D02*
X104807633Y-83062969D01*
X104807633Y-83062969D02*
X104855252Y-83015350D01*
X104855252Y-83015350D02*
X104902871Y-82920112D01*
X104902871Y-82920112D02*
X104950490Y-82729636D01*
X104950490Y-82729636D02*
X104998109Y-82634398D01*
X104998109Y-82634398D02*
X105045728Y-82586779D01*
X105045728Y-82586779D02*
X105140966Y-82539160D01*
X105140966Y-82539160D02*
X105236204Y-82539160D01*
X105236204Y-82539160D02*
X105331442Y-82586779D01*
X105331442Y-82586779D02*
X105379061Y-82634398D01*
X105379061Y-82634398D02*
X105426680Y-82729636D01*
X105426680Y-82729636D02*
X105426680Y-82967731D01*
X105426680Y-82967731D02*
X105379061Y-83110588D01*
X104426680Y-83539160D02*
X105426680Y-83539160D01*
X105426680Y-83539160D02*
X105426680Y-83777255D01*
X105426680Y-83777255D02*
X105379061Y-83920112D01*
X105379061Y-83920112D02*
X105283823Y-84015350D01*
X105283823Y-84015350D02*
X105188585Y-84062969D01*
X105188585Y-84062969D02*
X104998109Y-84110588D01*
X104998109Y-84110588D02*
X104855252Y-84110588D01*
X104855252Y-84110588D02*
X104664776Y-84062969D01*
X104664776Y-84062969D02*
X104569538Y-84015350D01*
X104569538Y-84015350D02*
X104474300Y-83920112D01*
X104474300Y-83920112D02*
X104426680Y-83777255D01*
X104426680Y-83777255D02*
X104426680Y-83539160D01*
X104712395Y-84491541D02*
X104712395Y-84967731D01*
X104426680Y-84396303D02*
X105426680Y-84729636D01*
X105426680Y-84729636D02*
X104426680Y-85062969D01*
X101974300Y-82539160D02*
X101926680Y-82682017D01*
X101926680Y-82682017D02*
X101926680Y-82920112D01*
X101926680Y-82920112D02*
X101974300Y-83015350D01*
X101974300Y-83015350D02*
X102021919Y-83062969D01*
X102021919Y-83062969D02*
X102117157Y-83110588D01*
X102117157Y-83110588D02*
X102212395Y-83110588D01*
X102212395Y-83110588D02*
X102307633Y-83062969D01*
X102307633Y-83062969D02*
X102355252Y-83015350D01*
X102355252Y-83015350D02*
X102402871Y-82920112D01*
X102402871Y-82920112D02*
X102450490Y-82729636D01*
X102450490Y-82729636D02*
X102498109Y-82634398D01*
X102498109Y-82634398D02*
X102545728Y-82586779D01*
X102545728Y-82586779D02*
X102640966Y-82539160D01*
X102640966Y-82539160D02*
X102736204Y-82539160D01*
X102736204Y-82539160D02*
X102831442Y-82586779D01*
X102831442Y-82586779D02*
X102879061Y-82634398D01*
X102879061Y-82634398D02*
X102926680Y-82729636D01*
X102926680Y-82729636D02*
X102926680Y-82967731D01*
X102926680Y-82967731D02*
X102879061Y-83110588D01*
X102021919Y-84110588D02*
X101974300Y-84062969D01*
X101974300Y-84062969D02*
X101926680Y-83920112D01*
X101926680Y-83920112D02*
X101926680Y-83824874D01*
X101926680Y-83824874D02*
X101974300Y-83682017D01*
X101974300Y-83682017D02*
X102069538Y-83586779D01*
X102069538Y-83586779D02*
X102164776Y-83539160D01*
X102164776Y-83539160D02*
X102355252Y-83491541D01*
X102355252Y-83491541D02*
X102498109Y-83491541D01*
X102498109Y-83491541D02*
X102688585Y-83539160D01*
X102688585Y-83539160D02*
X102783823Y-83586779D01*
X102783823Y-83586779D02*
X102879061Y-83682017D01*
X102879061Y-83682017D02*
X102926680Y-83824874D01*
X102926680Y-83824874D02*
X102926680Y-83920112D01*
X102926680Y-83920112D02*
X102879061Y-84062969D01*
X102879061Y-84062969D02*
X102831442Y-84110588D01*
X101926680Y-85015350D02*
X101926680Y-84539160D01*
X101926680Y-84539160D02*
X102926680Y-84539160D01*
X112176680Y-82586779D02*
X113176680Y-82586779D01*
X113176680Y-82586779D02*
X113176680Y-82967731D01*
X113176680Y-82967731D02*
X113129061Y-83062969D01*
X113129061Y-83062969D02*
X113081442Y-83110588D01*
X113081442Y-83110588D02*
X112986204Y-83158207D01*
X112986204Y-83158207D02*
X112843347Y-83158207D01*
X112843347Y-83158207D02*
X112748109Y-83110588D01*
X112748109Y-83110588D02*
X112700490Y-83062969D01*
X112700490Y-83062969D02*
X112652871Y-82967731D01*
X112652871Y-82967731D02*
X112652871Y-82586779D01*
X112176680Y-83586779D02*
X113176680Y-83586779D01*
X113176680Y-83586779D02*
X113176680Y-83824874D01*
X113176680Y-83824874D02*
X113129061Y-83967731D01*
X113129061Y-83967731D02*
X113033823Y-84062969D01*
X113033823Y-84062969D02*
X112938585Y-84110588D01*
X112938585Y-84110588D02*
X112748109Y-84158207D01*
X112748109Y-84158207D02*
X112605252Y-84158207D01*
X112605252Y-84158207D02*
X112414776Y-84110588D01*
X112414776Y-84110588D02*
X112319538Y-84062969D01*
X112319538Y-84062969D02*
X112224300Y-83967731D01*
X112224300Y-83967731D02*
X112176680Y-83824874D01*
X112176680Y-83824874D02*
X112176680Y-83586779D01*
X113081442Y-84539160D02*
X113129061Y-84586779D01*
X113129061Y-84586779D02*
X113176680Y-84682017D01*
X113176680Y-84682017D02*
X113176680Y-84920112D01*
X113176680Y-84920112D02*
X113129061Y-85015350D01*
X113129061Y-85015350D02*
X113081442Y-85062969D01*
X113081442Y-85062969D02*
X112986204Y-85110588D01*
X112986204Y-85110588D02*
X112890966Y-85110588D01*
X112890966Y-85110588D02*
X112748109Y-85062969D01*
X112748109Y-85062969D02*
X112176680Y-84491541D01*
X112176680Y-84491541D02*
X112176680Y-85110588D01*
X110676680Y-82443922D02*
X109676680Y-82777255D01*
X109676680Y-82777255D02*
X110676680Y-83110588D01*
X110057633Y-83443922D02*
X110057633Y-84205827D01*
X109676680Y-83824874D02*
X110438585Y-83824874D01*
X118176680Y-82443922D02*
X117176680Y-82777255D01*
X117176680Y-82777255D02*
X118176680Y-83110588D01*
X117557633Y-83443922D02*
X117557633Y-84205827D01*
X129848684Y-108369819D02*
X130182017Y-109369819D01*
X130182017Y-109369819D02*
X130515350Y-108369819D01*
X130848684Y-108988866D02*
X131610589Y-108988866D01*
X129848684Y-109619819D02*
X130182017Y-110619819D01*
X130182017Y-110619819D02*
X130515350Y-109619819D01*
X130848684Y-110238866D02*
X131610589Y-110238866D01*
X131229636Y-110619819D02*
X131229636Y-109857914D01*
X129848684Y-110869819D02*
X130182017Y-111869819D01*
X130182017Y-111869819D02*
X130515350Y-110869819D01*
X130991541Y-111869819D02*
X130896303Y-111822200D01*
X130896303Y-111822200D02*
X130848684Y-111774580D01*
X130848684Y-111774580D02*
X130801065Y-111679342D01*
X130801065Y-111679342D02*
X130801065Y-111393628D01*
X130801065Y-111393628D02*
X130848684Y-111298390D01*
X130848684Y-111298390D02*
X130896303Y-111250771D01*
X130896303Y-111250771D02*
X130991541Y-111203152D01*
X130991541Y-111203152D02*
X131134398Y-111203152D01*
X131134398Y-111203152D02*
X131229636Y-111250771D01*
X131229636Y-111250771D02*
X131277255Y-111298390D01*
X131277255Y-111298390D02*
X131324874Y-111393628D01*
X131324874Y-111393628D02*
X131324874Y-111679342D01*
X131324874Y-111679342D02*
X131277255Y-111774580D01*
X131277255Y-111774580D02*
X131229636Y-111822200D01*
X131229636Y-111822200D02*
X131134398Y-111869819D01*
X131134398Y-111869819D02*
X130991541Y-111869819D01*
X146676680Y-96086779D02*
X147676680Y-96086779D01*
X147676680Y-96086779D02*
X147676680Y-96324874D01*
X147676680Y-96324874D02*
X147629061Y-96467731D01*
X147629061Y-96467731D02*
X147533823Y-96562969D01*
X147533823Y-96562969D02*
X147438585Y-96610588D01*
X147438585Y-96610588D02*
X147248109Y-96658207D01*
X147248109Y-96658207D02*
X147105252Y-96658207D01*
X147105252Y-96658207D02*
X146914776Y-96610588D01*
X146914776Y-96610588D02*
X146819538Y-96562969D01*
X146819538Y-96562969D02*
X146724300Y-96467731D01*
X146724300Y-96467731D02*
X146676680Y-96324874D01*
X146676680Y-96324874D02*
X146676680Y-96086779D01*
X146676680Y-97658207D02*
X147152871Y-97324874D01*
X146676680Y-97086779D02*
X147676680Y-97086779D01*
X147676680Y-97086779D02*
X147676680Y-97467731D01*
X147676680Y-97467731D02*
X147629061Y-97562969D01*
X147629061Y-97562969D02*
X147581442Y-97610588D01*
X147581442Y-97610588D02*
X147486204Y-97658207D01*
X147486204Y-97658207D02*
X147343347Y-97658207D01*
X147343347Y-97658207D02*
X147248109Y-97610588D01*
X147248109Y-97610588D02*
X147200490Y-97562969D01*
X147200490Y-97562969D02*
X147152871Y-97467731D01*
X147152871Y-97467731D02*
X147152871Y-97086779D01*
X147676680Y-97991541D02*
X146676680Y-98658207D01*
X147676680Y-98658207D02*
X146676680Y-97991541D01*
X146724300Y-91039160D02*
X146676680Y-91182017D01*
X146676680Y-91182017D02*
X146676680Y-91420112D01*
X146676680Y-91420112D02*
X146724300Y-91515350D01*
X146724300Y-91515350D02*
X146771919Y-91562969D01*
X146771919Y-91562969D02*
X146867157Y-91610588D01*
X146867157Y-91610588D02*
X146962395Y-91610588D01*
X146962395Y-91610588D02*
X147057633Y-91562969D01*
X147057633Y-91562969D02*
X147105252Y-91515350D01*
X147105252Y-91515350D02*
X147152871Y-91420112D01*
X147152871Y-91420112D02*
X147200490Y-91229636D01*
X147200490Y-91229636D02*
X147248109Y-91134398D01*
X147248109Y-91134398D02*
X147295728Y-91086779D01*
X147295728Y-91086779D02*
X147390966Y-91039160D01*
X147390966Y-91039160D02*
X147486204Y-91039160D01*
X147486204Y-91039160D02*
X147581442Y-91086779D01*
X147581442Y-91086779D02*
X147629061Y-91134398D01*
X147629061Y-91134398D02*
X147676680Y-91229636D01*
X147676680Y-91229636D02*
X147676680Y-91467731D01*
X147676680Y-91467731D02*
X147629061Y-91610588D01*
X147676680Y-91896303D02*
X146676680Y-92229636D01*
X146676680Y-92229636D02*
X147676680Y-92562969D01*
X146676680Y-93039160D02*
X146724300Y-92943922D01*
X146724300Y-92943922D02*
X146771919Y-92896303D01*
X146771919Y-92896303D02*
X146867157Y-92848684D01*
X146867157Y-92848684D02*
X147152871Y-92848684D01*
X147152871Y-92848684D02*
X147248109Y-92896303D01*
X147248109Y-92896303D02*
X147295728Y-92943922D01*
X147295728Y-92943922D02*
X147343347Y-93039160D01*
X147343347Y-93039160D02*
X147343347Y-93182017D01*
X147343347Y-93182017D02*
X147295728Y-93277255D01*
X147295728Y-93277255D02*
X147248109Y-93324874D01*
X147248109Y-93324874D02*
X147152871Y-93372493D01*
X147152871Y-93372493D02*
X146867157Y-93372493D01*
X146867157Y-93372493D02*
X146771919Y-93324874D01*
X146771919Y-93324874D02*
X146724300Y-93277255D01*
X146724300Y-93277255D02*
X146676680Y-93182017D01*
X146676680Y-93182017D02*
X146676680Y-93039160D01*
X147676680Y-88693922D02*
X146676680Y-89027255D01*
X146676680Y-89027255D02*
X147676680Y-89360588D01*
X146676680Y-89693922D02*
X147343347Y-89693922D01*
X147676680Y-89693922D02*
X147629061Y-89646303D01*
X147629061Y-89646303D02*
X147581442Y-89693922D01*
X147581442Y-89693922D02*
X147629061Y-89741541D01*
X147629061Y-89741541D02*
X147676680Y-89693922D01*
X147676680Y-89693922D02*
X147581442Y-89693922D01*
X147057633Y-90170112D02*
X147057633Y-90932017D01*
X147676680Y-93693922D02*
X146676680Y-94027255D01*
X146676680Y-94027255D02*
X147676680Y-94360588D01*
X147057633Y-94693922D02*
X147057633Y-95455827D01*
X147200490Y-86670112D02*
X147152871Y-86812969D01*
X147152871Y-86812969D02*
X147105252Y-86860588D01*
X147105252Y-86860588D02*
X147010014Y-86908207D01*
X147010014Y-86908207D02*
X146867157Y-86908207D01*
X146867157Y-86908207D02*
X146771919Y-86860588D01*
X146771919Y-86860588D02*
X146724300Y-86812969D01*
X146724300Y-86812969D02*
X146676680Y-86717731D01*
X146676680Y-86717731D02*
X146676680Y-86336779D01*
X146676680Y-86336779D02*
X147676680Y-86336779D01*
X147676680Y-86336779D02*
X147676680Y-86670112D01*
X147676680Y-86670112D02*
X147629061Y-86765350D01*
X147629061Y-86765350D02*
X147581442Y-86812969D01*
X147581442Y-86812969D02*
X147486204Y-86860588D01*
X147486204Y-86860588D02*
X147390966Y-86860588D01*
X147390966Y-86860588D02*
X147295728Y-86812969D01*
X147295728Y-86812969D02*
X147248109Y-86765350D01*
X147248109Y-86765350D02*
X147200490Y-86670112D01*
X147200490Y-86670112D02*
X147200490Y-86336779D01*
X146676680Y-87479636D02*
X146724300Y-87384398D01*
X146724300Y-87384398D02*
X146771919Y-87336779D01*
X146771919Y-87336779D02*
X146867157Y-87289160D01*
X146867157Y-87289160D02*
X147152871Y-87289160D01*
X147152871Y-87289160D02*
X147248109Y-87336779D01*
X147248109Y-87336779D02*
X147295728Y-87384398D01*
X147295728Y-87384398D02*
X147343347Y-87479636D01*
X147343347Y-87479636D02*
X147343347Y-87622493D01*
X147343347Y-87622493D02*
X147295728Y-87717731D01*
X147295728Y-87717731D02*
X147248109Y-87765350D01*
X147248109Y-87765350D02*
X147152871Y-87812969D01*
X147152871Y-87812969D02*
X146867157Y-87812969D01*
X146867157Y-87812969D02*
X146771919Y-87765350D01*
X146771919Y-87765350D02*
X146724300Y-87717731D01*
X146724300Y-87717731D02*
X146676680Y-87622493D01*
X146676680Y-87622493D02*
X146676680Y-87479636D01*
X147677800Y-99789160D02*
X147630180Y-99932017D01*
X147630180Y-99932017D02*
X147630180Y-100170112D01*
X147630180Y-100170112D02*
X147677800Y-100265350D01*
X147677800Y-100265350D02*
X147725419Y-100312969D01*
X147725419Y-100312969D02*
X147820657Y-100360588D01*
X147820657Y-100360588D02*
X147915895Y-100360588D01*
X147915895Y-100360588D02*
X148011133Y-100312969D01*
X148011133Y-100312969D02*
X148058752Y-100265350D01*
X148058752Y-100265350D02*
X148106371Y-100170112D01*
X148106371Y-100170112D02*
X148153990Y-99979636D01*
X148153990Y-99979636D02*
X148201609Y-99884398D01*
X148201609Y-99884398D02*
X148249228Y-99836779D01*
X148249228Y-99836779D02*
X148344466Y-99789160D01*
X148344466Y-99789160D02*
X148439704Y-99789160D01*
X148439704Y-99789160D02*
X148534942Y-99836779D01*
X148534942Y-99836779D02*
X148582561Y-99884398D01*
X148582561Y-99884398D02*
X148630180Y-99979636D01*
X148630180Y-99979636D02*
X148630180Y-100217731D01*
X148630180Y-100217731D02*
X148582561Y-100360588D01*
X147630180Y-100789160D02*
X148630180Y-100789160D01*
X148630180Y-100789160D02*
X148630180Y-101027255D01*
X148630180Y-101027255D02*
X148582561Y-101170112D01*
X148582561Y-101170112D02*
X148487323Y-101265350D01*
X148487323Y-101265350D02*
X148392085Y-101312969D01*
X148392085Y-101312969D02*
X148201609Y-101360588D01*
X148201609Y-101360588D02*
X148058752Y-101360588D01*
X148058752Y-101360588D02*
X147868276Y-101312969D01*
X147868276Y-101312969D02*
X147773038Y-101265350D01*
X147773038Y-101265350D02*
X147677800Y-101170112D01*
X147677800Y-101170112D02*
X147630180Y-101027255D01*
X147630180Y-101027255D02*
X147630180Y-100789160D01*
X147915895Y-101741541D02*
X147915895Y-102217731D01*
X147630180Y-101646303D02*
X148630180Y-101979636D01*
X148630180Y-101979636D02*
X147630180Y-102312969D01*
X143670112Y-85596009D02*
X143812969Y-85643628D01*
X143812969Y-85643628D02*
X143860588Y-85691247D01*
X143860588Y-85691247D02*
X143908207Y-85786485D01*
X143908207Y-85786485D02*
X143908207Y-85929342D01*
X143908207Y-85929342D02*
X143860588Y-86024580D01*
X143860588Y-86024580D02*
X143812969Y-86072200D01*
X143812969Y-86072200D02*
X143717731Y-86119819D01*
X143717731Y-86119819D02*
X143336779Y-86119819D01*
X143336779Y-86119819D02*
X143336779Y-85119819D01*
X143336779Y-85119819D02*
X143670112Y-85119819D01*
X143670112Y-85119819D02*
X143765350Y-85167438D01*
X143765350Y-85167438D02*
X143812969Y-85215057D01*
X143812969Y-85215057D02*
X143860588Y-85310295D01*
X143860588Y-85310295D02*
X143860588Y-85405533D01*
X143860588Y-85405533D02*
X143812969Y-85500771D01*
X143812969Y-85500771D02*
X143765350Y-85548390D01*
X143765350Y-85548390D02*
X143670112Y-85596009D01*
X143670112Y-85596009D02*
X143336779Y-85596009D01*
X144336779Y-86119819D02*
X144336779Y-85453152D01*
X144336779Y-85119819D02*
X144289160Y-85167438D01*
X144289160Y-85167438D02*
X144336779Y-85215057D01*
X144336779Y-85215057D02*
X144384398Y-85167438D01*
X144384398Y-85167438D02*
X144336779Y-85119819D01*
X144336779Y-85119819D02*
X144336779Y-85215057D01*
X142693922Y-87619819D02*
X143027255Y-88619819D01*
X143027255Y-88619819D02*
X143360588Y-87619819D01*
X143693922Y-88619819D02*
X143693922Y-87953152D01*
X143693922Y-87619819D02*
X143646303Y-87667438D01*
X143646303Y-87667438D02*
X143693922Y-87715057D01*
X143693922Y-87715057D02*
X143741541Y-87667438D01*
X143741541Y-87667438D02*
X143693922Y-87619819D01*
X143693922Y-87619819D02*
X143693922Y-87715057D01*
X144170112Y-88238866D02*
X144932017Y-88238866D01*
X144551064Y-88619819D02*
X144551064Y-87857914D01*
X142539160Y-91322200D02*
X142682017Y-91369819D01*
X142682017Y-91369819D02*
X142920112Y-91369819D01*
X142920112Y-91369819D02*
X143015350Y-91322200D01*
X143015350Y-91322200D02*
X143062969Y-91274580D01*
X143062969Y-91274580D02*
X143110588Y-91179342D01*
X143110588Y-91179342D02*
X143110588Y-91084104D01*
X143110588Y-91084104D02*
X143062969Y-90988866D01*
X143062969Y-90988866D02*
X143015350Y-90941247D01*
X143015350Y-90941247D02*
X142920112Y-90893628D01*
X142920112Y-90893628D02*
X142729636Y-90846009D01*
X142729636Y-90846009D02*
X142634398Y-90798390D01*
X142634398Y-90798390D02*
X142586779Y-90750771D01*
X142586779Y-90750771D02*
X142539160Y-90655533D01*
X142539160Y-90655533D02*
X142539160Y-90560295D01*
X142539160Y-90560295D02*
X142586779Y-90465057D01*
X142586779Y-90465057D02*
X142634398Y-90417438D01*
X142634398Y-90417438D02*
X142729636Y-90369819D01*
X142729636Y-90369819D02*
X142967731Y-90369819D01*
X142967731Y-90369819D02*
X143110588Y-90417438D01*
X143396303Y-90369819D02*
X143729636Y-91369819D01*
X143729636Y-91369819D02*
X144062969Y-90369819D01*
X144396303Y-91369819D02*
X144396303Y-90703152D01*
X144396303Y-90369819D02*
X144348684Y-90417438D01*
X144348684Y-90417438D02*
X144396303Y-90465057D01*
X144396303Y-90465057D02*
X144443922Y-90417438D01*
X144443922Y-90417438D02*
X144396303Y-90369819D01*
X144396303Y-90369819D02*
X144396303Y-90465057D01*
X142943922Y-92869819D02*
X143277255Y-93869819D01*
X143277255Y-93869819D02*
X143610588Y-92869819D01*
X143943922Y-93488866D02*
X144705827Y-93488866D01*
X144324874Y-93869819D02*
X144324874Y-93107914D01*
X142289160Y-96322200D02*
X142432017Y-96369819D01*
X142432017Y-96369819D02*
X142670112Y-96369819D01*
X142670112Y-96369819D02*
X142765350Y-96322200D01*
X142765350Y-96322200D02*
X142812969Y-96274580D01*
X142812969Y-96274580D02*
X142860588Y-96179342D01*
X142860588Y-96179342D02*
X142860588Y-96084104D01*
X142860588Y-96084104D02*
X142812969Y-95988866D01*
X142812969Y-95988866D02*
X142765350Y-95941247D01*
X142765350Y-95941247D02*
X142670112Y-95893628D01*
X142670112Y-95893628D02*
X142479636Y-95846009D01*
X142479636Y-95846009D02*
X142384398Y-95798390D01*
X142384398Y-95798390D02*
X142336779Y-95750771D01*
X142336779Y-95750771D02*
X142289160Y-95655533D01*
X142289160Y-95655533D02*
X142289160Y-95560295D01*
X142289160Y-95560295D02*
X142336779Y-95465057D01*
X142336779Y-95465057D02*
X142384398Y-95417438D01*
X142384398Y-95417438D02*
X142479636Y-95369819D01*
X142479636Y-95369819D02*
X142717731Y-95369819D01*
X142717731Y-95369819D02*
X142860588Y-95417438D01*
X143289160Y-96369819D02*
X143289160Y-95369819D01*
X143289160Y-95369819D02*
X143527255Y-95369819D01*
X143527255Y-95369819D02*
X143670112Y-95417438D01*
X143670112Y-95417438D02*
X143765350Y-95512676D01*
X143765350Y-95512676D02*
X143812969Y-95607914D01*
X143812969Y-95607914D02*
X143860588Y-95798390D01*
X143860588Y-95798390D02*
X143860588Y-95941247D01*
X143860588Y-95941247D02*
X143812969Y-96131723D01*
X143812969Y-96131723D02*
X143765350Y-96226961D01*
X143765350Y-96226961D02*
X143670112Y-96322200D01*
X143670112Y-96322200D02*
X143527255Y-96369819D01*
X143527255Y-96369819D02*
X143289160Y-96369819D01*
X144241541Y-96084104D02*
X144717731Y-96084104D01*
X144146303Y-96369819D02*
X144479636Y-95369819D01*
X144479636Y-95369819D02*
X144812969Y-96369819D01*
X142289160Y-98822200D02*
X142432017Y-98869819D01*
X142432017Y-98869819D02*
X142670112Y-98869819D01*
X142670112Y-98869819D02*
X142765350Y-98822200D01*
X142765350Y-98822200D02*
X142812969Y-98774580D01*
X142812969Y-98774580D02*
X142860588Y-98679342D01*
X142860588Y-98679342D02*
X142860588Y-98584104D01*
X142860588Y-98584104D02*
X142812969Y-98488866D01*
X142812969Y-98488866D02*
X142765350Y-98441247D01*
X142765350Y-98441247D02*
X142670112Y-98393628D01*
X142670112Y-98393628D02*
X142479636Y-98346009D01*
X142479636Y-98346009D02*
X142384398Y-98298390D01*
X142384398Y-98298390D02*
X142336779Y-98250771D01*
X142336779Y-98250771D02*
X142289160Y-98155533D01*
X142289160Y-98155533D02*
X142289160Y-98060295D01*
X142289160Y-98060295D02*
X142336779Y-97965057D01*
X142336779Y-97965057D02*
X142384398Y-97917438D01*
X142384398Y-97917438D02*
X142479636Y-97869819D01*
X142479636Y-97869819D02*
X142717731Y-97869819D01*
X142717731Y-97869819D02*
X142860588Y-97917438D01*
X143860588Y-98774580D02*
X143812969Y-98822200D01*
X143812969Y-98822200D02*
X143670112Y-98869819D01*
X143670112Y-98869819D02*
X143574874Y-98869819D01*
X143574874Y-98869819D02*
X143432017Y-98822200D01*
X143432017Y-98822200D02*
X143336779Y-98726961D01*
X143336779Y-98726961D02*
X143289160Y-98631723D01*
X143289160Y-98631723D02*
X143241541Y-98441247D01*
X143241541Y-98441247D02*
X143241541Y-98298390D01*
X143241541Y-98298390D02*
X143289160Y-98107914D01*
X143289160Y-98107914D02*
X143336779Y-98012676D01*
X143336779Y-98012676D02*
X143432017Y-97917438D01*
X143432017Y-97917438D02*
X143574874Y-97869819D01*
X143574874Y-97869819D02*
X143670112Y-97869819D01*
X143670112Y-97869819D02*
X143812969Y-97917438D01*
X143812969Y-97917438D02*
X143860588Y-97965057D01*
X144765350Y-98869819D02*
X144289160Y-98869819D01*
X144289160Y-98869819D02*
X144289160Y-97869819D01*
X119312969Y-123369819D02*
X118836779Y-123369819D01*
X118836779Y-123369819D02*
X118789160Y-123846009D01*
X118789160Y-123846009D02*
X118836779Y-123798390D01*
X118836779Y-123798390D02*
X118932017Y-123750771D01*
X118932017Y-123750771D02*
X119170112Y-123750771D01*
X119170112Y-123750771D02*
X119265350Y-123798390D01*
X119265350Y-123798390D02*
X119312969Y-123846009D01*
X119312969Y-123846009D02*
X119360588Y-123941247D01*
X119360588Y-123941247D02*
X119360588Y-124179342D01*
X119360588Y-124179342D02*
X119312969Y-124274580D01*
X119312969Y-124274580D02*
X119265350Y-124322200D01*
X119265350Y-124322200D02*
X119170112Y-124369819D01*
X119170112Y-124369819D02*
X118932017Y-124369819D01*
X118932017Y-124369819D02*
X118836779Y-124322200D01*
X118836779Y-124322200D02*
X118789160Y-124274580D01*
X119646303Y-123369819D02*
X119979636Y-124369819D01*
X119979636Y-124369819D02*
X120312969Y-123369819D01*
X119971678Y-118609819D02*
X119638345Y-118133628D01*
X119400250Y-118609819D02*
X119400250Y-117609819D01*
X119400250Y-117609819D02*
X119781202Y-117609819D01*
X119781202Y-117609819D02*
X119876440Y-117657438D01*
X119876440Y-117657438D02*
X119924059Y-117705057D01*
X119924059Y-117705057D02*
X119971678Y-117800295D01*
X119971678Y-117800295D02*
X119971678Y-117943152D01*
X119971678Y-117943152D02*
X119924059Y-118038390D01*
X119924059Y-118038390D02*
X119876440Y-118086009D01*
X119876440Y-118086009D02*
X119781202Y-118133628D01*
X119781202Y-118133628D02*
X119400250Y-118133628D01*
X120305012Y-117609819D02*
X120971678Y-118609819D01*
X120971678Y-117609819D02*
X120305012Y-118609819D01*
X119443922Y-118869819D02*
X120015350Y-118869819D01*
X119729636Y-119869819D02*
X119729636Y-118869819D01*
X120253446Y-118869819D02*
X120920112Y-119869819D01*
X120920112Y-118869819D02*
X120253446Y-119869819D01*
X119586779Y-121119819D02*
X119586779Y-120119819D01*
X119586779Y-120119819D02*
X119824874Y-120119819D01*
X119824874Y-120119819D02*
X119967731Y-120167438D01*
X119967731Y-120167438D02*
X120062969Y-120262676D01*
X120062969Y-120262676D02*
X120110588Y-120357914D01*
X120110588Y-120357914D02*
X120158207Y-120548390D01*
X120158207Y-120548390D02*
X120158207Y-120691247D01*
X120158207Y-120691247D02*
X120110588Y-120881723D01*
X120110588Y-120881723D02*
X120062969Y-120976961D01*
X120062969Y-120976961D02*
X119967731Y-121072200D01*
X119967731Y-121072200D02*
X119824874Y-121119819D01*
X119824874Y-121119819D02*
X119586779Y-121119819D01*
X121158207Y-121119819D02*
X120824874Y-120643628D01*
X120586779Y-121119819D02*
X120586779Y-120119819D01*
X120586779Y-120119819D02*
X120967731Y-120119819D01*
X120967731Y-120119819D02*
X121062969Y-120167438D01*
X121062969Y-120167438D02*
X121110588Y-120215057D01*
X121110588Y-120215057D02*
X121158207Y-120310295D01*
X121158207Y-120310295D02*
X121158207Y-120453152D01*
X121158207Y-120453152D02*
X121110588Y-120548390D01*
X121110588Y-120548390D02*
X121062969Y-120596009D01*
X121062969Y-120596009D02*
X120967731Y-120643628D01*
X120967731Y-120643628D02*
X120586779Y-120643628D01*
X121443922Y-120119819D02*
X121777255Y-121119819D01*
X121777255Y-121119819D02*
X122110588Y-120119819D01*
X119402687Y-121354819D02*
X119736020Y-122354819D01*
X119736020Y-122354819D02*
X120069353Y-121354819D01*
X120545544Y-122354819D02*
X120450306Y-122307200D01*
X120450306Y-122307200D02*
X120402687Y-122259580D01*
X120402687Y-122259580D02*
X120355068Y-122164342D01*
X120355068Y-122164342D02*
X120355068Y-121878628D01*
X120355068Y-121878628D02*
X120402687Y-121783390D01*
X120402687Y-121783390D02*
X120450306Y-121735771D01*
X120450306Y-121735771D02*
X120545544Y-121688152D01*
X120545544Y-121688152D02*
X120688401Y-121688152D01*
X120688401Y-121688152D02*
X120783639Y-121735771D01*
X120783639Y-121735771D02*
X120831258Y-121783390D01*
X120831258Y-121783390D02*
X120878877Y-121878628D01*
X120878877Y-121878628D02*
X120878877Y-122164342D01*
X120878877Y-122164342D02*
X120831258Y-122259580D01*
X120831258Y-122259580D02*
X120783639Y-122307200D01*
X120783639Y-122307200D02*
X120688401Y-122354819D01*
X120688401Y-122354819D02*
X120545544Y-122354819D01*
X105369819Y-123056077D02*
X106369819Y-122722744D01*
X106369819Y-122722744D02*
X105369819Y-122389411D01*
X105988866Y-122056077D02*
X105988866Y-121294173D01*
X107369819Y-123056077D02*
X108369819Y-122722744D01*
X108369819Y-122722744D02*
X107369819Y-122389411D01*
X107988866Y-122056077D02*
X107988866Y-121294173D01*
X109369819Y-123056077D02*
X110369819Y-122722744D01*
X110369819Y-122722744D02*
X109369819Y-122389411D01*
X109988866Y-122056077D02*
X109988866Y-121294173D01*
X112369819Y-122341792D02*
X111893628Y-122675125D01*
X112369819Y-122913220D02*
X111369819Y-122913220D01*
X111369819Y-122913220D02*
X111369819Y-122532268D01*
X111369819Y-122532268D02*
X111417438Y-122437030D01*
X111417438Y-122437030D02*
X111465057Y-122389411D01*
X111465057Y-122389411D02*
X111560295Y-122341792D01*
X111560295Y-122341792D02*
X111703152Y-122341792D01*
X111703152Y-122341792D02*
X111798390Y-122389411D01*
X111798390Y-122389411D02*
X111846009Y-122437030D01*
X111846009Y-122437030D02*
X111893628Y-122532268D01*
X111893628Y-122532268D02*
X111893628Y-122913220D01*
X111369819Y-122008458D02*
X112369819Y-121341792D01*
X111369819Y-121341792D02*
X112369819Y-122008458D01*
X113369819Y-123056077D02*
X113369819Y-122484649D01*
X114369819Y-122770363D02*
X113369819Y-122770363D01*
X113369819Y-122246553D02*
X114369819Y-121579887D01*
X113369819Y-121579887D02*
X114369819Y-122246553D01*
X115369819Y-123056077D02*
X116369819Y-122722744D01*
X116369819Y-122722744D02*
X115369819Y-122389411D01*
X115988866Y-122056077D02*
X115988866Y-121294173D01*
X116369819Y-121675125D02*
X115607914Y-121675125D01*
X100050500Y-125250000D02*
X100050500Y-75250000D01*
X150050500Y-75250000D02*
X150050500Y-125250000D01*
X100050500Y-75250000D02*
X150050500Y-75250000D01*
X150050500Y-125250000D02*
X100050500Y-125250000D01*
X111836779Y-104846009D02*
X112170112Y-104846009D01*
X112312969Y-105369819D02*
X111836779Y-105369819D01*
X111836779Y-105369819D02*
X111836779Y-104369819D01*
X111836779Y-104369819D02*
X112312969Y-104369819D01*
X112693922Y-105322200D02*
X112836779Y-105369819D01*
X112836779Y-105369819D02*
X113074874Y-105369819D01*
X113074874Y-105369819D02*
X113170112Y-105322200D01*
X113170112Y-105322200D02*
X113217731Y-105274580D01*
X113217731Y-105274580D02*
X113265350Y-105179342D01*
X113265350Y-105179342D02*
X113265350Y-105084104D01*
X113265350Y-105084104D02*
X113217731Y-104988866D01*
X113217731Y-104988866D02*
X113170112Y-104941247D01*
X113170112Y-104941247D02*
X113074874Y-104893628D01*
X113074874Y-104893628D02*
X112884398Y-104846009D01*
X112884398Y-104846009D02*
X112789160Y-104798390D01*
X112789160Y-104798390D02*
X112741541Y-104750771D01*
X112741541Y-104750771D02*
X112693922Y-104655533D01*
X112693922Y-104655533D02*
X112693922Y-104560295D01*
X112693922Y-104560295D02*
X112741541Y-104465057D01*
X112741541Y-104465057D02*
X112789160Y-104417438D01*
X112789160Y-104417438D02*
X112884398Y-104369819D01*
X112884398Y-104369819D02*
X113122493Y-104369819D01*
X113122493Y-104369819D02*
X113265350Y-104417438D01*
X113693922Y-105369819D02*
X113693922Y-104369819D01*
X113693922Y-104369819D02*
X114074874Y-104369819D01*
X114074874Y-104369819D02*
X114170112Y-104417438D01*
X114170112Y-104417438D02*
X114217731Y-104465057D01*
X114217731Y-104465057D02*
X114265350Y-104560295D01*
X114265350Y-104560295D02*
X114265350Y-104703152D01*
X114265350Y-104703152D02*
X114217731Y-104798390D01*
X114217731Y-104798390D02*
X114170112Y-104846009D01*
X114170112Y-104846009D02*
X114074874Y-104893628D01*
X114074874Y-104893628D02*
X113693922Y-104893628D01*
X114693922Y-104988866D02*
X115455827Y-104988866D01*
X115932017Y-105369819D02*
X115932017Y-104369819D01*
X115932017Y-104369819D02*
X116265350Y-105084104D01*
X116265350Y-105084104D02*
X116598683Y-104369819D01*
X116598683Y-104369819D02*
X116598683Y-105369819D01*
X117455826Y-105322200D02*
X117360588Y-105369819D01*
X117360588Y-105369819D02*
X117170112Y-105369819D01*
X117170112Y-105369819D02*
X117074874Y-105322200D01*
X117074874Y-105322200D02*
X117027255Y-105226961D01*
X117027255Y-105226961D02*
X117027255Y-104846009D01*
X117027255Y-104846009D02*
X117074874Y-104750771D01*
X117074874Y-104750771D02*
X117170112Y-104703152D01*
X117170112Y-104703152D02*
X117360588Y-104703152D01*
X117360588Y-104703152D02*
X117455826Y-104750771D01*
X117455826Y-104750771D02*
X117503445Y-104846009D01*
X117503445Y-104846009D02*
X117503445Y-104941247D01*
X117503445Y-104941247D02*
X117027255Y-105036485D01*
X117884398Y-105322200D02*
X117979636Y-105369819D01*
X117979636Y-105369819D02*
X118170112Y-105369819D01*
X118170112Y-105369819D02*
X118265350Y-105322200D01*
X118265350Y-105322200D02*
X118312969Y-105226961D01*
X118312969Y-105226961D02*
X118312969Y-105179342D01*
X118312969Y-105179342D02*
X118265350Y-105084104D01*
X118265350Y-105084104D02*
X118170112Y-105036485D01*
X118170112Y-105036485D02*
X118027255Y-105036485D01*
X118027255Y-105036485D02*
X117932017Y-104988866D01*
X117932017Y-104988866D02*
X117884398Y-104893628D01*
X117884398Y-104893628D02*
X117884398Y-104846009D01*
X117884398Y-104846009D02*
X117932017Y-104750771D01*
X117932017Y-104750771D02*
X118027255Y-104703152D01*
X118027255Y-104703152D02*
X118170112Y-104703152D01*
X118170112Y-104703152D02*
X118265350Y-104750771D01*
X118693922Y-105322200D02*
X118789160Y-105369819D01*
X118789160Y-105369819D02*
X118979636Y-105369819D01*
X118979636Y-105369819D02*
X119074874Y-105322200D01*
X119074874Y-105322200D02*
X119122493Y-105226961D01*
X119122493Y-105226961D02*
X119122493Y-105179342D01*
X119122493Y-105179342D02*
X119074874Y-105084104D01*
X119074874Y-105084104D02*
X118979636Y-105036485D01*
X118979636Y-105036485D02*
X118836779Y-105036485D01*
X118836779Y-105036485D02*
X118741541Y-104988866D01*
X118741541Y-104988866D02*
X118693922Y-104893628D01*
X118693922Y-104893628D02*
X118693922Y-104846009D01*
X118693922Y-104846009D02*
X118741541Y-104750771D01*
X118741541Y-104750771D02*
X118836779Y-104703152D01*
X118836779Y-104703152D02*
X118979636Y-104703152D01*
X118979636Y-104703152D02*
X119074874Y-104750771D01*
X120646303Y-104846009D02*
X120789160Y-104893628D01*
X120789160Y-104893628D02*
X120836779Y-104941247D01*
X120836779Y-104941247D02*
X120884398Y-105036485D01*
X120884398Y-105036485D02*
X120884398Y-105179342D01*
X120884398Y-105179342D02*
X120836779Y-105274580D01*
X120836779Y-105274580D02*
X120789160Y-105322200D01*
X120789160Y-105322200D02*
X120693922Y-105369819D01*
X120693922Y-105369819D02*
X120312970Y-105369819D01*
X120312970Y-105369819D02*
X120312970Y-104369819D01*
X120312970Y-104369819D02*
X120646303Y-104369819D01*
X120646303Y-104369819D02*
X120741541Y-104417438D01*
X120741541Y-104417438D02*
X120789160Y-104465057D01*
X120789160Y-104465057D02*
X120836779Y-104560295D01*
X120836779Y-104560295D02*
X120836779Y-104655533D01*
X120836779Y-104655533D02*
X120789160Y-104750771D01*
X120789160Y-104750771D02*
X120741541Y-104798390D01*
X120741541Y-104798390D02*
X120646303Y-104846009D01*
X120646303Y-104846009D02*
X120312970Y-104846009D01*
X121741541Y-105369819D02*
X121741541Y-104846009D01*
X121741541Y-104846009D02*
X121693922Y-104750771D01*
X121693922Y-104750771D02*
X121598684Y-104703152D01*
X121598684Y-104703152D02*
X121408208Y-104703152D01*
X121408208Y-104703152D02*
X121312970Y-104750771D01*
X121741541Y-105322200D02*
X121646303Y-105369819D01*
X121646303Y-105369819D02*
X121408208Y-105369819D01*
X121408208Y-105369819D02*
X121312970Y-105322200D01*
X121312970Y-105322200D02*
X121265351Y-105226961D01*
X121265351Y-105226961D02*
X121265351Y-105131723D01*
X121265351Y-105131723D02*
X121312970Y-105036485D01*
X121312970Y-105036485D02*
X121408208Y-104988866D01*
X121408208Y-104988866D02*
X121646303Y-104988866D01*
X121646303Y-104988866D02*
X121741541Y-104941247D01*
X122170113Y-105322200D02*
X122265351Y-105369819D01*
X122265351Y-105369819D02*
X122455827Y-105369819D01*
X122455827Y-105369819D02*
X122551065Y-105322200D01*
X122551065Y-105322200D02*
X122598684Y-105226961D01*
X122598684Y-105226961D02*
X122598684Y-105179342D01*
X122598684Y-105179342D02*
X122551065Y-105084104D01*
X122551065Y-105084104D02*
X122455827Y-105036485D01*
X122455827Y-105036485D02*
X122312970Y-105036485D01*
X122312970Y-105036485D02*
X122217732Y-104988866D01*
X122217732Y-104988866D02*
X122170113Y-104893628D01*
X122170113Y-104893628D02*
X122170113Y-104846009D01*
X122170113Y-104846009D02*
X122217732Y-104750771D01*
X122217732Y-104750771D02*
X122312970Y-104703152D01*
X122312970Y-104703152D02*
X122455827Y-104703152D01*
X122455827Y-104703152D02*
X122551065Y-104750771D01*
X123408208Y-105322200D02*
X123312970Y-105369819D01*
X123312970Y-105369819D02*
X123122494Y-105369819D01*
X123122494Y-105369819D02*
X123027256Y-105322200D01*
X123027256Y-105322200D02*
X122979637Y-105226961D01*
X122979637Y-105226961D02*
X122979637Y-104846009D01*
X122979637Y-104846009D02*
X123027256Y-104750771D01*
X123027256Y-104750771D02*
X123122494Y-104703152D01*
X123122494Y-104703152D02*
X123312970Y-104703152D01*
X123312970Y-104703152D02*
X123408208Y-104750771D01*
X123408208Y-104750771D02*
X123455827Y-104846009D01*
X123455827Y-104846009D02*
X123455827Y-104941247D01*
X123455827Y-104941247D02*
X122979637Y-105036485D01*
X123884399Y-105369819D02*
X123884399Y-104369819D01*
X123884399Y-104750771D02*
X123979637Y-104703152D01*
X123979637Y-104703152D02*
X124170113Y-104703152D01*
X124170113Y-104703152D02*
X124265351Y-104750771D01*
X124265351Y-104750771D02*
X124312970Y-104798390D01*
X124312970Y-104798390D02*
X124360589Y-104893628D01*
X124360589Y-104893628D02*
X124360589Y-105179342D01*
X124360589Y-105179342D02*
X124312970Y-105274580D01*
X124312970Y-105274580D02*
X124265351Y-105322200D01*
X124265351Y-105322200D02*
X124170113Y-105369819D01*
X124170113Y-105369819D02*
X123979637Y-105369819D01*
X123979637Y-105369819D02*
X123884399Y-105322200D01*
X124932018Y-105369819D02*
X124836780Y-105322200D01*
X124836780Y-105322200D02*
X124789161Y-105274580D01*
X124789161Y-105274580D02*
X124741542Y-105179342D01*
X124741542Y-105179342D02*
X124741542Y-104893628D01*
X124741542Y-104893628D02*
X124789161Y-104798390D01*
X124789161Y-104798390D02*
X124836780Y-104750771D01*
X124836780Y-104750771D02*
X124932018Y-104703152D01*
X124932018Y-104703152D02*
X125074875Y-104703152D01*
X125074875Y-104703152D02*
X125170113Y-104750771D01*
X125170113Y-104750771D02*
X125217732Y-104798390D01*
X125217732Y-104798390D02*
X125265351Y-104893628D01*
X125265351Y-104893628D02*
X125265351Y-105179342D01*
X125265351Y-105179342D02*
X125217732Y-105274580D01*
X125217732Y-105274580D02*
X125170113Y-105322200D01*
X125170113Y-105322200D02*
X125074875Y-105369819D01*
X125074875Y-105369819D02*
X124932018Y-105369819D01*
X126122494Y-105369819D02*
X126122494Y-104846009D01*
X126122494Y-104846009D02*
X126074875Y-104750771D01*
X126074875Y-104750771D02*
X125979637Y-104703152D01*
X125979637Y-104703152D02*
X125789161Y-104703152D01*
X125789161Y-104703152D02*
X125693923Y-104750771D01*
X126122494Y-105322200D02*
X126027256Y-105369819D01*
X126027256Y-105369819D02*
X125789161Y-105369819D01*
X125789161Y-105369819D02*
X125693923Y-105322200D01*
X125693923Y-105322200D02*
X125646304Y-105226961D01*
X125646304Y-105226961D02*
X125646304Y-105131723D01*
X125646304Y-105131723D02*
X125693923Y-105036485D01*
X125693923Y-105036485D02*
X125789161Y-104988866D01*
X125789161Y-104988866D02*
X126027256Y-104988866D01*
X126027256Y-104988866D02*
X126122494Y-104941247D01*
X126598685Y-105369819D02*
X126598685Y-104703152D01*
X126598685Y-104893628D02*
X126646304Y-104798390D01*
X126646304Y-104798390D02*
X126693923Y-104750771D01*
X126693923Y-104750771D02*
X126789161Y-104703152D01*
X126789161Y-104703152D02*
X126884399Y-104703152D01*
X127646304Y-105369819D02*
X127646304Y-104369819D01*
X127646304Y-105322200D02*
X127551066Y-105369819D01*
X127551066Y-105369819D02*
X127360590Y-105369819D01*
X127360590Y-105369819D02*
X127265352Y-105322200D01*
X127265352Y-105322200D02*
X127217733Y-105274580D01*
X127217733Y-105274580D02*
X127170114Y-105179342D01*
X127170114Y-105179342D02*
X127170114Y-104893628D01*
X127170114Y-104893628D02*
X127217733Y-104798390D01*
X127217733Y-104798390D02*
X127265352Y-104750771D01*
X127265352Y-104750771D02*
X127360590Y-104703152D01*
X127360590Y-104703152D02*
X127551066Y-104703152D01*
X127551066Y-104703152D02*
X127646304Y-104750771D01*
X128741543Y-104369819D02*
X129074876Y-105369819D01*
X129074876Y-105369819D02*
X129408209Y-104369819D01*
X130217733Y-104369819D02*
X129741543Y-104369819D01*
X129741543Y-104369819D02*
X129693924Y-104846009D01*
X129693924Y-104846009D02*
X129741543Y-104798390D01*
X129741543Y-104798390D02*
X129836781Y-104750771D01*
X129836781Y-104750771D02*
X130074876Y-104750771D01*
X130074876Y-104750771D02*
X130170114Y-104798390D01*
X130170114Y-104798390D02*
X130217733Y-104846009D01*
X130217733Y-104846009D02*
X130265352Y-104941247D01*
X130265352Y-104941247D02*
X130265352Y-105179342D01*
X130265352Y-105179342D02*
X130217733Y-105274580D01*
X130217733Y-105274580D02*
X130170114Y-105322200D01*
X130170114Y-105322200D02*
X130074876Y-105369819D01*
X130074876Y-105369819D02*
X129836781Y-105369819D01*
X129836781Y-105369819D02*
X129741543Y-105322200D01*
X129741543Y-105322200D02*
X129693924Y-105274580D01*
X130693924Y-105274580D02*
X130741543Y-105322200D01*
X130741543Y-105322200D02*
X130693924Y-105369819D01*
X130693924Y-105369819D02*
X130646305Y-105322200D01*
X130646305Y-105322200D02*
X130693924Y-105274580D01*
X130693924Y-105274580D02*
X130693924Y-105369819D01*
X131360590Y-104369819D02*
X131455828Y-104369819D01*
X131455828Y-104369819D02*
X131551066Y-104417438D01*
X131551066Y-104417438D02*
X131598685Y-104465057D01*
X131598685Y-104465057D02*
X131646304Y-104560295D01*
X131646304Y-104560295D02*
X131693923Y-104750771D01*
X131693923Y-104750771D02*
X131693923Y-104988866D01*
X131693923Y-104988866D02*
X131646304Y-105179342D01*
X131646304Y-105179342D02*
X131598685Y-105274580D01*
X131598685Y-105274580D02*
X131551066Y-105322200D01*
X131551066Y-105322200D02*
X131455828Y-105369819D01*
X131455828Y-105369819D02*
X131360590Y-105369819D01*
X131360590Y-105369819D02*
X131265352Y-105322200D01*
X131265352Y-105322200D02*
X131217733Y-105274580D01*
X131217733Y-105274580D02*
X131170114Y-105179342D01*
X131170114Y-105179342D02*
X131122495Y-104988866D01*
X131122495Y-104988866D02*
X131122495Y-104750771D01*
X131122495Y-104750771D02*
X131170114Y-104560295D01*
X131170114Y-104560295D02*
X131217733Y-104465057D01*
X131217733Y-104465057D02*
X131265352Y-104417438D01*
X131265352Y-104417438D02*
X131360590Y-104369819D01*
X137655319Y-108166666D02*
X137179128Y-108499999D01*
X137655319Y-108738094D02*
X136655319Y-108738094D01*
X136655319Y-108738094D02*
X136655319Y-108357142D01*
X136655319Y-108357142D02*
X136702938Y-108261904D01*
X136702938Y-108261904D02*
X136750557Y-108214285D01*
X136750557Y-108214285D02*
X136845795Y-108166666D01*
X136845795Y-108166666D02*
X136988652Y-108166666D01*
X136988652Y-108166666D02*
X137083890Y-108214285D01*
X137083890Y-108214285D02*
X137131509Y-108261904D01*
X137131509Y-108261904D02*
X137179128Y-108357142D01*
X137179128Y-108357142D02*
X137179128Y-108738094D01*
X136655319Y-107833332D02*
X136655319Y-107166666D01*
X136655319Y-107166666D02*
X137655319Y-107595237D01*
X133524819Y-93355357D02*
X133048628Y-93688690D01*
X133524819Y-93926785D02*
X132524819Y-93926785D01*
X132524819Y-93926785D02*
X132524819Y-93545833D01*
X132524819Y-93545833D02*
X132572438Y-93450595D01*
X132572438Y-93450595D02*
X132620057Y-93402976D01*
X132620057Y-93402976D02*
X132715295Y-93355357D01*
X132715295Y-93355357D02*
X132858152Y-93355357D01*
X132858152Y-93355357D02*
X132953390Y-93402976D01*
X132953390Y-93402976D02*
X133001009Y-93450595D01*
X133001009Y-93450595D02*
X133048628Y-93545833D01*
X133048628Y-93545833D02*
X133048628Y-93926785D01*
X133524819Y-92402976D02*
X133524819Y-92974404D01*
X133524819Y-92688690D02*
X132524819Y-92688690D01*
X132524819Y-92688690D02*
X132667676Y-92783928D01*
X132667676Y-92783928D02*
X132762914Y-92879166D01*
X132762914Y-92879166D02*
X132810533Y-92974404D01*
X132524819Y-91498214D02*
X132524819Y-91974404D01*
X132524819Y-91974404D02*
X133001009Y-92022023D01*
X133001009Y-92022023D02*
X132953390Y-91974404D01*
X132953390Y-91974404D02*
X132905771Y-91879166D01*
X132905771Y-91879166D02*
X132905771Y-91641071D01*
X132905771Y-91641071D02*
X132953390Y-91545833D01*
X132953390Y-91545833D02*
X133001009Y-91498214D01*
X133001009Y-91498214D02*
X133096247Y-91450595D01*
X133096247Y-91450595D02*
X133334342Y-91450595D01*
X133334342Y-91450595D02*
X133429580Y-91498214D01*
X133429580Y-91498214D02*
X133477200Y-91545833D01*
X133477200Y-91545833D02*
X133524819Y-91641071D01*
X133524819Y-91641071D02*
X133524819Y-91879166D01*
X133524819Y-91879166D02*
X133477200Y-91974404D01*
X133477200Y-91974404D02*
X133429580Y-92022023D01*
X123524819Y-91930357D02*
X123048628Y-92263690D01*
X123524819Y-92501785D02*
X122524819Y-92501785D01*
X122524819Y-92501785D02*
X122524819Y-92120833D01*
X122524819Y-92120833D02*
X122572438Y-92025595D01*
X122572438Y-92025595D02*
X122620057Y-91977976D01*
X122620057Y-91977976D02*
X122715295Y-91930357D01*
X122715295Y-91930357D02*
X122858152Y-91930357D01*
X122858152Y-91930357D02*
X122953390Y-91977976D01*
X122953390Y-91977976D02*
X123001009Y-92025595D01*
X123001009Y-92025595D02*
X123048628Y-92120833D01*
X123048628Y-92120833D02*
X123048628Y-92501785D01*
X123524819Y-90977976D02*
X123524819Y-91549404D01*
X123524819Y-91263690D02*
X122524819Y-91263690D01*
X122524819Y-91263690D02*
X122667676Y-91358928D01*
X122667676Y-91358928D02*
X122762914Y-91454166D01*
X122762914Y-91454166D02*
X122810533Y-91549404D01*
X122858152Y-90120833D02*
X123524819Y-90120833D01*
X122477200Y-90358928D02*
X123191485Y-90597023D01*
X123191485Y-90597023D02*
X123191485Y-89977976D01*
X127604129Y-87941356D02*
X127604129Y-86540600D01*
X127604129Y-86540600D02*
X127937642Y-86540600D01*
X127937642Y-86540600D02*
X128137750Y-86607303D01*
X128137750Y-86607303D02*
X128271156Y-86740708D01*
X128271156Y-86740708D02*
X128337858Y-86874114D01*
X128337858Y-86874114D02*
X128404561Y-87140924D01*
X128404561Y-87140924D02*
X128404561Y-87341032D01*
X128404561Y-87341032D02*
X128337858Y-87607843D01*
X128337858Y-87607843D02*
X128271156Y-87741248D01*
X128271156Y-87741248D02*
X128137750Y-87874654D01*
X128137750Y-87874654D02*
X127937642Y-87941356D01*
X127937642Y-87941356D02*
X127604129Y-87941356D01*
X129605209Y-86540600D02*
X129338398Y-86540600D01*
X129338398Y-86540600D02*
X129204993Y-86607303D01*
X129204993Y-86607303D02*
X129138290Y-86674006D01*
X129138290Y-86674006D02*
X129004885Y-86874114D01*
X129004885Y-86874114D02*
X128938182Y-87140924D01*
X128938182Y-87140924D02*
X128938182Y-87674546D01*
X128938182Y-87674546D02*
X129004885Y-87807951D01*
X129004885Y-87807951D02*
X129071588Y-87874654D01*
X129071588Y-87874654D02*
X129204993Y-87941356D01*
X129204993Y-87941356D02*
X129471804Y-87941356D01*
X129471804Y-87941356D02*
X129605209Y-87874654D01*
X129605209Y-87874654D02*
X129671912Y-87807951D01*
X129671912Y-87807951D02*
X129738614Y-87674546D01*
X129738614Y-87674546D02*
X129738614Y-87341032D01*
X129738614Y-87341032D02*
X129671912Y-87207627D01*
X129671912Y-87207627D02*
X129605209Y-87140924D01*
X129605209Y-87140924D02*
X129471804Y-87074222D01*
X129471804Y-87074222D02*
X129204993Y-87074222D01*
X129204993Y-87074222D02*
X129071588Y-87140924D01*
X129071588Y-87140924D02*
X129004885Y-87207627D01*
X129004885Y-87207627D02*
X128938182Y-87341032D01*
X119338057Y-110157738D02*
X119290438Y-110252976D01*
X119290438Y-110252976D02*
X119195200Y-110348214D01*
X119195200Y-110348214D02*
X119052342Y-110491071D01*
X119052342Y-110491071D02*
X119004723Y-110586309D01*
X119004723Y-110586309D02*
X119004723Y-110681547D01*
X119242819Y-110633928D02*
X119195200Y-110729166D01*
X119195200Y-110729166D02*
X119099961Y-110824404D01*
X119099961Y-110824404D02*
X118909485Y-110872023D01*
X118909485Y-110872023D02*
X118576152Y-110872023D01*
X118576152Y-110872023D02*
X118385676Y-110824404D01*
X118385676Y-110824404D02*
X118290438Y-110729166D01*
X118290438Y-110729166D02*
X118242819Y-110633928D01*
X118242819Y-110633928D02*
X118242819Y-110443452D01*
X118242819Y-110443452D02*
X118290438Y-110348214D01*
X118290438Y-110348214D02*
X118385676Y-110252976D01*
X118385676Y-110252976D02*
X118576152Y-110205357D01*
X118576152Y-110205357D02*
X118909485Y-110205357D01*
X118909485Y-110205357D02*
X119099961Y-110252976D01*
X119099961Y-110252976D02*
X119195200Y-110348214D01*
X119195200Y-110348214D02*
X119242819Y-110443452D01*
X119242819Y-110443452D02*
X119242819Y-110633928D01*
X118242819Y-109872023D02*
X118242819Y-109252976D01*
X118242819Y-109252976D02*
X118623771Y-109586309D01*
X118623771Y-109586309D02*
X118623771Y-109443452D01*
X118623771Y-109443452D02*
X118671390Y-109348214D01*
X118671390Y-109348214D02*
X118719009Y-109300595D01*
X118719009Y-109300595D02*
X118814247Y-109252976D01*
X118814247Y-109252976D02*
X119052342Y-109252976D01*
X119052342Y-109252976D02*
X119147580Y-109300595D01*
X119147580Y-109300595D02*
X119195200Y-109348214D01*
X119195200Y-109348214D02*
X119242819Y-109443452D01*
X119242819Y-109443452D02*
X119242819Y-109729166D01*
X119242819Y-109729166D02*
X119195200Y-109824404D01*
X119195200Y-109824404D02*
X119147580Y-109872023D01*
X143060080Y-102916666D02*
X143107700Y-102964285D01*
X143107700Y-102964285D02*
X143155319Y-103107142D01*
X143155319Y-103107142D02*
X143155319Y-103202380D01*
X143155319Y-103202380D02*
X143107700Y-103345237D01*
X143107700Y-103345237D02*
X143012461Y-103440475D01*
X143012461Y-103440475D02*
X142917223Y-103488094D01*
X142917223Y-103488094D02*
X142726747Y-103535713D01*
X142726747Y-103535713D02*
X142583890Y-103535713D01*
X142583890Y-103535713D02*
X142393414Y-103488094D01*
X142393414Y-103488094D02*
X142298176Y-103440475D01*
X142298176Y-103440475D02*
X142202938Y-103345237D01*
X142202938Y-103345237D02*
X142155319Y-103202380D01*
X142155319Y-103202380D02*
X142155319Y-103107142D01*
X142155319Y-103107142D02*
X142202938Y-102964285D01*
X142202938Y-102964285D02*
X142250557Y-102916666D01*
X142155319Y-102059523D02*
X142155319Y-102249999D01*
X142155319Y-102249999D02*
X142202938Y-102345237D01*
X142202938Y-102345237D02*
X142250557Y-102392856D01*
X142250557Y-102392856D02*
X142393414Y-102488094D01*
X142393414Y-102488094D02*
X142583890Y-102535713D01*
X142583890Y-102535713D02*
X142964842Y-102535713D01*
X142964842Y-102535713D02*
X143060080Y-102488094D01*
X143060080Y-102488094D02*
X143107700Y-102440475D01*
X143107700Y-102440475D02*
X143155319Y-102345237D01*
X143155319Y-102345237D02*
X143155319Y-102154761D01*
X143155319Y-102154761D02*
X143107700Y-102059523D01*
X143107700Y-102059523D02*
X143060080Y-102011904D01*
X143060080Y-102011904D02*
X142964842Y-101964285D01*
X142964842Y-101964285D02*
X142726747Y-101964285D01*
X142726747Y-101964285D02*
X142631509Y-102011904D01*
X142631509Y-102011904D02*
X142583890Y-102059523D01*
X142583890Y-102059523D02*
X142536271Y-102154761D01*
X142536271Y-102154761D02*
X142536271Y-102345237D01*
X142536271Y-102345237D02*
X142583890Y-102440475D01*
X142583890Y-102440475D02*
X142631509Y-102488094D01*
X142631509Y-102488094D02*
X142726747Y-102535713D01*
X107633833Y-109959580D02*
X107586214Y-110007200D01*
X107586214Y-110007200D02*
X107443357Y-110054819D01*
X107443357Y-110054819D02*
X107348119Y-110054819D01*
X107348119Y-110054819D02*
X107205262Y-110007200D01*
X107205262Y-110007200D02*
X107110024Y-109911961D01*
X107110024Y-109911961D02*
X107062405Y-109816723D01*
X107062405Y-109816723D02*
X107014786Y-109626247D01*
X107014786Y-109626247D02*
X107014786Y-109483390D01*
X107014786Y-109483390D02*
X107062405Y-109292914D01*
X107062405Y-109292914D02*
X107110024Y-109197676D01*
X107110024Y-109197676D02*
X107205262Y-109102438D01*
X107205262Y-109102438D02*
X107348119Y-109054819D01*
X107348119Y-109054819D02*
X107443357Y-109054819D01*
X107443357Y-109054819D02*
X107586214Y-109102438D01*
X107586214Y-109102438D02*
X107633833Y-109150057D01*
X108014786Y-109150057D02*
X108062405Y-109102438D01*
X108062405Y-109102438D02*
X108157643Y-109054819D01*
X108157643Y-109054819D02*
X108395738Y-109054819D01*
X108395738Y-109054819D02*
X108490976Y-109102438D01*
X108490976Y-109102438D02*
X108538595Y-109150057D01*
X108538595Y-109150057D02*
X108586214Y-109245295D01*
X108586214Y-109245295D02*
X108586214Y-109340533D01*
X108586214Y-109340533D02*
X108538595Y-109483390D01*
X108538595Y-109483390D02*
X107967167Y-110054819D01*
X107967167Y-110054819D02*
X108586214Y-110054819D01*
X113195142Y-99384819D02*
X112861809Y-98908628D01*
X112623714Y-99384819D02*
X112623714Y-98384819D01*
X112623714Y-98384819D02*
X113004666Y-98384819D01*
X113004666Y-98384819D02*
X113099904Y-98432438D01*
X113099904Y-98432438D02*
X113147523Y-98480057D01*
X113147523Y-98480057D02*
X113195142Y-98575295D01*
X113195142Y-98575295D02*
X113195142Y-98718152D01*
X113195142Y-98718152D02*
X113147523Y-98813390D01*
X113147523Y-98813390D02*
X113099904Y-98861009D01*
X113099904Y-98861009D02*
X113004666Y-98908628D01*
X113004666Y-98908628D02*
X112623714Y-98908628D01*
X113576095Y-98480057D02*
X113623714Y-98432438D01*
X113623714Y-98432438D02*
X113718952Y-98384819D01*
X113718952Y-98384819D02*
X113957047Y-98384819D01*
X113957047Y-98384819D02*
X114052285Y-98432438D01*
X114052285Y-98432438D02*
X114099904Y-98480057D01*
X114099904Y-98480057D02*
X114147523Y-98575295D01*
X114147523Y-98575295D02*
X114147523Y-98670533D01*
X114147523Y-98670533D02*
X114099904Y-98813390D01*
X114099904Y-98813390D02*
X113528476Y-99384819D01*
X113528476Y-99384819D02*
X114147523Y-99384819D01*
X114480857Y-98384819D02*
X115147523Y-98384819D01*
X115147523Y-98384819D02*
X114718952Y-99384819D01*
X141157642Y-93634819D02*
X140824309Y-93158628D01*
X140586214Y-93634819D02*
X140586214Y-92634819D01*
X140586214Y-92634819D02*
X140967166Y-92634819D01*
X140967166Y-92634819D02*
X141062404Y-92682438D01*
X141062404Y-92682438D02*
X141110023Y-92730057D01*
X141110023Y-92730057D02*
X141157642Y-92825295D01*
X141157642Y-92825295D02*
X141157642Y-92968152D01*
X141157642Y-92968152D02*
X141110023Y-93063390D01*
X141110023Y-93063390D02*
X141062404Y-93111009D01*
X141062404Y-93111009D02*
X140967166Y-93158628D01*
X140967166Y-93158628D02*
X140586214Y-93158628D01*
X141538595Y-92730057D02*
X141586214Y-92682438D01*
X141586214Y-92682438D02*
X141681452Y-92634819D01*
X141681452Y-92634819D02*
X141919547Y-92634819D01*
X141919547Y-92634819D02*
X142014785Y-92682438D01*
X142014785Y-92682438D02*
X142062404Y-92730057D01*
X142062404Y-92730057D02*
X142110023Y-92825295D01*
X142110023Y-92825295D02*
X142110023Y-92920533D01*
X142110023Y-92920533D02*
X142062404Y-93063390D01*
X142062404Y-93063390D02*
X141490976Y-93634819D01*
X141490976Y-93634819D02*
X142110023Y-93634819D01*
X143062404Y-93634819D02*
X142490976Y-93634819D01*
X142776690Y-93634819D02*
X142776690Y-92634819D01*
X142776690Y-92634819D02*
X142681452Y-92777676D01*
X142681452Y-92777676D02*
X142586214Y-92872914D01*
X142586214Y-92872914D02*
X142490976Y-92920533D01*
X132842166Y-116487319D02*
X132842166Y-117201604D01*
X132842166Y-117201604D02*
X132794547Y-117344461D01*
X132794547Y-117344461D02*
X132699309Y-117439700D01*
X132699309Y-117439700D02*
X132556452Y-117487319D01*
X132556452Y-117487319D02*
X132461214Y-117487319D01*
X133842166Y-117487319D02*
X133270738Y-117487319D01*
X133556452Y-117487319D02*
X133556452Y-116487319D01*
X133556452Y-116487319D02*
X133461214Y-116630176D01*
X133461214Y-116630176D02*
X133365976Y-116725414D01*
X133365976Y-116725414D02*
X133270738Y-116773033D01*
X99368033Y-106314202D02*
X98367765Y-106314202D01*
X98367765Y-106314202D02*
X98367765Y-105933148D01*
X98367765Y-105933148D02*
X98415397Y-105837884D01*
X98415397Y-105837884D02*
X98463029Y-105790253D01*
X98463029Y-105790253D02*
X98558293Y-105742621D01*
X98558293Y-105742621D02*
X98701188Y-105742621D01*
X98701188Y-105742621D02*
X98796452Y-105790253D01*
X98796452Y-105790253D02*
X98844083Y-105837884D01*
X98844083Y-105837884D02*
X98891715Y-105933148D01*
X98891715Y-105933148D02*
X98891715Y-106314202D01*
X98463029Y-105361566D02*
X98415397Y-105313934D01*
X98415397Y-105313934D02*
X98367765Y-105218671D01*
X98367765Y-105218671D02*
X98367765Y-104980512D01*
X98367765Y-104980512D02*
X98415397Y-104885248D01*
X98415397Y-104885248D02*
X98463029Y-104837616D01*
X98463029Y-104837616D02*
X98558293Y-104789985D01*
X98558293Y-104789985D02*
X98653556Y-104789985D01*
X98653556Y-104789985D02*
X98796452Y-104837616D01*
X98796452Y-104837616D02*
X99368033Y-105409198D01*
X99368033Y-105409198D02*
X99368033Y-104789985D01*
X136178628Y-88476190D02*
X136654819Y-88476190D01*
X135654819Y-88809523D02*
X136178628Y-88476190D01*
X136178628Y-88476190D02*
X135654819Y-88142857D01*
X135750057Y-87857142D02*
X135702438Y-87809523D01*
X135702438Y-87809523D02*
X135654819Y-87714285D01*
X135654819Y-87714285D02*
X135654819Y-87476190D01*
X135654819Y-87476190D02*
X135702438Y-87380952D01*
X135702438Y-87380952D02*
X135750057Y-87333333D01*
X135750057Y-87333333D02*
X135845295Y-87285714D01*
X135845295Y-87285714D02*
X135940533Y-87285714D01*
X135940533Y-87285714D02*
X136083390Y-87333333D01*
X136083390Y-87333333D02*
X136654819Y-87904761D01*
X136654819Y-87904761D02*
X136654819Y-87285714D01*
X107883833Y-98959580D02*
X107836214Y-99007200D01*
X107836214Y-99007200D02*
X107693357Y-99054819D01*
X107693357Y-99054819D02*
X107598119Y-99054819D01*
X107598119Y-99054819D02*
X107455262Y-99007200D01*
X107455262Y-99007200D02*
X107360024Y-98911961D01*
X107360024Y-98911961D02*
X107312405Y-98816723D01*
X107312405Y-98816723D02*
X107264786Y-98626247D01*
X107264786Y-98626247D02*
X107264786Y-98483390D01*
X107264786Y-98483390D02*
X107312405Y-98292914D01*
X107312405Y-98292914D02*
X107360024Y-98197676D01*
X107360024Y-98197676D02*
X107455262Y-98102438D01*
X107455262Y-98102438D02*
X107598119Y-98054819D01*
X107598119Y-98054819D02*
X107693357Y-98054819D01*
X107693357Y-98054819D02*
X107836214Y-98102438D01*
X107836214Y-98102438D02*
X107883833Y-98150057D01*
X108217167Y-98054819D02*
X108836214Y-98054819D01*
X108836214Y-98054819D02*
X108502881Y-98435771D01*
X108502881Y-98435771D02*
X108645738Y-98435771D01*
X108645738Y-98435771D02*
X108740976Y-98483390D01*
X108740976Y-98483390D02*
X108788595Y-98531009D01*
X108788595Y-98531009D02*
X108836214Y-98626247D01*
X108836214Y-98626247D02*
X108836214Y-98864342D01*
X108836214Y-98864342D02*
X108788595Y-98959580D01*
X108788595Y-98959580D02*
X108740976Y-99007200D01*
X108740976Y-99007200D02*
X108645738Y-99054819D01*
X108645738Y-99054819D02*
X108360024Y-99054819D01*
X108360024Y-99054819D02*
X108264786Y-99007200D01*
X108264786Y-99007200D02*
X108217167Y-98959580D01*
X145567145Y-115311317D02*
X146377707Y-115311317D01*
X146377707Y-115311317D02*
X146473067Y-115263637D01*
X146473067Y-115263637D02*
X146520748Y-115215957D01*
X146520748Y-115215957D02*
X146568428Y-115120596D01*
X146568428Y-115120596D02*
X146568428Y-114929876D01*
X146568428Y-114929876D02*
X146520748Y-114834515D01*
X146520748Y-114834515D02*
X146473067Y-114786835D01*
X146473067Y-114786835D02*
X146377707Y-114739155D01*
X146377707Y-114739155D02*
X145567145Y-114739155D01*
X146568428Y-114214674D02*
X146568428Y-114023953D01*
X146568428Y-114023953D02*
X146520748Y-113928593D01*
X146520748Y-113928593D02*
X146473067Y-113880913D01*
X146473067Y-113880913D02*
X146330027Y-113785552D01*
X146330027Y-113785552D02*
X146139306Y-113737872D01*
X146139306Y-113737872D02*
X145757865Y-113737872D01*
X145757865Y-113737872D02*
X145662505Y-113785552D01*
X145662505Y-113785552D02*
X145614825Y-113833233D01*
X145614825Y-113833233D02*
X145567145Y-113928593D01*
X145567145Y-113928593D02*
X145567145Y-114119313D01*
X145567145Y-114119313D02*
X145614825Y-114214674D01*
X145614825Y-114214674D02*
X145662505Y-114262354D01*
X145662505Y-114262354D02*
X145757865Y-114310034D01*
X145757865Y-114310034D02*
X145996266Y-114310034D01*
X145996266Y-114310034D02*
X146091626Y-114262354D01*
X146091626Y-114262354D02*
X146139306Y-114214674D01*
X146139306Y-114214674D02*
X146186987Y-114119313D01*
X146186987Y-114119313D02*
X146186987Y-113928593D01*
X146186987Y-113928593D02*
X146139306Y-113833233D01*
X146139306Y-113833233D02*
X146091626Y-113785552D01*
X146091626Y-113785552D02*
X145996266Y-113737872D01*
X125435319Y-120392857D02*
X124959128Y-120726190D01*
X125435319Y-120964285D02*
X124435319Y-120964285D01*
X124435319Y-120964285D02*
X124435319Y-120583333D01*
X124435319Y-120583333D02*
X124482938Y-120488095D01*
X124482938Y-120488095D02*
X124530557Y-120440476D01*
X124530557Y-120440476D02*
X124625795Y-120392857D01*
X124625795Y-120392857D02*
X124768652Y-120392857D01*
X124768652Y-120392857D02*
X124863890Y-120440476D01*
X124863890Y-120440476D02*
X124911509Y-120488095D01*
X124911509Y-120488095D02*
X124959128Y-120583333D01*
X124959128Y-120583333D02*
X124959128Y-120964285D01*
X124530557Y-120011904D02*
X124482938Y-119964285D01*
X124482938Y-119964285D02*
X124435319Y-119869047D01*
X124435319Y-119869047D02*
X124435319Y-119630952D01*
X124435319Y-119630952D02*
X124482938Y-119535714D01*
X124482938Y-119535714D02*
X124530557Y-119488095D01*
X124530557Y-119488095D02*
X124625795Y-119440476D01*
X124625795Y-119440476D02*
X124721033Y-119440476D01*
X124721033Y-119440476D02*
X124863890Y-119488095D01*
X124863890Y-119488095D02*
X125435319Y-120059523D01*
X125435319Y-120059523D02*
X125435319Y-119440476D01*
X124435319Y-118821428D02*
X124435319Y-118726190D01*
X124435319Y-118726190D02*
X124482938Y-118630952D01*
X124482938Y-118630952D02*
X124530557Y-118583333D01*
X124530557Y-118583333D02*
X124625795Y-118535714D01*
X124625795Y-118535714D02*
X124816271Y-118488095D01*
X124816271Y-118488095D02*
X125054366Y-118488095D01*
X125054366Y-118488095D02*
X125244842Y-118535714D01*
X125244842Y-118535714D02*
X125340080Y-118583333D01*
X125340080Y-118583333D02*
X125387700Y-118630952D01*
X125387700Y-118630952D02*
X125435319Y-118726190D01*
X125435319Y-118726190D02*
X125435319Y-118821428D01*
X125435319Y-118821428D02*
X125387700Y-118916666D01*
X125387700Y-118916666D02*
X125340080Y-118964285D01*
X125340080Y-118964285D02*
X125244842Y-119011904D01*
X125244842Y-119011904D02*
X125054366Y-119059523D01*
X125054366Y-119059523D02*
X124816271Y-119059523D01*
X124816271Y-119059523D02*
X124625795Y-119011904D01*
X124625795Y-119011904D02*
X124530557Y-118964285D01*
X124530557Y-118964285D02*
X124482938Y-118916666D01*
X124482938Y-118916666D02*
X124435319Y-118821428D01*
X134899819Y-97583333D02*
X135614104Y-97583333D01*
X135614104Y-97583333D02*
X135756961Y-97630952D01*
X135756961Y-97630952D02*
X135852200Y-97726190D01*
X135852200Y-97726190D02*
X135899819Y-97869047D01*
X135899819Y-97869047D02*
X135899819Y-97964285D01*
X135328390Y-96964285D02*
X135280771Y-97059523D01*
X135280771Y-97059523D02*
X135233152Y-97107142D01*
X135233152Y-97107142D02*
X135137914Y-97154761D01*
X135137914Y-97154761D02*
X135090295Y-97154761D01*
X135090295Y-97154761D02*
X134995057Y-97107142D01*
X134995057Y-97107142D02*
X134947438Y-97059523D01*
X134947438Y-97059523D02*
X134899819Y-96964285D01*
X134899819Y-96964285D02*
X134899819Y-96773809D01*
X134899819Y-96773809D02*
X134947438Y-96678571D01*
X134947438Y-96678571D02*
X134995057Y-96630952D01*
X134995057Y-96630952D02*
X135090295Y-96583333D01*
X135090295Y-96583333D02*
X135137914Y-96583333D01*
X135137914Y-96583333D02*
X135233152Y-96630952D01*
X135233152Y-96630952D02*
X135280771Y-96678571D01*
X135280771Y-96678571D02*
X135328390Y-96773809D01*
X135328390Y-96773809D02*
X135328390Y-96964285D01*
X135328390Y-96964285D02*
X135376009Y-97059523D01*
X135376009Y-97059523D02*
X135423628Y-97107142D01*
X135423628Y-97107142D02*
X135518866Y-97154761D01*
X135518866Y-97154761D02*
X135709342Y-97154761D01*
X135709342Y-97154761D02*
X135804580Y-97107142D01*
X135804580Y-97107142D02*
X135852200Y-97059523D01*
X135852200Y-97059523D02*
X135899819Y-96964285D01*
X135899819Y-96964285D02*
X135899819Y-96773809D01*
X135899819Y-96773809D02*
X135852200Y-96678571D01*
X135852200Y-96678571D02*
X135804580Y-96630952D01*
X135804580Y-96630952D02*
X135709342Y-96583333D01*
X135709342Y-96583333D02*
X135518866Y-96583333D01*
X135518866Y-96583333D02*
X135423628Y-96630952D01*
X135423628Y-96630952D02*
X135376009Y-96678571D01*
X135376009Y-96678571D02*
X135328390Y-96773809D01*
X113883833Y-107384819D02*
X113550500Y-106908628D01*
X113312405Y-107384819D02*
X113312405Y-106384819D01*
X113312405Y-106384819D02*
X113693357Y-106384819D01*
X113693357Y-106384819D02*
X113788595Y-106432438D01*
X113788595Y-106432438D02*
X113836214Y-106480057D01*
X113836214Y-106480057D02*
X113883833Y-106575295D01*
X113883833Y-106575295D02*
X113883833Y-106718152D01*
X113883833Y-106718152D02*
X113836214Y-106813390D01*
X113836214Y-106813390D02*
X113788595Y-106861009D01*
X113788595Y-106861009D02*
X113693357Y-106908628D01*
X113693357Y-106908628D02*
X113312405Y-106908628D01*
X114264786Y-106480057D02*
X114312405Y-106432438D01*
X114312405Y-106432438D02*
X114407643Y-106384819D01*
X114407643Y-106384819D02*
X114645738Y-106384819D01*
X114645738Y-106384819D02*
X114740976Y-106432438D01*
X114740976Y-106432438D02*
X114788595Y-106480057D01*
X114788595Y-106480057D02*
X114836214Y-106575295D01*
X114836214Y-106575295D02*
X114836214Y-106670533D01*
X114836214Y-106670533D02*
X114788595Y-106813390D01*
X114788595Y-106813390D02*
X114217167Y-107384819D01*
X114217167Y-107384819D02*
X114836214Y-107384819D01*
X123662819Y-110666666D02*
X123186628Y-110999999D01*
X123662819Y-111238094D02*
X122662819Y-111238094D01*
X122662819Y-111238094D02*
X122662819Y-110857142D01*
X122662819Y-110857142D02*
X122710438Y-110761904D01*
X122710438Y-110761904D02*
X122758057Y-110714285D01*
X122758057Y-110714285D02*
X122853295Y-110666666D01*
X122853295Y-110666666D02*
X122996152Y-110666666D01*
X122996152Y-110666666D02*
X123091390Y-110714285D01*
X123091390Y-110714285D02*
X123139009Y-110761904D01*
X123139009Y-110761904D02*
X123186628Y-110857142D01*
X123186628Y-110857142D02*
X123186628Y-111238094D01*
X122662819Y-109809523D02*
X122662819Y-109999999D01*
X122662819Y-109999999D02*
X122710438Y-110095237D01*
X122710438Y-110095237D02*
X122758057Y-110142856D01*
X122758057Y-110142856D02*
X122900914Y-110238094D01*
X122900914Y-110238094D02*
X123091390Y-110285713D01*
X123091390Y-110285713D02*
X123472342Y-110285713D01*
X123472342Y-110285713D02*
X123567580Y-110238094D01*
X123567580Y-110238094D02*
X123615200Y-110190475D01*
X123615200Y-110190475D02*
X123662819Y-110095237D01*
X123662819Y-110095237D02*
X123662819Y-109904761D01*
X123662819Y-109904761D02*
X123615200Y-109809523D01*
X123615200Y-109809523D02*
X123567580Y-109761904D01*
X123567580Y-109761904D02*
X123472342Y-109714285D01*
X123472342Y-109714285D02*
X123234247Y-109714285D01*
X123234247Y-109714285D02*
X123139009Y-109761904D01*
X123139009Y-109761904D02*
X123091390Y-109809523D01*
X123091390Y-109809523D02*
X123043771Y-109904761D01*
X123043771Y-109904761D02*
X123043771Y-110095237D01*
X123043771Y-110095237D02*
X123091390Y-110190475D01*
X123091390Y-110190475D02*
X123139009Y-110238094D01*
X123139009Y-110238094D02*
X123234247Y-110285713D01*
X118413595Y-112354819D02*
X118413595Y-113164342D01*
X118413595Y-113164342D02*
X118461214Y-113259580D01*
X118461214Y-113259580D02*
X118508833Y-113307200D01*
X118508833Y-113307200D02*
X118604071Y-113354819D01*
X118604071Y-113354819D02*
X118794547Y-113354819D01*
X118794547Y-113354819D02*
X118889785Y-113307200D01*
X118889785Y-113307200D02*
X118937404Y-113259580D01*
X118937404Y-113259580D02*
X118985023Y-113164342D01*
X118985023Y-113164342D02*
X118985023Y-112354819D01*
X119604071Y-112783390D02*
X119508833Y-112735771D01*
X119508833Y-112735771D02*
X119461214Y-112688152D01*
X119461214Y-112688152D02*
X119413595Y-112592914D01*
X119413595Y-112592914D02*
X119413595Y-112545295D01*
X119413595Y-112545295D02*
X119461214Y-112450057D01*
X119461214Y-112450057D02*
X119508833Y-112402438D01*
X119508833Y-112402438D02*
X119604071Y-112354819D01*
X119604071Y-112354819D02*
X119794547Y-112354819D01*
X119794547Y-112354819D02*
X119889785Y-112402438D01*
X119889785Y-112402438D02*
X119937404Y-112450057D01*
X119937404Y-112450057D02*
X119985023Y-112545295D01*
X119985023Y-112545295D02*
X119985023Y-112592914D01*
X119985023Y-112592914D02*
X119937404Y-112688152D01*
X119937404Y-112688152D02*
X119889785Y-112735771D01*
X119889785Y-112735771D02*
X119794547Y-112783390D01*
X119794547Y-112783390D02*
X119604071Y-112783390D01*
X119604071Y-112783390D02*
X119508833Y-112831009D01*
X119508833Y-112831009D02*
X119461214Y-112878628D01*
X119461214Y-112878628D02*
X119413595Y-112973866D01*
X119413595Y-112973866D02*
X119413595Y-113164342D01*
X119413595Y-113164342D02*
X119461214Y-113259580D01*
X119461214Y-113259580D02*
X119508833Y-113307200D01*
X119508833Y-113307200D02*
X119604071Y-113354819D01*
X119604071Y-113354819D02*
X119794547Y-113354819D01*
X119794547Y-113354819D02*
X119889785Y-113307200D01*
X119889785Y-113307200D02*
X119937404Y-113259580D01*
X119937404Y-113259580D02*
X119985023Y-113164342D01*
X119985023Y-113164342D02*
X119985023Y-112973866D01*
X119985023Y-112973866D02*
X119937404Y-112878628D01*
X119937404Y-112878628D02*
X119889785Y-112831009D01*
X119889785Y-112831009D02*
X119794547Y-112783390D01*
X150355319Y-77583333D02*
X151069604Y-77583333D01*
X151069604Y-77583333D02*
X151212461Y-77630952D01*
X151212461Y-77630952D02*
X151307700Y-77726190D01*
X151307700Y-77726190D02*
X151355319Y-77869047D01*
X151355319Y-77869047D02*
X151355319Y-77964285D01*
X150355319Y-76630952D02*
X150355319Y-77107142D01*
X150355319Y-77107142D02*
X150831509Y-77154761D01*
X150831509Y-77154761D02*
X150783890Y-77107142D01*
X150783890Y-77107142D02*
X150736271Y-77011904D01*
X150736271Y-77011904D02*
X150736271Y-76773809D01*
X150736271Y-76773809D02*
X150783890Y-76678571D01*
X150783890Y-76678571D02*
X150831509Y-76630952D01*
X150831509Y-76630952D02*
X150926747Y-76583333D01*
X150926747Y-76583333D02*
X151164842Y-76583333D01*
X151164842Y-76583333D02*
X151260080Y-76630952D01*
X151260080Y-76630952D02*
X151307700Y-76678571D01*
X151307700Y-76678571D02*
X151355319Y-76773809D01*
X151355319Y-76773809D02*
X151355319Y-77011904D01*
X151355319Y-77011904D02*
X151307700Y-77107142D01*
X151307700Y-77107142D02*
X151260080Y-77154761D01*
X99367481Y-92414120D02*
X98367142Y-92414120D01*
X98367142Y-92414120D02*
X98367142Y-92033038D01*
X98367142Y-92033038D02*
X98414777Y-91937768D01*
X98414777Y-91937768D02*
X98462412Y-91890132D01*
X98462412Y-91890132D02*
X98557682Y-91842497D01*
X98557682Y-91842497D02*
X98700588Y-91842497D01*
X98700588Y-91842497D02*
X98795858Y-91890132D01*
X98795858Y-91890132D02*
X98843494Y-91937768D01*
X98843494Y-91937768D02*
X98891129Y-92033038D01*
X98891129Y-92033038D02*
X98891129Y-92414120D01*
X98367142Y-91509051D02*
X98367142Y-90889793D01*
X98367142Y-90889793D02*
X98748223Y-91223240D01*
X98748223Y-91223240D02*
X98748223Y-91080334D01*
X98748223Y-91080334D02*
X98795858Y-90985064D01*
X98795858Y-90985064D02*
X98843494Y-90937429D01*
X98843494Y-90937429D02*
X98938764Y-90889793D01*
X98938764Y-90889793D02*
X99176940Y-90889793D01*
X99176940Y-90889793D02*
X99272210Y-90937429D01*
X99272210Y-90937429D02*
X99319846Y-90985064D01*
X99319846Y-90985064D02*
X99367481Y-91080334D01*
X99367481Y-91080334D02*
X99367481Y-91366145D01*
X99367481Y-91366145D02*
X99319846Y-91461416D01*
X99319846Y-91461416D02*
X99272210Y-91509051D01*
X146597166Y-82754819D02*
X146597166Y-83469104D01*
X146597166Y-83469104D02*
X146549547Y-83611961D01*
X146549547Y-83611961D02*
X146454309Y-83707200D01*
X146454309Y-83707200D02*
X146311452Y-83754819D01*
X146311452Y-83754819D02*
X146216214Y-83754819D01*
X146978119Y-82754819D02*
X147597166Y-82754819D01*
X147597166Y-82754819D02*
X147263833Y-83135771D01*
X147263833Y-83135771D02*
X147406690Y-83135771D01*
X147406690Y-83135771D02*
X147501928Y-83183390D01*
X147501928Y-83183390D02*
X147549547Y-83231009D01*
X147549547Y-83231009D02*
X147597166Y-83326247D01*
X147597166Y-83326247D02*
X147597166Y-83564342D01*
X147597166Y-83564342D02*
X147549547Y-83659580D01*
X147549547Y-83659580D02*
X147501928Y-83707200D01*
X147501928Y-83707200D02*
X147406690Y-83754819D01*
X147406690Y-83754819D02*
X147120976Y-83754819D01*
X147120976Y-83754819D02*
X147025738Y-83707200D01*
X147025738Y-83707200D02*
X146978119Y-83659580D01*
X137529319Y-96488094D02*
X136529319Y-96488094D01*
X136529319Y-96488094D02*
X136529319Y-96249999D01*
X136529319Y-96249999D02*
X136576938Y-96107142D01*
X136576938Y-96107142D02*
X136672176Y-96011904D01*
X136672176Y-96011904D02*
X136767414Y-95964285D01*
X136767414Y-95964285D02*
X136957890Y-95916666D01*
X136957890Y-95916666D02*
X137100747Y-95916666D01*
X137100747Y-95916666D02*
X137291223Y-95964285D01*
X137291223Y-95964285D02*
X137386461Y-96011904D01*
X137386461Y-96011904D02*
X137481700Y-96107142D01*
X137481700Y-96107142D02*
X137529319Y-96249999D01*
X137529319Y-96249999D02*
X137529319Y-96488094D01*
X136624557Y-95535713D02*
X136576938Y-95488094D01*
X136576938Y-95488094D02*
X136529319Y-95392856D01*
X136529319Y-95392856D02*
X136529319Y-95154761D01*
X136529319Y-95154761D02*
X136576938Y-95059523D01*
X136576938Y-95059523D02*
X136624557Y-95011904D01*
X136624557Y-95011904D02*
X136719795Y-94964285D01*
X136719795Y-94964285D02*
X136815033Y-94964285D01*
X136815033Y-94964285D02*
X136957890Y-95011904D01*
X136957890Y-95011904D02*
X137529319Y-95583332D01*
X137529319Y-95583332D02*
X137529319Y-94964285D01*
X124955261Y-112900057D02*
X124860023Y-112852438D01*
X124860023Y-112852438D02*
X124764785Y-112757200D01*
X124764785Y-112757200D02*
X124621928Y-112614342D01*
X124621928Y-112614342D02*
X124526690Y-112566723D01*
X124526690Y-112566723D02*
X124431452Y-112566723D01*
X124479071Y-112804819D02*
X124383833Y-112757200D01*
X124383833Y-112757200D02*
X124288595Y-112661961D01*
X124288595Y-112661961D02*
X124240976Y-112471485D01*
X124240976Y-112471485D02*
X124240976Y-112138152D01*
X124240976Y-112138152D02*
X124288595Y-111947676D01*
X124288595Y-111947676D02*
X124383833Y-111852438D01*
X124383833Y-111852438D02*
X124479071Y-111804819D01*
X124479071Y-111804819D02*
X124669547Y-111804819D01*
X124669547Y-111804819D02*
X124764785Y-111852438D01*
X124764785Y-111852438D02*
X124860023Y-111947676D01*
X124860023Y-111947676D02*
X124907642Y-112138152D01*
X124907642Y-112138152D02*
X124907642Y-112471485D01*
X124907642Y-112471485D02*
X124860023Y-112661961D01*
X124860023Y-112661961D02*
X124764785Y-112757200D01*
X124764785Y-112757200D02*
X124669547Y-112804819D01*
X124669547Y-112804819D02*
X124479071Y-112804819D01*
X125288595Y-111900057D02*
X125336214Y-111852438D01*
X125336214Y-111852438D02*
X125431452Y-111804819D01*
X125431452Y-111804819D02*
X125669547Y-111804819D01*
X125669547Y-111804819D02*
X125764785Y-111852438D01*
X125764785Y-111852438D02*
X125812404Y-111900057D01*
X125812404Y-111900057D02*
X125860023Y-111995295D01*
X125860023Y-111995295D02*
X125860023Y-112090533D01*
X125860023Y-112090533D02*
X125812404Y-112233390D01*
X125812404Y-112233390D02*
X125240976Y-112804819D01*
X125240976Y-112804819D02*
X125860023Y-112804819D01*
X99367481Y-118164120D02*
X98367142Y-118164120D01*
X98367142Y-118164120D02*
X98367142Y-117783038D01*
X98367142Y-117783038D02*
X98414777Y-117687768D01*
X98414777Y-117687768D02*
X98462412Y-117640132D01*
X98462412Y-117640132D02*
X98557682Y-117592497D01*
X98557682Y-117592497D02*
X98700588Y-117592497D01*
X98700588Y-117592497D02*
X98795858Y-117640132D01*
X98795858Y-117640132D02*
X98843494Y-117687768D01*
X98843494Y-117687768D02*
X98891129Y-117783038D01*
X98891129Y-117783038D02*
X98891129Y-118164120D01*
X99367481Y-116639793D02*
X99367481Y-117211416D01*
X99367481Y-116925605D02*
X98367142Y-116925605D01*
X98367142Y-116925605D02*
X98510047Y-117020875D01*
X98510047Y-117020875D02*
X98605318Y-117116145D01*
X98605318Y-117116145D02*
X98652953Y-117211416D01*
X144075319Y-122892857D02*
X143599128Y-123226190D01*
X144075319Y-123464285D02*
X143075319Y-123464285D01*
X143075319Y-123464285D02*
X143075319Y-123083333D01*
X143075319Y-123083333D02*
X143122938Y-122988095D01*
X143122938Y-122988095D02*
X143170557Y-122940476D01*
X143170557Y-122940476D02*
X143265795Y-122892857D01*
X143265795Y-122892857D02*
X143408652Y-122892857D01*
X143408652Y-122892857D02*
X143503890Y-122940476D01*
X143503890Y-122940476D02*
X143551509Y-122988095D01*
X143551509Y-122988095D02*
X143599128Y-123083333D01*
X143599128Y-123083333D02*
X143599128Y-123464285D01*
X144075319Y-121940476D02*
X144075319Y-122511904D01*
X144075319Y-122226190D02*
X143075319Y-122226190D01*
X143075319Y-122226190D02*
X143218176Y-122321428D01*
X143218176Y-122321428D02*
X143313414Y-122416666D01*
X143313414Y-122416666D02*
X143361033Y-122511904D01*
X143075319Y-121607142D02*
X143075319Y-120988095D01*
X143075319Y-120988095D02*
X143456271Y-121321428D01*
X143456271Y-121321428D02*
X143456271Y-121178571D01*
X143456271Y-121178571D02*
X143503890Y-121083333D01*
X143503890Y-121083333D02*
X143551509Y-121035714D01*
X143551509Y-121035714D02*
X143646747Y-120988095D01*
X143646747Y-120988095D02*
X143884842Y-120988095D01*
X143884842Y-120988095D02*
X143980080Y-121035714D01*
X143980080Y-121035714D02*
X144027700Y-121083333D01*
X144027700Y-121083333D02*
X144075319Y-121178571D01*
X144075319Y-121178571D02*
X144075319Y-121464285D01*
X144075319Y-121464285D02*
X144027700Y-121559523D01*
X144027700Y-121559523D02*
X143980080Y-121607142D01*
X146575319Y-120642857D02*
X146099128Y-120976190D01*
X146575319Y-121214285D02*
X145575319Y-121214285D01*
X145575319Y-121214285D02*
X145575319Y-120833333D01*
X145575319Y-120833333D02*
X145622938Y-120738095D01*
X145622938Y-120738095D02*
X145670557Y-120690476D01*
X145670557Y-120690476D02*
X145765795Y-120642857D01*
X145765795Y-120642857D02*
X145908652Y-120642857D01*
X145908652Y-120642857D02*
X146003890Y-120690476D01*
X146003890Y-120690476D02*
X146051509Y-120738095D01*
X146051509Y-120738095D02*
X146099128Y-120833333D01*
X146099128Y-120833333D02*
X146099128Y-121214285D01*
X146575319Y-119690476D02*
X146575319Y-120261904D01*
X146575319Y-119976190D02*
X145575319Y-119976190D01*
X145575319Y-119976190D02*
X145718176Y-120071428D01*
X145718176Y-120071428D02*
X145813414Y-120166666D01*
X145813414Y-120166666D02*
X145861033Y-120261904D01*
X145575319Y-118833333D02*
X145575319Y-119023809D01*
X145575319Y-119023809D02*
X145622938Y-119119047D01*
X145622938Y-119119047D02*
X145670557Y-119166666D01*
X145670557Y-119166666D02*
X145813414Y-119261904D01*
X145813414Y-119261904D02*
X146003890Y-119309523D01*
X146003890Y-119309523D02*
X146384842Y-119309523D01*
X146384842Y-119309523D02*
X146480080Y-119261904D01*
X146480080Y-119261904D02*
X146527700Y-119214285D01*
X146527700Y-119214285D02*
X146575319Y-119119047D01*
X146575319Y-119119047D02*
X146575319Y-118928571D01*
X146575319Y-118928571D02*
X146527700Y-118833333D01*
X146527700Y-118833333D02*
X146480080Y-118785714D01*
X146480080Y-118785714D02*
X146384842Y-118738095D01*
X146384842Y-118738095D02*
X146146747Y-118738095D01*
X146146747Y-118738095D02*
X146051509Y-118785714D01*
X146051509Y-118785714D02*
X146003890Y-118833333D01*
X146003890Y-118833333D02*
X145956271Y-118928571D01*
X145956271Y-118928571D02*
X145956271Y-119119047D01*
X145956271Y-119119047D02*
X146003890Y-119214285D01*
X146003890Y-119214285D02*
X146051509Y-119261904D01*
X146051509Y-119261904D02*
X146146747Y-119309523D01*
X112483833Y-113384819D02*
X112150500Y-112908628D01*
X111912405Y-113384819D02*
X111912405Y-112384819D01*
X111912405Y-112384819D02*
X112293357Y-112384819D01*
X112293357Y-112384819D02*
X112388595Y-112432438D01*
X112388595Y-112432438D02*
X112436214Y-112480057D01*
X112436214Y-112480057D02*
X112483833Y-112575295D01*
X112483833Y-112575295D02*
X112483833Y-112718152D01*
X112483833Y-112718152D02*
X112436214Y-112813390D01*
X112436214Y-112813390D02*
X112388595Y-112861009D01*
X112388595Y-112861009D02*
X112293357Y-112908628D01*
X112293357Y-112908628D02*
X111912405Y-112908628D01*
X113388595Y-112384819D02*
X112912405Y-112384819D01*
X112912405Y-112384819D02*
X112864786Y-112861009D01*
X112864786Y-112861009D02*
X112912405Y-112813390D01*
X112912405Y-112813390D02*
X113007643Y-112765771D01*
X113007643Y-112765771D02*
X113245738Y-112765771D01*
X113245738Y-112765771D02*
X113340976Y-112813390D01*
X113340976Y-112813390D02*
X113388595Y-112861009D01*
X113388595Y-112861009D02*
X113436214Y-112956247D01*
X113436214Y-112956247D02*
X113436214Y-113194342D01*
X113436214Y-113194342D02*
X113388595Y-113289580D01*
X113388595Y-113289580D02*
X113340976Y-113337200D01*
X113340976Y-113337200D02*
X113245738Y-113384819D01*
X113245738Y-113384819D02*
X113007643Y-113384819D01*
X113007643Y-113384819D02*
X112912405Y-113337200D01*
X112912405Y-113337200D02*
X112864786Y-113289580D01*
X147185319Y-120567857D02*
X146709128Y-120901190D01*
X147185319Y-121139285D02*
X146185319Y-121139285D01*
X146185319Y-121139285D02*
X146185319Y-120758333D01*
X146185319Y-120758333D02*
X146232938Y-120663095D01*
X146232938Y-120663095D02*
X146280557Y-120615476D01*
X146280557Y-120615476D02*
X146375795Y-120567857D01*
X146375795Y-120567857D02*
X146518652Y-120567857D01*
X146518652Y-120567857D02*
X146613890Y-120615476D01*
X146613890Y-120615476D02*
X146661509Y-120663095D01*
X146661509Y-120663095D02*
X146709128Y-120758333D01*
X146709128Y-120758333D02*
X146709128Y-121139285D01*
X147185319Y-119615476D02*
X147185319Y-120186904D01*
X147185319Y-119901190D02*
X146185319Y-119901190D01*
X146185319Y-119901190D02*
X146328176Y-119996428D01*
X146328176Y-119996428D02*
X146423414Y-120091666D01*
X146423414Y-120091666D02*
X146471033Y-120186904D01*
X146185319Y-119282142D02*
X146185319Y-118615476D01*
X146185319Y-118615476D02*
X147185319Y-119044047D01*
X135405319Y-114511904D02*
X136214842Y-114511904D01*
X136214842Y-114511904D02*
X136310080Y-114464285D01*
X136310080Y-114464285D02*
X136357700Y-114416666D01*
X136357700Y-114416666D02*
X136405319Y-114321428D01*
X136405319Y-114321428D02*
X136405319Y-114130952D01*
X136405319Y-114130952D02*
X136357700Y-114035714D01*
X136357700Y-114035714D02*
X136310080Y-113988095D01*
X136310080Y-113988095D02*
X136214842Y-113940476D01*
X136214842Y-113940476D02*
X135405319Y-113940476D01*
X135405319Y-113559523D02*
X135405319Y-112892857D01*
X135405319Y-112892857D02*
X136405319Y-113321428D01*
X144075319Y-117892857D02*
X143599128Y-118226190D01*
X144075319Y-118464285D02*
X143075319Y-118464285D01*
X143075319Y-118464285D02*
X143075319Y-118083333D01*
X143075319Y-118083333D02*
X143122938Y-117988095D01*
X143122938Y-117988095D02*
X143170557Y-117940476D01*
X143170557Y-117940476D02*
X143265795Y-117892857D01*
X143265795Y-117892857D02*
X143408652Y-117892857D01*
X143408652Y-117892857D02*
X143503890Y-117940476D01*
X143503890Y-117940476D02*
X143551509Y-117988095D01*
X143551509Y-117988095D02*
X143599128Y-118083333D01*
X143599128Y-118083333D02*
X143599128Y-118464285D01*
X144075319Y-116940476D02*
X144075319Y-117511904D01*
X144075319Y-117226190D02*
X143075319Y-117226190D01*
X143075319Y-117226190D02*
X143218176Y-117321428D01*
X143218176Y-117321428D02*
X143313414Y-117416666D01*
X143313414Y-117416666D02*
X143361033Y-117511904D01*
X143170557Y-116559523D02*
X143122938Y-116511904D01*
X143122938Y-116511904D02*
X143075319Y-116416666D01*
X143075319Y-116416666D02*
X143075319Y-116178571D01*
X143075319Y-116178571D02*
X143122938Y-116083333D01*
X143122938Y-116083333D02*
X143170557Y-116035714D01*
X143170557Y-116035714D02*
X143265795Y-115988095D01*
X143265795Y-115988095D02*
X143361033Y-115988095D01*
X143361033Y-115988095D02*
X143503890Y-116035714D01*
X143503890Y-116035714D02*
X144075319Y-116607142D01*
X144075319Y-116607142D02*
X144075319Y-115988095D01*
X132077194Y-110773779D02*
X132886717Y-110773779D01*
X132886717Y-110773779D02*
X132981955Y-110726160D01*
X132981955Y-110726160D02*
X133029575Y-110678541D01*
X133029575Y-110678541D02*
X133077194Y-110583303D01*
X133077194Y-110583303D02*
X133077194Y-110392827D01*
X133077194Y-110392827D02*
X133029575Y-110297589D01*
X133029575Y-110297589D02*
X132981955Y-110249970D01*
X132981955Y-110249970D02*
X132886717Y-110202351D01*
X132886717Y-110202351D02*
X132077194Y-110202351D01*
X133077194Y-109202351D02*
X133077194Y-109773779D01*
X133077194Y-109488065D02*
X132077194Y-109488065D01*
X132077194Y-109488065D02*
X132220051Y-109583303D01*
X132220051Y-109583303D02*
X132315289Y-109678541D01*
X132315289Y-109678541D02*
X132362908Y-109773779D01*
X149755319Y-111761904D02*
X150564842Y-111761904D01*
X150564842Y-111761904D02*
X150660080Y-111714285D01*
X150660080Y-111714285D02*
X150707700Y-111666666D01*
X150707700Y-111666666D02*
X150755319Y-111571428D01*
X150755319Y-111571428D02*
X150755319Y-111380952D01*
X150755319Y-111380952D02*
X150707700Y-111285714D01*
X150707700Y-111285714D02*
X150660080Y-111238095D01*
X150660080Y-111238095D02*
X150564842Y-111190476D01*
X150564842Y-111190476D02*
X149755319Y-111190476D01*
X149755319Y-110238095D02*
X149755319Y-110714285D01*
X149755319Y-110714285D02*
X150231509Y-110761904D01*
X150231509Y-110761904D02*
X150183890Y-110714285D01*
X150183890Y-110714285D02*
X150136271Y-110619047D01*
X150136271Y-110619047D02*
X150136271Y-110380952D01*
X150136271Y-110380952D02*
X150183890Y-110285714D01*
X150183890Y-110285714D02*
X150231509Y-110238095D01*
X150231509Y-110238095D02*
X150326747Y-110190476D01*
X150326747Y-110190476D02*
X150564842Y-110190476D01*
X150564842Y-110190476D02*
X150660080Y-110238095D01*
X150660080Y-110238095D02*
X150707700Y-110285714D01*
X150707700Y-110285714D02*
X150755319Y-110380952D01*
X150755319Y-110380952D02*
X150755319Y-110619047D01*
X150755319Y-110619047D02*
X150707700Y-110714285D01*
X150707700Y-110714285D02*
X150660080Y-110761904D01*
X115633833Y-113384819D02*
X115300500Y-112908628D01*
X115062405Y-113384819D02*
X115062405Y-112384819D01*
X115062405Y-112384819D02*
X115443357Y-112384819D01*
X115443357Y-112384819D02*
X115538595Y-112432438D01*
X115538595Y-112432438D02*
X115586214Y-112480057D01*
X115586214Y-112480057D02*
X115633833Y-112575295D01*
X115633833Y-112575295D02*
X115633833Y-112718152D01*
X115633833Y-112718152D02*
X115586214Y-112813390D01*
X115586214Y-112813390D02*
X115538595Y-112861009D01*
X115538595Y-112861009D02*
X115443357Y-112908628D01*
X115443357Y-112908628D02*
X115062405Y-112908628D01*
X116490976Y-112718152D02*
X116490976Y-113384819D01*
X116252881Y-112337200D02*
X116014786Y-113051485D01*
X116014786Y-113051485D02*
X116633833Y-113051485D01*
X118680319Y-100297811D02*
X119489842Y-100297811D01*
X119489842Y-100297811D02*
X119585080Y-100250192D01*
X119585080Y-100250192D02*
X119632700Y-100202573D01*
X119632700Y-100202573D02*
X119680319Y-100107335D01*
X119680319Y-100107335D02*
X119680319Y-99916859D01*
X119680319Y-99916859D02*
X119632700Y-99821621D01*
X119632700Y-99821621D02*
X119585080Y-99774002D01*
X119585080Y-99774002D02*
X119489842Y-99726383D01*
X119489842Y-99726383D02*
X118680319Y-99726383D01*
X119013652Y-98821621D02*
X119680319Y-98821621D01*
X118632700Y-99059716D02*
X119346985Y-99297811D01*
X119346985Y-99297811D02*
X119346985Y-98678764D01*
X118166666Y-115739819D02*
X118166666Y-116454104D01*
X118166666Y-116454104D02*
X118119047Y-116596961D01*
X118119047Y-116596961D02*
X118023809Y-116692200D01*
X118023809Y-116692200D02*
X117880952Y-116739819D01*
X117880952Y-116739819D02*
X117785714Y-116739819D01*
X118547619Y-115739819D02*
X119214285Y-115739819D01*
X119214285Y-115739819D02*
X118785714Y-116739819D01*
X113813418Y-119059426D02*
X113431825Y-119326541D01*
X113813418Y-119517338D02*
X113012072Y-119517338D01*
X113012072Y-119517338D02*
X113012072Y-119212063D01*
X113012072Y-119212063D02*
X113050231Y-119135745D01*
X113050231Y-119135745D02*
X113088391Y-119097585D01*
X113088391Y-119097585D02*
X113164709Y-119059426D01*
X113164709Y-119059426D02*
X113279187Y-119059426D01*
X113279187Y-119059426D02*
X113355506Y-119097585D01*
X113355506Y-119097585D02*
X113393665Y-119135745D01*
X113393665Y-119135745D02*
X113431825Y-119212063D01*
X113431825Y-119212063D02*
X113431825Y-119517338D01*
X113088391Y-118754151D02*
X113050231Y-118715992D01*
X113050231Y-118715992D02*
X113012072Y-118639673D01*
X113012072Y-118639673D02*
X113012072Y-118448877D01*
X113012072Y-118448877D02*
X113050231Y-118372558D01*
X113050231Y-118372558D02*
X113088391Y-118334399D01*
X113088391Y-118334399D02*
X113164709Y-118296239D01*
X113164709Y-118296239D02*
X113241028Y-118296239D01*
X113241028Y-118296239D02*
X113355506Y-118334399D01*
X113355506Y-118334399D02*
X113813418Y-118792311D01*
X113813418Y-118792311D02*
X113813418Y-118296239D01*
X113279187Y-117609371D02*
X113813418Y-117609371D01*
X112973913Y-117800168D02*
X113546303Y-117990964D01*
X113546303Y-117990964D02*
X113546303Y-117494893D01*
X120638095Y-129824819D02*
X120638095Y-130634342D01*
X120638095Y-130634342D02*
X120685714Y-130729580D01*
X120685714Y-130729580D02*
X120733333Y-130777200D01*
X120733333Y-130777200D02*
X120828571Y-130824819D01*
X120828571Y-130824819D02*
X121019047Y-130824819D01*
X121019047Y-130824819D02*
X121114285Y-130777200D01*
X121114285Y-130777200D02*
X121161904Y-130729580D01*
X121161904Y-130729580D02*
X121209523Y-130634342D01*
X121209523Y-130634342D02*
X121209523Y-129824819D01*
X121590476Y-129824819D02*
X122209523Y-129824819D01*
X122209523Y-129824819D02*
X121876190Y-130205771D01*
X121876190Y-130205771D02*
X122019047Y-130205771D01*
X122019047Y-130205771D02*
X122114285Y-130253390D01*
X122114285Y-130253390D02*
X122161904Y-130301009D01*
X122161904Y-130301009D02*
X122209523Y-130396247D01*
X122209523Y-130396247D02*
X122209523Y-130634342D01*
X122209523Y-130634342D02*
X122161904Y-130729580D01*
X122161904Y-130729580D02*
X122114285Y-130777200D01*
X122114285Y-130777200D02*
X122019047Y-130824819D01*
X122019047Y-130824819D02*
X121733333Y-130824819D01*
X121733333Y-130824819D02*
X121638095Y-130777200D01*
X121638095Y-130777200D02*
X121590476Y-130729580D01*
X146760080Y-107641666D02*
X146807700Y-107689285D01*
X146807700Y-107689285D02*
X146855319Y-107832142D01*
X146855319Y-107832142D02*
X146855319Y-107927380D01*
X146855319Y-107927380D02*
X146807700Y-108070237D01*
X146807700Y-108070237D02*
X146712461Y-108165475D01*
X146712461Y-108165475D02*
X146617223Y-108213094D01*
X146617223Y-108213094D02*
X146426747Y-108260713D01*
X146426747Y-108260713D02*
X146283890Y-108260713D01*
X146283890Y-108260713D02*
X146093414Y-108213094D01*
X146093414Y-108213094D02*
X145998176Y-108165475D01*
X145998176Y-108165475D02*
X145902938Y-108070237D01*
X145902938Y-108070237D02*
X145855319Y-107927380D01*
X145855319Y-107927380D02*
X145855319Y-107832142D01*
X145855319Y-107832142D02*
X145902938Y-107689285D01*
X145902938Y-107689285D02*
X145950557Y-107641666D01*
X145855319Y-106736904D02*
X145855319Y-107213094D01*
X145855319Y-107213094D02*
X146331509Y-107260713D01*
X146331509Y-107260713D02*
X146283890Y-107213094D01*
X146283890Y-107213094D02*
X146236271Y-107117856D01*
X146236271Y-107117856D02*
X146236271Y-106879761D01*
X146236271Y-106879761D02*
X146283890Y-106784523D01*
X146283890Y-106784523D02*
X146331509Y-106736904D01*
X146331509Y-106736904D02*
X146426747Y-106689285D01*
X146426747Y-106689285D02*
X146664842Y-106689285D01*
X146664842Y-106689285D02*
X146760080Y-106736904D01*
X146760080Y-106736904D02*
X146807700Y-106784523D01*
X146807700Y-106784523D02*
X146855319Y-106879761D01*
X146855319Y-106879761D02*
X146855319Y-107117856D01*
X146855319Y-107117856D02*
X146807700Y-107213094D01*
X146807700Y-107213094D02*
X146760080Y-107260713D01*
X150545680Y-103801905D02*
X149736157Y-103801905D01*
X149736157Y-103801905D02*
X149640919Y-103849524D01*
X149640919Y-103849524D02*
X149593300Y-103897143D01*
X149593300Y-103897143D02*
X149545680Y-103992381D01*
X149545680Y-103992381D02*
X149545680Y-104182857D01*
X149545680Y-104182857D02*
X149593300Y-104278095D01*
X149593300Y-104278095D02*
X149640919Y-104325714D01*
X149640919Y-104325714D02*
X149736157Y-104373333D01*
X149736157Y-104373333D02*
X150545680Y-104373333D01*
X149545680Y-105373333D02*
X149545680Y-104801905D01*
X149545680Y-105087619D02*
X150545680Y-105087619D01*
X150545680Y-105087619D02*
X150402823Y-104992381D01*
X150402823Y-104992381D02*
X150307585Y-104897143D01*
X150307585Y-104897143D02*
X150259966Y-104801905D01*
X150450442Y-105754286D02*
X150498061Y-105801905D01*
X150498061Y-105801905D02*
X150545680Y-105897143D01*
X150545680Y-105897143D02*
X150545680Y-106135238D01*
X150545680Y-106135238D02*
X150498061Y-106230476D01*
X150498061Y-106230476D02*
X150450442Y-106278095D01*
X150450442Y-106278095D02*
X150355204Y-106325714D01*
X150355204Y-106325714D02*
X150259966Y-106325714D01*
X150259966Y-106325714D02*
X150117109Y-106278095D01*
X150117109Y-106278095D02*
X149545680Y-105706667D01*
X149545680Y-105706667D02*
X149545680Y-106325714D01*
X116807700Y-96583332D02*
X116855319Y-96440475D01*
X116855319Y-96440475D02*
X116855319Y-96202380D01*
X116855319Y-96202380D02*
X116807700Y-96107142D01*
X116807700Y-96107142D02*
X116760080Y-96059523D01*
X116760080Y-96059523D02*
X116664842Y-96011904D01*
X116664842Y-96011904D02*
X116569604Y-96011904D01*
X116569604Y-96011904D02*
X116474366Y-96059523D01*
X116474366Y-96059523D02*
X116426747Y-96107142D01*
X116426747Y-96107142D02*
X116379128Y-96202380D01*
X116379128Y-96202380D02*
X116331509Y-96392856D01*
X116331509Y-96392856D02*
X116283890Y-96488094D01*
X116283890Y-96488094D02*
X116236271Y-96535713D01*
X116236271Y-96535713D02*
X116141033Y-96583332D01*
X116141033Y-96583332D02*
X116045795Y-96583332D01*
X116045795Y-96583332D02*
X115950557Y-96535713D01*
X115950557Y-96535713D02*
X115902938Y-96488094D01*
X115902938Y-96488094D02*
X115855319Y-96392856D01*
X115855319Y-96392856D02*
X115855319Y-96154761D01*
X115855319Y-96154761D02*
X115902938Y-96011904D01*
X115855319Y-95678570D02*
X116855319Y-95440475D01*
X116855319Y-95440475D02*
X116141033Y-95249999D01*
X116141033Y-95249999D02*
X116855319Y-95059523D01*
X116855319Y-95059523D02*
X115855319Y-94821428D01*
X115950557Y-94488094D02*
X115902938Y-94440475D01*
X115902938Y-94440475D02*
X115855319Y-94345237D01*
X115855319Y-94345237D02*
X115855319Y-94107142D01*
X115855319Y-94107142D02*
X115902938Y-94011904D01*
X115902938Y-94011904D02*
X115950557Y-93964285D01*
X115950557Y-93964285D02*
X116045795Y-93916666D01*
X116045795Y-93916666D02*
X116141033Y-93916666D01*
X116141033Y-93916666D02*
X116283890Y-93964285D01*
X116283890Y-93964285D02*
X116855319Y-94535713D01*
X116855319Y-94535713D02*
X116855319Y-93916666D01*
X106607142Y-86774819D02*
X106273809Y-86298628D01*
X106035714Y-86774819D02*
X106035714Y-85774819D01*
X106035714Y-85774819D02*
X106416666Y-85774819D01*
X106416666Y-85774819D02*
X106511904Y-85822438D01*
X106511904Y-85822438D02*
X106559523Y-85870057D01*
X106559523Y-85870057D02*
X106607142Y-85965295D01*
X106607142Y-85965295D02*
X106607142Y-86108152D01*
X106607142Y-86108152D02*
X106559523Y-86203390D01*
X106559523Y-86203390D02*
X106511904Y-86251009D01*
X106511904Y-86251009D02*
X106416666Y-86298628D01*
X106416666Y-86298628D02*
X106035714Y-86298628D01*
X106988095Y-85870057D02*
X107035714Y-85822438D01*
X107035714Y-85822438D02*
X107130952Y-85774819D01*
X107130952Y-85774819D02*
X107369047Y-85774819D01*
X107369047Y-85774819D02*
X107464285Y-85822438D01*
X107464285Y-85822438D02*
X107511904Y-85870057D01*
X107511904Y-85870057D02*
X107559523Y-85965295D01*
X107559523Y-85965295D02*
X107559523Y-86060533D01*
X107559523Y-86060533D02*
X107511904Y-86203390D01*
X107511904Y-86203390D02*
X106940476Y-86774819D01*
X106940476Y-86774819D02*
X107559523Y-86774819D01*
X108416666Y-85774819D02*
X108226190Y-85774819D01*
X108226190Y-85774819D02*
X108130952Y-85822438D01*
X108130952Y-85822438D02*
X108083333Y-85870057D01*
X108083333Y-85870057D02*
X107988095Y-86012914D01*
X107988095Y-86012914D02*
X107940476Y-86203390D01*
X107940476Y-86203390D02*
X107940476Y-86584342D01*
X107940476Y-86584342D02*
X107988095Y-86679580D01*
X107988095Y-86679580D02*
X108035714Y-86727200D01*
X108035714Y-86727200D02*
X108130952Y-86774819D01*
X108130952Y-86774819D02*
X108321428Y-86774819D01*
X108321428Y-86774819D02*
X108416666Y-86727200D01*
X108416666Y-86727200D02*
X108464285Y-86679580D01*
X108464285Y-86679580D02*
X108511904Y-86584342D01*
X108511904Y-86584342D02*
X108511904Y-86346247D01*
X108511904Y-86346247D02*
X108464285Y-86251009D01*
X108464285Y-86251009D02*
X108416666Y-86203390D01*
X108416666Y-86203390D02*
X108321428Y-86155771D01*
X108321428Y-86155771D02*
X108130952Y-86155771D01*
X108130952Y-86155771D02*
X108035714Y-86203390D01*
X108035714Y-86203390D02*
X107988095Y-86251009D01*
X107988095Y-86251009D02*
X107940476Y-86346247D01*
X146858333Y-121759580D02*
X146810714Y-121807200D01*
X146810714Y-121807200D02*
X146667857Y-121854819D01*
X146667857Y-121854819D02*
X146572619Y-121854819D01*
X146572619Y-121854819D02*
X146429762Y-121807200D01*
X146429762Y-121807200D02*
X146334524Y-121711961D01*
X146334524Y-121711961D02*
X146286905Y-121616723D01*
X146286905Y-121616723D02*
X146239286Y-121426247D01*
X146239286Y-121426247D02*
X146239286Y-121283390D01*
X146239286Y-121283390D02*
X146286905Y-121092914D01*
X146286905Y-121092914D02*
X146334524Y-120997676D01*
X146334524Y-120997676D02*
X146429762Y-120902438D01*
X146429762Y-120902438D02*
X146572619Y-120854819D01*
X146572619Y-120854819D02*
X146667857Y-120854819D01*
X146667857Y-120854819D02*
X146810714Y-120902438D01*
X146810714Y-120902438D02*
X146858333Y-120950057D01*
X147810714Y-121854819D02*
X147239286Y-121854819D01*
X147525000Y-121854819D02*
X147525000Y-120854819D01*
X147525000Y-120854819D02*
X147429762Y-120997676D01*
X147429762Y-120997676D02*
X147334524Y-121092914D01*
X147334524Y-121092914D02*
X147239286Y-121140533D01*
X117514819Y-121083333D02*
X118229104Y-121083333D01*
X118229104Y-121083333D02*
X118371961Y-121130952D01*
X118371961Y-121130952D02*
X118467200Y-121226190D01*
X118467200Y-121226190D02*
X118514819Y-121369047D01*
X118514819Y-121369047D02*
X118514819Y-121464285D01*
X117514819Y-120178571D02*
X117514819Y-120369047D01*
X117514819Y-120369047D02*
X117562438Y-120464285D01*
X117562438Y-120464285D02*
X117610057Y-120511904D01*
X117610057Y-120511904D02*
X117752914Y-120607142D01*
X117752914Y-120607142D02*
X117943390Y-120654761D01*
X117943390Y-120654761D02*
X118324342Y-120654761D01*
X118324342Y-120654761D02*
X118419580Y-120607142D01*
X118419580Y-120607142D02*
X118467200Y-120559523D01*
X118467200Y-120559523D02*
X118514819Y-120464285D01*
X118514819Y-120464285D02*
X118514819Y-120273809D01*
X118514819Y-120273809D02*
X118467200Y-120178571D01*
X118467200Y-120178571D02*
X118419580Y-120130952D01*
X118419580Y-120130952D02*
X118324342Y-120083333D01*
X118324342Y-120083333D02*
X118086247Y-120083333D01*
X118086247Y-120083333D02*
X117991009Y-120130952D01*
X117991009Y-120130952D02*
X117943390Y-120178571D01*
X117943390Y-120178571D02*
X117895771Y-120273809D01*
X117895771Y-120273809D02*
X117895771Y-120464285D01*
X117895771Y-120464285D02*
X117943390Y-120559523D01*
X117943390Y-120559523D02*
X117991009Y-120607142D01*
X117991009Y-120607142D02*
X118086247Y-120654761D01*
X138086214Y-109884819D02*
X138086214Y-108884819D01*
X138086214Y-108884819D02*
X138324309Y-108884819D01*
X138324309Y-108884819D02*
X138467166Y-108932438D01*
X138467166Y-108932438D02*
X138562404Y-109027676D01*
X138562404Y-109027676D02*
X138610023Y-109122914D01*
X138610023Y-109122914D02*
X138657642Y-109313390D01*
X138657642Y-109313390D02*
X138657642Y-109456247D01*
X138657642Y-109456247D02*
X138610023Y-109646723D01*
X138610023Y-109646723D02*
X138562404Y-109741961D01*
X138562404Y-109741961D02*
X138467166Y-109837200D01*
X138467166Y-109837200D02*
X138324309Y-109884819D01*
X138324309Y-109884819D02*
X138086214Y-109884819D01*
X139610023Y-109884819D02*
X139038595Y-109884819D01*
X139324309Y-109884819D02*
X139324309Y-108884819D01*
X139324309Y-108884819D02*
X139229071Y-109027676D01*
X139229071Y-109027676D02*
X139133833Y-109122914D01*
X139133833Y-109122914D02*
X139038595Y-109170533D01*
X140229071Y-108884819D02*
X140324309Y-108884819D01*
X140324309Y-108884819D02*
X140419547Y-108932438D01*
X140419547Y-108932438D02*
X140467166Y-108980057D01*
X140467166Y-108980057D02*
X140514785Y-109075295D01*
X140514785Y-109075295D02*
X140562404Y-109265771D01*
X140562404Y-109265771D02*
X140562404Y-109503866D01*
X140562404Y-109503866D02*
X140514785Y-109694342D01*
X140514785Y-109694342D02*
X140467166Y-109789580D01*
X140467166Y-109789580D02*
X140419547Y-109837200D01*
X140419547Y-109837200D02*
X140324309Y-109884819D01*
X140324309Y-109884819D02*
X140229071Y-109884819D01*
X140229071Y-109884819D02*
X140133833Y-109837200D01*
X140133833Y-109837200D02*
X140086214Y-109789580D01*
X140086214Y-109789580D02*
X140038595Y-109694342D01*
X140038595Y-109694342D02*
X139990976Y-109503866D01*
X139990976Y-109503866D02*
X139990976Y-109265771D01*
X139990976Y-109265771D02*
X140038595Y-109075295D01*
X140038595Y-109075295D02*
X140086214Y-108980057D01*
X140086214Y-108980057D02*
X140133833Y-108932438D01*
X140133833Y-108932438D02*
X140229071Y-108884819D01*
X119825319Y-120392857D02*
X119349128Y-120726190D01*
X119825319Y-120964285D02*
X118825319Y-120964285D01*
X118825319Y-120964285D02*
X118825319Y-120583333D01*
X118825319Y-120583333D02*
X118872938Y-120488095D01*
X118872938Y-120488095D02*
X118920557Y-120440476D01*
X118920557Y-120440476D02*
X119015795Y-120392857D01*
X119015795Y-120392857D02*
X119158652Y-120392857D01*
X119158652Y-120392857D02*
X119253890Y-120440476D01*
X119253890Y-120440476D02*
X119301509Y-120488095D01*
X119301509Y-120488095D02*
X119349128Y-120583333D01*
X119349128Y-120583333D02*
X119349128Y-120964285D01*
X119825319Y-119440476D02*
X119825319Y-120011904D01*
X119825319Y-119726190D02*
X118825319Y-119726190D01*
X118825319Y-119726190D02*
X118968176Y-119821428D01*
X118968176Y-119821428D02*
X119063414Y-119916666D01*
X119063414Y-119916666D02*
X119111033Y-120011904D01*
X119825319Y-118488095D02*
X119825319Y-119059523D01*
X119825319Y-118773809D02*
X118825319Y-118773809D01*
X118825319Y-118773809D02*
X118968176Y-118869047D01*
X118968176Y-118869047D02*
X119063414Y-118964285D01*
X119063414Y-118964285D02*
X119111033Y-119059523D01*
X107633833Y-108884819D02*
X107300500Y-108408628D01*
X107062405Y-108884819D02*
X107062405Y-107884819D01*
X107062405Y-107884819D02*
X107443357Y-107884819D01*
X107443357Y-107884819D02*
X107538595Y-107932438D01*
X107538595Y-107932438D02*
X107586214Y-107980057D01*
X107586214Y-107980057D02*
X107633833Y-108075295D01*
X107633833Y-108075295D02*
X107633833Y-108218152D01*
X107633833Y-108218152D02*
X107586214Y-108313390D01*
X107586214Y-108313390D02*
X107538595Y-108361009D01*
X107538595Y-108361009D02*
X107443357Y-108408628D01*
X107443357Y-108408628D02*
X107062405Y-108408628D01*
X107967167Y-107884819D02*
X108586214Y-107884819D01*
X108586214Y-107884819D02*
X108252881Y-108265771D01*
X108252881Y-108265771D02*
X108395738Y-108265771D01*
X108395738Y-108265771D02*
X108490976Y-108313390D01*
X108490976Y-108313390D02*
X108538595Y-108361009D01*
X108538595Y-108361009D02*
X108586214Y-108456247D01*
X108586214Y-108456247D02*
X108586214Y-108694342D01*
X108586214Y-108694342D02*
X108538595Y-108789580D01*
X108538595Y-108789580D02*
X108490976Y-108837200D01*
X108490976Y-108837200D02*
X108395738Y-108884819D01*
X108395738Y-108884819D02*
X108110024Y-108884819D01*
X108110024Y-108884819D02*
X108014786Y-108837200D01*
X108014786Y-108837200D02*
X107967167Y-108789580D01*
X150345319Y-81833333D02*
X151059604Y-81833333D01*
X151059604Y-81833333D02*
X151202461Y-81880952D01*
X151202461Y-81880952D02*
X151297700Y-81976190D01*
X151297700Y-81976190D02*
X151345319Y-82119047D01*
X151345319Y-82119047D02*
X151345319Y-82214285D01*
X150678652Y-80928571D02*
X151345319Y-80928571D01*
X150297700Y-81166666D02*
X151011985Y-81404761D01*
X151011985Y-81404761D02*
X151011985Y-80785714D01*
X130708833Y-116884819D02*
X130375500Y-116408628D01*
X130137405Y-116884819D02*
X130137405Y-115884819D01*
X130137405Y-115884819D02*
X130518357Y-115884819D01*
X130518357Y-115884819D02*
X130613595Y-115932438D01*
X130613595Y-115932438D02*
X130661214Y-115980057D01*
X130661214Y-115980057D02*
X130708833Y-116075295D01*
X130708833Y-116075295D02*
X130708833Y-116218152D01*
X130708833Y-116218152D02*
X130661214Y-116313390D01*
X130661214Y-116313390D02*
X130613595Y-116361009D01*
X130613595Y-116361009D02*
X130518357Y-116408628D01*
X130518357Y-116408628D02*
X130137405Y-116408628D01*
X131185024Y-116884819D02*
X131375500Y-116884819D01*
X131375500Y-116884819D02*
X131470738Y-116837200D01*
X131470738Y-116837200D02*
X131518357Y-116789580D01*
X131518357Y-116789580D02*
X131613595Y-116646723D01*
X131613595Y-116646723D02*
X131661214Y-116456247D01*
X131661214Y-116456247D02*
X131661214Y-116075295D01*
X131661214Y-116075295D02*
X131613595Y-115980057D01*
X131613595Y-115980057D02*
X131565976Y-115932438D01*
X131565976Y-115932438D02*
X131470738Y-115884819D01*
X131470738Y-115884819D02*
X131280262Y-115884819D01*
X131280262Y-115884819D02*
X131185024Y-115932438D01*
X131185024Y-115932438D02*
X131137405Y-115980057D01*
X131137405Y-115980057D02*
X131089786Y-116075295D01*
X131089786Y-116075295D02*
X131089786Y-116313390D01*
X131089786Y-116313390D02*
X131137405Y-116408628D01*
X131137405Y-116408628D02*
X131185024Y-116456247D01*
X131185024Y-116456247D02*
X131280262Y-116503866D01*
X131280262Y-116503866D02*
X131470738Y-116503866D01*
X131470738Y-116503866D02*
X131565976Y-116456247D01*
X131565976Y-116456247D02*
X131613595Y-116408628D01*
X131613595Y-116408628D02*
X131661214Y-116313390D01*
X107407642Y-92634819D02*
X107074309Y-92158628D01*
X106836214Y-92634819D02*
X106836214Y-91634819D01*
X106836214Y-91634819D02*
X107217166Y-91634819D01*
X107217166Y-91634819D02*
X107312404Y-91682438D01*
X107312404Y-91682438D02*
X107360023Y-91730057D01*
X107360023Y-91730057D02*
X107407642Y-91825295D01*
X107407642Y-91825295D02*
X107407642Y-91968152D01*
X107407642Y-91968152D02*
X107360023Y-92063390D01*
X107360023Y-92063390D02*
X107312404Y-92111009D01*
X107312404Y-92111009D02*
X107217166Y-92158628D01*
X107217166Y-92158628D02*
X106836214Y-92158628D01*
X107788595Y-91730057D02*
X107836214Y-91682438D01*
X107836214Y-91682438D02*
X107931452Y-91634819D01*
X107931452Y-91634819D02*
X108169547Y-91634819D01*
X108169547Y-91634819D02*
X108264785Y-91682438D01*
X108264785Y-91682438D02*
X108312404Y-91730057D01*
X108312404Y-91730057D02*
X108360023Y-91825295D01*
X108360023Y-91825295D02*
X108360023Y-91920533D01*
X108360023Y-91920533D02*
X108312404Y-92063390D01*
X108312404Y-92063390D02*
X107740976Y-92634819D01*
X107740976Y-92634819D02*
X108360023Y-92634819D01*
X109264785Y-91634819D02*
X108788595Y-91634819D01*
X108788595Y-91634819D02*
X108740976Y-92111009D01*
X108740976Y-92111009D02*
X108788595Y-92063390D01*
X108788595Y-92063390D02*
X108883833Y-92015771D01*
X108883833Y-92015771D02*
X109121928Y-92015771D01*
X109121928Y-92015771D02*
X109217166Y-92063390D01*
X109217166Y-92063390D02*
X109264785Y-92111009D01*
X109264785Y-92111009D02*
X109312404Y-92206247D01*
X109312404Y-92206247D02*
X109312404Y-92444342D01*
X109312404Y-92444342D02*
X109264785Y-92539580D01*
X109264785Y-92539580D02*
X109217166Y-92587200D01*
X109217166Y-92587200D02*
X109121928Y-92634819D01*
X109121928Y-92634819D02*
X108883833Y-92634819D01*
X108883833Y-92634819D02*
X108788595Y-92587200D01*
X108788595Y-92587200D02*
X108740976Y-92539580D01*
X137967167Y-115257200D02*
X138110024Y-115304819D01*
X138110024Y-115304819D02*
X138348119Y-115304819D01*
X138348119Y-115304819D02*
X138443357Y-115257200D01*
X138443357Y-115257200D02*
X138490976Y-115209580D01*
X138490976Y-115209580D02*
X138538595Y-115114342D01*
X138538595Y-115114342D02*
X138538595Y-115019104D01*
X138538595Y-115019104D02*
X138490976Y-114923866D01*
X138490976Y-114923866D02*
X138443357Y-114876247D01*
X138443357Y-114876247D02*
X138348119Y-114828628D01*
X138348119Y-114828628D02*
X138157643Y-114781009D01*
X138157643Y-114781009D02*
X138062405Y-114733390D01*
X138062405Y-114733390D02*
X138014786Y-114685771D01*
X138014786Y-114685771D02*
X137967167Y-114590533D01*
X137967167Y-114590533D02*
X137967167Y-114495295D01*
X137967167Y-114495295D02*
X138014786Y-114400057D01*
X138014786Y-114400057D02*
X138062405Y-114352438D01*
X138062405Y-114352438D02*
X138157643Y-114304819D01*
X138157643Y-114304819D02*
X138395738Y-114304819D01*
X138395738Y-114304819D02*
X138538595Y-114352438D01*
X138871929Y-114304819D02*
X139110024Y-115304819D01*
X139110024Y-115304819D02*
X139300500Y-114590533D01*
X139300500Y-114590533D02*
X139490976Y-115304819D01*
X139490976Y-115304819D02*
X139729072Y-114304819D01*
X140014786Y-114304819D02*
X140633833Y-114304819D01*
X140633833Y-114304819D02*
X140300500Y-114685771D01*
X140300500Y-114685771D02*
X140443357Y-114685771D01*
X140443357Y-114685771D02*
X140538595Y-114733390D01*
X140538595Y-114733390D02*
X140586214Y-114781009D01*
X140586214Y-114781009D02*
X140633833Y-114876247D01*
X140633833Y-114876247D02*
X140633833Y-115114342D01*
X140633833Y-115114342D02*
X140586214Y-115209580D01*
X140586214Y-115209580D02*
X140538595Y-115257200D01*
X140538595Y-115257200D02*
X140443357Y-115304819D01*
X140443357Y-115304819D02*
X140157643Y-115304819D01*
X140157643Y-115304819D02*
X140062405Y-115257200D01*
X140062405Y-115257200D02*
X140014786Y-115209580D01*
D11*
X136285500Y-107772936D02*
X136285500Y-108227064D01*
X134815500Y-107772936D02*
X134815500Y-108227064D01*
X130340000Y-91985436D02*
X130340000Y-93439564D01*
X132160000Y-91985436D02*
X132160000Y-93439564D01*
X120340000Y-90560436D02*
X120340000Y-92014564D01*
X122160000Y-90560436D02*
X122160000Y-92014564D01*
D12*
X124050000Y-91650000D02*
G75*
G03*
X124050000Y-91650000I-100000J0D01*
G01*
D13*
X128350000Y-90550000D02*
X128350000Y-90950000D01*
X125150000Y-90550000D02*
X125150000Y-90950000D01*
X126150000Y-92150000D02*
X127350000Y-92150000D01*
X126150000Y-89350000D02*
X127350000Y-89350000D01*
D11*
X119628000Y-110062500D02*
X119628000Y-111737500D01*
X119628000Y-110062500D02*
X119628000Y-109412500D01*
X122748000Y-110062500D02*
X122748000Y-110712500D01*
X122748000Y-110062500D02*
X122748000Y-109412500D01*
X143640500Y-103461252D02*
X143640500Y-102038748D01*
X145460500Y-103461252D02*
X145460500Y-102038748D01*
X108511752Y-108660000D02*
X107089248Y-108660000D01*
X108511752Y-106840000D02*
X107089248Y-106840000D01*
X113110936Y-99840000D02*
X114565064Y-99840000D01*
X113110936Y-101660000D02*
X114565064Y-101660000D01*
X142037758Y-92272500D02*
X141563242Y-92272500D01*
X142037758Y-91227500D02*
X141563242Y-91227500D01*
X128575500Y-119430000D02*
X128575500Y-121185000D01*
X128575500Y-123132500D02*
X128575500Y-124532500D01*
X137775500Y-119430000D02*
X137775500Y-121185000D01*
X137775500Y-123132500D02*
X137775500Y-124532500D01*
D13*
X109464000Y-98350000D02*
G75*
G03*
X109464000Y-98350000I-63500J0D01*
G01*
D11*
X134949332Y-88850548D02*
G75*
G03*
X134950000Y-87150001I-699332J850548D01*
G01*
X133550000Y-87150001D02*
G75*
G03*
X133550668Y-88850548I700000J-849999D01*
G01*
X108761752Y-97660000D02*
X107339248Y-97660000D01*
X108761752Y-95840000D02*
X107339248Y-95840000D01*
D12*
X147650500Y-117875000D02*
G75*
G03*
X147650500Y-117875000I-100000J0D01*
G01*
D13*
X147250500Y-114995000D02*
X147250500Y-116555000D01*
X148850500Y-116555000D02*
X148850500Y-114995000D01*
D11*
X124073000Y-119512742D02*
X124073000Y-119987258D01*
X123028000Y-119512742D02*
X123028000Y-119987258D01*
X134510000Y-96140000D02*
X134510000Y-97250000D01*
X133750000Y-96140000D02*
X134510000Y-96140000D01*
X132990000Y-96140000D02*
X129245000Y-96140000D01*
X132990000Y-96140000D02*
X132990000Y-96686529D01*
X129245000Y-96140000D02*
X129245000Y-96942470D01*
X129245000Y-97557530D02*
X129245000Y-98360000D01*
X132990000Y-97813471D02*
X132990000Y-98360000D01*
X132990000Y-98360000D02*
X129245000Y-98360000D01*
X113323436Y-107840000D02*
X114777564Y-107840000D01*
X113323436Y-109660000D02*
X114777564Y-109660000D01*
X124115500Y-110737258D02*
X124115500Y-110262742D01*
X125160500Y-110737258D02*
X125160500Y-110262742D01*
X119175500Y-113740000D02*
X117375500Y-113740000D01*
X119175500Y-113740000D02*
X119975500Y-113740000D01*
X119175500Y-116860000D02*
X118375500Y-116860000D01*
X119175500Y-116860000D02*
X119975500Y-116860000D01*
X146860500Y-75920000D02*
X101080500Y-75920000D01*
X146860500Y-75920000D02*
X146860500Y-78580000D01*
X101080500Y-75920000D02*
X101080500Y-78580000D01*
X149460500Y-77250000D02*
X149460500Y-78580000D01*
X149460500Y-78580000D02*
X148130500Y-78580000D01*
X146860500Y-78580000D02*
X101080500Y-78580000D01*
D13*
X109464000Y-86450000D02*
G75*
G03*
X109464000Y-86450000I-63500J0D01*
G01*
D11*
X144330500Y-84300000D02*
X145660500Y-84300000D01*
X144330500Y-85630000D02*
X144330500Y-84300000D01*
X144330500Y-86900000D02*
X144330500Y-99660000D01*
X144330500Y-86900000D02*
X146930500Y-86900000D01*
X144330500Y-99660000D02*
X149530500Y-99660000D01*
X146930500Y-84300000D02*
X149530500Y-84300000D01*
X146930500Y-86900000D02*
X146930500Y-84300000D01*
X149530500Y-84300000D02*
X149530500Y-99660000D01*
X138074500Y-97360000D02*
X139774500Y-97360000D01*
X138074500Y-97360000D02*
X138074500Y-94700000D01*
X139774500Y-97360000D02*
X139774500Y-94700000D01*
X125050500Y-113190000D02*
X123375500Y-113190000D01*
X125050500Y-113190000D02*
X125700500Y-113190000D01*
X125050500Y-116310000D02*
X124400500Y-116310000D01*
X125050500Y-116310000D02*
X125700500Y-116310000D01*
D13*
X109464000Y-112200000D02*
G75*
G03*
X109464000Y-112200000I-63500J0D01*
G01*
D11*
X142710500Y-121522936D02*
X142710500Y-122977064D01*
X140890500Y-121522936D02*
X140890500Y-122977064D01*
X147028000Y-120237258D02*
X147028000Y-119762742D01*
X148073000Y-120237258D02*
X148073000Y-119762742D01*
X112887758Y-112022500D02*
X112413242Y-112022500D01*
X112887758Y-110977500D02*
X112413242Y-110977500D01*
X145823000Y-119687742D02*
X145823000Y-120162258D01*
X144778000Y-119687742D02*
X144778000Y-120162258D01*
X135110500Y-113750000D02*
X135110500Y-111950000D01*
X135110500Y-113750000D02*
X135110500Y-114550000D01*
X131990500Y-113750000D02*
X131990500Y-112950000D01*
X131990500Y-113750000D02*
X131990500Y-114550000D01*
X142710500Y-116522936D02*
X142710500Y-117977064D01*
X140890500Y-116522936D02*
X140890500Y-117977064D01*
X127212375Y-108211875D02*
X127212375Y-111811875D01*
X131662375Y-110011875D02*
G75*
G03*
X127223897Y-108173397I-2600000J0D01*
G01*
X127223897Y-111850353D02*
G75*
G03*
X131662375Y-110011875I1838478J1838478D01*
G01*
X149460500Y-109910000D02*
X149460500Y-111650000D01*
X146640500Y-110350000D02*
X146640500Y-111650000D01*
X116037758Y-112022500D02*
X115563242Y-112022500D01*
X116037758Y-110977500D02*
X115563242Y-110977500D01*
X120040500Y-99535907D02*
X120040500Y-103135907D01*
X120040500Y-99535907D02*
X120040500Y-97335907D01*
X126810500Y-99535907D02*
X126810500Y-101735907D01*
X126810500Y-99535907D02*
X126810500Y-97335907D01*
X117390000Y-117220000D02*
X118500000Y-117220000D01*
X117390000Y-117980000D02*
X117390000Y-117220000D01*
X117390000Y-118740000D02*
X117390000Y-122485000D01*
X117390000Y-118740000D02*
X117936529Y-118740000D01*
X117390000Y-122485000D02*
X118192470Y-122485000D01*
X118807530Y-122485000D02*
X119610000Y-122485000D01*
X119063471Y-118740000D02*
X119610000Y-118740000D01*
X119610000Y-118740000D02*
X119610000Y-122485000D01*
D14*
X111900500Y-117550000D02*
X114250500Y-117550000D01*
X111900500Y-117000000D02*
X111900500Y-117550000D01*
X111900500Y-115000000D02*
X111900500Y-114450000D01*
X111900500Y-114450000D02*
X114250500Y-114450000D01*
D11*
X122830000Y-129360000D02*
X119655000Y-129360000D01*
X122830000Y-118140000D02*
X122830000Y-129360000D01*
X119655000Y-118140000D02*
X122830000Y-118140000D01*
X119654999Y-118140000D02*
G75*
G03*
X119654999Y-129360000I-12434999J-5610000D01*
G01*
X145460500Y-106763748D02*
X145460500Y-108186252D01*
X143640500Y-106763748D02*
X143640500Y-108186252D01*
X149290500Y-107010000D02*
X149290500Y-103570000D01*
X146710500Y-103070000D02*
X146710500Y-107010000D01*
X115500500Y-93050000D02*
X115380500Y-93050000D01*
X114370500Y-93050000D02*
X113230500Y-93050000D01*
X112220500Y-93050000D02*
X112100500Y-93050000D01*
X112100500Y-93050000D02*
X112100500Y-97450000D01*
X115500500Y-97450000D02*
X115500500Y-93050000D01*
X115380500Y-97450000D02*
X115500500Y-97450000D01*
X113230500Y-97450000D02*
X114370500Y-97450000D01*
X112100500Y-97450000D02*
X112220500Y-97450000D01*
X107977064Y-85410000D02*
X106522936Y-85410000D01*
X107977064Y-83590000D02*
X106522936Y-83590000D01*
X146313748Y-122340000D02*
X147736252Y-122340000D01*
X146313748Y-124160000D02*
X147736252Y-124160000D01*
X117060000Y-119690000D02*
X117060000Y-120750000D01*
X116000000Y-119690000D02*
X117060000Y-119690000D01*
X115000000Y-119690000D02*
X104940000Y-119690000D01*
X115000000Y-119690000D02*
X115000000Y-121810000D01*
X104940000Y-119690000D02*
X104940000Y-121810000D01*
X115000000Y-121810000D02*
X104940000Y-121810000D01*
X140785500Y-108735000D02*
X140785500Y-107265000D01*
X140785500Y-107265000D02*
X138500500Y-107265000D01*
X138500500Y-108735000D02*
X140785500Y-108735000D01*
X120278000Y-119987258D02*
X120278000Y-119512742D01*
X121323000Y-119987258D02*
X121323000Y-119512742D01*
X107073436Y-109340000D02*
X108527564Y-109340000D01*
X107073436Y-111160000D02*
X108527564Y-111160000D01*
X146850500Y-80170000D02*
X101070500Y-80170000D01*
X146850500Y-80170000D02*
X146850500Y-82830000D01*
X101070500Y-80170000D02*
X101070500Y-82830000D01*
X149450500Y-81500000D02*
X149450500Y-82830000D01*
X149450500Y-82830000D02*
X148120500Y-82830000D01*
X146850500Y-82830000D02*
X101070500Y-82830000D01*
X131112758Y-115522500D02*
X130638242Y-115522500D01*
X131112758Y-114477500D02*
X130638242Y-114477500D01*
X107323436Y-93090000D02*
X108777564Y-93090000D01*
X107323436Y-94910000D02*
X108777564Y-94910000D01*
X141500500Y-113950000D02*
X141500500Y-113830000D01*
X141500500Y-112820000D02*
X141500500Y-111680000D01*
X141500500Y-110670000D02*
X141500500Y-110550000D01*
X141500500Y-110550000D02*
X137100500Y-110550000D01*
X137100500Y-113950000D02*
X141500500Y-113950000D01*
X137100500Y-113830000D02*
X137100500Y-113950000D01*
X137100500Y-111680000D02*
X137100500Y-112820000D01*
X137100500Y-110550000D02*
X137100500Y-110670000D01*
%LPC*%
G36*
X115750500Y-117700000D02*
G01*
X114350500Y-117700000D01*
X114350500Y-116700000D01*
X114750500Y-116300000D01*
X115750500Y-116300000D01*
X115750500Y-117700000D01*
G37*
G36*
X115750500Y-115700000D02*
G01*
X114750500Y-115700000D01*
X114350500Y-115300000D01*
X114350500Y-114300000D01*
X115750500Y-114300000D01*
X115750500Y-115700000D01*
G37*
D15*
X135550500Y-107087500D03*
X135550500Y-108912500D03*
D16*
X131250000Y-91250000D03*
X131250000Y-94175000D03*
X121250000Y-89825000D03*
X121250000Y-92750000D03*
D17*
X128150000Y-89900000D03*
X125350000Y-89900000D03*
X128150000Y-91600000D03*
X125350000Y-91600000D03*
D18*
X120238000Y-111000000D03*
X122138000Y-111000000D03*
X121188000Y-109125000D03*
D19*
X144550500Y-104225000D03*
X144550500Y-101275000D03*
D20*
X109275500Y-107750000D03*
X106325500Y-107750000D03*
D21*
X112375500Y-100750000D03*
X115300500Y-100750000D03*
D22*
X142625500Y-91750000D03*
X140975500Y-91750000D03*
D23*
X132675500Y-118500000D03*
D24*
X134695500Y-118500000D03*
D25*
X135925500Y-118500000D03*
D23*
X133675500Y-118500000D03*
D24*
X131655500Y-118500000D03*
D25*
X130425500Y-118500000D03*
D26*
X128050500Y-118555000D03*
D27*
X128050500Y-122135000D03*
D26*
X138300500Y-118555000D03*
D27*
X138300500Y-122135000D03*
D28*
X107800500Y-99250000D03*
X107800500Y-101250000D03*
X107800500Y-103250000D03*
X107800500Y-105250000D03*
D29*
X102050500Y-96900000D03*
X102050500Y-107600000D03*
D30*
X134250000Y-87150000D03*
X134250000Y-88850000D03*
D20*
X109525500Y-96750000D03*
X106575500Y-96750000D03*
D31*
X147550500Y-114400000D03*
X148050500Y-114400000D03*
X148550500Y-114400000D03*
X148550500Y-117150000D03*
X148050500Y-117150000D03*
X147550500Y-117150000D03*
D32*
X123550500Y-118925000D03*
X123550500Y-120575000D03*
D33*
X133750000Y-97250000D03*
D34*
X132480000Y-97250000D03*
X131210000Y-97250000D03*
X129940000Y-97250000D03*
D21*
X112588000Y-108750000D03*
X115513000Y-108750000D03*
D35*
X124638000Y-111325000D03*
X124638000Y-109675000D03*
D36*
X118038000Y-114350000D03*
X118038000Y-115300000D03*
X118038000Y-116250000D03*
X120313000Y-116250000D03*
X120313000Y-115300000D03*
X120313000Y-114350000D03*
D37*
X148130500Y-77250000D03*
D38*
X145590500Y-77250000D03*
X143050500Y-77250000D03*
X140510500Y-77250000D03*
X137970500Y-77250000D03*
X135430500Y-77250000D03*
X132890500Y-77250000D03*
X130350500Y-77250000D03*
X127810500Y-77250000D03*
X125270500Y-77250000D03*
X122730500Y-77250000D03*
X120190500Y-77250000D03*
X117650500Y-77250000D03*
X115110500Y-77250000D03*
X112570500Y-77250000D03*
X110030500Y-77250000D03*
X107490500Y-77250000D03*
X104950500Y-77250000D03*
X102410500Y-77250000D03*
D28*
X107800500Y-87350000D03*
X107800500Y-89350000D03*
X107800500Y-91350000D03*
D29*
X102050500Y-85000000D03*
X102050500Y-93700000D03*
D37*
X145660500Y-85630000D03*
D38*
X148200500Y-85630000D03*
X145660500Y-88170000D03*
X148200500Y-88170000D03*
X145660500Y-90710000D03*
X148200500Y-90710000D03*
X145660500Y-93250000D03*
X148200500Y-93250000D03*
X145660500Y-95790000D03*
X148200500Y-95790000D03*
X145660500Y-98330000D03*
X148200500Y-98330000D03*
D39*
X138924500Y-96800000D03*
X138924500Y-94700000D03*
D40*
X124113000Y-113800000D03*
X124113000Y-115700000D03*
X125988000Y-114750000D03*
D28*
X107800500Y-113100000D03*
X107800500Y-115100000D03*
X107800500Y-117100000D03*
D29*
X102050500Y-110750000D03*
X102050500Y-119450000D03*
D16*
X141800500Y-120787500D03*
X141800500Y-123712500D03*
D35*
X147550500Y-120825000D03*
X147550500Y-119175000D03*
D22*
X113475500Y-111500000D03*
X111825500Y-111500000D03*
D32*
X145300500Y-119100000D03*
X145300500Y-120750000D03*
D41*
X134500500Y-112612500D03*
X132600500Y-112612500D03*
X133550500Y-114887500D03*
D16*
X141800500Y-115787500D03*
X141800500Y-118712500D03*
D42*
X129062375Y-108741875D03*
D43*
X129062375Y-110011875D03*
X129062375Y-111281875D03*
D44*
X148800500Y-109825000D03*
X148300500Y-109825000D03*
X147800500Y-109825000D03*
X147300500Y-109825000D03*
X147300500Y-112175000D03*
X147800500Y-112175000D03*
X148300500Y-112175000D03*
X148800500Y-112175000D03*
D45*
X148050500Y-111000000D03*
D22*
X116625500Y-111500000D03*
X114975500Y-111500000D03*
D46*
X120500500Y-102398407D03*
X121150500Y-102398407D03*
X121800500Y-102398407D03*
X122450500Y-102398407D03*
X123100500Y-102398407D03*
X123750500Y-102398407D03*
X124400500Y-102398407D03*
X125050500Y-102398407D03*
X125700500Y-102398407D03*
X126350500Y-102398407D03*
X126350500Y-96673407D03*
X125700500Y-96673407D03*
X125050500Y-96673407D03*
X124400500Y-96673407D03*
X123750500Y-96673407D03*
X123100500Y-96673407D03*
X122450500Y-96673407D03*
X121800500Y-96673407D03*
X121150500Y-96673407D03*
X120500500Y-96673407D03*
D33*
X118500000Y-117980000D03*
D34*
X118500000Y-119250000D03*
X118500000Y-120520000D03*
X118500000Y-121790000D03*
D47*
X111800500Y-116000000D03*
D48*
X121500000Y-123750000D03*
D49*
X101500000Y-123750000D03*
D50*
X144550500Y-106000000D03*
X144550500Y-108950000D03*
D51*
X147300500Y-103585000D03*
X147300500Y-104555000D03*
X147300500Y-105525000D03*
X147300500Y-106495000D03*
X148700500Y-106495000D03*
X148700500Y-105525000D03*
X148700500Y-104555000D03*
X148700500Y-103585000D03*
D52*
X114875500Y-93175000D03*
X114875500Y-97325000D03*
X112725500Y-93175000D03*
X112725500Y-97325000D03*
D53*
X108712500Y-84500000D03*
X105787500Y-84500000D03*
D54*
X145550000Y-123250000D03*
X148500000Y-123250000D03*
D55*
X116000000Y-120750000D03*
D56*
X114000000Y-120750000D03*
X112000000Y-120750000D03*
X110000000Y-120750000D03*
X108000000Y-120750000D03*
X106000000Y-120750000D03*
D57*
X140088000Y-108000000D03*
X138513000Y-108000000D03*
D35*
X120800500Y-120575000D03*
X120800500Y-118925000D03*
D21*
X106338000Y-110250000D03*
X109263000Y-110250000D03*
D37*
X148120500Y-81500000D03*
D38*
X145580500Y-81500000D03*
X143040500Y-81500000D03*
X140500500Y-81500000D03*
X137960500Y-81500000D03*
X135420500Y-81500000D03*
X132880500Y-81500000D03*
X130340500Y-81500000D03*
X127800500Y-81500000D03*
X125260500Y-81500000D03*
X122720500Y-81500000D03*
X120180500Y-81500000D03*
X117640500Y-81500000D03*
X115100500Y-81500000D03*
X112560500Y-81500000D03*
X110020500Y-81500000D03*
X107480500Y-81500000D03*
X104940500Y-81500000D03*
X102400500Y-81500000D03*
D22*
X131700500Y-115000000D03*
X130050500Y-115000000D03*
D21*
X106588000Y-94000000D03*
X109513000Y-94000000D03*
D58*
X141375500Y-113325000D03*
X137225500Y-113325000D03*
X141375500Y-111175000D03*
X137225500Y-111175000D03*
D30*
X126050500Y-123600000D03*
X126050500Y-116600000D03*
%LPD*%
M02*
