G04 #@! TF.GenerationSoftware,KiCad,Pcbnew,7.0.7*
G04 #@! TF.CreationDate,2023-12-30T15:49:33-05:00*
G04 #@! TF.ProjectId,sensor_node,73656e73-6f72-45f6-9e6f-64652e6b6963,rev?*
G04 #@! TF.SameCoordinates,Original*
G04 #@! TF.FileFunction,Legend,Bot*
G04 #@! TF.FilePolarity,Positive*
%FSLAX46Y46*%
G04 Gerber Fmt 4.6, Leading zero omitted, Abs format (unit mm)*
G04 Created by KiCad (PCBNEW 7.0.7) date 2023-12-30 15:49:33*
%MOMM*%
%LPD*%
G01*
G04 APERTURE LIST*
G04 Aperture macros list*
%AMRoundRect*
0 Rectangle with rounded corners*
0 $1 Rounding radius*
0 $2 $3 $4 $5 $6 $7 $8 $9 X,Y pos of 4 corners*
0 Add a 4 corners polygon primitive as box body*
4,1,4,$2,$3,$4,$5,$6,$7,$8,$9,$2,$3,0*
0 Add four circle primitives for the rounded corners*
1,1,$1+$1,$2,$3*
1,1,$1+$1,$4,$5*
1,1,$1+$1,$6,$7*
1,1,$1+$1,$8,$9*
0 Add four rect primitives between the rounded corners*
20,1,$1+$1,$2,$3,$4,$5,0*
20,1,$1+$1,$4,$5,$6,$7,0*
20,1,$1+$1,$6,$7,$8,$9,0*
20,1,$1+$1,$8,$9,$2,$3,0*%
G04 Aperture macros list end*
%ADD10C,0.150000*%
%ADD11C,0.100000*%
%ADD12C,0.120000*%
%ADD13C,0.152400*%
%ADD14C,0.127000*%
%ADD15C,0.200000*%
%ADD16RoundRect,0.250000X-0.262500X-0.450000X0.262500X-0.450000X0.262500X0.450000X-0.262500X0.450000X0*%
%ADD17RoundRect,0.250000X0.450000X-0.262500X0.450000X0.262500X-0.450000X0.262500X-0.450000X-0.262500X0*%
%ADD18C,1.000000*%
%ADD19R,1.000000X1.000000*%
%ADD20O,1.000000X1.000000*%
%ADD21R,1.700000X1.700000*%
%ADD22O,1.700000X1.700000*%
%ADD23R,1.500000X1.050000*%
%ADD24O,1.500000X1.050000*%
%ADD25R,2.100000X2.100000*%
%ADD26C,2.100000*%
%ADD27R,1.350000X1.350000*%
%ADD28O,1.350000X1.350000*%
%ADD29RoundRect,0.218750X0.256250X-0.218750X0.256250X0.218750X-0.256250X0.218750X-0.256250X-0.218750X0*%
%ADD30RoundRect,0.218750X-0.256250X0.218750X-0.256250X-0.218750X0.256250X-0.218750X0.256250X0.218750X0*%
%ADD31RoundRect,0.150000X-0.825000X-0.150000X0.825000X-0.150000X0.825000X0.150000X-0.825000X0.150000X0*%
%ADD32RoundRect,0.200000X0.275000X-0.200000X0.275000X0.200000X-0.275000X0.200000X-0.275000X-0.200000X0*%
%ADD33R,1.100000X2.500000*%
%ADD34R,2.500000X1.100000*%
%ADD35R,0.700000X2.000000*%
%ADD36R,1.800000X1.000000*%
%ADD37RoundRect,0.218750X-0.218750X-0.256250X0.218750X-0.256250X0.218750X0.256250X-0.218750X0.256250X0*%
%ADD38RoundRect,0.200000X-0.200000X0.800000X-0.200000X-0.800000X0.200000X-0.800000X0.200000X0.800000X0*%
%ADD39RoundRect,0.200000X0.800000X0.200000X-0.800000X0.200000X-0.800000X-0.200000X0.800000X-0.200000X0*%
%ADD40RoundRect,0.150000X0.875000X0.150000X-0.875000X0.150000X-0.875000X-0.150000X0.875000X-0.150000X0*%
%ADD41RoundRect,0.102000X1.250000X-0.600000X1.250000X0.600000X-1.250000X0.600000X-1.250000X-0.600000X0*%
G04 APERTURE END LIST*
D10*
X147096009Y-86670112D02*
X147143628Y-86812969D01*
X147143628Y-86812969D02*
X147191247Y-86860588D01*
X147191247Y-86860588D02*
X147286485Y-86908207D01*
X147286485Y-86908207D02*
X147429342Y-86908207D01*
X147429342Y-86908207D02*
X147524580Y-86860588D01*
X147524580Y-86860588D02*
X147572200Y-86812969D01*
X147572200Y-86812969D02*
X147619819Y-86717731D01*
X147619819Y-86717731D02*
X147619819Y-86336779D01*
X147619819Y-86336779D02*
X146619819Y-86336779D01*
X146619819Y-86336779D02*
X146619819Y-86670112D01*
X146619819Y-86670112D02*
X146667438Y-86765350D01*
X146667438Y-86765350D02*
X146715057Y-86812969D01*
X146715057Y-86812969D02*
X146810295Y-86860588D01*
X146810295Y-86860588D02*
X146905533Y-86860588D01*
X146905533Y-86860588D02*
X147000771Y-86812969D01*
X147000771Y-86812969D02*
X147048390Y-86765350D01*
X147048390Y-86765350D02*
X147096009Y-86670112D01*
X147096009Y-86670112D02*
X147096009Y-86336779D01*
X147619819Y-87479636D02*
X147572200Y-87384398D01*
X147572200Y-87384398D02*
X147524580Y-87336779D01*
X147524580Y-87336779D02*
X147429342Y-87289160D01*
X147429342Y-87289160D02*
X147143628Y-87289160D01*
X147143628Y-87289160D02*
X147048390Y-87336779D01*
X147048390Y-87336779D02*
X147000771Y-87384398D01*
X147000771Y-87384398D02*
X146953152Y-87479636D01*
X146953152Y-87479636D02*
X146953152Y-87622493D01*
X146953152Y-87622493D02*
X147000771Y-87717731D01*
X147000771Y-87717731D02*
X147048390Y-87765350D01*
X147048390Y-87765350D02*
X147143628Y-87812969D01*
X147143628Y-87812969D02*
X147429342Y-87812969D01*
X147429342Y-87812969D02*
X147524580Y-87765350D01*
X147524580Y-87765350D02*
X147572200Y-87717731D01*
X147572200Y-87717731D02*
X147619819Y-87622493D01*
X147619819Y-87622493D02*
X147619819Y-87479636D01*
X144079887Y-85596009D02*
X143937030Y-85643628D01*
X143937030Y-85643628D02*
X143889411Y-85691247D01*
X143889411Y-85691247D02*
X143841792Y-85786485D01*
X143841792Y-85786485D02*
X143841792Y-85929342D01*
X143841792Y-85929342D02*
X143889411Y-86024580D01*
X143889411Y-86024580D02*
X143937030Y-86072200D01*
X143937030Y-86072200D02*
X144032268Y-86119819D01*
X144032268Y-86119819D02*
X144413220Y-86119819D01*
X144413220Y-86119819D02*
X144413220Y-85119819D01*
X144413220Y-85119819D02*
X144079887Y-85119819D01*
X144079887Y-85119819D02*
X143984649Y-85167438D01*
X143984649Y-85167438D02*
X143937030Y-85215057D01*
X143937030Y-85215057D02*
X143889411Y-85310295D01*
X143889411Y-85310295D02*
X143889411Y-85405533D01*
X143889411Y-85405533D02*
X143937030Y-85500771D01*
X143937030Y-85500771D02*
X143984649Y-85548390D01*
X143984649Y-85548390D02*
X144079887Y-85596009D01*
X144079887Y-85596009D02*
X144413220Y-85596009D01*
X143413220Y-86119819D02*
X143413220Y-85453152D01*
X143413220Y-85119819D02*
X143460839Y-85167438D01*
X143460839Y-85167438D02*
X143413220Y-85215057D01*
X143413220Y-85215057D02*
X143365601Y-85167438D01*
X143365601Y-85167438D02*
X143413220Y-85119819D01*
X143413220Y-85119819D02*
X143413220Y-85215057D01*
X146619819Y-88693922D02*
X147619819Y-89027255D01*
X147619819Y-89027255D02*
X146619819Y-89360588D01*
X147619819Y-89693922D02*
X146953152Y-89693922D01*
X146619819Y-89693922D02*
X146667438Y-89646303D01*
X146667438Y-89646303D02*
X146715057Y-89693922D01*
X146715057Y-89693922D02*
X146667438Y-89741541D01*
X146667438Y-89741541D02*
X146619819Y-89693922D01*
X146619819Y-89693922D02*
X146715057Y-89693922D01*
X147238866Y-90170112D02*
X147238866Y-90932017D01*
X144806077Y-87619819D02*
X144472744Y-88619819D01*
X144472744Y-88619819D02*
X144139411Y-87619819D01*
X143806077Y-88619819D02*
X143806077Y-87953152D01*
X143806077Y-87619819D02*
X143853696Y-87667438D01*
X143853696Y-87667438D02*
X143806077Y-87715057D01*
X143806077Y-87715057D02*
X143758458Y-87667438D01*
X143758458Y-87667438D02*
X143806077Y-87619819D01*
X143806077Y-87619819D02*
X143806077Y-87715057D01*
X143329887Y-88238866D02*
X142567983Y-88238866D01*
X142948935Y-88619819D02*
X142948935Y-87857914D01*
X147572200Y-91039160D02*
X147619819Y-91182017D01*
X147619819Y-91182017D02*
X147619819Y-91420112D01*
X147619819Y-91420112D02*
X147572200Y-91515350D01*
X147572200Y-91515350D02*
X147524580Y-91562969D01*
X147524580Y-91562969D02*
X147429342Y-91610588D01*
X147429342Y-91610588D02*
X147334104Y-91610588D01*
X147334104Y-91610588D02*
X147238866Y-91562969D01*
X147238866Y-91562969D02*
X147191247Y-91515350D01*
X147191247Y-91515350D02*
X147143628Y-91420112D01*
X147143628Y-91420112D02*
X147096009Y-91229636D01*
X147096009Y-91229636D02*
X147048390Y-91134398D01*
X147048390Y-91134398D02*
X147000771Y-91086779D01*
X147000771Y-91086779D02*
X146905533Y-91039160D01*
X146905533Y-91039160D02*
X146810295Y-91039160D01*
X146810295Y-91039160D02*
X146715057Y-91086779D01*
X146715057Y-91086779D02*
X146667438Y-91134398D01*
X146667438Y-91134398D02*
X146619819Y-91229636D01*
X146619819Y-91229636D02*
X146619819Y-91467731D01*
X146619819Y-91467731D02*
X146667438Y-91610588D01*
X146619819Y-91896303D02*
X147619819Y-92229636D01*
X147619819Y-92229636D02*
X146619819Y-92562969D01*
X147619819Y-93039160D02*
X147572200Y-92943922D01*
X147572200Y-92943922D02*
X147524580Y-92896303D01*
X147524580Y-92896303D02*
X147429342Y-92848684D01*
X147429342Y-92848684D02*
X147143628Y-92848684D01*
X147143628Y-92848684D02*
X147048390Y-92896303D01*
X147048390Y-92896303D02*
X147000771Y-92943922D01*
X147000771Y-92943922D02*
X146953152Y-93039160D01*
X146953152Y-93039160D02*
X146953152Y-93182017D01*
X146953152Y-93182017D02*
X147000771Y-93277255D01*
X147000771Y-93277255D02*
X147048390Y-93324874D01*
X147048390Y-93324874D02*
X147143628Y-93372493D01*
X147143628Y-93372493D02*
X147429342Y-93372493D01*
X147429342Y-93372493D02*
X147524580Y-93324874D01*
X147524580Y-93324874D02*
X147572200Y-93277255D01*
X147572200Y-93277255D02*
X147619819Y-93182017D01*
X147619819Y-93182017D02*
X147619819Y-93039160D01*
X144460839Y-91322200D02*
X144317982Y-91369819D01*
X144317982Y-91369819D02*
X144079887Y-91369819D01*
X144079887Y-91369819D02*
X143984649Y-91322200D01*
X143984649Y-91322200D02*
X143937030Y-91274580D01*
X143937030Y-91274580D02*
X143889411Y-91179342D01*
X143889411Y-91179342D02*
X143889411Y-91084104D01*
X143889411Y-91084104D02*
X143937030Y-90988866D01*
X143937030Y-90988866D02*
X143984649Y-90941247D01*
X143984649Y-90941247D02*
X144079887Y-90893628D01*
X144079887Y-90893628D02*
X144270363Y-90846009D01*
X144270363Y-90846009D02*
X144365601Y-90798390D01*
X144365601Y-90798390D02*
X144413220Y-90750771D01*
X144413220Y-90750771D02*
X144460839Y-90655533D01*
X144460839Y-90655533D02*
X144460839Y-90560295D01*
X144460839Y-90560295D02*
X144413220Y-90465057D01*
X144413220Y-90465057D02*
X144365601Y-90417438D01*
X144365601Y-90417438D02*
X144270363Y-90369819D01*
X144270363Y-90369819D02*
X144032268Y-90369819D01*
X144032268Y-90369819D02*
X143889411Y-90417438D01*
X143603696Y-90369819D02*
X143270363Y-91369819D01*
X143270363Y-91369819D02*
X142937030Y-90369819D01*
X142603696Y-91369819D02*
X142603696Y-90703152D01*
X142603696Y-90369819D02*
X142651315Y-90417438D01*
X142651315Y-90417438D02*
X142603696Y-90465057D01*
X142603696Y-90465057D02*
X142556077Y-90417438D01*
X142556077Y-90417438D02*
X142603696Y-90369819D01*
X142603696Y-90369819D02*
X142603696Y-90465057D01*
X146619819Y-93693922D02*
X147619819Y-94027255D01*
X147619819Y-94027255D02*
X146619819Y-94360588D01*
X147238866Y-94693922D02*
X147238866Y-95455827D01*
X144556077Y-92869819D02*
X144222744Y-93869819D01*
X144222744Y-93869819D02*
X143889411Y-92869819D01*
X143556077Y-93488866D02*
X142794173Y-93488866D01*
X143175125Y-93869819D02*
X143175125Y-93107914D01*
X147619819Y-96086779D02*
X146619819Y-96086779D01*
X146619819Y-96086779D02*
X146619819Y-96324874D01*
X146619819Y-96324874D02*
X146667438Y-96467731D01*
X146667438Y-96467731D02*
X146762676Y-96562969D01*
X146762676Y-96562969D02*
X146857914Y-96610588D01*
X146857914Y-96610588D02*
X147048390Y-96658207D01*
X147048390Y-96658207D02*
X147191247Y-96658207D01*
X147191247Y-96658207D02*
X147381723Y-96610588D01*
X147381723Y-96610588D02*
X147476961Y-96562969D01*
X147476961Y-96562969D02*
X147572200Y-96467731D01*
X147572200Y-96467731D02*
X147619819Y-96324874D01*
X147619819Y-96324874D02*
X147619819Y-96086779D01*
X147619819Y-97658207D02*
X147143628Y-97324874D01*
X147619819Y-97086779D02*
X146619819Y-97086779D01*
X146619819Y-97086779D02*
X146619819Y-97467731D01*
X146619819Y-97467731D02*
X146667438Y-97562969D01*
X146667438Y-97562969D02*
X146715057Y-97610588D01*
X146715057Y-97610588D02*
X146810295Y-97658207D01*
X146810295Y-97658207D02*
X146953152Y-97658207D01*
X146953152Y-97658207D02*
X147048390Y-97610588D01*
X147048390Y-97610588D02*
X147096009Y-97562969D01*
X147096009Y-97562969D02*
X147143628Y-97467731D01*
X147143628Y-97467731D02*
X147143628Y-97086779D01*
X146619819Y-97991541D02*
X147619819Y-98658207D01*
X146619819Y-98658207D02*
X147619819Y-97991541D01*
X144413220Y-96369819D02*
X144413220Y-95369819D01*
X144413220Y-95369819D02*
X144175125Y-95369819D01*
X144175125Y-95369819D02*
X144032268Y-95417438D01*
X144032268Y-95417438D02*
X143937030Y-95512676D01*
X143937030Y-95512676D02*
X143889411Y-95607914D01*
X143889411Y-95607914D02*
X143841792Y-95798390D01*
X143841792Y-95798390D02*
X143841792Y-95941247D01*
X143841792Y-95941247D02*
X143889411Y-96131723D01*
X143889411Y-96131723D02*
X143937030Y-96226961D01*
X143937030Y-96226961D02*
X144032268Y-96322200D01*
X144032268Y-96322200D02*
X144175125Y-96369819D01*
X144175125Y-96369819D02*
X144413220Y-96369819D01*
X143556077Y-95369819D02*
X142984649Y-95369819D01*
X143270363Y-96369819D02*
X143270363Y-95369819D01*
X142746553Y-95369819D02*
X142079887Y-96369819D01*
X142079887Y-95369819D02*
X142746553Y-96369819D01*
X148572200Y-99789160D02*
X148619819Y-99932017D01*
X148619819Y-99932017D02*
X148619819Y-100170112D01*
X148619819Y-100170112D02*
X148572200Y-100265350D01*
X148572200Y-100265350D02*
X148524580Y-100312969D01*
X148524580Y-100312969D02*
X148429342Y-100360588D01*
X148429342Y-100360588D02*
X148334104Y-100360588D01*
X148334104Y-100360588D02*
X148238866Y-100312969D01*
X148238866Y-100312969D02*
X148191247Y-100265350D01*
X148191247Y-100265350D02*
X148143628Y-100170112D01*
X148143628Y-100170112D02*
X148096009Y-99979636D01*
X148096009Y-99979636D02*
X148048390Y-99884398D01*
X148048390Y-99884398D02*
X148000771Y-99836779D01*
X148000771Y-99836779D02*
X147905533Y-99789160D01*
X147905533Y-99789160D02*
X147810295Y-99789160D01*
X147810295Y-99789160D02*
X147715057Y-99836779D01*
X147715057Y-99836779D02*
X147667438Y-99884398D01*
X147667438Y-99884398D02*
X147619819Y-99979636D01*
X147619819Y-99979636D02*
X147619819Y-100217731D01*
X147619819Y-100217731D02*
X147667438Y-100360588D01*
X148619819Y-100789160D02*
X147619819Y-100789160D01*
X147619819Y-100789160D02*
X147619819Y-101027255D01*
X147619819Y-101027255D02*
X147667438Y-101170112D01*
X147667438Y-101170112D02*
X147762676Y-101265350D01*
X147762676Y-101265350D02*
X147857914Y-101312969D01*
X147857914Y-101312969D02*
X148048390Y-101360588D01*
X148048390Y-101360588D02*
X148191247Y-101360588D01*
X148191247Y-101360588D02*
X148381723Y-101312969D01*
X148381723Y-101312969D02*
X148476961Y-101265350D01*
X148476961Y-101265350D02*
X148572200Y-101170112D01*
X148572200Y-101170112D02*
X148619819Y-101027255D01*
X148619819Y-101027255D02*
X148619819Y-100789160D01*
X148334104Y-101741541D02*
X148334104Y-102217731D01*
X148619819Y-101646303D02*
X147619819Y-101979636D01*
X147619819Y-101979636D02*
X148619819Y-102312969D01*
X144460839Y-98822200D02*
X144317982Y-98869819D01*
X144317982Y-98869819D02*
X144079887Y-98869819D01*
X144079887Y-98869819D02*
X143984649Y-98822200D01*
X143984649Y-98822200D02*
X143937030Y-98774580D01*
X143937030Y-98774580D02*
X143889411Y-98679342D01*
X143889411Y-98679342D02*
X143889411Y-98584104D01*
X143889411Y-98584104D02*
X143937030Y-98488866D01*
X143937030Y-98488866D02*
X143984649Y-98441247D01*
X143984649Y-98441247D02*
X144079887Y-98393628D01*
X144079887Y-98393628D02*
X144270363Y-98346009D01*
X144270363Y-98346009D02*
X144365601Y-98298390D01*
X144365601Y-98298390D02*
X144413220Y-98250771D01*
X144413220Y-98250771D02*
X144460839Y-98155533D01*
X144460839Y-98155533D02*
X144460839Y-98060295D01*
X144460839Y-98060295D02*
X144413220Y-97965057D01*
X144413220Y-97965057D02*
X144365601Y-97917438D01*
X144365601Y-97917438D02*
X144270363Y-97869819D01*
X144270363Y-97869819D02*
X144032268Y-97869819D01*
X144032268Y-97869819D02*
X143889411Y-97917438D01*
X142889411Y-98774580D02*
X142937030Y-98822200D01*
X142937030Y-98822200D02*
X143079887Y-98869819D01*
X143079887Y-98869819D02*
X143175125Y-98869819D01*
X143175125Y-98869819D02*
X143317982Y-98822200D01*
X143317982Y-98822200D02*
X143413220Y-98726961D01*
X143413220Y-98726961D02*
X143460839Y-98631723D01*
X143460839Y-98631723D02*
X143508458Y-98441247D01*
X143508458Y-98441247D02*
X143508458Y-98298390D01*
X143508458Y-98298390D02*
X143460839Y-98107914D01*
X143460839Y-98107914D02*
X143413220Y-98012676D01*
X143413220Y-98012676D02*
X143317982Y-97917438D01*
X143317982Y-97917438D02*
X143175125Y-97869819D01*
X143175125Y-97869819D02*
X143079887Y-97869819D01*
X143079887Y-97869819D02*
X142937030Y-97917438D01*
X142937030Y-97917438D02*
X142889411Y-97965057D01*
X141984649Y-98869819D02*
X142460839Y-98869819D01*
X142460839Y-98869819D02*
X142460839Y-97869819D01*
X131556077Y-108369819D02*
X131222744Y-109369819D01*
X131222744Y-109369819D02*
X130889411Y-108369819D01*
X130556077Y-108988866D02*
X129794173Y-108988866D01*
X131556077Y-109619819D02*
X131222744Y-110619819D01*
X131222744Y-110619819D02*
X130889411Y-109619819D01*
X130556077Y-110238866D02*
X129794173Y-110238866D01*
X130175125Y-110619819D02*
X130175125Y-109857914D01*
X131556077Y-110869819D02*
X131222744Y-111869819D01*
X131222744Y-111869819D02*
X130889411Y-110869819D01*
X130413220Y-111869819D02*
X130508458Y-111822200D01*
X130508458Y-111822200D02*
X130556077Y-111774580D01*
X130556077Y-111774580D02*
X130603696Y-111679342D01*
X130603696Y-111679342D02*
X130603696Y-111393628D01*
X130603696Y-111393628D02*
X130556077Y-111298390D01*
X130556077Y-111298390D02*
X130508458Y-111250771D01*
X130508458Y-111250771D02*
X130413220Y-111203152D01*
X130413220Y-111203152D02*
X130270363Y-111203152D01*
X130270363Y-111203152D02*
X130175125Y-111250771D01*
X130175125Y-111250771D02*
X130127506Y-111298390D01*
X130127506Y-111298390D02*
X130079887Y-111393628D01*
X130079887Y-111393628D02*
X130079887Y-111679342D01*
X130079887Y-111679342D02*
X130127506Y-111774580D01*
X130127506Y-111774580D02*
X130175125Y-111822200D01*
X130175125Y-111822200D02*
X130270363Y-111869819D01*
X130270363Y-111869819D02*
X130413220Y-111869819D01*
X120091792Y-118619819D02*
X120425125Y-118143628D01*
X120663220Y-118619819D02*
X120663220Y-117619819D01*
X120663220Y-117619819D02*
X120282268Y-117619819D01*
X120282268Y-117619819D02*
X120187030Y-117667438D01*
X120187030Y-117667438D02*
X120139411Y-117715057D01*
X120139411Y-117715057D02*
X120091792Y-117810295D01*
X120091792Y-117810295D02*
X120091792Y-117953152D01*
X120091792Y-117953152D02*
X120139411Y-118048390D01*
X120139411Y-118048390D02*
X120187030Y-118096009D01*
X120187030Y-118096009D02*
X120282268Y-118143628D01*
X120282268Y-118143628D02*
X120663220Y-118143628D01*
X119758458Y-117619819D02*
X119091792Y-118619819D01*
X119091792Y-117619819D02*
X119758458Y-118619819D01*
X120806077Y-118869819D02*
X120234649Y-118869819D01*
X120520363Y-119869819D02*
X120520363Y-118869819D01*
X119996553Y-118869819D02*
X119329887Y-119869819D01*
X119329887Y-118869819D02*
X119996553Y-119869819D01*
X121663220Y-121119819D02*
X121663220Y-120119819D01*
X121663220Y-120119819D02*
X121425125Y-120119819D01*
X121425125Y-120119819D02*
X121282268Y-120167438D01*
X121282268Y-120167438D02*
X121187030Y-120262676D01*
X121187030Y-120262676D02*
X121139411Y-120357914D01*
X121139411Y-120357914D02*
X121091792Y-120548390D01*
X121091792Y-120548390D02*
X121091792Y-120691247D01*
X121091792Y-120691247D02*
X121139411Y-120881723D01*
X121139411Y-120881723D02*
X121187030Y-120976961D01*
X121187030Y-120976961D02*
X121282268Y-121072200D01*
X121282268Y-121072200D02*
X121425125Y-121119819D01*
X121425125Y-121119819D02*
X121663220Y-121119819D01*
X120091792Y-121119819D02*
X120425125Y-120643628D01*
X120663220Y-121119819D02*
X120663220Y-120119819D01*
X120663220Y-120119819D02*
X120282268Y-120119819D01*
X120282268Y-120119819D02*
X120187030Y-120167438D01*
X120187030Y-120167438D02*
X120139411Y-120215057D01*
X120139411Y-120215057D02*
X120091792Y-120310295D01*
X120091792Y-120310295D02*
X120091792Y-120453152D01*
X120091792Y-120453152D02*
X120139411Y-120548390D01*
X120139411Y-120548390D02*
X120187030Y-120596009D01*
X120187030Y-120596009D02*
X120282268Y-120643628D01*
X120282268Y-120643628D02*
X120663220Y-120643628D01*
X119806077Y-120119819D02*
X119472744Y-121119819D01*
X119472744Y-121119819D02*
X119139411Y-120119819D01*
X120806077Y-121369819D02*
X120472744Y-122369819D01*
X120472744Y-122369819D02*
X120139411Y-121369819D01*
X119663220Y-122369819D02*
X119758458Y-122322200D01*
X119758458Y-122322200D02*
X119806077Y-122274580D01*
X119806077Y-122274580D02*
X119853696Y-122179342D01*
X119853696Y-122179342D02*
X119853696Y-121893628D01*
X119853696Y-121893628D02*
X119806077Y-121798390D01*
X119806077Y-121798390D02*
X119758458Y-121750771D01*
X119758458Y-121750771D02*
X119663220Y-121703152D01*
X119663220Y-121703152D02*
X119520363Y-121703152D01*
X119520363Y-121703152D02*
X119425125Y-121750771D01*
X119425125Y-121750771D02*
X119377506Y-121798390D01*
X119377506Y-121798390D02*
X119329887Y-121893628D01*
X119329887Y-121893628D02*
X119329887Y-122179342D01*
X119329887Y-122179342D02*
X119377506Y-122274580D01*
X119377506Y-122274580D02*
X119425125Y-122322200D01*
X119425125Y-122322200D02*
X119520363Y-122369819D01*
X119520363Y-122369819D02*
X119663220Y-122369819D01*
X119437030Y-123369819D02*
X119913220Y-123369819D01*
X119913220Y-123369819D02*
X119960839Y-123846009D01*
X119960839Y-123846009D02*
X119913220Y-123798390D01*
X119913220Y-123798390D02*
X119817982Y-123750771D01*
X119817982Y-123750771D02*
X119579887Y-123750771D01*
X119579887Y-123750771D02*
X119484649Y-123798390D01*
X119484649Y-123798390D02*
X119437030Y-123846009D01*
X119437030Y-123846009D02*
X119389411Y-123941247D01*
X119389411Y-123941247D02*
X119389411Y-124179342D01*
X119389411Y-124179342D02*
X119437030Y-124274580D01*
X119437030Y-124274580D02*
X119484649Y-124322200D01*
X119484649Y-124322200D02*
X119579887Y-124369819D01*
X119579887Y-124369819D02*
X119817982Y-124369819D01*
X119817982Y-124369819D02*
X119913220Y-124322200D01*
X119913220Y-124322200D02*
X119960839Y-124274580D01*
X119103696Y-123369819D02*
X118770363Y-124369819D01*
X118770363Y-124369819D02*
X118437030Y-123369819D01*
X116630180Y-123056077D02*
X115630180Y-122722744D01*
X115630180Y-122722744D02*
X116630180Y-122389411D01*
X116011133Y-122056077D02*
X116011133Y-121294173D01*
X115630180Y-121675125D02*
X116392085Y-121675125D01*
X114630180Y-123056077D02*
X114630180Y-122484649D01*
X113630180Y-122770363D02*
X114630180Y-122770363D01*
X114630180Y-122246553D02*
X113630180Y-121579887D01*
X114630180Y-121579887D02*
X113630180Y-122246553D01*
X111630180Y-122341792D02*
X112106371Y-122675125D01*
X111630180Y-122913220D02*
X112630180Y-122913220D01*
X112630180Y-122913220D02*
X112630180Y-122532268D01*
X112630180Y-122532268D02*
X112582561Y-122437030D01*
X112582561Y-122437030D02*
X112534942Y-122389411D01*
X112534942Y-122389411D02*
X112439704Y-122341792D01*
X112439704Y-122341792D02*
X112296847Y-122341792D01*
X112296847Y-122341792D02*
X112201609Y-122389411D01*
X112201609Y-122389411D02*
X112153990Y-122437030D01*
X112153990Y-122437030D02*
X112106371Y-122532268D01*
X112106371Y-122532268D02*
X112106371Y-122913220D01*
X112630180Y-122008458D02*
X111630180Y-121341792D01*
X112630180Y-121341792D02*
X111630180Y-122008458D01*
X110630180Y-123056077D02*
X109630180Y-122722744D01*
X109630180Y-122722744D02*
X110630180Y-122389411D01*
X110011133Y-122056077D02*
X110011133Y-121294173D01*
X108630180Y-123056077D02*
X107630180Y-122722744D01*
X107630180Y-122722744D02*
X108630180Y-122389411D01*
X108011133Y-122056077D02*
X108011133Y-121294173D01*
X106630180Y-123056077D02*
X105630180Y-122722744D01*
X105630180Y-122722744D02*
X106630180Y-122389411D01*
X106011133Y-122056077D02*
X106011133Y-121294173D01*
X148630180Y-84056077D02*
X147630180Y-83722744D01*
X147630180Y-83722744D02*
X148630180Y-83389411D01*
X148011133Y-83056077D02*
X148011133Y-82294173D01*
X147630180Y-82675125D02*
X148392085Y-82675125D01*
X146130180Y-84056077D02*
X145130180Y-83722744D01*
X145130180Y-83722744D02*
X146130180Y-83389411D01*
X145511133Y-83056077D02*
X145511133Y-82294173D01*
X142677800Y-84960839D02*
X142630180Y-84817982D01*
X142630180Y-84817982D02*
X142630180Y-84579887D01*
X142630180Y-84579887D02*
X142677800Y-84484649D01*
X142677800Y-84484649D02*
X142725419Y-84437030D01*
X142725419Y-84437030D02*
X142820657Y-84389411D01*
X142820657Y-84389411D02*
X142915895Y-84389411D01*
X142915895Y-84389411D02*
X143011133Y-84437030D01*
X143011133Y-84437030D02*
X143058752Y-84484649D01*
X143058752Y-84484649D02*
X143106371Y-84579887D01*
X143106371Y-84579887D02*
X143153990Y-84770363D01*
X143153990Y-84770363D02*
X143201609Y-84865601D01*
X143201609Y-84865601D02*
X143249228Y-84913220D01*
X143249228Y-84913220D02*
X143344466Y-84960839D01*
X143344466Y-84960839D02*
X143439704Y-84960839D01*
X143439704Y-84960839D02*
X143534942Y-84913220D01*
X143534942Y-84913220D02*
X143582561Y-84865601D01*
X143582561Y-84865601D02*
X143630180Y-84770363D01*
X143630180Y-84770363D02*
X143630180Y-84532268D01*
X143630180Y-84532268D02*
X143582561Y-84389411D01*
X142725419Y-83389411D02*
X142677800Y-83437030D01*
X142677800Y-83437030D02*
X142630180Y-83579887D01*
X142630180Y-83579887D02*
X142630180Y-83675125D01*
X142630180Y-83675125D02*
X142677800Y-83817982D01*
X142677800Y-83817982D02*
X142773038Y-83913220D01*
X142773038Y-83913220D02*
X142868276Y-83960839D01*
X142868276Y-83960839D02*
X143058752Y-84008458D01*
X143058752Y-84008458D02*
X143201609Y-84008458D01*
X143201609Y-84008458D02*
X143392085Y-83960839D01*
X143392085Y-83960839D02*
X143487323Y-83913220D01*
X143487323Y-83913220D02*
X143582561Y-83817982D01*
X143582561Y-83817982D02*
X143630180Y-83675125D01*
X143630180Y-83675125D02*
X143630180Y-83579887D01*
X143630180Y-83579887D02*
X143582561Y-83437030D01*
X143582561Y-83437030D02*
X143534942Y-83389411D01*
X142630180Y-82484649D02*
X142630180Y-82960839D01*
X142630180Y-82960839D02*
X143630180Y-82960839D01*
X140177800Y-84960839D02*
X140130180Y-84817982D01*
X140130180Y-84817982D02*
X140130180Y-84579887D01*
X140130180Y-84579887D02*
X140177800Y-84484649D01*
X140177800Y-84484649D02*
X140225419Y-84437030D01*
X140225419Y-84437030D02*
X140320657Y-84389411D01*
X140320657Y-84389411D02*
X140415895Y-84389411D01*
X140415895Y-84389411D02*
X140511133Y-84437030D01*
X140511133Y-84437030D02*
X140558752Y-84484649D01*
X140558752Y-84484649D02*
X140606371Y-84579887D01*
X140606371Y-84579887D02*
X140653990Y-84770363D01*
X140653990Y-84770363D02*
X140701609Y-84865601D01*
X140701609Y-84865601D02*
X140749228Y-84913220D01*
X140749228Y-84913220D02*
X140844466Y-84960839D01*
X140844466Y-84960839D02*
X140939704Y-84960839D01*
X140939704Y-84960839D02*
X141034942Y-84913220D01*
X141034942Y-84913220D02*
X141082561Y-84865601D01*
X141082561Y-84865601D02*
X141130180Y-84770363D01*
X141130180Y-84770363D02*
X141130180Y-84532268D01*
X141130180Y-84532268D02*
X141082561Y-84389411D01*
X140130180Y-83960839D02*
X141130180Y-83960839D01*
X141130180Y-83960839D02*
X141130180Y-83722744D01*
X141130180Y-83722744D02*
X141082561Y-83579887D01*
X141082561Y-83579887D02*
X140987323Y-83484649D01*
X140987323Y-83484649D02*
X140892085Y-83437030D01*
X140892085Y-83437030D02*
X140701609Y-83389411D01*
X140701609Y-83389411D02*
X140558752Y-83389411D01*
X140558752Y-83389411D02*
X140368276Y-83437030D01*
X140368276Y-83437030D02*
X140273038Y-83484649D01*
X140273038Y-83484649D02*
X140177800Y-83579887D01*
X140177800Y-83579887D02*
X140130180Y-83722744D01*
X140130180Y-83722744D02*
X140130180Y-83960839D01*
X140415895Y-83008458D02*
X140415895Y-82532268D01*
X140130180Y-83103696D02*
X141130180Y-82770363D01*
X141130180Y-82770363D02*
X140130180Y-82437030D01*
X138630180Y-85056077D02*
X137630180Y-84722744D01*
X137630180Y-84722744D02*
X138630180Y-84389411D01*
X137630180Y-84056077D02*
X138296847Y-84056077D01*
X138630180Y-84056077D02*
X138582561Y-84103696D01*
X138582561Y-84103696D02*
X138534942Y-84056077D01*
X138534942Y-84056077D02*
X138582561Y-84008458D01*
X138582561Y-84008458D02*
X138630180Y-84056077D01*
X138630180Y-84056077D02*
X138534942Y-84056077D01*
X138296847Y-83579887D02*
X137630180Y-83579887D01*
X138201609Y-83579887D02*
X138249228Y-83532268D01*
X138249228Y-83532268D02*
X138296847Y-83437030D01*
X138296847Y-83437030D02*
X138296847Y-83294173D01*
X138296847Y-83294173D02*
X138249228Y-83198935D01*
X138249228Y-83198935D02*
X138153990Y-83151316D01*
X138153990Y-83151316D02*
X137630180Y-83151316D01*
X138011133Y-82675125D02*
X138011133Y-81913221D01*
X136130180Y-85056077D02*
X135130180Y-84722744D01*
X135130180Y-84722744D02*
X136130180Y-84389411D01*
X135130180Y-84056077D02*
X135796847Y-84056077D01*
X136130180Y-84056077D02*
X136082561Y-84103696D01*
X136082561Y-84103696D02*
X136034942Y-84056077D01*
X136034942Y-84056077D02*
X136082561Y-84008458D01*
X136082561Y-84008458D02*
X136130180Y-84056077D01*
X136130180Y-84056077D02*
X136034942Y-84056077D01*
X135796847Y-83579887D02*
X135130180Y-83579887D01*
X135701609Y-83579887D02*
X135749228Y-83532268D01*
X135749228Y-83532268D02*
X135796847Y-83437030D01*
X135796847Y-83437030D02*
X135796847Y-83294173D01*
X135796847Y-83294173D02*
X135749228Y-83198935D01*
X135749228Y-83198935D02*
X135653990Y-83151316D01*
X135653990Y-83151316D02*
X135130180Y-83151316D01*
X135511133Y-82675125D02*
X135511133Y-81913221D01*
X135130180Y-82294173D02*
X135892085Y-82294173D01*
X133380180Y-84056077D02*
X132380180Y-83722744D01*
X132380180Y-83722744D02*
X133380180Y-83389411D01*
X132761133Y-83056077D02*
X132761133Y-82294173D01*
X132380180Y-82675125D02*
X133142085Y-82675125D01*
X130880180Y-84056077D02*
X129880180Y-83722744D01*
X129880180Y-83722744D02*
X130880180Y-83389411D01*
X130261133Y-83056077D02*
X130261133Y-82294173D01*
X127380180Y-84663220D02*
X128380180Y-84663220D01*
X128380180Y-84663220D02*
X128380180Y-84425125D01*
X128380180Y-84425125D02*
X128332561Y-84282268D01*
X128332561Y-84282268D02*
X128237323Y-84187030D01*
X128237323Y-84187030D02*
X128142085Y-84139411D01*
X128142085Y-84139411D02*
X127951609Y-84091792D01*
X127951609Y-84091792D02*
X127808752Y-84091792D01*
X127808752Y-84091792D02*
X127618276Y-84139411D01*
X127618276Y-84139411D02*
X127523038Y-84187030D01*
X127523038Y-84187030D02*
X127427800Y-84282268D01*
X127427800Y-84282268D02*
X127380180Y-84425125D01*
X127380180Y-84425125D02*
X127380180Y-84663220D01*
X127380180Y-83139411D02*
X127380180Y-83710839D01*
X127380180Y-83425125D02*
X128380180Y-83425125D01*
X128380180Y-83425125D02*
X128237323Y-83520363D01*
X128237323Y-83520363D02*
X128142085Y-83615601D01*
X128142085Y-83615601D02*
X128094466Y-83710839D01*
X128380180Y-82234649D02*
X128380180Y-82710839D01*
X128380180Y-82710839D02*
X127903990Y-82758458D01*
X127903990Y-82758458D02*
X127951609Y-82710839D01*
X127951609Y-82710839D02*
X127999228Y-82615601D01*
X127999228Y-82615601D02*
X127999228Y-82377506D01*
X127999228Y-82377506D02*
X127951609Y-82282268D01*
X127951609Y-82282268D02*
X127903990Y-82234649D01*
X127903990Y-82234649D02*
X127808752Y-82187030D01*
X127808752Y-82187030D02*
X127570657Y-82187030D01*
X127570657Y-82187030D02*
X127475419Y-82234649D01*
X127475419Y-82234649D02*
X127427800Y-82282268D01*
X127427800Y-82282268D02*
X127380180Y-82377506D01*
X127380180Y-82377506D02*
X127380180Y-82615601D01*
X127380180Y-82615601D02*
X127427800Y-82710839D01*
X127427800Y-82710839D02*
X127475419Y-82758458D01*
X125165895Y-84710839D02*
X125165895Y-84234649D01*
X124880180Y-84806077D02*
X125880180Y-84472744D01*
X125880180Y-84472744D02*
X124880180Y-84139411D01*
X124880180Y-83806077D02*
X125880180Y-83806077D01*
X125880180Y-83806077D02*
X125880180Y-83567982D01*
X125880180Y-83567982D02*
X125832561Y-83425125D01*
X125832561Y-83425125D02*
X125737323Y-83329887D01*
X125737323Y-83329887D02*
X125642085Y-83282268D01*
X125642085Y-83282268D02*
X125451609Y-83234649D01*
X125451609Y-83234649D02*
X125308752Y-83234649D01*
X125308752Y-83234649D02*
X125118276Y-83282268D01*
X125118276Y-83282268D02*
X125023038Y-83329887D01*
X125023038Y-83329887D02*
X124927800Y-83425125D01*
X124927800Y-83425125D02*
X124880180Y-83567982D01*
X124880180Y-83567982D02*
X124880180Y-83806077D01*
X124880180Y-82806077D02*
X125880180Y-82806077D01*
X125880180Y-82806077D02*
X125880180Y-82567982D01*
X125880180Y-82567982D02*
X125832561Y-82425125D01*
X125832561Y-82425125D02*
X125737323Y-82329887D01*
X125737323Y-82329887D02*
X125642085Y-82282268D01*
X125642085Y-82282268D02*
X125451609Y-82234649D01*
X125451609Y-82234649D02*
X125308752Y-82234649D01*
X125308752Y-82234649D02*
X125118276Y-82282268D01*
X125118276Y-82282268D02*
X125023038Y-82329887D01*
X125023038Y-82329887D02*
X124927800Y-82425125D01*
X124927800Y-82425125D02*
X124880180Y-82567982D01*
X124880180Y-82567982D02*
X124880180Y-82806077D01*
X124880180Y-81234649D02*
X125356371Y-81567982D01*
X124880180Y-81806077D02*
X125880180Y-81806077D01*
X125880180Y-81806077D02*
X125880180Y-81425125D01*
X125880180Y-81425125D02*
X125832561Y-81329887D01*
X125832561Y-81329887D02*
X125784942Y-81282268D01*
X125784942Y-81282268D02*
X125689704Y-81234649D01*
X125689704Y-81234649D02*
X125546847Y-81234649D01*
X125546847Y-81234649D02*
X125451609Y-81282268D01*
X125451609Y-81282268D02*
X125403990Y-81329887D01*
X125403990Y-81329887D02*
X125356371Y-81425125D01*
X125356371Y-81425125D02*
X125356371Y-81806077D01*
X122427800Y-84710839D02*
X122380180Y-84567982D01*
X122380180Y-84567982D02*
X122380180Y-84329887D01*
X122380180Y-84329887D02*
X122427800Y-84234649D01*
X122427800Y-84234649D02*
X122475419Y-84187030D01*
X122475419Y-84187030D02*
X122570657Y-84139411D01*
X122570657Y-84139411D02*
X122665895Y-84139411D01*
X122665895Y-84139411D02*
X122761133Y-84187030D01*
X122761133Y-84187030D02*
X122808752Y-84234649D01*
X122808752Y-84234649D02*
X122856371Y-84329887D01*
X122856371Y-84329887D02*
X122903990Y-84520363D01*
X122903990Y-84520363D02*
X122951609Y-84615601D01*
X122951609Y-84615601D02*
X122999228Y-84663220D01*
X122999228Y-84663220D02*
X123094466Y-84710839D01*
X123094466Y-84710839D02*
X123189704Y-84710839D01*
X123189704Y-84710839D02*
X123284942Y-84663220D01*
X123284942Y-84663220D02*
X123332561Y-84615601D01*
X123332561Y-84615601D02*
X123380180Y-84520363D01*
X123380180Y-84520363D02*
X123380180Y-84282268D01*
X123380180Y-84282268D02*
X123332561Y-84139411D01*
X122475419Y-83139411D02*
X122427800Y-83187030D01*
X122427800Y-83187030D02*
X122380180Y-83329887D01*
X122380180Y-83329887D02*
X122380180Y-83425125D01*
X122380180Y-83425125D02*
X122427800Y-83567982D01*
X122427800Y-83567982D02*
X122523038Y-83663220D01*
X122523038Y-83663220D02*
X122618276Y-83710839D01*
X122618276Y-83710839D02*
X122808752Y-83758458D01*
X122808752Y-83758458D02*
X122951609Y-83758458D01*
X122951609Y-83758458D02*
X123142085Y-83710839D01*
X123142085Y-83710839D02*
X123237323Y-83663220D01*
X123237323Y-83663220D02*
X123332561Y-83567982D01*
X123332561Y-83567982D02*
X123380180Y-83425125D01*
X123380180Y-83425125D02*
X123380180Y-83329887D01*
X123380180Y-83329887D02*
X123332561Y-83187030D01*
X123332561Y-83187030D02*
X123284942Y-83139411D01*
X122380180Y-82234649D02*
X122380180Y-82710839D01*
X122380180Y-82710839D02*
X123380180Y-82710839D01*
X119927800Y-84710839D02*
X119880180Y-84567982D01*
X119880180Y-84567982D02*
X119880180Y-84329887D01*
X119880180Y-84329887D02*
X119927800Y-84234649D01*
X119927800Y-84234649D02*
X119975419Y-84187030D01*
X119975419Y-84187030D02*
X120070657Y-84139411D01*
X120070657Y-84139411D02*
X120165895Y-84139411D01*
X120165895Y-84139411D02*
X120261133Y-84187030D01*
X120261133Y-84187030D02*
X120308752Y-84234649D01*
X120308752Y-84234649D02*
X120356371Y-84329887D01*
X120356371Y-84329887D02*
X120403990Y-84520363D01*
X120403990Y-84520363D02*
X120451609Y-84615601D01*
X120451609Y-84615601D02*
X120499228Y-84663220D01*
X120499228Y-84663220D02*
X120594466Y-84710839D01*
X120594466Y-84710839D02*
X120689704Y-84710839D01*
X120689704Y-84710839D02*
X120784942Y-84663220D01*
X120784942Y-84663220D02*
X120832561Y-84615601D01*
X120832561Y-84615601D02*
X120880180Y-84520363D01*
X120880180Y-84520363D02*
X120880180Y-84282268D01*
X120880180Y-84282268D02*
X120832561Y-84139411D01*
X119880180Y-83710839D02*
X120880180Y-83710839D01*
X120880180Y-83710839D02*
X120880180Y-83472744D01*
X120880180Y-83472744D02*
X120832561Y-83329887D01*
X120832561Y-83329887D02*
X120737323Y-83234649D01*
X120737323Y-83234649D02*
X120642085Y-83187030D01*
X120642085Y-83187030D02*
X120451609Y-83139411D01*
X120451609Y-83139411D02*
X120308752Y-83139411D01*
X120308752Y-83139411D02*
X120118276Y-83187030D01*
X120118276Y-83187030D02*
X120023038Y-83234649D01*
X120023038Y-83234649D02*
X119927800Y-83329887D01*
X119927800Y-83329887D02*
X119880180Y-83472744D01*
X119880180Y-83472744D02*
X119880180Y-83710839D01*
X120165895Y-82758458D02*
X120165895Y-82282268D01*
X119880180Y-82853696D02*
X120880180Y-82520363D01*
X120880180Y-82520363D02*
X119880180Y-82187030D01*
X118130180Y-84056077D02*
X117130180Y-83722744D01*
X117130180Y-83722744D02*
X118130180Y-83389411D01*
X117511133Y-83056077D02*
X117511133Y-82294173D01*
X115630180Y-84056077D02*
X114630180Y-83722744D01*
X114630180Y-83722744D02*
X115630180Y-83389411D01*
X115011133Y-83056077D02*
X115011133Y-82294173D01*
X114630180Y-82675125D02*
X115392085Y-82675125D01*
X112130180Y-84663220D02*
X113130180Y-84663220D01*
X113130180Y-84663220D02*
X113130180Y-84282268D01*
X113130180Y-84282268D02*
X113082561Y-84187030D01*
X113082561Y-84187030D02*
X113034942Y-84139411D01*
X113034942Y-84139411D02*
X112939704Y-84091792D01*
X112939704Y-84091792D02*
X112796847Y-84091792D01*
X112796847Y-84091792D02*
X112701609Y-84139411D01*
X112701609Y-84139411D02*
X112653990Y-84187030D01*
X112653990Y-84187030D02*
X112606371Y-84282268D01*
X112606371Y-84282268D02*
X112606371Y-84663220D01*
X112130180Y-83663220D02*
X113130180Y-83663220D01*
X113130180Y-83663220D02*
X113130180Y-83425125D01*
X113130180Y-83425125D02*
X113082561Y-83282268D01*
X113082561Y-83282268D02*
X112987323Y-83187030D01*
X112987323Y-83187030D02*
X112892085Y-83139411D01*
X112892085Y-83139411D02*
X112701609Y-83091792D01*
X112701609Y-83091792D02*
X112558752Y-83091792D01*
X112558752Y-83091792D02*
X112368276Y-83139411D01*
X112368276Y-83139411D02*
X112273038Y-83187030D01*
X112273038Y-83187030D02*
X112177800Y-83282268D01*
X112177800Y-83282268D02*
X112130180Y-83425125D01*
X112130180Y-83425125D02*
X112130180Y-83663220D01*
X113034942Y-82710839D02*
X113082561Y-82663220D01*
X113082561Y-82663220D02*
X113130180Y-82567982D01*
X113130180Y-82567982D02*
X113130180Y-82329887D01*
X113130180Y-82329887D02*
X113082561Y-82234649D01*
X113082561Y-82234649D02*
X113034942Y-82187030D01*
X113034942Y-82187030D02*
X112939704Y-82139411D01*
X112939704Y-82139411D02*
X112844466Y-82139411D01*
X112844466Y-82139411D02*
X112701609Y-82187030D01*
X112701609Y-82187030D02*
X112130180Y-82758458D01*
X112130180Y-82758458D02*
X112130180Y-82139411D01*
X110630180Y-84056077D02*
X109630180Y-83722744D01*
X109630180Y-83722744D02*
X110630180Y-83389411D01*
X110011133Y-83056077D02*
X110011133Y-82294173D01*
X109630180Y-82675125D02*
X110392085Y-82675125D01*
X108130180Y-84056077D02*
X107130180Y-83722744D01*
X107130180Y-83722744D02*
X108130180Y-83389411D01*
X107511133Y-83056077D02*
X107511133Y-82294173D01*
X104427800Y-84710839D02*
X104380180Y-84567982D01*
X104380180Y-84567982D02*
X104380180Y-84329887D01*
X104380180Y-84329887D02*
X104427800Y-84234649D01*
X104427800Y-84234649D02*
X104475419Y-84187030D01*
X104475419Y-84187030D02*
X104570657Y-84139411D01*
X104570657Y-84139411D02*
X104665895Y-84139411D01*
X104665895Y-84139411D02*
X104761133Y-84187030D01*
X104761133Y-84187030D02*
X104808752Y-84234649D01*
X104808752Y-84234649D02*
X104856371Y-84329887D01*
X104856371Y-84329887D02*
X104903990Y-84520363D01*
X104903990Y-84520363D02*
X104951609Y-84615601D01*
X104951609Y-84615601D02*
X104999228Y-84663220D01*
X104999228Y-84663220D02*
X105094466Y-84710839D01*
X105094466Y-84710839D02*
X105189704Y-84710839D01*
X105189704Y-84710839D02*
X105284942Y-84663220D01*
X105284942Y-84663220D02*
X105332561Y-84615601D01*
X105332561Y-84615601D02*
X105380180Y-84520363D01*
X105380180Y-84520363D02*
X105380180Y-84282268D01*
X105380180Y-84282268D02*
X105332561Y-84139411D01*
X104380180Y-83710839D02*
X105380180Y-83710839D01*
X105380180Y-83710839D02*
X105380180Y-83472744D01*
X105380180Y-83472744D02*
X105332561Y-83329887D01*
X105332561Y-83329887D02*
X105237323Y-83234649D01*
X105237323Y-83234649D02*
X105142085Y-83187030D01*
X105142085Y-83187030D02*
X104951609Y-83139411D01*
X104951609Y-83139411D02*
X104808752Y-83139411D01*
X104808752Y-83139411D02*
X104618276Y-83187030D01*
X104618276Y-83187030D02*
X104523038Y-83234649D01*
X104523038Y-83234649D02*
X104427800Y-83329887D01*
X104427800Y-83329887D02*
X104380180Y-83472744D01*
X104380180Y-83472744D02*
X104380180Y-83710839D01*
X104665895Y-82758458D02*
X104665895Y-82282268D01*
X104380180Y-82853696D02*
X105380180Y-82520363D01*
X105380180Y-82520363D02*
X104380180Y-82187030D01*
X101927800Y-84710839D02*
X101880180Y-84567982D01*
X101880180Y-84567982D02*
X101880180Y-84329887D01*
X101880180Y-84329887D02*
X101927800Y-84234649D01*
X101927800Y-84234649D02*
X101975419Y-84187030D01*
X101975419Y-84187030D02*
X102070657Y-84139411D01*
X102070657Y-84139411D02*
X102165895Y-84139411D01*
X102165895Y-84139411D02*
X102261133Y-84187030D01*
X102261133Y-84187030D02*
X102308752Y-84234649D01*
X102308752Y-84234649D02*
X102356371Y-84329887D01*
X102356371Y-84329887D02*
X102403990Y-84520363D01*
X102403990Y-84520363D02*
X102451609Y-84615601D01*
X102451609Y-84615601D02*
X102499228Y-84663220D01*
X102499228Y-84663220D02*
X102594466Y-84710839D01*
X102594466Y-84710839D02*
X102689704Y-84710839D01*
X102689704Y-84710839D02*
X102784942Y-84663220D01*
X102784942Y-84663220D02*
X102832561Y-84615601D01*
X102832561Y-84615601D02*
X102880180Y-84520363D01*
X102880180Y-84520363D02*
X102880180Y-84282268D01*
X102880180Y-84282268D02*
X102832561Y-84139411D01*
X101975419Y-83139411D02*
X101927800Y-83187030D01*
X101927800Y-83187030D02*
X101880180Y-83329887D01*
X101880180Y-83329887D02*
X101880180Y-83425125D01*
X101880180Y-83425125D02*
X101927800Y-83567982D01*
X101927800Y-83567982D02*
X102023038Y-83663220D01*
X102023038Y-83663220D02*
X102118276Y-83710839D01*
X102118276Y-83710839D02*
X102308752Y-83758458D01*
X102308752Y-83758458D02*
X102451609Y-83758458D01*
X102451609Y-83758458D02*
X102642085Y-83710839D01*
X102642085Y-83710839D02*
X102737323Y-83663220D01*
X102737323Y-83663220D02*
X102832561Y-83567982D01*
X102832561Y-83567982D02*
X102880180Y-83425125D01*
X102880180Y-83425125D02*
X102880180Y-83329887D01*
X102880180Y-83329887D02*
X102832561Y-83187030D01*
X102832561Y-83187030D02*
X102784942Y-83139411D01*
X101880180Y-82234649D02*
X101880180Y-82710839D01*
X101880180Y-82710839D02*
X102880180Y-82710839D01*
X102880180Y-79806077D02*
X101880180Y-79472744D01*
X101880180Y-79472744D02*
X102880180Y-79139411D01*
X102261133Y-78806077D02*
X102261133Y-78044173D01*
X101880180Y-78425125D02*
X102642085Y-78425125D01*
X105630180Y-79806077D02*
X104630180Y-79472744D01*
X104630180Y-79472744D02*
X105630180Y-79139411D01*
X105011133Y-78806077D02*
X105011133Y-78044173D01*
X108130180Y-79806077D02*
X107130180Y-79472744D01*
X107130180Y-79472744D02*
X108130180Y-79139411D01*
X107511133Y-78806077D02*
X107511133Y-78044173D01*
X107130180Y-78425125D02*
X107892085Y-78425125D01*
X109677800Y-80460839D02*
X109630180Y-80317982D01*
X109630180Y-80317982D02*
X109630180Y-80079887D01*
X109630180Y-80079887D02*
X109677800Y-79984649D01*
X109677800Y-79984649D02*
X109725419Y-79937030D01*
X109725419Y-79937030D02*
X109820657Y-79889411D01*
X109820657Y-79889411D02*
X109915895Y-79889411D01*
X109915895Y-79889411D02*
X110011133Y-79937030D01*
X110011133Y-79937030D02*
X110058752Y-79984649D01*
X110058752Y-79984649D02*
X110106371Y-80079887D01*
X110106371Y-80079887D02*
X110153990Y-80270363D01*
X110153990Y-80270363D02*
X110201609Y-80365601D01*
X110201609Y-80365601D02*
X110249228Y-80413220D01*
X110249228Y-80413220D02*
X110344466Y-80460839D01*
X110344466Y-80460839D02*
X110439704Y-80460839D01*
X110439704Y-80460839D02*
X110534942Y-80413220D01*
X110534942Y-80413220D02*
X110582561Y-80365601D01*
X110582561Y-80365601D02*
X110630180Y-80270363D01*
X110630180Y-80270363D02*
X110630180Y-80032268D01*
X110630180Y-80032268D02*
X110582561Y-79889411D01*
X109630180Y-79460839D02*
X110630180Y-79460839D01*
X110630180Y-79460839D02*
X110630180Y-79222744D01*
X110630180Y-79222744D02*
X110582561Y-79079887D01*
X110582561Y-79079887D02*
X110487323Y-78984649D01*
X110487323Y-78984649D02*
X110392085Y-78937030D01*
X110392085Y-78937030D02*
X110201609Y-78889411D01*
X110201609Y-78889411D02*
X110058752Y-78889411D01*
X110058752Y-78889411D02*
X109868276Y-78937030D01*
X109868276Y-78937030D02*
X109773038Y-78984649D01*
X109773038Y-78984649D02*
X109677800Y-79079887D01*
X109677800Y-79079887D02*
X109630180Y-79222744D01*
X109630180Y-79222744D02*
X109630180Y-79460839D01*
X109915895Y-78508458D02*
X109915895Y-78032268D01*
X109630180Y-78603696D02*
X110630180Y-78270363D01*
X110630180Y-78270363D02*
X109630180Y-77937030D01*
X112177800Y-80460839D02*
X112130180Y-80317982D01*
X112130180Y-80317982D02*
X112130180Y-80079887D01*
X112130180Y-80079887D02*
X112177800Y-79984649D01*
X112177800Y-79984649D02*
X112225419Y-79937030D01*
X112225419Y-79937030D02*
X112320657Y-79889411D01*
X112320657Y-79889411D02*
X112415895Y-79889411D01*
X112415895Y-79889411D02*
X112511133Y-79937030D01*
X112511133Y-79937030D02*
X112558752Y-79984649D01*
X112558752Y-79984649D02*
X112606371Y-80079887D01*
X112606371Y-80079887D02*
X112653990Y-80270363D01*
X112653990Y-80270363D02*
X112701609Y-80365601D01*
X112701609Y-80365601D02*
X112749228Y-80413220D01*
X112749228Y-80413220D02*
X112844466Y-80460839D01*
X112844466Y-80460839D02*
X112939704Y-80460839D01*
X112939704Y-80460839D02*
X113034942Y-80413220D01*
X113034942Y-80413220D02*
X113082561Y-80365601D01*
X113082561Y-80365601D02*
X113130180Y-80270363D01*
X113130180Y-80270363D02*
X113130180Y-80032268D01*
X113130180Y-80032268D02*
X113082561Y-79889411D01*
X112225419Y-78889411D02*
X112177800Y-78937030D01*
X112177800Y-78937030D02*
X112130180Y-79079887D01*
X112130180Y-79079887D02*
X112130180Y-79175125D01*
X112130180Y-79175125D02*
X112177800Y-79317982D01*
X112177800Y-79317982D02*
X112273038Y-79413220D01*
X112273038Y-79413220D02*
X112368276Y-79460839D01*
X112368276Y-79460839D02*
X112558752Y-79508458D01*
X112558752Y-79508458D02*
X112701609Y-79508458D01*
X112701609Y-79508458D02*
X112892085Y-79460839D01*
X112892085Y-79460839D02*
X112987323Y-79413220D01*
X112987323Y-79413220D02*
X113082561Y-79317982D01*
X113082561Y-79317982D02*
X113130180Y-79175125D01*
X113130180Y-79175125D02*
X113130180Y-79079887D01*
X113130180Y-79079887D02*
X113082561Y-78937030D01*
X113082561Y-78937030D02*
X113034942Y-78889411D01*
X112130180Y-77984649D02*
X112130180Y-78460839D01*
X112130180Y-78460839D02*
X113130180Y-78460839D01*
X118130180Y-79806077D02*
X117130180Y-79472744D01*
X117130180Y-79472744D02*
X118130180Y-79139411D01*
X117511133Y-78806077D02*
X117511133Y-78044173D01*
X123380180Y-79806077D02*
X122380180Y-79472744D01*
X122380180Y-79472744D02*
X123380180Y-79139411D01*
X122761133Y-78806077D02*
X122761133Y-78044173D01*
X122380180Y-78425125D02*
X123142085Y-78425125D01*
X124880180Y-80663220D02*
X125880180Y-80663220D01*
X125880180Y-80663220D02*
X125880180Y-80425125D01*
X125880180Y-80425125D02*
X125832561Y-80282268D01*
X125832561Y-80282268D02*
X125737323Y-80187030D01*
X125737323Y-80187030D02*
X125642085Y-80139411D01*
X125642085Y-80139411D02*
X125451609Y-80091792D01*
X125451609Y-80091792D02*
X125308752Y-80091792D01*
X125308752Y-80091792D02*
X125118276Y-80139411D01*
X125118276Y-80139411D02*
X125023038Y-80187030D01*
X125023038Y-80187030D02*
X124927800Y-80282268D01*
X124927800Y-80282268D02*
X124880180Y-80425125D01*
X124880180Y-80425125D02*
X124880180Y-80663220D01*
X125880180Y-79472744D02*
X125880180Y-79282268D01*
X125880180Y-79282268D02*
X125832561Y-79187030D01*
X125832561Y-79187030D02*
X125737323Y-79091792D01*
X125737323Y-79091792D02*
X125546847Y-79044173D01*
X125546847Y-79044173D02*
X125213514Y-79044173D01*
X125213514Y-79044173D02*
X125023038Y-79091792D01*
X125023038Y-79091792D02*
X124927800Y-79187030D01*
X124927800Y-79187030D02*
X124880180Y-79282268D01*
X124880180Y-79282268D02*
X124880180Y-79472744D01*
X124880180Y-79472744D02*
X124927800Y-79567982D01*
X124927800Y-79567982D02*
X125023038Y-79663220D01*
X125023038Y-79663220D02*
X125213514Y-79710839D01*
X125213514Y-79710839D02*
X125546847Y-79710839D01*
X125546847Y-79710839D02*
X125737323Y-79663220D01*
X125737323Y-79663220D02*
X125832561Y-79567982D01*
X125832561Y-79567982D02*
X125880180Y-79472744D01*
X124880180Y-78615601D02*
X125880180Y-78615601D01*
X125880180Y-78615601D02*
X124880180Y-78044173D01*
X124880180Y-78044173D02*
X125880180Y-78044173D01*
X125403990Y-77567982D02*
X125403990Y-77234649D01*
X124880180Y-77091792D02*
X124880180Y-77567982D01*
X124880180Y-77567982D02*
X125880180Y-77567982D01*
X125880180Y-77567982D02*
X125880180Y-77091792D01*
X130880180Y-79806077D02*
X129880180Y-79472744D01*
X129880180Y-79472744D02*
X130880180Y-79139411D01*
X130261133Y-78806077D02*
X130261133Y-78044173D01*
X129880180Y-78425125D02*
X130642085Y-78425125D01*
X133380180Y-79806077D02*
X132380180Y-79472744D01*
X132380180Y-79472744D02*
X133380180Y-79139411D01*
X132761133Y-78806077D02*
X132761133Y-78044173D01*
X142677800Y-80210839D02*
X142630180Y-80067982D01*
X142630180Y-80067982D02*
X142630180Y-79829887D01*
X142630180Y-79829887D02*
X142677800Y-79734649D01*
X142677800Y-79734649D02*
X142725419Y-79687030D01*
X142725419Y-79687030D02*
X142820657Y-79639411D01*
X142820657Y-79639411D02*
X142915895Y-79639411D01*
X142915895Y-79639411D02*
X143011133Y-79687030D01*
X143011133Y-79687030D02*
X143058752Y-79734649D01*
X143058752Y-79734649D02*
X143106371Y-79829887D01*
X143106371Y-79829887D02*
X143153990Y-80020363D01*
X143153990Y-80020363D02*
X143201609Y-80115601D01*
X143201609Y-80115601D02*
X143249228Y-80163220D01*
X143249228Y-80163220D02*
X143344466Y-80210839D01*
X143344466Y-80210839D02*
X143439704Y-80210839D01*
X143439704Y-80210839D02*
X143534942Y-80163220D01*
X143534942Y-80163220D02*
X143582561Y-80115601D01*
X143582561Y-80115601D02*
X143630180Y-80020363D01*
X143630180Y-80020363D02*
X143630180Y-79782268D01*
X143630180Y-79782268D02*
X143582561Y-79639411D01*
X142725419Y-78639411D02*
X142677800Y-78687030D01*
X142677800Y-78687030D02*
X142630180Y-78829887D01*
X142630180Y-78829887D02*
X142630180Y-78925125D01*
X142630180Y-78925125D02*
X142677800Y-79067982D01*
X142677800Y-79067982D02*
X142773038Y-79163220D01*
X142773038Y-79163220D02*
X142868276Y-79210839D01*
X142868276Y-79210839D02*
X143058752Y-79258458D01*
X143058752Y-79258458D02*
X143201609Y-79258458D01*
X143201609Y-79258458D02*
X143392085Y-79210839D01*
X143392085Y-79210839D02*
X143487323Y-79163220D01*
X143487323Y-79163220D02*
X143582561Y-79067982D01*
X143582561Y-79067982D02*
X143630180Y-78925125D01*
X143630180Y-78925125D02*
X143630180Y-78829887D01*
X143630180Y-78829887D02*
X143582561Y-78687030D01*
X143582561Y-78687030D02*
X143534942Y-78639411D01*
X142630180Y-78210839D02*
X143630180Y-78210839D01*
X142630180Y-77639411D02*
X143201609Y-78067982D01*
X143630180Y-77639411D02*
X143058752Y-78210839D01*
X148630180Y-79806077D02*
X147630180Y-79472744D01*
X147630180Y-79472744D02*
X148630180Y-79139411D01*
X148011133Y-78806077D02*
X148011133Y-78044173D01*
X140130180Y-80663220D02*
X141130180Y-80663220D01*
X141130180Y-80663220D02*
X140415895Y-80329887D01*
X140415895Y-80329887D02*
X141130180Y-79996554D01*
X141130180Y-79996554D02*
X140130180Y-79996554D01*
X141130180Y-79329887D02*
X141130180Y-79139411D01*
X141130180Y-79139411D02*
X141082561Y-79044173D01*
X141082561Y-79044173D02*
X140987323Y-78948935D01*
X140987323Y-78948935D02*
X140796847Y-78901316D01*
X140796847Y-78901316D02*
X140463514Y-78901316D01*
X140463514Y-78901316D02*
X140273038Y-78948935D01*
X140273038Y-78948935D02*
X140177800Y-79044173D01*
X140177800Y-79044173D02*
X140130180Y-79139411D01*
X140130180Y-79139411D02*
X140130180Y-79329887D01*
X140130180Y-79329887D02*
X140177800Y-79425125D01*
X140177800Y-79425125D02*
X140273038Y-79520363D01*
X140273038Y-79520363D02*
X140463514Y-79567982D01*
X140463514Y-79567982D02*
X140796847Y-79567982D01*
X140796847Y-79567982D02*
X140987323Y-79520363D01*
X140987323Y-79520363D02*
X141082561Y-79425125D01*
X141082561Y-79425125D02*
X141130180Y-79329887D01*
X140177800Y-78520363D02*
X140130180Y-78377506D01*
X140130180Y-78377506D02*
X140130180Y-78139411D01*
X140130180Y-78139411D02*
X140177800Y-78044173D01*
X140177800Y-78044173D02*
X140225419Y-77996554D01*
X140225419Y-77996554D02*
X140320657Y-77948935D01*
X140320657Y-77948935D02*
X140415895Y-77948935D01*
X140415895Y-77948935D02*
X140511133Y-77996554D01*
X140511133Y-77996554D02*
X140558752Y-78044173D01*
X140558752Y-78044173D02*
X140606371Y-78139411D01*
X140606371Y-78139411D02*
X140653990Y-78329887D01*
X140653990Y-78329887D02*
X140701609Y-78425125D01*
X140701609Y-78425125D02*
X140749228Y-78472744D01*
X140749228Y-78472744D02*
X140844466Y-78520363D01*
X140844466Y-78520363D02*
X140939704Y-78520363D01*
X140939704Y-78520363D02*
X141034942Y-78472744D01*
X141034942Y-78472744D02*
X141082561Y-78425125D01*
X141082561Y-78425125D02*
X141130180Y-78329887D01*
X141130180Y-78329887D02*
X141130180Y-78091792D01*
X141130180Y-78091792D02*
X141082561Y-77948935D01*
X140130180Y-77520363D02*
X141130180Y-77520363D01*
X146130180Y-79806077D02*
X145130180Y-79472744D01*
X145130180Y-79472744D02*
X146130180Y-79139411D01*
X145511133Y-78806077D02*
X145511133Y-78044173D01*
X145130180Y-78425125D02*
X145892085Y-78425125D01*
X135730357Y-105354819D02*
X136063690Y-104878628D01*
X136301785Y-105354819D02*
X136301785Y-104354819D01*
X136301785Y-104354819D02*
X135920833Y-104354819D01*
X135920833Y-104354819D02*
X135825595Y-104402438D01*
X135825595Y-104402438D02*
X135777976Y-104450057D01*
X135777976Y-104450057D02*
X135730357Y-104545295D01*
X135730357Y-104545295D02*
X135730357Y-104688152D01*
X135730357Y-104688152D02*
X135777976Y-104783390D01*
X135777976Y-104783390D02*
X135825595Y-104831009D01*
X135825595Y-104831009D02*
X135920833Y-104878628D01*
X135920833Y-104878628D02*
X136301785Y-104878628D01*
X135349404Y-104450057D02*
X135301785Y-104402438D01*
X135301785Y-104402438D02*
X135206547Y-104354819D01*
X135206547Y-104354819D02*
X134968452Y-104354819D01*
X134968452Y-104354819D02*
X134873214Y-104402438D01*
X134873214Y-104402438D02*
X134825595Y-104450057D01*
X134825595Y-104450057D02*
X134777976Y-104545295D01*
X134777976Y-104545295D02*
X134777976Y-104640533D01*
X134777976Y-104640533D02*
X134825595Y-104783390D01*
X134825595Y-104783390D02*
X135397023Y-105354819D01*
X135397023Y-105354819D02*
X134777976Y-105354819D01*
X134206547Y-104783390D02*
X134301785Y-104735771D01*
X134301785Y-104735771D02*
X134349404Y-104688152D01*
X134349404Y-104688152D02*
X134397023Y-104592914D01*
X134397023Y-104592914D02*
X134397023Y-104545295D01*
X134397023Y-104545295D02*
X134349404Y-104450057D01*
X134349404Y-104450057D02*
X134301785Y-104402438D01*
X134301785Y-104402438D02*
X134206547Y-104354819D01*
X134206547Y-104354819D02*
X134016071Y-104354819D01*
X134016071Y-104354819D02*
X133920833Y-104402438D01*
X133920833Y-104402438D02*
X133873214Y-104450057D01*
X133873214Y-104450057D02*
X133825595Y-104545295D01*
X133825595Y-104545295D02*
X133825595Y-104592914D01*
X133825595Y-104592914D02*
X133873214Y-104688152D01*
X133873214Y-104688152D02*
X133920833Y-104735771D01*
X133920833Y-104735771D02*
X134016071Y-104783390D01*
X134016071Y-104783390D02*
X134206547Y-104783390D01*
X134206547Y-104783390D02*
X134301785Y-104831009D01*
X134301785Y-104831009D02*
X134349404Y-104878628D01*
X134349404Y-104878628D02*
X134397023Y-104973866D01*
X134397023Y-104973866D02*
X134397023Y-105164342D01*
X134397023Y-105164342D02*
X134349404Y-105259580D01*
X134349404Y-105259580D02*
X134301785Y-105307200D01*
X134301785Y-105307200D02*
X134206547Y-105354819D01*
X134206547Y-105354819D02*
X134016071Y-105354819D01*
X134016071Y-105354819D02*
X133920833Y-105307200D01*
X133920833Y-105307200D02*
X133873214Y-105259580D01*
X133873214Y-105259580D02*
X133825595Y-105164342D01*
X133825595Y-105164342D02*
X133825595Y-104973866D01*
X133825595Y-104973866D02*
X133873214Y-104878628D01*
X133873214Y-104878628D02*
X133920833Y-104831009D01*
X133920833Y-104831009D02*
X134016071Y-104783390D01*
X136104819Y-121857142D02*
X135628628Y-121523809D01*
X136104819Y-121285714D02*
X135104819Y-121285714D01*
X135104819Y-121285714D02*
X135104819Y-121666666D01*
X135104819Y-121666666D02*
X135152438Y-121761904D01*
X135152438Y-121761904D02*
X135200057Y-121809523D01*
X135200057Y-121809523D02*
X135295295Y-121857142D01*
X135295295Y-121857142D02*
X135438152Y-121857142D01*
X135438152Y-121857142D02*
X135533390Y-121809523D01*
X135533390Y-121809523D02*
X135581009Y-121761904D01*
X135581009Y-121761904D02*
X135628628Y-121666666D01*
X135628628Y-121666666D02*
X135628628Y-121285714D01*
X136104819Y-122809523D02*
X136104819Y-122238095D01*
X136104819Y-122523809D02*
X135104819Y-122523809D01*
X135104819Y-122523809D02*
X135247676Y-122428571D01*
X135247676Y-122428571D02*
X135342914Y-122333333D01*
X135342914Y-122333333D02*
X135390533Y-122238095D01*
X135104819Y-123428571D02*
X135104819Y-123523809D01*
X135104819Y-123523809D02*
X135152438Y-123619047D01*
X135152438Y-123619047D02*
X135200057Y-123666666D01*
X135200057Y-123666666D02*
X135295295Y-123714285D01*
X135295295Y-123714285D02*
X135485771Y-123761904D01*
X135485771Y-123761904D02*
X135723866Y-123761904D01*
X135723866Y-123761904D02*
X135914342Y-123714285D01*
X135914342Y-123714285D02*
X136009580Y-123666666D01*
X136009580Y-123666666D02*
X136057200Y-123619047D01*
X136057200Y-123619047D02*
X136104819Y-123523809D01*
X136104819Y-123523809D02*
X136104819Y-123428571D01*
X136104819Y-123428571D02*
X136057200Y-123333333D01*
X136057200Y-123333333D02*
X136009580Y-123285714D01*
X136009580Y-123285714D02*
X135914342Y-123238095D01*
X135914342Y-123238095D02*
X135723866Y-123190476D01*
X135723866Y-123190476D02*
X135485771Y-123190476D01*
X135485771Y-123190476D02*
X135295295Y-123238095D01*
X135295295Y-123238095D02*
X135200057Y-123285714D01*
X135200057Y-123285714D02*
X135152438Y-123333333D01*
X135152438Y-123333333D02*
X135104819Y-123428571D01*
X134104819Y-117333333D02*
X133628628Y-117000000D01*
X134104819Y-116761905D02*
X133104819Y-116761905D01*
X133104819Y-116761905D02*
X133104819Y-117142857D01*
X133104819Y-117142857D02*
X133152438Y-117238095D01*
X133152438Y-117238095D02*
X133200057Y-117285714D01*
X133200057Y-117285714D02*
X133295295Y-117333333D01*
X133295295Y-117333333D02*
X133438152Y-117333333D01*
X133438152Y-117333333D02*
X133533390Y-117285714D01*
X133533390Y-117285714D02*
X133581009Y-117238095D01*
X133581009Y-117238095D02*
X133628628Y-117142857D01*
X133628628Y-117142857D02*
X133628628Y-116761905D01*
X133533390Y-117904762D02*
X133485771Y-117809524D01*
X133485771Y-117809524D02*
X133438152Y-117761905D01*
X133438152Y-117761905D02*
X133342914Y-117714286D01*
X133342914Y-117714286D02*
X133295295Y-117714286D01*
X133295295Y-117714286D02*
X133200057Y-117761905D01*
X133200057Y-117761905D02*
X133152438Y-117809524D01*
X133152438Y-117809524D02*
X133104819Y-117904762D01*
X133104819Y-117904762D02*
X133104819Y-118095238D01*
X133104819Y-118095238D02*
X133152438Y-118190476D01*
X133152438Y-118190476D02*
X133200057Y-118238095D01*
X133200057Y-118238095D02*
X133295295Y-118285714D01*
X133295295Y-118285714D02*
X133342914Y-118285714D01*
X133342914Y-118285714D02*
X133438152Y-118238095D01*
X133438152Y-118238095D02*
X133485771Y-118190476D01*
X133485771Y-118190476D02*
X133533390Y-118095238D01*
X133533390Y-118095238D02*
X133533390Y-117904762D01*
X133533390Y-117904762D02*
X133581009Y-117809524D01*
X133581009Y-117809524D02*
X133628628Y-117761905D01*
X133628628Y-117761905D02*
X133723866Y-117714286D01*
X133723866Y-117714286D02*
X133914342Y-117714286D01*
X133914342Y-117714286D02*
X134009580Y-117761905D01*
X134009580Y-117761905D02*
X134057200Y-117809524D01*
X134057200Y-117809524D02*
X134104819Y-117904762D01*
X134104819Y-117904762D02*
X134104819Y-118095238D01*
X134104819Y-118095238D02*
X134057200Y-118190476D01*
X134057200Y-118190476D02*
X134009580Y-118238095D01*
X134009580Y-118238095D02*
X133914342Y-118285714D01*
X133914342Y-118285714D02*
X133723866Y-118285714D01*
X133723866Y-118285714D02*
X133628628Y-118238095D01*
X133628628Y-118238095D02*
X133581009Y-118190476D01*
X133581009Y-118190476D02*
X133533390Y-118095238D01*
X134134819Y-121761905D02*
X133134819Y-121761905D01*
X133134819Y-121761905D02*
X133134819Y-122000000D01*
X133134819Y-122000000D02*
X133182438Y-122142857D01*
X133182438Y-122142857D02*
X133277676Y-122238095D01*
X133277676Y-122238095D02*
X133372914Y-122285714D01*
X133372914Y-122285714D02*
X133563390Y-122333333D01*
X133563390Y-122333333D02*
X133706247Y-122333333D01*
X133706247Y-122333333D02*
X133896723Y-122285714D01*
X133896723Y-122285714D02*
X133991961Y-122238095D01*
X133991961Y-122238095D02*
X134087200Y-122142857D01*
X134087200Y-122142857D02*
X134134819Y-122000000D01*
X134134819Y-122000000D02*
X134134819Y-121761905D01*
X133134819Y-123238095D02*
X133134819Y-122761905D01*
X133134819Y-122761905D02*
X133611009Y-122714286D01*
X133611009Y-122714286D02*
X133563390Y-122761905D01*
X133563390Y-122761905D02*
X133515771Y-122857143D01*
X133515771Y-122857143D02*
X133515771Y-123095238D01*
X133515771Y-123095238D02*
X133563390Y-123190476D01*
X133563390Y-123190476D02*
X133611009Y-123238095D01*
X133611009Y-123238095D02*
X133706247Y-123285714D01*
X133706247Y-123285714D02*
X133944342Y-123285714D01*
X133944342Y-123285714D02*
X134039580Y-123238095D01*
X134039580Y-123238095D02*
X134087200Y-123190476D01*
X134087200Y-123190476D02*
X134134819Y-123095238D01*
X134134819Y-123095238D02*
X134134819Y-122857143D01*
X134134819Y-122857143D02*
X134087200Y-122761905D01*
X134087200Y-122761905D02*
X134039580Y-122714286D01*
X131024819Y-113511905D02*
X130024819Y-113511905D01*
X130024819Y-113511905D02*
X130024819Y-113750000D01*
X130024819Y-113750000D02*
X130072438Y-113892857D01*
X130072438Y-113892857D02*
X130167676Y-113988095D01*
X130167676Y-113988095D02*
X130262914Y-114035714D01*
X130262914Y-114035714D02*
X130453390Y-114083333D01*
X130453390Y-114083333D02*
X130596247Y-114083333D01*
X130596247Y-114083333D02*
X130786723Y-114035714D01*
X130786723Y-114035714D02*
X130881961Y-113988095D01*
X130881961Y-113988095D02*
X130977200Y-113892857D01*
X130977200Y-113892857D02*
X131024819Y-113750000D01*
X131024819Y-113750000D02*
X131024819Y-113511905D01*
X131024819Y-115035714D02*
X131024819Y-114464286D01*
X131024819Y-114750000D02*
X130024819Y-114750000D01*
X130024819Y-114750000D02*
X130167676Y-114654762D01*
X130167676Y-114654762D02*
X130262914Y-114559524D01*
X130262914Y-114559524D02*
X130310533Y-114464286D01*
X139736904Y-98604819D02*
X139736904Y-99414342D01*
X139736904Y-99414342D02*
X139689285Y-99509580D01*
X139689285Y-99509580D02*
X139641666Y-99557200D01*
X139641666Y-99557200D02*
X139546428Y-99604819D01*
X139546428Y-99604819D02*
X139355952Y-99604819D01*
X139355952Y-99604819D02*
X139260714Y-99557200D01*
X139260714Y-99557200D02*
X139213095Y-99509580D01*
X139213095Y-99509580D02*
X139165476Y-99414342D01*
X139165476Y-99414342D02*
X139165476Y-98604819D01*
X138260714Y-98604819D02*
X138451190Y-98604819D01*
X138451190Y-98604819D02*
X138546428Y-98652438D01*
X138546428Y-98652438D02*
X138594047Y-98700057D01*
X138594047Y-98700057D02*
X138689285Y-98842914D01*
X138689285Y-98842914D02*
X138736904Y-99033390D01*
X138736904Y-99033390D02*
X138736904Y-99414342D01*
X138736904Y-99414342D02*
X138689285Y-99509580D01*
X138689285Y-99509580D02*
X138641666Y-99557200D01*
X138641666Y-99557200D02*
X138546428Y-99604819D01*
X138546428Y-99604819D02*
X138355952Y-99604819D01*
X138355952Y-99604819D02*
X138260714Y-99557200D01*
X138260714Y-99557200D02*
X138213095Y-99509580D01*
X138213095Y-99509580D02*
X138165476Y-99414342D01*
X138165476Y-99414342D02*
X138165476Y-99176247D01*
X138165476Y-99176247D02*
X138213095Y-99081009D01*
X138213095Y-99081009D02*
X138260714Y-99033390D01*
X138260714Y-99033390D02*
X138355952Y-98985771D01*
X138355952Y-98985771D02*
X138546428Y-98985771D01*
X138546428Y-98985771D02*
X138641666Y-99033390D01*
X138641666Y-99033390D02*
X138689285Y-99081009D01*
X138689285Y-99081009D02*
X138736904Y-99176247D01*
X144585319Y-85282142D02*
X144109128Y-84948809D01*
X144585319Y-84710714D02*
X143585319Y-84710714D01*
X143585319Y-84710714D02*
X143585319Y-85091666D01*
X143585319Y-85091666D02*
X143632938Y-85186904D01*
X143632938Y-85186904D02*
X143680557Y-85234523D01*
X143680557Y-85234523D02*
X143775795Y-85282142D01*
X143775795Y-85282142D02*
X143918652Y-85282142D01*
X143918652Y-85282142D02*
X144013890Y-85234523D01*
X144013890Y-85234523D02*
X144061509Y-85186904D01*
X144061509Y-85186904D02*
X144109128Y-85091666D01*
X144109128Y-85091666D02*
X144109128Y-84710714D01*
X144585319Y-86234523D02*
X144585319Y-85663095D01*
X144585319Y-85948809D02*
X143585319Y-85948809D01*
X143585319Y-85948809D02*
X143728176Y-85853571D01*
X143728176Y-85853571D02*
X143823414Y-85758333D01*
X143823414Y-85758333D02*
X143871033Y-85663095D01*
X144013890Y-86805952D02*
X143966271Y-86710714D01*
X143966271Y-86710714D02*
X143918652Y-86663095D01*
X143918652Y-86663095D02*
X143823414Y-86615476D01*
X143823414Y-86615476D02*
X143775795Y-86615476D01*
X143775795Y-86615476D02*
X143680557Y-86663095D01*
X143680557Y-86663095D02*
X143632938Y-86710714D01*
X143632938Y-86710714D02*
X143585319Y-86805952D01*
X143585319Y-86805952D02*
X143585319Y-86996428D01*
X143585319Y-86996428D02*
X143632938Y-87091666D01*
X143632938Y-87091666D02*
X143680557Y-87139285D01*
X143680557Y-87139285D02*
X143775795Y-87186904D01*
X143775795Y-87186904D02*
X143823414Y-87186904D01*
X143823414Y-87186904D02*
X143918652Y-87139285D01*
X143918652Y-87139285D02*
X143966271Y-87091666D01*
X143966271Y-87091666D02*
X144013890Y-86996428D01*
X144013890Y-86996428D02*
X144013890Y-86805952D01*
X144013890Y-86805952D02*
X144061509Y-86710714D01*
X144061509Y-86710714D02*
X144109128Y-86663095D01*
X144109128Y-86663095D02*
X144204366Y-86615476D01*
X144204366Y-86615476D02*
X144394842Y-86615476D01*
X144394842Y-86615476D02*
X144490080Y-86663095D01*
X144490080Y-86663095D02*
X144537700Y-86710714D01*
X144537700Y-86710714D02*
X144585319Y-86805952D01*
X144585319Y-86805952D02*
X144585319Y-86996428D01*
X144585319Y-86996428D02*
X144537700Y-87091666D01*
X144537700Y-87091666D02*
X144490080Y-87139285D01*
X144490080Y-87139285D02*
X144394842Y-87186904D01*
X144394842Y-87186904D02*
X144204366Y-87186904D01*
X144204366Y-87186904D02*
X144109128Y-87139285D01*
X144109128Y-87139285D02*
X144061509Y-87091666D01*
X144061509Y-87091666D02*
X144013890Y-86996428D01*
X142585319Y-85282142D02*
X142109128Y-84948809D01*
X142585319Y-84710714D02*
X141585319Y-84710714D01*
X141585319Y-84710714D02*
X141585319Y-85091666D01*
X141585319Y-85091666D02*
X141632938Y-85186904D01*
X141632938Y-85186904D02*
X141680557Y-85234523D01*
X141680557Y-85234523D02*
X141775795Y-85282142D01*
X141775795Y-85282142D02*
X141918652Y-85282142D01*
X141918652Y-85282142D02*
X142013890Y-85234523D01*
X142013890Y-85234523D02*
X142061509Y-85186904D01*
X142061509Y-85186904D02*
X142109128Y-85091666D01*
X142109128Y-85091666D02*
X142109128Y-84710714D01*
X142585319Y-86234523D02*
X142585319Y-85663095D01*
X142585319Y-85948809D02*
X141585319Y-85948809D01*
X141585319Y-85948809D02*
X141728176Y-85853571D01*
X141728176Y-85853571D02*
X141823414Y-85758333D01*
X141823414Y-85758333D02*
X141871033Y-85663095D01*
X142585319Y-86710714D02*
X142585319Y-86901190D01*
X142585319Y-86901190D02*
X142537700Y-86996428D01*
X142537700Y-86996428D02*
X142490080Y-87044047D01*
X142490080Y-87044047D02*
X142347223Y-87139285D01*
X142347223Y-87139285D02*
X142156747Y-87186904D01*
X142156747Y-87186904D02*
X141775795Y-87186904D01*
X141775795Y-87186904D02*
X141680557Y-87139285D01*
X141680557Y-87139285D02*
X141632938Y-87091666D01*
X141632938Y-87091666D02*
X141585319Y-86996428D01*
X141585319Y-86996428D02*
X141585319Y-86805952D01*
X141585319Y-86805952D02*
X141632938Y-86710714D01*
X141632938Y-86710714D02*
X141680557Y-86663095D01*
X141680557Y-86663095D02*
X141775795Y-86615476D01*
X141775795Y-86615476D02*
X142013890Y-86615476D01*
X142013890Y-86615476D02*
X142109128Y-86663095D01*
X142109128Y-86663095D02*
X142156747Y-86710714D01*
X142156747Y-86710714D02*
X142204366Y-86805952D01*
X142204366Y-86805952D02*
X142204366Y-86996428D01*
X142204366Y-86996428D02*
X142156747Y-87091666D01*
X142156747Y-87091666D02*
X142109128Y-87139285D01*
X142109128Y-87139285D02*
X142013890Y-87186904D01*
D11*
X151222580Y-125111904D02*
X150413057Y-125111904D01*
X150413057Y-125111904D02*
X150317819Y-125064285D01*
X150317819Y-125064285D02*
X150270200Y-125016666D01*
X150270200Y-125016666D02*
X150222580Y-124921428D01*
X150222580Y-124921428D02*
X150222580Y-124730952D01*
X150222580Y-124730952D02*
X150270200Y-124635714D01*
X150270200Y-124635714D02*
X150317819Y-124588095D01*
X150317819Y-124588095D02*
X150413057Y-124540476D01*
X150413057Y-124540476D02*
X151222580Y-124540476D01*
X151127342Y-124111904D02*
X151174961Y-124064285D01*
X151174961Y-124064285D02*
X151222580Y-123969047D01*
X151222580Y-123969047D02*
X151222580Y-123730952D01*
X151222580Y-123730952D02*
X151174961Y-123635714D01*
X151174961Y-123635714D02*
X151127342Y-123588095D01*
X151127342Y-123588095D02*
X151032104Y-123540476D01*
X151032104Y-123540476D02*
X150936866Y-123540476D01*
X150936866Y-123540476D02*
X150794009Y-123588095D01*
X150794009Y-123588095D02*
X150222580Y-124159523D01*
X150222580Y-124159523D02*
X150222580Y-123540476D01*
D10*
X138529128Y-87273809D02*
X139005319Y-87273809D01*
X138005319Y-86940476D02*
X138529128Y-87273809D01*
X138529128Y-87273809D02*
X138005319Y-87607142D01*
X139005319Y-88464285D02*
X139005319Y-87892857D01*
X139005319Y-88178571D02*
X138005319Y-88178571D01*
X138005319Y-88178571D02*
X138148176Y-88083333D01*
X138148176Y-88083333D02*
X138243414Y-87988095D01*
X138243414Y-87988095D02*
X138291033Y-87892857D01*
X131988094Y-107884819D02*
X131988094Y-106884819D01*
X131988094Y-106884819D02*
X131749999Y-106884819D01*
X131749999Y-106884819D02*
X131607142Y-106932438D01*
X131607142Y-106932438D02*
X131511904Y-107027676D01*
X131511904Y-107027676D02*
X131464285Y-107122914D01*
X131464285Y-107122914D02*
X131416666Y-107313390D01*
X131416666Y-107313390D02*
X131416666Y-107456247D01*
X131416666Y-107456247D02*
X131464285Y-107646723D01*
X131464285Y-107646723D02*
X131511904Y-107741961D01*
X131511904Y-107741961D02*
X131607142Y-107837200D01*
X131607142Y-107837200D02*
X131749999Y-107884819D01*
X131749999Y-107884819D02*
X131988094Y-107884819D01*
X131083332Y-106884819D02*
X130464285Y-106884819D01*
X130464285Y-106884819D02*
X130797618Y-107265771D01*
X130797618Y-107265771D02*
X130654761Y-107265771D01*
X130654761Y-107265771D02*
X130559523Y-107313390D01*
X130559523Y-107313390D02*
X130511904Y-107361009D01*
X130511904Y-107361009D02*
X130464285Y-107456247D01*
X130464285Y-107456247D02*
X130464285Y-107694342D01*
X130464285Y-107694342D02*
X130511904Y-107789580D01*
X130511904Y-107789580D02*
X130559523Y-107837200D01*
X130559523Y-107837200D02*
X130654761Y-107884819D01*
X130654761Y-107884819D02*
X130940475Y-107884819D01*
X130940475Y-107884819D02*
X131035713Y-107837200D01*
X131035713Y-107837200D02*
X131083332Y-107789580D01*
D11*
X133457419Y-104261905D02*
X134266942Y-104261905D01*
X134266942Y-104261905D02*
X134362180Y-104309524D01*
X134362180Y-104309524D02*
X134409800Y-104357143D01*
X134409800Y-104357143D02*
X134457419Y-104452381D01*
X134457419Y-104452381D02*
X134457419Y-104642857D01*
X134457419Y-104642857D02*
X134409800Y-104738095D01*
X134409800Y-104738095D02*
X134362180Y-104785714D01*
X134362180Y-104785714D02*
X134266942Y-104833333D01*
X134266942Y-104833333D02*
X133457419Y-104833333D01*
X134457419Y-105833333D02*
X134457419Y-105261905D01*
X134457419Y-105547619D02*
X133457419Y-105547619D01*
X133457419Y-105547619D02*
X133600276Y-105452381D01*
X133600276Y-105452381D02*
X133695514Y-105357143D01*
X133695514Y-105357143D02*
X133743133Y-105261905D01*
X134457419Y-106785714D02*
X134457419Y-106214286D01*
X134457419Y-106500000D02*
X133457419Y-106500000D01*
X133457419Y-106500000D02*
X133600276Y-106404762D01*
X133600276Y-106404762D02*
X133695514Y-106309524D01*
X133695514Y-106309524D02*
X133743133Y-106214286D01*
D10*
X145384819Y-101583333D02*
X144908628Y-101250000D01*
X145384819Y-101011905D02*
X144384819Y-101011905D01*
X144384819Y-101011905D02*
X144384819Y-101392857D01*
X144384819Y-101392857D02*
X144432438Y-101488095D01*
X144432438Y-101488095D02*
X144480057Y-101535714D01*
X144480057Y-101535714D02*
X144575295Y-101583333D01*
X144575295Y-101583333D02*
X144718152Y-101583333D01*
X144718152Y-101583333D02*
X144813390Y-101535714D01*
X144813390Y-101535714D02*
X144861009Y-101488095D01*
X144861009Y-101488095D02*
X144908628Y-101392857D01*
X144908628Y-101392857D02*
X144908628Y-101011905D01*
X145384819Y-102535714D02*
X145384819Y-101964286D01*
X145384819Y-102250000D02*
X144384819Y-102250000D01*
X144384819Y-102250000D02*
X144527676Y-102154762D01*
X144527676Y-102154762D02*
X144622914Y-102059524D01*
X144622914Y-102059524D02*
X144670533Y-101964286D01*
X128038594Y-83219819D02*
X128038594Y-84029342D01*
X128038594Y-84029342D02*
X127990975Y-84124580D01*
X127990975Y-84124580D02*
X127943356Y-84172200D01*
X127943356Y-84172200D02*
X127848118Y-84219819D01*
X127848118Y-84219819D02*
X127657642Y-84219819D01*
X127657642Y-84219819D02*
X127562404Y-84172200D01*
X127562404Y-84172200D02*
X127514785Y-84124580D01*
X127514785Y-84124580D02*
X127467166Y-84029342D01*
X127467166Y-84029342D02*
X127467166Y-83219819D01*
X126467166Y-84219819D02*
X127038594Y-84219819D01*
X126752880Y-84219819D02*
X126752880Y-83219819D01*
X126752880Y-83219819D02*
X126848118Y-83362676D01*
X126848118Y-83362676D02*
X126943356Y-83457914D01*
X126943356Y-83457914D02*
X127038594Y-83505533D01*
X125610023Y-83553152D02*
X125610023Y-84219819D01*
X125848118Y-83172200D02*
X126086213Y-83886485D01*
X126086213Y-83886485D02*
X125467166Y-83886485D01*
X144585319Y-88932142D02*
X144109128Y-88598809D01*
X144585319Y-88360714D02*
X143585319Y-88360714D01*
X143585319Y-88360714D02*
X143585319Y-88741666D01*
X143585319Y-88741666D02*
X143632938Y-88836904D01*
X143632938Y-88836904D02*
X143680557Y-88884523D01*
X143680557Y-88884523D02*
X143775795Y-88932142D01*
X143775795Y-88932142D02*
X143918652Y-88932142D01*
X143918652Y-88932142D02*
X144013890Y-88884523D01*
X144013890Y-88884523D02*
X144061509Y-88836904D01*
X144061509Y-88836904D02*
X144109128Y-88741666D01*
X144109128Y-88741666D02*
X144109128Y-88360714D01*
X143680557Y-89313095D02*
X143632938Y-89360714D01*
X143632938Y-89360714D02*
X143585319Y-89455952D01*
X143585319Y-89455952D02*
X143585319Y-89694047D01*
X143585319Y-89694047D02*
X143632938Y-89789285D01*
X143632938Y-89789285D02*
X143680557Y-89836904D01*
X143680557Y-89836904D02*
X143775795Y-89884523D01*
X143775795Y-89884523D02*
X143871033Y-89884523D01*
X143871033Y-89884523D02*
X144013890Y-89836904D01*
X144013890Y-89836904D02*
X144585319Y-89265476D01*
X144585319Y-89265476D02*
X144585319Y-89884523D01*
X143680557Y-90265476D02*
X143632938Y-90313095D01*
X143632938Y-90313095D02*
X143585319Y-90408333D01*
X143585319Y-90408333D02*
X143585319Y-90646428D01*
X143585319Y-90646428D02*
X143632938Y-90741666D01*
X143632938Y-90741666D02*
X143680557Y-90789285D01*
X143680557Y-90789285D02*
X143775795Y-90836904D01*
X143775795Y-90836904D02*
X143871033Y-90836904D01*
X143871033Y-90836904D02*
X144013890Y-90789285D01*
X144013890Y-90789285D02*
X144585319Y-90217857D01*
X144585319Y-90217857D02*
X144585319Y-90836904D01*
X141488094Y-104384819D02*
X141488094Y-103384819D01*
X141488094Y-103384819D02*
X141249999Y-103384819D01*
X141249999Y-103384819D02*
X141107142Y-103432438D01*
X141107142Y-103432438D02*
X141011904Y-103527676D01*
X141011904Y-103527676D02*
X140964285Y-103622914D01*
X140964285Y-103622914D02*
X140916666Y-103813390D01*
X140916666Y-103813390D02*
X140916666Y-103956247D01*
X140916666Y-103956247D02*
X140964285Y-104146723D01*
X140964285Y-104146723D02*
X141011904Y-104241961D01*
X141011904Y-104241961D02*
X141107142Y-104337200D01*
X141107142Y-104337200D02*
X141249999Y-104384819D01*
X141249999Y-104384819D02*
X141488094Y-104384819D01*
X140059523Y-103718152D02*
X140059523Y-104384819D01*
X140297618Y-103337200D02*
X140535713Y-104051485D01*
X140535713Y-104051485D02*
X139916666Y-104051485D01*
X142585319Y-88932142D02*
X142109128Y-88598809D01*
X142585319Y-88360714D02*
X141585319Y-88360714D01*
X141585319Y-88360714D02*
X141585319Y-88741666D01*
X141585319Y-88741666D02*
X141632938Y-88836904D01*
X141632938Y-88836904D02*
X141680557Y-88884523D01*
X141680557Y-88884523D02*
X141775795Y-88932142D01*
X141775795Y-88932142D02*
X141918652Y-88932142D01*
X141918652Y-88932142D02*
X142013890Y-88884523D01*
X142013890Y-88884523D02*
X142061509Y-88836904D01*
X142061509Y-88836904D02*
X142109128Y-88741666D01*
X142109128Y-88741666D02*
X142109128Y-88360714D01*
X141680557Y-89313095D02*
X141632938Y-89360714D01*
X141632938Y-89360714D02*
X141585319Y-89455952D01*
X141585319Y-89455952D02*
X141585319Y-89694047D01*
X141585319Y-89694047D02*
X141632938Y-89789285D01*
X141632938Y-89789285D02*
X141680557Y-89836904D01*
X141680557Y-89836904D02*
X141775795Y-89884523D01*
X141775795Y-89884523D02*
X141871033Y-89884523D01*
X141871033Y-89884523D02*
X142013890Y-89836904D01*
X142013890Y-89836904D02*
X142585319Y-89265476D01*
X142585319Y-89265476D02*
X142585319Y-89884523D01*
X141585319Y-90217857D02*
X141585319Y-90836904D01*
X141585319Y-90836904D02*
X141966271Y-90503571D01*
X141966271Y-90503571D02*
X141966271Y-90646428D01*
X141966271Y-90646428D02*
X142013890Y-90741666D01*
X142013890Y-90741666D02*
X142061509Y-90789285D01*
X142061509Y-90789285D02*
X142156747Y-90836904D01*
X142156747Y-90836904D02*
X142394842Y-90836904D01*
X142394842Y-90836904D02*
X142490080Y-90789285D01*
X142490080Y-90789285D02*
X142537700Y-90741666D01*
X142537700Y-90741666D02*
X142585319Y-90646428D01*
X142585319Y-90646428D02*
X142585319Y-90360714D01*
X142585319Y-90360714D02*
X142537700Y-90265476D01*
X142537700Y-90265476D02*
X142490080Y-90217857D01*
D11*
X127093080Y-120033333D02*
X126378795Y-120033333D01*
X126378795Y-120033333D02*
X126235938Y-120080952D01*
X126235938Y-120080952D02*
X126140700Y-120176190D01*
X126140700Y-120176190D02*
X126093080Y-120319047D01*
X126093080Y-120319047D02*
X126093080Y-120414285D01*
X126997842Y-119604761D02*
X127045461Y-119557142D01*
X127045461Y-119557142D02*
X127093080Y-119461904D01*
X127093080Y-119461904D02*
X127093080Y-119223809D01*
X127093080Y-119223809D02*
X127045461Y-119128571D01*
X127045461Y-119128571D02*
X126997842Y-119080952D01*
X126997842Y-119080952D02*
X126902604Y-119033333D01*
X126902604Y-119033333D02*
X126807366Y-119033333D01*
X126807366Y-119033333D02*
X126664509Y-119080952D01*
X126664509Y-119080952D02*
X126093080Y-119652380D01*
X126093080Y-119652380D02*
X126093080Y-119033333D01*
D12*
X134860436Y-103985000D02*
X135314564Y-103985000D01*
X134860436Y-102515000D02*
X135314564Y-102515000D01*
X134735000Y-122727064D02*
X134735000Y-122272936D01*
X133265000Y-122727064D02*
X133265000Y-122272936D01*
X132735000Y-117727064D02*
X132735000Y-117272936D01*
X131265000Y-117727064D02*
X131265000Y-117272936D01*
X131515000Y-123985000D02*
X131515000Y-121700000D01*
X132985000Y-123985000D02*
X131515000Y-123985000D01*
X132985000Y-121700000D02*
X132985000Y-123985000D01*
X132735000Y-112765000D02*
X132735000Y-115050000D01*
X131265000Y-112765000D02*
X132735000Y-112765000D01*
X131265000Y-115050000D02*
X131265000Y-112765000D01*
X138975000Y-93190000D02*
X137025000Y-93190000D01*
X138975000Y-93190000D02*
X140925000Y-93190000D01*
X138975000Y-98310000D02*
X135525000Y-98310000D01*
X138975000Y-98310000D02*
X140925000Y-98310000D01*
X142178000Y-86162258D02*
X142178000Y-85687742D01*
X143223000Y-86162258D02*
X143223000Y-85687742D01*
D13*
X116921500Y-87234000D02*
X116921500Y-103236000D01*
X116159500Y-87234000D02*
X116921500Y-87234000D01*
X116921500Y-103236000D02*
X116159500Y-103236000D01*
D12*
X140178000Y-86162258D02*
X140178000Y-85687742D01*
X141223000Y-86162258D02*
X141223000Y-85687742D01*
X135675500Y-88425000D02*
X135675500Y-87075000D01*
X137425500Y-88425000D02*
X137425500Y-87075000D01*
X129765000Y-105265000D02*
X132050000Y-105265000D01*
X129765000Y-106735000D02*
X129765000Y-105265000D01*
X132050000Y-106735000D02*
X129765000Y-106735000D01*
D11*
X154100000Y-105500000D02*
X134500000Y-105500000D01*
X154100000Y-105500000D02*
X154100000Y-120450000D01*
X134500000Y-105500000D02*
X134500000Y-120450000D01*
X154100000Y-120450000D02*
X134500000Y-120460000D01*
D12*
X142977500Y-101987258D02*
X142977500Y-101512742D01*
X144022500Y-101987258D02*
X144022500Y-101512742D01*
X130660500Y-95125000D02*
X130660500Y-94870000D01*
X130660500Y-84860000D02*
X132475500Y-84860000D01*
X130660500Y-84605000D02*
X130660500Y-84860000D01*
X126800500Y-95125000D02*
X130660500Y-95125000D01*
X126800500Y-95125000D02*
X122940500Y-95125000D01*
X126800500Y-84605000D02*
X130660500Y-84605000D01*
X126800500Y-84605000D02*
X122940500Y-84605000D01*
X122940500Y-95125000D02*
X122940500Y-94870000D01*
X122940500Y-84605000D02*
X122940500Y-84860000D01*
X142178000Y-89812258D02*
X142178000Y-89337742D01*
X143223000Y-89812258D02*
X143223000Y-89337742D01*
X139265000Y-101765000D02*
X141550000Y-101765000D01*
X139265000Y-103235000D02*
X139265000Y-101765000D01*
X141550000Y-103235000D02*
X139265000Y-103235000D01*
X140178000Y-89812258D02*
X140178000Y-89337742D01*
X141223000Y-89812258D02*
X141223000Y-89337742D01*
D14*
X129100500Y-114080000D02*
X129100500Y-113100000D01*
X129100500Y-113100000D02*
X124370500Y-113100000D01*
D15*
X120650500Y-113900000D02*
G75*
G03*
X120650500Y-113900000I-100000J0D01*
G01*
%LPC*%
D16*
X134175000Y-103250000D03*
X136000000Y-103250000D03*
D17*
X134000000Y-123412500D03*
X134000000Y-121587500D03*
X132000000Y-118412500D03*
X132000000Y-116587500D03*
D18*
X134250000Y-87150000D03*
X134250000Y-88850000D03*
D19*
X133750000Y-97250000D03*
D20*
X132480000Y-97250000D03*
X131210000Y-97250000D03*
X129940000Y-97250000D03*
D21*
X148130500Y-77250000D03*
D22*
X145590500Y-77250000D03*
X143050500Y-77250000D03*
X140510500Y-77250000D03*
X137970500Y-77250000D03*
X135430500Y-77250000D03*
X132890500Y-77250000D03*
X130350500Y-77250000D03*
X127810500Y-77250000D03*
X125270500Y-77250000D03*
X122730500Y-77250000D03*
X120190500Y-77250000D03*
X117650500Y-77250000D03*
X115110500Y-77250000D03*
X112570500Y-77250000D03*
X110030500Y-77250000D03*
X107490500Y-77250000D03*
X104950500Y-77250000D03*
X102410500Y-77250000D03*
D21*
X145660500Y-85630000D03*
D22*
X148200500Y-85630000D03*
X145660500Y-88170000D03*
X148200500Y-88170000D03*
X145660500Y-90710000D03*
X148200500Y-90710000D03*
X145660500Y-93250000D03*
X148200500Y-93250000D03*
X145660500Y-95790000D03*
X148200500Y-95790000D03*
X145660500Y-98330000D03*
X148200500Y-98330000D03*
D23*
X129062375Y-108741875D03*
D24*
X129062375Y-110011875D03*
X129062375Y-111281875D03*
D19*
X118500000Y-117980000D03*
D20*
X118500000Y-119250000D03*
X118500000Y-120520000D03*
X118500000Y-121790000D03*
D25*
X121500000Y-123750000D03*
D26*
X101500000Y-123750000D03*
D27*
X116000000Y-120750000D03*
D28*
X114000000Y-120750000D03*
X112000000Y-120750000D03*
X110000000Y-120750000D03*
X108000000Y-120750000D03*
X106000000Y-120750000D03*
D21*
X148120500Y-81500000D03*
D22*
X145580500Y-81500000D03*
X143040500Y-81500000D03*
X140500500Y-81500000D03*
X137960500Y-81500000D03*
X135420500Y-81500000D03*
X132880500Y-81500000D03*
X130340500Y-81500000D03*
X127800500Y-81500000D03*
X125260500Y-81500000D03*
X122720500Y-81500000D03*
X120180500Y-81500000D03*
X117640500Y-81500000D03*
X115100500Y-81500000D03*
X112560500Y-81500000D03*
X110020500Y-81500000D03*
X107480500Y-81500000D03*
X104940500Y-81500000D03*
X102400500Y-81500000D03*
D29*
X132250000Y-123287500D03*
X132250000Y-121712500D03*
D30*
X132000000Y-113462500D03*
X132000000Y-115037500D03*
D31*
X136500000Y-97655000D03*
X136500000Y-96385000D03*
X136500000Y-95115000D03*
X136500000Y-93845000D03*
X141450000Y-93845000D03*
X141450000Y-95115000D03*
X141450000Y-96385000D03*
X141450000Y-97655000D03*
D32*
X142700500Y-86750000D03*
X142700500Y-85100000D03*
D33*
X101300500Y-87550000D03*
X103300500Y-87550000D03*
X105300500Y-87550000D03*
X107300500Y-87550000D03*
X109300500Y-87550000D03*
X111300500Y-87550000D03*
X113300500Y-87550000D03*
X115300500Y-87550000D03*
X115300500Y-102950000D03*
X113300500Y-102950000D03*
X111300500Y-102950000D03*
X109300500Y-102950000D03*
X107300500Y-102950000D03*
X105300500Y-102950000D03*
X103300500Y-102950000D03*
X101300500Y-102950000D03*
D34*
X117000500Y-90240000D03*
X117000500Y-92240000D03*
X117000500Y-94240000D03*
X117000500Y-96240000D03*
X117000500Y-98240000D03*
X117000500Y-100240000D03*
D32*
X140700500Y-86750000D03*
X140700500Y-85100000D03*
D35*
X149250000Y-123100000D03*
X147980000Y-123100000D03*
X146710000Y-123100000D03*
X145440000Y-123100000D03*
X144170000Y-123100000D03*
X142900000Y-123100000D03*
X141630000Y-123100000D03*
X140360000Y-123100000D03*
X139090000Y-123100000D03*
X137820000Y-123100000D03*
X136550000Y-123100000D03*
X136550000Y-109000000D03*
X137820000Y-109000000D03*
X139090000Y-109000000D03*
X140360000Y-109000000D03*
X141630000Y-109000000D03*
X142900000Y-109000000D03*
X144170000Y-109000000D03*
X145440000Y-109000000D03*
X146710000Y-109000000D03*
X147980000Y-109000000D03*
X149250000Y-109000000D03*
D36*
X136550500Y-86500000D03*
X136550500Y-89000000D03*
D37*
X130462500Y-106000000D03*
X132037500Y-106000000D03*
D38*
X146500000Y-120450000D03*
X145000000Y-120450000D03*
X143500000Y-120450000D03*
X142000000Y-120450000D03*
X140500000Y-120450000D03*
X139000000Y-120450000D03*
X137500000Y-120450000D03*
X136000000Y-120500000D03*
D39*
X134500000Y-118200000D03*
X134500000Y-116700000D03*
X134500000Y-115200000D03*
X134500000Y-113700000D03*
X134500000Y-112200000D03*
X134500000Y-110700000D03*
X134500000Y-109200000D03*
X134450000Y-107700000D03*
D38*
X136000000Y-105500000D03*
X137500000Y-105500000D03*
X139000000Y-105500000D03*
X140500000Y-105500000D03*
X142000000Y-105500000D03*
X143500000Y-105500000D03*
X145000000Y-105500000D03*
X146500000Y-105500000D03*
D32*
X143500000Y-102575000D03*
X143500000Y-100925000D03*
D40*
X131450500Y-85420000D03*
X131450500Y-86690000D03*
X131450500Y-87960000D03*
X131450500Y-89230000D03*
X131450500Y-90500000D03*
X131450500Y-91770000D03*
X131450500Y-93040000D03*
X131450500Y-94310000D03*
X122150500Y-94310000D03*
X122150500Y-93040000D03*
X122150500Y-91770000D03*
X122150500Y-90500000D03*
X122150500Y-89230000D03*
X122150500Y-87960000D03*
X122150500Y-86690000D03*
X122150500Y-85420000D03*
D32*
X142700500Y-90400000D03*
X142700500Y-88750000D03*
D37*
X139962500Y-102500000D03*
X141537500Y-102500000D03*
D32*
X140700500Y-90400000D03*
X140700500Y-88750000D03*
D18*
X126050500Y-123600000D03*
X126050500Y-116600000D03*
D41*
X122800500Y-113900000D03*
X129300500Y-115000000D03*
X129300500Y-119000000D03*
X129300500Y-122000000D03*
%LPD*%
M02*
