G04 #@! TF.GenerationSoftware,KiCad,Pcbnew,7.0.7*
G04 #@! TF.CreationDate,2023-12-30T17:03:26-05:00*
G04 #@! TF.ProjectId,sensor_node,73656e73-6f72-45f6-9e6f-64652e6b6963,rev?*
G04 #@! TF.SameCoordinates,Original*
G04 #@! TF.FileFunction,Soldermask,Top*
G04 #@! TF.FilePolarity,Negative*
%FSLAX46Y46*%
G04 Gerber Fmt 4.6, Leading zero omitted, Abs format (unit mm)*
G04 Created by KiCad (PCBNEW 7.0.7) date 2023-12-30 17:03:26*
%MOMM*%
%LPD*%
G01*
G04 APERTURE LIST*
G04 Aperture macros list*
%AMRoundRect*
0 Rectangle with rounded corners*
0 $1 Rounding radius*
0 $2 $3 $4 $5 $6 $7 $8 $9 X,Y pos of 4 corners*
0 Add a 4 corners polygon primitive as box body*
4,1,4,$2,$3,$4,$5,$6,$7,$8,$9,$2,$3,0*
0 Add four circle primitives for the rounded corners*
1,1,$1+$1,$2,$3*
1,1,$1+$1,$4,$5*
1,1,$1+$1,$6,$7*
1,1,$1+$1,$8,$9*
0 Add four rect primitives between the rounded corners*
20,1,$1+$1,$2,$3,$4,$5,0*
20,1,$1+$1,$4,$5,$6,$7,0*
20,1,$1+$1,$6,$7,$8,$9,0*
20,1,$1+$1,$8,$9,$2,$3,0*%
%AMFreePoly0*
4,1,6,0.500000,-0.850000,-0.500000,-0.850000,-0.500000,0.550000,-0.200000,0.850000,0.500000,0.850000,0.500000,-0.850000,0.500000,-0.850000,$1*%
G04 Aperture macros list end*
%ADD10RoundRect,0.250000X-0.450000X0.262500X-0.450000X-0.262500X0.450000X-0.262500X0.450000X0.262500X0*%
%ADD11RoundRect,0.250000X-0.625000X0.312500X-0.625000X-0.312500X0.625000X-0.312500X0.625000X0.312500X0*%
%ADD12RoundRect,0.200000X-0.275000X0.200000X-0.275000X-0.200000X0.275000X-0.200000X0.275000X0.200000X0*%
%ADD13RoundRect,0.102000X0.125000X-0.275000X0.125000X0.275000X-0.125000X0.275000X-0.125000X-0.275000X0*%
%ADD14RoundRect,0.250000X0.325000X0.650000X-0.325000X0.650000X-0.325000X-0.650000X0.325000X-0.650000X0*%
%ADD15C,1.000000*%
%ADD16RoundRect,0.102000X1.750000X-0.500000X1.750000X0.500000X-1.750000X0.500000X-1.750000X-0.500000X0*%
%ADD17RoundRect,0.102000X1.700000X-0.750000X1.700000X0.750000X-1.700000X0.750000X-1.700000X-0.750000X0*%
%ADD18RoundRect,0.200000X0.200000X0.275000X-0.200000X0.275000X-0.200000X-0.275000X0.200000X-0.275000X0*%
%ADD19R,0.700000X1.200000*%
%ADD20R,0.760000X1.200000*%
%ADD21R,0.800000X1.200000*%
%ADD22R,1.800000X1.350000*%
%ADD23R,1.800000X1.500000*%
%ADD24RoundRect,0.250000X-0.312500X-0.625000X0.312500X-0.625000X0.312500X0.625000X-0.312500X0.625000X0*%
%ADD25RoundRect,0.250000X0.650000X-0.325000X0.650000X0.325000X-0.650000X0.325000X-0.650000X-0.325000X0*%
%ADD26RoundRect,0.150000X0.150000X-0.587500X0.150000X0.587500X-0.150000X0.587500X-0.150000X-0.587500X0*%
%ADD27RoundRect,0.102000X-0.600000X-0.450000X0.600000X-0.450000X0.600000X0.450000X-0.600000X0.450000X0*%
%ADD28R,0.600000X0.720000*%
%ADD29RoundRect,0.250000X-0.325000X-0.650000X0.325000X-0.650000X0.325000X0.650000X-0.325000X0.650000X0*%
%ADD30RoundRect,0.250000X0.312500X0.625000X-0.312500X0.625000X-0.312500X-0.625000X0.312500X-0.625000X0*%
%ADD31R,0.650000X1.050000*%
%ADD32R,2.100000X2.100000*%
%ADD33C,2.100000*%
%ADD34RoundRect,0.200000X0.275000X-0.200000X0.275000X0.200000X-0.275000X0.200000X-0.275000X-0.200000X0*%
%ADD35R,1.350000X1.350000*%
%ADD36O,1.350000X1.350000*%
%ADD37RoundRect,0.218750X0.218750X0.256250X-0.218750X0.256250X-0.218750X-0.256250X0.218750X-0.256250X0*%
%ADD38R,1.700000X1.700000*%
%ADD39O,1.700000X1.700000*%
%ADD40RoundRect,0.102000X0.750000X-0.800000X0.750000X0.800000X-0.750000X0.800000X-0.750000X-0.800000X0*%
%ADD41R,1.000000X1.000000*%
%ADD42O,1.000000X1.000000*%
%ADD43RoundRect,0.250000X-0.650000X0.325000X-0.650000X-0.325000X0.650000X-0.325000X0.650000X0.325000X0*%
%ADD44R,1.050000X0.650000*%
%ADD45RoundRect,0.150000X-0.587500X-0.150000X0.587500X-0.150000X0.587500X0.150000X-0.587500X0.150000X0*%
%ADD46RoundRect,0.100000X0.100000X-0.637500X0.100000X0.637500X-0.100000X0.637500X-0.100000X-0.637500X0*%
%ADD47RoundRect,0.150000X-0.150000X0.512500X-0.150000X-0.512500X0.150000X-0.512500X0.150000X0.512500X0*%
%ADD48R,0.250000X0.550000*%
%ADD49FreePoly0,270.000000*%
%ADD50R,1.500000X1.050000*%
%ADD51O,1.500000X1.050000*%
%ADD52RoundRect,0.150000X-0.512500X-0.150000X0.512500X-0.150000X0.512500X0.150000X-0.512500X0.150000X0*%
%ADD53RoundRect,0.112500X0.112500X-0.187500X0.112500X0.187500X-0.112500X0.187500X-0.112500X-0.187500X0*%
G04 APERTURE END LIST*
G36*
X166075000Y-137700000D02*
G01*
X164675000Y-137700000D01*
X164675000Y-136700000D01*
X165075000Y-136300000D01*
X166075000Y-136300000D01*
X166075000Y-137700000D01*
G37*
G36*
X166075000Y-135700000D02*
G01*
X165075000Y-135700000D01*
X164675000Y-135300000D01*
X164675000Y-134300000D01*
X166075000Y-134300000D01*
X166075000Y-135700000D01*
G37*
G36*
X115825000Y-137700000D02*
G01*
X114425000Y-137700000D01*
X114425000Y-136700000D01*
X114825000Y-136300000D01*
X115825000Y-136300000D01*
X115825000Y-137700000D01*
G37*
G36*
X115825000Y-135700000D02*
G01*
X114825000Y-135700000D01*
X114425000Y-135300000D01*
X114425000Y-134300000D01*
X115825000Y-134300000D01*
X115825000Y-135700000D01*
G37*
G36*
X166075000Y-87450000D02*
G01*
X164675000Y-87450000D01*
X164675000Y-86450000D01*
X165075000Y-86050000D01*
X166075000Y-86050000D01*
X166075000Y-87450000D01*
G37*
G36*
X166075000Y-85450000D02*
G01*
X165075000Y-85450000D01*
X164675000Y-85050000D01*
X164675000Y-84050000D01*
X166075000Y-84050000D01*
X166075000Y-85450000D01*
G37*
G36*
X115770500Y-87450000D02*
G01*
X114370500Y-87450000D01*
X114370500Y-86450000D01*
X114770500Y-86050000D01*
X115770500Y-86050000D01*
X115770500Y-87450000D01*
G37*
G36*
X115770500Y-85450000D02*
G01*
X114770500Y-85450000D01*
X114370500Y-85050000D01*
X114370500Y-84050000D01*
X115770500Y-84050000D01*
X115770500Y-85450000D01*
G37*
D10*
X185875000Y-127087500D03*
X185875000Y-128912500D03*
D11*
X181574500Y-111250000D03*
X181574500Y-114175000D03*
X171574500Y-109825000D03*
X171574500Y-112750000D03*
D12*
X173875000Y-138925000D03*
X173875000Y-140575000D03*
D13*
X197875000Y-137150000D03*
X198375000Y-137150000D03*
X198875000Y-137150000D03*
X198875000Y-134400000D03*
X198375000Y-134400000D03*
X197875000Y-134400000D03*
D14*
X159850000Y-116750000D03*
X156900000Y-116750000D03*
D15*
X184574500Y-107150000D03*
X184574500Y-108850000D03*
D16*
X158125000Y-119250000D03*
X158125000Y-121250000D03*
X158125000Y-123250000D03*
X158125000Y-125250000D03*
D17*
X152375000Y-116900000D03*
X152375000Y-127600000D03*
D18*
X192950000Y-111750000D03*
X191300000Y-111750000D03*
D19*
X183000000Y-138500000D03*
D20*
X185020000Y-138500000D03*
D21*
X186250000Y-138500000D03*
D19*
X184000000Y-138500000D03*
D20*
X181980000Y-138500000D03*
D21*
X180750000Y-138500000D03*
D22*
X178375000Y-138555000D03*
D23*
X178375000Y-142135000D03*
D22*
X188625000Y-138555000D03*
D23*
X188625000Y-142135000D03*
D24*
X162700000Y-120750000D03*
X165625000Y-120750000D03*
D14*
X159600000Y-127750000D03*
X156650000Y-127750000D03*
D25*
X194875000Y-124225000D03*
X194875000Y-121275000D03*
D26*
X170562500Y-131000000D03*
X172462500Y-131000000D03*
X171512500Y-129125000D03*
D27*
X175674500Y-111600000D03*
X178474500Y-111600000D03*
X178474500Y-109900000D03*
X175674500Y-109900000D03*
D15*
X176375000Y-143600000D03*
X176375000Y-136600000D03*
D24*
X156912500Y-114000000D03*
X159837500Y-114000000D03*
D18*
X182025000Y-135000000D03*
X180375000Y-135000000D03*
D28*
X199025000Y-123585000D03*
X199025000Y-124555000D03*
X199025000Y-125525000D03*
X199025000Y-126495000D03*
X197625000Y-126495000D03*
X197625000Y-125525000D03*
X197625000Y-124555000D03*
X197625000Y-123585000D03*
D29*
X195874500Y-143250000D03*
X198824500Y-143250000D03*
D30*
X159037000Y-104500000D03*
X156112000Y-104500000D03*
D31*
X165200000Y-113175000D03*
X165200000Y-117325000D03*
X163050000Y-113175000D03*
X163050000Y-117325000D03*
D32*
X171824500Y-143750000D03*
D33*
X151824500Y-143750000D03*
D34*
X171125000Y-140575000D03*
X171125000Y-138925000D03*
D35*
X166324500Y-140750000D03*
D36*
X164324500Y-140750000D03*
X162324500Y-140750000D03*
X160324500Y-140750000D03*
X158324500Y-140750000D03*
X156324500Y-140750000D03*
D37*
X190412500Y-128000000D03*
X188837500Y-128000000D03*
D38*
X198445000Y-101500000D03*
D39*
X195905000Y-101500000D03*
X193365000Y-101500000D03*
X190825000Y-101500000D03*
X188285000Y-101500000D03*
X185745000Y-101500000D03*
X183205000Y-101500000D03*
X180665000Y-101500000D03*
X178125000Y-101500000D03*
X175585000Y-101500000D03*
X173045000Y-101500000D03*
X170505000Y-101500000D03*
X167965000Y-101500000D03*
X165425000Y-101500000D03*
X162885000Y-101500000D03*
X160345000Y-101500000D03*
X157805000Y-101500000D03*
X155265000Y-101500000D03*
X152725000Y-101500000D03*
D40*
X162125000Y-136000000D03*
D41*
X168824500Y-137980000D03*
D42*
X168824500Y-139250000D03*
X168824500Y-140520000D03*
X168824500Y-141790000D03*
D24*
X156662500Y-130250000D03*
X159587500Y-130250000D03*
D43*
X194875000Y-126000000D03*
X194875000Y-128950000D03*
D44*
X191700000Y-133325000D03*
X187550000Y-133325000D03*
X191700000Y-131175000D03*
X187550000Y-131175000D03*
D38*
X198455000Y-97250000D03*
D39*
X195915000Y-97250000D03*
X193375000Y-97250000D03*
X190835000Y-97250000D03*
X188295000Y-97250000D03*
X185755000Y-97250000D03*
X183215000Y-97250000D03*
X180675000Y-97250000D03*
X178135000Y-97250000D03*
X175595000Y-97250000D03*
X173055000Y-97250000D03*
X170515000Y-97250000D03*
X167975000Y-97250000D03*
X165435000Y-97250000D03*
X162895000Y-97250000D03*
X160355000Y-97250000D03*
X157815000Y-97250000D03*
X155275000Y-97250000D03*
X152735000Y-97250000D03*
D16*
X158125000Y-107350000D03*
X158125000Y-109350000D03*
X158125000Y-111350000D03*
D17*
X152375000Y-105000000D03*
X152375000Y-113700000D03*
D16*
X158125000Y-133100000D03*
X158125000Y-135100000D03*
X158125000Y-137100000D03*
D17*
X152375000Y-130750000D03*
X152375000Y-139450000D03*
D45*
X174437500Y-133800000D03*
X174437500Y-135700000D03*
X176312500Y-134750000D03*
D46*
X170825000Y-122398407D03*
X171475000Y-122398407D03*
X172125000Y-122398407D03*
X172775000Y-122398407D03*
X173425000Y-122398407D03*
X174075000Y-122398407D03*
X174725000Y-122398407D03*
X175375000Y-122398407D03*
X176025000Y-122398407D03*
X176675000Y-122398407D03*
X176675000Y-116673407D03*
X176025000Y-116673407D03*
X175375000Y-116673407D03*
X174725000Y-116673407D03*
X174075000Y-116673407D03*
X173425000Y-116673407D03*
X172775000Y-116673407D03*
X172125000Y-116673407D03*
X171475000Y-116673407D03*
X170825000Y-116673407D03*
D34*
X197875000Y-140825000D03*
X197875000Y-139175000D03*
D38*
X195985000Y-105630000D03*
D39*
X198525000Y-105630000D03*
X195985000Y-108170000D03*
X198525000Y-108170000D03*
X195985000Y-110710000D03*
X198525000Y-110710000D03*
X195985000Y-113250000D03*
X198525000Y-113250000D03*
X195985000Y-115790000D03*
X198525000Y-115790000D03*
X195985000Y-118330000D03*
X198525000Y-118330000D03*
D11*
X192125000Y-135787500D03*
X192125000Y-138712500D03*
D18*
X166950000Y-131500000D03*
X165300000Y-131500000D03*
D47*
X184825000Y-132612500D03*
X182925000Y-132612500D03*
X183875000Y-134887500D03*
D24*
X162912500Y-128750000D03*
X165837500Y-128750000D03*
D48*
X199125000Y-129825000D03*
X198625000Y-129825000D03*
X198125000Y-129825000D03*
X197625000Y-129825000D03*
X197625000Y-132175000D03*
X198125000Y-132175000D03*
X198625000Y-132175000D03*
X199125000Y-132175000D03*
D49*
X198375000Y-131000000D03*
D50*
X179386875Y-128741875D03*
D51*
X179386875Y-130011875D03*
X179386875Y-131281875D03*
D12*
X195625000Y-139100000D03*
X195625000Y-140750000D03*
D18*
X163800000Y-131500000D03*
X162150000Y-131500000D03*
D52*
X168362500Y-134350000D03*
X168362500Y-135300000D03*
X168362500Y-136250000D03*
X170637500Y-136250000D03*
X170637500Y-135300000D03*
X170637500Y-134350000D03*
D11*
X192125000Y-140787500D03*
X192125000Y-143712500D03*
D53*
X189249000Y-116800000D03*
X189249000Y-114700000D03*
D34*
X174962500Y-131325000D03*
X174962500Y-129675000D03*
D41*
X184074500Y-117250000D03*
D42*
X182804500Y-117250000D03*
X181534500Y-117250000D03*
X180264500Y-117250000D03*
D10*
X135625000Y-127087500D03*
X135625000Y-128912500D03*
D11*
X131324500Y-111250000D03*
X131324500Y-114175000D03*
X121324500Y-109825000D03*
X121324500Y-112750000D03*
D12*
X123625000Y-138925000D03*
X123625000Y-140575000D03*
D13*
X147625000Y-137150000D03*
X148125000Y-137150000D03*
X148625000Y-137150000D03*
X148625000Y-134400000D03*
X148125000Y-134400000D03*
X147625000Y-134400000D03*
D14*
X109600000Y-116750000D03*
X106650000Y-116750000D03*
D15*
X134324500Y-107150000D03*
X134324500Y-108850000D03*
D16*
X107875000Y-119250000D03*
X107875000Y-121250000D03*
X107875000Y-123250000D03*
X107875000Y-125250000D03*
D17*
X102125000Y-116900000D03*
X102125000Y-127600000D03*
D18*
X142700000Y-111750000D03*
X141050000Y-111750000D03*
D19*
X132750000Y-138500000D03*
D20*
X134770000Y-138500000D03*
D21*
X136000000Y-138500000D03*
D19*
X133750000Y-138500000D03*
D20*
X131730000Y-138500000D03*
D21*
X130500000Y-138500000D03*
D22*
X128125000Y-138555000D03*
D23*
X128125000Y-142135000D03*
D22*
X138375000Y-138555000D03*
D23*
X138375000Y-142135000D03*
D24*
X112450000Y-120750000D03*
X115375000Y-120750000D03*
D14*
X109350000Y-127750000D03*
X106400000Y-127750000D03*
D25*
X144625000Y-124225000D03*
X144625000Y-121275000D03*
D26*
X120312500Y-131000000D03*
X122212500Y-131000000D03*
X121262500Y-129125000D03*
D27*
X125424500Y-111600000D03*
X128224500Y-111600000D03*
X128224500Y-109900000D03*
X125424500Y-109900000D03*
D15*
X126125000Y-143600000D03*
X126125000Y-136600000D03*
D24*
X106662500Y-114000000D03*
X109587500Y-114000000D03*
D18*
X131775000Y-135000000D03*
X130125000Y-135000000D03*
D28*
X148775000Y-123585000D03*
X148775000Y-124555000D03*
X148775000Y-125525000D03*
X148775000Y-126495000D03*
X147375000Y-126495000D03*
X147375000Y-125525000D03*
X147375000Y-124555000D03*
X147375000Y-123585000D03*
D29*
X145624500Y-143250000D03*
X148574500Y-143250000D03*
D30*
X108787000Y-104500000D03*
X105862000Y-104500000D03*
D31*
X114950000Y-113175000D03*
X114950000Y-117325000D03*
X112800000Y-113175000D03*
X112800000Y-117325000D03*
D32*
X121574500Y-143750000D03*
D33*
X101574500Y-143750000D03*
D34*
X120875000Y-140575000D03*
X120875000Y-138925000D03*
D35*
X116074500Y-140750000D03*
D36*
X114074500Y-140750000D03*
X112074500Y-140750000D03*
X110074500Y-140750000D03*
X108074500Y-140750000D03*
X106074500Y-140750000D03*
D37*
X140162500Y-128000000D03*
X138587500Y-128000000D03*
D38*
X148195000Y-101500000D03*
D39*
X145655000Y-101500000D03*
X143115000Y-101500000D03*
X140575000Y-101500000D03*
X138035000Y-101500000D03*
X135495000Y-101500000D03*
X132955000Y-101500000D03*
X130415000Y-101500000D03*
X127875000Y-101500000D03*
X125335000Y-101500000D03*
X122795000Y-101500000D03*
X120255000Y-101500000D03*
X117715000Y-101500000D03*
X115175000Y-101500000D03*
X112635000Y-101500000D03*
X110095000Y-101500000D03*
X107555000Y-101500000D03*
X105015000Y-101500000D03*
X102475000Y-101500000D03*
D40*
X111875000Y-136000000D03*
D41*
X118574500Y-137980000D03*
D42*
X118574500Y-139250000D03*
X118574500Y-140520000D03*
X118574500Y-141790000D03*
D24*
X106412500Y-130250000D03*
X109337500Y-130250000D03*
D43*
X144625000Y-126000000D03*
X144625000Y-128950000D03*
D44*
X141450000Y-133325000D03*
X137300000Y-133325000D03*
X141450000Y-131175000D03*
X137300000Y-131175000D03*
D38*
X148205000Y-97250000D03*
D39*
X145665000Y-97250000D03*
X143125000Y-97250000D03*
X140585000Y-97250000D03*
X138045000Y-97250000D03*
X135505000Y-97250000D03*
X132965000Y-97250000D03*
X130425000Y-97250000D03*
X127885000Y-97250000D03*
X125345000Y-97250000D03*
X122805000Y-97250000D03*
X120265000Y-97250000D03*
X117725000Y-97250000D03*
X115185000Y-97250000D03*
X112645000Y-97250000D03*
X110105000Y-97250000D03*
X107565000Y-97250000D03*
X105025000Y-97250000D03*
X102485000Y-97250000D03*
D16*
X107875000Y-107350000D03*
X107875000Y-109350000D03*
X107875000Y-111350000D03*
D17*
X102125000Y-105000000D03*
X102125000Y-113700000D03*
D16*
X107875000Y-133100000D03*
X107875000Y-135100000D03*
X107875000Y-137100000D03*
D17*
X102125000Y-130750000D03*
X102125000Y-139450000D03*
D45*
X124187500Y-133800000D03*
X124187500Y-135700000D03*
X126062500Y-134750000D03*
D46*
X120575000Y-122398407D03*
X121225000Y-122398407D03*
X121875000Y-122398407D03*
X122525000Y-122398407D03*
X123175000Y-122398407D03*
X123825000Y-122398407D03*
X124475000Y-122398407D03*
X125125000Y-122398407D03*
X125775000Y-122398407D03*
X126425000Y-122398407D03*
X126425000Y-116673407D03*
X125775000Y-116673407D03*
X125125000Y-116673407D03*
X124475000Y-116673407D03*
X123825000Y-116673407D03*
X123175000Y-116673407D03*
X122525000Y-116673407D03*
X121875000Y-116673407D03*
X121225000Y-116673407D03*
X120575000Y-116673407D03*
D34*
X147625000Y-140825000D03*
X147625000Y-139175000D03*
D38*
X145735000Y-105630000D03*
D39*
X148275000Y-105630000D03*
X145735000Y-108170000D03*
X148275000Y-108170000D03*
X145735000Y-110710000D03*
X148275000Y-110710000D03*
X145735000Y-113250000D03*
X148275000Y-113250000D03*
X145735000Y-115790000D03*
X148275000Y-115790000D03*
X145735000Y-118330000D03*
X148275000Y-118330000D03*
D11*
X141875000Y-135787500D03*
X141875000Y-138712500D03*
D18*
X116700000Y-131500000D03*
X115050000Y-131500000D03*
D47*
X134575000Y-132612500D03*
X132675000Y-132612500D03*
X133625000Y-134887500D03*
D24*
X112662500Y-128750000D03*
X115587500Y-128750000D03*
D48*
X148875000Y-129825000D03*
X148375000Y-129825000D03*
X147875000Y-129825000D03*
X147375000Y-129825000D03*
X147375000Y-132175000D03*
X147875000Y-132175000D03*
X148375000Y-132175000D03*
X148875000Y-132175000D03*
D49*
X148125000Y-131000000D03*
D50*
X129136875Y-128741875D03*
D51*
X129136875Y-130011875D03*
X129136875Y-131281875D03*
D12*
X145375000Y-139100000D03*
X145375000Y-140750000D03*
D18*
X113550000Y-131500000D03*
X111900000Y-131500000D03*
D52*
X118112500Y-134350000D03*
X118112500Y-135300000D03*
X118112500Y-136250000D03*
X120387500Y-136250000D03*
X120387500Y-135300000D03*
X120387500Y-134350000D03*
D11*
X141875000Y-140787500D03*
X141875000Y-143712500D03*
D53*
X138999000Y-116800000D03*
X138999000Y-114700000D03*
D34*
X124712500Y-131325000D03*
X124712500Y-129675000D03*
D41*
X133824500Y-117250000D03*
D42*
X132554500Y-117250000D03*
X131284500Y-117250000D03*
X130014500Y-117250000D03*
D10*
X185875000Y-76837500D03*
X185875000Y-78662500D03*
D11*
X181574500Y-61000000D03*
X181574500Y-63925000D03*
X171574500Y-59575000D03*
X171574500Y-62500000D03*
D12*
X173875000Y-88675000D03*
X173875000Y-90325000D03*
D13*
X197875000Y-86900000D03*
X198375000Y-86900000D03*
X198875000Y-86900000D03*
X198875000Y-84150000D03*
X198375000Y-84150000D03*
X197875000Y-84150000D03*
D14*
X159850000Y-66500000D03*
X156900000Y-66500000D03*
D15*
X184574500Y-56900000D03*
X184574500Y-58600000D03*
D16*
X158125000Y-69000000D03*
X158125000Y-71000000D03*
X158125000Y-73000000D03*
X158125000Y-75000000D03*
D17*
X152375000Y-66650000D03*
X152375000Y-77350000D03*
D18*
X192950000Y-61500000D03*
X191300000Y-61500000D03*
D19*
X183000000Y-88250000D03*
D20*
X185020000Y-88250000D03*
D21*
X186250000Y-88250000D03*
D19*
X184000000Y-88250000D03*
D20*
X181980000Y-88250000D03*
D21*
X180750000Y-88250000D03*
D22*
X178375000Y-88305000D03*
D23*
X178375000Y-91885000D03*
D22*
X188625000Y-88305000D03*
D23*
X188625000Y-91885000D03*
D24*
X162700000Y-70500000D03*
X165625000Y-70500000D03*
D14*
X159600000Y-77500000D03*
X156650000Y-77500000D03*
D25*
X194875000Y-73975000D03*
X194875000Y-71025000D03*
D26*
X170562500Y-80750000D03*
X172462500Y-80750000D03*
X171512500Y-78875000D03*
D27*
X175674500Y-61350000D03*
X178474500Y-61350000D03*
X178474500Y-59650000D03*
X175674500Y-59650000D03*
D15*
X176375000Y-93350000D03*
X176375000Y-86350000D03*
D24*
X156912500Y-63750000D03*
X159837500Y-63750000D03*
D18*
X182025000Y-84750000D03*
X180375000Y-84750000D03*
D28*
X199025000Y-73335000D03*
X199025000Y-74305000D03*
X199025000Y-75275000D03*
X199025000Y-76245000D03*
X197625000Y-76245000D03*
X197625000Y-75275000D03*
X197625000Y-74305000D03*
X197625000Y-73335000D03*
D29*
X195874500Y-93000000D03*
X198824500Y-93000000D03*
D30*
X159037000Y-54250000D03*
X156112000Y-54250000D03*
D31*
X165200000Y-62925000D03*
X165200000Y-67075000D03*
X163050000Y-62925000D03*
X163050000Y-67075000D03*
D32*
X171824500Y-93500000D03*
D33*
X151824500Y-93500000D03*
D34*
X171125000Y-90325000D03*
X171125000Y-88675000D03*
D35*
X166324500Y-90500000D03*
D36*
X164324500Y-90500000D03*
X162324500Y-90500000D03*
X160324500Y-90500000D03*
X158324500Y-90500000D03*
X156324500Y-90500000D03*
D37*
X190412500Y-77750000D03*
X188837500Y-77750000D03*
D38*
X198445000Y-51250000D03*
D39*
X195905000Y-51250000D03*
X193365000Y-51250000D03*
X190825000Y-51250000D03*
X188285000Y-51250000D03*
X185745000Y-51250000D03*
X183205000Y-51250000D03*
X180665000Y-51250000D03*
X178125000Y-51250000D03*
X175585000Y-51250000D03*
X173045000Y-51250000D03*
X170505000Y-51250000D03*
X167965000Y-51250000D03*
X165425000Y-51250000D03*
X162885000Y-51250000D03*
X160345000Y-51250000D03*
X157805000Y-51250000D03*
X155265000Y-51250000D03*
X152725000Y-51250000D03*
D40*
X162125000Y-85750000D03*
D41*
X168824500Y-87730000D03*
D42*
X168824500Y-89000000D03*
X168824500Y-90270000D03*
X168824500Y-91540000D03*
D24*
X156662500Y-80000000D03*
X159587500Y-80000000D03*
D43*
X194875000Y-75750000D03*
X194875000Y-78700000D03*
D44*
X191700000Y-83075000D03*
X187550000Y-83075000D03*
X191700000Y-80925000D03*
X187550000Y-80925000D03*
D38*
X198455000Y-47000000D03*
D39*
X195915000Y-47000000D03*
X193375000Y-47000000D03*
X190835000Y-47000000D03*
X188295000Y-47000000D03*
X185755000Y-47000000D03*
X183215000Y-47000000D03*
X180675000Y-47000000D03*
X178135000Y-47000000D03*
X175595000Y-47000000D03*
X173055000Y-47000000D03*
X170515000Y-47000000D03*
X167975000Y-47000000D03*
X165435000Y-47000000D03*
X162895000Y-47000000D03*
X160355000Y-47000000D03*
X157815000Y-47000000D03*
X155275000Y-47000000D03*
X152735000Y-47000000D03*
D16*
X158125000Y-57100000D03*
X158125000Y-59100000D03*
X158125000Y-61100000D03*
D17*
X152375000Y-54750000D03*
X152375000Y-63450000D03*
D16*
X158125000Y-82850000D03*
X158125000Y-84850000D03*
X158125000Y-86850000D03*
D17*
X152375000Y-80500000D03*
X152375000Y-89200000D03*
D45*
X174437500Y-83550000D03*
X174437500Y-85450000D03*
X176312500Y-84500000D03*
D46*
X170825000Y-72148407D03*
X171475000Y-72148407D03*
X172125000Y-72148407D03*
X172775000Y-72148407D03*
X173425000Y-72148407D03*
X174075000Y-72148407D03*
X174725000Y-72148407D03*
X175375000Y-72148407D03*
X176025000Y-72148407D03*
X176675000Y-72148407D03*
X176675000Y-66423407D03*
X176025000Y-66423407D03*
X175375000Y-66423407D03*
X174725000Y-66423407D03*
X174075000Y-66423407D03*
X173425000Y-66423407D03*
X172775000Y-66423407D03*
X172125000Y-66423407D03*
X171475000Y-66423407D03*
X170825000Y-66423407D03*
D34*
X197875000Y-90575000D03*
X197875000Y-88925000D03*
D38*
X195985000Y-55380000D03*
D39*
X198525000Y-55380000D03*
X195985000Y-57920000D03*
X198525000Y-57920000D03*
X195985000Y-60460000D03*
X198525000Y-60460000D03*
X195985000Y-63000000D03*
X198525000Y-63000000D03*
X195985000Y-65540000D03*
X198525000Y-65540000D03*
X195985000Y-68080000D03*
X198525000Y-68080000D03*
D11*
X192125000Y-85537500D03*
X192125000Y-88462500D03*
D18*
X166950000Y-81250000D03*
X165300000Y-81250000D03*
D47*
X184825000Y-82362500D03*
X182925000Y-82362500D03*
X183875000Y-84637500D03*
D24*
X162912500Y-78500000D03*
X165837500Y-78500000D03*
D48*
X199125000Y-79575000D03*
X198625000Y-79575000D03*
X198125000Y-79575000D03*
X197625000Y-79575000D03*
X197625000Y-81925000D03*
X198125000Y-81925000D03*
X198625000Y-81925000D03*
X199125000Y-81925000D03*
D49*
X198375000Y-80750000D03*
D50*
X179386875Y-78491875D03*
D51*
X179386875Y-79761875D03*
X179386875Y-81031875D03*
D12*
X195625000Y-88850000D03*
X195625000Y-90500000D03*
D18*
X163800000Y-81250000D03*
X162150000Y-81250000D03*
D52*
X168362500Y-84100000D03*
X168362500Y-85050000D03*
X168362500Y-86000000D03*
X170637500Y-86000000D03*
X170637500Y-85050000D03*
X170637500Y-84100000D03*
D11*
X192125000Y-90537500D03*
X192125000Y-93462500D03*
D53*
X189249000Y-66550000D03*
X189249000Y-64450000D03*
D34*
X174962500Y-81075000D03*
X174962500Y-79425000D03*
D41*
X184074500Y-67000000D03*
D42*
X182804500Y-67000000D03*
X181534500Y-67000000D03*
X180264500Y-67000000D03*
D10*
X135570500Y-76837500D03*
X135570500Y-78662500D03*
D11*
X131270000Y-61000000D03*
X131270000Y-63925000D03*
X121270000Y-59575000D03*
X121270000Y-62500000D03*
D27*
X128170000Y-59650000D03*
X125370000Y-59650000D03*
X128170000Y-61350000D03*
X125370000Y-61350000D03*
D26*
X120258000Y-80750000D03*
X122158000Y-80750000D03*
X121208000Y-78875000D03*
D25*
X144570500Y-73975000D03*
X144570500Y-71025000D03*
D14*
X109295500Y-77500000D03*
X106345500Y-77500000D03*
D24*
X112395500Y-70500000D03*
X115320500Y-70500000D03*
D18*
X142645500Y-61500000D03*
X140995500Y-61500000D03*
D19*
X132695500Y-88250000D03*
D20*
X134715500Y-88250000D03*
D21*
X135945500Y-88250000D03*
D19*
X133695500Y-88250000D03*
D20*
X131675500Y-88250000D03*
D21*
X130445500Y-88250000D03*
D22*
X128070500Y-88305000D03*
D23*
X128070500Y-91885000D03*
D22*
X138320500Y-88305000D03*
D23*
X138320500Y-91885000D03*
D16*
X107820500Y-69000000D03*
X107820500Y-71000000D03*
X107820500Y-73000000D03*
X107820500Y-75000000D03*
D17*
X102070500Y-66650000D03*
X102070500Y-77350000D03*
D15*
X134270000Y-56900000D03*
X134270000Y-58600000D03*
D14*
X109545500Y-66500000D03*
X106595500Y-66500000D03*
D13*
X147570500Y-84150000D03*
X148070500Y-84150000D03*
X148570500Y-84150000D03*
X148570500Y-86900000D03*
X148070500Y-86900000D03*
X147570500Y-86900000D03*
D12*
X123570500Y-88675000D03*
X123570500Y-90325000D03*
D41*
X133770000Y-67000000D03*
D42*
X132500000Y-67000000D03*
X131230000Y-67000000D03*
X129960000Y-67000000D03*
D24*
X112608000Y-78500000D03*
X115533000Y-78500000D03*
D34*
X124658000Y-81075000D03*
X124658000Y-79425000D03*
D52*
X118058000Y-84100000D03*
X118058000Y-85050000D03*
X118058000Y-86000000D03*
X120333000Y-86000000D03*
X120333000Y-85050000D03*
X120333000Y-84100000D03*
D38*
X148150500Y-47000000D03*
D39*
X145610500Y-47000000D03*
X143070500Y-47000000D03*
X140530500Y-47000000D03*
X137990500Y-47000000D03*
X135450500Y-47000000D03*
X132910500Y-47000000D03*
X130370500Y-47000000D03*
X127830500Y-47000000D03*
X125290500Y-47000000D03*
X122750500Y-47000000D03*
X120210500Y-47000000D03*
X117670500Y-47000000D03*
X115130500Y-47000000D03*
X112590500Y-47000000D03*
X110050500Y-47000000D03*
X107510500Y-47000000D03*
X104970500Y-47000000D03*
X102430500Y-47000000D03*
D16*
X107820500Y-57100000D03*
X107820500Y-59100000D03*
X107820500Y-61100000D03*
D17*
X102070500Y-54750000D03*
X102070500Y-63450000D03*
D38*
X145680500Y-55380000D03*
D39*
X148220500Y-55380000D03*
X145680500Y-57920000D03*
X148220500Y-57920000D03*
X145680500Y-60460000D03*
X148220500Y-60460000D03*
X145680500Y-63000000D03*
X148220500Y-63000000D03*
X145680500Y-65540000D03*
X148220500Y-65540000D03*
X145680500Y-68080000D03*
X148220500Y-68080000D03*
D53*
X138944500Y-66550000D03*
X138944500Y-64450000D03*
D45*
X124133000Y-83550000D03*
X124133000Y-85450000D03*
X126008000Y-84500000D03*
D16*
X107820500Y-82850000D03*
X107820500Y-84850000D03*
X107820500Y-86850000D03*
D17*
X102070500Y-80500000D03*
X102070500Y-89200000D03*
D11*
X141820500Y-90537500D03*
X141820500Y-93462500D03*
D34*
X147570500Y-90575000D03*
X147570500Y-88925000D03*
D18*
X113495500Y-81250000D03*
X111845500Y-81250000D03*
D12*
X145320500Y-88850000D03*
X145320500Y-90500000D03*
D47*
X134520500Y-82362500D03*
X132620500Y-82362500D03*
X133570500Y-84637500D03*
D11*
X141820500Y-85537500D03*
X141820500Y-88462500D03*
D50*
X129082375Y-78491875D03*
D51*
X129082375Y-79761875D03*
X129082375Y-81031875D03*
D48*
X148820500Y-79575000D03*
X148320500Y-79575000D03*
X147820500Y-79575000D03*
X147320500Y-79575000D03*
X147320500Y-81925000D03*
X147820500Y-81925000D03*
X148320500Y-81925000D03*
X148820500Y-81925000D03*
D49*
X148070500Y-80750000D03*
D18*
X116645500Y-81250000D03*
X114995500Y-81250000D03*
D46*
X120520500Y-72148407D03*
X121170500Y-72148407D03*
X121820500Y-72148407D03*
X122470500Y-72148407D03*
X123120500Y-72148407D03*
X123770500Y-72148407D03*
X124420500Y-72148407D03*
X125070500Y-72148407D03*
X125720500Y-72148407D03*
X126370500Y-72148407D03*
X126370500Y-66423407D03*
X125720500Y-66423407D03*
X125070500Y-66423407D03*
X124420500Y-66423407D03*
X123770500Y-66423407D03*
X123120500Y-66423407D03*
X122470500Y-66423407D03*
X121820500Y-66423407D03*
X121170500Y-66423407D03*
X120520500Y-66423407D03*
D41*
X118520000Y-87730000D03*
D42*
X118520000Y-89000000D03*
X118520000Y-90270000D03*
X118520000Y-91540000D03*
D40*
X111820500Y-85750000D03*
D32*
X121520000Y-93500000D03*
D33*
X101520000Y-93500000D03*
D43*
X144570500Y-75750000D03*
X144570500Y-78700000D03*
D28*
X147320500Y-73335000D03*
X147320500Y-74305000D03*
X147320500Y-75275000D03*
X147320500Y-76245000D03*
X148720500Y-76245000D03*
X148720500Y-75275000D03*
X148720500Y-74305000D03*
X148720500Y-73335000D03*
D31*
X114895500Y-62925000D03*
X114895500Y-67075000D03*
X112745500Y-62925000D03*
X112745500Y-67075000D03*
D30*
X108732500Y-54250000D03*
X105807500Y-54250000D03*
D29*
X145570000Y-93000000D03*
X148520000Y-93000000D03*
D35*
X116020000Y-90500000D03*
D36*
X114020000Y-90500000D03*
X112020000Y-90500000D03*
X110020000Y-90500000D03*
X108020000Y-90500000D03*
X106020000Y-90500000D03*
D37*
X140108000Y-77750000D03*
X138533000Y-77750000D03*
D34*
X120820500Y-90325000D03*
X120820500Y-88675000D03*
D24*
X106358000Y-80000000D03*
X109283000Y-80000000D03*
D38*
X148140500Y-51250000D03*
D39*
X145600500Y-51250000D03*
X143060500Y-51250000D03*
X140520500Y-51250000D03*
X137980500Y-51250000D03*
X135440500Y-51250000D03*
X132900500Y-51250000D03*
X130360500Y-51250000D03*
X127820500Y-51250000D03*
X125280500Y-51250000D03*
X122740500Y-51250000D03*
X120200500Y-51250000D03*
X117660500Y-51250000D03*
X115120500Y-51250000D03*
X112580500Y-51250000D03*
X110040500Y-51250000D03*
X107500500Y-51250000D03*
X104960500Y-51250000D03*
X102420500Y-51250000D03*
D18*
X131720500Y-84750000D03*
X130070500Y-84750000D03*
D24*
X106608000Y-63750000D03*
X109533000Y-63750000D03*
D44*
X141395500Y-83075000D03*
X137245500Y-83075000D03*
X141395500Y-80925000D03*
X137245500Y-80925000D03*
D15*
X126070500Y-93350000D03*
X126070500Y-86350000D03*
M02*
