G04 #@! TF.GenerationSoftware,KiCad,Pcbnew,7.0.7*
G04 #@! TF.CreationDate,2024-01-02T16:25:42-05:00*
G04 #@! TF.ProjectId,sensor_node,73656e73-6f72-45f6-9e6f-64652e6b6963,rev?*
G04 #@! TF.SameCoordinates,Original*
G04 #@! TF.FileFunction,Soldermask,Top*
G04 #@! TF.FilePolarity,Negative*
%FSLAX46Y46*%
G04 Gerber Fmt 4.6, Leading zero omitted, Abs format (unit mm)*
G04 Created by KiCad (PCBNEW 7.0.7) date 2024-01-02 16:25:42*
%MOMM*%
%LPD*%
G01*
G04 APERTURE LIST*
G04 Aperture macros list*
%AMRoundRect*
0 Rectangle with rounded corners*
0 $1 Rounding radius*
0 $2 $3 $4 $5 $6 $7 $8 $9 X,Y pos of 4 corners*
0 Add a 4 corners polygon primitive as box body*
4,1,4,$2,$3,$4,$5,$6,$7,$8,$9,$2,$3,0*
0 Add four circle primitives for the rounded corners*
1,1,$1+$1,$2,$3*
1,1,$1+$1,$4,$5*
1,1,$1+$1,$6,$7*
1,1,$1+$1,$8,$9*
0 Add four rect primitives between the rounded corners*
20,1,$1+$1,$2,$3,$4,$5,0*
20,1,$1+$1,$4,$5,$6,$7,0*
20,1,$1+$1,$6,$7,$8,$9,0*
20,1,$1+$1,$8,$9,$2,$3,0*%
%AMFreePoly0*
4,1,6,0.500000,-0.850000,-0.500000,-0.850000,-0.500000,0.550000,-0.200000,0.850000,0.500000,0.850000,0.500000,-0.850000,0.500000,-0.850000,$1*%
G04 Aperture macros list end*
%ADD10C,2.100000*%
%ADD11R,2.100000X2.100000*%
%ADD12RoundRect,0.200000X0.275000X-0.200000X0.275000X0.200000X-0.275000X0.200000X-0.275000X-0.200000X0*%
%ADD13R,1.700000X1.700000*%
%ADD14O,1.700000X1.700000*%
%ADD15RoundRect,0.250000X-0.312500X-0.625000X0.312500X-0.625000X0.312500X0.625000X-0.312500X0.625000X0*%
%ADD16RoundRect,0.218750X0.218750X0.256250X-0.218750X0.256250X-0.218750X-0.256250X0.218750X-0.256250X0*%
%ADD17RoundRect,0.250000X-0.325000X-0.650000X0.325000X-0.650000X0.325000X0.650000X-0.325000X0.650000X0*%
%ADD18R,1.000000X1.000000*%
%ADD19O,1.000000X1.000000*%
%ADD20RoundRect,0.250000X0.312500X0.625000X-0.312500X0.625000X-0.312500X-0.625000X0.312500X-0.625000X0*%
%ADD21R,0.600000X0.720000*%
%ADD22RoundRect,0.250000X-0.650000X0.325000X-0.650000X-0.325000X0.650000X-0.325000X0.650000X0.325000X0*%
%ADD23RoundRect,0.200000X0.200000X0.275000X-0.200000X0.275000X-0.200000X-0.275000X0.200000X-0.275000X0*%
%ADD24R,0.650000X1.050000*%
%ADD25RoundRect,0.250000X-0.625000X0.312500X-0.625000X-0.312500X0.625000X-0.312500X0.625000X0.312500X0*%
%ADD26RoundRect,0.250000X0.650000X-0.325000X0.650000X0.325000X-0.650000X0.325000X-0.650000X-0.325000X0*%
%ADD27RoundRect,0.150000X0.150000X-0.587500X0.150000X0.587500X-0.150000X0.587500X-0.150000X-0.587500X0*%
%ADD28RoundRect,0.200000X-0.275000X0.200000X-0.275000X-0.200000X0.275000X-0.200000X0.275000X0.200000X0*%
%ADD29RoundRect,0.112500X0.112500X-0.187500X0.112500X0.187500X-0.112500X0.187500X-0.112500X-0.187500X0*%
%ADD30R,1.350000X1.350000*%
%ADD31O,1.350000X1.350000*%
%ADD32RoundRect,0.150000X-0.150000X0.512500X-0.150000X-0.512500X0.150000X-0.512500X0.150000X0.512500X0*%
%ADD33RoundRect,0.102000X1.700000X-0.750000X1.700000X0.750000X-1.700000X0.750000X-1.700000X-0.750000X0*%
%ADD34RoundRect,0.102000X1.750000X-0.500000X1.750000X0.500000X-1.750000X0.500000X-1.750000X-0.500000X0*%
%ADD35RoundRect,0.250000X-0.450000X0.262500X-0.450000X-0.262500X0.450000X-0.262500X0.450000X0.262500X0*%
%ADD36RoundRect,0.250000X0.325000X0.650000X-0.325000X0.650000X-0.325000X-0.650000X0.325000X-0.650000X0*%
%ADD37C,1.000000*%
%ADD38RoundRect,0.150000X-0.512500X-0.150000X0.512500X-0.150000X0.512500X0.150000X-0.512500X0.150000X0*%
%ADD39RoundRect,0.102000X-0.600000X-0.450000X0.600000X-0.450000X0.600000X0.450000X-0.600000X0.450000X0*%
%ADD40RoundRect,0.102000X0.750000X-0.800000X0.750000X0.800000X-0.750000X0.800000X-0.750000X-0.800000X0*%
%ADD41RoundRect,0.150000X-0.587500X-0.150000X0.587500X-0.150000X0.587500X0.150000X-0.587500X0.150000X0*%
%ADD42R,0.250000X0.550000*%
%ADD43FreePoly0,270.000000*%
%ADD44RoundRect,0.100000X0.100000X-0.637500X0.100000X0.637500X-0.100000X0.637500X-0.100000X-0.637500X0*%
%ADD45R,1.050000X0.650000*%
%ADD46RoundRect,0.102000X0.125000X-0.275000X0.125000X0.275000X-0.125000X0.275000X-0.125000X-0.275000X0*%
G04 APERTURE END LIST*
G36*
X65250000Y-135200000D02*
G01*
X63850000Y-135200000D01*
X63850000Y-134200000D01*
X64250000Y-133800000D01*
X65250000Y-133800000D01*
X65250000Y-135200000D01*
G37*
G36*
X65250000Y-133200000D02*
G01*
X64250000Y-133200000D01*
X63850000Y-132800000D01*
X63850000Y-131800000D01*
X65250000Y-131800000D01*
X65250000Y-133200000D01*
G37*
G36*
X115250000Y-135200000D02*
G01*
X113850000Y-135200000D01*
X113850000Y-134200000D01*
X114250000Y-133800000D01*
X115250000Y-133800000D01*
X115250000Y-135200000D01*
G37*
G36*
X115250000Y-133200000D02*
G01*
X114250000Y-133200000D01*
X113850000Y-132800000D01*
X113850000Y-131800000D01*
X115250000Y-131800000D01*
X115250000Y-133200000D01*
G37*
G36*
X65250000Y-85200000D02*
G01*
X63850000Y-85200000D01*
X63850000Y-84200000D01*
X64250000Y-83800000D01*
X65250000Y-83800000D01*
X65250000Y-85200000D01*
G37*
G36*
X65250000Y-83200000D02*
G01*
X64250000Y-83200000D01*
X63850000Y-82800000D01*
X63850000Y-81800000D01*
X65250000Y-81800000D01*
X65250000Y-83200000D01*
G37*
G36*
X115250000Y-85200000D02*
G01*
X113850000Y-85200000D01*
X113850000Y-84200000D01*
X114250000Y-83800000D01*
X115250000Y-83800000D01*
X115250000Y-85200000D01*
G37*
G36*
X115250000Y-83200000D02*
G01*
X114250000Y-83200000D01*
X113850000Y-82800000D01*
X113850000Y-81800000D01*
X115250000Y-81800000D01*
X115250000Y-83200000D01*
G37*
D10*
X52000000Y-141500000D03*
D11*
X72000000Y-141500000D03*
D12*
X96770500Y-138825000D03*
X96770500Y-137175000D03*
D13*
X94880500Y-103630000D03*
D14*
X97420500Y-103630000D03*
X94880500Y-106170000D03*
X97420500Y-106170000D03*
X94880500Y-108710000D03*
X97420500Y-108710000D03*
X94880500Y-111250000D03*
X97420500Y-111250000D03*
X94880500Y-113790000D03*
X97420500Y-113790000D03*
X94880500Y-116330000D03*
X97420500Y-116330000D03*
D15*
X61808000Y-126750000D03*
X64733000Y-126750000D03*
D16*
X89308000Y-126000000D03*
X87733000Y-126000000D03*
D12*
X70020500Y-138575000D03*
X70020500Y-136925000D03*
D17*
X94770000Y-141250000D03*
X97720000Y-141250000D03*
D18*
X82970000Y-115250000D03*
D19*
X81700000Y-115250000D03*
X80430000Y-115250000D03*
X79160000Y-115250000D03*
D20*
X58612000Y-102500000D03*
X55687000Y-102500000D03*
D21*
X97920500Y-121585000D03*
X97920500Y-122555000D03*
X97920500Y-123525000D03*
X97920500Y-124495000D03*
X96520500Y-124495000D03*
X96520500Y-123525000D03*
X96520500Y-122555000D03*
X96520500Y-121585000D03*
D22*
X93770500Y-124000000D03*
X93770500Y-126950000D03*
D23*
X80920500Y-133000000D03*
X79270500Y-133000000D03*
D24*
X64775000Y-111175000D03*
X64775000Y-115325000D03*
X62625000Y-111175000D03*
X62625000Y-115325000D03*
D14*
X51980000Y-99800000D03*
X54520000Y-99800000D03*
X57060000Y-99800000D03*
X59600000Y-99800000D03*
X62140000Y-99800000D03*
X64680000Y-99800000D03*
X67220000Y-99800000D03*
X69760000Y-99800000D03*
X72300000Y-99800000D03*
X74840000Y-99800000D03*
X77380000Y-99800000D03*
X79920000Y-99800000D03*
X82460000Y-99800000D03*
X85000000Y-99800000D03*
X87540000Y-99800000D03*
X90080000Y-99800000D03*
X92620000Y-99800000D03*
X95160000Y-99800000D03*
D13*
X97700000Y-99800000D03*
D18*
X67950000Y-136500000D03*
D19*
X67950000Y-137770000D03*
X67950000Y-139040000D03*
X67950000Y-140310000D03*
D25*
X70470000Y-107825000D03*
X70470000Y-110750000D03*
D26*
X93770500Y-122225000D03*
X93770500Y-119275000D03*
D27*
X69458000Y-129000000D03*
X71358000Y-129000000D03*
X70408000Y-127125000D03*
D25*
X80470000Y-109250000D03*
X80470000Y-112175000D03*
D28*
X72770500Y-136925000D03*
X72770500Y-138575000D03*
D29*
X88144500Y-114800000D03*
X88144500Y-112700000D03*
D30*
X65450000Y-138750000D03*
D31*
X63450000Y-138750000D03*
X61450000Y-138750000D03*
X59450000Y-138750000D03*
X57450000Y-138750000D03*
X55450000Y-138750000D03*
D32*
X83720500Y-130612500D03*
X81820500Y-130612500D03*
X82770500Y-132887500D03*
D23*
X65845500Y-129500000D03*
X64195500Y-129500000D03*
D15*
X56487500Y-112000000D03*
X59412500Y-112000000D03*
D33*
X52550000Y-137450000D03*
X52550000Y-128750000D03*
D34*
X58300000Y-135100000D03*
X58300000Y-133100000D03*
X58300000Y-131100000D03*
D15*
X62275000Y-118750000D03*
X65200000Y-118750000D03*
D35*
X84770500Y-125087500D03*
X84770500Y-126912500D03*
D23*
X91845500Y-109750000D03*
X90195500Y-109750000D03*
D36*
X59425000Y-114750000D03*
X56475000Y-114750000D03*
D37*
X83470000Y-105150000D03*
X83470000Y-106850000D03*
D28*
X94520500Y-137100000D03*
X94520500Y-138750000D03*
D37*
X75412500Y-141600000D03*
X75412500Y-134600000D03*
D15*
X56437500Y-128250000D03*
X59362500Y-128250000D03*
D34*
X58350000Y-117250000D03*
X58350000Y-119250000D03*
X58350000Y-121250000D03*
X58350000Y-123250000D03*
D33*
X52600000Y-114900000D03*
X52600000Y-125600000D03*
D38*
X67258000Y-132350000D03*
X67258000Y-133300000D03*
X67258000Y-134250000D03*
X69533000Y-134250000D03*
X69533000Y-133300000D03*
X69533000Y-132350000D03*
D23*
X62695500Y-129500000D03*
X61045500Y-129500000D03*
D39*
X74570000Y-109600000D03*
X77370000Y-109600000D03*
X77370000Y-107900000D03*
X74570000Y-107900000D03*
D36*
X59375000Y-125750000D03*
X56425000Y-125750000D03*
D14*
X51990000Y-96050000D03*
X54530000Y-96050000D03*
X57070000Y-96050000D03*
X59610000Y-96050000D03*
X62150000Y-96050000D03*
X64690000Y-96050000D03*
X67230000Y-96050000D03*
X69770000Y-96050000D03*
X72310000Y-96050000D03*
X74850000Y-96050000D03*
X77390000Y-96050000D03*
X79930000Y-96050000D03*
X82470000Y-96050000D03*
X85010000Y-96050000D03*
X87550000Y-96050000D03*
X90090000Y-96050000D03*
X92630000Y-96050000D03*
X95170000Y-96050000D03*
D13*
X97710000Y-96050000D03*
D40*
X61300000Y-133500000D03*
D41*
X73333000Y-131800000D03*
X73333000Y-133700000D03*
X75208000Y-132750000D03*
D12*
X73858000Y-129325000D03*
X73858000Y-127675000D03*
D42*
X98020500Y-127825000D03*
X97520500Y-127825000D03*
X97020500Y-127825000D03*
X96520500Y-127825000D03*
X96520500Y-130175000D03*
X97020500Y-130175000D03*
X97520500Y-130175000D03*
X98020500Y-130175000D03*
D43*
X97270500Y-129000000D03*
D44*
X69720500Y-120398407D03*
X70370500Y-120398407D03*
X71020500Y-120398407D03*
X71670500Y-120398407D03*
X72320500Y-120398407D03*
X72970500Y-120398407D03*
X73620500Y-120398407D03*
X74270500Y-120398407D03*
X74920500Y-120398407D03*
X75570500Y-120398407D03*
X75570500Y-114673407D03*
X74920500Y-114673407D03*
X74270500Y-114673407D03*
X73620500Y-114673407D03*
X72970500Y-114673407D03*
X72320500Y-114673407D03*
X71670500Y-114673407D03*
X71020500Y-114673407D03*
X70370500Y-114673407D03*
X69720500Y-114673407D03*
D45*
X90595500Y-131325000D03*
X86445500Y-131325000D03*
X90595500Y-129175000D03*
X86445500Y-129175000D03*
D46*
X96770500Y-135150000D03*
X97270500Y-135150000D03*
X97770500Y-135150000D03*
X97770500Y-132400000D03*
X97270500Y-132400000D03*
X96770500Y-132400000D03*
D34*
X58400000Y-105350000D03*
X58400000Y-107350000D03*
X58400000Y-109350000D03*
D33*
X52650000Y-103000000D03*
X52650000Y-111700000D03*
D12*
X146770500Y-138825000D03*
X146770500Y-137175000D03*
D13*
X144880500Y-103630000D03*
D14*
X147420500Y-103630000D03*
X144880500Y-106170000D03*
X147420500Y-106170000D03*
X144880500Y-108710000D03*
X147420500Y-108710000D03*
X144880500Y-111250000D03*
X147420500Y-111250000D03*
X144880500Y-113790000D03*
X147420500Y-113790000D03*
X144880500Y-116330000D03*
X147420500Y-116330000D03*
D15*
X111808000Y-126750000D03*
X114733000Y-126750000D03*
D16*
X139308000Y-126000000D03*
X137733000Y-126000000D03*
D12*
X120020500Y-138575000D03*
X120020500Y-136925000D03*
D17*
X144770000Y-141250000D03*
X147720000Y-141250000D03*
D18*
X132970000Y-115250000D03*
D19*
X131700000Y-115250000D03*
X130430000Y-115250000D03*
X129160000Y-115250000D03*
D21*
X147920500Y-121585000D03*
X147920500Y-122555000D03*
X147920500Y-123525000D03*
X147920500Y-124495000D03*
X146520500Y-124495000D03*
X146520500Y-123525000D03*
X146520500Y-122555000D03*
X146520500Y-121585000D03*
D22*
X143770500Y-124000000D03*
X143770500Y-126950000D03*
D23*
X130920500Y-133000000D03*
X129270500Y-133000000D03*
D15*
X106487500Y-112000000D03*
X109412500Y-112000000D03*
D20*
X108612000Y-102500000D03*
X105687000Y-102500000D03*
D25*
X120470000Y-107825000D03*
X120470000Y-110750000D03*
D26*
X143770500Y-122225000D03*
X143770500Y-119275000D03*
D27*
X119458000Y-129000000D03*
X121358000Y-129000000D03*
X120408000Y-127125000D03*
D28*
X122770500Y-136925000D03*
X122770500Y-138575000D03*
D14*
X101980000Y-99800000D03*
X104520000Y-99800000D03*
X107060000Y-99800000D03*
X109600000Y-99800000D03*
X112140000Y-99800000D03*
X114680000Y-99800000D03*
X117220000Y-99800000D03*
X119760000Y-99800000D03*
X122300000Y-99800000D03*
X124840000Y-99800000D03*
X127380000Y-99800000D03*
X129920000Y-99800000D03*
X132460000Y-99800000D03*
X135000000Y-99800000D03*
X137540000Y-99800000D03*
X140080000Y-99800000D03*
X142620000Y-99800000D03*
X145160000Y-99800000D03*
D13*
X147700000Y-99800000D03*
D32*
X133720500Y-130612500D03*
X131820500Y-130612500D03*
X132770500Y-132887500D03*
D15*
X106437500Y-128250000D03*
X109362500Y-128250000D03*
D37*
X125412500Y-141600000D03*
X125412500Y-134600000D03*
D33*
X102550000Y-137450000D03*
X102550000Y-128750000D03*
D34*
X108300000Y-135100000D03*
X108300000Y-133100000D03*
X108300000Y-131100000D03*
D15*
X112275000Y-118750000D03*
X115200000Y-118750000D03*
D35*
X134770500Y-125087500D03*
X134770500Y-126912500D03*
D23*
X141845500Y-109750000D03*
X140195500Y-109750000D03*
D37*
X133470000Y-105150000D03*
X133470000Y-106850000D03*
D28*
X144520500Y-137100000D03*
X144520500Y-138750000D03*
D29*
X138144500Y-114800000D03*
X138144500Y-112700000D03*
D18*
X117950000Y-136500000D03*
D19*
X117950000Y-137770000D03*
X117950000Y-139040000D03*
X117950000Y-140310000D03*
D42*
X148020500Y-127825000D03*
X147520500Y-127825000D03*
X147020500Y-127825000D03*
X146520500Y-127825000D03*
X146520500Y-130175000D03*
X147020500Y-130175000D03*
X147520500Y-130175000D03*
X148020500Y-130175000D03*
D43*
X147270500Y-129000000D03*
D34*
X108350000Y-117250000D03*
X108350000Y-119250000D03*
X108350000Y-121250000D03*
X108350000Y-123250000D03*
D33*
X102600000Y-114900000D03*
X102600000Y-125600000D03*
D14*
X101990000Y-96050000D03*
X104530000Y-96050000D03*
X107070000Y-96050000D03*
X109610000Y-96050000D03*
X112150000Y-96050000D03*
X114690000Y-96050000D03*
X117230000Y-96050000D03*
X119770000Y-96050000D03*
X122310000Y-96050000D03*
X124850000Y-96050000D03*
X127390000Y-96050000D03*
X129930000Y-96050000D03*
X132470000Y-96050000D03*
X135010000Y-96050000D03*
X137550000Y-96050000D03*
X140090000Y-96050000D03*
X142630000Y-96050000D03*
X145170000Y-96050000D03*
D13*
X147710000Y-96050000D03*
D24*
X114775000Y-111175000D03*
X114775000Y-115325000D03*
X112625000Y-111175000D03*
X112625000Y-115325000D03*
D38*
X117258000Y-132350000D03*
X117258000Y-133300000D03*
X117258000Y-134250000D03*
X119533000Y-134250000D03*
X119533000Y-133300000D03*
X119533000Y-132350000D03*
D23*
X112695500Y-129500000D03*
X111045500Y-129500000D03*
D25*
X130470000Y-109250000D03*
X130470000Y-112175000D03*
D30*
X115450000Y-138750000D03*
D31*
X113450000Y-138750000D03*
X111450000Y-138750000D03*
X109450000Y-138750000D03*
X107450000Y-138750000D03*
X105450000Y-138750000D03*
D39*
X124570000Y-109600000D03*
X127370000Y-109600000D03*
X127370000Y-107900000D03*
X124570000Y-107900000D03*
D36*
X109375000Y-125750000D03*
X106425000Y-125750000D03*
D40*
X111300000Y-133500000D03*
D23*
X115845500Y-129500000D03*
X114195500Y-129500000D03*
D41*
X123333000Y-131800000D03*
X123333000Y-133700000D03*
X125208000Y-132750000D03*
D12*
X123858000Y-129325000D03*
X123858000Y-127675000D03*
D36*
X109425000Y-114750000D03*
X106475000Y-114750000D03*
D44*
X119720500Y-120398407D03*
X120370500Y-120398407D03*
X121020500Y-120398407D03*
X121670500Y-120398407D03*
X122320500Y-120398407D03*
X122970500Y-120398407D03*
X123620500Y-120398407D03*
X124270500Y-120398407D03*
X124920500Y-120398407D03*
X125570500Y-120398407D03*
X125570500Y-114673407D03*
X124920500Y-114673407D03*
X124270500Y-114673407D03*
X123620500Y-114673407D03*
X122970500Y-114673407D03*
X122320500Y-114673407D03*
X121670500Y-114673407D03*
X121020500Y-114673407D03*
X120370500Y-114673407D03*
X119720500Y-114673407D03*
D45*
X140595500Y-131325000D03*
X136445500Y-131325000D03*
X140595500Y-129175000D03*
X136445500Y-129175000D03*
D46*
X146770500Y-135150000D03*
X147270500Y-135150000D03*
X147770500Y-135150000D03*
X147770500Y-132400000D03*
X147270500Y-132400000D03*
X146770500Y-132400000D03*
D34*
X108400000Y-105350000D03*
X108400000Y-107350000D03*
X108400000Y-109350000D03*
D33*
X102650000Y-103000000D03*
X102650000Y-111700000D03*
D10*
X102000000Y-141500000D03*
D11*
X122000000Y-141500000D03*
D12*
X96770500Y-88825000D03*
X96770500Y-87175000D03*
D13*
X94880500Y-53630000D03*
D14*
X97420500Y-53630000D03*
X94880500Y-56170000D03*
X97420500Y-56170000D03*
X94880500Y-58710000D03*
X97420500Y-58710000D03*
X94880500Y-61250000D03*
X97420500Y-61250000D03*
X94880500Y-63790000D03*
X97420500Y-63790000D03*
X94880500Y-66330000D03*
X97420500Y-66330000D03*
D15*
X61808000Y-76750000D03*
X64733000Y-76750000D03*
D16*
X89308000Y-76000000D03*
X87733000Y-76000000D03*
D17*
X94770000Y-91250000D03*
X97720000Y-91250000D03*
D18*
X82970000Y-65250000D03*
D19*
X81700000Y-65250000D03*
X80430000Y-65250000D03*
X79160000Y-65250000D03*
D20*
X58612000Y-52500000D03*
X55687000Y-52500000D03*
D21*
X97920500Y-71585000D03*
X97920500Y-72555000D03*
X97920500Y-73525000D03*
X97920500Y-74495000D03*
X96520500Y-74495000D03*
X96520500Y-73525000D03*
X96520500Y-72555000D03*
X96520500Y-71585000D03*
D23*
X80920500Y-83000000D03*
X79270500Y-83000000D03*
D15*
X56487500Y-62000000D03*
X59412500Y-62000000D03*
D30*
X65450000Y-88750000D03*
D31*
X63450000Y-88750000D03*
X61450000Y-88750000D03*
X59450000Y-88750000D03*
X57450000Y-88750000D03*
X55450000Y-88750000D03*
D37*
X75412500Y-91600000D03*
X75412500Y-84600000D03*
D14*
X51980000Y-49800000D03*
X54520000Y-49800000D03*
X57060000Y-49800000D03*
X59600000Y-49800000D03*
X62140000Y-49800000D03*
X64680000Y-49800000D03*
X67220000Y-49800000D03*
X69760000Y-49800000D03*
X72300000Y-49800000D03*
X74840000Y-49800000D03*
X77380000Y-49800000D03*
X79920000Y-49800000D03*
X82460000Y-49800000D03*
X85000000Y-49800000D03*
X87540000Y-49800000D03*
X90080000Y-49800000D03*
X92620000Y-49800000D03*
X95160000Y-49800000D03*
D13*
X97700000Y-49800000D03*
D25*
X70470000Y-57825000D03*
X70470000Y-60750000D03*
D26*
X93770500Y-72225000D03*
X93770500Y-69275000D03*
D25*
X80470000Y-59250000D03*
X80470000Y-62175000D03*
D28*
X72770500Y-86925000D03*
X72770500Y-88575000D03*
D29*
X88144500Y-64800000D03*
X88144500Y-62700000D03*
D32*
X83720500Y-80612500D03*
X81820500Y-80612500D03*
X82770500Y-82887500D03*
D23*
X65845500Y-79500000D03*
X64195500Y-79500000D03*
D15*
X56437500Y-78250000D03*
X59362500Y-78250000D03*
D33*
X52550000Y-87450000D03*
X52550000Y-78750000D03*
D34*
X58300000Y-85100000D03*
X58300000Y-83100000D03*
X58300000Y-81100000D03*
D15*
X62275000Y-68750000D03*
X65200000Y-68750000D03*
D23*
X91845500Y-59750000D03*
X90195500Y-59750000D03*
D36*
X59425000Y-64750000D03*
X56475000Y-64750000D03*
D28*
X94520500Y-87100000D03*
X94520500Y-88750000D03*
D35*
X84770500Y-75087500D03*
X84770500Y-76912500D03*
D18*
X67950000Y-86500000D03*
D19*
X67950000Y-87770000D03*
X67950000Y-89040000D03*
X67950000Y-90310000D03*
D14*
X51990000Y-46050000D03*
X54530000Y-46050000D03*
X57070000Y-46050000D03*
X59610000Y-46050000D03*
X62150000Y-46050000D03*
X64690000Y-46050000D03*
X67230000Y-46050000D03*
X69770000Y-46050000D03*
X72310000Y-46050000D03*
X74850000Y-46050000D03*
X77390000Y-46050000D03*
X79930000Y-46050000D03*
X82470000Y-46050000D03*
X85010000Y-46050000D03*
X87550000Y-46050000D03*
X90090000Y-46050000D03*
X92630000Y-46050000D03*
X95170000Y-46050000D03*
D13*
X97710000Y-46050000D03*
D42*
X98020500Y-77825000D03*
X97520500Y-77825000D03*
X97020500Y-77825000D03*
X96520500Y-77825000D03*
X96520500Y-80175000D03*
X97020500Y-80175000D03*
X97520500Y-80175000D03*
X98020500Y-80175000D03*
D43*
X97270500Y-79000000D03*
D34*
X58350000Y-67250000D03*
X58350000Y-69250000D03*
X58350000Y-71250000D03*
X58350000Y-73250000D03*
D33*
X52600000Y-64900000D03*
X52600000Y-75600000D03*
D38*
X67258000Y-82350000D03*
X67258000Y-83300000D03*
X67258000Y-84250000D03*
X69533000Y-84250000D03*
X69533000Y-83300000D03*
X69533000Y-82350000D03*
D22*
X93770500Y-74000000D03*
X93770500Y-76950000D03*
D37*
X83470000Y-55150000D03*
X83470000Y-56850000D03*
D23*
X62695500Y-79500000D03*
X61045500Y-79500000D03*
D39*
X74570000Y-59600000D03*
X77370000Y-59600000D03*
X77370000Y-57900000D03*
X74570000Y-57900000D03*
D12*
X70020500Y-88575000D03*
X70020500Y-86925000D03*
D24*
X64775000Y-61175000D03*
X64775000Y-65325000D03*
X62625000Y-61175000D03*
X62625000Y-65325000D03*
D27*
X69458000Y-79000000D03*
X71358000Y-79000000D03*
X70408000Y-77125000D03*
D40*
X61300000Y-83500000D03*
D41*
X73333000Y-81800000D03*
X73333000Y-83700000D03*
X75208000Y-82750000D03*
D12*
X73858000Y-79325000D03*
X73858000Y-77675000D03*
D44*
X69720500Y-70398407D03*
X70370500Y-70398407D03*
X71020500Y-70398407D03*
X71670500Y-70398407D03*
X72320500Y-70398407D03*
X72970500Y-70398407D03*
X73620500Y-70398407D03*
X74270500Y-70398407D03*
X74920500Y-70398407D03*
X75570500Y-70398407D03*
X75570500Y-64673407D03*
X74920500Y-64673407D03*
X74270500Y-64673407D03*
X73620500Y-64673407D03*
X72970500Y-64673407D03*
X72320500Y-64673407D03*
X71670500Y-64673407D03*
X71020500Y-64673407D03*
X70370500Y-64673407D03*
X69720500Y-64673407D03*
D36*
X59375000Y-75750000D03*
X56425000Y-75750000D03*
D45*
X90595500Y-81325000D03*
X86445500Y-81325000D03*
X90595500Y-79175000D03*
X86445500Y-79175000D03*
D46*
X96770500Y-85150000D03*
X97270500Y-85150000D03*
X97770500Y-85150000D03*
X97770500Y-82400000D03*
X97270500Y-82400000D03*
X96770500Y-82400000D03*
D34*
X58400000Y-55350000D03*
X58400000Y-57350000D03*
X58400000Y-59350000D03*
D33*
X52650000Y-53000000D03*
X52650000Y-61700000D03*
D10*
X52000000Y-91500000D03*
D11*
X72000000Y-91500000D03*
D25*
X130470000Y-59250000D03*
X130470000Y-62175000D03*
D27*
X119458000Y-79000000D03*
X121358000Y-79000000D03*
X120408000Y-77125000D03*
D26*
X143770500Y-72225000D03*
X143770500Y-69275000D03*
D36*
X109375000Y-75750000D03*
X106425000Y-75750000D03*
D25*
X120470000Y-57825000D03*
X120470000Y-60750000D03*
D15*
X112275000Y-68750000D03*
X115200000Y-68750000D03*
D23*
X141845500Y-59750000D03*
X140195500Y-59750000D03*
D34*
X108350000Y-67250000D03*
X108350000Y-69250000D03*
X108350000Y-71250000D03*
X108350000Y-73250000D03*
D33*
X102600000Y-64900000D03*
X102600000Y-75600000D03*
D37*
X133470000Y-55150000D03*
X133470000Y-56850000D03*
D36*
X109425000Y-64750000D03*
X106475000Y-64750000D03*
D46*
X146770500Y-85150000D03*
X147270500Y-85150000D03*
X147770500Y-85150000D03*
X147770500Y-82400000D03*
X147270500Y-82400000D03*
X146770500Y-82400000D03*
D28*
X122770500Y-86925000D03*
X122770500Y-88575000D03*
D18*
X132970000Y-65250000D03*
D19*
X131700000Y-65250000D03*
X130430000Y-65250000D03*
X129160000Y-65250000D03*
D15*
X111808000Y-76750000D03*
X114733000Y-76750000D03*
D12*
X123858000Y-79325000D03*
X123858000Y-77675000D03*
D38*
X117258000Y-82350000D03*
X117258000Y-83300000D03*
X117258000Y-84250000D03*
X119533000Y-84250000D03*
X119533000Y-83300000D03*
X119533000Y-82350000D03*
D14*
X101990000Y-46050000D03*
X104530000Y-46050000D03*
X107070000Y-46050000D03*
X109610000Y-46050000D03*
X112150000Y-46050000D03*
X114690000Y-46050000D03*
X117230000Y-46050000D03*
X119770000Y-46050000D03*
X122310000Y-46050000D03*
X124850000Y-46050000D03*
X127390000Y-46050000D03*
X129930000Y-46050000D03*
X132470000Y-46050000D03*
X135010000Y-46050000D03*
X137550000Y-46050000D03*
X140090000Y-46050000D03*
X142630000Y-46050000D03*
X145170000Y-46050000D03*
D13*
X147710000Y-46050000D03*
D34*
X108400000Y-55350000D03*
X108400000Y-57350000D03*
X108400000Y-59350000D03*
D33*
X102650000Y-53000000D03*
X102650000Y-61700000D03*
D35*
X134770500Y-75087500D03*
X134770500Y-76912500D03*
D13*
X144880500Y-53630000D03*
D14*
X147420500Y-53630000D03*
X144880500Y-56170000D03*
X147420500Y-56170000D03*
X144880500Y-58710000D03*
X147420500Y-58710000D03*
X144880500Y-61250000D03*
X147420500Y-61250000D03*
X144880500Y-63790000D03*
X147420500Y-63790000D03*
X144880500Y-66330000D03*
X147420500Y-66330000D03*
D29*
X138144500Y-64800000D03*
X138144500Y-62700000D03*
D41*
X123333000Y-81800000D03*
X123333000Y-83700000D03*
X125208000Y-82750000D03*
D33*
X102550000Y-87450000D03*
X102550000Y-78750000D03*
D34*
X108300000Y-85100000D03*
X108300000Y-83100000D03*
X108300000Y-81100000D03*
D12*
X146770500Y-88825000D03*
X146770500Y-87175000D03*
D23*
X112695500Y-79500000D03*
X111045500Y-79500000D03*
D28*
X144520500Y-87100000D03*
X144520500Y-88750000D03*
D39*
X124570000Y-59600000D03*
X127370000Y-59600000D03*
X127370000Y-57900000D03*
X124570000Y-57900000D03*
D32*
X133720500Y-80612500D03*
X131820500Y-80612500D03*
X132770500Y-82887500D03*
D42*
X148020500Y-77825000D03*
X147520500Y-77825000D03*
X147020500Y-77825000D03*
X146520500Y-77825000D03*
X146520500Y-80175000D03*
X147020500Y-80175000D03*
X147520500Y-80175000D03*
X148020500Y-80175000D03*
D43*
X147270500Y-79000000D03*
D23*
X115845500Y-79500000D03*
X114195500Y-79500000D03*
D44*
X119720500Y-70398407D03*
X120370500Y-70398407D03*
X121020500Y-70398407D03*
X121670500Y-70398407D03*
X122320500Y-70398407D03*
X122970500Y-70398407D03*
X123620500Y-70398407D03*
X124270500Y-70398407D03*
X124920500Y-70398407D03*
X125570500Y-70398407D03*
X125570500Y-64673407D03*
X124920500Y-64673407D03*
X124270500Y-64673407D03*
X123620500Y-64673407D03*
X122970500Y-64673407D03*
X122320500Y-64673407D03*
X121670500Y-64673407D03*
X121020500Y-64673407D03*
X120370500Y-64673407D03*
X119720500Y-64673407D03*
D18*
X117950000Y-86500000D03*
D19*
X117950000Y-87770000D03*
X117950000Y-89040000D03*
X117950000Y-90310000D03*
D40*
X111300000Y-83500000D03*
D10*
X102000000Y-91500000D03*
D11*
X122000000Y-91500000D03*
D22*
X143770500Y-74000000D03*
X143770500Y-76950000D03*
D21*
X147920500Y-71585000D03*
X147920500Y-72555000D03*
X147920500Y-73525000D03*
X147920500Y-74495000D03*
X146520500Y-74495000D03*
X146520500Y-73525000D03*
X146520500Y-72555000D03*
X146520500Y-71585000D03*
D24*
X114775000Y-61175000D03*
X114775000Y-65325000D03*
X112625000Y-61175000D03*
X112625000Y-65325000D03*
D20*
X108612000Y-52500000D03*
X105687000Y-52500000D03*
D17*
X144770000Y-91250000D03*
X147720000Y-91250000D03*
D30*
X115450000Y-88750000D03*
D31*
X113450000Y-88750000D03*
X111450000Y-88750000D03*
X109450000Y-88750000D03*
X107450000Y-88750000D03*
X105450000Y-88750000D03*
D16*
X139308000Y-76000000D03*
X137733000Y-76000000D03*
D12*
X120020500Y-88575000D03*
X120020500Y-86925000D03*
D15*
X106437500Y-78250000D03*
X109362500Y-78250000D03*
D14*
X101980000Y-49800000D03*
X104520000Y-49800000D03*
X107060000Y-49800000D03*
X109600000Y-49800000D03*
X112140000Y-49800000D03*
X114680000Y-49800000D03*
X117220000Y-49800000D03*
X119760000Y-49800000D03*
X122300000Y-49800000D03*
X124840000Y-49800000D03*
X127380000Y-49800000D03*
X129920000Y-49800000D03*
X132460000Y-49800000D03*
X135000000Y-49800000D03*
X137540000Y-49800000D03*
X140080000Y-49800000D03*
X142620000Y-49800000D03*
X145160000Y-49800000D03*
D13*
X147700000Y-49800000D03*
D23*
X130920500Y-83000000D03*
X129270500Y-83000000D03*
D15*
X106487500Y-62000000D03*
X109412500Y-62000000D03*
D45*
X140595500Y-81325000D03*
X136445500Y-81325000D03*
X140595500Y-79175000D03*
X136445500Y-79175000D03*
D37*
X125412500Y-91600000D03*
X125412500Y-84600000D03*
M02*
