G04 #@! TF.GenerationSoftware,KiCad,Pcbnew,7.0.7*
G04 #@! TF.CreationDate,2023-12-30T15:49:33-05:00*
G04 #@! TF.ProjectId,sensor_node,73656e73-6f72-45f6-9e6f-64652e6b6963,rev?*
G04 #@! TF.SameCoordinates,Original*
G04 #@! TF.FileFunction,Soldermask,Top*
G04 #@! TF.FilePolarity,Negative*
%FSLAX46Y46*%
G04 Gerber Fmt 4.6, Leading zero omitted, Abs format (unit mm)*
G04 Created by KiCad (PCBNEW 7.0.7) date 2023-12-30 15:49:33*
%MOMM*%
%LPD*%
G01*
G04 APERTURE LIST*
G04 Aperture macros list*
%AMRoundRect*
0 Rectangle with rounded corners*
0 $1 Rounding radius*
0 $2 $3 $4 $5 $6 $7 $8 $9 X,Y pos of 4 corners*
0 Add a 4 corners polygon primitive as box body*
4,1,4,$2,$3,$4,$5,$6,$7,$8,$9,$2,$3,0*
0 Add four circle primitives for the rounded corners*
1,1,$1+$1,$2,$3*
1,1,$1+$1,$4,$5*
1,1,$1+$1,$6,$7*
1,1,$1+$1,$8,$9*
0 Add four rect primitives between the rounded corners*
20,1,$1+$1,$2,$3,$4,$5,0*
20,1,$1+$1,$4,$5,$6,$7,0*
20,1,$1+$1,$6,$7,$8,$9,0*
20,1,$1+$1,$8,$9,$2,$3,0*%
%AMFreePoly0*
4,1,6,0.500000,-0.850000,-0.500000,-0.850000,-0.500000,0.550000,-0.200000,0.850000,0.500000,0.850000,0.500000,-0.850000,0.500000,-0.850000,$1*%
G04 Aperture macros list end*
%ADD10RoundRect,0.250000X-0.450000X0.262500X-0.450000X-0.262500X0.450000X-0.262500X0.450000X0.262500X0*%
%ADD11RoundRect,0.250000X-0.625000X0.312500X-0.625000X-0.312500X0.625000X-0.312500X0.625000X0.312500X0*%
%ADD12RoundRect,0.102000X-0.600000X-0.450000X0.600000X-0.450000X0.600000X0.450000X-0.600000X0.450000X0*%
%ADD13RoundRect,0.150000X0.150000X-0.587500X0.150000X0.587500X-0.150000X0.587500X-0.150000X-0.587500X0*%
%ADD14RoundRect,0.250000X0.650000X-0.325000X0.650000X0.325000X-0.650000X0.325000X-0.650000X-0.325000X0*%
%ADD15RoundRect,0.250000X0.325000X0.650000X-0.325000X0.650000X-0.325000X-0.650000X0.325000X-0.650000X0*%
%ADD16RoundRect,0.250000X-0.312500X-0.625000X0.312500X-0.625000X0.312500X0.625000X-0.312500X0.625000X0*%
%ADD17RoundRect,0.200000X0.200000X0.275000X-0.200000X0.275000X-0.200000X-0.275000X0.200000X-0.275000X0*%
%ADD18R,0.700000X1.200000*%
%ADD19R,0.760000X1.200000*%
%ADD20R,0.800000X1.200000*%
%ADD21R,1.800000X1.350000*%
%ADD22R,1.800000X1.500000*%
%ADD23RoundRect,0.102000X1.750000X-0.500000X1.750000X0.500000X-1.750000X0.500000X-1.750000X-0.500000X0*%
%ADD24RoundRect,0.102000X1.700000X-0.750000X1.700000X0.750000X-1.700000X0.750000X-1.700000X-0.750000X0*%
%ADD25C,1.000000*%
%ADD26RoundRect,0.102000X0.125000X-0.275000X0.125000X0.275000X-0.125000X0.275000X-0.125000X-0.275000X0*%
%ADD27RoundRect,0.200000X-0.275000X0.200000X-0.275000X-0.200000X0.275000X-0.200000X0.275000X0.200000X0*%
%ADD28R,1.000000X1.000000*%
%ADD29O,1.000000X1.000000*%
%ADD30RoundRect,0.200000X0.275000X-0.200000X0.275000X0.200000X-0.275000X0.200000X-0.275000X-0.200000X0*%
%ADD31RoundRect,0.150000X-0.512500X-0.150000X0.512500X-0.150000X0.512500X0.150000X-0.512500X0.150000X0*%
%ADD32R,1.700000X1.700000*%
%ADD33O,1.700000X1.700000*%
%ADD34RoundRect,0.112500X0.112500X-0.187500X0.112500X0.187500X-0.112500X0.187500X-0.112500X-0.187500X0*%
%ADD35RoundRect,0.150000X-0.587500X-0.150000X0.587500X-0.150000X0.587500X0.150000X-0.587500X0.150000X0*%
%ADD36RoundRect,0.150000X-0.150000X0.512500X-0.150000X-0.512500X0.150000X-0.512500X0.150000X0.512500X0*%
%ADD37R,1.500000X1.050000*%
%ADD38O,1.500000X1.050000*%
%ADD39R,0.250000X0.550000*%
%ADD40FreePoly0,270.000000*%
%ADD41RoundRect,0.100000X0.100000X-0.637500X0.100000X0.637500X-0.100000X0.637500X-0.100000X-0.637500X0*%
%ADD42RoundRect,0.102000X0.750000X-0.800000X0.750000X0.800000X-0.750000X0.800000X-0.750000X-0.800000X0*%
%ADD43R,2.100000X2.100000*%
%ADD44C,2.100000*%
%ADD45RoundRect,0.250000X-0.650000X0.325000X-0.650000X-0.325000X0.650000X-0.325000X0.650000X0.325000X0*%
%ADD46R,0.600000X0.720000*%
%ADD47R,0.650000X1.050000*%
%ADD48RoundRect,0.250000X0.312500X0.625000X-0.312500X0.625000X-0.312500X-0.625000X0.312500X-0.625000X0*%
%ADD49RoundRect,0.250000X-0.325000X-0.650000X0.325000X-0.650000X0.325000X0.650000X-0.325000X0.650000X0*%
%ADD50R,1.350000X1.350000*%
%ADD51O,1.350000X1.350000*%
%ADD52RoundRect,0.218750X0.218750X0.256250X-0.218750X0.256250X-0.218750X-0.256250X0.218750X-0.256250X0*%
%ADD53R,1.050000X0.650000*%
G04 APERTURE END LIST*
G36*
X115750500Y-117700000D02*
G01*
X114350500Y-117700000D01*
X114350500Y-116700000D01*
X114750500Y-116300000D01*
X115750500Y-116300000D01*
X115750500Y-117700000D01*
G37*
G36*
X115750500Y-115700000D02*
G01*
X114750500Y-115700000D01*
X114350500Y-115300000D01*
X114350500Y-114300000D01*
X115750500Y-114300000D01*
X115750500Y-115700000D01*
G37*
D10*
X135550500Y-107087500D03*
X135550500Y-108912500D03*
D11*
X131250000Y-91250000D03*
X131250000Y-94175000D03*
X121250000Y-89825000D03*
X121250000Y-92750000D03*
D12*
X128150000Y-89900000D03*
X125350000Y-89900000D03*
X128150000Y-91600000D03*
X125350000Y-91600000D03*
D13*
X120238000Y-111000000D03*
X122138000Y-111000000D03*
X121188000Y-109125000D03*
D14*
X144550500Y-104225000D03*
X144550500Y-101275000D03*
D15*
X109275500Y-107750000D03*
X106325500Y-107750000D03*
D16*
X112375500Y-100750000D03*
X115300500Y-100750000D03*
D17*
X142625500Y-91750000D03*
X140975500Y-91750000D03*
D18*
X132675500Y-118500000D03*
D19*
X134695500Y-118500000D03*
D20*
X135925500Y-118500000D03*
D18*
X133675500Y-118500000D03*
D19*
X131655500Y-118500000D03*
D20*
X130425500Y-118500000D03*
D21*
X128050500Y-118555000D03*
D22*
X128050500Y-122135000D03*
D21*
X138300500Y-118555000D03*
D22*
X138300500Y-122135000D03*
D23*
X107800500Y-99250000D03*
X107800500Y-101250000D03*
X107800500Y-103250000D03*
X107800500Y-105250000D03*
D24*
X102050500Y-96900000D03*
X102050500Y-107600000D03*
D25*
X134250000Y-87150000D03*
X134250000Y-88850000D03*
D15*
X109525500Y-96750000D03*
X106575500Y-96750000D03*
D26*
X147550500Y-114400000D03*
X148050500Y-114400000D03*
X148550500Y-114400000D03*
X148550500Y-117150000D03*
X148050500Y-117150000D03*
X147550500Y-117150000D03*
D27*
X123550500Y-118925000D03*
X123550500Y-120575000D03*
D28*
X133750000Y-97250000D03*
D29*
X132480000Y-97250000D03*
X131210000Y-97250000D03*
X129940000Y-97250000D03*
D16*
X112588000Y-108750000D03*
X115513000Y-108750000D03*
D30*
X124638000Y-111325000D03*
X124638000Y-109675000D03*
D31*
X118038000Y-114350000D03*
X118038000Y-115300000D03*
X118038000Y-116250000D03*
X120313000Y-116250000D03*
X120313000Y-115300000D03*
X120313000Y-114350000D03*
D32*
X148130500Y-77250000D03*
D33*
X145590500Y-77250000D03*
X143050500Y-77250000D03*
X140510500Y-77250000D03*
X137970500Y-77250000D03*
X135430500Y-77250000D03*
X132890500Y-77250000D03*
X130350500Y-77250000D03*
X127810500Y-77250000D03*
X125270500Y-77250000D03*
X122730500Y-77250000D03*
X120190500Y-77250000D03*
X117650500Y-77250000D03*
X115110500Y-77250000D03*
X112570500Y-77250000D03*
X110030500Y-77250000D03*
X107490500Y-77250000D03*
X104950500Y-77250000D03*
X102410500Y-77250000D03*
D23*
X107800500Y-87350000D03*
X107800500Y-89350000D03*
X107800500Y-91350000D03*
D24*
X102050500Y-85000000D03*
X102050500Y-93700000D03*
D32*
X145660500Y-85630000D03*
D33*
X148200500Y-85630000D03*
X145660500Y-88170000D03*
X148200500Y-88170000D03*
X145660500Y-90710000D03*
X148200500Y-90710000D03*
X145660500Y-93250000D03*
X148200500Y-93250000D03*
X145660500Y-95790000D03*
X148200500Y-95790000D03*
X145660500Y-98330000D03*
X148200500Y-98330000D03*
D34*
X138924500Y-96800000D03*
X138924500Y-94700000D03*
D35*
X124113000Y-113800000D03*
X124113000Y-115700000D03*
X125988000Y-114750000D03*
D23*
X107800500Y-113100000D03*
X107800500Y-115100000D03*
X107800500Y-117100000D03*
D24*
X102050500Y-110750000D03*
X102050500Y-119450000D03*
D11*
X141800500Y-120787500D03*
X141800500Y-123712500D03*
D30*
X147550500Y-120825000D03*
X147550500Y-119175000D03*
D17*
X113475500Y-111500000D03*
X111825500Y-111500000D03*
D27*
X145300500Y-119100000D03*
X145300500Y-120750000D03*
D36*
X134500500Y-112612500D03*
X132600500Y-112612500D03*
X133550500Y-114887500D03*
D11*
X141800500Y-115787500D03*
X141800500Y-118712500D03*
D37*
X129062375Y-108741875D03*
D38*
X129062375Y-110011875D03*
X129062375Y-111281875D03*
D39*
X148800500Y-109825000D03*
X148300500Y-109825000D03*
X147800500Y-109825000D03*
X147300500Y-109825000D03*
X147300500Y-112175000D03*
X147800500Y-112175000D03*
X148300500Y-112175000D03*
X148800500Y-112175000D03*
D40*
X148050500Y-111000000D03*
D17*
X116625500Y-111500000D03*
X114975500Y-111500000D03*
D41*
X120500500Y-102398407D03*
X121150500Y-102398407D03*
X121800500Y-102398407D03*
X122450500Y-102398407D03*
X123100500Y-102398407D03*
X123750500Y-102398407D03*
X124400500Y-102398407D03*
X125050500Y-102398407D03*
X125700500Y-102398407D03*
X126350500Y-102398407D03*
X126350500Y-96673407D03*
X125700500Y-96673407D03*
X125050500Y-96673407D03*
X124400500Y-96673407D03*
X123750500Y-96673407D03*
X123100500Y-96673407D03*
X122450500Y-96673407D03*
X121800500Y-96673407D03*
X121150500Y-96673407D03*
X120500500Y-96673407D03*
D28*
X118500000Y-117980000D03*
D29*
X118500000Y-119250000D03*
X118500000Y-120520000D03*
X118500000Y-121790000D03*
D42*
X111800500Y-116000000D03*
D43*
X121500000Y-123750000D03*
D44*
X101500000Y-123750000D03*
D45*
X144550500Y-106000000D03*
X144550500Y-108950000D03*
D46*
X147300500Y-103585000D03*
X147300500Y-104555000D03*
X147300500Y-105525000D03*
X147300500Y-106495000D03*
X148700500Y-106495000D03*
X148700500Y-105525000D03*
X148700500Y-104555000D03*
X148700500Y-103585000D03*
D47*
X114875500Y-93175000D03*
X114875500Y-97325000D03*
X112725500Y-93175000D03*
X112725500Y-97325000D03*
D48*
X108712500Y-84500000D03*
X105787500Y-84500000D03*
D49*
X145550000Y-123250000D03*
X148500000Y-123250000D03*
D50*
X116000000Y-120750000D03*
D51*
X114000000Y-120750000D03*
X112000000Y-120750000D03*
X110000000Y-120750000D03*
X108000000Y-120750000D03*
X106000000Y-120750000D03*
D52*
X140088000Y-108000000D03*
X138513000Y-108000000D03*
D30*
X120800500Y-120575000D03*
X120800500Y-118925000D03*
D16*
X106338000Y-110250000D03*
X109263000Y-110250000D03*
D32*
X148120500Y-81500000D03*
D33*
X145580500Y-81500000D03*
X143040500Y-81500000D03*
X140500500Y-81500000D03*
X137960500Y-81500000D03*
X135420500Y-81500000D03*
X132880500Y-81500000D03*
X130340500Y-81500000D03*
X127800500Y-81500000D03*
X125260500Y-81500000D03*
X122720500Y-81500000D03*
X120180500Y-81500000D03*
X117640500Y-81500000D03*
X115100500Y-81500000D03*
X112560500Y-81500000D03*
X110020500Y-81500000D03*
X107480500Y-81500000D03*
X104940500Y-81500000D03*
X102400500Y-81500000D03*
D17*
X131700500Y-115000000D03*
X130050500Y-115000000D03*
D16*
X106588000Y-94000000D03*
X109513000Y-94000000D03*
D53*
X141375500Y-113325000D03*
X137225500Y-113325000D03*
X141375500Y-111175000D03*
X137225500Y-111175000D03*
D25*
X126050500Y-123600000D03*
X126050500Y-116600000D03*
M02*
