M48
; DRILL file {KiCad 7.0.7} date Tue Jan  2 16:25:46 2024
; FORMAT={-:-/ absolute / metric / decimal}
; #@! TF.CreationDate,2024-01-02T16:25:46-05:00
; #@! TF.GenerationSoftware,Kicad,Pcbnew,7.0.7
; #@! TF.FileFunction,Plated,1,2,PTH
FMAT,2
METRIC
; #@! TA.AperFunction,Plated,PTH,ViaDrill
T1C0.400
; #@! TA.AperFunction,Plated,PTH,ComponentDrill
T2C0.500
; #@! TA.AperFunction,Plated,PTH,ComponentDrill
T3C0.650
; #@! TA.AperFunction,Plated,PTH,ComponentDrill
T4C0.800
; #@! TA.AperFunction,Plated,PTH,ComponentDrill
T5C1.000
; #@! TA.AperFunction,Plated,PTH,ComponentDrill
T6C1.300
%
G90
G05
T1
X51.399Y-51.65
X51.399Y-101.65
X52.805Y-68.844
X52.805Y-118.844
X54.899Y-73.25
X54.899Y-123.25
X55.149Y-62.0
X55.149Y-112.0
X55.2Y-74.25
X55.2Y-124.25
X57.27Y-85.0
X57.27Y-135.0
X57.4Y-77.3
X57.4Y-127.3
X58.834Y-48.045
X58.834Y-98.045
X60.45Y-52.5
X60.45Y-102.5
X60.646Y-76.5
X60.646Y-126.5
X60.95Y-59.0
X60.95Y-74.5
X60.95Y-109.0
X60.95Y-124.5
X61.649Y-52.75
X61.649Y-102.75
X62.079Y-47.6
X62.079Y-97.6
X62.625Y-65.075
X62.625Y-115.075
X63.1Y-51.3
X63.1Y-101.3
X63.149Y-59.25
X63.149Y-109.25
X63.2Y-70.25
X63.2Y-120.25
X63.22Y-76.75
X63.22Y-126.75
X63.899Y-67.25
X63.899Y-117.25
X64.4Y-53.75
X64.4Y-103.75
X64.45Y-87.0
X64.45Y-137.0
X65.579Y-48.399
X65.579Y-98.399
X65.829Y-47.1
X65.829Y-97.1
X65.963Y-82.044
X65.963Y-132.044
X65.97Y-76.75
X65.97Y-126.75
X66.789Y-79.8
X66.789Y-129.8
X68.47Y-51.25
X68.47Y-101.25
X69.22Y-77.25
X69.22Y-127.25
X69.3Y-61.9
X69.3Y-111.9
X69.47Y-76.25
X69.47Y-126.25
X69.919Y-56.0
X69.919Y-106.0
X69.97Y-68.148
X69.97Y-118.148
X70.321Y-74.4
X70.321Y-124.4
X70.459Y-79.25
X70.459Y-129.25
X71.058Y-68.049
X71.058Y-118.049
X71.22Y-76.0
X71.22Y-126.0
X71.47Y-84.25
X71.47Y-134.25
X72.09Y-66.768
X72.09Y-116.768
X72.22Y-80.5
X72.22Y-130.5
X72.72Y-85.5
X72.72Y-135.5
X73.22Y-56.75
X73.22Y-106.75
X73.571Y-75.5
X73.571Y-125.5
X73.97Y-68.898
X73.97Y-118.898
X74.2Y-88.75
X74.2Y-138.75
X74.807Y-77.045
X74.807Y-127.045
X74.97Y-80.0
X74.97Y-130.0
X75.22Y-61.25
X75.22Y-111.25
X75.77Y-62.648
X75.77Y-112.648
X75.8Y-88.65
X75.8Y-138.65
X75.97Y-66.75
X75.97Y-82.0
X75.97Y-116.75
X75.97Y-132.0
X76.22Y-69.0
X76.22Y-119.0
X78.47Y-81.75
X78.47Y-131.75
X78.72Y-56.5
X78.72Y-106.5
X78.97Y-71.5
X78.97Y-121.5
X79.2Y-91.5
X79.2Y-141.5
X79.47Y-70.0
X79.47Y-120.0
X80.47Y-68.75
X80.47Y-118.75
X83.72Y-53.5
X83.72Y-103.5
X83.8Y-48.5
X83.8Y-98.5
X84.47Y-90.626
X84.47Y-140.625
X85.311Y-79.013
X85.311Y-129.013
X85.47Y-58.75
X85.47Y-108.75
X85.72Y-64.385
X85.72Y-65.655
X85.72Y-114.385
X85.72Y-115.655
X86.72Y-53.25
X86.72Y-103.25
X87.6Y-85.7
X87.6Y-135.7
X87.72Y-71.0
X87.72Y-121.0
X89.22Y-59.75
X89.22Y-109.75
X89.926Y-53.095
X89.926Y-103.095
X92.52Y-60.5
X92.52Y-110.5
X92.72Y-62.0
X92.72Y-112.0
X93.47Y-80.5
X93.47Y-130.5
X93.72Y-68.25
X93.72Y-85.0
X93.72Y-118.25
X93.72Y-135.0
X94.1Y-51.7
X94.1Y-101.7
X95.3Y-79.025
X95.3Y-129.025
X95.6Y-71.7
X95.6Y-121.7
X95.72Y-81.5
X95.72Y-131.5
X97.8Y-89.3
X97.8Y-139.3
X97.84Y-68.13
X97.84Y-118.13
X97.97Y-75.455
X97.97Y-125.455
X101.399Y-51.65
X101.399Y-101.65
X102.805Y-68.844
X102.805Y-118.844
X104.899Y-73.25
X104.899Y-123.25
X105.149Y-62.0
X105.149Y-112.0
X105.2Y-74.25
X105.2Y-124.25
X107.27Y-85.0
X107.27Y-135.0
X107.4Y-77.3
X107.4Y-127.3
X108.834Y-48.045
X108.834Y-98.045
X110.45Y-52.5
X110.45Y-102.5
X110.646Y-76.5
X110.646Y-126.5
X110.95Y-59.0
X110.95Y-74.5
X110.95Y-109.0
X110.95Y-124.5
X111.649Y-52.75
X111.649Y-102.75
X112.079Y-47.6
X112.079Y-97.6
X112.625Y-65.075
X112.625Y-115.075
X113.1Y-51.3
X113.1Y-101.3
X113.149Y-59.25
X113.149Y-109.25
X113.2Y-70.25
X113.2Y-120.25
X113.22Y-76.75
X113.22Y-126.75
X113.899Y-67.25
X113.899Y-117.25
X114.399Y-53.75
X114.399Y-103.75
X114.45Y-87.0
X114.45Y-137.0
X115.579Y-48.399
X115.579Y-98.399
X115.829Y-47.1
X115.829Y-97.1
X115.963Y-82.044
X115.963Y-132.044
X115.97Y-76.75
X115.97Y-126.75
X116.789Y-79.8
X116.789Y-129.8
X118.47Y-51.25
X118.47Y-101.25
X119.22Y-77.25
X119.22Y-127.25
X119.3Y-61.9
X119.3Y-111.9
X119.47Y-76.25
X119.47Y-126.25
X119.919Y-56.0
X119.919Y-106.0
X119.97Y-68.148
X119.97Y-118.148
X120.321Y-74.4
X120.321Y-124.4
X120.459Y-79.25
X120.459Y-129.25
X121.058Y-68.049
X121.058Y-118.049
X121.22Y-76.0
X121.22Y-126.0
X121.47Y-84.25
X121.47Y-134.25
X122.09Y-66.768
X122.09Y-116.768
X122.22Y-80.5
X122.22Y-130.5
X122.72Y-85.5
X122.72Y-135.5
X123.22Y-56.75
X123.22Y-106.75
X123.571Y-75.5
X123.571Y-125.5
X123.97Y-68.898
X123.97Y-118.898
X124.2Y-88.75
X124.2Y-138.75
X124.807Y-77.045
X124.807Y-127.045
X124.97Y-80.0
X124.97Y-130.0
X125.22Y-61.25
X125.22Y-111.25
X125.77Y-62.648
X125.77Y-112.648
X125.8Y-88.65
X125.8Y-138.65
X125.97Y-66.75
X125.97Y-82.0
X125.97Y-116.75
X125.97Y-132.0
X126.22Y-69.0
X126.22Y-119.0
X128.47Y-81.75
X128.47Y-131.75
X128.72Y-56.5
X128.72Y-106.5
X128.97Y-71.5
X128.97Y-121.5
X129.2Y-91.5
X129.2Y-141.5
X129.47Y-70.0
X129.47Y-120.0
X130.47Y-68.75
X130.47Y-118.75
X133.72Y-53.5
X133.72Y-103.5
X133.8Y-48.5
X133.8Y-98.5
X134.47Y-90.626
X134.47Y-140.625
X135.311Y-79.013
X135.311Y-129.013
X135.47Y-58.75
X135.47Y-108.75
X135.72Y-64.385
X135.72Y-65.655
X135.72Y-114.385
X135.72Y-115.655
X136.72Y-53.25
X136.72Y-103.25
X137.6Y-85.7
X137.6Y-135.7
X137.72Y-71.0
X137.72Y-121.0
X139.22Y-59.75
X139.22Y-109.75
X139.926Y-53.095
X139.926Y-103.095
X142.52Y-60.5
X142.52Y-110.5
X142.72Y-62.0
X142.72Y-112.0
X143.47Y-80.5
X143.47Y-130.5
X143.72Y-68.25
X143.72Y-85.0
X143.72Y-118.25
X143.72Y-135.0
X144.1Y-51.7
X144.1Y-101.7
X145.3Y-79.025
X145.3Y-129.025
X145.6Y-71.7
X145.6Y-121.7
X145.72Y-81.5
X145.72Y-131.5
X147.8Y-89.3
X147.8Y-139.3
X147.84Y-68.13
X147.84Y-118.13
X147.97Y-75.455
X147.97Y-125.455
T2
X83.47Y-55.15
X83.47Y-56.85
X83.47Y-105.15
X83.47Y-106.85
X133.47Y-55.15
X133.47Y-56.85
X133.47Y-105.15
X133.47Y-106.85
T3
X67.95Y-86.5
X67.95Y-87.77
X67.95Y-89.04
X67.95Y-90.31
X67.95Y-136.5
X67.95Y-137.77
X67.95Y-139.04
X67.95Y-140.31
X79.16Y-65.25
X79.16Y-115.25
X80.43Y-65.25
X80.43Y-115.25
X81.7Y-65.25
X81.7Y-115.25
X82.97Y-65.25
X82.97Y-115.25
X117.95Y-86.5
X117.95Y-87.77
X117.95Y-89.04
X117.95Y-90.31
X117.95Y-136.5
X117.95Y-137.77
X117.95Y-139.04
X117.95Y-140.31
X129.16Y-65.25
X129.16Y-115.25
X130.43Y-65.25
X130.43Y-115.25
X131.7Y-65.25
X131.7Y-115.25
X132.97Y-65.25
X132.97Y-115.25
T4
X55.45Y-88.75
X55.45Y-138.75
X57.45Y-88.75
X57.45Y-138.75
X59.45Y-88.75
X59.45Y-138.75
X61.45Y-88.75
X61.45Y-138.75
X63.45Y-88.75
X63.45Y-138.75
X65.45Y-88.75
X65.45Y-138.75
X105.45Y-88.75
X105.45Y-138.75
X107.45Y-88.75
X107.45Y-138.75
X109.45Y-88.75
X109.45Y-138.75
X111.45Y-88.75
X111.45Y-138.75
X113.45Y-88.75
X113.45Y-138.75
X115.45Y-88.75
X115.45Y-138.75
T5
X51.98Y-49.8
X51.98Y-99.8
X51.99Y-46.05
X51.99Y-96.05
X54.52Y-49.8
X54.52Y-99.8
X54.53Y-46.05
X54.53Y-96.05
X57.06Y-49.8
X57.06Y-99.8
X57.07Y-46.05
X57.07Y-96.05
X59.6Y-49.8
X59.6Y-99.8
X59.61Y-46.05
X59.61Y-96.05
X62.14Y-49.8
X62.14Y-99.8
X62.15Y-46.05
X62.15Y-96.05
X64.68Y-49.8
X64.68Y-99.8
X64.69Y-46.05
X64.69Y-96.05
X67.22Y-49.8
X67.22Y-99.8
X67.23Y-46.05
X67.23Y-96.05
X69.76Y-49.8
X69.76Y-99.8
X69.77Y-46.05
X69.77Y-96.05
X72.3Y-49.8
X72.3Y-99.8
X72.31Y-46.05
X72.31Y-96.05
X74.84Y-49.8
X74.84Y-99.8
X74.85Y-46.05
X74.85Y-96.05
X77.38Y-49.8
X77.38Y-99.8
X77.39Y-46.05
X77.39Y-96.05
X79.92Y-49.8
X79.92Y-99.8
X79.93Y-46.05
X79.93Y-96.05
X82.46Y-49.8
X82.46Y-99.8
X82.47Y-46.05
X82.47Y-96.05
X85.0Y-49.8
X85.0Y-99.8
X85.01Y-46.05
X85.01Y-96.05
X87.54Y-49.8
X87.54Y-99.8
X87.55Y-46.05
X87.55Y-96.05
X90.08Y-49.8
X90.08Y-99.8
X90.09Y-46.05
X90.09Y-96.05
X92.62Y-49.8
X92.62Y-99.8
X92.63Y-46.05
X92.63Y-96.05
X94.88Y-53.63
X94.88Y-56.17
X94.88Y-58.71
X94.88Y-61.25
X94.88Y-63.79
X94.88Y-66.33
X94.88Y-103.63
X94.88Y-106.17
X94.88Y-108.71
X94.88Y-111.25
X94.88Y-113.79
X94.88Y-116.33
X95.16Y-49.8
X95.16Y-99.8
X95.17Y-46.05
X95.17Y-96.05
X97.42Y-53.63
X97.42Y-56.17
X97.42Y-58.71
X97.42Y-61.25
X97.42Y-63.79
X97.42Y-66.33
X97.42Y-103.63
X97.42Y-106.17
X97.42Y-108.71
X97.42Y-111.25
X97.42Y-113.79
X97.42Y-116.33
X97.7Y-49.8
X97.7Y-99.8
X97.71Y-46.05
X97.71Y-96.05
X101.98Y-49.8
X101.98Y-99.8
X101.99Y-46.05
X101.99Y-96.05
X104.52Y-49.8
X104.52Y-99.8
X104.53Y-46.05
X104.53Y-96.05
X107.06Y-49.8
X107.06Y-99.8
X107.07Y-46.05
X107.07Y-96.05
X109.6Y-49.8
X109.6Y-99.8
X109.61Y-46.05
X109.61Y-96.05
X112.14Y-49.8
X112.14Y-99.8
X112.15Y-46.05
X112.15Y-96.05
X114.68Y-49.8
X114.68Y-99.8
X114.69Y-46.05
X114.69Y-96.05
X117.22Y-49.8
X117.22Y-99.8
X117.23Y-46.05
X117.23Y-96.05
X119.76Y-49.8
X119.76Y-99.8
X119.77Y-46.05
X119.77Y-96.05
X122.3Y-49.8
X122.3Y-99.8
X122.31Y-46.05
X122.31Y-96.05
X124.84Y-49.8
X124.84Y-99.8
X124.85Y-46.05
X124.85Y-96.05
X127.38Y-49.8
X127.38Y-99.8
X127.39Y-46.05
X127.39Y-96.05
X129.92Y-49.8
X129.92Y-99.8
X129.93Y-46.05
X129.93Y-96.05
X132.46Y-49.8
X132.46Y-99.8
X132.47Y-46.05
X132.47Y-96.05
X135.0Y-49.8
X135.0Y-99.8
X135.01Y-46.05
X135.01Y-96.05
X137.54Y-49.8
X137.54Y-99.8
X137.55Y-46.05
X137.55Y-96.05
X140.08Y-49.8
X140.08Y-99.8
X140.09Y-46.05
X140.09Y-96.05
X142.62Y-49.8
X142.62Y-99.8
X142.63Y-46.05
X142.63Y-96.05
X144.88Y-53.63
X144.88Y-56.17
X144.88Y-58.71
X144.88Y-61.25
X144.88Y-63.79
X144.88Y-66.33
X144.88Y-103.63
X144.88Y-106.17
X144.88Y-108.71
X144.88Y-111.25
X144.88Y-113.79
X144.88Y-116.33
X145.16Y-49.8
X145.16Y-99.8
X145.17Y-46.05
X145.17Y-96.05
X147.421Y-53.63
X147.421Y-56.17
X147.421Y-58.71
X147.421Y-61.25
X147.421Y-63.79
X147.421Y-66.33
X147.421Y-103.63
X147.421Y-106.17
X147.421Y-108.71
X147.421Y-111.25
X147.421Y-113.79
X147.421Y-116.33
X147.7Y-49.8
X147.7Y-99.8
X147.71Y-46.05
X147.71Y-96.05
T6
X52.0Y-91.5
X52.0Y-141.5
X72.0Y-91.5
X72.0Y-141.5
X102.0Y-91.5
X102.0Y-141.5
X122.0Y-91.5
X122.0Y-141.5
T0
M30
