M48
; DRILL file {KiCad 7.0.7} date Sat Dec 30 15:49:59 2023
; FORMAT={-:-/ absolute / metric / decimal}
; #@! TF.CreationDate,2023-12-30T15:49:59-05:00
; #@! TF.GenerationSoftware,Kicad,Pcbnew,7.0.7
; #@! TF.FileFunction,Plated,1,2,PTH
FMAT,2
METRIC
; #@! TA.AperFunction,Plated,PTH,ViaDrill
T1C0.400
; #@! TA.AperFunction,Plated,PTH,ComponentDrill
T2C0.500
; #@! TA.AperFunction,Plated,PTH,ComponentDrill
T3C0.650
; #@! TA.AperFunction,Plated,PTH,ComponentDrill
T4C0.750
; #@! TA.AperFunction,Plated,PTH,ComponentDrill
T5C0.800
; #@! TA.AperFunction,Plated,PTH,ComponentDrill
T6C1.000
; #@! TA.AperFunction,Plated,PTH,ComponentDrill
T7C1.300
%
G90
G05
T1
X101.5Y-83.65
X102.906Y-100.844
X104.25Y-106.5
X105.0Y-105.25
X105.0Y-110.0
X105.25Y-94.0
X108.05Y-117.0
X109.255Y-79.745
X110.0Y-84.5
X110.5Y-91.0
X110.5Y-106.75
X111.25Y-108.25
X111.75Y-84.75
X112.5Y-79.3
X112.725Y-97.075
X113.25Y-91.25
X113.3Y-102.25
X113.5Y-119.0
X113.755Y-82.995
X114.0Y-99.25
X114.0Y-108.75
X114.5Y-85.75
X116.0Y-80.099
X116.25Y-78.3
X116.75Y-108.75
X119.0Y-93.648
X119.25Y-83.25
X120.0Y-109.25
X120.25Y-108.25
X120.7Y-88.0
X120.75Y-100.148
X121.101Y-106.4
X121.238Y-111.25
X121.838Y-100.049
X122.0Y-108.0
X122.25Y-116.25
X122.87Y-98.768
X123.0Y-112.5
X123.5Y-117.5
X124.0Y-88.75
X124.351Y-107.5
X124.63Y-121.88
X124.75Y-100.898
X125.113Y-106.5
X125.75Y-112.0
X126.0Y-93.25
X126.55Y-94.648
X126.75Y-98.75
X126.75Y-114.0
X127.0Y-101.0
X128.0Y-106.5
X129.25Y-113.75
X129.5Y-88.5
X129.75Y-103.5
X130.25Y-102.0
X130.25Y-124.0
X130.956Y-120.0
X131.25Y-100.75
X131.75Y-108.75
X133.0Y-79.9
X134.5Y-85.5
X135.25Y-122.625
X136.091Y-111.013
X136.25Y-90.75
X136.5Y-96.385
X136.5Y-97.655
X137.5Y-85.25
X138.5Y-103.0
X139.0Y-117.0
X140.0Y-91.75
X140.706Y-85.095
X142.0Y-117.0
X143.3Y-92.5
X143.5Y-94.0
X144.25Y-112.5
X144.5Y-83.7
X144.5Y-100.25
X144.5Y-117.0
X146.231Y-110.585
X146.5Y-105.5
X146.5Y-113.5
X148.62Y-100.13
X148.75Y-107.455
X148.75Y-124.75
T2
X134.25Y-87.15
X134.25Y-88.85
T3
X118.5Y-117.98
X118.5Y-119.25
X118.5Y-120.52
X118.5Y-121.79
X129.94Y-97.25
X131.21Y-97.25
X132.48Y-97.25
X133.75Y-97.25
T4
X129.062Y-108.742
X129.062Y-110.012
X129.062Y-111.282
T5
X106.0Y-120.75
X108.0Y-120.75
X110.0Y-120.75
X112.0Y-120.75
X114.0Y-120.75
X116.0Y-120.75
T6
X102.4Y-81.5
X102.41Y-77.25
X104.941Y-81.5
X104.95Y-77.25
X107.48Y-81.5
X107.49Y-77.25
X110.02Y-81.5
X110.03Y-77.25
X112.56Y-81.5
X112.57Y-77.25
X115.1Y-81.5
X115.111Y-77.25
X117.64Y-81.5
X117.65Y-77.25
X120.18Y-81.5
X120.191Y-77.25
X122.721Y-81.5
X122.73Y-77.25
X125.26Y-81.5
X125.27Y-77.25
X127.8Y-81.5
X127.81Y-77.25
X130.34Y-81.5
X130.35Y-77.25
X132.88Y-81.5
X132.891Y-77.25
X135.421Y-81.5
X135.43Y-77.25
X137.96Y-81.5
X137.97Y-77.25
X140.5Y-81.5
X140.511Y-77.25
X143.04Y-81.5
X143.05Y-77.25
X145.581Y-81.5
X145.59Y-77.25
X145.66Y-85.63
X145.66Y-88.17
X145.66Y-90.71
X145.66Y-93.25
X145.66Y-95.79
X145.66Y-98.33
X148.12Y-81.5
X148.13Y-77.25
X148.201Y-85.63
X148.201Y-88.17
X148.201Y-90.71
X148.201Y-93.25
X148.201Y-95.79
X148.201Y-98.33
T7
X101.5Y-123.75
X121.5Y-123.75
T0
M30
