M48
; DRILL file {KiCad 7.0.7} date Tue Feb 13 21:43:51 2024
; FORMAT={-:-/ absolute / metric / decimal}
; #@! TF.CreationDate,2024-02-13T21:43:51-05:00
; #@! TF.GenerationSoftware,Kicad,Pcbnew,7.0.7
; #@! TF.FileFunction,NonPlated,1,2,NPTH
FMAT,2
METRIC
; #@! TA.AperFunction,NonPlated,NPTH,ComponentDrill
T1C0.500
%
G90
G05
T1
X115.644Y-66.7
X115.644Y-67.7
X115.644Y-91.7
X115.644Y-92.7
X115.644Y-116.7
X115.644Y-117.7
X116.644Y-66.7
X116.644Y-67.7
X116.644Y-91.7
X116.644Y-92.7
X116.644Y-116.7
X116.644Y-117.7
X117.644Y-66.7
X117.644Y-67.7
X117.644Y-91.7
X117.644Y-92.7
X117.644Y-116.7
X117.644Y-117.7
X118.644Y-66.7
X118.644Y-67.7
X118.644Y-91.7
X118.644Y-92.7
X118.644Y-116.7
X118.644Y-117.7
X132.244Y-53.2
X132.244Y-54.2
X132.244Y-55.2
X132.244Y-56.2
X132.244Y-78.2
X132.244Y-79.2
X132.244Y-80.2
X132.244Y-81.2
X132.244Y-103.2
X132.244Y-104.2
X132.244Y-105.2
X132.244Y-106.2
X132.244Y-128.2
X132.244Y-129.2
X132.244Y-130.2
X132.244Y-131.2
X133.244Y-53.2
X133.244Y-54.2
X133.244Y-55.2
X133.244Y-56.2
X133.244Y-78.2
X133.244Y-79.2
X133.244Y-80.2
X133.244Y-81.2
X133.244Y-103.2
X133.244Y-104.2
X133.244Y-105.2
X133.244Y-106.2
X133.244Y-128.2
X133.244Y-129.2
X133.244Y-130.2
X133.244Y-131.2
X146.844Y-66.7
X146.844Y-67.7
X146.844Y-91.7
X146.844Y-92.7
X146.844Y-116.7
X146.844Y-117.7
X147.844Y-66.7
X147.844Y-67.7
X147.844Y-91.7
X147.844Y-92.7
X147.844Y-116.7
X147.844Y-117.7
X148.844Y-66.7
X148.844Y-67.7
X148.844Y-91.7
X148.844Y-92.7
X148.844Y-116.7
X148.844Y-117.7
X149.844Y-66.7
X149.844Y-67.7
X149.844Y-91.7
X149.844Y-92.7
X149.844Y-116.7
X149.844Y-117.7
X163.444Y-53.2
X163.444Y-54.2
X163.444Y-55.2
X163.444Y-56.2
X163.444Y-78.2
X163.444Y-79.2
X163.444Y-80.2
X163.444Y-81.2
X163.444Y-103.2
X163.444Y-104.2
X163.444Y-105.2
X163.444Y-106.2
X163.444Y-128.2
X163.444Y-129.2
X163.444Y-130.2
X163.444Y-131.2
X164.444Y-53.2
X164.444Y-54.2
X164.444Y-55.2
X164.444Y-56.2
X164.444Y-78.2
X164.444Y-79.2
X164.444Y-80.2
X164.444Y-81.2
X164.444Y-103.2
X164.444Y-104.2
X164.444Y-105.2
X164.444Y-106.2
X164.444Y-128.2
X164.444Y-129.2
X164.444Y-130.2
X164.444Y-131.2
X178.044Y-66.7
X178.044Y-67.7
X178.044Y-91.7
X178.044Y-92.7
X178.044Y-116.7
X178.044Y-117.7
X179.044Y-66.7
X179.044Y-67.7
X179.044Y-91.7
X179.044Y-92.7
X179.044Y-116.7
X179.044Y-117.7
X180.044Y-66.7
X180.044Y-67.7
X180.044Y-91.7
X180.044Y-92.7
X180.044Y-116.7
X180.044Y-117.7
X181.044Y-66.7
X181.044Y-67.7
X181.044Y-91.7
X181.044Y-92.7
X181.044Y-116.7
X181.044Y-117.7
T0
M30
