M48
; DRILL file {KiCad 7.0.7} date Tue Apr  2 17:06:24 2024
; FORMAT={-:-/ absolute / metric / decimal}
; #@! TF.CreationDate,2024-04-02T17:06:24-04:00
; #@! TF.GenerationSoftware,Kicad,Pcbnew,7.0.7
; #@! TF.FileFunction,Plated,1,2,PTH
FMAT,2
METRIC
; #@! TA.AperFunction,Plated,PTH,ViaDrill
T1C0.300
; #@! TA.AperFunction,Plated,PTH,ComponentDrill
T2C0.600
; #@! TA.AperFunction,Plated,PTH,ComponentDrill
T3C1.000
%
G90
G05
T1
X138.145Y-119.3
X142.3Y-118.325
X144.7Y-96.3
X145.6Y-110.8
X147.8Y-110.6
X148.2Y-106.3
X148.3Y-118.6
X148.5Y-115.174
X148.644Y-95.656
X148.694Y-99.806
X149.318Y-99.491
X149.374Y-103.9
X149.4Y-96.325
X149.664Y-110.464
X149.825Y-102.5
X150.5Y-104.6
X151.599Y-98.1
X152.481Y-96.793
X153.2Y-105.6
X154.4Y-111.2
X155.2Y-101.5
X155.702Y-95.45
X155.8Y-101.9
X156.7Y-96.774
X157.356Y-102.856
X157.4Y-96.6
X157.9Y-102.4
X158.3Y-96.1
X158.8Y-101.8
X158.8Y-106.1
X159.3Y-110.4
T3
X137.958Y-90.031
X137.98Y-112.8
X140.498Y-90.031
X140.52Y-112.8
X143.038Y-90.031
X143.06Y-112.8
X145.578Y-90.031
X145.6Y-112.8
X148.118Y-90.031
X148.14Y-112.8
X150.658Y-90.031
X150.68Y-112.8
X153.198Y-90.031
X153.22Y-112.8
X155.738Y-90.031
X155.76Y-112.8
X158.278Y-90.031
X158.3Y-112.8
T2
X138.275Y-94.417G85X137.675Y-94.417
G05
X138.275Y-103.057G85X137.675Y-103.057
G05
X142.705Y-94.417G85X141.605Y-94.417
G05
X142.705Y-103.057G85X141.605Y-103.057
G05
T0
M30
