G04 #@! TF.GenerationSoftware,KiCad,Pcbnew,7.0.7*
G04 #@! TF.CreationDate,2024-04-02T17:06:21-04:00*
G04 #@! TF.ProjectId,sensor_node,73656e73-6f72-45f6-9e6f-64652e6b6963,rev?*
G04 #@! TF.SameCoordinates,Original*
G04 #@! TF.FileFunction,Legend,Top*
G04 #@! TF.FilePolarity,Positive*
%FSLAX46Y46*%
G04 Gerber Fmt 4.6, Leading zero omitted, Abs format (unit mm)*
G04 Created by KiCad (PCBNEW 7.0.7) date 2024-04-02 17:06:21*
%MOMM*%
%LPD*%
G01*
G04 APERTURE LIST*
G04 Aperture macros list*
%AMRoundRect*
0 Rectangle with rounded corners*
0 $1 Rounding radius*
0 $2 $3 $4 $5 $6 $7 $8 $9 X,Y pos of 4 corners*
0 Add a 4 corners polygon primitive as box body*
4,1,4,$2,$3,$4,$5,$6,$7,$8,$9,$2,$3,0*
0 Add four circle primitives for the rounded corners*
1,1,$1+$1,$2,$3*
1,1,$1+$1,$4,$5*
1,1,$1+$1,$6,$7*
1,1,$1+$1,$8,$9*
0 Add four rect primitives between the rounded corners*
20,1,$1+$1,$2,$3,$4,$5,0*
20,1,$1+$1,$4,$5,$6,$7,0*
20,1,$1+$1,$6,$7,$8,$9,0*
20,1,$1+$1,$8,$9,$2,$3,0*%
G04 Aperture macros list end*
%ADD10C,0.150000*%
%ADD11C,0.100000*%
%ADD12C,0.120000*%
%ADD13RoundRect,0.500000X-0.500000X-0.500000X0.500000X-0.500000X0.500000X0.500000X-0.500000X0.500000X0*%
%ADD14R,1.700000X1.700000*%
%ADD15O,1.700000X1.700000*%
%ADD16RoundRect,0.350000X-0.350000X0.650000X-0.350000X-0.650000X0.350000X-0.650000X0.350000X0.650000X0*%
%ADD17RoundRect,0.250000X-0.250000X-0.500000X0.250000X-0.500000X0.250000X0.500000X-0.250000X0.500000X0*%
%ADD18RoundRect,0.225000X0.225000X0.250000X-0.225000X0.250000X-0.225000X-0.250000X0.225000X-0.250000X0*%
%ADD19RoundRect,0.100000X-0.100000X0.637500X-0.100000X-0.637500X0.100000X-0.637500X0.100000X0.637500X0*%
%ADD20RoundRect,0.200000X-0.200000X-0.275000X0.200000X-0.275000X0.200000X0.275000X-0.200000X0.275000X0*%
%ADD21RoundRect,0.218750X-0.218750X-0.256250X0.218750X-0.256250X0.218750X0.256250X-0.218750X0.256250X0*%
%ADD22C,0.650000*%
%ADD23R,1.450000X0.600000*%
%ADD24R,1.450000X0.300000*%
%ADD25O,2.100000X1.000000*%
%ADD26O,1.600000X1.000000*%
%ADD27R,1.050000X0.650000*%
%ADD28RoundRect,0.225000X-0.250000X0.225000X-0.250000X-0.225000X0.250000X-0.225000X0.250000X0.225000X0*%
%ADD29RoundRect,0.250000X-0.500000X0.250000X-0.500000X-0.250000X0.500000X-0.250000X0.500000X0.250000X0*%
%ADD30RoundRect,0.200000X0.200000X0.275000X-0.200000X0.275000X-0.200000X-0.275000X0.200000X-0.275000X0*%
%ADD31RoundRect,0.150000X0.512500X0.150000X-0.512500X0.150000X-0.512500X-0.150000X0.512500X-0.150000X0*%
G04 APERTURE END LIST*
D10*
X143185259Y-118708206D02*
X143661450Y-118374873D01*
X143185259Y-118136778D02*
X144185259Y-118136778D01*
X144185259Y-118136778D02*
X144185259Y-118517730D01*
X144185259Y-118517730D02*
X144137640Y-118612968D01*
X144137640Y-118612968D02*
X144090021Y-118660587D01*
X144090021Y-118660587D02*
X143994783Y-118708206D01*
X143994783Y-118708206D02*
X143851926Y-118708206D01*
X143851926Y-118708206D02*
X143756688Y-118660587D01*
X143756688Y-118660587D02*
X143709069Y-118612968D01*
X143709069Y-118612968D02*
X143661450Y-118517730D01*
X143661450Y-118517730D02*
X143661450Y-118136778D01*
X144185259Y-119041540D02*
X143185259Y-119708206D01*
X144185259Y-119708206D02*
X143185259Y-119041540D01*
X147721920Y-109608207D02*
X147674301Y-109560588D01*
X147674301Y-109560588D02*
X147626681Y-109417731D01*
X147626681Y-109417731D02*
X147626681Y-109322493D01*
X147626681Y-109322493D02*
X147674301Y-109179636D01*
X147674301Y-109179636D02*
X147769539Y-109084398D01*
X147769539Y-109084398D02*
X147864777Y-109036779D01*
X147864777Y-109036779D02*
X148055253Y-108989160D01*
X148055253Y-108989160D02*
X148198110Y-108989160D01*
X148198110Y-108989160D02*
X148388586Y-109036779D01*
X148388586Y-109036779D02*
X148483824Y-109084398D01*
X148483824Y-109084398D02*
X148579062Y-109179636D01*
X148579062Y-109179636D02*
X148626681Y-109322493D01*
X148626681Y-109322493D02*
X148626681Y-109417731D01*
X148626681Y-109417731D02*
X148579062Y-109560588D01*
X148579062Y-109560588D02*
X148531443Y-109608207D01*
X147674301Y-109989160D02*
X147626681Y-110132017D01*
X147626681Y-110132017D02*
X147626681Y-110370112D01*
X147626681Y-110370112D02*
X147674301Y-110465350D01*
X147674301Y-110465350D02*
X147721920Y-110512969D01*
X147721920Y-110512969D02*
X147817158Y-110560588D01*
X147817158Y-110560588D02*
X147912396Y-110560588D01*
X147912396Y-110560588D02*
X148007634Y-110512969D01*
X148007634Y-110512969D02*
X148055253Y-110465350D01*
X148055253Y-110465350D02*
X148102872Y-110370112D01*
X148102872Y-110370112D02*
X148150491Y-110179636D01*
X148150491Y-110179636D02*
X148198110Y-110084398D01*
X148198110Y-110084398D02*
X148245729Y-110036779D01*
X148245729Y-110036779D02*
X148340967Y-109989160D01*
X148340967Y-109989160D02*
X148436205Y-109989160D01*
X148436205Y-109989160D02*
X148531443Y-110036779D01*
X148531443Y-110036779D02*
X148579062Y-110084398D01*
X148579062Y-110084398D02*
X148626681Y-110179636D01*
X148626681Y-110179636D02*
X148626681Y-110417731D01*
X148626681Y-110417731D02*
X148579062Y-110560588D01*
X157774300Y-91189160D02*
X157726680Y-91332017D01*
X157726680Y-91332017D02*
X157726680Y-91570112D01*
X157726680Y-91570112D02*
X157774300Y-91665350D01*
X157774300Y-91665350D02*
X157821919Y-91712969D01*
X157821919Y-91712969D02*
X157917157Y-91760588D01*
X157917157Y-91760588D02*
X158012395Y-91760588D01*
X158012395Y-91760588D02*
X158107633Y-91712969D01*
X158107633Y-91712969D02*
X158155252Y-91665350D01*
X158155252Y-91665350D02*
X158202871Y-91570112D01*
X158202871Y-91570112D02*
X158250490Y-91379636D01*
X158250490Y-91379636D02*
X158298109Y-91284398D01*
X158298109Y-91284398D02*
X158345728Y-91236779D01*
X158345728Y-91236779D02*
X158440966Y-91189160D01*
X158440966Y-91189160D02*
X158536204Y-91189160D01*
X158536204Y-91189160D02*
X158631442Y-91236779D01*
X158631442Y-91236779D02*
X158679061Y-91284398D01*
X158679061Y-91284398D02*
X158726680Y-91379636D01*
X158726680Y-91379636D02*
X158726680Y-91617731D01*
X158726680Y-91617731D02*
X158679061Y-91760588D01*
X158726680Y-92093922D02*
X157726680Y-92332017D01*
X157726680Y-92332017D02*
X158440966Y-92522493D01*
X158440966Y-92522493D02*
X157726680Y-92712969D01*
X157726680Y-92712969D02*
X158726680Y-92951065D01*
X158250490Y-93665350D02*
X158202871Y-93808207D01*
X158202871Y-93808207D02*
X158155252Y-93855826D01*
X158155252Y-93855826D02*
X158060014Y-93903445D01*
X158060014Y-93903445D02*
X157917157Y-93903445D01*
X157917157Y-93903445D02*
X157821919Y-93855826D01*
X157821919Y-93855826D02*
X157774300Y-93808207D01*
X157774300Y-93808207D02*
X157726680Y-93712969D01*
X157726680Y-93712969D02*
X157726680Y-93332017D01*
X157726680Y-93332017D02*
X158726680Y-93332017D01*
X158726680Y-93332017D02*
X158726680Y-93665350D01*
X158726680Y-93665350D02*
X158679061Y-93760588D01*
X158679061Y-93760588D02*
X158631442Y-93808207D01*
X158631442Y-93808207D02*
X158536204Y-93855826D01*
X158536204Y-93855826D02*
X158440966Y-93855826D01*
X158440966Y-93855826D02*
X158345728Y-93808207D01*
X158345728Y-93808207D02*
X158298109Y-93760588D01*
X158298109Y-93760588D02*
X158250490Y-93665350D01*
X158250490Y-93665350D02*
X158250490Y-93332017D01*
X147626680Y-90536779D02*
X148626680Y-90536779D01*
X148626680Y-90536779D02*
X148626680Y-90774874D01*
X148626680Y-90774874D02*
X148579061Y-90917731D01*
X148579061Y-90917731D02*
X148483823Y-91012969D01*
X148483823Y-91012969D02*
X148388585Y-91060588D01*
X148388585Y-91060588D02*
X148198109Y-91108207D01*
X148198109Y-91108207D02*
X148055252Y-91108207D01*
X148055252Y-91108207D02*
X147864776Y-91060588D01*
X147864776Y-91060588D02*
X147769538Y-91012969D01*
X147769538Y-91012969D02*
X147674300Y-90917731D01*
X147674300Y-90917731D02*
X147626680Y-90774874D01*
X147626680Y-90774874D02*
X147626680Y-90536779D01*
X148626680Y-91727255D02*
X148626680Y-91917731D01*
X148626680Y-91917731D02*
X148579061Y-92012969D01*
X148579061Y-92012969D02*
X148483823Y-92108207D01*
X148483823Y-92108207D02*
X148293347Y-92155826D01*
X148293347Y-92155826D02*
X147960014Y-92155826D01*
X147960014Y-92155826D02*
X147769538Y-92108207D01*
X147769538Y-92108207D02*
X147674300Y-92012969D01*
X147674300Y-92012969D02*
X147626680Y-91917731D01*
X147626680Y-91917731D02*
X147626680Y-91727255D01*
X147626680Y-91727255D02*
X147674300Y-91632017D01*
X147674300Y-91632017D02*
X147769538Y-91536779D01*
X147769538Y-91536779D02*
X147960014Y-91489160D01*
X147960014Y-91489160D02*
X148293347Y-91489160D01*
X148293347Y-91489160D02*
X148483823Y-91536779D01*
X148483823Y-91536779D02*
X148579061Y-91632017D01*
X148579061Y-91632017D02*
X148626680Y-91727255D01*
X147626680Y-92584398D02*
X148626680Y-92584398D01*
X148626680Y-92584398D02*
X147626680Y-93155826D01*
X147626680Y-93155826D02*
X148626680Y-93155826D01*
X148150490Y-93632017D02*
X148150490Y-93965350D01*
X147626680Y-94108207D02*
X147626680Y-93632017D01*
X147626680Y-93632017D02*
X148626680Y-93632017D01*
X148626680Y-93632017D02*
X148626680Y-94108207D01*
X148185258Y-118141542D02*
X148185258Y-118760589D01*
X148185258Y-118760589D02*
X147804306Y-118427256D01*
X147804306Y-118427256D02*
X147804306Y-118570113D01*
X147804306Y-118570113D02*
X147756687Y-118665351D01*
X147756687Y-118665351D02*
X147709068Y-118712970D01*
X147709068Y-118712970D02*
X147613830Y-118760589D01*
X147613830Y-118760589D02*
X147375735Y-118760589D01*
X147375735Y-118760589D02*
X147280497Y-118712970D01*
X147280497Y-118712970D02*
X147232878Y-118665351D01*
X147232878Y-118665351D02*
X147185258Y-118570113D01*
X147185258Y-118570113D02*
X147185258Y-118284399D01*
X147185258Y-118284399D02*
X147232878Y-118189161D01*
X147232878Y-118189161D02*
X147280497Y-118141542D01*
X147280497Y-119189161D02*
X147232878Y-119236780D01*
X147232878Y-119236780D02*
X147185258Y-119189161D01*
X147185258Y-119189161D02*
X147232878Y-119141542D01*
X147232878Y-119141542D02*
X147280497Y-119189161D01*
X147280497Y-119189161D02*
X147185258Y-119189161D01*
X148185258Y-119570113D02*
X148185258Y-120189160D01*
X148185258Y-120189160D02*
X147804306Y-119855827D01*
X147804306Y-119855827D02*
X147804306Y-119998684D01*
X147804306Y-119998684D02*
X147756687Y-120093922D01*
X147756687Y-120093922D02*
X147709068Y-120141541D01*
X147709068Y-120141541D02*
X147613830Y-120189160D01*
X147613830Y-120189160D02*
X147375735Y-120189160D01*
X147375735Y-120189160D02*
X147280497Y-120141541D01*
X147280497Y-120141541D02*
X147232878Y-120093922D01*
X147232878Y-120093922D02*
X147185258Y-119998684D01*
X147185258Y-119998684D02*
X147185258Y-119712970D01*
X147185258Y-119712970D02*
X147232878Y-119617732D01*
X147232878Y-119617732D02*
X147280497Y-119570113D01*
X148185258Y-120474875D02*
X147185258Y-120808208D01*
X147185258Y-120808208D02*
X148185258Y-121141541D01*
X152674301Y-91489160D02*
X152626681Y-91632017D01*
X152626681Y-91632017D02*
X152626681Y-91870112D01*
X152626681Y-91870112D02*
X152674301Y-91965350D01*
X152674301Y-91965350D02*
X152721920Y-92012969D01*
X152721920Y-92012969D02*
X152817158Y-92060588D01*
X152817158Y-92060588D02*
X152912396Y-92060588D01*
X152912396Y-92060588D02*
X153007634Y-92012969D01*
X153007634Y-92012969D02*
X153055253Y-91965350D01*
X153055253Y-91965350D02*
X153102872Y-91870112D01*
X153102872Y-91870112D02*
X153150491Y-91679636D01*
X153150491Y-91679636D02*
X153198110Y-91584398D01*
X153198110Y-91584398D02*
X153245729Y-91536779D01*
X153245729Y-91536779D02*
X153340967Y-91489160D01*
X153340967Y-91489160D02*
X153436205Y-91489160D01*
X153436205Y-91489160D02*
X153531443Y-91536779D01*
X153531443Y-91536779D02*
X153579062Y-91584398D01*
X153579062Y-91584398D02*
X153626681Y-91679636D01*
X153626681Y-91679636D02*
X153626681Y-91917731D01*
X153626681Y-91917731D02*
X153579062Y-92060588D01*
X152626681Y-92489160D02*
X153626681Y-92489160D01*
X153626681Y-92489160D02*
X153626681Y-92727255D01*
X153626681Y-92727255D02*
X153579062Y-92870112D01*
X153579062Y-92870112D02*
X153483824Y-92965350D01*
X153483824Y-92965350D02*
X153388586Y-93012969D01*
X153388586Y-93012969D02*
X153198110Y-93060588D01*
X153198110Y-93060588D02*
X153055253Y-93060588D01*
X153055253Y-93060588D02*
X152864777Y-93012969D01*
X152864777Y-93012969D02*
X152769539Y-92965350D01*
X152769539Y-92965350D02*
X152674301Y-92870112D01*
X152674301Y-92870112D02*
X152626681Y-92727255D01*
X152626681Y-92727255D02*
X152626681Y-92489160D01*
X152912396Y-93441541D02*
X152912396Y-93917731D01*
X152626681Y-93346303D02*
X153626681Y-93679636D01*
X153626681Y-93679636D02*
X152626681Y-94012969D01*
X140879061Y-91860588D02*
X140926680Y-91765350D01*
X140926680Y-91765350D02*
X140926680Y-91622493D01*
X140926680Y-91622493D02*
X140879061Y-91479636D01*
X140879061Y-91479636D02*
X140783823Y-91384398D01*
X140783823Y-91384398D02*
X140688585Y-91336779D01*
X140688585Y-91336779D02*
X140498109Y-91289160D01*
X140498109Y-91289160D02*
X140355252Y-91289160D01*
X140355252Y-91289160D02*
X140164776Y-91336779D01*
X140164776Y-91336779D02*
X140069538Y-91384398D01*
X140069538Y-91384398D02*
X139974300Y-91479636D01*
X139974300Y-91479636D02*
X139926680Y-91622493D01*
X139926680Y-91622493D02*
X139926680Y-91717731D01*
X139926680Y-91717731D02*
X139974300Y-91860588D01*
X139974300Y-91860588D02*
X140021919Y-91908207D01*
X140021919Y-91908207D02*
X140355252Y-91908207D01*
X140355252Y-91908207D02*
X140355252Y-91717731D01*
X139926680Y-92336779D02*
X140926680Y-92336779D01*
X140926680Y-92336779D02*
X139926680Y-92908207D01*
X139926680Y-92908207D02*
X140926680Y-92908207D01*
X139926680Y-93384398D02*
X140926680Y-93384398D01*
X140926680Y-93384398D02*
X140926680Y-93622493D01*
X140926680Y-93622493D02*
X140879061Y-93765350D01*
X140879061Y-93765350D02*
X140783823Y-93860588D01*
X140783823Y-93860588D02*
X140688585Y-93908207D01*
X140688585Y-93908207D02*
X140498109Y-93955826D01*
X140498109Y-93955826D02*
X140355252Y-93955826D01*
X140355252Y-93955826D02*
X140164776Y-93908207D01*
X140164776Y-93908207D02*
X140069538Y-93860588D01*
X140069538Y-93860588D02*
X139974300Y-93765350D01*
X139974300Y-93765350D02*
X139926680Y-93622493D01*
X139926680Y-93622493D02*
X139926680Y-93384398D01*
X145026680Y-91436778D02*
X146026680Y-91436778D01*
X146026680Y-91436778D02*
X146026680Y-91674873D01*
X146026680Y-91674873D02*
X145979061Y-91817730D01*
X145979061Y-91817730D02*
X145883823Y-91912968D01*
X145883823Y-91912968D02*
X145788585Y-91960587D01*
X145788585Y-91960587D02*
X145598109Y-92008206D01*
X145598109Y-92008206D02*
X145455252Y-92008206D01*
X145455252Y-92008206D02*
X145264776Y-91960587D01*
X145264776Y-91960587D02*
X145169538Y-91912968D01*
X145169538Y-91912968D02*
X145074300Y-91817730D01*
X145074300Y-91817730D02*
X145026680Y-91674873D01*
X145026680Y-91674873D02*
X145026680Y-91436778D01*
X145026680Y-93008206D02*
X145502871Y-92674873D01*
X145026680Y-92436778D02*
X146026680Y-92436778D01*
X146026680Y-92436778D02*
X146026680Y-92817730D01*
X146026680Y-92817730D02*
X145979061Y-92912968D01*
X145979061Y-92912968D02*
X145931442Y-92960587D01*
X145931442Y-92960587D02*
X145836204Y-93008206D01*
X145836204Y-93008206D02*
X145693347Y-93008206D01*
X145693347Y-93008206D02*
X145598109Y-92960587D01*
X145598109Y-92960587D02*
X145550490Y-92912968D01*
X145550490Y-92912968D02*
X145502871Y-92817730D01*
X145502871Y-92817730D02*
X145502871Y-92436778D01*
X146026680Y-93293921D02*
X145026680Y-93627254D01*
X145026680Y-93627254D02*
X146026680Y-93960587D01*
X137526680Y-109036779D02*
X138526680Y-109036779D01*
X138526680Y-109036779D02*
X138526680Y-109417731D01*
X138526680Y-109417731D02*
X138479061Y-109512969D01*
X138479061Y-109512969D02*
X138431442Y-109560588D01*
X138431442Y-109560588D02*
X138336204Y-109608207D01*
X138336204Y-109608207D02*
X138193347Y-109608207D01*
X138193347Y-109608207D02*
X138098109Y-109560588D01*
X138098109Y-109560588D02*
X138050490Y-109512969D01*
X138050490Y-109512969D02*
X138002871Y-109417731D01*
X138002871Y-109417731D02*
X138002871Y-109036779D01*
X137526680Y-110036779D02*
X138526680Y-110036779D01*
X138526680Y-110036779D02*
X138526680Y-110274874D01*
X138526680Y-110274874D02*
X138479061Y-110417731D01*
X138479061Y-110417731D02*
X138383823Y-110512969D01*
X138383823Y-110512969D02*
X138288585Y-110560588D01*
X138288585Y-110560588D02*
X138098109Y-110608207D01*
X138098109Y-110608207D02*
X137955252Y-110608207D01*
X137955252Y-110608207D02*
X137764776Y-110560588D01*
X137764776Y-110560588D02*
X137669538Y-110512969D01*
X137669538Y-110512969D02*
X137574300Y-110417731D01*
X137574300Y-110417731D02*
X137526680Y-110274874D01*
X137526680Y-110274874D02*
X137526680Y-110036779D01*
X138526680Y-110941541D02*
X138526680Y-111608207D01*
X138526680Y-111608207D02*
X137526680Y-111179636D01*
X146185259Y-117993922D02*
X146185259Y-118565350D01*
X145185259Y-118279636D02*
X146185259Y-118279636D01*
X146185259Y-118803446D02*
X145185259Y-119470112D01*
X146185259Y-119470112D02*
X145185259Y-118803446D01*
X141026680Y-108841541D02*
X141026680Y-109460588D01*
X141026680Y-109460588D02*
X140645728Y-109127255D01*
X140645728Y-109127255D02*
X140645728Y-109270112D01*
X140645728Y-109270112D02*
X140598109Y-109365350D01*
X140598109Y-109365350D02*
X140550490Y-109412969D01*
X140550490Y-109412969D02*
X140455252Y-109460588D01*
X140455252Y-109460588D02*
X140217157Y-109460588D01*
X140217157Y-109460588D02*
X140121919Y-109412969D01*
X140121919Y-109412969D02*
X140074300Y-109365350D01*
X140074300Y-109365350D02*
X140026680Y-109270112D01*
X140026680Y-109270112D02*
X140026680Y-108984398D01*
X140026680Y-108984398D02*
X140074300Y-108889160D01*
X140074300Y-108889160D02*
X140121919Y-108841541D01*
X140121919Y-109889160D02*
X140074300Y-109936779D01*
X140074300Y-109936779D02*
X140026680Y-109889160D01*
X140026680Y-109889160D02*
X140074300Y-109841541D01*
X140074300Y-109841541D02*
X140121919Y-109889160D01*
X140121919Y-109889160D02*
X140026680Y-109889160D01*
X141026680Y-110270112D02*
X141026680Y-110889159D01*
X141026680Y-110889159D02*
X140645728Y-110555826D01*
X140645728Y-110555826D02*
X140645728Y-110698683D01*
X140645728Y-110698683D02*
X140598109Y-110793921D01*
X140598109Y-110793921D02*
X140550490Y-110841540D01*
X140550490Y-110841540D02*
X140455252Y-110889159D01*
X140455252Y-110889159D02*
X140217157Y-110889159D01*
X140217157Y-110889159D02*
X140121919Y-110841540D01*
X140121919Y-110841540D02*
X140074300Y-110793921D01*
X140074300Y-110793921D02*
X140026680Y-110698683D01*
X140026680Y-110698683D02*
X140026680Y-110412969D01*
X140026680Y-110412969D02*
X140074300Y-110317731D01*
X140074300Y-110317731D02*
X140121919Y-110270112D01*
X141026680Y-111174874D02*
X140026680Y-111508207D01*
X140026680Y-111508207D02*
X141026680Y-111841540D01*
X155326680Y-109036779D02*
X156326680Y-109036779D01*
X156326680Y-109036779D02*
X155612395Y-109370112D01*
X155612395Y-109370112D02*
X156326680Y-109703445D01*
X156326680Y-109703445D02*
X155326680Y-109703445D01*
X155326680Y-110179636D02*
X156326680Y-110179636D01*
X155374300Y-110608207D02*
X155326680Y-110751064D01*
X155326680Y-110751064D02*
X155326680Y-110989159D01*
X155326680Y-110989159D02*
X155374300Y-111084397D01*
X155374300Y-111084397D02*
X155421919Y-111132016D01*
X155421919Y-111132016D02*
X155517157Y-111179635D01*
X155517157Y-111179635D02*
X155612395Y-111179635D01*
X155612395Y-111179635D02*
X155707633Y-111132016D01*
X155707633Y-111132016D02*
X155755252Y-111084397D01*
X155755252Y-111084397D02*
X155802871Y-110989159D01*
X155802871Y-110989159D02*
X155850490Y-110798683D01*
X155850490Y-110798683D02*
X155898109Y-110703445D01*
X155898109Y-110703445D02*
X155945728Y-110655826D01*
X155945728Y-110655826D02*
X156040966Y-110608207D01*
X156040966Y-110608207D02*
X156136204Y-110608207D01*
X156136204Y-110608207D02*
X156231442Y-110655826D01*
X156231442Y-110655826D02*
X156279061Y-110703445D01*
X156279061Y-110703445D02*
X156326680Y-110798683D01*
X156326680Y-110798683D02*
X156326680Y-111036778D01*
X156326680Y-111036778D02*
X156279061Y-111179635D01*
X156326680Y-111798683D02*
X156326680Y-111989159D01*
X156326680Y-111989159D02*
X156279061Y-112084397D01*
X156279061Y-112084397D02*
X156183823Y-112179635D01*
X156183823Y-112179635D02*
X155993347Y-112227254D01*
X155993347Y-112227254D02*
X155660014Y-112227254D01*
X155660014Y-112227254D02*
X155469538Y-112179635D01*
X155469538Y-112179635D02*
X155374300Y-112084397D01*
X155374300Y-112084397D02*
X155326680Y-111989159D01*
X155326680Y-111989159D02*
X155326680Y-111798683D01*
X155326680Y-111798683D02*
X155374300Y-111703445D01*
X155374300Y-111703445D02*
X155469538Y-111608207D01*
X155469538Y-111608207D02*
X155660014Y-111560588D01*
X155660014Y-111560588D02*
X155993347Y-111560588D01*
X155993347Y-111560588D02*
X156183823Y-111608207D01*
X156183823Y-111608207D02*
X156279061Y-111703445D01*
X156279061Y-111703445D02*
X156326680Y-111798683D01*
X137574300Y-91289160D02*
X137526680Y-91432017D01*
X137526680Y-91432017D02*
X137526680Y-91670112D01*
X137526680Y-91670112D02*
X137574300Y-91765350D01*
X137574300Y-91765350D02*
X137621919Y-91812969D01*
X137621919Y-91812969D02*
X137717157Y-91860588D01*
X137717157Y-91860588D02*
X137812395Y-91860588D01*
X137812395Y-91860588D02*
X137907633Y-91812969D01*
X137907633Y-91812969D02*
X137955252Y-91765350D01*
X137955252Y-91765350D02*
X138002871Y-91670112D01*
X138002871Y-91670112D02*
X138050490Y-91479636D01*
X138050490Y-91479636D02*
X138098109Y-91384398D01*
X138098109Y-91384398D02*
X138145728Y-91336779D01*
X138145728Y-91336779D02*
X138240966Y-91289160D01*
X138240966Y-91289160D02*
X138336204Y-91289160D01*
X138336204Y-91289160D02*
X138431442Y-91336779D01*
X138431442Y-91336779D02*
X138479061Y-91384398D01*
X138479061Y-91384398D02*
X138526680Y-91479636D01*
X138526680Y-91479636D02*
X138526680Y-91717731D01*
X138526680Y-91717731D02*
X138479061Y-91860588D01*
X138526680Y-92193922D02*
X137526680Y-92432017D01*
X137526680Y-92432017D02*
X138240966Y-92622493D01*
X138240966Y-92622493D02*
X137526680Y-92812969D01*
X137526680Y-92812969D02*
X138526680Y-93051065D01*
X137812395Y-93384398D02*
X137812395Y-93860588D01*
X137526680Y-93289160D02*
X138526680Y-93622493D01*
X138526680Y-93622493D02*
X137526680Y-93955826D01*
X152626679Y-109036779D02*
X153626679Y-109036779D01*
X153626679Y-109036779D02*
X152912394Y-109370112D01*
X152912394Y-109370112D02*
X153626679Y-109703445D01*
X153626679Y-109703445D02*
X152626679Y-109703445D01*
X153626679Y-110370112D02*
X153626679Y-110560588D01*
X153626679Y-110560588D02*
X153579060Y-110655826D01*
X153579060Y-110655826D02*
X153483822Y-110751064D01*
X153483822Y-110751064D02*
X153293346Y-110798683D01*
X153293346Y-110798683D02*
X152960013Y-110798683D01*
X152960013Y-110798683D02*
X152769537Y-110751064D01*
X152769537Y-110751064D02*
X152674299Y-110655826D01*
X152674299Y-110655826D02*
X152626679Y-110560588D01*
X152626679Y-110560588D02*
X152626679Y-110370112D01*
X152626679Y-110370112D02*
X152674299Y-110274874D01*
X152674299Y-110274874D02*
X152769537Y-110179636D01*
X152769537Y-110179636D02*
X152960013Y-110132017D01*
X152960013Y-110132017D02*
X153293346Y-110132017D01*
X153293346Y-110132017D02*
X153483822Y-110179636D01*
X153483822Y-110179636D02*
X153579060Y-110274874D01*
X153579060Y-110274874D02*
X153626679Y-110370112D01*
X152674299Y-111179636D02*
X152626679Y-111322493D01*
X152626679Y-111322493D02*
X152626679Y-111560588D01*
X152626679Y-111560588D02*
X152674299Y-111655826D01*
X152674299Y-111655826D02*
X152721918Y-111703445D01*
X152721918Y-111703445D02*
X152817156Y-111751064D01*
X152817156Y-111751064D02*
X152912394Y-111751064D01*
X152912394Y-111751064D02*
X153007632Y-111703445D01*
X153007632Y-111703445D02*
X153055251Y-111655826D01*
X153055251Y-111655826D02*
X153102870Y-111560588D01*
X153102870Y-111560588D02*
X153150489Y-111370112D01*
X153150489Y-111370112D02*
X153198108Y-111274874D01*
X153198108Y-111274874D02*
X153245727Y-111227255D01*
X153245727Y-111227255D02*
X153340965Y-111179636D01*
X153340965Y-111179636D02*
X153436203Y-111179636D01*
X153436203Y-111179636D02*
X153531441Y-111227255D01*
X153531441Y-111227255D02*
X153579060Y-111274874D01*
X153579060Y-111274874D02*
X153626679Y-111370112D01*
X153626679Y-111370112D02*
X153626679Y-111608207D01*
X153626679Y-111608207D02*
X153579060Y-111751064D01*
X152626679Y-112179636D02*
X153626679Y-112179636D01*
X150174299Y-108989160D02*
X150126679Y-109132017D01*
X150126679Y-109132017D02*
X150126679Y-109370112D01*
X150126679Y-109370112D02*
X150174299Y-109465350D01*
X150174299Y-109465350D02*
X150221918Y-109512969D01*
X150221918Y-109512969D02*
X150317156Y-109560588D01*
X150317156Y-109560588D02*
X150412394Y-109560588D01*
X150412394Y-109560588D02*
X150507632Y-109512969D01*
X150507632Y-109512969D02*
X150555251Y-109465350D01*
X150555251Y-109465350D02*
X150602870Y-109370112D01*
X150602870Y-109370112D02*
X150650489Y-109179636D01*
X150650489Y-109179636D02*
X150698108Y-109084398D01*
X150698108Y-109084398D02*
X150745727Y-109036779D01*
X150745727Y-109036779D02*
X150840965Y-108989160D01*
X150840965Y-108989160D02*
X150936203Y-108989160D01*
X150936203Y-108989160D02*
X151031441Y-109036779D01*
X151031441Y-109036779D02*
X151079060Y-109084398D01*
X151079060Y-109084398D02*
X151126679Y-109179636D01*
X151126679Y-109179636D02*
X151126679Y-109417731D01*
X151126679Y-109417731D02*
X151079060Y-109560588D01*
X150221918Y-110560588D02*
X150174299Y-110512969D01*
X150174299Y-110512969D02*
X150126679Y-110370112D01*
X150126679Y-110370112D02*
X150126679Y-110274874D01*
X150126679Y-110274874D02*
X150174299Y-110132017D01*
X150174299Y-110132017D02*
X150269537Y-110036779D01*
X150269537Y-110036779D02*
X150364775Y-109989160D01*
X150364775Y-109989160D02*
X150555251Y-109941541D01*
X150555251Y-109941541D02*
X150698108Y-109941541D01*
X150698108Y-109941541D02*
X150888584Y-109989160D01*
X150888584Y-109989160D02*
X150983822Y-110036779D01*
X150983822Y-110036779D02*
X151079060Y-110132017D01*
X151079060Y-110132017D02*
X151126679Y-110274874D01*
X151126679Y-110274874D02*
X151126679Y-110370112D01*
X151126679Y-110370112D02*
X151079060Y-110512969D01*
X151079060Y-110512969D02*
X151031441Y-110560588D01*
X150126679Y-110989160D02*
X151126679Y-110989160D01*
X150126679Y-111560588D02*
X150698108Y-111132017D01*
X151126679Y-111560588D02*
X150555251Y-110989160D01*
X138037639Y-118660588D02*
X138085258Y-118565350D01*
X138085258Y-118565350D02*
X138085258Y-118422493D01*
X138085258Y-118422493D02*
X138037639Y-118279636D01*
X138037639Y-118279636D02*
X137942401Y-118184398D01*
X137942401Y-118184398D02*
X137847163Y-118136779D01*
X137847163Y-118136779D02*
X137656687Y-118089160D01*
X137656687Y-118089160D02*
X137513830Y-118089160D01*
X137513830Y-118089160D02*
X137323354Y-118136779D01*
X137323354Y-118136779D02*
X137228116Y-118184398D01*
X137228116Y-118184398D02*
X137132878Y-118279636D01*
X137132878Y-118279636D02*
X137085258Y-118422493D01*
X137085258Y-118422493D02*
X137085258Y-118517731D01*
X137085258Y-118517731D02*
X137132878Y-118660588D01*
X137132878Y-118660588D02*
X137180497Y-118708207D01*
X137180497Y-118708207D02*
X137513830Y-118708207D01*
X137513830Y-118708207D02*
X137513830Y-118517731D01*
X137085258Y-119136779D02*
X138085258Y-119136779D01*
X138085258Y-119136779D02*
X137085258Y-119708207D01*
X137085258Y-119708207D02*
X138085258Y-119708207D01*
X137085258Y-120184398D02*
X138085258Y-120184398D01*
X138085258Y-120184398D02*
X138085258Y-120422493D01*
X138085258Y-120422493D02*
X138037639Y-120565350D01*
X138037639Y-120565350D02*
X137942401Y-120660588D01*
X137942401Y-120660588D02*
X137847163Y-120708207D01*
X137847163Y-120708207D02*
X137656687Y-120755826D01*
X137656687Y-120755826D02*
X137513830Y-120755826D01*
X137513830Y-120755826D02*
X137323354Y-120708207D01*
X137323354Y-120708207D02*
X137228116Y-120660588D01*
X137228116Y-120660588D02*
X137132878Y-120565350D01*
X137132878Y-120565350D02*
X137085258Y-120422493D01*
X137085258Y-120422493D02*
X137085258Y-120184398D01*
X157874300Y-108989160D02*
X157826680Y-109132017D01*
X157826680Y-109132017D02*
X157826680Y-109370112D01*
X157826680Y-109370112D02*
X157874300Y-109465350D01*
X157874300Y-109465350D02*
X157921919Y-109512969D01*
X157921919Y-109512969D02*
X158017157Y-109560588D01*
X158017157Y-109560588D02*
X158112395Y-109560588D01*
X158112395Y-109560588D02*
X158207633Y-109512969D01*
X158207633Y-109512969D02*
X158255252Y-109465350D01*
X158255252Y-109465350D02*
X158302871Y-109370112D01*
X158302871Y-109370112D02*
X158350490Y-109179636D01*
X158350490Y-109179636D02*
X158398109Y-109084398D01*
X158398109Y-109084398D02*
X158445728Y-109036779D01*
X158445728Y-109036779D02*
X158540966Y-108989160D01*
X158540966Y-108989160D02*
X158636204Y-108989160D01*
X158636204Y-108989160D02*
X158731442Y-109036779D01*
X158731442Y-109036779D02*
X158779061Y-109084398D01*
X158779061Y-109084398D02*
X158826680Y-109179636D01*
X158826680Y-109179636D02*
X158826680Y-109417731D01*
X158826680Y-109417731D02*
X158779061Y-109560588D01*
X158826680Y-109893922D02*
X157826680Y-110132017D01*
X157826680Y-110132017D02*
X158540966Y-110322493D01*
X158540966Y-110322493D02*
X157826680Y-110512969D01*
X157826680Y-110512969D02*
X158826680Y-110751065D01*
X157826680Y-111132017D02*
X158826680Y-111132017D01*
X158826680Y-111798683D02*
X158826680Y-111989159D01*
X158826680Y-111989159D02*
X158779061Y-112084397D01*
X158779061Y-112084397D02*
X158683823Y-112179635D01*
X158683823Y-112179635D02*
X158493347Y-112227254D01*
X158493347Y-112227254D02*
X158160014Y-112227254D01*
X158160014Y-112227254D02*
X157969538Y-112179635D01*
X157969538Y-112179635D02*
X157874300Y-112084397D01*
X157874300Y-112084397D02*
X157826680Y-111989159D01*
X157826680Y-111989159D02*
X157826680Y-111798683D01*
X157826680Y-111798683D02*
X157874300Y-111703445D01*
X157874300Y-111703445D02*
X157969538Y-111608207D01*
X157969538Y-111608207D02*
X158160014Y-111560588D01*
X158160014Y-111560588D02*
X158493347Y-111560588D01*
X158493347Y-111560588D02*
X158683823Y-111608207D01*
X158683823Y-111608207D02*
X158779061Y-111703445D01*
X158779061Y-111703445D02*
X158826680Y-111798683D01*
X145121919Y-109608207D02*
X145074300Y-109560588D01*
X145074300Y-109560588D02*
X145026680Y-109417731D01*
X145026680Y-109417731D02*
X145026680Y-109322493D01*
X145026680Y-109322493D02*
X145074300Y-109179636D01*
X145074300Y-109179636D02*
X145169538Y-109084398D01*
X145169538Y-109084398D02*
X145264776Y-109036779D01*
X145264776Y-109036779D02*
X145455252Y-108989160D01*
X145455252Y-108989160D02*
X145598109Y-108989160D01*
X145598109Y-108989160D02*
X145788585Y-109036779D01*
X145788585Y-109036779D02*
X145883823Y-109084398D01*
X145883823Y-109084398D02*
X145979061Y-109179636D01*
X145979061Y-109179636D02*
X146026680Y-109322493D01*
X146026680Y-109322493D02*
X146026680Y-109417731D01*
X146026680Y-109417731D02*
X145979061Y-109560588D01*
X145979061Y-109560588D02*
X145931442Y-109608207D01*
X145550490Y-110036779D02*
X145550490Y-110370112D01*
X145026680Y-110512969D02*
X145026680Y-110036779D01*
X145026680Y-110036779D02*
X146026680Y-110036779D01*
X146026680Y-110036779D02*
X146026680Y-110512969D01*
X143579062Y-109560588D02*
X143626681Y-109465350D01*
X143626681Y-109465350D02*
X143626681Y-109322493D01*
X143626681Y-109322493D02*
X143579062Y-109179636D01*
X143579062Y-109179636D02*
X143483824Y-109084398D01*
X143483824Y-109084398D02*
X143388586Y-109036779D01*
X143388586Y-109036779D02*
X143198110Y-108989160D01*
X143198110Y-108989160D02*
X143055253Y-108989160D01*
X143055253Y-108989160D02*
X142864777Y-109036779D01*
X142864777Y-109036779D02*
X142769539Y-109084398D01*
X142769539Y-109084398D02*
X142674301Y-109179636D01*
X142674301Y-109179636D02*
X142626681Y-109322493D01*
X142626681Y-109322493D02*
X142626681Y-109417731D01*
X142626681Y-109417731D02*
X142674301Y-109560588D01*
X142674301Y-109560588D02*
X142721920Y-109608207D01*
X142721920Y-109608207D02*
X143055253Y-109608207D01*
X143055253Y-109608207D02*
X143055253Y-109417731D01*
X142626681Y-110036779D02*
X143626681Y-110036779D01*
X143626681Y-110036779D02*
X142626681Y-110608207D01*
X142626681Y-110608207D02*
X143626681Y-110608207D01*
X142626681Y-111084398D02*
X143626681Y-111084398D01*
X143626681Y-111084398D02*
X143626681Y-111322493D01*
X143626681Y-111322493D02*
X143579062Y-111465350D01*
X143579062Y-111465350D02*
X143483824Y-111560588D01*
X143483824Y-111560588D02*
X143388586Y-111608207D01*
X143388586Y-111608207D02*
X143198110Y-111655826D01*
X143198110Y-111655826D02*
X143055253Y-111655826D01*
X143055253Y-111655826D02*
X142864777Y-111608207D01*
X142864777Y-111608207D02*
X142769539Y-111560588D01*
X142769539Y-111560588D02*
X142674301Y-111465350D01*
X142674301Y-111465350D02*
X142626681Y-111322493D01*
X142626681Y-111322493D02*
X142626681Y-111084398D01*
X143426679Y-91141541D02*
X143426679Y-91760588D01*
X143426679Y-91760588D02*
X143045727Y-91427255D01*
X143045727Y-91427255D02*
X143045727Y-91570112D01*
X143045727Y-91570112D02*
X142998108Y-91665350D01*
X142998108Y-91665350D02*
X142950489Y-91712969D01*
X142950489Y-91712969D02*
X142855251Y-91760588D01*
X142855251Y-91760588D02*
X142617156Y-91760588D01*
X142617156Y-91760588D02*
X142521918Y-91712969D01*
X142521918Y-91712969D02*
X142474299Y-91665350D01*
X142474299Y-91665350D02*
X142426679Y-91570112D01*
X142426679Y-91570112D02*
X142426679Y-91284398D01*
X142426679Y-91284398D02*
X142474299Y-91189160D01*
X142474299Y-91189160D02*
X142521918Y-91141541D01*
X142521918Y-92189160D02*
X142474299Y-92236779D01*
X142474299Y-92236779D02*
X142426679Y-92189160D01*
X142426679Y-92189160D02*
X142474299Y-92141541D01*
X142474299Y-92141541D02*
X142521918Y-92189160D01*
X142521918Y-92189160D02*
X142426679Y-92189160D01*
X143426679Y-92570112D02*
X143426679Y-93189159D01*
X143426679Y-93189159D02*
X143045727Y-92855826D01*
X143045727Y-92855826D02*
X143045727Y-92998683D01*
X143045727Y-92998683D02*
X142998108Y-93093921D01*
X142998108Y-93093921D02*
X142950489Y-93141540D01*
X142950489Y-93141540D02*
X142855251Y-93189159D01*
X142855251Y-93189159D02*
X142617156Y-93189159D01*
X142617156Y-93189159D02*
X142521918Y-93141540D01*
X142521918Y-93141540D02*
X142474299Y-93093921D01*
X142474299Y-93093921D02*
X142426679Y-92998683D01*
X142426679Y-92998683D02*
X142426679Y-92712969D01*
X142426679Y-92712969D02*
X142474299Y-92617731D01*
X142474299Y-92617731D02*
X142521918Y-92570112D01*
X143426679Y-93474874D02*
X142426679Y-93808207D01*
X142426679Y-93808207D02*
X143426679Y-94141540D01*
X155274300Y-91489160D02*
X155226680Y-91632017D01*
X155226680Y-91632017D02*
X155226680Y-91870112D01*
X155226680Y-91870112D02*
X155274300Y-91965350D01*
X155274300Y-91965350D02*
X155321919Y-92012969D01*
X155321919Y-92012969D02*
X155417157Y-92060588D01*
X155417157Y-92060588D02*
X155512395Y-92060588D01*
X155512395Y-92060588D02*
X155607633Y-92012969D01*
X155607633Y-92012969D02*
X155655252Y-91965350D01*
X155655252Y-91965350D02*
X155702871Y-91870112D01*
X155702871Y-91870112D02*
X155750490Y-91679636D01*
X155750490Y-91679636D02*
X155798109Y-91584398D01*
X155798109Y-91584398D02*
X155845728Y-91536779D01*
X155845728Y-91536779D02*
X155940966Y-91489160D01*
X155940966Y-91489160D02*
X156036204Y-91489160D01*
X156036204Y-91489160D02*
X156131442Y-91536779D01*
X156131442Y-91536779D02*
X156179061Y-91584398D01*
X156179061Y-91584398D02*
X156226680Y-91679636D01*
X156226680Y-91679636D02*
X156226680Y-91917731D01*
X156226680Y-91917731D02*
X156179061Y-92060588D01*
X155321919Y-93060588D02*
X155274300Y-93012969D01*
X155274300Y-93012969D02*
X155226680Y-92870112D01*
X155226680Y-92870112D02*
X155226680Y-92774874D01*
X155226680Y-92774874D02*
X155274300Y-92632017D01*
X155274300Y-92632017D02*
X155369538Y-92536779D01*
X155369538Y-92536779D02*
X155464776Y-92489160D01*
X155464776Y-92489160D02*
X155655252Y-92441541D01*
X155655252Y-92441541D02*
X155798109Y-92441541D01*
X155798109Y-92441541D02*
X155988585Y-92489160D01*
X155988585Y-92489160D02*
X156083823Y-92536779D01*
X156083823Y-92536779D02*
X156179061Y-92632017D01*
X156179061Y-92632017D02*
X156226680Y-92774874D01*
X156226680Y-92774874D02*
X156226680Y-92870112D01*
X156226680Y-92870112D02*
X156179061Y-93012969D01*
X156179061Y-93012969D02*
X156131442Y-93060588D01*
X155226680Y-93965350D02*
X155226680Y-93489160D01*
X155226680Y-93489160D02*
X156226680Y-93489160D01*
D11*
X155261905Y-117057419D02*
X155261905Y-116057419D01*
X155261905Y-116057419D02*
X155642857Y-116057419D01*
X155642857Y-116057419D02*
X155738095Y-116105038D01*
X155738095Y-116105038D02*
X155785714Y-116152657D01*
X155785714Y-116152657D02*
X155833333Y-116247895D01*
X155833333Y-116247895D02*
X155833333Y-116390752D01*
X155833333Y-116390752D02*
X155785714Y-116485990D01*
X155785714Y-116485990D02*
X155738095Y-116533609D01*
X155738095Y-116533609D02*
X155642857Y-116581228D01*
X155642857Y-116581228D02*
X155261905Y-116581228D01*
X156833333Y-116962180D02*
X156785714Y-117009800D01*
X156785714Y-117009800D02*
X156642857Y-117057419D01*
X156642857Y-117057419D02*
X156547619Y-117057419D01*
X156547619Y-117057419D02*
X156404762Y-117009800D01*
X156404762Y-117009800D02*
X156309524Y-116914561D01*
X156309524Y-116914561D02*
X156261905Y-116819323D01*
X156261905Y-116819323D02*
X156214286Y-116628847D01*
X156214286Y-116628847D02*
X156214286Y-116485990D01*
X156214286Y-116485990D02*
X156261905Y-116295514D01*
X156261905Y-116295514D02*
X156309524Y-116200276D01*
X156309524Y-116200276D02*
X156404762Y-116105038D01*
X156404762Y-116105038D02*
X156547619Y-116057419D01*
X156547619Y-116057419D02*
X156642857Y-116057419D01*
X156642857Y-116057419D02*
X156785714Y-116105038D01*
X156785714Y-116105038D02*
X156833333Y-116152657D01*
X157166667Y-116057419D02*
X157785714Y-116057419D01*
X157785714Y-116057419D02*
X157452381Y-116438371D01*
X157452381Y-116438371D02*
X157595238Y-116438371D01*
X157595238Y-116438371D02*
X157690476Y-116485990D01*
X157690476Y-116485990D02*
X157738095Y-116533609D01*
X157738095Y-116533609D02*
X157785714Y-116628847D01*
X157785714Y-116628847D02*
X157785714Y-116866942D01*
X157785714Y-116866942D02*
X157738095Y-116962180D01*
X157738095Y-116962180D02*
X157690476Y-117009800D01*
X157690476Y-117009800D02*
X157595238Y-117057419D01*
X157595238Y-117057419D02*
X157309524Y-117057419D01*
X157309524Y-117057419D02*
X157214286Y-117009800D01*
X157214286Y-117009800D02*
X157166667Y-116962180D01*
D10*
X135083237Y-90364346D02*
X135797522Y-90364346D01*
X135797522Y-90364346D02*
X135940379Y-90411965D01*
X135940379Y-90411965D02*
X136035618Y-90507203D01*
X136035618Y-90507203D02*
X136083237Y-90650060D01*
X136083237Y-90650060D02*
X136083237Y-90745298D01*
X135083237Y-89983393D02*
X135083237Y-89364346D01*
X135083237Y-89364346D02*
X135464189Y-89697679D01*
X135464189Y-89697679D02*
X135464189Y-89554822D01*
X135464189Y-89554822D02*
X135511808Y-89459584D01*
X135511808Y-89459584D02*
X135559427Y-89411965D01*
X135559427Y-89411965D02*
X135654665Y-89364346D01*
X135654665Y-89364346D02*
X135892760Y-89364346D01*
X135892760Y-89364346D02*
X135987998Y-89411965D01*
X135987998Y-89411965D02*
X136035618Y-89459584D01*
X136035618Y-89459584D02*
X136083237Y-89554822D01*
X136083237Y-89554822D02*
X136083237Y-89840536D01*
X136083237Y-89840536D02*
X136035618Y-89935774D01*
X136035618Y-89935774D02*
X135987998Y-89983393D01*
D11*
X150033333Y-139842579D02*
X150033333Y-139128294D01*
X150033333Y-139128294D02*
X150080952Y-138985437D01*
X150080952Y-138985437D02*
X150176190Y-138890199D01*
X150176190Y-138890199D02*
X150319047Y-138842579D01*
X150319047Y-138842579D02*
X150414285Y-138842579D01*
X149033333Y-138842579D02*
X149604761Y-138842579D01*
X149319047Y-138842579D02*
X149319047Y-139842579D01*
X149319047Y-139842579D02*
X149414285Y-139699722D01*
X149414285Y-139699722D02*
X149509523Y-139604484D01*
X149509523Y-139604484D02*
X149604761Y-139556865D01*
X151033333Y-117057419D02*
X150700000Y-116581228D01*
X150461905Y-117057419D02*
X150461905Y-116057419D01*
X150461905Y-116057419D02*
X150842857Y-116057419D01*
X150842857Y-116057419D02*
X150938095Y-116105038D01*
X150938095Y-116105038D02*
X150985714Y-116152657D01*
X150985714Y-116152657D02*
X151033333Y-116247895D01*
X151033333Y-116247895D02*
X151033333Y-116390752D01*
X151033333Y-116390752D02*
X150985714Y-116485990D01*
X150985714Y-116485990D02*
X150938095Y-116533609D01*
X150938095Y-116533609D02*
X150842857Y-116581228D01*
X150842857Y-116581228D02*
X150461905Y-116581228D01*
X151890476Y-116057419D02*
X151700000Y-116057419D01*
X151700000Y-116057419D02*
X151604762Y-116105038D01*
X151604762Y-116105038D02*
X151557143Y-116152657D01*
X151557143Y-116152657D02*
X151461905Y-116295514D01*
X151461905Y-116295514D02*
X151414286Y-116485990D01*
X151414286Y-116485990D02*
X151414286Y-116866942D01*
X151414286Y-116866942D02*
X151461905Y-116962180D01*
X151461905Y-116962180D02*
X151509524Y-117009800D01*
X151509524Y-117009800D02*
X151604762Y-117057419D01*
X151604762Y-117057419D02*
X151795238Y-117057419D01*
X151795238Y-117057419D02*
X151890476Y-117009800D01*
X151890476Y-117009800D02*
X151938095Y-116962180D01*
X151938095Y-116962180D02*
X151985714Y-116866942D01*
X151985714Y-116866942D02*
X151985714Y-116628847D01*
X151985714Y-116628847D02*
X151938095Y-116533609D01*
X151938095Y-116533609D02*
X151890476Y-116485990D01*
X151890476Y-116485990D02*
X151795238Y-116438371D01*
X151795238Y-116438371D02*
X151604762Y-116438371D01*
X151604762Y-116438371D02*
X151509524Y-116485990D01*
X151509524Y-116485990D02*
X151461905Y-116533609D01*
X151461905Y-116533609D02*
X151414286Y-116628847D01*
D10*
X146658332Y-96239580D02*
X146610713Y-96287200D01*
X146610713Y-96287200D02*
X146467856Y-96334819D01*
X146467856Y-96334819D02*
X146372618Y-96334819D01*
X146372618Y-96334819D02*
X146229761Y-96287200D01*
X146229761Y-96287200D02*
X146134523Y-96191961D01*
X146134523Y-96191961D02*
X146086904Y-96096723D01*
X146086904Y-96096723D02*
X146039285Y-95906247D01*
X146039285Y-95906247D02*
X146039285Y-95763390D01*
X146039285Y-95763390D02*
X146086904Y-95572914D01*
X146086904Y-95572914D02*
X146134523Y-95477676D01*
X146134523Y-95477676D02*
X146229761Y-95382438D01*
X146229761Y-95382438D02*
X146372618Y-95334819D01*
X146372618Y-95334819D02*
X146467856Y-95334819D01*
X146467856Y-95334819D02*
X146610713Y-95382438D01*
X146610713Y-95382438D02*
X146658332Y-95430057D01*
X147039285Y-95430057D02*
X147086904Y-95382438D01*
X147086904Y-95382438D02*
X147182142Y-95334819D01*
X147182142Y-95334819D02*
X147420237Y-95334819D01*
X147420237Y-95334819D02*
X147515475Y-95382438D01*
X147515475Y-95382438D02*
X147563094Y-95430057D01*
X147563094Y-95430057D02*
X147610713Y-95525295D01*
X147610713Y-95525295D02*
X147610713Y-95620533D01*
X147610713Y-95620533D02*
X147563094Y-95763390D01*
X147563094Y-95763390D02*
X146991666Y-96334819D01*
X146991666Y-96334819D02*
X147610713Y-96334819D01*
X158754819Y-102061904D02*
X159564342Y-102061904D01*
X159564342Y-102061904D02*
X159659580Y-102014285D01*
X159659580Y-102014285D02*
X159707200Y-101966666D01*
X159707200Y-101966666D02*
X159754819Y-101871428D01*
X159754819Y-101871428D02*
X159754819Y-101680952D01*
X159754819Y-101680952D02*
X159707200Y-101585714D01*
X159707200Y-101585714D02*
X159659580Y-101538095D01*
X159659580Y-101538095D02*
X159564342Y-101490476D01*
X159564342Y-101490476D02*
X158754819Y-101490476D01*
X158850057Y-101061904D02*
X158802438Y-101014285D01*
X158802438Y-101014285D02*
X158754819Y-100919047D01*
X158754819Y-100919047D02*
X158754819Y-100680952D01*
X158754819Y-100680952D02*
X158802438Y-100585714D01*
X158802438Y-100585714D02*
X158850057Y-100538095D01*
X158850057Y-100538095D02*
X158945295Y-100490476D01*
X158945295Y-100490476D02*
X159040533Y-100490476D01*
X159040533Y-100490476D02*
X159183390Y-100538095D01*
X159183390Y-100538095D02*
X159754819Y-101109523D01*
X159754819Y-101109523D02*
X159754819Y-100490476D01*
X135104819Y-113133333D02*
X135819104Y-113133333D01*
X135819104Y-113133333D02*
X135961961Y-113180952D01*
X135961961Y-113180952D02*
X136057200Y-113276190D01*
X136057200Y-113276190D02*
X136104819Y-113419047D01*
X136104819Y-113419047D02*
X136104819Y-113514285D01*
X135104819Y-112180952D02*
X135104819Y-112657142D01*
X135104819Y-112657142D02*
X135581009Y-112704761D01*
X135581009Y-112704761D02*
X135533390Y-112657142D01*
X135533390Y-112657142D02*
X135485771Y-112561904D01*
X135485771Y-112561904D02*
X135485771Y-112323809D01*
X135485771Y-112323809D02*
X135533390Y-112228571D01*
X135533390Y-112228571D02*
X135581009Y-112180952D01*
X135581009Y-112180952D02*
X135676247Y-112133333D01*
X135676247Y-112133333D02*
X135914342Y-112133333D01*
X135914342Y-112133333D02*
X136009580Y-112180952D01*
X136009580Y-112180952D02*
X136057200Y-112228571D01*
X136057200Y-112228571D02*
X136104819Y-112323809D01*
X136104819Y-112323809D02*
X136104819Y-112561904D01*
X136104819Y-112561904D02*
X136057200Y-112657142D01*
X136057200Y-112657142D02*
X136009580Y-112704761D01*
X146658332Y-100952319D02*
X146324999Y-100476128D01*
X146086904Y-100952319D02*
X146086904Y-99952319D01*
X146086904Y-99952319D02*
X146467856Y-99952319D01*
X146467856Y-99952319D02*
X146563094Y-99999938D01*
X146563094Y-99999938D02*
X146610713Y-100047557D01*
X146610713Y-100047557D02*
X146658332Y-100142795D01*
X146658332Y-100142795D02*
X146658332Y-100285652D01*
X146658332Y-100285652D02*
X146610713Y-100380890D01*
X146610713Y-100380890D02*
X146563094Y-100428509D01*
X146563094Y-100428509D02*
X146467856Y-100476128D01*
X146467856Y-100476128D02*
X146086904Y-100476128D01*
X147039285Y-100047557D02*
X147086904Y-99999938D01*
X147086904Y-99999938D02*
X147182142Y-99952319D01*
X147182142Y-99952319D02*
X147420237Y-99952319D01*
X147420237Y-99952319D02*
X147515475Y-99999938D01*
X147515475Y-99999938D02*
X147563094Y-100047557D01*
X147563094Y-100047557D02*
X147610713Y-100142795D01*
X147610713Y-100142795D02*
X147610713Y-100238033D01*
X147610713Y-100238033D02*
X147563094Y-100380890D01*
X147563094Y-100380890D02*
X146991666Y-100952319D01*
X146991666Y-100952319D02*
X147610713Y-100952319D01*
X146536904Y-106624818D02*
X146536904Y-105624818D01*
X146536904Y-105624818D02*
X146774999Y-105624818D01*
X146774999Y-105624818D02*
X146917856Y-105672437D01*
X146917856Y-105672437D02*
X147013094Y-105767675D01*
X147013094Y-105767675D02*
X147060713Y-105862913D01*
X147060713Y-105862913D02*
X147108332Y-106053389D01*
X147108332Y-106053389D02*
X147108332Y-106196246D01*
X147108332Y-106196246D02*
X147060713Y-106386722D01*
X147060713Y-106386722D02*
X147013094Y-106481960D01*
X147013094Y-106481960D02*
X146917856Y-106577199D01*
X146917856Y-106577199D02*
X146774999Y-106624818D01*
X146774999Y-106624818D02*
X146536904Y-106624818D01*
X148060713Y-106624818D02*
X147489285Y-106624818D01*
X147774999Y-106624818D02*
X147774999Y-105624818D01*
X147774999Y-105624818D02*
X147679761Y-105767675D01*
X147679761Y-105767675D02*
X147584523Y-105862913D01*
X147584523Y-105862913D02*
X147489285Y-105910532D01*
X144124818Y-99070833D02*
X144839103Y-99070833D01*
X144839103Y-99070833D02*
X144981960Y-99118452D01*
X144981960Y-99118452D02*
X145077199Y-99213690D01*
X145077199Y-99213690D02*
X145124818Y-99356547D01*
X145124818Y-99356547D02*
X145124818Y-99451785D01*
X144458151Y-98166071D02*
X145124818Y-98166071D01*
X144077199Y-98404166D02*
X144791484Y-98642261D01*
X144791484Y-98642261D02*
X144791484Y-98023214D01*
X146658332Y-96452319D02*
X146324999Y-95976128D01*
X146086904Y-96452319D02*
X146086904Y-95452319D01*
X146086904Y-95452319D02*
X146467856Y-95452319D01*
X146467856Y-95452319D02*
X146563094Y-95499938D01*
X146563094Y-95499938D02*
X146610713Y-95547557D01*
X146610713Y-95547557D02*
X146658332Y-95642795D01*
X146658332Y-95642795D02*
X146658332Y-95785652D01*
X146658332Y-95785652D02*
X146610713Y-95880890D01*
X146610713Y-95880890D02*
X146563094Y-95928509D01*
X146563094Y-95928509D02*
X146467856Y-95976128D01*
X146467856Y-95976128D02*
X146086904Y-95976128D01*
X146991666Y-95452319D02*
X147610713Y-95452319D01*
X147610713Y-95452319D02*
X147277380Y-95833271D01*
X147277380Y-95833271D02*
X147420237Y-95833271D01*
X147420237Y-95833271D02*
X147515475Y-95880890D01*
X147515475Y-95880890D02*
X147563094Y-95928509D01*
X147563094Y-95928509D02*
X147610713Y-96023747D01*
X147610713Y-96023747D02*
X147610713Y-96261842D01*
X147610713Y-96261842D02*
X147563094Y-96357080D01*
X147563094Y-96357080D02*
X147515475Y-96404700D01*
X147515475Y-96404700D02*
X147420237Y-96452319D01*
X147420237Y-96452319D02*
X147134523Y-96452319D01*
X147134523Y-96452319D02*
X147039285Y-96404700D01*
X147039285Y-96404700D02*
X146991666Y-96357080D01*
X139266667Y-110507200D02*
X139409524Y-110554819D01*
X139409524Y-110554819D02*
X139647619Y-110554819D01*
X139647619Y-110554819D02*
X139742857Y-110507200D01*
X139742857Y-110507200D02*
X139790476Y-110459580D01*
X139790476Y-110459580D02*
X139838095Y-110364342D01*
X139838095Y-110364342D02*
X139838095Y-110269104D01*
X139838095Y-110269104D02*
X139790476Y-110173866D01*
X139790476Y-110173866D02*
X139742857Y-110126247D01*
X139742857Y-110126247D02*
X139647619Y-110078628D01*
X139647619Y-110078628D02*
X139457143Y-110031009D01*
X139457143Y-110031009D02*
X139361905Y-109983390D01*
X139361905Y-109983390D02*
X139314286Y-109935771D01*
X139314286Y-109935771D02*
X139266667Y-109840533D01*
X139266667Y-109840533D02*
X139266667Y-109745295D01*
X139266667Y-109745295D02*
X139314286Y-109650057D01*
X139314286Y-109650057D02*
X139361905Y-109602438D01*
X139361905Y-109602438D02*
X139457143Y-109554819D01*
X139457143Y-109554819D02*
X139695238Y-109554819D01*
X139695238Y-109554819D02*
X139838095Y-109602438D01*
X140171429Y-109554819D02*
X140409524Y-110554819D01*
X140409524Y-110554819D02*
X140600000Y-109840533D01*
X140600000Y-109840533D02*
X140790476Y-110554819D01*
X140790476Y-110554819D02*
X141028572Y-109554819D01*
X141933333Y-110554819D02*
X141361905Y-110554819D01*
X141647619Y-110554819D02*
X141647619Y-109554819D01*
X141647619Y-109554819D02*
X141552381Y-109697676D01*
X141552381Y-109697676D02*
X141457143Y-109792914D01*
X141457143Y-109792914D02*
X141361905Y-109840533D01*
X155552078Y-94641666D02*
X155599698Y-94689285D01*
X155599698Y-94689285D02*
X155647317Y-94832142D01*
X155647317Y-94832142D02*
X155647317Y-94927380D01*
X155647317Y-94927380D02*
X155599698Y-95070237D01*
X155599698Y-95070237D02*
X155504459Y-95165475D01*
X155504459Y-95165475D02*
X155409221Y-95213094D01*
X155409221Y-95213094D02*
X155218745Y-95260713D01*
X155218745Y-95260713D02*
X155075888Y-95260713D01*
X155075888Y-95260713D02*
X154885412Y-95213094D01*
X154885412Y-95213094D02*
X154790174Y-95165475D01*
X154790174Y-95165475D02*
X154694936Y-95070237D01*
X154694936Y-95070237D02*
X154647317Y-94927380D01*
X154647317Y-94927380D02*
X154647317Y-94832142D01*
X154647317Y-94832142D02*
X154694936Y-94689285D01*
X154694936Y-94689285D02*
X154742555Y-94641666D01*
X154980650Y-93784523D02*
X155647317Y-93784523D01*
X154599698Y-94022618D02*
X155313983Y-94260713D01*
X155313983Y-94260713D02*
X155313983Y-93641666D01*
D11*
X157042580Y-93633333D02*
X157518771Y-93300000D01*
X157042580Y-93061905D02*
X158042580Y-93061905D01*
X158042580Y-93061905D02*
X158042580Y-93442857D01*
X158042580Y-93442857D02*
X157994961Y-93538095D01*
X157994961Y-93538095D02*
X157947342Y-93585714D01*
X157947342Y-93585714D02*
X157852104Y-93633333D01*
X157852104Y-93633333D02*
X157709247Y-93633333D01*
X157709247Y-93633333D02*
X157614009Y-93585714D01*
X157614009Y-93585714D02*
X157566390Y-93538095D01*
X157566390Y-93538095D02*
X157518771Y-93442857D01*
X157518771Y-93442857D02*
X157518771Y-93061905D01*
X157709247Y-94490476D02*
X157042580Y-94490476D01*
X158090200Y-94252381D02*
X157375914Y-94014286D01*
X157375914Y-94014286D02*
X157375914Y-94633333D01*
D10*
X150595831Y-109484819D02*
X150262498Y-109008628D01*
X150024403Y-109484819D02*
X150024403Y-108484819D01*
X150024403Y-108484819D02*
X150405355Y-108484819D01*
X150405355Y-108484819D02*
X150500593Y-108532438D01*
X150500593Y-108532438D02*
X150548212Y-108580057D01*
X150548212Y-108580057D02*
X150595831Y-108675295D01*
X150595831Y-108675295D02*
X150595831Y-108818152D01*
X150595831Y-108818152D02*
X150548212Y-108913390D01*
X150548212Y-108913390D02*
X150500593Y-108961009D01*
X150500593Y-108961009D02*
X150405355Y-109008628D01*
X150405355Y-109008628D02*
X150024403Y-109008628D01*
X151500593Y-108484819D02*
X151024403Y-108484819D01*
X151024403Y-108484819D02*
X150976784Y-108961009D01*
X150976784Y-108961009D02*
X151024403Y-108913390D01*
X151024403Y-108913390D02*
X151119641Y-108865771D01*
X151119641Y-108865771D02*
X151357736Y-108865771D01*
X151357736Y-108865771D02*
X151452974Y-108913390D01*
X151452974Y-108913390D02*
X151500593Y-108961009D01*
X151500593Y-108961009D02*
X151548212Y-109056247D01*
X151548212Y-109056247D02*
X151548212Y-109294342D01*
X151548212Y-109294342D02*
X151500593Y-109389580D01*
X151500593Y-109389580D02*
X151452974Y-109437200D01*
X151452974Y-109437200D02*
X151357736Y-109484819D01*
X151357736Y-109484819D02*
X151119641Y-109484819D01*
X151119641Y-109484819D02*
X151024403Y-109437200D01*
X151024403Y-109437200D02*
X150976784Y-109389580D01*
X146658332Y-98652319D02*
X146324999Y-98176128D01*
X146086904Y-98652319D02*
X146086904Y-97652319D01*
X146086904Y-97652319D02*
X146467856Y-97652319D01*
X146467856Y-97652319D02*
X146563094Y-97699938D01*
X146563094Y-97699938D02*
X146610713Y-97747557D01*
X146610713Y-97747557D02*
X146658332Y-97842795D01*
X146658332Y-97842795D02*
X146658332Y-97985652D01*
X146658332Y-97985652D02*
X146610713Y-98080890D01*
X146610713Y-98080890D02*
X146563094Y-98128509D01*
X146563094Y-98128509D02*
X146467856Y-98176128D01*
X146467856Y-98176128D02*
X146086904Y-98176128D01*
X147610713Y-98652319D02*
X147039285Y-98652319D01*
X147324999Y-98652319D02*
X147324999Y-97652319D01*
X147324999Y-97652319D02*
X147229761Y-97795176D01*
X147229761Y-97795176D02*
X147134523Y-97890414D01*
X147134523Y-97890414D02*
X147039285Y-97938033D01*
X149900595Y-96304819D02*
X149900595Y-97114342D01*
X149900595Y-97114342D02*
X149948214Y-97209580D01*
X149948214Y-97209580D02*
X149995833Y-97257200D01*
X149995833Y-97257200D02*
X150091071Y-97304819D01*
X150091071Y-97304819D02*
X150281547Y-97304819D01*
X150281547Y-97304819D02*
X150376785Y-97257200D01*
X150376785Y-97257200D02*
X150424404Y-97209580D01*
X150424404Y-97209580D02*
X150472023Y-97114342D01*
X150472023Y-97114342D02*
X150472023Y-96304819D01*
X150852976Y-96304819D02*
X151472023Y-96304819D01*
X151472023Y-96304819D02*
X151138690Y-96685771D01*
X151138690Y-96685771D02*
X151281547Y-96685771D01*
X151281547Y-96685771D02*
X151376785Y-96733390D01*
X151376785Y-96733390D02*
X151424404Y-96781009D01*
X151424404Y-96781009D02*
X151472023Y-96876247D01*
X151472023Y-96876247D02*
X151472023Y-97114342D01*
X151472023Y-97114342D02*
X151424404Y-97209580D01*
X151424404Y-97209580D02*
X151376785Y-97257200D01*
X151376785Y-97257200D02*
X151281547Y-97304819D01*
X151281547Y-97304819D02*
X150995833Y-97304819D01*
X150995833Y-97304819D02*
X150900595Y-97257200D01*
X150900595Y-97257200D02*
X150852976Y-97209580D01*
D12*
X136628418Y-91361013D02*
X136628418Y-90031013D01*
X137958418Y-91361013D02*
X136628418Y-91361013D01*
X139228418Y-91361013D02*
X159608418Y-91361013D01*
X139228418Y-91361013D02*
X139228418Y-88701013D01*
X159608418Y-91361013D02*
X159608418Y-88701013D01*
X139228418Y-88701013D02*
X159608418Y-88701013D01*
X146965579Y-94960000D02*
X146684419Y-94960000D01*
X146965579Y-93940000D02*
X146684419Y-93940000D01*
X158485000Y-101300000D02*
X158485000Y-97700000D01*
X158485000Y-101300000D02*
X158485000Y-103500000D01*
X151715000Y-101300000D02*
X151715000Y-99100000D01*
X151715000Y-101300000D02*
X151715000Y-103500000D01*
X136650000Y-114130000D02*
X136650000Y-112800000D01*
X137980000Y-114130000D02*
X136650000Y-114130000D01*
X139250000Y-114130000D02*
X159630000Y-114130000D01*
X139250000Y-114130000D02*
X139250000Y-111470000D01*
X159630000Y-114130000D02*
X159630000Y-111470000D01*
X139250000Y-111470000D02*
X159630000Y-111470000D01*
X146587741Y-101405000D02*
X147062257Y-101405000D01*
X146587741Y-102450000D02*
X147062257Y-102450000D01*
X145789999Y-106864999D02*
X145789999Y-108334999D01*
X145789999Y-108334999D02*
X148074999Y-108334999D01*
X148074999Y-106864999D02*
X145789999Y-106864999D01*
X140924999Y-94037500D02*
X138924999Y-94037500D01*
X137024999Y-94037500D02*
X135124999Y-94037500D01*
X135124999Y-94037500D02*
X135124999Y-103437500D01*
X140924999Y-103437500D02*
X138924999Y-103437500D01*
X137024999Y-103437500D02*
X135124999Y-103437500D01*
X146587741Y-96905000D02*
X147062257Y-96905000D01*
X146587741Y-97950000D02*
X147062257Y-97950000D01*
X142800000Y-109200000D02*
X142800000Y-109080000D01*
X142800000Y-108070000D02*
X142800000Y-106930000D01*
X142800000Y-105920000D02*
X142800000Y-105800000D01*
X142800000Y-105800000D02*
X138400000Y-105800000D01*
X138400000Y-109200000D02*
X142800000Y-109200000D01*
X138400000Y-109080000D02*
X138400000Y-109200000D01*
X138400000Y-106930000D02*
X138400000Y-108070000D01*
X138400000Y-105800000D02*
X138400000Y-105920000D01*
X154272498Y-94334420D02*
X154272498Y-94615580D01*
X153252498Y-94334420D02*
X153252498Y-94615580D01*
X150999756Y-108122500D02*
X150525240Y-108122500D01*
X150999756Y-107077500D02*
X150525240Y-107077500D01*
X146587741Y-99105000D02*
X147062257Y-99105000D01*
X146587741Y-100150000D02*
X147062257Y-100150000D01*
X150662500Y-96010000D02*
X152462500Y-96010000D01*
X150662500Y-96010000D02*
X149862500Y-96010000D01*
X150662500Y-92890000D02*
X151462500Y-92890000D01*
X150662500Y-92890000D02*
X149862500Y-92890000D01*
%LPC*%
D13*
X156500000Y-117100000D03*
D14*
X137958418Y-90031013D03*
D15*
X140498418Y-90031013D03*
X143038418Y-90031013D03*
X145578418Y-90031013D03*
X148118418Y-90031013D03*
X150658418Y-90031013D03*
X153198418Y-90031013D03*
X155738418Y-90031013D03*
X158278418Y-90031013D03*
D16*
X147700000Y-116900000D03*
X145700000Y-116900000D03*
X143700000Y-116900000D03*
X141700000Y-116900000D03*
X139700000Y-116900000D03*
X137700000Y-116900000D03*
D17*
X151200000Y-117100000D03*
X152600000Y-117100000D03*
D18*
X147599999Y-94450000D03*
X146049999Y-94450000D03*
D19*
X158025000Y-98437500D03*
X157375000Y-98437500D03*
X156725000Y-98437500D03*
X156075000Y-98437500D03*
X155425000Y-98437500D03*
X154775000Y-98437500D03*
X154125000Y-98437500D03*
X153475000Y-98437500D03*
X152825000Y-98437500D03*
X152175000Y-98437500D03*
X152175000Y-104162500D03*
X152825000Y-104162500D03*
X153475000Y-104162500D03*
X154125000Y-104162500D03*
X154775000Y-104162500D03*
X155425000Y-104162500D03*
X156075000Y-104162500D03*
X156725000Y-104162500D03*
X157375000Y-104162500D03*
X158025000Y-104162500D03*
D14*
X137980000Y-112800000D03*
D15*
X140520000Y-112800000D03*
X143060000Y-112800000D03*
X145600000Y-112800000D03*
X148140000Y-112800000D03*
X150680000Y-112800000D03*
X153220000Y-112800000D03*
X155760000Y-112800000D03*
X158300000Y-112800000D03*
D20*
X145999999Y-101927500D03*
X147649999Y-101927500D03*
D21*
X146487499Y-107599999D03*
X148062499Y-107599999D03*
D22*
X141624999Y-95847500D03*
X141624999Y-101627500D03*
D23*
X143069999Y-95487500D03*
X143069999Y-96287500D03*
D24*
X143069999Y-97487500D03*
X143069999Y-98487500D03*
X143069999Y-98987500D03*
X143069999Y-99987500D03*
D23*
X143069999Y-101187500D03*
X143069999Y-101987500D03*
X143069999Y-101987500D03*
X143069999Y-101187500D03*
D24*
X143069999Y-100487500D03*
X143069999Y-99487500D03*
X143069999Y-97987500D03*
X143069999Y-96987500D03*
D23*
X143069999Y-96287500D03*
X143069999Y-95487500D03*
D25*
X142154999Y-94417500D03*
D26*
X137974999Y-94417500D03*
D25*
X142154999Y-103057500D03*
D26*
X137974999Y-103057500D03*
D20*
X145999999Y-97427500D03*
X147649999Y-97427500D03*
D27*
X142675000Y-108575000D03*
X138525000Y-108575000D03*
X142675000Y-106425000D03*
X138525000Y-106425000D03*
D28*
X153762498Y-93700000D03*
X153762498Y-95250000D03*
D29*
X157000000Y-93800000D03*
X157000000Y-95200000D03*
D30*
X151587498Y-107600000D03*
X149937498Y-107600000D03*
D20*
X145999999Y-99627500D03*
X147649999Y-99627500D03*
D31*
X151800000Y-95400000D03*
X151800000Y-93500000D03*
X149525000Y-94450000D03*
%LPD*%
M02*
