G04 #@! TF.GenerationSoftware,KiCad,Pcbnew,7.0.7*
G04 #@! TF.CreationDate,2024-04-01T22:47:38-04:00*
G04 #@! TF.ProjectId,sensor_node,73656e73-6f72-45f6-9e6f-64652e6b6963,rev?*
G04 #@! TF.SameCoordinates,Original*
G04 #@! TF.FileFunction,Copper,L1,Top*
G04 #@! TF.FilePolarity,Positive*
%FSLAX46Y46*%
G04 Gerber Fmt 4.6, Leading zero omitted, Abs format (unit mm)*
G04 Created by KiCad (PCBNEW 7.0.7) date 2024-04-01 22:47:38*
%MOMM*%
%LPD*%
G01*
G04 APERTURE LIST*
G04 Aperture macros list*
%AMRoundRect*
0 Rectangle with rounded corners*
0 $1 Rounding radius*
0 $2 $3 $4 $5 $6 $7 $8 $9 X,Y pos of 4 corners*
0 Add a 4 corners polygon primitive as box body*
4,1,4,$2,$3,$4,$5,$6,$7,$8,$9,$2,$3,0*
0 Add four circle primitives for the rounded corners*
1,1,$1+$1,$2,$3*
1,1,$1+$1,$4,$5*
1,1,$1+$1,$6,$7*
1,1,$1+$1,$8,$9*
0 Add four rect primitives between the rounded corners*
20,1,$1+$1,$2,$3,$4,$5,0*
20,1,$1+$1,$4,$5,$6,$7,0*
20,1,$1+$1,$6,$7,$8,$9,0*
20,1,$1+$1,$8,$9,$2,$3,0*%
G04 Aperture macros list end*
G04 #@! TA.AperFunction,SMDPad,CuDef*
%ADD10RoundRect,0.500000X-0.500000X-0.500000X0.500000X-0.500000X0.500000X0.500000X-0.500000X0.500000X0*%
G04 #@! TD*
G04 #@! TA.AperFunction,ComponentPad*
%ADD11R,1.700000X1.700000*%
G04 #@! TD*
G04 #@! TA.AperFunction,ComponentPad*
%ADD12O,1.700000X1.700000*%
G04 #@! TD*
G04 #@! TA.AperFunction,SMDPad,CuDef*
%ADD13RoundRect,0.350000X-0.350000X0.650000X-0.350000X-0.650000X0.350000X-0.650000X0.350000X0.650000X0*%
G04 #@! TD*
G04 #@! TA.AperFunction,SMDPad,CuDef*
%ADD14RoundRect,0.225000X0.225000X0.250000X-0.225000X0.250000X-0.225000X-0.250000X0.225000X-0.250000X0*%
G04 #@! TD*
G04 #@! TA.AperFunction,SMDPad,CuDef*
%ADD15RoundRect,0.100000X-0.100000X0.637500X-0.100000X-0.637500X0.100000X-0.637500X0.100000X0.637500X0*%
G04 #@! TD*
G04 #@! TA.AperFunction,SMDPad,CuDef*
%ADD16RoundRect,0.200000X-0.200000X-0.275000X0.200000X-0.275000X0.200000X0.275000X-0.200000X0.275000X0*%
G04 #@! TD*
G04 #@! TA.AperFunction,SMDPad,CuDef*
%ADD17RoundRect,0.218750X-0.218750X-0.256250X0.218750X-0.256250X0.218750X0.256250X-0.218750X0.256250X0*%
G04 #@! TD*
G04 #@! TA.AperFunction,SMDPad,CuDef*
%ADD18R,1.450000X0.600000*%
G04 #@! TD*
G04 #@! TA.AperFunction,SMDPad,CuDef*
%ADD19R,1.450000X0.300000*%
G04 #@! TD*
G04 #@! TA.AperFunction,ComponentPad*
%ADD20O,2.100000X1.000000*%
G04 #@! TD*
G04 #@! TA.AperFunction,ComponentPad*
%ADD21O,1.600000X1.000000*%
G04 #@! TD*
G04 #@! TA.AperFunction,SMDPad,CuDef*
%ADD22R,1.050000X0.650000*%
G04 #@! TD*
G04 #@! TA.AperFunction,SMDPad,CuDef*
%ADD23RoundRect,0.225000X-0.250000X0.225000X-0.250000X-0.225000X0.250000X-0.225000X0.250000X0.225000X0*%
G04 #@! TD*
G04 #@! TA.AperFunction,SMDPad,CuDef*
%ADD24RoundRect,0.250000X-0.500000X0.250000X-0.500000X-0.250000X0.500000X-0.250000X0.500000X0.250000X0*%
G04 #@! TD*
G04 #@! TA.AperFunction,SMDPad,CuDef*
%ADD25RoundRect,0.200000X0.200000X0.275000X-0.200000X0.275000X-0.200000X-0.275000X0.200000X-0.275000X0*%
G04 #@! TD*
G04 #@! TA.AperFunction,SMDPad,CuDef*
%ADD26RoundRect,0.150000X0.512500X0.150000X-0.512500X0.150000X-0.512500X-0.150000X0.512500X-0.150000X0*%
G04 #@! TD*
G04 #@! TA.AperFunction,SMDPad,CuDef*
%ADD27RoundRect,0.250000X-0.250000X-0.500000X0.250000X-0.500000X0.250000X0.500000X-0.250000X0.500000X0*%
G04 #@! TD*
G04 #@! TA.AperFunction,ViaPad*
%ADD28C,0.500000*%
G04 #@! TD*
G04 #@! TA.AperFunction,Conductor*
%ADD29C,0.250000*%
G04 #@! TD*
G04 #@! TA.AperFunction,Conductor*
%ADD30C,0.200000*%
G04 #@! TD*
G04 APERTURE END LIST*
D10*
X156300000Y-117000000D03*
D11*
X137958418Y-90031013D03*
D12*
X140498418Y-90031013D03*
X143038418Y-90031013D03*
X145578418Y-90031013D03*
X148118418Y-90031013D03*
X150658418Y-90031013D03*
X153198418Y-90031013D03*
X155738418Y-90031013D03*
X158278418Y-90031013D03*
D13*
X147700000Y-116900000D03*
X145700000Y-116900000D03*
X143700000Y-116900000D03*
X141700000Y-116900000D03*
X139700000Y-116900000D03*
X137700000Y-116900000D03*
D14*
X147599999Y-94450000D03*
X146049999Y-94450000D03*
D15*
X158025000Y-98437500D03*
X157375000Y-98437500D03*
X156725000Y-98437500D03*
X156075000Y-98437500D03*
X155425000Y-98437500D03*
X154775000Y-98437500D03*
X154125000Y-98437500D03*
X153475000Y-98437500D03*
X152825000Y-98437500D03*
X152175000Y-98437500D03*
X152175000Y-104162500D03*
X152825000Y-104162500D03*
X153475000Y-104162500D03*
X154125000Y-104162500D03*
X154775000Y-104162500D03*
X155425000Y-104162500D03*
X156075000Y-104162500D03*
X156725000Y-104162500D03*
X157375000Y-104162500D03*
X158025000Y-104162500D03*
D11*
X137980000Y-112800000D03*
D12*
X140520000Y-112800000D03*
X143060000Y-112800000D03*
X145600000Y-112800000D03*
X148140000Y-112800000D03*
X150680000Y-112800000D03*
X153220000Y-112800000D03*
X155760000Y-112800000D03*
X158300000Y-112800000D03*
D16*
X145999999Y-101927500D03*
X147649999Y-101927500D03*
D17*
X146487499Y-107599999D03*
X148062499Y-107599999D03*
D18*
X143069999Y-95487500D03*
X143069999Y-96287500D03*
D19*
X143069999Y-97487500D03*
X143069999Y-98487500D03*
X143069999Y-98987500D03*
X143069999Y-99987500D03*
D18*
X143069999Y-101187500D03*
X143069999Y-101987500D03*
X143069999Y-101987500D03*
X143069999Y-101187500D03*
D19*
X143069999Y-100487500D03*
X143069999Y-99487500D03*
X143069999Y-97987500D03*
X143069999Y-96987500D03*
D18*
X143069999Y-96287500D03*
X143069999Y-95487500D03*
D20*
X142154999Y-94417500D03*
D21*
X137974999Y-94417500D03*
D20*
X142154999Y-103057500D03*
D21*
X137974999Y-103057500D03*
D16*
X145999999Y-97427500D03*
X147649999Y-97427500D03*
D22*
X142675000Y-108575000D03*
X138525000Y-108575000D03*
X142675000Y-106425000D03*
X138525000Y-106425000D03*
D23*
X153762498Y-93700000D03*
X153762498Y-95250000D03*
D24*
X157000000Y-93800000D03*
X157000000Y-95200000D03*
D25*
X151587498Y-107600000D03*
X149937498Y-107600000D03*
D16*
X145999999Y-99627500D03*
X147649999Y-99627500D03*
D26*
X151800000Y-95400000D03*
X151800000Y-93500000D03*
X149525000Y-94450000D03*
D27*
X151200000Y-117100000D03*
X152600000Y-117100000D03*
D28*
X148500000Y-115174500D03*
X142300000Y-118325500D03*
X154400000Y-111200000D03*
X153200000Y-105600000D03*
X158800000Y-101800000D03*
X138145406Y-119300000D03*
X152481017Y-96793483D03*
X158800000Y-106100000D03*
X148300000Y-118600000D03*
X159300000Y-110400000D03*
X144700000Y-96300000D03*
X148643767Y-95656233D03*
X149400000Y-96325500D03*
X157356233Y-102856233D03*
X149824500Y-102500000D03*
X155800000Y-101900000D03*
X158300000Y-96100000D03*
X155200000Y-101500000D03*
X157900000Y-102400000D03*
X149374500Y-103900000D03*
X149318132Y-99490841D03*
X156700000Y-96774500D03*
X150500000Y-104600000D03*
X147800000Y-110600000D03*
X157400000Y-96600000D03*
X148693767Y-99806233D03*
X151599499Y-98100000D03*
X148200000Y-106300000D03*
X145600000Y-110800000D03*
X149663767Y-110463767D03*
X155702326Y-95450500D03*
D29*
X146965000Y-115635000D02*
X145700000Y-116900000D01*
X147800000Y-111450000D02*
X146965000Y-112285000D01*
X147800000Y-110600000D02*
X147800000Y-111450000D01*
X146965000Y-112285000D02*
X146965000Y-115635000D01*
X142300000Y-117500000D02*
X141700000Y-116900000D01*
X142300000Y-118325500D02*
X142300000Y-117500000D01*
X151200000Y-117100000D02*
X150425500Y-117100000D01*
X150425500Y-117100000D02*
X148500000Y-115174500D01*
X154400000Y-115100000D02*
X156300000Y-117000000D01*
X154400000Y-111200000D02*
X154400000Y-115100000D01*
X153475000Y-105325000D02*
X153200000Y-105600000D01*
X153475000Y-104162500D02*
X153475000Y-105325000D01*
X153300000Y-106500000D02*
X154125000Y-105675000D01*
X154125000Y-105675000D02*
X154125000Y-104162500D01*
X148400000Y-106500000D02*
X153300000Y-106500000D01*
X148200000Y-106300000D02*
X148400000Y-106500000D01*
X159475000Y-110575000D02*
X159475000Y-116250000D01*
X158800000Y-101800000D02*
X158800000Y-106100000D01*
X159475000Y-116250000D02*
X157125000Y-118600000D01*
X152481017Y-96793483D02*
X152374500Y-96900000D01*
X151799998Y-93500001D02*
X153562499Y-93500000D01*
X159300000Y-110400000D02*
X159475000Y-110575000D01*
X148900000Y-96900000D02*
X147250000Y-95250000D01*
X146507405Y-93500000D02*
X146900000Y-93500000D01*
X146824999Y-94927817D02*
X146824999Y-93575001D01*
X148300000Y-118600000D02*
X148300000Y-117500000D01*
X138545406Y-118900000D02*
X148000000Y-118900000D01*
X147147182Y-95250000D02*
X146824999Y-94927817D01*
X153562499Y-93500000D02*
X153762498Y-93699999D01*
X152481017Y-96793483D02*
X152825000Y-97137466D01*
X152374500Y-96900000D02*
X148900000Y-96900000D01*
X157125000Y-118600000D02*
X148300000Y-118600000D01*
X148300000Y-117500000D02*
X147700000Y-116900000D01*
X138145406Y-119300000D02*
X138545406Y-118900000D01*
X146824999Y-93575001D02*
X146900000Y-93500000D01*
X148000000Y-118900000D02*
X148300000Y-118600000D01*
X146900000Y-93500000D02*
X151800000Y-93500000D01*
X152825000Y-97137466D02*
X152825000Y-98437500D01*
X147250000Y-95250000D02*
X147147182Y-95250000D01*
X143038418Y-90031013D02*
X146507405Y-93500000D01*
X143069999Y-96287500D02*
X142174948Y-96287500D01*
X148643767Y-95493768D02*
X147599999Y-94450000D01*
X144687500Y-96287500D02*
X144700000Y-96300000D01*
X141375000Y-100317501D02*
X142244999Y-101187500D01*
X142174948Y-96287500D02*
X141375000Y-97087448D01*
X142244999Y-101187500D02*
X143069999Y-101187500D01*
X149525000Y-94450000D02*
X147599998Y-94450000D01*
X141375000Y-97087448D02*
X141375000Y-100317501D01*
X143069999Y-96287500D02*
X144687500Y-96287500D01*
X148643767Y-95656233D02*
X148643767Y-95493768D01*
X154775000Y-106625000D02*
X150680000Y-110720000D01*
X150680000Y-110720000D02*
X150680000Y-112800000D01*
X154775000Y-104162500D02*
X154775000Y-106625000D01*
X155425000Y-99126041D02*
X155425000Y-98437500D01*
X150400000Y-99500000D02*
X155051041Y-99500000D01*
X146924999Y-97919962D02*
X147232537Y-98227500D01*
X141519905Y-93592500D02*
X143192500Y-93592500D01*
X147232537Y-98227500D02*
X149127500Y-98227500D01*
X146227500Y-96627500D02*
X146617461Y-96627500D01*
X149127500Y-98227500D02*
X150400000Y-99500000D01*
X137958418Y-90031013D02*
X141519905Y-93592500D01*
X143192500Y-93592500D02*
X146227500Y-96627500D01*
X155051041Y-99500000D02*
X155425000Y-99126041D01*
X146924999Y-96935038D02*
X146924999Y-97919962D01*
X146617461Y-96627500D02*
X146924999Y-96935038D01*
X149525500Y-96200000D02*
X152700000Y-96200000D01*
X153475000Y-96975000D02*
X153475000Y-98437500D01*
X152700000Y-96200000D02*
X153475000Y-96975000D01*
X149400000Y-96325500D02*
X149525500Y-96200000D01*
X157375000Y-102875000D02*
X157356233Y-102856233D01*
X157300000Y-104237500D02*
X157375000Y-104162500D01*
X149824500Y-102500000D02*
X150900000Y-102500000D01*
X157375000Y-104162500D02*
X157375000Y-102875000D01*
X151225000Y-102175000D02*
X155525000Y-102175000D01*
X150900000Y-102500000D02*
X151225000Y-102175000D01*
X155525000Y-102175000D02*
X155800000Y-101900000D01*
X139700000Y-116900000D02*
X141700000Y-116900000D01*
X156138604Y-102625000D02*
X158900000Y-99863604D01*
X158900000Y-99863604D02*
X158900000Y-94136827D01*
X155313173Y-91400000D02*
X153944186Y-90031013D01*
X153944186Y-90031013D02*
X153198418Y-90031013D01*
X152175000Y-102625000D02*
X156138604Y-102625000D01*
X156163173Y-91400000D02*
X155313173Y-91400000D01*
X158900000Y-94136827D02*
X156163173Y-91400000D01*
X152175000Y-104162500D02*
X152175000Y-102625000D01*
X156300000Y-103100000D02*
X153198959Y-103100000D01*
X159500000Y-93792595D02*
X159500000Y-99900000D01*
X155738418Y-90031013D02*
X159500000Y-93792595D01*
X153198959Y-103100000D02*
X152825000Y-103473959D01*
X159500000Y-99900000D02*
X156300000Y-103100000D01*
X152825000Y-103473959D02*
X152825000Y-104162500D01*
X158300000Y-96100000D02*
X158225000Y-96025000D01*
X154775000Y-96925000D02*
X154775000Y-98437500D01*
X155675000Y-96025000D02*
X154775000Y-96925000D01*
X158225000Y-96025000D02*
X155675000Y-96025000D01*
X143069999Y-97487500D02*
X145939999Y-97487500D01*
X145939999Y-97487500D02*
X145999999Y-97427500D01*
D30*
X150998959Y-101800000D02*
X148600000Y-101800000D01*
X143069999Y-98487500D02*
X142094999Y-98487500D01*
X154950000Y-101750000D02*
X151048959Y-101750000D01*
X142094999Y-98487500D02*
X141800000Y-98782499D01*
X148349999Y-101549999D02*
X148349999Y-101445393D01*
X144287500Y-99487500D02*
X143069999Y-99487500D01*
X158025000Y-104162500D02*
X158025000Y-102525000D01*
X141800000Y-99100000D02*
X142187500Y-99487500D01*
X142187500Y-99487500D02*
X143069999Y-99487500D01*
X155200000Y-101500000D02*
X154950000Y-101750000D01*
X148004606Y-101100000D02*
X145900000Y-101100000D01*
X141800000Y-98782499D02*
X141800000Y-99100000D01*
X145900000Y-101100000D02*
X144287500Y-99487500D01*
X151048959Y-101750000D02*
X150998959Y-101800000D01*
X148349999Y-101445393D02*
X148004606Y-101100000D01*
X158025000Y-102525000D02*
X157900000Y-102400000D01*
X148600000Y-101800000D02*
X148349999Y-101549999D01*
X145999999Y-99627500D02*
X147072499Y-100700000D01*
X143069999Y-98987500D02*
X145359999Y-98987500D01*
X156215685Y-100900000D02*
X158025000Y-99090685D01*
X144094999Y-98937500D02*
X144094999Y-98037500D01*
X147072499Y-100700000D02*
X148170291Y-100700000D01*
X145359999Y-98987500D02*
X145999999Y-99627500D01*
X143069999Y-98987500D02*
X144044999Y-98987500D01*
X158025000Y-99090685D02*
X158025000Y-98437500D01*
X148370291Y-100900000D02*
X156215685Y-100900000D01*
X144094999Y-98037500D02*
X144044999Y-97987500D01*
X144044999Y-98987500D02*
X144094999Y-98937500D01*
X144044999Y-97987500D02*
X143069999Y-97987500D01*
X148170291Y-100700000D02*
X148370291Y-100900000D01*
D29*
X144659999Y-100487500D02*
X143069999Y-100487500D01*
X144659999Y-100587500D02*
X145999999Y-101927500D01*
X144659999Y-100487500D02*
X144659999Y-100587500D01*
X156725000Y-111225000D02*
X158300000Y-112800000D01*
X156725000Y-104162500D02*
X156725000Y-111225000D01*
X156075000Y-99126041D02*
X156075000Y-98437500D01*
X137980000Y-112800000D02*
X137980000Y-109120000D01*
X149318132Y-99490841D02*
X149777291Y-99950000D01*
X142988604Y-108575000D02*
X142675000Y-108575000D01*
X138525000Y-108575000D02*
X142675000Y-108575000D01*
X147663604Y-103900000D02*
X142988604Y-108575000D01*
X149777291Y-99950000D02*
X155251041Y-99950000D01*
X155251041Y-99950000D02*
X156075000Y-99126041D01*
X137980000Y-109120000D02*
X138525000Y-108575000D01*
X149374500Y-103900000D02*
X147663604Y-103900000D01*
X144300000Y-107900000D02*
X144300000Y-108900000D01*
X150500000Y-104600000D02*
X147600000Y-104600000D01*
X147600000Y-104600000D02*
X144300000Y-107900000D01*
X144300000Y-108900000D02*
X141695000Y-111505000D01*
X141695000Y-114895000D02*
X143700000Y-116900000D01*
X156700000Y-96774500D02*
X156700000Y-98412500D01*
X156700000Y-98412500D02*
X156725000Y-98437500D01*
X141695000Y-111505000D02*
X141695000Y-114895000D01*
X148693767Y-99806233D02*
X147828732Y-99806233D01*
X147828732Y-99806233D02*
X147649999Y-99627500D01*
X157400000Y-98412500D02*
X157375000Y-98437500D01*
X157375000Y-99139645D02*
X156039645Y-100475000D01*
X157400000Y-96600000D02*
X157400000Y-98412500D01*
X157375000Y-98437500D02*
X157375000Y-99139645D01*
X149362534Y-100475000D02*
X148693767Y-99806233D01*
X156039645Y-100475000D02*
X149362534Y-100475000D01*
X151837500Y-98100000D02*
X152175000Y-98437500D01*
X151599499Y-98100000D02*
X151837500Y-98100000D01*
X145600000Y-112800000D02*
X145600000Y-110800000D01*
X155425000Y-104162500D02*
X155425000Y-107975000D01*
X155425000Y-107975000D02*
X153220000Y-110180000D01*
X153220000Y-110180000D02*
X153220000Y-112800000D01*
X156075000Y-104162500D02*
X156075000Y-109945000D01*
X156075000Y-109945000D02*
X155760000Y-110260000D01*
X155760000Y-110260000D02*
X155760000Y-112800000D01*
X149937499Y-107600000D02*
X148062500Y-107600000D01*
X151587498Y-108540036D02*
X151587498Y-107600000D01*
X149663767Y-110463767D02*
X151587498Y-108540036D01*
X156836827Y-95200000D02*
X157000000Y-95200000D01*
X156586327Y-95450500D02*
X156836827Y-95200000D01*
X155702326Y-95450500D02*
X156586327Y-95450500D01*
G04 #@! TA.AperFunction,Conductor*
G36*
X144510992Y-113148094D02*
G01*
X144564871Y-113192578D01*
X144573182Y-113206811D01*
X144660327Y-113381821D01*
X144783237Y-113544581D01*
X144933958Y-113681980D01*
X144933960Y-113681982D01*
X144977879Y-113709175D01*
X145107363Y-113789348D01*
X145297544Y-113863024D01*
X145498024Y-113900500D01*
X145498026Y-113900500D01*
X145701974Y-113900500D01*
X145701976Y-113900500D01*
X145902456Y-113863024D01*
X146092637Y-113789348D01*
X146266041Y-113681981D01*
X146381962Y-113576304D01*
X146444766Y-113545688D01*
X146514153Y-113553885D01*
X146568093Y-113598295D01*
X146589461Y-113664817D01*
X146589500Y-113667942D01*
X146589500Y-115428100D01*
X146569815Y-115495139D01*
X146553185Y-115515776D01*
X146447412Y-115621550D01*
X146404821Y-115664141D01*
X146343498Y-115697625D01*
X146273806Y-115692641D01*
X146269688Y-115691020D01*
X146206765Y-115664957D01*
X146206760Y-115664955D01*
X146089361Y-115649500D01*
X145310636Y-115649500D01*
X145193246Y-115664953D01*
X145193237Y-115664956D01*
X145047160Y-115725463D01*
X144921718Y-115821718D01*
X144825463Y-115947160D01*
X144814561Y-115973481D01*
X144770720Y-116027884D01*
X144704425Y-116049949D01*
X144636726Y-116032670D01*
X144589116Y-115981532D01*
X144585439Y-115973481D01*
X144574536Y-115947160D01*
X144574536Y-115947159D01*
X144478282Y-115821718D01*
X144352841Y-115725464D01*
X144348198Y-115723541D01*
X144206762Y-115664956D01*
X144206760Y-115664955D01*
X144089361Y-115649500D01*
X143310636Y-115649500D01*
X143193241Y-115664954D01*
X143193235Y-115664956D01*
X143130311Y-115691020D01*
X143060842Y-115698489D01*
X142998363Y-115667213D01*
X142995178Y-115664140D01*
X142106819Y-114775781D01*
X142073334Y-114714458D01*
X142070500Y-114688100D01*
X142070500Y-113993392D01*
X142090185Y-113926353D01*
X142142989Y-113880598D01*
X142212147Y-113870654D01*
X142265624Y-113891817D01*
X142382421Y-113973600D01*
X142596507Y-114073429D01*
X142596516Y-114073433D01*
X142810000Y-114130634D01*
X142810000Y-113412301D01*
X142829685Y-113345262D01*
X142882489Y-113299507D01*
X142951647Y-113289563D01*
X143024237Y-113300000D01*
X143024238Y-113300000D01*
X143095762Y-113300000D01*
X143095763Y-113300000D01*
X143168353Y-113289563D01*
X143237512Y-113299507D01*
X143290315Y-113345262D01*
X143310000Y-113412301D01*
X143310000Y-114130633D01*
X143523483Y-114073433D01*
X143523492Y-114073429D01*
X143737578Y-113973600D01*
X143931082Y-113838105D01*
X144098105Y-113671082D01*
X144233600Y-113477578D01*
X144333429Y-113263492D01*
X144333431Y-113263489D01*
X144342406Y-113229992D01*
X144378770Y-113170331D01*
X144441616Y-113139800D01*
X144510992Y-113148094D01*
G37*
G04 #@! TD.AperFunction*
G04 #@! TA.AperFunction,Conductor*
G36*
X141949410Y-90379107D02*
G01*
X142003289Y-90423591D01*
X142011600Y-90437824D01*
X142098745Y-90612834D01*
X142221655Y-90775594D01*
X142372376Y-90912993D01*
X142372378Y-90912995D01*
X142471559Y-90974405D01*
X142545781Y-91020361D01*
X142735962Y-91094037D01*
X142936442Y-91131513D01*
X142936444Y-91131513D01*
X143140392Y-91131513D01*
X143140394Y-91131513D01*
X143340874Y-91094037D01*
X143430974Y-91059131D01*
X143500592Y-91053269D01*
X143562332Y-91085978D01*
X143563445Y-91087077D01*
X145750658Y-93274290D01*
X145784143Y-93335613D01*
X145779159Y-93405305D01*
X145737287Y-93461238D01*
X145683676Y-93482169D01*
X145684010Y-93483727D01*
X145677395Y-93485142D01*
X145516517Y-93538452D01*
X145516506Y-93538457D01*
X145372270Y-93627424D01*
X145372266Y-93627427D01*
X145252426Y-93747267D01*
X145252423Y-93747271D01*
X145163456Y-93891507D01*
X145163451Y-93891518D01*
X145110143Y-94052393D01*
X145099999Y-94151677D01*
X145099999Y-94200000D01*
X146175999Y-94200000D01*
X146243038Y-94219685D01*
X146288793Y-94272489D01*
X146299999Y-94324000D01*
X146299999Y-95424999D01*
X146323307Y-95424999D01*
X146323321Y-95424998D01*
X146422606Y-95414855D01*
X146583488Y-95361544D01*
X146589225Y-95358006D01*
X146656616Y-95339563D01*
X146723281Y-95360483D01*
X146742006Y-95375861D01*
X146845031Y-95478886D01*
X146861159Y-95498745D01*
X146867098Y-95507836D01*
X146890435Y-95526000D01*
X146895111Y-95529639D01*
X146900873Y-95534728D01*
X146903665Y-95537520D01*
X146922668Y-95551088D01*
X146965993Y-95584809D01*
X146965995Y-95584809D01*
X146972917Y-95588555D01*
X146979980Y-95592008D01*
X146979983Y-95592010D01*
X147032594Y-95607673D01*
X147047648Y-95612841D01*
X147072528Y-95621383D01*
X147119946Y-95650983D01*
X147863680Y-96394717D01*
X147897165Y-96456040D01*
X147899999Y-96482398D01*
X147899999Y-97177500D01*
X148601360Y-97177500D01*
X148601360Y-97181639D01*
X148645136Y-97184730D01*
X148678066Y-97203095D01*
X148709174Y-97227308D01*
X148718813Y-97234811D01*
X148725722Y-97238549D01*
X148732800Y-97242010D01*
X148785405Y-97257670D01*
X148785405Y-97257671D01*
X148837340Y-97275500D01*
X148837342Y-97275500D01*
X148845079Y-97276791D01*
X148852909Y-97277767D01*
X148852911Y-97277768D01*
X148852912Y-97277767D01*
X148852913Y-97277768D01*
X148907755Y-97275500D01*
X151813855Y-97275500D01*
X151880894Y-97295185D01*
X151926649Y-97347989D01*
X151936593Y-97417147D01*
X151907568Y-97480703D01*
X151876638Y-97504497D01*
X151876878Y-97504832D01*
X151868515Y-97510802D01*
X151807247Y-97572071D01*
X151745924Y-97605556D01*
X151684632Y-97603367D01*
X151671462Y-97599500D01*
X151671460Y-97599500D01*
X151527538Y-97599500D01*
X151527535Y-97599500D01*
X151389448Y-97640045D01*
X151268372Y-97717856D01*
X151174122Y-97826626D01*
X151174121Y-97826628D01*
X151114333Y-97957543D01*
X151093852Y-98099999D01*
X151114333Y-98242456D01*
X151115397Y-98244785D01*
X151174122Y-98373373D01*
X151268371Y-98482143D01*
X151389446Y-98559953D01*
X151389449Y-98559954D01*
X151389448Y-98559954D01*
X151527535Y-98600499D01*
X151527537Y-98600500D01*
X151600500Y-98600500D01*
X151667539Y-98620185D01*
X151713294Y-98672989D01*
X151724500Y-98724500D01*
X151724500Y-99000500D01*
X151704815Y-99067539D01*
X151652011Y-99113294D01*
X151600500Y-99124500D01*
X150606899Y-99124500D01*
X150539860Y-99104815D01*
X150519218Y-99088181D01*
X149429649Y-97998611D01*
X149413522Y-97978752D01*
X149407586Y-97969667D01*
X149407583Y-97969663D01*
X149379574Y-97947863D01*
X149373810Y-97942772D01*
X149371015Y-97939977D01*
X149352005Y-97926406D01*
X149308689Y-97892690D01*
X149301774Y-97888948D01*
X149294700Y-97885490D01*
X149242096Y-97869829D01*
X149190158Y-97851999D01*
X149182423Y-97850708D01*
X149174585Y-97849731D01*
X149119744Y-97852000D01*
X148673999Y-97852000D01*
X148606960Y-97832315D01*
X148561205Y-97779511D01*
X148549999Y-97728000D01*
X148549999Y-97677500D01*
X147523999Y-97677500D01*
X147456960Y-97657815D01*
X147411205Y-97605011D01*
X147399999Y-97553500D01*
X147399999Y-96452500D01*
X147399998Y-96452499D01*
X147393435Y-96452500D01*
X147393416Y-96452501D01*
X147322896Y-96458908D01*
X147322891Y-96458909D01*
X147160600Y-96509481D01*
X147153758Y-96512561D01*
X147152968Y-96510806D01*
X147095061Y-96526083D01*
X147028592Y-96504551D01*
X147010810Y-96489811D01*
X146919610Y-96398611D01*
X146903483Y-96378752D01*
X146897547Y-96369667D01*
X146897544Y-96369663D01*
X146872738Y-96350356D01*
X146869533Y-96347861D01*
X146863771Y-96342772D01*
X146860976Y-96339977D01*
X146841966Y-96326406D01*
X146798650Y-96292690D01*
X146791735Y-96288948D01*
X146784661Y-96285490D01*
X146732057Y-96269829D01*
X146680119Y-96251999D01*
X146672384Y-96250708D01*
X146664546Y-96249731D01*
X146609705Y-96252000D01*
X146434399Y-96252000D01*
X146367360Y-96232315D01*
X146346718Y-96215681D01*
X145765699Y-95634662D01*
X145732214Y-95573339D01*
X145737198Y-95503647D01*
X145765698Y-95459301D01*
X145799999Y-95424999D01*
X145799999Y-94700000D01*
X145100000Y-94700000D01*
X145087362Y-94712637D01*
X145080315Y-94736639D01*
X145027511Y-94782394D01*
X144958353Y-94792338D01*
X144894797Y-94763313D01*
X144888319Y-94757281D01*
X143494649Y-93363611D01*
X143478522Y-93343752D01*
X143472586Y-93334667D01*
X143472583Y-93334663D01*
X143444574Y-93312863D01*
X143438810Y-93307772D01*
X143436015Y-93304977D01*
X143417005Y-93291406D01*
X143373689Y-93257690D01*
X143366774Y-93253948D01*
X143359700Y-93250490D01*
X143307096Y-93234829D01*
X143255158Y-93216999D01*
X143247423Y-93215708D01*
X143239585Y-93214731D01*
X143184744Y-93217000D01*
X141726804Y-93217000D01*
X141659765Y-93197315D01*
X141639123Y-93180681D01*
X139990543Y-91532100D01*
X139957058Y-91470777D01*
X139962042Y-91401085D01*
X140003914Y-91345152D01*
X140069378Y-91320735D01*
X140110317Y-91324644D01*
X140248418Y-91361647D01*
X140248418Y-90643314D01*
X140268103Y-90576275D01*
X140320907Y-90530520D01*
X140390065Y-90520576D01*
X140462655Y-90531013D01*
X140462656Y-90531013D01*
X140534180Y-90531013D01*
X140534181Y-90531013D01*
X140606771Y-90520576D01*
X140675930Y-90530520D01*
X140728733Y-90576275D01*
X140748418Y-90643314D01*
X140748418Y-91361646D01*
X140961901Y-91304446D01*
X140961910Y-91304442D01*
X141175996Y-91204613D01*
X141369500Y-91069118D01*
X141536523Y-90902095D01*
X141672018Y-90708591D01*
X141771847Y-90494505D01*
X141771849Y-90494502D01*
X141780824Y-90461005D01*
X141817188Y-90401344D01*
X141880034Y-90370813D01*
X141949410Y-90379107D01*
G37*
G04 #@! TD.AperFunction*
G04 #@! TA.AperFunction,Conductor*
G36*
X143263038Y-94667185D02*
G01*
X143308793Y-94719989D01*
X143319999Y-94771500D01*
X143319999Y-95237500D01*
X144255101Y-95237500D01*
X144322140Y-95257185D01*
X144342782Y-95273819D01*
X144666112Y-95597149D01*
X144699597Y-95658472D01*
X144694613Y-95728164D01*
X144652741Y-95784097D01*
X144613366Y-95803807D01*
X144489947Y-95840046D01*
X144486036Y-95842560D01*
X144418996Y-95862243D01*
X144351957Y-95842557D01*
X144306203Y-95789752D01*
X144294999Y-95738243D01*
X144294999Y-95737500D01*
X143827797Y-95737500D01*
X143821717Y-95737201D01*
X143819675Y-95737000D01*
X143819673Y-95737000D01*
X142320325Y-95737000D01*
X142320323Y-95737000D01*
X142318281Y-95737201D01*
X142312201Y-95737500D01*
X142285206Y-95737500D01*
X142218167Y-95717815D01*
X142172412Y-95665011D01*
X142170645Y-95660952D01*
X142127699Y-95557271D01*
X142127696Y-95557265D01*
X142067106Y-95478304D01*
X142035450Y-95437049D01*
X142035448Y-95437048D01*
X142035402Y-95436987D01*
X142010207Y-95371818D01*
X142024245Y-95303373D01*
X142073059Y-95253383D01*
X142133777Y-95237500D01*
X142819999Y-95237500D01*
X142819999Y-94771500D01*
X142839684Y-94704461D01*
X142892488Y-94658706D01*
X142943999Y-94647500D01*
X143195999Y-94647500D01*
X143263038Y-94667185D01*
G37*
G04 #@! TD.AperFunction*
G04 #@! TA.AperFunction,Conductor*
G36*
X160280956Y-88120185D02*
G01*
X160326711Y-88172989D01*
X160337917Y-88224500D01*
X160337918Y-96157543D01*
X160337918Y-112091527D01*
X160337919Y-119954176D01*
X160318234Y-120021215D01*
X160265430Y-120066970D01*
X160213919Y-120078176D01*
X136024000Y-120078176D01*
X135956961Y-120058491D01*
X135911206Y-120005687D01*
X135900000Y-119954176D01*
X135900000Y-118178449D01*
X136775104Y-118178449D01*
X136889519Y-118270418D01*
X136889518Y-118270418D01*
X137055150Y-118352564D01*
X137234568Y-118397184D01*
X137276086Y-118400000D01*
X138123911Y-118399999D01*
X138123912Y-118399999D01*
X138165423Y-118397185D01*
X138165433Y-118397184D01*
X138195550Y-118389694D01*
X138265358Y-118392616D01*
X138322505Y-118432816D01*
X138348846Y-118497531D01*
X138336018Y-118566213D01*
X138316707Y-118594011D01*
X138298818Y-118613442D01*
X138274409Y-118639958D01*
X138204827Y-118709540D01*
X138151006Y-118763361D01*
X138089683Y-118796845D01*
X138080977Y-118798416D01*
X138073446Y-118799499D01*
X137935355Y-118840045D01*
X137814279Y-118917856D01*
X137720029Y-119026626D01*
X137720028Y-119026628D01*
X137660240Y-119157543D01*
X137639759Y-119300000D01*
X137660240Y-119442456D01*
X137660242Y-119442460D01*
X137720029Y-119573373D01*
X137814278Y-119682143D01*
X137935353Y-119759953D01*
X137935356Y-119759954D01*
X137935355Y-119759954D01*
X138073442Y-119800499D01*
X138073444Y-119800500D01*
X138073445Y-119800500D01*
X138217368Y-119800500D01*
X138217368Y-119800499D01*
X138355459Y-119759953D01*
X138476534Y-119682143D01*
X138570783Y-119573373D01*
X138630571Y-119442457D01*
X138639283Y-119381854D01*
X138668308Y-119318298D01*
X138727086Y-119280523D01*
X138762022Y-119275500D01*
X147948196Y-119275500D01*
X147973641Y-119278139D01*
X147977440Y-119278935D01*
X147984268Y-119280367D01*
X148005225Y-119277754D01*
X148019492Y-119275977D01*
X148027168Y-119275500D01*
X148031112Y-119275500D01*
X148031114Y-119275500D01*
X148031116Y-119275499D01*
X148031122Y-119275499D01*
X148046487Y-119272934D01*
X148054140Y-119271657D01*
X148108626Y-119264866D01*
X148108627Y-119264865D01*
X148108629Y-119264865D01*
X148116141Y-119262628D01*
X148123606Y-119260066D01*
X148123606Y-119260065D01*
X148123610Y-119260065D01*
X148171877Y-119233944D01*
X148221211Y-119209826D01*
X148221213Y-119209823D01*
X148227594Y-119205268D01*
X148233818Y-119200423D01*
X148233826Y-119200419D01*
X148271008Y-119160028D01*
X148294395Y-119136640D01*
X148355717Y-119103154D01*
X148364436Y-119101581D01*
X148371954Y-119100500D01*
X148371961Y-119100500D01*
X148510053Y-119059953D01*
X148610834Y-118995184D01*
X148677874Y-118975500D01*
X157073196Y-118975500D01*
X157098641Y-118978139D01*
X157102440Y-118978935D01*
X157109268Y-118980367D01*
X157130225Y-118977754D01*
X157144492Y-118975977D01*
X157152168Y-118975500D01*
X157156112Y-118975500D01*
X157156114Y-118975500D01*
X157156116Y-118975499D01*
X157156122Y-118975499D01*
X157171487Y-118972934D01*
X157179140Y-118971657D01*
X157233626Y-118964866D01*
X157233627Y-118964865D01*
X157233629Y-118964865D01*
X157241141Y-118962628D01*
X157248606Y-118960066D01*
X157248606Y-118960065D01*
X157248610Y-118960065D01*
X157296877Y-118933944D01*
X157346211Y-118909826D01*
X157346213Y-118909823D01*
X157352594Y-118905268D01*
X157358819Y-118900422D01*
X157358826Y-118900419D01*
X157396007Y-118860029D01*
X159703892Y-116552144D01*
X159723741Y-116536025D01*
X159732836Y-116530084D01*
X159754644Y-116502062D01*
X159759721Y-116496316D01*
X159762520Y-116493518D01*
X159776094Y-116474504D01*
X159779669Y-116469911D01*
X159809807Y-116431192D01*
X159813547Y-116424280D01*
X159817003Y-116417207D01*
X159817010Y-116417199D01*
X159832670Y-116364596D01*
X159850500Y-116312660D01*
X159850500Y-116312655D01*
X159851790Y-116304924D01*
X159852768Y-116297085D01*
X159850500Y-116242244D01*
X159850500Y-110626803D01*
X159853139Y-110601358D01*
X159853785Y-110598274D01*
X159855367Y-110590731D01*
X159853287Y-110574051D01*
X159850977Y-110555508D01*
X159850500Y-110547832D01*
X159850500Y-110543889D01*
X159850499Y-110543883D01*
X159850261Y-110542457D01*
X159846655Y-110520847D01*
X159839865Y-110466374D01*
X159839865Y-110466373D01*
X159837617Y-110458827D01*
X159835065Y-110451390D01*
X159815598Y-110415418D01*
X159801915Y-110374047D01*
X159797027Y-110340047D01*
X159785165Y-110257543D01*
X159767040Y-110217856D01*
X159725379Y-110126630D01*
X159725376Y-110126626D01*
X159717328Y-110117338D01*
X159631128Y-110017857D01*
X159510053Y-109940047D01*
X159510051Y-109940046D01*
X159510049Y-109940045D01*
X159510050Y-109940045D01*
X159371963Y-109899500D01*
X159371961Y-109899500D01*
X159228039Y-109899500D01*
X159228036Y-109899500D01*
X159089949Y-109940045D01*
X158968873Y-110017856D01*
X158874623Y-110126626D01*
X158874622Y-110126628D01*
X158814834Y-110257543D01*
X158794353Y-110400000D01*
X158814834Y-110542456D01*
X158870933Y-110665293D01*
X158874623Y-110673373D01*
X158968872Y-110782143D01*
X159042540Y-110829486D01*
X159088294Y-110882289D01*
X159099500Y-110933801D01*
X159099500Y-111778030D01*
X159079815Y-111845069D01*
X159027011Y-111890824D01*
X158957853Y-111900768D01*
X158910223Y-111883457D01*
X158792642Y-111810655D01*
X158792639Y-111810653D01*
X158792637Y-111810652D01*
X158792636Y-111810651D01*
X158792635Y-111810651D01*
X158666777Y-111761894D01*
X158602456Y-111736976D01*
X158401976Y-111699500D01*
X158198024Y-111699500D01*
X158120279Y-111714033D01*
X157997542Y-111736976D01*
X157997534Y-111736979D01*
X157907444Y-111771879D01*
X157837821Y-111777740D01*
X157776081Y-111745030D01*
X157774971Y-111743933D01*
X157136819Y-111105780D01*
X157103334Y-111044457D01*
X157100500Y-111018099D01*
X157100500Y-105273297D01*
X157120185Y-105206258D01*
X157172989Y-105160503D01*
X157237189Y-105151271D01*
X157237269Y-105150176D01*
X157241738Y-105150500D01*
X157241740Y-105150500D01*
X157508261Y-105150500D01*
X157535350Y-105146553D01*
X157576393Y-105140573D01*
X157645541Y-105106768D01*
X157714413Y-105095010D01*
X157754458Y-105106768D01*
X157823607Y-105140573D01*
X157857673Y-105145536D01*
X157891739Y-105150500D01*
X157891740Y-105150500D01*
X158158261Y-105150500D01*
X158185350Y-105146553D01*
X158226393Y-105140573D01*
X158246040Y-105130967D01*
X158314913Y-105119209D01*
X158379210Y-105146553D01*
X158418517Y-105204317D01*
X158424500Y-105242369D01*
X158424500Y-105722815D01*
X158404815Y-105789854D01*
X158394215Y-105804016D01*
X158374623Y-105826627D01*
X158374622Y-105826628D01*
X158314834Y-105957543D01*
X158294353Y-106100000D01*
X158314834Y-106242456D01*
X158341114Y-106299999D01*
X158374623Y-106373373D01*
X158468872Y-106482143D01*
X158589947Y-106559953D01*
X158589950Y-106559954D01*
X158589949Y-106559954D01*
X158728036Y-106600499D01*
X158728038Y-106600500D01*
X158728039Y-106600500D01*
X158871962Y-106600500D01*
X158871962Y-106600499D01*
X159010053Y-106559953D01*
X159131128Y-106482143D01*
X159225377Y-106373373D01*
X159285165Y-106242457D01*
X159305647Y-106100000D01*
X159285165Y-105957543D01*
X159225377Y-105826627D01*
X159205785Y-105804016D01*
X159176762Y-105740460D01*
X159175500Y-105722815D01*
X159175500Y-102177183D01*
X159195185Y-102110144D01*
X159205783Y-102095985D01*
X159225377Y-102073373D01*
X159285165Y-101942457D01*
X159305647Y-101800000D01*
X159285165Y-101657543D01*
X159225377Y-101526627D01*
X159131128Y-101417857D01*
X159095316Y-101394842D01*
X159010051Y-101340045D01*
X158886632Y-101303807D01*
X158827854Y-101266033D01*
X158798829Y-101202477D01*
X158808773Y-101133319D01*
X158833883Y-101097152D01*
X159728889Y-100202146D01*
X159748746Y-100186022D01*
X159757836Y-100180084D01*
X159779638Y-100152071D01*
X159784733Y-100146303D01*
X159787519Y-100143518D01*
X159787528Y-100143506D01*
X159801086Y-100124516D01*
X159834807Y-100081192D01*
X159838547Y-100074278D01*
X159842006Y-100067203D01*
X159842010Y-100067199D01*
X159849196Y-100043061D01*
X159857672Y-100014593D01*
X159875500Y-99962661D01*
X159876791Y-99954924D01*
X159877768Y-99947086D01*
X159875500Y-99892244D01*
X159875500Y-93844399D01*
X159878139Y-93818954D01*
X159878785Y-93815870D01*
X159880367Y-93808327D01*
X159877086Y-93782003D01*
X159875977Y-93773104D01*
X159875500Y-93765428D01*
X159875500Y-93761485D01*
X159875499Y-93761477D01*
X159874891Y-93757836D01*
X159871655Y-93738441D01*
X159864865Y-93683969D01*
X159864865Y-93683968D01*
X159862617Y-93676422D01*
X159860066Y-93668988D01*
X159860065Y-93668986D01*
X159860065Y-93668985D01*
X159833939Y-93620709D01*
X159809826Y-93571384D01*
X159809823Y-93571381D01*
X159809823Y-93571380D01*
X159805271Y-93565004D01*
X159800415Y-93558764D01*
X159760029Y-93521587D01*
X156798128Y-90559685D01*
X156764643Y-90498362D01*
X156769085Y-90436247D01*
X156767431Y-90435777D01*
X156785915Y-90370813D01*
X156824815Y-90234096D01*
X156843633Y-90031013D01*
X157173203Y-90031013D01*
X157192020Y-90234095D01*
X157247835Y-90430260D01*
X157247840Y-90430273D01*
X157338745Y-90612834D01*
X157461655Y-90775594D01*
X157612376Y-90912993D01*
X157612378Y-90912995D01*
X157711559Y-90974405D01*
X157785781Y-91020361D01*
X157975962Y-91094037D01*
X158176442Y-91131513D01*
X158176444Y-91131513D01*
X158380392Y-91131513D01*
X158380394Y-91131513D01*
X158580874Y-91094037D01*
X158771055Y-91020361D01*
X158944459Y-90912994D01*
X159095182Y-90775592D01*
X159218091Y-90612834D01*
X159309000Y-90430263D01*
X159364815Y-90234096D01*
X159383633Y-90031013D01*
X159364815Y-89827930D01*
X159309000Y-89631763D01*
X159293692Y-89601021D01*
X159237578Y-89488327D01*
X159218091Y-89449192D01*
X159095182Y-89286434D01*
X159095180Y-89286431D01*
X158944459Y-89149032D01*
X158944457Y-89149030D01*
X158771060Y-89041668D01*
X158771053Y-89041664D01*
X158645187Y-88992904D01*
X158580874Y-88967989D01*
X158380394Y-88930513D01*
X158176442Y-88930513D01*
X157975962Y-88967989D01*
X157975959Y-88967989D01*
X157975959Y-88967990D01*
X157785782Y-89041664D01*
X157785775Y-89041668D01*
X157612378Y-89149030D01*
X157612376Y-89149032D01*
X157461655Y-89286431D01*
X157338745Y-89449191D01*
X157247840Y-89631752D01*
X157247835Y-89631765D01*
X157192020Y-89827930D01*
X157173203Y-90031012D01*
X157173203Y-90031013D01*
X156843633Y-90031013D01*
X156824815Y-89827930D01*
X156769000Y-89631763D01*
X156753692Y-89601021D01*
X156697578Y-89488327D01*
X156678091Y-89449192D01*
X156555182Y-89286434D01*
X156555180Y-89286431D01*
X156404459Y-89149032D01*
X156404457Y-89149030D01*
X156231060Y-89041668D01*
X156231053Y-89041664D01*
X156105187Y-88992904D01*
X156040874Y-88967989D01*
X155840394Y-88930513D01*
X155636442Y-88930513D01*
X155435962Y-88967989D01*
X155435959Y-88967989D01*
X155435959Y-88967990D01*
X155245782Y-89041664D01*
X155245775Y-89041668D01*
X155072378Y-89149030D01*
X155072376Y-89149032D01*
X154921655Y-89286431D01*
X154798745Y-89449191D01*
X154707840Y-89631752D01*
X154707835Y-89631765D01*
X154652020Y-89827930D01*
X154644177Y-89912575D01*
X154618390Y-89977512D01*
X154561590Y-90018199D01*
X154491809Y-90021719D01*
X154433025Y-89988814D01*
X154312626Y-89868415D01*
X154281042Y-89814669D01*
X154229000Y-89631763D01*
X154213692Y-89601021D01*
X154157578Y-89488327D01*
X154138091Y-89449192D01*
X154015182Y-89286434D01*
X154015180Y-89286431D01*
X153864459Y-89149032D01*
X153864457Y-89149030D01*
X153691060Y-89041668D01*
X153691053Y-89041664D01*
X153565187Y-88992904D01*
X153500874Y-88967989D01*
X153300394Y-88930513D01*
X153096442Y-88930513D01*
X152895962Y-88967989D01*
X152895959Y-88967989D01*
X152895959Y-88967990D01*
X152705782Y-89041664D01*
X152705775Y-89041668D01*
X152532378Y-89149030D01*
X152532376Y-89149032D01*
X152381655Y-89286431D01*
X152258745Y-89449191D01*
X152167840Y-89631752D01*
X152167835Y-89631765D01*
X152112020Y-89827930D01*
X152093203Y-90031012D01*
X152093203Y-90031013D01*
X152112020Y-90234095D01*
X152167835Y-90430260D01*
X152167840Y-90430273D01*
X152258745Y-90612834D01*
X152381655Y-90775594D01*
X152532376Y-90912993D01*
X152532378Y-90912995D01*
X152631559Y-90974405D01*
X152705781Y-91020361D01*
X152895962Y-91094037D01*
X153096442Y-91131513D01*
X153096444Y-91131513D01*
X153300392Y-91131513D01*
X153300394Y-91131513D01*
X153500874Y-91094037D01*
X153691055Y-91020361D01*
X153864459Y-90912994D01*
X154002252Y-90787378D01*
X154065056Y-90756762D01*
X154134443Y-90764959D01*
X154173470Y-90791334D01*
X154686577Y-91304442D01*
X155011023Y-91628888D01*
X155027148Y-91648744D01*
X155033086Y-91657832D01*
X155033089Y-91657836D01*
X155061098Y-91679636D01*
X155066860Y-91684725D01*
X155069655Y-91687520D01*
X155088668Y-91701094D01*
X155131984Y-91734809D01*
X155131991Y-91734811D01*
X155138893Y-91738547D01*
X155145969Y-91742006D01*
X155145974Y-91742010D01*
X155198576Y-91757669D01*
X155198576Y-91757670D01*
X155250511Y-91775500D01*
X155258245Y-91776790D01*
X155266083Y-91777767D01*
X155266085Y-91777768D01*
X155266086Y-91777767D01*
X155266087Y-91777768D01*
X155320929Y-91775500D01*
X155956274Y-91775500D01*
X156023313Y-91795185D01*
X156043955Y-91811819D01*
X156820455Y-92588319D01*
X156853940Y-92649642D01*
X156848956Y-92719334D01*
X156807084Y-92775267D01*
X156741620Y-92799684D01*
X156732774Y-92800000D01*
X156450029Y-92800000D01*
X156450012Y-92800001D01*
X156362495Y-92808942D01*
X156362494Y-92808942D01*
X157000000Y-93446447D01*
X157845512Y-94291959D01*
X157878997Y-94353282D01*
X157874013Y-94422974D01*
X157832141Y-94478907D01*
X157766677Y-94503324D01*
X157714499Y-94495822D01*
X157607485Y-94455909D01*
X157607483Y-94455908D01*
X157547883Y-94449501D01*
X157547881Y-94449500D01*
X157547873Y-94449500D01*
X157547865Y-94449500D01*
X157347309Y-94449500D01*
X157280270Y-94429815D01*
X157259627Y-94413181D01*
X157000000Y-94153552D01*
X156740370Y-94413181D01*
X156679047Y-94446666D01*
X156652690Y-94449500D01*
X156452130Y-94449500D01*
X156452123Y-94449501D01*
X156392514Y-94455909D01*
X156285500Y-94495822D01*
X156215808Y-94500806D01*
X156154486Y-94467320D01*
X156121001Y-94405996D01*
X156125987Y-94336305D01*
X156154487Y-94291959D01*
X156646447Y-93800000D01*
X156646447Y-93799999D01*
X155917892Y-93071444D01*
X155907685Y-93081653D01*
X155907683Y-93081655D01*
X155815643Y-93230875D01*
X155815641Y-93230880D01*
X155760494Y-93397302D01*
X155760493Y-93397309D01*
X155750000Y-93500013D01*
X155750000Y-94099971D01*
X155750001Y-94099987D01*
X155760494Y-94202697D01*
X155815641Y-94369119D01*
X155815643Y-94369124D01*
X155907684Y-94518345D01*
X155917893Y-94528554D01*
X155945017Y-94528554D01*
X156012056Y-94548239D01*
X156057811Y-94601043D01*
X156067755Y-94670201D01*
X156058187Y-94698943D01*
X156059303Y-94699359D01*
X156005908Y-94842516D01*
X156003479Y-94865116D01*
X155976741Y-94929667D01*
X155919348Y-94969515D01*
X155849523Y-94972008D01*
X155845256Y-94970837D01*
X155774290Y-94950000D01*
X155774287Y-94950000D01*
X155630365Y-94950000D01*
X155630362Y-94950000D01*
X155492275Y-94990545D01*
X155371199Y-95068356D01*
X155276949Y-95177126D01*
X155276948Y-95177128D01*
X155217160Y-95308043D01*
X155196679Y-95450500D01*
X155217160Y-95592956D01*
X155264317Y-95696214D01*
X155276949Y-95723873D01*
X155279404Y-95726706D01*
X155280961Y-95730115D01*
X155281744Y-95731334D01*
X155281568Y-95731446D01*
X155308428Y-95790262D01*
X155298484Y-95859420D01*
X155273371Y-95895589D01*
X154546108Y-96622852D01*
X154526254Y-96638976D01*
X154517165Y-96644914D01*
X154517164Y-96644915D01*
X154495363Y-96672923D01*
X154490286Y-96678674D01*
X154487484Y-96681477D01*
X154487474Y-96681488D01*
X154473905Y-96700495D01*
X154440192Y-96743808D01*
X154436447Y-96750729D01*
X154432988Y-96757804D01*
X154417329Y-96810403D01*
X154399500Y-96862338D01*
X154398206Y-96870092D01*
X154397231Y-96877911D01*
X154399500Y-96932755D01*
X154399500Y-97086469D01*
X154379815Y-97153508D01*
X154357259Y-97179697D01*
X154325000Y-97207987D01*
X154325000Y-97757601D01*
X154324838Y-97762086D01*
X154324500Y-97766742D01*
X154324500Y-98513500D01*
X154304815Y-98580539D01*
X154252011Y-98626294D01*
X154200500Y-98637500D01*
X154049500Y-98637500D01*
X153982461Y-98617815D01*
X153936706Y-98565011D01*
X153925500Y-98513500D01*
X153925500Y-97766742D01*
X153925162Y-97762086D01*
X153925000Y-97757601D01*
X153925000Y-97207987D01*
X153892741Y-97179697D01*
X153855317Y-97120695D01*
X153850500Y-97086469D01*
X153850500Y-97026803D01*
X153853139Y-97001358D01*
X153853177Y-97001175D01*
X153855367Y-96990732D01*
X153853138Y-96972851D01*
X153850977Y-96955507D01*
X153850500Y-96947831D01*
X153850500Y-96943890D01*
X153850499Y-96943881D01*
X153849787Y-96939617D01*
X153846657Y-96920857D01*
X153839866Y-96866375D01*
X153839865Y-96866373D01*
X153837621Y-96858837D01*
X153835066Y-96851392D01*
X153823678Y-96830350D01*
X153808941Y-96803118D01*
X153784826Y-96753789D01*
X153784823Y-96753786D01*
X153784823Y-96753785D01*
X153780280Y-96747421D01*
X153775420Y-96741176D01*
X153775419Y-96741174D01*
X153735029Y-96703992D01*
X153590269Y-96559232D01*
X153442717Y-96411679D01*
X153409232Y-96350356D01*
X153414216Y-96280664D01*
X153456088Y-96224731D01*
X153506609Y-96205887D01*
X153512498Y-96199998D01*
X153512498Y-95500000D01*
X154012498Y-95500000D01*
X154012498Y-96199999D01*
X154060806Y-96199999D01*
X154060820Y-96199998D01*
X154160105Y-96189855D01*
X154320979Y-96136547D01*
X154320990Y-96136542D01*
X154465226Y-96047575D01*
X154465230Y-96047572D01*
X154585070Y-95927732D01*
X154585073Y-95927728D01*
X154674040Y-95783492D01*
X154674045Y-95783481D01*
X154727353Y-95622606D01*
X154737497Y-95523322D01*
X154737498Y-95523309D01*
X154737498Y-95500000D01*
X154012498Y-95500000D01*
X153512498Y-95500000D01*
X153002500Y-95500000D01*
X153002500Y-95526000D01*
X152982815Y-95593039D01*
X152930011Y-95638794D01*
X152878500Y-95650000D01*
X150640205Y-95650000D01*
X150640204Y-95650001D01*
X150640399Y-95652488D01*
X150640400Y-95652494D01*
X150644297Y-95665905D01*
X150644098Y-95735774D01*
X150606156Y-95794444D01*
X150542518Y-95823288D01*
X150525221Y-95824500D01*
X149577303Y-95824500D01*
X149551858Y-95821861D01*
X149541232Y-95819633D01*
X149541229Y-95819633D01*
X149506007Y-95824023D01*
X149498331Y-95824500D01*
X149494383Y-95824500D01*
X149491929Y-95824703D01*
X149480829Y-95824373D01*
X149480829Y-95825000D01*
X149328038Y-95825000D01*
X149301335Y-95832840D01*
X149231465Y-95832838D01*
X149172688Y-95795063D01*
X149143665Y-95731506D01*
X149143665Y-95696218D01*
X149149414Y-95656233D01*
X149128932Y-95513776D01*
X149069144Y-95382860D01*
X148974895Y-95274090D01*
X148971643Y-95272000D01*
X148933118Y-95247241D01*
X148916177Y-95234158D01*
X148903796Y-95222760D01*
X148893216Y-95212180D01*
X148859731Y-95150857D01*
X148859792Y-95149998D01*
X150640204Y-95149998D01*
X150640205Y-95150000D01*
X151550000Y-95150000D01*
X151550000Y-94600000D01*
X151221856Y-94600000D01*
X151185010Y-94602899D01*
X151185004Y-94602900D01*
X151027306Y-94648716D01*
X151027303Y-94648717D01*
X150885947Y-94732314D01*
X150885938Y-94732321D01*
X150769821Y-94848438D01*
X150769814Y-94848447D01*
X150686218Y-94989801D01*
X150640399Y-95147513D01*
X150640204Y-95149998D01*
X148859792Y-95149998D01*
X148864715Y-95081165D01*
X148906587Y-95025232D01*
X148972051Y-95000815D01*
X148980897Y-95000499D01*
X148980975Y-95000499D01*
X148980981Y-95000500D01*
X150069018Y-95000499D01*
X150162804Y-94985646D01*
X150275842Y-94928050D01*
X150365550Y-94838342D01*
X150423146Y-94725304D01*
X150423146Y-94725302D01*
X150423147Y-94725301D01*
X150437999Y-94631524D01*
X150438000Y-94631519D01*
X150437999Y-94268482D01*
X150423146Y-94174696D01*
X150365550Y-94061658D01*
X150365548Y-94061656D01*
X150362562Y-94055795D01*
X150349666Y-93987126D01*
X150375942Y-93922385D01*
X150433049Y-93882128D01*
X150473047Y-93875500D01*
X150895246Y-93875500D01*
X150962285Y-93895185D01*
X150982922Y-93911814D01*
X151049158Y-93978050D01*
X151145451Y-94027114D01*
X151162198Y-94035647D01*
X151255975Y-94050499D01*
X151255981Y-94050500D01*
X152344018Y-94050499D01*
X152437804Y-94035646D01*
X152550842Y-93978050D01*
X152617074Y-93911817D01*
X152678395Y-93878334D01*
X152704754Y-93875500D01*
X152915403Y-93875500D01*
X152982442Y-93895185D01*
X153028197Y-93947989D01*
X153038693Y-93986247D01*
X153043086Y-94027115D01*
X153055553Y-94060539D01*
X153089546Y-94151677D01*
X153090871Y-94155228D01*
X153151936Y-94236802D01*
X153176353Y-94302266D01*
X153161501Y-94370539D01*
X153117768Y-94416649D01*
X153059768Y-94452424D01*
X152939924Y-94572268D01*
X152871116Y-94683823D01*
X152819168Y-94730547D01*
X152750205Y-94741768D01*
X152702457Y-94725457D01*
X152572696Y-94648717D01*
X152572693Y-94648716D01*
X152414995Y-94602900D01*
X152414989Y-94602899D01*
X152378144Y-94600000D01*
X152050000Y-94600000D01*
X152050000Y-95150000D01*
X152747498Y-95150000D01*
X152747498Y-95124000D01*
X152767183Y-95056961D01*
X152819987Y-95011206D01*
X152871498Y-95000000D01*
X154737497Y-95000000D01*
X154737497Y-94976692D01*
X154737496Y-94976677D01*
X154727353Y-94877392D01*
X154674045Y-94716518D01*
X154674040Y-94716507D01*
X154585073Y-94572271D01*
X154585070Y-94572267D01*
X154465230Y-94452427D01*
X154465226Y-94452424D01*
X154407228Y-94416650D01*
X154360503Y-94364702D01*
X154349282Y-94295739D01*
X154373056Y-94236805D01*
X154434126Y-94155226D01*
X154481910Y-94027114D01*
X154486209Y-93987126D01*
X154487997Y-93970501D01*
X154487997Y-93970494D01*
X154487998Y-93970485D01*
X154487997Y-93429516D01*
X154481910Y-93372886D01*
X154471043Y-93343752D01*
X154459522Y-93312863D01*
X154434126Y-93244774D01*
X154352185Y-93135313D01*
X154242727Y-93053374D01*
X154242726Y-93053373D01*
X154242724Y-93053372D01*
X154114612Y-93005588D01*
X154114610Y-93005587D01*
X154114608Y-93005587D01*
X154057991Y-92999500D01*
X153467016Y-92999500D01*
X153467007Y-92999501D01*
X153410383Y-93005587D01*
X153292489Y-93049560D01*
X153282272Y-93053372D01*
X153282269Y-93053373D01*
X153282269Y-93053374D01*
X153220293Y-93099768D01*
X153154829Y-93124184D01*
X153145984Y-93124500D01*
X152704754Y-93124500D01*
X152637715Y-93104815D01*
X152617077Y-93088185D01*
X152550842Y-93021950D01*
X152493202Y-92992580D01*
X152437801Y-92964352D01*
X152344024Y-92949500D01*
X151255982Y-92949500D01*
X151175019Y-92962323D01*
X151162196Y-92964354D01*
X151049158Y-93021950D01*
X151049157Y-93021951D01*
X151049156Y-93021951D01*
X151017737Y-93053371D01*
X150982925Y-93088182D01*
X150921605Y-93121666D01*
X150895246Y-93124500D01*
X146951804Y-93124500D01*
X146926357Y-93121861D01*
X146923713Y-93121306D01*
X146915729Y-93119632D01*
X146880509Y-93124023D01*
X146872832Y-93124500D01*
X146714305Y-93124500D01*
X146647266Y-93104815D01*
X146626624Y-93088181D01*
X144098128Y-90559685D01*
X144064643Y-90498362D01*
X144069085Y-90436247D01*
X144067431Y-90435777D01*
X144085915Y-90370813D01*
X144124815Y-90234096D01*
X144143633Y-90031013D01*
X144473203Y-90031013D01*
X144492020Y-90234095D01*
X144547835Y-90430260D01*
X144547840Y-90430273D01*
X144638745Y-90612834D01*
X144761655Y-90775594D01*
X144912376Y-90912993D01*
X144912378Y-90912995D01*
X145011559Y-90974405D01*
X145085781Y-91020361D01*
X145275962Y-91094037D01*
X145476442Y-91131513D01*
X145476444Y-91131513D01*
X145680392Y-91131513D01*
X145680394Y-91131513D01*
X145880874Y-91094037D01*
X146071055Y-91020361D01*
X146244459Y-90912994D01*
X146395182Y-90775592D01*
X146518091Y-90612834D01*
X146609000Y-90430263D01*
X146664815Y-90234096D01*
X146683633Y-90031013D01*
X147013203Y-90031013D01*
X147032020Y-90234095D01*
X147087835Y-90430260D01*
X147087840Y-90430273D01*
X147178745Y-90612834D01*
X147301655Y-90775594D01*
X147452376Y-90912993D01*
X147452378Y-90912995D01*
X147551559Y-90974405D01*
X147625781Y-91020361D01*
X147815962Y-91094037D01*
X148016442Y-91131513D01*
X148016444Y-91131513D01*
X148220392Y-91131513D01*
X148220394Y-91131513D01*
X148420874Y-91094037D01*
X148611055Y-91020361D01*
X148784459Y-90912994D01*
X148935182Y-90775592D01*
X149058091Y-90612834D01*
X149149000Y-90430263D01*
X149204815Y-90234096D01*
X149223633Y-90031013D01*
X149553203Y-90031013D01*
X149572020Y-90234095D01*
X149627835Y-90430260D01*
X149627840Y-90430273D01*
X149718745Y-90612834D01*
X149841655Y-90775594D01*
X149992376Y-90912993D01*
X149992378Y-90912995D01*
X150091559Y-90974405D01*
X150165781Y-91020361D01*
X150355962Y-91094037D01*
X150556442Y-91131513D01*
X150556444Y-91131513D01*
X150760392Y-91131513D01*
X150760394Y-91131513D01*
X150960874Y-91094037D01*
X151151055Y-91020361D01*
X151324459Y-90912994D01*
X151475182Y-90775592D01*
X151598091Y-90612834D01*
X151689000Y-90430263D01*
X151744815Y-90234096D01*
X151763633Y-90031013D01*
X151744815Y-89827930D01*
X151689000Y-89631763D01*
X151673692Y-89601021D01*
X151617578Y-89488327D01*
X151598091Y-89449192D01*
X151475182Y-89286434D01*
X151475180Y-89286431D01*
X151324459Y-89149032D01*
X151324457Y-89149030D01*
X151151060Y-89041668D01*
X151151053Y-89041664D01*
X151025187Y-88992904D01*
X150960874Y-88967989D01*
X150760394Y-88930513D01*
X150556442Y-88930513D01*
X150355962Y-88967989D01*
X150355959Y-88967989D01*
X150355959Y-88967990D01*
X150165782Y-89041664D01*
X150165775Y-89041668D01*
X149992378Y-89149030D01*
X149992376Y-89149032D01*
X149841655Y-89286431D01*
X149718745Y-89449191D01*
X149627840Y-89631752D01*
X149627835Y-89631765D01*
X149572020Y-89827930D01*
X149553203Y-90031012D01*
X149553203Y-90031013D01*
X149223633Y-90031013D01*
X149204815Y-89827930D01*
X149149000Y-89631763D01*
X149133692Y-89601021D01*
X149077578Y-89488327D01*
X149058091Y-89449192D01*
X148935182Y-89286434D01*
X148935180Y-89286431D01*
X148784459Y-89149032D01*
X148784457Y-89149030D01*
X148611060Y-89041668D01*
X148611053Y-89041664D01*
X148485187Y-88992904D01*
X148420874Y-88967989D01*
X148220394Y-88930513D01*
X148016442Y-88930513D01*
X147815962Y-88967989D01*
X147815959Y-88967989D01*
X147815959Y-88967990D01*
X147625782Y-89041664D01*
X147625775Y-89041668D01*
X147452378Y-89149030D01*
X147452376Y-89149032D01*
X147301655Y-89286431D01*
X147178745Y-89449191D01*
X147087840Y-89631752D01*
X147087835Y-89631765D01*
X147032020Y-89827930D01*
X147013203Y-90031012D01*
X147013203Y-90031013D01*
X146683633Y-90031013D01*
X146664815Y-89827930D01*
X146609000Y-89631763D01*
X146593692Y-89601021D01*
X146537578Y-89488327D01*
X146518091Y-89449192D01*
X146395182Y-89286434D01*
X146395180Y-89286431D01*
X146244459Y-89149032D01*
X146244457Y-89149030D01*
X146071060Y-89041668D01*
X146071053Y-89041664D01*
X145945187Y-88992904D01*
X145880874Y-88967989D01*
X145680394Y-88930513D01*
X145476442Y-88930513D01*
X145275962Y-88967989D01*
X145275959Y-88967989D01*
X145275959Y-88967990D01*
X145085782Y-89041664D01*
X145085775Y-89041668D01*
X144912378Y-89149030D01*
X144912376Y-89149032D01*
X144761655Y-89286431D01*
X144638745Y-89449191D01*
X144547840Y-89631752D01*
X144547835Y-89631765D01*
X144492020Y-89827930D01*
X144473203Y-90031012D01*
X144473203Y-90031013D01*
X144143633Y-90031013D01*
X144124815Y-89827930D01*
X144069000Y-89631763D01*
X144053692Y-89601021D01*
X143997578Y-89488327D01*
X143978091Y-89449192D01*
X143855182Y-89286434D01*
X143855180Y-89286431D01*
X143704459Y-89149032D01*
X143704457Y-89149030D01*
X143531060Y-89041668D01*
X143531053Y-89041664D01*
X143405187Y-88992904D01*
X143340874Y-88967989D01*
X143140394Y-88930513D01*
X142936442Y-88930513D01*
X142735962Y-88967989D01*
X142735959Y-88967989D01*
X142735959Y-88967990D01*
X142545782Y-89041664D01*
X142545775Y-89041668D01*
X142372378Y-89149030D01*
X142372376Y-89149032D01*
X142221655Y-89286431D01*
X142098745Y-89449191D01*
X142011600Y-89624201D01*
X141964097Y-89675438D01*
X141896434Y-89692859D01*
X141830094Y-89670933D01*
X141786139Y-89616622D01*
X141780825Y-89601021D01*
X141771852Y-89567531D01*
X141771847Y-89567520D01*
X141672018Y-89353435D01*
X141672017Y-89353433D01*
X141536531Y-89159939D01*
X141536526Y-89159933D01*
X141369500Y-88992907D01*
X141175996Y-88857412D01*
X140961910Y-88757583D01*
X140961904Y-88757580D01*
X140748418Y-88700377D01*
X140748418Y-89418711D01*
X140728733Y-89485750D01*
X140675929Y-89531505D01*
X140606773Y-89541449D01*
X140534184Y-89531013D01*
X140534181Y-89531013D01*
X140462655Y-89531013D01*
X140462651Y-89531013D01*
X140390063Y-89541449D01*
X140320905Y-89531505D01*
X140268102Y-89485749D01*
X140248418Y-89418711D01*
X140248418Y-88700377D01*
X140248417Y-88700377D01*
X140034931Y-88757580D01*
X140034925Y-88757583D01*
X139820840Y-88857412D01*
X139820838Y-88857413D01*
X139627344Y-88992899D01*
X139627338Y-88992904D01*
X139460309Y-89159933D01*
X139460304Y-89159939D01*
X139324818Y-89353433D01*
X139324817Y-89353435D01*
X139295300Y-89416736D01*
X139249128Y-89469175D01*
X139181934Y-89488327D01*
X139115053Y-89468111D01*
X139069718Y-89414946D01*
X139058918Y-89364331D01*
X139058918Y-89156336D01*
X139058917Y-89156334D01*
X139044385Y-89083277D01*
X139044384Y-89083273D01*
X139044384Y-89083272D01*
X138989019Y-89000412D01*
X138906158Y-88945047D01*
X138906157Y-88945046D01*
X138906153Y-88945045D01*
X138833095Y-88930513D01*
X138833092Y-88930513D01*
X137083744Y-88930513D01*
X137083741Y-88930513D01*
X137010682Y-88945045D01*
X137010678Y-88945046D01*
X136927817Y-89000412D01*
X136872451Y-89083273D01*
X136872450Y-89083277D01*
X136857918Y-89156334D01*
X136857918Y-90905691D01*
X136872450Y-90978748D01*
X136872451Y-90978752D01*
X136872452Y-90978753D01*
X136927817Y-91061614D01*
X137010678Y-91116979D01*
X137010682Y-91116980D01*
X137083739Y-91131512D01*
X137083742Y-91131513D01*
X137083744Y-91131513D01*
X138476519Y-91131513D01*
X138543558Y-91151198D01*
X138564200Y-91167832D01*
X140913619Y-93517251D01*
X140947104Y-93578574D01*
X140942120Y-93648266D01*
X140906710Y-93699016D01*
X140876471Y-93724976D01*
X140876467Y-93724979D01*
X140751980Y-93885804D01*
X140662410Y-94068406D01*
X140636753Y-94167500D01*
X141200020Y-94167500D01*
X141267059Y-94187185D01*
X141312814Y-94239989D01*
X141322758Y-94309147D01*
X141319286Y-94325434D01*
X141301104Y-94389337D01*
X141301103Y-94389337D01*
X141311452Y-94501017D01*
X141313884Y-94509563D01*
X141313298Y-94579430D01*
X141275033Y-94637890D01*
X141211236Y-94666381D01*
X141194618Y-94667500D01*
X140631633Y-94667500D01*
X140631930Y-94669446D01*
X140631932Y-94669452D01*
X140702561Y-94860157D01*
X140702564Y-94860164D01*
X140810148Y-95032767D01*
X140950263Y-95180168D01*
X140950265Y-95180169D01*
X141117196Y-95296357D01*
X141125070Y-95299736D01*
X141178916Y-95344260D01*
X141200141Y-95410828D01*
X141182008Y-95478304D01*
X141174550Y-95489174D01*
X141122301Y-95557266D01*
X141122299Y-95557269D01*
X141064312Y-95697263D01*
X141064311Y-95697265D01*
X141044533Y-95847499D01*
X141044533Y-95847500D01*
X141064311Y-95997734D01*
X141064312Y-95997736D01*
X141121809Y-96136547D01*
X141122301Y-96137733D01*
X141214548Y-96257951D01*
X141334766Y-96350198D01*
X141336032Y-96350722D01*
X141337573Y-96351361D01*
X141339576Y-96352975D01*
X141341808Y-96354264D01*
X141341607Y-96354611D01*
X141391978Y-96395201D01*
X141414044Y-96461494D01*
X141396766Y-96529194D01*
X141377804Y-96553604D01*
X141146108Y-96785300D01*
X141126254Y-96801424D01*
X141117165Y-96807362D01*
X141117164Y-96807363D01*
X141095363Y-96835371D01*
X141090286Y-96841122D01*
X141087484Y-96843925D01*
X141087474Y-96843936D01*
X141073905Y-96862943D01*
X141040192Y-96906256D01*
X141036447Y-96913177D01*
X141032988Y-96920252D01*
X141017329Y-96972851D01*
X140999500Y-97024786D01*
X140998206Y-97032540D01*
X140997231Y-97040359D01*
X140999500Y-97095203D01*
X140999500Y-100265697D01*
X140996862Y-100291135D01*
X140994633Y-100301769D01*
X140994633Y-100301770D01*
X140994633Y-100301772D01*
X140999023Y-100336992D01*
X140999500Y-100344668D01*
X140999500Y-100348617D01*
X141003342Y-100371642D01*
X141010134Y-100426128D01*
X141012373Y-100433648D01*
X141014934Y-100441109D01*
X141014935Y-100441111D01*
X141024795Y-100459331D01*
X141041055Y-100489378D01*
X141065174Y-100538712D01*
X141069742Y-100545110D01*
X141074582Y-100551328D01*
X141114971Y-100588510D01*
X141427339Y-100900877D01*
X141460824Y-100962200D01*
X141455840Y-101031891D01*
X141413969Y-101087825D01*
X141387112Y-101103119D01*
X141334768Y-101124801D01*
X141334766Y-101124802D01*
X141214548Y-101217049D01*
X141127637Y-101330314D01*
X141122299Y-101337270D01*
X141064312Y-101477263D01*
X141064311Y-101477265D01*
X141044533Y-101627499D01*
X141044533Y-101627500D01*
X141064311Y-101777734D01*
X141064312Y-101777736D01*
X141122299Y-101917730D01*
X141122301Y-101917734D01*
X141176798Y-101988754D01*
X141201993Y-102053923D01*
X141187955Y-102122368D01*
X141139142Y-102172358D01*
X141138602Y-102172659D01*
X141030787Y-102232502D01*
X141030782Y-102232505D01*
X140876468Y-102364978D01*
X140876467Y-102364979D01*
X140751980Y-102525804D01*
X140662410Y-102708406D01*
X140636753Y-102807500D01*
X141200020Y-102807500D01*
X141267059Y-102827185D01*
X141312814Y-102879989D01*
X141322758Y-102949147D01*
X141319286Y-102965434D01*
X141301104Y-103029337D01*
X141301103Y-103029337D01*
X141311452Y-103141017D01*
X141313884Y-103149563D01*
X141313298Y-103219430D01*
X141275033Y-103277890D01*
X141211236Y-103306381D01*
X141194618Y-103307500D01*
X140631633Y-103307500D01*
X140631930Y-103309446D01*
X140631932Y-103309452D01*
X140702561Y-103500157D01*
X140702564Y-103500164D01*
X140810148Y-103672767D01*
X140950263Y-103820168D01*
X140950265Y-103820169D01*
X141117194Y-103936356D01*
X141304091Y-104016559D01*
X141503309Y-104057500D01*
X141904999Y-104057500D01*
X141904999Y-103481500D01*
X141924684Y-103414461D01*
X141977488Y-103368706D01*
X142028999Y-103357500D01*
X142280999Y-103357500D01*
X142348038Y-103377185D01*
X142393793Y-103429989D01*
X142404999Y-103481500D01*
X142404999Y-104057500D01*
X142755712Y-104057500D01*
X142907337Y-104042081D01*
X143101380Y-103981200D01*
X143101390Y-103981195D01*
X143279214Y-103882494D01*
X143279215Y-103882494D01*
X143433529Y-103750021D01*
X143433530Y-103750020D01*
X143558017Y-103589195D01*
X143647587Y-103406593D01*
X143673245Y-103307500D01*
X143109978Y-103307500D01*
X143042939Y-103287815D01*
X142997184Y-103235011D01*
X142987240Y-103165853D01*
X142990712Y-103149566D01*
X143008893Y-103085662D01*
X143008894Y-103085660D01*
X143003675Y-103029337D01*
X142998545Y-102973979D01*
X142998543Y-102973975D01*
X142996114Y-102965437D01*
X142996700Y-102895570D01*
X143034965Y-102837110D01*
X143098762Y-102808619D01*
X143115380Y-102807500D01*
X143694207Y-102807500D01*
X143717026Y-102792686D01*
X143752510Y-102787500D01*
X143842827Y-102787500D01*
X143842843Y-102787499D01*
X143902371Y-102781098D01*
X143902378Y-102781096D01*
X144037085Y-102730854D01*
X144037092Y-102730850D01*
X144152186Y-102644690D01*
X144152189Y-102644687D01*
X144238349Y-102529593D01*
X144238353Y-102529586D01*
X144288595Y-102394879D01*
X144288597Y-102394872D01*
X144294998Y-102335344D01*
X144294999Y-102335327D01*
X144294999Y-102237500D01*
X142133777Y-102237500D01*
X142066738Y-102217815D01*
X142020983Y-102165011D01*
X142011039Y-102095853D01*
X142035402Y-102038013D01*
X142050869Y-102017857D01*
X142127697Y-101917733D01*
X142170644Y-101814048D01*
X142214486Y-101759644D01*
X142280780Y-101737579D01*
X142285206Y-101737500D01*
X142312201Y-101737500D01*
X142318281Y-101737799D01*
X142320323Y-101738000D01*
X142320325Y-101738000D01*
X143819675Y-101738000D01*
X143821717Y-101737799D01*
X143827797Y-101737500D01*
X144294999Y-101737500D01*
X144294999Y-101639672D01*
X144294998Y-101639655D01*
X144288597Y-101580127D01*
X144288595Y-101580120D01*
X144238353Y-101445413D01*
X144238349Y-101445406D01*
X144152190Y-101330314D01*
X144152184Y-101330307D01*
X144095187Y-101287639D01*
X144053317Y-101231705D01*
X144045499Y-101188373D01*
X144045499Y-100987000D01*
X144065184Y-100919961D01*
X144117988Y-100874206D01*
X144169499Y-100863000D01*
X144353100Y-100863000D01*
X144420139Y-100882685D01*
X144440781Y-100899319D01*
X145313180Y-101771718D01*
X145346665Y-101833041D01*
X145349499Y-101859399D01*
X145349499Y-102256769D01*
X145352352Y-102287199D01*
X145352352Y-102287201D01*
X145397205Y-102415380D01*
X145397206Y-102415382D01*
X145477849Y-102524650D01*
X145587117Y-102605293D01*
X145599049Y-102609468D01*
X145715298Y-102650146D01*
X145745729Y-102653000D01*
X145745733Y-102653000D01*
X146254269Y-102653000D01*
X146284698Y-102650146D01*
X146284700Y-102650146D01*
X146348789Y-102627719D01*
X146412881Y-102605293D01*
X146522149Y-102524650D01*
X146584258Y-102440494D01*
X146639904Y-102398245D01*
X146709560Y-102392786D01*
X146771110Y-102425853D01*
X146802412Y-102477237D01*
X146806980Y-102491897D01*
X146894926Y-102637377D01*
X147015121Y-102757572D01*
X147160603Y-102845519D01*
X147160602Y-102845519D01*
X147322893Y-102896090D01*
X147322892Y-102896090D01*
X147393407Y-102902498D01*
X147393425Y-102902499D01*
X147399998Y-102902498D01*
X147399999Y-102902498D01*
X147399999Y-101801500D01*
X147419684Y-101734461D01*
X147472488Y-101688706D01*
X147523999Y-101677500D01*
X147775999Y-101677500D01*
X147843038Y-101697185D01*
X147888793Y-101749989D01*
X147899999Y-101801500D01*
X147899999Y-102902499D01*
X147906580Y-102902499D01*
X147977101Y-102896091D01*
X147977106Y-102896090D01*
X148139395Y-102845518D01*
X148284876Y-102757572D01*
X148405071Y-102637377D01*
X148493018Y-102491895D01*
X148543589Y-102329606D01*
X148549617Y-102263278D01*
X148575288Y-102198295D01*
X148632016Y-102157507D01*
X148673108Y-102150500D01*
X149240941Y-102150500D01*
X149307980Y-102170185D01*
X149353735Y-102222989D01*
X149363679Y-102292147D01*
X149353735Y-102326012D01*
X149339334Y-102357543D01*
X149318853Y-102499999D01*
X149339334Y-102642456D01*
X149345895Y-102656822D01*
X149399123Y-102773373D01*
X149493372Y-102882143D01*
X149614447Y-102959953D01*
X149614450Y-102959954D01*
X149614449Y-102959954D01*
X149752536Y-103000499D01*
X149752538Y-103000500D01*
X149752539Y-103000500D01*
X149896462Y-103000500D01*
X149896462Y-103000499D01*
X150034553Y-102959953D01*
X150135334Y-102895184D01*
X150202374Y-102875500D01*
X150848196Y-102875500D01*
X150873641Y-102878139D01*
X150877440Y-102878935D01*
X150884268Y-102880367D01*
X150905225Y-102877754D01*
X150919492Y-102875977D01*
X150927168Y-102875500D01*
X150931112Y-102875500D01*
X150931114Y-102875500D01*
X150931116Y-102875499D01*
X150931122Y-102875499D01*
X150946487Y-102872934D01*
X150954140Y-102871657D01*
X151008626Y-102864866D01*
X151008627Y-102864865D01*
X151008629Y-102864865D01*
X151016141Y-102862628D01*
X151023606Y-102860066D01*
X151023606Y-102860065D01*
X151023610Y-102860065D01*
X151071877Y-102833944D01*
X151121211Y-102809826D01*
X151121213Y-102809823D01*
X151127594Y-102805268D01*
X151133818Y-102800423D01*
X151133826Y-102800419D01*
X151171008Y-102760028D01*
X151246025Y-102685011D01*
X151344218Y-102586819D01*
X151405541Y-102553334D01*
X151431899Y-102550500D01*
X151672680Y-102550500D01*
X151739719Y-102570185D01*
X151785474Y-102622989D01*
X151791700Y-102646826D01*
X151793086Y-102646476D01*
X151795608Y-102656435D01*
X151795608Y-102656437D01*
X151795706Y-102656825D01*
X151799500Y-102687263D01*
X151799500Y-103261809D01*
X151786901Y-103316269D01*
X151734426Y-103423608D01*
X151724500Y-103491739D01*
X151724500Y-104833260D01*
X151734426Y-104901391D01*
X151785803Y-105006485D01*
X151868514Y-105089196D01*
X151868515Y-105089196D01*
X151868517Y-105089198D01*
X151973607Y-105140573D01*
X152007673Y-105145536D01*
X152041739Y-105150500D01*
X152041740Y-105150500D01*
X152308261Y-105150500D01*
X152335350Y-105146553D01*
X152376393Y-105140573D01*
X152445541Y-105106768D01*
X152514413Y-105095010D01*
X152554458Y-105106768D01*
X152623607Y-105140573D01*
X152681277Y-105148975D01*
X152744775Y-105178118D01*
X152782439Y-105236967D01*
X152782308Y-105306837D01*
X152776192Y-105323190D01*
X152714834Y-105457545D01*
X152694353Y-105600000D01*
X152714834Y-105742456D01*
X152774622Y-105873371D01*
X152774625Y-105873377D01*
X152814416Y-105919298D01*
X152843441Y-105982854D01*
X152833497Y-106052012D01*
X152787742Y-106104816D01*
X152720703Y-106124500D01*
X148749764Y-106124500D01*
X148682725Y-106104815D01*
X148636970Y-106052011D01*
X148625379Y-106026630D01*
X148625376Y-106026626D01*
X148595910Y-105992620D01*
X148531128Y-105917857D01*
X148410053Y-105840047D01*
X148410051Y-105840046D01*
X148410049Y-105840045D01*
X148410050Y-105840045D01*
X148271963Y-105799500D01*
X148271961Y-105799500D01*
X148128039Y-105799500D01*
X148128036Y-105799500D01*
X147989949Y-105840045D01*
X147868873Y-105917856D01*
X147774623Y-106026626D01*
X147774622Y-106026628D01*
X147714834Y-106157543D01*
X147694353Y-106299999D01*
X147714834Y-106442456D01*
X147768494Y-106559953D01*
X147774623Y-106573373D01*
X147860144Y-106672070D01*
X147889168Y-106735624D01*
X147879224Y-106804782D01*
X147833470Y-106857586D01*
X147779689Y-106876560D01*
X147742974Y-106880508D01*
X147616551Y-106927661D01*
X147616544Y-106927665D01*
X147504562Y-107011494D01*
X147439098Y-107035911D01*
X147370825Y-107021059D01*
X147324713Y-106977324D01*
X147273884Y-106894918D01*
X147155079Y-106776113D01*
X147012076Y-106687907D01*
X147012071Y-106687905D01*
X146852582Y-106635056D01*
X146754149Y-106624999D01*
X146737499Y-106624999D01*
X146737499Y-108574998D01*
X146754135Y-108574998D01*
X146754151Y-108574997D01*
X146852582Y-108564942D01*
X147012071Y-108512092D01*
X147012076Y-108512090D01*
X147155079Y-108423884D01*
X147273884Y-108305079D01*
X147324713Y-108222673D01*
X147376661Y-108175949D01*
X147445623Y-108164726D01*
X147504563Y-108188503D01*
X147508526Y-108191469D01*
X147508527Y-108191471D01*
X147611039Y-108268210D01*
X147616548Y-108272334D01*
X147616551Y-108272336D01*
X147693245Y-108300941D01*
X147742977Y-108319490D01*
X147772317Y-108322644D01*
X147798854Y-108325498D01*
X147798869Y-108325499D01*
X148326129Y-108325499D01*
X148326143Y-108325498D01*
X148348022Y-108323145D01*
X148382021Y-108319490D01*
X148508449Y-108272335D01*
X148616471Y-108191471D01*
X148697335Y-108083449D01*
X148707511Y-108056165D01*
X148749381Y-108000233D01*
X148814846Y-107975816D01*
X148823692Y-107975500D01*
X149207399Y-107975500D01*
X149274438Y-107995185D01*
X149320193Y-108047989D01*
X149324432Y-108058525D01*
X149334705Y-108087882D01*
X149415348Y-108197150D01*
X149524616Y-108277793D01*
X149561997Y-108290873D01*
X149652797Y-108322646D01*
X149683228Y-108325500D01*
X149683232Y-108325500D01*
X150191768Y-108325500D01*
X150222197Y-108322646D01*
X150222199Y-108322646D01*
X150312999Y-108290873D01*
X150350380Y-108277793D01*
X150459648Y-108197150D01*
X150540291Y-108087882D01*
X150564318Y-108019217D01*
X150585144Y-107959701D01*
X150585144Y-107959699D01*
X150587998Y-107929269D01*
X150587998Y-107270730D01*
X150585144Y-107240300D01*
X150585144Y-107240298D01*
X150540291Y-107112119D01*
X150540290Y-107112117D01*
X150511518Y-107073132D01*
X150487548Y-107007505D01*
X150502863Y-106939335D01*
X150552603Y-106890266D01*
X150611289Y-106875500D01*
X150913707Y-106875500D01*
X150980746Y-106895185D01*
X151026501Y-106947989D01*
X151036445Y-107017147D01*
X151013477Y-107073131D01*
X150999887Y-107091546D01*
X150984705Y-107112117D01*
X150984704Y-107112119D01*
X150939851Y-107240298D01*
X150939851Y-107240300D01*
X150936998Y-107270730D01*
X150936998Y-107929269D01*
X150939851Y-107959699D01*
X150939851Y-107959701D01*
X150983154Y-108083450D01*
X150984705Y-108087882D01*
X151065348Y-108197150D01*
X151114837Y-108233674D01*
X151141583Y-108253414D01*
X151183834Y-108309062D01*
X151189292Y-108378718D01*
X151156224Y-108440267D01*
X151155630Y-108440865D01*
X149669368Y-109927127D01*
X149608045Y-109960612D01*
X149599338Y-109962183D01*
X149591807Y-109963265D01*
X149453716Y-110003812D01*
X149332640Y-110081623D01*
X149238390Y-110190393D01*
X149238389Y-110190395D01*
X149178601Y-110321310D01*
X149159015Y-110457543D01*
X149158120Y-110463767D01*
X149159948Y-110476482D01*
X149178601Y-110606223D01*
X149209267Y-110673371D01*
X149238390Y-110737140D01*
X149332639Y-110845910D01*
X149453714Y-110923720D01*
X149453717Y-110923721D01*
X149453716Y-110923721D01*
X149591803Y-110964266D01*
X149591805Y-110964267D01*
X149591806Y-110964267D01*
X149735729Y-110964267D01*
X149735729Y-110964266D01*
X149873820Y-110923720D01*
X149994895Y-110845910D01*
X150086787Y-110739859D01*
X150145565Y-110702085D01*
X150215434Y-110702085D01*
X150274213Y-110739859D01*
X150303238Y-110803414D01*
X150304500Y-110821062D01*
X150304500Y-111680330D01*
X150284815Y-111747369D01*
X150232011Y-111793124D01*
X150225295Y-111795956D01*
X150187371Y-111810647D01*
X150187359Y-111810653D01*
X150013960Y-111918017D01*
X150013958Y-111918019D01*
X149863237Y-112055418D01*
X149740327Y-112218178D01*
X149649422Y-112400739D01*
X149649417Y-112400752D01*
X149593602Y-112596917D01*
X149574785Y-112799999D01*
X149574785Y-112800000D01*
X149593602Y-113003082D01*
X149649417Y-113199247D01*
X149649422Y-113199260D01*
X149740327Y-113381821D01*
X149863237Y-113544581D01*
X150013958Y-113681980D01*
X150013960Y-113681982D01*
X150057879Y-113709175D01*
X150187363Y-113789348D01*
X150377544Y-113863024D01*
X150578024Y-113900500D01*
X150578026Y-113900500D01*
X150781974Y-113900500D01*
X150781976Y-113900500D01*
X150982456Y-113863024D01*
X151172637Y-113789348D01*
X151346041Y-113681981D01*
X151479500Y-113560317D01*
X151496762Y-113544581D01*
X151496764Y-113544579D01*
X151619673Y-113381821D01*
X151710582Y-113199250D01*
X151766397Y-113003083D01*
X151785215Y-112800000D01*
X151766397Y-112596917D01*
X151710582Y-112400750D01*
X151707836Y-112395236D01*
X151646137Y-112271326D01*
X151619673Y-112218179D01*
X151538985Y-112111331D01*
X151496762Y-112055418D01*
X151346041Y-111918019D01*
X151346039Y-111918017D01*
X151172640Y-111810653D01*
X151172628Y-111810647D01*
X151134705Y-111795956D01*
X151079304Y-111753383D01*
X151055714Y-111687616D01*
X151055500Y-111680330D01*
X151055500Y-110926898D01*
X151075185Y-110859859D01*
X151091814Y-110839222D01*
X154837819Y-107093216D01*
X154899142Y-107059732D01*
X154968834Y-107064716D01*
X155024767Y-107106588D01*
X155049184Y-107172052D01*
X155049500Y-107180898D01*
X155049500Y-107768099D01*
X155029815Y-107835138D01*
X155013181Y-107855780D01*
X152991108Y-109877852D01*
X152971254Y-109893976D01*
X152962165Y-109899914D01*
X152962164Y-109899915D01*
X152940363Y-109927923D01*
X152935286Y-109933674D01*
X152932484Y-109936477D01*
X152932474Y-109936488D01*
X152918905Y-109955495D01*
X152885192Y-109998808D01*
X152881447Y-110005729D01*
X152877988Y-110012804D01*
X152862329Y-110065403D01*
X152844500Y-110117338D01*
X152843206Y-110125092D01*
X152842231Y-110132911D01*
X152844500Y-110187755D01*
X152844500Y-111680330D01*
X152824815Y-111747369D01*
X152772011Y-111793124D01*
X152765295Y-111795956D01*
X152727371Y-111810647D01*
X152727359Y-111810653D01*
X152553960Y-111918017D01*
X152553958Y-111918019D01*
X152403237Y-112055418D01*
X152280327Y-112218178D01*
X152189422Y-112400739D01*
X152189417Y-112400752D01*
X152133602Y-112596917D01*
X152114785Y-112799999D01*
X152114785Y-112800000D01*
X152133602Y-113003082D01*
X152189417Y-113199247D01*
X152189422Y-113199260D01*
X152280327Y-113381821D01*
X152403237Y-113544581D01*
X152553958Y-113681980D01*
X152553960Y-113681982D01*
X152597879Y-113709175D01*
X152727363Y-113789348D01*
X152917544Y-113863024D01*
X153118024Y-113900500D01*
X153118026Y-113900500D01*
X153321974Y-113900500D01*
X153321976Y-113900500D01*
X153522456Y-113863024D01*
X153712637Y-113789348D01*
X153835224Y-113713445D01*
X153902583Y-113694890D01*
X153969282Y-113715698D01*
X154014144Y-113769264D01*
X154024500Y-113818873D01*
X154024500Y-115048196D01*
X154021862Y-115073634D01*
X154019633Y-115084268D01*
X154019633Y-115084269D01*
X154019633Y-115084271D01*
X154024023Y-115119491D01*
X154024500Y-115127167D01*
X154024500Y-115131116D01*
X154028342Y-115154141D01*
X154035134Y-115208627D01*
X154037373Y-115216147D01*
X154039934Y-115223608D01*
X154039935Y-115223610D01*
X154066055Y-115271876D01*
X154066055Y-115271877D01*
X154090174Y-115321211D01*
X154094742Y-115327609D01*
X154099582Y-115333827D01*
X154139970Y-115371008D01*
X155023541Y-116254579D01*
X155057026Y-116315902D01*
X155059218Y-116354862D01*
X155049500Y-116449981D01*
X155049500Y-117550001D01*
X155049501Y-117550019D01*
X155060000Y-117652796D01*
X155060001Y-117652799D01*
X155115185Y-117819331D01*
X155115187Y-117819336D01*
X155129373Y-117842335D01*
X155200435Y-117957546D01*
X155207289Y-117968657D01*
X155251451Y-118012819D01*
X155284936Y-118074142D01*
X155279952Y-118143834D01*
X155238080Y-118199767D01*
X155172616Y-118224184D01*
X155163770Y-118224500D01*
X153422309Y-118224500D01*
X153355270Y-118204815D01*
X153334628Y-118188181D01*
X152600000Y-117453553D01*
X152246448Y-117100000D01*
X152953552Y-117100000D01*
X153591056Y-117737504D01*
X153599999Y-117649981D01*
X153599999Y-116550027D01*
X153599998Y-116550014D01*
X153591056Y-116462495D01*
X152953552Y-117100000D01*
X152246448Y-117100000D01*
X151986818Y-116840370D01*
X151953333Y-116779047D01*
X151950499Y-116752689D01*
X151950499Y-116552129D01*
X151950498Y-116552123D01*
X151950271Y-116550014D01*
X151944091Y-116492517D01*
X151928232Y-116449998D01*
X151904177Y-116385502D01*
X151899193Y-116315811D01*
X151932678Y-116254488D01*
X151994001Y-116221003D01*
X152063693Y-116225987D01*
X152108040Y-116254488D01*
X152600000Y-116746447D01*
X152600001Y-116746447D01*
X153328552Y-116017894D01*
X153328553Y-116017892D01*
X153318347Y-116007686D01*
X153169124Y-115915643D01*
X153169119Y-115915641D01*
X153002697Y-115860494D01*
X153002690Y-115860493D01*
X152899980Y-115850000D01*
X152300028Y-115850000D01*
X152300012Y-115850001D01*
X152197302Y-115860494D01*
X152030880Y-115915641D01*
X152030875Y-115915643D01*
X151881655Y-116007683D01*
X151881653Y-116007685D01*
X151871444Y-116017892D01*
X151871444Y-116045019D01*
X151851758Y-116112058D01*
X151798953Y-116157812D01*
X151729794Y-116167753D01*
X151701057Y-116158187D01*
X151700641Y-116159303D01*
X151557486Y-116105910D01*
X151557485Y-116105909D01*
X151557483Y-116105909D01*
X151497873Y-116099500D01*
X151497863Y-116099500D01*
X150902129Y-116099500D01*
X150902123Y-116099501D01*
X150842516Y-116105908D01*
X150707671Y-116156202D01*
X150707664Y-116156206D01*
X150592455Y-116242452D01*
X150592452Y-116242455D01*
X150506206Y-116357664D01*
X150506202Y-116357671D01*
X150494309Y-116389560D01*
X150452438Y-116445494D01*
X150386974Y-116469911D01*
X150318701Y-116455059D01*
X150290446Y-116433908D01*
X149030566Y-115174028D01*
X148997081Y-115112705D01*
X148995509Y-115103992D01*
X148992673Y-115084268D01*
X148985165Y-115032043D01*
X148925377Y-114901127D01*
X148831128Y-114792357D01*
X148710053Y-114714547D01*
X148710051Y-114714546D01*
X148710049Y-114714545D01*
X148710050Y-114714545D01*
X148571963Y-114674000D01*
X148571961Y-114674000D01*
X148428039Y-114674000D01*
X148428036Y-114674000D01*
X148289949Y-114714545D01*
X148168873Y-114792356D01*
X148074623Y-114901126D01*
X148074622Y-114901128D01*
X148014834Y-115032043D01*
X147994353Y-115174500D01*
X148014834Y-115316956D01*
X148074622Y-115447871D01*
X148079418Y-115455334D01*
X148077210Y-115456752D01*
X148100548Y-115507843D01*
X148090610Y-115577002D01*
X148044860Y-115629810D01*
X147977822Y-115649500D01*
X147464500Y-115649500D01*
X147397461Y-115629815D01*
X147351706Y-115577011D01*
X147340500Y-115525500D01*
X147340500Y-113821969D01*
X147360185Y-113754930D01*
X147412989Y-113709175D01*
X147482147Y-113699231D01*
X147529775Y-113716541D01*
X147647363Y-113789348D01*
X147837544Y-113863024D01*
X148038024Y-113900500D01*
X148038026Y-113900500D01*
X148241974Y-113900500D01*
X148241976Y-113900500D01*
X148442456Y-113863024D01*
X148632637Y-113789348D01*
X148806041Y-113681981D01*
X148939500Y-113560317D01*
X148956762Y-113544581D01*
X148956764Y-113544579D01*
X149079673Y-113381821D01*
X149170582Y-113199250D01*
X149226397Y-113003083D01*
X149245215Y-112800000D01*
X149226397Y-112596917D01*
X149170582Y-112400750D01*
X149167836Y-112395236D01*
X149106137Y-112271326D01*
X149079673Y-112218179D01*
X148998985Y-112111331D01*
X148956762Y-112055418D01*
X148806041Y-111918019D01*
X148806039Y-111918017D01*
X148632642Y-111810655D01*
X148632639Y-111810653D01*
X148632637Y-111810652D01*
X148632636Y-111810651D01*
X148632635Y-111810651D01*
X148506777Y-111761894D01*
X148442456Y-111736976D01*
X148301259Y-111710581D01*
X148260342Y-111702933D01*
X148198061Y-111671265D01*
X148162788Y-111610952D01*
X148165722Y-111541144D01*
X148165777Y-111540979D01*
X148175500Y-111512660D01*
X148175500Y-111512658D01*
X148175501Y-111512656D01*
X148176791Y-111504924D01*
X148177768Y-111497086D01*
X148175500Y-111442244D01*
X148175500Y-110977183D01*
X148195185Y-110910144D01*
X148205783Y-110895985D01*
X148225377Y-110873373D01*
X148285165Y-110742457D01*
X148305647Y-110600000D01*
X148285165Y-110457543D01*
X148225377Y-110326627D01*
X148131128Y-110217857D01*
X148010053Y-110140047D01*
X148010051Y-110140046D01*
X148010049Y-110140045D01*
X148010050Y-110140045D01*
X147871963Y-110099500D01*
X147871961Y-110099500D01*
X147728039Y-110099500D01*
X147728036Y-110099500D01*
X147589949Y-110140045D01*
X147468873Y-110217856D01*
X147374623Y-110326626D01*
X147374622Y-110326628D01*
X147314834Y-110457543D01*
X147294353Y-110599999D01*
X147314834Y-110742456D01*
X147332959Y-110782143D01*
X147374623Y-110873373D01*
X147394212Y-110895980D01*
X147423238Y-110959534D01*
X147424500Y-110977183D01*
X147424500Y-111243099D01*
X147404815Y-111310138D01*
X147388181Y-111330780D01*
X146736108Y-111982852D01*
X146716254Y-111998976D01*
X146707165Y-112004914D01*
X146707164Y-112004915D01*
X146685363Y-112032923D01*
X146680286Y-112038674D01*
X146677484Y-112041477D01*
X146677475Y-112041487D01*
X146668423Y-112054165D01*
X146663905Y-112060495D01*
X146653123Y-112074347D01*
X146639751Y-112091527D01*
X146583040Y-112132339D01*
X146513267Y-112136012D01*
X146452584Y-112101380D01*
X146442945Y-112090090D01*
X146420596Y-112060496D01*
X146416764Y-112055421D01*
X146410546Y-112049753D01*
X146266041Y-111918019D01*
X146266039Y-111918017D01*
X146092640Y-111810653D01*
X146092628Y-111810647D01*
X146054705Y-111795956D01*
X145999304Y-111753383D01*
X145975714Y-111687616D01*
X145975500Y-111680330D01*
X145975500Y-111177183D01*
X145995185Y-111110144D01*
X146005783Y-111095985D01*
X146025377Y-111073373D01*
X146085165Y-110942457D01*
X146105647Y-110800000D01*
X146085165Y-110657543D01*
X146025377Y-110526627D01*
X145931128Y-110417857D01*
X145810053Y-110340047D01*
X145810051Y-110340046D01*
X145810049Y-110340045D01*
X145810050Y-110340045D01*
X145671963Y-110299500D01*
X145671961Y-110299500D01*
X145528039Y-110299500D01*
X145528036Y-110299500D01*
X145389949Y-110340045D01*
X145268873Y-110417856D01*
X145174623Y-110526626D01*
X145174622Y-110526628D01*
X145114834Y-110657543D01*
X145094353Y-110800000D01*
X145114834Y-110942456D01*
X145172837Y-111069462D01*
X145174623Y-111073373D01*
X145194212Y-111095980D01*
X145223238Y-111159534D01*
X145224500Y-111177183D01*
X145224500Y-111680330D01*
X145204815Y-111747369D01*
X145152011Y-111793124D01*
X145145295Y-111795956D01*
X145107371Y-111810647D01*
X145107359Y-111810653D01*
X144933960Y-111918017D01*
X144933958Y-111918019D01*
X144783237Y-112055418D01*
X144660327Y-112218178D01*
X144573182Y-112393188D01*
X144525679Y-112444425D01*
X144458016Y-112461846D01*
X144391676Y-112439920D01*
X144347721Y-112385609D01*
X144342407Y-112370008D01*
X144333434Y-112336518D01*
X144333429Y-112336507D01*
X144233600Y-112122422D01*
X144233599Y-112122420D01*
X144098113Y-111928926D01*
X144098108Y-111928920D01*
X143931082Y-111761894D01*
X143737578Y-111626399D01*
X143523492Y-111526570D01*
X143523486Y-111526567D01*
X143310000Y-111469364D01*
X143310000Y-112187698D01*
X143290315Y-112254737D01*
X143237511Y-112300492D01*
X143168355Y-112310436D01*
X143095766Y-112300000D01*
X143095763Y-112300000D01*
X143024237Y-112300000D01*
X143024233Y-112300000D01*
X142951645Y-112310436D01*
X142882487Y-112300492D01*
X142829684Y-112254736D01*
X142810000Y-112187698D01*
X142810000Y-111469364D01*
X142809999Y-111469364D01*
X142596513Y-111526567D01*
X142596502Y-111526571D01*
X142499275Y-111571909D01*
X142430198Y-111582401D01*
X142366414Y-111553881D01*
X142328175Y-111495404D01*
X142327621Y-111425536D01*
X142359188Y-111371848D01*
X144528889Y-109202146D01*
X144548746Y-109186022D01*
X144557836Y-109180084D01*
X144579638Y-109152071D01*
X144584733Y-109146303D01*
X144587519Y-109143518D01*
X144587528Y-109143506D01*
X144601086Y-109124516D01*
X144634807Y-109081192D01*
X144638547Y-109074278D01*
X144642006Y-109067203D01*
X144642010Y-109067199D01*
X144651512Y-109035281D01*
X144657672Y-109014593D01*
X144675500Y-108962661D01*
X144676791Y-108954924D01*
X144677768Y-108947086D01*
X144675500Y-108892244D01*
X144675500Y-108106898D01*
X144695185Y-108039859D01*
X144711814Y-108019222D01*
X144881037Y-107849999D01*
X145550000Y-107849999D01*
X145550000Y-107904151D01*
X145560055Y-108002582D01*
X145612905Y-108162071D01*
X145612907Y-108162076D01*
X145701113Y-108305079D01*
X145819918Y-108423884D01*
X145962921Y-108512090D01*
X145962926Y-108512092D01*
X146122415Y-108564941D01*
X146220855Y-108574998D01*
X146237499Y-108574997D01*
X146237499Y-107849999D01*
X145550000Y-107849999D01*
X144881037Y-107849999D01*
X145377839Y-107353197D01*
X145439160Y-107319714D01*
X145508852Y-107324698D01*
X145548220Y-107349999D01*
X146237499Y-107349999D01*
X146237499Y-106606748D01*
X146225966Y-106585629D01*
X146230948Y-106515937D01*
X146259447Y-106471590D01*
X147719218Y-105011819D01*
X147780542Y-104978334D01*
X147806900Y-104975500D01*
X150122126Y-104975500D01*
X150189165Y-104995185D01*
X150189166Y-104995185D01*
X150289947Y-105059953D01*
X150289948Y-105059953D01*
X150289949Y-105059954D01*
X150428036Y-105100499D01*
X150428038Y-105100500D01*
X150428039Y-105100500D01*
X150571962Y-105100500D01*
X150571962Y-105100499D01*
X150710053Y-105059953D01*
X150831128Y-104982143D01*
X150925377Y-104873373D01*
X150985165Y-104742457D01*
X151005647Y-104600000D01*
X150985165Y-104457543D01*
X150925377Y-104326627D01*
X150831128Y-104217857D01*
X150710053Y-104140047D01*
X150710051Y-104140046D01*
X150710049Y-104140045D01*
X150710050Y-104140045D01*
X150571963Y-104099500D01*
X150571961Y-104099500D01*
X150428039Y-104099500D01*
X150428036Y-104099500D01*
X150289949Y-104140045D01*
X150289948Y-104140046D01*
X150189166Y-104204815D01*
X150122126Y-104224500D01*
X149969476Y-104224500D01*
X149902437Y-104204815D01*
X149856682Y-104152011D01*
X149846738Y-104082853D01*
X149856683Y-104048987D01*
X149857438Y-104047333D01*
X149859665Y-104042457D01*
X149880147Y-103900000D01*
X149859665Y-103757543D01*
X149799877Y-103626627D01*
X149705628Y-103517857D01*
X149584553Y-103440047D01*
X149584551Y-103440046D01*
X149584549Y-103440045D01*
X149584550Y-103440045D01*
X149446463Y-103399500D01*
X149446461Y-103399500D01*
X149302539Y-103399500D01*
X149302536Y-103399500D01*
X149164449Y-103440045D01*
X149164448Y-103440046D01*
X149099945Y-103481500D01*
X149084013Y-103491739D01*
X149063666Y-103504815D01*
X148996626Y-103524500D01*
X147715408Y-103524500D01*
X147689961Y-103521861D01*
X147687317Y-103521306D01*
X147679333Y-103519632D01*
X147644113Y-103524023D01*
X147636436Y-103524500D01*
X147632490Y-103524500D01*
X147615210Y-103527383D01*
X147609450Y-103528344D01*
X147554972Y-103535135D01*
X147547448Y-103537375D01*
X147539996Y-103539934D01*
X147491723Y-103566057D01*
X147442394Y-103590172D01*
X147436002Y-103594735D01*
X147429778Y-103599580D01*
X147392607Y-103639957D01*
X147392607Y-103639958D01*
X145228550Y-105804016D01*
X143069385Y-107963181D01*
X143008062Y-107996666D01*
X142981704Y-107999500D01*
X142125323Y-107999500D01*
X142052264Y-108014032D01*
X142052260Y-108014033D01*
X141969398Y-108069399D01*
X141919291Y-108144391D01*
X141865679Y-108189196D01*
X141816189Y-108199500D01*
X139383811Y-108199500D01*
X139316772Y-108179815D01*
X139280709Y-108144391D01*
X139230601Y-108069399D01*
X139147739Y-108014033D01*
X139147735Y-108014032D01*
X139074677Y-107999500D01*
X139074674Y-107999500D01*
X137975326Y-107999500D01*
X137975323Y-107999500D01*
X137902264Y-108014032D01*
X137902260Y-108014033D01*
X137819399Y-108069399D01*
X137764033Y-108152260D01*
X137764032Y-108152264D01*
X137749500Y-108225321D01*
X137749500Y-108762225D01*
X137729815Y-108829264D01*
X137723351Y-108838390D01*
X137700364Y-108867923D01*
X137695286Y-108873674D01*
X137692484Y-108876477D01*
X137692474Y-108876488D01*
X137678905Y-108895495D01*
X137645192Y-108938808D01*
X137641447Y-108945729D01*
X137637988Y-108952804D01*
X137622329Y-109005403D01*
X137604500Y-109057338D01*
X137603206Y-109065092D01*
X137602231Y-109072911D01*
X137604500Y-109127755D01*
X137604500Y-111575500D01*
X137584815Y-111642539D01*
X137532011Y-111688294D01*
X137480500Y-111699500D01*
X137105323Y-111699500D01*
X137032264Y-111714032D01*
X137032260Y-111714033D01*
X136949399Y-111769399D01*
X136894033Y-111852260D01*
X136894032Y-111852264D01*
X136879500Y-111925321D01*
X136879500Y-113674678D01*
X136894032Y-113747735D01*
X136894033Y-113747739D01*
X136894034Y-113747740D01*
X136949399Y-113830601D01*
X137009344Y-113870654D01*
X137032260Y-113885966D01*
X137032264Y-113885967D01*
X137105321Y-113900499D01*
X137105324Y-113900500D01*
X137105326Y-113900500D01*
X138854676Y-113900500D01*
X138854677Y-113900499D01*
X138927740Y-113885966D01*
X139010601Y-113830601D01*
X139065966Y-113747740D01*
X139080500Y-113674674D01*
X139080500Y-111925326D01*
X139080500Y-111925325D01*
X139080500Y-111925323D01*
X139080499Y-111925321D01*
X139065967Y-111852264D01*
X139065966Y-111852260D01*
X139061161Y-111845069D01*
X139010601Y-111769399D01*
X138927740Y-111714034D01*
X138927739Y-111714033D01*
X138927735Y-111714032D01*
X138854677Y-111699500D01*
X138854674Y-111699500D01*
X138479500Y-111699500D01*
X138412461Y-111679815D01*
X138366706Y-111627011D01*
X138355500Y-111575500D01*
X138355500Y-109326899D01*
X138375185Y-109259860D01*
X138391819Y-109239218D01*
X138444218Y-109186819D01*
X138505541Y-109153334D01*
X138531899Y-109150500D01*
X139074676Y-109150500D01*
X139074677Y-109150499D01*
X139147740Y-109135966D01*
X139230601Y-109080601D01*
X139257552Y-109040265D01*
X139280709Y-109005609D01*
X139334321Y-108960804D01*
X139383811Y-108950500D01*
X141816189Y-108950500D01*
X141883228Y-108970185D01*
X141919291Y-109005609D01*
X141965174Y-109074278D01*
X141969399Y-109080601D01*
X141970284Y-109081192D01*
X142052260Y-109135966D01*
X142052264Y-109135967D01*
X142125321Y-109150499D01*
X142125324Y-109150500D01*
X143219100Y-109150500D01*
X143286139Y-109170185D01*
X143331894Y-109222989D01*
X143341838Y-109292147D01*
X143312813Y-109355703D01*
X143306781Y-109362181D01*
X141466108Y-111202852D01*
X141446254Y-111218976D01*
X141437165Y-111224914D01*
X141437164Y-111224915D01*
X141415363Y-111252923D01*
X141410286Y-111258674D01*
X141407484Y-111261477D01*
X141407474Y-111261488D01*
X141393905Y-111280495D01*
X141360192Y-111323808D01*
X141356447Y-111330729D01*
X141352988Y-111337804D01*
X141337329Y-111390403D01*
X141319500Y-111442338D01*
X141318206Y-111450092D01*
X141317231Y-111457911D01*
X141319500Y-111512755D01*
X141319500Y-111778030D01*
X141299815Y-111845069D01*
X141247011Y-111890824D01*
X141177853Y-111900768D01*
X141130223Y-111883457D01*
X141012642Y-111810655D01*
X141012639Y-111810653D01*
X141012637Y-111810652D01*
X141012636Y-111810651D01*
X141012635Y-111810651D01*
X140886777Y-111761894D01*
X140822456Y-111736976D01*
X140621976Y-111699500D01*
X140418024Y-111699500D01*
X140217544Y-111736976D01*
X140217541Y-111736976D01*
X140217541Y-111736977D01*
X140027364Y-111810651D01*
X140027357Y-111810655D01*
X139853960Y-111918017D01*
X139853958Y-111918019D01*
X139703237Y-112055418D01*
X139580327Y-112218178D01*
X139489422Y-112400739D01*
X139489417Y-112400752D01*
X139433602Y-112596917D01*
X139414785Y-112799999D01*
X139414785Y-112800000D01*
X139433602Y-113003082D01*
X139489417Y-113199247D01*
X139489422Y-113199260D01*
X139580327Y-113381821D01*
X139703237Y-113544581D01*
X139853958Y-113681980D01*
X139853960Y-113681982D01*
X139897879Y-113709175D01*
X140027363Y-113789348D01*
X140217544Y-113863024D01*
X140418024Y-113900500D01*
X140418026Y-113900500D01*
X140621974Y-113900500D01*
X140621976Y-113900500D01*
X140822456Y-113863024D01*
X141012637Y-113789348D01*
X141130223Y-113716541D01*
X141197583Y-113697986D01*
X141264282Y-113718794D01*
X141309144Y-113772360D01*
X141319500Y-113821969D01*
X141319500Y-114843196D01*
X141316862Y-114868634D01*
X141314633Y-114879268D01*
X141314633Y-114879269D01*
X141314633Y-114879271D01*
X141319023Y-114914491D01*
X141319500Y-114922167D01*
X141319500Y-114926116D01*
X141323342Y-114949141D01*
X141330134Y-115003627D01*
X141332373Y-115011147D01*
X141334934Y-115018608D01*
X141334935Y-115018610D01*
X141342205Y-115032044D01*
X141361055Y-115066877D01*
X141385174Y-115116211D01*
X141389742Y-115122609D01*
X141394582Y-115128827D01*
X141434971Y-115166009D01*
X141706782Y-115437819D01*
X141740267Y-115499142D01*
X141735283Y-115568833D01*
X141693412Y-115624767D01*
X141627947Y-115649184D01*
X141619101Y-115649500D01*
X141310636Y-115649500D01*
X141193246Y-115664953D01*
X141193237Y-115664956D01*
X141047160Y-115725463D01*
X140921718Y-115821718D01*
X140825463Y-115947160D01*
X140814561Y-115973481D01*
X140770720Y-116027884D01*
X140704425Y-116049949D01*
X140636726Y-116032670D01*
X140589116Y-115981532D01*
X140585439Y-115973481D01*
X140574536Y-115947160D01*
X140574536Y-115947159D01*
X140478282Y-115821718D01*
X140352841Y-115725464D01*
X140348198Y-115723541D01*
X140206762Y-115664956D01*
X140206760Y-115664955D01*
X140089361Y-115649500D01*
X139310636Y-115649500D01*
X139193246Y-115664953D01*
X139193237Y-115664956D01*
X139047160Y-115725463D01*
X138921718Y-115821718D01*
X138825463Y-115947160D01*
X138764956Y-116093237D01*
X138764956Y-116093238D01*
X138755992Y-116161323D01*
X138727725Y-116225219D01*
X138720734Y-116232817D01*
X138053553Y-116899999D01*
X138053553Y-116900000D01*
X138720734Y-117567181D01*
X138754219Y-117628504D01*
X138755992Y-117638676D01*
X138764956Y-117706760D01*
X138764956Y-117706762D01*
X138821110Y-117842331D01*
X138825464Y-117852841D01*
X138921718Y-117978282D01*
X139047159Y-118074536D01*
X139193238Y-118135044D01*
X139310639Y-118150500D01*
X140089360Y-118150499D01*
X140089363Y-118150499D01*
X140206753Y-118135046D01*
X140206757Y-118135044D01*
X140206762Y-118135044D01*
X140352841Y-118074536D01*
X140478282Y-117978282D01*
X140574536Y-117852841D01*
X140585438Y-117826519D01*
X140629279Y-117772115D01*
X140695573Y-117750050D01*
X140763273Y-117767329D01*
X140810884Y-117818466D01*
X140814561Y-117826519D01*
X140825462Y-117852838D01*
X140825463Y-117852839D01*
X140825464Y-117852841D01*
X140921718Y-117978282D01*
X141047159Y-118074536D01*
X141193238Y-118135044D01*
X141310639Y-118150500D01*
X141676411Y-118150499D01*
X141743449Y-118170183D01*
X141789204Y-118222987D01*
X141799148Y-118292144D01*
X141794353Y-118325497D01*
X141794353Y-118325500D01*
X141794515Y-118326627D01*
X141802599Y-118382853D01*
X141792655Y-118452012D01*
X141746900Y-118504816D01*
X141679861Y-118524500D01*
X138597210Y-118524500D01*
X138571763Y-118521861D01*
X138569119Y-118521306D01*
X138561135Y-118519632D01*
X138546944Y-118521402D01*
X138477985Y-118510161D01*
X138426050Y-118463422D01*
X138407628Y-118396024D01*
X138428568Y-118329367D01*
X138476512Y-118287266D01*
X138510479Y-118270419D01*
X138624895Y-118178448D01*
X137700001Y-117253553D01*
X137700000Y-117253553D01*
X136775104Y-118178449D01*
X135900000Y-118178449D01*
X135900000Y-116176086D01*
X136500000Y-116176086D01*
X136500001Y-117623911D01*
X136500001Y-117623912D01*
X136502814Y-117665423D01*
X136502814Y-117665425D01*
X136518389Y-117728055D01*
X136518390Y-117728056D01*
X137346447Y-116900000D01*
X136518390Y-116071943D01*
X136518389Y-116071943D01*
X136502815Y-116134568D01*
X136500000Y-116176086D01*
X135900000Y-116176086D01*
X135900000Y-115621550D01*
X136775104Y-115621550D01*
X137700000Y-116546446D01*
X137700001Y-116546446D01*
X138624895Y-115621550D01*
X138510481Y-115529581D01*
X138344849Y-115447435D01*
X138165431Y-115402815D01*
X138123914Y-115400000D01*
X137276089Y-115400001D01*
X137276088Y-115400001D01*
X137234576Y-115402814D01*
X137234574Y-115402814D01*
X137055150Y-115447435D01*
X136889521Y-115529580D01*
X136775104Y-115621550D01*
X135900000Y-115621550D01*
X135900000Y-106675000D01*
X137500000Y-106675000D01*
X137500000Y-106797844D01*
X137506401Y-106857372D01*
X137506403Y-106857379D01*
X137556645Y-106992086D01*
X137556649Y-106992093D01*
X137642809Y-107107187D01*
X137642812Y-107107190D01*
X137757906Y-107193350D01*
X137757913Y-107193354D01*
X137892620Y-107243596D01*
X137892627Y-107243598D01*
X137952155Y-107249999D01*
X137952172Y-107250000D01*
X138275000Y-107250000D01*
X138275000Y-106675000D01*
X138775000Y-106675000D01*
X138775000Y-107250000D01*
X139097828Y-107250000D01*
X139097844Y-107249999D01*
X139157372Y-107243598D01*
X139157379Y-107243596D01*
X139292086Y-107193354D01*
X139292093Y-107193350D01*
X139407187Y-107107190D01*
X139407190Y-107107187D01*
X139493350Y-106992093D01*
X139493354Y-106992086D01*
X139543596Y-106857379D01*
X139543598Y-106857372D01*
X139549999Y-106797844D01*
X139550000Y-106797827D01*
X139550000Y-106675000D01*
X141650000Y-106675000D01*
X141650000Y-106797844D01*
X141656401Y-106857372D01*
X141656403Y-106857379D01*
X141706645Y-106992086D01*
X141706649Y-106992093D01*
X141792809Y-107107187D01*
X141792812Y-107107190D01*
X141907906Y-107193350D01*
X141907913Y-107193354D01*
X142042620Y-107243596D01*
X142042627Y-107243598D01*
X142102155Y-107249999D01*
X142102172Y-107250000D01*
X142425000Y-107250000D01*
X142425000Y-106675000D01*
X142925000Y-106675000D01*
X142925000Y-107250000D01*
X143247828Y-107250000D01*
X143247844Y-107249999D01*
X143307372Y-107243598D01*
X143307379Y-107243596D01*
X143442086Y-107193354D01*
X143442093Y-107193350D01*
X143557187Y-107107190D01*
X143557190Y-107107187D01*
X143643350Y-106992093D01*
X143643354Y-106992086D01*
X143693596Y-106857379D01*
X143693598Y-106857372D01*
X143699999Y-106797844D01*
X143700000Y-106797827D01*
X143700000Y-106675000D01*
X142925000Y-106675000D01*
X142425000Y-106675000D01*
X141650000Y-106675000D01*
X139550000Y-106675000D01*
X138775000Y-106675000D01*
X138275000Y-106675000D01*
X137500000Y-106675000D01*
X135900000Y-106675000D01*
X135900000Y-106175000D01*
X137500000Y-106175000D01*
X138275000Y-106175000D01*
X138275000Y-105600000D01*
X138775000Y-105600000D01*
X138775000Y-106175000D01*
X139550000Y-106175000D01*
X141650000Y-106175000D01*
X142425000Y-106175000D01*
X142425000Y-105600000D01*
X142925000Y-105600000D01*
X142925000Y-106175000D01*
X143700000Y-106175000D01*
X143700000Y-106052172D01*
X143699999Y-106052155D01*
X143693598Y-105992627D01*
X143693596Y-105992620D01*
X143643354Y-105857913D01*
X143643350Y-105857906D01*
X143557190Y-105742812D01*
X143557187Y-105742809D01*
X143442093Y-105656649D01*
X143442086Y-105656645D01*
X143307379Y-105606403D01*
X143307372Y-105606401D01*
X143247844Y-105600000D01*
X142925000Y-105600000D01*
X142425000Y-105600000D01*
X142102155Y-105600000D01*
X142042627Y-105606401D01*
X142042620Y-105606403D01*
X141907913Y-105656645D01*
X141907906Y-105656649D01*
X141792812Y-105742809D01*
X141792809Y-105742812D01*
X141706649Y-105857906D01*
X141706645Y-105857913D01*
X141656403Y-105992620D01*
X141656401Y-105992627D01*
X141650000Y-106052155D01*
X141650000Y-106175000D01*
X139550000Y-106175000D01*
X139550000Y-106052172D01*
X139549999Y-106052155D01*
X139543598Y-105992627D01*
X139543596Y-105992620D01*
X139493354Y-105857913D01*
X139493350Y-105857906D01*
X139407190Y-105742812D01*
X139407187Y-105742809D01*
X139292093Y-105656649D01*
X139292086Y-105656645D01*
X139157379Y-105606403D01*
X139157372Y-105606401D01*
X139097844Y-105600000D01*
X138775000Y-105600000D01*
X138275000Y-105600000D01*
X137952155Y-105600000D01*
X137892627Y-105606401D01*
X137892620Y-105606403D01*
X137757913Y-105656645D01*
X137757906Y-105656649D01*
X137642812Y-105742809D01*
X137642809Y-105742812D01*
X137556649Y-105857906D01*
X137556645Y-105857913D01*
X137506403Y-105992620D01*
X137506401Y-105992627D01*
X137500000Y-106052155D01*
X137500000Y-106175000D01*
X135900000Y-106175000D01*
X135900000Y-103307500D01*
X136701633Y-103307500D01*
X136701930Y-103309446D01*
X136701932Y-103309452D01*
X136772561Y-103500157D01*
X136772564Y-103500164D01*
X136880148Y-103672767D01*
X137020263Y-103820168D01*
X137020265Y-103820169D01*
X137187194Y-103936356D01*
X137374091Y-104016559D01*
X137573309Y-104057500D01*
X137724999Y-104057500D01*
X137724999Y-103481500D01*
X137744684Y-103414461D01*
X137797488Y-103368706D01*
X137848999Y-103357500D01*
X138100999Y-103357500D01*
X138168038Y-103377185D01*
X138213793Y-103429989D01*
X138224999Y-103481500D01*
X138224999Y-104057500D01*
X138325712Y-104057500D01*
X138477337Y-104042081D01*
X138671380Y-103981200D01*
X138671390Y-103981195D01*
X138849214Y-103882494D01*
X138849215Y-103882494D01*
X139003529Y-103750021D01*
X139003530Y-103750020D01*
X139128017Y-103589195D01*
X139217587Y-103406593D01*
X139243245Y-103307500D01*
X138679978Y-103307500D01*
X138612939Y-103287815D01*
X138567184Y-103235011D01*
X138557240Y-103165853D01*
X138560712Y-103149566D01*
X138578893Y-103085662D01*
X138578894Y-103085660D01*
X138573675Y-103029337D01*
X138568545Y-102973979D01*
X138568543Y-102973975D01*
X138566114Y-102965437D01*
X138566700Y-102895570D01*
X138604965Y-102837110D01*
X138668762Y-102808619D01*
X138685380Y-102807500D01*
X139248365Y-102807500D01*
X139248067Y-102805553D01*
X139248065Y-102805547D01*
X139177436Y-102614842D01*
X139177433Y-102614835D01*
X139069849Y-102442232D01*
X138929734Y-102294831D01*
X138929732Y-102294830D01*
X138762803Y-102178643D01*
X138575906Y-102098440D01*
X138376689Y-102057500D01*
X138224999Y-102057500D01*
X138224999Y-102633500D01*
X138205314Y-102700539D01*
X138152510Y-102746294D01*
X138100999Y-102757500D01*
X137848999Y-102757500D01*
X137781960Y-102737815D01*
X137736205Y-102685011D01*
X137724999Y-102633500D01*
X137724999Y-102057500D01*
X137624286Y-102057500D01*
X137472660Y-102072918D01*
X137278617Y-102133799D01*
X137278607Y-102133804D01*
X137100783Y-102232505D01*
X137100782Y-102232505D01*
X136946468Y-102364978D01*
X136946467Y-102364979D01*
X136821980Y-102525804D01*
X136732410Y-102708406D01*
X136706753Y-102807500D01*
X137270020Y-102807500D01*
X137337059Y-102827185D01*
X137382814Y-102879989D01*
X137392758Y-102949147D01*
X137389286Y-102965434D01*
X137371104Y-103029337D01*
X137371103Y-103029337D01*
X137381452Y-103141017D01*
X137383884Y-103149563D01*
X137383298Y-103219430D01*
X137345033Y-103277890D01*
X137281236Y-103306381D01*
X137264618Y-103307500D01*
X136701633Y-103307500D01*
X135900000Y-103307500D01*
X135900000Y-94667500D01*
X136701633Y-94667500D01*
X136701930Y-94669446D01*
X136701932Y-94669452D01*
X136772561Y-94860157D01*
X136772564Y-94860164D01*
X136880148Y-95032767D01*
X137020263Y-95180168D01*
X137020265Y-95180169D01*
X137187194Y-95296356D01*
X137374091Y-95376559D01*
X137573309Y-95417500D01*
X137724999Y-95417500D01*
X137724999Y-94841500D01*
X137744684Y-94774461D01*
X137797488Y-94728706D01*
X137848999Y-94717500D01*
X138100999Y-94717500D01*
X138168038Y-94737185D01*
X138213793Y-94789989D01*
X138224999Y-94841500D01*
X138224999Y-95417500D01*
X138325712Y-95417500D01*
X138477337Y-95402081D01*
X138671380Y-95341200D01*
X138671390Y-95341195D01*
X138849214Y-95242494D01*
X138849215Y-95242494D01*
X139003529Y-95110021D01*
X139003530Y-95110020D01*
X139128017Y-94949195D01*
X139217587Y-94766593D01*
X139243245Y-94667500D01*
X138679978Y-94667500D01*
X138612939Y-94647815D01*
X138567184Y-94595011D01*
X138557240Y-94525853D01*
X138560712Y-94509566D01*
X138575978Y-94455908D01*
X138578894Y-94445660D01*
X138568545Y-94333979D01*
X138568543Y-94333975D01*
X138566114Y-94325437D01*
X138566700Y-94255570D01*
X138604965Y-94197110D01*
X138668762Y-94168619D01*
X138685380Y-94167500D01*
X139248365Y-94167500D01*
X139248067Y-94165553D01*
X139248065Y-94165547D01*
X139177436Y-93974842D01*
X139177433Y-93974835D01*
X139069849Y-93802232D01*
X138929734Y-93654831D01*
X138929732Y-93654830D01*
X138762803Y-93538643D01*
X138575906Y-93458440D01*
X138376689Y-93417500D01*
X138224999Y-93417500D01*
X138224999Y-93993500D01*
X138205314Y-94060539D01*
X138152510Y-94106294D01*
X138100999Y-94117500D01*
X137848999Y-94117500D01*
X137781960Y-94097815D01*
X137736205Y-94045011D01*
X137724999Y-93993500D01*
X137724999Y-93417500D01*
X137624286Y-93417500D01*
X137472660Y-93432918D01*
X137278617Y-93493799D01*
X137278607Y-93493804D01*
X137100783Y-93592505D01*
X137100782Y-93592505D01*
X136946468Y-93724978D01*
X136946467Y-93724979D01*
X136821980Y-93885804D01*
X136732410Y-94068406D01*
X136706753Y-94167500D01*
X137270020Y-94167500D01*
X137337059Y-94187185D01*
X137382814Y-94239989D01*
X137392758Y-94309147D01*
X137389286Y-94325434D01*
X137371104Y-94389337D01*
X137371103Y-94389337D01*
X137381452Y-94501017D01*
X137383884Y-94509563D01*
X137383298Y-94579430D01*
X137345033Y-94637890D01*
X137281236Y-94666381D01*
X137264618Y-94667500D01*
X136701633Y-94667500D01*
X135900000Y-94667500D01*
X135900000Y-88224500D01*
X135919685Y-88157461D01*
X135972489Y-88111706D01*
X136023995Y-88100500D01*
X160213917Y-88100500D01*
X160280956Y-88120185D01*
G37*
G04 #@! TD.AperFunction*
M02*
