G04 #@! TF.GenerationSoftware,KiCad,Pcbnew,7.0.7*
G04 #@! TF.CreationDate,2024-04-01T22:47:38-04:00*
G04 #@! TF.ProjectId,sensor_node,73656e73-6f72-45f6-9e6f-64652e6b6963,rev?*
G04 #@! TF.SameCoordinates,Original*
G04 #@! TF.FileFunction,Copper,L2,Bot*
G04 #@! TF.FilePolarity,Positive*
%FSLAX46Y46*%
G04 Gerber Fmt 4.6, Leading zero omitted, Abs format (unit mm)*
G04 Created by KiCad (PCBNEW 7.0.7) date 2024-04-01 22:47:38*
%MOMM*%
%LPD*%
G01*
G04 APERTURE LIST*
G04 Aperture macros list*
%AMRoundRect*
0 Rectangle with rounded corners*
0 $1 Rounding radius*
0 $2 $3 $4 $5 $6 $7 $8 $9 X,Y pos of 4 corners*
0 Add a 4 corners polygon primitive as box body*
4,1,4,$2,$3,$4,$5,$6,$7,$8,$9,$2,$3,0*
0 Add four circle primitives for the rounded corners*
1,1,$1+$1,$2,$3*
1,1,$1+$1,$4,$5*
1,1,$1+$1,$6,$7*
1,1,$1+$1,$8,$9*
0 Add four rect primitives between the rounded corners*
20,1,$1+$1,$2,$3,$4,$5,0*
20,1,$1+$1,$4,$5,$6,$7,0*
20,1,$1+$1,$6,$7,$8,$9,0*
20,1,$1+$1,$8,$9,$2,$3,0*%
G04 Aperture macros list end*
G04 #@! TA.AperFunction,SMDPad,CuDef*
%ADD10RoundRect,0.200000X-0.200000X0.800000X-0.200000X-0.800000X0.200000X-0.800000X0.200000X0.800000X0*%
G04 #@! TD*
G04 #@! TA.AperFunction,ComponentPad*
%ADD11R,1.700000X1.700000*%
G04 #@! TD*
G04 #@! TA.AperFunction,ComponentPad*
%ADD12O,1.700000X1.700000*%
G04 #@! TD*
G04 #@! TA.AperFunction,ComponentPad*
%ADD13O,2.100000X1.000000*%
G04 #@! TD*
G04 #@! TA.AperFunction,ComponentPad*
%ADD14O,1.600000X1.000000*%
G04 #@! TD*
G04 #@! TA.AperFunction,SMDPad,CuDef*
%ADD15RoundRect,0.200000X-0.200000X0.943000X-0.200000X-0.943000X0.200000X-0.943000X0.200000X0.943000X0*%
G04 #@! TD*
G04 #@! TA.AperFunction,ViaPad*
%ADD16C,0.500000*%
G04 #@! TD*
G04 #@! TA.AperFunction,Conductor*
%ADD17C,0.250000*%
G04 #@! TD*
G04 #@! TA.AperFunction,Conductor*
%ADD18C,0.200000*%
G04 #@! TD*
G04 APERTURE END LIST*
D10*
X158524999Y-108862500D03*
X157024999Y-108862500D03*
X155524999Y-108862500D03*
X154024999Y-108862500D03*
X152524999Y-108862500D03*
X151024999Y-108862500D03*
X149524999Y-108862500D03*
X148024999Y-108912500D03*
X148024999Y-93912500D03*
X149524999Y-93912500D03*
X151024999Y-93912500D03*
X152524999Y-93912500D03*
X154024999Y-93912500D03*
X155524999Y-93912500D03*
X157024999Y-93912500D03*
X158524999Y-93912500D03*
D11*
X137958418Y-90031013D03*
D12*
X140498418Y-90031013D03*
X143038418Y-90031013D03*
X145578418Y-90031013D03*
X148118418Y-90031013D03*
X150658418Y-90031013D03*
X153198418Y-90031013D03*
X155738418Y-90031013D03*
X158278418Y-90031013D03*
D11*
X137980000Y-112800000D03*
D12*
X140520000Y-112800000D03*
X143060000Y-112800000D03*
X145600000Y-112800000D03*
X148140000Y-112800000D03*
X150680000Y-112800000D03*
X153220000Y-112800000D03*
X155760000Y-112800000D03*
X158300000Y-112800000D03*
D13*
X142154999Y-94417500D03*
D14*
X137974999Y-94417500D03*
D13*
X142154999Y-103057500D03*
D14*
X137974999Y-103057500D03*
D15*
X149820000Y-117100000D03*
X151090000Y-117100000D03*
X152360000Y-117100000D03*
X153630000Y-117100000D03*
X154900000Y-117100000D03*
X156170000Y-117100000D03*
X157440000Y-117100000D03*
X158710000Y-117100000D03*
D16*
X148500000Y-115174500D03*
X142300000Y-118325500D03*
X154400000Y-111200000D03*
X153200000Y-105600000D03*
X158800000Y-101800000D03*
X138145406Y-119300000D03*
X152481017Y-96793483D03*
X158800000Y-106100000D03*
X148300000Y-118600000D03*
X159300000Y-110400000D03*
X144700000Y-96300000D03*
X148643767Y-95656233D03*
X149400000Y-96325500D03*
X157356233Y-102856233D03*
X149824500Y-102500000D03*
X155800000Y-101900000D03*
X158300000Y-96100000D03*
X155200000Y-101500000D03*
X157900000Y-102400000D03*
X149374500Y-103900000D03*
X149318132Y-99490841D03*
X156700000Y-96774500D03*
X150500000Y-104600000D03*
X147800000Y-110600000D03*
X157400000Y-96600000D03*
X148693767Y-99806233D03*
X151599499Y-98100000D03*
X148200000Y-106300000D03*
X145600000Y-110800000D03*
X149663767Y-110463767D03*
X155702326Y-95450500D03*
D17*
X148800000Y-99912466D02*
X148693767Y-99806233D01*
X148800000Y-109879961D02*
X148800000Y-99912466D01*
X147800000Y-110600000D02*
X148079961Y-110600000D01*
X148079961Y-110600000D02*
X148800000Y-109879961D01*
X148500000Y-115174500D02*
X145451000Y-115174500D01*
X145451000Y-115174500D02*
X142300000Y-118325500D01*
X153249999Y-110049999D02*
X154400000Y-111200000D01*
X153249999Y-105649999D02*
X153249999Y-110049999D01*
X153200000Y-105600000D02*
X153249999Y-105649999D01*
X137980000Y-119134594D02*
X138145406Y-119300000D01*
X158524999Y-101524999D02*
X158800000Y-101800000D01*
X158524999Y-109624999D02*
X159300000Y-110400000D01*
X156938173Y-97349500D02*
X158524999Y-98936326D01*
X140520000Y-112800000D02*
X137980000Y-115340000D01*
X137980000Y-115340000D02*
X137980000Y-119134594D01*
X158524999Y-108862500D02*
X158524999Y-109624999D01*
X149300000Y-117600000D02*
X148300000Y-118600000D01*
X153037034Y-97349500D02*
X156938173Y-97349500D01*
X149820000Y-117600000D02*
X149300000Y-117600000D01*
X158524999Y-98936326D02*
X158524999Y-101524999D01*
X152481017Y-96793483D02*
X153037034Y-97349500D01*
X158800000Y-108587499D02*
X158524999Y-108862500D01*
X158800000Y-106100000D02*
X158800000Y-108587499D01*
X151090000Y-119590000D02*
X151100000Y-119600000D01*
X151090000Y-117600000D02*
X151090000Y-119590000D01*
X148643767Y-95656233D02*
X148000000Y-96300000D01*
X148000000Y-96300000D02*
X144700000Y-96300000D01*
X153499066Y-114550000D02*
X154900000Y-115950934D01*
X152865462Y-114550000D02*
X153499066Y-114550000D01*
X151115462Y-112800000D02*
X152865462Y-114550000D01*
X150680000Y-112800000D02*
X151115462Y-112800000D01*
X154900000Y-115950934D02*
X154900000Y-117200000D01*
X148800000Y-95000000D02*
X148800000Y-92945039D01*
X148800000Y-92945039D02*
X145885974Y-90031013D01*
X149400000Y-95600000D02*
X148800000Y-95000000D01*
X145885974Y-90031013D02*
X145578418Y-90031013D01*
X149400000Y-96325500D02*
X149400000Y-95600000D01*
X150249999Y-92162594D02*
X148118418Y-90031013D01*
X150249999Y-96288674D02*
X150249999Y-92162594D01*
X149900000Y-96638673D02*
X150249999Y-96288674D01*
X157356233Y-102856233D02*
X157337466Y-102875000D01*
X155800000Y-101900000D02*
X156400000Y-101900000D01*
X156400000Y-101900000D02*
X157356233Y-102856233D01*
X149900000Y-102424500D02*
X149900000Y-96638673D01*
X149824500Y-102500000D02*
X149900000Y-102424500D01*
X158278418Y-90031013D02*
X157799999Y-90509432D01*
X157799999Y-90509432D02*
X157799999Y-95599999D01*
X157799999Y-95599999D02*
X158300000Y-96100000D01*
D18*
X156850000Y-101350000D02*
X157900000Y-102400000D01*
X155200000Y-101500000D02*
X155350000Y-101350000D01*
X155350000Y-101350000D02*
X156850000Y-101350000D01*
D17*
X149318132Y-99490841D02*
X149268767Y-99540206D01*
X149250000Y-103775500D02*
X149374500Y-103900000D01*
X149268767Y-100044406D02*
X149250000Y-100063173D01*
X149268767Y-99540206D02*
X149268767Y-100044406D01*
X149250000Y-100063173D02*
X149250000Y-103775500D01*
X156575500Y-96650000D02*
X153520037Y-96650000D01*
X156700000Y-96774500D02*
X156575500Y-96650000D01*
X150500000Y-104600000D02*
X150400000Y-104500000D01*
X150699999Y-94237500D02*
X151024999Y-93912500D01*
X150699999Y-96475070D02*
X150699999Y-94237500D01*
X153520037Y-96650000D02*
X151024999Y-94154962D01*
X151024999Y-94154962D02*
X151024999Y-93912500D01*
X150400000Y-104500000D02*
X150400000Y-96775069D01*
X150400000Y-96775069D02*
X150699999Y-96475070D01*
X157000000Y-96200000D02*
X157400000Y-96600000D01*
X152524999Y-94154962D02*
X154570037Y-96200000D01*
X154570037Y-96200000D02*
X157000000Y-96200000D01*
X152524999Y-93912500D02*
X152524999Y-94154962D01*
X152450000Y-114850000D02*
X153630000Y-116030000D01*
X151749999Y-109879962D02*
X150029961Y-111600000D01*
X149340000Y-111600000D02*
X148140000Y-112800000D01*
X153630000Y-116030000D02*
X153630000Y-117200000D01*
X151749999Y-98250500D02*
X151749999Y-109879962D01*
X150029961Y-111600000D02*
X149340000Y-111600000D01*
X148140000Y-112800000D02*
X150190000Y-114850000D01*
X150190000Y-114850000D02*
X152450000Y-114850000D01*
X151599499Y-98100000D02*
X151749999Y-98250500D01*
X147400000Y-114600000D02*
X145600000Y-112800000D01*
X150003604Y-115300000D02*
X149303604Y-114600000D01*
X152360000Y-115860000D02*
X151800000Y-115300000D01*
X145600000Y-108625500D02*
X145600000Y-110800000D01*
X152360000Y-117200000D02*
X152360000Y-115860000D01*
X151800000Y-115300000D02*
X150003604Y-115300000D01*
X148200000Y-106300000D02*
X147925500Y-106300000D01*
X147925500Y-106300000D02*
X145600000Y-108625500D01*
X149303604Y-114600000D02*
X147400000Y-114600000D01*
X156170000Y-115750000D02*
X156170000Y-117200000D01*
X153220000Y-112800000D02*
X156170000Y-115750000D01*
X155760000Y-112800000D02*
X155760000Y-114532269D01*
X157440000Y-116212269D02*
X157440000Y-117200000D01*
X155760000Y-114532269D02*
X157440000Y-116212269D01*
X149666194Y-110463767D02*
X151024999Y-109104962D01*
X151024999Y-109104962D02*
X151024999Y-108862500D01*
X149663767Y-110463767D02*
X149666194Y-110463767D01*
X155702326Y-95450500D02*
X155524999Y-95273173D01*
X155524999Y-95273173D02*
X155524999Y-93912500D01*
G04 #@! TA.AperFunction,Conductor*
G36*
X160280956Y-88120185D02*
G01*
X160326711Y-88172989D01*
X160337917Y-88224500D01*
X160337918Y-96157543D01*
X160337918Y-112055421D01*
X160337919Y-119954176D01*
X160318234Y-120021215D01*
X160265430Y-120066970D01*
X160213919Y-120078176D01*
X136024000Y-120078176D01*
X135956961Y-120058491D01*
X135911206Y-120005687D01*
X135900000Y-119954176D01*
X135900000Y-113674678D01*
X136879500Y-113674678D01*
X136894032Y-113747735D01*
X136894033Y-113747739D01*
X136894034Y-113747740D01*
X136949399Y-113830601D01*
X137032260Y-113885966D01*
X137032264Y-113885967D01*
X137105321Y-113900499D01*
X137105324Y-113900500D01*
X138589099Y-113900500D01*
X138656138Y-113920185D01*
X138701893Y-113972989D01*
X138711837Y-114042147D01*
X138682812Y-114105703D01*
X138676780Y-114112181D01*
X137751108Y-115037852D01*
X137731254Y-115053976D01*
X137722165Y-115059914D01*
X137722164Y-115059915D01*
X137700363Y-115087923D01*
X137695286Y-115093674D01*
X137692484Y-115096477D01*
X137692474Y-115096488D01*
X137678905Y-115115495D01*
X137645192Y-115158808D01*
X137641451Y-115165722D01*
X137637988Y-115172804D01*
X137622329Y-115225403D01*
X137604500Y-115277338D01*
X137603206Y-115285092D01*
X137602231Y-115292911D01*
X137604500Y-115347755D01*
X137604500Y-119082790D01*
X137601862Y-119108228D01*
X137599633Y-119118862D01*
X137599633Y-119118863D01*
X137599633Y-119118865D01*
X137604023Y-119154085D01*
X137604500Y-119161761D01*
X137604500Y-119165710D01*
X137608342Y-119188735D01*
X137615134Y-119243221D01*
X137617375Y-119250749D01*
X137619936Y-119258208D01*
X137628215Y-119273507D01*
X137641897Y-119314874D01*
X137660240Y-119442456D01*
X137720028Y-119573371D01*
X137720029Y-119573373D01*
X137814278Y-119682143D01*
X137935353Y-119759953D01*
X137935356Y-119759954D01*
X137935355Y-119759954D01*
X138073442Y-119800499D01*
X138073444Y-119800500D01*
X138073445Y-119800500D01*
X138217368Y-119800500D01*
X138217368Y-119800499D01*
X138355459Y-119759953D01*
X138476534Y-119682143D01*
X138570783Y-119573373D01*
X138630571Y-119442457D01*
X138651053Y-119300000D01*
X138630571Y-119157543D01*
X138570783Y-119026627D01*
X138476534Y-118917857D01*
X138476531Y-118917855D01*
X138412460Y-118876678D01*
X138366705Y-118823873D01*
X138355500Y-118772363D01*
X138355500Y-115546897D01*
X138375185Y-115479858D01*
X138391814Y-115459221D01*
X139994972Y-113856063D01*
X140056293Y-113822580D01*
X140125985Y-113827564D01*
X140127444Y-113828119D01*
X140217544Y-113863024D01*
X140418024Y-113900500D01*
X140418026Y-113900500D01*
X140621974Y-113900500D01*
X140621976Y-113900500D01*
X140822456Y-113863024D01*
X141012637Y-113789348D01*
X141186041Y-113681981D01*
X141336764Y-113544579D01*
X141459673Y-113381821D01*
X141521598Y-113257456D01*
X141546817Y-113206812D01*
X141594319Y-113155575D01*
X141661982Y-113138153D01*
X141728323Y-113160078D01*
X141772278Y-113214389D01*
X141777592Y-113229989D01*
X141786567Y-113263485D01*
X141786570Y-113263492D01*
X141886399Y-113477578D01*
X142021894Y-113671082D01*
X142188917Y-113838105D01*
X142382421Y-113973600D01*
X142596507Y-114073429D01*
X142596516Y-114073433D01*
X142810000Y-114130634D01*
X142810000Y-113412301D01*
X142829685Y-113345262D01*
X142882489Y-113299507D01*
X142951647Y-113289563D01*
X143024237Y-113300000D01*
X143024238Y-113300000D01*
X143095762Y-113300000D01*
X143095763Y-113300000D01*
X143168353Y-113289563D01*
X143237512Y-113299507D01*
X143290315Y-113345262D01*
X143310000Y-113412301D01*
X143310000Y-114130633D01*
X143523483Y-114073433D01*
X143523492Y-114073429D01*
X143737578Y-113973600D01*
X143931082Y-113838105D01*
X144098105Y-113671082D01*
X144233600Y-113477578D01*
X144333429Y-113263492D01*
X144333431Y-113263489D01*
X144342406Y-113229992D01*
X144378770Y-113170331D01*
X144441616Y-113139800D01*
X144510992Y-113148094D01*
X144564871Y-113192578D01*
X144573182Y-113206811D01*
X144660327Y-113381821D01*
X144783237Y-113544581D01*
X144933958Y-113681980D01*
X144933960Y-113681982D01*
X144990276Y-113716851D01*
X145107363Y-113789348D01*
X145297544Y-113863024D01*
X145498024Y-113900500D01*
X145498026Y-113900500D01*
X145701974Y-113900500D01*
X145701976Y-113900500D01*
X145902456Y-113863024D01*
X145992556Y-113828118D01*
X146062174Y-113822256D01*
X146123914Y-113854965D01*
X146125027Y-113856064D01*
X146856282Y-114587319D01*
X146889767Y-114648642D01*
X146884783Y-114718334D01*
X146842911Y-114774267D01*
X146777447Y-114798684D01*
X146768601Y-114799000D01*
X145502804Y-114799000D01*
X145477359Y-114796361D01*
X145466733Y-114794133D01*
X145466730Y-114794133D01*
X145431508Y-114798523D01*
X145423832Y-114799000D01*
X145419886Y-114799000D01*
X145402615Y-114801881D01*
X145396858Y-114802842D01*
X145342370Y-114809634D01*
X145334857Y-114811871D01*
X145327387Y-114814436D01*
X145279122Y-114840555D01*
X145229792Y-114864671D01*
X145223375Y-114869253D01*
X145217175Y-114874079D01*
X145179991Y-114914471D01*
X142305601Y-117788860D01*
X142244278Y-117822345D01*
X142235571Y-117823916D01*
X142228040Y-117824998D01*
X142089949Y-117865545D01*
X141968873Y-117943356D01*
X141874623Y-118052126D01*
X141874622Y-118052128D01*
X141814834Y-118183043D01*
X141794353Y-118325500D01*
X141814834Y-118467956D01*
X141826500Y-118493500D01*
X141874623Y-118598873D01*
X141968872Y-118707643D01*
X142089947Y-118785453D01*
X142089950Y-118785454D01*
X142089949Y-118785454D01*
X142228036Y-118825999D01*
X142228038Y-118826000D01*
X142228039Y-118826000D01*
X142371962Y-118826000D01*
X142371962Y-118825999D01*
X142510053Y-118785453D01*
X142631128Y-118707643D01*
X142725377Y-118598873D01*
X142725743Y-118598073D01*
X142738274Y-118570632D01*
X142785165Y-118467957D01*
X142795509Y-118396002D01*
X142824533Y-118332449D01*
X142830552Y-118325983D01*
X145570218Y-115586319D01*
X145631542Y-115552834D01*
X145657900Y-115550000D01*
X148122126Y-115550000D01*
X148189165Y-115569685D01*
X148189166Y-115569685D01*
X148289947Y-115634453D01*
X148289948Y-115634453D01*
X148289949Y-115634454D01*
X148428036Y-115674999D01*
X148428038Y-115675000D01*
X148428039Y-115675000D01*
X148571962Y-115675000D01*
X148571962Y-115674999D01*
X148695286Y-115638789D01*
X148710050Y-115634454D01*
X148710050Y-115634453D01*
X148710053Y-115634453D01*
X148831128Y-115556643D01*
X148925377Y-115447873D01*
X148985165Y-115316957D01*
X149005647Y-115174500D01*
X149001335Y-115144513D01*
X149011278Y-115075359D01*
X149057032Y-115022554D01*
X149124071Y-115002868D01*
X149191111Y-115022551D01*
X149211754Y-115039187D01*
X149667386Y-115494819D01*
X149700871Y-115556142D01*
X149695887Y-115625834D01*
X149654015Y-115681767D01*
X149588551Y-115706184D01*
X149579705Y-115706500D01*
X149565730Y-115706500D01*
X149535300Y-115709353D01*
X149535298Y-115709353D01*
X149407119Y-115754206D01*
X149407117Y-115754207D01*
X149297850Y-115834850D01*
X149217207Y-115944117D01*
X149217206Y-115944119D01*
X149172353Y-116072298D01*
X149172353Y-116072300D01*
X149169500Y-116102730D01*
X149169500Y-117168423D01*
X149149815Y-117235462D01*
X149099961Y-117279823D01*
X149078791Y-117290172D01*
X149072381Y-117294748D01*
X149066175Y-117299579D01*
X149028992Y-117339970D01*
X148305601Y-118063360D01*
X148244278Y-118096845D01*
X148235571Y-118098416D01*
X148228040Y-118099498D01*
X148089949Y-118140045D01*
X147968873Y-118217856D01*
X147874623Y-118326626D01*
X147874622Y-118326628D01*
X147814834Y-118457543D01*
X147794515Y-118598871D01*
X147794353Y-118600000D01*
X147795352Y-118606949D01*
X147814834Y-118742456D01*
X147834471Y-118785454D01*
X147874623Y-118873373D01*
X147968872Y-118982143D01*
X148089947Y-119059953D01*
X148089950Y-119059954D01*
X148089949Y-119059954D01*
X148228036Y-119100499D01*
X148228038Y-119100500D01*
X148228039Y-119100500D01*
X148371962Y-119100500D01*
X148371962Y-119100499D01*
X148510053Y-119059953D01*
X148631128Y-118982143D01*
X148725377Y-118873373D01*
X148785165Y-118742457D01*
X148795509Y-118670502D01*
X148824533Y-118606949D01*
X148830552Y-118600483D01*
X149097464Y-118333571D01*
X149158785Y-118300088D01*
X149228477Y-118305072D01*
X149284410Y-118346944D01*
X149284770Y-118347427D01*
X149297850Y-118365150D01*
X149407118Y-118445793D01*
X149428832Y-118453391D01*
X149535299Y-118490646D01*
X149565730Y-118493500D01*
X149565734Y-118493500D01*
X150074270Y-118493500D01*
X150098612Y-118491216D01*
X150104699Y-118490646D01*
X150211168Y-118453390D01*
X150280944Y-118449828D01*
X150339803Y-118482751D01*
X150455124Y-118598073D01*
X150600604Y-118686019D01*
X150600603Y-118686019D01*
X150762894Y-118736590D01*
X150762893Y-118736590D01*
X150833427Y-118742999D01*
X151346581Y-118742999D01*
X151417102Y-118736591D01*
X151417107Y-118736590D01*
X151579396Y-118686018D01*
X151724875Y-118598073D01*
X151840196Y-118482751D01*
X151901519Y-118449266D01*
X151968831Y-118453390D01*
X152075301Y-118490646D01*
X152075300Y-118490646D01*
X152105730Y-118493500D01*
X152105734Y-118493500D01*
X152614270Y-118493500D01*
X152644699Y-118490646D01*
X152644701Y-118490646D01*
X152709558Y-118467951D01*
X152772882Y-118445793D01*
X152882150Y-118365150D01*
X152895231Y-118347425D01*
X152950876Y-118305176D01*
X153020532Y-118299717D01*
X153082082Y-118332784D01*
X153094763Y-118347418D01*
X153107850Y-118365150D01*
X153217118Y-118445793D01*
X153238832Y-118453391D01*
X153345299Y-118490646D01*
X153375730Y-118493500D01*
X153375734Y-118493500D01*
X153884270Y-118493500D01*
X153914699Y-118490646D01*
X153914701Y-118490646D01*
X153979558Y-118467951D01*
X154042882Y-118445793D01*
X154152150Y-118365150D01*
X154165231Y-118347425D01*
X154220876Y-118305176D01*
X154290532Y-118299717D01*
X154352082Y-118332784D01*
X154364763Y-118347418D01*
X154377850Y-118365150D01*
X154487118Y-118445793D01*
X154508832Y-118453391D01*
X154615299Y-118490646D01*
X154645730Y-118493500D01*
X154645734Y-118493500D01*
X155154270Y-118493500D01*
X155184699Y-118490646D01*
X155184701Y-118490646D01*
X155249558Y-118467951D01*
X155312882Y-118445793D01*
X155422150Y-118365150D01*
X155435231Y-118347425D01*
X155490876Y-118305176D01*
X155560532Y-118299717D01*
X155622082Y-118332784D01*
X155634763Y-118347418D01*
X155647850Y-118365150D01*
X155757118Y-118445793D01*
X155778832Y-118453391D01*
X155885299Y-118490646D01*
X155915730Y-118493500D01*
X155915734Y-118493500D01*
X156424270Y-118493500D01*
X156454699Y-118490646D01*
X156454701Y-118490646D01*
X156519558Y-118467951D01*
X156582882Y-118445793D01*
X156692150Y-118365150D01*
X156705231Y-118347425D01*
X156760876Y-118305176D01*
X156830532Y-118299717D01*
X156892082Y-118332784D01*
X156904763Y-118347418D01*
X156917850Y-118365150D01*
X157027118Y-118445793D01*
X157048832Y-118453391D01*
X157155299Y-118490646D01*
X157185730Y-118493500D01*
X157185734Y-118493500D01*
X157694270Y-118493500D01*
X157724699Y-118490646D01*
X157724701Y-118490646D01*
X157789558Y-118467951D01*
X157852882Y-118445793D01*
X157962150Y-118365150D01*
X157975231Y-118347425D01*
X158030876Y-118305176D01*
X158100532Y-118299717D01*
X158162082Y-118332784D01*
X158174763Y-118347418D01*
X158187850Y-118365150D01*
X158297118Y-118445793D01*
X158318832Y-118453391D01*
X158425299Y-118490646D01*
X158455730Y-118493500D01*
X158455734Y-118493500D01*
X158964270Y-118493500D01*
X158994699Y-118490646D01*
X158994701Y-118490646D01*
X159059558Y-118467951D01*
X159122882Y-118445793D01*
X159232150Y-118365150D01*
X159312793Y-118255882D01*
X159345000Y-118163839D01*
X159357646Y-118127701D01*
X159357646Y-118127699D01*
X159360500Y-118097269D01*
X159360500Y-116102730D01*
X159357646Y-116072300D01*
X159357646Y-116072298D01*
X159312793Y-115944119D01*
X159312792Y-115944117D01*
X159285217Y-115906754D01*
X159232150Y-115834850D01*
X159122882Y-115754207D01*
X159122880Y-115754206D01*
X158994700Y-115709353D01*
X158964270Y-115706500D01*
X158964266Y-115706500D01*
X158455734Y-115706500D01*
X158455730Y-115706500D01*
X158425300Y-115709353D01*
X158425298Y-115709353D01*
X158297119Y-115754206D01*
X158297117Y-115754207D01*
X158187850Y-115834850D01*
X158174770Y-115852573D01*
X158119122Y-115894824D01*
X158049466Y-115900281D01*
X157987916Y-115867214D01*
X157975230Y-115852573D01*
X157962150Y-115834850D01*
X157852882Y-115754207D01*
X157852880Y-115754206D01*
X157724700Y-115709353D01*
X157694270Y-115706500D01*
X157694266Y-115706500D01*
X157516630Y-115706500D01*
X157449591Y-115686815D01*
X157428949Y-115670181D01*
X156171819Y-114413050D01*
X156138334Y-114351727D01*
X156135500Y-114325369D01*
X156135500Y-113919668D01*
X156155185Y-113852629D01*
X156207989Y-113806874D01*
X156214679Y-113804052D01*
X156252637Y-113789348D01*
X156426041Y-113681981D01*
X156576764Y-113544579D01*
X156699673Y-113381821D01*
X156790582Y-113199250D01*
X156846397Y-113003083D01*
X156865215Y-112800000D01*
X157194785Y-112800000D01*
X157213602Y-113003082D01*
X157269417Y-113199247D01*
X157269422Y-113199260D01*
X157360327Y-113381821D01*
X157483237Y-113544581D01*
X157633958Y-113681980D01*
X157633960Y-113681982D01*
X157690276Y-113716851D01*
X157807363Y-113789348D01*
X157997544Y-113863024D01*
X158198024Y-113900500D01*
X158198026Y-113900500D01*
X158401974Y-113900500D01*
X158401976Y-113900500D01*
X158602456Y-113863024D01*
X158792637Y-113789348D01*
X158966041Y-113681981D01*
X159116764Y-113544579D01*
X159239673Y-113381821D01*
X159330582Y-113199250D01*
X159386397Y-113003083D01*
X159405215Y-112800000D01*
X159386397Y-112596917D01*
X159330582Y-112400750D01*
X159315274Y-112370008D01*
X159266136Y-112271325D01*
X159239673Y-112218179D01*
X159116764Y-112055421D01*
X159116762Y-112055418D01*
X158966041Y-111918019D01*
X158966039Y-111918017D01*
X158792642Y-111810655D01*
X158792635Y-111810651D01*
X158666769Y-111761891D01*
X158602456Y-111736976D01*
X158401976Y-111699500D01*
X158198024Y-111699500D01*
X157997544Y-111736976D01*
X157997541Y-111736976D01*
X157997541Y-111736977D01*
X157807364Y-111810651D01*
X157807357Y-111810655D01*
X157633960Y-111918017D01*
X157633958Y-111918019D01*
X157483237Y-112055418D01*
X157360327Y-112218178D01*
X157269422Y-112400739D01*
X157269417Y-112400752D01*
X157213602Y-112596917D01*
X157194785Y-112799999D01*
X157194785Y-112800000D01*
X156865215Y-112800000D01*
X156846397Y-112596917D01*
X156790582Y-112400750D01*
X156775274Y-112370008D01*
X156726136Y-112271325D01*
X156699673Y-112218179D01*
X156576764Y-112055421D01*
X156576762Y-112055418D01*
X156426041Y-111918019D01*
X156426039Y-111918017D01*
X156252642Y-111810655D01*
X156252635Y-111810651D01*
X156126769Y-111761891D01*
X156062456Y-111736976D01*
X155861976Y-111699500D01*
X155658024Y-111699500D01*
X155457544Y-111736976D01*
X155457541Y-111736976D01*
X155457541Y-111736977D01*
X155267364Y-111810651D01*
X155267357Y-111810655D01*
X155093960Y-111918017D01*
X155093958Y-111918019D01*
X154943237Y-112055418D01*
X154820327Y-112218178D01*
X154729422Y-112400739D01*
X154729417Y-112400752D01*
X154673602Y-112596917D01*
X154654785Y-112799999D01*
X154654785Y-112800000D01*
X154673602Y-113003082D01*
X154729417Y-113199247D01*
X154729422Y-113199260D01*
X154820327Y-113381821D01*
X154943237Y-113544581D01*
X155093958Y-113681980D01*
X155093960Y-113681982D01*
X155150276Y-113716851D01*
X155267363Y-113789348D01*
X155305293Y-113804042D01*
X155360694Y-113846612D01*
X155384286Y-113912378D01*
X155384500Y-113919668D01*
X155384500Y-114134099D01*
X155364815Y-114201138D01*
X155312011Y-114246893D01*
X155242853Y-114256837D01*
X155179297Y-114227812D01*
X155172819Y-114221780D01*
X154279710Y-113328672D01*
X154246225Y-113267349D01*
X154250667Y-113205234D01*
X154249013Y-113204764D01*
X154258810Y-113170331D01*
X154306397Y-113003083D01*
X154325215Y-112800000D01*
X154306397Y-112596917D01*
X154250582Y-112400750D01*
X154235274Y-112370008D01*
X154186136Y-112271325D01*
X154159673Y-112218179D01*
X154036764Y-112055421D01*
X154036762Y-112055418D01*
X153886041Y-111918019D01*
X153886039Y-111918017D01*
X153712642Y-111810655D01*
X153712635Y-111810651D01*
X153586769Y-111761891D01*
X153522456Y-111736976D01*
X153321976Y-111699500D01*
X153118024Y-111699500D01*
X152917544Y-111736976D01*
X152917541Y-111736976D01*
X152917541Y-111736977D01*
X152727364Y-111810651D01*
X152727357Y-111810655D01*
X152553960Y-111918017D01*
X152553958Y-111918019D01*
X152403237Y-112055418D01*
X152280327Y-112218178D01*
X152189422Y-112400739D01*
X152189417Y-112400752D01*
X152133602Y-112596917D01*
X152114785Y-112799999D01*
X152114785Y-112800001D01*
X152130921Y-112974147D01*
X152117506Y-113042717D01*
X152069148Y-113093149D01*
X152001202Y-113109431D01*
X151935240Y-113086393D01*
X151919769Y-113073269D01*
X151814612Y-112968112D01*
X151781127Y-112906789D01*
X151778822Y-112868989D01*
X151785215Y-112799999D01*
X151766397Y-112596917D01*
X151764473Y-112590156D01*
X151710582Y-112400750D01*
X151695274Y-112370008D01*
X151646136Y-112271325D01*
X151619673Y-112218179D01*
X151496764Y-112055421D01*
X151496762Y-112055418D01*
X151346041Y-111918019D01*
X151346039Y-111918017D01*
X151172642Y-111810655D01*
X151172635Y-111810651D01*
X151046769Y-111761891D01*
X150982456Y-111736976D01*
X150781976Y-111699500D01*
X150760859Y-111699500D01*
X150693820Y-111679815D01*
X150648065Y-111627011D01*
X150638121Y-111557853D01*
X150667146Y-111494297D01*
X150673178Y-111487819D01*
X151315087Y-110845910D01*
X151978888Y-110182108D01*
X151998745Y-110165984D01*
X152007835Y-110160046D01*
X152029637Y-110132033D01*
X152034732Y-110126265D01*
X152035785Y-110125213D01*
X152037518Y-110123480D01*
X152037518Y-110123479D01*
X152041152Y-110119847D01*
X152041909Y-110120605D01*
X152095830Y-110085085D01*
X152165695Y-110084296D01*
X152173062Y-110086619D01*
X152240298Y-110110146D01*
X152270729Y-110113000D01*
X152782164Y-110113000D01*
X152782164Y-110114258D01*
X152845245Y-110129578D01*
X152892273Y-110177932D01*
X152900788Y-110193666D01*
X152916054Y-110221876D01*
X152940173Y-110271210D01*
X152944741Y-110277608D01*
X152949581Y-110283826D01*
X152989969Y-110321007D01*
X153869432Y-111200470D01*
X153902917Y-111261793D01*
X153904489Y-111270503D01*
X153907317Y-111290174D01*
X153914835Y-111342457D01*
X153974623Y-111473373D01*
X154068872Y-111582143D01*
X154189947Y-111659953D01*
X154189950Y-111659954D01*
X154189949Y-111659954D01*
X154297107Y-111691417D01*
X154324633Y-111699500D01*
X154328036Y-111700499D01*
X154328038Y-111700500D01*
X154328039Y-111700500D01*
X154471962Y-111700500D01*
X154471962Y-111700499D01*
X154610053Y-111659953D01*
X154731128Y-111582143D01*
X154825377Y-111473373D01*
X154885165Y-111342457D01*
X154905647Y-111200000D01*
X154885165Y-111057543D01*
X154825377Y-110926627D01*
X154731128Y-110817857D01*
X154610053Y-110740047D01*
X154610051Y-110740046D01*
X154610049Y-110740045D01*
X154610050Y-110740045D01*
X154471965Y-110699500D01*
X154464429Y-110698417D01*
X154400874Y-110669391D01*
X154394397Y-110663360D01*
X154055719Y-110324681D01*
X154022234Y-110263358D01*
X154027218Y-110193666D01*
X154069090Y-110137733D01*
X154134554Y-110113316D01*
X154143400Y-110113000D01*
X154279269Y-110113000D01*
X154309698Y-110110146D01*
X154309700Y-110110146D01*
X154376500Y-110086771D01*
X154437881Y-110065293D01*
X154547149Y-109984650D01*
X154627792Y-109875382D01*
X154655149Y-109797201D01*
X154657958Y-109789173D01*
X154698680Y-109732397D01*
X154763632Y-109706650D01*
X154832194Y-109720106D01*
X154882597Y-109768494D01*
X154892040Y-109789173D01*
X154894848Y-109797199D01*
X154922206Y-109875382D01*
X155002849Y-109984650D01*
X155112117Y-110065293D01*
X155154844Y-110080243D01*
X155240298Y-110110146D01*
X155270729Y-110113000D01*
X155270733Y-110113000D01*
X155779269Y-110113000D01*
X155809698Y-110110146D01*
X155809700Y-110110146D01*
X155876500Y-110086771D01*
X155937881Y-110065293D01*
X156047149Y-109984650D01*
X156127792Y-109875382D01*
X156155149Y-109797201D01*
X156157958Y-109789173D01*
X156198680Y-109732397D01*
X156263632Y-109706650D01*
X156332194Y-109720106D01*
X156382597Y-109768494D01*
X156392040Y-109789173D01*
X156394848Y-109797199D01*
X156422206Y-109875382D01*
X156502849Y-109984650D01*
X156612117Y-110065293D01*
X156654844Y-110080243D01*
X156740298Y-110110146D01*
X156770729Y-110113000D01*
X156770733Y-110113000D01*
X157279269Y-110113000D01*
X157309698Y-110110146D01*
X157309700Y-110110146D01*
X157376500Y-110086771D01*
X157437881Y-110065293D01*
X157547149Y-109984650D01*
X157627792Y-109875382D01*
X157657958Y-109789170D01*
X157698678Y-109732398D01*
X157763630Y-109706650D01*
X157832192Y-109720106D01*
X157882595Y-109768493D01*
X157892039Y-109789172D01*
X157894849Y-109797201D01*
X157922206Y-109875382D01*
X158002849Y-109984650D01*
X158112117Y-110065293D01*
X158154844Y-110080243D01*
X158240298Y-110110146D01*
X158270729Y-110113000D01*
X158270733Y-110113000D01*
X158430601Y-110113000D01*
X158497640Y-110132685D01*
X158518282Y-110149319D01*
X158769432Y-110400470D01*
X158802917Y-110461793D01*
X158804489Y-110470503D01*
X158814834Y-110542453D01*
X158814835Y-110542458D01*
X158870050Y-110663360D01*
X158874623Y-110673373D01*
X158968872Y-110782143D01*
X159089947Y-110859953D01*
X159089950Y-110859954D01*
X159089949Y-110859954D01*
X159197107Y-110891417D01*
X159227763Y-110900419D01*
X159228036Y-110900499D01*
X159228038Y-110900500D01*
X159228039Y-110900500D01*
X159371962Y-110900500D01*
X159371962Y-110900499D01*
X159479121Y-110869035D01*
X159510050Y-110859954D01*
X159510050Y-110859953D01*
X159510053Y-110859953D01*
X159631128Y-110782143D01*
X159725377Y-110673373D01*
X159785165Y-110542457D01*
X159805647Y-110400000D01*
X159785165Y-110257543D01*
X159725377Y-110126627D01*
X159631128Y-110017857D01*
X159510053Y-109940047D01*
X159510051Y-109940046D01*
X159510049Y-109940045D01*
X159510050Y-109940045D01*
X159371958Y-109899498D01*
X159364429Y-109898416D01*
X159300874Y-109869390D01*
X159294397Y-109863360D01*
X159211817Y-109780779D01*
X159178333Y-109719455D01*
X159175499Y-109693098D01*
X159175499Y-108664601D01*
X159175500Y-108664592D01*
X159175500Y-108660272D01*
X159177736Y-108644936D01*
X159176497Y-108644782D01*
X159177768Y-108634584D01*
X159175500Y-108579743D01*
X159175500Y-106477183D01*
X159195185Y-106410144D01*
X159205783Y-106395985D01*
X159225377Y-106373373D01*
X159285165Y-106242457D01*
X159305647Y-106100000D01*
X159285165Y-105957543D01*
X159225377Y-105826627D01*
X159131128Y-105717857D01*
X159010053Y-105640047D01*
X159010051Y-105640046D01*
X159010049Y-105640045D01*
X159010050Y-105640045D01*
X158871963Y-105599500D01*
X158871961Y-105599500D01*
X158728039Y-105599500D01*
X158728036Y-105599500D01*
X158589949Y-105640045D01*
X158468873Y-105717856D01*
X158374623Y-105826626D01*
X158374622Y-105826628D01*
X158314834Y-105957543D01*
X158294353Y-106100000D01*
X158314834Y-106242456D01*
X158374622Y-106373371D01*
X158374623Y-106373373D01*
X158394212Y-106395980D01*
X158423238Y-106459534D01*
X158424500Y-106477183D01*
X158424500Y-107488000D01*
X158404815Y-107555039D01*
X158352011Y-107600794D01*
X158300500Y-107612000D01*
X158270729Y-107612000D01*
X158240299Y-107614853D01*
X158240297Y-107614853D01*
X158112118Y-107659706D01*
X158112116Y-107659707D01*
X158002849Y-107740350D01*
X157922206Y-107849617D01*
X157922205Y-107849619D01*
X157892040Y-107935826D01*
X157851318Y-107992602D01*
X157786365Y-108018349D01*
X157717804Y-108004892D01*
X157667401Y-107956505D01*
X157657958Y-107935826D01*
X157627792Y-107849619D01*
X157627791Y-107849617D01*
X157584050Y-107790350D01*
X157547149Y-107740350D01*
X157437881Y-107659707D01*
X157437879Y-107659706D01*
X157309699Y-107614853D01*
X157279269Y-107612000D01*
X157279265Y-107612000D01*
X156770733Y-107612000D01*
X156770729Y-107612000D01*
X156740299Y-107614853D01*
X156740297Y-107614853D01*
X156612118Y-107659706D01*
X156612116Y-107659707D01*
X156502849Y-107740350D01*
X156422206Y-107849617D01*
X156422205Y-107849619D01*
X156392040Y-107935826D01*
X156351318Y-107992602D01*
X156286365Y-108018349D01*
X156217804Y-108004892D01*
X156167401Y-107956505D01*
X156157958Y-107935826D01*
X156127792Y-107849619D01*
X156127791Y-107849617D01*
X156084050Y-107790350D01*
X156047149Y-107740350D01*
X155937881Y-107659707D01*
X155937879Y-107659706D01*
X155809699Y-107614853D01*
X155779269Y-107612000D01*
X155779265Y-107612000D01*
X155270733Y-107612000D01*
X155270729Y-107612000D01*
X155240299Y-107614853D01*
X155240297Y-107614853D01*
X155112118Y-107659706D01*
X155112116Y-107659707D01*
X155002849Y-107740350D01*
X154922206Y-107849617D01*
X154922205Y-107849619D01*
X154892040Y-107935826D01*
X154851318Y-107992602D01*
X154786365Y-108018349D01*
X154717804Y-108004892D01*
X154667401Y-107956505D01*
X154657958Y-107935826D01*
X154627792Y-107849619D01*
X154627791Y-107849617D01*
X154584050Y-107790350D01*
X154547149Y-107740350D01*
X154437881Y-107659707D01*
X154437879Y-107659706D01*
X154309699Y-107614853D01*
X154279269Y-107612000D01*
X154279265Y-107612000D01*
X153770733Y-107612000D01*
X153761073Y-107612905D01*
X153692490Y-107599565D01*
X153642006Y-107551263D01*
X153625499Y-107489447D01*
X153625499Y-105900079D01*
X153636705Y-105848567D01*
X153640597Y-105840045D01*
X153685165Y-105742457D01*
X153705647Y-105600000D01*
X153685165Y-105457543D01*
X153625377Y-105326627D01*
X153531128Y-105217857D01*
X153410053Y-105140047D01*
X153410051Y-105140046D01*
X153410049Y-105140045D01*
X153410050Y-105140045D01*
X153271963Y-105099500D01*
X153271961Y-105099500D01*
X153128039Y-105099500D01*
X153128036Y-105099500D01*
X152989949Y-105140045D01*
X152868873Y-105217856D01*
X152774623Y-105326626D01*
X152774622Y-105326628D01*
X152714834Y-105457543D01*
X152694353Y-105600000D01*
X152714834Y-105742456D01*
X152753275Y-105826628D01*
X152774623Y-105873373D01*
X152844212Y-105953684D01*
X152873237Y-106017239D01*
X152874499Y-106034886D01*
X152874499Y-107488000D01*
X152854814Y-107555039D01*
X152802010Y-107600794D01*
X152750499Y-107612000D01*
X152270733Y-107612000D01*
X152261073Y-107612905D01*
X152192490Y-107599565D01*
X152142006Y-107551263D01*
X152125499Y-107489447D01*
X152125499Y-98302304D01*
X152128138Y-98276859D01*
X152128784Y-98273775D01*
X152130366Y-98266232D01*
X152128497Y-98251240D01*
X152125976Y-98231006D01*
X152125499Y-98223330D01*
X152125499Y-98219389D01*
X152125497Y-98219376D01*
X152121656Y-98196359D01*
X152114865Y-98141876D01*
X152114865Y-98141874D01*
X152114863Y-98141870D01*
X152112619Y-98134332D01*
X152111865Y-98132136D01*
X152110225Y-98122313D01*
X152108289Y-98116246D01*
X152108264Y-98116091D01*
X152109163Y-98115945D01*
X152107930Y-98108561D01*
X152106408Y-98108780D01*
X152084664Y-97957543D01*
X152024876Y-97826628D01*
X152024875Y-97826626D01*
X151930627Y-97717857D01*
X151809552Y-97640047D01*
X151809550Y-97640046D01*
X151809548Y-97640045D01*
X151809549Y-97640045D01*
X151671462Y-97599500D01*
X151671460Y-97599500D01*
X151527538Y-97599500D01*
X151527535Y-97599500D01*
X151389448Y-97640045D01*
X151268372Y-97717856D01*
X151174122Y-97826626D01*
X151174121Y-97826628D01*
X151114333Y-97957543D01*
X151093852Y-98099999D01*
X151114333Y-98242456D01*
X151174121Y-98373371D01*
X151174122Y-98373373D01*
X151268371Y-98482143D01*
X151317539Y-98513741D01*
X151363293Y-98566544D01*
X151374499Y-98618056D01*
X151374499Y-107488000D01*
X151354814Y-107555039D01*
X151302010Y-107600794D01*
X151250499Y-107612000D01*
X150770729Y-107612000D01*
X150740299Y-107614853D01*
X150740297Y-107614853D01*
X150612118Y-107659706D01*
X150612116Y-107659707D01*
X150502849Y-107740350D01*
X150422206Y-107849617D01*
X150422205Y-107849619D01*
X150392040Y-107935826D01*
X150351318Y-107992602D01*
X150286365Y-108018349D01*
X150217804Y-108004892D01*
X150167401Y-107956505D01*
X150157958Y-107935826D01*
X150127792Y-107849619D01*
X150127791Y-107849617D01*
X150084050Y-107790350D01*
X150047149Y-107740350D01*
X149937881Y-107659707D01*
X149937879Y-107659706D01*
X149809699Y-107614853D01*
X149779269Y-107612000D01*
X149779265Y-107612000D01*
X149299500Y-107612000D01*
X149232461Y-107592315D01*
X149186706Y-107539511D01*
X149175500Y-107488000D01*
X149175500Y-104524500D01*
X149195185Y-104457461D01*
X149247989Y-104411706D01*
X149299500Y-104400500D01*
X149446462Y-104400500D01*
X149446462Y-104400499D01*
X149553621Y-104369035D01*
X149584550Y-104359954D01*
X149584550Y-104359953D01*
X149584553Y-104359953D01*
X149705628Y-104282143D01*
X149799877Y-104173373D01*
X149799877Y-104173372D01*
X149805685Y-104166670D01*
X149808119Y-104168779D01*
X149848981Y-104133367D01*
X149918139Y-104123419D01*
X149981696Y-104152440D01*
X150019475Y-104211215D01*
X150024500Y-104246158D01*
X150024500Y-104409405D01*
X150015967Y-104448633D01*
X150017333Y-104449035D01*
X150014835Y-104457542D01*
X149994353Y-104600000D01*
X150014834Y-104742456D01*
X150074622Y-104873371D01*
X150074623Y-104873373D01*
X150168872Y-104982143D01*
X150289947Y-105059953D01*
X150289950Y-105059954D01*
X150289949Y-105059954D01*
X150397107Y-105091417D01*
X150424633Y-105099500D01*
X150428036Y-105100499D01*
X150428038Y-105100500D01*
X150428039Y-105100500D01*
X150571962Y-105100500D01*
X150571962Y-105100499D01*
X150710053Y-105059953D01*
X150831128Y-104982143D01*
X150925377Y-104873373D01*
X150985165Y-104742457D01*
X151005647Y-104600000D01*
X150985165Y-104457543D01*
X150925377Y-104326627D01*
X150831128Y-104217857D01*
X150831125Y-104217855D01*
X150824423Y-104212047D01*
X150825552Y-104210743D01*
X150786701Y-104165898D01*
X150775500Y-104114397D01*
X150775500Y-96981966D01*
X150795185Y-96914927D01*
X150811814Y-96894290D01*
X150928888Y-96777216D01*
X150948745Y-96761092D01*
X150957835Y-96755154D01*
X150979650Y-96727124D01*
X150984718Y-96721386D01*
X150987519Y-96718587D01*
X151001087Y-96699583D01*
X151034808Y-96656259D01*
X151034809Y-96656253D01*
X151038542Y-96649357D01*
X151042005Y-96642273D01*
X151042009Y-96642269D01*
X151052467Y-96607139D01*
X151057672Y-96589658D01*
X151063263Y-96573371D01*
X151075499Y-96537730D01*
X151075499Y-96537724D01*
X151076794Y-96529965D01*
X151077768Y-96522156D01*
X151075499Y-96467301D01*
X151075499Y-95287000D01*
X151095184Y-95219961D01*
X151147988Y-95174206D01*
X151199499Y-95163000D01*
X151279269Y-95163000D01*
X151303611Y-95160716D01*
X151309698Y-95160146D01*
X151376497Y-95136771D01*
X151446273Y-95133209D01*
X151505132Y-95166132D01*
X152433604Y-96094604D01*
X152467089Y-96155927D01*
X152462105Y-96225619D01*
X152420233Y-96281552D01*
X152380858Y-96301262D01*
X152270965Y-96333528D01*
X152149890Y-96411339D01*
X152149889Y-96411339D01*
X152149889Y-96411340D01*
X152139786Y-96423000D01*
X152055640Y-96520109D01*
X152055639Y-96520111D01*
X151995851Y-96651026D01*
X151975370Y-96793483D01*
X151995851Y-96935939D01*
X152052487Y-97059953D01*
X152055640Y-97066856D01*
X152149889Y-97175626D01*
X152270964Y-97253436D01*
X152270967Y-97253437D01*
X152270966Y-97253437D01*
X152409054Y-97293983D01*
X152416581Y-97295065D01*
X152480137Y-97324087D01*
X152486619Y-97330122D01*
X152734884Y-97578388D01*
X152751009Y-97598244D01*
X152756947Y-97607332D01*
X152756950Y-97607336D01*
X152784959Y-97629136D01*
X152790721Y-97634225D01*
X152793516Y-97637020D01*
X152812529Y-97650594D01*
X152855845Y-97684309D01*
X152855852Y-97684311D01*
X152862754Y-97688047D01*
X152869830Y-97691506D01*
X152869835Y-97691510D01*
X152922436Y-97707169D01*
X152922437Y-97707170D01*
X152974372Y-97725000D01*
X152982106Y-97726290D01*
X152989944Y-97727267D01*
X152989946Y-97727268D01*
X152989947Y-97727267D01*
X152989948Y-97727268D01*
X153044790Y-97725000D01*
X156731274Y-97725000D01*
X156798313Y-97744685D01*
X156818955Y-97761319D01*
X158113180Y-99055544D01*
X158146665Y-99116867D01*
X158149499Y-99143225D01*
X158149499Y-101473195D01*
X158146861Y-101498633D01*
X158144632Y-101509267D01*
X158144632Y-101509268D01*
X158144632Y-101509270D01*
X158149022Y-101544490D01*
X158149499Y-101552166D01*
X158149499Y-101556115D01*
X158153341Y-101579140D01*
X158160133Y-101633626D01*
X158162372Y-101641146D01*
X158164933Y-101648607D01*
X158164934Y-101648609D01*
X158169769Y-101657543D01*
X158191054Y-101696876D01*
X158219686Y-101755441D01*
X158216105Y-101757191D01*
X158232490Y-101804340D01*
X158216103Y-101872261D01*
X158165597Y-101920540D01*
X158097006Y-101933849D01*
X158073704Y-101929373D01*
X157971964Y-101899500D01*
X157971961Y-101899500D01*
X157946544Y-101899500D01*
X157879505Y-101879815D01*
X157858863Y-101863181D01*
X157132637Y-101136955D01*
X157116511Y-101117098D01*
X157111437Y-101109331D01*
X157085487Y-101089133D01*
X157079741Y-101084059D01*
X157077307Y-101081625D01*
X157077306Y-101081624D01*
X157077305Y-101081623D01*
X157070848Y-101077013D01*
X157059561Y-101068955D01*
X157019126Y-101037483D01*
X157019122Y-101037481D01*
X157012648Y-101033977D01*
X157006069Y-101030760D01*
X156956954Y-101016138D01*
X156908486Y-100999498D01*
X156901269Y-100998294D01*
X156893953Y-100997382D01*
X156844725Y-100999419D01*
X156842769Y-100999500D01*
X155399211Y-100999500D01*
X155373765Y-100996861D01*
X155364685Y-100994957D01*
X155364684Y-100994957D01*
X155364682Y-100994957D01*
X155332061Y-100999023D01*
X155324385Y-100999500D01*
X155320952Y-100999500D01*
X155317254Y-101000117D01*
X155279226Y-101000544D01*
X155271962Y-100999500D01*
X155271961Y-100999500D01*
X155128039Y-100999500D01*
X155128036Y-100999500D01*
X154989949Y-101040045D01*
X154868873Y-101117856D01*
X154774623Y-101226626D01*
X154774622Y-101226628D01*
X154714834Y-101357543D01*
X154694353Y-101500000D01*
X154714834Y-101642456D01*
X154767233Y-101757191D01*
X154774623Y-101773373D01*
X154868872Y-101882143D01*
X154989947Y-101959953D01*
X154989950Y-101959954D01*
X154989949Y-101959954D01*
X155128036Y-102000499D01*
X155128038Y-102000500D01*
X155215984Y-102000500D01*
X155283023Y-102020185D01*
X155328778Y-102072988D01*
X155354905Y-102130198D01*
X155374623Y-102173373D01*
X155468872Y-102282143D01*
X155589947Y-102359953D01*
X155589950Y-102359954D01*
X155589949Y-102359954D01*
X155671691Y-102383955D01*
X155726336Y-102400000D01*
X155728036Y-102400499D01*
X155728038Y-102400500D01*
X155728039Y-102400500D01*
X155871962Y-102400500D01*
X155871962Y-102400499D01*
X156010053Y-102359953D01*
X156110834Y-102295184D01*
X156177874Y-102275500D01*
X156193101Y-102275500D01*
X156260140Y-102295185D01*
X156280782Y-102311819D01*
X156825665Y-102856702D01*
X156859150Y-102918025D01*
X156860722Y-102926735D01*
X156871067Y-102998687D01*
X156871068Y-102998691D01*
X156910786Y-103085660D01*
X156930856Y-103129606D01*
X157025105Y-103238376D01*
X157146180Y-103316186D01*
X157146183Y-103316187D01*
X157146182Y-103316187D01*
X157284269Y-103356732D01*
X157284271Y-103356733D01*
X157284272Y-103356733D01*
X157428195Y-103356733D01*
X157428195Y-103356732D01*
X157535354Y-103325268D01*
X157566283Y-103316187D01*
X157566283Y-103316186D01*
X157566286Y-103316186D01*
X157687361Y-103238376D01*
X157781610Y-103129606D01*
X157841398Y-102998690D01*
X157841399Y-102998682D01*
X157843898Y-102990175D01*
X157847385Y-102991199D01*
X157869194Y-102943361D01*
X157927947Y-102905546D01*
X157962962Y-102900500D01*
X157971962Y-102900500D01*
X157971962Y-102900499D01*
X158110053Y-102859953D01*
X158231128Y-102782143D01*
X158325377Y-102673373D01*
X158385165Y-102542457D01*
X158405647Y-102400000D01*
X158403340Y-102383954D01*
X158413281Y-102314796D01*
X158459035Y-102261991D01*
X158526074Y-102242305D01*
X158580907Y-102258404D01*
X158581882Y-102256270D01*
X158589949Y-102259954D01*
X158728036Y-102300499D01*
X158728038Y-102300500D01*
X158728039Y-102300500D01*
X158871962Y-102300500D01*
X158871962Y-102300499D01*
X159010053Y-102259953D01*
X159131128Y-102182143D01*
X159225377Y-102073373D01*
X159285165Y-101942457D01*
X159305647Y-101800000D01*
X159285165Y-101657543D01*
X159225377Y-101526627D01*
X159131128Y-101417857D01*
X159010053Y-101340047D01*
X159010052Y-101340046D01*
X159010051Y-101340046D01*
X158989563Y-101334030D01*
X158930785Y-101296254D01*
X158901761Y-101232698D01*
X158900499Y-101215053D01*
X158900499Y-98988129D01*
X158903138Y-98962684D01*
X158903176Y-98962501D01*
X158905366Y-98952058D01*
X158903065Y-98933601D01*
X158900976Y-98916833D01*
X158900499Y-98909157D01*
X158900499Y-98905215D01*
X158900497Y-98905202D01*
X158896656Y-98882185D01*
X158889865Y-98827702D01*
X158889865Y-98827700D01*
X158889863Y-98827696D01*
X158887621Y-98820166D01*
X158885064Y-98812718D01*
X158885064Y-98812716D01*
X158858943Y-98764448D01*
X158834825Y-98715115D01*
X158834823Y-98715113D01*
X158834823Y-98715112D01*
X158830275Y-98708742D01*
X158825419Y-98702502D01*
X158825418Y-98702500D01*
X158785028Y-98665318D01*
X158219709Y-98099999D01*
X157425131Y-97305420D01*
X157391646Y-97244097D01*
X157396630Y-97174405D01*
X157438502Y-97118472D01*
X157477872Y-97098764D01*
X157610053Y-97059953D01*
X157731128Y-96982143D01*
X157825377Y-96873373D01*
X157885165Y-96742457D01*
X157899047Y-96645899D01*
X157928071Y-96582345D01*
X157986849Y-96544570D01*
X158056719Y-96544570D01*
X158088825Y-96559232D01*
X158089948Y-96559954D01*
X158191114Y-96589658D01*
X158227763Y-96600419D01*
X158228036Y-96600499D01*
X158228038Y-96600500D01*
X158228039Y-96600500D01*
X158371962Y-96600500D01*
X158371962Y-96600499D01*
X158479121Y-96569035D01*
X158510050Y-96559954D01*
X158510050Y-96559953D01*
X158510053Y-96559953D01*
X158631128Y-96482143D01*
X158725377Y-96373373D01*
X158785165Y-96242457D01*
X158805647Y-96100000D01*
X158785165Y-95957543D01*
X158725377Y-95826627D01*
X158631128Y-95717857D01*
X158631125Y-95717855D01*
X158631123Y-95717853D01*
X158511248Y-95640814D01*
X158465493Y-95588011D01*
X158455549Y-95518852D01*
X158484574Y-95455296D01*
X158543352Y-95417522D01*
X158578287Y-95412499D01*
X158781580Y-95412499D01*
X158852101Y-95406091D01*
X158852106Y-95406090D01*
X159014395Y-95355518D01*
X159159874Y-95267573D01*
X159280076Y-95147370D01*
X159327638Y-95068692D01*
X159327637Y-95068690D01*
X158259127Y-94000180D01*
X158225642Y-93938857D01*
X158227527Y-93912500D01*
X158878552Y-93912500D01*
X159424997Y-94458946D01*
X159424998Y-94458945D01*
X159424998Y-93366053D01*
X159424997Y-93366052D01*
X158878552Y-93912499D01*
X158878552Y-93912500D01*
X158227527Y-93912500D01*
X158230626Y-93869165D01*
X158259127Y-93824818D01*
X158524999Y-93558947D01*
X159327637Y-92756307D01*
X159327638Y-92756305D01*
X159280078Y-92677631D01*
X159280077Y-92677630D01*
X159159874Y-92557426D01*
X159014394Y-92469480D01*
X159014395Y-92469480D01*
X158852104Y-92418909D01*
X158852105Y-92418909D01*
X158781571Y-92412500D01*
X158299499Y-92412500D01*
X158232460Y-92392815D01*
X158186705Y-92340011D01*
X158175499Y-92288500D01*
X158175499Y-91255513D01*
X158195184Y-91188474D01*
X158247988Y-91142719D01*
X158299499Y-91131513D01*
X158380392Y-91131513D01*
X158380394Y-91131513D01*
X158580874Y-91094037D01*
X158771055Y-91020361D01*
X158944459Y-90912994D01*
X159095182Y-90775592D01*
X159218091Y-90612834D01*
X159309000Y-90430263D01*
X159364815Y-90234096D01*
X159383633Y-90031013D01*
X159364815Y-89827930D01*
X159309000Y-89631763D01*
X159293692Y-89601021D01*
X159237578Y-89488327D01*
X159218091Y-89449192D01*
X159095182Y-89286434D01*
X159095180Y-89286431D01*
X158944459Y-89149032D01*
X158944457Y-89149030D01*
X158771060Y-89041668D01*
X158771053Y-89041664D01*
X158645187Y-88992904D01*
X158580874Y-88967989D01*
X158380394Y-88930513D01*
X158176442Y-88930513D01*
X157975962Y-88967989D01*
X157975959Y-88967989D01*
X157975959Y-88967990D01*
X157785782Y-89041664D01*
X157785775Y-89041668D01*
X157612378Y-89149030D01*
X157612376Y-89149032D01*
X157461655Y-89286431D01*
X157338745Y-89449191D01*
X157247840Y-89631752D01*
X157247835Y-89631765D01*
X157192020Y-89827930D01*
X157173203Y-90031012D01*
X157173203Y-90031013D01*
X157192020Y-90234095D01*
X157247835Y-90430260D01*
X157247840Y-90430273D01*
X157338745Y-90612835D01*
X157399452Y-90693222D01*
X157424145Y-90758583D01*
X157424499Y-90767950D01*
X157424499Y-92539447D01*
X157404814Y-92606486D01*
X157352010Y-92652241D01*
X157288924Y-92662905D01*
X157279265Y-92662000D01*
X156770733Y-92662000D01*
X156770729Y-92662000D01*
X156740299Y-92664853D01*
X156740297Y-92664853D01*
X156612118Y-92709706D01*
X156612116Y-92709707D01*
X156502849Y-92790350D01*
X156422206Y-92899617D01*
X156422205Y-92899619D01*
X156392040Y-92985826D01*
X156351318Y-93042602D01*
X156286365Y-93068349D01*
X156217804Y-93054892D01*
X156167401Y-93006505D01*
X156157958Y-92985826D01*
X156127792Y-92899619D01*
X156127791Y-92899617D01*
X156047149Y-92790350D01*
X155937881Y-92709707D01*
X155937879Y-92709706D01*
X155809699Y-92664853D01*
X155779269Y-92662000D01*
X155779265Y-92662000D01*
X155270733Y-92662000D01*
X155270729Y-92662000D01*
X155240299Y-92664853D01*
X155240297Y-92664853D01*
X155112118Y-92709706D01*
X155112116Y-92709707D01*
X155002849Y-92790350D01*
X154922206Y-92899617D01*
X154922205Y-92899619D01*
X154892040Y-92985826D01*
X154851318Y-93042602D01*
X154786365Y-93068349D01*
X154717804Y-93054892D01*
X154667401Y-93006505D01*
X154657958Y-92985826D01*
X154627792Y-92899619D01*
X154627791Y-92899617D01*
X154547149Y-92790350D01*
X154437881Y-92709707D01*
X154437879Y-92709706D01*
X154309699Y-92664853D01*
X154279269Y-92662000D01*
X154279265Y-92662000D01*
X153770733Y-92662000D01*
X153770729Y-92662000D01*
X153740299Y-92664853D01*
X153740297Y-92664853D01*
X153612118Y-92709706D01*
X153612116Y-92709707D01*
X153502849Y-92790350D01*
X153422206Y-92899617D01*
X153422205Y-92899619D01*
X153392040Y-92985826D01*
X153351318Y-93042602D01*
X153286365Y-93068349D01*
X153217804Y-93054892D01*
X153167401Y-93006505D01*
X153157958Y-92985826D01*
X153127792Y-92899619D01*
X153127791Y-92899617D01*
X153047149Y-92790350D01*
X152937881Y-92709707D01*
X152937879Y-92709706D01*
X152809699Y-92664853D01*
X152779269Y-92662000D01*
X152779265Y-92662000D01*
X152270733Y-92662000D01*
X152270729Y-92662000D01*
X152240299Y-92664853D01*
X152240297Y-92664853D01*
X152112118Y-92709706D01*
X152112116Y-92709707D01*
X152002849Y-92790350D01*
X151922206Y-92899617D01*
X151922205Y-92899619D01*
X151892040Y-92985826D01*
X151851318Y-93042602D01*
X151786365Y-93068349D01*
X151717804Y-93054892D01*
X151667401Y-93006505D01*
X151657958Y-92985826D01*
X151627792Y-92899619D01*
X151627791Y-92899617D01*
X151547149Y-92790350D01*
X151437881Y-92709707D01*
X151437879Y-92709706D01*
X151309699Y-92664853D01*
X151279269Y-92662000D01*
X151279265Y-92662000D01*
X150770733Y-92662000D01*
X150761073Y-92662905D01*
X150692490Y-92649565D01*
X150642006Y-92601263D01*
X150625499Y-92539447D01*
X150625499Y-92214397D01*
X150628138Y-92188952D01*
X150628176Y-92188769D01*
X150630366Y-92178326D01*
X150628324Y-92161947D01*
X150625976Y-92143101D01*
X150625499Y-92135425D01*
X150625499Y-92131483D01*
X150625497Y-92131470D01*
X150621656Y-92108453D01*
X150614865Y-92053970D01*
X150614865Y-92053968D01*
X150614863Y-92053964D01*
X150612621Y-92046434D01*
X150610064Y-92038986D01*
X150610064Y-92038984D01*
X150583943Y-91990716D01*
X150559825Y-91941383D01*
X150559823Y-91941381D01*
X150559823Y-91941380D01*
X150555275Y-91935010D01*
X150550419Y-91928770D01*
X150550418Y-91928768D01*
X150510028Y-91891586D01*
X149854373Y-91235931D01*
X149178128Y-90559685D01*
X149144643Y-90498362D01*
X149149085Y-90436247D01*
X149147431Y-90435777D01*
X149165915Y-90370813D01*
X149204815Y-90234096D01*
X149223633Y-90031013D01*
X149553203Y-90031013D01*
X149572020Y-90234095D01*
X149627835Y-90430260D01*
X149627840Y-90430273D01*
X149718745Y-90612834D01*
X149841655Y-90775594D01*
X149992376Y-90912993D01*
X149992378Y-90912995D01*
X149997033Y-90915877D01*
X150165781Y-91020361D01*
X150355962Y-91094037D01*
X150556442Y-91131513D01*
X150556444Y-91131513D01*
X150760392Y-91131513D01*
X150760394Y-91131513D01*
X150960874Y-91094037D01*
X151151055Y-91020361D01*
X151324459Y-90912994D01*
X151475182Y-90775592D01*
X151598091Y-90612834D01*
X151689000Y-90430263D01*
X151744815Y-90234096D01*
X151763633Y-90031013D01*
X152093203Y-90031013D01*
X152112020Y-90234095D01*
X152167835Y-90430260D01*
X152167840Y-90430273D01*
X152258745Y-90612834D01*
X152381655Y-90775594D01*
X152532376Y-90912993D01*
X152532378Y-90912995D01*
X152537033Y-90915877D01*
X152705781Y-91020361D01*
X152895962Y-91094037D01*
X153096442Y-91131513D01*
X153096444Y-91131513D01*
X153300392Y-91131513D01*
X153300394Y-91131513D01*
X153500874Y-91094037D01*
X153691055Y-91020361D01*
X153864459Y-90912994D01*
X154015182Y-90775592D01*
X154138091Y-90612834D01*
X154229000Y-90430263D01*
X154284815Y-90234096D01*
X154303633Y-90031013D01*
X154633203Y-90031013D01*
X154652020Y-90234095D01*
X154707835Y-90430260D01*
X154707840Y-90430273D01*
X154798745Y-90612834D01*
X154921655Y-90775594D01*
X155072376Y-90912993D01*
X155072378Y-90912995D01*
X155077033Y-90915877D01*
X155245781Y-91020361D01*
X155435962Y-91094037D01*
X155636442Y-91131513D01*
X155636444Y-91131513D01*
X155840392Y-91131513D01*
X155840394Y-91131513D01*
X156040874Y-91094037D01*
X156231055Y-91020361D01*
X156404459Y-90912994D01*
X156555182Y-90775592D01*
X156678091Y-90612834D01*
X156769000Y-90430263D01*
X156824815Y-90234096D01*
X156843633Y-90031013D01*
X156824815Y-89827930D01*
X156769000Y-89631763D01*
X156753692Y-89601021D01*
X156697578Y-89488327D01*
X156678091Y-89449192D01*
X156555182Y-89286434D01*
X156555180Y-89286431D01*
X156404459Y-89149032D01*
X156404457Y-89149030D01*
X156231060Y-89041668D01*
X156231053Y-89041664D01*
X156105187Y-88992904D01*
X156040874Y-88967989D01*
X155840394Y-88930513D01*
X155636442Y-88930513D01*
X155435962Y-88967989D01*
X155435959Y-88967989D01*
X155435959Y-88967990D01*
X155245782Y-89041664D01*
X155245775Y-89041668D01*
X155072378Y-89149030D01*
X155072376Y-89149032D01*
X154921655Y-89286431D01*
X154798745Y-89449191D01*
X154707840Y-89631752D01*
X154707835Y-89631765D01*
X154652020Y-89827930D01*
X154633203Y-90031012D01*
X154633203Y-90031013D01*
X154303633Y-90031013D01*
X154284815Y-89827930D01*
X154229000Y-89631763D01*
X154213692Y-89601021D01*
X154157578Y-89488327D01*
X154138091Y-89449192D01*
X154015182Y-89286434D01*
X154015180Y-89286431D01*
X153864459Y-89149032D01*
X153864457Y-89149030D01*
X153691060Y-89041668D01*
X153691053Y-89041664D01*
X153565187Y-88992904D01*
X153500874Y-88967989D01*
X153300394Y-88930513D01*
X153096442Y-88930513D01*
X152895962Y-88967989D01*
X152895959Y-88967989D01*
X152895959Y-88967990D01*
X152705782Y-89041664D01*
X152705775Y-89041668D01*
X152532378Y-89149030D01*
X152532376Y-89149032D01*
X152381655Y-89286431D01*
X152258745Y-89449191D01*
X152167840Y-89631752D01*
X152167835Y-89631765D01*
X152112020Y-89827930D01*
X152093203Y-90031012D01*
X152093203Y-90031013D01*
X151763633Y-90031013D01*
X151744815Y-89827930D01*
X151689000Y-89631763D01*
X151673692Y-89601021D01*
X151617578Y-89488327D01*
X151598091Y-89449192D01*
X151475182Y-89286434D01*
X151475180Y-89286431D01*
X151324459Y-89149032D01*
X151324457Y-89149030D01*
X151151060Y-89041668D01*
X151151053Y-89041664D01*
X151025187Y-88992904D01*
X150960874Y-88967989D01*
X150760394Y-88930513D01*
X150556442Y-88930513D01*
X150355962Y-88967989D01*
X150355959Y-88967989D01*
X150355959Y-88967990D01*
X150165782Y-89041664D01*
X150165775Y-89041668D01*
X149992378Y-89149030D01*
X149992376Y-89149032D01*
X149841655Y-89286431D01*
X149718745Y-89449191D01*
X149627840Y-89631752D01*
X149627835Y-89631765D01*
X149572020Y-89827930D01*
X149553203Y-90031012D01*
X149553203Y-90031013D01*
X149223633Y-90031013D01*
X149204815Y-89827930D01*
X149149000Y-89631763D01*
X149133692Y-89601021D01*
X149077578Y-89488327D01*
X149058091Y-89449192D01*
X148935182Y-89286434D01*
X148935180Y-89286431D01*
X148784459Y-89149032D01*
X148784457Y-89149030D01*
X148611060Y-89041668D01*
X148611053Y-89041664D01*
X148485187Y-88992904D01*
X148420874Y-88967989D01*
X148220394Y-88930513D01*
X148016442Y-88930513D01*
X147815962Y-88967989D01*
X147815959Y-88967989D01*
X147815959Y-88967990D01*
X147625782Y-89041664D01*
X147625775Y-89041668D01*
X147452378Y-89149030D01*
X147452376Y-89149032D01*
X147301655Y-89286431D01*
X147178745Y-89449191D01*
X147087840Y-89631752D01*
X147087835Y-89631765D01*
X147032020Y-89827930D01*
X147013203Y-90031012D01*
X147013203Y-90031013D01*
X147032020Y-90234095D01*
X147065173Y-90350611D01*
X147064587Y-90420479D01*
X147026320Y-90478937D01*
X146962523Y-90507428D01*
X146893450Y-90496904D01*
X146858226Y-90472227D01*
X146702183Y-90316184D01*
X146668698Y-90254861D01*
X146666393Y-90217062D01*
X146676972Y-90102902D01*
X146683633Y-90031013D01*
X146664815Y-89827930D01*
X146609000Y-89631763D01*
X146593692Y-89601021D01*
X146537578Y-89488327D01*
X146518091Y-89449192D01*
X146395182Y-89286434D01*
X146395180Y-89286431D01*
X146244459Y-89149032D01*
X146244457Y-89149030D01*
X146071060Y-89041668D01*
X146071053Y-89041664D01*
X145945187Y-88992904D01*
X145880874Y-88967989D01*
X145680394Y-88930513D01*
X145476442Y-88930513D01*
X145275962Y-88967989D01*
X145275959Y-88967989D01*
X145275959Y-88967990D01*
X145085782Y-89041664D01*
X145085775Y-89041668D01*
X144912378Y-89149030D01*
X144912376Y-89149032D01*
X144761655Y-89286431D01*
X144638745Y-89449191D01*
X144547840Y-89631752D01*
X144547835Y-89631765D01*
X144492020Y-89827930D01*
X144473203Y-90031012D01*
X144473203Y-90031013D01*
X144492020Y-90234095D01*
X144547835Y-90430260D01*
X144547840Y-90430273D01*
X144638745Y-90612834D01*
X144761655Y-90775594D01*
X144912376Y-90912993D01*
X144912378Y-90912995D01*
X144917033Y-90915877D01*
X145085781Y-91020361D01*
X145275962Y-91094037D01*
X145476442Y-91131513D01*
X145476444Y-91131513D01*
X145680392Y-91131513D01*
X145680394Y-91131513D01*
X145880874Y-91094037D01*
X146071055Y-91020361D01*
X146156294Y-90967582D01*
X146223652Y-90949026D01*
X146290352Y-90969833D01*
X146309252Y-90985328D01*
X147784825Y-92460901D01*
X147818310Y-92522224D01*
X147813326Y-92591916D01*
X147771454Y-92647849D01*
X147738100Y-92665623D01*
X147612116Y-92709707D01*
X147502849Y-92790350D01*
X147422206Y-92899617D01*
X147422205Y-92899619D01*
X147377352Y-93027798D01*
X147377352Y-93027800D01*
X147374499Y-93058230D01*
X147374499Y-94766769D01*
X147377352Y-94797199D01*
X147377352Y-94797201D01*
X147422205Y-94925380D01*
X147422206Y-94925382D01*
X147502849Y-95034650D01*
X147612117Y-95115293D01*
X147635886Y-95123610D01*
X147740298Y-95160146D01*
X147770729Y-95163000D01*
X148137378Y-95163000D01*
X148204417Y-95182685D01*
X148250172Y-95235489D01*
X148260116Y-95304647D01*
X148231091Y-95368201D01*
X148218389Y-95382859D01*
X148218390Y-95382860D01*
X148218389Y-95382861D01*
X148158602Y-95513774D01*
X148158601Y-95513779D01*
X148148256Y-95585729D01*
X148119230Y-95649284D01*
X148113199Y-95655762D01*
X147880781Y-95888181D01*
X147819458Y-95921666D01*
X147793100Y-95924500D01*
X145077874Y-95924500D01*
X145010835Y-95904815D01*
X145010834Y-95904815D01*
X144910053Y-95840047D01*
X144910052Y-95840046D01*
X144910051Y-95840046D01*
X144910050Y-95840045D01*
X144771963Y-95799500D01*
X144771961Y-95799500D01*
X144628039Y-95799500D01*
X144628036Y-95799500D01*
X144489949Y-95840045D01*
X144368873Y-95917856D01*
X144274623Y-96026626D01*
X144274622Y-96026628D01*
X144214834Y-96157543D01*
X144195362Y-96292983D01*
X144194353Y-96300000D01*
X144197297Y-96320480D01*
X144214834Y-96442456D01*
X144254714Y-96529779D01*
X144274623Y-96573373D01*
X144368872Y-96682143D01*
X144489947Y-96759953D01*
X144489950Y-96759954D01*
X144489949Y-96759954D01*
X144628036Y-96800499D01*
X144628038Y-96800500D01*
X144628039Y-96800500D01*
X144771962Y-96800500D01*
X144771962Y-96800499D01*
X144910053Y-96759953D01*
X145010834Y-96695184D01*
X145077874Y-96675500D01*
X147948196Y-96675500D01*
X147973641Y-96678139D01*
X147977440Y-96678935D01*
X147984268Y-96680367D01*
X148005225Y-96677754D01*
X148019492Y-96675977D01*
X148027168Y-96675500D01*
X148031112Y-96675500D01*
X148031114Y-96675500D01*
X148031116Y-96675499D01*
X148031122Y-96675499D01*
X148046487Y-96672934D01*
X148054140Y-96671657D01*
X148108626Y-96664866D01*
X148108627Y-96664865D01*
X148108629Y-96664865D01*
X148116141Y-96662628D01*
X148123606Y-96660066D01*
X148123606Y-96660065D01*
X148123610Y-96660065D01*
X148171877Y-96633944D01*
X148221211Y-96609826D01*
X148221213Y-96609823D01*
X148227594Y-96605268D01*
X148233818Y-96600423D01*
X148233826Y-96600419D01*
X148271007Y-96560029D01*
X148638166Y-96192871D01*
X148699488Y-96159387D01*
X148708203Y-96157815D01*
X148715724Y-96156733D01*
X148715728Y-96156733D01*
X148742428Y-96148892D01*
X148812297Y-96148892D01*
X148871075Y-96186666D01*
X148900101Y-96250222D01*
X148900101Y-96285515D01*
X148894353Y-96325497D01*
X148894353Y-96325500D01*
X148894515Y-96326627D01*
X148914834Y-96467956D01*
X148974622Y-96598871D01*
X148974623Y-96598873D01*
X149068872Y-96707643D01*
X149189947Y-96785453D01*
X149189950Y-96785454D01*
X149189949Y-96785454D01*
X149328036Y-96825999D01*
X149328038Y-96826000D01*
X149400500Y-96826000D01*
X149467539Y-96845685D01*
X149513294Y-96898489D01*
X149524500Y-96950000D01*
X149524500Y-98866562D01*
X149504815Y-98933601D01*
X149452011Y-98979356D01*
X149398961Y-98986988D01*
X149398961Y-98990341D01*
X149246168Y-98990341D01*
X149108081Y-99030886D01*
X148987005Y-99108697D01*
X148892754Y-99217468D01*
X148885549Y-99233246D01*
X148839793Y-99286049D01*
X148772755Y-99305733D01*
X148621803Y-99305733D01*
X148483716Y-99346278D01*
X148362640Y-99424089D01*
X148268390Y-99532859D01*
X148268389Y-99532861D01*
X148208601Y-99663776D01*
X148188120Y-99806233D01*
X148208601Y-99948689D01*
X148268389Y-100079604D01*
X148268390Y-100079606D01*
X148362639Y-100188376D01*
X148367535Y-100191522D01*
X148413292Y-100244323D01*
X148424500Y-100295840D01*
X148424500Y-105678644D01*
X148404815Y-105745683D01*
X148352011Y-105791438D01*
X148282853Y-105801382D01*
X148278557Y-105800448D01*
X148271962Y-105799500D01*
X148271961Y-105799500D01*
X148128039Y-105799500D01*
X148128036Y-105799500D01*
X147989949Y-105840045D01*
X147871752Y-105916006D01*
X147820055Y-105934737D01*
X147816881Y-105935132D01*
X147809342Y-105937377D01*
X147801883Y-105939937D01*
X147753618Y-105966058D01*
X147704291Y-105990172D01*
X147697881Y-105994748D01*
X147691675Y-105999579D01*
X147654492Y-106039970D01*
X145371108Y-108323352D01*
X145351254Y-108339476D01*
X145342165Y-108345414D01*
X145342164Y-108345415D01*
X145320363Y-108373423D01*
X145315286Y-108379174D01*
X145312484Y-108381977D01*
X145312474Y-108381988D01*
X145298905Y-108400995D01*
X145265192Y-108444308D01*
X145261447Y-108451229D01*
X145257988Y-108458304D01*
X145242329Y-108510903D01*
X145224500Y-108562838D01*
X145223206Y-108570592D01*
X145222231Y-108578411D01*
X145224500Y-108633255D01*
X145224500Y-110422815D01*
X145204815Y-110489854D01*
X145194215Y-110504016D01*
X145174623Y-110526627D01*
X145174622Y-110526628D01*
X145114834Y-110657543D01*
X145094353Y-110800000D01*
X145114834Y-110942456D01*
X145168494Y-111059952D01*
X145174623Y-111073373D01*
X145268872Y-111182143D01*
X145389947Y-111259953D01*
X145389950Y-111259954D01*
X145389949Y-111259954D01*
X145492865Y-111290172D01*
X145524909Y-111299581D01*
X145528036Y-111300499D01*
X145528038Y-111300500D01*
X145528039Y-111300500D01*
X145671962Y-111300500D01*
X145671962Y-111300499D01*
X145789254Y-111266060D01*
X145810050Y-111259954D01*
X145810050Y-111259953D01*
X145810053Y-111259953D01*
X145931128Y-111182143D01*
X146025377Y-111073373D01*
X146085165Y-110942457D01*
X146105647Y-110800000D01*
X146085165Y-110657543D01*
X146025377Y-110526627D01*
X146005785Y-110504016D01*
X145976762Y-110440460D01*
X145975500Y-110422815D01*
X145975500Y-108832398D01*
X145995185Y-108765359D01*
X146011814Y-108744722D01*
X147943055Y-106813480D01*
X148004376Y-106779997D01*
X148065666Y-106782185D01*
X148128039Y-106800500D01*
X148271962Y-106800500D01*
X148280740Y-106799238D01*
X148281191Y-106802380D01*
X148335421Y-106802374D01*
X148394203Y-106840141D01*
X148423236Y-106903693D01*
X148424500Y-106921355D01*
X148424500Y-107539447D01*
X148404815Y-107606486D01*
X148352011Y-107652241D01*
X148288926Y-107662906D01*
X148279265Y-107662000D01*
X147770733Y-107662000D01*
X147770729Y-107662000D01*
X147740299Y-107664853D01*
X147740297Y-107664853D01*
X147612118Y-107709706D01*
X147612116Y-107709707D01*
X147502849Y-107790350D01*
X147422206Y-107899617D01*
X147422205Y-107899619D01*
X147377352Y-108027798D01*
X147377352Y-108027800D01*
X147374499Y-108058230D01*
X147374499Y-109766769D01*
X147377352Y-109797199D01*
X147377352Y-109797201D01*
X147422205Y-109925380D01*
X147422206Y-109925382D01*
X147502849Y-110034650D01*
X147502850Y-110034651D01*
X147505080Y-110037672D01*
X147529051Y-110103301D01*
X147513736Y-110171472D01*
X147472353Y-110215619D01*
X147468875Y-110217853D01*
X147468874Y-110217855D01*
X147468872Y-110217856D01*
X147468872Y-110217857D01*
X147465390Y-110221876D01*
X147374623Y-110326626D01*
X147374622Y-110326628D01*
X147314834Y-110457543D01*
X147302626Y-110542456D01*
X147294353Y-110600000D01*
X147295248Y-110606222D01*
X147314834Y-110742456D01*
X147319632Y-110752961D01*
X147374623Y-110873373D01*
X147468872Y-110982143D01*
X147589947Y-111059953D01*
X147589950Y-111059954D01*
X147589949Y-111059954D01*
X147728036Y-111100499D01*
X147728038Y-111100500D01*
X147728039Y-111100500D01*
X147871962Y-111100500D01*
X147871962Y-111100499D01*
X148010053Y-111059953D01*
X148010055Y-111059952D01*
X148126934Y-110984839D01*
X148178639Y-110966106D01*
X148179834Y-110965956D01*
X148188587Y-110964866D01*
X148188589Y-110964864D01*
X148196102Y-110962628D01*
X148203567Y-110960066D01*
X148203567Y-110960065D01*
X148203571Y-110960065D01*
X148251838Y-110933944D01*
X148301172Y-110909826D01*
X148301174Y-110909823D01*
X148307555Y-110905268D01*
X148313780Y-110900422D01*
X148313787Y-110900419D01*
X148350968Y-110860029D01*
X148963678Y-110247318D01*
X149025000Y-110213835D01*
X149094692Y-110218819D01*
X149150625Y-110260691D01*
X149175042Y-110326155D01*
X149174096Y-110352647D01*
X149161471Y-110440460D01*
X149158120Y-110463767D01*
X149159527Y-110473552D01*
X149178601Y-110606223D01*
X149221200Y-110699500D01*
X149238390Y-110737140D01*
X149332639Y-110845910D01*
X149453714Y-110923720D01*
X149453717Y-110923721D01*
X149453716Y-110923721D01*
X149591803Y-110964266D01*
X149591805Y-110964267D01*
X149591806Y-110964267D01*
X149735728Y-110964267D01*
X149834334Y-110935314D01*
X149904204Y-110935314D01*
X149962982Y-110973088D01*
X149992007Y-111036644D01*
X149982063Y-111105803D01*
X149956951Y-111141971D01*
X149910743Y-111188180D01*
X149849420Y-111221666D01*
X149823061Y-111224500D01*
X149391804Y-111224500D01*
X149366359Y-111221861D01*
X149355733Y-111219633D01*
X149355729Y-111219633D01*
X149320509Y-111224023D01*
X149312833Y-111224500D01*
X149308886Y-111224500D01*
X149301205Y-111225781D01*
X149285844Y-111228344D01*
X149231373Y-111235134D01*
X149223844Y-111237375D01*
X149216388Y-111239935D01*
X149168114Y-111266060D01*
X149118791Y-111290172D01*
X149112381Y-111294748D01*
X149106175Y-111299579D01*
X149068992Y-111339970D01*
X148665028Y-111743933D01*
X148603705Y-111777418D01*
X148534013Y-111772434D01*
X148532554Y-111771879D01*
X148442461Y-111736977D01*
X148442456Y-111736976D01*
X148241976Y-111699500D01*
X148038024Y-111699500D01*
X147837544Y-111736976D01*
X147837541Y-111736976D01*
X147837541Y-111736977D01*
X147647364Y-111810651D01*
X147647357Y-111810655D01*
X147473960Y-111918017D01*
X147473958Y-111918019D01*
X147323237Y-112055418D01*
X147200327Y-112218178D01*
X147109422Y-112400739D01*
X147109417Y-112400752D01*
X147053602Y-112596917D01*
X147034785Y-112799999D01*
X147034785Y-112800000D01*
X147053602Y-113003082D01*
X147109417Y-113199247D01*
X147109422Y-113199260D01*
X147200327Y-113381821D01*
X147323237Y-113544581D01*
X147473958Y-113681980D01*
X147473960Y-113681982D01*
X147530276Y-113716851D01*
X147647363Y-113789348D01*
X147837544Y-113863024D01*
X148038024Y-113900500D01*
X148038026Y-113900500D01*
X148241974Y-113900500D01*
X148241976Y-113900500D01*
X148442456Y-113863024D01*
X148532556Y-113828118D01*
X148602174Y-113822256D01*
X148663914Y-113854965D01*
X148664943Y-113855980D01*
X148821782Y-114012820D01*
X148855266Y-114074142D01*
X148850282Y-114143834D01*
X148808410Y-114199767D01*
X148742946Y-114224184D01*
X148734100Y-114224500D01*
X147606900Y-114224500D01*
X147539861Y-114204815D01*
X147519219Y-114188181D01*
X146659710Y-113328672D01*
X146626225Y-113267349D01*
X146630667Y-113205234D01*
X146629013Y-113204764D01*
X146638810Y-113170331D01*
X146686397Y-113003083D01*
X146705215Y-112800000D01*
X146686397Y-112596917D01*
X146630582Y-112400750D01*
X146615274Y-112370008D01*
X146566136Y-112271325D01*
X146539673Y-112218179D01*
X146416764Y-112055421D01*
X146416762Y-112055418D01*
X146266041Y-111918019D01*
X146266039Y-111918017D01*
X146092642Y-111810655D01*
X146092635Y-111810651D01*
X145966769Y-111761891D01*
X145902456Y-111736976D01*
X145701976Y-111699500D01*
X145498024Y-111699500D01*
X145297544Y-111736976D01*
X145297541Y-111736976D01*
X145297541Y-111736977D01*
X145107364Y-111810651D01*
X145107357Y-111810655D01*
X144933960Y-111918017D01*
X144933958Y-111918019D01*
X144783237Y-112055418D01*
X144660327Y-112218178D01*
X144573182Y-112393188D01*
X144525679Y-112444425D01*
X144458016Y-112461846D01*
X144391676Y-112439920D01*
X144347721Y-112385609D01*
X144342407Y-112370008D01*
X144333434Y-112336518D01*
X144333429Y-112336507D01*
X144233600Y-112122422D01*
X144233599Y-112122420D01*
X144098113Y-111928926D01*
X144098108Y-111928920D01*
X143931082Y-111761894D01*
X143737578Y-111626399D01*
X143523492Y-111526570D01*
X143523486Y-111526567D01*
X143310000Y-111469364D01*
X143310000Y-112187698D01*
X143290315Y-112254737D01*
X143237511Y-112300492D01*
X143168355Y-112310436D01*
X143095766Y-112300000D01*
X143095763Y-112300000D01*
X143024237Y-112300000D01*
X143024233Y-112300000D01*
X142951645Y-112310436D01*
X142882487Y-112300492D01*
X142829684Y-112254736D01*
X142810000Y-112187698D01*
X142810000Y-111469364D01*
X142809999Y-111469364D01*
X142596513Y-111526567D01*
X142596507Y-111526570D01*
X142382422Y-111626399D01*
X142382420Y-111626400D01*
X142188926Y-111761886D01*
X142188920Y-111761891D01*
X142021891Y-111928920D01*
X142021886Y-111928926D01*
X141886400Y-112122420D01*
X141886399Y-112122422D01*
X141786570Y-112336507D01*
X141786568Y-112336511D01*
X141777592Y-112370011D01*
X141741226Y-112429671D01*
X141678379Y-112460199D01*
X141609003Y-112451904D01*
X141555126Y-112407418D01*
X141546817Y-112393188D01*
X141486136Y-112271325D01*
X141459673Y-112218179D01*
X141336764Y-112055421D01*
X141336762Y-112055418D01*
X141186041Y-111918019D01*
X141186039Y-111918017D01*
X141012642Y-111810655D01*
X141012635Y-111810651D01*
X140886769Y-111761891D01*
X140822456Y-111736976D01*
X140621976Y-111699500D01*
X140418024Y-111699500D01*
X140217544Y-111736976D01*
X140217541Y-111736976D01*
X140217541Y-111736977D01*
X140027364Y-111810651D01*
X140027357Y-111810655D01*
X139853960Y-111918017D01*
X139853958Y-111918019D01*
X139703237Y-112055418D01*
X139580327Y-112218178D01*
X139489422Y-112400739D01*
X139489417Y-112400752D01*
X139433602Y-112596917D01*
X139414785Y-112799999D01*
X139414785Y-112800000D01*
X139433602Y-113003082D01*
X139453573Y-113073269D01*
X139489417Y-113199247D01*
X139490987Y-113204763D01*
X139489012Y-113205324D01*
X139494088Y-113265862D01*
X139461357Y-113327591D01*
X139460289Y-113328671D01*
X139292181Y-113496779D01*
X139230858Y-113530264D01*
X139161166Y-113525280D01*
X139105233Y-113483408D01*
X139080816Y-113417944D01*
X139080500Y-113409098D01*
X139080500Y-111925323D01*
X139080499Y-111925321D01*
X139065967Y-111852264D01*
X139065966Y-111852260D01*
X139065965Y-111852259D01*
X139010601Y-111769399D01*
X138927740Y-111714034D01*
X138927739Y-111714033D01*
X138927735Y-111714032D01*
X138854677Y-111699500D01*
X138854674Y-111699500D01*
X137105326Y-111699500D01*
X137105323Y-111699500D01*
X137032264Y-111714032D01*
X137032260Y-111714033D01*
X136949399Y-111769399D01*
X136894033Y-111852260D01*
X136894032Y-111852264D01*
X136879500Y-111925321D01*
X136879500Y-113674678D01*
X135900000Y-113674678D01*
X135900000Y-103307500D01*
X136701633Y-103307500D01*
X136701930Y-103309446D01*
X136701932Y-103309452D01*
X136772561Y-103500157D01*
X136772564Y-103500164D01*
X136880148Y-103672767D01*
X137020263Y-103820168D01*
X137020265Y-103820169D01*
X137187194Y-103936356D01*
X137374091Y-104016559D01*
X137573309Y-104057500D01*
X137724999Y-104057500D01*
X137724999Y-103481500D01*
X137744684Y-103414461D01*
X137797488Y-103368706D01*
X137848999Y-103357500D01*
X138100999Y-103357500D01*
X138168038Y-103377185D01*
X138213793Y-103429989D01*
X138224999Y-103481500D01*
X138224999Y-104057500D01*
X138325712Y-104057500D01*
X138477337Y-104042081D01*
X138671380Y-103981200D01*
X138671390Y-103981195D01*
X138849214Y-103882494D01*
X138849215Y-103882494D01*
X139003529Y-103750021D01*
X139003530Y-103750020D01*
X139128017Y-103589195D01*
X139217587Y-103406593D01*
X139243245Y-103307500D01*
X140631633Y-103307500D01*
X140631930Y-103309446D01*
X140631932Y-103309452D01*
X140702561Y-103500157D01*
X140702564Y-103500164D01*
X140810148Y-103672767D01*
X140950263Y-103820168D01*
X140950265Y-103820169D01*
X141117194Y-103936356D01*
X141304091Y-104016559D01*
X141503309Y-104057500D01*
X141904999Y-104057500D01*
X141904999Y-103481500D01*
X141924684Y-103414461D01*
X141977488Y-103368706D01*
X142028999Y-103357500D01*
X142280999Y-103357500D01*
X142348038Y-103377185D01*
X142393793Y-103429989D01*
X142404999Y-103481500D01*
X142404999Y-104057500D01*
X142755712Y-104057500D01*
X142907337Y-104042081D01*
X143101380Y-103981200D01*
X143101390Y-103981195D01*
X143279214Y-103882494D01*
X143279215Y-103882494D01*
X143433529Y-103750021D01*
X143433530Y-103750020D01*
X143558017Y-103589195D01*
X143647587Y-103406593D01*
X143673245Y-103307500D01*
X143109978Y-103307500D01*
X143042939Y-103287815D01*
X142997184Y-103235011D01*
X142987240Y-103165853D01*
X142990712Y-103149566D01*
X143008893Y-103085662D01*
X143008894Y-103085660D01*
X143002041Y-103011706D01*
X142998545Y-102973979D01*
X142998543Y-102973975D01*
X142996114Y-102965437D01*
X142996700Y-102895570D01*
X143034965Y-102837110D01*
X143098762Y-102808619D01*
X143115380Y-102807500D01*
X143678365Y-102807500D01*
X143678067Y-102805553D01*
X143678065Y-102805547D01*
X143607436Y-102614842D01*
X143607433Y-102614835D01*
X143499849Y-102442232D01*
X143359734Y-102294831D01*
X143359732Y-102294830D01*
X143192803Y-102178643D01*
X143005906Y-102098440D01*
X142806689Y-102057500D01*
X142255383Y-102057500D01*
X142188344Y-102037815D01*
X142142589Y-101985011D01*
X142132645Y-101915853D01*
X142140822Y-101886047D01*
X142164181Y-101829653D01*
X142185686Y-101777736D01*
X142205465Y-101627500D01*
X142185686Y-101477264D01*
X142127697Y-101337267D01*
X142035450Y-101217049D01*
X141915232Y-101124802D01*
X141915228Y-101124800D01*
X141810989Y-101081623D01*
X141775235Y-101066813D01*
X141761170Y-101064961D01*
X141662726Y-101052000D01*
X141662719Y-101052000D01*
X141587279Y-101052000D01*
X141587271Y-101052000D01*
X141474763Y-101066813D01*
X141474762Y-101066813D01*
X141334769Y-101124800D01*
X141334766Y-101124801D01*
X141334766Y-101124802D01*
X141214548Y-101217049D01*
X141144852Y-101307879D01*
X141122299Y-101337270D01*
X141064312Y-101477263D01*
X141064311Y-101477265D01*
X141044533Y-101627499D01*
X141044533Y-101627500D01*
X141064311Y-101777734D01*
X141064312Y-101777736D01*
X141122299Y-101917730D01*
X141122301Y-101917734D01*
X141141272Y-101942457D01*
X141173925Y-101985011D01*
X141176798Y-101988754D01*
X141201993Y-102053923D01*
X141187955Y-102122368D01*
X141139142Y-102172358D01*
X141138602Y-102172659D01*
X141030787Y-102232502D01*
X141030782Y-102232505D01*
X140876468Y-102364978D01*
X140876467Y-102364979D01*
X140751980Y-102525804D01*
X140662410Y-102708406D01*
X140636753Y-102807500D01*
X141200020Y-102807500D01*
X141267059Y-102827185D01*
X141312814Y-102879989D01*
X141322758Y-102949147D01*
X141319286Y-102965434D01*
X141301104Y-103029337D01*
X141301103Y-103029337D01*
X141311452Y-103141017D01*
X141313884Y-103149563D01*
X141313298Y-103219430D01*
X141275033Y-103277890D01*
X141211236Y-103306381D01*
X141194618Y-103307500D01*
X140631633Y-103307500D01*
X139243245Y-103307500D01*
X138679978Y-103307500D01*
X138612939Y-103287815D01*
X138567184Y-103235011D01*
X138557240Y-103165853D01*
X138560712Y-103149566D01*
X138578893Y-103085662D01*
X138578894Y-103085660D01*
X138572041Y-103011706D01*
X138568545Y-102973979D01*
X138568543Y-102973975D01*
X138566114Y-102965437D01*
X138566700Y-102895570D01*
X138604965Y-102837110D01*
X138668762Y-102808619D01*
X138685380Y-102807500D01*
X139248365Y-102807500D01*
X139248067Y-102805553D01*
X139248065Y-102805547D01*
X139177436Y-102614842D01*
X139177433Y-102614835D01*
X139069849Y-102442232D01*
X138929734Y-102294831D01*
X138929732Y-102294830D01*
X138762803Y-102178643D01*
X138575906Y-102098440D01*
X138376689Y-102057500D01*
X138224999Y-102057500D01*
X138224999Y-102633500D01*
X138205314Y-102700539D01*
X138152510Y-102746294D01*
X138100999Y-102757500D01*
X137848999Y-102757500D01*
X137781960Y-102737815D01*
X137736205Y-102685011D01*
X137724999Y-102633500D01*
X137724999Y-102057500D01*
X137624286Y-102057500D01*
X137472660Y-102072918D01*
X137278617Y-102133799D01*
X137278607Y-102133804D01*
X137100783Y-102232505D01*
X137100782Y-102232505D01*
X136946468Y-102364978D01*
X136946467Y-102364979D01*
X136821980Y-102525804D01*
X136732410Y-102708406D01*
X136706753Y-102807500D01*
X137270020Y-102807500D01*
X137337059Y-102827185D01*
X137382814Y-102879989D01*
X137392758Y-102949147D01*
X137389286Y-102965434D01*
X137371104Y-103029337D01*
X137371103Y-103029337D01*
X137381452Y-103141017D01*
X137383884Y-103149563D01*
X137383298Y-103219430D01*
X137345033Y-103277890D01*
X137281236Y-103306381D01*
X137264618Y-103307500D01*
X136701633Y-103307500D01*
X135900000Y-103307500D01*
X135900000Y-94667500D01*
X136701633Y-94667500D01*
X136701930Y-94669446D01*
X136701932Y-94669452D01*
X136772561Y-94860157D01*
X136772564Y-94860164D01*
X136880148Y-95032767D01*
X137020263Y-95180168D01*
X137020265Y-95180169D01*
X137187194Y-95296356D01*
X137374091Y-95376559D01*
X137573309Y-95417500D01*
X137724999Y-95417500D01*
X137724999Y-94841500D01*
X137744684Y-94774461D01*
X137797488Y-94728706D01*
X137848999Y-94717500D01*
X138100999Y-94717500D01*
X138168038Y-94737185D01*
X138213793Y-94789989D01*
X138224999Y-94841500D01*
X138224999Y-95417500D01*
X138325712Y-95417500D01*
X138477337Y-95402081D01*
X138671380Y-95341200D01*
X138671390Y-95341195D01*
X138849214Y-95242494D01*
X138849215Y-95242494D01*
X139003529Y-95110021D01*
X139003530Y-95110020D01*
X139128017Y-94949195D01*
X139217587Y-94766593D01*
X139243245Y-94667500D01*
X140631633Y-94667500D01*
X140631930Y-94669446D01*
X140631932Y-94669452D01*
X140702561Y-94860157D01*
X140702564Y-94860164D01*
X140810148Y-95032767D01*
X140950263Y-95180168D01*
X140950265Y-95180169D01*
X141117196Y-95296357D01*
X141125070Y-95299736D01*
X141178916Y-95344260D01*
X141200141Y-95410828D01*
X141182008Y-95478304D01*
X141174550Y-95489174D01*
X141122301Y-95557266D01*
X141122299Y-95557269D01*
X141064312Y-95697263D01*
X141064311Y-95697265D01*
X141044533Y-95847499D01*
X141044533Y-95847500D01*
X141064311Y-95997734D01*
X141064312Y-95997736D01*
X141086841Y-96052127D01*
X141122301Y-96137733D01*
X141214548Y-96257951D01*
X141334766Y-96350198D01*
X141474763Y-96408187D01*
X141587279Y-96423000D01*
X141587286Y-96423000D01*
X141662712Y-96423000D01*
X141662719Y-96423000D01*
X141775235Y-96408187D01*
X141915232Y-96350198D01*
X142035450Y-96257951D01*
X142127697Y-96137733D01*
X142185686Y-95997736D01*
X142205465Y-95847500D01*
X142197655Y-95788181D01*
X142185686Y-95697265D01*
X142185686Y-95697264D01*
X142140822Y-95588953D01*
X142133353Y-95519483D01*
X142164628Y-95457004D01*
X142224717Y-95421352D01*
X142255383Y-95417500D01*
X142755712Y-95417500D01*
X142907337Y-95402081D01*
X143101380Y-95341200D01*
X143101390Y-95341195D01*
X143279214Y-95242494D01*
X143279215Y-95242494D01*
X143433529Y-95110021D01*
X143433530Y-95110020D01*
X143558017Y-94949195D01*
X143647587Y-94766593D01*
X143673245Y-94667500D01*
X143109978Y-94667500D01*
X143042939Y-94647815D01*
X142997184Y-94595011D01*
X142987240Y-94525853D01*
X142990712Y-94509566D01*
X143008893Y-94445662D01*
X143008894Y-94445660D01*
X142998545Y-94333982D01*
X142998545Y-94333979D01*
X142998543Y-94333975D01*
X142996114Y-94325437D01*
X142996700Y-94255570D01*
X143034965Y-94197110D01*
X143098762Y-94168619D01*
X143115380Y-94167500D01*
X143678365Y-94167500D01*
X143678067Y-94165553D01*
X143678065Y-94165547D01*
X143607436Y-93974842D01*
X143607433Y-93974835D01*
X143499849Y-93802232D01*
X143359734Y-93654831D01*
X143359732Y-93654830D01*
X143192803Y-93538643D01*
X143005906Y-93458440D01*
X142806689Y-93417500D01*
X142404999Y-93417500D01*
X142404999Y-93993500D01*
X142385314Y-94060539D01*
X142332510Y-94106294D01*
X142280999Y-94117500D01*
X142028999Y-94117500D01*
X141961960Y-94097815D01*
X141916205Y-94045011D01*
X141904999Y-93993500D01*
X141904999Y-93417500D01*
X141554286Y-93417500D01*
X141402660Y-93432918D01*
X141208617Y-93493799D01*
X141208607Y-93493804D01*
X141030783Y-93592505D01*
X141030782Y-93592505D01*
X140876468Y-93724978D01*
X140876467Y-93724979D01*
X140751980Y-93885804D01*
X140662410Y-94068406D01*
X140636753Y-94167500D01*
X141200020Y-94167500D01*
X141267059Y-94187185D01*
X141312814Y-94239989D01*
X141322758Y-94309147D01*
X141319286Y-94325434D01*
X141301104Y-94389337D01*
X141301103Y-94389337D01*
X141311452Y-94501017D01*
X141313884Y-94509563D01*
X141313298Y-94579430D01*
X141275033Y-94637890D01*
X141211236Y-94666381D01*
X141194618Y-94667500D01*
X140631633Y-94667500D01*
X139243245Y-94667500D01*
X138679978Y-94667500D01*
X138612939Y-94647815D01*
X138567184Y-94595011D01*
X138557240Y-94525853D01*
X138560712Y-94509566D01*
X138578893Y-94445662D01*
X138578894Y-94445660D01*
X138568545Y-94333982D01*
X138568545Y-94333979D01*
X138568543Y-94333975D01*
X138566114Y-94325437D01*
X138566700Y-94255570D01*
X138604965Y-94197110D01*
X138668762Y-94168619D01*
X138685380Y-94167500D01*
X139248365Y-94167500D01*
X139248067Y-94165553D01*
X139248065Y-94165547D01*
X139177436Y-93974842D01*
X139177433Y-93974835D01*
X139069849Y-93802232D01*
X138929734Y-93654831D01*
X138929732Y-93654830D01*
X138762803Y-93538643D01*
X138575906Y-93458440D01*
X138376689Y-93417500D01*
X138224999Y-93417500D01*
X138224999Y-93993500D01*
X138205314Y-94060539D01*
X138152510Y-94106294D01*
X138100999Y-94117500D01*
X137848999Y-94117500D01*
X137781960Y-94097815D01*
X137736205Y-94045011D01*
X137724999Y-93993500D01*
X137724999Y-93417500D01*
X137624286Y-93417500D01*
X137472660Y-93432918D01*
X137278617Y-93493799D01*
X137278607Y-93493804D01*
X137100783Y-93592505D01*
X137100782Y-93592505D01*
X136946468Y-93724978D01*
X136946467Y-93724979D01*
X136821980Y-93885804D01*
X136732410Y-94068406D01*
X136706753Y-94167500D01*
X137270020Y-94167500D01*
X137337059Y-94187185D01*
X137382814Y-94239989D01*
X137392758Y-94309147D01*
X137389286Y-94325434D01*
X137371104Y-94389337D01*
X137371103Y-94389337D01*
X137381452Y-94501017D01*
X137383884Y-94509563D01*
X137383298Y-94579430D01*
X137345033Y-94637890D01*
X137281236Y-94666381D01*
X137264618Y-94667500D01*
X136701633Y-94667500D01*
X135900000Y-94667500D01*
X135900000Y-90905691D01*
X136857918Y-90905691D01*
X136872450Y-90978748D01*
X136872451Y-90978752D01*
X136872452Y-90978753D01*
X136927817Y-91061614D01*
X137000691Y-91110306D01*
X137010678Y-91116979D01*
X137010682Y-91116980D01*
X137083739Y-91131512D01*
X137083742Y-91131513D01*
X137083744Y-91131513D01*
X138833094Y-91131513D01*
X138833095Y-91131512D01*
X138906158Y-91116979D01*
X138989019Y-91061614D01*
X139044384Y-90978753D01*
X139058918Y-90905687D01*
X139058918Y-90697693D01*
X139078603Y-90630655D01*
X139131407Y-90584900D01*
X139200565Y-90574956D01*
X139264121Y-90603981D01*
X139295300Y-90645290D01*
X139324816Y-90708588D01*
X139324817Y-90708590D01*
X139460312Y-90902095D01*
X139627335Y-91069118D01*
X139820839Y-91204613D01*
X140034925Y-91304442D01*
X140034934Y-91304446D01*
X140248418Y-91361647D01*
X140248418Y-90643314D01*
X140268103Y-90576275D01*
X140320907Y-90530520D01*
X140390065Y-90520576D01*
X140462655Y-90531013D01*
X140462656Y-90531013D01*
X140534180Y-90531013D01*
X140534181Y-90531013D01*
X140606771Y-90520576D01*
X140675930Y-90530520D01*
X140728733Y-90576275D01*
X140748418Y-90643314D01*
X140748418Y-91361646D01*
X140961901Y-91304446D01*
X140961910Y-91304442D01*
X141175996Y-91204613D01*
X141369500Y-91069118D01*
X141536523Y-90902095D01*
X141672018Y-90708591D01*
X141771847Y-90494505D01*
X141771849Y-90494502D01*
X141780824Y-90461005D01*
X141817188Y-90401344D01*
X141880034Y-90370813D01*
X141949410Y-90379107D01*
X142003289Y-90423591D01*
X142011600Y-90437824D01*
X142098745Y-90612834D01*
X142221655Y-90775594D01*
X142372376Y-90912993D01*
X142372378Y-90912995D01*
X142377033Y-90915877D01*
X142545781Y-91020361D01*
X142735962Y-91094037D01*
X142936442Y-91131513D01*
X142936444Y-91131513D01*
X143140392Y-91131513D01*
X143140394Y-91131513D01*
X143340874Y-91094037D01*
X143531055Y-91020361D01*
X143704459Y-90912994D01*
X143855182Y-90775592D01*
X143978091Y-90612834D01*
X144069000Y-90430263D01*
X144124815Y-90234096D01*
X144143633Y-90031013D01*
X144124815Y-89827930D01*
X144069000Y-89631763D01*
X144053692Y-89601021D01*
X143997578Y-89488327D01*
X143978091Y-89449192D01*
X143855182Y-89286434D01*
X143855180Y-89286431D01*
X143704459Y-89149032D01*
X143704457Y-89149030D01*
X143531060Y-89041668D01*
X143531053Y-89041664D01*
X143405187Y-88992904D01*
X143340874Y-88967989D01*
X143140394Y-88930513D01*
X142936442Y-88930513D01*
X142735962Y-88967989D01*
X142735959Y-88967989D01*
X142735959Y-88967990D01*
X142545782Y-89041664D01*
X142545775Y-89041668D01*
X142372378Y-89149030D01*
X142372376Y-89149032D01*
X142221655Y-89286431D01*
X142098745Y-89449191D01*
X142011600Y-89624201D01*
X141964097Y-89675438D01*
X141896434Y-89692859D01*
X141830094Y-89670933D01*
X141786139Y-89616622D01*
X141780825Y-89601021D01*
X141771852Y-89567531D01*
X141771847Y-89567520D01*
X141672018Y-89353435D01*
X141672017Y-89353433D01*
X141536531Y-89159939D01*
X141536526Y-89159933D01*
X141369500Y-88992907D01*
X141175996Y-88857412D01*
X140961910Y-88757583D01*
X140961904Y-88757580D01*
X140748418Y-88700377D01*
X140748418Y-89418711D01*
X140728733Y-89485750D01*
X140675929Y-89531505D01*
X140606773Y-89541449D01*
X140534184Y-89531013D01*
X140534181Y-89531013D01*
X140462655Y-89531013D01*
X140462651Y-89531013D01*
X140390063Y-89541449D01*
X140320905Y-89531505D01*
X140268102Y-89485749D01*
X140248418Y-89418711D01*
X140248418Y-88700377D01*
X140248417Y-88700377D01*
X140034931Y-88757580D01*
X140034925Y-88757583D01*
X139820840Y-88857412D01*
X139820838Y-88857413D01*
X139627344Y-88992899D01*
X139627338Y-88992904D01*
X139460309Y-89159933D01*
X139460304Y-89159939D01*
X139324818Y-89353433D01*
X139324817Y-89353435D01*
X139295300Y-89416736D01*
X139249128Y-89469175D01*
X139181934Y-89488327D01*
X139115053Y-89468111D01*
X139069718Y-89414946D01*
X139058918Y-89364331D01*
X139058918Y-89156336D01*
X139058917Y-89156334D01*
X139044385Y-89083277D01*
X139044384Y-89083273D01*
X139044384Y-89083272D01*
X138989019Y-89000412D01*
X138906158Y-88945047D01*
X138906157Y-88945046D01*
X138906153Y-88945045D01*
X138833095Y-88930513D01*
X138833092Y-88930513D01*
X137083744Y-88930513D01*
X137083741Y-88930513D01*
X137010682Y-88945045D01*
X137010678Y-88945046D01*
X136927817Y-89000412D01*
X136872451Y-89083273D01*
X136872450Y-89083277D01*
X136857918Y-89156334D01*
X136857918Y-90905691D01*
X135900000Y-90905691D01*
X135900000Y-88224500D01*
X135919685Y-88157461D01*
X135972489Y-88111706D01*
X136023995Y-88100500D01*
X160213917Y-88100500D01*
X160280956Y-88120185D01*
G37*
G04 #@! TD.AperFunction*
M02*
