G04 #@! TF.GenerationSoftware,KiCad,Pcbnew,7.0.7*
G04 #@! TF.CreationDate,2024-04-02T13:03:34-04:00*
G04 #@! TF.ProjectId,sensor_node,73656e73-6f72-45f6-9e6f-64652e6b6963,rev?*
G04 #@! TF.SameCoordinates,Original*
G04 #@! TF.FileFunction,Copper,L1,Top*
G04 #@! TF.FilePolarity,Positive*
%FSLAX46Y46*%
G04 Gerber Fmt 4.6, Leading zero omitted, Abs format (unit mm)*
G04 Created by KiCad (PCBNEW 7.0.7) date 2024-04-02 13:03:34*
%MOMM*%
%LPD*%
G01*
G04 APERTURE LIST*
G04 Aperture macros list*
%AMRoundRect*
0 Rectangle with rounded corners*
0 $1 Rounding radius*
0 $2 $3 $4 $5 $6 $7 $8 $9 X,Y pos of 4 corners*
0 Add a 4 corners polygon primitive as box body*
4,1,4,$2,$3,$4,$5,$6,$7,$8,$9,$2,$3,0*
0 Add four circle primitives for the rounded corners*
1,1,$1+$1,$2,$3*
1,1,$1+$1,$4,$5*
1,1,$1+$1,$6,$7*
1,1,$1+$1,$8,$9*
0 Add four rect primitives between the rounded corners*
20,1,$1+$1,$2,$3,$4,$5,0*
20,1,$1+$1,$4,$5,$6,$7,0*
20,1,$1+$1,$6,$7,$8,$9,0*
20,1,$1+$1,$8,$9,$2,$3,0*%
G04 Aperture macros list end*
G04 #@! TA.AperFunction,SMDPad,CuDef*
%ADD10RoundRect,0.500000X-0.500000X-0.500000X0.500000X-0.500000X0.500000X0.500000X-0.500000X0.500000X0*%
G04 #@! TD*
G04 #@! TA.AperFunction,SMDPad,CuDef*
%ADD11RoundRect,0.250000X-0.325000X-0.650000X0.325000X-0.650000X0.325000X0.650000X-0.325000X0.650000X0*%
G04 #@! TD*
G04 #@! TA.AperFunction,SMDPad,CuDef*
%ADD12RoundRect,0.225000X-0.225000X-0.250000X0.225000X-0.250000X0.225000X0.250000X-0.225000X0.250000X0*%
G04 #@! TD*
G04 #@! TA.AperFunction,ComponentPad*
%ADD13R,1.700000X1.700000*%
G04 #@! TD*
G04 #@! TA.AperFunction,ComponentPad*
%ADD14O,1.700000X1.700000*%
G04 #@! TD*
G04 #@! TA.AperFunction,SMDPad,CuDef*
%ADD15RoundRect,0.200000X0.200000X0.275000X-0.200000X0.275000X-0.200000X-0.275000X0.200000X-0.275000X0*%
G04 #@! TD*
G04 #@! TA.AperFunction,SMDPad,CuDef*
%ADD16RoundRect,0.200000X0.275000X-0.200000X0.275000X0.200000X-0.275000X0.200000X-0.275000X-0.200000X0*%
G04 #@! TD*
G04 #@! TA.AperFunction,SMDPad,CuDef*
%ADD17RoundRect,0.150000X-0.150000X0.512500X-0.150000X-0.512500X0.150000X-0.512500X0.150000X0.512500X0*%
G04 #@! TD*
G04 #@! TA.AperFunction,SMDPad,CuDef*
%ADD18RoundRect,0.225000X0.225000X0.250000X-0.225000X0.250000X-0.225000X-0.250000X0.225000X-0.250000X0*%
G04 #@! TD*
G04 #@! TA.AperFunction,SMDPad,CuDef*
%ADD19RoundRect,0.200000X-0.200000X-0.275000X0.200000X-0.275000X0.200000X0.275000X-0.200000X0.275000X0*%
G04 #@! TD*
G04 #@! TA.AperFunction,SMDPad,CuDef*
%ADD20RoundRect,0.150000X-0.150000X0.587500X-0.150000X-0.587500X0.150000X-0.587500X0.150000X0.587500X0*%
G04 #@! TD*
G04 #@! TA.AperFunction,SMDPad,CuDef*
%ADD21RoundRect,0.250000X-0.250000X-0.500000X0.250000X-0.500000X0.250000X0.500000X-0.250000X0.500000X0*%
G04 #@! TD*
G04 #@! TA.AperFunction,ComponentPad*
%ADD22O,1.000000X1.600000*%
G04 #@! TD*
G04 #@! TA.AperFunction,ComponentPad*
%ADD23O,1.000000X2.100000*%
G04 #@! TD*
G04 #@! TA.AperFunction,ComponentPad*
%ADD24C,0.400000*%
G04 #@! TD*
G04 #@! TA.AperFunction,ViaPad*
%ADD25C,0.500000*%
G04 #@! TD*
G04 #@! TA.AperFunction,Conductor*
%ADD26C,0.250000*%
G04 #@! TD*
G04 APERTURE END LIST*
D10*
X148800000Y-79700000D03*
D11*
X159450000Y-71150000D03*
X162400000Y-71150000D03*
D12*
X145225000Y-61100000D03*
X146775000Y-61100000D03*
D13*
X166200000Y-60390000D03*
D14*
X166200000Y-62930000D03*
X166200000Y-65470000D03*
X166200000Y-68010000D03*
X166200000Y-70550000D03*
X166200000Y-73090000D03*
X166200000Y-75630000D03*
X166200000Y-78170000D03*
X166200000Y-80710000D03*
D15*
X158299997Y-60600000D03*
X156649997Y-60600000D03*
D16*
X145300000Y-72825000D03*
X145300000Y-71175000D03*
X156100000Y-76700000D03*
X156100000Y-75050000D03*
D17*
X147050000Y-63425000D03*
X145150000Y-63425000D03*
X146100000Y-65700000D03*
D11*
X159450000Y-77050000D03*
X162400000Y-77050000D03*
D16*
X148500000Y-72825000D03*
X148500000Y-71175000D03*
D13*
X140500000Y-60350000D03*
D14*
X140500000Y-62890000D03*
X140500000Y-65430000D03*
X140500000Y-67970000D03*
X140500000Y-70510000D03*
X140500000Y-73050000D03*
X140500000Y-75590000D03*
X140500000Y-78130000D03*
X140500000Y-80670000D03*
D18*
X154550000Y-60600000D03*
X153000000Y-60600000D03*
D11*
X159450000Y-74100000D03*
X162400000Y-74100000D03*
D19*
X160159250Y-63100000D03*
X161809250Y-63100000D03*
D18*
X146125000Y-68125000D03*
X144575000Y-68125000D03*
D15*
X154300000Y-72500000D03*
X152650000Y-72500000D03*
D20*
X161884251Y-65700000D03*
X159984251Y-65700000D03*
X160934251Y-67575000D03*
D16*
X156100000Y-80500000D03*
X156100000Y-78850000D03*
D21*
X160100000Y-80300000D03*
X161500000Y-80300000D03*
D22*
X153220000Y-80750000D03*
D23*
X153220000Y-76570000D03*
D22*
X144580000Y-80750000D03*
D23*
X144580000Y-76570000D03*
D24*
X153700000Y-66500000D03*
X153700000Y-65400000D03*
X153150000Y-67050000D03*
X153150000Y-65950000D03*
X153150000Y-64850000D03*
X152600000Y-66500000D03*
X152600000Y-65400000D03*
X152050000Y-67050000D03*
X152050000Y-65950000D03*
X152050000Y-64850000D03*
X151500000Y-66500000D03*
X151500000Y-65400000D03*
D25*
X150400000Y-77300000D03*
X147200000Y-77300000D03*
X146800000Y-69400000D03*
X158500000Y-63600000D03*
X149900000Y-60675500D03*
X147621202Y-60363606D03*
X163509502Y-64200000D03*
X163700000Y-59200000D03*
X149000000Y-59600000D03*
X147200000Y-59500000D03*
X155800000Y-70000000D03*
X157800000Y-62200000D03*
X159400000Y-62200000D03*
X156700000Y-62000000D03*
X158600000Y-65000000D03*
X150250000Y-72950000D03*
X147100000Y-73100000D03*
X154400000Y-80375000D03*
X160000000Y-60300000D03*
X154500000Y-71400000D03*
X157300000Y-79987500D03*
X154800000Y-78675000D03*
X156925500Y-77475000D03*
X151200000Y-74000000D03*
X157206233Y-72693767D03*
X159854302Y-67977450D03*
X143400000Y-74700000D03*
D26*
X148800000Y-78900000D02*
X150400000Y-77300000D01*
X148800000Y-79900000D02*
X148800000Y-78900000D01*
X147200000Y-77300000D02*
X150400000Y-77300000D01*
X146125000Y-68725000D02*
X146800000Y-69400000D01*
X146099999Y-68024999D02*
X146100000Y-65700000D01*
X146125000Y-68125000D02*
X146125000Y-68725000D01*
X147700000Y-67600000D02*
X147100000Y-67000000D01*
X158500000Y-63600000D02*
X157342463Y-63600000D01*
X153342463Y-67600000D02*
X147700000Y-67600000D01*
X157342463Y-63600000D02*
X153342463Y-67600000D01*
X147100000Y-65365749D02*
X146234251Y-64500000D01*
X147100000Y-67000000D02*
X147100000Y-65365749D01*
X143970000Y-64500000D02*
X140500000Y-67970000D01*
X146234251Y-64500000D02*
X143970000Y-64500000D01*
X147621202Y-60363606D02*
X147291423Y-60363606D01*
X149988104Y-60675500D02*
X151563604Y-59100000D01*
X160313173Y-59100000D02*
X163509502Y-62296329D01*
X147291423Y-60363606D02*
X147227817Y-60300000D01*
X163509502Y-62296329D02*
X163509502Y-64200000D01*
X149900000Y-60675500D02*
X149988104Y-60675500D01*
X151563604Y-59100000D02*
X160313173Y-59100000D01*
X146061827Y-59175000D02*
X139325000Y-59175000D01*
X139325000Y-64255000D02*
X140500000Y-65430000D01*
X147227817Y-60300000D02*
X147186827Y-60300000D01*
X147186827Y-60300000D02*
X146061827Y-59175000D01*
X139325000Y-59175000D02*
X139325000Y-64255000D01*
X147200000Y-59500000D02*
X147300000Y-59600000D01*
X167375000Y-69375000D02*
X167375000Y-59215000D01*
X166200000Y-70550000D02*
X167375000Y-69375000D01*
X147300000Y-59600000D02*
X149000000Y-59600000D01*
X167375000Y-59215000D02*
X167360000Y-59200000D01*
X167360000Y-59200000D02*
X163700000Y-59200000D01*
X163400000Y-69300000D02*
X165025000Y-70925000D01*
X155800000Y-70000000D02*
X156500000Y-69300000D01*
X166200000Y-72100000D02*
X166200000Y-73090000D01*
X156500000Y-69300000D02*
X163400000Y-69300000D01*
X165025000Y-70925000D02*
X165025000Y-71036701D01*
X165713299Y-71725000D02*
X165825000Y-71725000D01*
X165025000Y-71036701D02*
X165713299Y-71725000D01*
X165825000Y-71725000D02*
X166200000Y-72100000D01*
X158100000Y-60600000D02*
X158299997Y-60600000D01*
X156700000Y-62000000D02*
X158100000Y-60600000D01*
X157800000Y-62200000D02*
X159400000Y-62200000D01*
X158600000Y-65000000D02*
X157100000Y-65000000D01*
X154000000Y-68100000D02*
X147500000Y-68100000D01*
X147038173Y-69975000D02*
X141035000Y-69975000D01*
X157100000Y-65000000D02*
X154000000Y-68100000D01*
X141035000Y-69975000D02*
X140500000Y-70510000D01*
X147500000Y-68100000D02*
X147500000Y-69513173D01*
X147500000Y-69513173D02*
X147038173Y-69975000D01*
X150250000Y-72950000D02*
X150125000Y-72825000D01*
X150125000Y-72825000D02*
X148700000Y-72825000D01*
X147100000Y-73100000D02*
X145075000Y-73100000D01*
X145575000Y-73100000D02*
X145300000Y-72825000D01*
X144774998Y-60350000D02*
X146000000Y-61575002D01*
X152200000Y-59800000D02*
X153750000Y-59800000D01*
X160000000Y-65684251D02*
X160000000Y-63259250D01*
X154525000Y-80500000D02*
X154400000Y-80375000D01*
X160159250Y-60459250D02*
X160159250Y-63100000D01*
X158702450Y-67322550D02*
X160000001Y-66024999D01*
X157082535Y-60600000D02*
X156649997Y-60600000D01*
X145149999Y-62225000D02*
X145150001Y-61275000D01*
X146000000Y-61577817D02*
X146322183Y-61900000D01*
X159500000Y-59800000D02*
X157882535Y-59800000D01*
X159450000Y-71150000D02*
X159450000Y-77050000D01*
X146322183Y-61900000D02*
X150100000Y-61900000D01*
X156650000Y-60600000D02*
X154550000Y-60599999D01*
X146000000Y-61575002D02*
X146000000Y-61577817D01*
X156100000Y-80500000D02*
X154525000Y-80500000D01*
X154300000Y-72500000D02*
X154300000Y-71600000D01*
X145149999Y-63425000D02*
X145149999Y-62225000D01*
X140500000Y-60350000D02*
X144774998Y-60350000D01*
X160000000Y-63259250D02*
X160159250Y-63100000D01*
X159984251Y-65700000D02*
X160000000Y-65684251D01*
X160000000Y-60300000D02*
X160159250Y-60459250D01*
X157882535Y-59800000D02*
X157082535Y-60600000D01*
X156677450Y-67322550D02*
X158702450Y-67322550D01*
X154500000Y-71400000D02*
X154500000Y-69500000D01*
X160000000Y-60300000D02*
X159500000Y-59800000D01*
X154300000Y-71600000D02*
X154500000Y-71400000D01*
X145150001Y-61275000D02*
X145425000Y-61000000D01*
X150100000Y-61900000D02*
X152200000Y-59800000D01*
X154500000Y-69500000D02*
X156677450Y-67322550D01*
X159450000Y-71150000D02*
X159200000Y-71400000D01*
X159200000Y-71400000D02*
X154500000Y-71400000D01*
X153750000Y-59800000D02*
X154550000Y-60600000D01*
X159700000Y-79900000D02*
X157387500Y-79900000D01*
X160100000Y-80300000D02*
X159700000Y-79900000D01*
X157387500Y-79900000D02*
X157300000Y-79987500D01*
X156100000Y-78850000D02*
X154975000Y-78850000D01*
X154975000Y-78850000D02*
X154800000Y-78675000D01*
X156875000Y-77475000D02*
X156100000Y-76700000D01*
X156925500Y-77475000D02*
X156875000Y-77475000D01*
X164715000Y-66625000D02*
X164715000Y-64415000D01*
X164715000Y-64415000D02*
X166200000Y-62930000D01*
X160934251Y-67575000D02*
X163765000Y-67575000D01*
X163765000Y-67575000D02*
X164715000Y-66625000D01*
X151775000Y-74575000D02*
X151200000Y-74000000D01*
X156100000Y-75050000D02*
X155625000Y-74575000D01*
X155625000Y-74575000D02*
X151775000Y-74575000D01*
X153450000Y-73300000D02*
X152650000Y-72500000D01*
X157206233Y-72693767D02*
X156600000Y-73300000D01*
X156600000Y-73300000D02*
X153450000Y-73300000D01*
X161884251Y-65700001D02*
X161884250Y-63175001D01*
X161400000Y-65700000D02*
X161884251Y-65700000D01*
X161884250Y-63175001D02*
X161809250Y-63100002D01*
X159854302Y-67245698D02*
X161400000Y-65700000D01*
X159854302Y-67977450D02*
X159854302Y-67245698D01*
X143400000Y-74700000D02*
X141390000Y-74700000D01*
X141390000Y-74700000D02*
X140500000Y-75590000D01*
G04 #@! TA.AperFunction,Conductor*
G36*
X151820444Y-66538842D02*
G01*
X151831476Y-66548634D01*
X152001365Y-66718523D01*
X152034850Y-66779846D01*
X152029866Y-66849538D01*
X151987994Y-66905471D01*
X151975689Y-66913588D01*
X151972359Y-66915510D01*
X151915512Y-66972356D01*
X151913589Y-66975688D01*
X151863020Y-67023902D01*
X151794413Y-67037122D01*
X151729549Y-67011152D01*
X151718523Y-67001365D01*
X151548634Y-66831476D01*
X151515149Y-66770153D01*
X151520133Y-66700461D01*
X151562005Y-66644528D01*
X151574318Y-66636406D01*
X151577639Y-66634487D01*
X151577645Y-66634486D01*
X151634486Y-66577646D01*
X151634487Y-66577639D01*
X151636406Y-66574318D01*
X151686971Y-66526101D01*
X151755578Y-66512876D01*
X151820444Y-66538842D01*
G37*
G04 #@! TD.AperFunction*
G04 #@! TA.AperFunction,Conductor*
G36*
X152920444Y-66538842D02*
G01*
X152931476Y-66548634D01*
X153101365Y-66718523D01*
X153134850Y-66779846D01*
X153129866Y-66849538D01*
X153087994Y-66905471D01*
X153075689Y-66913588D01*
X153072359Y-66915510D01*
X153015512Y-66972356D01*
X153013589Y-66975688D01*
X152963020Y-67023902D01*
X152894413Y-67037122D01*
X152829549Y-67011152D01*
X152818523Y-67001365D01*
X152648634Y-66831476D01*
X152615149Y-66770153D01*
X152620133Y-66700461D01*
X152662005Y-66644528D01*
X152674318Y-66636406D01*
X152677639Y-66634487D01*
X152677645Y-66634486D01*
X152734486Y-66577646D01*
X152734487Y-66577639D01*
X152736406Y-66574318D01*
X152786971Y-66526101D01*
X152855578Y-66512876D01*
X152920444Y-66538842D01*
G37*
G04 #@! TD.AperFunction*
G04 #@! TA.AperFunction,Conductor*
G36*
X152399535Y-66520132D02*
G01*
X152455469Y-66562002D01*
X152463592Y-66574316D01*
X152465515Y-66577647D01*
X152522352Y-66634484D01*
X152525681Y-66636406D01*
X152573898Y-66686972D01*
X152587123Y-66755579D01*
X152561156Y-66820444D01*
X152551369Y-66831473D01*
X152538382Y-66844461D01*
X152381476Y-67001365D01*
X152320152Y-67034849D01*
X152250461Y-67029864D01*
X152194527Y-66987993D01*
X152186408Y-66975683D01*
X152184486Y-66972354D01*
X152127647Y-66915515D01*
X152124316Y-66913592D01*
X152076100Y-66863025D01*
X152062876Y-66794418D01*
X152088844Y-66729553D01*
X152098634Y-66718522D01*
X152246657Y-66570501D01*
X152268521Y-66548636D01*
X152329843Y-66515149D01*
X152399535Y-66520132D01*
G37*
G04 #@! TD.AperFunction*
G04 #@! TA.AperFunction,Conductor*
G36*
X153499535Y-66520132D02*
G01*
X153555469Y-66562002D01*
X153563592Y-66574316D01*
X153565515Y-66577646D01*
X153611964Y-66624095D01*
X153645450Y-66685418D01*
X153640466Y-66755110D01*
X153611966Y-66799458D01*
X153449460Y-66961965D01*
X153388136Y-66995450D01*
X153318445Y-66990466D01*
X153274097Y-66961965D01*
X153227647Y-66915515D01*
X153224316Y-66913592D01*
X153176100Y-66863025D01*
X153162876Y-66794418D01*
X153188844Y-66729553D01*
X153198634Y-66718522D01*
X153346657Y-66570501D01*
X153368521Y-66548636D01*
X153429843Y-66515149D01*
X153499535Y-66520132D01*
G37*
G04 #@! TD.AperFunction*
G04 #@! TA.AperFunction,Conductor*
G36*
X152370444Y-65988842D02*
G01*
X152381476Y-65998634D01*
X152551365Y-66168523D01*
X152584850Y-66229846D01*
X152579866Y-66299538D01*
X152537994Y-66355471D01*
X152525689Y-66363588D01*
X152522359Y-66365510D01*
X152465510Y-66422358D01*
X152463585Y-66425693D01*
X152413014Y-66473904D01*
X152344406Y-66487122D01*
X152279544Y-66461149D01*
X152268521Y-66451365D01*
X152114443Y-66297285D01*
X152098634Y-66281476D01*
X152065149Y-66220153D01*
X152070133Y-66150461D01*
X152112005Y-66094528D01*
X152124318Y-66086406D01*
X152127639Y-66084487D01*
X152127645Y-66084486D01*
X152184486Y-66027646D01*
X152184487Y-66027639D01*
X152186406Y-66024318D01*
X152236971Y-65976101D01*
X152305578Y-65962876D01*
X152370444Y-65988842D01*
G37*
G04 #@! TD.AperFunction*
G04 #@! TA.AperFunction,Conductor*
G36*
X153470444Y-65988842D02*
G01*
X153481476Y-65998634D01*
X153651365Y-66168523D01*
X153684850Y-66229846D01*
X153679866Y-66299538D01*
X153637994Y-66355471D01*
X153625689Y-66363588D01*
X153622359Y-66365510D01*
X153565510Y-66422358D01*
X153563585Y-66425693D01*
X153513014Y-66473904D01*
X153444406Y-66487122D01*
X153379544Y-66461149D01*
X153368521Y-66451365D01*
X153214443Y-66297285D01*
X153198634Y-66281476D01*
X153165149Y-66220153D01*
X153170133Y-66150461D01*
X153212005Y-66094528D01*
X153224318Y-66086406D01*
X153227639Y-66084487D01*
X153227645Y-66084486D01*
X153284486Y-66027646D01*
X153284487Y-66027639D01*
X153286406Y-66024318D01*
X153336971Y-65976101D01*
X153405578Y-65962876D01*
X153470444Y-65988842D01*
G37*
G04 #@! TD.AperFunction*
G04 #@! TA.AperFunction,Conductor*
G36*
X151849533Y-65970132D02*
G01*
X151905468Y-66012001D01*
X151913592Y-66024316D01*
X151915515Y-66027647D01*
X151972352Y-66084484D01*
X151975681Y-66086406D01*
X152023898Y-66136972D01*
X152037123Y-66205579D01*
X152011156Y-66270444D01*
X152001368Y-66281473D01*
X151985558Y-66297284D01*
X151831476Y-66451365D01*
X151770152Y-66484849D01*
X151700461Y-66479864D01*
X151644527Y-66437993D01*
X151636408Y-66425683D01*
X151634486Y-66422354D01*
X151577647Y-66365515D01*
X151574316Y-66363592D01*
X151526100Y-66313025D01*
X151512876Y-66244418D01*
X151538844Y-66179553D01*
X151548634Y-66168522D01*
X151705335Y-66011822D01*
X151718519Y-65998637D01*
X151779841Y-65965150D01*
X151849533Y-65970132D01*
G37*
G04 #@! TD.AperFunction*
G04 #@! TA.AperFunction,Conductor*
G36*
X152949533Y-65970132D02*
G01*
X153005468Y-66012001D01*
X153013592Y-66024316D01*
X153015515Y-66027647D01*
X153072352Y-66084484D01*
X153075681Y-66086406D01*
X153123898Y-66136972D01*
X153137123Y-66205579D01*
X153111156Y-66270444D01*
X153101368Y-66281473D01*
X153085558Y-66297284D01*
X152931476Y-66451365D01*
X152870152Y-66484849D01*
X152800461Y-66479864D01*
X152744527Y-66437993D01*
X152736408Y-66425683D01*
X152734486Y-66422354D01*
X152677647Y-66365515D01*
X152674316Y-66363592D01*
X152626100Y-66313025D01*
X152612876Y-66244418D01*
X152638844Y-66179553D01*
X152648634Y-66168522D01*
X152805335Y-66011822D01*
X152818519Y-65998637D01*
X152879841Y-65965150D01*
X152949533Y-65970132D01*
G37*
G04 #@! TD.AperFunction*
G04 #@! TA.AperFunction,Conductor*
G36*
X151820444Y-65438842D02*
G01*
X151831476Y-65448634D01*
X152001365Y-65618523D01*
X152034850Y-65679846D01*
X152029866Y-65749538D01*
X151987994Y-65805471D01*
X151975689Y-65813588D01*
X151972359Y-65815510D01*
X151915510Y-65872358D01*
X151913585Y-65875693D01*
X151863014Y-65923904D01*
X151794406Y-65937122D01*
X151729544Y-65911149D01*
X151718521Y-65901365D01*
X151598996Y-65781838D01*
X151548634Y-65731476D01*
X151515149Y-65670153D01*
X151520133Y-65600461D01*
X151562005Y-65544528D01*
X151574318Y-65536406D01*
X151577639Y-65534487D01*
X151577645Y-65534486D01*
X151634486Y-65477646D01*
X151634487Y-65477639D01*
X151636406Y-65474318D01*
X151686971Y-65426101D01*
X151755578Y-65412876D01*
X151820444Y-65438842D01*
G37*
G04 #@! TD.AperFunction*
G04 #@! TA.AperFunction,Conductor*
G36*
X152920444Y-65438842D02*
G01*
X152931476Y-65448634D01*
X153101365Y-65618523D01*
X153134850Y-65679846D01*
X153129866Y-65749538D01*
X153087994Y-65805471D01*
X153075689Y-65813588D01*
X153072359Y-65815510D01*
X153015510Y-65872358D01*
X153013585Y-65875693D01*
X152963014Y-65923904D01*
X152894406Y-65937122D01*
X152829544Y-65911149D01*
X152818521Y-65901365D01*
X152698996Y-65781838D01*
X152648634Y-65731476D01*
X152615149Y-65670153D01*
X152620133Y-65600461D01*
X152662005Y-65544528D01*
X152674318Y-65536406D01*
X152677639Y-65534487D01*
X152677645Y-65534486D01*
X152734486Y-65477646D01*
X152734487Y-65477639D01*
X152736406Y-65474318D01*
X152786971Y-65426101D01*
X152855578Y-65412876D01*
X152920444Y-65438842D01*
G37*
G04 #@! TD.AperFunction*
G04 #@! TA.AperFunction,Conductor*
G36*
X152399532Y-65420132D02*
G01*
X152455468Y-65462001D01*
X152463590Y-65474314D01*
X152465513Y-65477645D01*
X152522352Y-65534484D01*
X152525681Y-65536406D01*
X152573898Y-65586972D01*
X152587123Y-65655579D01*
X152561156Y-65720444D01*
X152551366Y-65731475D01*
X152501004Y-65781838D01*
X152381476Y-65901365D01*
X152320152Y-65934849D01*
X152250460Y-65929864D01*
X152194527Y-65887993D01*
X152186408Y-65875683D01*
X152184486Y-65872354D01*
X152127647Y-65815515D01*
X152124316Y-65813592D01*
X152076100Y-65763025D01*
X152062876Y-65694418D01*
X152088844Y-65629553D01*
X152098634Y-65618522D01*
X152257204Y-65459954D01*
X152268519Y-65448639D01*
X152329841Y-65415151D01*
X152399532Y-65420132D01*
G37*
G04 #@! TD.AperFunction*
G04 #@! TA.AperFunction,Conductor*
G36*
X153499532Y-65420132D02*
G01*
X153555468Y-65462001D01*
X153563590Y-65474314D01*
X153565513Y-65477645D01*
X153622352Y-65534484D01*
X153625681Y-65536406D01*
X153673898Y-65586972D01*
X153687123Y-65655579D01*
X153661156Y-65720444D01*
X153651366Y-65731475D01*
X153601004Y-65781838D01*
X153481476Y-65901365D01*
X153420152Y-65934849D01*
X153350460Y-65929864D01*
X153294527Y-65887993D01*
X153286408Y-65875683D01*
X153284486Y-65872354D01*
X153227647Y-65815515D01*
X153224316Y-65813592D01*
X153176100Y-65763025D01*
X153162876Y-65694418D01*
X153188844Y-65629553D01*
X153198634Y-65618522D01*
X153357204Y-65459954D01*
X153368519Y-65448639D01*
X153429841Y-65415151D01*
X153499532Y-65420132D01*
G37*
G04 #@! TD.AperFunction*
G04 #@! TA.AperFunction,Conductor*
G36*
X152370444Y-64888842D02*
G01*
X152381476Y-64898634D01*
X152551365Y-65068523D01*
X152584850Y-65129846D01*
X152579866Y-65199538D01*
X152537994Y-65255471D01*
X152525689Y-65263588D01*
X152522359Y-65265510D01*
X152465510Y-65322358D01*
X152463585Y-65325693D01*
X152413014Y-65373904D01*
X152344406Y-65387122D01*
X152279544Y-65361149D01*
X152268521Y-65351365D01*
X152111029Y-65193871D01*
X152098634Y-65181476D01*
X152065149Y-65120153D01*
X152070133Y-65050461D01*
X152112005Y-64994528D01*
X152124318Y-64986406D01*
X152127639Y-64984487D01*
X152127645Y-64984486D01*
X152184486Y-64927646D01*
X152184487Y-64927639D01*
X152186406Y-64924318D01*
X152236971Y-64876101D01*
X152305578Y-64862876D01*
X152370444Y-64888842D01*
G37*
G04 #@! TD.AperFunction*
G04 #@! TA.AperFunction,Conductor*
G36*
X153470444Y-64888842D02*
G01*
X153481476Y-64898634D01*
X153651365Y-65068523D01*
X153684850Y-65129846D01*
X153679866Y-65199538D01*
X153637994Y-65255471D01*
X153625689Y-65263588D01*
X153622359Y-65265510D01*
X153565510Y-65322358D01*
X153563585Y-65325693D01*
X153513014Y-65373904D01*
X153444406Y-65387122D01*
X153379544Y-65361149D01*
X153368521Y-65351365D01*
X153211029Y-65193871D01*
X153198634Y-65181476D01*
X153165149Y-65120153D01*
X153170133Y-65050461D01*
X153212005Y-64994528D01*
X153224318Y-64986406D01*
X153227639Y-64984487D01*
X153227645Y-64984486D01*
X153284486Y-64927646D01*
X153284487Y-64927639D01*
X153286406Y-64924318D01*
X153336971Y-64876101D01*
X153405578Y-64862876D01*
X153470444Y-64888842D01*
G37*
G04 #@! TD.AperFunction*
G04 #@! TA.AperFunction,Conductor*
G36*
X151849536Y-64870132D02*
G01*
X151905470Y-64912003D01*
X151913592Y-64924316D01*
X151915515Y-64927647D01*
X151972352Y-64984484D01*
X151975681Y-64986406D01*
X152023898Y-65036972D01*
X152037123Y-65105579D01*
X152011156Y-65170444D01*
X152001369Y-65181473D01*
X151988973Y-65193870D01*
X151831476Y-65351366D01*
X151770153Y-65384850D01*
X151700461Y-65379866D01*
X151644528Y-65337994D01*
X151636406Y-65325681D01*
X151634484Y-65322352D01*
X151577647Y-65265515D01*
X151574316Y-65263592D01*
X151526100Y-65213025D01*
X151512876Y-65144418D01*
X151538844Y-65079553D01*
X151548634Y-65068522D01*
X151689512Y-64927645D01*
X151718521Y-64898635D01*
X151779844Y-64865149D01*
X151849536Y-64870132D01*
G37*
G04 #@! TD.AperFunction*
G04 #@! TA.AperFunction,Conductor*
G36*
X152949534Y-64870132D02*
G01*
X153005469Y-64912001D01*
X153013592Y-64924316D01*
X153015515Y-64927647D01*
X153072352Y-64984484D01*
X153075681Y-64986406D01*
X153123898Y-65036972D01*
X153137123Y-65105579D01*
X153111156Y-65170444D01*
X153101369Y-65181473D01*
X153088973Y-65193870D01*
X152931476Y-65351366D01*
X152870153Y-65384850D01*
X152800461Y-65379866D01*
X152744528Y-65337994D01*
X152736406Y-65325681D01*
X152734484Y-65322352D01*
X152677647Y-65265515D01*
X152674316Y-65263592D01*
X152626100Y-65213025D01*
X152612876Y-65144418D01*
X152638844Y-65079553D01*
X152648634Y-65068522D01*
X152789513Y-64927646D01*
X152818520Y-64898637D01*
X152879842Y-64865150D01*
X152949534Y-64870132D01*
G37*
G04 #@! TD.AperFunction*
G04 #@! TA.AperFunction,Conductor*
G36*
X168317539Y-58220185D02*
G01*
X168363294Y-58272989D01*
X168374500Y-58324500D01*
X168374500Y-82775500D01*
X168354815Y-82842539D01*
X168302011Y-82888294D01*
X168250500Y-82899500D01*
X138449500Y-82899500D01*
X138382461Y-82879815D01*
X138336706Y-82827011D01*
X138325500Y-82775500D01*
X138325500Y-80670000D01*
X139394785Y-80670000D01*
X139413602Y-80873082D01*
X139469417Y-81069247D01*
X139469422Y-81069260D01*
X139560327Y-81251821D01*
X139683237Y-81414581D01*
X139833958Y-81551980D01*
X139833960Y-81551982D01*
X139898560Y-81591980D01*
X140007363Y-81659348D01*
X140197544Y-81733024D01*
X140398024Y-81770500D01*
X140398026Y-81770500D01*
X140601974Y-81770500D01*
X140601976Y-81770500D01*
X140802456Y-81733024D01*
X140992637Y-81659348D01*
X141166041Y-81551981D01*
X141316764Y-81414579D01*
X141439673Y-81251821D01*
X141514915Y-81100713D01*
X143580000Y-81100713D01*
X143595418Y-81252338D01*
X143656299Y-81446381D01*
X143656304Y-81446391D01*
X143755005Y-81624215D01*
X143755005Y-81624216D01*
X143887478Y-81778530D01*
X143887479Y-81778531D01*
X144048304Y-81903018D01*
X144230907Y-81992589D01*
X144330000Y-82018244D01*
X144330000Y-81454978D01*
X144349685Y-81387939D01*
X144402489Y-81342184D01*
X144471647Y-81332240D01*
X144487926Y-81335709D01*
X144551840Y-81353895D01*
X144663521Y-81343546D01*
X144663526Y-81343543D01*
X144672063Y-81341115D01*
X144741930Y-81341701D01*
X144800390Y-81379966D01*
X144828881Y-81443763D01*
X144830000Y-81460381D01*
X144830000Y-82023366D01*
X144831944Y-82023069D01*
X144831945Y-82023069D01*
X145022660Y-81952436D01*
X145022664Y-81952434D01*
X145195267Y-81844850D01*
X145342668Y-81704735D01*
X145342669Y-81704733D01*
X145458856Y-81537804D01*
X145539059Y-81350907D01*
X145580000Y-81151690D01*
X145580000Y-81100713D01*
X152220000Y-81100713D01*
X152235418Y-81252338D01*
X152296299Y-81446381D01*
X152296304Y-81446391D01*
X152395005Y-81624215D01*
X152395005Y-81624216D01*
X152527478Y-81778530D01*
X152527479Y-81778531D01*
X152688304Y-81903018D01*
X152870907Y-81992589D01*
X152970000Y-82018244D01*
X152970000Y-81454978D01*
X152989685Y-81387939D01*
X153042489Y-81342184D01*
X153111647Y-81332240D01*
X153127926Y-81335709D01*
X153191840Y-81353895D01*
X153303521Y-81343546D01*
X153303526Y-81343543D01*
X153312063Y-81341115D01*
X153381930Y-81341701D01*
X153440390Y-81379966D01*
X153468881Y-81443763D01*
X153470000Y-81460381D01*
X153470000Y-82023366D01*
X153471944Y-82023069D01*
X153471945Y-82023069D01*
X153662660Y-81952436D01*
X153662664Y-81952434D01*
X153835267Y-81844850D01*
X153982668Y-81704735D01*
X153982669Y-81704733D01*
X154098856Y-81537804D01*
X154179059Y-81350907D01*
X154220000Y-81151690D01*
X154220000Y-80999500D01*
X154239685Y-80932461D01*
X154292489Y-80886706D01*
X154344000Y-80875500D01*
X154452227Y-80875500D01*
X154467562Y-80877736D01*
X154467717Y-80876497D01*
X154477910Y-80877767D01*
X154477912Y-80877768D01*
X154477913Y-80877767D01*
X154477914Y-80877768D01*
X154532756Y-80875500D01*
X155332020Y-80875500D01*
X155399059Y-80895185D01*
X155431790Y-80925867D01*
X155502848Y-81022148D01*
X155502849Y-81022148D01*
X155502850Y-81022150D01*
X155612118Y-81102793D01*
X155630600Y-81109260D01*
X155740299Y-81147646D01*
X155770730Y-81150500D01*
X155770734Y-81150500D01*
X156429270Y-81150500D01*
X156459699Y-81147646D01*
X156459701Y-81147646D01*
X156523790Y-81125219D01*
X156587882Y-81102793D01*
X156697150Y-81022150D01*
X156777793Y-80912882D01*
X156800219Y-80848790D01*
X156822646Y-80784701D01*
X156822646Y-80784699D01*
X156825500Y-80754269D01*
X156825500Y-80504592D01*
X156845185Y-80437553D01*
X156897989Y-80391798D01*
X156967147Y-80381854D01*
X157016540Y-80400277D01*
X157089948Y-80447454D01*
X157228036Y-80487999D01*
X157228038Y-80488000D01*
X157228039Y-80488000D01*
X157371962Y-80488000D01*
X157371962Y-80487999D01*
X157510053Y-80447453D01*
X157631128Y-80369643D01*
X157675619Y-80318296D01*
X157734397Y-80280523D01*
X157769332Y-80275500D01*
X159225500Y-80275500D01*
X159292539Y-80295185D01*
X159338294Y-80347989D01*
X159349500Y-80399500D01*
X159349500Y-80847870D01*
X159349501Y-80847876D01*
X159355908Y-80907483D01*
X159406202Y-81042328D01*
X159406206Y-81042335D01*
X159492452Y-81157544D01*
X159492455Y-81157547D01*
X159607664Y-81243793D01*
X159607671Y-81243797D01*
X159629185Y-81251821D01*
X159742517Y-81294091D01*
X159802127Y-81300500D01*
X160397872Y-81300499D01*
X160457483Y-81294091D01*
X160463569Y-81291821D01*
X160600641Y-81240697D01*
X160601575Y-81243202D01*
X160656288Y-81231299D01*
X160721753Y-81255714D01*
X160763626Y-81311646D01*
X160771446Y-81354983D01*
X160771446Y-81382107D01*
X160781654Y-81392315D01*
X160930875Y-81484356D01*
X160930880Y-81484358D01*
X161097302Y-81539505D01*
X161097309Y-81539506D01*
X161200019Y-81549999D01*
X161799971Y-81549999D01*
X161799987Y-81549998D01*
X161902697Y-81539505D01*
X162069119Y-81484358D01*
X162069124Y-81484356D01*
X162218345Y-81392315D01*
X162228554Y-81382107D01*
X161500000Y-80653553D01*
X161008040Y-81145512D01*
X160946717Y-81178997D01*
X160877025Y-81174013D01*
X160821092Y-81132141D01*
X160796675Y-81066677D01*
X160804177Y-81014498D01*
X160816926Y-80980315D01*
X160844091Y-80907483D01*
X160850500Y-80847873D01*
X160850499Y-80647307D01*
X160870183Y-80580270D01*
X160886818Y-80559627D01*
X161146445Y-80300000D01*
X161853552Y-80300000D01*
X162491056Y-80937504D01*
X162499999Y-80849981D01*
X162499999Y-80710000D01*
X165094785Y-80710000D01*
X165113602Y-80913082D01*
X165169417Y-81109247D01*
X165169422Y-81109260D01*
X165260327Y-81291821D01*
X165383237Y-81454581D01*
X165533958Y-81591980D01*
X165533960Y-81591982D01*
X165586019Y-81624215D01*
X165707363Y-81699348D01*
X165897544Y-81773024D01*
X166098024Y-81810500D01*
X166098026Y-81810500D01*
X166301974Y-81810500D01*
X166301976Y-81810500D01*
X166502456Y-81773024D01*
X166692637Y-81699348D01*
X166866041Y-81591981D01*
X167010400Y-81460381D01*
X167016762Y-81454581D01*
X167022947Y-81446391D01*
X167139673Y-81291821D01*
X167230582Y-81109250D01*
X167286397Y-80913083D01*
X167305215Y-80710000D01*
X167301508Y-80669999D01*
X167286397Y-80506917D01*
X167248863Y-80375000D01*
X167230582Y-80310750D01*
X167225229Y-80300000D01*
X167178646Y-80206448D01*
X167139673Y-80128179D01*
X167016764Y-79965421D01*
X167016762Y-79965418D01*
X166866041Y-79828019D01*
X166866039Y-79828017D01*
X166692642Y-79720655D01*
X166692635Y-79720651D01*
X166523553Y-79655149D01*
X166502456Y-79646976D01*
X166301976Y-79609500D01*
X166098024Y-79609500D01*
X165897544Y-79646976D01*
X165897541Y-79646976D01*
X165897541Y-79646977D01*
X165707364Y-79720651D01*
X165707357Y-79720655D01*
X165533960Y-79828017D01*
X165533958Y-79828019D01*
X165383237Y-79965418D01*
X165260327Y-80128178D01*
X165169422Y-80310739D01*
X165169417Y-80310752D01*
X165113602Y-80506917D01*
X165094785Y-80709999D01*
X165094785Y-80710000D01*
X162499999Y-80710000D01*
X162499999Y-79750027D01*
X162499998Y-79750014D01*
X162491056Y-79662495D01*
X161853552Y-80300000D01*
X161146445Y-80300000D01*
X161146446Y-80299999D01*
X160886818Y-80040371D01*
X160853333Y-79979048D01*
X160850499Y-79952690D01*
X160850499Y-79752129D01*
X160850498Y-79752123D01*
X160850271Y-79750014D01*
X160844091Y-79692517D01*
X160839665Y-79680651D01*
X160804177Y-79585501D01*
X160799193Y-79515809D01*
X160832678Y-79454486D01*
X160894002Y-79421002D01*
X160963693Y-79425986D01*
X161008040Y-79454487D01*
X161500000Y-79946447D01*
X161500001Y-79946447D01*
X162228552Y-79217894D01*
X162228553Y-79217892D01*
X162218347Y-79207686D01*
X162069124Y-79115643D01*
X162069119Y-79115641D01*
X161902697Y-79060494D01*
X161902690Y-79060493D01*
X161799980Y-79050000D01*
X161200028Y-79050000D01*
X161200012Y-79050001D01*
X161097302Y-79060494D01*
X160930880Y-79115641D01*
X160930875Y-79115643D01*
X160781654Y-79207684D01*
X160771446Y-79217892D01*
X160771446Y-79245016D01*
X160751761Y-79312055D01*
X160698957Y-79357810D01*
X160629799Y-79367754D01*
X160601056Y-79358190D01*
X160600641Y-79359303D01*
X160457486Y-79305910D01*
X160457485Y-79305909D01*
X160457483Y-79305909D01*
X160397873Y-79299500D01*
X160397863Y-79299500D01*
X159802129Y-79299500D01*
X159802123Y-79299501D01*
X159742516Y-79305908D01*
X159607671Y-79356202D01*
X159607664Y-79356206D01*
X159492457Y-79442451D01*
X159492449Y-79442458D01*
X159468232Y-79474810D01*
X159412299Y-79516682D01*
X159368965Y-79524500D01*
X157517503Y-79524500D01*
X157482569Y-79519477D01*
X157427224Y-79503226D01*
X157371962Y-79487000D01*
X157371961Y-79487000D01*
X157228039Y-79487000D01*
X157228036Y-79487000D01*
X157089949Y-79527545D01*
X156968873Y-79605356D01*
X156874623Y-79714126D01*
X156874622Y-79714128D01*
X156814834Y-79845044D01*
X156812335Y-79853556D01*
X156809271Y-79852656D01*
X156786751Y-79901939D01*
X156727964Y-79939700D01*
X156658095Y-79939684D01*
X156619424Y-79920486D01*
X156612054Y-79915047D01*
X156587882Y-79897207D01*
X156587880Y-79897206D01*
X156459700Y-79852353D01*
X156429270Y-79849500D01*
X156429266Y-79849500D01*
X155770734Y-79849500D01*
X155770730Y-79849500D01*
X155740300Y-79852353D01*
X155740298Y-79852353D01*
X155612119Y-79897206D01*
X155612117Y-79897207D01*
X155502848Y-79977851D01*
X155431790Y-80074133D01*
X155376143Y-80116384D01*
X155332020Y-80124500D01*
X154901826Y-80124500D01*
X154834787Y-80104815D01*
X154808113Y-80081703D01*
X154801390Y-80073944D01*
X154731128Y-79992857D01*
X154610053Y-79915047D01*
X154610051Y-79915046D01*
X154610049Y-79915045D01*
X154610050Y-79915045D01*
X154471963Y-79874500D01*
X154471961Y-79874500D01*
X154328039Y-79874500D01*
X154328036Y-79874500D01*
X154181437Y-79917545D01*
X154180646Y-79914854D01*
X154125663Y-79922748D01*
X154062113Y-79893710D01*
X154049772Y-79879972D01*
X154049091Y-79880558D01*
X153912517Y-79721466D01*
X153751695Y-79596981D01*
X153569093Y-79507411D01*
X153470000Y-79481753D01*
X153470000Y-80045021D01*
X153450315Y-80112060D01*
X153397511Y-80157815D01*
X153328353Y-80167759D01*
X153312066Y-80164287D01*
X153248162Y-80146105D01*
X153248162Y-80146104D01*
X153136475Y-80156454D01*
X153127931Y-80158885D01*
X153058064Y-80158297D01*
X152999606Y-80120028D01*
X152971118Y-80056230D01*
X152970000Y-80039618D01*
X152970000Y-79476633D01*
X152968053Y-79476931D01*
X152968047Y-79476933D01*
X152777342Y-79547562D01*
X152777335Y-79547565D01*
X152604732Y-79655149D01*
X152457331Y-79795264D01*
X152457330Y-79795266D01*
X152341143Y-79962195D01*
X152260940Y-80149092D01*
X152220000Y-80348309D01*
X152220000Y-80500000D01*
X152796000Y-80500000D01*
X152863039Y-80519685D01*
X152908794Y-80572489D01*
X152920000Y-80624000D01*
X152920000Y-80876000D01*
X152900315Y-80943039D01*
X152847511Y-80988794D01*
X152796000Y-81000000D01*
X152220000Y-81000000D01*
X152220000Y-81100713D01*
X145580000Y-81100713D01*
X145580000Y-81000000D01*
X145004000Y-81000000D01*
X144936961Y-80980315D01*
X144891206Y-80927511D01*
X144880000Y-80876000D01*
X144880000Y-80624000D01*
X144899685Y-80556961D01*
X144952489Y-80511206D01*
X145004000Y-80500000D01*
X145580000Y-80500000D01*
X145580000Y-80399286D01*
X145564581Y-80247661D01*
X145503700Y-80053618D01*
X145503695Y-80053608D01*
X145404994Y-79875784D01*
X145404994Y-79875783D01*
X145272521Y-79721469D01*
X145272520Y-79721468D01*
X145111695Y-79596981D01*
X144929093Y-79507411D01*
X144830000Y-79481753D01*
X144830000Y-80045021D01*
X144810315Y-80112060D01*
X144757511Y-80157815D01*
X144688353Y-80167759D01*
X144672066Y-80164287D01*
X144608162Y-80146105D01*
X144608162Y-80146104D01*
X144496475Y-80156454D01*
X144487931Y-80158885D01*
X144418064Y-80158297D01*
X144359606Y-80120028D01*
X144331118Y-80056230D01*
X144330000Y-80039618D01*
X144330000Y-79476633D01*
X144328053Y-79476931D01*
X144328047Y-79476933D01*
X144137342Y-79547562D01*
X144137335Y-79547565D01*
X143964732Y-79655149D01*
X143817331Y-79795264D01*
X143817330Y-79795266D01*
X143701143Y-79962195D01*
X143620940Y-80149092D01*
X143580000Y-80348309D01*
X143580000Y-80500000D01*
X144156000Y-80500000D01*
X144223039Y-80519685D01*
X144268794Y-80572489D01*
X144280000Y-80624000D01*
X144280000Y-80876000D01*
X144260315Y-80943039D01*
X144207511Y-80988794D01*
X144156000Y-81000000D01*
X143580000Y-81000000D01*
X143580000Y-81100713D01*
X141514915Y-81100713D01*
X141530582Y-81069250D01*
X141586397Y-80873083D01*
X141605215Y-80670000D01*
X141605090Y-80668656D01*
X141586397Y-80466917D01*
X141565627Y-80393920D01*
X141530582Y-80270750D01*
X141520259Y-80250019D01*
X141470004Y-80149092D01*
X141439673Y-80088179D01*
X141367689Y-79992857D01*
X141316762Y-79925418D01*
X141166041Y-79788019D01*
X141166039Y-79788017D01*
X140992642Y-79680655D01*
X140992635Y-79680651D01*
X140808971Y-79609500D01*
X140802456Y-79606976D01*
X140601976Y-79569500D01*
X140398024Y-79569500D01*
X140197544Y-79606976D01*
X140197541Y-79606976D01*
X140197541Y-79606977D01*
X140007364Y-79680651D01*
X140007357Y-79680655D01*
X139833960Y-79788017D01*
X139833958Y-79788019D01*
X139683237Y-79925418D01*
X139560327Y-80088178D01*
X139469422Y-80270739D01*
X139469417Y-80270752D01*
X139413602Y-80466917D01*
X139394785Y-80669999D01*
X139394785Y-80670000D01*
X138325500Y-80670000D01*
X138325500Y-78130000D01*
X139394785Y-78130000D01*
X139413602Y-78333082D01*
X139469417Y-78529247D01*
X139469422Y-78529260D01*
X139560327Y-78711821D01*
X139683237Y-78874581D01*
X139833958Y-79011980D01*
X139833960Y-79011982D01*
X139898560Y-79051980D01*
X140007363Y-79119348D01*
X140197544Y-79193024D01*
X140398024Y-79230500D01*
X140398026Y-79230500D01*
X140601974Y-79230500D01*
X140601976Y-79230500D01*
X140802456Y-79193024D01*
X140992637Y-79119348D01*
X141166041Y-79011981D01*
X141316764Y-78874579D01*
X141439673Y-78711821D01*
X141530582Y-78529250D01*
X141586397Y-78333083D01*
X141605215Y-78130000D01*
X141601820Y-78093366D01*
X141586397Y-77926917D01*
X141564094Y-77848531D01*
X141530582Y-77730750D01*
X141512390Y-77694216D01*
X141474168Y-77617454D01*
X141439673Y-77548179D01*
X141345818Y-77423895D01*
X141316762Y-77385418D01*
X141166041Y-77248019D01*
X141166039Y-77248017D01*
X141041188Y-77170713D01*
X143580000Y-77170713D01*
X143595418Y-77322338D01*
X143656299Y-77516381D01*
X143656304Y-77516391D01*
X143755005Y-77694215D01*
X143755005Y-77694216D01*
X143887478Y-77848530D01*
X143887479Y-77848531D01*
X144048304Y-77973018D01*
X144230907Y-78062589D01*
X144330000Y-78088244D01*
X144330000Y-77524978D01*
X144349685Y-77457939D01*
X144402489Y-77412184D01*
X144471647Y-77402240D01*
X144487926Y-77405709D01*
X144551840Y-77423895D01*
X144663521Y-77413546D01*
X144663526Y-77413543D01*
X144672063Y-77411115D01*
X144741930Y-77411701D01*
X144800390Y-77449966D01*
X144828881Y-77513763D01*
X144830000Y-77530381D01*
X144830000Y-78093365D01*
X144831944Y-78093069D01*
X144831945Y-78093069D01*
X145022660Y-78022436D01*
X145022664Y-78022434D01*
X145195267Y-77914850D01*
X145342668Y-77774735D01*
X145342669Y-77774733D01*
X145458855Y-77607806D01*
X145462234Y-77599931D01*
X145506758Y-77546084D01*
X145573325Y-77524857D01*
X145640801Y-77542988D01*
X145651663Y-77550440D01*
X145719767Y-77602698D01*
X145859764Y-77660687D01*
X145972280Y-77675500D01*
X145972287Y-77675500D01*
X146047713Y-77675500D01*
X146047720Y-77675500D01*
X146160236Y-77660687D01*
X146300233Y-77602698D01*
X146420451Y-77510451D01*
X146499216Y-77407801D01*
X146555642Y-77366602D01*
X146625388Y-77362447D01*
X146686309Y-77396659D01*
X146708977Y-77435382D01*
X146711151Y-77434390D01*
X146714834Y-77442456D01*
X146714835Y-77442457D01*
X146774623Y-77573373D01*
X146868872Y-77682143D01*
X146989947Y-77759953D01*
X146989950Y-77759954D01*
X146989949Y-77759954D01*
X147040290Y-77774735D01*
X147128032Y-77800498D01*
X147128036Y-77800499D01*
X147128038Y-77800500D01*
X147128039Y-77800500D01*
X147271962Y-77800500D01*
X147271962Y-77800499D01*
X147410053Y-77759953D01*
X147510834Y-77695184D01*
X147577874Y-77675500D01*
X149194100Y-77675500D01*
X149261139Y-77695185D01*
X149306894Y-77747989D01*
X149316838Y-77817147D01*
X149287813Y-77880703D01*
X149281781Y-77887181D01*
X148755779Y-78413181D01*
X148694456Y-78446666D01*
X148668098Y-78449500D01*
X148249998Y-78449500D01*
X148249980Y-78449501D01*
X148147203Y-78460000D01*
X148147200Y-78460001D01*
X147980668Y-78515185D01*
X147980663Y-78515187D01*
X147831342Y-78607289D01*
X147707289Y-78731342D01*
X147615187Y-78880663D01*
X147615185Y-78880668D01*
X147592751Y-78948371D01*
X147560001Y-79047203D01*
X147560001Y-79047204D01*
X147560000Y-79047204D01*
X147549500Y-79149983D01*
X147549500Y-80250001D01*
X147549501Y-80250019D01*
X147560000Y-80352796D01*
X147560001Y-80352799D01*
X147604803Y-80488000D01*
X147615186Y-80519334D01*
X147707288Y-80668656D01*
X147831344Y-80792712D01*
X147980666Y-80884814D01*
X148147203Y-80939999D01*
X148249991Y-80950500D01*
X149350008Y-80950499D01*
X149350016Y-80950498D01*
X149350019Y-80950498D01*
X149423037Y-80943039D01*
X149452797Y-80939999D01*
X149619334Y-80884814D01*
X149768656Y-80792712D01*
X149892712Y-80668656D01*
X149984814Y-80519334D01*
X150039999Y-80352797D01*
X150050500Y-80250009D01*
X150050499Y-79149992D01*
X150039999Y-79047203D01*
X149984814Y-78880666D01*
X149892712Y-78731344D01*
X149836368Y-78674999D01*
X154294353Y-78674999D01*
X154314834Y-78817456D01*
X154374622Y-78948371D01*
X154374623Y-78948373D01*
X154468872Y-79057143D01*
X154589947Y-79134953D01*
X154589950Y-79134954D01*
X154589949Y-79134954D01*
X154728036Y-79175499D01*
X154728038Y-79175500D01*
X154728039Y-79175500D01*
X154745342Y-79175500D01*
X154799806Y-79188101D01*
X154807798Y-79192008D01*
X154807801Y-79192010D01*
X154860405Y-79207671D01*
X154912340Y-79225500D01*
X154912342Y-79225500D01*
X154920079Y-79226791D01*
X154927909Y-79227767D01*
X154927911Y-79227768D01*
X154927912Y-79227767D01*
X154927913Y-79227768D01*
X154982755Y-79225500D01*
X155332020Y-79225500D01*
X155399059Y-79245185D01*
X155431790Y-79275867D01*
X155502848Y-79372148D01*
X155502849Y-79372148D01*
X155502850Y-79372150D01*
X155612118Y-79452793D01*
X155654845Y-79467744D01*
X155740299Y-79497646D01*
X155770730Y-79500500D01*
X155770734Y-79500500D01*
X156429270Y-79500500D01*
X156459699Y-79497646D01*
X156459701Y-79497646D01*
X156524961Y-79474810D01*
X156587882Y-79452793D01*
X156697150Y-79372150D01*
X156777793Y-79262882D01*
X156814021Y-79159348D01*
X156822646Y-79134701D01*
X156822646Y-79134699D01*
X156825500Y-79104269D01*
X156825500Y-78595730D01*
X156822646Y-78565300D01*
X156822646Y-78565298D01*
X156782126Y-78449501D01*
X156777793Y-78437118D01*
X156697150Y-78327850D01*
X156587882Y-78247207D01*
X156587880Y-78247206D01*
X156459700Y-78202353D01*
X156429270Y-78199500D01*
X156429266Y-78199500D01*
X155770734Y-78199500D01*
X155770730Y-78199500D01*
X155740300Y-78202353D01*
X155740298Y-78202353D01*
X155612119Y-78247206D01*
X155612117Y-78247207D01*
X155502850Y-78327850D01*
X155435698Y-78418837D01*
X155380050Y-78461088D01*
X155310394Y-78466545D01*
X155248844Y-78433478D01*
X155231285Y-78408371D01*
X155230171Y-78409087D01*
X155225376Y-78401626D01*
X155210413Y-78384358D01*
X155131128Y-78292857D01*
X155010053Y-78215047D01*
X155010051Y-78215046D01*
X155010049Y-78215045D01*
X155010050Y-78215045D01*
X154871963Y-78174500D01*
X154871961Y-78174500D01*
X154728039Y-78174500D01*
X154728036Y-78174500D01*
X154589949Y-78215045D01*
X154468873Y-78292856D01*
X154374623Y-78401626D01*
X154374622Y-78401628D01*
X154314834Y-78532543D01*
X154294353Y-78674999D01*
X149836368Y-78674999D01*
X149783883Y-78622514D01*
X149750398Y-78561192D01*
X149755382Y-78491500D01*
X149783883Y-78447153D01*
X150036947Y-78194089D01*
X150394399Y-77836637D01*
X150455720Y-77803154D01*
X150464436Y-77801581D01*
X150471954Y-77800500D01*
X150471961Y-77800500D01*
X150559710Y-77774735D01*
X150610050Y-77759954D01*
X150610050Y-77759953D01*
X150610053Y-77759953D01*
X150731128Y-77682143D01*
X150825377Y-77573373D01*
X150885165Y-77442457D01*
X150905647Y-77300000D01*
X150885165Y-77157543D01*
X150825377Y-77026627D01*
X150731128Y-76917857D01*
X150610053Y-76840047D01*
X150610051Y-76840046D01*
X150610049Y-76840045D01*
X150610050Y-76840045D01*
X150471963Y-76799500D01*
X150471961Y-76799500D01*
X150328039Y-76799500D01*
X150328036Y-76799500D01*
X150189949Y-76840045D01*
X150189948Y-76840046D01*
X150089166Y-76904815D01*
X150022126Y-76924500D01*
X147577874Y-76924500D01*
X147510835Y-76904815D01*
X147510834Y-76904815D01*
X147410053Y-76840047D01*
X147410052Y-76840046D01*
X147410051Y-76840046D01*
X147410050Y-76840045D01*
X147271963Y-76799500D01*
X147271961Y-76799500D01*
X147128039Y-76799500D01*
X147128036Y-76799500D01*
X146989949Y-76840045D01*
X146868873Y-76917856D01*
X146787015Y-77012325D01*
X146728236Y-77050099D01*
X146658367Y-77050099D01*
X146599589Y-77012324D01*
X146574405Y-76957181D01*
X146572790Y-76957614D01*
X146570687Y-76949765D01*
X146570687Y-76949764D01*
X146512698Y-76809767D01*
X146420451Y-76689549D01*
X146300233Y-76597302D01*
X146300229Y-76597300D01*
X146211069Y-76560369D01*
X146160236Y-76539313D01*
X146140039Y-76536654D01*
X146047727Y-76524500D01*
X146047720Y-76524500D01*
X145972280Y-76524500D01*
X145972272Y-76524500D01*
X145859764Y-76539313D01*
X145859760Y-76539314D01*
X145751452Y-76584176D01*
X145681982Y-76591645D01*
X145619503Y-76560369D01*
X145583852Y-76500280D01*
X145580000Y-76469615D01*
X145580000Y-75969286D01*
X145564581Y-75817661D01*
X145503700Y-75623618D01*
X145503695Y-75623608D01*
X145404994Y-75445784D01*
X145404994Y-75445783D01*
X145272521Y-75291469D01*
X145272520Y-75291468D01*
X145111695Y-75166981D01*
X144929093Y-75077411D01*
X144830000Y-75051753D01*
X144830000Y-75615021D01*
X144810315Y-75682060D01*
X144757511Y-75727815D01*
X144688353Y-75737759D01*
X144672066Y-75734287D01*
X144608162Y-75716105D01*
X144608162Y-75716104D01*
X144496475Y-75726454D01*
X144487931Y-75728885D01*
X144418064Y-75728297D01*
X144359606Y-75690028D01*
X144331118Y-75626230D01*
X144330000Y-75609618D01*
X144330000Y-75046633D01*
X144328053Y-75046931D01*
X144328047Y-75046933D01*
X144137342Y-75117562D01*
X144137335Y-75117565D01*
X143964732Y-75225149D01*
X143817331Y-75365264D01*
X143817330Y-75365266D01*
X143701143Y-75532195D01*
X143620940Y-75719092D01*
X143580000Y-75918309D01*
X143580000Y-76320000D01*
X144156000Y-76320000D01*
X144223039Y-76339685D01*
X144268794Y-76392489D01*
X144280000Y-76444000D01*
X144280000Y-76696000D01*
X144260315Y-76763039D01*
X144207511Y-76808794D01*
X144156000Y-76820000D01*
X143580000Y-76820000D01*
X143580000Y-77170713D01*
X141041188Y-77170713D01*
X140992642Y-77140655D01*
X140992635Y-77140651D01*
X140808971Y-77069500D01*
X140802456Y-77066976D01*
X140601976Y-77029500D01*
X140398024Y-77029500D01*
X140197544Y-77066976D01*
X140197541Y-77066976D01*
X140197541Y-77066977D01*
X140007364Y-77140651D01*
X140007357Y-77140655D01*
X139833960Y-77248017D01*
X139833958Y-77248019D01*
X139683237Y-77385418D01*
X139560327Y-77548178D01*
X139469422Y-77730739D01*
X139469417Y-77730752D01*
X139413602Y-77926917D01*
X139394785Y-78129999D01*
X139394785Y-78130000D01*
X138325500Y-78130000D01*
X138325500Y-64239271D01*
X138944633Y-64239271D01*
X138949023Y-64274491D01*
X138949500Y-64282167D01*
X138949500Y-64286116D01*
X138953342Y-64309141D01*
X138960134Y-64363627D01*
X138962373Y-64371147D01*
X138964934Y-64378608D01*
X138964935Y-64378610D01*
X138988824Y-64422755D01*
X138991055Y-64426877D01*
X139015174Y-64476211D01*
X139019742Y-64482609D01*
X139024582Y-64488827D01*
X139064970Y-64526008D01*
X139440289Y-64901326D01*
X139473774Y-64962649D01*
X139469331Y-65024765D01*
X139470986Y-65025236D01*
X139413603Y-65226915D01*
X139413602Y-65226917D01*
X139394785Y-65429999D01*
X139394785Y-65430000D01*
X139413602Y-65633082D01*
X139469417Y-65829247D01*
X139469422Y-65829260D01*
X139560327Y-66011821D01*
X139683237Y-66174581D01*
X139833958Y-66311980D01*
X139833960Y-66311982D01*
X139924410Y-66367986D01*
X140007363Y-66419348D01*
X140197544Y-66493024D01*
X140398024Y-66530500D01*
X140398026Y-66530500D01*
X140601974Y-66530500D01*
X140601976Y-66530500D01*
X140802456Y-66493024D01*
X140992637Y-66419348D01*
X141166041Y-66311981D01*
X141316764Y-66174579D01*
X141439673Y-66011821D01*
X141530582Y-65829250D01*
X141586397Y-65633083D01*
X141605215Y-65430000D01*
X141600780Y-65382143D01*
X141586397Y-65226917D01*
X141562957Y-65144535D01*
X141530582Y-65030750D01*
X141527836Y-65025236D01*
X141463079Y-64895185D01*
X141439673Y-64848179D01*
X141328151Y-64700500D01*
X141316762Y-64685418D01*
X141166041Y-64548019D01*
X141166039Y-64548017D01*
X140992642Y-64440655D01*
X140992635Y-64440651D01*
X140832484Y-64378609D01*
X140802456Y-64366976D01*
X140601976Y-64329500D01*
X140398024Y-64329500D01*
X140246739Y-64357779D01*
X140197538Y-64366977D01*
X140107445Y-64401879D01*
X140037821Y-64407740D01*
X139976081Y-64375030D01*
X139974971Y-64373933D01*
X139736819Y-64135781D01*
X139703334Y-64074458D01*
X139700500Y-64048100D01*
X139700500Y-63911969D01*
X139720185Y-63844930D01*
X139772989Y-63799175D01*
X139842147Y-63789231D01*
X139889775Y-63806541D01*
X140007363Y-63879348D01*
X140197544Y-63953024D01*
X140398024Y-63990500D01*
X140398026Y-63990500D01*
X140601974Y-63990500D01*
X140601976Y-63990500D01*
X140802456Y-63953024D01*
X140992637Y-63879348D01*
X141166041Y-63771981D01*
X141316764Y-63634579D01*
X141439673Y-63471821D01*
X141530582Y-63289250D01*
X141586397Y-63093083D01*
X141605215Y-62890000D01*
X141586397Y-62686917D01*
X141530582Y-62490750D01*
X141523919Y-62477369D01*
X141472697Y-62374500D01*
X141439673Y-62308179D01*
X141346453Y-62184736D01*
X141316762Y-62145418D01*
X141166041Y-62008019D01*
X141166039Y-62008017D01*
X140992642Y-61900655D01*
X140992635Y-61900651D01*
X140808971Y-61829500D01*
X140802456Y-61826976D01*
X140601976Y-61789500D01*
X140398024Y-61789500D01*
X140197544Y-61826976D01*
X140197541Y-61826976D01*
X140197541Y-61826977D01*
X140007364Y-61900651D01*
X140007357Y-61900655D01*
X139889777Y-61973457D01*
X139822416Y-61992012D01*
X139755717Y-61971204D01*
X139710856Y-61917639D01*
X139700500Y-61868030D01*
X139700500Y-61574500D01*
X139720185Y-61507461D01*
X139772989Y-61461706D01*
X139824500Y-61450500D01*
X141374676Y-61450500D01*
X141374677Y-61450499D01*
X141447740Y-61435966D01*
X141530601Y-61380601D01*
X141585966Y-61297740D01*
X141600500Y-61224674D01*
X141600500Y-60849500D01*
X141620185Y-60782461D01*
X141672989Y-60736706D01*
X141724500Y-60725500D01*
X144400500Y-60725500D01*
X144467539Y-60745185D01*
X144513294Y-60797989D01*
X144524500Y-60849500D01*
X144524500Y-61395481D01*
X144524501Y-61395490D01*
X144530587Y-61452114D01*
X144568521Y-61553815D01*
X144578372Y-61580226D01*
X144660313Y-61689687D01*
X144724809Y-61737968D01*
X144766680Y-61793899D01*
X144774499Y-61837234D01*
X144774499Y-62520245D01*
X144754814Y-62587284D01*
X144738181Y-62607926D01*
X144671951Y-62674155D01*
X144671951Y-62674157D01*
X144614352Y-62787198D01*
X144599500Y-62880975D01*
X144599500Y-63969018D01*
X144601415Y-63981104D01*
X144592459Y-64050397D01*
X144547462Y-64103848D01*
X144480710Y-64124487D01*
X144478941Y-64124500D01*
X144021804Y-64124500D01*
X143996359Y-64121861D01*
X143985733Y-64119633D01*
X143985730Y-64119633D01*
X143950508Y-64124023D01*
X143942832Y-64124500D01*
X143938886Y-64124500D01*
X143921615Y-64127381D01*
X143915858Y-64128342D01*
X143861370Y-64135134D01*
X143853857Y-64137371D01*
X143846387Y-64139936D01*
X143798122Y-64166055D01*
X143748792Y-64190171D01*
X143742375Y-64194753D01*
X143736175Y-64199579D01*
X143698991Y-64239971D01*
X141025028Y-66913933D01*
X140963705Y-66947418D01*
X140894013Y-66942434D01*
X140892554Y-66941879D01*
X140802461Y-66906977D01*
X140794405Y-66905471D01*
X140601976Y-66869500D01*
X140398024Y-66869500D01*
X140197544Y-66906976D01*
X140197541Y-66906976D01*
X140197541Y-66906977D01*
X140007364Y-66980651D01*
X140007357Y-66980655D01*
X139833960Y-67088017D01*
X139833958Y-67088019D01*
X139683237Y-67225418D01*
X139560327Y-67388178D01*
X139469422Y-67570739D01*
X139469417Y-67570752D01*
X139413602Y-67766917D01*
X139394785Y-67969999D01*
X139394785Y-67970000D01*
X139413602Y-68173082D01*
X139469417Y-68369247D01*
X139469422Y-68369260D01*
X139560327Y-68551821D01*
X139683237Y-68714581D01*
X139833958Y-68851980D01*
X139833960Y-68851982D01*
X139898560Y-68891980D01*
X140007363Y-68959348D01*
X140197544Y-69033024D01*
X140398024Y-69070500D01*
X140398026Y-69070500D01*
X140601974Y-69070500D01*
X140601976Y-69070500D01*
X140802456Y-69033024D01*
X140992637Y-68959348D01*
X141166041Y-68851981D01*
X141316764Y-68714579D01*
X141439673Y-68551821D01*
X141527719Y-68375000D01*
X143625001Y-68375000D01*
X143625001Y-68423322D01*
X143635144Y-68522607D01*
X143688452Y-68683481D01*
X143688457Y-68683492D01*
X143777424Y-68827728D01*
X143777427Y-68827732D01*
X143897267Y-68947572D01*
X143897271Y-68947575D01*
X144041507Y-69036542D01*
X144041518Y-69036547D01*
X144202393Y-69089855D01*
X144301683Y-69099999D01*
X144325000Y-69099998D01*
X144325000Y-68375000D01*
X143625001Y-68375000D01*
X141527719Y-68375000D01*
X141530582Y-68369250D01*
X141586397Y-68173083D01*
X141605215Y-67970000D01*
X141604446Y-67961706D01*
X141596412Y-67875000D01*
X143625000Y-67875000D01*
X144325000Y-67875000D01*
X144325000Y-67149999D01*
X144301693Y-67150000D01*
X144301674Y-67150001D01*
X144202392Y-67160144D01*
X144041518Y-67213452D01*
X144041507Y-67213457D01*
X143897271Y-67302424D01*
X143897267Y-67302427D01*
X143777427Y-67422267D01*
X143777424Y-67422271D01*
X143688457Y-67566507D01*
X143688452Y-67566518D01*
X143635144Y-67727393D01*
X143625000Y-67826677D01*
X143625000Y-67875000D01*
X141596412Y-67875000D01*
X141586397Y-67766917D01*
X141573420Y-67721307D01*
X141530582Y-67570750D01*
X141530581Y-67570748D01*
X141529013Y-67565237D01*
X141530994Y-67564673D01*
X141525902Y-67504174D01*
X141558614Y-67442435D01*
X141559628Y-67441407D01*
X144089217Y-64911819D01*
X144150541Y-64878334D01*
X144176899Y-64875500D01*
X145457131Y-64875500D01*
X145524170Y-64895185D01*
X145569925Y-64947989D01*
X145579869Y-65017147D01*
X145567615Y-65055796D01*
X145564353Y-65062196D01*
X145564352Y-65062198D01*
X145549500Y-65155975D01*
X145549500Y-66244017D01*
X145558294Y-66299538D01*
X145564354Y-66337804D01*
X145621950Y-66450842D01*
X145688181Y-66517073D01*
X145721665Y-66578394D01*
X145724499Y-66604753D01*
X145724499Y-67350335D01*
X145704814Y-67417374D01*
X145674808Y-67449603D01*
X145588195Y-67514439D01*
X145522731Y-67538855D01*
X145454458Y-67524002D01*
X145408347Y-67480268D01*
X145372571Y-67422266D01*
X145252732Y-67302427D01*
X145252728Y-67302424D01*
X145108492Y-67213457D01*
X145108481Y-67213452D01*
X144947606Y-67160144D01*
X144848322Y-67150000D01*
X144825000Y-67150000D01*
X144825000Y-69099999D01*
X144848308Y-69099999D01*
X144848322Y-69099998D01*
X144947607Y-69089855D01*
X145108481Y-69036547D01*
X145108492Y-69036542D01*
X145252728Y-68947575D01*
X145252732Y-68947572D01*
X145372573Y-68827731D01*
X145408348Y-68769731D01*
X145460296Y-68723006D01*
X145529258Y-68711783D01*
X145588194Y-68735558D01*
X145669774Y-68796628D01*
X145710174Y-68811696D01*
X145766105Y-68853567D01*
X145775893Y-68868860D01*
X145791054Y-68896876D01*
X145815173Y-68946210D01*
X145819742Y-68952609D01*
X145824582Y-68958827D01*
X145864971Y-68996009D01*
X146256782Y-69387819D01*
X146290267Y-69449142D01*
X146285283Y-69518833D01*
X146243412Y-69574767D01*
X146177947Y-69599184D01*
X146169101Y-69599500D01*
X141155262Y-69599500D01*
X141089985Y-69580927D01*
X140992642Y-69520655D01*
X140992635Y-69520651D01*
X140844748Y-69463360D01*
X140802456Y-69446976D01*
X140601976Y-69409500D01*
X140398024Y-69409500D01*
X140197544Y-69446976D01*
X140197541Y-69446976D01*
X140197541Y-69446977D01*
X140007364Y-69520651D01*
X140007357Y-69520655D01*
X139833960Y-69628017D01*
X139833958Y-69628019D01*
X139683237Y-69765418D01*
X139560327Y-69928178D01*
X139469422Y-70110739D01*
X139469417Y-70110752D01*
X139413602Y-70306917D01*
X139394785Y-70509999D01*
X139394785Y-70510000D01*
X139413602Y-70713082D01*
X139469417Y-70909247D01*
X139469422Y-70909260D01*
X139560327Y-71091821D01*
X139683237Y-71254581D01*
X139833958Y-71391980D01*
X139833960Y-71391982D01*
X139933141Y-71453392D01*
X140007363Y-71499348D01*
X140088283Y-71530696D01*
X140143685Y-71573269D01*
X140167276Y-71639035D01*
X140151565Y-71707116D01*
X140101542Y-71755895D01*
X140075586Y-71766097D01*
X140036519Y-71776565D01*
X140036507Y-71776570D01*
X139822422Y-71876399D01*
X139822420Y-71876400D01*
X139628926Y-72011886D01*
X139628920Y-72011891D01*
X139461891Y-72178920D01*
X139461886Y-72178926D01*
X139326400Y-72372420D01*
X139326399Y-72372422D01*
X139226570Y-72586507D01*
X139226567Y-72586513D01*
X139169364Y-72799999D01*
X139169364Y-72800000D01*
X139886653Y-72800000D01*
X139953692Y-72819685D01*
X139999447Y-72872489D01*
X140009391Y-72941647D01*
X140005631Y-72958933D01*
X140000000Y-72978111D01*
X140000000Y-73121888D01*
X140005631Y-73141067D01*
X140005630Y-73210936D01*
X139967855Y-73269714D01*
X139904299Y-73298738D01*
X139886653Y-73300000D01*
X139169364Y-73300000D01*
X139226567Y-73513486D01*
X139226570Y-73513492D01*
X139326399Y-73727578D01*
X139461894Y-73921082D01*
X139628917Y-74088105D01*
X139822421Y-74223600D01*
X140036507Y-74323429D01*
X140036516Y-74323433D01*
X140075583Y-74333901D01*
X140135244Y-74370266D01*
X140165773Y-74433113D01*
X140157479Y-74502488D01*
X140112993Y-74556366D01*
X140088284Y-74569302D01*
X140007373Y-74600647D01*
X140007357Y-74600655D01*
X139833960Y-74708017D01*
X139833958Y-74708019D01*
X139683237Y-74845418D01*
X139560327Y-75008178D01*
X139469422Y-75190739D01*
X139469417Y-75190752D01*
X139413602Y-75386917D01*
X139394785Y-75589999D01*
X139394785Y-75590000D01*
X139413602Y-75793082D01*
X139469417Y-75989247D01*
X139469422Y-75989260D01*
X139560327Y-76171821D01*
X139683237Y-76334581D01*
X139833958Y-76471980D01*
X139833960Y-76471982D01*
X139898560Y-76511980D01*
X140007363Y-76579348D01*
X140197544Y-76653024D01*
X140398024Y-76690500D01*
X140398026Y-76690500D01*
X140601974Y-76690500D01*
X140601976Y-76690500D01*
X140802456Y-76653024D01*
X140992637Y-76579348D01*
X141166041Y-76471981D01*
X141316764Y-76334579D01*
X141439673Y-76171821D01*
X141530582Y-75989250D01*
X141586397Y-75793083D01*
X141605215Y-75590000D01*
X141605068Y-75588418D01*
X141586397Y-75386917D01*
X141580236Y-75365264D01*
X141542727Y-75233434D01*
X141543313Y-75163567D01*
X141581580Y-75105108D01*
X141645377Y-75076618D01*
X141661993Y-75075500D01*
X143022126Y-75075500D01*
X143089165Y-75095185D01*
X143089166Y-75095185D01*
X143189947Y-75159953D01*
X143189948Y-75159953D01*
X143189949Y-75159954D01*
X143328036Y-75200499D01*
X143328038Y-75200500D01*
X143328039Y-75200500D01*
X143471962Y-75200500D01*
X143471962Y-75200499D01*
X143610053Y-75159953D01*
X143731128Y-75082143D01*
X143825377Y-74973373D01*
X143885165Y-74842457D01*
X143905647Y-74700000D01*
X143885165Y-74557543D01*
X143825377Y-74426627D01*
X143731128Y-74317857D01*
X143610053Y-74240047D01*
X143610051Y-74240046D01*
X143610049Y-74240045D01*
X143610050Y-74240045D01*
X143471963Y-74199500D01*
X143471961Y-74199500D01*
X143328039Y-74199500D01*
X143328036Y-74199500D01*
X143189949Y-74240045D01*
X143189948Y-74240046D01*
X143137263Y-74273905D01*
X143103874Y-74295363D01*
X143089166Y-74304815D01*
X143022126Y-74324500D01*
X141441804Y-74324500D01*
X141416353Y-74321860D01*
X141412434Y-74321038D01*
X141404770Y-74319431D01*
X141343198Y-74286405D01*
X141309256Y-74225334D01*
X141313720Y-74155607D01*
X141355172Y-74099362D01*
X141359104Y-74096493D01*
X141371079Y-74088108D01*
X141459187Y-74000000D01*
X150694353Y-74000000D01*
X150714834Y-74142456D01*
X150759469Y-74240191D01*
X150774623Y-74273373D01*
X150868872Y-74382143D01*
X150989947Y-74459953D01*
X150989950Y-74459954D01*
X150989949Y-74459954D01*
X151128037Y-74500500D01*
X151135564Y-74501582D01*
X151199120Y-74530604D01*
X151205602Y-74536639D01*
X151472850Y-74803888D01*
X151488975Y-74823744D01*
X151494913Y-74832832D01*
X151494916Y-74832836D01*
X151511081Y-74845418D01*
X151522925Y-74854636D01*
X151528687Y-74859725D01*
X151531482Y-74862520D01*
X151550495Y-74876094D01*
X151593811Y-74909809D01*
X151593818Y-74909811D01*
X151600720Y-74913547D01*
X151607796Y-74917006D01*
X151607801Y-74917010D01*
X151660402Y-74932670D01*
X151660403Y-74932670D01*
X151712338Y-74950500D01*
X151720072Y-74951790D01*
X151727910Y-74952767D01*
X151727912Y-74952768D01*
X151727913Y-74952767D01*
X151727914Y-74952768D01*
X151782756Y-74950500D01*
X152612006Y-74950500D01*
X152679045Y-74970185D01*
X152724800Y-75022989D01*
X152734744Y-75092147D01*
X152705719Y-75155703D01*
X152677598Y-75179732D01*
X152604732Y-75225149D01*
X152457331Y-75365264D01*
X152457330Y-75365266D01*
X152341143Y-75532195D01*
X152260940Y-75719092D01*
X152220000Y-75918309D01*
X152220000Y-76469615D01*
X152200315Y-76536654D01*
X152147511Y-76582409D01*
X152078353Y-76592353D01*
X152048548Y-76584176D01*
X151940239Y-76539314D01*
X151940237Y-76539313D01*
X151940236Y-76539313D01*
X151920039Y-76536654D01*
X151827727Y-76524500D01*
X151827720Y-76524500D01*
X151752280Y-76524500D01*
X151752272Y-76524500D01*
X151639764Y-76539313D01*
X151639763Y-76539313D01*
X151499770Y-76597300D01*
X151499767Y-76597301D01*
X151499767Y-76597302D01*
X151427152Y-76653022D01*
X151379549Y-76689549D01*
X151287300Y-76809770D01*
X151229313Y-76949763D01*
X151229312Y-76949765D01*
X151209534Y-77099999D01*
X151209534Y-77100000D01*
X151229312Y-77250234D01*
X151229313Y-77250236D01*
X151285308Y-77385421D01*
X151287302Y-77390233D01*
X151379549Y-77510451D01*
X151499767Y-77602698D01*
X151639764Y-77660687D01*
X151752280Y-77675500D01*
X151752287Y-77675500D01*
X151827713Y-77675500D01*
X151827720Y-77675500D01*
X151940236Y-77660687D01*
X152080233Y-77602698D01*
X152151256Y-77548199D01*
X152216425Y-77523006D01*
X152284869Y-77537044D01*
X152334859Y-77585858D01*
X152335161Y-77586398D01*
X152395005Y-77694215D01*
X152395005Y-77694216D01*
X152527478Y-77848530D01*
X152527479Y-77848531D01*
X152688304Y-77973018D01*
X152870907Y-78062589D01*
X152970000Y-78088244D01*
X152970000Y-77524978D01*
X152989685Y-77457939D01*
X153042489Y-77412184D01*
X153111647Y-77402240D01*
X153127926Y-77405709D01*
X153191840Y-77423895D01*
X153303521Y-77413546D01*
X153303526Y-77413543D01*
X153312063Y-77411115D01*
X153381930Y-77411701D01*
X153440390Y-77449966D01*
X153468881Y-77513763D01*
X153470000Y-77530381D01*
X153470000Y-78093366D01*
X153471944Y-78093069D01*
X153471945Y-78093069D01*
X153662660Y-78022436D01*
X153662664Y-78022434D01*
X153835267Y-77914850D01*
X153982668Y-77774735D01*
X153982669Y-77774733D01*
X154098856Y-77607804D01*
X154179059Y-77420907D01*
X154220000Y-77221690D01*
X154220000Y-76954269D01*
X155374500Y-76954269D01*
X155377353Y-76984699D01*
X155377353Y-76984701D01*
X155422206Y-77112880D01*
X155422207Y-77112882D01*
X155502850Y-77222150D01*
X155612118Y-77302793D01*
X155654845Y-77317744D01*
X155740299Y-77347646D01*
X155770730Y-77350500D01*
X155770734Y-77350500D01*
X156168101Y-77350500D01*
X156235140Y-77370185D01*
X156255782Y-77386819D01*
X156403412Y-77534449D01*
X156436897Y-77595772D01*
X156438469Y-77604481D01*
X156440334Y-77617454D01*
X156440335Y-77617458D01*
X156499893Y-77747870D01*
X156500123Y-77748373D01*
X156594372Y-77857143D01*
X156715447Y-77934953D01*
X156715450Y-77934954D01*
X156715449Y-77934954D01*
X156853536Y-77975499D01*
X156853538Y-77975500D01*
X156853539Y-77975500D01*
X156997462Y-77975500D01*
X156997462Y-77975499D01*
X157135553Y-77934953D01*
X157256628Y-77857143D01*
X157350877Y-77748373D01*
X157410665Y-77617457D01*
X157431147Y-77475000D01*
X157410665Y-77332543D01*
X157350877Y-77201627D01*
X157256628Y-77092857D01*
X157135553Y-77015047D01*
X157135551Y-77015046D01*
X157135549Y-77015045D01*
X157135550Y-77015045D01*
X156997463Y-76974500D01*
X156997461Y-76974500D01*
X156956900Y-76974500D01*
X156889861Y-76954815D01*
X156869213Y-76938175D01*
X156861813Y-76930774D01*
X156828332Y-76869449D01*
X156825500Y-76843099D01*
X156825500Y-76445730D01*
X156822646Y-76415300D01*
X156822646Y-76415298D01*
X156777793Y-76287119D01*
X156777792Y-76287117D01*
X156697150Y-76177850D01*
X156587882Y-76097207D01*
X156587880Y-76097206D01*
X156459700Y-76052353D01*
X156429270Y-76049500D01*
X156429266Y-76049500D01*
X155770734Y-76049500D01*
X155770730Y-76049500D01*
X155740300Y-76052353D01*
X155740298Y-76052353D01*
X155612119Y-76097206D01*
X155612117Y-76097207D01*
X155502850Y-76177850D01*
X155422207Y-76287117D01*
X155422206Y-76287119D01*
X155377353Y-76415298D01*
X155377353Y-76415300D01*
X155374500Y-76445730D01*
X155374500Y-76954269D01*
X154220000Y-76954269D01*
X154220000Y-76820000D01*
X153644000Y-76820000D01*
X153576961Y-76800315D01*
X153531206Y-76747511D01*
X153520000Y-76696000D01*
X153520000Y-76444000D01*
X153539685Y-76376961D01*
X153592489Y-76331206D01*
X153644000Y-76320000D01*
X154220000Y-76320000D01*
X154220000Y-75969286D01*
X154204581Y-75817661D01*
X154143700Y-75623618D01*
X154143695Y-75623608D01*
X154044994Y-75445784D01*
X154044994Y-75445783D01*
X153912521Y-75291469D01*
X153912520Y-75291468D01*
X153758898Y-75172556D01*
X153717934Y-75115955D01*
X153714074Y-75046192D01*
X153748543Y-74985416D01*
X153810398Y-74952925D01*
X153834799Y-74950500D01*
X155250500Y-74950500D01*
X155317539Y-74970185D01*
X155363294Y-75022989D01*
X155374500Y-75074500D01*
X155374500Y-75304269D01*
X155377353Y-75334699D01*
X155377353Y-75334701D01*
X155422206Y-75462880D01*
X155422207Y-75462882D01*
X155502850Y-75572150D01*
X155612118Y-75652793D01*
X155654845Y-75667744D01*
X155740299Y-75697646D01*
X155770730Y-75700500D01*
X155770734Y-75700500D01*
X156429270Y-75700500D01*
X156459699Y-75697646D01*
X156459701Y-75697646D01*
X156523790Y-75675219D01*
X156587882Y-75652793D01*
X156697150Y-75572150D01*
X156777793Y-75462882D01*
X156804374Y-75386917D01*
X156822646Y-75334701D01*
X156822646Y-75334699D01*
X156825500Y-75304269D01*
X156825500Y-74795730D01*
X156822646Y-74765300D01*
X156822646Y-74765298D01*
X156789006Y-74669163D01*
X156777793Y-74637118D01*
X156697150Y-74527850D01*
X156587882Y-74447207D01*
X156587880Y-74447206D01*
X156459700Y-74402353D01*
X156429270Y-74399500D01*
X156429266Y-74399500D01*
X156031900Y-74399500D01*
X155964861Y-74379815D01*
X155944219Y-74363181D01*
X155927149Y-74346111D01*
X155911022Y-74326252D01*
X155905086Y-74317167D01*
X155905083Y-74317163D01*
X155877074Y-74295363D01*
X155871310Y-74290272D01*
X155868515Y-74287477D01*
X155849505Y-74273906D01*
X155806189Y-74240190D01*
X155799274Y-74236448D01*
X155792200Y-74232990D01*
X155739596Y-74217329D01*
X155687658Y-74199499D01*
X155679923Y-74198208D01*
X155672085Y-74197231D01*
X155617244Y-74199500D01*
X151981899Y-74199500D01*
X151914860Y-74179815D01*
X151894222Y-74163185D01*
X151730563Y-73999526D01*
X151697081Y-73938205D01*
X151695509Y-73929492D01*
X151685165Y-73857544D01*
X151674678Y-73834579D01*
X151625377Y-73726627D01*
X151531128Y-73617857D01*
X151410053Y-73540047D01*
X151410051Y-73540046D01*
X151410049Y-73540045D01*
X151410050Y-73540045D01*
X151271963Y-73499500D01*
X151271961Y-73499500D01*
X151128039Y-73499500D01*
X151128036Y-73499500D01*
X150989949Y-73540045D01*
X150868873Y-73617856D01*
X150774623Y-73726626D01*
X150774622Y-73726628D01*
X150714834Y-73857543D01*
X150694353Y-74000000D01*
X141459187Y-74000000D01*
X141538105Y-73921082D01*
X141673600Y-73727578D01*
X141773429Y-73513492D01*
X141773432Y-73513486D01*
X141830636Y-73300000D01*
X141113347Y-73300000D01*
X141046308Y-73280315D01*
X141000553Y-73227511D01*
X140990609Y-73158353D01*
X140994369Y-73141067D01*
X141000000Y-73121888D01*
X141000000Y-72978111D01*
X140994369Y-72958933D01*
X140994370Y-72889064D01*
X141032145Y-72830286D01*
X141095701Y-72801262D01*
X141113347Y-72800000D01*
X141830636Y-72800000D01*
X141830635Y-72799999D01*
X141773432Y-72586513D01*
X141773429Y-72586507D01*
X141673600Y-72372422D01*
X141673599Y-72372420D01*
X141538113Y-72178926D01*
X141538108Y-72178920D01*
X141371082Y-72011894D01*
X141177578Y-71876399D01*
X140963492Y-71776570D01*
X140963477Y-71776564D01*
X140924414Y-71766097D01*
X140864754Y-71729732D01*
X140834226Y-71666885D01*
X140842521Y-71597509D01*
X140887007Y-71543632D01*
X140911710Y-71530698D01*
X140992637Y-71499348D01*
X141112713Y-71425000D01*
X144325001Y-71425000D01*
X144325001Y-71431582D01*
X144331408Y-71502102D01*
X144331409Y-71502107D01*
X144381981Y-71664396D01*
X144469927Y-71809877D01*
X144590122Y-71930072D01*
X144735602Y-72018018D01*
X144750258Y-72022585D01*
X144808407Y-72061322D01*
X144836382Y-72125347D01*
X144825301Y-72194332D01*
X144787004Y-72240741D01*
X144702850Y-72302850D01*
X144622207Y-72412117D01*
X144622206Y-72412119D01*
X144577353Y-72540298D01*
X144577353Y-72540300D01*
X144574500Y-72570730D01*
X144574500Y-73079269D01*
X144577353Y-73109699D01*
X144577353Y-73109701D01*
X144622206Y-73237880D01*
X144622207Y-73237882D01*
X144702850Y-73347150D01*
X144812118Y-73427793D01*
X144854845Y-73442744D01*
X144940299Y-73472646D01*
X144970730Y-73475500D01*
X144970734Y-73475500D01*
X145012340Y-73475500D01*
X145502227Y-73475500D01*
X145517562Y-73477736D01*
X145517717Y-73476497D01*
X145527910Y-73477767D01*
X145527912Y-73477768D01*
X145527913Y-73477767D01*
X145527914Y-73477768D01*
X145582756Y-73475500D01*
X146722126Y-73475500D01*
X146789165Y-73495185D01*
X146789166Y-73495185D01*
X146889947Y-73559953D01*
X146889948Y-73559953D01*
X146889949Y-73559954D01*
X146997107Y-73591417D01*
X147027763Y-73600419D01*
X147028036Y-73600499D01*
X147028038Y-73600500D01*
X147028039Y-73600500D01*
X147171962Y-73600500D01*
X147171962Y-73600499D01*
X147279121Y-73569035D01*
X147310050Y-73559954D01*
X147310050Y-73559953D01*
X147310053Y-73559953D01*
X147431128Y-73482143D01*
X147525377Y-73373373D01*
X147585165Y-73242457D01*
X147585167Y-73242442D01*
X147585399Y-73241656D01*
X147585854Y-73240947D01*
X147588849Y-73234390D01*
X147589791Y-73234820D01*
X147623171Y-73182876D01*
X147686726Y-73153849D01*
X147755885Y-73163789D01*
X147808691Y-73209542D01*
X147821416Y-73235623D01*
X147822207Y-73237882D01*
X147902850Y-73347150D01*
X148012118Y-73427793D01*
X148054845Y-73442744D01*
X148140299Y-73472646D01*
X148170730Y-73475500D01*
X148170734Y-73475500D01*
X148829270Y-73475500D01*
X148859699Y-73472646D01*
X148859701Y-73472646D01*
X148923790Y-73450219D01*
X148987882Y-73427793D01*
X149097150Y-73347150D01*
X149160127Y-73261819D01*
X149168210Y-73250867D01*
X149223857Y-73208616D01*
X149267980Y-73200500D01*
X149748174Y-73200500D01*
X149815213Y-73220185D01*
X149841887Y-73243297D01*
X149918872Y-73332143D01*
X150039947Y-73409953D01*
X150039950Y-73409954D01*
X150039949Y-73409954D01*
X150178036Y-73450499D01*
X150178038Y-73450500D01*
X150178039Y-73450500D01*
X150321962Y-73450500D01*
X150321962Y-73450499D01*
X150460053Y-73409953D01*
X150581128Y-73332143D01*
X150675377Y-73223373D01*
X150735165Y-73092457D01*
X150755647Y-72950000D01*
X150735165Y-72807543D01*
X150675377Y-72676627D01*
X150581128Y-72567857D01*
X150460053Y-72490047D01*
X150460051Y-72490046D01*
X150460049Y-72490045D01*
X150460050Y-72490045D01*
X150321963Y-72449500D01*
X150321961Y-72449500D01*
X150197773Y-72449500D01*
X150182437Y-72447263D01*
X150182283Y-72448503D01*
X150172085Y-72447231D01*
X150117244Y-72449500D01*
X149267980Y-72449500D01*
X149200941Y-72429815D01*
X149168210Y-72399133D01*
X149097151Y-72302851D01*
X149012995Y-72240741D01*
X148970745Y-72185093D01*
X148965286Y-72115437D01*
X148998354Y-72053888D01*
X149049742Y-72022585D01*
X149064396Y-72018018D01*
X149209877Y-71930072D01*
X149330072Y-71809877D01*
X149418019Y-71664395D01*
X149468590Y-71502106D01*
X149475000Y-71431572D01*
X149475000Y-71425000D01*
X147525001Y-71425000D01*
X147525001Y-71431582D01*
X147531408Y-71502102D01*
X147531409Y-71502107D01*
X147581981Y-71664396D01*
X147669927Y-71809877D01*
X147790122Y-71930072D01*
X147935602Y-72018018D01*
X147950258Y-72022585D01*
X148008407Y-72061322D01*
X148036382Y-72125347D01*
X148025301Y-72194332D01*
X147987004Y-72240741D01*
X147902850Y-72302850D01*
X147822207Y-72412117D01*
X147822206Y-72412119D01*
X147777353Y-72540298D01*
X147777353Y-72540300D01*
X147774500Y-72570730D01*
X147774500Y-72802111D01*
X147754815Y-72869150D01*
X147702011Y-72914905D01*
X147632853Y-72924849D01*
X147569297Y-72895824D01*
X147537706Y-72853623D01*
X147533918Y-72845329D01*
X147525377Y-72826627D01*
X147431128Y-72717857D01*
X147310053Y-72640047D01*
X147310051Y-72640046D01*
X147310049Y-72640045D01*
X147310050Y-72640045D01*
X147171963Y-72599500D01*
X147171961Y-72599500D01*
X147028039Y-72599500D01*
X147028036Y-72599500D01*
X146889949Y-72640045D01*
X146889948Y-72640046D01*
X146789166Y-72704815D01*
X146722126Y-72724500D01*
X146149500Y-72724500D01*
X146082461Y-72704815D01*
X146036706Y-72652011D01*
X146025500Y-72600500D01*
X146025500Y-72570730D01*
X146022646Y-72540300D01*
X146022646Y-72540298D01*
X145980689Y-72420394D01*
X145977793Y-72412118D01*
X145897150Y-72302850D01*
X145812995Y-72240741D01*
X145770745Y-72185093D01*
X145765286Y-72115437D01*
X145798354Y-72053888D01*
X145849742Y-72022585D01*
X145864396Y-72018018D01*
X146009877Y-71930072D01*
X146130072Y-71809877D01*
X146218019Y-71664395D01*
X146268590Y-71502106D01*
X146275000Y-71431572D01*
X146275000Y-71425000D01*
X144325001Y-71425000D01*
X141112713Y-71425000D01*
X141166041Y-71391981D01*
X141313108Y-71257912D01*
X141316762Y-71254581D01*
X141351502Y-71208578D01*
X141439673Y-71091821D01*
X141530582Y-70909250D01*
X141586397Y-70713083D01*
X141605215Y-70510000D01*
X141603561Y-70492147D01*
X141602986Y-70485940D01*
X141616402Y-70417370D01*
X141664759Y-70366939D01*
X141726457Y-70350500D01*
X144364701Y-70350500D01*
X144431740Y-70370185D01*
X144477495Y-70422989D01*
X144487439Y-70492147D01*
X144470818Y-70538650D01*
X144381980Y-70685604D01*
X144331409Y-70847893D01*
X144325000Y-70918427D01*
X144325000Y-70925000D01*
X146274999Y-70925000D01*
X147525000Y-70925000D01*
X148250000Y-70925000D01*
X148250000Y-70275000D01*
X148750000Y-70275000D01*
X148750000Y-70925000D01*
X149474999Y-70925000D01*
X149474999Y-70918417D01*
X149468591Y-70847897D01*
X149468590Y-70847892D01*
X149418018Y-70685603D01*
X149330072Y-70540122D01*
X149209877Y-70419927D01*
X149064395Y-70331980D01*
X149064396Y-70331980D01*
X148902105Y-70281409D01*
X148902106Y-70281409D01*
X148831572Y-70275000D01*
X148750000Y-70275000D01*
X148250000Y-70275000D01*
X148249999Y-70274999D01*
X148168417Y-70275000D01*
X148097897Y-70281408D01*
X148097892Y-70281409D01*
X147935603Y-70331981D01*
X147790122Y-70419927D01*
X147669927Y-70540122D01*
X147581980Y-70685604D01*
X147531409Y-70847893D01*
X147525000Y-70918427D01*
X147525000Y-70925000D01*
X146274999Y-70925000D01*
X146274999Y-70918417D01*
X146268591Y-70847897D01*
X146268590Y-70847892D01*
X146218018Y-70685603D01*
X146129182Y-70538650D01*
X146111346Y-70471096D01*
X146132863Y-70404622D01*
X146186904Y-70360334D01*
X146235299Y-70350500D01*
X146986369Y-70350500D01*
X147011814Y-70353139D01*
X147015613Y-70353935D01*
X147022441Y-70355367D01*
X147043398Y-70352754D01*
X147057665Y-70350977D01*
X147065341Y-70350500D01*
X147069285Y-70350500D01*
X147069287Y-70350500D01*
X147069289Y-70350499D01*
X147069295Y-70350499D01*
X147088448Y-70347302D01*
X147092313Y-70346657D01*
X147146799Y-70339866D01*
X147146800Y-70339865D01*
X147146802Y-70339865D01*
X147154314Y-70337628D01*
X147161779Y-70335066D01*
X147161779Y-70335065D01*
X147161783Y-70335065D01*
X147210050Y-70308944D01*
X147259384Y-70284826D01*
X147259386Y-70284823D01*
X147265767Y-70280268D01*
X147271992Y-70275422D01*
X147271999Y-70275419D01*
X147309180Y-70235029D01*
X147728892Y-69815317D01*
X147748741Y-69799198D01*
X147757836Y-69793257D01*
X147779644Y-69765235D01*
X147784721Y-69759489D01*
X147787520Y-69756691D01*
X147801094Y-69737677D01*
X147821222Y-69711818D01*
X147834807Y-69694365D01*
X147838547Y-69687453D01*
X147842003Y-69680380D01*
X147842010Y-69680372D01*
X147857670Y-69627769D01*
X147875500Y-69575833D01*
X147875500Y-69575828D01*
X147876790Y-69568097D01*
X147877768Y-69560258D01*
X147875500Y-69505417D01*
X147875500Y-68599500D01*
X147895185Y-68532461D01*
X147947989Y-68486706D01*
X147999500Y-68475500D01*
X153948196Y-68475500D01*
X153973641Y-68478139D01*
X153977440Y-68478935D01*
X153984268Y-68480367D01*
X154005225Y-68477754D01*
X154019492Y-68475977D01*
X154027168Y-68475500D01*
X154031112Y-68475500D01*
X154031114Y-68475500D01*
X154031116Y-68475499D01*
X154031122Y-68475499D01*
X154046487Y-68472934D01*
X154054140Y-68471657D01*
X154108626Y-68464866D01*
X154108627Y-68464865D01*
X154108629Y-68464865D01*
X154116141Y-68462628D01*
X154123606Y-68460066D01*
X154123606Y-68460065D01*
X154123610Y-68460065D01*
X154171877Y-68433944D01*
X154221211Y-68409826D01*
X154221213Y-68409823D01*
X154227594Y-68405268D01*
X154233819Y-68400422D01*
X154233826Y-68400419D01*
X154271008Y-68360028D01*
X155731036Y-66900000D01*
X157219218Y-65411819D01*
X157280541Y-65378334D01*
X157306899Y-65375500D01*
X158222126Y-65375500D01*
X158289165Y-65395185D01*
X158289166Y-65395185D01*
X158389947Y-65459953D01*
X158389948Y-65459953D01*
X158389949Y-65459954D01*
X158528036Y-65500499D01*
X158528038Y-65500500D01*
X158528039Y-65500500D01*
X158671962Y-65500500D01*
X158671962Y-65500499D01*
X158810053Y-65459953D01*
X158931128Y-65382143D01*
X159025377Y-65273373D01*
X159085165Y-65142457D01*
X159105647Y-65000000D01*
X159085165Y-64857543D01*
X159025377Y-64726627D01*
X158931128Y-64617857D01*
X158810053Y-64540047D01*
X158810051Y-64540046D01*
X158810049Y-64540045D01*
X158810050Y-64540045D01*
X158671963Y-64499500D01*
X158671961Y-64499500D01*
X158528039Y-64499500D01*
X158528036Y-64499500D01*
X158389949Y-64540045D01*
X158389948Y-64540046D01*
X158289166Y-64604815D01*
X158222126Y-64624500D01*
X157151804Y-64624500D01*
X157126348Y-64621859D01*
X157123501Y-64621262D01*
X157061931Y-64588233D01*
X157027991Y-64527161D01*
X157032458Y-64457434D01*
X157061275Y-64412224D01*
X157461681Y-64011819D01*
X157523004Y-63978334D01*
X157549362Y-63975500D01*
X158122126Y-63975500D01*
X158189165Y-63995185D01*
X158189166Y-63995185D01*
X158289947Y-64059953D01*
X158289948Y-64059953D01*
X158289949Y-64059954D01*
X158428036Y-64100499D01*
X158428038Y-64100500D01*
X158428039Y-64100500D01*
X158571962Y-64100500D01*
X158571962Y-64100499D01*
X158684217Y-64067539D01*
X158710050Y-64059954D01*
X158710050Y-64059953D01*
X158710053Y-64059953D01*
X158831128Y-63982143D01*
X158925377Y-63873373D01*
X158985165Y-63742457D01*
X159005647Y-63600000D01*
X158985165Y-63457543D01*
X158925377Y-63326627D01*
X158831128Y-63217857D01*
X158710053Y-63140047D01*
X158710051Y-63140046D01*
X158710049Y-63140045D01*
X158710050Y-63140045D01*
X158571963Y-63099500D01*
X158571961Y-63099500D01*
X158428039Y-63099500D01*
X158428036Y-63099500D01*
X158289949Y-63140045D01*
X158289948Y-63140046D01*
X158189166Y-63204815D01*
X158122126Y-63224500D01*
X157394267Y-63224500D01*
X157368822Y-63221861D01*
X157358196Y-63219633D01*
X157358193Y-63219633D01*
X157322971Y-63224023D01*
X157315295Y-63224500D01*
X157311349Y-63224500D01*
X157294078Y-63227381D01*
X157288321Y-63228342D01*
X157233833Y-63235134D01*
X157226320Y-63237371D01*
X157218850Y-63239936D01*
X157170585Y-63266055D01*
X157121255Y-63290171D01*
X157114838Y-63294753D01*
X157108638Y-63299579D01*
X157071454Y-63339971D01*
X154488462Y-65922961D01*
X154427139Y-65956446D01*
X154357447Y-65951462D01*
X154301514Y-65909590D01*
X154277097Y-65844126D01*
X154291949Y-65775853D01*
X154298732Y-65764839D01*
X154324369Y-65727698D01*
X154384650Y-65568751D01*
X154384651Y-65568748D01*
X154405141Y-65400000D01*
X154405141Y-65399999D01*
X154384651Y-65231251D01*
X154384650Y-65231245D01*
X154324371Y-65072304D01*
X154318721Y-65064119D01*
X154318720Y-65064119D01*
X154031476Y-65351364D01*
X153970153Y-65384849D01*
X153900461Y-65379865D01*
X153844528Y-65337993D01*
X153836408Y-65325683D01*
X153834486Y-65322354D01*
X153777647Y-65265515D01*
X153774316Y-65263592D01*
X153726100Y-65213025D01*
X153712876Y-65144418D01*
X153738844Y-65079553D01*
X153748634Y-65068523D01*
X154032959Y-64784198D01*
X153950041Y-64740680D01*
X153910803Y-64731008D01*
X153850423Y-64695851D01*
X153824538Y-64654583D01*
X153774371Y-64522304D01*
X153768721Y-64514119D01*
X153481476Y-64801365D01*
X153420153Y-64834850D01*
X153350461Y-64829866D01*
X153294528Y-64787994D01*
X153286406Y-64775681D01*
X153284484Y-64772352D01*
X153227647Y-64715515D01*
X153224316Y-64713592D01*
X153176100Y-64663025D01*
X153162876Y-64594418D01*
X153188844Y-64529553D01*
X153198634Y-64518523D01*
X153482959Y-64234198D01*
X153400044Y-64190681D01*
X153234994Y-64150000D01*
X153065006Y-64150000D01*
X152899955Y-64190681D01*
X152817039Y-64234198D01*
X153101365Y-64518523D01*
X153134850Y-64579846D01*
X153129866Y-64649537D01*
X153087995Y-64705471D01*
X153075689Y-64713588D01*
X153072359Y-64715510D01*
X153015510Y-64772358D01*
X153013587Y-64775690D01*
X152963017Y-64823902D01*
X152894410Y-64837121D01*
X152829546Y-64811149D01*
X152818523Y-64801364D01*
X152600000Y-64582842D01*
X152381476Y-64801365D01*
X152320153Y-64834850D01*
X152250461Y-64829866D01*
X152194528Y-64787994D01*
X152186406Y-64775681D01*
X152184484Y-64772352D01*
X152127647Y-64715515D01*
X152124316Y-64713592D01*
X152076100Y-64663025D01*
X152062876Y-64594418D01*
X152088844Y-64529553D01*
X152098634Y-64518523D01*
X152382959Y-64234198D01*
X152300044Y-64190681D01*
X152134994Y-64150000D01*
X151965006Y-64150000D01*
X151799955Y-64190681D01*
X151717039Y-64234198D01*
X152001365Y-64518523D01*
X152034850Y-64579846D01*
X152029866Y-64649537D01*
X151987995Y-64705471D01*
X151975689Y-64713588D01*
X151972359Y-64715510D01*
X151915510Y-64772358D01*
X151913585Y-64775693D01*
X151863014Y-64823904D01*
X151794406Y-64837122D01*
X151729544Y-64811149D01*
X151718522Y-64801365D01*
X151431278Y-64514120D01*
X151431277Y-64514120D01*
X151425629Y-64522304D01*
X151375461Y-64654584D01*
X151333282Y-64710286D01*
X151289197Y-64731008D01*
X151249957Y-64740680D01*
X151167039Y-64784198D01*
X151451365Y-65068523D01*
X151484850Y-65129846D01*
X151479866Y-65199537D01*
X151437995Y-65255471D01*
X151425689Y-65263588D01*
X151422359Y-65265510D01*
X151365510Y-65322358D01*
X151363585Y-65325693D01*
X151313014Y-65373904D01*
X151244406Y-65387122D01*
X151179544Y-65361149D01*
X151168522Y-65351365D01*
X150881278Y-65064120D01*
X150881277Y-65064120D01*
X150875628Y-65072305D01*
X150815349Y-65231245D01*
X150815348Y-65231251D01*
X150794859Y-65399999D01*
X150794859Y-65400000D01*
X150815348Y-65568748D01*
X150815349Y-65568751D01*
X150875629Y-65727694D01*
X150881278Y-65735879D01*
X151168523Y-65448634D01*
X151229846Y-65415149D01*
X151299537Y-65420133D01*
X151355471Y-65462004D01*
X151363592Y-65474316D01*
X151365515Y-65477647D01*
X151422352Y-65534484D01*
X151425681Y-65536406D01*
X151473898Y-65586972D01*
X151487123Y-65655579D01*
X151461156Y-65720444D01*
X151451365Y-65731476D01*
X151232842Y-65949999D01*
X151232842Y-65950000D01*
X151451365Y-66168523D01*
X151484850Y-66229846D01*
X151479866Y-66299537D01*
X151437995Y-66355471D01*
X151425689Y-66363588D01*
X151422359Y-66365510D01*
X151365510Y-66422358D01*
X151363585Y-66425693D01*
X151313014Y-66473904D01*
X151244406Y-66487122D01*
X151179544Y-66461149D01*
X151168522Y-66451365D01*
X150881277Y-66164120D01*
X150875628Y-66172305D01*
X150815349Y-66331245D01*
X150815348Y-66331251D01*
X150794859Y-66499999D01*
X150794859Y-66500000D01*
X150815348Y-66668748D01*
X150815349Y-66668751D01*
X150875629Y-66827694D01*
X150881278Y-66835879D01*
X151168523Y-66548634D01*
X151229846Y-66515149D01*
X151299537Y-66520133D01*
X151355471Y-66562004D01*
X151363592Y-66574316D01*
X151365515Y-66577647D01*
X151422352Y-66634484D01*
X151425681Y-66636406D01*
X151473898Y-66686972D01*
X151487123Y-66755579D01*
X151461156Y-66820444D01*
X151451365Y-66831476D01*
X151155744Y-67127095D01*
X151152497Y-67151082D01*
X151107178Y-67204260D01*
X151040303Y-67224496D01*
X151039283Y-67224500D01*
X147906899Y-67224500D01*
X147839860Y-67204815D01*
X147819218Y-67188181D01*
X147511819Y-66880781D01*
X147478334Y-66819458D01*
X147475500Y-66793100D01*
X147475500Y-65417553D01*
X147478139Y-65392108D01*
X147479184Y-65387122D01*
X147480367Y-65381481D01*
X147477833Y-65361149D01*
X147475977Y-65346255D01*
X147475500Y-65338579D01*
X147475500Y-65334638D01*
X147475498Y-65334625D01*
X147474701Y-65329851D01*
X147471657Y-65311608D01*
X147464866Y-65257123D01*
X147464864Y-65257119D01*
X147462622Y-65249589D01*
X147460065Y-65242141D01*
X147460065Y-65242139D01*
X147433944Y-65193871D01*
X147409826Y-65144538D01*
X147409824Y-65144536D01*
X147409824Y-65144535D01*
X147405276Y-65138165D01*
X147400420Y-65131925D01*
X147400419Y-65131923D01*
X147360029Y-65094741D01*
X147213277Y-64947989D01*
X147064470Y-64799181D01*
X147030985Y-64737858D01*
X147035969Y-64668166D01*
X147077841Y-64612233D01*
X147143305Y-64587816D01*
X147152151Y-64587500D01*
X147265644Y-64587500D01*
X147302489Y-64584600D01*
X147302495Y-64584599D01*
X147460193Y-64538783D01*
X147460196Y-64538782D01*
X147601552Y-64455185D01*
X147601561Y-64455178D01*
X147717678Y-64339061D01*
X147717685Y-64339052D01*
X147801282Y-64197696D01*
X147801283Y-64197693D01*
X147847099Y-64039995D01*
X147847100Y-64039989D01*
X147850000Y-64003144D01*
X147850000Y-63675000D01*
X146250000Y-63675000D01*
X146250000Y-64000500D01*
X146230315Y-64067539D01*
X146177511Y-64113294D01*
X146126000Y-64124500D01*
X145821060Y-64124500D01*
X145754021Y-64104815D01*
X145708266Y-64052011D01*
X145698322Y-63982853D01*
X145698587Y-63981101D01*
X145700499Y-63969023D01*
X145700500Y-63969019D01*
X145700499Y-62880982D01*
X145685646Y-62787196D01*
X145628050Y-62674158D01*
X145628046Y-62674154D01*
X145628045Y-62674152D01*
X145561818Y-62607925D01*
X145528333Y-62546602D01*
X145525499Y-62520244D01*
X145525499Y-61934081D01*
X145545184Y-61867042D01*
X145597988Y-61821287D01*
X145667146Y-61811343D01*
X145730702Y-61840368D01*
X145733489Y-61842858D01*
X145739974Y-61848828D01*
X146020032Y-62128886D01*
X146036160Y-62148745D01*
X146042099Y-62157836D01*
X146061223Y-62172721D01*
X146070112Y-62179639D01*
X146075874Y-62184728D01*
X146078666Y-62187520D01*
X146097669Y-62201088D01*
X146140994Y-62234809D01*
X146140996Y-62234809D01*
X146147918Y-62238555D01*
X146154981Y-62242008D01*
X146154984Y-62242010D01*
X146207595Y-62257673D01*
X146229535Y-62265205D01*
X146259522Y-62275500D01*
X146267284Y-62276795D01*
X146275095Y-62277769D01*
X146312662Y-62276215D01*
X146380458Y-62293112D01*
X146428357Y-62343979D01*
X146441150Y-62412667D01*
X146414777Y-62477369D01*
X146405471Y-62487789D01*
X146382319Y-62510941D01*
X146382314Y-62510947D01*
X146298717Y-62652303D01*
X146298716Y-62652306D01*
X146252900Y-62810004D01*
X146252899Y-62810010D01*
X146250000Y-62846856D01*
X146250000Y-63175000D01*
X147850000Y-63175000D01*
X147850000Y-62846856D01*
X147847100Y-62810010D01*
X147847099Y-62810004D01*
X147801283Y-62652306D01*
X147801282Y-62652303D01*
X147717685Y-62510947D01*
X147717678Y-62510938D01*
X147693921Y-62487181D01*
X147660436Y-62425858D01*
X147665420Y-62356166D01*
X147707292Y-62300233D01*
X147772756Y-62275816D01*
X147781602Y-62275500D01*
X150048196Y-62275500D01*
X150073641Y-62278139D01*
X150077440Y-62278935D01*
X150084268Y-62280367D01*
X150105225Y-62277754D01*
X150119492Y-62275977D01*
X150127168Y-62275500D01*
X150131112Y-62275500D01*
X150131114Y-62275500D01*
X150131116Y-62275499D01*
X150131122Y-62275499D01*
X150146487Y-62272934D01*
X150154140Y-62271657D01*
X150208626Y-62264866D01*
X150208627Y-62264865D01*
X150208629Y-62264865D01*
X150216141Y-62262628D01*
X150223606Y-62260066D01*
X150223606Y-62260065D01*
X150223610Y-62260065D01*
X150271877Y-62233944D01*
X150321211Y-62209826D01*
X150321213Y-62209823D01*
X150327594Y-62205268D01*
X150333819Y-62200422D01*
X150333826Y-62200419D01*
X150371008Y-62160028D01*
X151838322Y-60692713D01*
X151899642Y-60659231D01*
X151969334Y-60664215D01*
X152025267Y-60706087D01*
X152049684Y-60771551D01*
X152050000Y-60780396D01*
X152050000Y-60898306D01*
X152050001Y-60898323D01*
X152060144Y-60997607D01*
X152113452Y-61158481D01*
X152113457Y-61158492D01*
X152202424Y-61302728D01*
X152202427Y-61302732D01*
X152322267Y-61422572D01*
X152322271Y-61422575D01*
X152466507Y-61511542D01*
X152466518Y-61511547D01*
X152627393Y-61564855D01*
X152726683Y-61574999D01*
X152750000Y-61574998D01*
X152750000Y-60474000D01*
X152769685Y-60406961D01*
X152822489Y-60361206D01*
X152874000Y-60350000D01*
X153126000Y-60350000D01*
X153193039Y-60369685D01*
X153238794Y-60422489D01*
X153250000Y-60474000D01*
X153250000Y-61574999D01*
X153273308Y-61574999D01*
X153273322Y-61574998D01*
X153372607Y-61564855D01*
X153533481Y-61511547D01*
X153533492Y-61511542D01*
X153677728Y-61422575D01*
X153677732Y-61422572D01*
X153797573Y-61302731D01*
X153833348Y-61244731D01*
X153885296Y-61198006D01*
X153954258Y-61186783D01*
X154013194Y-61210558D01*
X154094774Y-61271628D01*
X154222886Y-61319412D01*
X154279515Y-61325500D01*
X154820484Y-61325499D01*
X154877114Y-61319412D01*
X155005226Y-61271628D01*
X155114687Y-61189687D01*
X155196628Y-61080226D01*
X155205602Y-61056167D01*
X155247473Y-61000233D01*
X155312937Y-60975815D01*
X155321784Y-60975499D01*
X155919897Y-60975499D01*
X155986936Y-60995184D01*
X156032691Y-61047988D01*
X156036938Y-61058544D01*
X156047203Y-61087881D01*
X156047204Y-61087882D01*
X156127847Y-61197150D01*
X156237115Y-61277793D01*
X156279842Y-61292744D01*
X156365296Y-61322646D01*
X156395727Y-61325500D01*
X156395731Y-61325500D01*
X156401483Y-61325500D01*
X156468522Y-61345185D01*
X156514277Y-61397989D01*
X156524221Y-61467147D01*
X156495196Y-61530703D01*
X156468522Y-61553815D01*
X156368876Y-61617853D01*
X156368874Y-61617855D01*
X156274623Y-61726626D01*
X156274622Y-61726628D01*
X156214834Y-61857543D01*
X156194353Y-62000000D01*
X156214834Y-62142456D01*
X156274622Y-62273371D01*
X156274623Y-62273373D01*
X156368872Y-62382143D01*
X156489947Y-62459953D01*
X156489950Y-62459954D01*
X156489949Y-62459954D01*
X156628036Y-62500499D01*
X156628038Y-62500500D01*
X156628039Y-62500500D01*
X156771962Y-62500500D01*
X156771962Y-62500499D01*
X156910053Y-62459953D01*
X157031128Y-62382143D01*
X157103023Y-62299171D01*
X157161798Y-62261398D01*
X157231668Y-62261398D01*
X157290446Y-62299172D01*
X157309971Y-62334928D01*
X157311151Y-62334390D01*
X157314834Y-62342456D01*
X157314835Y-62342457D01*
X157374623Y-62473373D01*
X157468872Y-62582143D01*
X157589947Y-62659953D01*
X157589950Y-62659954D01*
X157589949Y-62659954D01*
X157728036Y-62700499D01*
X157728038Y-62700500D01*
X157728039Y-62700500D01*
X157871962Y-62700500D01*
X157871962Y-62700499D01*
X158010053Y-62659953D01*
X158110834Y-62595184D01*
X158177874Y-62575500D01*
X159022126Y-62575500D01*
X159089165Y-62595185D01*
X159089166Y-62595185D01*
X159189947Y-62659953D01*
X159189948Y-62659953D01*
X159189949Y-62659954D01*
X159328036Y-62700499D01*
X159328038Y-62700500D01*
X159384750Y-62700500D01*
X159451789Y-62720185D01*
X159497544Y-62772989D01*
X159508750Y-62824500D01*
X159508750Y-63429269D01*
X159511603Y-63459699D01*
X159511603Y-63459701D01*
X159556456Y-63587880D01*
X159556457Y-63587882D01*
X159600270Y-63647246D01*
X159624241Y-63712875D01*
X159624500Y-63720880D01*
X159624500Y-64704496D01*
X159604815Y-64771535D01*
X159588181Y-64792177D01*
X159506205Y-64874152D01*
X159506202Y-64874157D01*
X159506201Y-64874158D01*
X159499057Y-64888179D01*
X159448603Y-64987198D01*
X159433751Y-65080975D01*
X159433751Y-66008848D01*
X159414066Y-66075887D01*
X159397432Y-66096529D01*
X158583231Y-66910731D01*
X158521908Y-66944216D01*
X158495550Y-66947050D01*
X156729254Y-66947050D01*
X156703807Y-66944411D01*
X156701163Y-66943856D01*
X156693179Y-66942182D01*
X156657959Y-66946573D01*
X156650282Y-66947050D01*
X156646336Y-66947050D01*
X156629056Y-66949933D01*
X156623296Y-66950894D01*
X156568818Y-66957685D01*
X156561294Y-66959925D01*
X156553842Y-66962484D01*
X156505569Y-66988607D01*
X156456240Y-67012722D01*
X156449848Y-67017285D01*
X156443624Y-67022130D01*
X156406453Y-67062508D01*
X154271108Y-69197852D01*
X154251254Y-69213976D01*
X154242165Y-69219914D01*
X154242164Y-69219915D01*
X154220363Y-69247923D01*
X154215286Y-69253674D01*
X154212484Y-69256477D01*
X154212474Y-69256488D01*
X154198905Y-69275495D01*
X154165192Y-69318808D01*
X154161447Y-69325729D01*
X154157988Y-69332804D01*
X154142329Y-69385403D01*
X154124500Y-69437338D01*
X154123206Y-69445092D01*
X154122231Y-69452911D01*
X154124500Y-69507755D01*
X154124500Y-71022815D01*
X154104815Y-71089854D01*
X154094215Y-71104016D01*
X154074623Y-71126627D01*
X154074622Y-71126628D01*
X154014835Y-71257541D01*
X154014834Y-71257546D01*
X154002324Y-71344558D01*
X153977440Y-71403073D01*
X153965192Y-71418808D01*
X153961447Y-71425729D01*
X153957988Y-71432804D01*
X153942329Y-71485403D01*
X153924500Y-71537338D01*
X153923206Y-71545092D01*
X153922231Y-71552911D01*
X153924500Y-71607755D01*
X153924500Y-71732019D01*
X153904815Y-71799058D01*
X153874134Y-71831789D01*
X153777850Y-71902850D01*
X153697207Y-72012117D01*
X153697206Y-72012119D01*
X153652353Y-72140298D01*
X153652353Y-72140300D01*
X153649500Y-72170730D01*
X153649500Y-72669100D01*
X153629815Y-72736139D01*
X153577011Y-72781894D01*
X153507853Y-72791838D01*
X153444297Y-72762813D01*
X153437819Y-72756781D01*
X153336819Y-72655781D01*
X153303334Y-72594458D01*
X153300500Y-72568100D01*
X153300500Y-72170730D01*
X153297646Y-72140300D01*
X153297646Y-72140298D01*
X153257683Y-72026094D01*
X153252793Y-72012118D01*
X153172150Y-71902850D01*
X153062882Y-71822207D01*
X153062880Y-71822206D01*
X152934700Y-71777353D01*
X152904270Y-71774500D01*
X152904266Y-71774500D01*
X152395734Y-71774500D01*
X152395730Y-71774500D01*
X152365300Y-71777353D01*
X152365298Y-71777353D01*
X152237119Y-71822206D01*
X152237117Y-71822207D01*
X152127850Y-71902850D01*
X152047207Y-72012117D01*
X152047206Y-72012119D01*
X152002353Y-72140298D01*
X152002353Y-72140300D01*
X151999500Y-72170730D01*
X151999500Y-72829269D01*
X152002353Y-72859699D01*
X152002353Y-72859701D01*
X152047206Y-72987880D01*
X152047207Y-72987882D01*
X152127850Y-73097150D01*
X152237118Y-73177793D01*
X152279845Y-73192743D01*
X152365299Y-73222646D01*
X152395730Y-73225500D01*
X152395734Y-73225500D01*
X152793100Y-73225500D01*
X152860139Y-73245185D01*
X152880781Y-73261819D01*
X153147850Y-73528888D01*
X153163975Y-73548744D01*
X153169913Y-73557832D01*
X153169916Y-73557836D01*
X153197925Y-73579636D01*
X153203687Y-73584725D01*
X153206482Y-73587520D01*
X153225495Y-73601094D01*
X153268811Y-73634809D01*
X153268818Y-73634811D01*
X153275720Y-73638547D01*
X153282796Y-73642006D01*
X153282801Y-73642010D01*
X153335402Y-73657670D01*
X153335403Y-73657670D01*
X153387338Y-73675500D01*
X153395072Y-73676790D01*
X153402910Y-73677767D01*
X153402912Y-73677768D01*
X153402913Y-73677767D01*
X153402914Y-73677768D01*
X153457756Y-73675500D01*
X156548196Y-73675500D01*
X156573641Y-73678139D01*
X156577440Y-73678935D01*
X156584268Y-73680367D01*
X156605225Y-73677754D01*
X156619492Y-73675977D01*
X156627168Y-73675500D01*
X156631112Y-73675500D01*
X156631114Y-73675500D01*
X156631116Y-73675499D01*
X156631122Y-73675499D01*
X156646487Y-73672934D01*
X156654140Y-73671657D01*
X156708626Y-73664866D01*
X156708627Y-73664865D01*
X156708629Y-73664865D01*
X156716141Y-73662628D01*
X156723606Y-73660066D01*
X156723606Y-73660065D01*
X156723610Y-73660065D01*
X156771877Y-73633944D01*
X156821211Y-73609826D01*
X156821213Y-73609823D01*
X156827594Y-73605268D01*
X156833818Y-73600423D01*
X156833826Y-73600419D01*
X156871007Y-73560029D01*
X157200632Y-73230405D01*
X157261954Y-73196921D01*
X157270669Y-73195349D01*
X157278195Y-73194267D01*
X157416283Y-73153721D01*
X157416283Y-73153720D01*
X157416286Y-73153720D01*
X157537361Y-73075910D01*
X157631610Y-72967140D01*
X157691398Y-72836224D01*
X157711880Y-72693767D01*
X157691398Y-72551310D01*
X157631610Y-72420394D01*
X157537361Y-72311624D01*
X157416286Y-72233814D01*
X157416284Y-72233813D01*
X157416282Y-72233812D01*
X157416283Y-72233812D01*
X157278196Y-72193267D01*
X157278194Y-72193267D01*
X157134272Y-72193267D01*
X157134269Y-72193267D01*
X156996182Y-72233812D01*
X156875106Y-72311623D01*
X156780856Y-72420393D01*
X156780855Y-72420395D01*
X156721068Y-72551308D01*
X156721067Y-72551313D01*
X156710722Y-72623263D01*
X156681696Y-72686818D01*
X156675665Y-72693296D01*
X156480781Y-72888181D01*
X156419458Y-72921666D01*
X156393100Y-72924500D01*
X155074500Y-72924500D01*
X155007461Y-72904815D01*
X154961706Y-72852011D01*
X154950500Y-72800500D01*
X154950500Y-72170730D01*
X154947646Y-72140300D01*
X154947646Y-72140298D01*
X154907683Y-72026094D01*
X154902793Y-72012118D01*
X154874020Y-71973132D01*
X154850050Y-71907505D01*
X154865365Y-71839335D01*
X154915105Y-71790266D01*
X154973791Y-71775500D01*
X158505336Y-71775500D01*
X158572375Y-71795185D01*
X158618130Y-71847989D01*
X158628626Y-71886246D01*
X158630909Y-71907483D01*
X158681202Y-72042328D01*
X158681206Y-72042335D01*
X158767452Y-72157544D01*
X158767455Y-72157547D01*
X158882664Y-72243793D01*
X158882673Y-72243798D01*
X158993832Y-72285257D01*
X159049766Y-72327127D01*
X159074184Y-72392592D01*
X159074500Y-72401439D01*
X159074500Y-72848560D01*
X159054815Y-72915599D01*
X159002011Y-72961354D01*
X158993833Y-72964742D01*
X158882671Y-73006202D01*
X158882664Y-73006206D01*
X158767455Y-73092452D01*
X158767452Y-73092455D01*
X158681206Y-73207664D01*
X158681202Y-73207671D01*
X158630908Y-73342517D01*
X158624501Y-73402116D01*
X158624501Y-73402123D01*
X158624500Y-73402135D01*
X158624500Y-74797870D01*
X158624501Y-74797876D01*
X158630908Y-74857483D01*
X158681202Y-74992328D01*
X158681206Y-74992335D01*
X158767452Y-75107544D01*
X158767455Y-75107547D01*
X158882664Y-75193793D01*
X158882673Y-75193798D01*
X158993832Y-75235257D01*
X159049766Y-75277127D01*
X159074184Y-75342592D01*
X159074500Y-75351439D01*
X159074500Y-75798560D01*
X159054815Y-75865599D01*
X159002011Y-75911354D01*
X158993833Y-75914742D01*
X158882671Y-75956202D01*
X158882664Y-75956206D01*
X158767455Y-76042452D01*
X158767452Y-76042455D01*
X158681206Y-76157664D01*
X158681202Y-76157671D01*
X158630908Y-76292517D01*
X158624501Y-76352116D01*
X158624501Y-76352123D01*
X158624500Y-76352135D01*
X158624500Y-77747870D01*
X158624501Y-77747876D01*
X158630908Y-77807483D01*
X158681202Y-77942328D01*
X158681206Y-77942335D01*
X158767452Y-78057544D01*
X158767455Y-78057547D01*
X158882664Y-78143793D01*
X158882671Y-78143797D01*
X158927618Y-78160561D01*
X159017517Y-78194091D01*
X159077127Y-78200500D01*
X159822872Y-78200499D01*
X159882483Y-78194091D01*
X160017331Y-78143796D01*
X160132546Y-78057546D01*
X160218796Y-77942331D01*
X160269091Y-77807483D01*
X160275500Y-77747873D01*
X160275500Y-77300000D01*
X161325001Y-77300000D01*
X161325001Y-77749986D01*
X161335494Y-77852697D01*
X161390641Y-78019119D01*
X161390643Y-78019124D01*
X161482684Y-78168345D01*
X161606654Y-78292315D01*
X161755875Y-78384356D01*
X161755880Y-78384358D01*
X161922302Y-78439505D01*
X161922309Y-78439506D01*
X162025019Y-78449999D01*
X162149999Y-78449999D01*
X162150000Y-78449998D01*
X162150000Y-77300000D01*
X162650000Y-77300000D01*
X162650000Y-78449999D01*
X162774972Y-78449999D01*
X162774986Y-78449998D01*
X162877697Y-78439505D01*
X163044119Y-78384358D01*
X163044124Y-78384356D01*
X163193345Y-78292315D01*
X163315660Y-78170000D01*
X165094785Y-78170000D01*
X165113602Y-78373082D01*
X165169417Y-78569247D01*
X165169422Y-78569260D01*
X165260327Y-78751821D01*
X165383237Y-78914581D01*
X165490080Y-79011980D01*
X165528714Y-79047200D01*
X165533958Y-79051980D01*
X165533960Y-79051982D01*
X165618402Y-79104266D01*
X165707363Y-79159348D01*
X165897544Y-79233024D01*
X166098024Y-79270500D01*
X166098026Y-79270500D01*
X166301974Y-79270500D01*
X166301976Y-79270500D01*
X166502456Y-79233024D01*
X166692637Y-79159348D01*
X166866041Y-79051981D01*
X167016764Y-78914579D01*
X167139673Y-78751821D01*
X167230582Y-78569250D01*
X167286397Y-78373083D01*
X167305215Y-78170000D01*
X167301508Y-78129999D01*
X167286397Y-77966917D01*
X167263710Y-77887181D01*
X167230582Y-77770750D01*
X167225206Y-77759954D01*
X167154252Y-77617458D01*
X167139673Y-77588179D01*
X167054204Y-77474999D01*
X167016762Y-77425418D01*
X166866041Y-77288019D01*
X166866039Y-77288017D01*
X166692642Y-77180655D01*
X166692635Y-77180651D01*
X166517696Y-77112880D01*
X166502456Y-77106976D01*
X166301976Y-77069500D01*
X166098024Y-77069500D01*
X165897544Y-77106976D01*
X165897541Y-77106976D01*
X165897541Y-77106977D01*
X165707364Y-77180651D01*
X165707357Y-77180655D01*
X165533960Y-77288017D01*
X165533958Y-77288019D01*
X165383237Y-77425418D01*
X165260327Y-77588178D01*
X165169422Y-77770739D01*
X165169417Y-77770752D01*
X165113602Y-77966917D01*
X165094785Y-78169999D01*
X165094785Y-78170000D01*
X163315660Y-78170000D01*
X163317315Y-78168345D01*
X163409356Y-78019124D01*
X163409358Y-78019119D01*
X163464505Y-77852697D01*
X163464506Y-77852690D01*
X163474999Y-77749986D01*
X163475000Y-77749973D01*
X163475000Y-77300000D01*
X162650000Y-77300000D01*
X162150000Y-77300000D01*
X161325001Y-77300000D01*
X160275500Y-77300000D01*
X160275499Y-76800000D01*
X161325000Y-76800000D01*
X163474999Y-76800000D01*
X163474999Y-76350028D01*
X163474998Y-76350013D01*
X163464505Y-76247302D01*
X163409358Y-76080880D01*
X163409356Y-76080875D01*
X163317315Y-75931654D01*
X163193345Y-75807684D01*
X163044124Y-75715643D01*
X163044119Y-75715641D01*
X162974904Y-75692706D01*
X162917459Y-75652934D01*
X162907924Y-75630000D01*
X165094785Y-75630000D01*
X165113602Y-75833082D01*
X165169417Y-76029247D01*
X165169422Y-76029260D01*
X165260327Y-76211821D01*
X165383237Y-76374581D01*
X165533958Y-76511980D01*
X165533960Y-76511982D01*
X165578103Y-76539314D01*
X165707363Y-76619348D01*
X165897544Y-76693024D01*
X166098024Y-76730500D01*
X166098026Y-76730500D01*
X166301974Y-76730500D01*
X166301976Y-76730500D01*
X166502456Y-76693024D01*
X166692637Y-76619348D01*
X166866041Y-76511981D01*
X167016764Y-76374579D01*
X167139673Y-76211821D01*
X167230582Y-76029250D01*
X167286397Y-75833083D01*
X167305215Y-75630000D01*
X167301508Y-75589999D01*
X167286397Y-75426917D01*
X167275016Y-75386917D01*
X167230582Y-75230750D01*
X167215519Y-75200500D01*
X167186272Y-75141764D01*
X167139673Y-75048179D01*
X167067622Y-74952768D01*
X167016762Y-74885418D01*
X166866041Y-74748019D01*
X166866039Y-74748017D01*
X166692642Y-74640655D01*
X166692635Y-74640651D01*
X166508460Y-74569302D01*
X166502456Y-74566976D01*
X166301976Y-74529500D01*
X166098024Y-74529500D01*
X165897544Y-74566976D01*
X165897541Y-74566976D01*
X165897541Y-74566977D01*
X165707364Y-74640651D01*
X165707357Y-74640655D01*
X165533960Y-74748017D01*
X165533958Y-74748019D01*
X165383237Y-74885418D01*
X165260327Y-75048178D01*
X165169422Y-75230739D01*
X165169417Y-75230752D01*
X165113602Y-75426917D01*
X165094785Y-75629999D01*
X165094785Y-75630000D01*
X162907924Y-75630000D01*
X162890636Y-75588418D01*
X162902951Y-75519642D01*
X162950494Y-75468442D01*
X162974904Y-75457294D01*
X163044119Y-75434358D01*
X163044124Y-75434356D01*
X163193345Y-75342315D01*
X163317315Y-75218345D01*
X163409356Y-75069124D01*
X163409358Y-75069119D01*
X163464505Y-74902697D01*
X163464506Y-74902690D01*
X163474999Y-74799986D01*
X163475000Y-74799973D01*
X163475000Y-74350000D01*
X161325001Y-74350000D01*
X161325001Y-74799986D01*
X161335494Y-74902697D01*
X161390641Y-75069119D01*
X161390643Y-75069124D01*
X161482684Y-75218345D01*
X161606654Y-75342315D01*
X161755875Y-75434356D01*
X161755882Y-75434359D01*
X161825094Y-75457293D01*
X161882539Y-75497065D01*
X161909363Y-75561580D01*
X161897049Y-75630356D01*
X161849506Y-75681557D01*
X161825097Y-75692704D01*
X161755883Y-75715640D01*
X161755875Y-75715643D01*
X161606654Y-75807684D01*
X161482684Y-75931654D01*
X161390643Y-76080875D01*
X161390641Y-76080880D01*
X161335494Y-76247302D01*
X161335493Y-76247309D01*
X161325000Y-76350013D01*
X161325000Y-76800000D01*
X160275499Y-76800000D01*
X160275499Y-76352128D01*
X160269091Y-76292517D01*
X160267077Y-76287118D01*
X160218797Y-76157671D01*
X160218793Y-76157664D01*
X160132547Y-76042455D01*
X160132544Y-76042452D01*
X160017335Y-75956206D01*
X160017329Y-75956203D01*
X159906166Y-75914741D01*
X159850233Y-75872869D01*
X159825816Y-75807405D01*
X159825500Y-75798559D01*
X159825500Y-75351439D01*
X159845185Y-75284400D01*
X159897989Y-75238645D01*
X159906168Y-75235257D01*
X159918282Y-75230739D01*
X159999357Y-75200500D01*
X160017326Y-75193798D01*
X160017326Y-75193797D01*
X160017331Y-75193796D01*
X160132546Y-75107546D01*
X160218796Y-74992331D01*
X160269091Y-74857483D01*
X160275500Y-74797873D01*
X160275499Y-73850000D01*
X161325000Y-73850000D01*
X163474999Y-73850000D01*
X163474999Y-73400028D01*
X163474998Y-73400013D01*
X163464505Y-73297302D01*
X163409358Y-73130880D01*
X163409356Y-73130875D01*
X163317315Y-72981654D01*
X163193345Y-72857684D01*
X163044124Y-72765643D01*
X163044119Y-72765641D01*
X162974904Y-72742706D01*
X162917459Y-72702934D01*
X162890636Y-72638418D01*
X162902951Y-72569642D01*
X162950494Y-72518442D01*
X162974904Y-72507294D01*
X163044119Y-72484358D01*
X163044124Y-72484356D01*
X163193345Y-72392315D01*
X163317315Y-72268345D01*
X163409356Y-72119124D01*
X163409358Y-72119119D01*
X163464505Y-71952697D01*
X163464506Y-71952690D01*
X163474999Y-71849986D01*
X163475000Y-71849973D01*
X163475000Y-71400000D01*
X161325001Y-71400000D01*
X161325001Y-71849986D01*
X161335494Y-71952697D01*
X161390641Y-72119119D01*
X161390643Y-72119124D01*
X161482684Y-72268345D01*
X161606654Y-72392315D01*
X161755875Y-72484356D01*
X161755882Y-72484359D01*
X161825094Y-72507293D01*
X161882539Y-72547065D01*
X161909363Y-72611580D01*
X161897049Y-72680356D01*
X161849506Y-72731557D01*
X161825097Y-72742704D01*
X161755883Y-72765640D01*
X161755875Y-72765643D01*
X161606654Y-72857684D01*
X161482684Y-72981654D01*
X161390643Y-73130875D01*
X161390641Y-73130880D01*
X161335494Y-73297302D01*
X161335493Y-73297309D01*
X161325000Y-73400013D01*
X161325000Y-73850000D01*
X160275499Y-73850000D01*
X160275499Y-73402128D01*
X160269091Y-73342517D01*
X160253233Y-73300000D01*
X160218797Y-73207671D01*
X160218793Y-73207664D01*
X160132547Y-73092455D01*
X160132544Y-73092452D01*
X160017335Y-73006206D01*
X160017329Y-73006203D01*
X159906166Y-72964741D01*
X159850233Y-72922869D01*
X159825816Y-72857405D01*
X159825500Y-72848559D01*
X159825500Y-72401439D01*
X159845185Y-72334400D01*
X159897989Y-72288645D01*
X159906168Y-72285257D01*
X160017326Y-72243798D01*
X160017326Y-72243797D01*
X160017331Y-72243796D01*
X160132546Y-72157546D01*
X160218796Y-72042331D01*
X160269091Y-71907483D01*
X160275500Y-71847873D01*
X160275499Y-70452128D01*
X160269091Y-70392517D01*
X160253419Y-70350499D01*
X160218797Y-70257671D01*
X160218793Y-70257664D01*
X160132547Y-70142455D01*
X160132544Y-70142452D01*
X160017335Y-70056206D01*
X160017328Y-70056202D01*
X159882486Y-70005910D01*
X159882485Y-70005909D01*
X159882483Y-70005909D01*
X159822873Y-69999500D01*
X159822863Y-69999500D01*
X159077129Y-69999500D01*
X159077123Y-69999501D01*
X159017516Y-70005908D01*
X158882671Y-70056202D01*
X158882664Y-70056206D01*
X158767455Y-70142452D01*
X158767452Y-70142455D01*
X158681206Y-70257664D01*
X158681202Y-70257671D01*
X158630908Y-70392517D01*
X158624501Y-70452116D01*
X158624501Y-70452123D01*
X158624500Y-70452135D01*
X158624500Y-70900500D01*
X158604815Y-70967539D01*
X158552011Y-71013294D01*
X158500500Y-71024500D01*
X154999500Y-71024500D01*
X154932461Y-71004815D01*
X154886706Y-70952011D01*
X154875500Y-70900500D01*
X154875500Y-69706898D01*
X154895185Y-69639859D01*
X154911814Y-69619222D01*
X156796668Y-67734368D01*
X156857991Y-67700884D01*
X156884349Y-67698050D01*
X158650646Y-67698050D01*
X158676091Y-67700689D01*
X158679890Y-67701485D01*
X158686718Y-67702917D01*
X158707675Y-67700304D01*
X158721942Y-67698527D01*
X158729618Y-67698050D01*
X158733562Y-67698050D01*
X158733564Y-67698050D01*
X158733566Y-67698049D01*
X158733572Y-67698049D01*
X158748937Y-67695484D01*
X158756590Y-67694207D01*
X158811076Y-67687416D01*
X158811077Y-67687415D01*
X158811079Y-67687415D01*
X158818591Y-67685178D01*
X158826056Y-67682616D01*
X158826056Y-67682615D01*
X158826060Y-67682615D01*
X158874327Y-67656494D01*
X158923661Y-67632376D01*
X158923663Y-67632373D01*
X158930044Y-67627818D01*
X158936269Y-67622972D01*
X158936276Y-67622969D01*
X158973458Y-67582578D01*
X159267121Y-67288915D01*
X159328444Y-67255430D01*
X159398136Y-67260414D01*
X159454069Y-67302286D01*
X159478486Y-67367750D01*
X159478802Y-67376596D01*
X159478802Y-67600265D01*
X159459117Y-67667304D01*
X159448517Y-67681466D01*
X159428925Y-67704077D01*
X159428924Y-67704078D01*
X159369136Y-67834993D01*
X159348655Y-67977450D01*
X159369136Y-68119906D01*
X159428924Y-68250821D01*
X159428925Y-68250823D01*
X159523174Y-68359593D01*
X159644249Y-68437403D01*
X159644252Y-68437404D01*
X159644251Y-68437404D01*
X159721433Y-68460066D01*
X159779480Y-68477110D01*
X159782338Y-68477949D01*
X159782340Y-68477950D01*
X159782341Y-68477950D01*
X159926264Y-68477950D01*
X159926264Y-68477949D01*
X160064355Y-68437403D01*
X160185430Y-68359593D01*
X160222109Y-68317262D01*
X160280884Y-68279488D01*
X160350754Y-68279487D01*
X160409533Y-68317261D01*
X160426305Y-68342169D01*
X160456200Y-68400840D01*
X160456205Y-68400847D01*
X160545903Y-68490545D01*
X160545905Y-68490546D01*
X160545909Y-68490550D01*
X160628164Y-68532461D01*
X160658949Y-68548147D01*
X160752726Y-68562999D01*
X160752732Y-68563000D01*
X161115769Y-68562999D01*
X161209555Y-68548146D01*
X161322593Y-68490550D01*
X161412301Y-68400842D01*
X161469897Y-68287804D01*
X161469897Y-68287802D01*
X161469898Y-68287801D01*
X161484751Y-68194024D01*
X161484751Y-68074500D01*
X161504436Y-68007461D01*
X161557240Y-67961706D01*
X161608751Y-67950500D01*
X163713196Y-67950500D01*
X163738641Y-67953139D01*
X163742440Y-67953935D01*
X163749268Y-67955367D01*
X163770225Y-67952754D01*
X163784492Y-67950977D01*
X163792168Y-67950500D01*
X163796112Y-67950500D01*
X163796114Y-67950500D01*
X163796116Y-67950499D01*
X163796122Y-67950499D01*
X163811487Y-67947934D01*
X163819140Y-67946657D01*
X163873626Y-67939866D01*
X163873627Y-67939865D01*
X163873629Y-67939865D01*
X163881141Y-67937628D01*
X163888606Y-67935066D01*
X163888606Y-67935065D01*
X163888610Y-67935065D01*
X163936877Y-67908944D01*
X163986211Y-67884826D01*
X163986213Y-67884823D01*
X163992594Y-67880268D01*
X163998819Y-67875422D01*
X163998826Y-67875419D01*
X164036007Y-67835029D01*
X164943892Y-66927144D01*
X164963741Y-66911025D01*
X164972836Y-66905084D01*
X164994644Y-66877062D01*
X164999721Y-66871316D01*
X165002520Y-66868518D01*
X165016094Y-66849504D01*
X165026699Y-66835879D01*
X165049807Y-66806192D01*
X165053547Y-66799280D01*
X165057003Y-66792207D01*
X165057010Y-66792199D01*
X165072670Y-66739596D01*
X165090500Y-66687660D01*
X165090500Y-66687655D01*
X165091790Y-66679924D01*
X165092768Y-66672085D01*
X165090500Y-66617244D01*
X165090500Y-66196899D01*
X165110185Y-66129860D01*
X165162989Y-66084105D01*
X165232147Y-66074161D01*
X165295703Y-66103186D01*
X165313454Y-66122173D01*
X165383234Y-66214577D01*
X165383236Y-66214580D01*
X165533958Y-66351980D01*
X165533960Y-66351982D01*
X165555817Y-66365515D01*
X165707363Y-66459348D01*
X165897544Y-66533024D01*
X166098024Y-66570500D01*
X166098026Y-66570500D01*
X166301974Y-66570500D01*
X166301976Y-66570500D01*
X166502456Y-66533024D01*
X166692637Y-66459348D01*
X166810223Y-66386541D01*
X166877583Y-66367986D01*
X166944282Y-66388794D01*
X166989144Y-66442360D01*
X166999500Y-66491969D01*
X166999500Y-66988030D01*
X166979815Y-67055069D01*
X166927011Y-67100824D01*
X166857853Y-67110768D01*
X166810223Y-67093457D01*
X166692642Y-67020655D01*
X166692635Y-67020651D01*
X166567967Y-66972355D01*
X166502456Y-66946976D01*
X166301976Y-66909500D01*
X166098024Y-66909500D01*
X165897544Y-66946976D01*
X165897541Y-66946976D01*
X165897541Y-66946977D01*
X165707364Y-67020651D01*
X165707357Y-67020655D01*
X165533960Y-67128017D01*
X165533958Y-67128019D01*
X165383237Y-67265418D01*
X165260327Y-67428178D01*
X165169422Y-67610739D01*
X165169417Y-67610752D01*
X165113602Y-67806917D01*
X165094785Y-68009999D01*
X165094785Y-68010000D01*
X165113602Y-68213082D01*
X165169417Y-68409247D01*
X165169422Y-68409260D01*
X165260327Y-68591821D01*
X165383237Y-68754581D01*
X165533958Y-68891980D01*
X165533960Y-68891982D01*
X165611588Y-68940047D01*
X165707363Y-68999348D01*
X165897544Y-69073024D01*
X166098024Y-69110500D01*
X166098026Y-69110500D01*
X166301974Y-69110500D01*
X166301976Y-69110500D01*
X166502456Y-69073024D01*
X166692637Y-68999348D01*
X166810223Y-68926541D01*
X166877583Y-68907986D01*
X166944282Y-68928794D01*
X166989144Y-68982360D01*
X166999500Y-69031969D01*
X166999500Y-69168099D01*
X166979815Y-69235138D01*
X166963181Y-69255780D01*
X166725028Y-69493933D01*
X166663705Y-69527418D01*
X166594013Y-69522434D01*
X166592554Y-69521879D01*
X166502461Y-69486977D01*
X166502456Y-69486976D01*
X166301976Y-69449500D01*
X166098024Y-69449500D01*
X165897544Y-69486976D01*
X165897541Y-69486976D01*
X165897541Y-69486977D01*
X165707364Y-69560651D01*
X165707357Y-69560655D01*
X165533960Y-69668017D01*
X165533958Y-69668019D01*
X165383237Y-69805418D01*
X165260327Y-69968178D01*
X165169422Y-70150739D01*
X165169418Y-70150750D01*
X165141300Y-70249571D01*
X165104020Y-70308664D01*
X165040710Y-70338221D01*
X164971470Y-70328857D01*
X164934353Y-70303316D01*
X164396458Y-69765421D01*
X163702149Y-69071111D01*
X163686022Y-69051252D01*
X163680086Y-69042167D01*
X163680083Y-69042163D01*
X163652074Y-69020363D01*
X163646310Y-69015272D01*
X163643515Y-69012477D01*
X163624505Y-68998906D01*
X163581189Y-68965190D01*
X163574274Y-68961448D01*
X163567200Y-68957990D01*
X163514596Y-68942329D01*
X163462658Y-68924499D01*
X163454923Y-68923208D01*
X163447085Y-68922231D01*
X163392244Y-68924500D01*
X156551804Y-68924500D01*
X156526357Y-68921861D01*
X156523713Y-68921306D01*
X156515729Y-68919632D01*
X156480509Y-68924023D01*
X156472832Y-68924500D01*
X156468886Y-68924500D01*
X156451606Y-68927383D01*
X156445846Y-68928344D01*
X156391368Y-68935135D01*
X156383844Y-68937375D01*
X156376392Y-68939934D01*
X156376390Y-68939934D01*
X156376390Y-68939935D01*
X156364793Y-68946211D01*
X156328119Y-68966057D01*
X156278790Y-68990172D01*
X156272398Y-68994735D01*
X156266174Y-68999580D01*
X156229003Y-69039958D01*
X155805601Y-69463360D01*
X155744278Y-69496845D01*
X155735571Y-69498416D01*
X155728040Y-69499498D01*
X155589949Y-69540045D01*
X155468873Y-69617856D01*
X155468872Y-69617856D01*
X155468872Y-69617857D01*
X155468299Y-69618518D01*
X155374623Y-69726626D01*
X155374622Y-69726628D01*
X155314834Y-69857543D01*
X155294353Y-70000000D01*
X155314834Y-70142456D01*
X155363753Y-70249571D01*
X155374623Y-70273373D01*
X155468872Y-70382143D01*
X155589947Y-70459953D01*
X155589950Y-70459954D01*
X155589949Y-70459954D01*
X155728036Y-70500499D01*
X155728038Y-70500500D01*
X155728039Y-70500500D01*
X155871962Y-70500500D01*
X155871962Y-70500499D01*
X156010053Y-70459953D01*
X156131128Y-70382143D01*
X156225377Y-70273373D01*
X156285165Y-70142457D01*
X156295509Y-70070502D01*
X156324533Y-70006949D01*
X156330537Y-70000498D01*
X156619219Y-69711816D01*
X156680541Y-69678334D01*
X156706899Y-69675500D01*
X161545846Y-69675500D01*
X161612885Y-69695185D01*
X161658640Y-69747989D01*
X161668584Y-69817147D01*
X161639559Y-69880703D01*
X161610945Y-69905038D01*
X161606654Y-69907684D01*
X161482684Y-70031654D01*
X161390643Y-70180875D01*
X161390641Y-70180880D01*
X161335494Y-70347302D01*
X161335493Y-70347309D01*
X161325000Y-70450013D01*
X161325000Y-70900000D01*
X163474999Y-70900000D01*
X163474999Y-70450028D01*
X163474998Y-70450013D01*
X163464505Y-70347302D01*
X163409357Y-70180878D01*
X163409066Y-70180253D01*
X163408994Y-70179782D01*
X163407086Y-70174023D01*
X163408070Y-70173696D01*
X163398573Y-70111176D01*
X163427091Y-70047391D01*
X163485567Y-70009150D01*
X163555434Y-70008595D01*
X163609128Y-70040165D01*
X164622320Y-71053357D01*
X164655805Y-71114680D01*
X164657686Y-71125697D01*
X164660132Y-71145323D01*
X164662373Y-71152848D01*
X164664934Y-71160309D01*
X164664935Y-71160311D01*
X164691055Y-71208577D01*
X164691055Y-71208578D01*
X164715174Y-71257912D01*
X164719742Y-71264310D01*
X164724582Y-71270528D01*
X164764970Y-71307709D01*
X165411149Y-71953888D01*
X165427274Y-71973744D01*
X165433212Y-71982832D01*
X165433215Y-71982836D01*
X165461224Y-72004636D01*
X165466986Y-72009725D01*
X165469147Y-72011886D01*
X165469780Y-72012519D01*
X165488795Y-72026095D01*
X165504703Y-72038477D01*
X165545515Y-72095188D01*
X165549188Y-72164961D01*
X165514556Y-72225644D01*
X165512077Y-72227966D01*
X165383237Y-72345418D01*
X165260327Y-72508178D01*
X165169422Y-72690739D01*
X165169417Y-72690752D01*
X165113602Y-72886917D01*
X165094785Y-73089999D01*
X165094785Y-73090000D01*
X165113602Y-73293082D01*
X165169417Y-73489247D01*
X165169422Y-73489260D01*
X165260327Y-73671821D01*
X165383237Y-73834581D01*
X165533958Y-73971980D01*
X165533960Y-73971982D01*
X165578449Y-73999528D01*
X165707363Y-74079348D01*
X165897544Y-74153024D01*
X166098024Y-74190500D01*
X166098026Y-74190500D01*
X166301974Y-74190500D01*
X166301976Y-74190500D01*
X166502456Y-74153024D01*
X166692637Y-74079348D01*
X166866041Y-73971981D01*
X167016764Y-73834579D01*
X167139673Y-73671821D01*
X167230582Y-73489250D01*
X167286397Y-73293083D01*
X167305215Y-73090000D01*
X167295175Y-72981654D01*
X167286397Y-72886917D01*
X167270284Y-72830286D01*
X167230582Y-72690750D01*
X167228624Y-72686818D01*
X167170821Y-72570734D01*
X167139673Y-72508179D01*
X167016764Y-72345421D01*
X167016762Y-72345418D01*
X166866041Y-72208019D01*
X166866039Y-72208017D01*
X166692640Y-72100653D01*
X166692625Y-72100646D01*
X166641683Y-72080911D01*
X166586281Y-72038338D01*
X166567632Y-72000665D01*
X166562628Y-71983858D01*
X166560065Y-71976392D01*
X166560065Y-71976390D01*
X166533944Y-71928122D01*
X166509826Y-71878789D01*
X166509824Y-71878787D01*
X166509824Y-71878786D01*
X166505276Y-71872416D01*
X166500420Y-71866176D01*
X166500419Y-71866174D01*
X166460030Y-71828993D01*
X166450498Y-71819461D01*
X166417014Y-71758139D01*
X166421998Y-71688447D01*
X166463870Y-71632514D01*
X166497421Y-71615898D01*
X166497110Y-71615095D01*
X166542505Y-71597509D01*
X166692637Y-71539348D01*
X166866041Y-71431981D01*
X167016764Y-71294579D01*
X167139673Y-71131821D01*
X167230582Y-70949250D01*
X167286397Y-70753083D01*
X167305215Y-70550000D01*
X167301508Y-70509999D01*
X167286397Y-70346917D01*
X167268730Y-70284826D01*
X167230582Y-70150750D01*
X167230581Y-70150749D01*
X167229013Y-70145236D01*
X167231001Y-70144670D01*
X167225895Y-70084210D01*
X167258588Y-70022462D01*
X167259628Y-70021408D01*
X167603892Y-69677144D01*
X167623741Y-69661025D01*
X167632836Y-69655084D01*
X167654644Y-69627062D01*
X167659721Y-69621316D01*
X167662520Y-69618518D01*
X167676094Y-69599504D01*
X167694523Y-69575828D01*
X167709807Y-69556192D01*
X167713547Y-69549280D01*
X167717003Y-69542207D01*
X167717010Y-69542199D01*
X167732670Y-69489596D01*
X167750500Y-69437660D01*
X167750500Y-69437655D01*
X167751790Y-69429924D01*
X167752768Y-69422085D01*
X167750500Y-69367244D01*
X167750500Y-59266804D01*
X167753139Y-59241359D01*
X167753785Y-59238275D01*
X167755367Y-59230732D01*
X167752339Y-59206437D01*
X167750977Y-59195506D01*
X167750500Y-59187830D01*
X167750500Y-59183889D01*
X167750498Y-59183876D01*
X167750135Y-59181703D01*
X167746657Y-59160859D01*
X167739866Y-59106374D01*
X167739864Y-59106370D01*
X167737622Y-59098840D01*
X167735065Y-59091392D01*
X167735065Y-59091390D01*
X167708944Y-59043122D01*
X167684826Y-58993789D01*
X167684824Y-58993787D01*
X167684824Y-58993786D01*
X167680278Y-58987419D01*
X167675421Y-58981178D01*
X167675419Y-58981174D01*
X167675414Y-58981169D01*
X167662077Y-58968891D01*
X167642254Y-58945485D01*
X167640086Y-58942166D01*
X167640082Y-58942162D01*
X167612077Y-58920365D01*
X167606313Y-58915274D01*
X167603523Y-58912484D01*
X167603519Y-58912481D01*
X167603518Y-58912480D01*
X167594536Y-58906066D01*
X167588568Y-58901220D01*
X167583222Y-58896299D01*
X167572506Y-58889298D01*
X167568336Y-58886320D01*
X167553253Y-58874581D01*
X167541189Y-58865191D01*
X167541186Y-58865190D01*
X167534263Y-58861443D01*
X167527200Y-58857990D01*
X167474596Y-58842329D01*
X167422658Y-58824499D01*
X167414923Y-58823208D01*
X167407085Y-58822231D01*
X167352244Y-58824500D01*
X164077874Y-58824500D01*
X164010835Y-58804815D01*
X164010834Y-58804815D01*
X164002234Y-58799288D01*
X163910053Y-58740047D01*
X163910052Y-58740046D01*
X163910051Y-58740046D01*
X163910050Y-58740045D01*
X163771963Y-58699500D01*
X163771961Y-58699500D01*
X163628039Y-58699500D01*
X163628036Y-58699500D01*
X163489949Y-58740045D01*
X163368873Y-58817856D01*
X163274623Y-58926626D01*
X163274622Y-58926628D01*
X163214834Y-59057543D01*
X163194353Y-59200000D01*
X163214834Y-59342456D01*
X163274622Y-59473371D01*
X163274623Y-59473373D01*
X163368872Y-59582143D01*
X163489947Y-59659953D01*
X163489950Y-59659954D01*
X163489949Y-59659954D01*
X163582678Y-59687181D01*
X163624633Y-59699500D01*
X163628036Y-59700499D01*
X163628038Y-59700500D01*
X163628039Y-59700500D01*
X163771962Y-59700500D01*
X163771962Y-59700499D01*
X163910053Y-59659953D01*
X164010834Y-59595184D01*
X164077874Y-59575500D01*
X164726000Y-59575500D01*
X164793039Y-59595185D01*
X164838794Y-59647989D01*
X164850000Y-59699500D01*
X164850000Y-60140000D01*
X165586653Y-60140000D01*
X165653692Y-60159685D01*
X165699447Y-60212489D01*
X165709391Y-60281647D01*
X165705631Y-60298933D01*
X165700000Y-60318111D01*
X165700000Y-60461888D01*
X165705631Y-60481067D01*
X165705630Y-60550936D01*
X165667855Y-60609714D01*
X165604299Y-60638738D01*
X165586653Y-60640000D01*
X164850000Y-60640000D01*
X164850000Y-61287844D01*
X164856401Y-61347372D01*
X164856403Y-61347379D01*
X164906645Y-61482086D01*
X164906649Y-61482093D01*
X164992809Y-61597187D01*
X164992812Y-61597190D01*
X165107906Y-61683350D01*
X165107913Y-61683354D01*
X165242620Y-61733596D01*
X165242627Y-61733598D01*
X165302155Y-61739999D01*
X165302172Y-61740000D01*
X165595612Y-61740000D01*
X165662651Y-61759685D01*
X165708406Y-61812489D01*
X165718350Y-61881647D01*
X165689325Y-61945203D01*
X165660889Y-61969427D01*
X165533960Y-62048017D01*
X165533958Y-62048019D01*
X165383237Y-62185418D01*
X165260327Y-62348178D01*
X165169422Y-62530739D01*
X165169417Y-62530752D01*
X165113602Y-62726917D01*
X165094785Y-62929999D01*
X165094785Y-62930000D01*
X165113602Y-63133082D01*
X165140707Y-63228342D01*
X165168671Y-63326626D01*
X165170987Y-63334763D01*
X165169003Y-63335327D01*
X165174098Y-63395816D01*
X165141390Y-63457557D01*
X165140290Y-63458671D01*
X164486108Y-64112852D01*
X164466254Y-64128976D01*
X164457165Y-64134914D01*
X164457164Y-64134915D01*
X164435363Y-64162923D01*
X164430286Y-64168674D01*
X164427484Y-64171477D01*
X164427474Y-64171488D01*
X164413905Y-64190495D01*
X164380192Y-64233808D01*
X164376447Y-64240729D01*
X164372988Y-64247804D01*
X164357329Y-64300403D01*
X164339500Y-64352338D01*
X164338206Y-64360092D01*
X164337231Y-64367911D01*
X164339500Y-64422755D01*
X164339500Y-66418099D01*
X164319815Y-66485138D01*
X164303181Y-66505780D01*
X163645781Y-67163181D01*
X163584458Y-67196666D01*
X163558100Y-67199500D01*
X161608750Y-67199500D01*
X161541711Y-67179815D01*
X161495956Y-67127011D01*
X161484750Y-67075500D01*
X161484750Y-66955982D01*
X161482917Y-66944411D01*
X161469897Y-66862196D01*
X161462778Y-66848225D01*
X161449883Y-66779559D01*
X161476159Y-66714819D01*
X161533265Y-66674561D01*
X161599290Y-66671731D01*
X161599308Y-66671620D01*
X161599856Y-66671706D01*
X161603071Y-66671569D01*
X161608144Y-66673019D01*
X161682436Y-66684785D01*
X161700585Y-66687660D01*
X161702726Y-66687999D01*
X161702732Y-66688000D01*
X162065769Y-66687999D01*
X162159555Y-66673146D01*
X162272593Y-66615550D01*
X162362301Y-66525842D01*
X162419897Y-66412804D01*
X162419897Y-66412802D01*
X162419898Y-66412801D01*
X162432814Y-66331251D01*
X162434751Y-66319019D01*
X162434750Y-65080982D01*
X162419897Y-64987196D01*
X162362301Y-64874158D01*
X162362299Y-64874156D01*
X162362299Y-64874155D01*
X162296068Y-64807924D01*
X162262584Y-64746600D01*
X162259750Y-64720243D01*
X162259750Y-63812628D01*
X162279435Y-63745589D01*
X162310116Y-63712857D01*
X162331400Y-63697150D01*
X162412043Y-63587882D01*
X162434469Y-63523790D01*
X162456896Y-63459701D01*
X162456896Y-63459699D01*
X162459750Y-63429269D01*
X162459750Y-62770730D01*
X162456896Y-62740300D01*
X162456896Y-62740298D01*
X162412043Y-62612119D01*
X162412042Y-62612117D01*
X162399546Y-62595185D01*
X162331400Y-62502850D01*
X162222132Y-62422207D01*
X162222130Y-62422206D01*
X162093950Y-62377353D01*
X162063520Y-62374500D01*
X162063516Y-62374500D01*
X161554984Y-62374500D01*
X161554980Y-62374500D01*
X161524550Y-62377353D01*
X161524548Y-62377353D01*
X161396369Y-62422206D01*
X161396367Y-62422207D01*
X161287100Y-62502850D01*
X161206457Y-62612117D01*
X161206456Y-62612119D01*
X161161603Y-62740298D01*
X161161603Y-62740300D01*
X161158750Y-62770730D01*
X161158750Y-63429269D01*
X161161603Y-63459699D01*
X161161603Y-63459701D01*
X161206456Y-63587880D01*
X161206457Y-63587882D01*
X161287100Y-63697150D01*
X161396368Y-63777793D01*
X161425706Y-63788059D01*
X161482480Y-63828779D01*
X161508228Y-63893731D01*
X161508750Y-63905099D01*
X161508750Y-64720246D01*
X161489065Y-64787285D01*
X161472431Y-64807927D01*
X161406205Y-64874152D01*
X161406202Y-64874157D01*
X161406201Y-64874158D01*
X161399057Y-64888179D01*
X161348603Y-64987198D01*
X161333751Y-65080975D01*
X161333751Y-65235004D01*
X161314066Y-65302043D01*
X161268767Y-65344060D01*
X161228123Y-65366054D01*
X161178792Y-65390171D01*
X161172375Y-65394753D01*
X161166175Y-65399579D01*
X161128992Y-65439970D01*
X160746431Y-65822530D01*
X160685108Y-65856015D01*
X160615416Y-65851031D01*
X160559483Y-65809159D01*
X160535066Y-65743695D01*
X160534750Y-65734849D01*
X160534750Y-65080982D01*
X160533376Y-65072304D01*
X160519897Y-64987196D01*
X160462301Y-64874158D01*
X160462297Y-64874154D01*
X160462296Y-64874152D01*
X160411819Y-64823675D01*
X160378334Y-64762352D01*
X160375500Y-64735994D01*
X160375500Y-63934580D01*
X160395185Y-63867541D01*
X160447989Y-63821786D01*
X160458545Y-63817539D01*
X160495813Y-63804497D01*
X160572132Y-63777793D01*
X160681400Y-63697150D01*
X160762043Y-63587882D01*
X160784469Y-63523790D01*
X160806896Y-63459701D01*
X160806896Y-63459699D01*
X160809750Y-63429269D01*
X160809750Y-62770730D01*
X160806896Y-62740300D01*
X160806896Y-62740298D01*
X160762043Y-62612119D01*
X160762042Y-62612117D01*
X160749546Y-62595185D01*
X160681400Y-62502850D01*
X160612319Y-62451866D01*
X160585116Y-62431789D01*
X160542865Y-62376141D01*
X160534750Y-62332019D01*
X160534750Y-60511053D01*
X160537389Y-60485608D01*
X160538341Y-60481067D01*
X160539617Y-60474982D01*
X160537160Y-60455270D01*
X160535227Y-60439757D01*
X160534750Y-60432081D01*
X160534750Y-60428140D01*
X160534749Y-60428131D01*
X160530907Y-60405106D01*
X160524116Y-60350626D01*
X160521871Y-60343087D01*
X160519314Y-60335638D01*
X160518214Y-60333605D01*
X160504530Y-60292233D01*
X160503008Y-60281647D01*
X160485165Y-60157543D01*
X160472684Y-60130214D01*
X160462741Y-60061060D01*
X160491765Y-59997503D01*
X160550543Y-59959728D01*
X160620412Y-59959727D01*
X160673160Y-59991023D01*
X163097684Y-62415548D01*
X163131168Y-62476869D01*
X163134002Y-62503227D01*
X163134002Y-63822815D01*
X163114317Y-63889854D01*
X163103717Y-63904016D01*
X163084125Y-63926627D01*
X163084124Y-63926628D01*
X163024336Y-64057543D01*
X163003915Y-64199581D01*
X163003855Y-64200000D01*
X163006443Y-64217999D01*
X163024336Y-64342456D01*
X163075819Y-64455185D01*
X163084125Y-64473373D01*
X163178374Y-64582143D01*
X163299449Y-64659953D01*
X163299452Y-64659954D01*
X163299451Y-64659954D01*
X163386176Y-64685418D01*
X163435838Y-64700000D01*
X163437538Y-64700499D01*
X163437540Y-64700500D01*
X163437541Y-64700500D01*
X163581464Y-64700500D01*
X163581464Y-64700499D01*
X163719555Y-64659953D01*
X163840630Y-64582143D01*
X163934879Y-64473373D01*
X163994667Y-64342457D01*
X164015149Y-64200000D01*
X163994667Y-64057543D01*
X163934879Y-63926627D01*
X163915287Y-63904016D01*
X163886264Y-63840460D01*
X163885002Y-63822815D01*
X163885002Y-62348132D01*
X163887641Y-62322687D01*
X163887679Y-62322504D01*
X163889869Y-62312061D01*
X163887507Y-62293112D01*
X163885479Y-62276836D01*
X163885002Y-62269160D01*
X163885002Y-62265218D01*
X163885000Y-62265205D01*
X163884943Y-62264866D01*
X163881159Y-62242188D01*
X163874368Y-62187703D01*
X163874366Y-62187699D01*
X163872124Y-62180169D01*
X163869567Y-62172721D01*
X163869567Y-62172719D01*
X163843446Y-62124451D01*
X163819328Y-62075118D01*
X163819326Y-62075116D01*
X163819326Y-62075115D01*
X163814769Y-62068733D01*
X163809917Y-62062498D01*
X163769531Y-62025321D01*
X160615322Y-58871111D01*
X160599195Y-58851252D01*
X160593259Y-58842167D01*
X160593256Y-58842163D01*
X160578296Y-58830519D01*
X160565245Y-58820361D01*
X160559483Y-58815272D01*
X160556688Y-58812477D01*
X160537678Y-58798906D01*
X160536781Y-58798208D01*
X160526457Y-58790172D01*
X160494362Y-58765190D01*
X160487447Y-58761448D01*
X160480373Y-58757990D01*
X160427769Y-58742329D01*
X160375831Y-58724499D01*
X160368096Y-58723208D01*
X160360258Y-58722231D01*
X160305417Y-58724500D01*
X151615408Y-58724500D01*
X151589961Y-58721861D01*
X151587317Y-58721306D01*
X151579333Y-58719632D01*
X151544113Y-58724023D01*
X151536436Y-58724500D01*
X151532490Y-58724500D01*
X151515210Y-58727383D01*
X151509450Y-58728344D01*
X151454972Y-58735135D01*
X151447448Y-58737375D01*
X151439996Y-58739934D01*
X151391723Y-58766057D01*
X151342394Y-58790172D01*
X151336002Y-58794735D01*
X151329778Y-58799580D01*
X151305210Y-58826268D01*
X151292607Y-58839958D01*
X150632333Y-59500233D01*
X149993885Y-60138681D01*
X149932562Y-60172166D01*
X149906204Y-60175000D01*
X149828036Y-60175000D01*
X149689949Y-60215545D01*
X149568873Y-60293356D01*
X149474623Y-60402126D01*
X149474622Y-60402128D01*
X149414834Y-60533043D01*
X149394353Y-60675500D01*
X149414834Y-60817956D01*
X149451537Y-60898323D01*
X149474623Y-60948873D01*
X149568872Y-61057643D01*
X149689947Y-61135453D01*
X149689950Y-61135454D01*
X149689949Y-61135454D01*
X149797107Y-61166917D01*
X149825035Y-61175118D01*
X149828036Y-61175999D01*
X149828038Y-61176000D01*
X149828039Y-61176000D01*
X149971959Y-61176000D01*
X149971961Y-61176000D01*
X149971962Y-61175999D01*
X149978091Y-61175118D01*
X150047250Y-61185058D01*
X150100056Y-61230811D01*
X150119744Y-61297849D01*
X150100062Y-61364890D01*
X150083426Y-61385535D01*
X149980779Y-61488182D01*
X149919459Y-61521666D01*
X149893100Y-61524500D01*
X147849000Y-61524500D01*
X147781961Y-61504815D01*
X147736206Y-61452011D01*
X147725000Y-61400500D01*
X147725000Y-61350000D01*
X146649000Y-61350000D01*
X146581961Y-61330315D01*
X146536206Y-61277511D01*
X146525000Y-61226000D01*
X146525000Y-60974000D01*
X146544685Y-60906961D01*
X146597489Y-60861206D01*
X146649000Y-60850000D01*
X147483372Y-60850000D01*
X147518307Y-60855023D01*
X147549240Y-60864106D01*
X147549241Y-60864106D01*
X147693164Y-60864106D01*
X147693164Y-60864105D01*
X147800323Y-60832641D01*
X147831252Y-60823560D01*
X147831252Y-60823559D01*
X147831255Y-60823559D01*
X147952330Y-60745749D01*
X148046579Y-60636979D01*
X148106367Y-60506063D01*
X148126849Y-60363606D01*
X148106367Y-60221149D01*
X148074335Y-60151011D01*
X148064392Y-60081854D01*
X148093417Y-60018298D01*
X148152195Y-59980523D01*
X148187130Y-59975500D01*
X148622126Y-59975500D01*
X148689165Y-59995185D01*
X148689166Y-59995185D01*
X148789947Y-60059953D01*
X148789948Y-60059953D01*
X148789949Y-60059954D01*
X148928036Y-60100499D01*
X148928038Y-60100500D01*
X148928039Y-60100500D01*
X149071962Y-60100500D01*
X149071962Y-60100499D01*
X149210053Y-60059953D01*
X149331128Y-59982143D01*
X149425377Y-59873373D01*
X149485165Y-59742457D01*
X149505647Y-59600000D01*
X149485165Y-59457543D01*
X149425377Y-59326627D01*
X149331128Y-59217857D01*
X149210053Y-59140047D01*
X149210051Y-59140046D01*
X149210049Y-59140045D01*
X149210050Y-59140045D01*
X149071963Y-59099500D01*
X149071961Y-59099500D01*
X148928039Y-59099500D01*
X148928036Y-59099500D01*
X148789949Y-59140045D01*
X148789948Y-59140046D01*
X148689166Y-59204815D01*
X148622126Y-59224500D01*
X147680163Y-59224500D01*
X147613124Y-59204815D01*
X147586450Y-59181703D01*
X147531128Y-59117857D01*
X147410053Y-59040047D01*
X147410051Y-59040046D01*
X147410049Y-59040045D01*
X147410050Y-59040045D01*
X147271963Y-58999500D01*
X147271961Y-58999500D01*
X147128039Y-58999500D01*
X147128036Y-58999500D01*
X146989949Y-59040045D01*
X146868872Y-59117857D01*
X146868869Y-59117859D01*
X146801427Y-59195691D01*
X146742649Y-59233465D01*
X146672779Y-59233465D01*
X146620034Y-59202169D01*
X146363976Y-58946111D01*
X146347849Y-58926252D01*
X146341913Y-58917167D01*
X146341910Y-58917163D01*
X146313901Y-58895363D01*
X146308137Y-58890272D01*
X146305342Y-58887477D01*
X146287699Y-58874882D01*
X146286331Y-58873905D01*
X146275137Y-58865192D01*
X146243016Y-58840190D01*
X146236101Y-58836448D01*
X146229027Y-58832990D01*
X146176423Y-58817329D01*
X146124485Y-58799499D01*
X146116750Y-58798208D01*
X146108912Y-58797231D01*
X146054071Y-58799500D01*
X139343091Y-58799500D01*
X139337976Y-58799288D01*
X139327024Y-58798380D01*
X139293562Y-58795607D01*
X139250361Y-58806547D01*
X139245346Y-58807599D01*
X139201391Y-58814933D01*
X139201387Y-58814935D01*
X139201024Y-58815132D01*
X139172482Y-58826268D01*
X139172087Y-58826367D01*
X139172077Y-58826372D01*
X139134764Y-58850749D01*
X139130364Y-58853370D01*
X139091178Y-58874578D01*
X139091165Y-58874588D01*
X139090895Y-58874882D01*
X139067509Y-58894690D01*
X139067167Y-58894912D01*
X139067163Y-58894917D01*
X139039794Y-58930079D01*
X139036483Y-58933987D01*
X139006297Y-58966780D01*
X139006292Y-58966787D01*
X139006129Y-58967161D01*
X138990443Y-58993486D01*
X138990193Y-58993806D01*
X138990191Y-58993810D01*
X138975722Y-59035958D01*
X138973859Y-59040732D01*
X138955957Y-59081544D01*
X138955955Y-59081549D01*
X138955922Y-59081956D01*
X138949634Y-59111946D01*
X138949500Y-59112335D01*
X138949500Y-59156908D01*
X138949288Y-59162030D01*
X138945607Y-59206434D01*
X138945607Y-59206437D01*
X138945608Y-59206437D01*
X138945706Y-59206825D01*
X138949500Y-59237263D01*
X138949500Y-64203196D01*
X138946862Y-64228634D01*
X138944633Y-64239268D01*
X138944633Y-64239269D01*
X138944633Y-64239271D01*
X138325500Y-64239271D01*
X138325500Y-58324500D01*
X138345185Y-58257461D01*
X138397989Y-58211706D01*
X138449500Y-58200500D01*
X168250500Y-58200500D01*
X168317539Y-58220185D01*
G37*
G04 #@! TD.AperFunction*
M02*
