G04 #@! TF.GenerationSoftware,KiCad,Pcbnew,7.0.7*
G04 #@! TF.CreationDate,2024-04-01T23:13:17-04:00*
G04 #@! TF.ProjectId,sensor_node,73656e73-6f72-45f6-9e6f-64652e6b6963,rev?*
G04 #@! TF.SameCoordinates,Original*
G04 #@! TF.FileFunction,Copper,L2,Bot*
G04 #@! TF.FilePolarity,Positive*
%FSLAX46Y46*%
G04 Gerber Fmt 4.6, Leading zero omitted, Abs format (unit mm)*
G04 Created by KiCad (PCBNEW 7.0.7) date 2024-04-01 23:13:17*
%MOMM*%
%LPD*%
G01*
G04 APERTURE LIST*
G04 Aperture macros list*
%AMRoundRect*
0 Rectangle with rounded corners*
0 $1 Rounding radius*
0 $2 $3 $4 $5 $6 $7 $8 $9 X,Y pos of 4 corners*
0 Add a 4 corners polygon primitive as box body*
4,1,4,$2,$3,$4,$5,$6,$7,$8,$9,$2,$3,0*
0 Add four circle primitives for the rounded corners*
1,1,$1+$1,$2,$3*
1,1,$1+$1,$4,$5*
1,1,$1+$1,$6,$7*
1,1,$1+$1,$8,$9*
0 Add four rect primitives between the rounded corners*
20,1,$1+$1,$2,$3,$4,$5,0*
20,1,$1+$1,$4,$5,$6,$7,0*
20,1,$1+$1,$6,$7,$8,$9,0*
20,1,$1+$1,$8,$9,$2,$3,0*%
G04 Aperture macros list end*
G04 #@! TA.AperFunction,ComponentPad*
%ADD10R,1.700000X1.700000*%
G04 #@! TD*
G04 #@! TA.AperFunction,ComponentPad*
%ADD11O,1.700000X1.700000*%
G04 #@! TD*
G04 #@! TA.AperFunction,SMDPad,CuDef*
%ADD12RoundRect,0.218750X-0.256250X0.218750X-0.256250X-0.218750X0.256250X-0.218750X0.256250X0.218750X0*%
G04 #@! TD*
G04 #@! TA.AperFunction,SMDPad,CuDef*
%ADD13R,0.600000X1.450000*%
G04 #@! TD*
G04 #@! TA.AperFunction,SMDPad,CuDef*
%ADD14R,0.300000X1.450000*%
G04 #@! TD*
G04 #@! TA.AperFunction,ComponentPad*
%ADD15O,1.000000X1.600000*%
G04 #@! TD*
G04 #@! TA.AperFunction,ComponentPad*
%ADD16O,1.000000X2.100000*%
G04 #@! TD*
G04 #@! TA.AperFunction,SMDPad,CuDef*
%ADD17R,1.050000X0.650000*%
G04 #@! TD*
G04 #@! TA.AperFunction,SMDPad,CuDef*
%ADD18R,1.500000X0.900000*%
G04 #@! TD*
G04 #@! TA.AperFunction,ComponentPad*
%ADD19C,0.400000*%
G04 #@! TD*
G04 #@! TA.AperFunction,SMDPad,CuDef*
%ADD20R,2.890000X2.950000*%
G04 #@! TD*
G04 #@! TA.AperFunction,SMDPad,CuDef*
%ADD21RoundRect,0.218750X0.256250X-0.218750X0.256250X0.218750X-0.256250X0.218750X-0.256250X-0.218750X0*%
G04 #@! TD*
G04 #@! TA.AperFunction,ViaPad*
%ADD22C,0.500000*%
G04 #@! TD*
G04 #@! TA.AperFunction,Conductor*
%ADD23C,0.250000*%
G04 #@! TD*
G04 #@! TA.AperFunction,Conductor*
%ADD24C,0.200000*%
G04 #@! TD*
G04 APERTURE END LIST*
D10*
X166200000Y-60390000D03*
D11*
X166200000Y-62930000D03*
X166200000Y-65470000D03*
X166200000Y-68010000D03*
X166200000Y-70550000D03*
X166200000Y-73090000D03*
X166200000Y-75630000D03*
X166200000Y-78170000D03*
X166200000Y-80710000D03*
D10*
X140500000Y-60350000D03*
D11*
X140500000Y-62890000D03*
X140500000Y-65430000D03*
X140500000Y-67970000D03*
X140500000Y-70510000D03*
X140500000Y-73050000D03*
X140500000Y-75590000D03*
X140500000Y-78130000D03*
X140500000Y-80670000D03*
D12*
X155900000Y-75087500D03*
X155900000Y-76662500D03*
D13*
X152150000Y-75655000D03*
X151350000Y-75655000D03*
D14*
X150150000Y-75655000D03*
X149150000Y-75655000D03*
X148650000Y-75655000D03*
X147650000Y-75655000D03*
D13*
X146450000Y-75655000D03*
X145650000Y-75655000D03*
X145650000Y-75655000D03*
X146450000Y-75655000D03*
D14*
X147150000Y-75655000D03*
X148150000Y-75655000D03*
X149650000Y-75655000D03*
X150650000Y-75655000D03*
D13*
X151350000Y-75655000D03*
X152150000Y-75655000D03*
D15*
X153220000Y-80750000D03*
D16*
X153220000Y-76570000D03*
D15*
X144580000Y-80750000D03*
D16*
X144580000Y-76570000D03*
D17*
X162575000Y-79000000D03*
X158425000Y-79000000D03*
X162575000Y-81150000D03*
X158425000Y-81150000D03*
D18*
X162310000Y-59750000D03*
X162310000Y-61250000D03*
X162310000Y-62750000D03*
X162310000Y-64250000D03*
X162310000Y-65750000D03*
X162310000Y-67250000D03*
X162310000Y-68750000D03*
X162310000Y-70250000D03*
X162310000Y-71750000D03*
X144810000Y-71750000D03*
X144810000Y-70250000D03*
X144810000Y-68750000D03*
X144810000Y-67250000D03*
X144810000Y-65750000D03*
X144810000Y-64250000D03*
X144810000Y-62750000D03*
X144810000Y-61250000D03*
X144810000Y-59750000D03*
D19*
X153700000Y-66500000D03*
X153700000Y-65400000D03*
X153150000Y-67050000D03*
X153150000Y-65950000D03*
X153150000Y-64850000D03*
D20*
X152605000Y-65975000D03*
D19*
X152600000Y-66500000D03*
X152600000Y-65400000D03*
X152050000Y-67050000D03*
X152050000Y-65950000D03*
X152050000Y-64850000D03*
X151500000Y-66500000D03*
X151500000Y-65400000D03*
D21*
X155900000Y-80462500D03*
X155900000Y-78887500D03*
D17*
X158425000Y-76775000D03*
X162575000Y-76775000D03*
X158425000Y-74625000D03*
X162575000Y-74625000D03*
D22*
X159400000Y-62200000D03*
X157800000Y-62200000D03*
X149900000Y-60675500D03*
X147621202Y-60363606D03*
X147200000Y-59500000D03*
X149000000Y-59600000D03*
X150400000Y-77300000D03*
X147200000Y-77300000D03*
X146800000Y-69400000D03*
X158500000Y-63600000D03*
X163509502Y-64200000D03*
X163700000Y-59200000D03*
X155800000Y-70000000D03*
X156700000Y-62000000D03*
X158600000Y-65000000D03*
X150250000Y-72950000D03*
X147100000Y-73100000D03*
X154400000Y-80375000D03*
X160000000Y-60300000D03*
X154500000Y-71400000D03*
X157300000Y-79987500D03*
X154800000Y-78675000D03*
X156925500Y-77475000D03*
X151200000Y-74000000D03*
X157206233Y-72693767D03*
X159854302Y-67977450D03*
X143400000Y-74700000D03*
D23*
X159350000Y-64250000D02*
X162310000Y-64250000D01*
X158600000Y-65000000D02*
X159350000Y-64250000D01*
X159400000Y-62200000D02*
X160350000Y-61250000D01*
X160350000Y-61250000D02*
X162310000Y-61250000D01*
X157600000Y-62000000D02*
X157800000Y-62200000D01*
X156700000Y-62000000D02*
X157600000Y-62000000D01*
X160900000Y-63600000D02*
X161800000Y-62700000D01*
X158500000Y-63600000D02*
X160900000Y-63600000D01*
X161800000Y-62700000D02*
X162260000Y-62700000D01*
X148057596Y-60800000D02*
X147621202Y-60363606D01*
X149775500Y-60800000D02*
X148057596Y-60800000D01*
X149900000Y-60675500D02*
X149775500Y-60800000D01*
X146950000Y-59750000D02*
X144810000Y-59750000D01*
X147200000Y-59500000D02*
X146950000Y-59750000D01*
X160825000Y-58975000D02*
X163475000Y-58975000D01*
X149300000Y-59300000D02*
X160500000Y-59300000D01*
X149000000Y-59600000D02*
X149300000Y-59300000D01*
X160500000Y-59300000D02*
X160825000Y-58975000D01*
X163475000Y-58975000D02*
X163700000Y-59200000D01*
X156700000Y-62000000D02*
X156425000Y-62275000D01*
X156425000Y-62275000D02*
X156425000Y-68075000D01*
X156425000Y-68100000D02*
X156425000Y-73525000D01*
X157100000Y-76836327D02*
X158425000Y-78161327D01*
X158425000Y-78161327D02*
X158425000Y-79000000D01*
X156425000Y-73525000D02*
X157100000Y-74200000D01*
X157100000Y-74200000D02*
X157100000Y-76836327D01*
X145350000Y-62750000D02*
X144810000Y-62750000D01*
X150835000Y-68235000D02*
X145350000Y-62750000D01*
X150835000Y-73635000D02*
X150835000Y-68235000D01*
X151200000Y-74000000D02*
X150835000Y-73635000D01*
X146450000Y-72936827D02*
X146450000Y-75655000D01*
X146450000Y-75655000D02*
X146450000Y-76350000D01*
X146950000Y-69550000D02*
X146950000Y-72525000D01*
X151350000Y-76350000D02*
X151350000Y-75655000D01*
X146450000Y-76350000D02*
X147200000Y-77100000D01*
X146800000Y-69400000D02*
X146950000Y-69550000D01*
X146950000Y-72525000D02*
X146861827Y-72525000D01*
X146861827Y-72525000D02*
X146450000Y-72936827D01*
X150400000Y-77300000D02*
X151350000Y-76350000D01*
X147200000Y-77100000D02*
X147200000Y-77300000D01*
X162310000Y-62750000D02*
X163480000Y-62750000D01*
X162244250Y-62375001D02*
X162294250Y-62425001D01*
X163480000Y-62750000D02*
X166200000Y-65470000D01*
X163509502Y-64200000D02*
X163509502Y-64790498D01*
X163509502Y-64790498D02*
X162550000Y-65750000D01*
X162310000Y-65750000D02*
X163940000Y-65750000D01*
X163940000Y-65750000D02*
X166200000Y-68010000D01*
X155800000Y-70000000D02*
X155800000Y-62000000D01*
X155050000Y-61250000D02*
X144810000Y-61250000D01*
X155800000Y-62000000D02*
X155050000Y-61250000D01*
X165025000Y-69665000D02*
X165025000Y-74455000D01*
X162610000Y-67250000D02*
X165025000Y-69665000D01*
X165025000Y-74455000D02*
X166200000Y-75630000D01*
X158425000Y-79000000D02*
X162575000Y-79000000D01*
X141860000Y-64250000D02*
X144810000Y-64250000D01*
X140500000Y-62890000D02*
X141860000Y-64250000D01*
X142800000Y-75830000D02*
X142800000Y-72035000D01*
X140500000Y-78130000D02*
X142800000Y-75830000D01*
X142800000Y-72035000D02*
X144585000Y-70250000D01*
X144585000Y-70250000D02*
X144810000Y-70250000D01*
X145900000Y-69540000D02*
X145110000Y-68750000D01*
X145900000Y-73200000D02*
X145900000Y-69540000D01*
X145110000Y-68750000D02*
X144810000Y-68750000D01*
X143400000Y-75700000D02*
X145900000Y-73200000D01*
X143400000Y-77770000D02*
X143400000Y-75700000D01*
X140500000Y-80670000D02*
X143400000Y-77770000D01*
X150150000Y-73050000D02*
X150150000Y-75655000D01*
X150250000Y-72950000D02*
X150150000Y-73050000D01*
D24*
X145110000Y-65750000D02*
X149100000Y-69740000D01*
X148150000Y-74680000D02*
X148200000Y-74630000D01*
X148200000Y-74630000D02*
X149100000Y-74630000D01*
X149100000Y-74630000D02*
X149150000Y-74680000D01*
X148150000Y-75655000D02*
X148150000Y-74680000D01*
X149150000Y-74680000D02*
X149150000Y-75655000D01*
X149100000Y-70240000D02*
X149100000Y-74630000D01*
X144810000Y-65750000D02*
X145110000Y-65750000D01*
X149100000Y-69740000D02*
X149100000Y-70240000D01*
X149650000Y-69290000D02*
X149650000Y-75655000D01*
X144510000Y-67250000D02*
X143760000Y-66500000D01*
X144650000Y-67250000D02*
X144810000Y-67250000D01*
X145860000Y-65000000D02*
X149650000Y-68790000D01*
X148650000Y-75655000D02*
X148650000Y-76630000D01*
X149600000Y-76680000D02*
X149650000Y-76630000D01*
X144810000Y-67250000D02*
X144510000Y-67250000D01*
X149650000Y-76630000D02*
X149650000Y-75655000D01*
X143760000Y-65000000D02*
X145860000Y-65000000D01*
X148700000Y-76680000D02*
X149600000Y-76680000D01*
X149650000Y-68790000D02*
X149650000Y-69290000D01*
X143760000Y-66500000D02*
X143760000Y-65000000D01*
X148650000Y-76630000D02*
X148700000Y-76680000D01*
D23*
X147150000Y-73150000D02*
X147100000Y-73100000D01*
X147150000Y-75655000D02*
X147150000Y-73150000D01*
X154225000Y-71675000D02*
X154500000Y-71400000D01*
X160000000Y-60300000D02*
X160550000Y-59750000D01*
X160550000Y-59750000D02*
X162310000Y-59750000D01*
X154225000Y-80200000D02*
X154225000Y-71675000D01*
X154400000Y-80375000D02*
X154225000Y-80200000D01*
X157300000Y-79987500D02*
X155900000Y-79987500D01*
X154800000Y-78675000D02*
X155687500Y-78675000D01*
X155687500Y-78675000D02*
X155900000Y-78887500D01*
X156712500Y-77475000D02*
X155900000Y-76662500D01*
X156925500Y-77475000D02*
X156712500Y-77475000D01*
X167375000Y-76995000D02*
X167375000Y-64105000D01*
X167375000Y-64105000D02*
X166200000Y-62930000D01*
X166200000Y-78170000D02*
X167375000Y-76995000D01*
X158425000Y-72375000D02*
X160550000Y-70250000D01*
X158418767Y-72693767D02*
X158425000Y-72700000D01*
X160550000Y-70250000D02*
X162310000Y-70250000D01*
X157206233Y-72693767D02*
X158418767Y-72693767D01*
X158425000Y-72700000D02*
X158425000Y-72375000D01*
X162575000Y-74625000D02*
X164200000Y-76250000D01*
X158425000Y-74625002D02*
X162575000Y-74625002D01*
X158425000Y-74625000D02*
X158425000Y-72700000D01*
X164200000Y-78710000D02*
X166200000Y-80710000D01*
X164200000Y-76250000D02*
X164200000Y-78710000D01*
X159854302Y-67977450D02*
X159854302Y-68357450D01*
X159854302Y-68357450D02*
X160174302Y-68677450D01*
X160174302Y-68677450D02*
X161934302Y-68677450D01*
X144810000Y-73290000D02*
X144810000Y-71750000D01*
X143400000Y-74700000D02*
X144810000Y-73290000D01*
G04 #@! TA.AperFunction,Conductor*
G36*
X154910140Y-61645185D02*
G01*
X154930782Y-61661819D01*
X155388181Y-62119217D01*
X155421666Y-62180540D01*
X155424500Y-62206898D01*
X155424500Y-69622815D01*
X155404815Y-69689854D01*
X155394215Y-69704016D01*
X155374623Y-69726627D01*
X155374622Y-69726628D01*
X155314834Y-69857543D01*
X155294353Y-70000000D01*
X155314834Y-70142456D01*
X155332671Y-70181512D01*
X155374623Y-70273373D01*
X155468872Y-70382143D01*
X155589947Y-70459953D01*
X155589950Y-70459954D01*
X155589949Y-70459954D01*
X155728036Y-70500499D01*
X155728038Y-70500500D01*
X155728039Y-70500500D01*
X155871962Y-70500500D01*
X155871962Y-70500499D01*
X155890563Y-70495037D01*
X155960432Y-70495036D01*
X156019211Y-70532809D01*
X156048237Y-70596364D01*
X156049500Y-70614014D01*
X156049500Y-73473196D01*
X156046862Y-73498634D01*
X156044633Y-73509268D01*
X156044633Y-73509269D01*
X156044633Y-73509271D01*
X156049023Y-73544491D01*
X156049500Y-73552167D01*
X156049500Y-73556116D01*
X156053342Y-73579141D01*
X156060134Y-73633627D01*
X156062373Y-73641147D01*
X156064934Y-73648608D01*
X156064935Y-73648610D01*
X156091055Y-73696876D01*
X156091055Y-73696877D01*
X156115174Y-73746211D01*
X156119742Y-73752609D01*
X156124582Y-73758827D01*
X156164971Y-73796009D01*
X156308320Y-73939358D01*
X156341805Y-74000681D01*
X156336821Y-74070373D01*
X156294949Y-74126306D01*
X156229485Y-74150723D01*
X156208047Y-74150398D01*
X156204158Y-74150001D01*
X156204138Y-74150000D01*
X156150000Y-74150000D01*
X156150000Y-75213500D01*
X156130315Y-75280539D01*
X156077511Y-75326294D01*
X156026000Y-75337500D01*
X154925001Y-75337500D01*
X154925001Y-75354152D01*
X154935056Y-75452583D01*
X154987906Y-75612072D01*
X154987908Y-75612077D01*
X155076114Y-75755080D01*
X155194919Y-75873885D01*
X155277325Y-75924714D01*
X155324050Y-75976662D01*
X155335271Y-76045625D01*
X155311495Y-76104563D01*
X155227666Y-76216545D01*
X155227662Y-76216552D01*
X155180509Y-76342975D01*
X155174501Y-76398851D01*
X155174500Y-76398870D01*
X155174500Y-76926144D01*
X155180509Y-76982024D01*
X155227662Y-77108447D01*
X155227664Y-77108450D01*
X155308528Y-77216472D01*
X155416549Y-77297335D01*
X155416552Y-77297337D01*
X155542975Y-77344490D01*
X155542978Y-77344491D01*
X155572318Y-77347645D01*
X155598855Y-77350499D01*
X155598870Y-77350500D01*
X156005601Y-77350500D01*
X156072640Y-77370185D01*
X156093282Y-77386819D01*
X156410349Y-77703886D01*
X156426477Y-77723745D01*
X156432416Y-77732836D01*
X156454928Y-77750358D01*
X156460429Y-77754639D01*
X156466191Y-77759728D01*
X156468983Y-77762520D01*
X156487986Y-77776088D01*
X156531311Y-77809809D01*
X156531313Y-77809809D01*
X156538242Y-77813559D01*
X156547399Y-77818036D01*
X156586647Y-77848228D01*
X156594372Y-77857143D01*
X156715447Y-77934953D01*
X156715450Y-77934954D01*
X156715449Y-77934954D01*
X156822607Y-77966417D01*
X156845089Y-77973019D01*
X156853536Y-77975499D01*
X156853538Y-77975500D01*
X156853539Y-77975500D01*
X156997462Y-77975500D01*
X156997462Y-77975499D01*
X157117969Y-77940116D01*
X157135550Y-77934954D01*
X157135550Y-77934953D01*
X157135553Y-77934953D01*
X157256628Y-77857143D01*
X157324071Y-77779308D01*
X157382849Y-77741534D01*
X157452718Y-77741534D01*
X157505465Y-77772830D01*
X157946482Y-78213846D01*
X157979967Y-78275169D01*
X157974983Y-78344860D01*
X157933112Y-78400794D01*
X157880858Y-78421090D01*
X157881300Y-78423311D01*
X157802264Y-78439032D01*
X157802260Y-78439033D01*
X157719399Y-78494399D01*
X157664033Y-78577260D01*
X157664032Y-78577264D01*
X157649500Y-78650321D01*
X157649500Y-79349674D01*
X157655770Y-79381199D01*
X157649541Y-79450790D01*
X157606677Y-79505967D01*
X157540787Y-79529210D01*
X157499218Y-79524365D01*
X157371963Y-79487000D01*
X157371961Y-79487000D01*
X157228039Y-79487000D01*
X157228036Y-79487000D01*
X157089949Y-79527545D01*
X157089948Y-79527546D01*
X156989166Y-79592315D01*
X156922126Y-79612000D01*
X156611536Y-79612000D01*
X156544497Y-79592315D01*
X156498742Y-79539511D01*
X156488798Y-79470353D01*
X156512267Y-79413692D01*
X156572336Y-79333450D01*
X156619491Y-79207022D01*
X156623146Y-79173023D01*
X156625499Y-79151144D01*
X156625500Y-79151129D01*
X156625500Y-78623870D01*
X156625499Y-78623855D01*
X156622645Y-78597318D01*
X156619491Y-78567978D01*
X156572336Y-78441550D01*
X156491472Y-78333528D01*
X156383450Y-78252664D01*
X156383447Y-78252662D01*
X156257024Y-78205509D01*
X156201144Y-78199500D01*
X156201130Y-78199500D01*
X155598870Y-78199500D01*
X155598855Y-78199500D01*
X155542975Y-78205509D01*
X155416553Y-78252662D01*
X155416550Y-78252663D01*
X155416550Y-78252664D01*
X155387022Y-78274768D01*
X155321560Y-78299184D01*
X155312714Y-78299500D01*
X155177874Y-78299500D01*
X155110835Y-78279815D01*
X155110834Y-78279815D01*
X155010051Y-78215046D01*
X155010050Y-78215045D01*
X154871963Y-78174500D01*
X154871961Y-78174500D01*
X154728039Y-78174500D01*
X154724500Y-78174500D01*
X154657461Y-78154815D01*
X154611706Y-78102011D01*
X154600500Y-78050500D01*
X154600500Y-74837500D01*
X154925000Y-74837500D01*
X155650000Y-74837500D01*
X155650000Y-74150000D01*
X155649999Y-74149999D01*
X155595864Y-74150000D01*
X155595847Y-74150001D01*
X155497415Y-74160057D01*
X155337927Y-74212906D01*
X155337922Y-74212908D01*
X155194919Y-74301114D01*
X155076114Y-74419919D01*
X154987908Y-74562922D01*
X154987906Y-74562927D01*
X154935057Y-74722416D01*
X154925000Y-74820849D01*
X154925000Y-74837500D01*
X154600500Y-74837500D01*
X154600500Y-71984945D01*
X154620185Y-71917906D01*
X154672989Y-71872151D01*
X154689554Y-71865971D01*
X154710053Y-71859953D01*
X154831128Y-71782143D01*
X154925377Y-71673373D01*
X154985165Y-71542457D01*
X155005647Y-71400000D01*
X154985165Y-71257543D01*
X154925377Y-71126627D01*
X154831128Y-71017857D01*
X154710053Y-70940047D01*
X154710051Y-70940046D01*
X154710049Y-70940045D01*
X154710050Y-70940045D01*
X154571963Y-70899500D01*
X154571961Y-70899500D01*
X154428039Y-70899500D01*
X154428036Y-70899500D01*
X154289949Y-70940045D01*
X154168873Y-71017856D01*
X154074623Y-71126626D01*
X154074622Y-71126628D01*
X154014835Y-71257541D01*
X154014834Y-71257545D01*
X154005623Y-71321606D01*
X153976597Y-71385161D01*
X153967292Y-71394750D01*
X153945363Y-71422923D01*
X153940286Y-71428674D01*
X153937484Y-71431477D01*
X153937474Y-71431488D01*
X153923905Y-71450495D01*
X153890192Y-71493808D01*
X153886447Y-71500729D01*
X153882988Y-71507804D01*
X153867329Y-71560403D01*
X153849500Y-71612338D01*
X153848206Y-71620092D01*
X153847231Y-71627911D01*
X153849500Y-71682755D01*
X153849500Y-75016016D01*
X153829815Y-75083055D01*
X153777011Y-75128810D01*
X153707853Y-75138754D01*
X153670892Y-75127344D01*
X153569096Y-75077412D01*
X153569095Y-75077411D01*
X153470000Y-75051753D01*
X153470000Y-75615021D01*
X153450315Y-75682060D01*
X153397511Y-75727815D01*
X153328353Y-75737759D01*
X153312066Y-75734287D01*
X153248162Y-75716105D01*
X153248162Y-75716104D01*
X153136475Y-75726454D01*
X153127931Y-75728885D01*
X153058064Y-75728297D01*
X152999606Y-75690028D01*
X152971118Y-75626230D01*
X152970000Y-75609618D01*
X152970000Y-75030791D01*
X152955184Y-75007969D01*
X152950000Y-74972488D01*
X152950000Y-74882172D01*
X152949999Y-74882155D01*
X152943598Y-74822627D01*
X152943596Y-74822620D01*
X152893354Y-74687913D01*
X152893350Y-74687906D01*
X152807190Y-74572812D01*
X152807187Y-74572809D01*
X152692093Y-74486649D01*
X152692086Y-74486645D01*
X152557379Y-74436403D01*
X152557372Y-74436401D01*
X152497844Y-74430000D01*
X152400000Y-74430000D01*
X152400000Y-75781000D01*
X152380315Y-75848039D01*
X152327511Y-75893794D01*
X152276000Y-75905000D01*
X152024500Y-75905000D01*
X151957461Y-75885315D01*
X151911706Y-75832511D01*
X151900500Y-75781000D01*
X151900500Y-74905323D01*
X151900299Y-74903282D01*
X151900000Y-74897202D01*
X151900000Y-74430000D01*
X151802172Y-74430000D01*
X151757534Y-74434799D01*
X151688774Y-74422393D01*
X151637637Y-74374782D01*
X151620358Y-74307083D01*
X151631484Y-74260000D01*
X151685165Y-74142457D01*
X151705647Y-74000000D01*
X151685165Y-73857543D01*
X151625377Y-73726627D01*
X151531128Y-73617857D01*
X151410053Y-73540047D01*
X151410050Y-73540045D01*
X151299565Y-73507604D01*
X151240787Y-73469829D01*
X151211762Y-73406274D01*
X151210500Y-73388627D01*
X151210500Y-68286803D01*
X151213139Y-68261358D01*
X151215239Y-68251340D01*
X151215367Y-68250731D01*
X151212716Y-68229461D01*
X151210977Y-68215508D01*
X151210500Y-68207832D01*
X151210500Y-68203889D01*
X151210499Y-68203883D01*
X151210228Y-68202260D01*
X151206655Y-68180847D01*
X151199865Y-68126374D01*
X151199865Y-68126373D01*
X151197620Y-68118835D01*
X151196049Y-68114258D01*
X151195805Y-68108862D01*
X151193374Y-68101257D01*
X151193349Y-68101106D01*
X151195440Y-68100759D01*
X151192902Y-68044459D01*
X151227991Y-67984040D01*
X151290175Y-67952182D01*
X151313332Y-67950000D01*
X152355000Y-67950000D01*
X152355000Y-67027841D01*
X152342482Y-67022656D01*
X152320147Y-67034851D01*
X152250456Y-67029864D01*
X152194524Y-66987990D01*
X152186406Y-66975681D01*
X152184484Y-66972352D01*
X152127647Y-66915515D01*
X152124316Y-66913592D01*
X152076100Y-66863025D01*
X152062876Y-66794418D01*
X152088844Y-66729553D01*
X152098634Y-66718522D01*
X152267634Y-66549525D01*
X152268472Y-66548685D01*
X152329776Y-66515165D01*
X152399470Y-66520109D01*
X152455428Y-66561948D01*
X152463590Y-66574314D01*
X152465513Y-66577645D01*
X152522353Y-66634485D01*
X152522354Y-66634485D01*
X152522355Y-66634486D01*
X152580254Y-66650000D01*
X152580256Y-66650000D01*
X152619744Y-66650000D01*
X152619746Y-66650000D01*
X152677645Y-66634486D01*
X152734486Y-66577646D01*
X152734487Y-66577640D01*
X152736407Y-66574317D01*
X152786974Y-66526101D01*
X152855581Y-66512877D01*
X152920446Y-66538845D01*
X152931476Y-66548635D01*
X152932341Y-66549500D01*
X153101365Y-66718522D01*
X153134850Y-66779846D01*
X153129866Y-66849537D01*
X153087995Y-66905471D01*
X153075689Y-66913588D01*
X153072359Y-66915510D01*
X153015510Y-66972358D01*
X153013587Y-66975690D01*
X152963017Y-67023902D01*
X152894410Y-67037121D01*
X152875256Y-67029451D01*
X152855000Y-67037842D01*
X152855000Y-67950000D01*
X154097828Y-67950000D01*
X154097844Y-67949999D01*
X154157372Y-67943598D01*
X154157379Y-67943596D01*
X154292086Y-67893354D01*
X154292093Y-67893350D01*
X154407187Y-67807190D01*
X154407190Y-67807187D01*
X154493350Y-67692093D01*
X154493354Y-67692086D01*
X154543596Y-67557379D01*
X154543598Y-67557372D01*
X154549999Y-67497844D01*
X154550000Y-67497827D01*
X154550000Y-66225000D01*
X153707843Y-66225000D01*
X153680470Y-66291083D01*
X153679866Y-66299538D01*
X153637994Y-66355471D01*
X153625689Y-66363588D01*
X153622359Y-66365510D01*
X153565510Y-66422358D01*
X153563585Y-66425693D01*
X153513014Y-66473904D01*
X153444406Y-66487122D01*
X153379544Y-66461149D01*
X153368521Y-66451365D01*
X153214898Y-66297740D01*
X153198634Y-66281476D01*
X153165149Y-66220153D01*
X153170133Y-66150461D01*
X153212005Y-66094528D01*
X153224318Y-66086406D01*
X153227639Y-66084487D01*
X153227645Y-66084486D01*
X153284486Y-66027646D01*
X153305291Y-65950000D01*
X153284486Y-65872355D01*
X153284486Y-65872354D01*
X153227647Y-65815515D01*
X153224316Y-65813592D01*
X153176100Y-65763025D01*
X153162876Y-65694418D01*
X153188844Y-65629553D01*
X153198634Y-65618522D01*
X153357204Y-65459954D01*
X153368519Y-65448639D01*
X153429841Y-65415151D01*
X153499532Y-65420132D01*
X153555468Y-65462001D01*
X153563590Y-65474314D01*
X153565513Y-65477645D01*
X153622352Y-65534484D01*
X153625681Y-65536406D01*
X153673898Y-65586972D01*
X153687123Y-65655579D01*
X153661156Y-65720444D01*
X153657610Y-65724438D01*
X153657843Y-65725000D01*
X154550000Y-65725000D01*
X154550000Y-64452172D01*
X154549999Y-64452155D01*
X154543598Y-64392627D01*
X154543596Y-64392620D01*
X154493354Y-64257913D01*
X154493350Y-64257906D01*
X154407190Y-64142812D01*
X154407187Y-64142809D01*
X154292093Y-64056649D01*
X154292086Y-64056645D01*
X154157379Y-64006403D01*
X154157372Y-64006401D01*
X154097844Y-64000000D01*
X152855000Y-64000000D01*
X152855000Y-64862156D01*
X152872243Y-64869299D01*
X152879843Y-64865149D01*
X152949535Y-64870132D01*
X153005469Y-64912002D01*
X153013592Y-64924316D01*
X153015515Y-64927647D01*
X153072352Y-64984484D01*
X153075681Y-64986406D01*
X153123898Y-65036972D01*
X153137123Y-65105579D01*
X153111156Y-65170444D01*
X153101367Y-65181474D01*
X153080583Y-65202259D01*
X152931476Y-65351366D01*
X152870153Y-65384850D01*
X152800461Y-65379866D01*
X152744528Y-65337994D01*
X152736406Y-65325681D01*
X152734484Y-65322352D01*
X152677646Y-65265514D01*
X152640164Y-65255471D01*
X152619746Y-65250000D01*
X152580254Y-65250000D01*
X152522356Y-65265513D01*
X152465510Y-65322358D01*
X152463585Y-65325693D01*
X152413014Y-65373904D01*
X152344406Y-65387122D01*
X152279544Y-65361149D01*
X152268521Y-65351365D01*
X152119418Y-65202260D01*
X152098634Y-65181476D01*
X152065149Y-65120153D01*
X152070133Y-65050461D01*
X152112005Y-64994528D01*
X152124318Y-64986406D01*
X152127639Y-64984487D01*
X152127645Y-64984486D01*
X152184486Y-64927646D01*
X152184487Y-64927639D01*
X152186406Y-64924318D01*
X152236971Y-64876101D01*
X152305578Y-64862876D01*
X152342105Y-64877497D01*
X152355000Y-64872156D01*
X152355000Y-64000000D01*
X151112155Y-64000000D01*
X151052627Y-64006401D01*
X151052620Y-64006403D01*
X150917913Y-64056645D01*
X150917906Y-64056649D01*
X150802812Y-64142809D01*
X150802809Y-64142812D01*
X150716649Y-64257906D01*
X150716645Y-64257913D01*
X150666403Y-64392620D01*
X150666401Y-64392627D01*
X150660000Y-64452155D01*
X150660000Y-65725000D01*
X151542157Y-65725000D01*
X151543425Y-65721937D01*
X151515149Y-65670153D01*
X151520133Y-65600461D01*
X151562005Y-65544528D01*
X151574318Y-65536406D01*
X151577639Y-65534487D01*
X151577645Y-65534486D01*
X151634486Y-65477646D01*
X151634487Y-65477639D01*
X151636406Y-65474318D01*
X151686971Y-65426101D01*
X151755578Y-65412876D01*
X151820444Y-65438842D01*
X151831476Y-65448634D01*
X152001365Y-65618523D01*
X152034850Y-65679846D01*
X152029866Y-65749538D01*
X151987994Y-65805471D01*
X151975689Y-65813588D01*
X151972359Y-65815510D01*
X151915513Y-65872355D01*
X151894709Y-65949999D01*
X151894709Y-65950000D01*
X151915513Y-66027645D01*
X151972352Y-66084484D01*
X151975681Y-66086406D01*
X152023898Y-66136972D01*
X152037123Y-66205579D01*
X152011156Y-66270444D01*
X152001368Y-66281474D01*
X151985103Y-66297739D01*
X151831476Y-66451365D01*
X151770152Y-66484849D01*
X151700461Y-66479864D01*
X151644527Y-66437993D01*
X151636408Y-66425683D01*
X151634486Y-66422354D01*
X151577647Y-66365515D01*
X151574316Y-66363592D01*
X151526100Y-66313025D01*
X151523886Y-66301538D01*
X151523864Y-66301548D01*
X151492157Y-66225000D01*
X150660000Y-66225000D01*
X150660000Y-67229599D01*
X150640315Y-67296638D01*
X150587511Y-67342393D01*
X150518353Y-67352337D01*
X150454797Y-67323312D01*
X150448319Y-67317280D01*
X145846819Y-62715780D01*
X145813334Y-62654457D01*
X145810500Y-62628099D01*
X145810500Y-62275323D01*
X145810499Y-62275321D01*
X145795967Y-62202264D01*
X145795966Y-62202260D01*
X145781453Y-62180540D01*
X145740601Y-62119399D01*
X145716209Y-62103101D01*
X145671405Y-62049491D01*
X145662698Y-61980166D01*
X145692852Y-61917138D01*
X145716210Y-61896898D01*
X145740601Y-61880601D01*
X145795966Y-61797740D01*
X145807442Y-61740047D01*
X145810374Y-61725309D01*
X145842759Y-61663398D01*
X145903474Y-61628824D01*
X145931991Y-61625500D01*
X154843101Y-61625500D01*
X154910140Y-61645185D01*
G37*
G04 #@! TD.AperFunction*
G04 #@! TA.AperFunction,Conductor*
G36*
X145993834Y-73739716D02*
G01*
X146049767Y-73781588D01*
X146074184Y-73847052D01*
X146074500Y-73855898D01*
X146074500Y-74306000D01*
X146054815Y-74373039D01*
X146002011Y-74418794D01*
X145950500Y-74430000D01*
X145900000Y-74430000D01*
X145900000Y-74897202D01*
X145899701Y-74903282D01*
X145899500Y-74905323D01*
X145899500Y-75781000D01*
X145879815Y-75848039D01*
X145827011Y-75893794D01*
X145775500Y-75905000D01*
X144934000Y-75905000D01*
X144866961Y-75885315D01*
X144821206Y-75832511D01*
X144810000Y-75781000D01*
X144810000Y-75529000D01*
X144829685Y-75461961D01*
X144882489Y-75416206D01*
X144934000Y-75405000D01*
X145400000Y-75405000D01*
X145400000Y-74430000D01*
X145388199Y-74418199D01*
X145354714Y-74356876D01*
X145359698Y-74287184D01*
X145388197Y-74242839D01*
X145862821Y-73768215D01*
X145924142Y-73734732D01*
X145993834Y-73739716D01*
G37*
G04 #@! TD.AperFunction*
G04 #@! TA.AperFunction,Conductor*
G36*
X151820446Y-66538845D02*
G01*
X151831476Y-66548635D01*
X151832341Y-66549500D01*
X152001365Y-66718522D01*
X152034850Y-66779846D01*
X152029866Y-66849537D01*
X151987995Y-66905471D01*
X151975689Y-66913588D01*
X151972359Y-66915510D01*
X151915512Y-66972356D01*
X151913589Y-66975688D01*
X151863020Y-67023902D01*
X151794413Y-67037122D01*
X151729549Y-67011152D01*
X151718523Y-67001365D01*
X151548634Y-66831476D01*
X151515149Y-66770153D01*
X151520133Y-66700461D01*
X151562005Y-66644528D01*
X151574318Y-66636406D01*
X151577639Y-66634487D01*
X151577645Y-66634486D01*
X151634486Y-66577646D01*
X151634487Y-66577640D01*
X151636407Y-66574317D01*
X151686974Y-66526101D01*
X151755581Y-66512877D01*
X151820446Y-66538845D01*
G37*
G04 #@! TD.AperFunction*
G04 #@! TA.AperFunction,Conductor*
G36*
X153499470Y-66520109D02*
G01*
X153555428Y-66561948D01*
X153563590Y-66574314D01*
X153565513Y-66577645D01*
X153622352Y-66634484D01*
X153625681Y-66636406D01*
X153673898Y-66686972D01*
X153687123Y-66755579D01*
X153661156Y-66820444D01*
X153651366Y-66831475D01*
X153613342Y-66869500D01*
X153481476Y-67001365D01*
X153420152Y-67034849D01*
X153350461Y-67029864D01*
X153294527Y-66987993D01*
X153286408Y-66975683D01*
X153284486Y-66972354D01*
X153227647Y-66915515D01*
X153224316Y-66913592D01*
X153176100Y-66863025D01*
X153162876Y-66794418D01*
X153188844Y-66729553D01*
X153198634Y-66718522D01*
X153367634Y-66549525D01*
X153368472Y-66548685D01*
X153429776Y-66515165D01*
X153499470Y-66520109D01*
G37*
G04 #@! TD.AperFunction*
G04 #@! TA.AperFunction,Conductor*
G36*
X152920444Y-65438842D02*
G01*
X152931476Y-65448634D01*
X153101365Y-65618523D01*
X153134850Y-65679846D01*
X153129866Y-65749538D01*
X153087994Y-65805471D01*
X153075689Y-65813588D01*
X153072359Y-65815510D01*
X153015513Y-65872355D01*
X152994709Y-65949999D01*
X152994709Y-65950000D01*
X153015513Y-66027645D01*
X153072352Y-66084484D01*
X153075681Y-66086406D01*
X153123898Y-66136972D01*
X153137123Y-66205579D01*
X153111156Y-66270444D01*
X153101368Y-66281474D01*
X153085103Y-66297739D01*
X152931476Y-66451365D01*
X152870152Y-66484849D01*
X152800461Y-66479864D01*
X152744527Y-66437993D01*
X152736408Y-66425683D01*
X152734486Y-66422354D01*
X152677646Y-66365514D01*
X152640164Y-66355471D01*
X152619746Y-66350000D01*
X152580254Y-66350000D01*
X152522356Y-66365513D01*
X152465512Y-66422356D01*
X152463589Y-66425688D01*
X152413020Y-66473902D01*
X152344413Y-66487122D01*
X152279549Y-66461152D01*
X152268523Y-66451365D01*
X152098634Y-66281476D01*
X152065149Y-66220153D01*
X152070133Y-66150461D01*
X152112005Y-66094528D01*
X152124318Y-66086406D01*
X152127639Y-66084487D01*
X152127645Y-66084486D01*
X152184486Y-66027646D01*
X152205291Y-65950000D01*
X152184486Y-65872355D01*
X152184486Y-65872354D01*
X152127647Y-65815515D01*
X152124316Y-65813592D01*
X152076100Y-65763025D01*
X152062876Y-65694418D01*
X152088844Y-65629553D01*
X152098634Y-65618522D01*
X152257204Y-65459954D01*
X152268519Y-65448639D01*
X152329841Y-65415151D01*
X152399532Y-65420132D01*
X152455468Y-65462001D01*
X152463590Y-65474314D01*
X152465513Y-65477645D01*
X152522353Y-65534485D01*
X152522354Y-65534485D01*
X152522355Y-65534486D01*
X152580254Y-65550000D01*
X152580256Y-65550000D01*
X152619744Y-65550000D01*
X152619746Y-65550000D01*
X152677645Y-65534486D01*
X152734486Y-65477646D01*
X152734487Y-65477639D01*
X152736406Y-65474318D01*
X152786971Y-65426101D01*
X152855578Y-65412876D01*
X152920444Y-65438842D01*
G37*
G04 #@! TD.AperFunction*
G04 #@! TA.AperFunction,Conductor*
G36*
X153470444Y-64888842D02*
G01*
X153481476Y-64898634D01*
X153651365Y-65068523D01*
X153684850Y-65129846D01*
X153679866Y-65199538D01*
X153637994Y-65255471D01*
X153625689Y-65263588D01*
X153622359Y-65265510D01*
X153565510Y-65322358D01*
X153563585Y-65325693D01*
X153513014Y-65373904D01*
X153444406Y-65387122D01*
X153379544Y-65361149D01*
X153368521Y-65351365D01*
X153219418Y-65202260D01*
X153198634Y-65181476D01*
X153165149Y-65120153D01*
X153170133Y-65050461D01*
X153212005Y-64994528D01*
X153224318Y-64986406D01*
X153227639Y-64984487D01*
X153227645Y-64984486D01*
X153284486Y-64927646D01*
X153284487Y-64927639D01*
X153286406Y-64924318D01*
X153336971Y-64876101D01*
X153405578Y-64862876D01*
X153470444Y-64888842D01*
G37*
G04 #@! TD.AperFunction*
G04 #@! TA.AperFunction,Conductor*
G36*
X151849529Y-64870130D02*
G01*
X151905465Y-64911997D01*
X151913592Y-64924316D01*
X151915515Y-64927647D01*
X151972352Y-64984484D01*
X151975681Y-64986406D01*
X152023898Y-65036972D01*
X152037123Y-65105579D01*
X152011156Y-65170444D01*
X152001367Y-65181474D01*
X151980583Y-65202259D01*
X151831476Y-65351366D01*
X151770153Y-65384850D01*
X151700461Y-65379866D01*
X151644528Y-65337994D01*
X151636406Y-65325681D01*
X151634484Y-65322352D01*
X151577647Y-65265515D01*
X151574316Y-65263592D01*
X151526100Y-65213025D01*
X151512876Y-65144418D01*
X151538844Y-65079553D01*
X151548634Y-65068522D01*
X151712060Y-64905097D01*
X151718516Y-64898641D01*
X151779837Y-64865151D01*
X151849529Y-64870130D01*
G37*
G04 #@! TD.AperFunction*
G04 #@! TA.AperFunction,Conductor*
G36*
X168317539Y-58220185D02*
G01*
X168363294Y-58272989D01*
X168374500Y-58324500D01*
X168374500Y-82775500D01*
X168354815Y-82842539D01*
X168302011Y-82888294D01*
X168250500Y-82899500D01*
X138449500Y-82899500D01*
X138382461Y-82879815D01*
X138336706Y-82827011D01*
X138325500Y-82775500D01*
X138325500Y-80670000D01*
X139394785Y-80670000D01*
X139413602Y-80873082D01*
X139469417Y-81069247D01*
X139469422Y-81069260D01*
X139560327Y-81251821D01*
X139683237Y-81414581D01*
X139833958Y-81551980D01*
X139833960Y-81551982D01*
X139898560Y-81591980D01*
X140007363Y-81659348D01*
X140197544Y-81733024D01*
X140398024Y-81770500D01*
X140398026Y-81770500D01*
X140601974Y-81770500D01*
X140601976Y-81770500D01*
X140802456Y-81733024D01*
X140992637Y-81659348D01*
X141166041Y-81551981D01*
X141316764Y-81414579D01*
X141439673Y-81251821D01*
X141514915Y-81100713D01*
X143580000Y-81100713D01*
X143595418Y-81252338D01*
X143656299Y-81446381D01*
X143656304Y-81446391D01*
X143755005Y-81624215D01*
X143755005Y-81624216D01*
X143887478Y-81778530D01*
X143887479Y-81778531D01*
X144048304Y-81903018D01*
X144230907Y-81992589D01*
X144330000Y-82018244D01*
X144330000Y-81454978D01*
X144349685Y-81387939D01*
X144402489Y-81342184D01*
X144471647Y-81332240D01*
X144487926Y-81335709D01*
X144551840Y-81353895D01*
X144663521Y-81343546D01*
X144663526Y-81343543D01*
X144672063Y-81341115D01*
X144741930Y-81341701D01*
X144800390Y-81379966D01*
X144828881Y-81443763D01*
X144830000Y-81460381D01*
X144830000Y-82023366D01*
X144831944Y-82023069D01*
X144831945Y-82023069D01*
X145022660Y-81952436D01*
X145022664Y-81952434D01*
X145195267Y-81844850D01*
X145342668Y-81704735D01*
X145342669Y-81704733D01*
X145458856Y-81537804D01*
X145539059Y-81350907D01*
X145580000Y-81151690D01*
X145580000Y-81000000D01*
X145004000Y-81000000D01*
X144936961Y-80980315D01*
X144891206Y-80927511D01*
X144880000Y-80876000D01*
X144880000Y-80624000D01*
X144899685Y-80556961D01*
X144952489Y-80511206D01*
X145004000Y-80500000D01*
X145580000Y-80500000D01*
X145580000Y-80399286D01*
X145564581Y-80247661D01*
X145503700Y-80053618D01*
X145503695Y-80053608D01*
X145404994Y-79875784D01*
X145404994Y-79875783D01*
X145272521Y-79721469D01*
X145272520Y-79721468D01*
X145111695Y-79596981D01*
X144929093Y-79507411D01*
X144830000Y-79481753D01*
X144830000Y-80045021D01*
X144810315Y-80112060D01*
X144757511Y-80157815D01*
X144688353Y-80167759D01*
X144672066Y-80164287D01*
X144608162Y-80146105D01*
X144608162Y-80146104D01*
X144496475Y-80156454D01*
X144487931Y-80158885D01*
X144418064Y-80158297D01*
X144359606Y-80120028D01*
X144331118Y-80056230D01*
X144330000Y-80039618D01*
X144330000Y-79476633D01*
X144328053Y-79476931D01*
X144328047Y-79476933D01*
X144137342Y-79547562D01*
X144137335Y-79547565D01*
X143964732Y-79655149D01*
X143817331Y-79795264D01*
X143817330Y-79795266D01*
X143701143Y-79962195D01*
X143620940Y-80149092D01*
X143580000Y-80348309D01*
X143580000Y-80500000D01*
X144156000Y-80500000D01*
X144223039Y-80519685D01*
X144268794Y-80572489D01*
X144280000Y-80624000D01*
X144280000Y-80876000D01*
X144260315Y-80943039D01*
X144207511Y-80988794D01*
X144156000Y-81000000D01*
X143580000Y-81000000D01*
X143580000Y-81100713D01*
X141514915Y-81100713D01*
X141530582Y-81069250D01*
X141586397Y-80873083D01*
X141605215Y-80670000D01*
X141596179Y-80572489D01*
X141586397Y-80466917D01*
X141565627Y-80393920D01*
X141530582Y-80270750D01*
X141530581Y-80270748D01*
X141529013Y-80265237D01*
X141530994Y-80264673D01*
X141525902Y-80204174D01*
X141558614Y-80142435D01*
X141559630Y-80141405D01*
X143628889Y-78072146D01*
X143648746Y-78056022D01*
X143657836Y-78050084D01*
X143679638Y-78022071D01*
X143684733Y-78016303D01*
X143687519Y-78013518D01*
X143687528Y-78013506D01*
X143701086Y-77994516D01*
X143734807Y-77951192D01*
X143738556Y-77944261D01*
X143742007Y-77937202D01*
X143742010Y-77937199D01*
X143742011Y-77937195D01*
X143746514Y-77927987D01*
X143793643Y-77876406D01*
X143861178Y-77858494D01*
X143927676Y-77879937D01*
X143933814Y-77884395D01*
X144048306Y-77973019D01*
X144230907Y-78062589D01*
X144330000Y-78088244D01*
X144330000Y-77524978D01*
X144349685Y-77457939D01*
X144402489Y-77412184D01*
X144471647Y-77402240D01*
X144487926Y-77405709D01*
X144551840Y-77423895D01*
X144663521Y-77413546D01*
X144663526Y-77413543D01*
X144672063Y-77411115D01*
X144741930Y-77411701D01*
X144800390Y-77449966D01*
X144828881Y-77513763D01*
X144830000Y-77530381D01*
X144830000Y-78093365D01*
X144831944Y-78093069D01*
X144831945Y-78093069D01*
X145022660Y-78022436D01*
X145022664Y-78022434D01*
X145195267Y-77914850D01*
X145342668Y-77774735D01*
X145342669Y-77774733D01*
X145458855Y-77607806D01*
X145462234Y-77599931D01*
X145506758Y-77546084D01*
X145573325Y-77524857D01*
X145640801Y-77542988D01*
X145651663Y-77550440D01*
X145719767Y-77602698D01*
X145859764Y-77660687D01*
X145972280Y-77675500D01*
X145972287Y-77675500D01*
X146047713Y-77675500D01*
X146047720Y-77675500D01*
X146160236Y-77660687D01*
X146300233Y-77602698D01*
X146420451Y-77510451D01*
X146499216Y-77407801D01*
X146555642Y-77366602D01*
X146625388Y-77362447D01*
X146686309Y-77396659D01*
X146708977Y-77435382D01*
X146711151Y-77434390D01*
X146714834Y-77442456D01*
X146714835Y-77442457D01*
X146774623Y-77573373D01*
X146868872Y-77682143D01*
X146989947Y-77759953D01*
X146989950Y-77759954D01*
X146989949Y-77759954D01*
X147128036Y-77800499D01*
X147128038Y-77800500D01*
X147128039Y-77800500D01*
X147271962Y-77800500D01*
X147271962Y-77800499D01*
X147393988Y-77764670D01*
X147410050Y-77759954D01*
X147410050Y-77759953D01*
X147410053Y-77759953D01*
X147531128Y-77682143D01*
X147625377Y-77573373D01*
X147685165Y-77442457D01*
X147705647Y-77300000D01*
X147685165Y-77157543D01*
X147625377Y-77026627D01*
X147625375Y-77026625D01*
X147625374Y-77026622D01*
X147536660Y-76924240D01*
X147518973Y-76897500D01*
X147509826Y-76878789D01*
X147509823Y-76878786D01*
X147509823Y-76878785D01*
X147505276Y-76872416D01*
X147500422Y-76866179D01*
X147500419Y-76866174D01*
X147500414Y-76866169D01*
X147500413Y-76866168D01*
X147478212Y-76845730D01*
X147442221Y-76785843D01*
X147444321Y-76716005D01*
X147483844Y-76658389D01*
X147548244Y-76631287D01*
X147562194Y-76630500D01*
X147824674Y-76630500D01*
X147875811Y-76620328D01*
X147924189Y-76620328D01*
X147975326Y-76630500D01*
X148187348Y-76630500D01*
X148254387Y-76650185D01*
X148300142Y-76702989D01*
X148305489Y-76721848D01*
X148306497Y-76721549D01*
X148311520Y-76738426D01*
X148313908Y-76745381D01*
X148338295Y-76790444D01*
X148360801Y-76836483D01*
X148365065Y-76842455D01*
X148369580Y-76848256D01*
X148407275Y-76882958D01*
X148417363Y-76893046D01*
X148433489Y-76912903D01*
X148438561Y-76920667D01*
X148438565Y-76920671D01*
X148464505Y-76940860D01*
X148470268Y-76945950D01*
X148472694Y-76948376D01*
X148490441Y-76961047D01*
X148530874Y-76992517D01*
X148530875Y-76992517D01*
X148530876Y-76992518D01*
X148537318Y-76996004D01*
X148543931Y-76999238D01*
X148543934Y-76999240D01*
X148554877Y-77002498D01*
X148593045Y-77013862D01*
X148638599Y-77029500D01*
X148641512Y-77030500D01*
X148641518Y-77030500D01*
X148648768Y-77031710D01*
X148656046Y-77032617D01*
X148707242Y-77030500D01*
X149550789Y-77030500D01*
X149576234Y-77033138D01*
X149585315Y-77035043D01*
X149601005Y-77033087D01*
X149617939Y-77030977D01*
X149625615Y-77030500D01*
X149629035Y-77030500D01*
X149629040Y-77030500D01*
X149632608Y-77029904D01*
X149650539Y-77026913D01*
X149677958Y-77023494D01*
X149701393Y-77020573D01*
X149701402Y-77020568D01*
X149708451Y-77018470D01*
X149715379Y-77016092D01*
X149715381Y-77016092D01*
X149715383Y-77016091D01*
X149740500Y-77002498D01*
X149808828Y-76987901D01*
X149874201Y-77012562D01*
X149915863Y-77068652D01*
X149920587Y-77138361D01*
X149917040Y-77148950D01*
X149917333Y-77149036D01*
X149914834Y-77157542D01*
X149894353Y-77300000D01*
X149914834Y-77442456D01*
X149962160Y-77546084D01*
X149974623Y-77573373D01*
X150068872Y-77682143D01*
X150189947Y-77759953D01*
X150189950Y-77759954D01*
X150189949Y-77759954D01*
X150328036Y-77800499D01*
X150328038Y-77800500D01*
X150328039Y-77800500D01*
X150471962Y-77800500D01*
X150471962Y-77800499D01*
X150593988Y-77764670D01*
X150610050Y-77759954D01*
X150610050Y-77759953D01*
X150610053Y-77759953D01*
X150731128Y-77682143D01*
X150825377Y-77573373D01*
X150885165Y-77442457D01*
X150895509Y-77370502D01*
X150924533Y-77306949D01*
X150930551Y-77300484D01*
X151025304Y-77205732D01*
X151086624Y-77172249D01*
X151156316Y-77177233D01*
X151212249Y-77219105D01*
X151227543Y-77245962D01*
X151229312Y-77250234D01*
X151229313Y-77250236D01*
X151244963Y-77288019D01*
X151285308Y-77385421D01*
X151287302Y-77390233D01*
X151379549Y-77510451D01*
X151499767Y-77602698D01*
X151639764Y-77660687D01*
X151752280Y-77675500D01*
X151752287Y-77675500D01*
X151827713Y-77675500D01*
X151827720Y-77675500D01*
X151940236Y-77660687D01*
X152080233Y-77602698D01*
X152151256Y-77548199D01*
X152216425Y-77523006D01*
X152284869Y-77537044D01*
X152334859Y-77585858D01*
X152335161Y-77586398D01*
X152395005Y-77694215D01*
X152395005Y-77694216D01*
X152527478Y-77848530D01*
X152527479Y-77848531D01*
X152688304Y-77973018D01*
X152870907Y-78062589D01*
X152970000Y-78088244D01*
X152970000Y-77524978D01*
X152989685Y-77457939D01*
X153042489Y-77412184D01*
X153111647Y-77402240D01*
X153127926Y-77405709D01*
X153191840Y-77423895D01*
X153303521Y-77413546D01*
X153303526Y-77413543D01*
X153312063Y-77411115D01*
X153381930Y-77411701D01*
X153440390Y-77449966D01*
X153468881Y-77513763D01*
X153470000Y-77530381D01*
X153470000Y-78093365D01*
X153471944Y-78093069D01*
X153471945Y-78093069D01*
X153662660Y-78022436D01*
X153668311Y-78019665D01*
X153669239Y-78021558D01*
X153727183Y-78005395D01*
X153793949Y-78025988D01*
X153838983Y-78079408D01*
X153849500Y-78129384D01*
X153849500Y-79446016D01*
X153829815Y-79513055D01*
X153777011Y-79558810D01*
X153707853Y-79568754D01*
X153670892Y-79557344D01*
X153569096Y-79507412D01*
X153569095Y-79507411D01*
X153470000Y-79481753D01*
X153470000Y-80045021D01*
X153450315Y-80112060D01*
X153397511Y-80157815D01*
X153328353Y-80167759D01*
X153312066Y-80164287D01*
X153248162Y-80146105D01*
X153248162Y-80146104D01*
X153136475Y-80156454D01*
X153127931Y-80158885D01*
X153058064Y-80158297D01*
X152999606Y-80120028D01*
X152971118Y-80056230D01*
X152970000Y-80039618D01*
X152970000Y-79476633D01*
X152968053Y-79476931D01*
X152968047Y-79476933D01*
X152777342Y-79547562D01*
X152777335Y-79547565D01*
X152604732Y-79655149D01*
X152457331Y-79795264D01*
X152457330Y-79795266D01*
X152341143Y-79962195D01*
X152260940Y-80149092D01*
X152220000Y-80348309D01*
X152220000Y-80500000D01*
X152796000Y-80500000D01*
X152863039Y-80519685D01*
X152908794Y-80572489D01*
X152920000Y-80624000D01*
X152920000Y-80876000D01*
X152900315Y-80943039D01*
X152847511Y-80988794D01*
X152796000Y-81000000D01*
X152220000Y-81000000D01*
X152220000Y-81100713D01*
X152235418Y-81252338D01*
X152296299Y-81446381D01*
X152296304Y-81446391D01*
X152395005Y-81624215D01*
X152395005Y-81624216D01*
X152527478Y-81778530D01*
X152527479Y-81778531D01*
X152688304Y-81903018D01*
X152870907Y-81992589D01*
X152970000Y-82018244D01*
X152970000Y-81454978D01*
X152989685Y-81387939D01*
X153042489Y-81342184D01*
X153111647Y-81332240D01*
X153127926Y-81335709D01*
X153191840Y-81353895D01*
X153303521Y-81343546D01*
X153303526Y-81343543D01*
X153312063Y-81341115D01*
X153381930Y-81341701D01*
X153440390Y-81379966D01*
X153468881Y-81443763D01*
X153470000Y-81460381D01*
X153470000Y-82023366D01*
X153471944Y-82023069D01*
X153471945Y-82023069D01*
X153662660Y-81952436D01*
X153662664Y-81952434D01*
X153835267Y-81844850D01*
X153982668Y-81704735D01*
X153982669Y-81704733D01*
X154098856Y-81537804D01*
X154157992Y-81400000D01*
X157400000Y-81400000D01*
X157400000Y-81522844D01*
X157406401Y-81582372D01*
X157406403Y-81582379D01*
X157456645Y-81717086D01*
X157456649Y-81717093D01*
X157542809Y-81832187D01*
X157542812Y-81832190D01*
X157657906Y-81918350D01*
X157657913Y-81918354D01*
X157792620Y-81968596D01*
X157792627Y-81968598D01*
X157852155Y-81974999D01*
X157852172Y-81975000D01*
X158175000Y-81975000D01*
X158175000Y-81400000D01*
X158675000Y-81400000D01*
X158675000Y-81975000D01*
X158997828Y-81975000D01*
X158997844Y-81974999D01*
X159057372Y-81968598D01*
X159057379Y-81968596D01*
X159192086Y-81918354D01*
X159192093Y-81918350D01*
X159307187Y-81832190D01*
X159307190Y-81832187D01*
X159393350Y-81717093D01*
X159393354Y-81717086D01*
X159443596Y-81582379D01*
X159443598Y-81582372D01*
X159449999Y-81522844D01*
X159450000Y-81522827D01*
X159450000Y-81400000D01*
X161550000Y-81400000D01*
X161550000Y-81522844D01*
X161556401Y-81582372D01*
X161556403Y-81582379D01*
X161606645Y-81717086D01*
X161606649Y-81717093D01*
X161692809Y-81832187D01*
X161692812Y-81832190D01*
X161807906Y-81918350D01*
X161807913Y-81918354D01*
X161942620Y-81968596D01*
X161942627Y-81968598D01*
X162002155Y-81974999D01*
X162002172Y-81975000D01*
X162325000Y-81975000D01*
X162325000Y-81400000D01*
X162825000Y-81400000D01*
X162825000Y-81975000D01*
X163147828Y-81975000D01*
X163147844Y-81974999D01*
X163207372Y-81968598D01*
X163207379Y-81968596D01*
X163342086Y-81918354D01*
X163342093Y-81918350D01*
X163457187Y-81832190D01*
X163457190Y-81832187D01*
X163543350Y-81717093D01*
X163543354Y-81717086D01*
X163593596Y-81582379D01*
X163593598Y-81582372D01*
X163599999Y-81522844D01*
X163600000Y-81522827D01*
X163600000Y-81400000D01*
X162825000Y-81400000D01*
X162325000Y-81400000D01*
X161550000Y-81400000D01*
X159450000Y-81400000D01*
X158675000Y-81400000D01*
X158175000Y-81400000D01*
X157400000Y-81400000D01*
X154157992Y-81400000D01*
X154179059Y-81350907D01*
X154220000Y-81151690D01*
X154220000Y-80999500D01*
X154239685Y-80932461D01*
X154292489Y-80886706D01*
X154344000Y-80875500D01*
X154471962Y-80875500D01*
X154471962Y-80875499D01*
X154610053Y-80834953D01*
X154731128Y-80757143D01*
X154825377Y-80648373D01*
X154885165Y-80517457D01*
X154905647Y-80375000D01*
X154885165Y-80232543D01*
X154825377Y-80101627D01*
X154731128Y-79992857D01*
X154731125Y-79992855D01*
X154731126Y-79992855D01*
X154657460Y-79945513D01*
X154611706Y-79892709D01*
X154600500Y-79841198D01*
X154600500Y-79299500D01*
X154620185Y-79232461D01*
X154672989Y-79186706D01*
X154724500Y-79175500D01*
X154871962Y-79175500D01*
X154871962Y-79175499D01*
X155010053Y-79134953D01*
X155010057Y-79134950D01*
X155011575Y-79134258D01*
X155013236Y-79134019D01*
X155018563Y-79132455D01*
X155018787Y-79133220D01*
X155080733Y-79124310D01*
X155144290Y-79153331D01*
X155179275Y-79203715D01*
X155227663Y-79333449D01*
X155227664Y-79333450D01*
X155308528Y-79441472D01*
X155396614Y-79507412D01*
X155416549Y-79522335D01*
X155416552Y-79522337D01*
X155514362Y-79558818D01*
X155570296Y-79600689D01*
X155594713Y-79666153D01*
X155579861Y-79734426D01*
X155530456Y-79783832D01*
X155514362Y-79791182D01*
X155416552Y-79827662D01*
X155416549Y-79827664D01*
X155308528Y-79908528D01*
X155227664Y-80016549D01*
X155227662Y-80016552D01*
X155180509Y-80142975D01*
X155174500Y-80198855D01*
X155174500Y-80726144D01*
X155180509Y-80782024D01*
X155227662Y-80908447D01*
X155227664Y-80908450D01*
X155308528Y-81016472D01*
X155379045Y-81069260D01*
X155416549Y-81097335D01*
X155416552Y-81097337D01*
X155542975Y-81144490D01*
X155542978Y-81144491D01*
X155572318Y-81147645D01*
X155598855Y-81150499D01*
X155598870Y-81150500D01*
X156201130Y-81150500D01*
X156201144Y-81150499D01*
X156223023Y-81148146D01*
X156257022Y-81144491D01*
X156383450Y-81097336D01*
X156491472Y-81016472D01*
X156572336Y-80908450D01*
X156619491Y-80782022D01*
X156623146Y-80748023D01*
X156625499Y-80726144D01*
X156625500Y-80726129D01*
X156625500Y-80487000D01*
X156645185Y-80419961D01*
X156697989Y-80374206D01*
X156749500Y-80363000D01*
X156922126Y-80363000D01*
X156989165Y-80382685D01*
X156989166Y-80382685D01*
X157089947Y-80447453D01*
X157089948Y-80447453D01*
X157089949Y-80447454D01*
X157159284Y-80467812D01*
X157224633Y-80487000D01*
X157228036Y-80487999D01*
X157228038Y-80488000D01*
X157313453Y-80488000D01*
X157380492Y-80507685D01*
X157426247Y-80560489D01*
X157436191Y-80629647D01*
X157429635Y-80655333D01*
X157406403Y-80717620D01*
X157406401Y-80717627D01*
X157400000Y-80777155D01*
X157400000Y-80900000D01*
X158175000Y-80900000D01*
X158175000Y-80325000D01*
X158675000Y-80325000D01*
X158675000Y-80900000D01*
X159450000Y-80900000D01*
X161550000Y-80900000D01*
X162325000Y-80900000D01*
X162325000Y-80325000D01*
X162825000Y-80325000D01*
X162825000Y-80900000D01*
X163600000Y-80900000D01*
X163600000Y-80777172D01*
X163599999Y-80777155D01*
X163593598Y-80717627D01*
X163593596Y-80717620D01*
X163543354Y-80582913D01*
X163543350Y-80582906D01*
X163457190Y-80467812D01*
X163457187Y-80467809D01*
X163342093Y-80381649D01*
X163342086Y-80381645D01*
X163207379Y-80331403D01*
X163207372Y-80331401D01*
X163147844Y-80325000D01*
X162825000Y-80325000D01*
X162325000Y-80325000D01*
X162002155Y-80325000D01*
X161942627Y-80331401D01*
X161942620Y-80331403D01*
X161807913Y-80381645D01*
X161807906Y-80381649D01*
X161692812Y-80467809D01*
X161692809Y-80467812D01*
X161606649Y-80582906D01*
X161606645Y-80582913D01*
X161556403Y-80717620D01*
X161556401Y-80717627D01*
X161550000Y-80777155D01*
X161550000Y-80900000D01*
X159450000Y-80900000D01*
X159450000Y-80777172D01*
X159449999Y-80777155D01*
X159443598Y-80717627D01*
X159443596Y-80717620D01*
X159393354Y-80582913D01*
X159393350Y-80582906D01*
X159307190Y-80467812D01*
X159307187Y-80467809D01*
X159192093Y-80381649D01*
X159192086Y-80381645D01*
X159057379Y-80331403D01*
X159057372Y-80331401D01*
X158997844Y-80325000D01*
X158675000Y-80325000D01*
X158175000Y-80325000D01*
X157889039Y-80325000D01*
X157822000Y-80305315D01*
X157776245Y-80252511D01*
X157766301Y-80183353D01*
X157776243Y-80149492D01*
X157785165Y-80129957D01*
X157805647Y-79987500D01*
X157785165Y-79845043D01*
X157762432Y-79795266D01*
X157741413Y-79749240D01*
X157731469Y-79680081D01*
X157760494Y-79616525D01*
X157819272Y-79578751D01*
X157869100Y-79576532D01*
X157869261Y-79574903D01*
X157875324Y-79575500D01*
X157875326Y-79575500D01*
X158974676Y-79575500D01*
X158974677Y-79575499D01*
X159047740Y-79560966D01*
X159130601Y-79505601D01*
X159173451Y-79441471D01*
X159180709Y-79430609D01*
X159234321Y-79385804D01*
X159283811Y-79375500D01*
X161716189Y-79375500D01*
X161783228Y-79395185D01*
X161819291Y-79430609D01*
X161856970Y-79487000D01*
X161869399Y-79505601D01*
X161880555Y-79513055D01*
X161952260Y-79560966D01*
X161952264Y-79560967D01*
X162025321Y-79575499D01*
X162025324Y-79575500D01*
X162025326Y-79575500D01*
X163124676Y-79575500D01*
X163124677Y-79575499D01*
X163197740Y-79560966D01*
X163280601Y-79505601D01*
X163335966Y-79422740D01*
X163350500Y-79349674D01*
X163350500Y-78650326D01*
X163350500Y-78650323D01*
X163350499Y-78650321D01*
X163335967Y-78577264D01*
X163335966Y-78577260D01*
X163304026Y-78529458D01*
X163280601Y-78494399D01*
X163197740Y-78439034D01*
X163197739Y-78439033D01*
X163197735Y-78439032D01*
X163124677Y-78424500D01*
X163124674Y-78424500D01*
X162025326Y-78424500D01*
X162025323Y-78424500D01*
X161952264Y-78439032D01*
X161952260Y-78439033D01*
X161869398Y-78494399D01*
X161819291Y-78569391D01*
X161765679Y-78614196D01*
X161716189Y-78624500D01*
X159283811Y-78624500D01*
X159216772Y-78604815D01*
X159180709Y-78569391D01*
X159130601Y-78494399D01*
X159047739Y-78439033D01*
X159047735Y-78439032D01*
X158974677Y-78424500D01*
X158974674Y-78424500D01*
X158924500Y-78424500D01*
X158857461Y-78404815D01*
X158811706Y-78352011D01*
X158800500Y-78300500D01*
X158800500Y-78213131D01*
X158803139Y-78187686D01*
X158803785Y-78184602D01*
X158805367Y-78177059D01*
X158803498Y-78162067D01*
X158800977Y-78141833D01*
X158800500Y-78134157D01*
X158800500Y-78130216D01*
X158800498Y-78130203D01*
X158800361Y-78129384D01*
X158796657Y-78107186D01*
X158789866Y-78052701D01*
X158789864Y-78052697D01*
X158787622Y-78045167D01*
X158785065Y-78037719D01*
X158785065Y-78037717D01*
X158758944Y-77989449D01*
X158734826Y-77940116D01*
X158734824Y-77940114D01*
X158734824Y-77940113D01*
X158730276Y-77933743D01*
X158725420Y-77927503D01*
X158725419Y-77927501D01*
X158711676Y-77914850D01*
X158685029Y-77890319D01*
X158606392Y-77811681D01*
X158572907Y-77750358D01*
X158577891Y-77680666D01*
X158619763Y-77624733D01*
X158685227Y-77600316D01*
X158694073Y-77600000D01*
X158997828Y-77600000D01*
X158997844Y-77599999D01*
X159057372Y-77593598D01*
X159057379Y-77593596D01*
X159192086Y-77543354D01*
X159192093Y-77543350D01*
X159307187Y-77457190D01*
X159307190Y-77457187D01*
X159393350Y-77342093D01*
X159393354Y-77342086D01*
X159443596Y-77207379D01*
X159443598Y-77207372D01*
X159449999Y-77147844D01*
X159450000Y-77147827D01*
X159450000Y-77025000D01*
X161550000Y-77025000D01*
X161550000Y-77147844D01*
X161556401Y-77207372D01*
X161556403Y-77207379D01*
X161606645Y-77342086D01*
X161606649Y-77342093D01*
X161692809Y-77457187D01*
X161692812Y-77457190D01*
X161807906Y-77543350D01*
X161807913Y-77543354D01*
X161942620Y-77593596D01*
X161942627Y-77593598D01*
X162002155Y-77599999D01*
X162002172Y-77600000D01*
X162325000Y-77600000D01*
X162325000Y-77025000D01*
X161550000Y-77025000D01*
X159450000Y-77025000D01*
X158299000Y-77025000D01*
X158231961Y-77005315D01*
X158186206Y-76952511D01*
X158175000Y-76901000D01*
X158175000Y-75950000D01*
X158675000Y-75950000D01*
X158675000Y-76525000D01*
X159450000Y-76525000D01*
X161550000Y-76525000D01*
X162325000Y-76525000D01*
X162325000Y-75950000D01*
X162002155Y-75950000D01*
X161942627Y-75956401D01*
X161942620Y-75956403D01*
X161807913Y-76006645D01*
X161807906Y-76006649D01*
X161692812Y-76092809D01*
X161692809Y-76092812D01*
X161606649Y-76207906D01*
X161606645Y-76207913D01*
X161556403Y-76342620D01*
X161556401Y-76342627D01*
X161550000Y-76402155D01*
X161550000Y-76525000D01*
X159450000Y-76525000D01*
X159450000Y-76402172D01*
X159449999Y-76402155D01*
X159443598Y-76342627D01*
X159443596Y-76342620D01*
X159393354Y-76207913D01*
X159393350Y-76207906D01*
X159307190Y-76092812D01*
X159307187Y-76092809D01*
X159192093Y-76006649D01*
X159192086Y-76006645D01*
X159057379Y-75956403D01*
X159057372Y-75956401D01*
X158997844Y-75950000D01*
X158675000Y-75950000D01*
X158175000Y-75950000D01*
X157852155Y-75950000D01*
X157792627Y-75956401D01*
X157792620Y-75956403D01*
X157649601Y-76009746D01*
X157649040Y-76008243D01*
X157590645Y-76020942D01*
X157525183Y-75996521D01*
X157483315Y-75940585D01*
X157475500Y-75897259D01*
X157475500Y-75174352D01*
X157495185Y-75107313D01*
X157547989Y-75061558D01*
X157617147Y-75051614D01*
X157680703Y-75080639D01*
X157702601Y-75105461D01*
X157719399Y-75130601D01*
X157802259Y-75185965D01*
X157802260Y-75185966D01*
X157802264Y-75185967D01*
X157875321Y-75200499D01*
X157875324Y-75200500D01*
X157875326Y-75200500D01*
X158974676Y-75200500D01*
X158974677Y-75200499D01*
X159047740Y-75185966D01*
X159130601Y-75130601D01*
X159163984Y-75080639D01*
X159180707Y-75055612D01*
X159234319Y-75010806D01*
X159283809Y-75000502D01*
X161716191Y-75000502D01*
X161783230Y-75020187D01*
X161819293Y-75055612D01*
X161869397Y-75130599D01*
X161869398Y-75130599D01*
X161869399Y-75130601D01*
X161917363Y-75162649D01*
X161952260Y-75185966D01*
X161952264Y-75185967D01*
X162025321Y-75200499D01*
X162025324Y-75200500D01*
X162025326Y-75200500D01*
X162568101Y-75200500D01*
X162635140Y-75220185D01*
X162655782Y-75236819D01*
X163157282Y-75738319D01*
X163190767Y-75799642D01*
X163185783Y-75869334D01*
X163143911Y-75925267D01*
X163078447Y-75949684D01*
X163069601Y-75950000D01*
X162825000Y-75950000D01*
X162825000Y-77600000D01*
X163147828Y-77600000D01*
X163147844Y-77599999D01*
X163207372Y-77593598D01*
X163207379Y-77593596D01*
X163342086Y-77543354D01*
X163342093Y-77543350D01*
X163457187Y-77457190D01*
X163457190Y-77457187D01*
X163543350Y-77342093D01*
X163543354Y-77342086D01*
X163584318Y-77232257D01*
X163626189Y-77176323D01*
X163691653Y-77151906D01*
X163759926Y-77166758D01*
X163809332Y-77216163D01*
X163824500Y-77275590D01*
X163824500Y-78658196D01*
X163821862Y-78683634D01*
X163819633Y-78694268D01*
X163819633Y-78694269D01*
X163819633Y-78694271D01*
X163824023Y-78729491D01*
X163824500Y-78737167D01*
X163824500Y-78741116D01*
X163828342Y-78764141D01*
X163835134Y-78818627D01*
X163837373Y-78826147D01*
X163839934Y-78833608D01*
X163839935Y-78833610D01*
X163862106Y-78874579D01*
X163866055Y-78881877D01*
X163890174Y-78931211D01*
X163894742Y-78937609D01*
X163899582Y-78943827D01*
X163939971Y-78981009D01*
X165140289Y-80181326D01*
X165173774Y-80242649D01*
X165169331Y-80304765D01*
X165170986Y-80305236D01*
X165113603Y-80506915D01*
X165113602Y-80506917D01*
X165094785Y-80709999D01*
X165094785Y-80710000D01*
X165113602Y-80913082D01*
X165169417Y-81109247D01*
X165169422Y-81109260D01*
X165260327Y-81291821D01*
X165383237Y-81454581D01*
X165533958Y-81591980D01*
X165533960Y-81591982D01*
X165586019Y-81624215D01*
X165707363Y-81699348D01*
X165897544Y-81773024D01*
X166098024Y-81810500D01*
X166098026Y-81810500D01*
X166301974Y-81810500D01*
X166301976Y-81810500D01*
X166502456Y-81773024D01*
X166692637Y-81699348D01*
X166866041Y-81591981D01*
X167010400Y-81460381D01*
X167016762Y-81454581D01*
X167022947Y-81446391D01*
X167139673Y-81291821D01*
X167230582Y-81109250D01*
X167286397Y-80913083D01*
X167305215Y-80710000D01*
X167301508Y-80669999D01*
X167286397Y-80506917D01*
X167280730Y-80487000D01*
X167230582Y-80310750D01*
X167229524Y-80308626D01*
X167177514Y-80204174D01*
X167139673Y-80128179D01*
X167016764Y-79965421D01*
X167016762Y-79965418D01*
X166866041Y-79828019D01*
X166866039Y-79828017D01*
X166692642Y-79720655D01*
X166692635Y-79720651D01*
X166523553Y-79655149D01*
X166502456Y-79646976D01*
X166301976Y-79609500D01*
X166098024Y-79609500D01*
X166011801Y-79625617D01*
X165897536Y-79646977D01*
X165807443Y-79681879D01*
X165737820Y-79687740D01*
X165676080Y-79655030D01*
X165674970Y-79653933D01*
X165153492Y-79132455D01*
X164611819Y-78590781D01*
X164578334Y-78529458D01*
X164575500Y-78503100D01*
X164575500Y-76301804D01*
X164578139Y-76276359D01*
X164578785Y-76273275D01*
X164580367Y-76265732D01*
X164578498Y-76250740D01*
X164575977Y-76230506D01*
X164575500Y-76222830D01*
X164575500Y-76218889D01*
X164575498Y-76218876D01*
X164573667Y-76207906D01*
X164571657Y-76195859D01*
X164564866Y-76141374D01*
X164564864Y-76141370D01*
X164562622Y-76133840D01*
X164560065Y-76126392D01*
X164560065Y-76126390D01*
X164533944Y-76078122D01*
X164509826Y-76028789D01*
X164509824Y-76028787D01*
X164509824Y-76028786D01*
X164505276Y-76022416D01*
X164500420Y-76016176D01*
X164500419Y-76016174D01*
X164493436Y-76009746D01*
X164460030Y-75978993D01*
X163386819Y-74905781D01*
X163353334Y-74844458D01*
X163350500Y-74818100D01*
X163350500Y-74275323D01*
X163350499Y-74275321D01*
X163335967Y-74202264D01*
X163335966Y-74202260D01*
X163332348Y-74196845D01*
X163280601Y-74119399D01*
X163219606Y-74078644D01*
X163197739Y-74064033D01*
X163197735Y-74064032D01*
X163124677Y-74049500D01*
X163124674Y-74049500D01*
X162025326Y-74049500D01*
X162025323Y-74049500D01*
X161952264Y-74064032D01*
X161952260Y-74064033D01*
X161869398Y-74119399D01*
X161819290Y-74194393D01*
X161765678Y-74239198D01*
X161716188Y-74249502D01*
X159283812Y-74249502D01*
X159216773Y-74229817D01*
X159180710Y-74194393D01*
X159130601Y-74119399D01*
X159047739Y-74064033D01*
X159047735Y-74064032D01*
X158974677Y-74049500D01*
X158974674Y-74049500D01*
X158924500Y-74049500D01*
X158857461Y-74029815D01*
X158811706Y-73977011D01*
X158800500Y-73925500D01*
X158800500Y-72751803D01*
X158803139Y-72726358D01*
X158804921Y-72717857D01*
X158805367Y-72715732D01*
X158802608Y-72693596D01*
X158800977Y-72680507D01*
X158800500Y-72672831D01*
X158800500Y-72581899D01*
X158820185Y-72514860D01*
X158836819Y-72494218D01*
X159331037Y-72000000D01*
X161060000Y-72000000D01*
X161060000Y-72247844D01*
X161066401Y-72307372D01*
X161066403Y-72307379D01*
X161116645Y-72442086D01*
X161116649Y-72442093D01*
X161202809Y-72557187D01*
X161202812Y-72557190D01*
X161317906Y-72643350D01*
X161317913Y-72643354D01*
X161452620Y-72693596D01*
X161452627Y-72693598D01*
X161512155Y-72699999D01*
X161512172Y-72700000D01*
X162060000Y-72700000D01*
X162060000Y-72000000D01*
X162560000Y-72000000D01*
X162560000Y-72700000D01*
X163107828Y-72700000D01*
X163107844Y-72699999D01*
X163167372Y-72693598D01*
X163167379Y-72693596D01*
X163302086Y-72643354D01*
X163302093Y-72643350D01*
X163417187Y-72557190D01*
X163417190Y-72557187D01*
X163503350Y-72442093D01*
X163503354Y-72442086D01*
X163553596Y-72307379D01*
X163553598Y-72307372D01*
X163559999Y-72247844D01*
X163560000Y-72247827D01*
X163560000Y-72000000D01*
X162560000Y-72000000D01*
X162060000Y-72000000D01*
X161060000Y-72000000D01*
X159331037Y-72000000D01*
X160669219Y-70661819D01*
X160730542Y-70628334D01*
X160756900Y-70625500D01*
X161188009Y-70625500D01*
X161255048Y-70645185D01*
X161300803Y-70697989D01*
X161309627Y-70725310D01*
X161318196Y-70768391D01*
X161311967Y-70837982D01*
X161270889Y-70891847D01*
X161202812Y-70942809D01*
X161202809Y-70942812D01*
X161116649Y-71057906D01*
X161116645Y-71057913D01*
X161066403Y-71192620D01*
X161066401Y-71192627D01*
X161060000Y-71252155D01*
X161060000Y-71500000D01*
X163560000Y-71500000D01*
X163560000Y-71252172D01*
X163559999Y-71252155D01*
X163553598Y-71192627D01*
X163553596Y-71192620D01*
X163503354Y-71057913D01*
X163503350Y-71057906D01*
X163417191Y-70942813D01*
X163349110Y-70891848D01*
X163307239Y-70835914D01*
X163301804Y-70768389D01*
X163310500Y-70724674D01*
X163310500Y-69775326D01*
X163310500Y-69775325D01*
X163310500Y-69775323D01*
X163310499Y-69775321D01*
X163295967Y-69702264D01*
X163295966Y-69702260D01*
X163287677Y-69689854D01*
X163240601Y-69619399D01*
X163216209Y-69603101D01*
X163171405Y-69549491D01*
X163162698Y-69480166D01*
X163192852Y-69417138D01*
X163216210Y-69396898D01*
X163240601Y-69380601D01*
X163295966Y-69297740D01*
X163310500Y-69224674D01*
X163310500Y-68780899D01*
X163330185Y-68713860D01*
X163382989Y-68668105D01*
X163452147Y-68658161D01*
X163515703Y-68687186D01*
X163522181Y-68693218D01*
X164613181Y-69784218D01*
X164646666Y-69845541D01*
X164649500Y-69871899D01*
X164649500Y-74403196D01*
X164646862Y-74428634D01*
X164644633Y-74439268D01*
X164644633Y-74439269D01*
X164644633Y-74439271D01*
X164649023Y-74474491D01*
X164649500Y-74482167D01*
X164649500Y-74486116D01*
X164653342Y-74509141D01*
X164660134Y-74563627D01*
X164662373Y-74571147D01*
X164664934Y-74578608D01*
X164664935Y-74578610D01*
X164680699Y-74607740D01*
X164691055Y-74626877D01*
X164715174Y-74676211D01*
X164719742Y-74682609D01*
X164724582Y-74688827D01*
X164764970Y-74726008D01*
X165140289Y-75101326D01*
X165173774Y-75162649D01*
X165169331Y-75224765D01*
X165170986Y-75225236D01*
X165113603Y-75426915D01*
X165113602Y-75426917D01*
X165094785Y-75629999D01*
X165094785Y-75630000D01*
X165113602Y-75833082D01*
X165169417Y-76029247D01*
X165169422Y-76029260D01*
X165260327Y-76211821D01*
X165383237Y-76374581D01*
X165533958Y-76511980D01*
X165533960Y-76511982D01*
X165589777Y-76546542D01*
X165707363Y-76619348D01*
X165897544Y-76693024D01*
X166098024Y-76730500D01*
X166098026Y-76730500D01*
X166301974Y-76730500D01*
X166301976Y-76730500D01*
X166502456Y-76693024D01*
X166692637Y-76619348D01*
X166810223Y-76546541D01*
X166877583Y-76527986D01*
X166944282Y-76548794D01*
X166989144Y-76602360D01*
X166999500Y-76651969D01*
X166999500Y-76788099D01*
X166979815Y-76855138D01*
X166963181Y-76875780D01*
X166725028Y-77113933D01*
X166663705Y-77147418D01*
X166594013Y-77142434D01*
X166592554Y-77141879D01*
X166502461Y-77106977D01*
X166465137Y-77100000D01*
X166301976Y-77069500D01*
X166098024Y-77069500D01*
X165897544Y-77106976D01*
X165897541Y-77106976D01*
X165897541Y-77106977D01*
X165707364Y-77180651D01*
X165707357Y-77180655D01*
X165533960Y-77288017D01*
X165533958Y-77288019D01*
X165383237Y-77425418D01*
X165260327Y-77588178D01*
X165169422Y-77770739D01*
X165169417Y-77770752D01*
X165113602Y-77966917D01*
X165094785Y-78169999D01*
X165094785Y-78170000D01*
X165113602Y-78373082D01*
X165169417Y-78569247D01*
X165169422Y-78569260D01*
X165260327Y-78751821D01*
X165383237Y-78914581D01*
X165456105Y-78981008D01*
X165532334Y-79050500D01*
X165533958Y-79051980D01*
X165533960Y-79051982D01*
X165633141Y-79113392D01*
X165707363Y-79159348D01*
X165897544Y-79233024D01*
X166098024Y-79270500D01*
X166098026Y-79270500D01*
X166301974Y-79270500D01*
X166301976Y-79270500D01*
X166502456Y-79233024D01*
X166692637Y-79159348D01*
X166866041Y-79051981D01*
X167016764Y-78914579D01*
X167139673Y-78751821D01*
X167230582Y-78569250D01*
X167286397Y-78373083D01*
X167305215Y-78170000D01*
X167301508Y-78129999D01*
X167286397Y-77966917D01*
X167278771Y-77940116D01*
X167230582Y-77770750D01*
X167230581Y-77770749D01*
X167229013Y-77765236D01*
X167231001Y-77764670D01*
X167225895Y-77704210D01*
X167258588Y-77642462D01*
X167259628Y-77641408D01*
X167603892Y-77297144D01*
X167623741Y-77281025D01*
X167632836Y-77275084D01*
X167654644Y-77247062D01*
X167659721Y-77241316D01*
X167662520Y-77238518D01*
X167676094Y-77219504D01*
X167706336Y-77180651D01*
X167709807Y-77176192D01*
X167713547Y-77169280D01*
X167717003Y-77162207D01*
X167717010Y-77162199D01*
X167732670Y-77109596D01*
X167750500Y-77057660D01*
X167750500Y-77057655D01*
X167751790Y-77049924D01*
X167752768Y-77042085D01*
X167750500Y-76987244D01*
X167750500Y-64156804D01*
X167753139Y-64131359D01*
X167753785Y-64128275D01*
X167755367Y-64120732D01*
X167752845Y-64100499D01*
X167750977Y-64085506D01*
X167750500Y-64077830D01*
X167750500Y-64073889D01*
X167750498Y-64073876D01*
X167746657Y-64050859D01*
X167739866Y-63996376D01*
X167739866Y-63996374D01*
X167739864Y-63996370D01*
X167737622Y-63988840D01*
X167735065Y-63981392D01*
X167735065Y-63981390D01*
X167708944Y-63933122D01*
X167684826Y-63883789D01*
X167684824Y-63883787D01*
X167684824Y-63883786D01*
X167680276Y-63877416D01*
X167675420Y-63871176D01*
X167675419Y-63871174D01*
X167663311Y-63860028D01*
X167635029Y-63833992D01*
X167259709Y-63458672D01*
X167226224Y-63397349D01*
X167230666Y-63335234D01*
X167229013Y-63334764D01*
X167231328Y-63326627D01*
X167286397Y-63133083D01*
X167305215Y-62930000D01*
X167301508Y-62889999D01*
X167286397Y-62726917D01*
X167265780Y-62654457D01*
X167230582Y-62530750D01*
X167225782Y-62521111D01*
X167163079Y-62395185D01*
X167139673Y-62348179D01*
X167080704Y-62270091D01*
X167016762Y-62185418D01*
X166866041Y-62048019D01*
X166866039Y-62048017D01*
X166739111Y-61969427D01*
X166692475Y-61917399D01*
X166681371Y-61848417D01*
X166709324Y-61784383D01*
X166767459Y-61745627D01*
X166804388Y-61740000D01*
X167097828Y-61740000D01*
X167097844Y-61739999D01*
X167157372Y-61733598D01*
X167157379Y-61733596D01*
X167292086Y-61683354D01*
X167292093Y-61683350D01*
X167407187Y-61597190D01*
X167407190Y-61597187D01*
X167493350Y-61482093D01*
X167493354Y-61482086D01*
X167543596Y-61347379D01*
X167543598Y-61347372D01*
X167549999Y-61287844D01*
X167550000Y-61287827D01*
X167550000Y-60640000D01*
X166813347Y-60640000D01*
X166746308Y-60620315D01*
X166700553Y-60567511D01*
X166690609Y-60498353D01*
X166694369Y-60481067D01*
X166700000Y-60461888D01*
X166700000Y-60318111D01*
X166694369Y-60298933D01*
X166694370Y-60229064D01*
X166732145Y-60170286D01*
X166795701Y-60141262D01*
X166813347Y-60140000D01*
X167550000Y-60140000D01*
X167550000Y-59492172D01*
X167549999Y-59492155D01*
X167543598Y-59432627D01*
X167543596Y-59432620D01*
X167493354Y-59297913D01*
X167493350Y-59297906D01*
X167407190Y-59182812D01*
X167407187Y-59182809D01*
X167292093Y-59096649D01*
X167292086Y-59096645D01*
X167157379Y-59046403D01*
X167157372Y-59046401D01*
X167097844Y-59040000D01*
X166450000Y-59040000D01*
X166450000Y-59777698D01*
X166430315Y-59844737D01*
X166377511Y-59890492D01*
X166308355Y-59900436D01*
X166235766Y-59890000D01*
X166235763Y-59890000D01*
X166164237Y-59890000D01*
X166164233Y-59890000D01*
X166091645Y-59900436D01*
X166022487Y-59890492D01*
X165969684Y-59844736D01*
X165950000Y-59777698D01*
X165950000Y-59040000D01*
X165302155Y-59040000D01*
X165242627Y-59046401D01*
X165242620Y-59046403D01*
X165107913Y-59096645D01*
X165107906Y-59096649D01*
X164992812Y-59182809D01*
X164992809Y-59182812D01*
X164906649Y-59297906D01*
X164906645Y-59297913D01*
X164856403Y-59432620D01*
X164856401Y-59432627D01*
X164850000Y-59492155D01*
X164850000Y-60140000D01*
X165586653Y-60140000D01*
X165653692Y-60159685D01*
X165699447Y-60212489D01*
X165709391Y-60281647D01*
X165705631Y-60298933D01*
X165700000Y-60318111D01*
X165700000Y-60461888D01*
X165705631Y-60481067D01*
X165705630Y-60550936D01*
X165667855Y-60609714D01*
X165604299Y-60638738D01*
X165586653Y-60640000D01*
X164850000Y-60640000D01*
X164850000Y-61287844D01*
X164856401Y-61347372D01*
X164856403Y-61347379D01*
X164906645Y-61482086D01*
X164906649Y-61482093D01*
X164992809Y-61597187D01*
X164992812Y-61597190D01*
X165107906Y-61683350D01*
X165107913Y-61683354D01*
X165242620Y-61733596D01*
X165242627Y-61733598D01*
X165302155Y-61739999D01*
X165302172Y-61740000D01*
X165595612Y-61740000D01*
X165662651Y-61759685D01*
X165708406Y-61812489D01*
X165718350Y-61881647D01*
X165689325Y-61945203D01*
X165660889Y-61969427D01*
X165533960Y-62048017D01*
X165533958Y-62048019D01*
X165383237Y-62185418D01*
X165260327Y-62348178D01*
X165169422Y-62530739D01*
X165169417Y-62530752D01*
X165113602Y-62726917D01*
X165094785Y-62929999D01*
X165094785Y-62930000D01*
X165113602Y-63133082D01*
X165169417Y-63329247D01*
X165169422Y-63329260D01*
X165260327Y-63511821D01*
X165383237Y-63674581D01*
X165533958Y-63811980D01*
X165533960Y-63811982D01*
X165603138Y-63854815D01*
X165707363Y-63919348D01*
X165897544Y-63993024D01*
X166098024Y-64030500D01*
X166098026Y-64030500D01*
X166301974Y-64030500D01*
X166301976Y-64030500D01*
X166502456Y-63993024D01*
X166592556Y-63958118D01*
X166662174Y-63952256D01*
X166723914Y-63984965D01*
X166725027Y-63986064D01*
X166963181Y-64224218D01*
X166996666Y-64285541D01*
X166999500Y-64311899D01*
X166999500Y-64448030D01*
X166979815Y-64515069D01*
X166927011Y-64560824D01*
X166857853Y-64570768D01*
X166810223Y-64553457D01*
X166692642Y-64480655D01*
X166692635Y-64480651D01*
X166589382Y-64440651D01*
X166502456Y-64406976D01*
X166301976Y-64369500D01*
X166098024Y-64369500D01*
X166011801Y-64385617D01*
X165897536Y-64406977D01*
X165807443Y-64441879D01*
X165737820Y-64447740D01*
X165676080Y-64415030D01*
X165674970Y-64413933D01*
X164750328Y-63489291D01*
X163782149Y-62521111D01*
X163766022Y-62501252D01*
X163760086Y-62492167D01*
X163760083Y-62492163D01*
X163732074Y-62470363D01*
X163726310Y-62465272D01*
X163723515Y-62462477D01*
X163704505Y-62448906D01*
X163661189Y-62415190D01*
X163654274Y-62411448D01*
X163647200Y-62407990D01*
X163594596Y-62392329D01*
X163542658Y-62374499D01*
X163534923Y-62373208D01*
X163527085Y-62372231D01*
X163472244Y-62374500D01*
X163431991Y-62374500D01*
X163364952Y-62354815D01*
X163319197Y-62302011D01*
X163310374Y-62274691D01*
X163295967Y-62202264D01*
X163295966Y-62202260D01*
X163281453Y-62180540D01*
X163240601Y-62119399D01*
X163216209Y-62103101D01*
X163171405Y-62049491D01*
X163162698Y-61980166D01*
X163192852Y-61917138D01*
X163216210Y-61896898D01*
X163240601Y-61880601D01*
X163295966Y-61797740D01*
X163310500Y-61724674D01*
X163310500Y-60775326D01*
X163310500Y-60775323D01*
X163310499Y-60775321D01*
X163295967Y-60702264D01*
X163295966Y-60702260D01*
X163273941Y-60669297D01*
X163240601Y-60619399D01*
X163216209Y-60603101D01*
X163171405Y-60549491D01*
X163162698Y-60480166D01*
X163192852Y-60417138D01*
X163216210Y-60396898D01*
X163240601Y-60380601D01*
X163295966Y-60297740D01*
X163310500Y-60224674D01*
X163310500Y-59770949D01*
X163330185Y-59703911D01*
X163382989Y-59658156D01*
X163452147Y-59648212D01*
X163486015Y-59658157D01*
X163489945Y-59659952D01*
X163489947Y-59659953D01*
X163489948Y-59659953D01*
X163489952Y-59659955D01*
X163628036Y-59700499D01*
X163628038Y-59700500D01*
X163628039Y-59700500D01*
X163771962Y-59700500D01*
X163771962Y-59700499D01*
X163879121Y-59669035D01*
X163910050Y-59659954D01*
X163910050Y-59659953D01*
X163910053Y-59659953D01*
X164031128Y-59582143D01*
X164125377Y-59473373D01*
X164185165Y-59342457D01*
X164205647Y-59200000D01*
X164185165Y-59057543D01*
X164125377Y-58926627D01*
X164031128Y-58817857D01*
X163910053Y-58740047D01*
X163910051Y-58740046D01*
X163910049Y-58740045D01*
X163910050Y-58740045D01*
X163771963Y-58699500D01*
X163763184Y-58698238D01*
X163763491Y-58696098D01*
X163708037Y-58679815D01*
X163703029Y-58676422D01*
X163699504Y-58673905D01*
X163686201Y-58663550D01*
X163656189Y-58640190D01*
X163649274Y-58636448D01*
X163642200Y-58632990D01*
X163589596Y-58617329D01*
X163537658Y-58599499D01*
X163529923Y-58598208D01*
X163522085Y-58597231D01*
X163467244Y-58599500D01*
X160876804Y-58599500D01*
X160851357Y-58596861D01*
X160848713Y-58596306D01*
X160840729Y-58594632D01*
X160805509Y-58599023D01*
X160797832Y-58599500D01*
X160793886Y-58599500D01*
X160776606Y-58602383D01*
X160770846Y-58603344D01*
X160716368Y-58610135D01*
X160708844Y-58612375D01*
X160701392Y-58614934D01*
X160653119Y-58641057D01*
X160603790Y-58665172D01*
X160597398Y-58669735D01*
X160591174Y-58674580D01*
X160554002Y-58714958D01*
X160554003Y-58714958D01*
X160451105Y-58817857D01*
X160380781Y-58888181D01*
X160319458Y-58921666D01*
X160293100Y-58924500D01*
X149351804Y-58924500D01*
X149326359Y-58921861D01*
X149315733Y-58919633D01*
X149315730Y-58919633D01*
X149280508Y-58924023D01*
X149272832Y-58924500D01*
X149268886Y-58924500D01*
X149251615Y-58927381D01*
X149245858Y-58928342D01*
X149191370Y-58935134D01*
X149183857Y-58937371D01*
X149176387Y-58939936D01*
X149128122Y-58966055D01*
X149078792Y-58990171D01*
X149072375Y-58994753D01*
X149066175Y-58999578D01*
X149028992Y-59039970D01*
X149005599Y-59063362D01*
X148944275Y-59096846D01*
X148935571Y-59098416D01*
X148928040Y-59099498D01*
X148789949Y-59140045D01*
X148668873Y-59217856D01*
X148574623Y-59326626D01*
X148574622Y-59326628D01*
X148514834Y-59457543D01*
X148494353Y-59600000D01*
X148514834Y-59742456D01*
X148559403Y-59840047D01*
X148574623Y-59873373D01*
X148668872Y-59982143D01*
X148789947Y-60059953D01*
X148789950Y-60059954D01*
X148789949Y-60059954D01*
X148928036Y-60100499D01*
X148928038Y-60100500D01*
X148928039Y-60100500D01*
X149071962Y-60100500D01*
X149071962Y-60100499D01*
X149210053Y-60059953D01*
X149331128Y-59982143D01*
X149425377Y-59873373D01*
X149482639Y-59747987D01*
X149528394Y-59695184D01*
X149595433Y-59675500D01*
X159623681Y-59675500D01*
X159690720Y-59695185D01*
X159736475Y-59747989D01*
X159746419Y-59817147D01*
X159717394Y-59880703D01*
X159690721Y-59903815D01*
X159668874Y-59917855D01*
X159574623Y-60026626D01*
X159574622Y-60026628D01*
X159514834Y-60157543D01*
X159494678Y-60297739D01*
X159494353Y-60300000D01*
X159495352Y-60306949D01*
X159514834Y-60442456D01*
X159563716Y-60549491D01*
X159574623Y-60573373D01*
X159668872Y-60682143D01*
X159789947Y-60759953D01*
X159789950Y-60759954D01*
X159789949Y-60759954D01*
X159928036Y-60800499D01*
X159928038Y-60800500D01*
X159969099Y-60800500D01*
X160036138Y-60820185D01*
X160081893Y-60872989D01*
X160091837Y-60942147D01*
X160062812Y-61005703D01*
X160056780Y-61012181D01*
X159405601Y-61663360D01*
X159344278Y-61696845D01*
X159335571Y-61698416D01*
X159328040Y-61699498D01*
X159189949Y-61740045D01*
X159068873Y-61817856D01*
X158974623Y-61926626D01*
X158974622Y-61926628D01*
X158914834Y-62057543D01*
X158894353Y-62200000D01*
X158914834Y-62342456D01*
X158948051Y-62415190D01*
X158974623Y-62473373D01*
X159068872Y-62582143D01*
X159189947Y-62659953D01*
X159189950Y-62659954D01*
X159189949Y-62659954D01*
X159328036Y-62700499D01*
X159328038Y-62700500D01*
X159328039Y-62700500D01*
X159471962Y-62700500D01*
X159471962Y-62700499D01*
X159610053Y-62659953D01*
X159731128Y-62582143D01*
X159825377Y-62473373D01*
X159885165Y-62342457D01*
X159895509Y-62270502D01*
X159924533Y-62206949D01*
X159930551Y-62200484D01*
X160469218Y-61661819D01*
X160530542Y-61628334D01*
X160556900Y-61625500D01*
X161188009Y-61625500D01*
X161255048Y-61645185D01*
X161300803Y-61697989D01*
X161309626Y-61725309D01*
X161324032Y-61797735D01*
X161324033Y-61797739D01*
X161342405Y-61825234D01*
X161379399Y-61880601D01*
X161403790Y-61896898D01*
X161448594Y-61950511D01*
X161457301Y-62019836D01*
X161427146Y-62082863D01*
X161403791Y-62103100D01*
X161379671Y-62119217D01*
X161379399Y-62119399D01*
X161324033Y-62202260D01*
X161324032Y-62202264D01*
X161309500Y-62275321D01*
X161309500Y-62608099D01*
X161289815Y-62675138D01*
X161273181Y-62695780D01*
X160780781Y-63188181D01*
X160719458Y-63221666D01*
X160693100Y-63224500D01*
X158877874Y-63224500D01*
X158810835Y-63204815D01*
X158810834Y-63204815D01*
X158710051Y-63140046D01*
X158710050Y-63140045D01*
X158571963Y-63099500D01*
X158571961Y-63099500D01*
X158428039Y-63099500D01*
X158428036Y-63099500D01*
X158289949Y-63140045D01*
X158168873Y-63217856D01*
X158074623Y-63326626D01*
X158074622Y-63326628D01*
X158014834Y-63457543D01*
X157994353Y-63600000D01*
X158014834Y-63742456D01*
X158029556Y-63774691D01*
X158074623Y-63873373D01*
X158168872Y-63982143D01*
X158289947Y-64059953D01*
X158289950Y-64059954D01*
X158289949Y-64059954D01*
X158428036Y-64100499D01*
X158428038Y-64100500D01*
X158428039Y-64100500D01*
X158571961Y-64100500D01*
X158667134Y-64072555D01*
X158737001Y-64072555D01*
X158795780Y-64110329D01*
X158824805Y-64173884D01*
X158814862Y-64243043D01*
X158789748Y-64279213D01*
X158605601Y-64463360D01*
X158544278Y-64496845D01*
X158535571Y-64498416D01*
X158528040Y-64499498D01*
X158389949Y-64540045D01*
X158268873Y-64617856D01*
X158174623Y-64726626D01*
X158174622Y-64726628D01*
X158114834Y-64857543D01*
X158094353Y-65000000D01*
X158114834Y-65142456D01*
X158153407Y-65226917D01*
X158174623Y-65273373D01*
X158268872Y-65382143D01*
X158389947Y-65459953D01*
X158389949Y-65459954D01*
X158528036Y-65500499D01*
X158528038Y-65500500D01*
X158528039Y-65500500D01*
X158671962Y-65500500D01*
X158671962Y-65500499D01*
X158810053Y-65459953D01*
X158931128Y-65382143D01*
X159025377Y-65273373D01*
X159028326Y-65266917D01*
X159052937Y-65213025D01*
X159085165Y-65142457D01*
X159095509Y-65070502D01*
X159124533Y-65006949D01*
X159130551Y-65000484D01*
X159469217Y-64661819D01*
X159530541Y-64628334D01*
X159556899Y-64625500D01*
X161188009Y-64625500D01*
X161255048Y-64645185D01*
X161300803Y-64697989D01*
X161309626Y-64725309D01*
X161324032Y-64797735D01*
X161324033Y-64797739D01*
X161342405Y-64825234D01*
X161379399Y-64880601D01*
X161403790Y-64896898D01*
X161448594Y-64950511D01*
X161457301Y-65019836D01*
X161427146Y-65082863D01*
X161403791Y-65103100D01*
X161379399Y-65119399D01*
X161345293Y-65170444D01*
X161324035Y-65202259D01*
X161324032Y-65202264D01*
X161309500Y-65275321D01*
X161309500Y-66224678D01*
X161324032Y-66297735D01*
X161324033Y-66297739D01*
X161326578Y-66301548D01*
X161379399Y-66380601D01*
X161403790Y-66396898D01*
X161448594Y-66450511D01*
X161457301Y-66519836D01*
X161427146Y-66582863D01*
X161403791Y-66603100D01*
X161379398Y-66619398D01*
X161379399Y-66619399D01*
X161324033Y-66702260D01*
X161324032Y-66702264D01*
X161309500Y-66775321D01*
X161309500Y-67724678D01*
X161324032Y-67797735D01*
X161324033Y-67797739D01*
X161324034Y-67797740D01*
X161379399Y-67880601D01*
X161403790Y-67896898D01*
X161448594Y-67950511D01*
X161457301Y-68019836D01*
X161427146Y-68082863D01*
X161403791Y-68103100D01*
X161395169Y-68108862D01*
X161379399Y-68119399D01*
X161324033Y-68202260D01*
X161319360Y-68213544D01*
X161318318Y-68213112D01*
X161291673Y-68264052D01*
X161230958Y-68298626D01*
X161202440Y-68301950D01*
X160449278Y-68301950D01*
X160382239Y-68282265D01*
X160336484Y-68229461D01*
X160326540Y-68160303D01*
X160336485Y-68126437D01*
X160337240Y-68124783D01*
X160339467Y-68119907D01*
X160359949Y-67977450D01*
X160339467Y-67834993D01*
X160279679Y-67704077D01*
X160185430Y-67595307D01*
X160064355Y-67517497D01*
X160064353Y-67517496D01*
X160064351Y-67517495D01*
X160064352Y-67517495D01*
X159926265Y-67476950D01*
X159926263Y-67476950D01*
X159782341Y-67476950D01*
X159782338Y-67476950D01*
X159644251Y-67517495D01*
X159523175Y-67595306D01*
X159428925Y-67704076D01*
X159428924Y-67704078D01*
X159369136Y-67834993D01*
X159348655Y-67977450D01*
X159369136Y-68119906D01*
X159428924Y-68250821D01*
X159428925Y-68250823D01*
X159443589Y-68267746D01*
X159472614Y-68331302D01*
X159472924Y-68333609D01*
X159478325Y-68376940D01*
X159478802Y-68384617D01*
X159478802Y-68388566D01*
X159482644Y-68411591D01*
X159489436Y-68466077D01*
X159491675Y-68473597D01*
X159494236Y-68481058D01*
X159494237Y-68481060D01*
X159520356Y-68529326D01*
X159520357Y-68529327D01*
X159544476Y-68578661D01*
X159549044Y-68585059D01*
X159553884Y-68591277D01*
X159594273Y-68628459D01*
X159872151Y-68906336D01*
X159888279Y-68926195D01*
X159894218Y-68935286D01*
X159922234Y-68957091D01*
X159927995Y-68962180D01*
X159930784Y-68964969D01*
X159949785Y-68978535D01*
X159993113Y-69012258D01*
X159993113Y-69012259D01*
X160000024Y-69015999D01*
X160007102Y-69019460D01*
X160052663Y-69033024D01*
X160059707Y-69035121D01*
X160111642Y-69052950D01*
X160111644Y-69052950D01*
X160119381Y-69054241D01*
X160127211Y-69055217D01*
X160127213Y-69055218D01*
X160127214Y-69055217D01*
X160127215Y-69055218D01*
X160182057Y-69052950D01*
X161185500Y-69052950D01*
X161252539Y-69072635D01*
X161298294Y-69125439D01*
X161309500Y-69176950D01*
X161309500Y-69224678D01*
X161324032Y-69297735D01*
X161324033Y-69297739D01*
X161324034Y-69297740D01*
X161379399Y-69380601D01*
X161403790Y-69396898D01*
X161448594Y-69450511D01*
X161457301Y-69519836D01*
X161427146Y-69582863D01*
X161403791Y-69603100D01*
X161392180Y-69610859D01*
X161379399Y-69619399D01*
X161324033Y-69702260D01*
X161324032Y-69702264D01*
X161309626Y-69774691D01*
X161277241Y-69836602D01*
X161216526Y-69871176D01*
X161188009Y-69874500D01*
X160601803Y-69874500D01*
X160576358Y-69871861D01*
X160565732Y-69869633D01*
X160565729Y-69869633D01*
X160530507Y-69874023D01*
X160522831Y-69874500D01*
X160518886Y-69874500D01*
X160501615Y-69877381D01*
X160495858Y-69878342D01*
X160441370Y-69885134D01*
X160433857Y-69887371D01*
X160426387Y-69889936D01*
X160378122Y-69916055D01*
X160328792Y-69940171D01*
X160322375Y-69944753D01*
X160316175Y-69949579D01*
X160278992Y-69989970D01*
X158196108Y-72072852D01*
X158176254Y-72088976D01*
X158167165Y-72094914D01*
X158167164Y-72094915D01*
X158145363Y-72122923D01*
X158140286Y-72128674D01*
X158137484Y-72131477D01*
X158137474Y-72131488D01*
X158123905Y-72150495D01*
X158090192Y-72193808D01*
X158086447Y-72200729D01*
X158082989Y-72207803D01*
X158076484Y-72229652D01*
X158038487Y-72288287D01*
X157974822Y-72317071D01*
X157957640Y-72318267D01*
X157584107Y-72318267D01*
X157517068Y-72298582D01*
X157517067Y-72298582D01*
X157515749Y-72297735D01*
X157416286Y-72233814D01*
X157416285Y-72233813D01*
X157416284Y-72233813D01*
X157416283Y-72233812D01*
X157278196Y-72193267D01*
X157278194Y-72193267D01*
X157134272Y-72193267D01*
X157134269Y-72193267D01*
X156996182Y-72233812D01*
X156996179Y-72233813D01*
X156991534Y-72236799D01*
X156924494Y-72256480D01*
X156857455Y-72236792D01*
X156811703Y-72183986D01*
X156800500Y-72132480D01*
X156800500Y-62584945D01*
X156820185Y-62517906D01*
X156872989Y-62472151D01*
X156889554Y-62465971D01*
X156910053Y-62459953D01*
X157010836Y-62395183D01*
X157077874Y-62375500D01*
X157250236Y-62375500D01*
X157317275Y-62395185D01*
X157363030Y-62447989D01*
X157374620Y-62473369D01*
X157374623Y-62473373D01*
X157468872Y-62582143D01*
X157589947Y-62659953D01*
X157589950Y-62659954D01*
X157589949Y-62659954D01*
X157728036Y-62700499D01*
X157728038Y-62700500D01*
X157728039Y-62700500D01*
X157871962Y-62700500D01*
X157871962Y-62700499D01*
X158010053Y-62659953D01*
X158131128Y-62582143D01*
X158225377Y-62473373D01*
X158285165Y-62342457D01*
X158305647Y-62200000D01*
X158285165Y-62057543D01*
X158225377Y-61926627D01*
X158131128Y-61817857D01*
X158010053Y-61740047D01*
X158010051Y-61740046D01*
X158010049Y-61740045D01*
X158010050Y-61740045D01*
X157871963Y-61699500D01*
X157871961Y-61699500D01*
X157867839Y-61699500D01*
X157863883Y-61698338D01*
X157863184Y-61698238D01*
X157863198Y-61698137D01*
X157800800Y-61679815D01*
X157791677Y-61673354D01*
X157781188Y-61665190D01*
X157774274Y-61661448D01*
X157767200Y-61657990D01*
X157714596Y-61642329D01*
X157662658Y-61624499D01*
X157654923Y-61623208D01*
X157647085Y-61622231D01*
X157592244Y-61624500D01*
X157077874Y-61624500D01*
X157010835Y-61604815D01*
X157010834Y-61604815D01*
X156910051Y-61540046D01*
X156910050Y-61540045D01*
X156771963Y-61499500D01*
X156771961Y-61499500D01*
X156628039Y-61499500D01*
X156628036Y-61499500D01*
X156489949Y-61540045D01*
X156368873Y-61617856D01*
X156274615Y-61726636D01*
X156273653Y-61728133D01*
X156272310Y-61729296D01*
X156268815Y-61733330D01*
X156268234Y-61732827D01*
X156220845Y-61773883D01*
X156151685Y-61783819D01*
X156088132Y-61754787D01*
X156085363Y-61752314D01*
X156060030Y-61728993D01*
X155352149Y-61021111D01*
X155336022Y-61001252D01*
X155330086Y-60992167D01*
X155330083Y-60992163D01*
X155302074Y-60970363D01*
X155296310Y-60965272D01*
X155293515Y-60962477D01*
X155274505Y-60948906D01*
X155231189Y-60915190D01*
X155224274Y-60911448D01*
X155217200Y-60907990D01*
X155164596Y-60892329D01*
X155112658Y-60874499D01*
X155104923Y-60873208D01*
X155097085Y-60872231D01*
X155042244Y-60874500D01*
X150520139Y-60874500D01*
X150453100Y-60854815D01*
X150407345Y-60802011D01*
X150397401Y-60732853D01*
X150399134Y-60720798D01*
X150405647Y-60675500D01*
X150385165Y-60533043D01*
X150325377Y-60402127D01*
X150231128Y-60293357D01*
X150110053Y-60215547D01*
X150110051Y-60215546D01*
X150110049Y-60215545D01*
X150110050Y-60215545D01*
X149971963Y-60175000D01*
X149971961Y-60175000D01*
X149828039Y-60175000D01*
X149828036Y-60175000D01*
X149689949Y-60215545D01*
X149568872Y-60293357D01*
X149568870Y-60293358D01*
X149492321Y-60381702D01*
X149433543Y-60419477D01*
X149398608Y-60424500D01*
X148264496Y-60424500D01*
X148197457Y-60404815D01*
X148176815Y-60388181D01*
X148151768Y-60363134D01*
X148118283Y-60301811D01*
X148116711Y-60293098D01*
X148106367Y-60221150D01*
X148103809Y-60215547D01*
X148046579Y-60090233D01*
X147952330Y-59981463D01*
X147831255Y-59903653D01*
X147831253Y-59903652D01*
X147831251Y-59903651D01*
X147831252Y-59903651D01*
X147734565Y-59875262D01*
X147675786Y-59837488D01*
X147646761Y-59773933D01*
X147656703Y-59704778D01*
X147685165Y-59642457D01*
X147705647Y-59500000D01*
X147685165Y-59357543D01*
X147625377Y-59226627D01*
X147531128Y-59117857D01*
X147410053Y-59040047D01*
X147410051Y-59040046D01*
X147410049Y-59040045D01*
X147410050Y-59040045D01*
X147271963Y-58999500D01*
X147271961Y-58999500D01*
X147128039Y-58999500D01*
X147128036Y-58999500D01*
X146989949Y-59040045D01*
X146868873Y-59117856D01*
X146774623Y-59226626D01*
X146774622Y-59226628D01*
X146740195Y-59302012D01*
X146694440Y-59354816D01*
X146627401Y-59374500D01*
X145931991Y-59374500D01*
X145864952Y-59354815D01*
X145819197Y-59302011D01*
X145810374Y-59274691D01*
X145795967Y-59202264D01*
X145795966Y-59202260D01*
X145754397Y-59140047D01*
X145740601Y-59119399D01*
X145657740Y-59064034D01*
X145657739Y-59064033D01*
X145657735Y-59064032D01*
X145584677Y-59049500D01*
X145584674Y-59049500D01*
X144035326Y-59049500D01*
X144035323Y-59049500D01*
X143962264Y-59064032D01*
X143962260Y-59064033D01*
X143879399Y-59119399D01*
X143824033Y-59202260D01*
X143824032Y-59202264D01*
X143809500Y-59275321D01*
X143809500Y-60224678D01*
X143824032Y-60297735D01*
X143824033Y-60297739D01*
X143826754Y-60301811D01*
X143879399Y-60380601D01*
X143903790Y-60396898D01*
X143948594Y-60450511D01*
X143957301Y-60519836D01*
X143927146Y-60582863D01*
X143903791Y-60603100D01*
X143893894Y-60609714D01*
X143879399Y-60619399D01*
X143824033Y-60702260D01*
X143824032Y-60702264D01*
X143809500Y-60775321D01*
X143809500Y-61724678D01*
X143824032Y-61797735D01*
X143824033Y-61797739D01*
X143842405Y-61825234D01*
X143879399Y-61880601D01*
X143903790Y-61896898D01*
X143948594Y-61950511D01*
X143957301Y-62019836D01*
X143927146Y-62082863D01*
X143903791Y-62103100D01*
X143879671Y-62119217D01*
X143879399Y-62119399D01*
X143824033Y-62202260D01*
X143824032Y-62202264D01*
X143809500Y-62275321D01*
X143809500Y-63224678D01*
X143824032Y-63297735D01*
X143824033Y-63297739D01*
X143824034Y-63297740D01*
X143879399Y-63380601D01*
X143903790Y-63396898D01*
X143948594Y-63450511D01*
X143957301Y-63519836D01*
X143927146Y-63582863D01*
X143903791Y-63603100D01*
X143879398Y-63619399D01*
X143879399Y-63619399D01*
X143824033Y-63702260D01*
X143824032Y-63702264D01*
X143809626Y-63774691D01*
X143777241Y-63836602D01*
X143716526Y-63871176D01*
X143688009Y-63874500D01*
X142066900Y-63874500D01*
X141999861Y-63854815D01*
X141979219Y-63838181D01*
X141559710Y-63418672D01*
X141526225Y-63357349D01*
X141530667Y-63295234D01*
X141529013Y-63294764D01*
X141541885Y-63249523D01*
X141586397Y-63093083D01*
X141605215Y-62890000D01*
X141589071Y-62715780D01*
X141586397Y-62686917D01*
X141577161Y-62654457D01*
X141530582Y-62490750D01*
X141521929Y-62473373D01*
X141462895Y-62354815D01*
X141439673Y-62308179D01*
X141343285Y-62180540D01*
X141316762Y-62145418D01*
X141166041Y-62008019D01*
X141166039Y-62008017D01*
X140992642Y-61900655D01*
X140992635Y-61900651D01*
X140805414Y-61828122D01*
X140802456Y-61826976D01*
X140601976Y-61789500D01*
X140398024Y-61789500D01*
X140197544Y-61826976D01*
X140197541Y-61826976D01*
X140197541Y-61826977D01*
X140007364Y-61900651D01*
X140007357Y-61900655D01*
X139833960Y-62008017D01*
X139833958Y-62008019D01*
X139683237Y-62145418D01*
X139560327Y-62308178D01*
X139469422Y-62490739D01*
X139469417Y-62490752D01*
X139413602Y-62686917D01*
X139394785Y-62889999D01*
X139394785Y-62890000D01*
X139413602Y-63093082D01*
X139469417Y-63289247D01*
X139469422Y-63289260D01*
X139560327Y-63471821D01*
X139683237Y-63634581D01*
X139833958Y-63771980D01*
X139833960Y-63771982D01*
X139839361Y-63775326D01*
X140007363Y-63879348D01*
X140197544Y-63953024D01*
X140398024Y-63990500D01*
X140398026Y-63990500D01*
X140601974Y-63990500D01*
X140601976Y-63990500D01*
X140802456Y-63953024D01*
X140892556Y-63918118D01*
X140962174Y-63912256D01*
X141023914Y-63944965D01*
X141025027Y-63946064D01*
X141557849Y-64478886D01*
X141573977Y-64498745D01*
X141579916Y-64507836D01*
X141607932Y-64529641D01*
X141613693Y-64534730D01*
X141616482Y-64537519D01*
X141635483Y-64551085D01*
X141669013Y-64577183D01*
X141678811Y-64584809D01*
X141685722Y-64588549D01*
X141692800Y-64592010D01*
X141745404Y-64607670D01*
X141745405Y-64607671D01*
X141797340Y-64625500D01*
X141797342Y-64625500D01*
X141805079Y-64626791D01*
X141812909Y-64627767D01*
X141812911Y-64627768D01*
X141812912Y-64627767D01*
X141812913Y-64627768D01*
X141867755Y-64625500D01*
X143351738Y-64625500D01*
X143418777Y-64645185D01*
X143464532Y-64697989D01*
X143474476Y-64767147D01*
X143465288Y-64799324D01*
X143462772Y-64805058D01*
X143448409Y-64829160D01*
X143447483Y-64830872D01*
X143434037Y-64870038D01*
X143432175Y-64874811D01*
X143415527Y-64912766D01*
X143415041Y-64914683D01*
X143409821Y-64939584D01*
X143409500Y-64941512D01*
X143409500Y-64982937D01*
X143409288Y-64988058D01*
X143405868Y-65029345D01*
X143406030Y-65031302D01*
X143409500Y-65059143D01*
X143409500Y-66450788D01*
X143406861Y-66476232D01*
X143404957Y-66485311D01*
X143404957Y-66485317D01*
X143409023Y-66517937D01*
X143409500Y-66525614D01*
X143409500Y-66529040D01*
X143410165Y-66533024D01*
X143413087Y-66550541D01*
X143419427Y-66601393D01*
X143421520Y-66608426D01*
X143423908Y-66615381D01*
X143448295Y-66660444D01*
X143470801Y-66706483D01*
X143475065Y-66712455D01*
X143479580Y-66718256D01*
X143517275Y-66752958D01*
X143773181Y-67008863D01*
X143806666Y-67070186D01*
X143809500Y-67096544D01*
X143809500Y-67724678D01*
X143824032Y-67797735D01*
X143824033Y-67797739D01*
X143824034Y-67797740D01*
X143879399Y-67880601D01*
X143903790Y-67896898D01*
X143948594Y-67950511D01*
X143957301Y-68019836D01*
X143927146Y-68082863D01*
X143903791Y-68103100D01*
X143895169Y-68108862D01*
X143879399Y-68119399D01*
X143824033Y-68202260D01*
X143824032Y-68202264D01*
X143809500Y-68275321D01*
X143809500Y-69224678D01*
X143824032Y-69297735D01*
X143824033Y-69297739D01*
X143824034Y-69297740D01*
X143879399Y-69380601D01*
X143903790Y-69396898D01*
X143948594Y-69450511D01*
X143957301Y-69519836D01*
X143927146Y-69582863D01*
X143903791Y-69603100D01*
X143892180Y-69610859D01*
X143879399Y-69619399D01*
X143824033Y-69702260D01*
X143824032Y-69702264D01*
X143809500Y-69775321D01*
X143809500Y-70443099D01*
X143789815Y-70510138D01*
X143773181Y-70530780D01*
X142571108Y-71732852D01*
X142551254Y-71748976D01*
X142542165Y-71754914D01*
X142542164Y-71754915D01*
X142520363Y-71782923D01*
X142515286Y-71788674D01*
X142512484Y-71791477D01*
X142512474Y-71791488D01*
X142498905Y-71810495D01*
X142465192Y-71853808D01*
X142461447Y-71860729D01*
X142457988Y-71867804D01*
X142442329Y-71920403D01*
X142424500Y-71972338D01*
X142423206Y-71980092D01*
X142422231Y-71987911D01*
X142424500Y-72042755D01*
X142424500Y-75623099D01*
X142404815Y-75690138D01*
X142388181Y-75710780D01*
X141025028Y-77073933D01*
X140963705Y-77107418D01*
X140894013Y-77102434D01*
X140892554Y-77101879D01*
X140802461Y-77066977D01*
X140802456Y-77066976D01*
X140601976Y-77029500D01*
X140398024Y-77029500D01*
X140197544Y-77066976D01*
X140197541Y-77066976D01*
X140197541Y-77066977D01*
X140007364Y-77140651D01*
X140007357Y-77140655D01*
X139833960Y-77248017D01*
X139833958Y-77248019D01*
X139683237Y-77385418D01*
X139560327Y-77548178D01*
X139469422Y-77730739D01*
X139469417Y-77730752D01*
X139413602Y-77926917D01*
X139394785Y-78129999D01*
X139394785Y-78130000D01*
X139413602Y-78333082D01*
X139469417Y-78529247D01*
X139469422Y-78529260D01*
X139560327Y-78711821D01*
X139683237Y-78874581D01*
X139833958Y-79011980D01*
X139833960Y-79011982D01*
X139896169Y-79050500D01*
X140007363Y-79119348D01*
X140197544Y-79193024D01*
X140398024Y-79230500D01*
X140398026Y-79230500D01*
X140601974Y-79230500D01*
X140601976Y-79230500D01*
X140802456Y-79193024D01*
X140992637Y-79119348D01*
X141166041Y-79011981D01*
X141294122Y-78895219D01*
X141316762Y-78874581D01*
X141347702Y-78833610D01*
X141439673Y-78711821D01*
X141530582Y-78529250D01*
X141586397Y-78333083D01*
X141605215Y-78130000D01*
X141602621Y-78102011D01*
X141586397Y-77926917D01*
X141550428Y-77800500D01*
X141530582Y-77730750D01*
X141530581Y-77730748D01*
X141529013Y-77725237D01*
X141530994Y-77724673D01*
X141525902Y-77664174D01*
X141558614Y-77602435D01*
X141559627Y-77601408D01*
X142812820Y-76348215D01*
X142874142Y-76314732D01*
X142943834Y-76319716D01*
X142999767Y-76361588D01*
X143024184Y-76427052D01*
X143024500Y-76435898D01*
X143024500Y-77563099D01*
X143004815Y-77630138D01*
X142988181Y-77650780D01*
X141025027Y-79613933D01*
X140963704Y-79647418D01*
X140894012Y-79642434D01*
X140892605Y-79641899D01*
X140827105Y-79616525D01*
X140802459Y-79606977D01*
X140802458Y-79606976D01*
X140802456Y-79606976D01*
X140601976Y-79569500D01*
X140398024Y-79569500D01*
X140197544Y-79606976D01*
X140197541Y-79606976D01*
X140197541Y-79606977D01*
X140007364Y-79680651D01*
X140007357Y-79680655D01*
X139833960Y-79788017D01*
X139833958Y-79788019D01*
X139683237Y-79925418D01*
X139560327Y-80088178D01*
X139469422Y-80270739D01*
X139469417Y-80270752D01*
X139413602Y-80466917D01*
X139394785Y-80669999D01*
X139394785Y-80670000D01*
X138325500Y-80670000D01*
X138325500Y-73300000D01*
X139169364Y-73300000D01*
X139226567Y-73513486D01*
X139226570Y-73513492D01*
X139326399Y-73727578D01*
X139461894Y-73921082D01*
X139628917Y-74088105D01*
X139822421Y-74223600D01*
X140036507Y-74323429D01*
X140036516Y-74323433D01*
X140075583Y-74333901D01*
X140135244Y-74370266D01*
X140165773Y-74433113D01*
X140157479Y-74502488D01*
X140112993Y-74556366D01*
X140088284Y-74569302D01*
X140007373Y-74600647D01*
X140007357Y-74600655D01*
X139833960Y-74708017D01*
X139833958Y-74708019D01*
X139683237Y-74845418D01*
X139560327Y-75008178D01*
X139469422Y-75190739D01*
X139469417Y-75190752D01*
X139413602Y-75386917D01*
X139394785Y-75589999D01*
X139394785Y-75590000D01*
X139413602Y-75793082D01*
X139469417Y-75989247D01*
X139469422Y-75989260D01*
X139560327Y-76171821D01*
X139683237Y-76334581D01*
X139833958Y-76471980D01*
X139833960Y-76471982D01*
X139843260Y-76477740D01*
X140007363Y-76579348D01*
X140197544Y-76653024D01*
X140398024Y-76690500D01*
X140398026Y-76690500D01*
X140601974Y-76690500D01*
X140601976Y-76690500D01*
X140802456Y-76653024D01*
X140992637Y-76579348D01*
X141166041Y-76471981D01*
X141307936Y-76342627D01*
X141316762Y-76334581D01*
X141316764Y-76334579D01*
X141439673Y-76171821D01*
X141530582Y-75989250D01*
X141586397Y-75793083D01*
X141605215Y-75590000D01*
X141586397Y-75386917D01*
X141530582Y-75190750D01*
X141528200Y-75185967D01*
X141486054Y-75101326D01*
X141439673Y-75008179D01*
X141316764Y-74845421D01*
X141316762Y-74845418D01*
X141166041Y-74708019D01*
X141166039Y-74708017D01*
X140992642Y-74600655D01*
X140992635Y-74600651D01*
X140935737Y-74578609D01*
X140911714Y-74569302D01*
X140856313Y-74526730D01*
X140832723Y-74460963D01*
X140848434Y-74392883D01*
X140898458Y-74344104D01*
X140924417Y-74333901D01*
X140963481Y-74323434D01*
X140963492Y-74323429D01*
X141177578Y-74223600D01*
X141371082Y-74088105D01*
X141538105Y-73921082D01*
X141673600Y-73727578D01*
X141773429Y-73513492D01*
X141773432Y-73513486D01*
X141830636Y-73300000D01*
X141113347Y-73300000D01*
X141046308Y-73280315D01*
X141000553Y-73227511D01*
X140990609Y-73158353D01*
X140994369Y-73141067D01*
X141000000Y-73121888D01*
X141000000Y-72978111D01*
X140994369Y-72958933D01*
X140994370Y-72889064D01*
X141032145Y-72830286D01*
X141095701Y-72801262D01*
X141113347Y-72800000D01*
X141830636Y-72800000D01*
X141830635Y-72799999D01*
X141773432Y-72586513D01*
X141773429Y-72586507D01*
X141673600Y-72372422D01*
X141673599Y-72372420D01*
X141538113Y-72178926D01*
X141538108Y-72178920D01*
X141371082Y-72011894D01*
X141177578Y-71876399D01*
X140963492Y-71776570D01*
X140963477Y-71776564D01*
X140924414Y-71766097D01*
X140864754Y-71729732D01*
X140834226Y-71666885D01*
X140842521Y-71597509D01*
X140887007Y-71543632D01*
X140911710Y-71530698D01*
X140992637Y-71499348D01*
X141166041Y-71391981D01*
X141294122Y-71275219D01*
X141316762Y-71254581D01*
X141316764Y-71254579D01*
X141439673Y-71091821D01*
X141530582Y-70909250D01*
X141586397Y-70713083D01*
X141605215Y-70510000D01*
X141598228Y-70434602D01*
X141586397Y-70306917D01*
X141576852Y-70273371D01*
X141530582Y-70110750D01*
X141439673Y-69928179D01*
X141324240Y-69775321D01*
X141316762Y-69765418D01*
X141166041Y-69628019D01*
X141166039Y-69628017D01*
X140992642Y-69520655D01*
X140992635Y-69520651D01*
X140888130Y-69480166D01*
X140802456Y-69446976D01*
X140601976Y-69409500D01*
X140398024Y-69409500D01*
X140197544Y-69446976D01*
X140197541Y-69446976D01*
X140197541Y-69446977D01*
X140007364Y-69520651D01*
X140007357Y-69520655D01*
X139833960Y-69628017D01*
X139833958Y-69628019D01*
X139683237Y-69765418D01*
X139560327Y-69928178D01*
X139469422Y-70110739D01*
X139469417Y-70110752D01*
X139413602Y-70306917D01*
X139394785Y-70509999D01*
X139394785Y-70510000D01*
X139413602Y-70713082D01*
X139469417Y-70909247D01*
X139469422Y-70909260D01*
X139560327Y-71091821D01*
X139683237Y-71254581D01*
X139833958Y-71391980D01*
X139833960Y-71391982D01*
X139838431Y-71394750D01*
X140007363Y-71499348D01*
X140088283Y-71530696D01*
X140143685Y-71573269D01*
X140167276Y-71639035D01*
X140151565Y-71707116D01*
X140101542Y-71755895D01*
X140075586Y-71766097D01*
X140036519Y-71776565D01*
X140036507Y-71776570D01*
X139822422Y-71876399D01*
X139822420Y-71876400D01*
X139628926Y-72011886D01*
X139628920Y-72011891D01*
X139461891Y-72178920D01*
X139461886Y-72178926D01*
X139326400Y-72372420D01*
X139326399Y-72372422D01*
X139226570Y-72586507D01*
X139226567Y-72586513D01*
X139169364Y-72799999D01*
X139169364Y-72800000D01*
X139886653Y-72800000D01*
X139953692Y-72819685D01*
X139999447Y-72872489D01*
X140009391Y-72941647D01*
X140005631Y-72958933D01*
X140000000Y-72978111D01*
X140000000Y-73121888D01*
X140005631Y-73141067D01*
X140005630Y-73210936D01*
X139967855Y-73269714D01*
X139904299Y-73298738D01*
X139886653Y-73300000D01*
X139169364Y-73300000D01*
X138325500Y-73300000D01*
X138325500Y-67970000D01*
X139394785Y-67970000D01*
X139413602Y-68173082D01*
X139469417Y-68369247D01*
X139469422Y-68369260D01*
X139560327Y-68551821D01*
X139683237Y-68714581D01*
X139833958Y-68851980D01*
X139833960Y-68851982D01*
X139924410Y-68907986D01*
X140007363Y-68959348D01*
X140197544Y-69033024D01*
X140398024Y-69070500D01*
X140398026Y-69070500D01*
X140601974Y-69070500D01*
X140601976Y-69070500D01*
X140802456Y-69033024D01*
X140992637Y-68959348D01*
X141166041Y-68851981D01*
X141316764Y-68714579D01*
X141439673Y-68551821D01*
X141530582Y-68369250D01*
X141586397Y-68173083D01*
X141605215Y-67970000D01*
X141598112Y-67893350D01*
X141586397Y-67766917D01*
X141574378Y-67724674D01*
X141530582Y-67570750D01*
X141516589Y-67542649D01*
X141483875Y-67476950D01*
X141439673Y-67388179D01*
X141316764Y-67225421D01*
X141316762Y-67225418D01*
X141166041Y-67088019D01*
X141166039Y-67088017D01*
X140992642Y-66980655D01*
X140992635Y-66980651D01*
X140897546Y-66943814D01*
X140802456Y-66906976D01*
X140601976Y-66869500D01*
X140398024Y-66869500D01*
X140197544Y-66906976D01*
X140197541Y-66906976D01*
X140197541Y-66906977D01*
X140007364Y-66980651D01*
X140007357Y-66980655D01*
X139833960Y-67088017D01*
X139833958Y-67088019D01*
X139683237Y-67225418D01*
X139560327Y-67388178D01*
X139469422Y-67570739D01*
X139469417Y-67570752D01*
X139413602Y-67766917D01*
X139394785Y-67969999D01*
X139394785Y-67970000D01*
X138325500Y-67970000D01*
X138325500Y-65430000D01*
X139394785Y-65430000D01*
X139413602Y-65633082D01*
X139469417Y-65829247D01*
X139469422Y-65829260D01*
X139560327Y-66011821D01*
X139683237Y-66174581D01*
X139833958Y-66311980D01*
X139833960Y-66311982D01*
X139924410Y-66367986D01*
X140007363Y-66419348D01*
X140197544Y-66493024D01*
X140398024Y-66530500D01*
X140398026Y-66530500D01*
X140601974Y-66530500D01*
X140601976Y-66530500D01*
X140802456Y-66493024D01*
X140992637Y-66419348D01*
X141166041Y-66311981D01*
X141316764Y-66174579D01*
X141439673Y-66011821D01*
X141530582Y-65829250D01*
X141586397Y-65633083D01*
X141605215Y-65430000D01*
X141600780Y-65382143D01*
X141586397Y-65226917D01*
X141582444Y-65213025D01*
X141530582Y-65030750D01*
X141529882Y-65029345D01*
X141471450Y-64911997D01*
X141439673Y-64848179D01*
X141346886Y-64725309D01*
X141316762Y-64685418D01*
X141166041Y-64548019D01*
X141166039Y-64548017D01*
X140992642Y-64440655D01*
X140992635Y-64440651D01*
X140808971Y-64369500D01*
X140802456Y-64366976D01*
X140601976Y-64329500D01*
X140398024Y-64329500D01*
X140197544Y-64366976D01*
X140197541Y-64366976D01*
X140197541Y-64366977D01*
X140007364Y-64440651D01*
X140007357Y-64440655D01*
X139833960Y-64548017D01*
X139833958Y-64548019D01*
X139683237Y-64685418D01*
X139560327Y-64848178D01*
X139469422Y-65030739D01*
X139469417Y-65030752D01*
X139413602Y-65226917D01*
X139394785Y-65429999D01*
X139394785Y-65430000D01*
X138325500Y-65430000D01*
X138325500Y-61224676D01*
X139399499Y-61224676D01*
X139399500Y-61224678D01*
X139414032Y-61297735D01*
X139414033Y-61297739D01*
X139414034Y-61297740D01*
X139469399Y-61380601D01*
X139552259Y-61435965D01*
X139552260Y-61435966D01*
X139552264Y-61435967D01*
X139625321Y-61450499D01*
X139625324Y-61450500D01*
X139625326Y-61450500D01*
X141374676Y-61450500D01*
X141374677Y-61450499D01*
X141447740Y-61435966D01*
X141530601Y-61380601D01*
X141585966Y-61297740D01*
X141600500Y-61224674D01*
X141600500Y-59475326D01*
X141600500Y-59475325D01*
X141600500Y-59475323D01*
X141600499Y-59475321D01*
X141585967Y-59402264D01*
X141585966Y-59402260D01*
X141585966Y-59402259D01*
X141530601Y-59319399D01*
X141464640Y-59275326D01*
X141447739Y-59264033D01*
X141447735Y-59264032D01*
X141374677Y-59249500D01*
X141374674Y-59249500D01*
X139625326Y-59249500D01*
X139625323Y-59249500D01*
X139552264Y-59264032D01*
X139552260Y-59264033D01*
X139469399Y-59319399D01*
X139414033Y-59402260D01*
X139414032Y-59402264D01*
X139399500Y-59475321D01*
X139399499Y-59475323D01*
X139399499Y-61224676D01*
X138325500Y-61224676D01*
X138325500Y-58324500D01*
X138345185Y-58257461D01*
X138397989Y-58211706D01*
X138449500Y-58200500D01*
X168250500Y-58200500D01*
X168317539Y-58220185D01*
G37*
G04 #@! TD.AperFunction*
M02*
