M48
; DRILL file {KiCad 7.0.7} date Tue Apr  2 13:03:37 2024
; FORMAT={-:-/ absolute / metric / decimal}
; #@! TF.CreationDate,2024-04-02T13:03:37-04:00
; #@! TF.GenerationSoftware,Kicad,Pcbnew,7.0.7
; #@! TF.FileFunction,Plated,1,2,PTH
FMAT,2
METRIC
; #@! TA.AperFunction,Plated,PTH,ViaDrill
T1C0.300
; #@! TA.AperFunction,Plated,PTH,ComponentDrill
T2C0.300
; #@! TA.AperFunction,Plated,PTH,ComponentDrill
T3C0.600
; #@! TA.AperFunction,Plated,PTH,ComponentDrill
T4C1.000
%
G90
G05
T1
X143.4Y-74.7
X146.8Y-69.4
X147.1Y-73.1
X147.2Y-59.5
X147.2Y-77.3
X147.621Y-60.364
X149.0Y-59.6
X149.9Y-60.675
X150.25Y-72.95
X150.4Y-77.3
X151.2Y-74.0
X154.4Y-80.375
X154.5Y-71.4
X154.8Y-78.675
X155.8Y-70.0
X156.7Y-62.0
X156.925Y-77.475
X157.206Y-72.694
X157.3Y-79.987
X157.8Y-62.2
X158.5Y-63.6
X158.6Y-65.0
X159.4Y-62.2
X159.854Y-67.977
X160.0Y-60.3
X163.51Y-64.2
X163.7Y-59.2
T2
X151.5Y-65.4
X151.5Y-66.5
X152.05Y-64.85
X152.05Y-65.95
X152.05Y-67.05
X152.6Y-65.4
X152.6Y-66.5
X153.15Y-64.85
X153.15Y-65.95
X153.15Y-67.05
X153.7Y-65.4
X153.7Y-66.5
T4
X140.5Y-60.35
X140.5Y-62.89
X140.5Y-65.43
X140.5Y-67.97
X140.5Y-70.51
X140.5Y-73.05
X140.5Y-75.59
X140.5Y-78.13
X140.5Y-80.67
X166.2Y-60.39
X166.2Y-62.93
X166.2Y-65.47
X166.2Y-68.01
X166.2Y-70.55
X166.2Y-73.09
X166.2Y-75.63
X166.2Y-78.17
X166.2Y-80.71
T3
X144.58Y-77.12G85X144.58Y-76.02
G05
X144.58Y-81.05G85X144.58Y-80.45
G05
X153.22Y-77.12G85X153.22Y-76.02
G05
X153.22Y-81.05G85X153.22Y-80.45
G05
T0
M30
