G04 #@! TF.GenerationSoftware,KiCad,Pcbnew,7.0.7*
G04 #@! TF.CreationDate,2024-04-01T23:13:17-04:00*
G04 #@! TF.ProjectId,sensor_node,73656e73-6f72-45f6-9e6f-64652e6b6963,rev?*
G04 #@! TF.SameCoordinates,Original*
G04 #@! TF.FileFunction,Legend,Top*
G04 #@! TF.FilePolarity,Positive*
%FSLAX46Y46*%
G04 Gerber Fmt 4.6, Leading zero omitted, Abs format (unit mm)*
G04 Created by KiCad (PCBNEW 7.0.7) date 2024-04-01 23:13:17*
%MOMM*%
%LPD*%
G01*
G04 APERTURE LIST*
G04 Aperture macros list*
%AMRoundRect*
0 Rectangle with rounded corners*
0 $1 Rounding radius*
0 $2 $3 $4 $5 $6 $7 $8 $9 X,Y pos of 4 corners*
0 Add a 4 corners polygon primitive as box body*
4,1,4,$2,$3,$4,$5,$6,$7,$8,$9,$2,$3,0*
0 Add four circle primitives for the rounded corners*
1,1,$1+$1,$2,$3*
1,1,$1+$1,$4,$5*
1,1,$1+$1,$6,$7*
1,1,$1+$1,$8,$9*
0 Add four rect primitives between the rounded corners*
20,1,$1+$1,$2,$3,$4,$5,0*
20,1,$1+$1,$4,$5,$6,$7,0*
20,1,$1+$1,$6,$7,$8,$9,0*
20,1,$1+$1,$8,$9,$2,$3,0*%
G04 Aperture macros list end*
%ADD10C,0.150000*%
%ADD11C,0.100000*%
%ADD12C,0.120000*%
%ADD13RoundRect,0.250000X-0.325000X-0.650000X0.325000X-0.650000X0.325000X0.650000X-0.325000X0.650000X0*%
%ADD14RoundRect,0.225000X-0.225000X-0.250000X0.225000X-0.250000X0.225000X0.250000X-0.225000X0.250000X0*%
%ADD15R,1.700000X1.700000*%
%ADD16O,1.700000X1.700000*%
%ADD17RoundRect,0.200000X0.200000X0.275000X-0.200000X0.275000X-0.200000X-0.275000X0.200000X-0.275000X0*%
%ADD18RoundRect,0.200000X0.275000X-0.200000X0.275000X0.200000X-0.275000X0.200000X-0.275000X-0.200000X0*%
%ADD19RoundRect,0.150000X-0.150000X0.512500X-0.150000X-0.512500X0.150000X-0.512500X0.150000X0.512500X0*%
%ADD20RoundRect,0.225000X0.225000X0.250000X-0.225000X0.250000X-0.225000X-0.250000X0.225000X-0.250000X0*%
%ADD21RoundRect,0.200000X-0.200000X-0.275000X0.200000X-0.275000X0.200000X0.275000X-0.200000X0.275000X0*%
%ADD22RoundRect,0.150000X-0.150000X0.587500X-0.150000X-0.587500X0.150000X-0.587500X0.150000X0.587500X0*%
%ADD23RoundRect,0.250000X-0.250000X-0.500000X0.250000X-0.500000X0.250000X0.500000X-0.250000X0.500000X0*%
%ADD24C,0.650000*%
%ADD25O,1.000000X1.600000*%
%ADD26O,1.000000X2.100000*%
G04 APERTURE END LIST*
D10*
X141893922Y-80169819D02*
X142465350Y-80169819D01*
X142179636Y-81169819D02*
X142179636Y-80169819D01*
X142703446Y-80169819D02*
X143370112Y-81169819D01*
X143370112Y-80169819D02*
X142703446Y-81169819D01*
X142608207Y-78669819D02*
X142274874Y-78193628D01*
X142036779Y-78669819D02*
X142036779Y-77669819D01*
X142036779Y-77669819D02*
X142417731Y-77669819D01*
X142417731Y-77669819D02*
X142512969Y-77717438D01*
X142512969Y-77717438D02*
X142560588Y-77765057D01*
X142560588Y-77765057D02*
X142608207Y-77860295D01*
X142608207Y-77860295D02*
X142608207Y-78003152D01*
X142608207Y-78003152D02*
X142560588Y-78098390D01*
X142560588Y-78098390D02*
X142512969Y-78146009D01*
X142512969Y-78146009D02*
X142417731Y-78193628D01*
X142417731Y-78193628D02*
X142036779Y-78193628D01*
X142941541Y-77669819D02*
X143608207Y-78669819D01*
X143608207Y-77669819D02*
X142941541Y-78669819D01*
X141936779Y-76069819D02*
X141936779Y-75069819D01*
X142603445Y-75069819D02*
X142793921Y-75069819D01*
X142793921Y-75069819D02*
X142889159Y-75117438D01*
X142889159Y-75117438D02*
X142984397Y-75212676D01*
X142984397Y-75212676D02*
X143032016Y-75403152D01*
X143032016Y-75403152D02*
X143032016Y-75736485D01*
X143032016Y-75736485D02*
X142984397Y-75926961D01*
X142984397Y-75926961D02*
X142889159Y-76022200D01*
X142889159Y-76022200D02*
X142793921Y-76069819D01*
X142793921Y-76069819D02*
X142603445Y-76069819D01*
X142603445Y-76069819D02*
X142508207Y-76022200D01*
X142508207Y-76022200D02*
X142412969Y-75926961D01*
X142412969Y-75926961D02*
X142365350Y-75736485D01*
X142365350Y-75736485D02*
X142365350Y-75403152D01*
X142365350Y-75403152D02*
X142412969Y-75212676D01*
X142412969Y-75212676D02*
X142508207Y-75117438D01*
X142508207Y-75117438D02*
X142603445Y-75069819D01*
X143984397Y-76069819D02*
X143412969Y-76069819D01*
X143698683Y-76069819D02*
X143698683Y-75069819D01*
X143698683Y-75069819D02*
X143603445Y-75212676D01*
X143603445Y-75212676D02*
X143508207Y-75307914D01*
X143508207Y-75307914D02*
X143412969Y-75355533D01*
X144603445Y-75069819D02*
X144698683Y-75069819D01*
X144698683Y-75069819D02*
X144793921Y-75117438D01*
X144793921Y-75117438D02*
X144841540Y-75165057D01*
X144841540Y-75165057D02*
X144889159Y-75260295D01*
X144889159Y-75260295D02*
X144936778Y-75450771D01*
X144936778Y-75450771D02*
X144936778Y-75688866D01*
X144936778Y-75688866D02*
X144889159Y-75879342D01*
X144889159Y-75879342D02*
X144841540Y-75974580D01*
X144841540Y-75974580D02*
X144793921Y-76022200D01*
X144793921Y-76022200D02*
X144698683Y-76069819D01*
X144698683Y-76069819D02*
X144603445Y-76069819D01*
X144603445Y-76069819D02*
X144508207Y-76022200D01*
X144508207Y-76022200D02*
X144460588Y-75974580D01*
X144460588Y-75974580D02*
X144412969Y-75879342D01*
X144412969Y-75879342D02*
X144365350Y-75688866D01*
X144365350Y-75688866D02*
X144365350Y-75450771D01*
X144365350Y-75450771D02*
X144412969Y-75260295D01*
X144412969Y-75260295D02*
X144460588Y-75165057D01*
X144460588Y-75165057D02*
X144508207Y-75117438D01*
X144508207Y-75117438D02*
X144603445Y-75069819D01*
X142460588Y-72617438D02*
X142365350Y-72569819D01*
X142365350Y-72569819D02*
X142222493Y-72569819D01*
X142222493Y-72569819D02*
X142079636Y-72617438D01*
X142079636Y-72617438D02*
X141984398Y-72712676D01*
X141984398Y-72712676D02*
X141936779Y-72807914D01*
X141936779Y-72807914D02*
X141889160Y-72998390D01*
X141889160Y-72998390D02*
X141889160Y-73141247D01*
X141889160Y-73141247D02*
X141936779Y-73331723D01*
X141936779Y-73331723D02*
X141984398Y-73426961D01*
X141984398Y-73426961D02*
X142079636Y-73522200D01*
X142079636Y-73522200D02*
X142222493Y-73569819D01*
X142222493Y-73569819D02*
X142317731Y-73569819D01*
X142317731Y-73569819D02*
X142460588Y-73522200D01*
X142460588Y-73522200D02*
X142508207Y-73474580D01*
X142508207Y-73474580D02*
X142508207Y-73141247D01*
X142508207Y-73141247D02*
X142317731Y-73141247D01*
X142936779Y-73569819D02*
X142936779Y-72569819D01*
X142936779Y-72569819D02*
X143508207Y-73569819D01*
X143508207Y-73569819D02*
X143508207Y-72569819D01*
X143984398Y-73569819D02*
X143984398Y-72569819D01*
X143984398Y-72569819D02*
X144222493Y-72569819D01*
X144222493Y-72569819D02*
X144365350Y-72617438D01*
X144365350Y-72617438D02*
X144460588Y-72712676D01*
X144460588Y-72712676D02*
X144508207Y-72807914D01*
X144508207Y-72807914D02*
X144555826Y-72998390D01*
X144555826Y-72998390D02*
X144555826Y-73141247D01*
X144555826Y-73141247D02*
X144508207Y-73331723D01*
X144508207Y-73331723D02*
X144460588Y-73426961D01*
X144460588Y-73426961D02*
X144365350Y-73522200D01*
X144365350Y-73522200D02*
X144222493Y-73569819D01*
X144222493Y-73569819D02*
X143984398Y-73569819D01*
X141836779Y-70969819D02*
X141836779Y-69969819D01*
X141836779Y-69969819D02*
X142170112Y-70684104D01*
X142170112Y-70684104D02*
X142503445Y-69969819D01*
X142503445Y-69969819D02*
X142503445Y-70969819D01*
X142979636Y-70969819D02*
X142979636Y-69969819D01*
X143408207Y-70922200D02*
X143551064Y-70969819D01*
X143551064Y-70969819D02*
X143789159Y-70969819D01*
X143789159Y-70969819D02*
X143884397Y-70922200D01*
X143884397Y-70922200D02*
X143932016Y-70874580D01*
X143932016Y-70874580D02*
X143979635Y-70779342D01*
X143979635Y-70779342D02*
X143979635Y-70684104D01*
X143979635Y-70684104D02*
X143932016Y-70588866D01*
X143932016Y-70588866D02*
X143884397Y-70541247D01*
X143884397Y-70541247D02*
X143789159Y-70493628D01*
X143789159Y-70493628D02*
X143598683Y-70446009D01*
X143598683Y-70446009D02*
X143503445Y-70398390D01*
X143503445Y-70398390D02*
X143455826Y-70350771D01*
X143455826Y-70350771D02*
X143408207Y-70255533D01*
X143408207Y-70255533D02*
X143408207Y-70160295D01*
X143408207Y-70160295D02*
X143455826Y-70065057D01*
X143455826Y-70065057D02*
X143503445Y-70017438D01*
X143503445Y-70017438D02*
X143598683Y-69969819D01*
X143598683Y-69969819D02*
X143836778Y-69969819D01*
X143836778Y-69969819D02*
X143979635Y-70017438D01*
X144598683Y-69969819D02*
X144789159Y-69969819D01*
X144789159Y-69969819D02*
X144884397Y-70017438D01*
X144884397Y-70017438D02*
X144979635Y-70112676D01*
X144979635Y-70112676D02*
X145027254Y-70303152D01*
X145027254Y-70303152D02*
X145027254Y-70636485D01*
X145027254Y-70636485D02*
X144979635Y-70826961D01*
X144979635Y-70826961D02*
X144884397Y-70922200D01*
X144884397Y-70922200D02*
X144789159Y-70969819D01*
X144789159Y-70969819D02*
X144598683Y-70969819D01*
X144598683Y-70969819D02*
X144503445Y-70922200D01*
X144503445Y-70922200D02*
X144408207Y-70826961D01*
X144408207Y-70826961D02*
X144360588Y-70636485D01*
X144360588Y-70636485D02*
X144360588Y-70303152D01*
X144360588Y-70303152D02*
X144408207Y-70112676D01*
X144408207Y-70112676D02*
X144503445Y-70017438D01*
X144503445Y-70017438D02*
X144598683Y-69969819D01*
X141789160Y-68422200D02*
X141932017Y-68469819D01*
X141932017Y-68469819D02*
X142170112Y-68469819D01*
X142170112Y-68469819D02*
X142265350Y-68422200D01*
X142265350Y-68422200D02*
X142312969Y-68374580D01*
X142312969Y-68374580D02*
X142360588Y-68279342D01*
X142360588Y-68279342D02*
X142360588Y-68184104D01*
X142360588Y-68184104D02*
X142312969Y-68088866D01*
X142312969Y-68088866D02*
X142265350Y-68041247D01*
X142265350Y-68041247D02*
X142170112Y-67993628D01*
X142170112Y-67993628D02*
X141979636Y-67946009D01*
X141979636Y-67946009D02*
X141884398Y-67898390D01*
X141884398Y-67898390D02*
X141836779Y-67850771D01*
X141836779Y-67850771D02*
X141789160Y-67755533D01*
X141789160Y-67755533D02*
X141789160Y-67660295D01*
X141789160Y-67660295D02*
X141836779Y-67565057D01*
X141836779Y-67565057D02*
X141884398Y-67517438D01*
X141884398Y-67517438D02*
X141979636Y-67469819D01*
X141979636Y-67469819D02*
X142217731Y-67469819D01*
X142217731Y-67469819D02*
X142360588Y-67517438D01*
X143360588Y-68374580D02*
X143312969Y-68422200D01*
X143312969Y-68422200D02*
X143170112Y-68469819D01*
X143170112Y-68469819D02*
X143074874Y-68469819D01*
X143074874Y-68469819D02*
X142932017Y-68422200D01*
X142932017Y-68422200D02*
X142836779Y-68326961D01*
X142836779Y-68326961D02*
X142789160Y-68231723D01*
X142789160Y-68231723D02*
X142741541Y-68041247D01*
X142741541Y-68041247D02*
X142741541Y-67898390D01*
X142741541Y-67898390D02*
X142789160Y-67707914D01*
X142789160Y-67707914D02*
X142836779Y-67612676D01*
X142836779Y-67612676D02*
X142932017Y-67517438D01*
X142932017Y-67517438D02*
X143074874Y-67469819D01*
X143074874Y-67469819D02*
X143170112Y-67469819D01*
X143170112Y-67469819D02*
X143312969Y-67517438D01*
X143312969Y-67517438D02*
X143360588Y-67565057D01*
X143789160Y-68469819D02*
X143789160Y-67469819D01*
X144360588Y-68469819D02*
X143932017Y-67898390D01*
X144360588Y-67469819D02*
X143789160Y-68041247D01*
X141836779Y-65869819D02*
X141836779Y-64869819D01*
X141836779Y-64869819D02*
X142170112Y-65584104D01*
X142170112Y-65584104D02*
X142503445Y-64869819D01*
X142503445Y-64869819D02*
X142503445Y-65869819D01*
X143170112Y-64869819D02*
X143360588Y-64869819D01*
X143360588Y-64869819D02*
X143455826Y-64917438D01*
X143455826Y-64917438D02*
X143551064Y-65012676D01*
X143551064Y-65012676D02*
X143598683Y-65203152D01*
X143598683Y-65203152D02*
X143598683Y-65536485D01*
X143598683Y-65536485D02*
X143551064Y-65726961D01*
X143551064Y-65726961D02*
X143455826Y-65822200D01*
X143455826Y-65822200D02*
X143360588Y-65869819D01*
X143360588Y-65869819D02*
X143170112Y-65869819D01*
X143170112Y-65869819D02*
X143074874Y-65822200D01*
X143074874Y-65822200D02*
X142979636Y-65726961D01*
X142979636Y-65726961D02*
X142932017Y-65536485D01*
X142932017Y-65536485D02*
X142932017Y-65203152D01*
X142932017Y-65203152D02*
X142979636Y-65012676D01*
X142979636Y-65012676D02*
X143074874Y-64917438D01*
X143074874Y-64917438D02*
X143170112Y-64869819D01*
X143979636Y-65822200D02*
X144122493Y-65869819D01*
X144122493Y-65869819D02*
X144360588Y-65869819D01*
X144360588Y-65869819D02*
X144455826Y-65822200D01*
X144455826Y-65822200D02*
X144503445Y-65774580D01*
X144503445Y-65774580D02*
X144551064Y-65679342D01*
X144551064Y-65679342D02*
X144551064Y-65584104D01*
X144551064Y-65584104D02*
X144503445Y-65488866D01*
X144503445Y-65488866D02*
X144455826Y-65441247D01*
X144455826Y-65441247D02*
X144360588Y-65393628D01*
X144360588Y-65393628D02*
X144170112Y-65346009D01*
X144170112Y-65346009D02*
X144074874Y-65298390D01*
X144074874Y-65298390D02*
X144027255Y-65250771D01*
X144027255Y-65250771D02*
X143979636Y-65155533D01*
X143979636Y-65155533D02*
X143979636Y-65060295D01*
X143979636Y-65060295D02*
X144027255Y-64965057D01*
X144027255Y-64965057D02*
X144074874Y-64917438D01*
X144074874Y-64917438D02*
X144170112Y-64869819D01*
X144170112Y-64869819D02*
X144408207Y-64869819D01*
X144408207Y-64869819D02*
X144551064Y-64917438D01*
X144979636Y-65869819D02*
X144979636Y-64869819D01*
X142408207Y-63374580D02*
X142360588Y-63422200D01*
X142360588Y-63422200D02*
X142217731Y-63469819D01*
X142217731Y-63469819D02*
X142122493Y-63469819D01*
X142122493Y-63469819D02*
X141979636Y-63422200D01*
X141979636Y-63422200D02*
X141884398Y-63326961D01*
X141884398Y-63326961D02*
X141836779Y-63231723D01*
X141836779Y-63231723D02*
X141789160Y-63041247D01*
X141789160Y-63041247D02*
X141789160Y-62898390D01*
X141789160Y-62898390D02*
X141836779Y-62707914D01*
X141836779Y-62707914D02*
X141884398Y-62612676D01*
X141884398Y-62612676D02*
X141979636Y-62517438D01*
X141979636Y-62517438D02*
X142122493Y-62469819D01*
X142122493Y-62469819D02*
X142217731Y-62469819D01*
X142217731Y-62469819D02*
X142360588Y-62517438D01*
X142360588Y-62517438D02*
X142408207Y-62565057D01*
X142789160Y-63422200D02*
X142932017Y-63469819D01*
X142932017Y-63469819D02*
X143170112Y-63469819D01*
X143170112Y-63469819D02*
X143265350Y-63422200D01*
X143265350Y-63422200D02*
X143312969Y-63374580D01*
X143312969Y-63374580D02*
X143360588Y-63279342D01*
X143360588Y-63279342D02*
X143360588Y-63184104D01*
X143360588Y-63184104D02*
X143312969Y-63088866D01*
X143312969Y-63088866D02*
X143265350Y-63041247D01*
X143265350Y-63041247D02*
X143170112Y-62993628D01*
X143170112Y-62993628D02*
X142979636Y-62946009D01*
X142979636Y-62946009D02*
X142884398Y-62898390D01*
X142884398Y-62898390D02*
X142836779Y-62850771D01*
X142836779Y-62850771D02*
X142789160Y-62755533D01*
X142789160Y-62755533D02*
X142789160Y-62660295D01*
X142789160Y-62660295D02*
X142836779Y-62565057D01*
X142836779Y-62565057D02*
X142884398Y-62517438D01*
X142884398Y-62517438D02*
X142979636Y-62469819D01*
X142979636Y-62469819D02*
X143217731Y-62469819D01*
X143217731Y-62469819D02*
X143360588Y-62517438D01*
X144312969Y-63469819D02*
X143741541Y-63469819D01*
X144027255Y-63469819D02*
X144027255Y-62469819D01*
X144027255Y-62469819D02*
X143932017Y-62612676D01*
X143932017Y-62612676D02*
X143836779Y-62707914D01*
X143836779Y-62707914D02*
X143741541Y-62755533D01*
X141641541Y-59869819D02*
X142260588Y-59869819D01*
X142260588Y-59869819D02*
X141927255Y-60250771D01*
X141927255Y-60250771D02*
X142070112Y-60250771D01*
X142070112Y-60250771D02*
X142165350Y-60298390D01*
X142165350Y-60298390D02*
X142212969Y-60346009D01*
X142212969Y-60346009D02*
X142260588Y-60441247D01*
X142260588Y-60441247D02*
X142260588Y-60679342D01*
X142260588Y-60679342D02*
X142212969Y-60774580D01*
X142212969Y-60774580D02*
X142165350Y-60822200D01*
X142165350Y-60822200D02*
X142070112Y-60869819D01*
X142070112Y-60869819D02*
X141784398Y-60869819D01*
X141784398Y-60869819D02*
X141689160Y-60822200D01*
X141689160Y-60822200D02*
X141641541Y-60774580D01*
X142689160Y-60774580D02*
X142736779Y-60822200D01*
X142736779Y-60822200D02*
X142689160Y-60869819D01*
X142689160Y-60869819D02*
X142641541Y-60822200D01*
X142641541Y-60822200D02*
X142689160Y-60774580D01*
X142689160Y-60774580D02*
X142689160Y-60869819D01*
X143070112Y-59869819D02*
X143689159Y-59869819D01*
X143689159Y-59869819D02*
X143355826Y-60250771D01*
X143355826Y-60250771D02*
X143498683Y-60250771D01*
X143498683Y-60250771D02*
X143593921Y-60298390D01*
X143593921Y-60298390D02*
X143641540Y-60346009D01*
X143641540Y-60346009D02*
X143689159Y-60441247D01*
X143689159Y-60441247D02*
X143689159Y-60679342D01*
X143689159Y-60679342D02*
X143641540Y-60774580D01*
X143641540Y-60774580D02*
X143593921Y-60822200D01*
X143593921Y-60822200D02*
X143498683Y-60869819D01*
X143498683Y-60869819D02*
X143212969Y-60869819D01*
X143212969Y-60869819D02*
X143117731Y-60822200D01*
X143117731Y-60822200D02*
X143070112Y-60774580D01*
X143974874Y-59869819D02*
X144308207Y-60869819D01*
X144308207Y-60869819D02*
X144641540Y-59869819D01*
X162836779Y-81269819D02*
X162836779Y-80269819D01*
X163503445Y-80269819D02*
X163693921Y-80269819D01*
X163693921Y-80269819D02*
X163789159Y-80317438D01*
X163789159Y-80317438D02*
X163884397Y-80412676D01*
X163884397Y-80412676D02*
X163932016Y-80603152D01*
X163932016Y-80603152D02*
X163932016Y-80936485D01*
X163932016Y-80936485D02*
X163884397Y-81126961D01*
X163884397Y-81126961D02*
X163789159Y-81222200D01*
X163789159Y-81222200D02*
X163693921Y-81269819D01*
X163693921Y-81269819D02*
X163503445Y-81269819D01*
X163503445Y-81269819D02*
X163408207Y-81222200D01*
X163408207Y-81222200D02*
X163312969Y-81126961D01*
X163312969Y-81126961D02*
X163265350Y-80936485D01*
X163265350Y-80936485D02*
X163265350Y-80603152D01*
X163265350Y-80603152D02*
X163312969Y-80412676D01*
X163312969Y-80412676D02*
X163408207Y-80317438D01*
X163408207Y-80317438D02*
X163503445Y-80269819D01*
X164408207Y-81269819D02*
X164598683Y-81269819D01*
X164598683Y-81269819D02*
X164693921Y-81222200D01*
X164693921Y-81222200D02*
X164741540Y-81174580D01*
X164741540Y-81174580D02*
X164836778Y-81031723D01*
X164836778Y-81031723D02*
X164884397Y-80841247D01*
X164884397Y-80841247D02*
X164884397Y-80460295D01*
X164884397Y-80460295D02*
X164836778Y-80365057D01*
X164836778Y-80365057D02*
X164789159Y-80317438D01*
X164789159Y-80317438D02*
X164693921Y-80269819D01*
X164693921Y-80269819D02*
X164503445Y-80269819D01*
X164503445Y-80269819D02*
X164408207Y-80317438D01*
X164408207Y-80317438D02*
X164360588Y-80365057D01*
X164360588Y-80365057D02*
X164312969Y-80460295D01*
X164312969Y-80460295D02*
X164312969Y-80698390D01*
X164312969Y-80698390D02*
X164360588Y-80793628D01*
X164360588Y-80793628D02*
X164408207Y-80841247D01*
X164408207Y-80841247D02*
X164503445Y-80888866D01*
X164503445Y-80888866D02*
X164693921Y-80888866D01*
X164693921Y-80888866D02*
X164789159Y-80841247D01*
X164789159Y-80841247D02*
X164836778Y-80793628D01*
X164836778Y-80793628D02*
X164884397Y-80698390D01*
X162870112Y-78246009D02*
X163012969Y-78293628D01*
X163012969Y-78293628D02*
X163060588Y-78341247D01*
X163060588Y-78341247D02*
X163108207Y-78436485D01*
X163108207Y-78436485D02*
X163108207Y-78579342D01*
X163108207Y-78579342D02*
X163060588Y-78674580D01*
X163060588Y-78674580D02*
X163012969Y-78722200D01*
X163012969Y-78722200D02*
X162917731Y-78769819D01*
X162917731Y-78769819D02*
X162536779Y-78769819D01*
X162536779Y-78769819D02*
X162536779Y-77769819D01*
X162536779Y-77769819D02*
X162870112Y-77769819D01*
X162870112Y-77769819D02*
X162965350Y-77817438D01*
X162965350Y-77817438D02*
X163012969Y-77865057D01*
X163012969Y-77865057D02*
X163060588Y-77960295D01*
X163060588Y-77960295D02*
X163060588Y-78055533D01*
X163060588Y-78055533D02*
X163012969Y-78150771D01*
X163012969Y-78150771D02*
X162965350Y-78198390D01*
X162965350Y-78198390D02*
X162870112Y-78246009D01*
X162870112Y-78246009D02*
X162536779Y-78246009D01*
X164012969Y-78769819D02*
X163536779Y-78769819D01*
X163536779Y-78769819D02*
X163536779Y-77769819D01*
X164346303Y-78769819D02*
X164346303Y-77769819D01*
X164917731Y-78769819D02*
X164489160Y-78198390D01*
X164917731Y-77769819D02*
X164346303Y-78341247D01*
X163108207Y-76074580D02*
X163060588Y-76122200D01*
X163060588Y-76122200D02*
X162917731Y-76169819D01*
X162917731Y-76169819D02*
X162822493Y-76169819D01*
X162822493Y-76169819D02*
X162679636Y-76122200D01*
X162679636Y-76122200D02*
X162584398Y-76026961D01*
X162584398Y-76026961D02*
X162536779Y-75931723D01*
X162536779Y-75931723D02*
X162489160Y-75741247D01*
X162489160Y-75741247D02*
X162489160Y-75598390D01*
X162489160Y-75598390D02*
X162536779Y-75407914D01*
X162536779Y-75407914D02*
X162584398Y-75312676D01*
X162584398Y-75312676D02*
X162679636Y-75217438D01*
X162679636Y-75217438D02*
X162822493Y-75169819D01*
X162822493Y-75169819D02*
X162917731Y-75169819D01*
X162917731Y-75169819D02*
X163060588Y-75217438D01*
X163060588Y-75217438D02*
X163108207Y-75265057D01*
X163489160Y-76122200D02*
X163632017Y-76169819D01*
X163632017Y-76169819D02*
X163870112Y-76169819D01*
X163870112Y-76169819D02*
X163965350Y-76122200D01*
X163965350Y-76122200D02*
X164012969Y-76074580D01*
X164012969Y-76074580D02*
X164060588Y-75979342D01*
X164060588Y-75979342D02*
X164060588Y-75884104D01*
X164060588Y-75884104D02*
X164012969Y-75788866D01*
X164012969Y-75788866D02*
X163965350Y-75741247D01*
X163965350Y-75741247D02*
X163870112Y-75693628D01*
X163870112Y-75693628D02*
X163679636Y-75646009D01*
X163679636Y-75646009D02*
X163584398Y-75598390D01*
X163584398Y-75598390D02*
X163536779Y-75550771D01*
X163536779Y-75550771D02*
X163489160Y-75455533D01*
X163489160Y-75455533D02*
X163489160Y-75360295D01*
X163489160Y-75360295D02*
X163536779Y-75265057D01*
X163536779Y-75265057D02*
X163584398Y-75217438D01*
X163584398Y-75217438D02*
X163679636Y-75169819D01*
X163679636Y-75169819D02*
X163917731Y-75169819D01*
X163917731Y-75169819D02*
X164060588Y-75217438D01*
X164679636Y-75169819D02*
X164774874Y-75169819D01*
X164774874Y-75169819D02*
X164870112Y-75217438D01*
X164870112Y-75217438D02*
X164917731Y-75265057D01*
X164917731Y-75265057D02*
X164965350Y-75360295D01*
X164965350Y-75360295D02*
X165012969Y-75550771D01*
X165012969Y-75550771D02*
X165012969Y-75788866D01*
X165012969Y-75788866D02*
X164965350Y-75979342D01*
X164965350Y-75979342D02*
X164917731Y-76074580D01*
X164917731Y-76074580D02*
X164870112Y-76122200D01*
X164870112Y-76122200D02*
X164774874Y-76169819D01*
X164774874Y-76169819D02*
X164679636Y-76169819D01*
X164679636Y-76169819D02*
X164584398Y-76122200D01*
X164584398Y-76122200D02*
X164536779Y-76074580D01*
X164536779Y-76074580D02*
X164489160Y-75979342D01*
X164489160Y-75979342D02*
X164441541Y-75788866D01*
X164441541Y-75788866D02*
X164441541Y-75550771D01*
X164441541Y-75550771D02*
X164489160Y-75360295D01*
X164489160Y-75360295D02*
X164536779Y-75265057D01*
X164536779Y-75265057D02*
X164584398Y-75217438D01*
X164584398Y-75217438D02*
X164679636Y-75169819D01*
X163489160Y-73284104D02*
X163965350Y-73284104D01*
X163393922Y-73569819D02*
X163727255Y-72569819D01*
X163727255Y-72569819D02*
X164060588Y-73569819D01*
X164584398Y-72569819D02*
X164774874Y-72569819D01*
X164774874Y-72569819D02*
X164870112Y-72617438D01*
X164870112Y-72617438D02*
X164965350Y-72712676D01*
X164965350Y-72712676D02*
X165012969Y-72903152D01*
X165012969Y-72903152D02*
X165012969Y-73236485D01*
X165012969Y-73236485D02*
X164965350Y-73426961D01*
X164965350Y-73426961D02*
X164870112Y-73522200D01*
X164870112Y-73522200D02*
X164774874Y-73569819D01*
X164774874Y-73569819D02*
X164584398Y-73569819D01*
X164584398Y-73569819D02*
X164489160Y-73522200D01*
X164489160Y-73522200D02*
X164393922Y-73426961D01*
X164393922Y-73426961D02*
X164346303Y-73236485D01*
X164346303Y-73236485D02*
X164346303Y-72903152D01*
X164346303Y-72903152D02*
X164393922Y-72712676D01*
X164393922Y-72712676D02*
X164489160Y-72617438D01*
X164489160Y-72617438D02*
X164584398Y-72569819D01*
X163108207Y-71069819D02*
X162774874Y-70593628D01*
X162536779Y-71069819D02*
X162536779Y-70069819D01*
X162536779Y-70069819D02*
X162917731Y-70069819D01*
X162917731Y-70069819D02*
X163012969Y-70117438D01*
X163012969Y-70117438D02*
X163060588Y-70165057D01*
X163060588Y-70165057D02*
X163108207Y-70260295D01*
X163108207Y-70260295D02*
X163108207Y-70403152D01*
X163108207Y-70403152D02*
X163060588Y-70498390D01*
X163060588Y-70498390D02*
X163012969Y-70546009D01*
X163012969Y-70546009D02*
X162917731Y-70593628D01*
X162917731Y-70593628D02*
X162536779Y-70593628D01*
X163536779Y-70546009D02*
X163870112Y-70546009D01*
X164012969Y-71069819D02*
X163536779Y-71069819D01*
X163536779Y-71069819D02*
X163536779Y-70069819D01*
X163536779Y-70069819D02*
X164012969Y-70069819D01*
X164393922Y-71022200D02*
X164536779Y-71069819D01*
X164536779Y-71069819D02*
X164774874Y-71069819D01*
X164774874Y-71069819D02*
X164870112Y-71022200D01*
X164870112Y-71022200D02*
X164917731Y-70974580D01*
X164917731Y-70974580D02*
X164965350Y-70879342D01*
X164965350Y-70879342D02*
X164965350Y-70784104D01*
X164965350Y-70784104D02*
X164917731Y-70688866D01*
X164917731Y-70688866D02*
X164870112Y-70641247D01*
X164870112Y-70641247D02*
X164774874Y-70593628D01*
X164774874Y-70593628D02*
X164584398Y-70546009D01*
X164584398Y-70546009D02*
X164489160Y-70498390D01*
X164489160Y-70498390D02*
X164441541Y-70450771D01*
X164441541Y-70450771D02*
X164393922Y-70355533D01*
X164393922Y-70355533D02*
X164393922Y-70260295D01*
X164393922Y-70260295D02*
X164441541Y-70165057D01*
X164441541Y-70165057D02*
X164489160Y-70117438D01*
X164489160Y-70117438D02*
X164584398Y-70069819D01*
X164584398Y-70069819D02*
X164822493Y-70069819D01*
X164822493Y-70069819D02*
X164965350Y-70117438D01*
X161836779Y-68569819D02*
X161836779Y-67569819D01*
X161836779Y-67569819D02*
X162170112Y-68284104D01*
X162170112Y-68284104D02*
X162503445Y-67569819D01*
X162503445Y-67569819D02*
X162503445Y-68569819D01*
X163170112Y-67569819D02*
X163360588Y-67569819D01*
X163360588Y-67569819D02*
X163455826Y-67617438D01*
X163455826Y-67617438D02*
X163551064Y-67712676D01*
X163551064Y-67712676D02*
X163598683Y-67903152D01*
X163598683Y-67903152D02*
X163598683Y-68236485D01*
X163598683Y-68236485D02*
X163551064Y-68426961D01*
X163551064Y-68426961D02*
X163455826Y-68522200D01*
X163455826Y-68522200D02*
X163360588Y-68569819D01*
X163360588Y-68569819D02*
X163170112Y-68569819D01*
X163170112Y-68569819D02*
X163074874Y-68522200D01*
X163074874Y-68522200D02*
X162979636Y-68426961D01*
X162979636Y-68426961D02*
X162932017Y-68236485D01*
X162932017Y-68236485D02*
X162932017Y-67903152D01*
X162932017Y-67903152D02*
X162979636Y-67712676D01*
X162979636Y-67712676D02*
X163074874Y-67617438D01*
X163074874Y-67617438D02*
X163170112Y-67569819D01*
X163979636Y-68522200D02*
X164122493Y-68569819D01*
X164122493Y-68569819D02*
X164360588Y-68569819D01*
X164360588Y-68569819D02*
X164455826Y-68522200D01*
X164455826Y-68522200D02*
X164503445Y-68474580D01*
X164503445Y-68474580D02*
X164551064Y-68379342D01*
X164551064Y-68379342D02*
X164551064Y-68284104D01*
X164551064Y-68284104D02*
X164503445Y-68188866D01*
X164503445Y-68188866D02*
X164455826Y-68141247D01*
X164455826Y-68141247D02*
X164360588Y-68093628D01*
X164360588Y-68093628D02*
X164170112Y-68046009D01*
X164170112Y-68046009D02*
X164074874Y-67998390D01*
X164074874Y-67998390D02*
X164027255Y-67950771D01*
X164027255Y-67950771D02*
X163979636Y-67855533D01*
X163979636Y-67855533D02*
X163979636Y-67760295D01*
X163979636Y-67760295D02*
X164027255Y-67665057D01*
X164027255Y-67665057D02*
X164074874Y-67617438D01*
X164074874Y-67617438D02*
X164170112Y-67569819D01*
X164170112Y-67569819D02*
X164408207Y-67569819D01*
X164408207Y-67569819D02*
X164551064Y-67617438D01*
X164979636Y-68569819D02*
X164979636Y-67569819D01*
X162489160Y-66022200D02*
X162632017Y-66069819D01*
X162632017Y-66069819D02*
X162870112Y-66069819D01*
X162870112Y-66069819D02*
X162965350Y-66022200D01*
X162965350Y-66022200D02*
X163012969Y-65974580D01*
X163012969Y-65974580D02*
X163060588Y-65879342D01*
X163060588Y-65879342D02*
X163060588Y-65784104D01*
X163060588Y-65784104D02*
X163012969Y-65688866D01*
X163012969Y-65688866D02*
X162965350Y-65641247D01*
X162965350Y-65641247D02*
X162870112Y-65593628D01*
X162870112Y-65593628D02*
X162679636Y-65546009D01*
X162679636Y-65546009D02*
X162584398Y-65498390D01*
X162584398Y-65498390D02*
X162536779Y-65450771D01*
X162536779Y-65450771D02*
X162489160Y-65355533D01*
X162489160Y-65355533D02*
X162489160Y-65260295D01*
X162489160Y-65260295D02*
X162536779Y-65165057D01*
X162536779Y-65165057D02*
X162584398Y-65117438D01*
X162584398Y-65117438D02*
X162679636Y-65069819D01*
X162679636Y-65069819D02*
X162917731Y-65069819D01*
X162917731Y-65069819D02*
X163060588Y-65117438D01*
X164060588Y-65974580D02*
X164012969Y-66022200D01*
X164012969Y-66022200D02*
X163870112Y-66069819D01*
X163870112Y-66069819D02*
X163774874Y-66069819D01*
X163774874Y-66069819D02*
X163632017Y-66022200D01*
X163632017Y-66022200D02*
X163536779Y-65926961D01*
X163536779Y-65926961D02*
X163489160Y-65831723D01*
X163489160Y-65831723D02*
X163441541Y-65641247D01*
X163441541Y-65641247D02*
X163441541Y-65498390D01*
X163441541Y-65498390D02*
X163489160Y-65307914D01*
X163489160Y-65307914D02*
X163536779Y-65212676D01*
X163536779Y-65212676D02*
X163632017Y-65117438D01*
X163632017Y-65117438D02*
X163774874Y-65069819D01*
X163774874Y-65069819D02*
X163870112Y-65069819D01*
X163870112Y-65069819D02*
X164012969Y-65117438D01*
X164012969Y-65117438D02*
X164060588Y-65165057D01*
X164489160Y-66069819D02*
X164489160Y-65069819D01*
X165060588Y-66069819D02*
X164632017Y-65498390D01*
X165060588Y-65069819D02*
X164489160Y-65641247D01*
X162970112Y-63046009D02*
X163112969Y-63093628D01*
X163112969Y-63093628D02*
X163160588Y-63141247D01*
X163160588Y-63141247D02*
X163208207Y-63236485D01*
X163208207Y-63236485D02*
X163208207Y-63379342D01*
X163208207Y-63379342D02*
X163160588Y-63474580D01*
X163160588Y-63474580D02*
X163112969Y-63522200D01*
X163112969Y-63522200D02*
X163017731Y-63569819D01*
X163017731Y-63569819D02*
X162636779Y-63569819D01*
X162636779Y-63569819D02*
X162636779Y-62569819D01*
X162636779Y-62569819D02*
X162970112Y-62569819D01*
X162970112Y-62569819D02*
X163065350Y-62617438D01*
X163065350Y-62617438D02*
X163112969Y-62665057D01*
X163112969Y-62665057D02*
X163160588Y-62760295D01*
X163160588Y-62760295D02*
X163160588Y-62855533D01*
X163160588Y-62855533D02*
X163112969Y-62950771D01*
X163112969Y-62950771D02*
X163065350Y-62998390D01*
X163065350Y-62998390D02*
X162970112Y-63046009D01*
X162970112Y-63046009D02*
X162636779Y-63046009D01*
X164112969Y-63569819D02*
X163636779Y-63569819D01*
X163636779Y-63569819D02*
X163636779Y-62569819D01*
X164446303Y-63569819D02*
X164446303Y-62569819D01*
X165017731Y-63569819D02*
X164589160Y-62998390D01*
X165017731Y-62569819D02*
X164446303Y-63141247D01*
X163160588Y-60017438D02*
X163065350Y-59969819D01*
X163065350Y-59969819D02*
X162922493Y-59969819D01*
X162922493Y-59969819D02*
X162779636Y-60017438D01*
X162779636Y-60017438D02*
X162684398Y-60112676D01*
X162684398Y-60112676D02*
X162636779Y-60207914D01*
X162636779Y-60207914D02*
X162589160Y-60398390D01*
X162589160Y-60398390D02*
X162589160Y-60541247D01*
X162589160Y-60541247D02*
X162636779Y-60731723D01*
X162636779Y-60731723D02*
X162684398Y-60826961D01*
X162684398Y-60826961D02*
X162779636Y-60922200D01*
X162779636Y-60922200D02*
X162922493Y-60969819D01*
X162922493Y-60969819D02*
X163017731Y-60969819D01*
X163017731Y-60969819D02*
X163160588Y-60922200D01*
X163160588Y-60922200D02*
X163208207Y-60874580D01*
X163208207Y-60874580D02*
X163208207Y-60541247D01*
X163208207Y-60541247D02*
X163017731Y-60541247D01*
X163636779Y-60969819D02*
X163636779Y-59969819D01*
X163636779Y-59969819D02*
X164208207Y-60969819D01*
X164208207Y-60969819D02*
X164208207Y-59969819D01*
X164684398Y-60969819D02*
X164684398Y-59969819D01*
X164684398Y-59969819D02*
X164922493Y-59969819D01*
X164922493Y-59969819D02*
X165065350Y-60017438D01*
X165065350Y-60017438D02*
X165160588Y-60112676D01*
X165160588Y-60112676D02*
X165208207Y-60207914D01*
X165208207Y-60207914D02*
X165255826Y-60398390D01*
X165255826Y-60398390D02*
X165255826Y-60541247D01*
X165255826Y-60541247D02*
X165208207Y-60731723D01*
X165208207Y-60731723D02*
X165160588Y-60826961D01*
X165160588Y-60826961D02*
X165065350Y-60922200D01*
X165065350Y-60922200D02*
X164922493Y-60969819D01*
X164922493Y-60969819D02*
X164684398Y-60969819D01*
X160758333Y-69659580D02*
X160710714Y-69707200D01*
X160710714Y-69707200D02*
X160567857Y-69754819D01*
X160567857Y-69754819D02*
X160472619Y-69754819D01*
X160472619Y-69754819D02*
X160329762Y-69707200D01*
X160329762Y-69707200D02*
X160234524Y-69611961D01*
X160234524Y-69611961D02*
X160186905Y-69516723D01*
X160186905Y-69516723D02*
X160139286Y-69326247D01*
X160139286Y-69326247D02*
X160139286Y-69183390D01*
X160139286Y-69183390D02*
X160186905Y-68992914D01*
X160186905Y-68992914D02*
X160234524Y-68897676D01*
X160234524Y-68897676D02*
X160329762Y-68802438D01*
X160329762Y-68802438D02*
X160472619Y-68754819D01*
X160472619Y-68754819D02*
X160567857Y-68754819D01*
X160567857Y-68754819D02*
X160710714Y-68802438D01*
X160710714Y-68802438D02*
X160758333Y-68850057D01*
X161615476Y-69088152D02*
X161615476Y-69754819D01*
X161377381Y-68707200D02*
X161139286Y-69421485D01*
X161139286Y-69421485D02*
X161758333Y-69421485D01*
X145833333Y-60029580D02*
X145785714Y-60077200D01*
X145785714Y-60077200D02*
X145642857Y-60124819D01*
X145642857Y-60124819D02*
X145547619Y-60124819D01*
X145547619Y-60124819D02*
X145404762Y-60077200D01*
X145404762Y-60077200D02*
X145309524Y-59981961D01*
X145309524Y-59981961D02*
X145261905Y-59886723D01*
X145261905Y-59886723D02*
X145214286Y-59696247D01*
X145214286Y-59696247D02*
X145214286Y-59553390D01*
X145214286Y-59553390D02*
X145261905Y-59362914D01*
X145261905Y-59362914D02*
X145309524Y-59267676D01*
X145309524Y-59267676D02*
X145404762Y-59172438D01*
X145404762Y-59172438D02*
X145547619Y-59124819D01*
X145547619Y-59124819D02*
X145642857Y-59124819D01*
X145642857Y-59124819D02*
X145785714Y-59172438D01*
X145785714Y-59172438D02*
X145833333Y-59220057D01*
X146166667Y-59124819D02*
X146785714Y-59124819D01*
X146785714Y-59124819D02*
X146452381Y-59505771D01*
X146452381Y-59505771D02*
X146595238Y-59505771D01*
X146595238Y-59505771D02*
X146690476Y-59553390D01*
X146690476Y-59553390D02*
X146738095Y-59601009D01*
X146738095Y-59601009D02*
X146785714Y-59696247D01*
X146785714Y-59696247D02*
X146785714Y-59934342D01*
X146785714Y-59934342D02*
X146738095Y-60029580D01*
X146738095Y-60029580D02*
X146690476Y-60077200D01*
X146690476Y-60077200D02*
X146595238Y-60124819D01*
X146595238Y-60124819D02*
X146309524Y-60124819D01*
X146309524Y-60124819D02*
X146214286Y-60077200D01*
X146214286Y-60077200D02*
X146166667Y-60029580D01*
X165866666Y-57514819D02*
X165866666Y-58229104D01*
X165866666Y-58229104D02*
X165819047Y-58371961D01*
X165819047Y-58371961D02*
X165723809Y-58467200D01*
X165723809Y-58467200D02*
X165580952Y-58514819D01*
X165580952Y-58514819D02*
X165485714Y-58514819D01*
X166866666Y-58514819D02*
X166295238Y-58514819D01*
X166580952Y-58514819D02*
X166580952Y-57514819D01*
X166580952Y-57514819D02*
X166485714Y-57657676D01*
X166485714Y-57657676D02*
X166390476Y-57752914D01*
X166390476Y-57752914D02*
X166295238Y-57800533D01*
X157308330Y-62484819D02*
X156974997Y-62008628D01*
X156736902Y-62484819D02*
X156736902Y-61484819D01*
X156736902Y-61484819D02*
X157117854Y-61484819D01*
X157117854Y-61484819D02*
X157213092Y-61532438D01*
X157213092Y-61532438D02*
X157260711Y-61580057D01*
X157260711Y-61580057D02*
X157308330Y-61675295D01*
X157308330Y-61675295D02*
X157308330Y-61818152D01*
X157308330Y-61818152D02*
X157260711Y-61913390D01*
X157260711Y-61913390D02*
X157213092Y-61961009D01*
X157213092Y-61961009D02*
X157117854Y-62008628D01*
X157117854Y-62008628D02*
X156736902Y-62008628D01*
X157641664Y-61484819D02*
X158260711Y-61484819D01*
X158260711Y-61484819D02*
X157927378Y-61865771D01*
X157927378Y-61865771D02*
X158070235Y-61865771D01*
X158070235Y-61865771D02*
X158165473Y-61913390D01*
X158165473Y-61913390D02*
X158213092Y-61961009D01*
X158213092Y-61961009D02*
X158260711Y-62056247D01*
X158260711Y-62056247D02*
X158260711Y-62294342D01*
X158260711Y-62294342D02*
X158213092Y-62389580D01*
X158213092Y-62389580D02*
X158165473Y-62437200D01*
X158165473Y-62437200D02*
X158070235Y-62484819D01*
X158070235Y-62484819D02*
X157784521Y-62484819D01*
X157784521Y-62484819D02*
X157689283Y-62437200D01*
X157689283Y-62437200D02*
X157641664Y-62389580D01*
X144324819Y-72166666D02*
X143848628Y-72499999D01*
X144324819Y-72738094D02*
X143324819Y-72738094D01*
X143324819Y-72738094D02*
X143324819Y-72357142D01*
X143324819Y-72357142D02*
X143372438Y-72261904D01*
X143372438Y-72261904D02*
X143420057Y-72214285D01*
X143420057Y-72214285D02*
X143515295Y-72166666D01*
X143515295Y-72166666D02*
X143658152Y-72166666D01*
X143658152Y-72166666D02*
X143753390Y-72214285D01*
X143753390Y-72214285D02*
X143801009Y-72261904D01*
X143801009Y-72261904D02*
X143848628Y-72357142D01*
X143848628Y-72357142D02*
X143848628Y-72738094D01*
X143324819Y-71833332D02*
X143324819Y-71166666D01*
X143324819Y-71166666D02*
X144324819Y-71595237D01*
X155124819Y-76041666D02*
X154648628Y-76374999D01*
X155124819Y-76613094D02*
X154124819Y-76613094D01*
X154124819Y-76613094D02*
X154124819Y-76232142D01*
X154124819Y-76232142D02*
X154172438Y-76136904D01*
X154172438Y-76136904D02*
X154220057Y-76089285D01*
X154220057Y-76089285D02*
X154315295Y-76041666D01*
X154315295Y-76041666D02*
X154458152Y-76041666D01*
X154458152Y-76041666D02*
X154553390Y-76089285D01*
X154553390Y-76089285D02*
X154601009Y-76136904D01*
X154601009Y-76136904D02*
X154648628Y-76232142D01*
X154648628Y-76232142D02*
X154648628Y-76613094D01*
X154458152Y-75184523D02*
X155124819Y-75184523D01*
X154077200Y-75422618D02*
X154791485Y-75660713D01*
X154791485Y-75660713D02*
X154791485Y-75041666D01*
X147954819Y-65324404D02*
X148764342Y-65324404D01*
X148764342Y-65324404D02*
X148859580Y-65276785D01*
X148859580Y-65276785D02*
X148907200Y-65229166D01*
X148907200Y-65229166D02*
X148954819Y-65133928D01*
X148954819Y-65133928D02*
X148954819Y-64943452D01*
X148954819Y-64943452D02*
X148907200Y-64848214D01*
X148907200Y-64848214D02*
X148859580Y-64800595D01*
X148859580Y-64800595D02*
X148764342Y-64752976D01*
X148764342Y-64752976D02*
X147954819Y-64752976D01*
X147954819Y-64372023D02*
X147954819Y-63752976D01*
X147954819Y-63752976D02*
X148335771Y-64086309D01*
X148335771Y-64086309D02*
X148335771Y-63943452D01*
X148335771Y-63943452D02*
X148383390Y-63848214D01*
X148383390Y-63848214D02*
X148431009Y-63800595D01*
X148431009Y-63800595D02*
X148526247Y-63752976D01*
X148526247Y-63752976D02*
X148764342Y-63752976D01*
X148764342Y-63752976D02*
X148859580Y-63800595D01*
X148859580Y-63800595D02*
X148907200Y-63848214D01*
X148907200Y-63848214D02*
X148954819Y-63943452D01*
X148954819Y-63943452D02*
X148954819Y-64229166D01*
X148954819Y-64229166D02*
X148907200Y-64324404D01*
X148907200Y-64324404D02*
X148859580Y-64372023D01*
X160758333Y-75559580D02*
X160710714Y-75607200D01*
X160710714Y-75607200D02*
X160567857Y-75654819D01*
X160567857Y-75654819D02*
X160472619Y-75654819D01*
X160472619Y-75654819D02*
X160329762Y-75607200D01*
X160329762Y-75607200D02*
X160234524Y-75511961D01*
X160234524Y-75511961D02*
X160186905Y-75416723D01*
X160186905Y-75416723D02*
X160139286Y-75226247D01*
X160139286Y-75226247D02*
X160139286Y-75083390D01*
X160139286Y-75083390D02*
X160186905Y-74892914D01*
X160186905Y-74892914D02*
X160234524Y-74797676D01*
X160234524Y-74797676D02*
X160329762Y-74702438D01*
X160329762Y-74702438D02*
X160472619Y-74654819D01*
X160472619Y-74654819D02*
X160567857Y-74654819D01*
X160567857Y-74654819D02*
X160710714Y-74702438D01*
X160710714Y-74702438D02*
X160758333Y-74750057D01*
X161615476Y-74654819D02*
X161425000Y-74654819D01*
X161425000Y-74654819D02*
X161329762Y-74702438D01*
X161329762Y-74702438D02*
X161282143Y-74750057D01*
X161282143Y-74750057D02*
X161186905Y-74892914D01*
X161186905Y-74892914D02*
X161139286Y-75083390D01*
X161139286Y-75083390D02*
X161139286Y-75464342D01*
X161139286Y-75464342D02*
X161186905Y-75559580D01*
X161186905Y-75559580D02*
X161234524Y-75607200D01*
X161234524Y-75607200D02*
X161329762Y-75654819D01*
X161329762Y-75654819D02*
X161520238Y-75654819D01*
X161520238Y-75654819D02*
X161615476Y-75607200D01*
X161615476Y-75607200D02*
X161663095Y-75559580D01*
X161663095Y-75559580D02*
X161710714Y-75464342D01*
X161710714Y-75464342D02*
X161710714Y-75226247D01*
X161710714Y-75226247D02*
X161663095Y-75131009D01*
X161663095Y-75131009D02*
X161615476Y-75083390D01*
X161615476Y-75083390D02*
X161520238Y-75035771D01*
X161520238Y-75035771D02*
X161329762Y-75035771D01*
X161329762Y-75035771D02*
X161234524Y-75083390D01*
X161234524Y-75083390D02*
X161186905Y-75131009D01*
X161186905Y-75131009D02*
X161139286Y-75226247D01*
X147524819Y-72166666D02*
X147048628Y-72499999D01*
X147524819Y-72738094D02*
X146524819Y-72738094D01*
X146524819Y-72738094D02*
X146524819Y-72357142D01*
X146524819Y-72357142D02*
X146572438Y-72261904D01*
X146572438Y-72261904D02*
X146620057Y-72214285D01*
X146620057Y-72214285D02*
X146715295Y-72166666D01*
X146715295Y-72166666D02*
X146858152Y-72166666D01*
X146858152Y-72166666D02*
X146953390Y-72214285D01*
X146953390Y-72214285D02*
X147001009Y-72261904D01*
X147001009Y-72261904D02*
X147048628Y-72357142D01*
X147048628Y-72357142D02*
X147048628Y-72738094D01*
X146524819Y-71261904D02*
X146524819Y-71738094D01*
X146524819Y-71738094D02*
X147001009Y-71785713D01*
X147001009Y-71785713D02*
X146953390Y-71738094D01*
X146953390Y-71738094D02*
X146905771Y-71642856D01*
X146905771Y-71642856D02*
X146905771Y-71404761D01*
X146905771Y-71404761D02*
X146953390Y-71309523D01*
X146953390Y-71309523D02*
X147001009Y-71261904D01*
X147001009Y-71261904D02*
X147096247Y-71214285D01*
X147096247Y-71214285D02*
X147334342Y-71214285D01*
X147334342Y-71214285D02*
X147429580Y-71261904D01*
X147429580Y-71261904D02*
X147477200Y-71309523D01*
X147477200Y-71309523D02*
X147524819Y-71404761D01*
X147524819Y-71404761D02*
X147524819Y-71642856D01*
X147524819Y-71642856D02*
X147477200Y-71738094D01*
X147477200Y-71738094D02*
X147429580Y-71785713D01*
X140166666Y-57474819D02*
X140166666Y-58189104D01*
X140166666Y-58189104D02*
X140119047Y-58331961D01*
X140119047Y-58331961D02*
X140023809Y-58427200D01*
X140023809Y-58427200D02*
X139880952Y-58474819D01*
X139880952Y-58474819D02*
X139785714Y-58474819D01*
X140595238Y-57570057D02*
X140642857Y-57522438D01*
X140642857Y-57522438D02*
X140738095Y-57474819D01*
X140738095Y-57474819D02*
X140976190Y-57474819D01*
X140976190Y-57474819D02*
X141071428Y-57522438D01*
X141071428Y-57522438D02*
X141119047Y-57570057D01*
X141119047Y-57570057D02*
X141166666Y-57665295D01*
X141166666Y-57665295D02*
X141166666Y-57760533D01*
X141166666Y-57760533D02*
X141119047Y-57903390D01*
X141119047Y-57903390D02*
X140547619Y-58474819D01*
X140547619Y-58474819D02*
X141166666Y-58474819D01*
X153608333Y-62389580D02*
X153560714Y-62437200D01*
X153560714Y-62437200D02*
X153417857Y-62484819D01*
X153417857Y-62484819D02*
X153322619Y-62484819D01*
X153322619Y-62484819D02*
X153179762Y-62437200D01*
X153179762Y-62437200D02*
X153084524Y-62341961D01*
X153084524Y-62341961D02*
X153036905Y-62246723D01*
X153036905Y-62246723D02*
X152989286Y-62056247D01*
X152989286Y-62056247D02*
X152989286Y-61913390D01*
X152989286Y-61913390D02*
X153036905Y-61722914D01*
X153036905Y-61722914D02*
X153084524Y-61627676D01*
X153084524Y-61627676D02*
X153179762Y-61532438D01*
X153179762Y-61532438D02*
X153322619Y-61484819D01*
X153322619Y-61484819D02*
X153417857Y-61484819D01*
X153417857Y-61484819D02*
X153560714Y-61532438D01*
X153560714Y-61532438D02*
X153608333Y-61580057D01*
X154560714Y-62484819D02*
X153989286Y-62484819D01*
X154275000Y-62484819D02*
X154275000Y-61484819D01*
X154275000Y-61484819D02*
X154179762Y-61627676D01*
X154179762Y-61627676D02*
X154084524Y-61722914D01*
X154084524Y-61722914D02*
X153989286Y-61770533D01*
X160758333Y-72609580D02*
X160710714Y-72657200D01*
X160710714Y-72657200D02*
X160567857Y-72704819D01*
X160567857Y-72704819D02*
X160472619Y-72704819D01*
X160472619Y-72704819D02*
X160329762Y-72657200D01*
X160329762Y-72657200D02*
X160234524Y-72561961D01*
X160234524Y-72561961D02*
X160186905Y-72466723D01*
X160186905Y-72466723D02*
X160139286Y-72276247D01*
X160139286Y-72276247D02*
X160139286Y-72133390D01*
X160139286Y-72133390D02*
X160186905Y-71942914D01*
X160186905Y-71942914D02*
X160234524Y-71847676D01*
X160234524Y-71847676D02*
X160329762Y-71752438D01*
X160329762Y-71752438D02*
X160472619Y-71704819D01*
X160472619Y-71704819D02*
X160567857Y-71704819D01*
X160567857Y-71704819D02*
X160710714Y-71752438D01*
X160710714Y-71752438D02*
X160758333Y-71800057D01*
X161663095Y-71704819D02*
X161186905Y-71704819D01*
X161186905Y-71704819D02*
X161139286Y-72181009D01*
X161139286Y-72181009D02*
X161186905Y-72133390D01*
X161186905Y-72133390D02*
X161282143Y-72085771D01*
X161282143Y-72085771D02*
X161520238Y-72085771D01*
X161520238Y-72085771D02*
X161615476Y-72133390D01*
X161615476Y-72133390D02*
X161663095Y-72181009D01*
X161663095Y-72181009D02*
X161710714Y-72276247D01*
X161710714Y-72276247D02*
X161710714Y-72514342D01*
X161710714Y-72514342D02*
X161663095Y-72609580D01*
X161663095Y-72609580D02*
X161615476Y-72657200D01*
X161615476Y-72657200D02*
X161520238Y-72704819D01*
X161520238Y-72704819D02*
X161282143Y-72704819D01*
X161282143Y-72704819D02*
X161186905Y-72657200D01*
X161186905Y-72657200D02*
X161139286Y-72609580D01*
X160817583Y-62124819D02*
X160484250Y-61648628D01*
X160246155Y-62124819D02*
X160246155Y-61124819D01*
X160246155Y-61124819D02*
X160627107Y-61124819D01*
X160627107Y-61124819D02*
X160722345Y-61172438D01*
X160722345Y-61172438D02*
X160769964Y-61220057D01*
X160769964Y-61220057D02*
X160817583Y-61315295D01*
X160817583Y-61315295D02*
X160817583Y-61458152D01*
X160817583Y-61458152D02*
X160769964Y-61553390D01*
X160769964Y-61553390D02*
X160722345Y-61601009D01*
X160722345Y-61601009D02*
X160627107Y-61648628D01*
X160627107Y-61648628D02*
X160246155Y-61648628D01*
X161293774Y-62124819D02*
X161484250Y-62124819D01*
X161484250Y-62124819D02*
X161579488Y-62077200D01*
X161579488Y-62077200D02*
X161627107Y-62029580D01*
X161627107Y-62029580D02*
X161722345Y-61886723D01*
X161722345Y-61886723D02*
X161769964Y-61696247D01*
X161769964Y-61696247D02*
X161769964Y-61315295D01*
X161769964Y-61315295D02*
X161722345Y-61220057D01*
X161722345Y-61220057D02*
X161674726Y-61172438D01*
X161674726Y-61172438D02*
X161579488Y-61124819D01*
X161579488Y-61124819D02*
X161389012Y-61124819D01*
X161389012Y-61124819D02*
X161293774Y-61172438D01*
X161293774Y-61172438D02*
X161246155Y-61220057D01*
X161246155Y-61220057D02*
X161198536Y-61315295D01*
X161198536Y-61315295D02*
X161198536Y-61553390D01*
X161198536Y-61553390D02*
X161246155Y-61648628D01*
X161246155Y-61648628D02*
X161293774Y-61696247D01*
X161293774Y-61696247D02*
X161389012Y-61743866D01*
X161389012Y-61743866D02*
X161579488Y-61743866D01*
X161579488Y-61743866D02*
X161674726Y-61696247D01*
X161674726Y-61696247D02*
X161722345Y-61648628D01*
X161722345Y-61648628D02*
X161769964Y-61553390D01*
X145183333Y-69914580D02*
X145135714Y-69962200D01*
X145135714Y-69962200D02*
X144992857Y-70009819D01*
X144992857Y-70009819D02*
X144897619Y-70009819D01*
X144897619Y-70009819D02*
X144754762Y-69962200D01*
X144754762Y-69962200D02*
X144659524Y-69866961D01*
X144659524Y-69866961D02*
X144611905Y-69771723D01*
X144611905Y-69771723D02*
X144564286Y-69581247D01*
X144564286Y-69581247D02*
X144564286Y-69438390D01*
X144564286Y-69438390D02*
X144611905Y-69247914D01*
X144611905Y-69247914D02*
X144659524Y-69152676D01*
X144659524Y-69152676D02*
X144754762Y-69057438D01*
X144754762Y-69057438D02*
X144897619Y-69009819D01*
X144897619Y-69009819D02*
X144992857Y-69009819D01*
X144992857Y-69009819D02*
X145135714Y-69057438D01*
X145135714Y-69057438D02*
X145183333Y-69105057D01*
X145564286Y-69105057D02*
X145611905Y-69057438D01*
X145611905Y-69057438D02*
X145707143Y-69009819D01*
X145707143Y-69009819D02*
X145945238Y-69009819D01*
X145945238Y-69009819D02*
X146040476Y-69057438D01*
X146040476Y-69057438D02*
X146088095Y-69105057D01*
X146088095Y-69105057D02*
X146135714Y-69200295D01*
X146135714Y-69200295D02*
X146135714Y-69295533D01*
X146135714Y-69295533D02*
X146088095Y-69438390D01*
X146088095Y-69438390D02*
X145516667Y-70009819D01*
X145516667Y-70009819D02*
X146135714Y-70009819D01*
X153308333Y-74384819D02*
X152975000Y-73908628D01*
X152736905Y-74384819D02*
X152736905Y-73384819D01*
X152736905Y-73384819D02*
X153117857Y-73384819D01*
X153117857Y-73384819D02*
X153213095Y-73432438D01*
X153213095Y-73432438D02*
X153260714Y-73480057D01*
X153260714Y-73480057D02*
X153308333Y-73575295D01*
X153308333Y-73575295D02*
X153308333Y-73718152D01*
X153308333Y-73718152D02*
X153260714Y-73813390D01*
X153260714Y-73813390D02*
X153213095Y-73861009D01*
X153213095Y-73861009D02*
X153117857Y-73908628D01*
X153117857Y-73908628D02*
X152736905Y-73908628D01*
X154165476Y-73384819D02*
X153975000Y-73384819D01*
X153975000Y-73384819D02*
X153879762Y-73432438D01*
X153879762Y-73432438D02*
X153832143Y-73480057D01*
X153832143Y-73480057D02*
X153736905Y-73622914D01*
X153736905Y-73622914D02*
X153689286Y-73813390D01*
X153689286Y-73813390D02*
X153689286Y-74194342D01*
X153689286Y-74194342D02*
X153736905Y-74289580D01*
X153736905Y-74289580D02*
X153784524Y-74337200D01*
X153784524Y-74337200D02*
X153879762Y-74384819D01*
X153879762Y-74384819D02*
X154070238Y-74384819D01*
X154070238Y-74384819D02*
X154165476Y-74337200D01*
X154165476Y-74337200D02*
X154213095Y-74289580D01*
X154213095Y-74289580D02*
X154260714Y-74194342D01*
X154260714Y-74194342D02*
X154260714Y-73956247D01*
X154260714Y-73956247D02*
X154213095Y-73861009D01*
X154213095Y-73861009D02*
X154165476Y-73813390D01*
X154165476Y-73813390D02*
X154070238Y-73765771D01*
X154070238Y-73765771D02*
X153879762Y-73765771D01*
X153879762Y-73765771D02*
X153784524Y-73813390D01*
X153784524Y-73813390D02*
X153736905Y-73861009D01*
X153736905Y-73861009D02*
X153689286Y-73956247D01*
X163884308Y-66732738D02*
X163836689Y-66827976D01*
X163836689Y-66827976D02*
X163741451Y-66923214D01*
X163741451Y-66923214D02*
X163598593Y-67066071D01*
X163598593Y-67066071D02*
X163550974Y-67161309D01*
X163550974Y-67161309D02*
X163550974Y-67256547D01*
X163789070Y-67208928D02*
X163741451Y-67304166D01*
X163741451Y-67304166D02*
X163646212Y-67399404D01*
X163646212Y-67399404D02*
X163455736Y-67447023D01*
X163455736Y-67447023D02*
X163122403Y-67447023D01*
X163122403Y-67447023D02*
X162931927Y-67399404D01*
X162931927Y-67399404D02*
X162836689Y-67304166D01*
X162836689Y-67304166D02*
X162789070Y-67208928D01*
X162789070Y-67208928D02*
X162789070Y-67018452D01*
X162789070Y-67018452D02*
X162836689Y-66923214D01*
X162836689Y-66923214D02*
X162931927Y-66827976D01*
X162931927Y-66827976D02*
X163122403Y-66780357D01*
X163122403Y-66780357D02*
X163455736Y-66780357D01*
X163455736Y-66780357D02*
X163646212Y-66827976D01*
X163646212Y-66827976D02*
X163741451Y-66923214D01*
X163741451Y-66923214D02*
X163789070Y-67018452D01*
X163789070Y-67018452D02*
X163789070Y-67208928D01*
X163789070Y-65827976D02*
X163789070Y-66399404D01*
X163789070Y-66113690D02*
X162789070Y-66113690D01*
X162789070Y-66113690D02*
X162931927Y-66208928D01*
X162931927Y-66208928D02*
X163027165Y-66304166D01*
X163027165Y-66304166D02*
X163074784Y-66399404D01*
X155124819Y-79841666D02*
X154648628Y-80174999D01*
X155124819Y-80413094D02*
X154124819Y-80413094D01*
X154124819Y-80413094D02*
X154124819Y-80032142D01*
X154124819Y-80032142D02*
X154172438Y-79936904D01*
X154172438Y-79936904D02*
X154220057Y-79889285D01*
X154220057Y-79889285D02*
X154315295Y-79841666D01*
X154315295Y-79841666D02*
X154458152Y-79841666D01*
X154458152Y-79841666D02*
X154553390Y-79889285D01*
X154553390Y-79889285D02*
X154601009Y-79936904D01*
X154601009Y-79936904D02*
X154648628Y-80032142D01*
X154648628Y-80032142D02*
X154648628Y-80413094D01*
X154220057Y-79460713D02*
X154172438Y-79413094D01*
X154172438Y-79413094D02*
X154124819Y-79317856D01*
X154124819Y-79317856D02*
X154124819Y-79079761D01*
X154124819Y-79079761D02*
X154172438Y-78984523D01*
X154172438Y-78984523D02*
X154220057Y-78936904D01*
X154220057Y-78936904D02*
X154315295Y-78889285D01*
X154315295Y-78889285D02*
X154410533Y-78889285D01*
X154410533Y-78889285D02*
X154553390Y-78936904D01*
X154553390Y-78936904D02*
X155124819Y-79508332D01*
X155124819Y-79508332D02*
X155124819Y-78889285D01*
D11*
X159933333Y-80257419D02*
X159600000Y-79781228D01*
X159361905Y-80257419D02*
X159361905Y-79257419D01*
X159361905Y-79257419D02*
X159742857Y-79257419D01*
X159742857Y-79257419D02*
X159838095Y-79305038D01*
X159838095Y-79305038D02*
X159885714Y-79352657D01*
X159885714Y-79352657D02*
X159933333Y-79447895D01*
X159933333Y-79447895D02*
X159933333Y-79590752D01*
X159933333Y-79590752D02*
X159885714Y-79685990D01*
X159885714Y-79685990D02*
X159838095Y-79733609D01*
X159838095Y-79733609D02*
X159742857Y-79781228D01*
X159742857Y-79781228D02*
X159361905Y-79781228D01*
X160885714Y-80257419D02*
X160314286Y-80257419D01*
X160600000Y-80257419D02*
X160600000Y-79257419D01*
X160600000Y-79257419D02*
X160504762Y-79400276D01*
X160504762Y-79400276D02*
X160409524Y-79495514D01*
X160409524Y-79495514D02*
X160314286Y-79543133D01*
D12*
X160213748Y-70240000D02*
X161636252Y-70240000D01*
X160213748Y-72060000D02*
X161636252Y-72060000D01*
X145859420Y-60590000D02*
X146140580Y-60590000D01*
X145859420Y-61610000D02*
X146140580Y-61610000D01*
X164870000Y-59060000D02*
X166200000Y-59060000D01*
X164870000Y-60390000D02*
X164870000Y-59060000D01*
X164870000Y-61660000D02*
X164870000Y-82040000D01*
X164870000Y-61660000D02*
X167530000Y-61660000D01*
X164870000Y-82040000D02*
X167530000Y-82040000D01*
X167530000Y-61660000D02*
X167530000Y-82040000D01*
X157712255Y-61122500D02*
X157237739Y-61122500D01*
X157712255Y-60077500D02*
X157237739Y-60077500D01*
X144777500Y-72237258D02*
X144777500Y-71762742D01*
X145822500Y-72237258D02*
X145822500Y-71762742D01*
X155577500Y-76112258D02*
X155577500Y-75637742D01*
X156622500Y-76112258D02*
X156622500Y-75637742D01*
X147660000Y-64562500D02*
X147660000Y-62762500D01*
X147660000Y-64562500D02*
X147660000Y-65362500D01*
X144540000Y-64562500D02*
X144540000Y-63762500D01*
X144540000Y-64562500D02*
X144540000Y-65362500D01*
X160213748Y-76140000D02*
X161636252Y-76140000D01*
X160213748Y-77960000D02*
X161636252Y-77960000D01*
X147977500Y-72237258D02*
X147977500Y-71762742D01*
X149022500Y-72237258D02*
X149022500Y-71762742D01*
X139170000Y-59020000D02*
X140500000Y-59020000D01*
X139170000Y-60350000D02*
X139170000Y-59020000D01*
X139170000Y-61620000D02*
X139170000Y-82000000D01*
X139170000Y-61620000D02*
X141830000Y-61620000D01*
X139170000Y-82000000D02*
X141830000Y-82000000D01*
X141830000Y-61620000D02*
X141830000Y-82000000D01*
X153915580Y-61110000D02*
X153634420Y-61110000D01*
X153915580Y-60090000D02*
X153634420Y-60090000D01*
X160213748Y-73190000D02*
X161636252Y-73190000D01*
X160213748Y-75010000D02*
X161636252Y-75010000D01*
X160746992Y-62577500D02*
X161221508Y-62577500D01*
X160746992Y-63622500D02*
X161221508Y-63622500D01*
X145490580Y-68635000D02*
X145209420Y-68635000D01*
X145490580Y-67615000D02*
X145209420Y-67615000D01*
X153712258Y-73022500D02*
X153237742Y-73022500D01*
X153712258Y-71977500D02*
X153237742Y-71977500D01*
X162494251Y-66637500D02*
X162494251Y-64962500D01*
X162494251Y-66637500D02*
X162494251Y-67287500D01*
X159374251Y-66637500D02*
X159374251Y-65987500D01*
X159374251Y-66637500D02*
X159374251Y-67287500D01*
X155577500Y-79912258D02*
X155577500Y-79437742D01*
X156622500Y-79912258D02*
X156622500Y-79437742D01*
%LPC*%
D13*
X159450000Y-71150000D03*
X162400000Y-71150000D03*
D14*
X145225000Y-61100000D03*
X146775000Y-61100000D03*
D15*
X166200000Y-60390000D03*
D16*
X166200000Y-62930000D03*
X166200000Y-65470000D03*
X166200000Y-68010000D03*
X166200000Y-70550000D03*
X166200000Y-73090000D03*
X166200000Y-75630000D03*
X166200000Y-78170000D03*
X166200000Y-80710000D03*
D17*
X158299997Y-60600000D03*
X156649997Y-60600000D03*
D18*
X145300000Y-72825000D03*
X145300000Y-71175000D03*
X156100000Y-76700000D03*
X156100000Y-75050000D03*
D19*
X147050000Y-63425000D03*
X145150000Y-63425000D03*
X146100000Y-65700000D03*
D13*
X159450000Y-77050000D03*
X162400000Y-77050000D03*
D18*
X148500000Y-72825000D03*
X148500000Y-71175000D03*
D15*
X140500000Y-60350000D03*
D16*
X140500000Y-62890000D03*
X140500000Y-65430000D03*
X140500000Y-67970000D03*
X140500000Y-70510000D03*
X140500000Y-73050000D03*
X140500000Y-75590000D03*
X140500000Y-78130000D03*
X140500000Y-80670000D03*
D20*
X154550000Y-60600000D03*
X153000000Y-60600000D03*
D13*
X159450000Y-74100000D03*
X162400000Y-74100000D03*
D21*
X160159250Y-63100000D03*
X161809250Y-63100000D03*
D20*
X146125000Y-68125000D03*
X144575000Y-68125000D03*
D17*
X154300000Y-72500000D03*
X152650000Y-72500000D03*
D22*
X161884251Y-65700000D03*
X159984251Y-65700000D03*
X160934251Y-67575000D03*
D18*
X156100000Y-80500000D03*
X156100000Y-78850000D03*
D23*
X160100000Y-80300000D03*
X161500000Y-80300000D03*
D24*
X151790000Y-77100000D03*
X146010000Y-77100000D03*
D25*
X153220000Y-80750000D03*
D26*
X153220000Y-76570000D03*
D25*
X144580000Y-80750000D03*
D26*
X144580000Y-76570000D03*
%LPD*%
M02*
