G04 #@! TF.GenerationSoftware,KiCad,Pcbnew,7.0.7*
G04 #@! TF.CreationDate,2024-04-01T23:13:17-04:00*
G04 #@! TF.ProjectId,sensor_node,73656e73-6f72-45f6-9e6f-64652e6b6963,rev?*
G04 #@! TF.SameCoordinates,Original*
G04 #@! TF.FileFunction,Soldermask,Top*
G04 #@! TF.FilePolarity,Negative*
%FSLAX46Y46*%
G04 Gerber Fmt 4.6, Leading zero omitted, Abs format (unit mm)*
G04 Created by KiCad (PCBNEW 7.0.7) date 2024-04-01 23:13:17*
%MOMM*%
%LPD*%
G01*
G04 APERTURE LIST*
G04 Aperture macros list*
%AMRoundRect*
0 Rectangle with rounded corners*
0 $1 Rounding radius*
0 $2 $3 $4 $5 $6 $7 $8 $9 X,Y pos of 4 corners*
0 Add a 4 corners polygon primitive as box body*
4,1,4,$2,$3,$4,$5,$6,$7,$8,$9,$2,$3,0*
0 Add four circle primitives for the rounded corners*
1,1,$1+$1,$2,$3*
1,1,$1+$1,$4,$5*
1,1,$1+$1,$6,$7*
1,1,$1+$1,$8,$9*
0 Add four rect primitives between the rounded corners*
20,1,$1+$1,$2,$3,$4,$5,0*
20,1,$1+$1,$4,$5,$6,$7,0*
20,1,$1+$1,$6,$7,$8,$9,0*
20,1,$1+$1,$8,$9,$2,$3,0*%
G04 Aperture macros list end*
%ADD10RoundRect,0.250000X-0.325000X-0.650000X0.325000X-0.650000X0.325000X0.650000X-0.325000X0.650000X0*%
%ADD11RoundRect,0.225000X-0.225000X-0.250000X0.225000X-0.250000X0.225000X0.250000X-0.225000X0.250000X0*%
%ADD12R,1.700000X1.700000*%
%ADD13O,1.700000X1.700000*%
%ADD14RoundRect,0.200000X0.200000X0.275000X-0.200000X0.275000X-0.200000X-0.275000X0.200000X-0.275000X0*%
%ADD15RoundRect,0.200000X0.275000X-0.200000X0.275000X0.200000X-0.275000X0.200000X-0.275000X-0.200000X0*%
%ADD16RoundRect,0.150000X-0.150000X0.512500X-0.150000X-0.512500X0.150000X-0.512500X0.150000X0.512500X0*%
%ADD17RoundRect,0.225000X0.225000X0.250000X-0.225000X0.250000X-0.225000X-0.250000X0.225000X-0.250000X0*%
%ADD18RoundRect,0.200000X-0.200000X-0.275000X0.200000X-0.275000X0.200000X0.275000X-0.200000X0.275000X0*%
%ADD19RoundRect,0.150000X-0.150000X0.587500X-0.150000X-0.587500X0.150000X-0.587500X0.150000X0.587500X0*%
%ADD20RoundRect,0.250000X-0.250000X-0.500000X0.250000X-0.500000X0.250000X0.500000X-0.250000X0.500000X0*%
%ADD21C,0.650000*%
%ADD22O,1.000000X1.600000*%
%ADD23O,1.000000X2.100000*%
G04 APERTURE END LIST*
D10*
X159450000Y-71150000D03*
X162400000Y-71150000D03*
D11*
X145225000Y-61100000D03*
X146775000Y-61100000D03*
D12*
X166200000Y-60390000D03*
D13*
X166200000Y-62930000D03*
X166200000Y-65470000D03*
X166200000Y-68010000D03*
X166200000Y-70550000D03*
X166200000Y-73090000D03*
X166200000Y-75630000D03*
X166200000Y-78170000D03*
X166200000Y-80710000D03*
D14*
X158299997Y-60600000D03*
X156649997Y-60600000D03*
D15*
X145300000Y-72825000D03*
X145300000Y-71175000D03*
X156100000Y-76700000D03*
X156100000Y-75050000D03*
D16*
X147050000Y-63425000D03*
X145150000Y-63425000D03*
X146100000Y-65700000D03*
D10*
X159450000Y-77050000D03*
X162400000Y-77050000D03*
D15*
X148500000Y-72825000D03*
X148500000Y-71175000D03*
D12*
X140500000Y-60350000D03*
D13*
X140500000Y-62890000D03*
X140500000Y-65430000D03*
X140500000Y-67970000D03*
X140500000Y-70510000D03*
X140500000Y-73050000D03*
X140500000Y-75590000D03*
X140500000Y-78130000D03*
X140500000Y-80670000D03*
D17*
X154550000Y-60600000D03*
X153000000Y-60600000D03*
D10*
X159450000Y-74100000D03*
X162400000Y-74100000D03*
D18*
X160159250Y-63100000D03*
X161809250Y-63100000D03*
D17*
X146125000Y-68125000D03*
X144575000Y-68125000D03*
D14*
X154300000Y-72500000D03*
X152650000Y-72500000D03*
D19*
X161884251Y-65700000D03*
X159984251Y-65700000D03*
X160934251Y-67575000D03*
D15*
X156100000Y-80500000D03*
X156100000Y-78850000D03*
D20*
X160100000Y-80300000D03*
X161500000Y-80300000D03*
D21*
X151790000Y-77100000D03*
X146010000Y-77100000D03*
D22*
X153220000Y-80750000D03*
D23*
X153220000Y-76570000D03*
D22*
X144580000Y-80750000D03*
D23*
X144580000Y-76570000D03*
M02*
