%TF.GenerationSoftware,KiCad,Pcbnew,7.0.7*%
%TF.CreationDate,2024-03-31T22:15:52-04:00*%
%TF.ProjectId,battery_leds,62617474-6572-4795-9f6c-6564732e6b69,rev?*%
%TF.SameCoordinates,Original*%
%TF.FileFunction,Drillmap*%
%TF.FilePolarity,Positive*%
%FSLAX45Y45*%
G04 Gerber Fmt 4.5, Leading zero omitted, Abs format (unit mm)*
G04 Created by KiCad (PCBNEW 7.0.7) date 2024-03-31 22:15:52*
%MOMM*%
%LPD*%
G01*
G04 APERTURE LIST*
%ADD10C,0.050000*%
%ADD11C,0.200000*%
%ADD12C,0.065000*%
G04 APERTURE END LIST*
D10*
X21430000Y-8230000D02*
G75*
G03*
X21430000Y-8230000I-130000J0D01*
G01*
X22900000Y-9320000D02*
G75*
G03*
X22900000Y-9320000I-1600000J0D01*
G01*
D11*
D12*
X21947895Y-10177105D02*
X22012895Y-10242105D01*
X22012895Y-10177105D02*
X21947895Y-10242105D01*
X22037698Y-10087303D02*
X22102698Y-10152303D01*
X22102698Y-10087303D02*
X22037698Y-10152303D01*
X22127500Y-9997500D02*
X22192500Y-10062500D01*
X22192500Y-9997500D02*
X22127500Y-10062500D01*
X22217303Y-9907697D02*
X22282303Y-9972697D01*
X22282303Y-9907697D02*
X22217303Y-9972697D01*
D11*
X19958277Y-11233984D02*
X19958277Y-11033984D01*
X19958277Y-11033984D02*
X20005896Y-11033984D01*
X20005896Y-11033984D02*
X20034467Y-11043508D01*
X20034467Y-11043508D02*
X20053515Y-11062555D01*
X20053515Y-11062555D02*
X20063039Y-11081603D01*
X20063039Y-11081603D02*
X20072563Y-11119698D01*
X20072563Y-11119698D02*
X20072563Y-11148270D01*
X20072563Y-11148270D02*
X20063039Y-11186365D01*
X20063039Y-11186365D02*
X20053515Y-11205412D01*
X20053515Y-11205412D02*
X20034467Y-11224460D01*
X20034467Y-11224460D02*
X20005896Y-11233984D01*
X20005896Y-11233984D02*
X19958277Y-11233984D01*
X20158277Y-11233984D02*
X20158277Y-11100650D01*
X20158277Y-11138746D02*
X20167801Y-11119698D01*
X20167801Y-11119698D02*
X20177324Y-11110174D01*
X20177324Y-11110174D02*
X20196372Y-11100650D01*
X20196372Y-11100650D02*
X20215420Y-11100650D01*
X20282086Y-11233984D02*
X20282086Y-11100650D01*
X20282086Y-11033984D02*
X20272563Y-11043508D01*
X20272563Y-11043508D02*
X20282086Y-11053031D01*
X20282086Y-11053031D02*
X20291610Y-11043508D01*
X20291610Y-11043508D02*
X20282086Y-11033984D01*
X20282086Y-11033984D02*
X20282086Y-11053031D01*
X20405896Y-11233984D02*
X20386848Y-11224460D01*
X20386848Y-11224460D02*
X20377324Y-11205412D01*
X20377324Y-11205412D02*
X20377324Y-11033984D01*
X20510658Y-11233984D02*
X20491610Y-11224460D01*
X20491610Y-11224460D02*
X20482086Y-11205412D01*
X20482086Y-11205412D02*
X20482086Y-11033984D01*
X20739229Y-11233984D02*
X20739229Y-11033984D01*
X20739229Y-11033984D02*
X20805896Y-11176841D01*
X20805896Y-11176841D02*
X20872563Y-11033984D01*
X20872563Y-11033984D02*
X20872563Y-11233984D01*
X21053515Y-11233984D02*
X21053515Y-11129222D01*
X21053515Y-11129222D02*
X21043991Y-11110174D01*
X21043991Y-11110174D02*
X21024944Y-11100650D01*
X21024944Y-11100650D02*
X20986848Y-11100650D01*
X20986848Y-11100650D02*
X20967801Y-11110174D01*
X21053515Y-11224460D02*
X21034467Y-11233984D01*
X21034467Y-11233984D02*
X20986848Y-11233984D01*
X20986848Y-11233984D02*
X20967801Y-11224460D01*
X20967801Y-11224460D02*
X20958277Y-11205412D01*
X20958277Y-11205412D02*
X20958277Y-11186365D01*
X20958277Y-11186365D02*
X20967801Y-11167317D01*
X20967801Y-11167317D02*
X20986848Y-11157793D01*
X20986848Y-11157793D02*
X21034467Y-11157793D01*
X21034467Y-11157793D02*
X21053515Y-11148270D01*
X21148753Y-11100650D02*
X21148753Y-11300650D01*
X21148753Y-11110174D02*
X21167801Y-11100650D01*
X21167801Y-11100650D02*
X21205896Y-11100650D01*
X21205896Y-11100650D02*
X21224944Y-11110174D01*
X21224944Y-11110174D02*
X21234467Y-11119698D01*
X21234467Y-11119698D02*
X21243991Y-11138746D01*
X21243991Y-11138746D02*
X21243991Y-11195888D01*
X21243991Y-11195888D02*
X21234467Y-11214936D01*
X21234467Y-11214936D02*
X21224944Y-11224460D01*
X21224944Y-11224460D02*
X21205896Y-11233984D01*
X21205896Y-11233984D02*
X21167801Y-11233984D01*
X21167801Y-11233984D02*
X21148753Y-11224460D01*
X21329705Y-11214936D02*
X21339229Y-11224460D01*
X21339229Y-11224460D02*
X21329705Y-11233984D01*
X21329705Y-11233984D02*
X21320182Y-11224460D01*
X21320182Y-11224460D02*
X21329705Y-11214936D01*
X21329705Y-11214936D02*
X21329705Y-11233984D01*
X21329705Y-11110174D02*
X21339229Y-11119698D01*
X21339229Y-11119698D02*
X21329705Y-11129222D01*
X21329705Y-11129222D02*
X21320182Y-11119698D01*
X21320182Y-11119698D02*
X21329705Y-11110174D01*
X21329705Y-11110174D02*
X21329705Y-11129222D01*
D12*
X19632500Y-11530000D02*
X19697500Y-11595000D01*
X19697500Y-11530000D02*
X19632500Y-11595000D01*
D11*
X19996372Y-11453984D02*
X20015420Y-11453984D01*
X20015420Y-11453984D02*
X20034467Y-11463508D01*
X20034467Y-11463508D02*
X20043991Y-11473031D01*
X20043991Y-11473031D02*
X20053515Y-11492079D01*
X20053515Y-11492079D02*
X20063039Y-11530174D01*
X20063039Y-11530174D02*
X20063039Y-11577793D01*
X20063039Y-11577793D02*
X20053515Y-11615888D01*
X20053515Y-11615888D02*
X20043991Y-11634936D01*
X20043991Y-11634936D02*
X20034467Y-11644460D01*
X20034467Y-11644460D02*
X20015420Y-11653984D01*
X20015420Y-11653984D02*
X19996372Y-11653984D01*
X19996372Y-11653984D02*
X19977324Y-11644460D01*
X19977324Y-11644460D02*
X19967801Y-11634936D01*
X19967801Y-11634936D02*
X19958277Y-11615888D01*
X19958277Y-11615888D02*
X19948753Y-11577793D01*
X19948753Y-11577793D02*
X19948753Y-11530174D01*
X19948753Y-11530174D02*
X19958277Y-11492079D01*
X19958277Y-11492079D02*
X19967801Y-11473031D01*
X19967801Y-11473031D02*
X19977324Y-11463508D01*
X19977324Y-11463508D02*
X19996372Y-11453984D01*
X20148753Y-11634936D02*
X20158277Y-11644460D01*
X20158277Y-11644460D02*
X20148753Y-11653984D01*
X20148753Y-11653984D02*
X20139229Y-11644460D01*
X20139229Y-11644460D02*
X20148753Y-11634936D01*
X20148753Y-11634936D02*
X20148753Y-11653984D01*
X20329705Y-11453984D02*
X20291610Y-11453984D01*
X20291610Y-11453984D02*
X20272563Y-11463508D01*
X20272563Y-11463508D02*
X20263039Y-11473031D01*
X20263039Y-11473031D02*
X20243991Y-11501603D01*
X20243991Y-11501603D02*
X20234467Y-11539698D01*
X20234467Y-11539698D02*
X20234467Y-11615888D01*
X20234467Y-11615888D02*
X20243991Y-11634936D01*
X20243991Y-11634936D02*
X20253515Y-11644460D01*
X20253515Y-11644460D02*
X20272563Y-11653984D01*
X20272563Y-11653984D02*
X20310658Y-11653984D01*
X20310658Y-11653984D02*
X20329705Y-11644460D01*
X20329705Y-11644460D02*
X20339229Y-11634936D01*
X20339229Y-11634936D02*
X20348753Y-11615888D01*
X20348753Y-11615888D02*
X20348753Y-11568269D01*
X20348753Y-11568269D02*
X20339229Y-11549222D01*
X20339229Y-11549222D02*
X20329705Y-11539698D01*
X20329705Y-11539698D02*
X20310658Y-11530174D01*
X20310658Y-11530174D02*
X20272563Y-11530174D01*
X20272563Y-11530174D02*
X20253515Y-11539698D01*
X20253515Y-11539698D02*
X20243991Y-11549222D01*
X20243991Y-11549222D02*
X20234467Y-11568269D01*
X20529705Y-11453984D02*
X20434467Y-11453984D01*
X20434467Y-11453984D02*
X20424944Y-11549222D01*
X20424944Y-11549222D02*
X20434467Y-11539698D01*
X20434467Y-11539698D02*
X20453515Y-11530174D01*
X20453515Y-11530174D02*
X20501134Y-11530174D01*
X20501134Y-11530174D02*
X20520182Y-11539698D01*
X20520182Y-11539698D02*
X20529705Y-11549222D01*
X20529705Y-11549222D02*
X20539229Y-11568269D01*
X20539229Y-11568269D02*
X20539229Y-11615888D01*
X20539229Y-11615888D02*
X20529705Y-11634936D01*
X20529705Y-11634936D02*
X20520182Y-11644460D01*
X20520182Y-11644460D02*
X20501134Y-11653984D01*
X20501134Y-11653984D02*
X20453515Y-11653984D01*
X20453515Y-11653984D02*
X20434467Y-11644460D01*
X20434467Y-11644460D02*
X20424944Y-11634936D01*
X20663039Y-11453984D02*
X20682086Y-11453984D01*
X20682086Y-11453984D02*
X20701134Y-11463508D01*
X20701134Y-11463508D02*
X20710658Y-11473031D01*
X20710658Y-11473031D02*
X20720182Y-11492079D01*
X20720182Y-11492079D02*
X20729705Y-11530174D01*
X20729705Y-11530174D02*
X20729705Y-11577793D01*
X20729705Y-11577793D02*
X20720182Y-11615888D01*
X20720182Y-11615888D02*
X20710658Y-11634936D01*
X20710658Y-11634936D02*
X20701134Y-11644460D01*
X20701134Y-11644460D02*
X20682086Y-11653984D01*
X20682086Y-11653984D02*
X20663039Y-11653984D01*
X20663039Y-11653984D02*
X20643991Y-11644460D01*
X20643991Y-11644460D02*
X20634467Y-11634936D01*
X20634467Y-11634936D02*
X20624944Y-11615888D01*
X20624944Y-11615888D02*
X20615420Y-11577793D01*
X20615420Y-11577793D02*
X20615420Y-11530174D01*
X20615420Y-11530174D02*
X20624944Y-11492079D01*
X20624944Y-11492079D02*
X20634467Y-11473031D01*
X20634467Y-11473031D02*
X20643991Y-11463508D01*
X20643991Y-11463508D02*
X20663039Y-11453984D01*
X20815420Y-11653984D02*
X20815420Y-11520650D01*
X20815420Y-11539698D02*
X20824944Y-11530174D01*
X20824944Y-11530174D02*
X20843991Y-11520650D01*
X20843991Y-11520650D02*
X20872563Y-11520650D01*
X20872563Y-11520650D02*
X20891610Y-11530174D01*
X20891610Y-11530174D02*
X20901134Y-11549222D01*
X20901134Y-11549222D02*
X20901134Y-11653984D01*
X20901134Y-11549222D02*
X20910658Y-11530174D01*
X20910658Y-11530174D02*
X20929705Y-11520650D01*
X20929705Y-11520650D02*
X20958277Y-11520650D01*
X20958277Y-11520650D02*
X20977325Y-11530174D01*
X20977325Y-11530174D02*
X20986848Y-11549222D01*
X20986848Y-11549222D02*
X20986848Y-11653984D01*
X21082086Y-11653984D02*
X21082086Y-11520650D01*
X21082086Y-11539698D02*
X21091610Y-11530174D01*
X21091610Y-11530174D02*
X21110658Y-11520650D01*
X21110658Y-11520650D02*
X21139229Y-11520650D01*
X21139229Y-11520650D02*
X21158277Y-11530174D01*
X21158277Y-11530174D02*
X21167801Y-11549222D01*
X21167801Y-11549222D02*
X21167801Y-11653984D01*
X21167801Y-11549222D02*
X21177325Y-11530174D01*
X21177325Y-11530174D02*
X21196372Y-11520650D01*
X21196372Y-11520650D02*
X21224944Y-11520650D01*
X21224944Y-11520650D02*
X21243991Y-11530174D01*
X21243991Y-11530174D02*
X21253515Y-11549222D01*
X21253515Y-11549222D02*
X21253515Y-11653984D01*
X21643991Y-11444460D02*
X21472563Y-11701603D01*
X21901134Y-11453984D02*
X21920182Y-11453984D01*
X21920182Y-11453984D02*
X21939229Y-11463508D01*
X21939229Y-11463508D02*
X21948753Y-11473031D01*
X21948753Y-11473031D02*
X21958277Y-11492079D01*
X21958277Y-11492079D02*
X21967801Y-11530174D01*
X21967801Y-11530174D02*
X21967801Y-11577793D01*
X21967801Y-11577793D02*
X21958277Y-11615888D01*
X21958277Y-11615888D02*
X21948753Y-11634936D01*
X21948753Y-11634936D02*
X21939229Y-11644460D01*
X21939229Y-11644460D02*
X21920182Y-11653984D01*
X21920182Y-11653984D02*
X21901134Y-11653984D01*
X21901134Y-11653984D02*
X21882087Y-11644460D01*
X21882087Y-11644460D02*
X21872563Y-11634936D01*
X21872563Y-11634936D02*
X21863039Y-11615888D01*
X21863039Y-11615888D02*
X21853515Y-11577793D01*
X21853515Y-11577793D02*
X21853515Y-11530174D01*
X21853515Y-11530174D02*
X21863039Y-11492079D01*
X21863039Y-11492079D02*
X21872563Y-11473031D01*
X21872563Y-11473031D02*
X21882087Y-11463508D01*
X21882087Y-11463508D02*
X21901134Y-11453984D01*
X22053515Y-11634936D02*
X22063039Y-11644460D01*
X22063039Y-11644460D02*
X22053515Y-11653984D01*
X22053515Y-11653984D02*
X22043991Y-11644460D01*
X22043991Y-11644460D02*
X22053515Y-11634936D01*
X22053515Y-11634936D02*
X22053515Y-11653984D01*
X22186848Y-11453984D02*
X22205896Y-11453984D01*
X22205896Y-11453984D02*
X22224944Y-11463508D01*
X22224944Y-11463508D02*
X22234468Y-11473031D01*
X22234468Y-11473031D02*
X22243991Y-11492079D01*
X22243991Y-11492079D02*
X22253515Y-11530174D01*
X22253515Y-11530174D02*
X22253515Y-11577793D01*
X22253515Y-11577793D02*
X22243991Y-11615888D01*
X22243991Y-11615888D02*
X22234468Y-11634936D01*
X22234468Y-11634936D02*
X22224944Y-11644460D01*
X22224944Y-11644460D02*
X22205896Y-11653984D01*
X22205896Y-11653984D02*
X22186848Y-11653984D01*
X22186848Y-11653984D02*
X22167801Y-11644460D01*
X22167801Y-11644460D02*
X22158277Y-11634936D01*
X22158277Y-11634936D02*
X22148753Y-11615888D01*
X22148753Y-11615888D02*
X22139229Y-11577793D01*
X22139229Y-11577793D02*
X22139229Y-11530174D01*
X22139229Y-11530174D02*
X22148753Y-11492079D01*
X22148753Y-11492079D02*
X22158277Y-11473031D01*
X22158277Y-11473031D02*
X22167801Y-11463508D01*
X22167801Y-11463508D02*
X22186848Y-11453984D01*
X22329706Y-11473031D02*
X22339229Y-11463508D01*
X22339229Y-11463508D02*
X22358277Y-11453984D01*
X22358277Y-11453984D02*
X22405896Y-11453984D01*
X22405896Y-11453984D02*
X22424944Y-11463508D01*
X22424944Y-11463508D02*
X22434467Y-11473031D01*
X22434467Y-11473031D02*
X22443991Y-11492079D01*
X22443991Y-11492079D02*
X22443991Y-11511127D01*
X22443991Y-11511127D02*
X22434467Y-11539698D01*
X22434467Y-11539698D02*
X22320182Y-11653984D01*
X22320182Y-11653984D02*
X22443991Y-11653984D01*
X22624944Y-11453984D02*
X22529706Y-11453984D01*
X22529706Y-11453984D02*
X22520182Y-11549222D01*
X22520182Y-11549222D02*
X22529706Y-11539698D01*
X22529706Y-11539698D02*
X22548753Y-11530174D01*
X22548753Y-11530174D02*
X22596372Y-11530174D01*
X22596372Y-11530174D02*
X22615420Y-11539698D01*
X22615420Y-11539698D02*
X22624944Y-11549222D01*
X22624944Y-11549222D02*
X22634467Y-11568269D01*
X22634467Y-11568269D02*
X22634467Y-11615888D01*
X22634467Y-11615888D02*
X22624944Y-11634936D01*
X22624944Y-11634936D02*
X22615420Y-11644460D01*
X22615420Y-11644460D02*
X22596372Y-11653984D01*
X22596372Y-11653984D02*
X22548753Y-11653984D01*
X22548753Y-11653984D02*
X22529706Y-11644460D01*
X22529706Y-11644460D02*
X22520182Y-11634936D01*
X22805896Y-11453984D02*
X22767801Y-11453984D01*
X22767801Y-11453984D02*
X22748753Y-11463508D01*
X22748753Y-11463508D02*
X22739229Y-11473031D01*
X22739229Y-11473031D02*
X22720182Y-11501603D01*
X22720182Y-11501603D02*
X22710658Y-11539698D01*
X22710658Y-11539698D02*
X22710658Y-11615888D01*
X22710658Y-11615888D02*
X22720182Y-11634936D01*
X22720182Y-11634936D02*
X22729706Y-11644460D01*
X22729706Y-11644460D02*
X22748753Y-11653984D01*
X22748753Y-11653984D02*
X22786848Y-11653984D01*
X22786848Y-11653984D02*
X22805896Y-11644460D01*
X22805896Y-11644460D02*
X22815420Y-11634936D01*
X22815420Y-11634936D02*
X22824944Y-11615888D01*
X22824944Y-11615888D02*
X22824944Y-11568269D01*
X22824944Y-11568269D02*
X22815420Y-11549222D01*
X22815420Y-11549222D02*
X22805896Y-11539698D01*
X22805896Y-11539698D02*
X22786848Y-11530174D01*
X22786848Y-11530174D02*
X22748753Y-11530174D01*
X22748753Y-11530174D02*
X22729706Y-11539698D01*
X22729706Y-11539698D02*
X22720182Y-11549222D01*
X22720182Y-11549222D02*
X22710658Y-11568269D01*
X22901134Y-11453984D02*
X22901134Y-11492079D01*
X22977325Y-11453984D02*
X22977325Y-11492079D01*
X23272563Y-11730174D02*
X23263039Y-11720650D01*
X23263039Y-11720650D02*
X23243991Y-11692079D01*
X23243991Y-11692079D02*
X23234468Y-11673031D01*
X23234468Y-11673031D02*
X23224944Y-11644460D01*
X23224944Y-11644460D02*
X23215420Y-11596841D01*
X23215420Y-11596841D02*
X23215420Y-11558746D01*
X23215420Y-11558746D02*
X23224944Y-11511127D01*
X23224944Y-11511127D02*
X23234468Y-11482555D01*
X23234468Y-11482555D02*
X23243991Y-11463508D01*
X23243991Y-11463508D02*
X23263039Y-11434936D01*
X23263039Y-11434936D02*
X23272563Y-11425412D01*
X23434468Y-11520650D02*
X23434468Y-11653984D01*
X23386848Y-11444460D02*
X23339229Y-11587317D01*
X23339229Y-11587317D02*
X23463039Y-11587317D01*
X23691610Y-11653984D02*
X23691610Y-11453984D01*
X23777325Y-11653984D02*
X23777325Y-11549222D01*
X23777325Y-11549222D02*
X23767801Y-11530174D01*
X23767801Y-11530174D02*
X23748753Y-11520650D01*
X23748753Y-11520650D02*
X23720182Y-11520650D01*
X23720182Y-11520650D02*
X23701134Y-11530174D01*
X23701134Y-11530174D02*
X23691610Y-11539698D01*
X23901134Y-11653984D02*
X23882087Y-11644460D01*
X23882087Y-11644460D02*
X23872563Y-11634936D01*
X23872563Y-11634936D02*
X23863039Y-11615888D01*
X23863039Y-11615888D02*
X23863039Y-11558746D01*
X23863039Y-11558746D02*
X23872563Y-11539698D01*
X23872563Y-11539698D02*
X23882087Y-11530174D01*
X23882087Y-11530174D02*
X23901134Y-11520650D01*
X23901134Y-11520650D02*
X23929706Y-11520650D01*
X23929706Y-11520650D02*
X23948753Y-11530174D01*
X23948753Y-11530174D02*
X23958277Y-11539698D01*
X23958277Y-11539698D02*
X23967801Y-11558746D01*
X23967801Y-11558746D02*
X23967801Y-11615888D01*
X23967801Y-11615888D02*
X23958277Y-11634936D01*
X23958277Y-11634936D02*
X23948753Y-11644460D01*
X23948753Y-11644460D02*
X23929706Y-11653984D01*
X23929706Y-11653984D02*
X23901134Y-11653984D01*
X24082087Y-11653984D02*
X24063039Y-11644460D01*
X24063039Y-11644460D02*
X24053515Y-11625412D01*
X24053515Y-11625412D02*
X24053515Y-11453984D01*
X24234468Y-11644460D02*
X24215420Y-11653984D01*
X24215420Y-11653984D02*
X24177325Y-11653984D01*
X24177325Y-11653984D02*
X24158277Y-11644460D01*
X24158277Y-11644460D02*
X24148753Y-11625412D01*
X24148753Y-11625412D02*
X24148753Y-11549222D01*
X24148753Y-11549222D02*
X24158277Y-11530174D01*
X24158277Y-11530174D02*
X24177325Y-11520650D01*
X24177325Y-11520650D02*
X24215420Y-11520650D01*
X24215420Y-11520650D02*
X24234468Y-11530174D01*
X24234468Y-11530174D02*
X24243991Y-11549222D01*
X24243991Y-11549222D02*
X24243991Y-11568269D01*
X24243991Y-11568269D02*
X24148753Y-11587317D01*
X24320182Y-11644460D02*
X24339230Y-11653984D01*
X24339230Y-11653984D02*
X24377325Y-11653984D01*
X24377325Y-11653984D02*
X24396372Y-11644460D01*
X24396372Y-11644460D02*
X24405896Y-11625412D01*
X24405896Y-11625412D02*
X24405896Y-11615888D01*
X24405896Y-11615888D02*
X24396372Y-11596841D01*
X24396372Y-11596841D02*
X24377325Y-11587317D01*
X24377325Y-11587317D02*
X24348753Y-11587317D01*
X24348753Y-11587317D02*
X24329706Y-11577793D01*
X24329706Y-11577793D02*
X24320182Y-11558746D01*
X24320182Y-11558746D02*
X24320182Y-11549222D01*
X24320182Y-11549222D02*
X24329706Y-11530174D01*
X24329706Y-11530174D02*
X24348753Y-11520650D01*
X24348753Y-11520650D02*
X24377325Y-11520650D01*
X24377325Y-11520650D02*
X24396372Y-11530174D01*
X24472563Y-11730174D02*
X24482087Y-11720650D01*
X24482087Y-11720650D02*
X24501134Y-11692079D01*
X24501134Y-11692079D02*
X24510658Y-11673031D01*
X24510658Y-11673031D02*
X24520182Y-11644460D01*
X24520182Y-11644460D02*
X24529706Y-11596841D01*
X24529706Y-11596841D02*
X24529706Y-11558746D01*
X24529706Y-11558746D02*
X24520182Y-11511127D01*
X24520182Y-11511127D02*
X24510658Y-11482555D01*
X24510658Y-11482555D02*
X24501134Y-11463508D01*
X24501134Y-11463508D02*
X24482087Y-11434936D01*
X24482087Y-11434936D02*
X24472563Y-11425412D01*
M02*
