%TF.GenerationSoftware,KiCad,Pcbnew,7.0.7*%
%TF.CreationDate,2024-03-31T22:15:49-04:00*%
%TF.ProjectId,battery_leds,62617474-6572-4795-9f6c-6564732e6b69,rev?*%
%TF.SameCoordinates,Original*%
%TF.FileFunction,Legend,Bot*%
%TF.FilePolarity,Positive*%
%FSLAX46Y46*%
G04 Gerber Fmt 4.6, Leading zero omitted, Abs format (unit mm)*
G04 Created by KiCad (PCBNEW 7.0.7) date 2024-03-31 22:15:49*
%MOMM*%
%LPD*%
G01*
G04 APERTURE LIST*
%ADD10C,0.150000*%
%ADD11C,0.127000*%
G04 APERTURE END LIST*
D10*
X208095000Y-103895533D02*
X207895000Y-103962200D01*
X207895000Y-103962200D02*
X207828333Y-104028866D01*
X207828333Y-104028866D02*
X207761666Y-104162200D01*
X207761666Y-104162200D02*
X207761666Y-104362200D01*
X207761666Y-104362200D02*
X207828333Y-104495533D01*
X207828333Y-104495533D02*
X207895000Y-104562200D01*
X207895000Y-104562200D02*
X208028333Y-104628866D01*
X208028333Y-104628866D02*
X208561666Y-104628866D01*
X208561666Y-104628866D02*
X208561666Y-103228866D01*
X208561666Y-103228866D02*
X208095000Y-103228866D01*
X208095000Y-103228866D02*
X207961666Y-103295533D01*
X207961666Y-103295533D02*
X207895000Y-103362200D01*
X207895000Y-103362200D02*
X207828333Y-103495533D01*
X207828333Y-103495533D02*
X207828333Y-103628866D01*
X207828333Y-103628866D02*
X207895000Y-103762200D01*
X207895000Y-103762200D02*
X207961666Y-103828866D01*
X207961666Y-103828866D02*
X208095000Y-103895533D01*
X208095000Y-103895533D02*
X208561666Y-103895533D01*
X207361666Y-103228866D02*
X206561666Y-103228866D01*
X206961666Y-104628866D02*
X206961666Y-103228866D01*
X205361666Y-104628866D02*
X206161666Y-104628866D01*
X205761666Y-104628866D02*
X205761666Y-103228866D01*
X205761666Y-103228866D02*
X205894999Y-103428866D01*
X205894999Y-103428866D02*
X206028333Y-103562200D01*
X206028333Y-103562200D02*
X206161666Y-103628866D01*
D11*
%TO.C,BT1*%
X223600000Y-101150000D02*
X223600000Y-96470000D01*
X223600000Y-85650000D02*
X223600000Y-90730000D01*
X219050000Y-101150000D02*
X223600000Y-101150000D01*
X218550000Y-85650000D02*
X223600000Y-85650000D01*
X202500000Y-101150000D02*
X207050000Y-101150000D01*
X202500000Y-96470000D02*
X202500000Y-101150000D01*
X202500000Y-90730000D02*
X202500000Y-85650000D01*
X202500000Y-85650000D02*
X207550000Y-85650000D01*
%TD*%
M02*
