%TF.GenerationSoftware,KiCad,Pcbnew,7.0.7*%
%TF.CreationDate,2024-03-31T22:15:49-04:00*%
%TF.ProjectId,battery_leds,62617474-6572-4795-9f6c-6564732e6b69,rev?*%
%TF.SameCoordinates,Original*%
%TF.FileFunction,Paste,Top*%
%TF.FilePolarity,Positive*%
%FSLAX46Y46*%
G04 Gerber Fmt 4.6, Leading zero omitted, Abs format (unit mm)*
G04 Created by KiCad (PCBNEW 7.0.7) date 2024-03-31 22:15:49*
%MOMM*%
%LPD*%
G01*
G04 APERTURE LIST*
G04 Aperture macros list*
%AMRoundRect*
0 Rectangle with rounded corners*
0 $1 Rounding radius*
0 $2 $3 $4 $5 $6 $7 $8 $9 X,Y pos of 4 corners*
0 Add a 4 corners polygon primitive as box body*
4,1,4,$2,$3,$4,$5,$6,$7,$8,$9,$2,$3,0*
0 Add four circle primitives for the rounded corners*
1,1,$1+$1,$2,$3*
1,1,$1+$1,$4,$5*
1,1,$1+$1,$6,$7*
1,1,$1+$1,$8,$9*
0 Add four rect primitives between the rounded corners*
20,1,$1+$1,$2,$3,$4,$5,0*
20,1,$1+$1,$4,$5,$6,$7,0*
20,1,$1+$1,$6,$7,$8,$9,0*
20,1,$1+$1,$8,$9,$2,$3,0*%
%AMRotRect*
0 Rectangle, with rotation*
0 The origin of the aperture is its center*
0 $1 length*
0 $2 width*
0 $3 Rotation angle, in degrees counterclockwise*
0 Add horizontal line*
21,1,$1,$2,0,0,$3*%
G04 Aperture macros list end*
%ADD10RoundRect,0.218750X-0.218750X-0.256250X0.218750X-0.256250X0.218750X0.256250X-0.218750X0.256250X0*%
%ADD11RoundRect,0.218750X0.026517X-0.335876X0.335876X-0.026517X-0.026517X0.335876X-0.335876X0.026517X0*%
%ADD12RoundRect,0.200000X0.335876X0.053033X0.053033X0.335876X-0.335876X-0.053033X-0.053033X-0.335876X0*%
%ADD13RoundRect,0.218750X0.335876X0.026517X0.026517X0.335876X-0.335876X-0.026517X-0.026517X-0.335876X0*%
%ADD14RoundRect,0.218750X-0.335876X-0.026517X-0.026517X-0.335876X0.335876X0.026517X0.026517X0.335876X0*%
%ADD15RoundRect,0.200000X-0.335876X-0.053033X-0.053033X-0.335876X0.335876X0.053033X0.053033X0.335876X0*%
%ADD16RoundRect,0.150000X-0.309359X-0.521491X0.521491X0.309359X0.309359X0.521491X-0.521491X-0.309359X0*%
%ADD17RoundRect,0.218750X-0.026517X0.335876X-0.335876X0.026517X0.026517X-0.335876X0.335876X-0.026517X0*%
%ADD18RoundRect,0.200000X0.053033X-0.335876X0.335876X-0.053033X-0.053033X0.335876X-0.335876X0.053033X0*%
%ADD19RoundRect,0.218750X-0.256250X0.218750X-0.256250X-0.218750X0.256250X-0.218750X0.256250X0.218750X0*%
%ADD20RoundRect,0.200000X0.200000X0.275000X-0.200000X0.275000X-0.200000X-0.275000X0.200000X-0.275000X0*%
%ADD21RoundRect,0.167500X0.000000X0.236881X-0.236881X0.000000X0.000000X-0.236881X0.236881X0.000000X0*%
%ADD22RoundRect,0.050000X0.229810X0.300520X-0.300520X-0.229810X-0.229810X-0.300520X0.300520X0.229810X0*%
%ADD23RoundRect,0.050000X-0.229810X0.300520X-0.300520X0.229810X0.229810X-0.300520X0.300520X-0.229810X0*%
%ADD24RotRect,1.050000X0.650000X135.000000*%
G04 APERTURE END LIST*
D10*
%TO.C,D20*%
X218900000Y-87100000D03*
X217325000Y-87100000D03*
%TD*%
D11*
%TO.C,D18*%
X215356847Y-87743153D03*
X214243153Y-88856847D03*
%TD*%
D12*
%TO.C,R5*%
X200016637Y-94916637D03*
X201183363Y-96083363D03*
%TD*%
D13*
%TO.C,D17*%
X220743153Y-87743153D03*
X221856847Y-88856847D03*
%TD*%
D14*
%TO.C,D16*%
X217456847Y-98956847D03*
X216343153Y-97843153D03*
%TD*%
%TO.C,D15*%
X209613694Y-100113694D03*
X208500000Y-99000000D03*
%TD*%
%TO.C,D10*%
X211813694Y-102313694D03*
X210700000Y-101200000D03*
%TD*%
D13*
%TO.C,D7*%
X212886306Y-90086306D03*
X214000000Y-91200000D03*
%TD*%
D15*
%TO.C,R1*%
X205283363Y-100483363D03*
X204116637Y-99316637D03*
%TD*%
D16*
%TO.C,Q2*%
X218862913Y-92337087D03*
X218208839Y-94334664D03*
X216865336Y-92991161D03*
%TD*%
D10*
%TO.C,D2*%
X208601194Y-87186306D03*
X207026194Y-87186306D03*
%TD*%
D14*
%TO.C,D1*%
X211546797Y-88953367D03*
X210433103Y-87839673D03*
%TD*%
D17*
%TO.C,D13*%
X218600000Y-97700000D03*
X219713694Y-96586306D03*
%TD*%
D13*
%TO.C,D5*%
X204056847Y-94529459D03*
X205170541Y-95643153D03*
%TD*%
D17*
%TO.C,D12*%
X216256847Y-100143153D03*
X215143153Y-101256847D03*
%TD*%
D11*
%TO.C,D3*%
X205213694Y-87986306D03*
X204100000Y-89100000D03*
%TD*%
D18*
%TO.C,R15*%
X225383363Y-95816637D03*
X224216637Y-96983363D03*
%TD*%
D14*
%TO.C,D6*%
X207356847Y-97856847D03*
X206243153Y-96743153D03*
%TD*%
D19*
%TO.C,D4*%
X203413694Y-92573806D03*
X203413694Y-90998806D03*
%TD*%
%TO.C,D19*%
X222600000Y-92387500D03*
X222600000Y-90812500D03*
%TD*%
D17*
%TO.C,D14*%
X220843153Y-95456847D03*
X221956847Y-94343153D03*
%TD*%
D20*
%TO.C,R4*%
X207475000Y-84400000D03*
X209125000Y-84400000D03*
%TD*%
D21*
%TO.C,U1*%
X213479828Y-95820172D03*
X212900000Y-95240344D03*
X212900000Y-96400000D03*
X212320172Y-95820172D03*
D22*
X214490990Y-95360553D03*
X214208148Y-95077710D03*
X213925305Y-94794867D03*
X213642462Y-94512024D03*
X213359619Y-94229182D03*
D23*
X212440381Y-94229182D03*
X212157538Y-94512024D03*
X211874695Y-94794867D03*
X211591852Y-95077710D03*
X211309010Y-95360553D03*
D22*
X211309010Y-96279791D03*
X211591852Y-96562634D03*
X211874695Y-96845477D03*
X212157538Y-97128320D03*
X212440381Y-97411162D03*
D23*
X213359619Y-97411162D03*
X213642462Y-97128320D03*
X213925305Y-96845477D03*
X214208148Y-96562634D03*
X214490990Y-96279791D03*
%TD*%
D20*
%TO.C,R3*%
X217175000Y-83600000D03*
X218825000Y-83600000D03*
%TD*%
D12*
%TO.C,R2*%
X222833274Y-85233274D03*
X224000000Y-86400000D03*
%TD*%
D11*
%TO.C,D11*%
X214000000Y-102400000D03*
X212886306Y-103513694D03*
%TD*%
D24*
%TO.C,SW2*%
X210007107Y-107727386D03*
X207072614Y-104792893D03*
X211527386Y-106207107D03*
X208592893Y-103272614D03*
%TD*%
M02*
