%TF.GenerationSoftware,KiCad,Pcbnew,7.0.7*%
%TF.CreationDate,2024-03-31T22:15:52-04:00*%
%TF.ProjectId,battery_leds,62617474-6572-4795-9f6c-6564732e6b69,rev?*%
%TF.SameCoordinates,Original*%
%TF.FileFunction,Drillmap*%
%TF.FilePolarity,Positive*%
%FSLAX45Y45*%
G04 Gerber Fmt 4.5, Leading zero omitted, Abs format (unit mm)*
G04 Created by KiCad (PCBNEW 7.0.7) date 2024-03-31 22:15:52*
%MOMM*%
%LPD*%
G01*
G04 APERTURE LIST*
%ADD10C,0.050000*%
%ADD11C,0.200000*%
G04 APERTURE END LIST*
D10*
X21430000Y-8230000D02*
G75*
G03*
X21430000Y-8230000I-130000J0D01*
G01*
X22900000Y-9320000D02*
G75*
G03*
X22900000Y-9320000I-1600000J0D01*
G01*
D11*
X19958277Y-11233984D02*
X19958277Y-11033984D01*
X19958277Y-11033984D02*
X20005896Y-11033984D01*
X20005896Y-11033984D02*
X20034467Y-11043508D01*
X20034467Y-11043508D02*
X20053515Y-11062555D01*
X20053515Y-11062555D02*
X20063039Y-11081603D01*
X20063039Y-11081603D02*
X20072563Y-11119698D01*
X20072563Y-11119698D02*
X20072563Y-11148270D01*
X20072563Y-11148270D02*
X20063039Y-11186365D01*
X20063039Y-11186365D02*
X20053515Y-11205412D01*
X20053515Y-11205412D02*
X20034467Y-11224460D01*
X20034467Y-11224460D02*
X20005896Y-11233984D01*
X20005896Y-11233984D02*
X19958277Y-11233984D01*
X20158277Y-11233984D02*
X20158277Y-11100650D01*
X20158277Y-11138746D02*
X20167801Y-11119698D01*
X20167801Y-11119698D02*
X20177324Y-11110174D01*
X20177324Y-11110174D02*
X20196372Y-11100650D01*
X20196372Y-11100650D02*
X20215420Y-11100650D01*
X20282086Y-11233984D02*
X20282086Y-11100650D01*
X20282086Y-11033984D02*
X20272563Y-11043508D01*
X20272563Y-11043508D02*
X20282086Y-11053031D01*
X20282086Y-11053031D02*
X20291610Y-11043508D01*
X20291610Y-11043508D02*
X20282086Y-11033984D01*
X20282086Y-11033984D02*
X20282086Y-11053031D01*
X20405896Y-11233984D02*
X20386848Y-11224460D01*
X20386848Y-11224460D02*
X20377324Y-11205412D01*
X20377324Y-11205412D02*
X20377324Y-11033984D01*
X20510658Y-11233984D02*
X20491610Y-11224460D01*
X20491610Y-11224460D02*
X20482086Y-11205412D01*
X20482086Y-11205412D02*
X20482086Y-11033984D01*
X20739229Y-11233984D02*
X20739229Y-11033984D01*
X20739229Y-11033984D02*
X20805896Y-11176841D01*
X20805896Y-11176841D02*
X20872563Y-11033984D01*
X20872563Y-11033984D02*
X20872563Y-11233984D01*
X21053515Y-11233984D02*
X21053515Y-11129222D01*
X21053515Y-11129222D02*
X21043991Y-11110174D01*
X21043991Y-11110174D02*
X21024944Y-11100650D01*
X21024944Y-11100650D02*
X20986848Y-11100650D01*
X20986848Y-11100650D02*
X20967801Y-11110174D01*
X21053515Y-11224460D02*
X21034467Y-11233984D01*
X21034467Y-11233984D02*
X20986848Y-11233984D01*
X20986848Y-11233984D02*
X20967801Y-11224460D01*
X20967801Y-11224460D02*
X20958277Y-11205412D01*
X20958277Y-11205412D02*
X20958277Y-11186365D01*
X20958277Y-11186365D02*
X20967801Y-11167317D01*
X20967801Y-11167317D02*
X20986848Y-11157793D01*
X20986848Y-11157793D02*
X21034467Y-11157793D01*
X21034467Y-11157793D02*
X21053515Y-11148270D01*
X21148753Y-11100650D02*
X21148753Y-11300650D01*
X21148753Y-11110174D02*
X21167801Y-11100650D01*
X21167801Y-11100650D02*
X21205896Y-11100650D01*
X21205896Y-11100650D02*
X21224944Y-11110174D01*
X21224944Y-11110174D02*
X21234467Y-11119698D01*
X21234467Y-11119698D02*
X21243991Y-11138746D01*
X21243991Y-11138746D02*
X21243991Y-11195888D01*
X21243991Y-11195888D02*
X21234467Y-11214936D01*
X21234467Y-11214936D02*
X21224944Y-11224460D01*
X21224944Y-11224460D02*
X21205896Y-11233984D01*
X21205896Y-11233984D02*
X21167801Y-11233984D01*
X21167801Y-11233984D02*
X21148753Y-11224460D01*
X21329705Y-11214936D02*
X21339229Y-11224460D01*
X21339229Y-11224460D02*
X21329705Y-11233984D01*
X21329705Y-11233984D02*
X21320182Y-11224460D01*
X21320182Y-11224460D02*
X21329705Y-11214936D01*
X21329705Y-11214936D02*
X21329705Y-11233984D01*
X21329705Y-11110174D02*
X21339229Y-11119698D01*
X21339229Y-11119698D02*
X21329705Y-11129222D01*
X21329705Y-11129222D02*
X21320182Y-11119698D01*
X21320182Y-11119698D02*
X21329705Y-11110174D01*
X21329705Y-11110174D02*
X21329705Y-11129222D01*
M02*
