M48
; DRILL file {KiCad 7.0.7} date Thu Oct 26 11:17:01 2023
; FORMAT={-:-/ absolute / metric / decimal}
; #@! TF.CreationDate,2023-10-26T11:17:01-04:00
; #@! TF.GenerationSoftware,Kicad,Pcbnew,7.0.7
; #@! TF.FileFunction,Plated,1,2,PTH
FMAT,2
METRIC
; #@! TA.AperFunction,Plated,PTH,ComponentDrill
T1C0.300
; #@! TA.AperFunction,Plated,PTH,ViaDrill
T2C0.400
; #@! TA.AperFunction,Plated,PTH,ComponentDrill
T3C0.750
; #@! TA.AperFunction,Plated,PTH,ComponentDrill
T4C0.800
; #@! TA.AperFunction,Plated,PTH,ComponentDrill
T5C1.000
; #@! TA.AperFunction,Plated,PTH,ComponentDrill
T6C1.100
; #@! TA.AperFunction,Plated,PTH,ComponentDrill
T7C1.300
; #@! TA.AperFunction,Plated,PTH,ComponentDrill
T8C1.500
%
G90
G05
T1
X120.502Y-62.72
X120.502Y-64.12
X121.202Y-62.02
X121.202Y-63.42
X121.202Y-64.82
X121.877Y-62.72
X121.877Y-64.12
X122.602Y-62.02
X122.602Y-63.42
X122.602Y-64.82
X123.302Y-62.72
X123.302Y-64.12
T2
X91.5Y-56.0
X91.899Y-133.4
X92.0Y-103.6
X92.182Y-152.926
X93.049Y-129.6
X94.3Y-138.1
X94.5Y-126.2
X94.5Y-129.2
X94.7Y-116.0
X95.0Y-98.2
X95.0Y-143.7
X95.1Y-59.1
X95.1Y-93.1
X95.2Y-103.1
X95.259Y-129.85
X95.4Y-99.9
X95.793Y-87.993
X95.8Y-65.6
X95.848Y-132.199
X96.1Y-137.4
X96.5Y-66.8
X96.622Y-77.178
X96.788Y-134.712
X96.9Y-118.6
X96.9Y-133.7
X97.1Y-113.6
X97.3Y-114.8
X97.3Y-147.0
X97.499Y-136.413
X97.5Y-137.7
X97.8Y-81.6
X97.9Y-106.9
X97.9Y-108.7
X98.2Y-121.9
X98.589Y-133.001
X98.8Y-117.2
X99.0Y-100.4
X99.3Y-138.3
X99.395Y-127.085
X99.5Y-153.1
X99.6Y-92.8
X99.682Y-97.301
X99.682Y-103.226
X99.882Y-71.163
X99.882Y-77.088
X99.882Y-83.963
X99.882Y-89.888
X100.0Y-141.941
X100.095Y-129.5
X100.6Y-91.836
X100.6Y-120.8
X100.9Y-130.1
X101.1Y-128.6
X101.1Y-140.4
X101.2Y-122.331
X102.2Y-75.9
X102.3Y-82.1
X102.8Y-71.7
X102.8Y-123.2
X103.1Y-87.666
X103.2Y-92.0
X103.302Y-68.282
X103.5Y-138.225
X103.7Y-117.2
X104.3Y-81.2
X104.3Y-143.8
X110.7Y-67.9
X110.839Y-99.761
X110.9Y-75.3
X112.8Y-59.8
X113.459Y-143.441
X113.9Y-89.6
X114.0Y-104.1
X114.2Y-109.4
X114.652Y-60.946
X114.652Y-66.026
X114.7Y-58.4
X114.7Y-59.7
X114.7Y-63.3
X114.7Y-64.8
X114.7Y-72.4
X114.7Y-128.7
X114.7Y-100.4
X114.8Y-57.1
X114.8Y-131.1
X115.349Y-102.501
X115.7Y-87.4
X115.7Y-97.4
X116.399Y-117.4
X116.582Y-98.8
X116.983Y-90.7
X117.1Y-77.599
X117.1Y-132.4
X117.222Y-125.038
X117.222Y-130.963
X117.3Y-83.7
X117.382Y-114.8
X117.4Y-106.3
X117.6Y-111.4
X118.3Y-128.8
X118.5Y-120.7
X119.382Y-109.726
X119.75Y-147.05
X120.0Y-138.1
X120.5Y-76.0
X120.5Y-84.3
X120.6Y-70.4
X120.9Y-132.4
X121.0Y-104.6
X121.5Y-140.4
X121.6Y-147.8
X121.922Y-109.726
X121.922Y-118.336
X122.0Y-135.2
X122.2Y-88.1
X122.2Y-149.8
X122.5Y-123.2
X123.0Y-136.176
X123.1Y-67.9
X123.907Y-135.607
X124.1Y-134.6
X124.155Y-68.655
X124.462Y-109.726
X124.8Y-92.376
X125.09Y-69.01
X125.3Y-137.5
X125.4Y-56.3
X125.8Y-71.8
X125.9Y-95.2
X126.9Y-64.6
X127.0Y-90.2
X127.0Y-123.5
X127.0Y-127.399
X127.0Y-130.9
X127.002Y-109.726
X127.1Y-153.7
X127.2Y-118.3
X127.599Y-138.0
X127.9Y-112.0
X128.0Y-69.6
X128.1Y-65.2
X128.2Y-114.2
X128.3Y-57.7
X128.4Y-55.7
X128.6Y-120.799
X128.7Y-99.7
X128.9Y-63.1
X129.1Y-81.6
X129.2Y-73.7
X129.299Y-118.5
X129.3Y-129.5
X129.4Y-127.8
X129.44Y-83.84
X129.5Y-131.0
X129.6Y-105.799
X130.2Y-58.5
X130.4Y-82.7
X130.4Y-126.9
X130.5Y-121.8
X130.6Y-63.0
X131.1Y-116.8
X131.1Y-119.5
X132.102Y-87.502
X132.2Y-72.3
X132.3Y-61.0
X132.3Y-103.2
X133.1Y-135.737
X133.899Y-79.2
X134.0Y-65.2
X134.1Y-102.6
X134.504Y-87.804
X134.733Y-100.6
X134.999Y-64.073
X135.7Y-67.1
X136.132Y-69.5
X136.132Y-71.1
X136.3Y-77.916
X139.401Y-69.321
T3
X99.6Y-111.56
X99.6Y-112.83
X99.6Y-114.1
T4
X99.732Y-123.431
X99.732Y-125.431
X116.388Y-136.951
X116.388Y-138.951
X116.388Y-140.951
X116.388Y-142.951
X116.388Y-144.951
X116.388Y-146.951
X116.388Y-148.951
X116.388Y-150.951
X130.382Y-136.951
X130.382Y-138.951
X130.382Y-140.951
X130.382Y-142.951
X130.382Y-144.951
X130.382Y-146.951
X130.382Y-148.951
X130.382Y-150.951
T5
X93.5Y-56.276
X93.5Y-58.816
X93.5Y-61.356
X93.5Y-63.896
X93.5Y-66.436
X93.5Y-68.976
X93.5Y-71.516
X93.5Y-74.056
X93.5Y-76.596
X93.5Y-79.136
X93.5Y-81.676
X93.5Y-84.216
X93.5Y-86.756
X93.5Y-89.296
X93.5Y-91.836
X93.5Y-94.376
X93.5Y-96.916
X93.5Y-99.456
X93.5Y-101.996
X93.5Y-104.536
X93.5Y-107.076
X93.5Y-109.616
X93.5Y-112.156
X93.5Y-114.696
X93.5Y-117.236
X93.5Y-119.776
X93.5Y-122.316
X93.5Y-124.856
X93.5Y-127.396
X105.782Y-56.3
X105.782Y-58.84
X105.782Y-61.38
X105.782Y-63.92
X105.782Y-66.46
X105.782Y-69.0
X105.782Y-71.54
X105.782Y-74.08
X105.782Y-76.62
X105.782Y-79.16
X105.782Y-81.7
X105.782Y-84.24
X105.782Y-86.78
X105.782Y-89.32
X105.782Y-91.86
X105.782Y-94.4
X105.782Y-96.94
X105.782Y-99.48
X105.782Y-102.02
X105.782Y-104.56
X105.782Y-107.1
X105.782Y-109.64
X105.782Y-112.18
X105.782Y-114.72
X105.782Y-117.26
X105.782Y-119.8
X105.782Y-122.34
X105.782Y-124.88
X105.782Y-127.42
X105.782Y-129.96
X105.782Y-132.5
X105.782Y-135.04
X105.782Y-137.58
X105.782Y-140.12
X105.782Y-142.66
X105.782Y-145.2
X105.782Y-147.74
X105.782Y-150.28
X105.782Y-152.82
X108.957Y-56.326
X108.957Y-58.866
X108.957Y-61.406
X108.957Y-63.946
X108.957Y-66.486
X108.957Y-69.026
X108.957Y-71.566
X108.957Y-74.106
X108.957Y-76.646
X108.957Y-79.186
X108.957Y-81.726
X108.957Y-84.266
X108.957Y-86.806
X108.957Y-89.346
X108.957Y-91.886
X108.957Y-94.426
X108.957Y-96.966
X108.957Y-99.506
X108.957Y-102.046
X108.957Y-104.586
X108.957Y-107.126
X108.957Y-109.666
X108.957Y-112.206
X108.957Y-114.746
X108.957Y-117.286
X108.957Y-119.826
X108.957Y-122.366
X108.957Y-124.906
X108.957Y-127.446
X108.957Y-129.986
X108.957Y-132.526
X108.957Y-135.066
X108.957Y-137.606
X108.957Y-140.146
X108.957Y-142.686
X108.957Y-145.226
X108.957Y-147.766
X108.957Y-150.306
X108.957Y-152.846
X112.047Y-104.566
X112.047Y-107.106
X112.047Y-109.646
X112.047Y-112.186
X112.047Y-114.726
X112.047Y-117.266
X112.047Y-119.806
X112.047Y-122.346
X112.047Y-124.886
X112.047Y-127.426
X112.047Y-129.966
X112.047Y-132.506
X112.047Y-135.046
X112.047Y-137.586
X112.047Y-140.126
X112.047Y-142.666
X112.047Y-145.206
X112.047Y-147.746
X112.047Y-150.286
X112.047Y-152.826
X112.482Y-93.676
X112.482Y-96.176
X112.482Y-98.676
X126.982Y-93.676
X126.982Y-98.676
X130.407Y-94.446
X130.407Y-96.986
X130.407Y-99.526
X131.622Y-80.286
X131.622Y-85.366
X134.907Y-104.566
X134.907Y-107.106
X134.907Y-109.646
X134.907Y-112.186
X134.907Y-114.726
X134.907Y-117.266
X134.907Y-119.806
X134.907Y-122.346
X134.907Y-124.886
X134.907Y-127.426
X134.907Y-129.966
X134.907Y-132.506
X134.907Y-135.046
X134.907Y-137.586
X134.907Y-140.126
X134.907Y-142.666
X134.907Y-145.206
X134.907Y-147.746
X134.907Y-150.286
X134.907Y-152.826
X137.982Y-56.326
X137.982Y-58.866
X137.982Y-61.406
X137.982Y-63.946
X137.982Y-66.486
X137.982Y-69.026
X137.982Y-71.566
X137.982Y-74.106
X137.982Y-76.646
X137.982Y-79.186
X137.982Y-81.726
X137.982Y-84.266
X137.982Y-86.806
X137.982Y-89.346
X137.982Y-91.886
X137.982Y-94.426
X137.982Y-96.966
X137.982Y-99.506
X137.982Y-102.046
X137.982Y-104.586
X137.982Y-107.126
X137.982Y-109.666
X137.982Y-112.206
X137.982Y-114.746
X137.982Y-117.286
X137.982Y-119.826
X137.982Y-122.366
X137.982Y-124.906
X137.982Y-127.446
X137.982Y-129.986
X137.982Y-132.526
X137.982Y-135.066
X137.982Y-137.606
X137.982Y-140.146
X137.982Y-142.686
X137.982Y-145.226
X137.982Y-147.766
X137.982Y-150.306
X137.982Y-152.846
T6
X97.532Y-57.576
X97.532Y-64.076
X102.032Y-57.576
X102.032Y-64.076
T7
X113.032Y-80.326
X113.032Y-85.326
X125.532Y-80.326
X125.532Y-85.326
T8
G00X119.332Y-90.576
M15
G01X120.632Y-90.576
M16
G05
G00X119.332Y-101.776
M15
G01X120.632Y-101.776
M16
G05
T0
M30
