M48
; DRILL file {KiCad 7.0.7} date Tue Jan  9 19:06:39 2024
; FORMAT={-:-/ absolute / metric / decimal}
; #@! TF.CreationDate,2024-01-09T19:06:39-05:00
; #@! TF.GenerationSoftware,Kicad,Pcbnew,7.0.7
; #@! TF.FileFunction,Plated,1,2,PTH
FMAT,2
METRIC
; #@! TA.AperFunction,Plated,PTH,ViaDrill
T1C0.300
; #@! TA.AperFunction,Plated,PTH,ComponentDrill
T2C0.300
; #@! TA.AperFunction,Plated,PTH,ComponentDrill
T3C0.500
; #@! TA.AperFunction,Plated,PTH,ComponentDrill
T4C0.600
; #@! TA.AperFunction,Plated,PTH,ComponentDrill
T5C0.750
; #@! TA.AperFunction,Plated,PTH,ComponentDrill
T6C0.800
; #@! TA.AperFunction,Plated,PTH,ComponentDrill
T7C1.000
; #@! TA.AperFunction,Plated,PTH,ComponentDrill
T8C1.300
%
G90
G05
T1
X146.8Y-114.8
X148.2Y-50.6
X148.45Y-63.75
X149.4Y-63.8
X149.5Y-124.8
X149.6Y-101.9
X149.899Y-114.8
X149.9Y-43.1
X150.2Y-85.8
X150.4Y-118.15
X150.45Y-110.1
X150.55Y-111.05
X150.8Y-140.4
X151.5Y-113.8
X151.6Y-71.55
X151.6Y-75.4
X151.8Y-58.939
X153.2Y-59.8
X153.2Y-62.4
X153.2Y-93.0
X153.5Y-130.4
X153.7Y-119.35
X154.05Y-94.85
X154.5Y-52.25
X155.8Y-109.6
X155.9Y-79.5
X156.15Y-87.85
X156.35Y-63.836
X156.4Y-59.3
X156.5Y-73.9
X156.8Y-141.1
X157.3Y-57.2
X157.813Y-77.5
X158.2Y-63.0
X158.25Y-90.75
X158.4Y-43.8
X158.6Y-111.9
X158.7Y-115.7
X158.9Y-118.7
X159.15Y-90.5
X159.4Y-121.2
X159.6Y-43.0
X159.6Y-48.2
X160.2Y-72.85
X160.2Y-132.0
X160.4Y-73.7
X160.5Y-77.7
X160.6Y-139.2
X161.05Y-104.45
X161.2Y-57.2
X161.6Y-106.2
X161.6Y-111.1
X161.6Y-114.399
X161.65Y-111.95
X161.8Y-101.45
X161.8Y-124.5
X162.0Y-89.3
X162.0Y-130.2
X162.2Y-113.85
X162.4Y-116.8
X162.436Y-135.558
X162.9Y-91.8
X163.0Y-124.3
X163.35Y-137.85
X163.7Y-69.0
X163.8Y-106.4
X163.8Y-107.8
X164.5Y-59.9
X164.5Y-113.3
X164.5Y-119.5
X164.75Y-76.75
X164.85Y-74.9
X165.0Y-108.4
X165.2Y-116.8
X165.3Y-57.8
X165.391Y-129.999
X165.7Y-106.5
X166.2Y-127.1
X166.4Y-76.6
X166.6Y-78.2
X166.6Y-80.0
X167.6Y-90.4
X168.0Y-109.8
X168.0Y-114.6
X168.4Y-44.4
X168.45Y-51.5
X168.612Y-116.787
X168.8Y-67.0
X173.274Y-55.276
X173.9Y-78.35
X176.4Y-139.45
X176.8Y-124.8
X176.9Y-51.2
X177.0Y-132.3
X177.05Y-43.95
X177.2Y-116.8
X177.4Y-56.45
X177.5Y-63.8
X177.7Y-58.1
X177.7Y-72.8
X177.737Y-125.855
X177.9Y-108.6
X178.7Y-107.9
X178.7Y-127.9
X178.85Y-48.7
X179.2Y-115.7
X179.346Y-46.954
X179.5Y-49.4
X179.5Y-68.8
X179.5Y-118.4
X179.7Y-53.1
X179.7Y-104.8
X180.0Y-127.95
X180.55Y-67.55
X180.7Y-121.2
X181.1Y-133.1
X181.2Y-82.0
X181.6Y-121.45
X181.9Y-74.2
X182.2Y-126.7
X182.6Y-67.05
X182.6Y-72.0
X182.75Y-129.814
X182.85Y-64.05
X183.25Y-117.85
X183.35Y-130.6
X183.4Y-43.65
X183.45Y-58.05
X183.5Y-124.8
X183.6Y-54.8
X183.7Y-56.5
X183.8Y-102.2
X184.0Y-121.05
X184.05Y-94.6
X184.2Y-115.0
X184.75Y-123.0
X185.2Y-53.3
X185.35Y-130.8
X185.4Y-87.15
X185.4Y-123.4
X185.464Y-124.864
X185.5Y-89.85
X185.65Y-58.1
X185.7Y-109.8
X185.8Y-107.1
X186.1Y-113.3
X186.136Y-62.236
X186.32Y-72.0
X186.4Y-94.9
X187.2Y-108.0
X187.3Y-100.4
X187.4Y-132.8
X187.4Y-134.4
X187.45Y-55.0
X187.6Y-120.4
X187.95Y-56.5
X188.0Y-44.3
X188.1Y-95.0
X188.2Y-130.45
X188.3Y-112.0
X188.9Y-137.1
X188.95Y-51.7
X189.0Y-101.2
X189.15Y-134.6
X189.6Y-45.15
X189.8Y-94.35
X189.95Y-130.75
X190.0Y-73.45
X190.19Y-80.0
X190.35Y-86.85
X190.65Y-52.4
X190.65Y-102.3
X190.95Y-117.4
X191.0Y-55.5
X191.0Y-122.2
X191.05Y-64.05
X191.299Y-130.8
X191.7Y-103.7
X191.7Y-131.4
X192.0Y-90.3
X192.2Y-67.5
X192.3Y-62.3
X192.5Y-115.75
X192.5Y-120.7
X192.7Y-106.2
X192.8Y-95.4
X193.05Y-87.95
X193.6Y-131.0
X194.5Y-104.5
X194.6Y-114.6
X194.8Y-66.9
X194.9Y-109.2
X195.0Y-44.8
X195.1Y-48.5
X195.1Y-52.4
X195.35Y-61.05
X195.5Y-82.3
X195.6Y-89.8
X196.1Y-102.1
X196.8Y-43.249
X196.95Y-70.3
X197.0Y-71.6
X197.0Y-88.4
X197.05Y-66.95
X197.451Y-79.6
X197.9Y-65.15
X198.45Y-74.4
X198.451Y-57.6
X198.6Y-45.6
X199.6Y-78.8
X200.0Y-85.4
T2
X184.06Y-50.0
X184.06Y-51.1
X184.61Y-49.45
X184.61Y-50.55
X184.61Y-51.65
X185.16Y-50.0
X185.16Y-51.1
X185.71Y-49.45
X185.71Y-50.55
X185.71Y-51.65
X186.26Y-50.0
X186.26Y-51.1
T3
X191.8Y-133.25
X193.5Y-133.25
T5
X163.86Y-65.912
X165.13Y-65.912
X166.4Y-65.912
T6
X164.4Y-87.4
X164.4Y-89.4
X164.4Y-91.4
X164.4Y-93.4
X164.4Y-95.4
X164.4Y-97.4
X164.4Y-99.4
T7
X146.9Y-44.0
X146.9Y-46.54
X146.9Y-49.08
X146.9Y-51.62
X146.9Y-54.16
X146.9Y-56.7
X146.9Y-59.24
X146.9Y-61.78
X146.9Y-64.32
X146.9Y-66.86
X146.9Y-69.4
X146.9Y-71.94
X146.9Y-74.48
X146.9Y-77.02
X146.9Y-79.56
X171.0Y-43.62
X171.0Y-46.16
X171.0Y-48.7
X171.0Y-51.24
X171.0Y-53.78
X171.0Y-56.32
X171.0Y-58.86
X171.0Y-61.4
X171.0Y-63.94
X171.0Y-66.48
X171.0Y-69.02
X171.0Y-71.56
X171.0Y-74.1
X171.0Y-76.64
X171.0Y-79.18
X171.0Y-81.72
X171.0Y-84.26
X171.0Y-86.8
X171.0Y-89.34
X171.0Y-91.88
X171.0Y-94.42
X171.0Y-96.96
X171.0Y-99.5
X171.0Y-102.04
X171.0Y-104.58
X171.0Y-107.12
X171.0Y-109.66
X171.0Y-112.2
X171.0Y-114.74
X171.0Y-117.28
X171.0Y-119.82
X171.0Y-122.36
X171.0Y-124.9
X171.0Y-127.44
X171.0Y-129.98
X171.0Y-132.52
X171.0Y-135.06
X171.0Y-137.6
X171.0Y-140.14
X174.676Y-91.94
X174.676Y-94.48
X174.676Y-97.02
X174.676Y-99.56
X174.676Y-102.1
X174.676Y-104.64
X174.676Y-107.18
X174.676Y-109.72
X174.676Y-112.26
X174.676Y-114.8
X174.676Y-117.34
X174.676Y-119.88
X174.676Y-122.42
X174.676Y-124.96
X174.676Y-127.5
X174.676Y-130.04
X174.676Y-132.58
X174.676Y-135.12
X174.676Y-137.66
X174.676Y-140.2
X197.536Y-91.94
X197.536Y-94.48
X197.536Y-97.02
X197.536Y-99.56
X197.536Y-102.1
X197.536Y-104.64
X197.536Y-107.18
X197.536Y-109.72
X197.536Y-112.26
X197.536Y-114.8
X197.536Y-117.34
X197.536Y-119.88
X197.536Y-122.42
X197.536Y-124.96
X197.536Y-127.5
X197.536Y-130.04
X197.536Y-132.58
X197.536Y-135.12
X197.536Y-137.66
X197.536Y-140.2
X201.23Y-43.62
X201.23Y-46.16
X201.23Y-48.7
X201.23Y-51.24
X201.23Y-53.78
X201.23Y-56.32
X201.23Y-58.86
X201.23Y-61.4
X201.23Y-63.94
X201.23Y-66.48
X201.23Y-69.02
X201.23Y-71.56
X201.23Y-74.1
X201.23Y-76.64
X201.23Y-79.18
X201.23Y-81.72
X201.23Y-84.26
X201.23Y-86.8
X201.23Y-89.34
X201.23Y-91.88
X201.23Y-94.42
X201.23Y-96.96
X201.23Y-99.5
X201.23Y-102.04
X201.23Y-104.58
X201.23Y-107.12
X201.23Y-109.66
X201.23Y-112.2
X201.23Y-114.74
X201.23Y-117.28
X201.23Y-119.82
X201.23Y-122.36
X201.23Y-124.9
X201.23Y-127.44
X201.23Y-129.98
X201.23Y-132.52
X201.23Y-135.06
X201.23Y-137.6
X201.23Y-140.14
T8
X146.8Y-120.3
X146.8Y-140.3
T4
X148.515Y-107.98G85X147.915Y-107.98
G05
X148.515Y-116.62G85X147.915Y-116.62
G05
X152.945Y-107.98G85X151.845Y-107.98
G05
X152.945Y-116.62G85X151.845Y-116.62
G05
T0
M30
