G04 #@! TF.GenerationSoftware,KiCad,Pcbnew,7.0.7*
G04 #@! TF.CreationDate,2024-01-09T19:06:28-05:00*
G04 #@! TF.ProjectId,sensor_node,73656e73-6f72-45f6-9e6f-64652e6b6963,rev?*
G04 #@! TF.SameCoordinates,Original*
G04 #@! TF.FileFunction,Soldermask,Bot*
G04 #@! TF.FilePolarity,Negative*
%FSLAX46Y46*%
G04 Gerber Fmt 4.6, Leading zero omitted, Abs format (unit mm)*
G04 Created by KiCad (PCBNEW 7.0.7) date 2024-01-09 19:06:28*
%MOMM*%
%LPD*%
G01*
G04 APERTURE LIST*
G04 Aperture macros list*
%AMRoundRect*
0 Rectangle with rounded corners*
0 $1 Rounding radius*
0 $2 $3 $4 $5 $6 $7 $8 $9 X,Y pos of 4 corners*
0 Add a 4 corners polygon primitive as box body*
4,1,4,$2,$3,$4,$5,$6,$7,$8,$9,$2,$3,0*
0 Add four circle primitives for the rounded corners*
1,1,$1+$1,$2,$3*
1,1,$1+$1,$4,$5*
1,1,$1+$1,$6,$7*
1,1,$1+$1,$8,$9*
0 Add four rect primitives between the rounded corners*
20,1,$1+$1,$2,$3,$4,$5,0*
20,1,$1+$1,$4,$5,$6,$7,0*
20,1,$1+$1,$6,$7,$8,$9,0*
20,1,$1+$1,$8,$9,$2,$3,0*%
G04 Aperture macros list end*
%ADD10R,1.350000X1.350000*%
%ADD11O,1.350000X1.350000*%
%ADD12RoundRect,0.350000X-0.350000X0.650000X-0.350000X-0.650000X0.350000X-0.650000X0.350000X0.650000X0*%
%ADD13RoundRect,0.250000X0.262500X0.450000X-0.262500X0.450000X-0.262500X-0.450000X0.262500X-0.450000X0*%
%ADD14R,2.000000X0.700000*%
%ADD15R,0.700000X2.000000*%
%ADD16C,1.000000*%
%ADD17C,0.650000*%
%ADD18O,1.600000X1.000000*%
%ADD19O,2.100000X1.000000*%
%ADD20O,1.050000X1.500000*%
%ADD21R,1.050000X1.500000*%
%ADD22R,1.700000X1.700000*%
%ADD23O,1.700000X1.700000*%
%ADD24R,2.100000X2.100000*%
%ADD25C,2.100000*%
%ADD26RoundRect,0.200000X0.200000X-0.800000X0.200000X0.800000X-0.200000X0.800000X-0.200000X-0.800000X0*%
%ADD27RoundRect,0.200000X-0.800000X-0.200000X0.800000X-0.200000X0.800000X0.200000X-0.800000X0.200000X0*%
%ADD28R,2.500000X1.100000*%
%ADD29R,1.100000X2.500000*%
G04 APERTURE END LIST*
D10*
X164400000Y-87400000D03*
D11*
X164400000Y-89400000D03*
X164400000Y-91400000D03*
X164400000Y-93400000D03*
X164400000Y-95400000D03*
X164400000Y-97400000D03*
X164400000Y-99400000D03*
D12*
X181750000Y-128050000D03*
X183750000Y-128050000D03*
X185750000Y-128050000D03*
X187750000Y-128050000D03*
X189750000Y-128050000D03*
X191750000Y-128050000D03*
D13*
X176300000Y-52700000D03*
X174475000Y-52700000D03*
X176300000Y-49750000D03*
X174475000Y-49750000D03*
X176287500Y-47350000D03*
X174462500Y-47350000D03*
X176287500Y-55100000D03*
X174462500Y-55100000D03*
D14*
X195050000Y-68350000D03*
X195050000Y-69620000D03*
X195050000Y-70890000D03*
X195050000Y-72160000D03*
X195050000Y-73430000D03*
D15*
X192200000Y-75950000D03*
X190930000Y-75950000D03*
X189660000Y-75950000D03*
X188390000Y-75950000D03*
X187120000Y-75950000D03*
D14*
X184250000Y-73480000D03*
X184250000Y-72210000D03*
X184250000Y-70940000D03*
X184250000Y-69670000D03*
X184250000Y-68400000D03*
D15*
X187120000Y-65850000D03*
X188390000Y-65850000D03*
X189660000Y-65850000D03*
X190930000Y-65850000D03*
X192200000Y-65850000D03*
D16*
X191800000Y-133250000D03*
X193500000Y-133250000D03*
D17*
X151865000Y-115190000D03*
X151865000Y-109410000D03*
D18*
X148215000Y-107980000D03*
D19*
X152395000Y-107980000D03*
X152395000Y-116620000D03*
D18*
X148215000Y-116620000D03*
D20*
X166400000Y-65912500D03*
X165130000Y-65912500D03*
D21*
X163860000Y-65912500D03*
D15*
X146650000Y-104650000D03*
X147920000Y-104650000D03*
X149190000Y-104650000D03*
X150460000Y-104650000D03*
X151730000Y-104650000D03*
X153000000Y-104650000D03*
X154270000Y-104650000D03*
X155540000Y-104650000D03*
D14*
X157800000Y-102030000D03*
X157800000Y-100760000D03*
X157800000Y-99490000D03*
X157800000Y-98220000D03*
X157800000Y-96950000D03*
X157800000Y-95680000D03*
X157800000Y-94410000D03*
X157800000Y-93140000D03*
D15*
X155540000Y-90550000D03*
X154270000Y-90550000D03*
X153000000Y-90550000D03*
X151730000Y-90550000D03*
X150460000Y-90550000D03*
X149190000Y-90550000D03*
X147920000Y-90550000D03*
X146650000Y-90550000D03*
D22*
X146900000Y-44000000D03*
D23*
X146900000Y-46540000D03*
X146900000Y-49080000D03*
X146900000Y-51620000D03*
X146900000Y-54160000D03*
X146900000Y-56700000D03*
X146900000Y-59240000D03*
X146900000Y-61780000D03*
X146900000Y-64320000D03*
X146900000Y-66860000D03*
X146900000Y-69400000D03*
X146900000Y-71940000D03*
X146900000Y-74480000D03*
X146900000Y-77020000D03*
X146900000Y-79560000D03*
D22*
X171000000Y-43620000D03*
D23*
X171000000Y-46160000D03*
X171000000Y-48700000D03*
X171000000Y-51240000D03*
X171000000Y-53780000D03*
X171000000Y-56320000D03*
X171000000Y-58860000D03*
X171000000Y-61400000D03*
X171000000Y-63940000D03*
X171000000Y-66480000D03*
X171000000Y-69020000D03*
X171000000Y-71560000D03*
X171000000Y-74100000D03*
X171000000Y-76640000D03*
X171000000Y-79180000D03*
X171000000Y-81720000D03*
X171000000Y-84260000D03*
X171000000Y-86800000D03*
X171000000Y-89340000D03*
X171000000Y-91880000D03*
X171000000Y-94420000D03*
X171000000Y-96960000D03*
X171000000Y-99500000D03*
X171000000Y-102040000D03*
X171000000Y-104580000D03*
X171000000Y-107120000D03*
X171000000Y-109660000D03*
X171000000Y-112200000D03*
X171000000Y-114740000D03*
X171000000Y-117280000D03*
X171000000Y-119820000D03*
X171000000Y-122360000D03*
X171000000Y-124900000D03*
X171000000Y-127440000D03*
X171000000Y-129980000D03*
X171000000Y-132520000D03*
X171000000Y-135060000D03*
X171000000Y-137600000D03*
X171000000Y-140140000D03*
D22*
X201230000Y-43620000D03*
D23*
X201230000Y-46160000D03*
X201230000Y-48700000D03*
X201230000Y-51240000D03*
X201230000Y-53780000D03*
X201230000Y-56320000D03*
X201230000Y-58860000D03*
X201230000Y-61400000D03*
X201230000Y-63940000D03*
X201230000Y-66480000D03*
X201230000Y-69020000D03*
X201230000Y-71560000D03*
X201230000Y-74100000D03*
X201230000Y-76640000D03*
X201230000Y-79180000D03*
X201230000Y-81720000D03*
X201230000Y-84260000D03*
X201230000Y-86800000D03*
X201230000Y-89340000D03*
X201230000Y-91880000D03*
X201230000Y-94420000D03*
X201230000Y-96960000D03*
X201230000Y-99500000D03*
X201230000Y-102040000D03*
X201230000Y-104580000D03*
X201230000Y-107120000D03*
X201230000Y-109660000D03*
X201230000Y-112200000D03*
X201230000Y-114740000D03*
X201230000Y-117280000D03*
X201230000Y-119820000D03*
X201230000Y-122360000D03*
X201230000Y-124900000D03*
X201230000Y-127440000D03*
X201230000Y-129980000D03*
X201230000Y-132520000D03*
X201230000Y-135060000D03*
X201230000Y-137600000D03*
X201230000Y-140140000D03*
D16*
X153444250Y-101137500D03*
X146444250Y-101137500D03*
D24*
X146800000Y-120300000D03*
D25*
X146800000Y-140300000D03*
D26*
X145900000Y-122850000D03*
X147400000Y-122850000D03*
X148900000Y-122850000D03*
X150400000Y-122850000D03*
X151900000Y-122850000D03*
X153400000Y-122850000D03*
X154900000Y-122850000D03*
X156400000Y-122800000D03*
D27*
X157900000Y-125100000D03*
X157900000Y-126600000D03*
X157900000Y-128100000D03*
X157900000Y-129600000D03*
X157900000Y-131100000D03*
X157900000Y-132600000D03*
X157900000Y-134100000D03*
X157950000Y-135600000D03*
D26*
X156400000Y-137800000D03*
X154900000Y-137800000D03*
X153400000Y-137800000D03*
X151900000Y-137800000D03*
X150400000Y-137800000D03*
X148900000Y-137800000D03*
X147400000Y-137800000D03*
X145900000Y-137800000D03*
D28*
X196900000Y-44600000D03*
X196900000Y-46600000D03*
X196900000Y-48600000D03*
X196900000Y-50600000D03*
X196900000Y-52600000D03*
X196900000Y-54600000D03*
X196900000Y-56600000D03*
X196900000Y-58600000D03*
X181500000Y-58600000D03*
X181500000Y-56600000D03*
X181500000Y-54600000D03*
X181500000Y-52600000D03*
X181500000Y-50600000D03*
X181500000Y-48600000D03*
X181500000Y-46600000D03*
X181500000Y-44600000D03*
D29*
X194210000Y-60300000D03*
X192210000Y-60300000D03*
X190210000Y-60300000D03*
X188210000Y-60300000D03*
X186210000Y-60300000D03*
X184210000Y-60300000D03*
D23*
X197536000Y-140200000D03*
X197536000Y-137660000D03*
X197536000Y-135120000D03*
X197536000Y-132580000D03*
X197536000Y-130040000D03*
X197536000Y-127500000D03*
X197536000Y-124960000D03*
X197536000Y-122420000D03*
X197536000Y-119880000D03*
X197536000Y-117340000D03*
X197536000Y-114800000D03*
X197536000Y-112260000D03*
X197536000Y-109720000D03*
X197536000Y-107180000D03*
X197536000Y-104640000D03*
X197536000Y-102100000D03*
X197536000Y-99560000D03*
X197536000Y-97020000D03*
X197536000Y-94480000D03*
D22*
X197536000Y-91940000D03*
D23*
X174676000Y-140200000D03*
X174676000Y-137660000D03*
X174676000Y-135120000D03*
X174676000Y-132580000D03*
X174676000Y-130040000D03*
X174676000Y-127500000D03*
X174676000Y-124960000D03*
X174676000Y-122420000D03*
X174676000Y-119880000D03*
X174676000Y-117340000D03*
X174676000Y-114800000D03*
X174676000Y-112260000D03*
X174676000Y-109720000D03*
X174676000Y-107180000D03*
X174676000Y-104640000D03*
X174676000Y-102100000D03*
X174676000Y-99560000D03*
X174676000Y-97020000D03*
X174676000Y-94480000D03*
D22*
X174676000Y-91940000D03*
D14*
X152000000Y-44212500D03*
X152000000Y-45482500D03*
X152000000Y-46752500D03*
X152000000Y-48022500D03*
X152000000Y-49292500D03*
X152000000Y-50562500D03*
X152000000Y-51832500D03*
X152000000Y-53102500D03*
X152000000Y-54372500D03*
X152000000Y-55642500D03*
X152000000Y-56912500D03*
X166100000Y-56912500D03*
X166100000Y-55642500D03*
X166100000Y-54372500D03*
X166100000Y-53102500D03*
X166100000Y-51832500D03*
X166100000Y-50562500D03*
X166100000Y-49292500D03*
X166100000Y-48022500D03*
X166100000Y-46752500D03*
X166100000Y-45482500D03*
X166100000Y-44212500D03*
M02*
