G04 #@! TF.GenerationSoftware,KiCad,Pcbnew,7.0.7*
G04 #@! TF.CreationDate,2024-01-09T19:06:28-05:00*
G04 #@! TF.ProjectId,sensor_node,73656e73-6f72-45f6-9e6f-64652e6b6963,rev?*
G04 #@! TF.SameCoordinates,Original*
G04 #@! TF.FileFunction,Soldermask,Top*
G04 #@! TF.FilePolarity,Negative*
%FSLAX46Y46*%
G04 Gerber Fmt 4.6, Leading zero omitted, Abs format (unit mm)*
G04 Created by KiCad (PCBNEW 7.0.7) date 2024-01-09 19:06:28*
%MOMM*%
%LPD*%
G01*
G04 APERTURE LIST*
G04 Aperture macros list*
%AMRoundRect*
0 Rectangle with rounded corners*
0 $1 Rounding radius*
0 $2 $3 $4 $5 $6 $7 $8 $9 X,Y pos of 4 corners*
0 Add a 4 corners polygon primitive as box body*
4,1,4,$2,$3,$4,$5,$6,$7,$8,$9,$2,$3,0*
0 Add four circle primitives for the rounded corners*
1,1,$1+$1,$2,$3*
1,1,$1+$1,$4,$5*
1,1,$1+$1,$6,$7*
1,1,$1+$1,$8,$9*
0 Add four rect primitives between the rounded corners*
20,1,$1+$1,$2,$3,$4,$5,0*
20,1,$1+$1,$4,$5,$6,$7,0*
20,1,$1+$1,$6,$7,$8,$9,0*
20,1,$1+$1,$8,$9,$2,$3,0*%
%AMFreePoly0*
4,1,6,0.500000,-0.850000,-0.500000,-0.850000,-0.500000,0.550000,-0.200000,0.850000,0.500000,0.850000,0.500000,-0.850000,0.500000,-0.850000,$1*%
G04 Aperture macros list end*
%ADD10R,1.350000X1.350000*%
%ADD11O,1.350000X1.350000*%
%ADD12RoundRect,0.102000X-0.750000X-0.450000X0.750000X-0.450000X0.750000X0.450000X-0.750000X0.450000X0*%
%ADD13RoundRect,0.102000X-1.445000X-1.475000X1.445000X-1.475000X1.445000X1.475000X-1.445000X1.475000X0*%
%ADD14R,1.000000X1.800000*%
%ADD15C,1.000000*%
%ADD16RoundRect,0.102000X-0.275000X-0.125000X0.275000X-0.125000X0.275000X0.125000X-0.275000X0.125000X0*%
%ADD17RoundRect,0.150000X-0.875000X-0.150000X0.875000X-0.150000X0.875000X0.150000X-0.875000X0.150000X0*%
%ADD18RoundRect,0.150000X0.825000X0.150000X-0.825000X0.150000X-0.825000X-0.150000X0.825000X-0.150000X0*%
%ADD19FreePoly0,90.000000*%
%ADD20R,0.250000X0.550000*%
%ADD21R,0.720000X0.600000*%
%ADD22RoundRect,0.250000X0.475000X-0.250000X0.475000X0.250000X-0.475000X0.250000X-0.475000X-0.250000X0*%
%ADD23C,0.650000*%
%ADD24R,1.450000X0.600000*%
%ADD25R,1.450000X0.300000*%
%ADD26O,1.600000X1.000000*%
%ADD27O,2.100000X1.000000*%
%ADD28RoundRect,0.250000X-0.475000X0.250000X-0.475000X-0.250000X0.475000X-0.250000X0.475000X0.250000X0*%
%ADD29RoundRect,0.250000X-0.262500X-0.450000X0.262500X-0.450000X0.262500X0.450000X-0.262500X0.450000X0*%
%ADD30O,1.050000X1.500000*%
%ADD31R,1.050000X1.500000*%
%ADD32RoundRect,0.250000X0.250000X0.475000X-0.250000X0.475000X-0.250000X-0.475000X0.250000X-0.475000X0*%
%ADD33RoundRect,0.250000X-0.250000X-0.475000X0.250000X-0.475000X0.250000X0.475000X-0.250000X0.475000X0*%
%ADD34RoundRect,0.200000X-0.275000X0.200000X-0.275000X-0.200000X0.275000X-0.200000X0.275000X0.200000X0*%
%ADD35RoundRect,0.200000X0.275000X-0.200000X0.275000X0.200000X-0.275000X0.200000X-0.275000X-0.200000X0*%
%ADD36RoundRect,0.250000X0.262500X0.450000X-0.262500X0.450000X-0.262500X-0.450000X0.262500X-0.450000X0*%
%ADD37RoundRect,0.250000X-0.450000X0.262500X-0.450000X-0.262500X0.450000X-0.262500X0.450000X0.262500X0*%
%ADD38RoundRect,0.250000X0.450000X-0.262500X0.450000X0.262500X-0.450000X0.262500X-0.450000X-0.262500X0*%
%ADD39RoundRect,0.218750X0.256250X-0.218750X0.256250X0.218750X-0.256250X0.218750X-0.256250X-0.218750X0*%
%ADD40RoundRect,0.218750X-0.256250X0.218750X-0.256250X-0.218750X0.256250X-0.218750X0.256250X0.218750X0*%
%ADD41R,1.700000X1.700000*%
%ADD42O,1.700000X1.700000*%
%ADD43O,3.048000X1.850000*%
%ADD44RoundRect,0.500000X0.500000X-1.250000X0.500000X1.250000X-0.500000X1.250000X-0.500000X-1.250000X0*%
%ADD45R,2.000000X3.200000*%
%ADD46RoundRect,0.150000X-0.150000X0.587500X-0.150000X-0.587500X0.150000X-0.587500X0.150000X0.587500X0*%
%ADD47RoundRect,0.150000X0.150000X-0.587500X0.150000X0.587500X-0.150000X0.587500X-0.150000X-0.587500X0*%
%ADD48RoundRect,0.200000X-0.200000X-0.275000X0.200000X-0.275000X0.200000X0.275000X-0.200000X0.275000X0*%
%ADD49RoundRect,0.102000X-0.600000X-1.250000X0.600000X-1.250000X0.600000X1.250000X-0.600000X1.250000X0*%
%ADD50R,2.100000X2.100000*%
%ADD51C,2.100000*%
%ADD52RoundRect,0.102000X-0.800000X-0.750000X0.800000X-0.750000X0.800000X0.750000X-0.800000X0.750000X0*%
%ADD53RoundRect,0.102000X0.450000X-0.600000X0.450000X0.600000X-0.450000X0.600000X-0.450000X-0.600000X0*%
%ADD54RoundRect,0.112500X0.187500X0.112500X-0.187500X0.112500X-0.187500X-0.112500X0.187500X-0.112500X0*%
%ADD55RoundRect,0.102000X-0.500000X-1.750000X0.500000X-1.750000X0.500000X1.750000X-0.500000X1.750000X0*%
%ADD56RoundRect,0.102000X-0.750000X-1.700000X0.750000X-1.700000X0.750000X1.700000X-0.750000X1.700000X0*%
%ADD57R,0.650000X1.050000*%
%ADD58RoundRect,0.200000X0.200000X0.275000X-0.200000X0.275000X-0.200000X-0.275000X0.200000X-0.275000X0*%
%ADD59RoundRect,0.100000X-0.637500X-0.100000X0.637500X-0.100000X0.637500X0.100000X-0.637500X0.100000X0*%
%ADD60RoundRect,0.150000X0.512500X0.150000X-0.512500X0.150000X-0.512500X-0.150000X0.512500X-0.150000X0*%
%ADD61RoundRect,0.150000X0.150000X-0.512500X0.150000X0.512500X-0.150000X0.512500X-0.150000X-0.512500X0*%
%ADD62RoundRect,0.150000X0.587500X0.150000X-0.587500X0.150000X-0.587500X-0.150000X0.587500X-0.150000X0*%
%ADD63RoundRect,0.102000X0.500000X1.750000X-0.500000X1.750000X-0.500000X-1.750000X0.500000X-1.750000X0*%
%ADD64RoundRect,0.102000X0.750000X1.700000X-0.750000X1.700000X-0.750000X-1.700000X0.750000X-1.700000X0*%
%ADD65RoundRect,0.102000X1.750000X-0.500000X1.750000X0.500000X-1.750000X0.500000X-1.750000X-0.500000X0*%
%ADD66RoundRect,0.102000X1.700000X-0.750000X1.700000X0.750000X-1.700000X0.750000X-1.700000X-0.750000X0*%
G04 APERTURE END LIST*
G36*
X176200000Y-69500000D02*
G01*
X176200000Y-70500000D01*
X174800000Y-70500000D01*
X174800000Y-69100000D01*
X175800000Y-69100000D01*
X176200000Y-69500000D01*
G37*
G36*
X178200000Y-70500000D02*
G01*
X176800000Y-70500000D01*
X176800000Y-69500000D01*
X177200000Y-69100000D01*
X178200000Y-69100000D01*
X178200000Y-70500000D01*
G37*
D10*
X164400000Y-87400000D03*
D11*
X164400000Y-89400000D03*
X164400000Y-91400000D03*
X164400000Y-93400000D03*
X164400000Y-95400000D03*
X164400000Y-97400000D03*
X164400000Y-99400000D03*
D12*
X175450000Y-44350000D03*
X175450000Y-45850000D03*
X175450000Y-47350000D03*
X175450000Y-48850000D03*
X175450000Y-50350000D03*
X175450000Y-51850000D03*
X175450000Y-53350000D03*
X175450000Y-54850000D03*
X175450000Y-56350000D03*
X192950000Y-56350000D03*
X192950000Y-54850000D03*
X192950000Y-53350000D03*
X192950000Y-51850000D03*
X192950000Y-50350000D03*
X192950000Y-48850000D03*
X192950000Y-47350000D03*
X192950000Y-45850000D03*
X192950000Y-44350000D03*
D13*
X185155000Y-50575000D03*
D14*
X191150000Y-129250000D03*
X193650000Y-129250000D03*
D15*
X191800000Y-133250000D03*
X193500000Y-133250000D03*
D16*
X157800000Y-74900000D03*
X157800000Y-75400000D03*
X157800000Y-75900000D03*
X160550000Y-75900000D03*
X160550000Y-75400000D03*
X160550000Y-74900000D03*
D17*
X181500000Y-106450000D03*
X181500000Y-107720000D03*
X181500000Y-108990000D03*
X181500000Y-110260000D03*
X181500000Y-111530000D03*
X181500000Y-112800000D03*
X181500000Y-114070000D03*
X181500000Y-115340000D03*
X190800000Y-115340000D03*
X190800000Y-114070000D03*
X190800000Y-112800000D03*
X190800000Y-111530000D03*
X190800000Y-110260000D03*
X190800000Y-108990000D03*
X190800000Y-107720000D03*
X190800000Y-106450000D03*
D18*
X192500000Y-125900000D03*
X192500000Y-124630000D03*
X192500000Y-123360000D03*
X192500000Y-122090000D03*
X187550000Y-122090000D03*
X187550000Y-123360000D03*
X187550000Y-124630000D03*
X187550000Y-125900000D03*
D19*
X164550000Y-78775000D03*
D20*
X163800000Y-77600000D03*
X164300000Y-77600000D03*
X164800000Y-77600000D03*
X165300000Y-77600000D03*
X165300000Y-79950000D03*
X164800000Y-79950000D03*
X164300000Y-79950000D03*
X163800000Y-79950000D03*
D21*
X158110000Y-71850000D03*
X159080000Y-71850000D03*
X160050000Y-71850000D03*
X161020000Y-71850000D03*
X161020000Y-70450000D03*
X160050000Y-70450000D03*
X159080000Y-70450000D03*
X158110000Y-70450000D03*
D22*
X197550000Y-60600000D03*
X197550000Y-62500000D03*
D23*
X151865000Y-115190000D03*
X151865000Y-109410000D03*
D24*
X153310000Y-109050000D03*
X153310000Y-109850000D03*
D25*
X153310000Y-111050000D03*
X153310000Y-112050000D03*
X153310000Y-112550000D03*
X153310000Y-113550000D03*
D24*
X153310000Y-114750000D03*
X153310000Y-115550000D03*
X153310000Y-115550000D03*
X153310000Y-114750000D03*
D25*
X153310000Y-114050000D03*
X153310000Y-113050000D03*
X153310000Y-111550000D03*
X153310000Y-110550000D03*
D24*
X153310000Y-109850000D03*
X153310000Y-109050000D03*
D26*
X148215000Y-107980000D03*
D27*
X152395000Y-107980000D03*
X152395000Y-116620000D03*
D26*
X148215000Y-116620000D03*
D28*
X192800000Y-137650000D03*
X192800000Y-139550000D03*
D29*
X163987500Y-122800000D03*
X165812500Y-122800000D03*
X165625000Y-119300000D03*
X167450000Y-119300000D03*
D30*
X166400000Y-65912500D03*
X165130000Y-65912500D03*
D31*
X163860000Y-65912500D03*
D32*
X156550000Y-119300000D03*
X154650000Y-119300000D03*
D33*
X158597500Y-79212500D03*
X160497500Y-79212500D03*
X163900000Y-74600000D03*
X165800000Y-74600000D03*
X163900000Y-71000000D03*
X165800000Y-71000000D03*
D28*
X151400000Y-60162500D03*
X151400000Y-62062500D03*
D33*
X157850000Y-122800000D03*
X159750000Y-122800000D03*
D28*
X196800000Y-57350000D03*
X196800000Y-55450000D03*
X155900000Y-54762500D03*
X155900000Y-56662500D03*
D32*
X177117500Y-59475000D03*
X175217500Y-59475000D03*
D34*
X196400000Y-84475000D03*
X196400000Y-86125000D03*
D35*
X196500000Y-80425000D03*
X196500000Y-78775000D03*
D36*
X182450000Y-125550000D03*
X180625000Y-125550000D03*
D29*
X193312500Y-59800000D03*
X191487500Y-59800000D03*
X181925000Y-59500000D03*
X180100000Y-59500000D03*
D37*
X196800000Y-51850000D03*
X196800000Y-50025000D03*
D29*
X165287500Y-126000000D03*
X167112500Y-126000000D03*
D38*
X167300000Y-131350000D03*
X167300000Y-129525000D03*
D36*
X182412500Y-122700000D03*
X180587500Y-122700000D03*
X187612500Y-129300000D03*
X185787500Y-129300000D03*
X182412500Y-119500000D03*
X180587500Y-119500000D03*
D29*
X160125000Y-119300000D03*
X161950000Y-119300000D03*
D36*
X179587500Y-129300000D03*
X181412500Y-129300000D03*
D38*
X156000000Y-112800000D03*
X156000000Y-110975000D03*
D36*
X157425000Y-94700000D03*
X155600000Y-94700000D03*
D39*
X155970000Y-116622500D03*
X155970000Y-115047500D03*
D40*
X157100000Y-90912500D03*
X157100000Y-92487500D03*
D41*
X146900000Y-44000000D03*
D42*
X146900000Y-46540000D03*
X146900000Y-49080000D03*
X146900000Y-51620000D03*
X146900000Y-54160000D03*
X146900000Y-56700000D03*
X146900000Y-59240000D03*
X146900000Y-61780000D03*
X146900000Y-64320000D03*
X146900000Y-66860000D03*
X146900000Y-69400000D03*
X146900000Y-71940000D03*
X146900000Y-74480000D03*
X146900000Y-77020000D03*
X146900000Y-79560000D03*
D38*
X196800000Y-44800000D03*
X196800000Y-46625000D03*
D43*
X182087500Y-65400000D03*
X194587500Y-65400000D03*
X182087500Y-70400000D03*
X194587500Y-70400000D03*
D44*
X183637500Y-92250000D03*
X188637500Y-92250000D03*
X186137500Y-92250000D03*
D45*
X180537500Y-84750000D03*
X191737500Y-84750000D03*
D44*
X188637500Y-77750000D03*
X183637500Y-77750000D03*
D46*
X181612500Y-98533750D03*
X180662500Y-96658750D03*
X182562500Y-96658750D03*
D36*
X187288750Y-101823750D03*
X185463750Y-101823750D03*
D29*
X182512500Y-101800000D03*
X180687500Y-101800000D03*
D47*
X186362500Y-96696250D03*
X187312500Y-98571250D03*
X185412500Y-98571250D03*
D41*
X171000000Y-43620000D03*
D42*
X171000000Y-46160000D03*
X171000000Y-48700000D03*
X171000000Y-51240000D03*
X171000000Y-53780000D03*
X171000000Y-56320000D03*
X171000000Y-58860000D03*
X171000000Y-61400000D03*
X171000000Y-63940000D03*
X171000000Y-66480000D03*
X171000000Y-69020000D03*
X171000000Y-71560000D03*
X171000000Y-74100000D03*
X171000000Y-76640000D03*
X171000000Y-79180000D03*
X171000000Y-81720000D03*
X171000000Y-84260000D03*
X171000000Y-86800000D03*
X171000000Y-89340000D03*
X171000000Y-91880000D03*
X171000000Y-94420000D03*
X171000000Y-96960000D03*
X171000000Y-99500000D03*
X171000000Y-102040000D03*
X171000000Y-104580000D03*
X171000000Y-107120000D03*
X171000000Y-109660000D03*
X171000000Y-112200000D03*
X171000000Y-114740000D03*
X171000000Y-117280000D03*
X171000000Y-119820000D03*
X171000000Y-122360000D03*
X171000000Y-124900000D03*
X171000000Y-127440000D03*
X171000000Y-129980000D03*
X171000000Y-132520000D03*
X171000000Y-135060000D03*
X171000000Y-137600000D03*
X171000000Y-140140000D03*
D29*
X190387500Y-100000000D03*
X192212500Y-100000000D03*
D36*
X190400000Y-97100000D03*
X192225000Y-97100000D03*
D29*
X161800000Y-126000000D03*
X159975000Y-126000000D03*
D37*
X167090000Y-46385000D03*
X167090000Y-44560000D03*
D41*
X201230000Y-43620000D03*
D42*
X201230000Y-46160000D03*
X201230000Y-48700000D03*
X201230000Y-51240000D03*
X201230000Y-53780000D03*
X201230000Y-56320000D03*
X201230000Y-58860000D03*
X201230000Y-61400000D03*
X201230000Y-63940000D03*
X201230000Y-66480000D03*
X201230000Y-69020000D03*
X201230000Y-71560000D03*
X201230000Y-74100000D03*
X201230000Y-76640000D03*
X201230000Y-79180000D03*
X201230000Y-81720000D03*
X201230000Y-84260000D03*
X201230000Y-86800000D03*
X201230000Y-89340000D03*
X201230000Y-91880000D03*
X201230000Y-94420000D03*
X201230000Y-96960000D03*
X201230000Y-99500000D03*
X201230000Y-102040000D03*
X201230000Y-104580000D03*
X201230000Y-107120000D03*
X201230000Y-109660000D03*
X201230000Y-112200000D03*
X201230000Y-114740000D03*
X201230000Y-117280000D03*
X201230000Y-119820000D03*
X201230000Y-122360000D03*
X201230000Y-124900000D03*
X201230000Y-127440000D03*
X201230000Y-129980000D03*
X201230000Y-132520000D03*
X201230000Y-135060000D03*
X201230000Y-137600000D03*
X201230000Y-140140000D03*
D48*
X151850000Y-46812500D03*
X150200000Y-46812500D03*
D34*
X167100000Y-59687500D03*
X167100000Y-61337500D03*
D49*
X148044250Y-97887500D03*
X151044250Y-97887500D03*
X155044250Y-97887500D03*
X156144250Y-104387500D03*
D15*
X153444250Y-101137500D03*
X146444250Y-101137500D03*
D35*
X166072500Y-83937500D03*
X166072500Y-82287500D03*
X167140000Y-102300000D03*
X167140000Y-100650000D03*
D34*
X154800000Y-59287500D03*
X154800000Y-60937500D03*
D36*
X159087500Y-55622500D03*
X160912500Y-55622500D03*
D38*
X167300000Y-136237500D03*
X167300000Y-134412500D03*
D34*
X154800000Y-63287500D03*
X154800000Y-64937500D03*
D50*
X146800000Y-120300000D03*
D51*
X146800000Y-140300000D03*
D52*
X176500000Y-66550000D03*
D34*
X163772500Y-82262500D03*
X163772500Y-83912500D03*
X162000000Y-134737500D03*
X162000000Y-136387500D03*
D47*
X157773344Y-61199448D03*
X159673344Y-61199448D03*
X158723344Y-59324448D03*
D35*
X158072500Y-82262500D03*
X158072500Y-83912500D03*
D53*
X162300000Y-131800000D03*
X162300000Y-129000000D03*
X164000000Y-129000000D03*
X164000000Y-131800000D03*
D54*
X153150000Y-54062500D03*
X151050000Y-54062500D03*
D55*
X161300000Y-51012500D03*
X159300000Y-51012500D03*
X157300000Y-51012500D03*
D56*
X163650000Y-45262500D03*
X154950000Y-45262500D03*
D34*
X160572500Y-83912500D03*
X160572500Y-82262500D03*
D57*
X150750000Y-79500000D03*
X150750000Y-75350000D03*
X152900000Y-79500000D03*
X152900000Y-75350000D03*
D48*
X151850000Y-50912500D03*
X150200000Y-50912500D03*
D58*
X151825000Y-48912500D03*
X150175000Y-48912500D03*
D35*
X161900000Y-140412500D03*
X161900000Y-138762500D03*
D59*
X160212500Y-109565685D03*
X160212500Y-110215685D03*
X160212500Y-110865685D03*
X160212500Y-111515685D03*
X160212500Y-112165685D03*
X160212500Y-112815685D03*
X160212500Y-113465685D03*
X160212500Y-114115685D03*
X160212500Y-114765685D03*
X160212500Y-115415685D03*
X165937500Y-115415685D03*
X165937500Y-114765685D03*
X165937500Y-114115685D03*
X165937500Y-113465685D03*
X165937500Y-112815685D03*
X165937500Y-112165685D03*
X165937500Y-111515685D03*
X165937500Y-110865685D03*
X165937500Y-110215685D03*
X165937500Y-109565685D03*
D57*
X152900000Y-67350000D03*
X152900000Y-71500000D03*
X150750000Y-67350000D03*
X150750000Y-71500000D03*
D48*
X152725000Y-56862500D03*
X151075000Y-56862500D03*
D37*
X164530000Y-136200000D03*
X164530000Y-134375000D03*
D60*
X160200000Y-66012500D03*
X160200000Y-65062500D03*
X160200000Y-64112500D03*
X157925000Y-64112500D03*
X157925000Y-65062500D03*
X157925000Y-66012500D03*
D61*
X162500000Y-61212500D03*
X164400000Y-61212500D03*
X163450000Y-58937500D03*
D40*
X167100000Y-53500000D03*
X167100000Y-51925000D03*
D62*
X167100000Y-106400000D03*
X167100000Y-104500000D03*
X165225000Y-105450000D03*
D42*
X197536000Y-140200000D03*
X197536000Y-137660000D03*
X197536000Y-135120000D03*
X197536000Y-132580000D03*
X197536000Y-130040000D03*
X197536000Y-127500000D03*
X197536000Y-124960000D03*
X197536000Y-122420000D03*
X197536000Y-119880000D03*
X197536000Y-117340000D03*
X197536000Y-114800000D03*
X197536000Y-112260000D03*
X197536000Y-109720000D03*
X197536000Y-107180000D03*
X197536000Y-104640000D03*
X197536000Y-102100000D03*
X197536000Y-99560000D03*
X197536000Y-97020000D03*
X197536000Y-94480000D03*
D41*
X197536000Y-91940000D03*
D42*
X174676000Y-140200000D03*
X174676000Y-137660000D03*
X174676000Y-135120000D03*
X174676000Y-132580000D03*
X174676000Y-130040000D03*
X174676000Y-127500000D03*
X174676000Y-124960000D03*
X174676000Y-122420000D03*
X174676000Y-119880000D03*
X174676000Y-117340000D03*
X174676000Y-114800000D03*
X174676000Y-112260000D03*
X174676000Y-109720000D03*
X174676000Y-107180000D03*
X174676000Y-104640000D03*
X174676000Y-102100000D03*
X174676000Y-99560000D03*
X174676000Y-97020000D03*
X174676000Y-94480000D03*
D41*
X174676000Y-91940000D03*
D63*
X182200000Y-133825000D03*
X184200000Y-133825000D03*
X186200000Y-133825000D03*
D64*
X179850000Y-139575000D03*
X188550000Y-139575000D03*
D65*
X153075000Y-85800000D03*
X153075000Y-87800000D03*
X153075000Y-89800000D03*
X153075000Y-91800000D03*
D66*
X147325000Y-83450000D03*
X147325000Y-94150000D03*
D40*
X167300000Y-138812500D03*
X167300000Y-140387500D03*
D39*
X167090000Y-48425000D03*
X167090000Y-50000000D03*
D40*
X164100000Y-56300000D03*
X164100000Y-54725000D03*
D58*
X150200000Y-44812500D03*
X151850000Y-44812500D03*
X150375000Y-64912500D03*
X152025000Y-64912500D03*
D39*
X164600000Y-140385000D03*
X164600000Y-138810000D03*
D38*
X167100000Y-57425000D03*
X167100000Y-55600000D03*
M02*
