G04 #@! TF.GenerationSoftware,KiCad,Pcbnew,7.0.7*
G04 #@! TF.CreationDate,2023-09-13T10:23:32-04:00*
G04 #@! TF.ProjectId,sensor_node,73656e73-6f72-45f6-9e6f-64652e6b6963,rev?*
G04 #@! TF.SameCoordinates,Original*
G04 #@! TF.FileFunction,Legend,Bot*
G04 #@! TF.FilePolarity,Positive*
%FSLAX46Y46*%
G04 Gerber Fmt 4.6, Leading zero omitted, Abs format (unit mm)*
G04 Created by KiCad (PCBNEW 7.0.7) date 2023-09-13 10:23:32*
%MOMM*%
%LPD*%
G01*
G04 APERTURE LIST*
%ADD10C,0.150000*%
%ADD11R,1.700000X1.700000*%
%ADD12O,1.700000X1.700000*%
%ADD13R,1.600000X1.600000*%
%ADD14O,1.600000X1.600000*%
%ADD15R,2.000000X2.000000*%
%ADD16C,2.000000*%
%ADD17R,1.500000X1.050000*%
%ADD18O,1.500000X1.050000*%
%ADD19C,1.500000*%
%ADD20R,2.000000X3.200000*%
%ADD21O,3.500000X1.350000*%
%ADD22C,1.600000*%
%ADD23O,1.850000X3.048000*%
G04 APERTURE END LIST*
D10*
X138556077Y-68869819D02*
X138222744Y-69869819D01*
X138222744Y-69869819D02*
X137889411Y-68869819D01*
X137556077Y-69488866D02*
X136794173Y-69488866D01*
X137175125Y-69869819D02*
X137175125Y-69107914D01*
X138389411Y-135619819D02*
X138960839Y-135619819D01*
X138675125Y-135619819D02*
X138675125Y-134619819D01*
X138675125Y-134619819D02*
X138770363Y-134762676D01*
X138770363Y-134762676D02*
X138865601Y-134857914D01*
X138865601Y-134857914D02*
X138960839Y-134905533D01*
X138056077Y-134619819D02*
X137437030Y-134619819D01*
X137437030Y-134619819D02*
X137770363Y-135000771D01*
X137770363Y-135000771D02*
X137627506Y-135000771D01*
X137627506Y-135000771D02*
X137532268Y-135048390D01*
X137532268Y-135048390D02*
X137484649Y-135096009D01*
X137484649Y-135096009D02*
X137437030Y-135191247D01*
X137437030Y-135191247D02*
X137437030Y-135429342D01*
X137437030Y-135429342D02*
X137484649Y-135524580D01*
X137484649Y-135524580D02*
X137532268Y-135572200D01*
X137532268Y-135572200D02*
X137627506Y-135619819D01*
X137627506Y-135619819D02*
X137913220Y-135619819D01*
X137913220Y-135619819D02*
X138008458Y-135572200D01*
X138008458Y-135572200D02*
X138056077Y-135524580D01*
X129306077Y-63619819D02*
X128972744Y-64619819D01*
X128972744Y-64619819D02*
X128639411Y-63619819D01*
X128306077Y-64238866D02*
X127544173Y-64238866D01*
X164806077Y-127119819D02*
X164472744Y-128119819D01*
X164472744Y-128119819D02*
X164139411Y-127119819D01*
X163806077Y-127738866D02*
X163044173Y-127738866D01*
X163425125Y-128119819D02*
X163425125Y-127357914D01*
X164806077Y-91619819D02*
X164472744Y-92619819D01*
X164472744Y-92619819D02*
X164139411Y-91619819D01*
X163806077Y-92238866D02*
X163044173Y-92238866D01*
X138556077Y-43619819D02*
X138222744Y-44619819D01*
X138222744Y-44619819D02*
X137889411Y-43619819D01*
X137556077Y-44238866D02*
X136794173Y-44238866D01*
X164806077Y-58619819D02*
X164472744Y-59619819D01*
X164472744Y-59619819D02*
X164139411Y-58619819D01*
X163806077Y-59238866D02*
X163044173Y-59238866D01*
X144306077Y-62369819D02*
X143972744Y-63369819D01*
X143972744Y-63369819D02*
X143639411Y-62369819D01*
X143306077Y-62988866D02*
X142544173Y-62988866D01*
X154151316Y-127215057D02*
X153389411Y-127215057D01*
X152627506Y-127119819D02*
X153198934Y-127119819D01*
X152913220Y-127119819D02*
X152913220Y-126119819D01*
X152913220Y-126119819D02*
X153008458Y-126262676D01*
X153008458Y-126262676D02*
X153103696Y-126357914D01*
X153103696Y-126357914D02*
X153198934Y-126405533D01*
X151770363Y-126453152D02*
X151770363Y-127119819D01*
X152008458Y-126072200D02*
X152246553Y-126786485D01*
X152246553Y-126786485D02*
X151627506Y-126786485D01*
X158056077Y-53369819D02*
X157722744Y-54369819D01*
X157722744Y-54369819D02*
X157389411Y-53369819D01*
X157056077Y-53988866D02*
X156294173Y-53988866D01*
X157437030Y-66119819D02*
X157913220Y-66119819D01*
X157913220Y-66119819D02*
X157960839Y-66596009D01*
X157960839Y-66596009D02*
X157913220Y-66548390D01*
X157913220Y-66548390D02*
X157817982Y-66500771D01*
X157817982Y-66500771D02*
X157579887Y-66500771D01*
X157579887Y-66500771D02*
X157484649Y-66548390D01*
X157484649Y-66548390D02*
X157437030Y-66596009D01*
X157437030Y-66596009D02*
X157389411Y-66691247D01*
X157389411Y-66691247D02*
X157389411Y-66929342D01*
X157389411Y-66929342D02*
X157437030Y-67024580D01*
X157437030Y-67024580D02*
X157484649Y-67072200D01*
X157484649Y-67072200D02*
X157579887Y-67119819D01*
X157579887Y-67119819D02*
X157817982Y-67119819D01*
X157817982Y-67119819D02*
X157913220Y-67072200D01*
X157913220Y-67072200D02*
X157960839Y-67024580D01*
X131639411Y-74619819D02*
X132210839Y-74619819D01*
X131925125Y-74619819D02*
X131925125Y-73619819D01*
X131925125Y-73619819D02*
X132020363Y-73762676D01*
X132020363Y-73762676D02*
X132115601Y-73857914D01*
X132115601Y-73857914D02*
X132210839Y-73905533D01*
X130782268Y-73953152D02*
X130782268Y-74619819D01*
X131020363Y-73572200D02*
X131258458Y-74286485D01*
X131258458Y-74286485D02*
X130639411Y-74286485D01*
X132306077Y-48619819D02*
X131972744Y-49619819D01*
X131972744Y-49619819D02*
X131639411Y-48619819D01*
X131306077Y-49238866D02*
X130544173Y-49238866D01*
X132056077Y-91619819D02*
X131722744Y-92619819D01*
X131722744Y-92619819D02*
X131389411Y-91619819D01*
X131056077Y-92238866D02*
X130294173Y-92238866D01*
X130675125Y-92619819D02*
X130675125Y-91857914D01*
X153508458Y-50119819D02*
X152889411Y-50119819D01*
X152889411Y-50119819D02*
X153222744Y-50500771D01*
X153222744Y-50500771D02*
X153079887Y-50500771D01*
X153079887Y-50500771D02*
X152984649Y-50548390D01*
X152984649Y-50548390D02*
X152937030Y-50596009D01*
X152937030Y-50596009D02*
X152889411Y-50691247D01*
X152889411Y-50691247D02*
X152889411Y-50929342D01*
X152889411Y-50929342D02*
X152937030Y-51024580D01*
X152937030Y-51024580D02*
X152984649Y-51072200D01*
X152984649Y-51072200D02*
X153079887Y-51119819D01*
X153079887Y-51119819D02*
X153365601Y-51119819D01*
X153365601Y-51119819D02*
X153460839Y-51072200D01*
X153460839Y-51072200D02*
X153508458Y-51024580D01*
X152032268Y-50119819D02*
X152222744Y-50119819D01*
X152222744Y-50119819D02*
X152317982Y-50167438D01*
X152317982Y-50167438D02*
X152365601Y-50215057D01*
X152365601Y-50215057D02*
X152460839Y-50357914D01*
X152460839Y-50357914D02*
X152508458Y-50548390D01*
X152508458Y-50548390D02*
X152508458Y-50929342D01*
X152508458Y-50929342D02*
X152460839Y-51024580D01*
X152460839Y-51024580D02*
X152413220Y-51072200D01*
X152413220Y-51072200D02*
X152317982Y-51119819D01*
X152317982Y-51119819D02*
X152127506Y-51119819D01*
X152127506Y-51119819D02*
X152032268Y-51072200D01*
X152032268Y-51072200D02*
X151984649Y-51024580D01*
X151984649Y-51024580D02*
X151937030Y-50929342D01*
X151937030Y-50929342D02*
X151937030Y-50691247D01*
X151937030Y-50691247D02*
X151984649Y-50596009D01*
X151984649Y-50596009D02*
X152032268Y-50548390D01*
X152032268Y-50548390D02*
X152127506Y-50500771D01*
X152127506Y-50500771D02*
X152317982Y-50500771D01*
X152317982Y-50500771D02*
X152413220Y-50548390D01*
X152413220Y-50548390D02*
X152460839Y-50596009D01*
X152460839Y-50596009D02*
X152508458Y-50691247D01*
X138960839Y-73965057D02*
X138913220Y-73917438D01*
X138913220Y-73917438D02*
X138817982Y-73869819D01*
X138817982Y-73869819D02*
X138579887Y-73869819D01*
X138579887Y-73869819D02*
X138484649Y-73917438D01*
X138484649Y-73917438D02*
X138437030Y-73965057D01*
X138437030Y-73965057D02*
X138389411Y-74060295D01*
X138389411Y-74060295D02*
X138389411Y-74155533D01*
X138389411Y-74155533D02*
X138437030Y-74298390D01*
X138437030Y-74298390D02*
X139008458Y-74869819D01*
X139008458Y-74869819D02*
X138389411Y-74869819D01*
X137484649Y-73869819D02*
X137960839Y-73869819D01*
X137960839Y-73869819D02*
X138008458Y-74346009D01*
X138008458Y-74346009D02*
X137960839Y-74298390D01*
X137960839Y-74298390D02*
X137865601Y-74250771D01*
X137865601Y-74250771D02*
X137627506Y-74250771D01*
X137627506Y-74250771D02*
X137532268Y-74298390D01*
X137532268Y-74298390D02*
X137484649Y-74346009D01*
X137484649Y-74346009D02*
X137437030Y-74441247D01*
X137437030Y-74441247D02*
X137437030Y-74679342D01*
X137437030Y-74679342D02*
X137484649Y-74774580D01*
X137484649Y-74774580D02*
X137532268Y-74822200D01*
X137532268Y-74822200D02*
X137627506Y-74869819D01*
X137627506Y-74869819D02*
X137865601Y-74869819D01*
X137865601Y-74869819D02*
X137960839Y-74822200D01*
X137960839Y-74822200D02*
X138008458Y-74774580D01*
X157587030Y-104269819D02*
X158063220Y-104269819D01*
X158063220Y-104269819D02*
X158110839Y-104746009D01*
X158110839Y-104746009D02*
X158063220Y-104698390D01*
X158063220Y-104698390D02*
X157967982Y-104650771D01*
X157967982Y-104650771D02*
X157729887Y-104650771D01*
X157729887Y-104650771D02*
X157634649Y-104698390D01*
X157634649Y-104698390D02*
X157587030Y-104746009D01*
X157587030Y-104746009D02*
X157539411Y-104841247D01*
X157539411Y-104841247D02*
X157539411Y-105079342D01*
X157539411Y-105079342D02*
X157587030Y-105174580D01*
X157587030Y-105174580D02*
X157634649Y-105222200D01*
X157634649Y-105222200D02*
X157729887Y-105269819D01*
X157729887Y-105269819D02*
X157967982Y-105269819D01*
X157967982Y-105269819D02*
X158063220Y-105222200D01*
X158063220Y-105222200D02*
X158110839Y-105174580D01*
X164806077Y-88869819D02*
X164472744Y-89869819D01*
X164472744Y-89869819D02*
X164139411Y-88869819D01*
X163806077Y-89488866D02*
X163044173Y-89488866D01*
X163425125Y-89869819D02*
X163425125Y-89107914D01*
X138460839Y-40965057D02*
X138413220Y-40917438D01*
X138413220Y-40917438D02*
X138317982Y-40869819D01*
X138317982Y-40869819D02*
X138079887Y-40869819D01*
X138079887Y-40869819D02*
X137984649Y-40917438D01*
X137984649Y-40917438D02*
X137937030Y-40965057D01*
X137937030Y-40965057D02*
X137889411Y-41060295D01*
X137889411Y-41060295D02*
X137889411Y-41155533D01*
X137889411Y-41155533D02*
X137937030Y-41298390D01*
X137937030Y-41298390D02*
X138508458Y-41869819D01*
X138508458Y-41869819D02*
X137889411Y-41869819D01*
X137032268Y-40869819D02*
X137222744Y-40869819D01*
X137222744Y-40869819D02*
X137317982Y-40917438D01*
X137317982Y-40917438D02*
X137365601Y-40965057D01*
X137365601Y-40965057D02*
X137460839Y-41107914D01*
X137460839Y-41107914D02*
X137508458Y-41298390D01*
X137508458Y-41298390D02*
X137508458Y-41679342D01*
X137508458Y-41679342D02*
X137460839Y-41774580D01*
X137460839Y-41774580D02*
X137413220Y-41822200D01*
X137413220Y-41822200D02*
X137317982Y-41869819D01*
X137317982Y-41869819D02*
X137127506Y-41869819D01*
X137127506Y-41869819D02*
X137032268Y-41822200D01*
X137032268Y-41822200D02*
X136984649Y-41774580D01*
X136984649Y-41774580D02*
X136937030Y-41679342D01*
X136937030Y-41679342D02*
X136937030Y-41441247D01*
X136937030Y-41441247D02*
X136984649Y-41346009D01*
X136984649Y-41346009D02*
X137032268Y-41298390D01*
X137032268Y-41298390D02*
X137127506Y-41250771D01*
X137127506Y-41250771D02*
X137317982Y-41250771D01*
X137317982Y-41250771D02*
X137413220Y-41298390D01*
X137413220Y-41298390D02*
X137460839Y-41346009D01*
X137460839Y-41346009D02*
X137508458Y-41441247D01*
X157722744Y-43369819D02*
X157627506Y-43369819D01*
X157627506Y-43369819D02*
X157532268Y-43417438D01*
X157532268Y-43417438D02*
X157484649Y-43465057D01*
X157484649Y-43465057D02*
X157437030Y-43560295D01*
X157437030Y-43560295D02*
X157389411Y-43750771D01*
X157389411Y-43750771D02*
X157389411Y-43988866D01*
X157389411Y-43988866D02*
X157437030Y-44179342D01*
X157437030Y-44179342D02*
X157484649Y-44274580D01*
X157484649Y-44274580D02*
X157532268Y-44322200D01*
X157532268Y-44322200D02*
X157627506Y-44369819D01*
X157627506Y-44369819D02*
X157722744Y-44369819D01*
X157722744Y-44369819D02*
X157817982Y-44322200D01*
X157817982Y-44322200D02*
X157865601Y-44274580D01*
X157865601Y-44274580D02*
X157913220Y-44179342D01*
X157913220Y-44179342D02*
X157960839Y-43988866D01*
X157960839Y-43988866D02*
X157960839Y-43750771D01*
X157960839Y-43750771D02*
X157913220Y-43560295D01*
X157913220Y-43560295D02*
X157865601Y-43465057D01*
X157865601Y-43465057D02*
X157817982Y-43417438D01*
X157817982Y-43417438D02*
X157722744Y-43369819D01*
X132210839Y-84822200D02*
X132067982Y-84869819D01*
X132067982Y-84869819D02*
X131829887Y-84869819D01*
X131829887Y-84869819D02*
X131734649Y-84822200D01*
X131734649Y-84822200D02*
X131687030Y-84774580D01*
X131687030Y-84774580D02*
X131639411Y-84679342D01*
X131639411Y-84679342D02*
X131639411Y-84584104D01*
X131639411Y-84584104D02*
X131687030Y-84488866D01*
X131687030Y-84488866D02*
X131734649Y-84441247D01*
X131734649Y-84441247D02*
X131829887Y-84393628D01*
X131829887Y-84393628D02*
X132020363Y-84346009D01*
X132020363Y-84346009D02*
X132115601Y-84298390D01*
X132115601Y-84298390D02*
X132163220Y-84250771D01*
X132163220Y-84250771D02*
X132210839Y-84155533D01*
X132210839Y-84155533D02*
X132210839Y-84060295D01*
X132210839Y-84060295D02*
X132163220Y-83965057D01*
X132163220Y-83965057D02*
X132115601Y-83917438D01*
X132115601Y-83917438D02*
X132020363Y-83869819D01*
X132020363Y-83869819D02*
X131782268Y-83869819D01*
X131782268Y-83869819D02*
X131639411Y-83917438D01*
X130639411Y-84774580D02*
X130687030Y-84822200D01*
X130687030Y-84822200D02*
X130829887Y-84869819D01*
X130829887Y-84869819D02*
X130925125Y-84869819D01*
X130925125Y-84869819D02*
X131067982Y-84822200D01*
X131067982Y-84822200D02*
X131163220Y-84726961D01*
X131163220Y-84726961D02*
X131210839Y-84631723D01*
X131210839Y-84631723D02*
X131258458Y-84441247D01*
X131258458Y-84441247D02*
X131258458Y-84298390D01*
X131258458Y-84298390D02*
X131210839Y-84107914D01*
X131210839Y-84107914D02*
X131163220Y-84012676D01*
X131163220Y-84012676D02*
X131067982Y-83917438D01*
X131067982Y-83917438D02*
X130925125Y-83869819D01*
X130925125Y-83869819D02*
X130829887Y-83869819D01*
X130829887Y-83869819D02*
X130687030Y-83917438D01*
X130687030Y-83917438D02*
X130639411Y-83965057D01*
X130210839Y-84869819D02*
X130210839Y-83869819D01*
X129639411Y-84869819D02*
X130067982Y-84298390D01*
X129639411Y-83869819D02*
X130210839Y-84441247D01*
X158210839Y-102572200D02*
X158067982Y-102619819D01*
X158067982Y-102619819D02*
X157829887Y-102619819D01*
X157829887Y-102619819D02*
X157734649Y-102572200D01*
X157734649Y-102572200D02*
X157687030Y-102524580D01*
X157687030Y-102524580D02*
X157639411Y-102429342D01*
X157639411Y-102429342D02*
X157639411Y-102334104D01*
X157639411Y-102334104D02*
X157687030Y-102238866D01*
X157687030Y-102238866D02*
X157734649Y-102191247D01*
X157734649Y-102191247D02*
X157829887Y-102143628D01*
X157829887Y-102143628D02*
X158020363Y-102096009D01*
X158020363Y-102096009D02*
X158115601Y-102048390D01*
X158115601Y-102048390D02*
X158163220Y-102000771D01*
X158163220Y-102000771D02*
X158210839Y-101905533D01*
X158210839Y-101905533D02*
X158210839Y-101810295D01*
X158210839Y-101810295D02*
X158163220Y-101715057D01*
X158163220Y-101715057D02*
X158115601Y-101667438D01*
X158115601Y-101667438D02*
X158020363Y-101619819D01*
X158020363Y-101619819D02*
X157782268Y-101619819D01*
X157782268Y-101619819D02*
X157639411Y-101667438D01*
X156639411Y-102524580D02*
X156687030Y-102572200D01*
X156687030Y-102572200D02*
X156829887Y-102619819D01*
X156829887Y-102619819D02*
X156925125Y-102619819D01*
X156925125Y-102619819D02*
X157067982Y-102572200D01*
X157067982Y-102572200D02*
X157163220Y-102476961D01*
X157163220Y-102476961D02*
X157210839Y-102381723D01*
X157210839Y-102381723D02*
X157258458Y-102191247D01*
X157258458Y-102191247D02*
X157258458Y-102048390D01*
X157258458Y-102048390D02*
X157210839Y-101857914D01*
X157210839Y-101857914D02*
X157163220Y-101762676D01*
X157163220Y-101762676D02*
X157067982Y-101667438D01*
X157067982Y-101667438D02*
X156925125Y-101619819D01*
X156925125Y-101619819D02*
X156829887Y-101619819D01*
X156829887Y-101619819D02*
X156687030Y-101667438D01*
X156687030Y-101667438D02*
X156639411Y-101715057D01*
X156210839Y-102619819D02*
X156210839Y-101619819D01*
X155639411Y-102619819D02*
X156067982Y-102048390D01*
X155639411Y-101619819D02*
X156210839Y-102191247D01*
X143401316Y-127215057D02*
X142639411Y-127215057D01*
X142210839Y-126119819D02*
X142115601Y-126119819D01*
X142115601Y-126119819D02*
X142020363Y-126167438D01*
X142020363Y-126167438D02*
X141972744Y-126215057D01*
X141972744Y-126215057D02*
X141925125Y-126310295D01*
X141925125Y-126310295D02*
X141877506Y-126500771D01*
X141877506Y-126500771D02*
X141877506Y-126738866D01*
X141877506Y-126738866D02*
X141925125Y-126929342D01*
X141925125Y-126929342D02*
X141972744Y-127024580D01*
X141972744Y-127024580D02*
X142020363Y-127072200D01*
X142020363Y-127072200D02*
X142115601Y-127119819D01*
X142115601Y-127119819D02*
X142210839Y-127119819D01*
X142210839Y-127119819D02*
X142306077Y-127072200D01*
X142306077Y-127072200D02*
X142353696Y-127024580D01*
X142353696Y-127024580D02*
X142401315Y-126929342D01*
X142401315Y-126929342D02*
X142448934Y-126738866D01*
X142448934Y-126738866D02*
X142448934Y-126500771D01*
X142448934Y-126500771D02*
X142401315Y-126310295D01*
X142401315Y-126310295D02*
X142353696Y-126215057D01*
X142353696Y-126215057D02*
X142306077Y-126167438D01*
X142306077Y-126167438D02*
X142210839Y-126119819D01*
X161556077Y-91619819D02*
X161222744Y-92619819D01*
X161222744Y-92619819D02*
X160889411Y-91619819D01*
X160556077Y-92238866D02*
X159794173Y-92238866D01*
X138556077Y-45869819D02*
X138222744Y-46869819D01*
X138222744Y-46869819D02*
X137889411Y-45869819D01*
X137556077Y-46488866D02*
X136794173Y-46488866D01*
X137175125Y-46869819D02*
X137175125Y-46107914D01*
X132163220Y-87369819D02*
X132163220Y-86369819D01*
X132163220Y-86369819D02*
X131829887Y-87084104D01*
X131829887Y-87084104D02*
X131496554Y-86369819D01*
X131496554Y-86369819D02*
X131496554Y-87369819D01*
X130829887Y-86369819D02*
X130639411Y-86369819D01*
X130639411Y-86369819D02*
X130544173Y-86417438D01*
X130544173Y-86417438D02*
X130448935Y-86512676D01*
X130448935Y-86512676D02*
X130401316Y-86703152D01*
X130401316Y-86703152D02*
X130401316Y-87036485D01*
X130401316Y-87036485D02*
X130448935Y-87226961D01*
X130448935Y-87226961D02*
X130544173Y-87322200D01*
X130544173Y-87322200D02*
X130639411Y-87369819D01*
X130639411Y-87369819D02*
X130829887Y-87369819D01*
X130829887Y-87369819D02*
X130925125Y-87322200D01*
X130925125Y-87322200D02*
X131020363Y-87226961D01*
X131020363Y-87226961D02*
X131067982Y-87036485D01*
X131067982Y-87036485D02*
X131067982Y-86703152D01*
X131067982Y-86703152D02*
X131020363Y-86512676D01*
X131020363Y-86512676D02*
X130925125Y-86417438D01*
X130925125Y-86417438D02*
X130829887Y-86369819D01*
X130020363Y-87322200D02*
X129877506Y-87369819D01*
X129877506Y-87369819D02*
X129639411Y-87369819D01*
X129639411Y-87369819D02*
X129544173Y-87322200D01*
X129544173Y-87322200D02*
X129496554Y-87274580D01*
X129496554Y-87274580D02*
X129448935Y-87179342D01*
X129448935Y-87179342D02*
X129448935Y-87084104D01*
X129448935Y-87084104D02*
X129496554Y-86988866D01*
X129496554Y-86988866D02*
X129544173Y-86941247D01*
X129544173Y-86941247D02*
X129639411Y-86893628D01*
X129639411Y-86893628D02*
X129829887Y-86846009D01*
X129829887Y-86846009D02*
X129925125Y-86798390D01*
X129925125Y-86798390D02*
X129972744Y-86750771D01*
X129972744Y-86750771D02*
X130020363Y-86655533D01*
X130020363Y-86655533D02*
X130020363Y-86560295D01*
X130020363Y-86560295D02*
X129972744Y-86465057D01*
X129972744Y-86465057D02*
X129925125Y-86417438D01*
X129925125Y-86417438D02*
X129829887Y-86369819D01*
X129829887Y-86369819D02*
X129591792Y-86369819D01*
X129591792Y-86369819D02*
X129448935Y-86417438D01*
X129020363Y-87369819D02*
X129020363Y-86369819D01*
X139008458Y-99119819D02*
X138389411Y-99119819D01*
X138389411Y-99119819D02*
X138722744Y-99500771D01*
X138722744Y-99500771D02*
X138579887Y-99500771D01*
X138579887Y-99500771D02*
X138484649Y-99548390D01*
X138484649Y-99548390D02*
X138437030Y-99596009D01*
X138437030Y-99596009D02*
X138389411Y-99691247D01*
X138389411Y-99691247D02*
X138389411Y-99929342D01*
X138389411Y-99929342D02*
X138437030Y-100024580D01*
X138437030Y-100024580D02*
X138484649Y-100072200D01*
X138484649Y-100072200D02*
X138579887Y-100119819D01*
X138579887Y-100119819D02*
X138865601Y-100119819D01*
X138865601Y-100119819D02*
X138960839Y-100072200D01*
X138960839Y-100072200D02*
X139008458Y-100024580D01*
X137532268Y-99453152D02*
X137532268Y-100119819D01*
X137770363Y-99072200D02*
X138008458Y-99786485D01*
X138008458Y-99786485D02*
X137389411Y-99786485D01*
X157484649Y-46203152D02*
X157484649Y-46869819D01*
X157722744Y-45822200D02*
X157960839Y-46536485D01*
X157960839Y-46536485D02*
X157341792Y-46536485D01*
X139008458Y-101619819D02*
X138389411Y-101619819D01*
X138389411Y-101619819D02*
X138722744Y-102000771D01*
X138722744Y-102000771D02*
X138579887Y-102000771D01*
X138579887Y-102000771D02*
X138484649Y-102048390D01*
X138484649Y-102048390D02*
X138437030Y-102096009D01*
X138437030Y-102096009D02*
X138389411Y-102191247D01*
X138389411Y-102191247D02*
X138389411Y-102429342D01*
X138389411Y-102429342D02*
X138437030Y-102524580D01*
X138437030Y-102524580D02*
X138484649Y-102572200D01*
X138484649Y-102572200D02*
X138579887Y-102619819D01*
X138579887Y-102619819D02*
X138865601Y-102619819D01*
X138865601Y-102619819D02*
X138960839Y-102572200D01*
X138960839Y-102572200D02*
X139008458Y-102524580D01*
X137484649Y-101619819D02*
X137960839Y-101619819D01*
X137960839Y-101619819D02*
X138008458Y-102096009D01*
X138008458Y-102096009D02*
X137960839Y-102048390D01*
X137960839Y-102048390D02*
X137865601Y-102000771D01*
X137865601Y-102000771D02*
X137627506Y-102000771D01*
X137627506Y-102000771D02*
X137532268Y-102048390D01*
X137532268Y-102048390D02*
X137484649Y-102096009D01*
X137484649Y-102096009D02*
X137437030Y-102191247D01*
X137437030Y-102191247D02*
X137437030Y-102429342D01*
X137437030Y-102429342D02*
X137484649Y-102524580D01*
X137484649Y-102524580D02*
X137532268Y-102572200D01*
X137532268Y-102572200D02*
X137627506Y-102619819D01*
X137627506Y-102619819D02*
X137865601Y-102619819D01*
X137865601Y-102619819D02*
X137960839Y-102572200D01*
X137960839Y-102572200D02*
X138008458Y-102524580D01*
X165056077Y-78869819D02*
X164722744Y-79869819D01*
X164722744Y-79869819D02*
X164389411Y-78869819D01*
X164056077Y-79488866D02*
X163294173Y-79488866D01*
X158306077Y-68619819D02*
X157734649Y-68619819D01*
X158020363Y-69619819D02*
X158020363Y-68619819D01*
X157496553Y-68619819D02*
X156829887Y-69619819D01*
X156829887Y-68619819D02*
X157496553Y-69619819D01*
X156496553Y-68715057D02*
X156448934Y-68667438D01*
X156448934Y-68667438D02*
X156353696Y-68619819D01*
X156353696Y-68619819D02*
X156115601Y-68619819D01*
X156115601Y-68619819D02*
X156020363Y-68667438D01*
X156020363Y-68667438D02*
X155972744Y-68715057D01*
X155972744Y-68715057D02*
X155925125Y-68810295D01*
X155925125Y-68810295D02*
X155925125Y-68905533D01*
X155925125Y-68905533D02*
X155972744Y-69048390D01*
X155972744Y-69048390D02*
X156544172Y-69619819D01*
X156544172Y-69619819D02*
X155925125Y-69619819D01*
X139008458Y-106869819D02*
X138389411Y-106869819D01*
X138389411Y-106869819D02*
X138722744Y-107250771D01*
X138722744Y-107250771D02*
X138579887Y-107250771D01*
X138579887Y-107250771D02*
X138484649Y-107298390D01*
X138484649Y-107298390D02*
X138437030Y-107346009D01*
X138437030Y-107346009D02*
X138389411Y-107441247D01*
X138389411Y-107441247D02*
X138389411Y-107679342D01*
X138389411Y-107679342D02*
X138437030Y-107774580D01*
X138437030Y-107774580D02*
X138484649Y-107822200D01*
X138484649Y-107822200D02*
X138579887Y-107869819D01*
X138579887Y-107869819D02*
X138865601Y-107869819D01*
X138865601Y-107869819D02*
X138960839Y-107822200D01*
X138960839Y-107822200D02*
X139008458Y-107774580D01*
X138056077Y-106869819D02*
X137437030Y-106869819D01*
X137437030Y-106869819D02*
X137770363Y-107250771D01*
X137770363Y-107250771D02*
X137627506Y-107250771D01*
X137627506Y-107250771D02*
X137532268Y-107298390D01*
X137532268Y-107298390D02*
X137484649Y-107346009D01*
X137484649Y-107346009D02*
X137437030Y-107441247D01*
X137437030Y-107441247D02*
X137437030Y-107679342D01*
X137437030Y-107679342D02*
X137484649Y-107774580D01*
X137484649Y-107774580D02*
X137532268Y-107822200D01*
X137532268Y-107822200D02*
X137627506Y-107869819D01*
X137627506Y-107869819D02*
X137913220Y-107869819D01*
X137913220Y-107869819D02*
X138008458Y-107822200D01*
X138008458Y-107822200D02*
X138056077Y-107774580D01*
X144556077Y-50119819D02*
X144222744Y-51119819D01*
X144222744Y-51119819D02*
X143889411Y-50119819D01*
X143556077Y-50738866D02*
X142794173Y-50738866D01*
X150091792Y-92119819D02*
X150425125Y-91643628D01*
X150663220Y-92119819D02*
X150663220Y-91119819D01*
X150663220Y-91119819D02*
X150282268Y-91119819D01*
X150282268Y-91119819D02*
X150187030Y-91167438D01*
X150187030Y-91167438D02*
X150139411Y-91215057D01*
X150139411Y-91215057D02*
X150091792Y-91310295D01*
X150091792Y-91310295D02*
X150091792Y-91453152D01*
X150091792Y-91453152D02*
X150139411Y-91548390D01*
X150139411Y-91548390D02*
X150187030Y-91596009D01*
X150187030Y-91596009D02*
X150282268Y-91643628D01*
X150282268Y-91643628D02*
X150663220Y-91643628D01*
X149710839Y-92072200D02*
X149567982Y-92119819D01*
X149567982Y-92119819D02*
X149329887Y-92119819D01*
X149329887Y-92119819D02*
X149234649Y-92072200D01*
X149234649Y-92072200D02*
X149187030Y-92024580D01*
X149187030Y-92024580D02*
X149139411Y-91929342D01*
X149139411Y-91929342D02*
X149139411Y-91834104D01*
X149139411Y-91834104D02*
X149187030Y-91738866D01*
X149187030Y-91738866D02*
X149234649Y-91691247D01*
X149234649Y-91691247D02*
X149329887Y-91643628D01*
X149329887Y-91643628D02*
X149520363Y-91596009D01*
X149520363Y-91596009D02*
X149615601Y-91548390D01*
X149615601Y-91548390D02*
X149663220Y-91500771D01*
X149663220Y-91500771D02*
X149710839Y-91405533D01*
X149710839Y-91405533D02*
X149710839Y-91310295D01*
X149710839Y-91310295D02*
X149663220Y-91215057D01*
X149663220Y-91215057D02*
X149615601Y-91167438D01*
X149615601Y-91167438D02*
X149520363Y-91119819D01*
X149520363Y-91119819D02*
X149282268Y-91119819D01*
X149282268Y-91119819D02*
X149139411Y-91167438D01*
X148853696Y-91119819D02*
X148282268Y-91119819D01*
X148567982Y-92119819D02*
X148567982Y-91119819D01*
X153008458Y-39369819D02*
X152389411Y-39369819D01*
X152389411Y-39369819D02*
X152722744Y-39750771D01*
X152722744Y-39750771D02*
X152579887Y-39750771D01*
X152579887Y-39750771D02*
X152484649Y-39798390D01*
X152484649Y-39798390D02*
X152437030Y-39846009D01*
X152437030Y-39846009D02*
X152389411Y-39941247D01*
X152389411Y-39941247D02*
X152389411Y-40179342D01*
X152389411Y-40179342D02*
X152437030Y-40274580D01*
X152437030Y-40274580D02*
X152484649Y-40322200D01*
X152484649Y-40322200D02*
X152579887Y-40369819D01*
X152579887Y-40369819D02*
X152865601Y-40369819D01*
X152865601Y-40369819D02*
X152960839Y-40322200D01*
X152960839Y-40322200D02*
X153008458Y-40274580D01*
X151484649Y-39369819D02*
X151960839Y-39369819D01*
X151960839Y-39369819D02*
X152008458Y-39846009D01*
X152008458Y-39846009D02*
X151960839Y-39798390D01*
X151960839Y-39798390D02*
X151865601Y-39750771D01*
X151865601Y-39750771D02*
X151627506Y-39750771D01*
X151627506Y-39750771D02*
X151532268Y-39798390D01*
X151532268Y-39798390D02*
X151484649Y-39846009D01*
X151484649Y-39846009D02*
X151437030Y-39941247D01*
X151437030Y-39941247D02*
X151437030Y-40179342D01*
X151437030Y-40179342D02*
X151484649Y-40274580D01*
X151484649Y-40274580D02*
X151532268Y-40322200D01*
X151532268Y-40322200D02*
X151627506Y-40369819D01*
X151627506Y-40369819D02*
X151865601Y-40369819D01*
X151865601Y-40369819D02*
X151960839Y-40322200D01*
X151960839Y-40322200D02*
X152008458Y-40274580D01*
X157639411Y-82369819D02*
X158210839Y-82369819D01*
X157925125Y-82369819D02*
X157925125Y-81369819D01*
X157925125Y-81369819D02*
X158020363Y-81512676D01*
X158020363Y-81512676D02*
X158115601Y-81607914D01*
X158115601Y-81607914D02*
X158210839Y-81655533D01*
X156734649Y-81369819D02*
X157210839Y-81369819D01*
X157210839Y-81369819D02*
X157258458Y-81846009D01*
X157258458Y-81846009D02*
X157210839Y-81798390D01*
X157210839Y-81798390D02*
X157115601Y-81750771D01*
X157115601Y-81750771D02*
X156877506Y-81750771D01*
X156877506Y-81750771D02*
X156782268Y-81798390D01*
X156782268Y-81798390D02*
X156734649Y-81846009D01*
X156734649Y-81846009D02*
X156687030Y-81941247D01*
X156687030Y-81941247D02*
X156687030Y-82179342D01*
X156687030Y-82179342D02*
X156734649Y-82274580D01*
X156734649Y-82274580D02*
X156782268Y-82322200D01*
X156782268Y-82322200D02*
X156877506Y-82369819D01*
X156877506Y-82369819D02*
X157115601Y-82369819D01*
X157115601Y-82369819D02*
X157210839Y-82322200D01*
X157210839Y-82322200D02*
X157258458Y-82274580D01*
X145056077Y-47369819D02*
X144722744Y-48369819D01*
X144722744Y-48369819D02*
X144389411Y-47369819D01*
X144056077Y-47988866D02*
X143294173Y-47988866D01*
X128806077Y-66119819D02*
X128472744Y-67119819D01*
X128472744Y-67119819D02*
X128139411Y-66119819D01*
X127806077Y-66738866D02*
X127044173Y-66738866D01*
X158056077Y-132119819D02*
X157722744Y-133119819D01*
X157722744Y-133119819D02*
X157389411Y-132119819D01*
X157056077Y-132738866D02*
X156294173Y-132738866D01*
X156675125Y-133119819D02*
X156675125Y-132357914D01*
X132163220Y-56869819D02*
X132163220Y-55869819D01*
X132163220Y-55869819D02*
X131829887Y-56584104D01*
X131829887Y-56584104D02*
X131496554Y-55869819D01*
X131496554Y-55869819D02*
X131496554Y-56869819D01*
X130829887Y-55869819D02*
X130639411Y-55869819D01*
X130639411Y-55869819D02*
X130544173Y-55917438D01*
X130544173Y-55917438D02*
X130448935Y-56012676D01*
X130448935Y-56012676D02*
X130401316Y-56203152D01*
X130401316Y-56203152D02*
X130401316Y-56536485D01*
X130401316Y-56536485D02*
X130448935Y-56726961D01*
X130448935Y-56726961D02*
X130544173Y-56822200D01*
X130544173Y-56822200D02*
X130639411Y-56869819D01*
X130639411Y-56869819D02*
X130829887Y-56869819D01*
X130829887Y-56869819D02*
X130925125Y-56822200D01*
X130925125Y-56822200D02*
X131020363Y-56726961D01*
X131020363Y-56726961D02*
X131067982Y-56536485D01*
X131067982Y-56536485D02*
X131067982Y-56203152D01*
X131067982Y-56203152D02*
X131020363Y-56012676D01*
X131020363Y-56012676D02*
X130925125Y-55917438D01*
X130925125Y-55917438D02*
X130829887Y-55869819D01*
X130020363Y-56822200D02*
X129877506Y-56869819D01*
X129877506Y-56869819D02*
X129639411Y-56869819D01*
X129639411Y-56869819D02*
X129544173Y-56822200D01*
X129544173Y-56822200D02*
X129496554Y-56774580D01*
X129496554Y-56774580D02*
X129448935Y-56679342D01*
X129448935Y-56679342D02*
X129448935Y-56584104D01*
X129448935Y-56584104D02*
X129496554Y-56488866D01*
X129496554Y-56488866D02*
X129544173Y-56441247D01*
X129544173Y-56441247D02*
X129639411Y-56393628D01*
X129639411Y-56393628D02*
X129829887Y-56346009D01*
X129829887Y-56346009D02*
X129925125Y-56298390D01*
X129925125Y-56298390D02*
X129972744Y-56250771D01*
X129972744Y-56250771D02*
X130020363Y-56155533D01*
X130020363Y-56155533D02*
X130020363Y-56060295D01*
X130020363Y-56060295D02*
X129972744Y-55965057D01*
X129972744Y-55965057D02*
X129925125Y-55917438D01*
X129925125Y-55917438D02*
X129829887Y-55869819D01*
X129829887Y-55869819D02*
X129591792Y-55869819D01*
X129591792Y-55869819D02*
X129448935Y-55917438D01*
X129020363Y-56869819D02*
X129020363Y-55869819D01*
X132306077Y-71369819D02*
X131972744Y-72369819D01*
X131972744Y-72369819D02*
X131639411Y-71369819D01*
X131306077Y-71988866D02*
X130544173Y-71988866D01*
X147306077Y-47369819D02*
X146972744Y-48369819D01*
X146972744Y-48369819D02*
X146639411Y-47369819D01*
X146306077Y-47988866D02*
X145544173Y-47988866D01*
X148401316Y-92215057D02*
X147639411Y-92215057D01*
X146877506Y-92119819D02*
X147448934Y-92119819D01*
X147163220Y-92119819D02*
X147163220Y-91119819D01*
X147163220Y-91119819D02*
X147258458Y-91262676D01*
X147258458Y-91262676D02*
X147353696Y-91357914D01*
X147353696Y-91357914D02*
X147448934Y-91405533D01*
X146544172Y-91119819D02*
X145925125Y-91119819D01*
X145925125Y-91119819D02*
X146258458Y-91500771D01*
X146258458Y-91500771D02*
X146115601Y-91500771D01*
X146115601Y-91500771D02*
X146020363Y-91548390D01*
X146020363Y-91548390D02*
X145972744Y-91596009D01*
X145972744Y-91596009D02*
X145925125Y-91691247D01*
X145925125Y-91691247D02*
X145925125Y-91929342D01*
X145925125Y-91929342D02*
X145972744Y-92024580D01*
X145972744Y-92024580D02*
X146020363Y-92072200D01*
X146020363Y-92072200D02*
X146115601Y-92119819D01*
X146115601Y-92119819D02*
X146401315Y-92119819D01*
X146401315Y-92119819D02*
X146496553Y-92072200D01*
X146496553Y-92072200D02*
X146544172Y-92024580D01*
X132056077Y-124619819D02*
X131722744Y-125619819D01*
X131722744Y-125619819D02*
X131389411Y-124619819D01*
X131056077Y-125238866D02*
X130294173Y-125238866D01*
X130675125Y-125619819D02*
X130675125Y-124857914D01*
X138556077Y-48619819D02*
X138222744Y-49619819D01*
X138222744Y-49619819D02*
X137889411Y-48619819D01*
X137556077Y-49238866D02*
X136794173Y-49238866D01*
X158306077Y-106869819D02*
X157734649Y-106869819D01*
X158020363Y-107869819D02*
X158020363Y-106869819D01*
X157496553Y-106869819D02*
X156829887Y-107869819D01*
X156829887Y-106869819D02*
X157496553Y-107869819D01*
X156496553Y-106965057D02*
X156448934Y-106917438D01*
X156448934Y-106917438D02*
X156353696Y-106869819D01*
X156353696Y-106869819D02*
X156115601Y-106869819D01*
X156115601Y-106869819D02*
X156020363Y-106917438D01*
X156020363Y-106917438D02*
X155972744Y-106965057D01*
X155972744Y-106965057D02*
X155925125Y-107060295D01*
X155925125Y-107060295D02*
X155925125Y-107155533D01*
X155925125Y-107155533D02*
X155972744Y-107298390D01*
X155972744Y-107298390D02*
X156544172Y-107869819D01*
X156544172Y-107869819D02*
X155925125Y-107869819D01*
X163722744Y-76119819D02*
X163627506Y-76119819D01*
X163627506Y-76119819D02*
X163532268Y-76167438D01*
X163532268Y-76167438D02*
X163484649Y-76215057D01*
X163484649Y-76215057D02*
X163437030Y-76310295D01*
X163437030Y-76310295D02*
X163389411Y-76500771D01*
X163389411Y-76500771D02*
X163389411Y-76738866D01*
X163389411Y-76738866D02*
X163437030Y-76929342D01*
X163437030Y-76929342D02*
X163484649Y-77024580D01*
X163484649Y-77024580D02*
X163532268Y-77072200D01*
X163532268Y-77072200D02*
X163627506Y-77119819D01*
X163627506Y-77119819D02*
X163722744Y-77119819D01*
X163722744Y-77119819D02*
X163817982Y-77072200D01*
X163817982Y-77072200D02*
X163865601Y-77024580D01*
X163865601Y-77024580D02*
X163913220Y-76929342D01*
X163913220Y-76929342D02*
X163960839Y-76738866D01*
X163960839Y-76738866D02*
X163960839Y-76500771D01*
X163960839Y-76500771D02*
X163913220Y-76310295D01*
X163913220Y-76310295D02*
X163865601Y-76215057D01*
X163865601Y-76215057D02*
X163817982Y-76167438D01*
X163817982Y-76167438D02*
X163722744Y-76119819D01*
X157639411Y-120369819D02*
X158210839Y-120369819D01*
X157925125Y-120369819D02*
X157925125Y-119369819D01*
X157925125Y-119369819D02*
X158020363Y-119512676D01*
X158020363Y-119512676D02*
X158115601Y-119607914D01*
X158115601Y-119607914D02*
X158210839Y-119655533D01*
X156734649Y-119369819D02*
X157210839Y-119369819D01*
X157210839Y-119369819D02*
X157258458Y-119846009D01*
X157258458Y-119846009D02*
X157210839Y-119798390D01*
X157210839Y-119798390D02*
X157115601Y-119750771D01*
X157115601Y-119750771D02*
X156877506Y-119750771D01*
X156877506Y-119750771D02*
X156782268Y-119798390D01*
X156782268Y-119798390D02*
X156734649Y-119846009D01*
X156734649Y-119846009D02*
X156687030Y-119941247D01*
X156687030Y-119941247D02*
X156687030Y-120179342D01*
X156687030Y-120179342D02*
X156734649Y-120274580D01*
X156734649Y-120274580D02*
X156782268Y-120322200D01*
X156782268Y-120322200D02*
X156877506Y-120369819D01*
X156877506Y-120369819D02*
X157115601Y-120369819D01*
X157115601Y-120369819D02*
X157210839Y-120322200D01*
X157210839Y-120322200D02*
X157258458Y-120274580D01*
X143163220Y-131119819D02*
X143163220Y-130119819D01*
X143163220Y-130119819D02*
X142925125Y-130119819D01*
X142925125Y-130119819D02*
X142782268Y-130167438D01*
X142782268Y-130167438D02*
X142687030Y-130262676D01*
X142687030Y-130262676D02*
X142639411Y-130357914D01*
X142639411Y-130357914D02*
X142591792Y-130548390D01*
X142591792Y-130548390D02*
X142591792Y-130691247D01*
X142591792Y-130691247D02*
X142639411Y-130881723D01*
X142639411Y-130881723D02*
X142687030Y-130976961D01*
X142687030Y-130976961D02*
X142782268Y-131072200D01*
X142782268Y-131072200D02*
X142925125Y-131119819D01*
X142925125Y-131119819D02*
X143163220Y-131119819D01*
X141687030Y-130119819D02*
X142163220Y-130119819D01*
X142163220Y-130119819D02*
X142210839Y-130596009D01*
X142210839Y-130596009D02*
X142163220Y-130548390D01*
X142163220Y-130548390D02*
X142067982Y-130500771D01*
X142067982Y-130500771D02*
X141829887Y-130500771D01*
X141829887Y-130500771D02*
X141734649Y-130548390D01*
X141734649Y-130548390D02*
X141687030Y-130596009D01*
X141687030Y-130596009D02*
X141639411Y-130691247D01*
X141639411Y-130691247D02*
X141639411Y-130929342D01*
X141639411Y-130929342D02*
X141687030Y-131024580D01*
X141687030Y-131024580D02*
X141734649Y-131072200D01*
X141734649Y-131072200D02*
X141829887Y-131119819D01*
X141829887Y-131119819D02*
X142067982Y-131119819D01*
X142067982Y-131119819D02*
X142163220Y-131072200D01*
X142163220Y-131072200D02*
X142210839Y-131024580D01*
X129056077Y-52619819D02*
X128722744Y-53619819D01*
X128722744Y-53619819D02*
X128389411Y-52619819D01*
X128056077Y-53238866D02*
X127294173Y-53238866D01*
X127675125Y-53619819D02*
X127675125Y-52857914D01*
X163734649Y-104453152D02*
X163734649Y-105119819D01*
X163972744Y-104072200D02*
X164210839Y-104786485D01*
X164210839Y-104786485D02*
X163591792Y-104786485D01*
X145306077Y-127119819D02*
X144972744Y-128119819D01*
X144972744Y-128119819D02*
X144639411Y-127119819D01*
X144306077Y-127738866D02*
X143544173Y-127738866D01*
X143925125Y-128119819D02*
X143925125Y-127357914D01*
X153508458Y-62369819D02*
X152889411Y-62369819D01*
X152889411Y-62369819D02*
X153222744Y-62750771D01*
X153222744Y-62750771D02*
X153079887Y-62750771D01*
X153079887Y-62750771D02*
X152984649Y-62798390D01*
X152984649Y-62798390D02*
X152937030Y-62846009D01*
X152937030Y-62846009D02*
X152889411Y-62941247D01*
X152889411Y-62941247D02*
X152889411Y-63179342D01*
X152889411Y-63179342D02*
X152937030Y-63274580D01*
X152937030Y-63274580D02*
X152984649Y-63322200D01*
X152984649Y-63322200D02*
X153079887Y-63369819D01*
X153079887Y-63369819D02*
X153365601Y-63369819D01*
X153365601Y-63369819D02*
X153460839Y-63322200D01*
X153460839Y-63322200D02*
X153508458Y-63274580D01*
X152032268Y-62369819D02*
X152222744Y-62369819D01*
X152222744Y-62369819D02*
X152317982Y-62417438D01*
X152317982Y-62417438D02*
X152365601Y-62465057D01*
X152365601Y-62465057D02*
X152460839Y-62607914D01*
X152460839Y-62607914D02*
X152508458Y-62798390D01*
X152508458Y-62798390D02*
X152508458Y-63179342D01*
X152508458Y-63179342D02*
X152460839Y-63274580D01*
X152460839Y-63274580D02*
X152413220Y-63322200D01*
X152413220Y-63322200D02*
X152317982Y-63369819D01*
X152317982Y-63369819D02*
X152127506Y-63369819D01*
X152127506Y-63369819D02*
X152032268Y-63322200D01*
X152032268Y-63322200D02*
X151984649Y-63274580D01*
X151984649Y-63274580D02*
X151937030Y-63179342D01*
X151937030Y-63179342D02*
X151937030Y-62941247D01*
X151937030Y-62941247D02*
X151984649Y-62846009D01*
X151984649Y-62846009D02*
X152032268Y-62798390D01*
X152032268Y-62798390D02*
X152127506Y-62750771D01*
X152127506Y-62750771D02*
X152317982Y-62750771D01*
X152317982Y-62750771D02*
X152413220Y-62798390D01*
X152413220Y-62798390D02*
X152460839Y-62846009D01*
X152460839Y-62846009D02*
X152508458Y-62941247D01*
X165008458Y-93869819D02*
X164389411Y-93869819D01*
X164389411Y-93869819D02*
X164722744Y-94250771D01*
X164722744Y-94250771D02*
X164579887Y-94250771D01*
X164579887Y-94250771D02*
X164484649Y-94298390D01*
X164484649Y-94298390D02*
X164437030Y-94346009D01*
X164437030Y-94346009D02*
X164389411Y-94441247D01*
X164389411Y-94441247D02*
X164389411Y-94679342D01*
X164389411Y-94679342D02*
X164437030Y-94774580D01*
X164437030Y-94774580D02*
X164484649Y-94822200D01*
X164484649Y-94822200D02*
X164579887Y-94869819D01*
X164579887Y-94869819D02*
X164865601Y-94869819D01*
X164865601Y-94869819D02*
X164960839Y-94822200D01*
X164960839Y-94822200D02*
X165008458Y-94774580D01*
X164008458Y-93965057D02*
X163960839Y-93917438D01*
X163960839Y-93917438D02*
X163865601Y-93869819D01*
X163865601Y-93869819D02*
X163627506Y-93869819D01*
X163627506Y-93869819D02*
X163532268Y-93917438D01*
X163532268Y-93917438D02*
X163484649Y-93965057D01*
X163484649Y-93965057D02*
X163437030Y-94060295D01*
X163437030Y-94060295D02*
X163437030Y-94155533D01*
X163437030Y-94155533D02*
X163484649Y-94298390D01*
X163484649Y-94298390D02*
X164056077Y-94869819D01*
X164056077Y-94869819D02*
X163437030Y-94869819D01*
X139056077Y-124369819D02*
X138722744Y-125369819D01*
X138722744Y-125369819D02*
X138389411Y-124369819D01*
X138056077Y-124988866D02*
X137294173Y-124988866D01*
X157639411Y-135619819D02*
X158210839Y-135619819D01*
X157925125Y-135619819D02*
X157925125Y-134619819D01*
X157925125Y-134619819D02*
X158020363Y-134762676D01*
X158020363Y-134762676D02*
X158115601Y-134857914D01*
X158115601Y-134857914D02*
X158210839Y-134905533D01*
X156734649Y-134619819D02*
X157210839Y-134619819D01*
X157210839Y-134619819D02*
X157258458Y-135096009D01*
X157258458Y-135096009D02*
X157210839Y-135048390D01*
X157210839Y-135048390D02*
X157115601Y-135000771D01*
X157115601Y-135000771D02*
X156877506Y-135000771D01*
X156877506Y-135000771D02*
X156782268Y-135048390D01*
X156782268Y-135048390D02*
X156734649Y-135096009D01*
X156734649Y-135096009D02*
X156687030Y-135191247D01*
X156687030Y-135191247D02*
X156687030Y-135429342D01*
X156687030Y-135429342D02*
X156734649Y-135524580D01*
X156734649Y-135524580D02*
X156782268Y-135572200D01*
X156782268Y-135572200D02*
X156877506Y-135619819D01*
X156877506Y-135619819D02*
X157115601Y-135619819D01*
X157115601Y-135619819D02*
X157210839Y-135572200D01*
X157210839Y-135572200D02*
X157258458Y-135524580D01*
X132210839Y-58465057D02*
X132163220Y-58417438D01*
X132163220Y-58417438D02*
X132067982Y-58369819D01*
X132067982Y-58369819D02*
X131829887Y-58369819D01*
X131829887Y-58369819D02*
X131734649Y-58417438D01*
X131734649Y-58417438D02*
X131687030Y-58465057D01*
X131687030Y-58465057D02*
X131639411Y-58560295D01*
X131639411Y-58560295D02*
X131639411Y-58655533D01*
X131639411Y-58655533D02*
X131687030Y-58798390D01*
X131687030Y-58798390D02*
X132258458Y-59369819D01*
X132258458Y-59369819D02*
X131639411Y-59369819D01*
X130782268Y-58369819D02*
X130972744Y-58369819D01*
X130972744Y-58369819D02*
X131067982Y-58417438D01*
X131067982Y-58417438D02*
X131115601Y-58465057D01*
X131115601Y-58465057D02*
X131210839Y-58607914D01*
X131210839Y-58607914D02*
X131258458Y-58798390D01*
X131258458Y-58798390D02*
X131258458Y-59179342D01*
X131258458Y-59179342D02*
X131210839Y-59274580D01*
X131210839Y-59274580D02*
X131163220Y-59322200D01*
X131163220Y-59322200D02*
X131067982Y-59369819D01*
X131067982Y-59369819D02*
X130877506Y-59369819D01*
X130877506Y-59369819D02*
X130782268Y-59322200D01*
X130782268Y-59322200D02*
X130734649Y-59274580D01*
X130734649Y-59274580D02*
X130687030Y-59179342D01*
X130687030Y-59179342D02*
X130687030Y-58941247D01*
X130687030Y-58941247D02*
X130734649Y-58846009D01*
X130734649Y-58846009D02*
X130782268Y-58798390D01*
X130782268Y-58798390D02*
X130877506Y-58750771D01*
X130877506Y-58750771D02*
X131067982Y-58750771D01*
X131067982Y-58750771D02*
X131163220Y-58798390D01*
X131163220Y-58798390D02*
X131210839Y-58846009D01*
X131210839Y-58846009D02*
X131258458Y-58941247D01*
X143806077Y-71369819D02*
X143472744Y-72369819D01*
X143472744Y-72369819D02*
X143139411Y-71369819D01*
X142806077Y-71988866D02*
X142044173Y-71988866D01*
X142663220Y-64619819D02*
X142663220Y-63619819D01*
X142663220Y-63619819D02*
X142425125Y-63619819D01*
X142425125Y-63619819D02*
X142282268Y-63667438D01*
X142282268Y-63667438D02*
X142187030Y-63762676D01*
X142187030Y-63762676D02*
X142139411Y-63857914D01*
X142139411Y-63857914D02*
X142091792Y-64048390D01*
X142091792Y-64048390D02*
X142091792Y-64191247D01*
X142091792Y-64191247D02*
X142139411Y-64381723D01*
X142139411Y-64381723D02*
X142187030Y-64476961D01*
X142187030Y-64476961D02*
X142282268Y-64572200D01*
X142282268Y-64572200D02*
X142425125Y-64619819D01*
X142425125Y-64619819D02*
X142663220Y-64619819D01*
X141710839Y-64334104D02*
X141234649Y-64334104D01*
X141806077Y-64619819D02*
X141472744Y-63619819D01*
X141472744Y-63619819D02*
X141139411Y-64619819D01*
X140234649Y-64524580D02*
X140282268Y-64572200D01*
X140282268Y-64572200D02*
X140425125Y-64619819D01*
X140425125Y-64619819D02*
X140520363Y-64619819D01*
X140520363Y-64619819D02*
X140663220Y-64572200D01*
X140663220Y-64572200D02*
X140758458Y-64476961D01*
X140758458Y-64476961D02*
X140806077Y-64381723D01*
X140806077Y-64381723D02*
X140853696Y-64191247D01*
X140853696Y-64191247D02*
X140853696Y-64048390D01*
X140853696Y-64048390D02*
X140806077Y-63857914D01*
X140806077Y-63857914D02*
X140758458Y-63762676D01*
X140758458Y-63762676D02*
X140663220Y-63667438D01*
X140663220Y-63667438D02*
X140520363Y-63619819D01*
X140520363Y-63619819D02*
X140425125Y-63619819D01*
X140425125Y-63619819D02*
X140282268Y-63667438D01*
X140282268Y-63667438D02*
X140234649Y-63715057D01*
X145258458Y-39369819D02*
X144639411Y-39369819D01*
X144639411Y-39369819D02*
X144972744Y-39750771D01*
X144972744Y-39750771D02*
X144829887Y-39750771D01*
X144829887Y-39750771D02*
X144734649Y-39798390D01*
X144734649Y-39798390D02*
X144687030Y-39846009D01*
X144687030Y-39846009D02*
X144639411Y-39941247D01*
X144639411Y-39941247D02*
X144639411Y-40179342D01*
X144639411Y-40179342D02*
X144687030Y-40274580D01*
X144687030Y-40274580D02*
X144734649Y-40322200D01*
X144734649Y-40322200D02*
X144829887Y-40369819D01*
X144829887Y-40369819D02*
X145115601Y-40369819D01*
X145115601Y-40369819D02*
X145210839Y-40322200D01*
X145210839Y-40322200D02*
X145258458Y-40274580D01*
X143782268Y-39369819D02*
X143972744Y-39369819D01*
X143972744Y-39369819D02*
X144067982Y-39417438D01*
X144067982Y-39417438D02*
X144115601Y-39465057D01*
X144115601Y-39465057D02*
X144210839Y-39607914D01*
X144210839Y-39607914D02*
X144258458Y-39798390D01*
X144258458Y-39798390D02*
X144258458Y-40179342D01*
X144258458Y-40179342D02*
X144210839Y-40274580D01*
X144210839Y-40274580D02*
X144163220Y-40322200D01*
X144163220Y-40322200D02*
X144067982Y-40369819D01*
X144067982Y-40369819D02*
X143877506Y-40369819D01*
X143877506Y-40369819D02*
X143782268Y-40322200D01*
X143782268Y-40322200D02*
X143734649Y-40274580D01*
X143734649Y-40274580D02*
X143687030Y-40179342D01*
X143687030Y-40179342D02*
X143687030Y-39941247D01*
X143687030Y-39941247D02*
X143734649Y-39846009D01*
X143734649Y-39846009D02*
X143782268Y-39798390D01*
X143782268Y-39798390D02*
X143877506Y-39750771D01*
X143877506Y-39750771D02*
X144067982Y-39750771D01*
X144067982Y-39750771D02*
X144163220Y-39798390D01*
X144163220Y-39798390D02*
X144210839Y-39846009D01*
X144210839Y-39846009D02*
X144258458Y-39941247D01*
X142901316Y-59465057D02*
X142139411Y-59465057D01*
X141377506Y-59369819D02*
X141948934Y-59369819D01*
X141663220Y-59369819D02*
X141663220Y-58369819D01*
X141663220Y-58369819D02*
X141758458Y-58512676D01*
X141758458Y-58512676D02*
X141853696Y-58607914D01*
X141853696Y-58607914D02*
X141948934Y-58655533D01*
X140472744Y-58369819D02*
X140948934Y-58369819D01*
X140948934Y-58369819D02*
X140996553Y-58846009D01*
X140996553Y-58846009D02*
X140948934Y-58798390D01*
X140948934Y-58798390D02*
X140853696Y-58750771D01*
X140853696Y-58750771D02*
X140615601Y-58750771D01*
X140615601Y-58750771D02*
X140520363Y-58798390D01*
X140520363Y-58798390D02*
X140472744Y-58846009D01*
X140472744Y-58846009D02*
X140425125Y-58941247D01*
X140425125Y-58941247D02*
X140425125Y-59179342D01*
X140425125Y-59179342D02*
X140472744Y-59274580D01*
X140472744Y-59274580D02*
X140520363Y-59322200D01*
X140520363Y-59322200D02*
X140615601Y-59369819D01*
X140615601Y-59369819D02*
X140853696Y-59369819D01*
X140853696Y-59369819D02*
X140948934Y-59322200D01*
X140948934Y-59322200D02*
X140996553Y-59274580D01*
X139056077Y-121869819D02*
X138722744Y-122869819D01*
X138722744Y-122869819D02*
X138389411Y-121869819D01*
X138056077Y-122488866D02*
X137294173Y-122488866D01*
X128806077Y-89119819D02*
X128472744Y-90119819D01*
X128472744Y-90119819D02*
X128139411Y-89119819D01*
X127806077Y-89738866D02*
X127044173Y-89738866D01*
X142901316Y-72215057D02*
X142139411Y-72215057D01*
X141377506Y-72119819D02*
X141948934Y-72119819D01*
X141663220Y-72119819D02*
X141663220Y-71119819D01*
X141663220Y-71119819D02*
X141758458Y-71262676D01*
X141758458Y-71262676D02*
X141853696Y-71357914D01*
X141853696Y-71357914D02*
X141948934Y-71405533D01*
X140996553Y-71215057D02*
X140948934Y-71167438D01*
X140948934Y-71167438D02*
X140853696Y-71119819D01*
X140853696Y-71119819D02*
X140615601Y-71119819D01*
X140615601Y-71119819D02*
X140520363Y-71167438D01*
X140520363Y-71167438D02*
X140472744Y-71215057D01*
X140472744Y-71215057D02*
X140425125Y-71310295D01*
X140425125Y-71310295D02*
X140425125Y-71405533D01*
X140425125Y-71405533D02*
X140472744Y-71548390D01*
X140472744Y-71548390D02*
X141044172Y-72119819D01*
X141044172Y-72119819D02*
X140425125Y-72119819D01*
X138758458Y-58619819D02*
X138139411Y-58619819D01*
X138139411Y-58619819D02*
X138472744Y-59000771D01*
X138472744Y-59000771D02*
X138329887Y-59000771D01*
X138329887Y-59000771D02*
X138234649Y-59048390D01*
X138234649Y-59048390D02*
X138187030Y-59096009D01*
X138187030Y-59096009D02*
X138139411Y-59191247D01*
X138139411Y-59191247D02*
X138139411Y-59429342D01*
X138139411Y-59429342D02*
X138187030Y-59524580D01*
X138187030Y-59524580D02*
X138234649Y-59572200D01*
X138234649Y-59572200D02*
X138329887Y-59619819D01*
X138329887Y-59619819D02*
X138615601Y-59619819D01*
X138615601Y-59619819D02*
X138710839Y-59572200D01*
X138710839Y-59572200D02*
X138758458Y-59524580D01*
X137663220Y-59619819D02*
X137472744Y-59619819D01*
X137472744Y-59619819D02*
X137377506Y-59572200D01*
X137377506Y-59572200D02*
X137329887Y-59524580D01*
X137329887Y-59524580D02*
X137234649Y-59381723D01*
X137234649Y-59381723D02*
X137187030Y-59191247D01*
X137187030Y-59191247D02*
X137187030Y-58810295D01*
X137187030Y-58810295D02*
X137234649Y-58715057D01*
X137234649Y-58715057D02*
X137282268Y-58667438D01*
X137282268Y-58667438D02*
X137377506Y-58619819D01*
X137377506Y-58619819D02*
X137567982Y-58619819D01*
X137567982Y-58619819D02*
X137663220Y-58667438D01*
X137663220Y-58667438D02*
X137710839Y-58715057D01*
X137710839Y-58715057D02*
X137758458Y-58810295D01*
X137758458Y-58810295D02*
X137758458Y-59048390D01*
X137758458Y-59048390D02*
X137710839Y-59143628D01*
X137710839Y-59143628D02*
X137663220Y-59191247D01*
X137663220Y-59191247D02*
X137567982Y-59238866D01*
X137567982Y-59238866D02*
X137377506Y-59238866D01*
X137377506Y-59238866D02*
X137282268Y-59191247D01*
X137282268Y-59191247D02*
X137234649Y-59143628D01*
X137234649Y-59143628D02*
X137187030Y-59048390D01*
X143163220Y-133119819D02*
X143163220Y-132119819D01*
X143163220Y-132119819D02*
X142925125Y-132119819D01*
X142925125Y-132119819D02*
X142782268Y-132167438D01*
X142782268Y-132167438D02*
X142687030Y-132262676D01*
X142687030Y-132262676D02*
X142639411Y-132357914D01*
X142639411Y-132357914D02*
X142591792Y-132548390D01*
X142591792Y-132548390D02*
X142591792Y-132691247D01*
X142591792Y-132691247D02*
X142639411Y-132881723D01*
X142639411Y-132881723D02*
X142687030Y-132976961D01*
X142687030Y-132976961D02*
X142782268Y-133072200D01*
X142782268Y-133072200D02*
X142925125Y-133119819D01*
X142925125Y-133119819D02*
X143163220Y-133119819D01*
X142258458Y-132119819D02*
X141639411Y-132119819D01*
X141639411Y-132119819D02*
X141972744Y-132500771D01*
X141972744Y-132500771D02*
X141829887Y-132500771D01*
X141829887Y-132500771D02*
X141734649Y-132548390D01*
X141734649Y-132548390D02*
X141687030Y-132596009D01*
X141687030Y-132596009D02*
X141639411Y-132691247D01*
X141639411Y-132691247D02*
X141639411Y-132929342D01*
X141639411Y-132929342D02*
X141687030Y-133024580D01*
X141687030Y-133024580D02*
X141734649Y-133072200D01*
X141734649Y-133072200D02*
X141829887Y-133119819D01*
X141829887Y-133119819D02*
X142115601Y-133119819D01*
X142115601Y-133119819D02*
X142210839Y-133072200D01*
X142210839Y-133072200D02*
X142258458Y-133024580D01*
X158056077Y-50869819D02*
X157722744Y-51869819D01*
X157722744Y-51869819D02*
X157389411Y-50869819D01*
X157056077Y-51488866D02*
X156294173Y-51488866D01*
X156675125Y-51869819D02*
X156675125Y-51107914D01*
X161556077Y-89119819D02*
X161222744Y-90119819D01*
X161222744Y-90119819D02*
X160889411Y-89119819D01*
X160556077Y-89738866D02*
X159794173Y-89738866D01*
X160175125Y-90119819D02*
X160175125Y-89357914D01*
X154151316Y-129215057D02*
X153389411Y-129215057D01*
X152627506Y-129119819D02*
X153198934Y-129119819D01*
X152913220Y-129119819D02*
X152913220Y-128119819D01*
X152913220Y-128119819D02*
X153008458Y-128262676D01*
X153008458Y-128262676D02*
X153103696Y-128357914D01*
X153103696Y-128357914D02*
X153198934Y-128405533D01*
X151770363Y-128119819D02*
X151960839Y-128119819D01*
X151960839Y-128119819D02*
X152056077Y-128167438D01*
X152056077Y-128167438D02*
X152103696Y-128215057D01*
X152103696Y-128215057D02*
X152198934Y-128357914D01*
X152198934Y-128357914D02*
X152246553Y-128548390D01*
X152246553Y-128548390D02*
X152246553Y-128929342D01*
X152246553Y-128929342D02*
X152198934Y-129024580D01*
X152198934Y-129024580D02*
X152151315Y-129072200D01*
X152151315Y-129072200D02*
X152056077Y-129119819D01*
X152056077Y-129119819D02*
X151865601Y-129119819D01*
X151865601Y-129119819D02*
X151770363Y-129072200D01*
X151770363Y-129072200D02*
X151722744Y-129024580D01*
X151722744Y-129024580D02*
X151675125Y-128929342D01*
X151675125Y-128929342D02*
X151675125Y-128691247D01*
X151675125Y-128691247D02*
X151722744Y-128596009D01*
X151722744Y-128596009D02*
X151770363Y-128548390D01*
X151770363Y-128548390D02*
X151865601Y-128500771D01*
X151865601Y-128500771D02*
X152056077Y-128500771D01*
X152056077Y-128500771D02*
X152151315Y-128548390D01*
X152151315Y-128548390D02*
X152198934Y-128596009D01*
X152198934Y-128596009D02*
X152246553Y-128691247D01*
X143163220Y-125119819D02*
X143163220Y-124119819D01*
X143163220Y-124119819D02*
X142925125Y-124119819D01*
X142925125Y-124119819D02*
X142782268Y-124167438D01*
X142782268Y-124167438D02*
X142687030Y-124262676D01*
X142687030Y-124262676D02*
X142639411Y-124357914D01*
X142639411Y-124357914D02*
X142591792Y-124548390D01*
X142591792Y-124548390D02*
X142591792Y-124691247D01*
X142591792Y-124691247D02*
X142639411Y-124881723D01*
X142639411Y-124881723D02*
X142687030Y-124976961D01*
X142687030Y-124976961D02*
X142782268Y-125072200D01*
X142782268Y-125072200D02*
X142925125Y-125119819D01*
X142925125Y-125119819D02*
X143163220Y-125119819D01*
X142210839Y-124215057D02*
X142163220Y-124167438D01*
X142163220Y-124167438D02*
X142067982Y-124119819D01*
X142067982Y-124119819D02*
X141829887Y-124119819D01*
X141829887Y-124119819D02*
X141734649Y-124167438D01*
X141734649Y-124167438D02*
X141687030Y-124215057D01*
X141687030Y-124215057D02*
X141639411Y-124310295D01*
X141639411Y-124310295D02*
X141639411Y-124405533D01*
X141639411Y-124405533D02*
X141687030Y-124548390D01*
X141687030Y-124548390D02*
X142258458Y-125119819D01*
X142258458Y-125119819D02*
X141639411Y-125119819D01*
X128187030Y-78869819D02*
X128663220Y-78869819D01*
X128663220Y-78869819D02*
X128710839Y-79346009D01*
X128710839Y-79346009D02*
X128663220Y-79298390D01*
X128663220Y-79298390D02*
X128567982Y-79250771D01*
X128567982Y-79250771D02*
X128329887Y-79250771D01*
X128329887Y-79250771D02*
X128234649Y-79298390D01*
X128234649Y-79298390D02*
X128187030Y-79346009D01*
X128187030Y-79346009D02*
X128139411Y-79441247D01*
X128139411Y-79441247D02*
X128139411Y-79679342D01*
X128139411Y-79679342D02*
X128187030Y-79774580D01*
X128187030Y-79774580D02*
X128234649Y-79822200D01*
X128234649Y-79822200D02*
X128329887Y-79869819D01*
X128329887Y-79869819D02*
X128567982Y-79869819D01*
X128567982Y-79869819D02*
X128663220Y-79822200D01*
X128663220Y-79822200D02*
X128710839Y-79774580D01*
X127853696Y-78869819D02*
X127520363Y-79869819D01*
X127520363Y-79869819D02*
X127187030Y-78869819D01*
X165056077Y-109369819D02*
X164722744Y-110369819D01*
X164722744Y-110369819D02*
X164389411Y-109369819D01*
X164056077Y-109988866D02*
X163294173Y-109988866D01*
X138960839Y-111965057D02*
X138913220Y-111917438D01*
X138913220Y-111917438D02*
X138817982Y-111869819D01*
X138817982Y-111869819D02*
X138579887Y-111869819D01*
X138579887Y-111869819D02*
X138484649Y-111917438D01*
X138484649Y-111917438D02*
X138437030Y-111965057D01*
X138437030Y-111965057D02*
X138389411Y-112060295D01*
X138389411Y-112060295D02*
X138389411Y-112155533D01*
X138389411Y-112155533D02*
X138437030Y-112298390D01*
X138437030Y-112298390D02*
X139008458Y-112869819D01*
X139008458Y-112869819D02*
X138389411Y-112869819D01*
X137532268Y-111869819D02*
X137722744Y-111869819D01*
X137722744Y-111869819D02*
X137817982Y-111917438D01*
X137817982Y-111917438D02*
X137865601Y-111965057D01*
X137865601Y-111965057D02*
X137960839Y-112107914D01*
X137960839Y-112107914D02*
X138008458Y-112298390D01*
X138008458Y-112298390D02*
X138008458Y-112679342D01*
X138008458Y-112679342D02*
X137960839Y-112774580D01*
X137960839Y-112774580D02*
X137913220Y-112822200D01*
X137913220Y-112822200D02*
X137817982Y-112869819D01*
X137817982Y-112869819D02*
X137627506Y-112869819D01*
X137627506Y-112869819D02*
X137532268Y-112822200D01*
X137532268Y-112822200D02*
X137484649Y-112774580D01*
X137484649Y-112774580D02*
X137437030Y-112679342D01*
X137437030Y-112679342D02*
X137437030Y-112441247D01*
X137437030Y-112441247D02*
X137484649Y-112346009D01*
X137484649Y-112346009D02*
X137532268Y-112298390D01*
X137532268Y-112298390D02*
X137627506Y-112250771D01*
X137627506Y-112250771D02*
X137817982Y-112250771D01*
X137817982Y-112250771D02*
X137913220Y-112298390D01*
X137913220Y-112298390D02*
X137960839Y-112346009D01*
X137960839Y-112346009D02*
X138008458Y-112441247D01*
X158163220Y-56869819D02*
X158163220Y-55869819D01*
X157496554Y-55869819D02*
X157306078Y-55869819D01*
X157306078Y-55869819D02*
X157210840Y-55917438D01*
X157210840Y-55917438D02*
X157115602Y-56012676D01*
X157115602Y-56012676D02*
X157067983Y-56203152D01*
X157067983Y-56203152D02*
X157067983Y-56536485D01*
X157067983Y-56536485D02*
X157115602Y-56726961D01*
X157115602Y-56726961D02*
X157210840Y-56822200D01*
X157210840Y-56822200D02*
X157306078Y-56869819D01*
X157306078Y-56869819D02*
X157496554Y-56869819D01*
X157496554Y-56869819D02*
X157591792Y-56822200D01*
X157591792Y-56822200D02*
X157687030Y-56726961D01*
X157687030Y-56726961D02*
X157734649Y-56536485D01*
X157734649Y-56536485D02*
X157734649Y-56203152D01*
X157734649Y-56203152D02*
X157687030Y-56012676D01*
X157687030Y-56012676D02*
X157591792Y-55917438D01*
X157591792Y-55917438D02*
X157496554Y-55869819D01*
X156687030Y-55965057D02*
X156639411Y-55917438D01*
X156639411Y-55917438D02*
X156544173Y-55869819D01*
X156544173Y-55869819D02*
X156306078Y-55869819D01*
X156306078Y-55869819D02*
X156210840Y-55917438D01*
X156210840Y-55917438D02*
X156163221Y-55965057D01*
X156163221Y-55965057D02*
X156115602Y-56060295D01*
X156115602Y-56060295D02*
X156115602Y-56155533D01*
X156115602Y-56155533D02*
X156163221Y-56298390D01*
X156163221Y-56298390D02*
X156734649Y-56869819D01*
X156734649Y-56869819D02*
X156115602Y-56869819D01*
X155734649Y-55965057D02*
X155687030Y-55917438D01*
X155687030Y-55917438D02*
X155591792Y-55869819D01*
X155591792Y-55869819D02*
X155353697Y-55869819D01*
X155353697Y-55869819D02*
X155258459Y-55917438D01*
X155258459Y-55917438D02*
X155210840Y-55965057D01*
X155210840Y-55965057D02*
X155163221Y-56060295D01*
X155163221Y-56060295D02*
X155163221Y-56155533D01*
X155163221Y-56155533D02*
X155210840Y-56298390D01*
X155210840Y-56298390D02*
X155782268Y-56869819D01*
X155782268Y-56869819D02*
X155163221Y-56869819D01*
X165008458Y-83869819D02*
X164389411Y-83869819D01*
X164389411Y-83869819D02*
X164722744Y-84250771D01*
X164722744Y-84250771D02*
X164579887Y-84250771D01*
X164579887Y-84250771D02*
X164484649Y-84298390D01*
X164484649Y-84298390D02*
X164437030Y-84346009D01*
X164437030Y-84346009D02*
X164389411Y-84441247D01*
X164389411Y-84441247D02*
X164389411Y-84679342D01*
X164389411Y-84679342D02*
X164437030Y-84774580D01*
X164437030Y-84774580D02*
X164484649Y-84822200D01*
X164484649Y-84822200D02*
X164579887Y-84869819D01*
X164579887Y-84869819D02*
X164865601Y-84869819D01*
X164865601Y-84869819D02*
X164960839Y-84822200D01*
X164960839Y-84822200D02*
X165008458Y-84774580D01*
X164056077Y-83869819D02*
X163437030Y-83869819D01*
X163437030Y-83869819D02*
X163770363Y-84250771D01*
X163770363Y-84250771D02*
X163627506Y-84250771D01*
X163627506Y-84250771D02*
X163532268Y-84298390D01*
X163532268Y-84298390D02*
X163484649Y-84346009D01*
X163484649Y-84346009D02*
X163437030Y-84441247D01*
X163437030Y-84441247D02*
X163437030Y-84679342D01*
X163437030Y-84679342D02*
X163484649Y-84774580D01*
X163484649Y-84774580D02*
X163532268Y-84822200D01*
X163532268Y-84822200D02*
X163627506Y-84869819D01*
X163627506Y-84869819D02*
X163913220Y-84869819D01*
X163913220Y-84869819D02*
X164008458Y-84822200D01*
X164008458Y-84822200D02*
X164056077Y-84774580D01*
X165008458Y-134619819D02*
X164389411Y-134619819D01*
X164389411Y-134619819D02*
X164722744Y-135000771D01*
X164722744Y-135000771D02*
X164579887Y-135000771D01*
X164579887Y-135000771D02*
X164484649Y-135048390D01*
X164484649Y-135048390D02*
X164437030Y-135096009D01*
X164437030Y-135096009D02*
X164389411Y-135191247D01*
X164389411Y-135191247D02*
X164389411Y-135429342D01*
X164389411Y-135429342D02*
X164437030Y-135524580D01*
X164437030Y-135524580D02*
X164484649Y-135572200D01*
X164484649Y-135572200D02*
X164579887Y-135619819D01*
X164579887Y-135619819D02*
X164865601Y-135619819D01*
X164865601Y-135619819D02*
X164960839Y-135572200D01*
X164960839Y-135572200D02*
X165008458Y-135524580D01*
X164056077Y-134619819D02*
X163437030Y-134619819D01*
X163437030Y-134619819D02*
X163770363Y-135000771D01*
X163770363Y-135000771D02*
X163627506Y-135000771D01*
X163627506Y-135000771D02*
X163532268Y-135048390D01*
X163532268Y-135048390D02*
X163484649Y-135096009D01*
X163484649Y-135096009D02*
X163437030Y-135191247D01*
X163437030Y-135191247D02*
X163437030Y-135429342D01*
X163437030Y-135429342D02*
X163484649Y-135524580D01*
X163484649Y-135524580D02*
X163532268Y-135572200D01*
X163532268Y-135572200D02*
X163627506Y-135619819D01*
X163627506Y-135619819D02*
X163913220Y-135619819D01*
X163913220Y-135619819D02*
X164008458Y-135572200D01*
X164008458Y-135572200D02*
X164056077Y-135524580D01*
X137734649Y-53703152D02*
X137734649Y-54369819D01*
X137972744Y-53322200D02*
X138210839Y-54036485D01*
X138210839Y-54036485D02*
X137591792Y-54036485D01*
X164556077Y-129619819D02*
X164222744Y-130619819D01*
X164222744Y-130619819D02*
X163889411Y-129619819D01*
X163556077Y-130238866D02*
X162794173Y-130238866D01*
X153306077Y-107169819D02*
X152972744Y-108169819D01*
X152972744Y-108169819D02*
X152639411Y-107169819D01*
X152306077Y-107788866D02*
X151544173Y-107788866D01*
X151925125Y-108169819D02*
X151925125Y-107407914D01*
X165008458Y-50869819D02*
X164389411Y-50869819D01*
X164389411Y-50869819D02*
X164722744Y-51250771D01*
X164722744Y-51250771D02*
X164579887Y-51250771D01*
X164579887Y-51250771D02*
X164484649Y-51298390D01*
X164484649Y-51298390D02*
X164437030Y-51346009D01*
X164437030Y-51346009D02*
X164389411Y-51441247D01*
X164389411Y-51441247D02*
X164389411Y-51679342D01*
X164389411Y-51679342D02*
X164437030Y-51774580D01*
X164437030Y-51774580D02*
X164484649Y-51822200D01*
X164484649Y-51822200D02*
X164579887Y-51869819D01*
X164579887Y-51869819D02*
X164865601Y-51869819D01*
X164865601Y-51869819D02*
X164960839Y-51822200D01*
X164960839Y-51822200D02*
X165008458Y-51774580D01*
X164056077Y-50869819D02*
X163437030Y-50869819D01*
X163437030Y-50869819D02*
X163770363Y-51250771D01*
X163770363Y-51250771D02*
X163627506Y-51250771D01*
X163627506Y-51250771D02*
X163532268Y-51298390D01*
X163532268Y-51298390D02*
X163484649Y-51346009D01*
X163484649Y-51346009D02*
X163437030Y-51441247D01*
X163437030Y-51441247D02*
X163437030Y-51679342D01*
X163437030Y-51679342D02*
X163484649Y-51774580D01*
X163484649Y-51774580D02*
X163532268Y-51822200D01*
X163532268Y-51822200D02*
X163627506Y-51869819D01*
X163627506Y-51869819D02*
X163913220Y-51869819D01*
X163913220Y-51869819D02*
X164008458Y-51822200D01*
X164008458Y-51822200D02*
X164056077Y-51774580D01*
X148556077Y-87119819D02*
X148222744Y-88119819D01*
X148222744Y-88119819D02*
X147889411Y-87119819D01*
X147556077Y-87738866D02*
X146794173Y-87738866D01*
X149806077Y-47369819D02*
X149472744Y-48369819D01*
X149472744Y-48369819D02*
X149139411Y-47369819D01*
X148806077Y-47988866D02*
X148044173Y-47988866D01*
X141806077Y-40619819D02*
X141472744Y-41619819D01*
X141472744Y-41619819D02*
X141139411Y-40619819D01*
X140806077Y-41238866D02*
X140044173Y-41238866D01*
X132306077Y-68869819D02*
X131972744Y-69869819D01*
X131972744Y-69869819D02*
X131639411Y-68869819D01*
X131306077Y-69488866D02*
X130544173Y-69488866D01*
X130925125Y-69869819D02*
X130925125Y-69107914D01*
X153806077Y-120119819D02*
X153472744Y-121119819D01*
X153472744Y-121119819D02*
X153139411Y-120119819D01*
X152806077Y-120738866D02*
X152044173Y-120738866D01*
X152425125Y-121119819D02*
X152425125Y-120357914D01*
X132056077Y-76369819D02*
X131722744Y-77369819D01*
X131722744Y-77369819D02*
X131389411Y-76369819D01*
X131056077Y-76988866D02*
X130294173Y-76988866D01*
X130675125Y-77369819D02*
X130675125Y-76607914D01*
X132056077Y-132369819D02*
X131722744Y-133369819D01*
X131722744Y-133369819D02*
X131389411Y-132369819D01*
X131056077Y-132988866D02*
X130294173Y-132988866D01*
X130675125Y-133369819D02*
X130675125Y-132607914D01*
X147591792Y-103119819D02*
X147925125Y-102643628D01*
X148163220Y-103119819D02*
X148163220Y-102119819D01*
X148163220Y-102119819D02*
X147782268Y-102119819D01*
X147782268Y-102119819D02*
X147687030Y-102167438D01*
X147687030Y-102167438D02*
X147639411Y-102215057D01*
X147639411Y-102215057D02*
X147591792Y-102310295D01*
X147591792Y-102310295D02*
X147591792Y-102453152D01*
X147591792Y-102453152D02*
X147639411Y-102548390D01*
X147639411Y-102548390D02*
X147687030Y-102596009D01*
X147687030Y-102596009D02*
X147782268Y-102643628D01*
X147782268Y-102643628D02*
X148163220Y-102643628D01*
X147258458Y-102119819D02*
X146591792Y-103119819D01*
X146591792Y-102119819D02*
X147258458Y-103119819D01*
X146258458Y-102215057D02*
X146210839Y-102167438D01*
X146210839Y-102167438D02*
X146115601Y-102119819D01*
X146115601Y-102119819D02*
X145877506Y-102119819D01*
X145877506Y-102119819D02*
X145782268Y-102167438D01*
X145782268Y-102167438D02*
X145734649Y-102215057D01*
X145734649Y-102215057D02*
X145687030Y-102310295D01*
X145687030Y-102310295D02*
X145687030Y-102405533D01*
X145687030Y-102405533D02*
X145734649Y-102548390D01*
X145734649Y-102548390D02*
X146306077Y-103119819D01*
X146306077Y-103119819D02*
X145687030Y-103119819D01*
X138389411Y-117869819D02*
X138960839Y-117869819D01*
X138675125Y-117869819D02*
X138675125Y-116869819D01*
X138675125Y-116869819D02*
X138770363Y-117012676D01*
X138770363Y-117012676D02*
X138865601Y-117107914D01*
X138865601Y-117107914D02*
X138960839Y-117155533D01*
X137532268Y-117203152D02*
X137532268Y-117869819D01*
X137770363Y-116822200D02*
X138008458Y-117536485D01*
X138008458Y-117536485D02*
X137389411Y-117536485D01*
X132210839Y-54322200D02*
X132067982Y-54369819D01*
X132067982Y-54369819D02*
X131829887Y-54369819D01*
X131829887Y-54369819D02*
X131734649Y-54322200D01*
X131734649Y-54322200D02*
X131687030Y-54274580D01*
X131687030Y-54274580D02*
X131639411Y-54179342D01*
X131639411Y-54179342D02*
X131639411Y-54084104D01*
X131639411Y-54084104D02*
X131687030Y-53988866D01*
X131687030Y-53988866D02*
X131734649Y-53941247D01*
X131734649Y-53941247D02*
X131829887Y-53893628D01*
X131829887Y-53893628D02*
X132020363Y-53846009D01*
X132020363Y-53846009D02*
X132115601Y-53798390D01*
X132115601Y-53798390D02*
X132163220Y-53750771D01*
X132163220Y-53750771D02*
X132210839Y-53655533D01*
X132210839Y-53655533D02*
X132210839Y-53560295D01*
X132210839Y-53560295D02*
X132163220Y-53465057D01*
X132163220Y-53465057D02*
X132115601Y-53417438D01*
X132115601Y-53417438D02*
X132020363Y-53369819D01*
X132020363Y-53369819D02*
X131782268Y-53369819D01*
X131782268Y-53369819D02*
X131639411Y-53417438D01*
X130639411Y-54274580D02*
X130687030Y-54322200D01*
X130687030Y-54322200D02*
X130829887Y-54369819D01*
X130829887Y-54369819D02*
X130925125Y-54369819D01*
X130925125Y-54369819D02*
X131067982Y-54322200D01*
X131067982Y-54322200D02*
X131163220Y-54226961D01*
X131163220Y-54226961D02*
X131210839Y-54131723D01*
X131210839Y-54131723D02*
X131258458Y-53941247D01*
X131258458Y-53941247D02*
X131258458Y-53798390D01*
X131258458Y-53798390D02*
X131210839Y-53607914D01*
X131210839Y-53607914D02*
X131163220Y-53512676D01*
X131163220Y-53512676D02*
X131067982Y-53417438D01*
X131067982Y-53417438D02*
X130925125Y-53369819D01*
X130925125Y-53369819D02*
X130829887Y-53369819D01*
X130829887Y-53369819D02*
X130687030Y-53417438D01*
X130687030Y-53417438D02*
X130639411Y-53465057D01*
X130210839Y-54369819D02*
X130210839Y-53369819D01*
X129639411Y-54369819D02*
X130067982Y-53798390D01*
X129639411Y-53369819D02*
X130210839Y-53941247D01*
X165008458Y-40619819D02*
X164389411Y-40619819D01*
X164389411Y-40619819D02*
X164722744Y-41000771D01*
X164722744Y-41000771D02*
X164579887Y-41000771D01*
X164579887Y-41000771D02*
X164484649Y-41048390D01*
X164484649Y-41048390D02*
X164437030Y-41096009D01*
X164437030Y-41096009D02*
X164389411Y-41191247D01*
X164389411Y-41191247D02*
X164389411Y-41429342D01*
X164389411Y-41429342D02*
X164437030Y-41524580D01*
X164437030Y-41524580D02*
X164484649Y-41572200D01*
X164484649Y-41572200D02*
X164579887Y-41619819D01*
X164579887Y-41619819D02*
X164865601Y-41619819D01*
X164865601Y-41619819D02*
X164960839Y-41572200D01*
X164960839Y-41572200D02*
X165008458Y-41524580D01*
X164008458Y-40715057D02*
X163960839Y-40667438D01*
X163960839Y-40667438D02*
X163865601Y-40619819D01*
X163865601Y-40619819D02*
X163627506Y-40619819D01*
X163627506Y-40619819D02*
X163532268Y-40667438D01*
X163532268Y-40667438D02*
X163484649Y-40715057D01*
X163484649Y-40715057D02*
X163437030Y-40810295D01*
X163437030Y-40810295D02*
X163437030Y-40905533D01*
X163437030Y-40905533D02*
X163484649Y-41048390D01*
X163484649Y-41048390D02*
X164056077Y-41619819D01*
X164056077Y-41619819D02*
X163437030Y-41619819D01*
X141913220Y-51869819D02*
X141913220Y-50869819D01*
X141913220Y-50869819D02*
X141675125Y-50869819D01*
X141675125Y-50869819D02*
X141532268Y-50917438D01*
X141532268Y-50917438D02*
X141437030Y-51012676D01*
X141437030Y-51012676D02*
X141389411Y-51107914D01*
X141389411Y-51107914D02*
X141341792Y-51298390D01*
X141341792Y-51298390D02*
X141341792Y-51441247D01*
X141341792Y-51441247D02*
X141389411Y-51631723D01*
X141389411Y-51631723D02*
X141437030Y-51726961D01*
X141437030Y-51726961D02*
X141532268Y-51822200D01*
X141532268Y-51822200D02*
X141675125Y-51869819D01*
X141675125Y-51869819D02*
X141913220Y-51869819D01*
X140484649Y-51203152D02*
X140484649Y-51869819D01*
X140722744Y-50822200D02*
X140960839Y-51536485D01*
X140960839Y-51536485D02*
X140341792Y-51536485D01*
X138960839Y-76465057D02*
X138913220Y-76417438D01*
X138913220Y-76417438D02*
X138817982Y-76369819D01*
X138817982Y-76369819D02*
X138579887Y-76369819D01*
X138579887Y-76369819D02*
X138484649Y-76417438D01*
X138484649Y-76417438D02*
X138437030Y-76465057D01*
X138437030Y-76465057D02*
X138389411Y-76560295D01*
X138389411Y-76560295D02*
X138389411Y-76655533D01*
X138389411Y-76655533D02*
X138437030Y-76798390D01*
X138437030Y-76798390D02*
X139008458Y-77369819D01*
X139008458Y-77369819D02*
X138389411Y-77369819D01*
X137532268Y-76369819D02*
X137722744Y-76369819D01*
X137722744Y-76369819D02*
X137817982Y-76417438D01*
X137817982Y-76417438D02*
X137865601Y-76465057D01*
X137865601Y-76465057D02*
X137960839Y-76607914D01*
X137960839Y-76607914D02*
X138008458Y-76798390D01*
X138008458Y-76798390D02*
X138008458Y-77179342D01*
X138008458Y-77179342D02*
X137960839Y-77274580D01*
X137960839Y-77274580D02*
X137913220Y-77322200D01*
X137913220Y-77322200D02*
X137817982Y-77369819D01*
X137817982Y-77369819D02*
X137627506Y-77369819D01*
X137627506Y-77369819D02*
X137532268Y-77322200D01*
X137532268Y-77322200D02*
X137484649Y-77274580D01*
X137484649Y-77274580D02*
X137437030Y-77179342D01*
X137437030Y-77179342D02*
X137437030Y-76941247D01*
X137437030Y-76941247D02*
X137484649Y-76846009D01*
X137484649Y-76846009D02*
X137532268Y-76798390D01*
X137532268Y-76798390D02*
X137627506Y-76750771D01*
X137627506Y-76750771D02*
X137817982Y-76750771D01*
X137817982Y-76750771D02*
X137913220Y-76798390D01*
X137913220Y-76798390D02*
X137960839Y-76846009D01*
X137960839Y-76846009D02*
X138008458Y-76941247D01*
X146556077Y-123619819D02*
X146222744Y-124619819D01*
X146222744Y-124619819D02*
X145889411Y-123619819D01*
X145556077Y-124238866D02*
X144794173Y-124238866D01*
X158056077Y-76369819D02*
X157722744Y-77369819D01*
X157722744Y-77369819D02*
X157389411Y-76369819D01*
X157056077Y-76988866D02*
X156294173Y-76988866D01*
X157591792Y-72119819D02*
X157925125Y-71643628D01*
X158163220Y-72119819D02*
X158163220Y-71119819D01*
X158163220Y-71119819D02*
X157782268Y-71119819D01*
X157782268Y-71119819D02*
X157687030Y-71167438D01*
X157687030Y-71167438D02*
X157639411Y-71215057D01*
X157639411Y-71215057D02*
X157591792Y-71310295D01*
X157591792Y-71310295D02*
X157591792Y-71453152D01*
X157591792Y-71453152D02*
X157639411Y-71548390D01*
X157639411Y-71548390D02*
X157687030Y-71596009D01*
X157687030Y-71596009D02*
X157782268Y-71643628D01*
X157782268Y-71643628D02*
X158163220Y-71643628D01*
X157258458Y-71119819D02*
X156591792Y-72119819D01*
X156591792Y-71119819D02*
X157258458Y-72119819D01*
X156258458Y-71215057D02*
X156210839Y-71167438D01*
X156210839Y-71167438D02*
X156115601Y-71119819D01*
X156115601Y-71119819D02*
X155877506Y-71119819D01*
X155877506Y-71119819D02*
X155782268Y-71167438D01*
X155782268Y-71167438D02*
X155734649Y-71215057D01*
X155734649Y-71215057D02*
X155687030Y-71310295D01*
X155687030Y-71310295D02*
X155687030Y-71405533D01*
X155687030Y-71405533D02*
X155734649Y-71548390D01*
X155734649Y-71548390D02*
X156306077Y-72119819D01*
X156306077Y-72119819D02*
X155687030Y-72119819D01*
X164806077Y-45869819D02*
X164472744Y-46869819D01*
X164472744Y-46869819D02*
X164139411Y-45869819D01*
X163806077Y-46488866D02*
X163044173Y-46488866D01*
X163425125Y-46869819D02*
X163425125Y-46107914D01*
X128806077Y-68869819D02*
X128472744Y-69869819D01*
X128472744Y-69869819D02*
X128139411Y-68869819D01*
X127806077Y-69488866D02*
X127044173Y-69488866D01*
X132056077Y-116869819D02*
X131722744Y-117869819D01*
X131722744Y-117869819D02*
X131389411Y-116869819D01*
X131056077Y-117488866D02*
X130294173Y-117488866D01*
X130675125Y-117869819D02*
X130675125Y-117107914D01*
X138960839Y-78965057D02*
X138913220Y-78917438D01*
X138913220Y-78917438D02*
X138817982Y-78869819D01*
X138817982Y-78869819D02*
X138579887Y-78869819D01*
X138579887Y-78869819D02*
X138484649Y-78917438D01*
X138484649Y-78917438D02*
X138437030Y-78965057D01*
X138437030Y-78965057D02*
X138389411Y-79060295D01*
X138389411Y-79060295D02*
X138389411Y-79155533D01*
X138389411Y-79155533D02*
X138437030Y-79298390D01*
X138437030Y-79298390D02*
X139008458Y-79869819D01*
X139008458Y-79869819D02*
X138389411Y-79869819D01*
X138056077Y-78869819D02*
X137389411Y-78869819D01*
X137389411Y-78869819D02*
X137817982Y-79869819D01*
X153306077Y-114619819D02*
X152972744Y-115619819D01*
X152972744Y-115619819D02*
X152639411Y-114619819D01*
X152306077Y-115238866D02*
X151544173Y-115238866D01*
X151925125Y-115619819D02*
X151925125Y-114857914D01*
X157972744Y-114369819D02*
X157877506Y-114369819D01*
X157877506Y-114369819D02*
X157782268Y-114417438D01*
X157782268Y-114417438D02*
X157734649Y-114465057D01*
X157734649Y-114465057D02*
X157687030Y-114560295D01*
X157687030Y-114560295D02*
X157639411Y-114750771D01*
X157639411Y-114750771D02*
X157639411Y-114988866D01*
X157639411Y-114988866D02*
X157687030Y-115179342D01*
X157687030Y-115179342D02*
X157734649Y-115274580D01*
X157734649Y-115274580D02*
X157782268Y-115322200D01*
X157782268Y-115322200D02*
X157877506Y-115369819D01*
X157877506Y-115369819D02*
X157972744Y-115369819D01*
X157972744Y-115369819D02*
X158067982Y-115322200D01*
X158067982Y-115322200D02*
X158115601Y-115274580D01*
X158115601Y-115274580D02*
X158163220Y-115179342D01*
X158163220Y-115179342D02*
X158210839Y-114988866D01*
X158210839Y-114988866D02*
X158210839Y-114750771D01*
X158210839Y-114750771D02*
X158163220Y-114560295D01*
X158163220Y-114560295D02*
X158115601Y-114465057D01*
X158115601Y-114465057D02*
X158067982Y-114417438D01*
X158067982Y-114417438D02*
X157972744Y-114369819D01*
X148056077Y-110369819D02*
X147722744Y-111369819D01*
X147722744Y-111369819D02*
X147389411Y-110369819D01*
X147056077Y-110988866D02*
X146294173Y-110988866D01*
X164806077Y-43369819D02*
X164472744Y-44369819D01*
X164472744Y-44369819D02*
X164139411Y-43369819D01*
X163806077Y-43988866D02*
X163044173Y-43988866D01*
X152556077Y-47369819D02*
X152222744Y-48369819D01*
X152222744Y-48369819D02*
X151889411Y-47369819D01*
X151556077Y-47988866D02*
X150794173Y-47988866D01*
X131687030Y-88869819D02*
X132163220Y-88869819D01*
X132163220Y-88869819D02*
X132210839Y-89346009D01*
X132210839Y-89346009D02*
X132163220Y-89298390D01*
X132163220Y-89298390D02*
X132067982Y-89250771D01*
X132067982Y-89250771D02*
X131829887Y-89250771D01*
X131829887Y-89250771D02*
X131734649Y-89298390D01*
X131734649Y-89298390D02*
X131687030Y-89346009D01*
X131687030Y-89346009D02*
X131639411Y-89441247D01*
X131639411Y-89441247D02*
X131639411Y-89679342D01*
X131639411Y-89679342D02*
X131687030Y-89774580D01*
X131687030Y-89774580D02*
X131734649Y-89822200D01*
X131734649Y-89822200D02*
X131829887Y-89869819D01*
X131829887Y-89869819D02*
X132067982Y-89869819D01*
X132067982Y-89869819D02*
X132163220Y-89822200D01*
X132163220Y-89822200D02*
X132210839Y-89774580D01*
X142901316Y-69715057D02*
X142139411Y-69715057D01*
X141377506Y-69619819D02*
X141948934Y-69619819D01*
X141663220Y-69619819D02*
X141663220Y-68619819D01*
X141663220Y-68619819D02*
X141758458Y-68762676D01*
X141758458Y-68762676D02*
X141853696Y-68857914D01*
X141853696Y-68857914D02*
X141948934Y-68905533D01*
X140520363Y-68953152D02*
X140520363Y-69619819D01*
X140758458Y-68572200D02*
X140996553Y-69286485D01*
X140996553Y-69286485D02*
X140377506Y-69286485D01*
X164806077Y-111619819D02*
X164472744Y-112619819D01*
X164472744Y-112619819D02*
X164139411Y-111619819D01*
X163806077Y-112238866D02*
X163044173Y-112238866D01*
X163425125Y-112619819D02*
X163425125Y-111857914D01*
X138389411Y-82369819D02*
X138960839Y-82369819D01*
X138675125Y-82369819D02*
X138675125Y-81369819D01*
X138675125Y-81369819D02*
X138770363Y-81512676D01*
X138770363Y-81512676D02*
X138865601Y-81607914D01*
X138865601Y-81607914D02*
X138960839Y-81655533D01*
X137532268Y-81703152D02*
X137532268Y-82369819D01*
X137770363Y-81322200D02*
X138008458Y-82036485D01*
X138008458Y-82036485D02*
X137389411Y-82036485D01*
X129056077Y-57619819D02*
X128722744Y-58619819D01*
X128722744Y-58619819D02*
X128389411Y-57619819D01*
X128056077Y-58238866D02*
X127294173Y-58238866D01*
X154151316Y-125215057D02*
X153389411Y-125215057D01*
X152627506Y-125119819D02*
X153198934Y-125119819D01*
X152913220Y-125119819D02*
X152913220Y-124119819D01*
X152913220Y-124119819D02*
X153008458Y-124262676D01*
X153008458Y-124262676D02*
X153103696Y-124357914D01*
X153103696Y-124357914D02*
X153198934Y-124405533D01*
X152246553Y-124215057D02*
X152198934Y-124167438D01*
X152198934Y-124167438D02*
X152103696Y-124119819D01*
X152103696Y-124119819D02*
X151865601Y-124119819D01*
X151865601Y-124119819D02*
X151770363Y-124167438D01*
X151770363Y-124167438D02*
X151722744Y-124215057D01*
X151722744Y-124215057D02*
X151675125Y-124310295D01*
X151675125Y-124310295D02*
X151675125Y-124405533D01*
X151675125Y-124405533D02*
X151722744Y-124548390D01*
X151722744Y-124548390D02*
X152294172Y-125119819D01*
X152294172Y-125119819D02*
X151675125Y-125119819D01*
X164806077Y-56119819D02*
X164472744Y-57119819D01*
X164472744Y-57119819D02*
X164139411Y-56119819D01*
X163806077Y-56738866D02*
X163044173Y-56738866D01*
X163425125Y-57119819D02*
X163425125Y-56357914D01*
X164806077Y-81369819D02*
X164472744Y-82369819D01*
X164472744Y-82369819D02*
X164139411Y-81369819D01*
X163806077Y-81988866D02*
X163044173Y-81988866D01*
X163425125Y-82369819D02*
X163425125Y-81607914D01*
X157639411Y-123119819D02*
X158210839Y-123119819D01*
X157925125Y-123119819D02*
X157925125Y-122119819D01*
X157925125Y-122119819D02*
X158020363Y-122262676D01*
X158020363Y-122262676D02*
X158115601Y-122357914D01*
X158115601Y-122357914D02*
X158210839Y-122405533D01*
X157306077Y-122119819D02*
X156687030Y-122119819D01*
X156687030Y-122119819D02*
X157020363Y-122500771D01*
X157020363Y-122500771D02*
X156877506Y-122500771D01*
X156877506Y-122500771D02*
X156782268Y-122548390D01*
X156782268Y-122548390D02*
X156734649Y-122596009D01*
X156734649Y-122596009D02*
X156687030Y-122691247D01*
X156687030Y-122691247D02*
X156687030Y-122929342D01*
X156687030Y-122929342D02*
X156734649Y-123024580D01*
X156734649Y-123024580D02*
X156782268Y-123072200D01*
X156782268Y-123072200D02*
X156877506Y-123119819D01*
X156877506Y-123119819D02*
X157163220Y-123119819D01*
X157163220Y-123119819D02*
X157258458Y-123072200D01*
X157258458Y-123072200D02*
X157306077Y-123024580D01*
X165008458Y-68369819D02*
X164389411Y-68369819D01*
X164389411Y-68369819D02*
X164722744Y-68750771D01*
X164722744Y-68750771D02*
X164579887Y-68750771D01*
X164579887Y-68750771D02*
X164484649Y-68798390D01*
X164484649Y-68798390D02*
X164437030Y-68846009D01*
X164437030Y-68846009D02*
X164389411Y-68941247D01*
X164389411Y-68941247D02*
X164389411Y-69179342D01*
X164389411Y-69179342D02*
X164437030Y-69274580D01*
X164437030Y-69274580D02*
X164484649Y-69322200D01*
X164484649Y-69322200D02*
X164579887Y-69369819D01*
X164579887Y-69369819D02*
X164865601Y-69369819D01*
X164865601Y-69369819D02*
X164960839Y-69322200D01*
X164960839Y-69322200D02*
X165008458Y-69274580D01*
X164008458Y-68465057D02*
X163960839Y-68417438D01*
X163960839Y-68417438D02*
X163865601Y-68369819D01*
X163865601Y-68369819D02*
X163627506Y-68369819D01*
X163627506Y-68369819D02*
X163532268Y-68417438D01*
X163532268Y-68417438D02*
X163484649Y-68465057D01*
X163484649Y-68465057D02*
X163437030Y-68560295D01*
X163437030Y-68560295D02*
X163437030Y-68655533D01*
X163437030Y-68655533D02*
X163484649Y-68798390D01*
X163484649Y-68798390D02*
X164056077Y-69369819D01*
X164056077Y-69369819D02*
X163437030Y-69369819D01*
X139056077Y-88869819D02*
X138722744Y-89869819D01*
X138722744Y-89869819D02*
X138389411Y-88869819D01*
X138056077Y-89488866D02*
X137294173Y-89488866D01*
X137675125Y-89869819D02*
X137675125Y-89107914D01*
X139008458Y-91619819D02*
X138389411Y-91619819D01*
X138389411Y-91619819D02*
X138722744Y-92000771D01*
X138722744Y-92000771D02*
X138579887Y-92000771D01*
X138579887Y-92000771D02*
X138484649Y-92048390D01*
X138484649Y-92048390D02*
X138437030Y-92096009D01*
X138437030Y-92096009D02*
X138389411Y-92191247D01*
X138389411Y-92191247D02*
X138389411Y-92429342D01*
X138389411Y-92429342D02*
X138437030Y-92524580D01*
X138437030Y-92524580D02*
X138484649Y-92572200D01*
X138484649Y-92572200D02*
X138579887Y-92619819D01*
X138579887Y-92619819D02*
X138865601Y-92619819D01*
X138865601Y-92619819D02*
X138960839Y-92572200D01*
X138960839Y-92572200D02*
X139008458Y-92524580D01*
X137532268Y-91619819D02*
X137722744Y-91619819D01*
X137722744Y-91619819D02*
X137817982Y-91667438D01*
X137817982Y-91667438D02*
X137865601Y-91715057D01*
X137865601Y-91715057D02*
X137960839Y-91857914D01*
X137960839Y-91857914D02*
X138008458Y-92048390D01*
X138008458Y-92048390D02*
X138008458Y-92429342D01*
X138008458Y-92429342D02*
X137960839Y-92524580D01*
X137960839Y-92524580D02*
X137913220Y-92572200D01*
X137913220Y-92572200D02*
X137817982Y-92619819D01*
X137817982Y-92619819D02*
X137627506Y-92619819D01*
X137627506Y-92619819D02*
X137532268Y-92572200D01*
X137532268Y-92572200D02*
X137484649Y-92524580D01*
X137484649Y-92524580D02*
X137437030Y-92429342D01*
X137437030Y-92429342D02*
X137437030Y-92191247D01*
X137437030Y-92191247D02*
X137484649Y-92096009D01*
X137484649Y-92096009D02*
X137532268Y-92048390D01*
X137532268Y-92048390D02*
X137627506Y-92000771D01*
X137627506Y-92000771D02*
X137817982Y-92000771D01*
X137817982Y-92000771D02*
X137913220Y-92048390D01*
X137913220Y-92048390D02*
X137960839Y-92096009D01*
X137960839Y-92096009D02*
X138008458Y-92191247D01*
X137972744Y-50869819D02*
X137877506Y-50869819D01*
X137877506Y-50869819D02*
X137782268Y-50917438D01*
X137782268Y-50917438D02*
X137734649Y-50965057D01*
X137734649Y-50965057D02*
X137687030Y-51060295D01*
X137687030Y-51060295D02*
X137639411Y-51250771D01*
X137639411Y-51250771D02*
X137639411Y-51488866D01*
X137639411Y-51488866D02*
X137687030Y-51679342D01*
X137687030Y-51679342D02*
X137734649Y-51774580D01*
X137734649Y-51774580D02*
X137782268Y-51822200D01*
X137782268Y-51822200D02*
X137877506Y-51869819D01*
X137877506Y-51869819D02*
X137972744Y-51869819D01*
X137972744Y-51869819D02*
X138067982Y-51822200D01*
X138067982Y-51822200D02*
X138115601Y-51774580D01*
X138115601Y-51774580D02*
X138163220Y-51679342D01*
X138163220Y-51679342D02*
X138210839Y-51488866D01*
X138210839Y-51488866D02*
X138210839Y-51250771D01*
X138210839Y-51250771D02*
X138163220Y-51060295D01*
X138163220Y-51060295D02*
X138115601Y-50965057D01*
X138115601Y-50965057D02*
X138067982Y-50917438D01*
X138067982Y-50917438D02*
X137972744Y-50869819D01*
X132056077Y-127119819D02*
X131722744Y-128119819D01*
X131722744Y-128119819D02*
X131389411Y-127119819D01*
X131056077Y-127738866D02*
X130294173Y-127738866D01*
X158163220Y-62119819D02*
X158163220Y-61119819D01*
X158163220Y-61119819D02*
X157829887Y-61834104D01*
X157829887Y-61834104D02*
X157496554Y-61119819D01*
X157496554Y-61119819D02*
X157496554Y-62119819D01*
X156829887Y-61119819D02*
X156639411Y-61119819D01*
X156639411Y-61119819D02*
X156544173Y-61167438D01*
X156544173Y-61167438D02*
X156448935Y-61262676D01*
X156448935Y-61262676D02*
X156401316Y-61453152D01*
X156401316Y-61453152D02*
X156401316Y-61786485D01*
X156401316Y-61786485D02*
X156448935Y-61976961D01*
X156448935Y-61976961D02*
X156544173Y-62072200D01*
X156544173Y-62072200D02*
X156639411Y-62119819D01*
X156639411Y-62119819D02*
X156829887Y-62119819D01*
X156829887Y-62119819D02*
X156925125Y-62072200D01*
X156925125Y-62072200D02*
X157020363Y-61976961D01*
X157020363Y-61976961D02*
X157067982Y-61786485D01*
X157067982Y-61786485D02*
X157067982Y-61453152D01*
X157067982Y-61453152D02*
X157020363Y-61262676D01*
X157020363Y-61262676D02*
X156925125Y-61167438D01*
X156925125Y-61167438D02*
X156829887Y-61119819D01*
X156020363Y-62072200D02*
X155877506Y-62119819D01*
X155877506Y-62119819D02*
X155639411Y-62119819D01*
X155639411Y-62119819D02*
X155544173Y-62072200D01*
X155544173Y-62072200D02*
X155496554Y-62024580D01*
X155496554Y-62024580D02*
X155448935Y-61929342D01*
X155448935Y-61929342D02*
X155448935Y-61834104D01*
X155448935Y-61834104D02*
X155496554Y-61738866D01*
X155496554Y-61738866D02*
X155544173Y-61691247D01*
X155544173Y-61691247D02*
X155639411Y-61643628D01*
X155639411Y-61643628D02*
X155829887Y-61596009D01*
X155829887Y-61596009D02*
X155925125Y-61548390D01*
X155925125Y-61548390D02*
X155972744Y-61500771D01*
X155972744Y-61500771D02*
X156020363Y-61405533D01*
X156020363Y-61405533D02*
X156020363Y-61310295D01*
X156020363Y-61310295D02*
X155972744Y-61215057D01*
X155972744Y-61215057D02*
X155925125Y-61167438D01*
X155925125Y-61167438D02*
X155829887Y-61119819D01*
X155829887Y-61119819D02*
X155591792Y-61119819D01*
X155591792Y-61119819D02*
X155448935Y-61167438D01*
X155020363Y-62119819D02*
X155020363Y-61119819D01*
X157591792Y-110369819D02*
X157925125Y-109893628D01*
X158163220Y-110369819D02*
X158163220Y-109369819D01*
X158163220Y-109369819D02*
X157782268Y-109369819D01*
X157782268Y-109369819D02*
X157687030Y-109417438D01*
X157687030Y-109417438D02*
X157639411Y-109465057D01*
X157639411Y-109465057D02*
X157591792Y-109560295D01*
X157591792Y-109560295D02*
X157591792Y-109703152D01*
X157591792Y-109703152D02*
X157639411Y-109798390D01*
X157639411Y-109798390D02*
X157687030Y-109846009D01*
X157687030Y-109846009D02*
X157782268Y-109893628D01*
X157782268Y-109893628D02*
X158163220Y-109893628D01*
X157258458Y-109369819D02*
X156591792Y-110369819D01*
X156591792Y-109369819D02*
X157258458Y-110369819D01*
X156258458Y-109465057D02*
X156210839Y-109417438D01*
X156210839Y-109417438D02*
X156115601Y-109369819D01*
X156115601Y-109369819D02*
X155877506Y-109369819D01*
X155877506Y-109369819D02*
X155782268Y-109417438D01*
X155782268Y-109417438D02*
X155734649Y-109465057D01*
X155734649Y-109465057D02*
X155687030Y-109560295D01*
X155687030Y-109560295D02*
X155687030Y-109655533D01*
X155687030Y-109655533D02*
X155734649Y-109798390D01*
X155734649Y-109798390D02*
X156306077Y-110369819D01*
X156306077Y-110369819D02*
X155687030Y-110369819D01*
X138913220Y-97096009D02*
X138579887Y-97096009D01*
X138437030Y-97619819D02*
X138913220Y-97619819D01*
X138913220Y-97619819D02*
X138913220Y-96619819D01*
X138913220Y-96619819D02*
X138437030Y-96619819D01*
X138008458Y-97619819D02*
X138008458Y-96619819D01*
X138008458Y-96619819D02*
X137437030Y-97619819D01*
X137437030Y-97619819D02*
X137437030Y-96619819D01*
X138556077Y-61369819D02*
X138222744Y-62369819D01*
X138222744Y-62369819D02*
X137889411Y-61369819D01*
X137556077Y-61988866D02*
X136794173Y-61988866D01*
X138389411Y-120369819D02*
X138960839Y-120369819D01*
X138675125Y-120369819D02*
X138675125Y-119369819D01*
X138675125Y-119369819D02*
X138770363Y-119512676D01*
X138770363Y-119512676D02*
X138865601Y-119607914D01*
X138865601Y-119607914D02*
X138960839Y-119655533D01*
X138008458Y-119465057D02*
X137960839Y-119417438D01*
X137960839Y-119417438D02*
X137865601Y-119369819D01*
X137865601Y-119369819D02*
X137627506Y-119369819D01*
X137627506Y-119369819D02*
X137532268Y-119417438D01*
X137532268Y-119417438D02*
X137484649Y-119465057D01*
X137484649Y-119465057D02*
X137437030Y-119560295D01*
X137437030Y-119560295D02*
X137437030Y-119655533D01*
X137437030Y-119655533D02*
X137484649Y-119798390D01*
X137484649Y-119798390D02*
X138056077Y-120369819D01*
X138056077Y-120369819D02*
X137437030Y-120369819D01*
X142306077Y-38119819D02*
X141972744Y-39119819D01*
X141972744Y-39119819D02*
X141639411Y-38119819D01*
X141306077Y-38738866D02*
X140544173Y-38738866D01*
X140925125Y-39119819D02*
X140925125Y-38357914D01*
X157639411Y-128119819D02*
X158210839Y-128119819D01*
X157925125Y-128119819D02*
X157925125Y-127119819D01*
X157925125Y-127119819D02*
X158020363Y-127262676D01*
X158020363Y-127262676D02*
X158115601Y-127357914D01*
X158115601Y-127357914D02*
X158210839Y-127405533D01*
X157306077Y-127119819D02*
X156687030Y-127119819D01*
X156687030Y-127119819D02*
X157020363Y-127500771D01*
X157020363Y-127500771D02*
X156877506Y-127500771D01*
X156877506Y-127500771D02*
X156782268Y-127548390D01*
X156782268Y-127548390D02*
X156734649Y-127596009D01*
X156734649Y-127596009D02*
X156687030Y-127691247D01*
X156687030Y-127691247D02*
X156687030Y-127929342D01*
X156687030Y-127929342D02*
X156734649Y-128024580D01*
X156734649Y-128024580D02*
X156782268Y-128072200D01*
X156782268Y-128072200D02*
X156877506Y-128119819D01*
X156877506Y-128119819D02*
X157163220Y-128119819D01*
X157163220Y-128119819D02*
X157258458Y-128072200D01*
X157258458Y-128072200D02*
X157306077Y-128024580D01*
X131972744Y-109369819D02*
X131877506Y-109369819D01*
X131877506Y-109369819D02*
X131782268Y-109417438D01*
X131782268Y-109417438D02*
X131734649Y-109465057D01*
X131734649Y-109465057D02*
X131687030Y-109560295D01*
X131687030Y-109560295D02*
X131639411Y-109750771D01*
X131639411Y-109750771D02*
X131639411Y-109988866D01*
X131639411Y-109988866D02*
X131687030Y-110179342D01*
X131687030Y-110179342D02*
X131734649Y-110274580D01*
X131734649Y-110274580D02*
X131782268Y-110322200D01*
X131782268Y-110322200D02*
X131877506Y-110369819D01*
X131877506Y-110369819D02*
X131972744Y-110369819D01*
X131972744Y-110369819D02*
X132067982Y-110322200D01*
X132067982Y-110322200D02*
X132115601Y-110274580D01*
X132115601Y-110274580D02*
X132163220Y-110179342D01*
X132163220Y-110179342D02*
X132210839Y-109988866D01*
X132210839Y-109988866D02*
X132210839Y-109750771D01*
X132210839Y-109750771D02*
X132163220Y-109560295D01*
X132163220Y-109560295D02*
X132115601Y-109465057D01*
X132115601Y-109465057D02*
X132067982Y-109417438D01*
X132067982Y-109417438D02*
X131972744Y-109369819D01*
X165008458Y-96619819D02*
X164389411Y-96619819D01*
X164389411Y-96619819D02*
X164722744Y-97000771D01*
X164722744Y-97000771D02*
X164579887Y-97000771D01*
X164579887Y-97000771D02*
X164484649Y-97048390D01*
X164484649Y-97048390D02*
X164437030Y-97096009D01*
X164437030Y-97096009D02*
X164389411Y-97191247D01*
X164389411Y-97191247D02*
X164389411Y-97429342D01*
X164389411Y-97429342D02*
X164437030Y-97524580D01*
X164437030Y-97524580D02*
X164484649Y-97572200D01*
X164484649Y-97572200D02*
X164579887Y-97619819D01*
X164579887Y-97619819D02*
X164865601Y-97619819D01*
X164865601Y-97619819D02*
X164960839Y-97572200D01*
X164960839Y-97572200D02*
X165008458Y-97524580D01*
X164056077Y-96619819D02*
X163437030Y-96619819D01*
X163437030Y-96619819D02*
X163770363Y-97000771D01*
X163770363Y-97000771D02*
X163627506Y-97000771D01*
X163627506Y-97000771D02*
X163532268Y-97048390D01*
X163532268Y-97048390D02*
X163484649Y-97096009D01*
X163484649Y-97096009D02*
X163437030Y-97191247D01*
X163437030Y-97191247D02*
X163437030Y-97429342D01*
X163437030Y-97429342D02*
X163484649Y-97524580D01*
X163484649Y-97524580D02*
X163532268Y-97572200D01*
X163532268Y-97572200D02*
X163627506Y-97619819D01*
X163627506Y-97619819D02*
X163913220Y-97619819D01*
X163913220Y-97619819D02*
X164008458Y-97572200D01*
X164008458Y-97572200D02*
X164056077Y-97524580D01*
X132306077Y-38119819D02*
X131972744Y-39119819D01*
X131972744Y-39119819D02*
X131639411Y-38119819D01*
X131306077Y-38738866D02*
X130544173Y-38738866D01*
X130925125Y-39119819D02*
X130925125Y-38357914D01*
X154151316Y-123215057D02*
X153389411Y-123215057D01*
X152627506Y-123119819D02*
X153198934Y-123119819D01*
X152913220Y-123119819D02*
X152913220Y-122119819D01*
X152913220Y-122119819D02*
X153008458Y-122262676D01*
X153008458Y-122262676D02*
X153103696Y-122357914D01*
X153103696Y-122357914D02*
X153198934Y-122405533D01*
X152294172Y-122119819D02*
X151675125Y-122119819D01*
X151675125Y-122119819D02*
X152008458Y-122500771D01*
X152008458Y-122500771D02*
X151865601Y-122500771D01*
X151865601Y-122500771D02*
X151770363Y-122548390D01*
X151770363Y-122548390D02*
X151722744Y-122596009D01*
X151722744Y-122596009D02*
X151675125Y-122691247D01*
X151675125Y-122691247D02*
X151675125Y-122929342D01*
X151675125Y-122929342D02*
X151722744Y-123024580D01*
X151722744Y-123024580D02*
X151770363Y-123072200D01*
X151770363Y-123072200D02*
X151865601Y-123119819D01*
X151865601Y-123119819D02*
X152151315Y-123119819D01*
X152151315Y-123119819D02*
X152246553Y-123072200D01*
X152246553Y-123072200D02*
X152294172Y-123024580D01*
X158163220Y-97619819D02*
X158163220Y-96619819D01*
X158163220Y-96619819D02*
X157829887Y-97334104D01*
X157829887Y-97334104D02*
X157496554Y-96619819D01*
X157496554Y-96619819D02*
X157496554Y-97619819D01*
X157020363Y-97619819D02*
X157020363Y-96619819D01*
X156591792Y-97572200D02*
X156448935Y-97619819D01*
X156448935Y-97619819D02*
X156210840Y-97619819D01*
X156210840Y-97619819D02*
X156115602Y-97572200D01*
X156115602Y-97572200D02*
X156067983Y-97524580D01*
X156067983Y-97524580D02*
X156020364Y-97429342D01*
X156020364Y-97429342D02*
X156020364Y-97334104D01*
X156020364Y-97334104D02*
X156067983Y-97238866D01*
X156067983Y-97238866D02*
X156115602Y-97191247D01*
X156115602Y-97191247D02*
X156210840Y-97143628D01*
X156210840Y-97143628D02*
X156401316Y-97096009D01*
X156401316Y-97096009D02*
X156496554Y-97048390D01*
X156496554Y-97048390D02*
X156544173Y-97000771D01*
X156544173Y-97000771D02*
X156591792Y-96905533D01*
X156591792Y-96905533D02*
X156591792Y-96810295D01*
X156591792Y-96810295D02*
X156544173Y-96715057D01*
X156544173Y-96715057D02*
X156496554Y-96667438D01*
X156496554Y-96667438D02*
X156401316Y-96619819D01*
X156401316Y-96619819D02*
X156163221Y-96619819D01*
X156163221Y-96619819D02*
X156020364Y-96667438D01*
X155401316Y-96619819D02*
X155210840Y-96619819D01*
X155210840Y-96619819D02*
X155115602Y-96667438D01*
X155115602Y-96667438D02*
X155020364Y-96762676D01*
X155020364Y-96762676D02*
X154972745Y-96953152D01*
X154972745Y-96953152D02*
X154972745Y-97286485D01*
X154972745Y-97286485D02*
X155020364Y-97476961D01*
X155020364Y-97476961D02*
X155115602Y-97572200D01*
X155115602Y-97572200D02*
X155210840Y-97619819D01*
X155210840Y-97619819D02*
X155401316Y-97619819D01*
X155401316Y-97619819D02*
X155496554Y-97572200D01*
X155496554Y-97572200D02*
X155591792Y-97476961D01*
X155591792Y-97476961D02*
X155639411Y-97286485D01*
X155639411Y-97286485D02*
X155639411Y-96953152D01*
X155639411Y-96953152D02*
X155591792Y-96762676D01*
X155591792Y-96762676D02*
X155496554Y-96667438D01*
X155496554Y-96667438D02*
X155401316Y-96619819D01*
X153663220Y-130596009D02*
X153329887Y-130596009D01*
X153187030Y-131119819D02*
X153663220Y-131119819D01*
X153663220Y-131119819D02*
X153663220Y-130119819D01*
X153663220Y-130119819D02*
X153187030Y-130119819D01*
X152758458Y-131119819D02*
X152758458Y-130119819D01*
X152758458Y-130119819D02*
X152187030Y-131119819D01*
X152187030Y-131119819D02*
X152187030Y-130119819D01*
X143163220Y-135119819D02*
X143163220Y-134119819D01*
X143163220Y-134119819D02*
X142925125Y-134119819D01*
X142925125Y-134119819D02*
X142782268Y-134167438D01*
X142782268Y-134167438D02*
X142687030Y-134262676D01*
X142687030Y-134262676D02*
X142639411Y-134357914D01*
X142639411Y-134357914D02*
X142591792Y-134548390D01*
X142591792Y-134548390D02*
X142591792Y-134691247D01*
X142591792Y-134691247D02*
X142639411Y-134881723D01*
X142639411Y-134881723D02*
X142687030Y-134976961D01*
X142687030Y-134976961D02*
X142782268Y-135072200D01*
X142782268Y-135072200D02*
X142925125Y-135119819D01*
X142925125Y-135119819D02*
X143163220Y-135119819D01*
X141639411Y-135119819D02*
X142210839Y-135119819D01*
X141925125Y-135119819D02*
X141925125Y-134119819D01*
X141925125Y-134119819D02*
X142020363Y-134262676D01*
X142020363Y-134262676D02*
X142115601Y-134357914D01*
X142115601Y-134357914D02*
X142210839Y-134405533D01*
X141913220Y-46869819D02*
X141913220Y-45869819D01*
X141913220Y-45869819D02*
X141675125Y-45869819D01*
X141675125Y-45869819D02*
X141532268Y-45917438D01*
X141532268Y-45917438D02*
X141437030Y-46012676D01*
X141437030Y-46012676D02*
X141389411Y-46107914D01*
X141389411Y-46107914D02*
X141341792Y-46298390D01*
X141341792Y-46298390D02*
X141341792Y-46441247D01*
X141341792Y-46441247D02*
X141389411Y-46631723D01*
X141389411Y-46631723D02*
X141437030Y-46726961D01*
X141437030Y-46726961D02*
X141532268Y-46822200D01*
X141532268Y-46822200D02*
X141675125Y-46869819D01*
X141675125Y-46869819D02*
X141913220Y-46869819D01*
X141008458Y-45869819D02*
X140389411Y-45869819D01*
X140389411Y-45869819D02*
X140722744Y-46250771D01*
X140722744Y-46250771D02*
X140579887Y-46250771D01*
X140579887Y-46250771D02*
X140484649Y-46298390D01*
X140484649Y-46298390D02*
X140437030Y-46346009D01*
X140437030Y-46346009D02*
X140389411Y-46441247D01*
X140389411Y-46441247D02*
X140389411Y-46679342D01*
X140389411Y-46679342D02*
X140437030Y-46774580D01*
X140437030Y-46774580D02*
X140484649Y-46822200D01*
X140484649Y-46822200D02*
X140579887Y-46869819D01*
X140579887Y-46869819D02*
X140865601Y-46869819D01*
X140865601Y-46869819D02*
X140960839Y-46822200D01*
X140960839Y-46822200D02*
X141008458Y-46774580D01*
X164806077Y-63619819D02*
X164472744Y-64619819D01*
X164472744Y-64619819D02*
X164139411Y-63619819D01*
X163806077Y-64238866D02*
X163044173Y-64238866D01*
X163425125Y-64619819D02*
X163425125Y-63857914D01*
X132056077Y-134869819D02*
X131722744Y-135869819D01*
X131722744Y-135869819D02*
X131389411Y-134869819D01*
X131056077Y-135488866D02*
X130294173Y-135488866D01*
X132056077Y-106869819D02*
X131722744Y-107869819D01*
X131722744Y-107869819D02*
X131389411Y-106869819D01*
X131056077Y-107488866D02*
X130294173Y-107488866D01*
X130675125Y-107869819D02*
X130675125Y-107107914D01*
X157734649Y-112203152D02*
X157734649Y-112869819D01*
X157972744Y-111822200D02*
X158210839Y-112536485D01*
X158210839Y-112536485D02*
X157591792Y-112536485D01*
X131734649Y-119703152D02*
X131734649Y-120369819D01*
X131972744Y-119322200D02*
X132210839Y-120036485D01*
X132210839Y-120036485D02*
X131591792Y-120036485D01*
X131972744Y-43369819D02*
X131877506Y-43369819D01*
X131877506Y-43369819D02*
X131782268Y-43417438D01*
X131782268Y-43417438D02*
X131734649Y-43465057D01*
X131734649Y-43465057D02*
X131687030Y-43560295D01*
X131687030Y-43560295D02*
X131639411Y-43750771D01*
X131639411Y-43750771D02*
X131639411Y-43988866D01*
X131639411Y-43988866D02*
X131687030Y-44179342D01*
X131687030Y-44179342D02*
X131734649Y-44274580D01*
X131734649Y-44274580D02*
X131782268Y-44322200D01*
X131782268Y-44322200D02*
X131877506Y-44369819D01*
X131877506Y-44369819D02*
X131972744Y-44369819D01*
X131972744Y-44369819D02*
X132067982Y-44322200D01*
X132067982Y-44322200D02*
X132115601Y-44274580D01*
X132115601Y-44274580D02*
X132163220Y-44179342D01*
X132163220Y-44179342D02*
X132210839Y-43988866D01*
X132210839Y-43988866D02*
X132210839Y-43750771D01*
X132210839Y-43750771D02*
X132163220Y-43560295D01*
X132163220Y-43560295D02*
X132115601Y-43465057D01*
X132115601Y-43465057D02*
X132067982Y-43417438D01*
X132067982Y-43417438D02*
X131972744Y-43369819D01*
X153663220Y-133119819D02*
X153663220Y-132119819D01*
X153663220Y-132119819D02*
X153425125Y-132119819D01*
X153425125Y-132119819D02*
X153282268Y-132167438D01*
X153282268Y-132167438D02*
X153187030Y-132262676D01*
X153187030Y-132262676D02*
X153139411Y-132357914D01*
X153139411Y-132357914D02*
X153091792Y-132548390D01*
X153091792Y-132548390D02*
X153091792Y-132691247D01*
X153091792Y-132691247D02*
X153139411Y-132881723D01*
X153139411Y-132881723D02*
X153187030Y-132976961D01*
X153187030Y-132976961D02*
X153282268Y-133072200D01*
X153282268Y-133072200D02*
X153425125Y-133119819D01*
X153425125Y-133119819D02*
X153663220Y-133119819D01*
X152710839Y-132834104D02*
X152234649Y-132834104D01*
X152806077Y-133119819D02*
X152472744Y-132119819D01*
X152472744Y-132119819D02*
X152139411Y-133119819D01*
X151234649Y-133024580D02*
X151282268Y-133072200D01*
X151282268Y-133072200D02*
X151425125Y-133119819D01*
X151425125Y-133119819D02*
X151520363Y-133119819D01*
X151520363Y-133119819D02*
X151663220Y-133072200D01*
X151663220Y-133072200D02*
X151758458Y-132976961D01*
X151758458Y-132976961D02*
X151806077Y-132881723D01*
X151806077Y-132881723D02*
X151853696Y-132691247D01*
X151853696Y-132691247D02*
X151853696Y-132548390D01*
X151853696Y-132548390D02*
X151806077Y-132357914D01*
X151806077Y-132357914D02*
X151758458Y-132262676D01*
X151758458Y-132262676D02*
X151663220Y-132167438D01*
X151663220Y-132167438D02*
X151520363Y-132119819D01*
X151520363Y-132119819D02*
X151425125Y-132119819D01*
X151425125Y-132119819D02*
X151282268Y-132167438D01*
X151282268Y-132167438D02*
X151234649Y-132215057D01*
X128806077Y-73869819D02*
X128472744Y-74869819D01*
X128472744Y-74869819D02*
X128139411Y-73869819D01*
X127806077Y-74488866D02*
X127044173Y-74488866D01*
X150639411Y-88119819D02*
X151210839Y-88119819D01*
X150925125Y-88119819D02*
X150925125Y-87119819D01*
X150925125Y-87119819D02*
X151020363Y-87262676D01*
X151020363Y-87262676D02*
X151115601Y-87357914D01*
X151115601Y-87357914D02*
X151210839Y-87405533D01*
X149734649Y-87119819D02*
X150210839Y-87119819D01*
X150210839Y-87119819D02*
X150258458Y-87596009D01*
X150258458Y-87596009D02*
X150210839Y-87548390D01*
X150210839Y-87548390D02*
X150115601Y-87500771D01*
X150115601Y-87500771D02*
X149877506Y-87500771D01*
X149877506Y-87500771D02*
X149782268Y-87548390D01*
X149782268Y-87548390D02*
X149734649Y-87596009D01*
X149734649Y-87596009D02*
X149687030Y-87691247D01*
X149687030Y-87691247D02*
X149687030Y-87929342D01*
X149687030Y-87929342D02*
X149734649Y-88024580D01*
X149734649Y-88024580D02*
X149782268Y-88072200D01*
X149782268Y-88072200D02*
X149877506Y-88119819D01*
X149877506Y-88119819D02*
X150115601Y-88119819D01*
X150115601Y-88119819D02*
X150210839Y-88072200D01*
X150210839Y-88072200D02*
X150258458Y-88024580D01*
X142901316Y-74965057D02*
X142139411Y-74965057D01*
X141377506Y-74869819D02*
X141948934Y-74869819D01*
X141663220Y-74869819D02*
X141663220Y-73869819D01*
X141663220Y-73869819D02*
X141758458Y-74012676D01*
X141758458Y-74012676D02*
X141853696Y-74107914D01*
X141853696Y-74107914D02*
X141948934Y-74155533D01*
X141044172Y-73869819D02*
X140425125Y-73869819D01*
X140425125Y-73869819D02*
X140758458Y-74250771D01*
X140758458Y-74250771D02*
X140615601Y-74250771D01*
X140615601Y-74250771D02*
X140520363Y-74298390D01*
X140520363Y-74298390D02*
X140472744Y-74346009D01*
X140472744Y-74346009D02*
X140425125Y-74441247D01*
X140425125Y-74441247D02*
X140425125Y-74679342D01*
X140425125Y-74679342D02*
X140472744Y-74774580D01*
X140472744Y-74774580D02*
X140520363Y-74822200D01*
X140520363Y-74822200D02*
X140615601Y-74869819D01*
X140615601Y-74869819D02*
X140901315Y-74869819D01*
X140901315Y-74869819D02*
X140996553Y-74822200D01*
X140996553Y-74822200D02*
X141044172Y-74774580D01*
X131591792Y-62119819D02*
X131925125Y-61643628D01*
X132163220Y-62119819D02*
X132163220Y-61119819D01*
X132163220Y-61119819D02*
X131782268Y-61119819D01*
X131782268Y-61119819D02*
X131687030Y-61167438D01*
X131687030Y-61167438D02*
X131639411Y-61215057D01*
X131639411Y-61215057D02*
X131591792Y-61310295D01*
X131591792Y-61310295D02*
X131591792Y-61453152D01*
X131591792Y-61453152D02*
X131639411Y-61548390D01*
X131639411Y-61548390D02*
X131687030Y-61596009D01*
X131687030Y-61596009D02*
X131782268Y-61643628D01*
X131782268Y-61643628D02*
X132163220Y-61643628D01*
X131210839Y-62072200D02*
X131067982Y-62119819D01*
X131067982Y-62119819D02*
X130829887Y-62119819D01*
X130829887Y-62119819D02*
X130734649Y-62072200D01*
X130734649Y-62072200D02*
X130687030Y-62024580D01*
X130687030Y-62024580D02*
X130639411Y-61929342D01*
X130639411Y-61929342D02*
X130639411Y-61834104D01*
X130639411Y-61834104D02*
X130687030Y-61738866D01*
X130687030Y-61738866D02*
X130734649Y-61691247D01*
X130734649Y-61691247D02*
X130829887Y-61643628D01*
X130829887Y-61643628D02*
X131020363Y-61596009D01*
X131020363Y-61596009D02*
X131115601Y-61548390D01*
X131115601Y-61548390D02*
X131163220Y-61500771D01*
X131163220Y-61500771D02*
X131210839Y-61405533D01*
X131210839Y-61405533D02*
X131210839Y-61310295D01*
X131210839Y-61310295D02*
X131163220Y-61215057D01*
X131163220Y-61215057D02*
X131115601Y-61167438D01*
X131115601Y-61167438D02*
X131020363Y-61119819D01*
X131020363Y-61119819D02*
X130782268Y-61119819D01*
X130782268Y-61119819D02*
X130639411Y-61167438D01*
X130353696Y-61119819D02*
X129782268Y-61119819D01*
X130067982Y-62119819D02*
X130067982Y-61119819D01*
X131734649Y-45953152D02*
X131734649Y-46619819D01*
X131972744Y-45572200D02*
X132210839Y-46286485D01*
X132210839Y-46286485D02*
X131591792Y-46286485D01*
X141913220Y-44119819D02*
X141913220Y-43119819D01*
X141913220Y-43119819D02*
X141675125Y-43119819D01*
X141675125Y-43119819D02*
X141532268Y-43167438D01*
X141532268Y-43167438D02*
X141437030Y-43262676D01*
X141437030Y-43262676D02*
X141389411Y-43357914D01*
X141389411Y-43357914D02*
X141341792Y-43548390D01*
X141341792Y-43548390D02*
X141341792Y-43691247D01*
X141341792Y-43691247D02*
X141389411Y-43881723D01*
X141389411Y-43881723D02*
X141437030Y-43976961D01*
X141437030Y-43976961D02*
X141532268Y-44072200D01*
X141532268Y-44072200D02*
X141675125Y-44119819D01*
X141675125Y-44119819D02*
X141913220Y-44119819D01*
X140389411Y-44119819D02*
X140960839Y-44119819D01*
X140675125Y-44119819D02*
X140675125Y-43119819D01*
X140675125Y-43119819D02*
X140770363Y-43262676D01*
X140770363Y-43262676D02*
X140865601Y-43357914D01*
X140865601Y-43357914D02*
X140960839Y-43405533D01*
X132210839Y-63715057D02*
X132163220Y-63667438D01*
X132163220Y-63667438D02*
X132067982Y-63619819D01*
X132067982Y-63619819D02*
X131829887Y-63619819D01*
X131829887Y-63619819D02*
X131734649Y-63667438D01*
X131734649Y-63667438D02*
X131687030Y-63715057D01*
X131687030Y-63715057D02*
X131639411Y-63810295D01*
X131639411Y-63810295D02*
X131639411Y-63905533D01*
X131639411Y-63905533D02*
X131687030Y-64048390D01*
X131687030Y-64048390D02*
X132258458Y-64619819D01*
X132258458Y-64619819D02*
X131639411Y-64619819D01*
X131306077Y-63619819D02*
X130639411Y-63619819D01*
X130639411Y-63619819D02*
X131067982Y-64619819D01*
X145639411Y-88119819D02*
X146210839Y-88119819D01*
X145925125Y-88119819D02*
X145925125Y-87119819D01*
X145925125Y-87119819D02*
X146020363Y-87262676D01*
X146020363Y-87262676D02*
X146115601Y-87357914D01*
X146115601Y-87357914D02*
X146210839Y-87405533D01*
X145306077Y-87119819D02*
X144687030Y-87119819D01*
X144687030Y-87119819D02*
X145020363Y-87500771D01*
X145020363Y-87500771D02*
X144877506Y-87500771D01*
X144877506Y-87500771D02*
X144782268Y-87548390D01*
X144782268Y-87548390D02*
X144734649Y-87596009D01*
X144734649Y-87596009D02*
X144687030Y-87691247D01*
X144687030Y-87691247D02*
X144687030Y-87929342D01*
X144687030Y-87929342D02*
X144734649Y-88024580D01*
X144734649Y-88024580D02*
X144782268Y-88072200D01*
X144782268Y-88072200D02*
X144877506Y-88119819D01*
X144877506Y-88119819D02*
X145163220Y-88119819D01*
X145163220Y-88119819D02*
X145258458Y-88072200D01*
X145258458Y-88072200D02*
X145306077Y-88024580D01*
X138389411Y-127869819D02*
X138960839Y-127869819D01*
X138675125Y-127869819D02*
X138675125Y-126869819D01*
X138675125Y-126869819D02*
X138770363Y-127012676D01*
X138770363Y-127012676D02*
X138865601Y-127107914D01*
X138865601Y-127107914D02*
X138960839Y-127155533D01*
X138008458Y-126965057D02*
X137960839Y-126917438D01*
X137960839Y-126917438D02*
X137865601Y-126869819D01*
X137865601Y-126869819D02*
X137627506Y-126869819D01*
X137627506Y-126869819D02*
X137532268Y-126917438D01*
X137532268Y-126917438D02*
X137484649Y-126965057D01*
X137484649Y-126965057D02*
X137437030Y-127060295D01*
X137437030Y-127060295D02*
X137437030Y-127155533D01*
X137437030Y-127155533D02*
X137484649Y-127298390D01*
X137484649Y-127298390D02*
X138056077Y-127869819D01*
X138056077Y-127869819D02*
X137437030Y-127869819D01*
X142341792Y-62119819D02*
X142675125Y-61643628D01*
X142913220Y-62119819D02*
X142913220Y-61119819D01*
X142913220Y-61119819D02*
X142532268Y-61119819D01*
X142532268Y-61119819D02*
X142437030Y-61167438D01*
X142437030Y-61167438D02*
X142389411Y-61215057D01*
X142389411Y-61215057D02*
X142341792Y-61310295D01*
X142341792Y-61310295D02*
X142341792Y-61453152D01*
X142341792Y-61453152D02*
X142389411Y-61548390D01*
X142389411Y-61548390D02*
X142437030Y-61596009D01*
X142437030Y-61596009D02*
X142532268Y-61643628D01*
X142532268Y-61643628D02*
X142913220Y-61643628D01*
X141960839Y-62072200D02*
X141817982Y-62119819D01*
X141817982Y-62119819D02*
X141579887Y-62119819D01*
X141579887Y-62119819D02*
X141484649Y-62072200D01*
X141484649Y-62072200D02*
X141437030Y-62024580D01*
X141437030Y-62024580D02*
X141389411Y-61929342D01*
X141389411Y-61929342D02*
X141389411Y-61834104D01*
X141389411Y-61834104D02*
X141437030Y-61738866D01*
X141437030Y-61738866D02*
X141484649Y-61691247D01*
X141484649Y-61691247D02*
X141579887Y-61643628D01*
X141579887Y-61643628D02*
X141770363Y-61596009D01*
X141770363Y-61596009D02*
X141865601Y-61548390D01*
X141865601Y-61548390D02*
X141913220Y-61500771D01*
X141913220Y-61500771D02*
X141960839Y-61405533D01*
X141960839Y-61405533D02*
X141960839Y-61310295D01*
X141960839Y-61310295D02*
X141913220Y-61215057D01*
X141913220Y-61215057D02*
X141865601Y-61167438D01*
X141865601Y-61167438D02*
X141770363Y-61119819D01*
X141770363Y-61119819D02*
X141532268Y-61119819D01*
X141532268Y-61119819D02*
X141389411Y-61167438D01*
X141103696Y-61119819D02*
X140532268Y-61119819D01*
X140817982Y-62119819D02*
X140817982Y-61119819D01*
X132210839Y-50965057D02*
X132163220Y-50917438D01*
X132163220Y-50917438D02*
X132067982Y-50869819D01*
X132067982Y-50869819D02*
X131829887Y-50869819D01*
X131829887Y-50869819D02*
X131734649Y-50917438D01*
X131734649Y-50917438D02*
X131687030Y-50965057D01*
X131687030Y-50965057D02*
X131639411Y-51060295D01*
X131639411Y-51060295D02*
X131639411Y-51155533D01*
X131639411Y-51155533D02*
X131687030Y-51298390D01*
X131687030Y-51298390D02*
X132258458Y-51869819D01*
X132258458Y-51869819D02*
X131639411Y-51869819D01*
X130734649Y-50869819D02*
X131210839Y-50869819D01*
X131210839Y-50869819D02*
X131258458Y-51346009D01*
X131258458Y-51346009D02*
X131210839Y-51298390D01*
X131210839Y-51298390D02*
X131115601Y-51250771D01*
X131115601Y-51250771D02*
X130877506Y-51250771D01*
X130877506Y-51250771D02*
X130782268Y-51298390D01*
X130782268Y-51298390D02*
X130734649Y-51346009D01*
X130734649Y-51346009D02*
X130687030Y-51441247D01*
X130687030Y-51441247D02*
X130687030Y-51679342D01*
X130687030Y-51679342D02*
X130734649Y-51774580D01*
X130734649Y-51774580D02*
X130782268Y-51822200D01*
X130782268Y-51822200D02*
X130877506Y-51869819D01*
X130877506Y-51869819D02*
X131115601Y-51869819D01*
X131115601Y-51869819D02*
X131210839Y-51822200D01*
X131210839Y-51822200D02*
X131258458Y-51774580D01*
X165008458Y-86369819D02*
X164389411Y-86369819D01*
X164389411Y-86369819D02*
X164722744Y-86750771D01*
X164722744Y-86750771D02*
X164579887Y-86750771D01*
X164579887Y-86750771D02*
X164484649Y-86798390D01*
X164484649Y-86798390D02*
X164437030Y-86846009D01*
X164437030Y-86846009D02*
X164389411Y-86941247D01*
X164389411Y-86941247D02*
X164389411Y-87179342D01*
X164389411Y-87179342D02*
X164437030Y-87274580D01*
X164437030Y-87274580D02*
X164484649Y-87322200D01*
X164484649Y-87322200D02*
X164579887Y-87369819D01*
X164579887Y-87369819D02*
X164865601Y-87369819D01*
X164865601Y-87369819D02*
X164960839Y-87322200D01*
X164960839Y-87322200D02*
X165008458Y-87274580D01*
X164008458Y-86465057D02*
X163960839Y-86417438D01*
X163960839Y-86417438D02*
X163865601Y-86369819D01*
X163865601Y-86369819D02*
X163627506Y-86369819D01*
X163627506Y-86369819D02*
X163532268Y-86417438D01*
X163532268Y-86417438D02*
X163484649Y-86465057D01*
X163484649Y-86465057D02*
X163437030Y-86560295D01*
X163437030Y-86560295D02*
X163437030Y-86655533D01*
X163437030Y-86655533D02*
X163484649Y-86798390D01*
X163484649Y-86798390D02*
X164056077Y-87369819D01*
X164056077Y-87369819D02*
X163437030Y-87369819D01*
X132056077Y-96619819D02*
X131722744Y-97619819D01*
X131722744Y-97619819D02*
X131389411Y-96619819D01*
X131056077Y-97238866D02*
X130294173Y-97238866D01*
X150508458Y-39369819D02*
X149889411Y-39369819D01*
X149889411Y-39369819D02*
X150222744Y-39750771D01*
X150222744Y-39750771D02*
X150079887Y-39750771D01*
X150079887Y-39750771D02*
X149984649Y-39798390D01*
X149984649Y-39798390D02*
X149937030Y-39846009D01*
X149937030Y-39846009D02*
X149889411Y-39941247D01*
X149889411Y-39941247D02*
X149889411Y-40179342D01*
X149889411Y-40179342D02*
X149937030Y-40274580D01*
X149937030Y-40274580D02*
X149984649Y-40322200D01*
X149984649Y-40322200D02*
X150079887Y-40369819D01*
X150079887Y-40369819D02*
X150365601Y-40369819D01*
X150365601Y-40369819D02*
X150460839Y-40322200D01*
X150460839Y-40322200D02*
X150508458Y-40274580D01*
X149032268Y-39703152D02*
X149032268Y-40369819D01*
X149270363Y-39322200D02*
X149508458Y-40036485D01*
X149508458Y-40036485D02*
X148889411Y-40036485D01*
X132306077Y-66119819D02*
X131972744Y-67119819D01*
X131972744Y-67119819D02*
X131639411Y-66119819D01*
X131306077Y-66738866D02*
X130544173Y-66738866D01*
X158210839Y-94215057D02*
X158163220Y-94167438D01*
X158163220Y-94167438D02*
X158067982Y-94119819D01*
X158067982Y-94119819D02*
X157829887Y-94119819D01*
X157829887Y-94119819D02*
X157734649Y-94167438D01*
X157734649Y-94167438D02*
X157687030Y-94215057D01*
X157687030Y-94215057D02*
X157639411Y-94310295D01*
X157639411Y-94310295D02*
X157639411Y-94405533D01*
X157639411Y-94405533D02*
X157687030Y-94548390D01*
X157687030Y-94548390D02*
X158258458Y-95119819D01*
X158258458Y-95119819D02*
X157639411Y-95119819D01*
X157258458Y-94215057D02*
X157210839Y-94167438D01*
X157210839Y-94167438D02*
X157115601Y-94119819D01*
X157115601Y-94119819D02*
X156877506Y-94119819D01*
X156877506Y-94119819D02*
X156782268Y-94167438D01*
X156782268Y-94167438D02*
X156734649Y-94215057D01*
X156734649Y-94215057D02*
X156687030Y-94310295D01*
X156687030Y-94310295D02*
X156687030Y-94405533D01*
X156687030Y-94405533D02*
X156734649Y-94548390D01*
X156734649Y-94548390D02*
X157306077Y-95119819D01*
X157306077Y-95119819D02*
X156687030Y-95119819D01*
X145651316Y-92215057D02*
X144889411Y-92215057D01*
X144127506Y-92119819D02*
X144698934Y-92119819D01*
X144413220Y-92119819D02*
X144413220Y-91119819D01*
X144413220Y-91119819D02*
X144508458Y-91262676D01*
X144508458Y-91262676D02*
X144603696Y-91357914D01*
X144603696Y-91357914D02*
X144698934Y-91405533D01*
X143746553Y-91215057D02*
X143698934Y-91167438D01*
X143698934Y-91167438D02*
X143603696Y-91119819D01*
X143603696Y-91119819D02*
X143365601Y-91119819D01*
X143365601Y-91119819D02*
X143270363Y-91167438D01*
X143270363Y-91167438D02*
X143222744Y-91215057D01*
X143222744Y-91215057D02*
X143175125Y-91310295D01*
X143175125Y-91310295D02*
X143175125Y-91405533D01*
X143175125Y-91405533D02*
X143222744Y-91548390D01*
X143222744Y-91548390D02*
X143794172Y-92119819D01*
X143794172Y-92119819D02*
X143175125Y-92119819D01*
X138556077Y-66369819D02*
X138222744Y-67369819D01*
X138222744Y-67369819D02*
X137889411Y-66369819D01*
X137556077Y-66988866D02*
X136794173Y-66988866D01*
X158056077Y-89119819D02*
X157722744Y-90119819D01*
X157722744Y-90119819D02*
X157389411Y-89119819D01*
X157056077Y-89738866D02*
X156294173Y-89738866D01*
X150056077Y-102119819D02*
X149722744Y-103119819D01*
X149722744Y-103119819D02*
X149389411Y-102119819D01*
X149056077Y-102738866D02*
X148294173Y-102738866D01*
X148675125Y-103119819D02*
X148675125Y-102357914D01*
X158056077Y-38369819D02*
X157722744Y-39369819D01*
X157722744Y-39369819D02*
X157389411Y-38369819D01*
X157056077Y-38988866D02*
X156294173Y-38988866D01*
X156675125Y-39369819D02*
X156675125Y-38607914D01*
X145306077Y-131619819D02*
X144972744Y-132619819D01*
X144972744Y-132619819D02*
X144639411Y-131619819D01*
X144306077Y-132238866D02*
X143544173Y-132238866D01*
X143925125Y-132619819D02*
X143925125Y-131857914D01*
X165008458Y-116869819D02*
X164389411Y-116869819D01*
X164389411Y-116869819D02*
X164722744Y-117250771D01*
X164722744Y-117250771D02*
X164579887Y-117250771D01*
X164579887Y-117250771D02*
X164484649Y-117298390D01*
X164484649Y-117298390D02*
X164437030Y-117346009D01*
X164437030Y-117346009D02*
X164389411Y-117441247D01*
X164389411Y-117441247D02*
X164389411Y-117679342D01*
X164389411Y-117679342D02*
X164437030Y-117774580D01*
X164437030Y-117774580D02*
X164484649Y-117822200D01*
X164484649Y-117822200D02*
X164579887Y-117869819D01*
X164579887Y-117869819D02*
X164865601Y-117869819D01*
X164865601Y-117869819D02*
X164960839Y-117822200D01*
X164960839Y-117822200D02*
X165008458Y-117774580D01*
X164008458Y-116965057D02*
X163960839Y-116917438D01*
X163960839Y-116917438D02*
X163865601Y-116869819D01*
X163865601Y-116869819D02*
X163627506Y-116869819D01*
X163627506Y-116869819D02*
X163532268Y-116917438D01*
X163532268Y-116917438D02*
X163484649Y-116965057D01*
X163484649Y-116965057D02*
X163437030Y-117060295D01*
X163437030Y-117060295D02*
X163437030Y-117155533D01*
X163437030Y-117155533D02*
X163484649Y-117298390D01*
X163484649Y-117298390D02*
X164056077Y-117869819D01*
X164056077Y-117869819D02*
X163437030Y-117869819D01*
X138556077Y-71369819D02*
X138222744Y-72369819D01*
X138222744Y-72369819D02*
X137889411Y-71369819D01*
X137556077Y-71988866D02*
X136794173Y-71988866D01*
X158163220Y-100119819D02*
X158163220Y-99119819D01*
X158163220Y-99119819D02*
X157829887Y-99834104D01*
X157829887Y-99834104D02*
X157496554Y-99119819D01*
X157496554Y-99119819D02*
X157496554Y-100119819D01*
X156829887Y-99119819D02*
X156639411Y-99119819D01*
X156639411Y-99119819D02*
X156544173Y-99167438D01*
X156544173Y-99167438D02*
X156448935Y-99262676D01*
X156448935Y-99262676D02*
X156401316Y-99453152D01*
X156401316Y-99453152D02*
X156401316Y-99786485D01*
X156401316Y-99786485D02*
X156448935Y-99976961D01*
X156448935Y-99976961D02*
X156544173Y-100072200D01*
X156544173Y-100072200D02*
X156639411Y-100119819D01*
X156639411Y-100119819D02*
X156829887Y-100119819D01*
X156829887Y-100119819D02*
X156925125Y-100072200D01*
X156925125Y-100072200D02*
X157020363Y-99976961D01*
X157020363Y-99976961D02*
X157067982Y-99786485D01*
X157067982Y-99786485D02*
X157067982Y-99453152D01*
X157067982Y-99453152D02*
X157020363Y-99262676D01*
X157020363Y-99262676D02*
X156925125Y-99167438D01*
X156925125Y-99167438D02*
X156829887Y-99119819D01*
X156020363Y-100072200D02*
X155877506Y-100119819D01*
X155877506Y-100119819D02*
X155639411Y-100119819D01*
X155639411Y-100119819D02*
X155544173Y-100072200D01*
X155544173Y-100072200D02*
X155496554Y-100024580D01*
X155496554Y-100024580D02*
X155448935Y-99929342D01*
X155448935Y-99929342D02*
X155448935Y-99834104D01*
X155448935Y-99834104D02*
X155496554Y-99738866D01*
X155496554Y-99738866D02*
X155544173Y-99691247D01*
X155544173Y-99691247D02*
X155639411Y-99643628D01*
X155639411Y-99643628D02*
X155829887Y-99596009D01*
X155829887Y-99596009D02*
X155925125Y-99548390D01*
X155925125Y-99548390D02*
X155972744Y-99500771D01*
X155972744Y-99500771D02*
X156020363Y-99405533D01*
X156020363Y-99405533D02*
X156020363Y-99310295D01*
X156020363Y-99310295D02*
X155972744Y-99215057D01*
X155972744Y-99215057D02*
X155925125Y-99167438D01*
X155925125Y-99167438D02*
X155829887Y-99119819D01*
X155829887Y-99119819D02*
X155591792Y-99119819D01*
X155591792Y-99119819D02*
X155448935Y-99167438D01*
X155020363Y-100119819D02*
X155020363Y-99119819D01*
X158056077Y-129619819D02*
X157722744Y-130619819D01*
X157722744Y-130619819D02*
X157389411Y-129619819D01*
X157056077Y-130238866D02*
X156294173Y-130238866D01*
X138758458Y-56119819D02*
X138139411Y-56119819D01*
X138139411Y-56119819D02*
X138472744Y-56500771D01*
X138472744Y-56500771D02*
X138329887Y-56500771D01*
X138329887Y-56500771D02*
X138234649Y-56548390D01*
X138234649Y-56548390D02*
X138187030Y-56596009D01*
X138187030Y-56596009D02*
X138139411Y-56691247D01*
X138139411Y-56691247D02*
X138139411Y-56929342D01*
X138139411Y-56929342D02*
X138187030Y-57024580D01*
X138187030Y-57024580D02*
X138234649Y-57072200D01*
X138234649Y-57072200D02*
X138329887Y-57119819D01*
X138329887Y-57119819D02*
X138615601Y-57119819D01*
X138615601Y-57119819D02*
X138710839Y-57072200D01*
X138710839Y-57072200D02*
X138758458Y-57024580D01*
X137282268Y-56119819D02*
X137472744Y-56119819D01*
X137472744Y-56119819D02*
X137567982Y-56167438D01*
X137567982Y-56167438D02*
X137615601Y-56215057D01*
X137615601Y-56215057D02*
X137710839Y-56357914D01*
X137710839Y-56357914D02*
X137758458Y-56548390D01*
X137758458Y-56548390D02*
X137758458Y-56929342D01*
X137758458Y-56929342D02*
X137710839Y-57024580D01*
X137710839Y-57024580D02*
X137663220Y-57072200D01*
X137663220Y-57072200D02*
X137567982Y-57119819D01*
X137567982Y-57119819D02*
X137377506Y-57119819D01*
X137377506Y-57119819D02*
X137282268Y-57072200D01*
X137282268Y-57072200D02*
X137234649Y-57024580D01*
X137234649Y-57024580D02*
X137187030Y-56929342D01*
X137187030Y-56929342D02*
X137187030Y-56691247D01*
X137187030Y-56691247D02*
X137234649Y-56596009D01*
X137234649Y-56596009D02*
X137282268Y-56548390D01*
X137282268Y-56548390D02*
X137377506Y-56500771D01*
X137377506Y-56500771D02*
X137567982Y-56500771D01*
X137567982Y-56500771D02*
X137663220Y-56548390D01*
X137663220Y-56548390D02*
X137710839Y-56596009D01*
X137710839Y-56596009D02*
X137758458Y-56691247D01*
X165008458Y-122119819D02*
X164389411Y-122119819D01*
X164389411Y-122119819D02*
X164722744Y-122500771D01*
X164722744Y-122500771D02*
X164579887Y-122500771D01*
X164579887Y-122500771D02*
X164484649Y-122548390D01*
X164484649Y-122548390D02*
X164437030Y-122596009D01*
X164437030Y-122596009D02*
X164389411Y-122691247D01*
X164389411Y-122691247D02*
X164389411Y-122929342D01*
X164389411Y-122929342D02*
X164437030Y-123024580D01*
X164437030Y-123024580D02*
X164484649Y-123072200D01*
X164484649Y-123072200D02*
X164579887Y-123119819D01*
X164579887Y-123119819D02*
X164865601Y-123119819D01*
X164865601Y-123119819D02*
X164960839Y-123072200D01*
X164960839Y-123072200D02*
X165008458Y-123024580D01*
X164008458Y-122215057D02*
X163960839Y-122167438D01*
X163960839Y-122167438D02*
X163865601Y-122119819D01*
X163865601Y-122119819D02*
X163627506Y-122119819D01*
X163627506Y-122119819D02*
X163532268Y-122167438D01*
X163532268Y-122167438D02*
X163484649Y-122215057D01*
X163484649Y-122215057D02*
X163437030Y-122310295D01*
X163437030Y-122310295D02*
X163437030Y-122405533D01*
X163437030Y-122405533D02*
X163484649Y-122548390D01*
X163484649Y-122548390D02*
X164056077Y-123119819D01*
X164056077Y-123119819D02*
X163437030Y-123119819D01*
X158056077Y-124619819D02*
X157722744Y-125619819D01*
X157722744Y-125619819D02*
X157389411Y-124619819D01*
X157056077Y-125238866D02*
X156294173Y-125238866D01*
X156675125Y-125619819D02*
X156675125Y-124857914D01*
X158163220Y-59619819D02*
X158163220Y-58619819D01*
X158163220Y-58619819D02*
X157829887Y-59334104D01*
X157829887Y-59334104D02*
X157496554Y-58619819D01*
X157496554Y-58619819D02*
X157496554Y-59619819D01*
X157020363Y-59619819D02*
X157020363Y-58619819D01*
X156591792Y-59572200D02*
X156448935Y-59619819D01*
X156448935Y-59619819D02*
X156210840Y-59619819D01*
X156210840Y-59619819D02*
X156115602Y-59572200D01*
X156115602Y-59572200D02*
X156067983Y-59524580D01*
X156067983Y-59524580D02*
X156020364Y-59429342D01*
X156020364Y-59429342D02*
X156020364Y-59334104D01*
X156020364Y-59334104D02*
X156067983Y-59238866D01*
X156067983Y-59238866D02*
X156115602Y-59191247D01*
X156115602Y-59191247D02*
X156210840Y-59143628D01*
X156210840Y-59143628D02*
X156401316Y-59096009D01*
X156401316Y-59096009D02*
X156496554Y-59048390D01*
X156496554Y-59048390D02*
X156544173Y-59000771D01*
X156544173Y-59000771D02*
X156591792Y-58905533D01*
X156591792Y-58905533D02*
X156591792Y-58810295D01*
X156591792Y-58810295D02*
X156544173Y-58715057D01*
X156544173Y-58715057D02*
X156496554Y-58667438D01*
X156496554Y-58667438D02*
X156401316Y-58619819D01*
X156401316Y-58619819D02*
X156163221Y-58619819D01*
X156163221Y-58619819D02*
X156020364Y-58667438D01*
X155401316Y-58619819D02*
X155210840Y-58619819D01*
X155210840Y-58619819D02*
X155115602Y-58667438D01*
X155115602Y-58667438D02*
X155020364Y-58762676D01*
X155020364Y-58762676D02*
X154972745Y-58953152D01*
X154972745Y-58953152D02*
X154972745Y-59286485D01*
X154972745Y-59286485D02*
X155020364Y-59476961D01*
X155020364Y-59476961D02*
X155115602Y-59572200D01*
X155115602Y-59572200D02*
X155210840Y-59619819D01*
X155210840Y-59619819D02*
X155401316Y-59619819D01*
X155401316Y-59619819D02*
X155496554Y-59572200D01*
X155496554Y-59572200D02*
X155591792Y-59476961D01*
X155591792Y-59476961D02*
X155639411Y-59286485D01*
X155639411Y-59286485D02*
X155639411Y-58953152D01*
X155639411Y-58953152D02*
X155591792Y-58762676D01*
X155591792Y-58762676D02*
X155496554Y-58667438D01*
X155496554Y-58667438D02*
X155401316Y-58619819D01*
X157639411Y-84869819D02*
X158210839Y-84869819D01*
X157925125Y-84869819D02*
X157925125Y-83869819D01*
X157925125Y-83869819D02*
X158020363Y-84012676D01*
X158020363Y-84012676D02*
X158115601Y-84107914D01*
X158115601Y-84107914D02*
X158210839Y-84155533D01*
X157306077Y-83869819D02*
X156687030Y-83869819D01*
X156687030Y-83869819D02*
X157020363Y-84250771D01*
X157020363Y-84250771D02*
X156877506Y-84250771D01*
X156877506Y-84250771D02*
X156782268Y-84298390D01*
X156782268Y-84298390D02*
X156734649Y-84346009D01*
X156734649Y-84346009D02*
X156687030Y-84441247D01*
X156687030Y-84441247D02*
X156687030Y-84679342D01*
X156687030Y-84679342D02*
X156734649Y-84774580D01*
X156734649Y-84774580D02*
X156782268Y-84822200D01*
X156782268Y-84822200D02*
X156877506Y-84869819D01*
X156877506Y-84869819D02*
X157163220Y-84869819D01*
X157163220Y-84869819D02*
X157258458Y-84822200D01*
X157258458Y-84822200D02*
X157306077Y-84774580D01*
X128806077Y-71369819D02*
X128472744Y-72369819D01*
X128472744Y-72369819D02*
X128139411Y-71369819D01*
X127806077Y-71988866D02*
X127044173Y-71988866D01*
X127425125Y-72369819D02*
X127425125Y-71607914D01*
X138556077Y-63869819D02*
X138222744Y-64869819D01*
X138222744Y-64869819D02*
X137889411Y-63869819D01*
X137556077Y-64488866D02*
X136794173Y-64488866D01*
X137175125Y-64869819D02*
X137175125Y-64107914D01*
X143889411Y-111369819D02*
X144460839Y-111369819D01*
X144175125Y-111369819D02*
X144175125Y-110369819D01*
X144175125Y-110369819D02*
X144270363Y-110512676D01*
X144270363Y-110512676D02*
X144365601Y-110607914D01*
X144365601Y-110607914D02*
X144460839Y-110655533D01*
X143032268Y-110703152D02*
X143032268Y-111369819D01*
X143270363Y-110322200D02*
X143508458Y-111036485D01*
X143508458Y-111036485D02*
X142889411Y-111036485D01*
X131972744Y-121869819D02*
X131877506Y-121869819D01*
X131877506Y-121869819D02*
X131782268Y-121917438D01*
X131782268Y-121917438D02*
X131734649Y-121965057D01*
X131734649Y-121965057D02*
X131687030Y-122060295D01*
X131687030Y-122060295D02*
X131639411Y-122250771D01*
X131639411Y-122250771D02*
X131639411Y-122488866D01*
X131639411Y-122488866D02*
X131687030Y-122679342D01*
X131687030Y-122679342D02*
X131734649Y-122774580D01*
X131734649Y-122774580D02*
X131782268Y-122822200D01*
X131782268Y-122822200D02*
X131877506Y-122869819D01*
X131877506Y-122869819D02*
X131972744Y-122869819D01*
X131972744Y-122869819D02*
X132067982Y-122822200D01*
X132067982Y-122822200D02*
X132115601Y-122774580D01*
X132115601Y-122774580D02*
X132163220Y-122679342D01*
X132163220Y-122679342D02*
X132210839Y-122488866D01*
X132210839Y-122488866D02*
X132210839Y-122250771D01*
X132210839Y-122250771D02*
X132163220Y-122060295D01*
X132163220Y-122060295D02*
X132115601Y-121965057D01*
X132115601Y-121965057D02*
X132067982Y-121917438D01*
X132067982Y-121917438D02*
X131972744Y-121869819D01*
X138960839Y-109465057D02*
X138913220Y-109417438D01*
X138913220Y-109417438D02*
X138817982Y-109369819D01*
X138817982Y-109369819D02*
X138579887Y-109369819D01*
X138579887Y-109369819D02*
X138484649Y-109417438D01*
X138484649Y-109417438D02*
X138437030Y-109465057D01*
X138437030Y-109465057D02*
X138389411Y-109560295D01*
X138389411Y-109560295D02*
X138389411Y-109655533D01*
X138389411Y-109655533D02*
X138437030Y-109798390D01*
X138437030Y-109798390D02*
X139008458Y-110369819D01*
X139008458Y-110369819D02*
X138389411Y-110369819D01*
X137484649Y-109369819D02*
X137960839Y-109369819D01*
X137960839Y-109369819D02*
X138008458Y-109846009D01*
X138008458Y-109846009D02*
X137960839Y-109798390D01*
X137960839Y-109798390D02*
X137865601Y-109750771D01*
X137865601Y-109750771D02*
X137627506Y-109750771D01*
X137627506Y-109750771D02*
X137532268Y-109798390D01*
X137532268Y-109798390D02*
X137484649Y-109846009D01*
X137484649Y-109846009D02*
X137437030Y-109941247D01*
X137437030Y-109941247D02*
X137437030Y-110179342D01*
X137437030Y-110179342D02*
X137484649Y-110274580D01*
X137484649Y-110274580D02*
X137532268Y-110322200D01*
X137532268Y-110322200D02*
X137627506Y-110369819D01*
X137627506Y-110369819D02*
X137865601Y-110369819D01*
X137865601Y-110369819D02*
X137960839Y-110322200D01*
X137960839Y-110322200D02*
X138008458Y-110274580D01*
X131639411Y-130619819D02*
X132210839Y-130619819D01*
X131925125Y-130619819D02*
X131925125Y-129619819D01*
X131925125Y-129619819D02*
X132020363Y-129762676D01*
X132020363Y-129762676D02*
X132115601Y-129857914D01*
X132115601Y-129857914D02*
X132210839Y-129905533D01*
X130734649Y-129619819D02*
X131210839Y-129619819D01*
X131210839Y-129619819D02*
X131258458Y-130096009D01*
X131258458Y-130096009D02*
X131210839Y-130048390D01*
X131210839Y-130048390D02*
X131115601Y-130000771D01*
X131115601Y-130000771D02*
X130877506Y-130000771D01*
X130877506Y-130000771D02*
X130782268Y-130048390D01*
X130782268Y-130048390D02*
X130734649Y-130096009D01*
X130734649Y-130096009D02*
X130687030Y-130191247D01*
X130687030Y-130191247D02*
X130687030Y-130429342D01*
X130687030Y-130429342D02*
X130734649Y-130524580D01*
X130734649Y-130524580D02*
X130782268Y-130572200D01*
X130782268Y-130572200D02*
X130877506Y-130619819D01*
X130877506Y-130619819D02*
X131115601Y-130619819D01*
X131115601Y-130619819D02*
X131210839Y-130572200D01*
X131210839Y-130572200D02*
X131258458Y-130524580D01*
X143306077Y-120119819D02*
X142972744Y-121119819D01*
X142972744Y-121119819D02*
X142639411Y-120119819D01*
X142306077Y-120738866D02*
X141544173Y-120738866D01*
X165008458Y-124619819D02*
X164389411Y-124619819D01*
X164389411Y-124619819D02*
X164722744Y-125000771D01*
X164722744Y-125000771D02*
X164579887Y-125000771D01*
X164579887Y-125000771D02*
X164484649Y-125048390D01*
X164484649Y-125048390D02*
X164437030Y-125096009D01*
X164437030Y-125096009D02*
X164389411Y-125191247D01*
X164389411Y-125191247D02*
X164389411Y-125429342D01*
X164389411Y-125429342D02*
X164437030Y-125524580D01*
X164437030Y-125524580D02*
X164484649Y-125572200D01*
X164484649Y-125572200D02*
X164579887Y-125619819D01*
X164579887Y-125619819D02*
X164865601Y-125619819D01*
X164865601Y-125619819D02*
X164960839Y-125572200D01*
X164960839Y-125572200D02*
X165008458Y-125524580D01*
X164056077Y-124619819D02*
X163437030Y-124619819D01*
X163437030Y-124619819D02*
X163770363Y-125000771D01*
X163770363Y-125000771D02*
X163627506Y-125000771D01*
X163627506Y-125000771D02*
X163532268Y-125048390D01*
X163532268Y-125048390D02*
X163484649Y-125096009D01*
X163484649Y-125096009D02*
X163437030Y-125191247D01*
X163437030Y-125191247D02*
X163437030Y-125429342D01*
X163437030Y-125429342D02*
X163484649Y-125524580D01*
X163484649Y-125524580D02*
X163532268Y-125572200D01*
X163532268Y-125572200D02*
X163627506Y-125619819D01*
X163627506Y-125619819D02*
X163913220Y-125619819D01*
X163913220Y-125619819D02*
X164008458Y-125572200D01*
X164008458Y-125572200D02*
X164056077Y-125524580D01*
X129306077Y-58869819D02*
X128972744Y-59869819D01*
X128972744Y-59869819D02*
X128639411Y-58869819D01*
X128306077Y-59488866D02*
X127544173Y-59488866D01*
X127925125Y-59869819D02*
X127925125Y-59107914D01*
X163734649Y-73953152D02*
X163734649Y-74619819D01*
X163972744Y-73572200D02*
X164210839Y-74286485D01*
X164210839Y-74286485D02*
X163591792Y-74286485D01*
X138389411Y-84869819D02*
X138960839Y-84869819D01*
X138675125Y-84869819D02*
X138675125Y-83869819D01*
X138675125Y-83869819D02*
X138770363Y-84012676D01*
X138770363Y-84012676D02*
X138865601Y-84107914D01*
X138865601Y-84107914D02*
X138960839Y-84155533D01*
X138008458Y-83965057D02*
X137960839Y-83917438D01*
X137960839Y-83917438D02*
X137865601Y-83869819D01*
X137865601Y-83869819D02*
X137627506Y-83869819D01*
X137627506Y-83869819D02*
X137532268Y-83917438D01*
X137532268Y-83917438D02*
X137484649Y-83965057D01*
X137484649Y-83965057D02*
X137437030Y-84060295D01*
X137437030Y-84060295D02*
X137437030Y-84155533D01*
X137437030Y-84155533D02*
X137484649Y-84298390D01*
X137484649Y-84298390D02*
X138056077Y-84869819D01*
X138056077Y-84869819D02*
X137437030Y-84869819D01*
X139056077Y-86509819D02*
X138722744Y-87509819D01*
X138722744Y-87509819D02*
X138389411Y-86509819D01*
X138056077Y-87128866D02*
X137294173Y-87128866D01*
X147758458Y-39369819D02*
X147139411Y-39369819D01*
X147139411Y-39369819D02*
X147472744Y-39750771D01*
X147472744Y-39750771D02*
X147329887Y-39750771D01*
X147329887Y-39750771D02*
X147234649Y-39798390D01*
X147234649Y-39798390D02*
X147187030Y-39846009D01*
X147187030Y-39846009D02*
X147139411Y-39941247D01*
X147139411Y-39941247D02*
X147139411Y-40179342D01*
X147139411Y-40179342D02*
X147187030Y-40274580D01*
X147187030Y-40274580D02*
X147234649Y-40322200D01*
X147234649Y-40322200D02*
X147329887Y-40369819D01*
X147329887Y-40369819D02*
X147615601Y-40369819D01*
X147615601Y-40369819D02*
X147710839Y-40322200D01*
X147710839Y-40322200D02*
X147758458Y-40274580D01*
X146663220Y-40369819D02*
X146472744Y-40369819D01*
X146472744Y-40369819D02*
X146377506Y-40322200D01*
X146377506Y-40322200D02*
X146329887Y-40274580D01*
X146329887Y-40274580D02*
X146234649Y-40131723D01*
X146234649Y-40131723D02*
X146187030Y-39941247D01*
X146187030Y-39941247D02*
X146187030Y-39560295D01*
X146187030Y-39560295D02*
X146234649Y-39465057D01*
X146234649Y-39465057D02*
X146282268Y-39417438D01*
X146282268Y-39417438D02*
X146377506Y-39369819D01*
X146377506Y-39369819D02*
X146567982Y-39369819D01*
X146567982Y-39369819D02*
X146663220Y-39417438D01*
X146663220Y-39417438D02*
X146710839Y-39465057D01*
X146710839Y-39465057D02*
X146758458Y-39560295D01*
X146758458Y-39560295D02*
X146758458Y-39798390D01*
X146758458Y-39798390D02*
X146710839Y-39893628D01*
X146710839Y-39893628D02*
X146663220Y-39941247D01*
X146663220Y-39941247D02*
X146567982Y-39988866D01*
X146567982Y-39988866D02*
X146377506Y-39988866D01*
X146377506Y-39988866D02*
X146282268Y-39941247D01*
X146282268Y-39941247D02*
X146234649Y-39893628D01*
X146234649Y-39893628D02*
X146187030Y-39798390D01*
X132056077Y-78869819D02*
X131722744Y-79869819D01*
X131722744Y-79869819D02*
X131389411Y-78869819D01*
X131056077Y-79488866D02*
X130294173Y-79488866D01*
X165008458Y-38119819D02*
X164389411Y-38119819D01*
X164389411Y-38119819D02*
X164722744Y-38500771D01*
X164722744Y-38500771D02*
X164579887Y-38500771D01*
X164579887Y-38500771D02*
X164484649Y-38548390D01*
X164484649Y-38548390D02*
X164437030Y-38596009D01*
X164437030Y-38596009D02*
X164389411Y-38691247D01*
X164389411Y-38691247D02*
X164389411Y-38929342D01*
X164389411Y-38929342D02*
X164437030Y-39024580D01*
X164437030Y-39024580D02*
X164484649Y-39072200D01*
X164484649Y-39072200D02*
X164579887Y-39119819D01*
X164579887Y-39119819D02*
X164865601Y-39119819D01*
X164865601Y-39119819D02*
X164960839Y-39072200D01*
X164960839Y-39072200D02*
X165008458Y-39024580D01*
X164056077Y-38119819D02*
X163437030Y-38119819D01*
X163437030Y-38119819D02*
X163770363Y-38500771D01*
X163770363Y-38500771D02*
X163627506Y-38500771D01*
X163627506Y-38500771D02*
X163532268Y-38548390D01*
X163532268Y-38548390D02*
X163484649Y-38596009D01*
X163484649Y-38596009D02*
X163437030Y-38691247D01*
X163437030Y-38691247D02*
X163437030Y-38929342D01*
X163437030Y-38929342D02*
X163484649Y-39024580D01*
X163484649Y-39024580D02*
X163532268Y-39072200D01*
X163532268Y-39072200D02*
X163627506Y-39119819D01*
X163627506Y-39119819D02*
X163913220Y-39119819D01*
X163913220Y-39119819D02*
X164008458Y-39072200D01*
X164008458Y-39072200D02*
X164056077Y-39024580D01*
X164806077Y-66119819D02*
X164472744Y-67119819D01*
X164472744Y-67119819D02*
X164139411Y-66119819D01*
X163806077Y-66738866D02*
X163044173Y-66738866D01*
X142151316Y-54465057D02*
X141389411Y-54465057D01*
X140960839Y-53369819D02*
X140865601Y-53369819D01*
X140865601Y-53369819D02*
X140770363Y-53417438D01*
X140770363Y-53417438D02*
X140722744Y-53465057D01*
X140722744Y-53465057D02*
X140675125Y-53560295D01*
X140675125Y-53560295D02*
X140627506Y-53750771D01*
X140627506Y-53750771D02*
X140627506Y-53988866D01*
X140627506Y-53988866D02*
X140675125Y-54179342D01*
X140675125Y-54179342D02*
X140722744Y-54274580D01*
X140722744Y-54274580D02*
X140770363Y-54322200D01*
X140770363Y-54322200D02*
X140865601Y-54369819D01*
X140865601Y-54369819D02*
X140960839Y-54369819D01*
X140960839Y-54369819D02*
X141056077Y-54322200D01*
X141056077Y-54322200D02*
X141103696Y-54274580D01*
X141103696Y-54274580D02*
X141151315Y-54179342D01*
X141151315Y-54179342D02*
X141198934Y-53988866D01*
X141198934Y-53988866D02*
X141198934Y-53750771D01*
X141198934Y-53750771D02*
X141151315Y-53560295D01*
X141151315Y-53560295D02*
X141103696Y-53465057D01*
X141103696Y-53465057D02*
X141056077Y-53417438D01*
X141056077Y-53417438D02*
X140960839Y-53369819D01*
X139056077Y-129369819D02*
X138722744Y-130369819D01*
X138722744Y-130369819D02*
X138389411Y-129369819D01*
X138056077Y-129988866D02*
X137294173Y-129988866D01*
X137675125Y-130369819D02*
X137675125Y-129607914D01*
X163972744Y-106619819D02*
X163877506Y-106619819D01*
X163877506Y-106619819D02*
X163782268Y-106667438D01*
X163782268Y-106667438D02*
X163734649Y-106715057D01*
X163734649Y-106715057D02*
X163687030Y-106810295D01*
X163687030Y-106810295D02*
X163639411Y-107000771D01*
X163639411Y-107000771D02*
X163639411Y-107238866D01*
X163639411Y-107238866D02*
X163687030Y-107429342D01*
X163687030Y-107429342D02*
X163734649Y-107524580D01*
X163734649Y-107524580D02*
X163782268Y-107572200D01*
X163782268Y-107572200D02*
X163877506Y-107619819D01*
X163877506Y-107619819D02*
X163972744Y-107619819D01*
X163972744Y-107619819D02*
X164067982Y-107572200D01*
X164067982Y-107572200D02*
X164115601Y-107524580D01*
X164115601Y-107524580D02*
X164163220Y-107429342D01*
X164163220Y-107429342D02*
X164210839Y-107238866D01*
X164210839Y-107238866D02*
X164210839Y-107000771D01*
X164210839Y-107000771D02*
X164163220Y-106810295D01*
X164163220Y-106810295D02*
X164115601Y-106715057D01*
X164115601Y-106715057D02*
X164067982Y-106667438D01*
X164067982Y-106667438D02*
X163972744Y-106619819D01*
X141913220Y-49369819D02*
X141913220Y-48369819D01*
X141913220Y-48369819D02*
X141675125Y-48369819D01*
X141675125Y-48369819D02*
X141532268Y-48417438D01*
X141532268Y-48417438D02*
X141437030Y-48512676D01*
X141437030Y-48512676D02*
X141389411Y-48607914D01*
X141389411Y-48607914D02*
X141341792Y-48798390D01*
X141341792Y-48798390D02*
X141341792Y-48941247D01*
X141341792Y-48941247D02*
X141389411Y-49131723D01*
X141389411Y-49131723D02*
X141437030Y-49226961D01*
X141437030Y-49226961D02*
X141532268Y-49322200D01*
X141532268Y-49322200D02*
X141675125Y-49369819D01*
X141675125Y-49369819D02*
X141913220Y-49369819D01*
X140437030Y-48369819D02*
X140913220Y-48369819D01*
X140913220Y-48369819D02*
X140960839Y-48846009D01*
X140960839Y-48846009D02*
X140913220Y-48798390D01*
X140913220Y-48798390D02*
X140817982Y-48750771D01*
X140817982Y-48750771D02*
X140579887Y-48750771D01*
X140579887Y-48750771D02*
X140484649Y-48798390D01*
X140484649Y-48798390D02*
X140437030Y-48846009D01*
X140437030Y-48846009D02*
X140389411Y-48941247D01*
X140389411Y-48941247D02*
X140389411Y-49179342D01*
X140389411Y-49179342D02*
X140437030Y-49274580D01*
X140437030Y-49274580D02*
X140484649Y-49322200D01*
X140484649Y-49322200D02*
X140579887Y-49369819D01*
X140579887Y-49369819D02*
X140817982Y-49369819D01*
X140817982Y-49369819D02*
X140913220Y-49322200D01*
X140913220Y-49322200D02*
X140960839Y-49274580D01*
X157591792Y-117869819D02*
X157925125Y-117393628D01*
X158163220Y-117869819D02*
X158163220Y-116869819D01*
X158163220Y-116869819D02*
X157782268Y-116869819D01*
X157782268Y-116869819D02*
X157687030Y-116917438D01*
X157687030Y-116917438D02*
X157639411Y-116965057D01*
X157639411Y-116965057D02*
X157591792Y-117060295D01*
X157591792Y-117060295D02*
X157591792Y-117203152D01*
X157591792Y-117203152D02*
X157639411Y-117298390D01*
X157639411Y-117298390D02*
X157687030Y-117346009D01*
X157687030Y-117346009D02*
X157782268Y-117393628D01*
X157782268Y-117393628D02*
X158163220Y-117393628D01*
X157210839Y-117822200D02*
X157067982Y-117869819D01*
X157067982Y-117869819D02*
X156829887Y-117869819D01*
X156829887Y-117869819D02*
X156734649Y-117822200D01*
X156734649Y-117822200D02*
X156687030Y-117774580D01*
X156687030Y-117774580D02*
X156639411Y-117679342D01*
X156639411Y-117679342D02*
X156639411Y-117584104D01*
X156639411Y-117584104D02*
X156687030Y-117488866D01*
X156687030Y-117488866D02*
X156734649Y-117441247D01*
X156734649Y-117441247D02*
X156829887Y-117393628D01*
X156829887Y-117393628D02*
X157020363Y-117346009D01*
X157020363Y-117346009D02*
X157115601Y-117298390D01*
X157115601Y-117298390D02*
X157163220Y-117250771D01*
X157163220Y-117250771D02*
X157210839Y-117155533D01*
X157210839Y-117155533D02*
X157210839Y-117060295D01*
X157210839Y-117060295D02*
X157163220Y-116965057D01*
X157163220Y-116965057D02*
X157115601Y-116917438D01*
X157115601Y-116917438D02*
X157020363Y-116869819D01*
X157020363Y-116869819D02*
X156782268Y-116869819D01*
X156782268Y-116869819D02*
X156639411Y-116917438D01*
X156353696Y-116869819D02*
X155782268Y-116869819D01*
X156067982Y-117869819D02*
X156067982Y-116869819D01*
X139008458Y-94119819D02*
X138389411Y-94119819D01*
X138389411Y-94119819D02*
X138722744Y-94500771D01*
X138722744Y-94500771D02*
X138579887Y-94500771D01*
X138579887Y-94500771D02*
X138484649Y-94548390D01*
X138484649Y-94548390D02*
X138437030Y-94596009D01*
X138437030Y-94596009D02*
X138389411Y-94691247D01*
X138389411Y-94691247D02*
X138389411Y-94929342D01*
X138389411Y-94929342D02*
X138437030Y-95024580D01*
X138437030Y-95024580D02*
X138484649Y-95072200D01*
X138484649Y-95072200D02*
X138579887Y-95119819D01*
X138579887Y-95119819D02*
X138865601Y-95119819D01*
X138865601Y-95119819D02*
X138960839Y-95072200D01*
X138960839Y-95072200D02*
X139008458Y-95024580D01*
X137913220Y-95119819D02*
X137722744Y-95119819D01*
X137722744Y-95119819D02*
X137627506Y-95072200D01*
X137627506Y-95072200D02*
X137579887Y-95024580D01*
X137579887Y-95024580D02*
X137484649Y-94881723D01*
X137484649Y-94881723D02*
X137437030Y-94691247D01*
X137437030Y-94691247D02*
X137437030Y-94310295D01*
X137437030Y-94310295D02*
X137484649Y-94215057D01*
X137484649Y-94215057D02*
X137532268Y-94167438D01*
X137532268Y-94167438D02*
X137627506Y-94119819D01*
X137627506Y-94119819D02*
X137817982Y-94119819D01*
X137817982Y-94119819D02*
X137913220Y-94167438D01*
X137913220Y-94167438D02*
X137960839Y-94215057D01*
X137960839Y-94215057D02*
X138008458Y-94310295D01*
X138008458Y-94310295D02*
X138008458Y-94548390D01*
X138008458Y-94548390D02*
X137960839Y-94643628D01*
X137960839Y-94643628D02*
X137913220Y-94691247D01*
X137913220Y-94691247D02*
X137817982Y-94738866D01*
X137817982Y-94738866D02*
X137627506Y-94738866D01*
X137627506Y-94738866D02*
X137532268Y-94691247D01*
X137532268Y-94691247D02*
X137484649Y-94643628D01*
X137484649Y-94643628D02*
X137437030Y-94548390D01*
X131734649Y-112203152D02*
X131734649Y-112869819D01*
X131972744Y-111822200D02*
X132210839Y-112536485D01*
X132210839Y-112536485D02*
X131591792Y-112536485D01*
X158056077Y-73869819D02*
X157722744Y-74869819D01*
X157722744Y-74869819D02*
X157389411Y-73869819D01*
X157056077Y-74488866D02*
X156294173Y-74488866D01*
X156675125Y-74869819D02*
X156675125Y-74107914D01*
X128806077Y-76369819D02*
X128472744Y-77369819D01*
X128472744Y-77369819D02*
X128139411Y-76369819D01*
X127806077Y-76988866D02*
X127044173Y-76988866D01*
X127425125Y-77369819D02*
X127425125Y-76607914D01*
X158210839Y-64572200D02*
X158067982Y-64619819D01*
X158067982Y-64619819D02*
X157829887Y-64619819D01*
X157829887Y-64619819D02*
X157734649Y-64572200D01*
X157734649Y-64572200D02*
X157687030Y-64524580D01*
X157687030Y-64524580D02*
X157639411Y-64429342D01*
X157639411Y-64429342D02*
X157639411Y-64334104D01*
X157639411Y-64334104D02*
X157687030Y-64238866D01*
X157687030Y-64238866D02*
X157734649Y-64191247D01*
X157734649Y-64191247D02*
X157829887Y-64143628D01*
X157829887Y-64143628D02*
X158020363Y-64096009D01*
X158020363Y-64096009D02*
X158115601Y-64048390D01*
X158115601Y-64048390D02*
X158163220Y-64000771D01*
X158163220Y-64000771D02*
X158210839Y-63905533D01*
X158210839Y-63905533D02*
X158210839Y-63810295D01*
X158210839Y-63810295D02*
X158163220Y-63715057D01*
X158163220Y-63715057D02*
X158115601Y-63667438D01*
X158115601Y-63667438D02*
X158020363Y-63619819D01*
X158020363Y-63619819D02*
X157782268Y-63619819D01*
X157782268Y-63619819D02*
X157639411Y-63667438D01*
X156639411Y-64524580D02*
X156687030Y-64572200D01*
X156687030Y-64572200D02*
X156829887Y-64619819D01*
X156829887Y-64619819D02*
X156925125Y-64619819D01*
X156925125Y-64619819D02*
X157067982Y-64572200D01*
X157067982Y-64572200D02*
X157163220Y-64476961D01*
X157163220Y-64476961D02*
X157210839Y-64381723D01*
X157210839Y-64381723D02*
X157258458Y-64191247D01*
X157258458Y-64191247D02*
X157258458Y-64048390D01*
X157258458Y-64048390D02*
X157210839Y-63857914D01*
X157210839Y-63857914D02*
X157163220Y-63762676D01*
X157163220Y-63762676D02*
X157067982Y-63667438D01*
X157067982Y-63667438D02*
X156925125Y-63619819D01*
X156925125Y-63619819D02*
X156829887Y-63619819D01*
X156829887Y-63619819D02*
X156687030Y-63667438D01*
X156687030Y-63667438D02*
X156639411Y-63715057D01*
X156210839Y-64619819D02*
X156210839Y-63619819D01*
X155639411Y-64619819D02*
X156067982Y-64048390D01*
X155639411Y-63619819D02*
X156210839Y-64191247D01*
X153651316Y-92215057D02*
X152889411Y-92215057D01*
X152127506Y-92119819D02*
X152698934Y-92119819D01*
X152413220Y-92119819D02*
X152413220Y-91119819D01*
X152413220Y-91119819D02*
X152508458Y-91262676D01*
X152508458Y-91262676D02*
X152603696Y-91357914D01*
X152603696Y-91357914D02*
X152698934Y-91405533D01*
X151222744Y-91119819D02*
X151698934Y-91119819D01*
X151698934Y-91119819D02*
X151746553Y-91596009D01*
X151746553Y-91596009D02*
X151698934Y-91548390D01*
X151698934Y-91548390D02*
X151603696Y-91500771D01*
X151603696Y-91500771D02*
X151365601Y-91500771D01*
X151365601Y-91500771D02*
X151270363Y-91548390D01*
X151270363Y-91548390D02*
X151222744Y-91596009D01*
X151222744Y-91596009D02*
X151175125Y-91691247D01*
X151175125Y-91691247D02*
X151175125Y-91929342D01*
X151175125Y-91929342D02*
X151222744Y-92024580D01*
X151222744Y-92024580D02*
X151270363Y-92072200D01*
X151270363Y-92072200D02*
X151365601Y-92119819D01*
X151365601Y-92119819D02*
X151603696Y-92119819D01*
X151603696Y-92119819D02*
X151698934Y-92072200D01*
X151698934Y-92072200D02*
X151746553Y-92024580D01*
X158056077Y-86369819D02*
X157722744Y-87369819D01*
X157722744Y-87369819D02*
X157389411Y-86369819D01*
X157056077Y-86988866D02*
X156294173Y-86988866D01*
X156675125Y-87369819D02*
X156675125Y-86607914D01*
X145556077Y-102119819D02*
X144984649Y-102119819D01*
X145270363Y-103119819D02*
X145270363Y-102119819D01*
X144746553Y-102119819D02*
X144079887Y-103119819D01*
X144079887Y-102119819D02*
X144746553Y-103119819D01*
X143746553Y-102215057D02*
X143698934Y-102167438D01*
X143698934Y-102167438D02*
X143603696Y-102119819D01*
X143603696Y-102119819D02*
X143365601Y-102119819D01*
X143365601Y-102119819D02*
X143270363Y-102167438D01*
X143270363Y-102167438D02*
X143222744Y-102215057D01*
X143222744Y-102215057D02*
X143175125Y-102310295D01*
X143175125Y-102310295D02*
X143175125Y-102405533D01*
X143175125Y-102405533D02*
X143222744Y-102548390D01*
X143222744Y-102548390D02*
X143794172Y-103119819D01*
X143794172Y-103119819D02*
X143175125Y-103119819D01*
X157591792Y-79869819D02*
X157925125Y-79393628D01*
X158163220Y-79869819D02*
X158163220Y-78869819D01*
X158163220Y-78869819D02*
X157782268Y-78869819D01*
X157782268Y-78869819D02*
X157687030Y-78917438D01*
X157687030Y-78917438D02*
X157639411Y-78965057D01*
X157639411Y-78965057D02*
X157591792Y-79060295D01*
X157591792Y-79060295D02*
X157591792Y-79203152D01*
X157591792Y-79203152D02*
X157639411Y-79298390D01*
X157639411Y-79298390D02*
X157687030Y-79346009D01*
X157687030Y-79346009D02*
X157782268Y-79393628D01*
X157782268Y-79393628D02*
X158163220Y-79393628D01*
X157210839Y-79822200D02*
X157067982Y-79869819D01*
X157067982Y-79869819D02*
X156829887Y-79869819D01*
X156829887Y-79869819D02*
X156734649Y-79822200D01*
X156734649Y-79822200D02*
X156687030Y-79774580D01*
X156687030Y-79774580D02*
X156639411Y-79679342D01*
X156639411Y-79679342D02*
X156639411Y-79584104D01*
X156639411Y-79584104D02*
X156687030Y-79488866D01*
X156687030Y-79488866D02*
X156734649Y-79441247D01*
X156734649Y-79441247D02*
X156829887Y-79393628D01*
X156829887Y-79393628D02*
X157020363Y-79346009D01*
X157020363Y-79346009D02*
X157115601Y-79298390D01*
X157115601Y-79298390D02*
X157163220Y-79250771D01*
X157163220Y-79250771D02*
X157210839Y-79155533D01*
X157210839Y-79155533D02*
X157210839Y-79060295D01*
X157210839Y-79060295D02*
X157163220Y-78965057D01*
X157163220Y-78965057D02*
X157115601Y-78917438D01*
X157115601Y-78917438D02*
X157020363Y-78869819D01*
X157020363Y-78869819D02*
X156782268Y-78869819D01*
X156782268Y-78869819D02*
X156639411Y-78917438D01*
X156353696Y-78869819D02*
X155782268Y-78869819D01*
X156067982Y-79869819D02*
X156067982Y-78869819D01*
X164960839Y-61215057D02*
X164913220Y-61167438D01*
X164913220Y-61167438D02*
X164817982Y-61119819D01*
X164817982Y-61119819D02*
X164579887Y-61119819D01*
X164579887Y-61119819D02*
X164484649Y-61167438D01*
X164484649Y-61167438D02*
X164437030Y-61215057D01*
X164437030Y-61215057D02*
X164389411Y-61310295D01*
X164389411Y-61310295D02*
X164389411Y-61405533D01*
X164389411Y-61405533D02*
X164437030Y-61548390D01*
X164437030Y-61548390D02*
X165008458Y-62119819D01*
X165008458Y-62119819D02*
X164389411Y-62119819D01*
X163484649Y-61119819D02*
X163960839Y-61119819D01*
X163960839Y-61119819D02*
X164008458Y-61596009D01*
X164008458Y-61596009D02*
X163960839Y-61548390D01*
X163960839Y-61548390D02*
X163865601Y-61500771D01*
X163865601Y-61500771D02*
X163627506Y-61500771D01*
X163627506Y-61500771D02*
X163532268Y-61548390D01*
X163532268Y-61548390D02*
X163484649Y-61596009D01*
X163484649Y-61596009D02*
X163437030Y-61691247D01*
X163437030Y-61691247D02*
X163437030Y-61929342D01*
X163437030Y-61929342D02*
X163484649Y-62024580D01*
X163484649Y-62024580D02*
X163532268Y-62072200D01*
X163532268Y-62072200D02*
X163627506Y-62119819D01*
X163627506Y-62119819D02*
X163865601Y-62119819D01*
X163865601Y-62119819D02*
X163960839Y-62072200D01*
X163960839Y-62072200D02*
X164008458Y-62024580D01*
X150556077Y-71369819D02*
X150222744Y-72369819D01*
X150222744Y-72369819D02*
X149889411Y-71369819D01*
X149556077Y-71988866D02*
X148794173Y-71988866D01*
X144151316Y-123215057D02*
X143389411Y-123215057D01*
X142627506Y-123119819D02*
X143198934Y-123119819D01*
X142913220Y-123119819D02*
X142913220Y-122119819D01*
X142913220Y-122119819D02*
X143008458Y-122262676D01*
X143008458Y-122262676D02*
X143103696Y-122357914D01*
X143103696Y-122357914D02*
X143198934Y-122405533D01*
X141722744Y-122119819D02*
X142198934Y-122119819D01*
X142198934Y-122119819D02*
X142246553Y-122596009D01*
X142246553Y-122596009D02*
X142198934Y-122548390D01*
X142198934Y-122548390D02*
X142103696Y-122500771D01*
X142103696Y-122500771D02*
X141865601Y-122500771D01*
X141865601Y-122500771D02*
X141770363Y-122548390D01*
X141770363Y-122548390D02*
X141722744Y-122596009D01*
X141722744Y-122596009D02*
X141675125Y-122691247D01*
X141675125Y-122691247D02*
X141675125Y-122929342D01*
X141675125Y-122929342D02*
X141722744Y-123024580D01*
X141722744Y-123024580D02*
X141770363Y-123072200D01*
X141770363Y-123072200D02*
X141865601Y-123119819D01*
X141865601Y-123119819D02*
X142103696Y-123119819D01*
X142103696Y-123119819D02*
X142198934Y-123072200D01*
X142198934Y-123072200D02*
X142246553Y-123024580D01*
X139008458Y-104369819D02*
X138389411Y-104369819D01*
X138389411Y-104369819D02*
X138722744Y-104750771D01*
X138722744Y-104750771D02*
X138579887Y-104750771D01*
X138579887Y-104750771D02*
X138484649Y-104798390D01*
X138484649Y-104798390D02*
X138437030Y-104846009D01*
X138437030Y-104846009D02*
X138389411Y-104941247D01*
X138389411Y-104941247D02*
X138389411Y-105179342D01*
X138389411Y-105179342D02*
X138437030Y-105274580D01*
X138437030Y-105274580D02*
X138484649Y-105322200D01*
X138484649Y-105322200D02*
X138579887Y-105369819D01*
X138579887Y-105369819D02*
X138865601Y-105369819D01*
X138865601Y-105369819D02*
X138960839Y-105322200D01*
X138960839Y-105322200D02*
X139008458Y-105274580D01*
X138008458Y-104465057D02*
X137960839Y-104417438D01*
X137960839Y-104417438D02*
X137865601Y-104369819D01*
X137865601Y-104369819D02*
X137627506Y-104369819D01*
X137627506Y-104369819D02*
X137532268Y-104417438D01*
X137532268Y-104417438D02*
X137484649Y-104465057D01*
X137484649Y-104465057D02*
X137437030Y-104560295D01*
X137437030Y-104560295D02*
X137437030Y-104655533D01*
X137437030Y-104655533D02*
X137484649Y-104798390D01*
X137484649Y-104798390D02*
X138056077Y-105369819D01*
X138056077Y-105369819D02*
X137437030Y-105369819D01*
X132056077Y-114369819D02*
X131722744Y-115369819D01*
X131722744Y-115369819D02*
X131389411Y-114369819D01*
X131056077Y-114988866D02*
X130294173Y-114988866D01*
X138806077Y-132119819D02*
X138472744Y-133119819D01*
X138472744Y-133119819D02*
X138139411Y-132119819D01*
X137806077Y-132738866D02*
X137044173Y-132738866D01*
X131972744Y-99119819D02*
X131877506Y-99119819D01*
X131877506Y-99119819D02*
X131782268Y-99167438D01*
X131782268Y-99167438D02*
X131734649Y-99215057D01*
X131734649Y-99215057D02*
X131687030Y-99310295D01*
X131687030Y-99310295D02*
X131639411Y-99500771D01*
X131639411Y-99500771D02*
X131639411Y-99738866D01*
X131639411Y-99738866D02*
X131687030Y-99929342D01*
X131687030Y-99929342D02*
X131734649Y-100024580D01*
X131734649Y-100024580D02*
X131782268Y-100072200D01*
X131782268Y-100072200D02*
X131877506Y-100119819D01*
X131877506Y-100119819D02*
X131972744Y-100119819D01*
X131972744Y-100119819D02*
X132067982Y-100072200D01*
X132067982Y-100072200D02*
X132115601Y-100024580D01*
X132115601Y-100024580D02*
X132163220Y-99929342D01*
X132163220Y-99929342D02*
X132210839Y-99738866D01*
X132210839Y-99738866D02*
X132210839Y-99500771D01*
X132210839Y-99500771D02*
X132163220Y-99310295D01*
X132163220Y-99310295D02*
X132115601Y-99215057D01*
X132115601Y-99215057D02*
X132067982Y-99167438D01*
X132067982Y-99167438D02*
X131972744Y-99119819D01*
X141913220Y-56869819D02*
X141913220Y-55869819D01*
X141913220Y-55869819D02*
X141675125Y-55869819D01*
X141675125Y-55869819D02*
X141532268Y-55917438D01*
X141532268Y-55917438D02*
X141437030Y-56012676D01*
X141437030Y-56012676D02*
X141389411Y-56107914D01*
X141389411Y-56107914D02*
X141341792Y-56298390D01*
X141341792Y-56298390D02*
X141341792Y-56441247D01*
X141341792Y-56441247D02*
X141389411Y-56631723D01*
X141389411Y-56631723D02*
X141437030Y-56726961D01*
X141437030Y-56726961D02*
X141532268Y-56822200D01*
X141532268Y-56822200D02*
X141675125Y-56869819D01*
X141675125Y-56869819D02*
X141913220Y-56869819D01*
X140960839Y-55965057D02*
X140913220Y-55917438D01*
X140913220Y-55917438D02*
X140817982Y-55869819D01*
X140817982Y-55869819D02*
X140579887Y-55869819D01*
X140579887Y-55869819D02*
X140484649Y-55917438D01*
X140484649Y-55917438D02*
X140437030Y-55965057D01*
X140437030Y-55965057D02*
X140389411Y-56060295D01*
X140389411Y-56060295D02*
X140389411Y-56155533D01*
X140389411Y-56155533D02*
X140437030Y-56298390D01*
X140437030Y-56298390D02*
X141008458Y-56869819D01*
X141008458Y-56869819D02*
X140389411Y-56869819D01*
X165008458Y-132119819D02*
X164389411Y-132119819D01*
X164389411Y-132119819D02*
X164722744Y-132500771D01*
X164722744Y-132500771D02*
X164579887Y-132500771D01*
X164579887Y-132500771D02*
X164484649Y-132548390D01*
X164484649Y-132548390D02*
X164437030Y-132596009D01*
X164437030Y-132596009D02*
X164389411Y-132691247D01*
X164389411Y-132691247D02*
X164389411Y-132929342D01*
X164389411Y-132929342D02*
X164437030Y-133024580D01*
X164437030Y-133024580D02*
X164484649Y-133072200D01*
X164484649Y-133072200D02*
X164579887Y-133119819D01*
X164579887Y-133119819D02*
X164865601Y-133119819D01*
X164865601Y-133119819D02*
X164960839Y-133072200D01*
X164960839Y-133072200D02*
X165008458Y-133024580D01*
X164008458Y-132215057D02*
X163960839Y-132167438D01*
X163960839Y-132167438D02*
X163865601Y-132119819D01*
X163865601Y-132119819D02*
X163627506Y-132119819D01*
X163627506Y-132119819D02*
X163532268Y-132167438D01*
X163532268Y-132167438D02*
X163484649Y-132215057D01*
X163484649Y-132215057D02*
X163437030Y-132310295D01*
X163437030Y-132310295D02*
X163437030Y-132405533D01*
X163437030Y-132405533D02*
X163484649Y-132548390D01*
X163484649Y-132548390D02*
X164056077Y-133119819D01*
X164056077Y-133119819D02*
X163437030Y-133119819D01*
X132056077Y-104369819D02*
X131722744Y-105369819D01*
X131722744Y-105369819D02*
X131389411Y-104369819D01*
X131056077Y-104988866D02*
X130294173Y-104988866D01*
X153091792Y-135119819D02*
X153425125Y-134643628D01*
X153663220Y-135119819D02*
X153663220Y-134119819D01*
X153663220Y-134119819D02*
X153282268Y-134119819D01*
X153282268Y-134119819D02*
X153187030Y-134167438D01*
X153187030Y-134167438D02*
X153139411Y-134215057D01*
X153139411Y-134215057D02*
X153091792Y-134310295D01*
X153091792Y-134310295D02*
X153091792Y-134453152D01*
X153091792Y-134453152D02*
X153139411Y-134548390D01*
X153139411Y-134548390D02*
X153187030Y-134596009D01*
X153187030Y-134596009D02*
X153282268Y-134643628D01*
X153282268Y-134643628D02*
X153663220Y-134643628D01*
X152710839Y-135072200D02*
X152567982Y-135119819D01*
X152567982Y-135119819D02*
X152329887Y-135119819D01*
X152329887Y-135119819D02*
X152234649Y-135072200D01*
X152234649Y-135072200D02*
X152187030Y-135024580D01*
X152187030Y-135024580D02*
X152139411Y-134929342D01*
X152139411Y-134929342D02*
X152139411Y-134834104D01*
X152139411Y-134834104D02*
X152187030Y-134738866D01*
X152187030Y-134738866D02*
X152234649Y-134691247D01*
X152234649Y-134691247D02*
X152329887Y-134643628D01*
X152329887Y-134643628D02*
X152520363Y-134596009D01*
X152520363Y-134596009D02*
X152615601Y-134548390D01*
X152615601Y-134548390D02*
X152663220Y-134500771D01*
X152663220Y-134500771D02*
X152710839Y-134405533D01*
X152710839Y-134405533D02*
X152710839Y-134310295D01*
X152710839Y-134310295D02*
X152663220Y-134215057D01*
X152663220Y-134215057D02*
X152615601Y-134167438D01*
X152615601Y-134167438D02*
X152520363Y-134119819D01*
X152520363Y-134119819D02*
X152282268Y-134119819D01*
X152282268Y-134119819D02*
X152139411Y-134167438D01*
X151853696Y-134119819D02*
X151282268Y-134119819D01*
X151567982Y-135119819D02*
X151567982Y-134119819D01*
X132056077Y-94119819D02*
X131722744Y-95119819D01*
X131722744Y-95119819D02*
X131389411Y-94119819D01*
X131056077Y-94738866D02*
X130294173Y-94738866D01*
X130675125Y-95119819D02*
X130675125Y-94357914D01*
X158056077Y-91619819D02*
X157722744Y-92619819D01*
X157722744Y-92619819D02*
X157389411Y-91619819D01*
X157056077Y-92238866D02*
X156294173Y-92238866D01*
X156675125Y-92619819D02*
X156675125Y-91857914D01*
X143163220Y-129119819D02*
X143163220Y-128119819D01*
X143163220Y-128119819D02*
X142925125Y-128119819D01*
X142925125Y-128119819D02*
X142782268Y-128167438D01*
X142782268Y-128167438D02*
X142687030Y-128262676D01*
X142687030Y-128262676D02*
X142639411Y-128357914D01*
X142639411Y-128357914D02*
X142591792Y-128548390D01*
X142591792Y-128548390D02*
X142591792Y-128691247D01*
X142591792Y-128691247D02*
X142639411Y-128881723D01*
X142639411Y-128881723D02*
X142687030Y-128976961D01*
X142687030Y-128976961D02*
X142782268Y-129072200D01*
X142782268Y-129072200D02*
X142925125Y-129119819D01*
X142925125Y-129119819D02*
X143163220Y-129119819D01*
X141734649Y-128453152D02*
X141734649Y-129119819D01*
X141972744Y-128072200D02*
X142210839Y-128786485D01*
X142210839Y-128786485D02*
X141591792Y-128786485D01*
X158056077Y-40869819D02*
X157722744Y-41869819D01*
X157722744Y-41869819D02*
X157389411Y-40869819D01*
X157056077Y-41488866D02*
X156294173Y-41488866D01*
X142901316Y-67215057D02*
X142139411Y-67215057D01*
X141377506Y-67119819D02*
X141948934Y-67119819D01*
X141663220Y-67119819D02*
X141663220Y-66119819D01*
X141663220Y-66119819D02*
X141758458Y-66262676D01*
X141758458Y-66262676D02*
X141853696Y-66357914D01*
X141853696Y-66357914D02*
X141948934Y-66405533D01*
X140520363Y-66119819D02*
X140710839Y-66119819D01*
X140710839Y-66119819D02*
X140806077Y-66167438D01*
X140806077Y-66167438D02*
X140853696Y-66215057D01*
X140853696Y-66215057D02*
X140948934Y-66357914D01*
X140948934Y-66357914D02*
X140996553Y-66548390D01*
X140996553Y-66548390D02*
X140996553Y-66929342D01*
X140996553Y-66929342D02*
X140948934Y-67024580D01*
X140948934Y-67024580D02*
X140901315Y-67072200D01*
X140901315Y-67072200D02*
X140806077Y-67119819D01*
X140806077Y-67119819D02*
X140615601Y-67119819D01*
X140615601Y-67119819D02*
X140520363Y-67072200D01*
X140520363Y-67072200D02*
X140472744Y-67024580D01*
X140472744Y-67024580D02*
X140425125Y-66929342D01*
X140425125Y-66929342D02*
X140425125Y-66691247D01*
X140425125Y-66691247D02*
X140472744Y-66596009D01*
X140472744Y-66596009D02*
X140520363Y-66548390D01*
X140520363Y-66548390D02*
X140615601Y-66500771D01*
X140615601Y-66500771D02*
X140806077Y-66500771D01*
X140806077Y-66500771D02*
X140901315Y-66548390D01*
X140901315Y-66548390D02*
X140948934Y-66596009D01*
X140948934Y-66596009D02*
X140996553Y-66691247D01*
X132306077Y-40869819D02*
X131972744Y-41869819D01*
X131972744Y-41869819D02*
X131639411Y-40869819D01*
X131306077Y-41488866D02*
X130544173Y-41488866D01*
X138960839Y-114465057D02*
X138913220Y-114417438D01*
X138913220Y-114417438D02*
X138817982Y-114369819D01*
X138817982Y-114369819D02*
X138579887Y-114369819D01*
X138579887Y-114369819D02*
X138484649Y-114417438D01*
X138484649Y-114417438D02*
X138437030Y-114465057D01*
X138437030Y-114465057D02*
X138389411Y-114560295D01*
X138389411Y-114560295D02*
X138389411Y-114655533D01*
X138389411Y-114655533D02*
X138437030Y-114798390D01*
X138437030Y-114798390D02*
X139008458Y-115369819D01*
X139008458Y-115369819D02*
X138389411Y-115369819D01*
X138056077Y-114369819D02*
X137389411Y-114369819D01*
X137389411Y-114369819D02*
X137817982Y-115369819D01*
X132163220Y-82369819D02*
X132163220Y-81369819D01*
X132163220Y-81369819D02*
X131829887Y-82084104D01*
X131829887Y-82084104D02*
X131496554Y-81369819D01*
X131496554Y-81369819D02*
X131496554Y-82369819D01*
X131020363Y-82369819D02*
X131020363Y-81369819D01*
X130591792Y-82322200D02*
X130448935Y-82369819D01*
X130448935Y-82369819D02*
X130210840Y-82369819D01*
X130210840Y-82369819D02*
X130115602Y-82322200D01*
X130115602Y-82322200D02*
X130067983Y-82274580D01*
X130067983Y-82274580D02*
X130020364Y-82179342D01*
X130020364Y-82179342D02*
X130020364Y-82084104D01*
X130020364Y-82084104D02*
X130067983Y-81988866D01*
X130067983Y-81988866D02*
X130115602Y-81941247D01*
X130115602Y-81941247D02*
X130210840Y-81893628D01*
X130210840Y-81893628D02*
X130401316Y-81846009D01*
X130401316Y-81846009D02*
X130496554Y-81798390D01*
X130496554Y-81798390D02*
X130544173Y-81750771D01*
X130544173Y-81750771D02*
X130591792Y-81655533D01*
X130591792Y-81655533D02*
X130591792Y-81560295D01*
X130591792Y-81560295D02*
X130544173Y-81465057D01*
X130544173Y-81465057D02*
X130496554Y-81417438D01*
X130496554Y-81417438D02*
X130401316Y-81369819D01*
X130401316Y-81369819D02*
X130163221Y-81369819D01*
X130163221Y-81369819D02*
X130020364Y-81417438D01*
X129401316Y-81369819D02*
X129210840Y-81369819D01*
X129210840Y-81369819D02*
X129115602Y-81417438D01*
X129115602Y-81417438D02*
X129020364Y-81512676D01*
X129020364Y-81512676D02*
X128972745Y-81703152D01*
X128972745Y-81703152D02*
X128972745Y-82036485D01*
X128972745Y-82036485D02*
X129020364Y-82226961D01*
X129020364Y-82226961D02*
X129115602Y-82322200D01*
X129115602Y-82322200D02*
X129210840Y-82369819D01*
X129210840Y-82369819D02*
X129401316Y-82369819D01*
X129401316Y-82369819D02*
X129496554Y-82322200D01*
X129496554Y-82322200D02*
X129591792Y-82226961D01*
X129591792Y-82226961D02*
X129639411Y-82036485D01*
X129639411Y-82036485D02*
X129639411Y-81703152D01*
X129639411Y-81703152D02*
X129591792Y-81512676D01*
X129591792Y-81512676D02*
X129496554Y-81417438D01*
X129496554Y-81417438D02*
X129401316Y-81369819D01*
X165008458Y-53369819D02*
X164389411Y-53369819D01*
X164389411Y-53369819D02*
X164722744Y-53750771D01*
X164722744Y-53750771D02*
X164579887Y-53750771D01*
X164579887Y-53750771D02*
X164484649Y-53798390D01*
X164484649Y-53798390D02*
X164437030Y-53846009D01*
X164437030Y-53846009D02*
X164389411Y-53941247D01*
X164389411Y-53941247D02*
X164389411Y-54179342D01*
X164389411Y-54179342D02*
X164437030Y-54274580D01*
X164437030Y-54274580D02*
X164484649Y-54322200D01*
X164484649Y-54322200D02*
X164579887Y-54369819D01*
X164579887Y-54369819D02*
X164865601Y-54369819D01*
X164865601Y-54369819D02*
X164960839Y-54322200D01*
X164960839Y-54322200D02*
X165008458Y-54274580D01*
X164008458Y-53465057D02*
X163960839Y-53417438D01*
X163960839Y-53417438D02*
X163865601Y-53369819D01*
X163865601Y-53369819D02*
X163627506Y-53369819D01*
X163627506Y-53369819D02*
X163532268Y-53417438D01*
X163532268Y-53417438D02*
X163484649Y-53465057D01*
X163484649Y-53465057D02*
X163437030Y-53560295D01*
X163437030Y-53560295D02*
X163437030Y-53655533D01*
X163437030Y-53655533D02*
X163484649Y-53798390D01*
X163484649Y-53798390D02*
X164056077Y-54369819D01*
X164056077Y-54369819D02*
X163437030Y-54369819D01*
X165008458Y-114369819D02*
X164389411Y-114369819D01*
X164389411Y-114369819D02*
X164722744Y-114750771D01*
X164722744Y-114750771D02*
X164579887Y-114750771D01*
X164579887Y-114750771D02*
X164484649Y-114798390D01*
X164484649Y-114798390D02*
X164437030Y-114846009D01*
X164437030Y-114846009D02*
X164389411Y-114941247D01*
X164389411Y-114941247D02*
X164389411Y-115179342D01*
X164389411Y-115179342D02*
X164437030Y-115274580D01*
X164437030Y-115274580D02*
X164484649Y-115322200D01*
X164484649Y-115322200D02*
X164579887Y-115369819D01*
X164579887Y-115369819D02*
X164865601Y-115369819D01*
X164865601Y-115369819D02*
X164960839Y-115322200D01*
X164960839Y-115322200D02*
X165008458Y-115274580D01*
X164056077Y-114369819D02*
X163437030Y-114369819D01*
X163437030Y-114369819D02*
X163770363Y-114750771D01*
X163770363Y-114750771D02*
X163627506Y-114750771D01*
X163627506Y-114750771D02*
X163532268Y-114798390D01*
X163532268Y-114798390D02*
X163484649Y-114846009D01*
X163484649Y-114846009D02*
X163437030Y-114941247D01*
X163437030Y-114941247D02*
X163437030Y-115179342D01*
X163437030Y-115179342D02*
X163484649Y-115274580D01*
X163484649Y-115274580D02*
X163532268Y-115322200D01*
X163532268Y-115322200D02*
X163627506Y-115369819D01*
X163627506Y-115369819D02*
X163913220Y-115369819D01*
X163913220Y-115369819D02*
X164008458Y-115322200D01*
X164008458Y-115322200D02*
X164056077Y-115274580D01*
X165008458Y-71119819D02*
X164389411Y-71119819D01*
X164389411Y-71119819D02*
X164722744Y-71500771D01*
X164722744Y-71500771D02*
X164579887Y-71500771D01*
X164579887Y-71500771D02*
X164484649Y-71548390D01*
X164484649Y-71548390D02*
X164437030Y-71596009D01*
X164437030Y-71596009D02*
X164389411Y-71691247D01*
X164389411Y-71691247D02*
X164389411Y-71929342D01*
X164389411Y-71929342D02*
X164437030Y-72024580D01*
X164437030Y-72024580D02*
X164484649Y-72072200D01*
X164484649Y-72072200D02*
X164579887Y-72119819D01*
X164579887Y-72119819D02*
X164865601Y-72119819D01*
X164865601Y-72119819D02*
X164960839Y-72072200D01*
X164960839Y-72072200D02*
X165008458Y-72024580D01*
X164056077Y-71119819D02*
X163437030Y-71119819D01*
X163437030Y-71119819D02*
X163770363Y-71500771D01*
X163770363Y-71500771D02*
X163627506Y-71500771D01*
X163627506Y-71500771D02*
X163532268Y-71548390D01*
X163532268Y-71548390D02*
X163484649Y-71596009D01*
X163484649Y-71596009D02*
X163437030Y-71691247D01*
X163437030Y-71691247D02*
X163437030Y-71929342D01*
X163437030Y-71929342D02*
X163484649Y-72024580D01*
X163484649Y-72024580D02*
X163532268Y-72072200D01*
X163532268Y-72072200D02*
X163627506Y-72119819D01*
X163627506Y-72119819D02*
X163913220Y-72119819D01*
X163913220Y-72119819D02*
X164008458Y-72072200D01*
X164008458Y-72072200D02*
X164056077Y-72024580D01*
X131734649Y-101953152D02*
X131734649Y-102619819D01*
X131972744Y-101572200D02*
X132210839Y-102286485D01*
X132210839Y-102286485D02*
X131591792Y-102286485D01*
X138806077Y-38119819D02*
X138472744Y-39119819D01*
X138472744Y-39119819D02*
X138139411Y-38119819D01*
X137806077Y-38738866D02*
X137044173Y-38738866D01*
X137425125Y-39119819D02*
X137425125Y-38357914D01*
%LPC*%
D11*
X154686000Y-115062000D03*
D12*
X154686000Y-112522000D03*
D11*
X139446000Y-38557200D03*
D12*
X139446000Y-41097200D03*
X139446000Y-43637200D03*
X139446000Y-46177200D03*
X139446000Y-48717200D03*
X139446000Y-51257200D03*
X139446000Y-53797200D03*
X139446000Y-56337200D03*
X139446000Y-58877200D03*
X139446000Y-61417200D03*
X139446000Y-63957200D03*
X139446000Y-66497200D03*
X139446000Y-69037200D03*
X139446000Y-71577200D03*
X139446000Y-74117200D03*
D11*
X133315000Y-38590000D03*
D12*
X133315000Y-41130000D03*
X133315000Y-43670000D03*
X133315000Y-46210000D03*
X133315000Y-48750000D03*
X133315000Y-51290000D03*
X133315000Y-53830000D03*
X133315000Y-56370000D03*
X133315000Y-58910000D03*
X133315000Y-61450000D03*
X133315000Y-63990000D03*
X133315000Y-66530000D03*
X133315000Y-69070000D03*
X133315000Y-71610000D03*
X133315000Y-74150000D03*
X133315000Y-76690000D03*
X133315000Y-79230000D03*
X133315000Y-81770000D03*
X133315000Y-84310000D03*
X133315000Y-86850000D03*
X133315000Y-89390000D03*
X133315000Y-91930000D03*
X133315000Y-94470000D03*
X133315000Y-97010000D03*
X133315000Y-99550000D03*
X133315000Y-102090000D03*
X133315000Y-104630000D03*
X133315000Y-107170000D03*
X133315000Y-109710000D03*
X133315000Y-112250000D03*
X133315000Y-114790000D03*
X133315000Y-117330000D03*
X133315000Y-119870000D03*
X133315000Y-122410000D03*
X133315000Y-124950000D03*
X133315000Y-127490000D03*
X133315000Y-130030000D03*
X133315000Y-132570000D03*
X133315000Y-135110000D03*
D11*
X162340000Y-38590000D03*
D12*
X162340000Y-41130000D03*
X162340000Y-43670000D03*
X162340000Y-46210000D03*
X162340000Y-48750000D03*
X162340000Y-51290000D03*
X162340000Y-53830000D03*
X162340000Y-56370000D03*
X162340000Y-58910000D03*
X162340000Y-61450000D03*
X162340000Y-63990000D03*
X162340000Y-66530000D03*
X162340000Y-69070000D03*
X162340000Y-71610000D03*
X162340000Y-74150000D03*
X162340000Y-76690000D03*
X162340000Y-79230000D03*
X162340000Y-81770000D03*
X162340000Y-84310000D03*
X162340000Y-86850000D03*
X162340000Y-89390000D03*
X162340000Y-91930000D03*
X162340000Y-94470000D03*
X162340000Y-97010000D03*
X162340000Y-99550000D03*
X162340000Y-102090000D03*
X162340000Y-104630000D03*
X162340000Y-107170000D03*
X162340000Y-109710000D03*
X162340000Y-112250000D03*
X162340000Y-114790000D03*
X162340000Y-117330000D03*
X162340000Y-119870000D03*
X162340000Y-122410000D03*
X162340000Y-124950000D03*
X162340000Y-127490000D03*
X162340000Y-130030000D03*
X162340000Y-132570000D03*
X162340000Y-135110000D03*
D13*
X144526000Y-100838000D03*
D14*
X147066000Y-100838000D03*
X149606000Y-100838000D03*
X152146000Y-100838000D03*
X152146000Y-93218000D03*
X149606000Y-93218000D03*
X147066000Y-93218000D03*
X144526000Y-93218000D03*
D15*
X141742000Y-110744000D03*
D16*
X149342000Y-110744000D03*
D17*
X128750000Y-57000000D03*
D18*
X128750000Y-55730000D03*
X128750000Y-54460000D03*
D19*
X145622000Y-75042000D03*
X150622000Y-75042000D03*
D15*
X145622000Y-89542000D03*
D16*
X150622000Y-89542000D03*
X148122000Y-89542000D03*
D20*
X142522000Y-82042000D03*
X153722000Y-82042000D03*
D11*
X146558000Y-132108000D03*
D12*
X149098000Y-132108000D03*
D11*
X129500000Y-66470000D03*
D12*
X129500000Y-69010000D03*
X129500000Y-71550000D03*
X129500000Y-74090000D03*
X129500000Y-76630000D03*
X129500000Y-79170000D03*
X129500000Y-81710000D03*
X129500000Y-84250000D03*
X129500000Y-86790000D03*
X129500000Y-89330000D03*
D21*
X154798000Y-134568000D03*
X154798000Y-132568000D03*
X154798000Y-130568000D03*
X154798000Y-128568000D03*
X154798000Y-126568000D03*
X154798000Y-124568000D03*
X154798000Y-122568000D03*
X154798000Y-120568000D03*
X140804000Y-134568000D03*
X140804000Y-132568000D03*
X140804000Y-130568000D03*
X140804000Y-128568000D03*
X140804000Y-126568000D03*
X140804000Y-124568000D03*
X140804000Y-122568000D03*
X140804000Y-120568000D03*
D11*
X154686000Y-107696000D03*
D12*
X154686000Y-105156000D03*
D13*
X144526000Y-46228000D03*
D14*
X147066000Y-46228000D03*
X149606000Y-46228000D03*
X152146000Y-46228000D03*
X152146000Y-38608000D03*
X149606000Y-38608000D03*
X147066000Y-38608000D03*
X144526000Y-38608000D03*
D11*
X146558000Y-127508000D03*
D12*
X149098000Y-127508000D03*
D13*
X129000000Y-62750000D03*
D22*
X129000000Y-60750000D03*
D11*
X146558000Y-122428000D03*
D12*
X149098000Y-122428000D03*
D23*
X145836000Y-62882000D03*
X145836000Y-50382000D03*
X150836000Y-62882000D03*
X150836000Y-50382000D03*
D16*
X151535200Y-71846000D03*
X145035200Y-71846000D03*
X151535200Y-67346000D03*
X145035200Y-67346000D03*
D11*
X136398000Y-38608000D03*
D12*
X136398000Y-41148000D03*
X136398000Y-43688000D03*
X136398000Y-46228000D03*
X136398000Y-48768000D03*
X136398000Y-51308000D03*
X136398000Y-53848000D03*
X136398000Y-56388000D03*
X136398000Y-58928000D03*
X136398000Y-61468000D03*
X136398000Y-64008000D03*
X136398000Y-66548000D03*
X136398000Y-69088000D03*
X136398000Y-71628000D03*
X136398000Y-74168000D03*
X136398000Y-76708000D03*
X136398000Y-79248000D03*
X136398000Y-81788000D03*
X136398000Y-84328000D03*
X136398000Y-86868000D03*
X136398000Y-89408000D03*
X136398000Y-91948000D03*
X136398000Y-94488000D03*
X136398000Y-97028000D03*
X136398000Y-99568000D03*
X136398000Y-102108000D03*
X136398000Y-104648000D03*
X136398000Y-107188000D03*
X136398000Y-109728000D03*
X136398000Y-112268000D03*
X136398000Y-114808000D03*
X136398000Y-117348000D03*
X136398000Y-119888000D03*
X136398000Y-122428000D03*
X136398000Y-124968000D03*
X136398000Y-127508000D03*
X136398000Y-130048000D03*
X136398000Y-132588000D03*
X136398000Y-135128000D03*
D11*
X159258000Y-38608000D03*
D12*
X159258000Y-41148000D03*
X159258000Y-43688000D03*
X159258000Y-46228000D03*
X159258000Y-48768000D03*
X159258000Y-51308000D03*
X159258000Y-53848000D03*
X159258000Y-56388000D03*
X159258000Y-58928000D03*
X159258000Y-61468000D03*
X159258000Y-64008000D03*
X159258000Y-66548000D03*
X159258000Y-69088000D03*
X159258000Y-71628000D03*
X159258000Y-74168000D03*
X159258000Y-76708000D03*
X159258000Y-79248000D03*
X159258000Y-81788000D03*
X159258000Y-84328000D03*
X159258000Y-86868000D03*
X159258000Y-89408000D03*
X159258000Y-91948000D03*
X159258000Y-94488000D03*
X159258000Y-97028000D03*
X159258000Y-99568000D03*
X159258000Y-102108000D03*
X159258000Y-104648000D03*
X159258000Y-107188000D03*
X159258000Y-109728000D03*
X159258000Y-112268000D03*
X159258000Y-114808000D03*
X159258000Y-117348000D03*
X159258000Y-119888000D03*
X159258000Y-122428000D03*
X159258000Y-124968000D03*
X159258000Y-127508000D03*
X159258000Y-130048000D03*
X159258000Y-132588000D03*
X159258000Y-135128000D03*
%LPD*%
M02*
