M48
; DRILL file {KiCad 7.0.7} date Wed Sep 13 10:23:36 2023
; FORMAT={-:-/ absolute / metric / decimal}
; #@! TF.CreationDate,2023-09-13T10:23:36-04:00
; #@! TF.GenerationSoftware,Kicad,Pcbnew,7.0.7
; #@! TF.FileFunction,Plated,1,2,PTH
FMAT,2
METRIC
; #@! TA.AperFunction,Plated,PTH,ViaDrill
T1C0.400
; #@! TA.AperFunction,Plated,PTH,ComponentDrill
T2C0.750
; #@! TA.AperFunction,Plated,PTH,ComponentDrill
T3C0.800
; #@! TA.AperFunction,Plated,PTH,ComponentDrill
T4C1.000
; #@! TA.AperFunction,Plated,PTH,ComponentDrill
T5C1.100
; #@! TA.AperFunction,Plated,PTH,ComponentDrill
T6C1.300
; #@! TA.AperFunction,Plated,PTH,ComponentDrill
T7C1.500
%
G90
G05
T1
X132.08Y-96.0
X137.7Y-131.0
X139.549Y-110.75
X139.69Y-85.19
X139.9Y-115.3
X140.3Y-117.45
X141.3Y-118.0
X142.7Y-118.9
X143.307Y-99.314
X143.756Y-129.284
X144.272Y-134.174
X147.232Y-124.46
X147.685Y-119.915
X148.598Y-118.502
X149.5Y-55.792
X151.576Y-102.362
X151.829Y-129.6
X151.892Y-91.186
X152.0Y-124.3
X152.059Y-59.655
X152.25Y-118.0
X152.4Y-135.3
X153.25Y-118.0
X153.332Y-65.278
X153.732Y-64.008
X154.494Y-77.0
X155.685Y-60.28
X155.892Y-59.302
X156.508Y-57.912
X156.718Y-56.896
X157.25Y-113.75
X158.242Y-93.218
X160.48Y-103.308
X164.147Y-95.758
T2
X128.75Y-54.46
X128.75Y-55.73
X128.75Y-57.0
T3
X129.0Y-60.75
X129.0Y-62.75
X140.804Y-120.568
X140.804Y-122.568
X140.804Y-124.568
X140.804Y-126.568
X140.804Y-128.568
X140.804Y-130.568
X140.804Y-132.568
X140.804Y-134.568
X144.526Y-38.608
X144.526Y-46.228
X144.526Y-93.218
X144.526Y-100.838
X147.066Y-38.608
X147.066Y-46.228
X147.066Y-93.218
X147.066Y-100.838
X149.606Y-38.608
X149.606Y-46.228
X149.606Y-93.218
X149.606Y-100.838
X152.146Y-38.608
X152.146Y-46.228
X152.146Y-93.218
X152.146Y-100.838
X154.798Y-120.568
X154.798Y-122.568
X154.798Y-124.568
X154.798Y-126.568
X154.798Y-128.568
X154.798Y-130.568
X154.798Y-132.568
X154.798Y-134.568
T4
X129.5Y-66.47
X129.5Y-69.01
X129.5Y-71.55
X129.5Y-74.09
X129.5Y-76.63
X129.5Y-79.17
X129.5Y-81.71
X129.5Y-84.25
X129.5Y-86.79
X129.5Y-89.33
X133.315Y-38.59
X133.315Y-41.13
X133.315Y-43.67
X133.315Y-46.21
X133.315Y-48.75
X133.315Y-51.29
X133.315Y-53.83
X133.315Y-56.37
X133.315Y-58.91
X133.315Y-61.45
X133.315Y-63.99
X133.315Y-66.53
X133.315Y-69.07
X133.315Y-71.61
X133.315Y-74.15
X133.315Y-76.69
X133.315Y-79.23
X133.315Y-81.77
X133.315Y-84.31
X133.315Y-86.85
X133.315Y-89.39
X133.315Y-91.93
X133.315Y-94.47
X133.315Y-97.01
X133.315Y-99.55
X133.315Y-102.09
X133.315Y-104.63
X133.315Y-107.17
X133.315Y-109.71
X133.315Y-112.25
X133.315Y-114.79
X133.315Y-117.33
X133.315Y-119.87
X133.315Y-122.41
X133.315Y-124.95
X133.315Y-127.49
X133.315Y-130.03
X133.315Y-132.57
X133.315Y-135.11
X136.398Y-38.608
X136.398Y-41.148
X136.398Y-43.688
X136.398Y-46.228
X136.398Y-48.768
X136.398Y-51.308
X136.398Y-53.848
X136.398Y-56.388
X136.398Y-58.928
X136.398Y-61.468
X136.398Y-64.008
X136.398Y-66.548
X136.398Y-69.088
X136.398Y-71.628
X136.398Y-74.168
X136.398Y-76.708
X136.398Y-79.248
X136.398Y-81.788
X136.398Y-84.328
X136.398Y-86.868
X136.398Y-89.408
X136.398Y-91.948
X136.398Y-94.488
X136.398Y-97.028
X136.398Y-99.568
X136.398Y-102.108
X136.398Y-104.648
X136.398Y-107.188
X136.398Y-109.728
X136.398Y-112.268
X136.398Y-114.808
X136.398Y-117.348
X136.398Y-119.888
X136.398Y-122.428
X136.398Y-124.968
X136.398Y-127.508
X136.398Y-130.048
X136.398Y-132.588
X136.398Y-135.128
X139.446Y-38.557
X139.446Y-41.097
X139.446Y-43.637
X139.446Y-46.177
X139.446Y-48.717
X139.446Y-51.257
X139.446Y-53.797
X139.446Y-56.337
X139.446Y-58.877
X139.446Y-61.417
X139.446Y-63.957
X139.446Y-66.497
X139.446Y-69.037
X139.446Y-71.577
X139.446Y-74.117
X141.742Y-110.744
X145.622Y-75.042
X145.622Y-89.542
X146.558Y-122.428
X146.558Y-127.508
X146.558Y-132.108
X148.122Y-89.542
X149.098Y-122.428
X149.098Y-127.508
X149.098Y-132.108
X149.342Y-110.744
X150.622Y-75.042
X150.622Y-89.542
X154.686Y-105.156
X154.686Y-107.696
X154.686Y-112.522
X154.686Y-115.062
X159.258Y-38.608
X159.258Y-41.148
X159.258Y-43.688
X159.258Y-46.228
X159.258Y-48.768
X159.258Y-51.308
X159.258Y-53.848
X159.258Y-56.388
X159.258Y-58.928
X159.258Y-61.468
X159.258Y-64.008
X159.258Y-66.548
X159.258Y-69.088
X159.258Y-71.628
X159.258Y-74.168
X159.258Y-76.708
X159.258Y-79.248
X159.258Y-81.788
X159.258Y-84.328
X159.258Y-86.868
X159.258Y-89.408
X159.258Y-91.948
X159.258Y-94.488
X159.258Y-97.028
X159.258Y-99.568
X159.258Y-102.108
X159.258Y-104.648
X159.258Y-107.188
X159.258Y-109.728
X159.258Y-112.268
X159.258Y-114.808
X159.258Y-117.348
X159.258Y-119.888
X159.258Y-122.428
X159.258Y-124.968
X159.258Y-127.508
X159.258Y-130.048
X159.258Y-132.588
X159.258Y-135.128
X162.34Y-38.59
X162.34Y-41.13
X162.34Y-43.67
X162.34Y-46.21
X162.34Y-48.75
X162.34Y-51.29
X162.34Y-53.83
X162.34Y-56.37
X162.34Y-58.91
X162.34Y-61.45
X162.34Y-63.99
X162.34Y-66.53
X162.34Y-69.07
X162.34Y-71.61
X162.34Y-74.15
X162.34Y-76.69
X162.34Y-79.23
X162.34Y-81.77
X162.34Y-84.31
X162.34Y-86.85
X162.34Y-89.39
X162.34Y-91.93
X162.34Y-94.47
X162.34Y-97.01
X162.34Y-99.55
X162.34Y-102.09
X162.34Y-104.63
X162.34Y-107.17
X162.34Y-109.71
X162.34Y-112.25
X162.34Y-114.79
X162.34Y-117.33
X162.34Y-119.87
X162.34Y-122.41
X162.34Y-124.95
X162.34Y-127.49
X162.34Y-130.03
X162.34Y-132.57
X162.34Y-135.11
T5
X145.035Y-67.346
X145.035Y-71.846
X151.535Y-67.346
X151.535Y-71.846
T6
X145.836Y-50.382
X145.836Y-62.882
X150.836Y-50.382
X150.836Y-62.882
T7
G00X142.522Y-82.692
M15
G01X142.522Y-81.392
M16
G05
G00X153.722Y-82.692
M15
G01X153.722Y-81.392
M16
G05
T0
M30
