G04 #@! TF.GenerationSoftware,KiCad,Pcbnew,7.0.7*
G04 #@! TF.CreationDate,2023-09-13T10:23:32-04:00*
G04 #@! TF.ProjectId,sensor_node,73656e73-6f72-45f6-9e6f-64652e6b6963,rev?*
G04 #@! TF.SameCoordinates,Original*
G04 #@! TF.FileFunction,Copper,L1,Top*
G04 #@! TF.FilePolarity,Positive*
%FSLAX46Y46*%
G04 Gerber Fmt 4.6, Leading zero omitted, Abs format (unit mm)*
G04 Created by KiCad (PCBNEW 7.0.7) date 2023-09-13 10:23:32*
%MOMM*%
%LPD*%
G01*
G04 APERTURE LIST*
G04 #@! TA.AperFunction,ComponentPad*
%ADD10R,1.700000X1.700000*%
G04 #@! TD*
G04 #@! TA.AperFunction,ComponentPad*
%ADD11O,1.700000X1.700000*%
G04 #@! TD*
G04 #@! TA.AperFunction,ComponentPad*
%ADD12R,1.600000X1.600000*%
G04 #@! TD*
G04 #@! TA.AperFunction,ComponentPad*
%ADD13O,1.600000X1.600000*%
G04 #@! TD*
G04 #@! TA.AperFunction,ComponentPad*
%ADD14R,2.000000X2.000000*%
G04 #@! TD*
G04 #@! TA.AperFunction,ComponentPad*
%ADD15C,2.000000*%
G04 #@! TD*
G04 #@! TA.AperFunction,ComponentPad*
%ADD16R,1.500000X1.050000*%
G04 #@! TD*
G04 #@! TA.AperFunction,ComponentPad*
%ADD17O,1.500000X1.050000*%
G04 #@! TD*
G04 #@! TA.AperFunction,ComponentPad*
%ADD18C,1.500000*%
G04 #@! TD*
G04 #@! TA.AperFunction,ComponentPad*
%ADD19R,2.000000X3.200000*%
G04 #@! TD*
G04 #@! TA.AperFunction,ComponentPad*
%ADD20O,3.500000X1.350000*%
G04 #@! TD*
G04 #@! TA.AperFunction,ComponentPad*
%ADD21C,1.600000*%
G04 #@! TD*
G04 #@! TA.AperFunction,ComponentPad*
%ADD22O,1.850000X3.048000*%
G04 #@! TD*
G04 #@! TA.AperFunction,ViaPad*
%ADD23C,0.800000*%
G04 #@! TD*
G04 #@! TA.AperFunction,Conductor*
%ADD24C,0.200000*%
G04 #@! TD*
G04 #@! TA.AperFunction,Conductor*
%ADD25C,0.150000*%
G04 #@! TD*
G04 APERTURE END LIST*
D10*
X154686000Y-115062000D03*
D11*
X154686000Y-112522000D03*
D10*
X139446000Y-38557200D03*
D11*
X139446000Y-41097200D03*
X139446000Y-43637200D03*
X139446000Y-46177200D03*
X139446000Y-48717200D03*
X139446000Y-51257200D03*
X139446000Y-53797200D03*
X139446000Y-56337200D03*
X139446000Y-58877200D03*
X139446000Y-61417200D03*
X139446000Y-63957200D03*
X139446000Y-66497200D03*
X139446000Y-69037200D03*
X139446000Y-71577200D03*
X139446000Y-74117200D03*
D10*
X133315000Y-38590000D03*
D11*
X133315000Y-41130000D03*
X133315000Y-43670000D03*
X133315000Y-46210000D03*
X133315000Y-48750000D03*
X133315000Y-51290000D03*
X133315000Y-53830000D03*
X133315000Y-56370000D03*
X133315000Y-58910000D03*
X133315000Y-61450000D03*
X133315000Y-63990000D03*
X133315000Y-66530000D03*
X133315000Y-69070000D03*
X133315000Y-71610000D03*
X133315000Y-74150000D03*
X133315000Y-76690000D03*
X133315000Y-79230000D03*
X133315000Y-81770000D03*
X133315000Y-84310000D03*
X133315000Y-86850000D03*
X133315000Y-89390000D03*
X133315000Y-91930000D03*
X133315000Y-94470000D03*
X133315000Y-97010000D03*
X133315000Y-99550000D03*
X133315000Y-102090000D03*
X133315000Y-104630000D03*
X133315000Y-107170000D03*
X133315000Y-109710000D03*
X133315000Y-112250000D03*
X133315000Y-114790000D03*
X133315000Y-117330000D03*
X133315000Y-119870000D03*
X133315000Y-122410000D03*
X133315000Y-124950000D03*
X133315000Y-127490000D03*
X133315000Y-130030000D03*
X133315000Y-132570000D03*
X133315000Y-135110000D03*
D10*
X162340000Y-38590000D03*
D11*
X162340000Y-41130000D03*
X162340000Y-43670000D03*
X162340000Y-46210000D03*
X162340000Y-48750000D03*
X162340000Y-51290000D03*
X162340000Y-53830000D03*
X162340000Y-56370000D03*
X162340000Y-58910000D03*
X162340000Y-61450000D03*
X162340000Y-63990000D03*
X162340000Y-66530000D03*
X162340000Y-69070000D03*
X162340000Y-71610000D03*
X162340000Y-74150000D03*
X162340000Y-76690000D03*
X162340000Y-79230000D03*
X162340000Y-81770000D03*
X162340000Y-84310000D03*
X162340000Y-86850000D03*
X162340000Y-89390000D03*
X162340000Y-91930000D03*
X162340000Y-94470000D03*
X162340000Y-97010000D03*
X162340000Y-99550000D03*
X162340000Y-102090000D03*
X162340000Y-104630000D03*
X162340000Y-107170000D03*
X162340000Y-109710000D03*
X162340000Y-112250000D03*
X162340000Y-114790000D03*
X162340000Y-117330000D03*
X162340000Y-119870000D03*
X162340000Y-122410000D03*
X162340000Y-124950000D03*
X162340000Y-127490000D03*
X162340000Y-130030000D03*
X162340000Y-132570000D03*
X162340000Y-135110000D03*
D12*
X144526000Y-100838000D03*
D13*
X147066000Y-100838000D03*
X149606000Y-100838000D03*
X152146000Y-100838000D03*
X152146000Y-93218000D03*
X149606000Y-93218000D03*
X147066000Y-93218000D03*
X144526000Y-93218000D03*
D14*
X141742000Y-110744000D03*
D15*
X149342000Y-110744000D03*
D16*
X128750000Y-57000000D03*
D17*
X128750000Y-55730000D03*
X128750000Y-54460000D03*
D18*
X145622000Y-75042000D03*
X150622000Y-75042000D03*
D14*
X145622000Y-89542000D03*
D15*
X150622000Y-89542000D03*
X148122000Y-89542000D03*
D19*
X142522000Y-82042000D03*
X153722000Y-82042000D03*
D10*
X146558000Y-132108000D03*
D11*
X149098000Y-132108000D03*
D10*
X129500000Y-66470000D03*
D11*
X129500000Y-69010000D03*
X129500000Y-71550000D03*
X129500000Y-74090000D03*
X129500000Y-76630000D03*
X129500000Y-79170000D03*
X129500000Y-81710000D03*
X129500000Y-84250000D03*
X129500000Y-86790000D03*
X129500000Y-89330000D03*
D20*
X154798000Y-134568000D03*
X154798000Y-132568000D03*
X154798000Y-130568000D03*
X154798000Y-128568000D03*
X154798000Y-126568000D03*
X154798000Y-124568000D03*
X154798000Y-122568000D03*
X154798000Y-120568000D03*
X140804000Y-134568000D03*
X140804000Y-132568000D03*
X140804000Y-130568000D03*
X140804000Y-128568000D03*
X140804000Y-126568000D03*
X140804000Y-124568000D03*
X140804000Y-122568000D03*
X140804000Y-120568000D03*
D10*
X154686000Y-107696000D03*
D11*
X154686000Y-105156000D03*
D12*
X144526000Y-46228000D03*
D13*
X147066000Y-46228000D03*
X149606000Y-46228000D03*
X152146000Y-46228000D03*
X152146000Y-38608000D03*
X149606000Y-38608000D03*
X147066000Y-38608000D03*
X144526000Y-38608000D03*
D10*
X146558000Y-127508000D03*
D11*
X149098000Y-127508000D03*
D12*
X129000000Y-62750000D03*
D21*
X129000000Y-60750000D03*
D10*
X146558000Y-122428000D03*
D11*
X149098000Y-122428000D03*
D22*
X145836000Y-62882000D03*
X145836000Y-50382000D03*
X150836000Y-62882000D03*
X150836000Y-50382000D03*
D15*
X151535200Y-71846000D03*
X145035200Y-71846000D03*
X151535200Y-67346000D03*
X145035200Y-67346000D03*
D10*
X136398000Y-38608000D03*
D11*
X136398000Y-41148000D03*
X136398000Y-43688000D03*
X136398000Y-46228000D03*
X136398000Y-48768000D03*
X136398000Y-51308000D03*
X136398000Y-53848000D03*
X136398000Y-56388000D03*
X136398000Y-58928000D03*
X136398000Y-61468000D03*
X136398000Y-64008000D03*
X136398000Y-66548000D03*
X136398000Y-69088000D03*
X136398000Y-71628000D03*
X136398000Y-74168000D03*
X136398000Y-76708000D03*
X136398000Y-79248000D03*
X136398000Y-81788000D03*
X136398000Y-84328000D03*
X136398000Y-86868000D03*
X136398000Y-89408000D03*
X136398000Y-91948000D03*
X136398000Y-94488000D03*
X136398000Y-97028000D03*
X136398000Y-99568000D03*
X136398000Y-102108000D03*
X136398000Y-104648000D03*
X136398000Y-107188000D03*
X136398000Y-109728000D03*
X136398000Y-112268000D03*
X136398000Y-114808000D03*
X136398000Y-117348000D03*
X136398000Y-119888000D03*
X136398000Y-122428000D03*
X136398000Y-124968000D03*
X136398000Y-127508000D03*
X136398000Y-130048000D03*
X136398000Y-132588000D03*
X136398000Y-135128000D03*
D10*
X159258000Y-38608000D03*
D11*
X159258000Y-41148000D03*
X159258000Y-43688000D03*
X159258000Y-46228000D03*
X159258000Y-48768000D03*
X159258000Y-51308000D03*
X159258000Y-53848000D03*
X159258000Y-56388000D03*
X159258000Y-58928000D03*
X159258000Y-61468000D03*
X159258000Y-64008000D03*
X159258000Y-66548000D03*
X159258000Y-69088000D03*
X159258000Y-71628000D03*
X159258000Y-74168000D03*
X159258000Y-76708000D03*
X159258000Y-79248000D03*
X159258000Y-81788000D03*
X159258000Y-84328000D03*
X159258000Y-86868000D03*
X159258000Y-89408000D03*
X159258000Y-91948000D03*
X159258000Y-94488000D03*
X159258000Y-97028000D03*
X159258000Y-99568000D03*
X159258000Y-102108000D03*
X159258000Y-104648000D03*
X159258000Y-107188000D03*
X159258000Y-109728000D03*
X159258000Y-112268000D03*
X159258000Y-114808000D03*
X159258000Y-117348000D03*
X159258000Y-119888000D03*
X159258000Y-122428000D03*
X159258000Y-124968000D03*
X159258000Y-127508000D03*
X159258000Y-130048000D03*
X159258000Y-132588000D03*
X159258000Y-135128000D03*
D23*
X151892000Y-91186000D03*
X149500000Y-55792500D03*
X152058595Y-59655493D03*
X143307067Y-99314000D03*
X152000000Y-124300000D03*
X143756500Y-129283535D03*
X157250000Y-113750000D03*
X152250000Y-118000000D03*
X155684662Y-60279569D03*
X158242000Y-93218000D03*
X153249503Y-118000000D03*
X153732500Y-64008000D03*
X153332500Y-65278000D03*
X139689692Y-85189692D03*
X164146500Y-95758000D03*
X139549500Y-110750000D03*
X156508500Y-57912000D03*
X156718000Y-56896000D03*
X139900000Y-115300000D03*
X132080000Y-96000000D03*
X155892474Y-59301909D03*
X137700000Y-131000000D03*
X152400000Y-135300000D03*
X147232500Y-124460000D03*
X142700000Y-118900000D03*
X141300000Y-118000000D03*
X147685221Y-119914779D03*
X148597820Y-118502180D03*
X140300000Y-117449500D03*
X154494500Y-77000000D03*
X151829500Y-129600000D03*
X160479500Y-103308359D03*
X144272000Y-134174500D03*
X151575500Y-102362000D03*
D24*
X151892000Y-91186000D02*
X152400000Y-91186000D01*
X151130000Y-135700000D02*
X151130000Y-128850372D01*
X152400000Y-91186000D02*
X159258000Y-84328000D01*
X159173000Y-127593000D02*
X159258000Y-127508000D01*
X136970000Y-135700000D02*
X151130000Y-135700000D01*
X152387372Y-127593000D02*
X159173000Y-127593000D01*
X136398000Y-135128000D02*
X136970000Y-135700000D01*
X151130000Y-128850372D02*
X152387372Y-127593000D01*
X135248000Y-58603346D02*
X133791346Y-60060000D01*
X148042000Y-109434000D02*
X148042000Y-111282478D01*
X139326000Y-100718000D02*
X148042000Y-109434000D01*
X133048654Y-90750000D02*
X134102314Y-90750000D01*
X136398000Y-56388000D02*
X135248000Y-57538000D01*
X131650000Y-61350000D02*
X131650000Y-89351346D01*
X136398000Y-56388000D02*
X137497200Y-57487200D01*
X147805300Y-57487200D02*
X149500000Y-55792500D01*
X149281522Y-112522000D02*
X154686000Y-112522000D01*
X132940000Y-60060000D02*
X131650000Y-61350000D01*
X137497200Y-57487200D02*
X147805300Y-57487200D01*
X131650000Y-89351346D02*
X133048654Y-90750000D01*
X148042000Y-111282478D02*
X149281522Y-112522000D01*
X134102314Y-90750000D02*
X135300314Y-91948000D01*
X136398000Y-91948000D02*
X135248000Y-93098000D01*
X135248000Y-100044346D02*
X135921654Y-100718000D01*
X133791346Y-60060000D02*
X132940000Y-60060000D01*
X135248000Y-57538000D02*
X135248000Y-58603346D01*
X135300314Y-91948000D02*
X136398000Y-91948000D01*
X135248000Y-93098000D02*
X135248000Y-100044346D01*
X135921654Y-100718000D02*
X139326000Y-100718000D01*
X139922346Y-60027200D02*
X137497200Y-60027200D01*
X154432000Y-104902000D02*
X149574365Y-104902000D01*
X137497200Y-60027200D02*
X136398000Y-58928000D01*
X152058595Y-59655493D02*
X140294053Y-59655493D01*
X140294053Y-59655493D02*
X139922346Y-60027200D01*
X149574365Y-104902000D02*
X145626000Y-100953635D01*
X140376000Y-94488000D02*
X136398000Y-94488000D01*
X145626000Y-99738000D02*
X140376000Y-94488000D01*
X145626000Y-100953635D02*
X145626000Y-99738000D01*
X154686000Y-105156000D02*
X154432000Y-104902000D01*
X143307067Y-99314000D02*
X143053067Y-99568000D01*
X150248000Y-130958000D02*
X149098000Y-132108000D01*
X150836000Y-50382000D02*
X150836000Y-39838000D01*
X150248000Y-128601000D02*
X150248000Y-130958000D01*
X151300000Y-127549000D02*
X150248000Y-128601000D01*
X150836000Y-39838000D02*
X149606000Y-38608000D01*
X151300000Y-125000000D02*
X151300000Y-127549000D01*
X152000000Y-124300000D02*
X151300000Y-125000000D01*
X143053067Y-99568000D02*
X136398000Y-99568000D01*
X139858000Y-102108000D02*
X136398000Y-102108000D01*
X157208000Y-113792000D02*
X145542000Y-113792000D01*
X143756500Y-129283535D02*
X147322465Y-129283535D01*
X143042000Y-105292000D02*
X139858000Y-102108000D01*
X157250000Y-113750000D02*
X157208000Y-113792000D01*
X143042000Y-111292000D02*
X143042000Y-105292000D01*
X145542000Y-113792000D02*
X143042000Y-111292000D01*
X147322465Y-129283535D02*
X149098000Y-127508000D01*
X152250000Y-118450000D02*
X152250000Y-118000000D01*
X149098000Y-122428000D02*
X149098000Y-121602000D01*
X149098000Y-121602000D02*
X152250000Y-118450000D01*
X153162000Y-105410000D02*
X154298000Y-106546000D01*
X157408000Y-62658000D02*
X157408000Y-67238000D01*
X159258000Y-106680000D02*
X159258000Y-107188000D01*
X158616000Y-106546000D02*
X159258000Y-107188000D01*
X155684662Y-60934662D02*
X157408000Y-62658000D01*
X155684662Y-60279569D02*
X155684662Y-60934662D01*
X144526000Y-100838000D02*
X149098000Y-105410000D01*
X154298000Y-106546000D02*
X158616000Y-106546000D01*
X157408000Y-67238000D02*
X159258000Y-69088000D01*
X149098000Y-105410000D02*
X153162000Y-105410000D01*
X159614346Y-93218000D02*
X161179500Y-94783154D01*
X160782000Y-106934000D02*
X159646000Y-105798000D01*
X161179500Y-106536500D02*
X160782000Y-106934000D01*
X157030173Y-105798000D02*
X155118173Y-103886000D01*
X155118173Y-103886000D02*
X150114000Y-103886000D01*
X159258000Y-109728000D02*
X160782000Y-108204000D01*
X159646000Y-105798000D02*
X157030173Y-105798000D01*
X158242000Y-93218000D02*
X159614346Y-93218000D01*
X150114000Y-103886000D02*
X147066000Y-100838000D01*
X161179500Y-94783154D02*
X161179500Y-106536500D01*
X160782000Y-108204000D02*
X160782000Y-106934000D01*
X145528000Y-123698000D02*
X143723000Y-121893000D01*
X141479000Y-121893000D02*
X140804000Y-122568000D01*
X153732500Y-59982500D02*
X152627200Y-58877200D01*
X150248000Y-122904346D02*
X149454346Y-123698000D01*
X152627200Y-58877200D02*
X139446000Y-58877200D01*
X153249503Y-118000000D02*
X153249503Y-118050497D01*
X143723000Y-121893000D02*
X141479000Y-121893000D01*
X149454346Y-123698000D02*
X145528000Y-123698000D01*
X150248000Y-121052000D02*
X150248000Y-122904346D01*
X153732500Y-64008000D02*
X153732500Y-59982500D01*
X153249503Y-118050497D02*
X150248000Y-121052000D01*
X140613200Y-60250000D02*
X151690000Y-60250000D01*
X153032500Y-64978000D02*
X153332500Y-65278000D01*
X153032500Y-61592500D02*
X153032500Y-64978000D01*
X139446000Y-61417200D02*
X140613200Y-60250000D01*
X151690000Y-60250000D02*
X153032500Y-61592500D01*
X139446000Y-74117200D02*
X141000000Y-75671200D01*
X141000000Y-87520000D02*
X146698000Y-93218000D01*
X146698000Y-93218000D02*
X147066000Y-93218000D01*
X141000000Y-75671200D02*
X141000000Y-87520000D01*
X139689692Y-88381692D02*
X144526000Y-93218000D01*
X139689692Y-85189692D02*
X139689692Y-88381692D01*
X151535200Y-67346000D02*
X145035200Y-67346000D01*
X163750000Y-96154500D02*
X163750000Y-105745000D01*
X163750000Y-105745000D02*
X162329000Y-107166000D01*
X134454000Y-121256000D02*
X133304000Y-122406000D01*
X159258000Y-114808000D02*
X157316000Y-116750000D01*
X136656346Y-121256000D02*
X134454000Y-121256000D01*
X137700000Y-118700000D02*
X137700000Y-120212346D01*
X133420000Y-43670000D02*
X133500000Y-43750000D01*
X139650000Y-116750000D02*
X137700000Y-118700000D01*
X164146500Y-95758000D02*
X163750000Y-96154500D01*
X137700000Y-120212346D02*
X136656346Y-121256000D01*
X157316000Y-116750000D02*
X139650000Y-116750000D01*
X131250000Y-56845000D02*
X131905000Y-57500000D01*
X132770000Y-39980000D02*
X131250000Y-41500000D01*
X136398000Y-112268000D02*
X134848000Y-110718000D01*
X131905000Y-57500000D02*
X133315000Y-58910000D01*
X132980000Y-103480000D02*
X131250000Y-101750000D01*
X134848000Y-110718000D02*
X134848000Y-104536654D01*
X131250000Y-101750000D02*
X131250000Y-56845000D01*
X133791346Y-103480000D02*
X132980000Y-103480000D01*
X135230000Y-39980000D02*
X132770000Y-39980000D01*
X134848000Y-104536654D02*
X133791346Y-103480000D01*
X131250000Y-41500000D02*
X131250000Y-56845000D01*
X136398000Y-41148000D02*
X135230000Y-39980000D01*
X134432000Y-50158000D02*
X136874346Y-50158000D01*
X158781654Y-57778000D02*
X159734346Y-57778000D01*
X139549500Y-110750000D02*
X139549500Y-110339500D01*
X133304000Y-51286000D02*
X134432000Y-50158000D01*
X154730654Y-53727000D02*
X158781654Y-57778000D01*
X139549500Y-110339500D02*
X138938000Y-109728000D01*
X159734346Y-57778000D02*
X160850000Y-58893654D01*
X136925146Y-50107200D02*
X140857200Y-50107200D01*
X136874346Y-50158000D02*
X136925146Y-50107200D01*
X160850000Y-58893654D02*
X160850000Y-59967000D01*
X144477000Y-53727000D02*
X154730654Y-53727000D01*
X138938000Y-109728000D02*
X136398000Y-109728000D01*
X140857200Y-50107200D02*
X144477000Y-53727000D01*
X160850000Y-59967000D02*
X162329000Y-61446000D01*
D25*
X147003280Y-98493000D02*
X159703280Y-98493000D01*
X133304000Y-84306000D02*
X134608000Y-85610000D01*
X136660280Y-85610000D02*
X137795000Y-86744720D01*
X137823000Y-88817745D02*
X137823000Y-89312720D01*
X159703280Y-98493000D02*
X160333000Y-99122720D01*
X137795000Y-88011000D02*
X137795000Y-88789745D01*
X153714500Y-55118000D02*
X134596000Y-55118000D01*
X158183000Y-62933000D02*
X158183000Y-60647000D01*
X156508500Y-58972500D02*
X156508500Y-57912000D01*
X137823000Y-89312720D02*
X147003280Y-98493000D01*
X156508500Y-57912000D02*
X153714500Y-55118000D01*
X137795000Y-88789745D02*
X137823000Y-88817745D01*
X158183000Y-60647000D02*
X156508500Y-58972500D01*
X137795000Y-86744720D02*
X137795000Y-88011000D01*
X134608000Y-85610000D02*
X136660280Y-85610000D01*
X160333000Y-99122720D02*
X160333000Y-101033000D01*
X160333000Y-101033000D02*
X159258000Y-102108000D01*
X134596000Y-55118000D02*
X133304000Y-53826000D01*
X159258000Y-64008000D02*
X158183000Y-62933000D01*
X147049016Y-98963000D02*
X158653000Y-98963000D01*
X139911991Y-52672200D02*
X132834800Y-52672200D01*
X156556000Y-56082676D02*
X154575324Y-54102000D01*
X141341791Y-54102000D02*
X139911991Y-52672200D01*
X154575324Y-54102000D02*
X141341791Y-54102000D01*
X158653000Y-98963000D02*
X159258000Y-99568000D01*
X134741000Y-88283000D02*
X136863991Y-88283000D01*
X157734000Y-59436000D02*
X159258000Y-60960000D01*
X156556000Y-56734000D02*
X156556000Y-56082676D01*
X137523000Y-89436984D02*
X147049016Y-98963000D01*
X137523000Y-88942009D02*
X137523000Y-89436984D01*
X156718000Y-56896000D02*
X156556000Y-56734000D01*
X132229000Y-55291000D02*
X133304000Y-56366000D01*
X133304000Y-86846000D02*
X134741000Y-88283000D01*
X132834800Y-52672200D02*
X132229000Y-53278000D01*
X157734000Y-57912000D02*
X157734000Y-59436000D01*
X159258000Y-60960000D02*
X159258000Y-61468000D01*
X136863991Y-88283000D02*
X137523000Y-88942009D01*
X156718000Y-56896000D02*
X157734000Y-57912000D01*
X132229000Y-53278000D02*
X132229000Y-55291000D01*
D24*
X137548000Y-78098000D02*
X136398000Y-79248000D01*
X137548000Y-66071654D02*
X137548000Y-78098000D01*
X133304000Y-63986000D02*
X134498000Y-65180000D01*
X134483000Y-65158000D02*
X136634346Y-65158000D01*
X133315000Y-63990000D02*
X134483000Y-65158000D01*
X136634346Y-65158000D02*
X137548000Y-66071654D01*
X133304000Y-74146000D02*
X133304000Y-74844000D01*
X135248000Y-102584346D02*
X135921654Y-103258000D01*
X135921654Y-103258000D02*
X136758000Y-103258000D01*
X134465000Y-99073654D02*
X134465000Y-100026346D01*
X134454000Y-100037346D02*
X134454000Y-100418000D01*
X134465000Y-100026346D02*
X134454000Y-100037346D01*
X134454000Y-99062654D02*
X134465000Y-99073654D01*
X137160000Y-81788000D02*
X136398000Y-81788000D01*
X138176000Y-115570000D02*
X136398000Y-117348000D01*
X134056000Y-95856000D02*
X134465000Y-96265000D01*
X132224000Y-95856000D02*
X134056000Y-95856000D01*
X141742000Y-108242000D02*
X141742000Y-110744000D01*
X135248000Y-101212000D02*
X135248000Y-102584346D01*
X139900000Y-115300000D02*
X139630000Y-115570000D01*
X139630000Y-115570000D02*
X138176000Y-115570000D01*
X132080000Y-96000000D02*
X132224000Y-95856000D01*
X136758000Y-103258000D02*
X141742000Y-108242000D01*
X134465000Y-96265000D02*
X134465000Y-97486346D01*
X134465000Y-97486346D02*
X134454000Y-97497346D01*
X134454000Y-97497346D02*
X134454000Y-99062654D01*
X134454000Y-100418000D02*
X135248000Y-101212000D01*
D25*
X134741000Y-83203000D02*
X136863991Y-83203000D01*
X145962544Y-97028000D02*
X159258000Y-97028000D01*
X138176000Y-84515009D02*
X138176000Y-89241456D01*
X136863991Y-83203000D02*
X138176000Y-84515009D01*
X138176000Y-89241456D02*
X145962544Y-97028000D01*
X133304000Y-81766000D02*
X134741000Y-83203000D01*
D24*
X159258000Y-104648000D02*
X157672000Y-103062000D01*
X157672000Y-103062000D02*
X150274365Y-103062000D01*
X147521635Y-99738000D02*
X146728000Y-99738000D01*
X148166000Y-100382365D02*
X147521635Y-99738000D01*
X146728000Y-99738000D02*
X137668000Y-90678000D01*
X157808000Y-61288000D02*
X157808000Y-65098000D01*
X148166000Y-100953635D02*
X148166000Y-100382365D01*
X134596000Y-90678000D02*
X133304000Y-89386000D01*
X155892474Y-59301909D02*
X155892474Y-59372474D01*
X155892474Y-59372474D02*
X157808000Y-61288000D01*
X150274365Y-103062000D02*
X148166000Y-100953635D01*
X137668000Y-90678000D02*
X134596000Y-90678000D01*
X157808000Y-65098000D02*
X159258000Y-66548000D01*
X159258000Y-81788000D02*
X151504000Y-89542000D01*
X151504000Y-89542000D02*
X150622000Y-89542000D01*
X145500000Y-133350000D02*
X150730000Y-133350000D01*
X151700000Y-127714686D02*
X151700000Y-126100000D01*
X138932243Y-131593000D02*
X143743000Y-131593000D01*
X159021654Y-123578000D02*
X160391000Y-123578000D01*
X164338000Y-69597000D02*
X164338000Y-53295000D01*
X164338000Y-82297000D02*
X164338000Y-73615000D01*
X160779000Y-123396000D02*
X162329000Y-124946000D01*
X164338000Y-53295000D02*
X162329000Y-51286000D01*
X163976000Y-85953000D02*
X162329000Y-84306000D01*
X162329000Y-51286000D02*
X164500000Y-49115000D01*
X160779000Y-116336000D02*
X160779000Y-123396000D01*
X162329000Y-84306000D02*
X164338000Y-82297000D01*
X151700000Y-126100000D02*
X152207000Y-125593000D01*
X150730000Y-128684686D02*
X151700000Y-127714686D01*
X164500000Y-40757000D02*
X162329000Y-38586000D01*
X163976000Y-94596500D02*
X163976000Y-85953000D01*
X162329000Y-114786000D02*
X160779000Y-116336000D01*
X162329000Y-97006000D02*
X162329000Y-96243500D01*
X157006654Y-125593000D02*
X159021654Y-123578000D01*
X162329000Y-96243500D02*
X163976000Y-94596500D01*
X152207000Y-125593000D02*
X157006654Y-125593000D01*
X137972993Y-130633750D02*
X138932243Y-131593000D01*
X162329000Y-71606000D02*
X164338000Y-69597000D01*
X143743000Y-131593000D02*
X145500000Y-133350000D01*
X150730000Y-133350000D02*
X150730000Y-128684686D01*
X164338000Y-73615000D02*
X162329000Y-71606000D01*
X160391000Y-123578000D02*
X160779000Y-123190000D01*
X164500000Y-49115000D02*
X164500000Y-40757000D01*
X161036000Y-52533000D02*
X161036000Y-50952654D01*
X164100000Y-48949314D02*
X164100000Y-42897000D01*
X163490000Y-82246346D02*
X163490000Y-73673654D01*
X164100000Y-42897000D02*
X162329000Y-41126000D01*
X161179000Y-85696000D02*
X161179000Y-83829654D01*
X161179000Y-70216000D02*
X163938000Y-67457000D01*
X162816346Y-82920000D02*
X163490000Y-82246346D01*
X163011314Y-50038000D02*
X164100000Y-48949314D01*
X162812346Y-72996000D02*
X161642000Y-72996000D01*
X162329000Y-122406000D02*
X161179000Y-121256000D01*
X163938000Y-67457000D02*
X163938000Y-55435000D01*
X162329000Y-94466000D02*
X163576000Y-93219000D01*
X163576000Y-93219000D02*
X163576000Y-88093000D01*
X162565346Y-83156000D02*
X162801346Y-82920000D01*
X152400000Y-135300000D02*
X152850000Y-135750000D01*
X163490000Y-73673654D02*
X162812346Y-72996000D01*
X161950654Y-50038000D02*
X163011314Y-50038000D01*
X158781654Y-133738000D02*
X161157000Y-133738000D01*
X161157000Y-133738000D02*
X162329000Y-132566000D01*
X161179000Y-83829654D02*
X161852654Y-83156000D01*
X163576000Y-88093000D02*
X161179000Y-85696000D01*
X163938000Y-55435000D02*
X161036000Y-52533000D01*
X161179000Y-118476000D02*
X162329000Y-117326000D01*
X161036000Y-50952654D02*
X161950654Y-50038000D01*
X161179000Y-121256000D02*
X161179000Y-118476000D01*
X161179000Y-72533000D02*
X161179000Y-70216000D01*
X161852654Y-83156000D02*
X162565346Y-83156000D01*
X162801346Y-82920000D02*
X162816346Y-82920000D01*
X152850000Y-135750000D02*
X156769654Y-135750000D01*
X161642000Y-72996000D02*
X161179000Y-72533000D01*
X156769654Y-135750000D02*
X158781654Y-133738000D01*
X140018142Y-118900000D02*
X138754000Y-120164142D01*
X138754000Y-122971858D02*
X139325142Y-123543000D01*
X142700000Y-118900000D02*
X140018142Y-118900000D01*
X144443000Y-123543000D02*
X145360000Y-124460000D01*
X139325142Y-123543000D02*
X144443000Y-123543000D01*
X145360000Y-124460000D02*
X147232500Y-124460000D01*
X138754000Y-120164142D02*
X138754000Y-122971858D01*
X141300000Y-118000000D02*
X145770442Y-118000000D01*
X145770442Y-118000000D02*
X147685221Y-119914779D01*
X148252180Y-118502180D02*
X148597820Y-118502180D01*
X140549500Y-117200000D02*
X146950000Y-117200000D01*
X140300000Y-117449500D02*
X140549500Y-117200000D01*
X140004800Y-69037200D02*
X139446000Y-69037200D01*
X146950000Y-117200000D02*
X148252180Y-118502180D01*
X140760000Y-128568000D02*
X140716000Y-128524000D01*
X140804000Y-128568000D02*
X140760000Y-128568000D01*
X136874346Y-62858000D02*
X138296000Y-64279654D01*
X139097200Y-65347200D02*
X139922346Y-65347200D01*
X134723000Y-62858000D02*
X136874346Y-62858000D01*
X138296000Y-64279654D02*
X138296000Y-64546000D01*
X143250000Y-72441206D02*
X143954794Y-73146000D01*
X139922346Y-65347200D02*
X143250000Y-68674854D01*
X138296000Y-64546000D02*
X139097200Y-65347200D01*
X154494500Y-74755500D02*
X154630000Y-74620000D01*
X143954794Y-73146000D02*
X153156000Y-73146000D01*
X154494500Y-77000000D02*
X154494500Y-74755500D01*
X154630000Y-74620000D02*
X159258000Y-79248000D01*
X153156000Y-73146000D02*
X154630000Y-74620000D01*
X133315000Y-61450000D02*
X134723000Y-62858000D01*
X143250000Y-68674854D02*
X143250000Y-72441206D01*
X135921654Y-106038000D02*
X136874346Y-106038000D01*
X135248000Y-104023000D02*
X135248000Y-105364346D01*
X134672200Y-47567200D02*
X140689788Y-47567200D01*
X140689788Y-47567200D02*
X145372588Y-52250000D01*
X134465000Y-113400000D02*
X134465000Y-118720000D01*
X133315000Y-112250000D02*
X134723000Y-113658000D01*
X139907843Y-113658000D02*
X142500000Y-116250157D01*
X159258000Y-112731950D02*
X159258000Y-112268000D01*
X133315000Y-112250000D02*
X134465000Y-113400000D01*
X133315000Y-46210000D02*
X134672200Y-47567200D01*
X136874346Y-106038000D02*
X140249500Y-109413154D01*
X134465000Y-118720000D02*
X133315000Y-119870000D01*
X145372588Y-52250000D02*
X153236000Y-52250000D01*
X155739793Y-116250157D02*
X159258000Y-112731950D01*
X153236000Y-52250000D02*
X159258000Y-46228000D01*
X135248000Y-105364346D02*
X135921654Y-106038000D01*
X134723000Y-113658000D02*
X139907843Y-113658000D01*
X140249500Y-113316343D02*
X139907843Y-113658000D01*
X133315000Y-102090000D02*
X135248000Y-104023000D01*
X142500000Y-116250157D02*
X155739793Y-116250157D01*
X140249500Y-109413154D02*
X140249500Y-113316343D01*
D25*
X134440000Y-72735000D02*
X134440000Y-78105000D01*
X137472200Y-62542200D02*
X145496200Y-62542200D01*
X163465000Y-44795000D02*
X163465000Y-47535000D01*
X145836000Y-62882000D02*
X149025000Y-66071000D01*
X133304000Y-48746000D02*
X132179000Y-47621000D01*
X155127009Y-89408000D02*
X152674009Y-91861000D01*
X160875000Y-48624009D02*
X160875000Y-50508000D01*
X144526000Y-46228000D02*
X149606000Y-46228000D01*
X161197000Y-110853000D02*
X162340000Y-109710000D01*
X133304000Y-66526000D02*
X133304000Y-66340000D01*
X162340000Y-109710000D02*
X164000000Y-111370000D01*
X136398000Y-61468000D02*
X137472200Y-62542200D01*
X138988800Y-41097200D02*
X139446000Y-41097200D01*
X151107330Y-136253000D02*
X134458000Y-136253000D01*
X162340000Y-130030000D02*
X159770974Y-130030000D01*
X127750000Y-58000000D02*
X128750000Y-57000000D01*
X154400000Y-71850000D02*
X154396000Y-71846000D01*
X140804000Y-120568000D02*
X144698000Y-120568000D01*
X144687000Y-72702200D02*
X145035200Y-72354000D01*
X127750000Y-61500000D02*
X127750000Y-58000000D01*
X159818000Y-89408000D02*
X159258000Y-89408000D01*
X163465000Y-47535000D02*
X161964009Y-47535000D01*
X136398000Y-43688000D02*
X138988800Y-41097200D01*
X128375000Y-88205000D02*
X129500000Y-89330000D01*
X157226000Y-41148000D02*
X152146000Y-46228000D01*
X136376000Y-48746000D02*
X136398000Y-48768000D01*
X161964009Y-47535000D02*
X160875000Y-48624009D01*
X149025000Y-66071000D02*
X152063323Y-66071000D01*
X151911500Y-129518000D02*
X158728000Y-129518000D01*
X159258000Y-89408000D02*
X155127009Y-89408000D01*
X152063323Y-66071000D02*
X154396000Y-68403677D01*
X133315000Y-71610000D02*
X134440000Y-72735000D01*
X161215000Y-57785000D02*
X162340000Y-58910000D01*
X149342000Y-110744000D02*
X149451000Y-110853000D01*
X132179000Y-42251000D02*
X133304000Y-41126000D01*
X151535200Y-71846000D02*
X145530174Y-71846000D01*
X133315000Y-71610000D02*
X136380000Y-71610000D01*
X134458000Y-136253000D02*
X133315000Y-135110000D01*
X160661000Y-50722000D02*
X160661000Y-52445000D01*
X139446000Y-41097200D02*
X144526000Y-46177200D01*
X158728000Y-129518000D02*
X159258000Y-130048000D01*
X128375000Y-70135000D02*
X128375000Y-72965000D01*
X133672000Y-48768000D02*
X133654000Y-48750000D01*
X163465000Y-65405000D02*
X163465000Y-60035000D01*
X133315000Y-66530000D02*
X136380000Y-66530000D01*
X154396000Y-71846000D02*
X151885200Y-71846000D01*
X128375000Y-72965000D02*
X129500000Y-74090000D01*
X161215000Y-55805000D02*
X161215000Y-57785000D01*
X149451000Y-110853000D02*
X161197000Y-110853000D01*
X161776000Y-43666000D02*
X162329000Y-43666000D01*
X147066000Y-46228000D02*
X147066000Y-49152000D01*
X159770974Y-130030000D02*
X159505487Y-130295487D01*
X134440000Y-78105000D02*
X133315000Y-79230000D01*
X148122000Y-89542000D02*
X150441000Y-91861000D01*
X132179000Y-47621000D02*
X132179000Y-42251000D01*
X164000000Y-128370000D02*
X162340000Y-130030000D01*
X151829500Y-129600000D02*
X151911500Y-129518000D01*
X151505000Y-135855330D02*
X151107330Y-136253000D01*
X129500000Y-69010000D02*
X128375000Y-70135000D01*
X159280000Y-130026000D02*
X159258000Y-130048000D01*
X129000000Y-62750000D02*
X129000000Y-65970000D01*
X154396000Y-68403677D02*
X154396000Y-71846000D01*
X162340000Y-43670000D02*
X163465000Y-44795000D01*
X129000000Y-65970000D02*
X129500000Y-66470000D01*
X164000000Y-111370000D02*
X164000000Y-128370000D01*
X133304000Y-66340000D02*
X133350000Y-66294000D01*
X144698000Y-120568000D02*
X146558000Y-122428000D01*
X160875000Y-50508000D02*
X160661000Y-50722000D01*
X145496200Y-62542200D02*
X145836000Y-62882000D01*
X129500000Y-66470000D02*
X129500000Y-69010000D01*
X159258000Y-53848000D02*
X161215000Y-55805000D01*
X150441000Y-91861000D02*
X152674009Y-91861000D01*
X151829500Y-129600000D02*
X151505000Y-129924500D01*
X136376000Y-132566000D02*
X136398000Y-132588000D01*
X128375000Y-75215000D02*
X128375000Y-88205000D01*
X136380000Y-71610000D02*
X136398000Y-71628000D01*
X159258000Y-41148000D02*
X157226000Y-41148000D01*
X136380000Y-66530000D02*
X136398000Y-66548000D01*
X161776000Y-79226000D02*
X162329000Y-79226000D01*
X160661000Y-52445000D02*
X159258000Y-53848000D01*
X162340000Y-66530000D02*
X163465000Y-65405000D01*
X145530174Y-71846000D02*
X145282687Y-71598513D01*
X128750000Y-65720000D02*
X129500000Y-66470000D01*
X129500000Y-74090000D02*
X128375000Y-75215000D01*
X151505000Y-129924500D02*
X151505000Y-135855330D01*
X147066000Y-49152000D02*
X145836000Y-50382000D01*
X163465000Y-60035000D02*
X162340000Y-58910000D01*
X129000000Y-62750000D02*
X127750000Y-61500000D01*
X159258000Y-76708000D02*
X154400000Y-71850000D01*
D24*
X136398000Y-89408000D02*
X136963686Y-89408000D01*
X130650000Y-72700000D02*
X129500000Y-71550000D01*
X130750000Y-70300000D02*
X130750000Y-62300000D01*
X130650000Y-75480000D02*
X130650000Y-72700000D01*
X133315000Y-94470000D02*
X133315000Y-91930000D01*
X159258000Y-51308000D02*
X160500000Y-50066000D01*
X151575500Y-102362000D02*
X151130000Y-102362000D01*
X160429141Y-103258000D02*
X160479500Y-103308359D01*
X161780000Y-127490000D02*
X162340000Y-127490000D01*
X135248000Y-127748000D02*
X135248000Y-128898000D01*
X160540000Y-46210000D02*
X160500000Y-46250000D01*
X133315000Y-76690000D02*
X132165000Y-77840000D01*
X136398000Y-130810000D02*
X136398000Y-130048000D01*
X129710000Y-54460000D02*
X128750000Y-54460000D01*
X129500000Y-76630000D02*
X130650000Y-75480000D01*
X146893686Y-99338000D02*
X148106000Y-99338000D01*
X143690500Y-133593000D02*
X139181000Y-133593000D01*
X140503200Y-37500000D02*
X158150000Y-37500000D01*
X151829500Y-102616000D02*
X158139654Y-102616000D01*
X129000000Y-60750000D02*
X129800000Y-59950000D01*
X161060000Y-88110000D02*
X160500000Y-88110000D01*
X132000000Y-108485000D02*
X133315000Y-107170000D01*
X130750000Y-62300000D02*
X129200000Y-60750000D01*
X133078654Y-88240000D02*
X133990000Y-88240000D01*
X129200000Y-60750000D02*
X128750000Y-60750000D01*
X133990000Y-88240000D02*
X135158000Y-89408000D01*
X151130000Y-102362000D02*
X149606000Y-100838000D01*
X133315000Y-124950000D02*
X132165000Y-123800000D01*
X132165000Y-87326346D02*
X133078654Y-88240000D01*
X158781654Y-103258000D02*
X160429141Y-103258000D01*
X154798000Y-130568000D02*
X157238000Y-130568000D01*
X160500000Y-46250000D02*
X160500000Y-39850000D01*
X139413200Y-38590000D02*
X139446000Y-38557200D01*
X139181000Y-133593000D02*
X136398000Y-130810000D01*
X136963686Y-89408000D02*
X146893686Y-99338000D01*
X132165000Y-123800000D02*
X132165000Y-118995330D01*
X136380000Y-69070000D02*
X136398000Y-69088000D01*
X158150000Y-37500000D02*
X159258000Y-38608000D01*
X162340000Y-89390000D02*
X161060000Y-88110000D01*
X129800000Y-59950000D02*
X129800000Y-54550000D01*
X135248000Y-128898000D02*
X136398000Y-130048000D01*
X139446000Y-38557200D02*
X140503200Y-37500000D01*
X151575500Y-102362000D02*
X151829500Y-102616000D01*
X132000000Y-116015000D02*
X132000000Y-108485000D01*
X135158000Y-89408000D02*
X136398000Y-89408000D01*
X144272000Y-134174500D02*
X143690500Y-133593000D01*
X132165000Y-70220000D02*
X133315000Y-69070000D01*
X157238000Y-130568000D02*
X159258000Y-132588000D01*
X159258000Y-124968000D02*
X161780000Y-127490000D01*
X160500000Y-50066000D02*
X160500000Y-46250000D01*
X160500000Y-39850000D02*
X159258000Y-38608000D01*
X129500000Y-71550000D02*
X130750000Y-70300000D01*
X160500000Y-88110000D02*
X159258000Y-86868000D01*
X133315000Y-124950000D02*
X133315000Y-125815000D01*
X133315000Y-38590000D02*
X139413200Y-38590000D01*
X148106000Y-99338000D02*
X149606000Y-100838000D01*
X133315000Y-69070000D02*
X136380000Y-69070000D01*
D25*
X162307000Y-89408000D02*
X162329000Y-89386000D01*
D24*
X133315000Y-76690000D02*
X132165000Y-75540000D01*
X133315000Y-125815000D02*
X135248000Y-127748000D01*
X158139654Y-102616000D02*
X158781654Y-103258000D01*
X160500000Y-90706000D02*
X160500000Y-88110000D01*
X133315000Y-117330000D02*
X132000000Y-116015000D01*
X129800000Y-54550000D02*
X129710000Y-54460000D01*
X135837000Y-130048000D02*
X136398000Y-130048000D01*
X162340000Y-46210000D02*
X160540000Y-46210000D01*
X133315000Y-132570000D02*
X135837000Y-130048000D01*
X132165000Y-75540000D02*
X132165000Y-70220000D01*
X159258000Y-91948000D02*
X160500000Y-90706000D01*
X132165000Y-77840000D02*
X132165000Y-87326346D01*
X132165000Y-118995330D02*
X133572665Y-117587665D01*
M02*
