G04 #@! TF.GenerationSoftware,KiCad,Pcbnew,7.0.7*
G04 #@! TF.CreationDate,2024-02-13T21:43:46-05:00*
G04 #@! TF.ProjectId,panelized,70616e65-6c69-47a6-9564-2e6b69636164,rev?*
G04 #@! TF.SameCoordinates,Original*
G04 #@! TF.FileFunction,Legend,Bot*
G04 #@! TF.FilePolarity,Positive*
%FSLAX46Y46*%
G04 Gerber Fmt 4.6, Leading zero omitted, Abs format (unit mm)*
G04 Created by KiCad (PCBNEW 7.0.7) date 2024-02-13 21:43:46*
%MOMM*%
%LPD*%
G01*
G04 APERTURE LIST*
G04 Aperture macros list*
%AMRoundRect*
0 Rectangle with rounded corners*
0 $1 Rounding radius*
0 $2 $3 $4 $5 $6 $7 $8 $9 X,Y pos of 4 corners*
0 Add a 4 corners polygon primitive as box body*
4,1,4,$2,$3,$4,$5,$6,$7,$8,$9,$2,$3,0*
0 Add four circle primitives for the rounded corners*
1,1,$1+$1,$2,$3*
1,1,$1+$1,$4,$5*
1,1,$1+$1,$6,$7*
1,1,$1+$1,$8,$9*
0 Add four rect primitives between the rounded corners*
20,1,$1+$1,$2,$3,$4,$5,0*
20,1,$1+$1,$4,$5,$6,$7,0*
20,1,$1+$1,$6,$7,$8,$9,0*
20,1,$1+$1,$8,$9,$2,$3,0*%
G04 Aperture macros list end*
%ADD10C,0.150000*%
%ADD11C,0.120000*%
%ADD12R,1.050000X0.650000*%
%ADD13RoundRect,0.200000X0.275000X-0.200000X0.275000X0.200000X-0.275000X0.200000X-0.275000X-0.200000X0*%
%ADD14RoundRect,0.100000X-0.637500X-0.100000X0.637500X-0.100000X0.637500X0.100000X-0.637500X0.100000X0*%
%ADD15C,0.500000*%
%ADD16R,1.700000X1.700000*%
%ADD17O,1.700000X1.700000*%
G04 APERTURE END LIST*
D10*
X125827418Y-66607200D02*
X125684561Y-66654819D01*
X125684561Y-66654819D02*
X125446466Y-66654819D01*
X125446466Y-66654819D02*
X125351228Y-66607200D01*
X125351228Y-66607200D02*
X125303609Y-66559580D01*
X125303609Y-66559580D02*
X125255990Y-66464342D01*
X125255990Y-66464342D02*
X125255990Y-66369104D01*
X125255990Y-66369104D02*
X125303609Y-66273866D01*
X125303609Y-66273866D02*
X125351228Y-66226247D01*
X125351228Y-66226247D02*
X125446466Y-66178628D01*
X125446466Y-66178628D02*
X125636942Y-66131009D01*
X125636942Y-66131009D02*
X125732180Y-66083390D01*
X125732180Y-66083390D02*
X125779799Y-66035771D01*
X125779799Y-66035771D02*
X125827418Y-65940533D01*
X125827418Y-65940533D02*
X125827418Y-65845295D01*
X125827418Y-65845295D02*
X125779799Y-65750057D01*
X125779799Y-65750057D02*
X125732180Y-65702438D01*
X125732180Y-65702438D02*
X125636942Y-65654819D01*
X125636942Y-65654819D02*
X125398847Y-65654819D01*
X125398847Y-65654819D02*
X125255990Y-65702438D01*
X124922656Y-65654819D02*
X124684561Y-66654819D01*
X124684561Y-66654819D02*
X124494085Y-65940533D01*
X124494085Y-65940533D02*
X124303609Y-66654819D01*
X124303609Y-66654819D02*
X124065514Y-65654819D01*
X123255990Y-65654819D02*
X123446466Y-65654819D01*
X123446466Y-65654819D02*
X123541704Y-65702438D01*
X123541704Y-65702438D02*
X123589323Y-65750057D01*
X123589323Y-65750057D02*
X123684561Y-65892914D01*
X123684561Y-65892914D02*
X123732180Y-66083390D01*
X123732180Y-66083390D02*
X123732180Y-66464342D01*
X123732180Y-66464342D02*
X123684561Y-66559580D01*
X123684561Y-66559580D02*
X123636942Y-66607200D01*
X123636942Y-66607200D02*
X123541704Y-66654819D01*
X123541704Y-66654819D02*
X123351228Y-66654819D01*
X123351228Y-66654819D02*
X123255990Y-66607200D01*
X123255990Y-66607200D02*
X123208371Y-66559580D01*
X123208371Y-66559580D02*
X123160752Y-66464342D01*
X123160752Y-66464342D02*
X123160752Y-66226247D01*
X123160752Y-66226247D02*
X123208371Y-66131009D01*
X123208371Y-66131009D02*
X123255990Y-66083390D01*
X123255990Y-66083390D02*
X123351228Y-66035771D01*
X123351228Y-66035771D02*
X123541704Y-66035771D01*
X123541704Y-66035771D02*
X123636942Y-66083390D01*
X123636942Y-66083390D02*
X123684561Y-66131009D01*
X123684561Y-66131009D02*
X123732180Y-66226247D01*
X180727418Y-66607200D02*
X180584561Y-66654819D01*
X180584561Y-66654819D02*
X180346466Y-66654819D01*
X180346466Y-66654819D02*
X180251228Y-66607200D01*
X180251228Y-66607200D02*
X180203609Y-66559580D01*
X180203609Y-66559580D02*
X180155990Y-66464342D01*
X180155990Y-66464342D02*
X180155990Y-66369104D01*
X180155990Y-66369104D02*
X180203609Y-66273866D01*
X180203609Y-66273866D02*
X180251228Y-66226247D01*
X180251228Y-66226247D02*
X180346466Y-66178628D01*
X180346466Y-66178628D02*
X180536942Y-66131009D01*
X180536942Y-66131009D02*
X180632180Y-66083390D01*
X180632180Y-66083390D02*
X180679799Y-66035771D01*
X180679799Y-66035771D02*
X180727418Y-65940533D01*
X180727418Y-65940533D02*
X180727418Y-65845295D01*
X180727418Y-65845295D02*
X180679799Y-65750057D01*
X180679799Y-65750057D02*
X180632180Y-65702438D01*
X180632180Y-65702438D02*
X180536942Y-65654819D01*
X180536942Y-65654819D02*
X180298847Y-65654819D01*
X180298847Y-65654819D02*
X180155990Y-65702438D01*
X179822656Y-65654819D02*
X179584561Y-66654819D01*
X179584561Y-66654819D02*
X179394085Y-65940533D01*
X179394085Y-65940533D02*
X179203609Y-66654819D01*
X179203609Y-66654819D02*
X178965514Y-65654819D01*
X178108371Y-65654819D02*
X178584561Y-65654819D01*
X178584561Y-65654819D02*
X178632180Y-66131009D01*
X178632180Y-66131009D02*
X178584561Y-66083390D01*
X178584561Y-66083390D02*
X178489323Y-66035771D01*
X178489323Y-66035771D02*
X178251228Y-66035771D01*
X178251228Y-66035771D02*
X178155990Y-66083390D01*
X178155990Y-66083390D02*
X178108371Y-66131009D01*
X178108371Y-66131009D02*
X178060752Y-66226247D01*
X178060752Y-66226247D02*
X178060752Y-66464342D01*
X178060752Y-66464342D02*
X178108371Y-66559580D01*
X178108371Y-66559580D02*
X178155990Y-66607200D01*
X178155990Y-66607200D02*
X178251228Y-66654819D01*
X178251228Y-66654819D02*
X178489323Y-66654819D01*
X178489323Y-66654819D02*
X178584561Y-66607200D01*
X178584561Y-66607200D02*
X178632180Y-66559580D01*
X112228905Y-97032142D02*
X111752714Y-96698809D01*
X112228905Y-96460714D02*
X111228905Y-96460714D01*
X111228905Y-96460714D02*
X111228905Y-96841666D01*
X111228905Y-96841666D02*
X111276524Y-96936904D01*
X111276524Y-96936904D02*
X111324143Y-96984523D01*
X111324143Y-96984523D02*
X111419381Y-97032142D01*
X111419381Y-97032142D02*
X111562238Y-97032142D01*
X111562238Y-97032142D02*
X111657476Y-96984523D01*
X111657476Y-96984523D02*
X111705095Y-96936904D01*
X111705095Y-96936904D02*
X111752714Y-96841666D01*
X111752714Y-96841666D02*
X111752714Y-96460714D01*
X112228905Y-97984523D02*
X112228905Y-97413095D01*
X112228905Y-97698809D02*
X111228905Y-97698809D01*
X111228905Y-97698809D02*
X111371762Y-97603571D01*
X111371762Y-97603571D02*
X111467000Y-97508333D01*
X111467000Y-97508333D02*
X111514619Y-97413095D01*
X111562238Y-98841666D02*
X112228905Y-98841666D01*
X111181286Y-98603571D02*
X111895571Y-98365476D01*
X111895571Y-98365476D02*
X111895571Y-98984523D01*
X110652418Y-136432200D02*
X110509561Y-136479819D01*
X110509561Y-136479819D02*
X110271466Y-136479819D01*
X110271466Y-136479819D02*
X110176228Y-136432200D01*
X110176228Y-136432200D02*
X110128609Y-136384580D01*
X110128609Y-136384580D02*
X110080990Y-136289342D01*
X110080990Y-136289342D02*
X110080990Y-136194104D01*
X110080990Y-136194104D02*
X110128609Y-136098866D01*
X110128609Y-136098866D02*
X110176228Y-136051247D01*
X110176228Y-136051247D02*
X110271466Y-136003628D01*
X110271466Y-136003628D02*
X110461942Y-135956009D01*
X110461942Y-135956009D02*
X110557180Y-135908390D01*
X110557180Y-135908390D02*
X110604799Y-135860771D01*
X110604799Y-135860771D02*
X110652418Y-135765533D01*
X110652418Y-135765533D02*
X110652418Y-135670295D01*
X110652418Y-135670295D02*
X110604799Y-135575057D01*
X110604799Y-135575057D02*
X110557180Y-135527438D01*
X110557180Y-135527438D02*
X110461942Y-135479819D01*
X110461942Y-135479819D02*
X110223847Y-135479819D01*
X110223847Y-135479819D02*
X110080990Y-135527438D01*
X109747656Y-135479819D02*
X109509561Y-136479819D01*
X109509561Y-136479819D02*
X109319085Y-135765533D01*
X109319085Y-135765533D02*
X109128609Y-136479819D01*
X109128609Y-136479819D02*
X108890514Y-135479819D01*
X108557180Y-135575057D02*
X108509561Y-135527438D01*
X108509561Y-135527438D02*
X108414323Y-135479819D01*
X108414323Y-135479819D02*
X108176228Y-135479819D01*
X108176228Y-135479819D02*
X108080990Y-135527438D01*
X108080990Y-135527438D02*
X108033371Y-135575057D01*
X108033371Y-135575057D02*
X107985752Y-135670295D01*
X107985752Y-135670295D02*
X107985752Y-135765533D01*
X107985752Y-135765533D02*
X108033371Y-135908390D01*
X108033371Y-135908390D02*
X108604799Y-136479819D01*
X108604799Y-136479819D02*
X107985752Y-136479819D01*
X118327418Y-91607200D02*
X118184561Y-91654819D01*
X118184561Y-91654819D02*
X117946466Y-91654819D01*
X117946466Y-91654819D02*
X117851228Y-91607200D01*
X117851228Y-91607200D02*
X117803609Y-91559580D01*
X117803609Y-91559580D02*
X117755990Y-91464342D01*
X117755990Y-91464342D02*
X117755990Y-91369104D01*
X117755990Y-91369104D02*
X117803609Y-91273866D01*
X117803609Y-91273866D02*
X117851228Y-91226247D01*
X117851228Y-91226247D02*
X117946466Y-91178628D01*
X117946466Y-91178628D02*
X118136942Y-91131009D01*
X118136942Y-91131009D02*
X118232180Y-91083390D01*
X118232180Y-91083390D02*
X118279799Y-91035771D01*
X118279799Y-91035771D02*
X118327418Y-90940533D01*
X118327418Y-90940533D02*
X118327418Y-90845295D01*
X118327418Y-90845295D02*
X118279799Y-90750057D01*
X118279799Y-90750057D02*
X118232180Y-90702438D01*
X118232180Y-90702438D02*
X118136942Y-90654819D01*
X118136942Y-90654819D02*
X117898847Y-90654819D01*
X117898847Y-90654819D02*
X117755990Y-90702438D01*
X117422656Y-90654819D02*
X117184561Y-91654819D01*
X117184561Y-91654819D02*
X116994085Y-90940533D01*
X116994085Y-90940533D02*
X116803609Y-91654819D01*
X116803609Y-91654819D02*
X116565514Y-90654819D01*
X115708371Y-90654819D02*
X116184561Y-90654819D01*
X116184561Y-90654819D02*
X116232180Y-91131009D01*
X116232180Y-91131009D02*
X116184561Y-91083390D01*
X116184561Y-91083390D02*
X116089323Y-91035771D01*
X116089323Y-91035771D02*
X115851228Y-91035771D01*
X115851228Y-91035771D02*
X115755990Y-91083390D01*
X115755990Y-91083390D02*
X115708371Y-91131009D01*
X115708371Y-91131009D02*
X115660752Y-91226247D01*
X115660752Y-91226247D02*
X115660752Y-91464342D01*
X115660752Y-91464342D02*
X115708371Y-91559580D01*
X115708371Y-91559580D02*
X115755990Y-91607200D01*
X115755990Y-91607200D02*
X115851228Y-91654819D01*
X115851228Y-91654819D02*
X116089323Y-91654819D01*
X116089323Y-91654819D02*
X116184561Y-91607200D01*
X116184561Y-91607200D02*
X116232180Y-91559580D01*
X116743490Y-53829819D02*
X116743490Y-54639342D01*
X116743490Y-54639342D02*
X116695871Y-54734580D01*
X116695871Y-54734580D02*
X116648252Y-54782200D01*
X116648252Y-54782200D02*
X116553014Y-54829819D01*
X116553014Y-54829819D02*
X116362538Y-54829819D01*
X116362538Y-54829819D02*
X116267300Y-54782200D01*
X116267300Y-54782200D02*
X116219681Y-54734580D01*
X116219681Y-54734580D02*
X116172062Y-54639342D01*
X116172062Y-54639342D02*
X116172062Y-53829819D01*
X115267300Y-54163152D02*
X115267300Y-54829819D01*
X115505395Y-53782200D02*
X115743490Y-54496485D01*
X115743490Y-54496485D02*
X115124443Y-54496485D01*
X110652418Y-61432200D02*
X110509561Y-61479819D01*
X110509561Y-61479819D02*
X110271466Y-61479819D01*
X110271466Y-61479819D02*
X110176228Y-61432200D01*
X110176228Y-61432200D02*
X110128609Y-61384580D01*
X110128609Y-61384580D02*
X110080990Y-61289342D01*
X110080990Y-61289342D02*
X110080990Y-61194104D01*
X110080990Y-61194104D02*
X110128609Y-61098866D01*
X110128609Y-61098866D02*
X110176228Y-61051247D01*
X110176228Y-61051247D02*
X110271466Y-61003628D01*
X110271466Y-61003628D02*
X110461942Y-60956009D01*
X110461942Y-60956009D02*
X110557180Y-60908390D01*
X110557180Y-60908390D02*
X110604799Y-60860771D01*
X110604799Y-60860771D02*
X110652418Y-60765533D01*
X110652418Y-60765533D02*
X110652418Y-60670295D01*
X110652418Y-60670295D02*
X110604799Y-60575057D01*
X110604799Y-60575057D02*
X110557180Y-60527438D01*
X110557180Y-60527438D02*
X110461942Y-60479819D01*
X110461942Y-60479819D02*
X110223847Y-60479819D01*
X110223847Y-60479819D02*
X110080990Y-60527438D01*
X109747656Y-60479819D02*
X109509561Y-61479819D01*
X109509561Y-61479819D02*
X109319085Y-60765533D01*
X109319085Y-60765533D02*
X109128609Y-61479819D01*
X109128609Y-61479819D02*
X108890514Y-60479819D01*
X108557180Y-60575057D02*
X108509561Y-60527438D01*
X108509561Y-60527438D02*
X108414323Y-60479819D01*
X108414323Y-60479819D02*
X108176228Y-60479819D01*
X108176228Y-60479819D02*
X108080990Y-60527438D01*
X108080990Y-60527438D02*
X108033371Y-60575057D01*
X108033371Y-60575057D02*
X107985752Y-60670295D01*
X107985752Y-60670295D02*
X107985752Y-60765533D01*
X107985752Y-60765533D02*
X108033371Y-60908390D01*
X108033371Y-60908390D02*
X108604799Y-61479819D01*
X108604799Y-61479819D02*
X107985752Y-61479819D01*
X147943490Y-53829819D02*
X147943490Y-54639342D01*
X147943490Y-54639342D02*
X147895871Y-54734580D01*
X147895871Y-54734580D02*
X147848252Y-54782200D01*
X147848252Y-54782200D02*
X147753014Y-54829819D01*
X147753014Y-54829819D02*
X147562538Y-54829819D01*
X147562538Y-54829819D02*
X147467300Y-54782200D01*
X147467300Y-54782200D02*
X147419681Y-54734580D01*
X147419681Y-54734580D02*
X147372062Y-54639342D01*
X147372062Y-54639342D02*
X147372062Y-53829819D01*
X146467300Y-54163152D02*
X146467300Y-54829819D01*
X146705395Y-53782200D02*
X146943490Y-54496485D01*
X146943490Y-54496485D02*
X146324443Y-54496485D01*
X112228905Y-72032142D02*
X111752714Y-71698809D01*
X112228905Y-71460714D02*
X111228905Y-71460714D01*
X111228905Y-71460714D02*
X111228905Y-71841666D01*
X111228905Y-71841666D02*
X111276524Y-71936904D01*
X111276524Y-71936904D02*
X111324143Y-71984523D01*
X111324143Y-71984523D02*
X111419381Y-72032142D01*
X111419381Y-72032142D02*
X111562238Y-72032142D01*
X111562238Y-72032142D02*
X111657476Y-71984523D01*
X111657476Y-71984523D02*
X111705095Y-71936904D01*
X111705095Y-71936904D02*
X111752714Y-71841666D01*
X111752714Y-71841666D02*
X111752714Y-71460714D01*
X112228905Y-72984523D02*
X112228905Y-72413095D01*
X112228905Y-72698809D02*
X111228905Y-72698809D01*
X111228905Y-72698809D02*
X111371762Y-72603571D01*
X111371762Y-72603571D02*
X111467000Y-72508333D01*
X111467000Y-72508333D02*
X111514619Y-72413095D01*
X111562238Y-73841666D02*
X112228905Y-73841666D01*
X111181286Y-73603571D02*
X111895571Y-73365476D01*
X111895571Y-73365476D02*
X111895571Y-73984523D01*
X147943490Y-128829819D02*
X147943490Y-129639342D01*
X147943490Y-129639342D02*
X147895871Y-129734580D01*
X147895871Y-129734580D02*
X147848252Y-129782200D01*
X147848252Y-129782200D02*
X147753014Y-129829819D01*
X147753014Y-129829819D02*
X147562538Y-129829819D01*
X147562538Y-129829819D02*
X147467300Y-129782200D01*
X147467300Y-129782200D02*
X147419681Y-129734580D01*
X147419681Y-129734580D02*
X147372062Y-129639342D01*
X147372062Y-129639342D02*
X147372062Y-128829819D01*
X146467300Y-129163152D02*
X146467300Y-129829819D01*
X146705395Y-128782200D02*
X146943490Y-129496485D01*
X146943490Y-129496485D02*
X146324443Y-129496485D01*
X157027418Y-116607200D02*
X156884561Y-116654819D01*
X156884561Y-116654819D02*
X156646466Y-116654819D01*
X156646466Y-116654819D02*
X156551228Y-116607200D01*
X156551228Y-116607200D02*
X156503609Y-116559580D01*
X156503609Y-116559580D02*
X156455990Y-116464342D01*
X156455990Y-116464342D02*
X156455990Y-116369104D01*
X156455990Y-116369104D02*
X156503609Y-116273866D01*
X156503609Y-116273866D02*
X156551228Y-116226247D01*
X156551228Y-116226247D02*
X156646466Y-116178628D01*
X156646466Y-116178628D02*
X156836942Y-116131009D01*
X156836942Y-116131009D02*
X156932180Y-116083390D01*
X156932180Y-116083390D02*
X156979799Y-116035771D01*
X156979799Y-116035771D02*
X157027418Y-115940533D01*
X157027418Y-115940533D02*
X157027418Y-115845295D01*
X157027418Y-115845295D02*
X156979799Y-115750057D01*
X156979799Y-115750057D02*
X156932180Y-115702438D01*
X156932180Y-115702438D02*
X156836942Y-115654819D01*
X156836942Y-115654819D02*
X156598847Y-115654819D01*
X156598847Y-115654819D02*
X156455990Y-115702438D01*
X156122656Y-115654819D02*
X155884561Y-116654819D01*
X155884561Y-116654819D02*
X155694085Y-115940533D01*
X155694085Y-115940533D02*
X155503609Y-116654819D01*
X155503609Y-116654819D02*
X155265514Y-115654819D01*
X154455990Y-115654819D02*
X154646466Y-115654819D01*
X154646466Y-115654819D02*
X154741704Y-115702438D01*
X154741704Y-115702438D02*
X154789323Y-115750057D01*
X154789323Y-115750057D02*
X154884561Y-115892914D01*
X154884561Y-115892914D02*
X154932180Y-116083390D01*
X154932180Y-116083390D02*
X154932180Y-116464342D01*
X154932180Y-116464342D02*
X154884561Y-116559580D01*
X154884561Y-116559580D02*
X154836942Y-116607200D01*
X154836942Y-116607200D02*
X154741704Y-116654819D01*
X154741704Y-116654819D02*
X154551228Y-116654819D01*
X154551228Y-116654819D02*
X154455990Y-116607200D01*
X154455990Y-116607200D02*
X154408371Y-116559580D01*
X154408371Y-116559580D02*
X154360752Y-116464342D01*
X154360752Y-116464342D02*
X154360752Y-116226247D01*
X154360752Y-116226247D02*
X154408371Y-116131009D01*
X154408371Y-116131009D02*
X154455990Y-116083390D01*
X154455990Y-116083390D02*
X154551228Y-116035771D01*
X154551228Y-116035771D02*
X154741704Y-116035771D01*
X154741704Y-116035771D02*
X154836942Y-116083390D01*
X154836942Y-116083390D02*
X154884561Y-116131009D01*
X154884561Y-116131009D02*
X154932180Y-116226247D01*
X141852418Y-86432200D02*
X141709561Y-86479819D01*
X141709561Y-86479819D02*
X141471466Y-86479819D01*
X141471466Y-86479819D02*
X141376228Y-86432200D01*
X141376228Y-86432200D02*
X141328609Y-86384580D01*
X141328609Y-86384580D02*
X141280990Y-86289342D01*
X141280990Y-86289342D02*
X141280990Y-86194104D01*
X141280990Y-86194104D02*
X141328609Y-86098866D01*
X141328609Y-86098866D02*
X141376228Y-86051247D01*
X141376228Y-86051247D02*
X141471466Y-86003628D01*
X141471466Y-86003628D02*
X141661942Y-85956009D01*
X141661942Y-85956009D02*
X141757180Y-85908390D01*
X141757180Y-85908390D02*
X141804799Y-85860771D01*
X141804799Y-85860771D02*
X141852418Y-85765533D01*
X141852418Y-85765533D02*
X141852418Y-85670295D01*
X141852418Y-85670295D02*
X141804799Y-85575057D01*
X141804799Y-85575057D02*
X141757180Y-85527438D01*
X141757180Y-85527438D02*
X141661942Y-85479819D01*
X141661942Y-85479819D02*
X141423847Y-85479819D01*
X141423847Y-85479819D02*
X141280990Y-85527438D01*
X140947656Y-85479819D02*
X140709561Y-86479819D01*
X140709561Y-86479819D02*
X140519085Y-85765533D01*
X140519085Y-85765533D02*
X140328609Y-86479819D01*
X140328609Y-86479819D02*
X140090514Y-85479819D01*
X139757180Y-85575057D02*
X139709561Y-85527438D01*
X139709561Y-85527438D02*
X139614323Y-85479819D01*
X139614323Y-85479819D02*
X139376228Y-85479819D01*
X139376228Y-85479819D02*
X139280990Y-85527438D01*
X139280990Y-85527438D02*
X139233371Y-85575057D01*
X139233371Y-85575057D02*
X139185752Y-85670295D01*
X139185752Y-85670295D02*
X139185752Y-85765533D01*
X139185752Y-85765533D02*
X139233371Y-85908390D01*
X139233371Y-85908390D02*
X139804799Y-86479819D01*
X139804799Y-86479819D02*
X139185752Y-86479819D01*
X116743490Y-103829819D02*
X116743490Y-104639342D01*
X116743490Y-104639342D02*
X116695871Y-104734580D01*
X116695871Y-104734580D02*
X116648252Y-104782200D01*
X116648252Y-104782200D02*
X116553014Y-104829819D01*
X116553014Y-104829819D02*
X116362538Y-104829819D01*
X116362538Y-104829819D02*
X116267300Y-104782200D01*
X116267300Y-104782200D02*
X116219681Y-104734580D01*
X116219681Y-104734580D02*
X116172062Y-104639342D01*
X116172062Y-104639342D02*
X116172062Y-103829819D01*
X115267300Y-104163152D02*
X115267300Y-104829819D01*
X115505395Y-103782200D02*
X115743490Y-104496485D01*
X115743490Y-104496485D02*
X115124443Y-104496485D01*
X188227418Y-116607200D02*
X188084561Y-116654819D01*
X188084561Y-116654819D02*
X187846466Y-116654819D01*
X187846466Y-116654819D02*
X187751228Y-116607200D01*
X187751228Y-116607200D02*
X187703609Y-116559580D01*
X187703609Y-116559580D02*
X187655990Y-116464342D01*
X187655990Y-116464342D02*
X187655990Y-116369104D01*
X187655990Y-116369104D02*
X187703609Y-116273866D01*
X187703609Y-116273866D02*
X187751228Y-116226247D01*
X187751228Y-116226247D02*
X187846466Y-116178628D01*
X187846466Y-116178628D02*
X188036942Y-116131009D01*
X188036942Y-116131009D02*
X188132180Y-116083390D01*
X188132180Y-116083390D02*
X188179799Y-116035771D01*
X188179799Y-116035771D02*
X188227418Y-115940533D01*
X188227418Y-115940533D02*
X188227418Y-115845295D01*
X188227418Y-115845295D02*
X188179799Y-115750057D01*
X188179799Y-115750057D02*
X188132180Y-115702438D01*
X188132180Y-115702438D02*
X188036942Y-115654819D01*
X188036942Y-115654819D02*
X187798847Y-115654819D01*
X187798847Y-115654819D02*
X187655990Y-115702438D01*
X187322656Y-115654819D02*
X187084561Y-116654819D01*
X187084561Y-116654819D02*
X186894085Y-115940533D01*
X186894085Y-115940533D02*
X186703609Y-116654819D01*
X186703609Y-116654819D02*
X186465514Y-115654819D01*
X185655990Y-115654819D02*
X185846466Y-115654819D01*
X185846466Y-115654819D02*
X185941704Y-115702438D01*
X185941704Y-115702438D02*
X185989323Y-115750057D01*
X185989323Y-115750057D02*
X186084561Y-115892914D01*
X186084561Y-115892914D02*
X186132180Y-116083390D01*
X186132180Y-116083390D02*
X186132180Y-116464342D01*
X186132180Y-116464342D02*
X186084561Y-116559580D01*
X186084561Y-116559580D02*
X186036942Y-116607200D01*
X186036942Y-116607200D02*
X185941704Y-116654819D01*
X185941704Y-116654819D02*
X185751228Y-116654819D01*
X185751228Y-116654819D02*
X185655990Y-116607200D01*
X185655990Y-116607200D02*
X185608371Y-116559580D01*
X185608371Y-116559580D02*
X185560752Y-116464342D01*
X185560752Y-116464342D02*
X185560752Y-116226247D01*
X185560752Y-116226247D02*
X185608371Y-116131009D01*
X185608371Y-116131009D02*
X185655990Y-116083390D01*
X185655990Y-116083390D02*
X185751228Y-116035771D01*
X185751228Y-116035771D02*
X185941704Y-116035771D01*
X185941704Y-116035771D02*
X186036942Y-116083390D01*
X186036942Y-116083390D02*
X186084561Y-116131009D01*
X186084561Y-116131009D02*
X186132180Y-116226247D01*
X125827418Y-91607200D02*
X125684561Y-91654819D01*
X125684561Y-91654819D02*
X125446466Y-91654819D01*
X125446466Y-91654819D02*
X125351228Y-91607200D01*
X125351228Y-91607200D02*
X125303609Y-91559580D01*
X125303609Y-91559580D02*
X125255990Y-91464342D01*
X125255990Y-91464342D02*
X125255990Y-91369104D01*
X125255990Y-91369104D02*
X125303609Y-91273866D01*
X125303609Y-91273866D02*
X125351228Y-91226247D01*
X125351228Y-91226247D02*
X125446466Y-91178628D01*
X125446466Y-91178628D02*
X125636942Y-91131009D01*
X125636942Y-91131009D02*
X125732180Y-91083390D01*
X125732180Y-91083390D02*
X125779799Y-91035771D01*
X125779799Y-91035771D02*
X125827418Y-90940533D01*
X125827418Y-90940533D02*
X125827418Y-90845295D01*
X125827418Y-90845295D02*
X125779799Y-90750057D01*
X125779799Y-90750057D02*
X125732180Y-90702438D01*
X125732180Y-90702438D02*
X125636942Y-90654819D01*
X125636942Y-90654819D02*
X125398847Y-90654819D01*
X125398847Y-90654819D02*
X125255990Y-90702438D01*
X124922656Y-90654819D02*
X124684561Y-91654819D01*
X124684561Y-91654819D02*
X124494085Y-90940533D01*
X124494085Y-90940533D02*
X124303609Y-91654819D01*
X124303609Y-91654819D02*
X124065514Y-90654819D01*
X123255990Y-90654819D02*
X123446466Y-90654819D01*
X123446466Y-90654819D02*
X123541704Y-90702438D01*
X123541704Y-90702438D02*
X123589323Y-90750057D01*
X123589323Y-90750057D02*
X123684561Y-90892914D01*
X123684561Y-90892914D02*
X123732180Y-91083390D01*
X123732180Y-91083390D02*
X123732180Y-91464342D01*
X123732180Y-91464342D02*
X123684561Y-91559580D01*
X123684561Y-91559580D02*
X123636942Y-91607200D01*
X123636942Y-91607200D02*
X123541704Y-91654819D01*
X123541704Y-91654819D02*
X123351228Y-91654819D01*
X123351228Y-91654819D02*
X123255990Y-91607200D01*
X123255990Y-91607200D02*
X123208371Y-91559580D01*
X123208371Y-91559580D02*
X123160752Y-91464342D01*
X123160752Y-91464342D02*
X123160752Y-91226247D01*
X123160752Y-91226247D02*
X123208371Y-91131009D01*
X123208371Y-91131009D02*
X123255990Y-91083390D01*
X123255990Y-91083390D02*
X123351228Y-91035771D01*
X123351228Y-91035771D02*
X123541704Y-91035771D01*
X123541704Y-91035771D02*
X123636942Y-91083390D01*
X123636942Y-91083390D02*
X123684561Y-91131009D01*
X123684561Y-91131009D02*
X123732180Y-91226247D01*
X179143490Y-103829819D02*
X179143490Y-104639342D01*
X179143490Y-104639342D02*
X179095871Y-104734580D01*
X179095871Y-104734580D02*
X179048252Y-104782200D01*
X179048252Y-104782200D02*
X178953014Y-104829819D01*
X178953014Y-104829819D02*
X178762538Y-104829819D01*
X178762538Y-104829819D02*
X178667300Y-104782200D01*
X178667300Y-104782200D02*
X178619681Y-104734580D01*
X178619681Y-104734580D02*
X178572062Y-104639342D01*
X178572062Y-104639342D02*
X178572062Y-103829819D01*
X177667300Y-104163152D02*
X177667300Y-104829819D01*
X177905395Y-103782200D02*
X178143490Y-104496485D01*
X178143490Y-104496485D02*
X177524443Y-104496485D01*
X179143490Y-53829819D02*
X179143490Y-54639342D01*
X179143490Y-54639342D02*
X179095871Y-54734580D01*
X179095871Y-54734580D02*
X179048252Y-54782200D01*
X179048252Y-54782200D02*
X178953014Y-54829819D01*
X178953014Y-54829819D02*
X178762538Y-54829819D01*
X178762538Y-54829819D02*
X178667300Y-54782200D01*
X178667300Y-54782200D02*
X178619681Y-54734580D01*
X178619681Y-54734580D02*
X178572062Y-54639342D01*
X178572062Y-54639342D02*
X178572062Y-53829819D01*
X177667300Y-54163152D02*
X177667300Y-54829819D01*
X177905395Y-53782200D02*
X178143490Y-54496485D01*
X178143490Y-54496485D02*
X177524443Y-54496485D01*
X173052418Y-111432200D02*
X172909561Y-111479819D01*
X172909561Y-111479819D02*
X172671466Y-111479819D01*
X172671466Y-111479819D02*
X172576228Y-111432200D01*
X172576228Y-111432200D02*
X172528609Y-111384580D01*
X172528609Y-111384580D02*
X172480990Y-111289342D01*
X172480990Y-111289342D02*
X172480990Y-111194104D01*
X172480990Y-111194104D02*
X172528609Y-111098866D01*
X172528609Y-111098866D02*
X172576228Y-111051247D01*
X172576228Y-111051247D02*
X172671466Y-111003628D01*
X172671466Y-111003628D02*
X172861942Y-110956009D01*
X172861942Y-110956009D02*
X172957180Y-110908390D01*
X172957180Y-110908390D02*
X173004799Y-110860771D01*
X173004799Y-110860771D02*
X173052418Y-110765533D01*
X173052418Y-110765533D02*
X173052418Y-110670295D01*
X173052418Y-110670295D02*
X173004799Y-110575057D01*
X173004799Y-110575057D02*
X172957180Y-110527438D01*
X172957180Y-110527438D02*
X172861942Y-110479819D01*
X172861942Y-110479819D02*
X172623847Y-110479819D01*
X172623847Y-110479819D02*
X172480990Y-110527438D01*
X172147656Y-110479819D02*
X171909561Y-111479819D01*
X171909561Y-111479819D02*
X171719085Y-110765533D01*
X171719085Y-110765533D02*
X171528609Y-111479819D01*
X171528609Y-111479819D02*
X171290514Y-110479819D01*
X170957180Y-110575057D02*
X170909561Y-110527438D01*
X170909561Y-110527438D02*
X170814323Y-110479819D01*
X170814323Y-110479819D02*
X170576228Y-110479819D01*
X170576228Y-110479819D02*
X170480990Y-110527438D01*
X170480990Y-110527438D02*
X170433371Y-110575057D01*
X170433371Y-110575057D02*
X170385752Y-110670295D01*
X170385752Y-110670295D02*
X170385752Y-110765533D01*
X170385752Y-110765533D02*
X170433371Y-110908390D01*
X170433371Y-110908390D02*
X171004799Y-111479819D01*
X171004799Y-111479819D02*
X170385752Y-111479819D01*
X157027418Y-91607200D02*
X156884561Y-91654819D01*
X156884561Y-91654819D02*
X156646466Y-91654819D01*
X156646466Y-91654819D02*
X156551228Y-91607200D01*
X156551228Y-91607200D02*
X156503609Y-91559580D01*
X156503609Y-91559580D02*
X156455990Y-91464342D01*
X156455990Y-91464342D02*
X156455990Y-91369104D01*
X156455990Y-91369104D02*
X156503609Y-91273866D01*
X156503609Y-91273866D02*
X156551228Y-91226247D01*
X156551228Y-91226247D02*
X156646466Y-91178628D01*
X156646466Y-91178628D02*
X156836942Y-91131009D01*
X156836942Y-91131009D02*
X156932180Y-91083390D01*
X156932180Y-91083390D02*
X156979799Y-91035771D01*
X156979799Y-91035771D02*
X157027418Y-90940533D01*
X157027418Y-90940533D02*
X157027418Y-90845295D01*
X157027418Y-90845295D02*
X156979799Y-90750057D01*
X156979799Y-90750057D02*
X156932180Y-90702438D01*
X156932180Y-90702438D02*
X156836942Y-90654819D01*
X156836942Y-90654819D02*
X156598847Y-90654819D01*
X156598847Y-90654819D02*
X156455990Y-90702438D01*
X156122656Y-90654819D02*
X155884561Y-91654819D01*
X155884561Y-91654819D02*
X155694085Y-90940533D01*
X155694085Y-90940533D02*
X155503609Y-91654819D01*
X155503609Y-91654819D02*
X155265514Y-90654819D01*
X154455990Y-90654819D02*
X154646466Y-90654819D01*
X154646466Y-90654819D02*
X154741704Y-90702438D01*
X154741704Y-90702438D02*
X154789323Y-90750057D01*
X154789323Y-90750057D02*
X154884561Y-90892914D01*
X154884561Y-90892914D02*
X154932180Y-91083390D01*
X154932180Y-91083390D02*
X154932180Y-91464342D01*
X154932180Y-91464342D02*
X154884561Y-91559580D01*
X154884561Y-91559580D02*
X154836942Y-91607200D01*
X154836942Y-91607200D02*
X154741704Y-91654819D01*
X154741704Y-91654819D02*
X154551228Y-91654819D01*
X154551228Y-91654819D02*
X154455990Y-91607200D01*
X154455990Y-91607200D02*
X154408371Y-91559580D01*
X154408371Y-91559580D02*
X154360752Y-91464342D01*
X154360752Y-91464342D02*
X154360752Y-91226247D01*
X154360752Y-91226247D02*
X154408371Y-91131009D01*
X154408371Y-91131009D02*
X154455990Y-91083390D01*
X154455990Y-91083390D02*
X154551228Y-91035771D01*
X154551228Y-91035771D02*
X154741704Y-91035771D01*
X154741704Y-91035771D02*
X154836942Y-91083390D01*
X154836942Y-91083390D02*
X154884561Y-91131009D01*
X154884561Y-91131009D02*
X154932180Y-91226247D01*
X174628905Y-72032142D02*
X174152714Y-71698809D01*
X174628905Y-71460714D02*
X173628905Y-71460714D01*
X173628905Y-71460714D02*
X173628905Y-71841666D01*
X173628905Y-71841666D02*
X173676524Y-71936904D01*
X173676524Y-71936904D02*
X173724143Y-71984523D01*
X173724143Y-71984523D02*
X173819381Y-72032142D01*
X173819381Y-72032142D02*
X173962238Y-72032142D01*
X173962238Y-72032142D02*
X174057476Y-71984523D01*
X174057476Y-71984523D02*
X174105095Y-71936904D01*
X174105095Y-71936904D02*
X174152714Y-71841666D01*
X174152714Y-71841666D02*
X174152714Y-71460714D01*
X174628905Y-72984523D02*
X174628905Y-72413095D01*
X174628905Y-72698809D02*
X173628905Y-72698809D01*
X173628905Y-72698809D02*
X173771762Y-72603571D01*
X173771762Y-72603571D02*
X173867000Y-72508333D01*
X173867000Y-72508333D02*
X173914619Y-72413095D01*
X173962238Y-73841666D02*
X174628905Y-73841666D01*
X173581286Y-73603571D02*
X174295571Y-73365476D01*
X174295571Y-73365476D02*
X174295571Y-73984523D01*
X149527418Y-116607200D02*
X149384561Y-116654819D01*
X149384561Y-116654819D02*
X149146466Y-116654819D01*
X149146466Y-116654819D02*
X149051228Y-116607200D01*
X149051228Y-116607200D02*
X149003609Y-116559580D01*
X149003609Y-116559580D02*
X148955990Y-116464342D01*
X148955990Y-116464342D02*
X148955990Y-116369104D01*
X148955990Y-116369104D02*
X149003609Y-116273866D01*
X149003609Y-116273866D02*
X149051228Y-116226247D01*
X149051228Y-116226247D02*
X149146466Y-116178628D01*
X149146466Y-116178628D02*
X149336942Y-116131009D01*
X149336942Y-116131009D02*
X149432180Y-116083390D01*
X149432180Y-116083390D02*
X149479799Y-116035771D01*
X149479799Y-116035771D02*
X149527418Y-115940533D01*
X149527418Y-115940533D02*
X149527418Y-115845295D01*
X149527418Y-115845295D02*
X149479799Y-115750057D01*
X149479799Y-115750057D02*
X149432180Y-115702438D01*
X149432180Y-115702438D02*
X149336942Y-115654819D01*
X149336942Y-115654819D02*
X149098847Y-115654819D01*
X149098847Y-115654819D02*
X148955990Y-115702438D01*
X148622656Y-115654819D02*
X148384561Y-116654819D01*
X148384561Y-116654819D02*
X148194085Y-115940533D01*
X148194085Y-115940533D02*
X148003609Y-116654819D01*
X148003609Y-116654819D02*
X147765514Y-115654819D01*
X146908371Y-115654819D02*
X147384561Y-115654819D01*
X147384561Y-115654819D02*
X147432180Y-116131009D01*
X147432180Y-116131009D02*
X147384561Y-116083390D01*
X147384561Y-116083390D02*
X147289323Y-116035771D01*
X147289323Y-116035771D02*
X147051228Y-116035771D01*
X147051228Y-116035771D02*
X146955990Y-116083390D01*
X146955990Y-116083390D02*
X146908371Y-116131009D01*
X146908371Y-116131009D02*
X146860752Y-116226247D01*
X146860752Y-116226247D02*
X146860752Y-116464342D01*
X146860752Y-116464342D02*
X146908371Y-116559580D01*
X146908371Y-116559580D02*
X146955990Y-116607200D01*
X146955990Y-116607200D02*
X147051228Y-116654819D01*
X147051228Y-116654819D02*
X147289323Y-116654819D01*
X147289323Y-116654819D02*
X147384561Y-116607200D01*
X147384561Y-116607200D02*
X147432180Y-116559580D01*
X125827418Y-116607200D02*
X125684561Y-116654819D01*
X125684561Y-116654819D02*
X125446466Y-116654819D01*
X125446466Y-116654819D02*
X125351228Y-116607200D01*
X125351228Y-116607200D02*
X125303609Y-116559580D01*
X125303609Y-116559580D02*
X125255990Y-116464342D01*
X125255990Y-116464342D02*
X125255990Y-116369104D01*
X125255990Y-116369104D02*
X125303609Y-116273866D01*
X125303609Y-116273866D02*
X125351228Y-116226247D01*
X125351228Y-116226247D02*
X125446466Y-116178628D01*
X125446466Y-116178628D02*
X125636942Y-116131009D01*
X125636942Y-116131009D02*
X125732180Y-116083390D01*
X125732180Y-116083390D02*
X125779799Y-116035771D01*
X125779799Y-116035771D02*
X125827418Y-115940533D01*
X125827418Y-115940533D02*
X125827418Y-115845295D01*
X125827418Y-115845295D02*
X125779799Y-115750057D01*
X125779799Y-115750057D02*
X125732180Y-115702438D01*
X125732180Y-115702438D02*
X125636942Y-115654819D01*
X125636942Y-115654819D02*
X125398847Y-115654819D01*
X125398847Y-115654819D02*
X125255990Y-115702438D01*
X124922656Y-115654819D02*
X124684561Y-116654819D01*
X124684561Y-116654819D02*
X124494085Y-115940533D01*
X124494085Y-115940533D02*
X124303609Y-116654819D01*
X124303609Y-116654819D02*
X124065514Y-115654819D01*
X123255990Y-115654819D02*
X123446466Y-115654819D01*
X123446466Y-115654819D02*
X123541704Y-115702438D01*
X123541704Y-115702438D02*
X123589323Y-115750057D01*
X123589323Y-115750057D02*
X123684561Y-115892914D01*
X123684561Y-115892914D02*
X123732180Y-116083390D01*
X123732180Y-116083390D02*
X123732180Y-116464342D01*
X123732180Y-116464342D02*
X123684561Y-116559580D01*
X123684561Y-116559580D02*
X123636942Y-116607200D01*
X123636942Y-116607200D02*
X123541704Y-116654819D01*
X123541704Y-116654819D02*
X123351228Y-116654819D01*
X123351228Y-116654819D02*
X123255990Y-116607200D01*
X123255990Y-116607200D02*
X123208371Y-116559580D01*
X123208371Y-116559580D02*
X123160752Y-116464342D01*
X123160752Y-116464342D02*
X123160752Y-116226247D01*
X123160752Y-116226247D02*
X123208371Y-116131009D01*
X123208371Y-116131009D02*
X123255990Y-116083390D01*
X123255990Y-116083390D02*
X123351228Y-116035771D01*
X123351228Y-116035771D02*
X123541704Y-116035771D01*
X123541704Y-116035771D02*
X123636942Y-116083390D01*
X123636942Y-116083390D02*
X123684561Y-116131009D01*
X123684561Y-116131009D02*
X123732180Y-116226247D01*
X110652418Y-86432200D02*
X110509561Y-86479819D01*
X110509561Y-86479819D02*
X110271466Y-86479819D01*
X110271466Y-86479819D02*
X110176228Y-86432200D01*
X110176228Y-86432200D02*
X110128609Y-86384580D01*
X110128609Y-86384580D02*
X110080990Y-86289342D01*
X110080990Y-86289342D02*
X110080990Y-86194104D01*
X110080990Y-86194104D02*
X110128609Y-86098866D01*
X110128609Y-86098866D02*
X110176228Y-86051247D01*
X110176228Y-86051247D02*
X110271466Y-86003628D01*
X110271466Y-86003628D02*
X110461942Y-85956009D01*
X110461942Y-85956009D02*
X110557180Y-85908390D01*
X110557180Y-85908390D02*
X110604799Y-85860771D01*
X110604799Y-85860771D02*
X110652418Y-85765533D01*
X110652418Y-85765533D02*
X110652418Y-85670295D01*
X110652418Y-85670295D02*
X110604799Y-85575057D01*
X110604799Y-85575057D02*
X110557180Y-85527438D01*
X110557180Y-85527438D02*
X110461942Y-85479819D01*
X110461942Y-85479819D02*
X110223847Y-85479819D01*
X110223847Y-85479819D02*
X110080990Y-85527438D01*
X109747656Y-85479819D02*
X109509561Y-86479819D01*
X109509561Y-86479819D02*
X109319085Y-85765533D01*
X109319085Y-85765533D02*
X109128609Y-86479819D01*
X109128609Y-86479819D02*
X108890514Y-85479819D01*
X108557180Y-85575057D02*
X108509561Y-85527438D01*
X108509561Y-85527438D02*
X108414323Y-85479819D01*
X108414323Y-85479819D02*
X108176228Y-85479819D01*
X108176228Y-85479819D02*
X108080990Y-85527438D01*
X108080990Y-85527438D02*
X108033371Y-85575057D01*
X108033371Y-85575057D02*
X107985752Y-85670295D01*
X107985752Y-85670295D02*
X107985752Y-85765533D01*
X107985752Y-85765533D02*
X108033371Y-85908390D01*
X108033371Y-85908390D02*
X108604799Y-86479819D01*
X108604799Y-86479819D02*
X107985752Y-86479819D01*
X149527418Y-141607200D02*
X149384561Y-141654819D01*
X149384561Y-141654819D02*
X149146466Y-141654819D01*
X149146466Y-141654819D02*
X149051228Y-141607200D01*
X149051228Y-141607200D02*
X149003609Y-141559580D01*
X149003609Y-141559580D02*
X148955990Y-141464342D01*
X148955990Y-141464342D02*
X148955990Y-141369104D01*
X148955990Y-141369104D02*
X149003609Y-141273866D01*
X149003609Y-141273866D02*
X149051228Y-141226247D01*
X149051228Y-141226247D02*
X149146466Y-141178628D01*
X149146466Y-141178628D02*
X149336942Y-141131009D01*
X149336942Y-141131009D02*
X149432180Y-141083390D01*
X149432180Y-141083390D02*
X149479799Y-141035771D01*
X149479799Y-141035771D02*
X149527418Y-140940533D01*
X149527418Y-140940533D02*
X149527418Y-140845295D01*
X149527418Y-140845295D02*
X149479799Y-140750057D01*
X149479799Y-140750057D02*
X149432180Y-140702438D01*
X149432180Y-140702438D02*
X149336942Y-140654819D01*
X149336942Y-140654819D02*
X149098847Y-140654819D01*
X149098847Y-140654819D02*
X148955990Y-140702438D01*
X148622656Y-140654819D02*
X148384561Y-141654819D01*
X148384561Y-141654819D02*
X148194085Y-140940533D01*
X148194085Y-140940533D02*
X148003609Y-141654819D01*
X148003609Y-141654819D02*
X147765514Y-140654819D01*
X146908371Y-140654819D02*
X147384561Y-140654819D01*
X147384561Y-140654819D02*
X147432180Y-141131009D01*
X147432180Y-141131009D02*
X147384561Y-141083390D01*
X147384561Y-141083390D02*
X147289323Y-141035771D01*
X147289323Y-141035771D02*
X147051228Y-141035771D01*
X147051228Y-141035771D02*
X146955990Y-141083390D01*
X146955990Y-141083390D02*
X146908371Y-141131009D01*
X146908371Y-141131009D02*
X146860752Y-141226247D01*
X146860752Y-141226247D02*
X146860752Y-141464342D01*
X146860752Y-141464342D02*
X146908371Y-141559580D01*
X146908371Y-141559580D02*
X146955990Y-141607200D01*
X146955990Y-141607200D02*
X147051228Y-141654819D01*
X147051228Y-141654819D02*
X147289323Y-141654819D01*
X147289323Y-141654819D02*
X147384561Y-141607200D01*
X147384561Y-141607200D02*
X147432180Y-141559580D01*
X157027418Y-141607200D02*
X156884561Y-141654819D01*
X156884561Y-141654819D02*
X156646466Y-141654819D01*
X156646466Y-141654819D02*
X156551228Y-141607200D01*
X156551228Y-141607200D02*
X156503609Y-141559580D01*
X156503609Y-141559580D02*
X156455990Y-141464342D01*
X156455990Y-141464342D02*
X156455990Y-141369104D01*
X156455990Y-141369104D02*
X156503609Y-141273866D01*
X156503609Y-141273866D02*
X156551228Y-141226247D01*
X156551228Y-141226247D02*
X156646466Y-141178628D01*
X156646466Y-141178628D02*
X156836942Y-141131009D01*
X156836942Y-141131009D02*
X156932180Y-141083390D01*
X156932180Y-141083390D02*
X156979799Y-141035771D01*
X156979799Y-141035771D02*
X157027418Y-140940533D01*
X157027418Y-140940533D02*
X157027418Y-140845295D01*
X157027418Y-140845295D02*
X156979799Y-140750057D01*
X156979799Y-140750057D02*
X156932180Y-140702438D01*
X156932180Y-140702438D02*
X156836942Y-140654819D01*
X156836942Y-140654819D02*
X156598847Y-140654819D01*
X156598847Y-140654819D02*
X156455990Y-140702438D01*
X156122656Y-140654819D02*
X155884561Y-141654819D01*
X155884561Y-141654819D02*
X155694085Y-140940533D01*
X155694085Y-140940533D02*
X155503609Y-141654819D01*
X155503609Y-141654819D02*
X155265514Y-140654819D01*
X154455990Y-140654819D02*
X154646466Y-140654819D01*
X154646466Y-140654819D02*
X154741704Y-140702438D01*
X154741704Y-140702438D02*
X154789323Y-140750057D01*
X154789323Y-140750057D02*
X154884561Y-140892914D01*
X154884561Y-140892914D02*
X154932180Y-141083390D01*
X154932180Y-141083390D02*
X154932180Y-141464342D01*
X154932180Y-141464342D02*
X154884561Y-141559580D01*
X154884561Y-141559580D02*
X154836942Y-141607200D01*
X154836942Y-141607200D02*
X154741704Y-141654819D01*
X154741704Y-141654819D02*
X154551228Y-141654819D01*
X154551228Y-141654819D02*
X154455990Y-141607200D01*
X154455990Y-141607200D02*
X154408371Y-141559580D01*
X154408371Y-141559580D02*
X154360752Y-141464342D01*
X154360752Y-141464342D02*
X154360752Y-141226247D01*
X154360752Y-141226247D02*
X154408371Y-141131009D01*
X154408371Y-141131009D02*
X154455990Y-141083390D01*
X154455990Y-141083390D02*
X154551228Y-141035771D01*
X154551228Y-141035771D02*
X154741704Y-141035771D01*
X154741704Y-141035771D02*
X154836942Y-141083390D01*
X154836942Y-141083390D02*
X154884561Y-141131009D01*
X154884561Y-141131009D02*
X154932180Y-141226247D01*
X173052418Y-86432200D02*
X172909561Y-86479819D01*
X172909561Y-86479819D02*
X172671466Y-86479819D01*
X172671466Y-86479819D02*
X172576228Y-86432200D01*
X172576228Y-86432200D02*
X172528609Y-86384580D01*
X172528609Y-86384580D02*
X172480990Y-86289342D01*
X172480990Y-86289342D02*
X172480990Y-86194104D01*
X172480990Y-86194104D02*
X172528609Y-86098866D01*
X172528609Y-86098866D02*
X172576228Y-86051247D01*
X172576228Y-86051247D02*
X172671466Y-86003628D01*
X172671466Y-86003628D02*
X172861942Y-85956009D01*
X172861942Y-85956009D02*
X172957180Y-85908390D01*
X172957180Y-85908390D02*
X173004799Y-85860771D01*
X173004799Y-85860771D02*
X173052418Y-85765533D01*
X173052418Y-85765533D02*
X173052418Y-85670295D01*
X173052418Y-85670295D02*
X173004799Y-85575057D01*
X173004799Y-85575057D02*
X172957180Y-85527438D01*
X172957180Y-85527438D02*
X172861942Y-85479819D01*
X172861942Y-85479819D02*
X172623847Y-85479819D01*
X172623847Y-85479819D02*
X172480990Y-85527438D01*
X172147656Y-85479819D02*
X171909561Y-86479819D01*
X171909561Y-86479819D02*
X171719085Y-85765533D01*
X171719085Y-85765533D02*
X171528609Y-86479819D01*
X171528609Y-86479819D02*
X171290514Y-85479819D01*
X170957180Y-85575057D02*
X170909561Y-85527438D01*
X170909561Y-85527438D02*
X170814323Y-85479819D01*
X170814323Y-85479819D02*
X170576228Y-85479819D01*
X170576228Y-85479819D02*
X170480990Y-85527438D01*
X170480990Y-85527438D02*
X170433371Y-85575057D01*
X170433371Y-85575057D02*
X170385752Y-85670295D01*
X170385752Y-85670295D02*
X170385752Y-85765533D01*
X170385752Y-85765533D02*
X170433371Y-85908390D01*
X170433371Y-85908390D02*
X171004799Y-86479819D01*
X171004799Y-86479819D02*
X170385752Y-86479819D01*
X180727418Y-116607200D02*
X180584561Y-116654819D01*
X180584561Y-116654819D02*
X180346466Y-116654819D01*
X180346466Y-116654819D02*
X180251228Y-116607200D01*
X180251228Y-116607200D02*
X180203609Y-116559580D01*
X180203609Y-116559580D02*
X180155990Y-116464342D01*
X180155990Y-116464342D02*
X180155990Y-116369104D01*
X180155990Y-116369104D02*
X180203609Y-116273866D01*
X180203609Y-116273866D02*
X180251228Y-116226247D01*
X180251228Y-116226247D02*
X180346466Y-116178628D01*
X180346466Y-116178628D02*
X180536942Y-116131009D01*
X180536942Y-116131009D02*
X180632180Y-116083390D01*
X180632180Y-116083390D02*
X180679799Y-116035771D01*
X180679799Y-116035771D02*
X180727418Y-115940533D01*
X180727418Y-115940533D02*
X180727418Y-115845295D01*
X180727418Y-115845295D02*
X180679799Y-115750057D01*
X180679799Y-115750057D02*
X180632180Y-115702438D01*
X180632180Y-115702438D02*
X180536942Y-115654819D01*
X180536942Y-115654819D02*
X180298847Y-115654819D01*
X180298847Y-115654819D02*
X180155990Y-115702438D01*
X179822656Y-115654819D02*
X179584561Y-116654819D01*
X179584561Y-116654819D02*
X179394085Y-115940533D01*
X179394085Y-115940533D02*
X179203609Y-116654819D01*
X179203609Y-116654819D02*
X178965514Y-115654819D01*
X178108371Y-115654819D02*
X178584561Y-115654819D01*
X178584561Y-115654819D02*
X178632180Y-116131009D01*
X178632180Y-116131009D02*
X178584561Y-116083390D01*
X178584561Y-116083390D02*
X178489323Y-116035771D01*
X178489323Y-116035771D02*
X178251228Y-116035771D01*
X178251228Y-116035771D02*
X178155990Y-116083390D01*
X178155990Y-116083390D02*
X178108371Y-116131009D01*
X178108371Y-116131009D02*
X178060752Y-116226247D01*
X178060752Y-116226247D02*
X178060752Y-116464342D01*
X178060752Y-116464342D02*
X178108371Y-116559580D01*
X178108371Y-116559580D02*
X178155990Y-116607200D01*
X178155990Y-116607200D02*
X178251228Y-116654819D01*
X178251228Y-116654819D02*
X178489323Y-116654819D01*
X178489323Y-116654819D02*
X178584561Y-116607200D01*
X178584561Y-116607200D02*
X178632180Y-116559580D01*
X141852418Y-136432200D02*
X141709561Y-136479819D01*
X141709561Y-136479819D02*
X141471466Y-136479819D01*
X141471466Y-136479819D02*
X141376228Y-136432200D01*
X141376228Y-136432200D02*
X141328609Y-136384580D01*
X141328609Y-136384580D02*
X141280990Y-136289342D01*
X141280990Y-136289342D02*
X141280990Y-136194104D01*
X141280990Y-136194104D02*
X141328609Y-136098866D01*
X141328609Y-136098866D02*
X141376228Y-136051247D01*
X141376228Y-136051247D02*
X141471466Y-136003628D01*
X141471466Y-136003628D02*
X141661942Y-135956009D01*
X141661942Y-135956009D02*
X141757180Y-135908390D01*
X141757180Y-135908390D02*
X141804799Y-135860771D01*
X141804799Y-135860771D02*
X141852418Y-135765533D01*
X141852418Y-135765533D02*
X141852418Y-135670295D01*
X141852418Y-135670295D02*
X141804799Y-135575057D01*
X141804799Y-135575057D02*
X141757180Y-135527438D01*
X141757180Y-135527438D02*
X141661942Y-135479819D01*
X141661942Y-135479819D02*
X141423847Y-135479819D01*
X141423847Y-135479819D02*
X141280990Y-135527438D01*
X140947656Y-135479819D02*
X140709561Y-136479819D01*
X140709561Y-136479819D02*
X140519085Y-135765533D01*
X140519085Y-135765533D02*
X140328609Y-136479819D01*
X140328609Y-136479819D02*
X140090514Y-135479819D01*
X139757180Y-135575057D02*
X139709561Y-135527438D01*
X139709561Y-135527438D02*
X139614323Y-135479819D01*
X139614323Y-135479819D02*
X139376228Y-135479819D01*
X139376228Y-135479819D02*
X139280990Y-135527438D01*
X139280990Y-135527438D02*
X139233371Y-135575057D01*
X139233371Y-135575057D02*
X139185752Y-135670295D01*
X139185752Y-135670295D02*
X139185752Y-135765533D01*
X139185752Y-135765533D02*
X139233371Y-135908390D01*
X139233371Y-135908390D02*
X139804799Y-136479819D01*
X139804799Y-136479819D02*
X139185752Y-136479819D01*
X118327418Y-116607200D02*
X118184561Y-116654819D01*
X118184561Y-116654819D02*
X117946466Y-116654819D01*
X117946466Y-116654819D02*
X117851228Y-116607200D01*
X117851228Y-116607200D02*
X117803609Y-116559580D01*
X117803609Y-116559580D02*
X117755990Y-116464342D01*
X117755990Y-116464342D02*
X117755990Y-116369104D01*
X117755990Y-116369104D02*
X117803609Y-116273866D01*
X117803609Y-116273866D02*
X117851228Y-116226247D01*
X117851228Y-116226247D02*
X117946466Y-116178628D01*
X117946466Y-116178628D02*
X118136942Y-116131009D01*
X118136942Y-116131009D02*
X118232180Y-116083390D01*
X118232180Y-116083390D02*
X118279799Y-116035771D01*
X118279799Y-116035771D02*
X118327418Y-115940533D01*
X118327418Y-115940533D02*
X118327418Y-115845295D01*
X118327418Y-115845295D02*
X118279799Y-115750057D01*
X118279799Y-115750057D02*
X118232180Y-115702438D01*
X118232180Y-115702438D02*
X118136942Y-115654819D01*
X118136942Y-115654819D02*
X117898847Y-115654819D01*
X117898847Y-115654819D02*
X117755990Y-115702438D01*
X117422656Y-115654819D02*
X117184561Y-116654819D01*
X117184561Y-116654819D02*
X116994085Y-115940533D01*
X116994085Y-115940533D02*
X116803609Y-116654819D01*
X116803609Y-116654819D02*
X116565514Y-115654819D01*
X115708371Y-115654819D02*
X116184561Y-115654819D01*
X116184561Y-115654819D02*
X116232180Y-116131009D01*
X116232180Y-116131009D02*
X116184561Y-116083390D01*
X116184561Y-116083390D02*
X116089323Y-116035771D01*
X116089323Y-116035771D02*
X115851228Y-116035771D01*
X115851228Y-116035771D02*
X115755990Y-116083390D01*
X115755990Y-116083390D02*
X115708371Y-116131009D01*
X115708371Y-116131009D02*
X115660752Y-116226247D01*
X115660752Y-116226247D02*
X115660752Y-116464342D01*
X115660752Y-116464342D02*
X115708371Y-116559580D01*
X115708371Y-116559580D02*
X115755990Y-116607200D01*
X115755990Y-116607200D02*
X115851228Y-116654819D01*
X115851228Y-116654819D02*
X116089323Y-116654819D01*
X116089323Y-116654819D02*
X116184561Y-116607200D01*
X116184561Y-116607200D02*
X116232180Y-116559580D01*
X180727418Y-141607200D02*
X180584561Y-141654819D01*
X180584561Y-141654819D02*
X180346466Y-141654819D01*
X180346466Y-141654819D02*
X180251228Y-141607200D01*
X180251228Y-141607200D02*
X180203609Y-141559580D01*
X180203609Y-141559580D02*
X180155990Y-141464342D01*
X180155990Y-141464342D02*
X180155990Y-141369104D01*
X180155990Y-141369104D02*
X180203609Y-141273866D01*
X180203609Y-141273866D02*
X180251228Y-141226247D01*
X180251228Y-141226247D02*
X180346466Y-141178628D01*
X180346466Y-141178628D02*
X180536942Y-141131009D01*
X180536942Y-141131009D02*
X180632180Y-141083390D01*
X180632180Y-141083390D02*
X180679799Y-141035771D01*
X180679799Y-141035771D02*
X180727418Y-140940533D01*
X180727418Y-140940533D02*
X180727418Y-140845295D01*
X180727418Y-140845295D02*
X180679799Y-140750057D01*
X180679799Y-140750057D02*
X180632180Y-140702438D01*
X180632180Y-140702438D02*
X180536942Y-140654819D01*
X180536942Y-140654819D02*
X180298847Y-140654819D01*
X180298847Y-140654819D02*
X180155990Y-140702438D01*
X179822656Y-140654819D02*
X179584561Y-141654819D01*
X179584561Y-141654819D02*
X179394085Y-140940533D01*
X179394085Y-140940533D02*
X179203609Y-141654819D01*
X179203609Y-141654819D02*
X178965514Y-140654819D01*
X178108371Y-140654819D02*
X178584561Y-140654819D01*
X178584561Y-140654819D02*
X178632180Y-141131009D01*
X178632180Y-141131009D02*
X178584561Y-141083390D01*
X178584561Y-141083390D02*
X178489323Y-141035771D01*
X178489323Y-141035771D02*
X178251228Y-141035771D01*
X178251228Y-141035771D02*
X178155990Y-141083390D01*
X178155990Y-141083390D02*
X178108371Y-141131009D01*
X178108371Y-141131009D02*
X178060752Y-141226247D01*
X178060752Y-141226247D02*
X178060752Y-141464342D01*
X178060752Y-141464342D02*
X178108371Y-141559580D01*
X178108371Y-141559580D02*
X178155990Y-141607200D01*
X178155990Y-141607200D02*
X178251228Y-141654819D01*
X178251228Y-141654819D02*
X178489323Y-141654819D01*
X178489323Y-141654819D02*
X178584561Y-141607200D01*
X178584561Y-141607200D02*
X178632180Y-141559580D01*
X143428905Y-122032142D02*
X142952714Y-121698809D01*
X143428905Y-121460714D02*
X142428905Y-121460714D01*
X142428905Y-121460714D02*
X142428905Y-121841666D01*
X142428905Y-121841666D02*
X142476524Y-121936904D01*
X142476524Y-121936904D02*
X142524143Y-121984523D01*
X142524143Y-121984523D02*
X142619381Y-122032142D01*
X142619381Y-122032142D02*
X142762238Y-122032142D01*
X142762238Y-122032142D02*
X142857476Y-121984523D01*
X142857476Y-121984523D02*
X142905095Y-121936904D01*
X142905095Y-121936904D02*
X142952714Y-121841666D01*
X142952714Y-121841666D02*
X142952714Y-121460714D01*
X143428905Y-122984523D02*
X143428905Y-122413095D01*
X143428905Y-122698809D02*
X142428905Y-122698809D01*
X142428905Y-122698809D02*
X142571762Y-122603571D01*
X142571762Y-122603571D02*
X142667000Y-122508333D01*
X142667000Y-122508333D02*
X142714619Y-122413095D01*
X142762238Y-123841666D02*
X143428905Y-123841666D01*
X142381286Y-123603571D02*
X143095571Y-123365476D01*
X143095571Y-123365476D02*
X143095571Y-123984523D01*
X188227418Y-141607200D02*
X188084561Y-141654819D01*
X188084561Y-141654819D02*
X187846466Y-141654819D01*
X187846466Y-141654819D02*
X187751228Y-141607200D01*
X187751228Y-141607200D02*
X187703609Y-141559580D01*
X187703609Y-141559580D02*
X187655990Y-141464342D01*
X187655990Y-141464342D02*
X187655990Y-141369104D01*
X187655990Y-141369104D02*
X187703609Y-141273866D01*
X187703609Y-141273866D02*
X187751228Y-141226247D01*
X187751228Y-141226247D02*
X187846466Y-141178628D01*
X187846466Y-141178628D02*
X188036942Y-141131009D01*
X188036942Y-141131009D02*
X188132180Y-141083390D01*
X188132180Y-141083390D02*
X188179799Y-141035771D01*
X188179799Y-141035771D02*
X188227418Y-140940533D01*
X188227418Y-140940533D02*
X188227418Y-140845295D01*
X188227418Y-140845295D02*
X188179799Y-140750057D01*
X188179799Y-140750057D02*
X188132180Y-140702438D01*
X188132180Y-140702438D02*
X188036942Y-140654819D01*
X188036942Y-140654819D02*
X187798847Y-140654819D01*
X187798847Y-140654819D02*
X187655990Y-140702438D01*
X187322656Y-140654819D02*
X187084561Y-141654819D01*
X187084561Y-141654819D02*
X186894085Y-140940533D01*
X186894085Y-140940533D02*
X186703609Y-141654819D01*
X186703609Y-141654819D02*
X186465514Y-140654819D01*
X185655990Y-140654819D02*
X185846466Y-140654819D01*
X185846466Y-140654819D02*
X185941704Y-140702438D01*
X185941704Y-140702438D02*
X185989323Y-140750057D01*
X185989323Y-140750057D02*
X186084561Y-140892914D01*
X186084561Y-140892914D02*
X186132180Y-141083390D01*
X186132180Y-141083390D02*
X186132180Y-141464342D01*
X186132180Y-141464342D02*
X186084561Y-141559580D01*
X186084561Y-141559580D02*
X186036942Y-141607200D01*
X186036942Y-141607200D02*
X185941704Y-141654819D01*
X185941704Y-141654819D02*
X185751228Y-141654819D01*
X185751228Y-141654819D02*
X185655990Y-141607200D01*
X185655990Y-141607200D02*
X185608371Y-141559580D01*
X185608371Y-141559580D02*
X185560752Y-141464342D01*
X185560752Y-141464342D02*
X185560752Y-141226247D01*
X185560752Y-141226247D02*
X185608371Y-141131009D01*
X185608371Y-141131009D02*
X185655990Y-141083390D01*
X185655990Y-141083390D02*
X185751228Y-141035771D01*
X185751228Y-141035771D02*
X185941704Y-141035771D01*
X185941704Y-141035771D02*
X186036942Y-141083390D01*
X186036942Y-141083390D02*
X186084561Y-141131009D01*
X186084561Y-141131009D02*
X186132180Y-141226247D01*
X188227418Y-91607200D02*
X188084561Y-91654819D01*
X188084561Y-91654819D02*
X187846466Y-91654819D01*
X187846466Y-91654819D02*
X187751228Y-91607200D01*
X187751228Y-91607200D02*
X187703609Y-91559580D01*
X187703609Y-91559580D02*
X187655990Y-91464342D01*
X187655990Y-91464342D02*
X187655990Y-91369104D01*
X187655990Y-91369104D02*
X187703609Y-91273866D01*
X187703609Y-91273866D02*
X187751228Y-91226247D01*
X187751228Y-91226247D02*
X187846466Y-91178628D01*
X187846466Y-91178628D02*
X188036942Y-91131009D01*
X188036942Y-91131009D02*
X188132180Y-91083390D01*
X188132180Y-91083390D02*
X188179799Y-91035771D01*
X188179799Y-91035771D02*
X188227418Y-90940533D01*
X188227418Y-90940533D02*
X188227418Y-90845295D01*
X188227418Y-90845295D02*
X188179799Y-90750057D01*
X188179799Y-90750057D02*
X188132180Y-90702438D01*
X188132180Y-90702438D02*
X188036942Y-90654819D01*
X188036942Y-90654819D02*
X187798847Y-90654819D01*
X187798847Y-90654819D02*
X187655990Y-90702438D01*
X187322656Y-90654819D02*
X187084561Y-91654819D01*
X187084561Y-91654819D02*
X186894085Y-90940533D01*
X186894085Y-90940533D02*
X186703609Y-91654819D01*
X186703609Y-91654819D02*
X186465514Y-90654819D01*
X185655990Y-90654819D02*
X185846466Y-90654819D01*
X185846466Y-90654819D02*
X185941704Y-90702438D01*
X185941704Y-90702438D02*
X185989323Y-90750057D01*
X185989323Y-90750057D02*
X186084561Y-90892914D01*
X186084561Y-90892914D02*
X186132180Y-91083390D01*
X186132180Y-91083390D02*
X186132180Y-91464342D01*
X186132180Y-91464342D02*
X186084561Y-91559580D01*
X186084561Y-91559580D02*
X186036942Y-91607200D01*
X186036942Y-91607200D02*
X185941704Y-91654819D01*
X185941704Y-91654819D02*
X185751228Y-91654819D01*
X185751228Y-91654819D02*
X185655990Y-91607200D01*
X185655990Y-91607200D02*
X185608371Y-91559580D01*
X185608371Y-91559580D02*
X185560752Y-91464342D01*
X185560752Y-91464342D02*
X185560752Y-91226247D01*
X185560752Y-91226247D02*
X185608371Y-91131009D01*
X185608371Y-91131009D02*
X185655990Y-91083390D01*
X185655990Y-91083390D02*
X185751228Y-91035771D01*
X185751228Y-91035771D02*
X185941704Y-91035771D01*
X185941704Y-91035771D02*
X186036942Y-91083390D01*
X186036942Y-91083390D02*
X186084561Y-91131009D01*
X186084561Y-91131009D02*
X186132180Y-91226247D01*
X149527418Y-66607200D02*
X149384561Y-66654819D01*
X149384561Y-66654819D02*
X149146466Y-66654819D01*
X149146466Y-66654819D02*
X149051228Y-66607200D01*
X149051228Y-66607200D02*
X149003609Y-66559580D01*
X149003609Y-66559580D02*
X148955990Y-66464342D01*
X148955990Y-66464342D02*
X148955990Y-66369104D01*
X148955990Y-66369104D02*
X149003609Y-66273866D01*
X149003609Y-66273866D02*
X149051228Y-66226247D01*
X149051228Y-66226247D02*
X149146466Y-66178628D01*
X149146466Y-66178628D02*
X149336942Y-66131009D01*
X149336942Y-66131009D02*
X149432180Y-66083390D01*
X149432180Y-66083390D02*
X149479799Y-66035771D01*
X149479799Y-66035771D02*
X149527418Y-65940533D01*
X149527418Y-65940533D02*
X149527418Y-65845295D01*
X149527418Y-65845295D02*
X149479799Y-65750057D01*
X149479799Y-65750057D02*
X149432180Y-65702438D01*
X149432180Y-65702438D02*
X149336942Y-65654819D01*
X149336942Y-65654819D02*
X149098847Y-65654819D01*
X149098847Y-65654819D02*
X148955990Y-65702438D01*
X148622656Y-65654819D02*
X148384561Y-66654819D01*
X148384561Y-66654819D02*
X148194085Y-65940533D01*
X148194085Y-65940533D02*
X148003609Y-66654819D01*
X148003609Y-66654819D02*
X147765514Y-65654819D01*
X146908371Y-65654819D02*
X147384561Y-65654819D01*
X147384561Y-65654819D02*
X147432180Y-66131009D01*
X147432180Y-66131009D02*
X147384561Y-66083390D01*
X147384561Y-66083390D02*
X147289323Y-66035771D01*
X147289323Y-66035771D02*
X147051228Y-66035771D01*
X147051228Y-66035771D02*
X146955990Y-66083390D01*
X146955990Y-66083390D02*
X146908371Y-66131009D01*
X146908371Y-66131009D02*
X146860752Y-66226247D01*
X146860752Y-66226247D02*
X146860752Y-66464342D01*
X146860752Y-66464342D02*
X146908371Y-66559580D01*
X146908371Y-66559580D02*
X146955990Y-66607200D01*
X146955990Y-66607200D02*
X147051228Y-66654819D01*
X147051228Y-66654819D02*
X147289323Y-66654819D01*
X147289323Y-66654819D02*
X147384561Y-66607200D01*
X147384561Y-66607200D02*
X147432180Y-66559580D01*
X118327418Y-66607200D02*
X118184561Y-66654819D01*
X118184561Y-66654819D02*
X117946466Y-66654819D01*
X117946466Y-66654819D02*
X117851228Y-66607200D01*
X117851228Y-66607200D02*
X117803609Y-66559580D01*
X117803609Y-66559580D02*
X117755990Y-66464342D01*
X117755990Y-66464342D02*
X117755990Y-66369104D01*
X117755990Y-66369104D02*
X117803609Y-66273866D01*
X117803609Y-66273866D02*
X117851228Y-66226247D01*
X117851228Y-66226247D02*
X117946466Y-66178628D01*
X117946466Y-66178628D02*
X118136942Y-66131009D01*
X118136942Y-66131009D02*
X118232180Y-66083390D01*
X118232180Y-66083390D02*
X118279799Y-66035771D01*
X118279799Y-66035771D02*
X118327418Y-65940533D01*
X118327418Y-65940533D02*
X118327418Y-65845295D01*
X118327418Y-65845295D02*
X118279799Y-65750057D01*
X118279799Y-65750057D02*
X118232180Y-65702438D01*
X118232180Y-65702438D02*
X118136942Y-65654819D01*
X118136942Y-65654819D02*
X117898847Y-65654819D01*
X117898847Y-65654819D02*
X117755990Y-65702438D01*
X117422656Y-65654819D02*
X117184561Y-66654819D01*
X117184561Y-66654819D02*
X116994085Y-65940533D01*
X116994085Y-65940533D02*
X116803609Y-66654819D01*
X116803609Y-66654819D02*
X116565514Y-65654819D01*
X115708371Y-65654819D02*
X116184561Y-65654819D01*
X116184561Y-65654819D02*
X116232180Y-66131009D01*
X116232180Y-66131009D02*
X116184561Y-66083390D01*
X116184561Y-66083390D02*
X116089323Y-66035771D01*
X116089323Y-66035771D02*
X115851228Y-66035771D01*
X115851228Y-66035771D02*
X115755990Y-66083390D01*
X115755990Y-66083390D02*
X115708371Y-66131009D01*
X115708371Y-66131009D02*
X115660752Y-66226247D01*
X115660752Y-66226247D02*
X115660752Y-66464342D01*
X115660752Y-66464342D02*
X115708371Y-66559580D01*
X115708371Y-66559580D02*
X115755990Y-66607200D01*
X115755990Y-66607200D02*
X115851228Y-66654819D01*
X115851228Y-66654819D02*
X116089323Y-66654819D01*
X116089323Y-66654819D02*
X116184561Y-66607200D01*
X116184561Y-66607200D02*
X116232180Y-66559580D01*
X174628905Y-47032142D02*
X174152714Y-46698809D01*
X174628905Y-46460714D02*
X173628905Y-46460714D01*
X173628905Y-46460714D02*
X173628905Y-46841666D01*
X173628905Y-46841666D02*
X173676524Y-46936904D01*
X173676524Y-46936904D02*
X173724143Y-46984523D01*
X173724143Y-46984523D02*
X173819381Y-47032142D01*
X173819381Y-47032142D02*
X173962238Y-47032142D01*
X173962238Y-47032142D02*
X174057476Y-46984523D01*
X174057476Y-46984523D02*
X174105095Y-46936904D01*
X174105095Y-46936904D02*
X174152714Y-46841666D01*
X174152714Y-46841666D02*
X174152714Y-46460714D01*
X174628905Y-47984523D02*
X174628905Y-47413095D01*
X174628905Y-47698809D02*
X173628905Y-47698809D01*
X173628905Y-47698809D02*
X173771762Y-47603571D01*
X173771762Y-47603571D02*
X173867000Y-47508333D01*
X173867000Y-47508333D02*
X173914619Y-47413095D01*
X173962238Y-48841666D02*
X174628905Y-48841666D01*
X173581286Y-48603571D02*
X174295571Y-48365476D01*
X174295571Y-48365476D02*
X174295571Y-48984523D01*
X179143490Y-128829819D02*
X179143490Y-129639342D01*
X179143490Y-129639342D02*
X179095871Y-129734580D01*
X179095871Y-129734580D02*
X179048252Y-129782200D01*
X179048252Y-129782200D02*
X178953014Y-129829819D01*
X178953014Y-129829819D02*
X178762538Y-129829819D01*
X178762538Y-129829819D02*
X178667300Y-129782200D01*
X178667300Y-129782200D02*
X178619681Y-129734580D01*
X178619681Y-129734580D02*
X178572062Y-129639342D01*
X178572062Y-129639342D02*
X178572062Y-128829819D01*
X177667300Y-129163152D02*
X177667300Y-129829819D01*
X177905395Y-128782200D02*
X178143490Y-129496485D01*
X178143490Y-129496485D02*
X177524443Y-129496485D01*
X143428905Y-47032142D02*
X142952714Y-46698809D01*
X143428905Y-46460714D02*
X142428905Y-46460714D01*
X142428905Y-46460714D02*
X142428905Y-46841666D01*
X142428905Y-46841666D02*
X142476524Y-46936904D01*
X142476524Y-46936904D02*
X142524143Y-46984523D01*
X142524143Y-46984523D02*
X142619381Y-47032142D01*
X142619381Y-47032142D02*
X142762238Y-47032142D01*
X142762238Y-47032142D02*
X142857476Y-46984523D01*
X142857476Y-46984523D02*
X142905095Y-46936904D01*
X142905095Y-46936904D02*
X142952714Y-46841666D01*
X142952714Y-46841666D02*
X142952714Y-46460714D01*
X143428905Y-47984523D02*
X143428905Y-47413095D01*
X143428905Y-47698809D02*
X142428905Y-47698809D01*
X142428905Y-47698809D02*
X142571762Y-47603571D01*
X142571762Y-47603571D02*
X142667000Y-47508333D01*
X142667000Y-47508333D02*
X142714619Y-47413095D01*
X142762238Y-48841666D02*
X143428905Y-48841666D01*
X142381286Y-48603571D02*
X143095571Y-48365476D01*
X143095571Y-48365476D02*
X143095571Y-48984523D01*
X188227418Y-66607200D02*
X188084561Y-66654819D01*
X188084561Y-66654819D02*
X187846466Y-66654819D01*
X187846466Y-66654819D02*
X187751228Y-66607200D01*
X187751228Y-66607200D02*
X187703609Y-66559580D01*
X187703609Y-66559580D02*
X187655990Y-66464342D01*
X187655990Y-66464342D02*
X187655990Y-66369104D01*
X187655990Y-66369104D02*
X187703609Y-66273866D01*
X187703609Y-66273866D02*
X187751228Y-66226247D01*
X187751228Y-66226247D02*
X187846466Y-66178628D01*
X187846466Y-66178628D02*
X188036942Y-66131009D01*
X188036942Y-66131009D02*
X188132180Y-66083390D01*
X188132180Y-66083390D02*
X188179799Y-66035771D01*
X188179799Y-66035771D02*
X188227418Y-65940533D01*
X188227418Y-65940533D02*
X188227418Y-65845295D01*
X188227418Y-65845295D02*
X188179799Y-65750057D01*
X188179799Y-65750057D02*
X188132180Y-65702438D01*
X188132180Y-65702438D02*
X188036942Y-65654819D01*
X188036942Y-65654819D02*
X187798847Y-65654819D01*
X187798847Y-65654819D02*
X187655990Y-65702438D01*
X187322656Y-65654819D02*
X187084561Y-66654819D01*
X187084561Y-66654819D02*
X186894085Y-65940533D01*
X186894085Y-65940533D02*
X186703609Y-66654819D01*
X186703609Y-66654819D02*
X186465514Y-65654819D01*
X185655990Y-65654819D02*
X185846466Y-65654819D01*
X185846466Y-65654819D02*
X185941704Y-65702438D01*
X185941704Y-65702438D02*
X185989323Y-65750057D01*
X185989323Y-65750057D02*
X186084561Y-65892914D01*
X186084561Y-65892914D02*
X186132180Y-66083390D01*
X186132180Y-66083390D02*
X186132180Y-66464342D01*
X186132180Y-66464342D02*
X186084561Y-66559580D01*
X186084561Y-66559580D02*
X186036942Y-66607200D01*
X186036942Y-66607200D02*
X185941704Y-66654819D01*
X185941704Y-66654819D02*
X185751228Y-66654819D01*
X185751228Y-66654819D02*
X185655990Y-66607200D01*
X185655990Y-66607200D02*
X185608371Y-66559580D01*
X185608371Y-66559580D02*
X185560752Y-66464342D01*
X185560752Y-66464342D02*
X185560752Y-66226247D01*
X185560752Y-66226247D02*
X185608371Y-66131009D01*
X185608371Y-66131009D02*
X185655990Y-66083390D01*
X185655990Y-66083390D02*
X185751228Y-66035771D01*
X185751228Y-66035771D02*
X185941704Y-66035771D01*
X185941704Y-66035771D02*
X186036942Y-66083390D01*
X186036942Y-66083390D02*
X186084561Y-66131009D01*
X186084561Y-66131009D02*
X186132180Y-66226247D01*
X147943490Y-103829819D02*
X147943490Y-104639342D01*
X147943490Y-104639342D02*
X147895871Y-104734580D01*
X147895871Y-104734580D02*
X147848252Y-104782200D01*
X147848252Y-104782200D02*
X147753014Y-104829819D01*
X147753014Y-104829819D02*
X147562538Y-104829819D01*
X147562538Y-104829819D02*
X147467300Y-104782200D01*
X147467300Y-104782200D02*
X147419681Y-104734580D01*
X147419681Y-104734580D02*
X147372062Y-104639342D01*
X147372062Y-104639342D02*
X147372062Y-103829819D01*
X146467300Y-104163152D02*
X146467300Y-104829819D01*
X146705395Y-103782200D02*
X146943490Y-104496485D01*
X146943490Y-104496485D02*
X146324443Y-104496485D01*
X112228905Y-122032142D02*
X111752714Y-121698809D01*
X112228905Y-121460714D02*
X111228905Y-121460714D01*
X111228905Y-121460714D02*
X111228905Y-121841666D01*
X111228905Y-121841666D02*
X111276524Y-121936904D01*
X111276524Y-121936904D02*
X111324143Y-121984523D01*
X111324143Y-121984523D02*
X111419381Y-122032142D01*
X111419381Y-122032142D02*
X111562238Y-122032142D01*
X111562238Y-122032142D02*
X111657476Y-121984523D01*
X111657476Y-121984523D02*
X111705095Y-121936904D01*
X111705095Y-121936904D02*
X111752714Y-121841666D01*
X111752714Y-121841666D02*
X111752714Y-121460714D01*
X112228905Y-122984523D02*
X112228905Y-122413095D01*
X112228905Y-122698809D02*
X111228905Y-122698809D01*
X111228905Y-122698809D02*
X111371762Y-122603571D01*
X111371762Y-122603571D02*
X111467000Y-122508333D01*
X111467000Y-122508333D02*
X111514619Y-122413095D01*
X111562238Y-123841666D02*
X112228905Y-123841666D01*
X111181286Y-123603571D02*
X111895571Y-123365476D01*
X111895571Y-123365476D02*
X111895571Y-123984523D01*
X112228905Y-47032142D02*
X111752714Y-46698809D01*
X112228905Y-46460714D02*
X111228905Y-46460714D01*
X111228905Y-46460714D02*
X111228905Y-46841666D01*
X111228905Y-46841666D02*
X111276524Y-46936904D01*
X111276524Y-46936904D02*
X111324143Y-46984523D01*
X111324143Y-46984523D02*
X111419381Y-47032142D01*
X111419381Y-47032142D02*
X111562238Y-47032142D01*
X111562238Y-47032142D02*
X111657476Y-46984523D01*
X111657476Y-46984523D02*
X111705095Y-46936904D01*
X111705095Y-46936904D02*
X111752714Y-46841666D01*
X111752714Y-46841666D02*
X111752714Y-46460714D01*
X112228905Y-47984523D02*
X112228905Y-47413095D01*
X112228905Y-47698809D02*
X111228905Y-47698809D01*
X111228905Y-47698809D02*
X111371762Y-47603571D01*
X111371762Y-47603571D02*
X111467000Y-47508333D01*
X111467000Y-47508333D02*
X111514619Y-47413095D01*
X111562238Y-48841666D02*
X112228905Y-48841666D01*
X111181286Y-48603571D02*
X111895571Y-48365476D01*
X111895571Y-48365476D02*
X111895571Y-48984523D01*
X174628905Y-97032142D02*
X174152714Y-96698809D01*
X174628905Y-96460714D02*
X173628905Y-96460714D01*
X173628905Y-96460714D02*
X173628905Y-96841666D01*
X173628905Y-96841666D02*
X173676524Y-96936904D01*
X173676524Y-96936904D02*
X173724143Y-96984523D01*
X173724143Y-96984523D02*
X173819381Y-97032142D01*
X173819381Y-97032142D02*
X173962238Y-97032142D01*
X173962238Y-97032142D02*
X174057476Y-96984523D01*
X174057476Y-96984523D02*
X174105095Y-96936904D01*
X174105095Y-96936904D02*
X174152714Y-96841666D01*
X174152714Y-96841666D02*
X174152714Y-96460714D01*
X174628905Y-97984523D02*
X174628905Y-97413095D01*
X174628905Y-97698809D02*
X173628905Y-97698809D01*
X173628905Y-97698809D02*
X173771762Y-97603571D01*
X173771762Y-97603571D02*
X173867000Y-97508333D01*
X173867000Y-97508333D02*
X173914619Y-97413095D01*
X173962238Y-98841666D02*
X174628905Y-98841666D01*
X173581286Y-98603571D02*
X174295571Y-98365476D01*
X174295571Y-98365476D02*
X174295571Y-98984523D01*
X118327418Y-141607200D02*
X118184561Y-141654819D01*
X118184561Y-141654819D02*
X117946466Y-141654819D01*
X117946466Y-141654819D02*
X117851228Y-141607200D01*
X117851228Y-141607200D02*
X117803609Y-141559580D01*
X117803609Y-141559580D02*
X117755990Y-141464342D01*
X117755990Y-141464342D02*
X117755990Y-141369104D01*
X117755990Y-141369104D02*
X117803609Y-141273866D01*
X117803609Y-141273866D02*
X117851228Y-141226247D01*
X117851228Y-141226247D02*
X117946466Y-141178628D01*
X117946466Y-141178628D02*
X118136942Y-141131009D01*
X118136942Y-141131009D02*
X118232180Y-141083390D01*
X118232180Y-141083390D02*
X118279799Y-141035771D01*
X118279799Y-141035771D02*
X118327418Y-140940533D01*
X118327418Y-140940533D02*
X118327418Y-140845295D01*
X118327418Y-140845295D02*
X118279799Y-140750057D01*
X118279799Y-140750057D02*
X118232180Y-140702438D01*
X118232180Y-140702438D02*
X118136942Y-140654819D01*
X118136942Y-140654819D02*
X117898847Y-140654819D01*
X117898847Y-140654819D02*
X117755990Y-140702438D01*
X117422656Y-140654819D02*
X117184561Y-141654819D01*
X117184561Y-141654819D02*
X116994085Y-140940533D01*
X116994085Y-140940533D02*
X116803609Y-141654819D01*
X116803609Y-141654819D02*
X116565514Y-140654819D01*
X115708371Y-140654819D02*
X116184561Y-140654819D01*
X116184561Y-140654819D02*
X116232180Y-141131009D01*
X116232180Y-141131009D02*
X116184561Y-141083390D01*
X116184561Y-141083390D02*
X116089323Y-141035771D01*
X116089323Y-141035771D02*
X115851228Y-141035771D01*
X115851228Y-141035771D02*
X115755990Y-141083390D01*
X115755990Y-141083390D02*
X115708371Y-141131009D01*
X115708371Y-141131009D02*
X115660752Y-141226247D01*
X115660752Y-141226247D02*
X115660752Y-141464342D01*
X115660752Y-141464342D02*
X115708371Y-141559580D01*
X115708371Y-141559580D02*
X115755990Y-141607200D01*
X115755990Y-141607200D02*
X115851228Y-141654819D01*
X115851228Y-141654819D02*
X116089323Y-141654819D01*
X116089323Y-141654819D02*
X116184561Y-141607200D01*
X116184561Y-141607200D02*
X116232180Y-141559580D01*
X173052418Y-61432200D02*
X172909561Y-61479819D01*
X172909561Y-61479819D02*
X172671466Y-61479819D01*
X172671466Y-61479819D02*
X172576228Y-61432200D01*
X172576228Y-61432200D02*
X172528609Y-61384580D01*
X172528609Y-61384580D02*
X172480990Y-61289342D01*
X172480990Y-61289342D02*
X172480990Y-61194104D01*
X172480990Y-61194104D02*
X172528609Y-61098866D01*
X172528609Y-61098866D02*
X172576228Y-61051247D01*
X172576228Y-61051247D02*
X172671466Y-61003628D01*
X172671466Y-61003628D02*
X172861942Y-60956009D01*
X172861942Y-60956009D02*
X172957180Y-60908390D01*
X172957180Y-60908390D02*
X173004799Y-60860771D01*
X173004799Y-60860771D02*
X173052418Y-60765533D01*
X173052418Y-60765533D02*
X173052418Y-60670295D01*
X173052418Y-60670295D02*
X173004799Y-60575057D01*
X173004799Y-60575057D02*
X172957180Y-60527438D01*
X172957180Y-60527438D02*
X172861942Y-60479819D01*
X172861942Y-60479819D02*
X172623847Y-60479819D01*
X172623847Y-60479819D02*
X172480990Y-60527438D01*
X172147656Y-60479819D02*
X171909561Y-61479819D01*
X171909561Y-61479819D02*
X171719085Y-60765533D01*
X171719085Y-60765533D02*
X171528609Y-61479819D01*
X171528609Y-61479819D02*
X171290514Y-60479819D01*
X170957180Y-60575057D02*
X170909561Y-60527438D01*
X170909561Y-60527438D02*
X170814323Y-60479819D01*
X170814323Y-60479819D02*
X170576228Y-60479819D01*
X170576228Y-60479819D02*
X170480990Y-60527438D01*
X170480990Y-60527438D02*
X170433371Y-60575057D01*
X170433371Y-60575057D02*
X170385752Y-60670295D01*
X170385752Y-60670295D02*
X170385752Y-60765533D01*
X170385752Y-60765533D02*
X170433371Y-60908390D01*
X170433371Y-60908390D02*
X171004799Y-61479819D01*
X171004799Y-61479819D02*
X170385752Y-61479819D01*
X180727418Y-91607200D02*
X180584561Y-91654819D01*
X180584561Y-91654819D02*
X180346466Y-91654819D01*
X180346466Y-91654819D02*
X180251228Y-91607200D01*
X180251228Y-91607200D02*
X180203609Y-91559580D01*
X180203609Y-91559580D02*
X180155990Y-91464342D01*
X180155990Y-91464342D02*
X180155990Y-91369104D01*
X180155990Y-91369104D02*
X180203609Y-91273866D01*
X180203609Y-91273866D02*
X180251228Y-91226247D01*
X180251228Y-91226247D02*
X180346466Y-91178628D01*
X180346466Y-91178628D02*
X180536942Y-91131009D01*
X180536942Y-91131009D02*
X180632180Y-91083390D01*
X180632180Y-91083390D02*
X180679799Y-91035771D01*
X180679799Y-91035771D02*
X180727418Y-90940533D01*
X180727418Y-90940533D02*
X180727418Y-90845295D01*
X180727418Y-90845295D02*
X180679799Y-90750057D01*
X180679799Y-90750057D02*
X180632180Y-90702438D01*
X180632180Y-90702438D02*
X180536942Y-90654819D01*
X180536942Y-90654819D02*
X180298847Y-90654819D01*
X180298847Y-90654819D02*
X180155990Y-90702438D01*
X179822656Y-90654819D02*
X179584561Y-91654819D01*
X179584561Y-91654819D02*
X179394085Y-90940533D01*
X179394085Y-90940533D02*
X179203609Y-91654819D01*
X179203609Y-91654819D02*
X178965514Y-90654819D01*
X178108371Y-90654819D02*
X178584561Y-90654819D01*
X178584561Y-90654819D02*
X178632180Y-91131009D01*
X178632180Y-91131009D02*
X178584561Y-91083390D01*
X178584561Y-91083390D02*
X178489323Y-91035771D01*
X178489323Y-91035771D02*
X178251228Y-91035771D01*
X178251228Y-91035771D02*
X178155990Y-91083390D01*
X178155990Y-91083390D02*
X178108371Y-91131009D01*
X178108371Y-91131009D02*
X178060752Y-91226247D01*
X178060752Y-91226247D02*
X178060752Y-91464342D01*
X178060752Y-91464342D02*
X178108371Y-91559580D01*
X178108371Y-91559580D02*
X178155990Y-91607200D01*
X178155990Y-91607200D02*
X178251228Y-91654819D01*
X178251228Y-91654819D02*
X178489323Y-91654819D01*
X178489323Y-91654819D02*
X178584561Y-91607200D01*
X178584561Y-91607200D02*
X178632180Y-91559580D01*
X110652418Y-111432200D02*
X110509561Y-111479819D01*
X110509561Y-111479819D02*
X110271466Y-111479819D01*
X110271466Y-111479819D02*
X110176228Y-111432200D01*
X110176228Y-111432200D02*
X110128609Y-111384580D01*
X110128609Y-111384580D02*
X110080990Y-111289342D01*
X110080990Y-111289342D02*
X110080990Y-111194104D01*
X110080990Y-111194104D02*
X110128609Y-111098866D01*
X110128609Y-111098866D02*
X110176228Y-111051247D01*
X110176228Y-111051247D02*
X110271466Y-111003628D01*
X110271466Y-111003628D02*
X110461942Y-110956009D01*
X110461942Y-110956009D02*
X110557180Y-110908390D01*
X110557180Y-110908390D02*
X110604799Y-110860771D01*
X110604799Y-110860771D02*
X110652418Y-110765533D01*
X110652418Y-110765533D02*
X110652418Y-110670295D01*
X110652418Y-110670295D02*
X110604799Y-110575057D01*
X110604799Y-110575057D02*
X110557180Y-110527438D01*
X110557180Y-110527438D02*
X110461942Y-110479819D01*
X110461942Y-110479819D02*
X110223847Y-110479819D01*
X110223847Y-110479819D02*
X110080990Y-110527438D01*
X109747656Y-110479819D02*
X109509561Y-111479819D01*
X109509561Y-111479819D02*
X109319085Y-110765533D01*
X109319085Y-110765533D02*
X109128609Y-111479819D01*
X109128609Y-111479819D02*
X108890514Y-110479819D01*
X108557180Y-110575057D02*
X108509561Y-110527438D01*
X108509561Y-110527438D02*
X108414323Y-110479819D01*
X108414323Y-110479819D02*
X108176228Y-110479819D01*
X108176228Y-110479819D02*
X108080990Y-110527438D01*
X108080990Y-110527438D02*
X108033371Y-110575057D01*
X108033371Y-110575057D02*
X107985752Y-110670295D01*
X107985752Y-110670295D02*
X107985752Y-110765533D01*
X107985752Y-110765533D02*
X108033371Y-110908390D01*
X108033371Y-110908390D02*
X108604799Y-111479819D01*
X108604799Y-111479819D02*
X107985752Y-111479819D01*
X141852418Y-111432200D02*
X141709561Y-111479819D01*
X141709561Y-111479819D02*
X141471466Y-111479819D01*
X141471466Y-111479819D02*
X141376228Y-111432200D01*
X141376228Y-111432200D02*
X141328609Y-111384580D01*
X141328609Y-111384580D02*
X141280990Y-111289342D01*
X141280990Y-111289342D02*
X141280990Y-111194104D01*
X141280990Y-111194104D02*
X141328609Y-111098866D01*
X141328609Y-111098866D02*
X141376228Y-111051247D01*
X141376228Y-111051247D02*
X141471466Y-111003628D01*
X141471466Y-111003628D02*
X141661942Y-110956009D01*
X141661942Y-110956009D02*
X141757180Y-110908390D01*
X141757180Y-110908390D02*
X141804799Y-110860771D01*
X141804799Y-110860771D02*
X141852418Y-110765533D01*
X141852418Y-110765533D02*
X141852418Y-110670295D01*
X141852418Y-110670295D02*
X141804799Y-110575057D01*
X141804799Y-110575057D02*
X141757180Y-110527438D01*
X141757180Y-110527438D02*
X141661942Y-110479819D01*
X141661942Y-110479819D02*
X141423847Y-110479819D01*
X141423847Y-110479819D02*
X141280990Y-110527438D01*
X140947656Y-110479819D02*
X140709561Y-111479819D01*
X140709561Y-111479819D02*
X140519085Y-110765533D01*
X140519085Y-110765533D02*
X140328609Y-111479819D01*
X140328609Y-111479819D02*
X140090514Y-110479819D01*
X139757180Y-110575057D02*
X139709561Y-110527438D01*
X139709561Y-110527438D02*
X139614323Y-110479819D01*
X139614323Y-110479819D02*
X139376228Y-110479819D01*
X139376228Y-110479819D02*
X139280990Y-110527438D01*
X139280990Y-110527438D02*
X139233371Y-110575057D01*
X139233371Y-110575057D02*
X139185752Y-110670295D01*
X139185752Y-110670295D02*
X139185752Y-110765533D01*
X139185752Y-110765533D02*
X139233371Y-110908390D01*
X139233371Y-110908390D02*
X139804799Y-111479819D01*
X139804799Y-111479819D02*
X139185752Y-111479819D01*
X157027418Y-66607200D02*
X156884561Y-66654819D01*
X156884561Y-66654819D02*
X156646466Y-66654819D01*
X156646466Y-66654819D02*
X156551228Y-66607200D01*
X156551228Y-66607200D02*
X156503609Y-66559580D01*
X156503609Y-66559580D02*
X156455990Y-66464342D01*
X156455990Y-66464342D02*
X156455990Y-66369104D01*
X156455990Y-66369104D02*
X156503609Y-66273866D01*
X156503609Y-66273866D02*
X156551228Y-66226247D01*
X156551228Y-66226247D02*
X156646466Y-66178628D01*
X156646466Y-66178628D02*
X156836942Y-66131009D01*
X156836942Y-66131009D02*
X156932180Y-66083390D01*
X156932180Y-66083390D02*
X156979799Y-66035771D01*
X156979799Y-66035771D02*
X157027418Y-65940533D01*
X157027418Y-65940533D02*
X157027418Y-65845295D01*
X157027418Y-65845295D02*
X156979799Y-65750057D01*
X156979799Y-65750057D02*
X156932180Y-65702438D01*
X156932180Y-65702438D02*
X156836942Y-65654819D01*
X156836942Y-65654819D02*
X156598847Y-65654819D01*
X156598847Y-65654819D02*
X156455990Y-65702438D01*
X156122656Y-65654819D02*
X155884561Y-66654819D01*
X155884561Y-66654819D02*
X155694085Y-65940533D01*
X155694085Y-65940533D02*
X155503609Y-66654819D01*
X155503609Y-66654819D02*
X155265514Y-65654819D01*
X154455990Y-65654819D02*
X154646466Y-65654819D01*
X154646466Y-65654819D02*
X154741704Y-65702438D01*
X154741704Y-65702438D02*
X154789323Y-65750057D01*
X154789323Y-65750057D02*
X154884561Y-65892914D01*
X154884561Y-65892914D02*
X154932180Y-66083390D01*
X154932180Y-66083390D02*
X154932180Y-66464342D01*
X154932180Y-66464342D02*
X154884561Y-66559580D01*
X154884561Y-66559580D02*
X154836942Y-66607200D01*
X154836942Y-66607200D02*
X154741704Y-66654819D01*
X154741704Y-66654819D02*
X154551228Y-66654819D01*
X154551228Y-66654819D02*
X154455990Y-66607200D01*
X154455990Y-66607200D02*
X154408371Y-66559580D01*
X154408371Y-66559580D02*
X154360752Y-66464342D01*
X154360752Y-66464342D02*
X154360752Y-66226247D01*
X154360752Y-66226247D02*
X154408371Y-66131009D01*
X154408371Y-66131009D02*
X154455990Y-66083390D01*
X154455990Y-66083390D02*
X154551228Y-66035771D01*
X154551228Y-66035771D02*
X154741704Y-66035771D01*
X154741704Y-66035771D02*
X154836942Y-66083390D01*
X154836942Y-66083390D02*
X154884561Y-66131009D01*
X154884561Y-66131009D02*
X154932180Y-66226247D01*
X141852418Y-61432200D02*
X141709561Y-61479819D01*
X141709561Y-61479819D02*
X141471466Y-61479819D01*
X141471466Y-61479819D02*
X141376228Y-61432200D01*
X141376228Y-61432200D02*
X141328609Y-61384580D01*
X141328609Y-61384580D02*
X141280990Y-61289342D01*
X141280990Y-61289342D02*
X141280990Y-61194104D01*
X141280990Y-61194104D02*
X141328609Y-61098866D01*
X141328609Y-61098866D02*
X141376228Y-61051247D01*
X141376228Y-61051247D02*
X141471466Y-61003628D01*
X141471466Y-61003628D02*
X141661942Y-60956009D01*
X141661942Y-60956009D02*
X141757180Y-60908390D01*
X141757180Y-60908390D02*
X141804799Y-60860771D01*
X141804799Y-60860771D02*
X141852418Y-60765533D01*
X141852418Y-60765533D02*
X141852418Y-60670295D01*
X141852418Y-60670295D02*
X141804799Y-60575057D01*
X141804799Y-60575057D02*
X141757180Y-60527438D01*
X141757180Y-60527438D02*
X141661942Y-60479819D01*
X141661942Y-60479819D02*
X141423847Y-60479819D01*
X141423847Y-60479819D02*
X141280990Y-60527438D01*
X140947656Y-60479819D02*
X140709561Y-61479819D01*
X140709561Y-61479819D02*
X140519085Y-60765533D01*
X140519085Y-60765533D02*
X140328609Y-61479819D01*
X140328609Y-61479819D02*
X140090514Y-60479819D01*
X139757180Y-60575057D02*
X139709561Y-60527438D01*
X139709561Y-60527438D02*
X139614323Y-60479819D01*
X139614323Y-60479819D02*
X139376228Y-60479819D01*
X139376228Y-60479819D02*
X139280990Y-60527438D01*
X139280990Y-60527438D02*
X139233371Y-60575057D01*
X139233371Y-60575057D02*
X139185752Y-60670295D01*
X139185752Y-60670295D02*
X139185752Y-60765533D01*
X139185752Y-60765533D02*
X139233371Y-60908390D01*
X139233371Y-60908390D02*
X139804799Y-61479819D01*
X139804799Y-61479819D02*
X139185752Y-61479819D01*
X143428905Y-97032142D02*
X142952714Y-96698809D01*
X143428905Y-96460714D02*
X142428905Y-96460714D01*
X142428905Y-96460714D02*
X142428905Y-96841666D01*
X142428905Y-96841666D02*
X142476524Y-96936904D01*
X142476524Y-96936904D02*
X142524143Y-96984523D01*
X142524143Y-96984523D02*
X142619381Y-97032142D01*
X142619381Y-97032142D02*
X142762238Y-97032142D01*
X142762238Y-97032142D02*
X142857476Y-96984523D01*
X142857476Y-96984523D02*
X142905095Y-96936904D01*
X142905095Y-96936904D02*
X142952714Y-96841666D01*
X142952714Y-96841666D02*
X142952714Y-96460714D01*
X143428905Y-97984523D02*
X143428905Y-97413095D01*
X143428905Y-97698809D02*
X142428905Y-97698809D01*
X142428905Y-97698809D02*
X142571762Y-97603571D01*
X142571762Y-97603571D02*
X142667000Y-97508333D01*
X142667000Y-97508333D02*
X142714619Y-97413095D01*
X142762238Y-98841666D02*
X143428905Y-98841666D01*
X142381286Y-98603571D02*
X143095571Y-98365476D01*
X143095571Y-98365476D02*
X143095571Y-98984523D01*
X116743490Y-78829819D02*
X116743490Y-79639342D01*
X116743490Y-79639342D02*
X116695871Y-79734580D01*
X116695871Y-79734580D02*
X116648252Y-79782200D01*
X116648252Y-79782200D02*
X116553014Y-79829819D01*
X116553014Y-79829819D02*
X116362538Y-79829819D01*
X116362538Y-79829819D02*
X116267300Y-79782200D01*
X116267300Y-79782200D02*
X116219681Y-79734580D01*
X116219681Y-79734580D02*
X116172062Y-79639342D01*
X116172062Y-79639342D02*
X116172062Y-78829819D01*
X115267300Y-79163152D02*
X115267300Y-79829819D01*
X115505395Y-78782200D02*
X115743490Y-79496485D01*
X115743490Y-79496485D02*
X115124443Y-79496485D01*
X173052418Y-136432200D02*
X172909561Y-136479819D01*
X172909561Y-136479819D02*
X172671466Y-136479819D01*
X172671466Y-136479819D02*
X172576228Y-136432200D01*
X172576228Y-136432200D02*
X172528609Y-136384580D01*
X172528609Y-136384580D02*
X172480990Y-136289342D01*
X172480990Y-136289342D02*
X172480990Y-136194104D01*
X172480990Y-136194104D02*
X172528609Y-136098866D01*
X172528609Y-136098866D02*
X172576228Y-136051247D01*
X172576228Y-136051247D02*
X172671466Y-136003628D01*
X172671466Y-136003628D02*
X172861942Y-135956009D01*
X172861942Y-135956009D02*
X172957180Y-135908390D01*
X172957180Y-135908390D02*
X173004799Y-135860771D01*
X173004799Y-135860771D02*
X173052418Y-135765533D01*
X173052418Y-135765533D02*
X173052418Y-135670295D01*
X173052418Y-135670295D02*
X173004799Y-135575057D01*
X173004799Y-135575057D02*
X172957180Y-135527438D01*
X172957180Y-135527438D02*
X172861942Y-135479819D01*
X172861942Y-135479819D02*
X172623847Y-135479819D01*
X172623847Y-135479819D02*
X172480990Y-135527438D01*
X172147656Y-135479819D02*
X171909561Y-136479819D01*
X171909561Y-136479819D02*
X171719085Y-135765533D01*
X171719085Y-135765533D02*
X171528609Y-136479819D01*
X171528609Y-136479819D02*
X171290514Y-135479819D01*
X170957180Y-135575057D02*
X170909561Y-135527438D01*
X170909561Y-135527438D02*
X170814323Y-135479819D01*
X170814323Y-135479819D02*
X170576228Y-135479819D01*
X170576228Y-135479819D02*
X170480990Y-135527438D01*
X170480990Y-135527438D02*
X170433371Y-135575057D01*
X170433371Y-135575057D02*
X170385752Y-135670295D01*
X170385752Y-135670295D02*
X170385752Y-135765533D01*
X170385752Y-135765533D02*
X170433371Y-135908390D01*
X170433371Y-135908390D02*
X171004799Y-136479819D01*
X171004799Y-136479819D02*
X170385752Y-136479819D01*
X125827418Y-141607200D02*
X125684561Y-141654819D01*
X125684561Y-141654819D02*
X125446466Y-141654819D01*
X125446466Y-141654819D02*
X125351228Y-141607200D01*
X125351228Y-141607200D02*
X125303609Y-141559580D01*
X125303609Y-141559580D02*
X125255990Y-141464342D01*
X125255990Y-141464342D02*
X125255990Y-141369104D01*
X125255990Y-141369104D02*
X125303609Y-141273866D01*
X125303609Y-141273866D02*
X125351228Y-141226247D01*
X125351228Y-141226247D02*
X125446466Y-141178628D01*
X125446466Y-141178628D02*
X125636942Y-141131009D01*
X125636942Y-141131009D02*
X125732180Y-141083390D01*
X125732180Y-141083390D02*
X125779799Y-141035771D01*
X125779799Y-141035771D02*
X125827418Y-140940533D01*
X125827418Y-140940533D02*
X125827418Y-140845295D01*
X125827418Y-140845295D02*
X125779799Y-140750057D01*
X125779799Y-140750057D02*
X125732180Y-140702438D01*
X125732180Y-140702438D02*
X125636942Y-140654819D01*
X125636942Y-140654819D02*
X125398847Y-140654819D01*
X125398847Y-140654819D02*
X125255990Y-140702438D01*
X124922656Y-140654819D02*
X124684561Y-141654819D01*
X124684561Y-141654819D02*
X124494085Y-140940533D01*
X124494085Y-140940533D02*
X124303609Y-141654819D01*
X124303609Y-141654819D02*
X124065514Y-140654819D01*
X123255990Y-140654819D02*
X123446466Y-140654819D01*
X123446466Y-140654819D02*
X123541704Y-140702438D01*
X123541704Y-140702438D02*
X123589323Y-140750057D01*
X123589323Y-140750057D02*
X123684561Y-140892914D01*
X123684561Y-140892914D02*
X123732180Y-141083390D01*
X123732180Y-141083390D02*
X123732180Y-141464342D01*
X123732180Y-141464342D02*
X123684561Y-141559580D01*
X123684561Y-141559580D02*
X123636942Y-141607200D01*
X123636942Y-141607200D02*
X123541704Y-141654819D01*
X123541704Y-141654819D02*
X123351228Y-141654819D01*
X123351228Y-141654819D02*
X123255990Y-141607200D01*
X123255990Y-141607200D02*
X123208371Y-141559580D01*
X123208371Y-141559580D02*
X123160752Y-141464342D01*
X123160752Y-141464342D02*
X123160752Y-141226247D01*
X123160752Y-141226247D02*
X123208371Y-141131009D01*
X123208371Y-141131009D02*
X123255990Y-141083390D01*
X123255990Y-141083390D02*
X123351228Y-141035771D01*
X123351228Y-141035771D02*
X123541704Y-141035771D01*
X123541704Y-141035771D02*
X123636942Y-141083390D01*
X123636942Y-141083390D02*
X123684561Y-141131009D01*
X123684561Y-141131009D02*
X123732180Y-141226247D01*
X149527418Y-91607200D02*
X149384561Y-91654819D01*
X149384561Y-91654819D02*
X149146466Y-91654819D01*
X149146466Y-91654819D02*
X149051228Y-91607200D01*
X149051228Y-91607200D02*
X149003609Y-91559580D01*
X149003609Y-91559580D02*
X148955990Y-91464342D01*
X148955990Y-91464342D02*
X148955990Y-91369104D01*
X148955990Y-91369104D02*
X149003609Y-91273866D01*
X149003609Y-91273866D02*
X149051228Y-91226247D01*
X149051228Y-91226247D02*
X149146466Y-91178628D01*
X149146466Y-91178628D02*
X149336942Y-91131009D01*
X149336942Y-91131009D02*
X149432180Y-91083390D01*
X149432180Y-91083390D02*
X149479799Y-91035771D01*
X149479799Y-91035771D02*
X149527418Y-90940533D01*
X149527418Y-90940533D02*
X149527418Y-90845295D01*
X149527418Y-90845295D02*
X149479799Y-90750057D01*
X149479799Y-90750057D02*
X149432180Y-90702438D01*
X149432180Y-90702438D02*
X149336942Y-90654819D01*
X149336942Y-90654819D02*
X149098847Y-90654819D01*
X149098847Y-90654819D02*
X148955990Y-90702438D01*
X148622656Y-90654819D02*
X148384561Y-91654819D01*
X148384561Y-91654819D02*
X148194085Y-90940533D01*
X148194085Y-90940533D02*
X148003609Y-91654819D01*
X148003609Y-91654819D02*
X147765514Y-90654819D01*
X146908371Y-90654819D02*
X147384561Y-90654819D01*
X147384561Y-90654819D02*
X147432180Y-91131009D01*
X147432180Y-91131009D02*
X147384561Y-91083390D01*
X147384561Y-91083390D02*
X147289323Y-91035771D01*
X147289323Y-91035771D02*
X147051228Y-91035771D01*
X147051228Y-91035771D02*
X146955990Y-91083390D01*
X146955990Y-91083390D02*
X146908371Y-91131009D01*
X146908371Y-91131009D02*
X146860752Y-91226247D01*
X146860752Y-91226247D02*
X146860752Y-91464342D01*
X146860752Y-91464342D02*
X146908371Y-91559580D01*
X146908371Y-91559580D02*
X146955990Y-91607200D01*
X146955990Y-91607200D02*
X147051228Y-91654819D01*
X147051228Y-91654819D02*
X147289323Y-91654819D01*
X147289323Y-91654819D02*
X147384561Y-91607200D01*
X147384561Y-91607200D02*
X147432180Y-91559580D01*
X116743490Y-128829819D02*
X116743490Y-129639342D01*
X116743490Y-129639342D02*
X116695871Y-129734580D01*
X116695871Y-129734580D02*
X116648252Y-129782200D01*
X116648252Y-129782200D02*
X116553014Y-129829819D01*
X116553014Y-129829819D02*
X116362538Y-129829819D01*
X116362538Y-129829819D02*
X116267300Y-129782200D01*
X116267300Y-129782200D02*
X116219681Y-129734580D01*
X116219681Y-129734580D02*
X116172062Y-129639342D01*
X116172062Y-129639342D02*
X116172062Y-128829819D01*
X115267300Y-129163152D02*
X115267300Y-129829819D01*
X115505395Y-128782200D02*
X115743490Y-129496485D01*
X115743490Y-129496485D02*
X115124443Y-129496485D01*
X147943490Y-78829819D02*
X147943490Y-79639342D01*
X147943490Y-79639342D02*
X147895871Y-79734580D01*
X147895871Y-79734580D02*
X147848252Y-79782200D01*
X147848252Y-79782200D02*
X147753014Y-79829819D01*
X147753014Y-79829819D02*
X147562538Y-79829819D01*
X147562538Y-79829819D02*
X147467300Y-79782200D01*
X147467300Y-79782200D02*
X147419681Y-79734580D01*
X147419681Y-79734580D02*
X147372062Y-79639342D01*
X147372062Y-79639342D02*
X147372062Y-78829819D01*
X146467300Y-79163152D02*
X146467300Y-79829819D01*
X146705395Y-78782200D02*
X146943490Y-79496485D01*
X146943490Y-79496485D02*
X146324443Y-79496485D01*
X179143490Y-78829819D02*
X179143490Y-79639342D01*
X179143490Y-79639342D02*
X179095871Y-79734580D01*
X179095871Y-79734580D02*
X179048252Y-79782200D01*
X179048252Y-79782200D02*
X178953014Y-79829819D01*
X178953014Y-79829819D02*
X178762538Y-79829819D01*
X178762538Y-79829819D02*
X178667300Y-79782200D01*
X178667300Y-79782200D02*
X178619681Y-79734580D01*
X178619681Y-79734580D02*
X178572062Y-79639342D01*
X178572062Y-79639342D02*
X178572062Y-78829819D01*
X177667300Y-79163152D02*
X177667300Y-79829819D01*
X177905395Y-78782200D02*
X178143490Y-79496485D01*
X178143490Y-79496485D02*
X177524443Y-79496485D01*
X143428905Y-72032142D02*
X142952714Y-71698809D01*
X143428905Y-71460714D02*
X142428905Y-71460714D01*
X142428905Y-71460714D02*
X142428905Y-71841666D01*
X142428905Y-71841666D02*
X142476524Y-71936904D01*
X142476524Y-71936904D02*
X142524143Y-71984523D01*
X142524143Y-71984523D02*
X142619381Y-72032142D01*
X142619381Y-72032142D02*
X142762238Y-72032142D01*
X142762238Y-72032142D02*
X142857476Y-71984523D01*
X142857476Y-71984523D02*
X142905095Y-71936904D01*
X142905095Y-71936904D02*
X142952714Y-71841666D01*
X142952714Y-71841666D02*
X142952714Y-71460714D01*
X143428905Y-72984523D02*
X143428905Y-72413095D01*
X143428905Y-72698809D02*
X142428905Y-72698809D01*
X142428905Y-72698809D02*
X142571762Y-72603571D01*
X142571762Y-72603571D02*
X142667000Y-72508333D01*
X142667000Y-72508333D02*
X142714619Y-72413095D01*
X142762238Y-73841666D02*
X143428905Y-73841666D01*
X142381286Y-73603571D02*
X143095571Y-73365476D01*
X143095571Y-73365476D02*
X143095571Y-73984523D01*
X174628905Y-122032142D02*
X174152714Y-121698809D01*
X174628905Y-121460714D02*
X173628905Y-121460714D01*
X173628905Y-121460714D02*
X173628905Y-121841666D01*
X173628905Y-121841666D02*
X173676524Y-121936904D01*
X173676524Y-121936904D02*
X173724143Y-121984523D01*
X173724143Y-121984523D02*
X173819381Y-122032142D01*
X173819381Y-122032142D02*
X173962238Y-122032142D01*
X173962238Y-122032142D02*
X174057476Y-121984523D01*
X174057476Y-121984523D02*
X174105095Y-121936904D01*
X174105095Y-121936904D02*
X174152714Y-121841666D01*
X174152714Y-121841666D02*
X174152714Y-121460714D01*
X174628905Y-122984523D02*
X174628905Y-122413095D01*
X174628905Y-122698809D02*
X173628905Y-122698809D01*
X173628905Y-122698809D02*
X173771762Y-122603571D01*
X173771762Y-122603571D02*
X173867000Y-122508333D01*
X173867000Y-122508333D02*
X173914619Y-122413095D01*
X173962238Y-123841666D02*
X174628905Y-123841666D01*
X173581286Y-123603571D02*
X174295571Y-123365476D01*
X174295571Y-123365476D02*
X174295571Y-123984523D01*
D11*
X122294086Y-61900000D02*
X126694086Y-61900000D01*
X122294086Y-62020000D02*
X122294086Y-61900000D01*
X122294086Y-64170000D02*
X122294086Y-63030000D01*
X122294086Y-65300000D02*
X122294086Y-65180000D01*
X126694086Y-61900000D02*
X126694086Y-62020000D01*
X126694086Y-63030000D02*
X126694086Y-64170000D01*
X126694086Y-65180000D02*
X126694086Y-65300000D01*
X126694086Y-65300000D02*
X122294086Y-65300000D01*
X177194086Y-61900000D02*
X181594086Y-61900000D01*
X177194086Y-62020000D02*
X177194086Y-61900000D01*
X177194086Y-64170000D02*
X177194086Y-63030000D01*
X177194086Y-65300000D02*
X177194086Y-65180000D01*
X181594086Y-61900000D02*
X181594086Y-62020000D01*
X181594086Y-63030000D02*
X181594086Y-64170000D01*
X181594086Y-65180000D02*
X181594086Y-65300000D01*
X181594086Y-65300000D02*
X177194086Y-65300000D01*
X109821586Y-97912258D02*
X109821586Y-97437742D01*
X110866586Y-97912258D02*
X110866586Y-97437742D01*
X111519086Y-140325000D02*
X107119086Y-140325000D01*
X111519086Y-140205000D02*
X111519086Y-140325000D01*
X111519086Y-138055000D02*
X111519086Y-139195000D01*
X111519086Y-136925000D02*
X111519086Y-137045000D01*
X107119086Y-140325000D02*
X107119086Y-140205000D01*
X107119086Y-139195000D02*
X107119086Y-138055000D01*
X107119086Y-137045000D02*
X107119086Y-136925000D01*
X107119086Y-136925000D02*
X111519086Y-136925000D01*
X114794086Y-86900000D02*
X119194086Y-86900000D01*
X114794086Y-87020000D02*
X114794086Y-86900000D01*
X114794086Y-89170000D02*
X114794086Y-88030000D01*
X114794086Y-90300000D02*
X114794086Y-90180000D01*
X119194086Y-86900000D02*
X119194086Y-87020000D01*
X119194086Y-88030000D02*
X119194086Y-89170000D01*
X119194086Y-90180000D02*
X119194086Y-90300000D01*
X119194086Y-90300000D02*
X114794086Y-90300000D01*
X115981586Y-46790000D02*
X113781586Y-46790000D01*
X115981586Y-46790000D02*
X118181586Y-46790000D01*
X115981586Y-53560000D02*
X112381586Y-53560000D01*
X115981586Y-53560000D02*
X118181586Y-53560000D01*
X111519086Y-65325000D02*
X107119086Y-65325000D01*
X111519086Y-65205000D02*
X111519086Y-65325000D01*
X111519086Y-63055000D02*
X111519086Y-64195000D01*
X111519086Y-61925000D02*
X111519086Y-62045000D01*
X107119086Y-65325000D02*
X107119086Y-65205000D01*
X107119086Y-64195000D02*
X107119086Y-63055000D01*
X107119086Y-62045000D02*
X107119086Y-61925000D01*
X107119086Y-61925000D02*
X111519086Y-61925000D01*
X147181586Y-46790000D02*
X144981586Y-46790000D01*
X147181586Y-46790000D02*
X149381586Y-46790000D01*
X147181586Y-53560000D02*
X143581586Y-53560000D01*
X147181586Y-53560000D02*
X149381586Y-53560000D01*
X109821586Y-72912258D02*
X109821586Y-72437742D01*
X110866586Y-72912258D02*
X110866586Y-72437742D01*
X147181586Y-121790000D02*
X144981586Y-121790000D01*
X147181586Y-121790000D02*
X149381586Y-121790000D01*
X147181586Y-128560000D02*
X143581586Y-128560000D01*
X147181586Y-128560000D02*
X149381586Y-128560000D01*
X153494086Y-111900000D02*
X157894086Y-111900000D01*
X153494086Y-112020000D02*
X153494086Y-111900000D01*
X153494086Y-114170000D02*
X153494086Y-113030000D01*
X153494086Y-115300000D02*
X153494086Y-115180000D01*
X157894086Y-111900000D02*
X157894086Y-112020000D01*
X157894086Y-113030000D02*
X157894086Y-114170000D01*
X157894086Y-115180000D02*
X157894086Y-115300000D01*
X157894086Y-115300000D02*
X153494086Y-115300000D01*
X142719086Y-90325000D02*
X138319086Y-90325000D01*
X142719086Y-90205000D02*
X142719086Y-90325000D01*
X142719086Y-88055000D02*
X142719086Y-89195000D01*
X142719086Y-86925000D02*
X142719086Y-87045000D01*
X138319086Y-90325000D02*
X138319086Y-90205000D01*
X138319086Y-89195000D02*
X138319086Y-88055000D01*
X138319086Y-87045000D02*
X138319086Y-86925000D01*
X138319086Y-86925000D02*
X142719086Y-86925000D01*
X115981586Y-96790000D02*
X113781586Y-96790000D01*
X115981586Y-96790000D02*
X118181586Y-96790000D01*
X115981586Y-103560000D02*
X112381586Y-103560000D01*
X115981586Y-103560000D02*
X118181586Y-103560000D01*
X184694086Y-111900000D02*
X189094086Y-111900000D01*
X184694086Y-112020000D02*
X184694086Y-111900000D01*
X184694086Y-114170000D02*
X184694086Y-113030000D01*
X184694086Y-115300000D02*
X184694086Y-115180000D01*
X189094086Y-111900000D02*
X189094086Y-112020000D01*
X189094086Y-113030000D02*
X189094086Y-114170000D01*
X189094086Y-115180000D02*
X189094086Y-115300000D01*
X189094086Y-115300000D02*
X184694086Y-115300000D01*
X122294086Y-86900000D02*
X126694086Y-86900000D01*
X122294086Y-87020000D02*
X122294086Y-86900000D01*
X122294086Y-89170000D02*
X122294086Y-88030000D01*
X122294086Y-90300000D02*
X122294086Y-90180000D01*
X126694086Y-86900000D02*
X126694086Y-87020000D01*
X126694086Y-88030000D02*
X126694086Y-89170000D01*
X126694086Y-90180000D02*
X126694086Y-90300000D01*
X126694086Y-90300000D02*
X122294086Y-90300000D01*
X178381586Y-96790000D02*
X176181586Y-96790000D01*
X178381586Y-96790000D02*
X180581586Y-96790000D01*
X178381586Y-103560000D02*
X174781586Y-103560000D01*
X178381586Y-103560000D02*
X180581586Y-103560000D01*
X178381586Y-46790000D02*
X176181586Y-46790000D01*
X178381586Y-46790000D02*
X180581586Y-46790000D01*
X178381586Y-53560000D02*
X174781586Y-53560000D01*
X178381586Y-53560000D02*
X180581586Y-53560000D01*
X173919086Y-115325000D02*
X169519086Y-115325000D01*
X173919086Y-115205000D02*
X173919086Y-115325000D01*
X173919086Y-113055000D02*
X173919086Y-114195000D01*
X173919086Y-111925000D02*
X173919086Y-112045000D01*
X169519086Y-115325000D02*
X169519086Y-115205000D01*
X169519086Y-114195000D02*
X169519086Y-113055000D01*
X169519086Y-112045000D02*
X169519086Y-111925000D01*
X169519086Y-111925000D02*
X173919086Y-111925000D01*
X153494086Y-86900000D02*
X157894086Y-86900000D01*
X153494086Y-87020000D02*
X153494086Y-86900000D01*
X153494086Y-89170000D02*
X153494086Y-88030000D01*
X153494086Y-90300000D02*
X153494086Y-90180000D01*
X157894086Y-86900000D02*
X157894086Y-87020000D01*
X157894086Y-88030000D02*
X157894086Y-89170000D01*
X157894086Y-90180000D02*
X157894086Y-90300000D01*
X157894086Y-90300000D02*
X153494086Y-90300000D01*
X172221586Y-72912258D02*
X172221586Y-72437742D01*
X173266586Y-72912258D02*
X173266586Y-72437742D01*
X145994086Y-111900000D02*
X150394086Y-111900000D01*
X145994086Y-112020000D02*
X145994086Y-111900000D01*
X145994086Y-114170000D02*
X145994086Y-113030000D01*
X145994086Y-115300000D02*
X145994086Y-115180000D01*
X150394086Y-111900000D02*
X150394086Y-112020000D01*
X150394086Y-113030000D02*
X150394086Y-114170000D01*
X150394086Y-115180000D02*
X150394086Y-115300000D01*
X150394086Y-115300000D02*
X145994086Y-115300000D01*
X122294086Y-111900000D02*
X126694086Y-111900000D01*
X122294086Y-112020000D02*
X122294086Y-111900000D01*
X122294086Y-114170000D02*
X122294086Y-113030000D01*
X122294086Y-115300000D02*
X122294086Y-115180000D01*
X126694086Y-111900000D02*
X126694086Y-112020000D01*
X126694086Y-113030000D02*
X126694086Y-114170000D01*
X126694086Y-115180000D02*
X126694086Y-115300000D01*
X126694086Y-115300000D02*
X122294086Y-115300000D01*
X111519086Y-90325000D02*
X107119086Y-90325000D01*
X111519086Y-90205000D02*
X111519086Y-90325000D01*
X111519086Y-88055000D02*
X111519086Y-89195000D01*
X111519086Y-86925000D02*
X111519086Y-87045000D01*
X107119086Y-90325000D02*
X107119086Y-90205000D01*
X107119086Y-89195000D02*
X107119086Y-88055000D01*
X107119086Y-87045000D02*
X107119086Y-86925000D01*
X107119086Y-86925000D02*
X111519086Y-86925000D01*
X145994086Y-136900000D02*
X150394086Y-136900000D01*
X145994086Y-137020000D02*
X145994086Y-136900000D01*
X145994086Y-139170000D02*
X145994086Y-138030000D01*
X145994086Y-140300000D02*
X145994086Y-140180000D01*
X150394086Y-136900000D02*
X150394086Y-137020000D01*
X150394086Y-138030000D02*
X150394086Y-139170000D01*
X150394086Y-140180000D02*
X150394086Y-140300000D01*
X150394086Y-140300000D02*
X145994086Y-140300000D01*
X153494086Y-136900000D02*
X157894086Y-136900000D01*
X153494086Y-137020000D02*
X153494086Y-136900000D01*
X153494086Y-139170000D02*
X153494086Y-138030000D01*
X153494086Y-140300000D02*
X153494086Y-140180000D01*
X157894086Y-136900000D02*
X157894086Y-137020000D01*
X157894086Y-138030000D02*
X157894086Y-139170000D01*
X157894086Y-140180000D02*
X157894086Y-140300000D01*
X157894086Y-140300000D02*
X153494086Y-140300000D01*
X173919086Y-90325000D02*
X169519086Y-90325000D01*
X173919086Y-90205000D02*
X173919086Y-90325000D01*
X173919086Y-88055000D02*
X173919086Y-89195000D01*
X173919086Y-86925000D02*
X173919086Y-87045000D01*
X169519086Y-90325000D02*
X169519086Y-90205000D01*
X169519086Y-89195000D02*
X169519086Y-88055000D01*
X169519086Y-87045000D02*
X169519086Y-86925000D01*
X169519086Y-86925000D02*
X173919086Y-86925000D01*
X177194086Y-111900000D02*
X181594086Y-111900000D01*
X177194086Y-112020000D02*
X177194086Y-111900000D01*
X177194086Y-114170000D02*
X177194086Y-113030000D01*
X177194086Y-115300000D02*
X177194086Y-115180000D01*
X181594086Y-111900000D02*
X181594086Y-112020000D01*
X181594086Y-113030000D02*
X181594086Y-114170000D01*
X181594086Y-115180000D02*
X181594086Y-115300000D01*
X181594086Y-115300000D02*
X177194086Y-115300000D01*
X142719086Y-140325000D02*
X138319086Y-140325000D01*
X142719086Y-140205000D02*
X142719086Y-140325000D01*
X142719086Y-138055000D02*
X142719086Y-139195000D01*
X142719086Y-136925000D02*
X142719086Y-137045000D01*
X138319086Y-140325000D02*
X138319086Y-140205000D01*
X138319086Y-139195000D02*
X138319086Y-138055000D01*
X138319086Y-137045000D02*
X138319086Y-136925000D01*
X138319086Y-136925000D02*
X142719086Y-136925000D01*
X114794086Y-111900000D02*
X119194086Y-111900000D01*
X114794086Y-112020000D02*
X114794086Y-111900000D01*
X114794086Y-114170000D02*
X114794086Y-113030000D01*
X114794086Y-115300000D02*
X114794086Y-115180000D01*
X119194086Y-111900000D02*
X119194086Y-112020000D01*
X119194086Y-113030000D02*
X119194086Y-114170000D01*
X119194086Y-115180000D02*
X119194086Y-115300000D01*
X119194086Y-115300000D02*
X114794086Y-115300000D01*
X177194086Y-136900000D02*
X181594086Y-136900000D01*
X177194086Y-137020000D02*
X177194086Y-136900000D01*
X177194086Y-139170000D02*
X177194086Y-138030000D01*
X177194086Y-140300000D02*
X177194086Y-140180000D01*
X181594086Y-136900000D02*
X181594086Y-137020000D01*
X181594086Y-138030000D02*
X181594086Y-139170000D01*
X181594086Y-140180000D02*
X181594086Y-140300000D01*
X181594086Y-140300000D02*
X177194086Y-140300000D01*
X141021586Y-122912258D02*
X141021586Y-122437742D01*
X142066586Y-122912258D02*
X142066586Y-122437742D01*
X184694086Y-136900000D02*
X189094086Y-136900000D01*
X184694086Y-137020000D02*
X184694086Y-136900000D01*
X184694086Y-139170000D02*
X184694086Y-138030000D01*
X184694086Y-140300000D02*
X184694086Y-140180000D01*
X189094086Y-136900000D02*
X189094086Y-137020000D01*
X189094086Y-138030000D02*
X189094086Y-139170000D01*
X189094086Y-140180000D02*
X189094086Y-140300000D01*
X189094086Y-140300000D02*
X184694086Y-140300000D01*
X184694086Y-86900000D02*
X189094086Y-86900000D01*
X184694086Y-87020000D02*
X184694086Y-86900000D01*
X184694086Y-89170000D02*
X184694086Y-88030000D01*
X184694086Y-90300000D02*
X184694086Y-90180000D01*
X189094086Y-86900000D02*
X189094086Y-87020000D01*
X189094086Y-88030000D02*
X189094086Y-89170000D01*
X189094086Y-90180000D02*
X189094086Y-90300000D01*
X189094086Y-90300000D02*
X184694086Y-90300000D01*
X145994086Y-61900000D02*
X150394086Y-61900000D01*
X145994086Y-62020000D02*
X145994086Y-61900000D01*
X145994086Y-64170000D02*
X145994086Y-63030000D01*
X145994086Y-65300000D02*
X145994086Y-65180000D01*
X150394086Y-61900000D02*
X150394086Y-62020000D01*
X150394086Y-63030000D02*
X150394086Y-64170000D01*
X150394086Y-65180000D02*
X150394086Y-65300000D01*
X150394086Y-65300000D02*
X145994086Y-65300000D01*
X114794086Y-61900000D02*
X119194086Y-61900000D01*
X114794086Y-62020000D02*
X114794086Y-61900000D01*
X114794086Y-64170000D02*
X114794086Y-63030000D01*
X114794086Y-65300000D02*
X114794086Y-65180000D01*
X119194086Y-61900000D02*
X119194086Y-62020000D01*
X119194086Y-63030000D02*
X119194086Y-64170000D01*
X119194086Y-65180000D02*
X119194086Y-65300000D01*
X119194086Y-65300000D02*
X114794086Y-65300000D01*
X172221586Y-47912258D02*
X172221586Y-47437742D01*
X173266586Y-47912258D02*
X173266586Y-47437742D01*
X178381586Y-121790000D02*
X176181586Y-121790000D01*
X178381586Y-121790000D02*
X180581586Y-121790000D01*
X178381586Y-128560000D02*
X174781586Y-128560000D01*
X178381586Y-128560000D02*
X180581586Y-128560000D01*
X141021586Y-47912258D02*
X141021586Y-47437742D01*
X142066586Y-47912258D02*
X142066586Y-47437742D01*
X184694086Y-61900000D02*
X189094086Y-61900000D01*
X184694086Y-62020000D02*
X184694086Y-61900000D01*
X184694086Y-64170000D02*
X184694086Y-63030000D01*
X184694086Y-65300000D02*
X184694086Y-65180000D01*
X189094086Y-61900000D02*
X189094086Y-62020000D01*
X189094086Y-63030000D02*
X189094086Y-64170000D01*
X189094086Y-65180000D02*
X189094086Y-65300000D01*
X189094086Y-65300000D02*
X184694086Y-65300000D01*
X147181586Y-96790000D02*
X144981586Y-96790000D01*
X147181586Y-96790000D02*
X149381586Y-96790000D01*
X147181586Y-103560000D02*
X143581586Y-103560000D01*
X147181586Y-103560000D02*
X149381586Y-103560000D01*
X109821586Y-122912258D02*
X109821586Y-122437742D01*
X110866586Y-122912258D02*
X110866586Y-122437742D01*
X109821586Y-47912258D02*
X109821586Y-47437742D01*
X110866586Y-47912258D02*
X110866586Y-47437742D01*
X172221586Y-97912258D02*
X172221586Y-97437742D01*
X173266586Y-97912258D02*
X173266586Y-97437742D01*
X114794086Y-136900000D02*
X119194086Y-136900000D01*
X114794086Y-137020000D02*
X114794086Y-136900000D01*
X114794086Y-139170000D02*
X114794086Y-138030000D01*
X114794086Y-140300000D02*
X114794086Y-140180000D01*
X119194086Y-136900000D02*
X119194086Y-137020000D01*
X119194086Y-138030000D02*
X119194086Y-139170000D01*
X119194086Y-140180000D02*
X119194086Y-140300000D01*
X119194086Y-140300000D02*
X114794086Y-140300000D01*
X173919086Y-65325000D02*
X169519086Y-65325000D01*
X173919086Y-65205000D02*
X173919086Y-65325000D01*
X173919086Y-63055000D02*
X173919086Y-64195000D01*
X173919086Y-61925000D02*
X173919086Y-62045000D01*
X169519086Y-65325000D02*
X169519086Y-65205000D01*
X169519086Y-64195000D02*
X169519086Y-63055000D01*
X169519086Y-62045000D02*
X169519086Y-61925000D01*
X169519086Y-61925000D02*
X173919086Y-61925000D01*
X177194086Y-86900000D02*
X181594086Y-86900000D01*
X177194086Y-87020000D02*
X177194086Y-86900000D01*
X177194086Y-89170000D02*
X177194086Y-88030000D01*
X177194086Y-90300000D02*
X177194086Y-90180000D01*
X181594086Y-86900000D02*
X181594086Y-87020000D01*
X181594086Y-88030000D02*
X181594086Y-89170000D01*
X181594086Y-90180000D02*
X181594086Y-90300000D01*
X181594086Y-90300000D02*
X177194086Y-90300000D01*
X111519086Y-115325000D02*
X107119086Y-115325000D01*
X111519086Y-115205000D02*
X111519086Y-115325000D01*
X111519086Y-113055000D02*
X111519086Y-114195000D01*
X111519086Y-111925000D02*
X111519086Y-112045000D01*
X107119086Y-115325000D02*
X107119086Y-115205000D01*
X107119086Y-114195000D02*
X107119086Y-113055000D01*
X107119086Y-112045000D02*
X107119086Y-111925000D01*
X107119086Y-111925000D02*
X111519086Y-111925000D01*
X142719086Y-115325000D02*
X138319086Y-115325000D01*
X142719086Y-115205000D02*
X142719086Y-115325000D01*
X142719086Y-113055000D02*
X142719086Y-114195000D01*
X142719086Y-111925000D02*
X142719086Y-112045000D01*
X138319086Y-115325000D02*
X138319086Y-115205000D01*
X138319086Y-114195000D02*
X138319086Y-113055000D01*
X138319086Y-112045000D02*
X138319086Y-111925000D01*
X138319086Y-111925000D02*
X142719086Y-111925000D01*
X153494086Y-61900000D02*
X157894086Y-61900000D01*
X153494086Y-62020000D02*
X153494086Y-61900000D01*
X153494086Y-64170000D02*
X153494086Y-63030000D01*
X153494086Y-65300000D02*
X153494086Y-65180000D01*
X157894086Y-61900000D02*
X157894086Y-62020000D01*
X157894086Y-63030000D02*
X157894086Y-64170000D01*
X157894086Y-65180000D02*
X157894086Y-65300000D01*
X157894086Y-65300000D02*
X153494086Y-65300000D01*
X142719086Y-65325000D02*
X138319086Y-65325000D01*
X142719086Y-65205000D02*
X142719086Y-65325000D01*
X142719086Y-63055000D02*
X142719086Y-64195000D01*
X142719086Y-61925000D02*
X142719086Y-62045000D01*
X138319086Y-65325000D02*
X138319086Y-65205000D01*
X138319086Y-64195000D02*
X138319086Y-63055000D01*
X138319086Y-62045000D02*
X138319086Y-61925000D01*
X138319086Y-61925000D02*
X142719086Y-61925000D01*
X141021586Y-97912258D02*
X141021586Y-97437742D01*
X142066586Y-97912258D02*
X142066586Y-97437742D01*
X115981586Y-71790000D02*
X113781586Y-71790000D01*
X115981586Y-71790000D02*
X118181586Y-71790000D01*
X115981586Y-78560000D02*
X112381586Y-78560000D01*
X115981586Y-78560000D02*
X118181586Y-78560000D01*
X173919086Y-140325000D02*
X169519086Y-140325000D01*
X173919086Y-140205000D02*
X173919086Y-140325000D01*
X173919086Y-138055000D02*
X173919086Y-139195000D01*
X173919086Y-136925000D02*
X173919086Y-137045000D01*
X169519086Y-140325000D02*
X169519086Y-140205000D01*
X169519086Y-139195000D02*
X169519086Y-138055000D01*
X169519086Y-137045000D02*
X169519086Y-136925000D01*
X169519086Y-136925000D02*
X173919086Y-136925000D01*
X122294086Y-136900000D02*
X126694086Y-136900000D01*
X122294086Y-137020000D02*
X122294086Y-136900000D01*
X122294086Y-139170000D02*
X122294086Y-138030000D01*
X122294086Y-140300000D02*
X122294086Y-140180000D01*
X126694086Y-136900000D02*
X126694086Y-137020000D01*
X126694086Y-138030000D02*
X126694086Y-139170000D01*
X126694086Y-140180000D02*
X126694086Y-140300000D01*
X126694086Y-140300000D02*
X122294086Y-140300000D01*
X145994086Y-86900000D02*
X150394086Y-86900000D01*
X145994086Y-87020000D02*
X145994086Y-86900000D01*
X145994086Y-89170000D02*
X145994086Y-88030000D01*
X145994086Y-90300000D02*
X145994086Y-90180000D01*
X150394086Y-86900000D02*
X150394086Y-87020000D01*
X150394086Y-88030000D02*
X150394086Y-89170000D01*
X150394086Y-90180000D02*
X150394086Y-90300000D01*
X150394086Y-90300000D02*
X145994086Y-90300000D01*
X115981586Y-121790000D02*
X113781586Y-121790000D01*
X115981586Y-121790000D02*
X118181586Y-121790000D01*
X115981586Y-128560000D02*
X112381586Y-128560000D01*
X115981586Y-128560000D02*
X118181586Y-128560000D01*
X147181586Y-71790000D02*
X144981586Y-71790000D01*
X147181586Y-71790000D02*
X149381586Y-71790000D01*
X147181586Y-78560000D02*
X143581586Y-78560000D01*
X147181586Y-78560000D02*
X149381586Y-78560000D01*
X178381586Y-71790000D02*
X176181586Y-71790000D01*
X178381586Y-71790000D02*
X180581586Y-71790000D01*
X178381586Y-78560000D02*
X174781586Y-78560000D01*
X178381586Y-78560000D02*
X180581586Y-78560000D01*
X141021586Y-72912258D02*
X141021586Y-72437742D01*
X142066586Y-72912258D02*
X142066586Y-72437742D01*
X172221586Y-122912258D02*
X172221586Y-122437742D01*
X173266586Y-122912258D02*
X173266586Y-122437742D01*
%LPC*%
D12*
X122419086Y-64675000D03*
X126569086Y-64675000D03*
X122419086Y-62525000D03*
X126569086Y-62525000D03*
X177319086Y-64675000D03*
X181469086Y-64675000D03*
X177319086Y-62525000D03*
X181469086Y-62525000D03*
D13*
X110344086Y-98500000D03*
X110344086Y-96850000D03*
D12*
X111394086Y-137550000D03*
X107244086Y-137550000D03*
X111394086Y-139700000D03*
X107244086Y-139700000D03*
X114919086Y-89675000D03*
X119069086Y-89675000D03*
X114919086Y-87525000D03*
X119069086Y-87525000D03*
D14*
X113119086Y-53100000D03*
X113119086Y-52450000D03*
X113119086Y-51800000D03*
X113119086Y-51150000D03*
X113119086Y-50500000D03*
X113119086Y-49850000D03*
X113119086Y-49200000D03*
X113119086Y-48550000D03*
X113119086Y-47900000D03*
X113119086Y-47250000D03*
X118844086Y-47250000D03*
X118844086Y-47900000D03*
X118844086Y-48550000D03*
X118844086Y-49200000D03*
X118844086Y-49850000D03*
X118844086Y-50500000D03*
X118844086Y-51150000D03*
X118844086Y-51800000D03*
X118844086Y-52450000D03*
X118844086Y-53100000D03*
D12*
X111394086Y-62550000D03*
X107244086Y-62550000D03*
X111394086Y-64700000D03*
X107244086Y-64700000D03*
D14*
X144319086Y-53100000D03*
X144319086Y-52450000D03*
X144319086Y-51800000D03*
X144319086Y-51150000D03*
X144319086Y-50500000D03*
X144319086Y-49850000D03*
X144319086Y-49200000D03*
X144319086Y-48550000D03*
X144319086Y-47900000D03*
X144319086Y-47250000D03*
X150044086Y-47250000D03*
X150044086Y-47900000D03*
X150044086Y-48550000D03*
X150044086Y-49200000D03*
X150044086Y-49850000D03*
X150044086Y-50500000D03*
X150044086Y-51150000D03*
X150044086Y-51800000D03*
X150044086Y-52450000D03*
X150044086Y-53100000D03*
D13*
X110344086Y-73500000D03*
X110344086Y-71850000D03*
D14*
X144319086Y-128100000D03*
X144319086Y-127450000D03*
X144319086Y-126800000D03*
X144319086Y-126150000D03*
X144319086Y-125500000D03*
X144319086Y-124850000D03*
X144319086Y-124200000D03*
X144319086Y-123550000D03*
X144319086Y-122900000D03*
X144319086Y-122250000D03*
X150044086Y-122250000D03*
X150044086Y-122900000D03*
X150044086Y-123550000D03*
X150044086Y-124200000D03*
X150044086Y-124850000D03*
X150044086Y-125500000D03*
X150044086Y-126150000D03*
X150044086Y-126800000D03*
X150044086Y-127450000D03*
X150044086Y-128100000D03*
D12*
X153619086Y-114675000D03*
X157769086Y-114675000D03*
X153619086Y-112525000D03*
X157769086Y-112525000D03*
X142594086Y-87550000D03*
X138444086Y-87550000D03*
X142594086Y-89700000D03*
X138444086Y-89700000D03*
D14*
X113119086Y-103100000D03*
X113119086Y-102450000D03*
X113119086Y-101800000D03*
X113119086Y-101150000D03*
X113119086Y-100500000D03*
X113119086Y-99850000D03*
X113119086Y-99200000D03*
X113119086Y-98550000D03*
X113119086Y-97900000D03*
X113119086Y-97250000D03*
X118844086Y-97250000D03*
X118844086Y-97900000D03*
X118844086Y-98550000D03*
X118844086Y-99200000D03*
X118844086Y-99850000D03*
X118844086Y-100500000D03*
X118844086Y-101150000D03*
X118844086Y-101800000D03*
X118844086Y-102450000D03*
X118844086Y-103100000D03*
D12*
X184819086Y-114675000D03*
X188969086Y-114675000D03*
X184819086Y-112525000D03*
X188969086Y-112525000D03*
X122419086Y-89675000D03*
X126569086Y-89675000D03*
X122419086Y-87525000D03*
X126569086Y-87525000D03*
D14*
X175519086Y-103100000D03*
X175519086Y-102450000D03*
X175519086Y-101800000D03*
X175519086Y-101150000D03*
X175519086Y-100500000D03*
X175519086Y-99850000D03*
X175519086Y-99200000D03*
X175519086Y-98550000D03*
X175519086Y-97900000D03*
X175519086Y-97250000D03*
X181244086Y-97250000D03*
X181244086Y-97900000D03*
X181244086Y-98550000D03*
X181244086Y-99200000D03*
X181244086Y-99850000D03*
X181244086Y-100500000D03*
X181244086Y-101150000D03*
X181244086Y-101800000D03*
X181244086Y-102450000D03*
X181244086Y-103100000D03*
X175519086Y-53100000D03*
X175519086Y-52450000D03*
X175519086Y-51800000D03*
X175519086Y-51150000D03*
X175519086Y-50500000D03*
X175519086Y-49850000D03*
X175519086Y-49200000D03*
X175519086Y-48550000D03*
X175519086Y-47900000D03*
X175519086Y-47250000D03*
X181244086Y-47250000D03*
X181244086Y-47900000D03*
X181244086Y-48550000D03*
X181244086Y-49200000D03*
X181244086Y-49850000D03*
X181244086Y-50500000D03*
X181244086Y-51150000D03*
X181244086Y-51800000D03*
X181244086Y-52450000D03*
X181244086Y-53100000D03*
D12*
X173794086Y-112550000D03*
X169644086Y-112550000D03*
X173794086Y-114700000D03*
X169644086Y-114700000D03*
X153619086Y-89675000D03*
X157769086Y-89675000D03*
X153619086Y-87525000D03*
X157769086Y-87525000D03*
D13*
X172744086Y-73500000D03*
X172744086Y-71850000D03*
D12*
X146119086Y-114675000D03*
X150269086Y-114675000D03*
X146119086Y-112525000D03*
X150269086Y-112525000D03*
X122419086Y-114675000D03*
X126569086Y-114675000D03*
X122419086Y-112525000D03*
X126569086Y-112525000D03*
X111394086Y-87550000D03*
X107244086Y-87550000D03*
X111394086Y-89700000D03*
X107244086Y-89700000D03*
X146119086Y-139675000D03*
X150269086Y-139675000D03*
X146119086Y-137525000D03*
X150269086Y-137525000D03*
X153619086Y-139675000D03*
X157769086Y-139675000D03*
X153619086Y-137525000D03*
X157769086Y-137525000D03*
X173794086Y-87550000D03*
X169644086Y-87550000D03*
X173794086Y-89700000D03*
X169644086Y-89700000D03*
X177319086Y-114675000D03*
X181469086Y-114675000D03*
X177319086Y-112525000D03*
X181469086Y-112525000D03*
X142594086Y-137550000D03*
X138444086Y-137550000D03*
X142594086Y-139700000D03*
X138444086Y-139700000D03*
X114919086Y-114675000D03*
X119069086Y-114675000D03*
X114919086Y-112525000D03*
X119069086Y-112525000D03*
X177319086Y-139675000D03*
X181469086Y-139675000D03*
X177319086Y-137525000D03*
X181469086Y-137525000D03*
D13*
X141544086Y-123500000D03*
X141544086Y-121850000D03*
D12*
X184819086Y-139675000D03*
X188969086Y-139675000D03*
X184819086Y-137525000D03*
X188969086Y-137525000D03*
X184819086Y-89675000D03*
X188969086Y-89675000D03*
X184819086Y-87525000D03*
X188969086Y-87525000D03*
X146119086Y-64675000D03*
X150269086Y-64675000D03*
X146119086Y-62525000D03*
X150269086Y-62525000D03*
X114919086Y-64675000D03*
X119069086Y-64675000D03*
X114919086Y-62525000D03*
X119069086Y-62525000D03*
D13*
X172744086Y-48500000D03*
X172744086Y-46850000D03*
D14*
X175519086Y-128100000D03*
X175519086Y-127450000D03*
X175519086Y-126800000D03*
X175519086Y-126150000D03*
X175519086Y-125500000D03*
X175519086Y-124850000D03*
X175519086Y-124200000D03*
X175519086Y-123550000D03*
X175519086Y-122900000D03*
X175519086Y-122250000D03*
X181244086Y-122250000D03*
X181244086Y-122900000D03*
X181244086Y-123550000D03*
X181244086Y-124200000D03*
X181244086Y-124850000D03*
X181244086Y-125500000D03*
X181244086Y-126150000D03*
X181244086Y-126800000D03*
X181244086Y-127450000D03*
X181244086Y-128100000D03*
D13*
X141544086Y-48500000D03*
X141544086Y-46850000D03*
D12*
X184819086Y-64675000D03*
X188969086Y-64675000D03*
X184819086Y-62525000D03*
X188969086Y-62525000D03*
D14*
X144319086Y-103100000D03*
X144319086Y-102450000D03*
X144319086Y-101800000D03*
X144319086Y-101150000D03*
X144319086Y-100500000D03*
X144319086Y-99850000D03*
X144319086Y-99200000D03*
X144319086Y-98550000D03*
X144319086Y-97900000D03*
X144319086Y-97250000D03*
X150044086Y-97250000D03*
X150044086Y-97900000D03*
X150044086Y-98550000D03*
X150044086Y-99200000D03*
X150044086Y-99850000D03*
X150044086Y-100500000D03*
X150044086Y-101150000D03*
X150044086Y-101800000D03*
X150044086Y-102450000D03*
X150044086Y-103100000D03*
D13*
X110344086Y-123500000D03*
X110344086Y-121850000D03*
X110344086Y-48500000D03*
X110344086Y-46850000D03*
X172744086Y-98500000D03*
X172744086Y-96850000D03*
D12*
X114919086Y-139675000D03*
X119069086Y-139675000D03*
X114919086Y-137525000D03*
X119069086Y-137525000D03*
X173794086Y-62550000D03*
X169644086Y-62550000D03*
X173794086Y-64700000D03*
X169644086Y-64700000D03*
X177319086Y-89675000D03*
X181469086Y-89675000D03*
X177319086Y-87525000D03*
X181469086Y-87525000D03*
X111394086Y-112550000D03*
X107244086Y-112550000D03*
X111394086Y-114700000D03*
X107244086Y-114700000D03*
X142594086Y-112550000D03*
X138444086Y-112550000D03*
X142594086Y-114700000D03*
X138444086Y-114700000D03*
X153619086Y-64675000D03*
X157769086Y-64675000D03*
X153619086Y-62525000D03*
X157769086Y-62525000D03*
X142594086Y-62550000D03*
X138444086Y-62550000D03*
X142594086Y-64700000D03*
X138444086Y-64700000D03*
D13*
X141544086Y-98500000D03*
X141544086Y-96850000D03*
D14*
X113119086Y-78100000D03*
X113119086Y-77450000D03*
X113119086Y-76800000D03*
X113119086Y-76150000D03*
X113119086Y-75500000D03*
X113119086Y-74850000D03*
X113119086Y-74200000D03*
X113119086Y-73550000D03*
X113119086Y-72900000D03*
X113119086Y-72250000D03*
X118844086Y-72250000D03*
X118844086Y-72900000D03*
X118844086Y-73550000D03*
X118844086Y-74200000D03*
X118844086Y-74850000D03*
X118844086Y-75500000D03*
X118844086Y-76150000D03*
X118844086Y-76800000D03*
X118844086Y-77450000D03*
X118844086Y-78100000D03*
D12*
X173794086Y-137550000D03*
X169644086Y-137550000D03*
X173794086Y-139700000D03*
X169644086Y-139700000D03*
X122419086Y-139675000D03*
X126569086Y-139675000D03*
X122419086Y-137525000D03*
X126569086Y-137525000D03*
X146119086Y-89675000D03*
X150269086Y-89675000D03*
X146119086Y-87525000D03*
X150269086Y-87525000D03*
D14*
X113119086Y-128100000D03*
X113119086Y-127450000D03*
X113119086Y-126800000D03*
X113119086Y-126150000D03*
X113119086Y-125500000D03*
X113119086Y-124850000D03*
X113119086Y-124200000D03*
X113119086Y-123550000D03*
X113119086Y-122900000D03*
X113119086Y-122250000D03*
X118844086Y-122250000D03*
X118844086Y-122900000D03*
X118844086Y-123550000D03*
X118844086Y-124200000D03*
X118844086Y-124850000D03*
X118844086Y-125500000D03*
X118844086Y-126150000D03*
X118844086Y-126800000D03*
X118844086Y-127450000D03*
X118844086Y-128100000D03*
X144319086Y-78100000D03*
X144319086Y-77450000D03*
X144319086Y-76800000D03*
X144319086Y-76150000D03*
X144319086Y-75500000D03*
X144319086Y-74850000D03*
X144319086Y-74200000D03*
X144319086Y-73550000D03*
X144319086Y-72900000D03*
X144319086Y-72250000D03*
X150044086Y-72250000D03*
X150044086Y-72900000D03*
X150044086Y-73550000D03*
X150044086Y-74200000D03*
X150044086Y-74850000D03*
X150044086Y-75500000D03*
X150044086Y-76150000D03*
X150044086Y-76800000D03*
X150044086Y-77450000D03*
X150044086Y-78100000D03*
X175519086Y-78100000D03*
X175519086Y-77450000D03*
X175519086Y-76800000D03*
X175519086Y-76150000D03*
X175519086Y-75500000D03*
X175519086Y-74850000D03*
X175519086Y-74200000D03*
X175519086Y-73550000D03*
X175519086Y-72900000D03*
X175519086Y-72250000D03*
X181244086Y-72250000D03*
X181244086Y-72900000D03*
X181244086Y-73550000D03*
X181244086Y-74200000D03*
X181244086Y-74850000D03*
X181244086Y-75500000D03*
X181244086Y-76150000D03*
X181244086Y-76800000D03*
X181244086Y-77450000D03*
X181244086Y-78100000D03*
D13*
X141544086Y-73500000D03*
X141544086Y-71850000D03*
X172744086Y-123500000D03*
X172744086Y-121850000D03*
D15*
X116644086Y-66700000D03*
X163444086Y-130200000D03*
X116644086Y-91700000D03*
D16*
X160644086Y-95000000D03*
D17*
X160644086Y-97540000D03*
X160644086Y-100080000D03*
X160644086Y-102620000D03*
X160644086Y-105160000D03*
X160644086Y-107700000D03*
X160644086Y-110240000D03*
X160644086Y-112780000D03*
D15*
X118644086Y-117700000D03*
X117644086Y-67700000D03*
X179044086Y-66700000D03*
X163444086Y-106200000D03*
X181044086Y-66700000D03*
X148844086Y-66700000D03*
X164444086Y-104200000D03*
X147844086Y-67700000D03*
X164444086Y-128200000D03*
X133244086Y-105200000D03*
X180044086Y-116700000D03*
X163444086Y-80200000D03*
X132244086Y-128200000D03*
X118644086Y-66700000D03*
D16*
X191844086Y-70000000D03*
D17*
X191844086Y-72540000D03*
X191844086Y-75080000D03*
X191844086Y-77620000D03*
X191844086Y-80160000D03*
X191844086Y-82700000D03*
X191844086Y-85240000D03*
X191844086Y-87780000D03*
D16*
X191844086Y-120000000D03*
D17*
X191844086Y-122540000D03*
X191844086Y-125080000D03*
X191844086Y-127620000D03*
X191844086Y-130160000D03*
X191844086Y-132700000D03*
X191844086Y-135240000D03*
X191844086Y-137780000D03*
D15*
X147844086Y-91700000D03*
X146844086Y-91700000D03*
X179044086Y-67700000D03*
X180044086Y-91700000D03*
X115644086Y-117700000D03*
X146844086Y-66700000D03*
D16*
X135244086Y-62800000D03*
D17*
X135244086Y-60260000D03*
X135244086Y-57720000D03*
X135244086Y-55180000D03*
X135244086Y-52640000D03*
X135244086Y-50100000D03*
X135244086Y-47560000D03*
X135244086Y-45020000D03*
D15*
X149844086Y-66700000D03*
X133244086Y-129200000D03*
X133244086Y-104200000D03*
X164444086Y-56200000D03*
X178044086Y-92700000D03*
X132244086Y-54200000D03*
X180044086Y-92700000D03*
X117644086Y-117700000D03*
X132244086Y-103200000D03*
X133244086Y-130200000D03*
X132244086Y-81200000D03*
X115644086Y-92700000D03*
X163444086Y-128200000D03*
X132244086Y-79200000D03*
X149844086Y-92700000D03*
X181044086Y-91700000D03*
X180044086Y-66700000D03*
X148844086Y-67700000D03*
D16*
X166444086Y-62800000D03*
D17*
X166444086Y-60260000D03*
X166444086Y-57720000D03*
X166444086Y-55180000D03*
X166444086Y-52640000D03*
X166444086Y-50100000D03*
X166444086Y-47560000D03*
X166444086Y-45020000D03*
D15*
X132244086Y-105200000D03*
X117644086Y-91700000D03*
X118644086Y-92700000D03*
X181044086Y-92700000D03*
X147844086Y-116700000D03*
X163444086Y-78200000D03*
X164444086Y-106200000D03*
X163444086Y-129200000D03*
D16*
X191844086Y-45000000D03*
D17*
X191844086Y-47540000D03*
X191844086Y-50080000D03*
X191844086Y-52620000D03*
X191844086Y-55160000D03*
X191844086Y-57700000D03*
X191844086Y-60240000D03*
X191844086Y-62780000D03*
D15*
X147844086Y-66700000D03*
D16*
X166444086Y-87800000D03*
D17*
X166444086Y-85260000D03*
X166444086Y-82720000D03*
X166444086Y-80180000D03*
X166444086Y-77640000D03*
X166444086Y-75100000D03*
X166444086Y-72560000D03*
X166444086Y-70020000D03*
D15*
X132244086Y-104200000D03*
X181044086Y-116700000D03*
X164444086Y-78200000D03*
X118644086Y-116700000D03*
X133244086Y-54200000D03*
X164444086Y-53200000D03*
X163444086Y-54200000D03*
X132244086Y-55200000D03*
X117644086Y-92700000D03*
X147844086Y-92700000D03*
D16*
X129444086Y-95000000D03*
D17*
X129444086Y-97540000D03*
X129444086Y-100080000D03*
X129444086Y-102620000D03*
X129444086Y-105160000D03*
X129444086Y-107700000D03*
X129444086Y-110240000D03*
X129444086Y-112780000D03*
D15*
X116644086Y-116700000D03*
X179044086Y-91700000D03*
D16*
X104044086Y-112800000D03*
D17*
X104044086Y-110260000D03*
X104044086Y-107720000D03*
X104044086Y-105180000D03*
X104044086Y-102640000D03*
X104044086Y-100100000D03*
X104044086Y-97560000D03*
X104044086Y-95020000D03*
D15*
X179044086Y-116700000D03*
D16*
X135244086Y-112800000D03*
D17*
X135244086Y-110260000D03*
X135244086Y-107720000D03*
X135244086Y-105180000D03*
X135244086Y-102640000D03*
X135244086Y-100100000D03*
X135244086Y-97560000D03*
X135244086Y-95020000D03*
D15*
X164444086Y-131200000D03*
X133244086Y-78200000D03*
X181044086Y-117700000D03*
X146844086Y-92700000D03*
X115644086Y-67700000D03*
X178044086Y-66700000D03*
D16*
X104044086Y-87800000D03*
D17*
X104044086Y-85260000D03*
X104044086Y-82720000D03*
X104044086Y-80180000D03*
X104044086Y-77640000D03*
X104044086Y-75100000D03*
X104044086Y-72560000D03*
X104044086Y-70020000D03*
D15*
X149844086Y-91700000D03*
X132244086Y-53200000D03*
D16*
X160644086Y-70000000D03*
D17*
X160644086Y-72540000D03*
X160644086Y-75080000D03*
X160644086Y-77620000D03*
X160644086Y-80160000D03*
X160644086Y-82700000D03*
X160644086Y-85240000D03*
X160644086Y-87780000D03*
D15*
X163444086Y-79200000D03*
X178044086Y-91700000D03*
X148844086Y-91700000D03*
D16*
X129444086Y-70000000D03*
D17*
X129444086Y-72540000D03*
X129444086Y-75080000D03*
X129444086Y-77620000D03*
X129444086Y-80160000D03*
X129444086Y-82700000D03*
X129444086Y-85240000D03*
X129444086Y-87780000D03*
D15*
X163444086Y-105200000D03*
X133244086Y-80200000D03*
X164444086Y-79200000D03*
X132244086Y-131200000D03*
D16*
X191844086Y-95000000D03*
D17*
X191844086Y-97540000D03*
X191844086Y-100080000D03*
X191844086Y-102620000D03*
X191844086Y-105160000D03*
X191844086Y-107700000D03*
X191844086Y-110240000D03*
X191844086Y-112780000D03*
D16*
X104044086Y-62800000D03*
D17*
X104044086Y-60260000D03*
X104044086Y-57720000D03*
X104044086Y-55180000D03*
X104044086Y-52640000D03*
X104044086Y-50100000D03*
X104044086Y-47560000D03*
X104044086Y-45020000D03*
D16*
X104044086Y-137800000D03*
D17*
X104044086Y-135260000D03*
X104044086Y-132720000D03*
X104044086Y-130180000D03*
X104044086Y-127640000D03*
X104044086Y-125100000D03*
X104044086Y-122560000D03*
X104044086Y-120020000D03*
D15*
X132244086Y-129200000D03*
X146844086Y-116700000D03*
X178044086Y-116700000D03*
X147844086Y-117700000D03*
X164444086Y-80200000D03*
X133244086Y-53200000D03*
D16*
X166444086Y-137800000D03*
D17*
X166444086Y-135260000D03*
X166444086Y-132720000D03*
X166444086Y-130180000D03*
X166444086Y-127640000D03*
X166444086Y-125100000D03*
X166444086Y-122560000D03*
X166444086Y-120020000D03*
D15*
X163444086Y-56200000D03*
X178044086Y-117700000D03*
D16*
X160644086Y-45000000D03*
D17*
X160644086Y-47540000D03*
X160644086Y-50080000D03*
X160644086Y-52620000D03*
X160644086Y-55160000D03*
X160644086Y-57700000D03*
X160644086Y-60240000D03*
X160644086Y-62780000D03*
D16*
X135244086Y-87800000D03*
D17*
X135244086Y-85260000D03*
X135244086Y-82720000D03*
X135244086Y-80180000D03*
X135244086Y-77640000D03*
X135244086Y-75100000D03*
X135244086Y-72560000D03*
X135244086Y-70020000D03*
D15*
X133244086Y-79200000D03*
X163444086Y-81200000D03*
X132244086Y-106200000D03*
D16*
X135244086Y-137800000D03*
D17*
X135244086Y-135260000D03*
X135244086Y-132720000D03*
X135244086Y-130180000D03*
X135244086Y-127640000D03*
X135244086Y-125100000D03*
X135244086Y-122560000D03*
X135244086Y-120020000D03*
D15*
X163444086Y-103200000D03*
X133244086Y-56200000D03*
D16*
X166444086Y-112800000D03*
D17*
X166444086Y-110260000D03*
X166444086Y-107720000D03*
X166444086Y-105180000D03*
X166444086Y-102640000D03*
X166444086Y-100100000D03*
X166444086Y-97560000D03*
X166444086Y-95020000D03*
D15*
X118644086Y-91700000D03*
X115644086Y-91700000D03*
X117644086Y-116700000D03*
X164444086Y-81200000D03*
X178044086Y-67700000D03*
X117644086Y-66700000D03*
X133244086Y-131200000D03*
X148844086Y-117700000D03*
X180044086Y-117700000D03*
X116644086Y-67700000D03*
X133244086Y-106200000D03*
X181044086Y-67700000D03*
X118644086Y-67700000D03*
X133244086Y-55200000D03*
X115644086Y-66700000D03*
X180044086Y-67700000D03*
D16*
X160644086Y-120000000D03*
D17*
X160644086Y-122540000D03*
X160644086Y-125080000D03*
X160644086Y-127620000D03*
X160644086Y-130160000D03*
X160644086Y-132700000D03*
X160644086Y-135240000D03*
X160644086Y-137780000D03*
D15*
X115644086Y-116700000D03*
X133244086Y-103200000D03*
X163444086Y-53200000D03*
X149844086Y-67700000D03*
X163444086Y-131200000D03*
X148844086Y-92700000D03*
X163444086Y-104200000D03*
X132244086Y-78200000D03*
X164444086Y-129200000D03*
X179044086Y-92700000D03*
D16*
X129444086Y-120000000D03*
D17*
X129444086Y-122540000D03*
X129444086Y-125080000D03*
X129444086Y-127620000D03*
X129444086Y-130160000D03*
X129444086Y-132700000D03*
X129444086Y-135240000D03*
X129444086Y-137780000D03*
D15*
X132244086Y-130200000D03*
X133244086Y-128200000D03*
X164444086Y-55200000D03*
X132244086Y-80200000D03*
X149844086Y-116700000D03*
X164444086Y-130200000D03*
X133244086Y-81200000D03*
X163444086Y-55200000D03*
X149844086Y-117700000D03*
X116644086Y-117700000D03*
X148844086Y-116700000D03*
X146844086Y-117700000D03*
X179044086Y-117700000D03*
X146844086Y-67700000D03*
X132244086Y-56200000D03*
D16*
X129444086Y-45000000D03*
D17*
X129444086Y-47540000D03*
X129444086Y-50080000D03*
X129444086Y-52620000D03*
X129444086Y-55160000D03*
X129444086Y-57700000D03*
X129444086Y-60240000D03*
X129444086Y-62780000D03*
D15*
X164444086Y-105200000D03*
X116644086Y-92700000D03*
X164444086Y-54200000D03*
X164444086Y-103200000D03*
%LPD*%
M02*
