G04 #@! TF.GenerationSoftware,KiCad,Pcbnew,7.0.7*
G04 #@! TF.CreationDate,2024-02-13T21:43:46-05:00*
G04 #@! TF.ProjectId,panelized,70616e65-6c69-47a6-9564-2e6b69636164,rev?*
G04 #@! TF.SameCoordinates,Original*
G04 #@! TF.FileFunction,Paste,Top*
G04 #@! TF.FilePolarity,Positive*
%FSLAX46Y46*%
G04 Gerber Fmt 4.6, Leading zero omitted, Abs format (unit mm)*
G04 Created by KiCad (PCBNEW 7.0.7) date 2024-02-13 21:43:46*
%MOMM*%
%LPD*%
G01*
G04 APERTURE LIST*
G04 Aperture macros list*
%AMRoundRect*
0 Rectangle with rounded corners*
0 $1 Rounding radius*
0 $2 $3 $4 $5 $6 $7 $8 $9 X,Y pos of 4 corners*
0 Add a 4 corners polygon primitive as box body*
4,1,4,$2,$3,$4,$5,$6,$7,$8,$9,$2,$3,0*
0 Add four circle primitives for the rounded corners*
1,1,$1+$1,$2,$3*
1,1,$1+$1,$4,$5*
1,1,$1+$1,$6,$7*
1,1,$1+$1,$8,$9*
0 Add four rect primitives between the rounded corners*
20,1,$1+$1,$2,$3,$4,$5,0*
20,1,$1+$1,$4,$5,$6,$7,0*
20,1,$1+$1,$6,$7,$8,$9,0*
20,1,$1+$1,$8,$9,$2,$3,0*%
%AMFreePoly0*
4,1,6,0.450000,-0.800000,-0.450000,-0.800000,-0.450000,0.530000,-0.180000,0.800000,0.450000,0.800000,0.450000,-0.800000,0.450000,-0.800000,$1*%
G04 Aperture macros list end*
%ADD10RoundRect,0.150000X0.512500X0.150000X-0.512500X0.150000X-0.512500X-0.150000X0.512500X-0.150000X0*%
%ADD11RoundRect,0.150000X-0.587500X-0.150000X0.587500X-0.150000X0.587500X0.150000X-0.587500X0.150000X0*%
%ADD12RoundRect,0.200000X0.200000X0.275000X-0.200000X0.275000X-0.200000X-0.275000X0.200000X-0.275000X0*%
%ADD13RoundRect,0.200000X-0.275000X0.200000X-0.275000X-0.200000X0.275000X-0.200000X0.275000X0.200000X0*%
%ADD14R,1.500000X1.600000*%
%ADD15RoundRect,0.200000X-0.200000X-0.275000X0.200000X-0.275000X0.200000X0.275000X-0.200000X0.275000X0*%
%ADD16RoundRect,0.225000X0.250000X-0.225000X0.250000X0.225000X-0.250000X0.225000X-0.250000X-0.225000X0*%
%ADD17R,0.720000X0.600000*%
%ADD18R,0.550000X0.250000*%
%ADD19R,2.000000X2.000000*%
%ADD20RoundRect,0.200000X0.275000X-0.200000X0.275000X0.200000X-0.275000X0.200000X-0.275000X-0.200000X0*%
%ADD21RoundRect,0.225000X0.225000X0.250000X-0.225000X0.250000X-0.225000X-0.250000X0.225000X-0.250000X0*%
%ADD22RoundRect,0.150000X0.150000X-0.587500X0.150000X0.587500X-0.150000X0.587500X-0.150000X-0.587500X0*%
%ADD23FreePoly0,0.000000*%
%ADD24RoundRect,0.150000X0.150000X-0.512500X0.150000X0.512500X-0.150000X0.512500X-0.150000X-0.512500X0*%
%ADD25RoundRect,0.150000X-0.150000X0.587500X-0.150000X-0.587500X0.150000X-0.587500X0.150000X0.587500X0*%
%ADD26R,0.300000X0.990000*%
G04 APERTURE END LIST*
G36*
X173394086Y-110943198D02*
G01*
X172194086Y-110943198D01*
X172194086Y-110043198D01*
X172494086Y-109743198D01*
X173394086Y-109743198D01*
X173394086Y-110943198D01*
G37*
G36*
X173394086Y-108943198D02*
G01*
X172494086Y-108943198D01*
X172194086Y-108643198D01*
X172194086Y-107743198D01*
X173394086Y-107743198D01*
X173394086Y-108943198D01*
G37*
G36*
X110994086Y-110943198D02*
G01*
X109794086Y-110943198D01*
X109794086Y-110043198D01*
X110094086Y-109743198D01*
X110994086Y-109743198D01*
X110994086Y-110943198D01*
G37*
G36*
X110994086Y-108943198D02*
G01*
X110094086Y-108943198D01*
X109794086Y-108643198D01*
X109794086Y-107743198D01*
X110994086Y-107743198D01*
X110994086Y-108943198D01*
G37*
G36*
X173394086Y-135943198D02*
G01*
X172194086Y-135943198D01*
X172194086Y-135043198D01*
X172494086Y-134743198D01*
X173394086Y-134743198D01*
X173394086Y-135943198D01*
G37*
G36*
X173394086Y-133943198D02*
G01*
X172494086Y-133943198D01*
X172194086Y-133643198D01*
X172194086Y-132743198D01*
X173394086Y-132743198D01*
X173394086Y-133943198D01*
G37*
G36*
X110994086Y-85943198D02*
G01*
X109794086Y-85943198D01*
X109794086Y-85043198D01*
X110094086Y-84743198D01*
X110994086Y-84743198D01*
X110994086Y-85943198D01*
G37*
G36*
X110994086Y-83943198D02*
G01*
X110094086Y-83943198D01*
X109794086Y-83643198D01*
X109794086Y-82743198D01*
X110994086Y-82743198D01*
X110994086Y-83943198D01*
G37*
G36*
X173394086Y-85943198D02*
G01*
X172194086Y-85943198D01*
X172194086Y-85043198D01*
X172494086Y-84743198D01*
X173394086Y-84743198D01*
X173394086Y-85943198D01*
G37*
G36*
X173394086Y-83943198D02*
G01*
X172494086Y-83943198D01*
X172194086Y-83643198D01*
X172194086Y-82743198D01*
X173394086Y-82743198D01*
X173394086Y-83943198D01*
G37*
G36*
X173394086Y-60943198D02*
G01*
X172194086Y-60943198D01*
X172194086Y-60043198D01*
X172494086Y-59743198D01*
X173394086Y-59743198D01*
X173394086Y-60943198D01*
G37*
G36*
X173394086Y-58943198D02*
G01*
X172494086Y-58943198D01*
X172194086Y-58643198D01*
X172194086Y-57743198D01*
X173394086Y-57743198D01*
X173394086Y-58943198D01*
G37*
G36*
X142194086Y-60943198D02*
G01*
X140994086Y-60943198D01*
X140994086Y-60043198D01*
X141294086Y-59743198D01*
X142194086Y-59743198D01*
X142194086Y-60943198D01*
G37*
G36*
X142194086Y-58943198D02*
G01*
X141294086Y-58943198D01*
X140994086Y-58643198D01*
X140994086Y-57743198D01*
X142194086Y-57743198D01*
X142194086Y-58943198D01*
G37*
G36*
X110994086Y-60943198D02*
G01*
X109794086Y-60943198D01*
X109794086Y-60043198D01*
X110094086Y-59743198D01*
X110994086Y-59743198D01*
X110994086Y-60943198D01*
G37*
G36*
X110994086Y-58943198D02*
G01*
X110094086Y-58943198D01*
X109794086Y-58643198D01*
X109794086Y-57743198D01*
X110994086Y-57743198D01*
X110994086Y-58943198D01*
G37*
G36*
X110994086Y-135943198D02*
G01*
X109794086Y-135943198D01*
X109794086Y-135043198D01*
X110094086Y-134743198D01*
X110994086Y-134743198D01*
X110994086Y-135943198D01*
G37*
G36*
X110994086Y-133943198D02*
G01*
X110094086Y-133943198D01*
X109794086Y-133643198D01*
X109794086Y-132743198D01*
X110994086Y-132743198D01*
X110994086Y-133943198D01*
G37*
G36*
X142194086Y-135943198D02*
G01*
X140994086Y-135943198D01*
X140994086Y-135043198D01*
X141294086Y-134743198D01*
X142194086Y-134743198D01*
X142194086Y-135943198D01*
G37*
G36*
X142194086Y-133943198D02*
G01*
X141294086Y-133943198D01*
X140994086Y-133643198D01*
X140994086Y-132743198D01*
X142194086Y-132743198D01*
X142194086Y-133943198D01*
G37*
G36*
X142194086Y-110943198D02*
G01*
X140994086Y-110943198D01*
X140994086Y-110043198D01*
X141294086Y-109743198D01*
X142194086Y-109743198D01*
X142194086Y-110943198D01*
G37*
G36*
X142194086Y-108943198D02*
G01*
X141294086Y-108943198D01*
X140994086Y-108643198D01*
X140994086Y-107743198D01*
X142194086Y-107743198D01*
X142194086Y-108943198D01*
G37*
G36*
X142194086Y-85943198D02*
G01*
X140994086Y-85943198D01*
X140994086Y-85043198D01*
X141294086Y-84743198D01*
X142194086Y-84743198D01*
X142194086Y-85943198D01*
G37*
G36*
X142194086Y-83943198D02*
G01*
X141294086Y-83943198D01*
X140994086Y-83643198D01*
X140994086Y-82743198D01*
X142194086Y-82743198D01*
X142194086Y-83943198D01*
G37*
D10*
X181881586Y-135443198D03*
X181881586Y-134493198D03*
X181881586Y-133543198D03*
X179606586Y-133543198D03*
X179606586Y-134493198D03*
X179606586Y-135443198D03*
D11*
X123843927Y-126350000D03*
X123843927Y-128250000D03*
X125718927Y-127300000D03*
D12*
X139519086Y-74650000D03*
X137869086Y-74650000D03*
D13*
X137984086Y-76990000D03*
X137984086Y-78640000D03*
D14*
X169544086Y-109343198D03*
D10*
X119481586Y-60443198D03*
X119481586Y-59493198D03*
X119481586Y-58543198D03*
X117206586Y-58543198D03*
X117206586Y-59493198D03*
X117206586Y-60443198D03*
D12*
X108404086Y-120050000D03*
X106754086Y-120050000D03*
D15*
X175256586Y-58330698D03*
X176906586Y-58330698D03*
D13*
X179044086Y-125375000D03*
X179044086Y-127025000D03*
D16*
X171644086Y-78575000D03*
X171644086Y-77025000D03*
D17*
X173724086Y-94200000D03*
X174694086Y-94200000D03*
X175664086Y-94200000D03*
X176634086Y-94200000D03*
X176634086Y-95600000D03*
X175664086Y-95600000D03*
X174694086Y-95600000D03*
X173724086Y-95600000D03*
D18*
X145116586Y-74550000D03*
X145116586Y-74050000D03*
X145116586Y-73550000D03*
X142366586Y-73550000D03*
X142366586Y-74050000D03*
X142366586Y-74550000D03*
D12*
X108344086Y-56143198D03*
X106694086Y-56143198D03*
D13*
X182244086Y-53575000D03*
X182244086Y-55225000D03*
D19*
X108084086Y-114150000D03*
X123204086Y-114150000D03*
D11*
X155043927Y-126350000D03*
X155043927Y-128250000D03*
X156918927Y-127300000D03*
D20*
X114144086Y-128625000D03*
X114144086Y-126975000D03*
D12*
X139544086Y-131143198D03*
X137894086Y-131143198D03*
D15*
X144056586Y-58330698D03*
X145706586Y-58330698D03*
D16*
X140444086Y-78575000D03*
X140444086Y-77025000D03*
D12*
X139544086Y-56143198D03*
X137894086Y-56143198D03*
D13*
X169184086Y-76990000D03*
X169184086Y-78640000D03*
X179044086Y-75375000D03*
X179044086Y-77025000D03*
D21*
X152329086Y-73750000D03*
X150779086Y-73750000D03*
D13*
X147844086Y-50375000D03*
X147844086Y-52025000D03*
D15*
X175269086Y-60443198D03*
X176919086Y-60443198D03*
D12*
X170804086Y-97350000D03*
X169154086Y-97350000D03*
X170804086Y-72350000D03*
X169154086Y-72350000D03*
D21*
X183529086Y-48750000D03*
X181979086Y-48750000D03*
D16*
X174044086Y-78550000D03*
X174044086Y-77000000D03*
D12*
X170744086Y-56143198D03*
X169094086Y-56143198D03*
D20*
X176544086Y-78625000D03*
X176544086Y-76975000D03*
D12*
X157069086Y-94200000D03*
X155419086Y-94200000D03*
X139604086Y-95050000D03*
X137954086Y-95050000D03*
X170804086Y-47350000D03*
X169154086Y-47350000D03*
D22*
X153494086Y-58237500D03*
X155394086Y-58237500D03*
X154444086Y-56362500D03*
X184694086Y-83237500D03*
X186594086Y-83237500D03*
X185644086Y-81362500D03*
D23*
X120304086Y-70400000D03*
D18*
X119129086Y-69650000D03*
X119129086Y-70150000D03*
X119129086Y-70650000D03*
X119129086Y-71150000D03*
X121479086Y-71150000D03*
X121479086Y-70650000D03*
X121479086Y-70150000D03*
X121479086Y-69650000D03*
D13*
X179044086Y-100375000D03*
X179044086Y-102025000D03*
D21*
X158219086Y-89900000D03*
X156669086Y-89900000D03*
D24*
X115544086Y-106437500D03*
X117444086Y-106437500D03*
X116494086Y-104162500D03*
D12*
X170744086Y-81143198D03*
X169094086Y-81143198D03*
D14*
X107144086Y-109343198D03*
D16*
X142844086Y-103550000D03*
X142844086Y-102000000D03*
D10*
X181881586Y-110443198D03*
X181881586Y-109493198D03*
X181881586Y-108543198D03*
X179606586Y-108543198D03*
X179606586Y-109493198D03*
X179606586Y-110443198D03*
D25*
X125794086Y-46825000D03*
X123894086Y-46825000D03*
X124844086Y-48700000D03*
D16*
X174044086Y-103550000D03*
X174044086Y-102000000D03*
D12*
X188269086Y-119200000D03*
X186619086Y-119200000D03*
D25*
X125794086Y-71825000D03*
X123894086Y-71825000D03*
X124844086Y-73700000D03*
D26*
X125694086Y-81600000D03*
X126344086Y-81600000D03*
X126994086Y-81600000D03*
X126994086Y-79990000D03*
X126344086Y-79990000D03*
X125694086Y-79990000D03*
D21*
X189419086Y-139900000D03*
X187869086Y-139900000D03*
X152329086Y-126050000D03*
X150779086Y-126050000D03*
D12*
X108404086Y-70050000D03*
X106754086Y-70050000D03*
D13*
X119844086Y-128575000D03*
X119844086Y-130225000D03*
D17*
X173724086Y-44200000D03*
X174694086Y-44200000D03*
X175664086Y-44200000D03*
X176634086Y-44200000D03*
X176634086Y-45600000D03*
X175664086Y-45600000D03*
X174694086Y-45600000D03*
X173724086Y-45600000D03*
D12*
X157069086Y-44200000D03*
X155419086Y-44200000D03*
D25*
X125794086Y-121825000D03*
X123894086Y-121825000D03*
X124844086Y-123700000D03*
D12*
X157069086Y-119200000D03*
X155419086Y-119200000D03*
D13*
X106784086Y-51990000D03*
X106784086Y-53640000D03*
D21*
X158219086Y-114900000D03*
X156669086Y-114900000D03*
D15*
X112856586Y-58330698D03*
X114506586Y-58330698D03*
D17*
X142524086Y-44200000D03*
X143494086Y-44200000D03*
X144464086Y-44200000D03*
X145434086Y-44200000D03*
X145434086Y-45600000D03*
X144464086Y-45600000D03*
X143494086Y-45600000D03*
X142524086Y-45600000D03*
D12*
X108344086Y-131143198D03*
X106694086Y-131143198D03*
D10*
X119481586Y-85443198D03*
X119481586Y-84493198D03*
X119481586Y-83543198D03*
X117206586Y-83543198D03*
X117206586Y-84493198D03*
X117206586Y-85443198D03*
D14*
X169544086Y-134343198D03*
D13*
X148044086Y-71325000D03*
X148044086Y-72975000D03*
D11*
X155043927Y-51350000D03*
X155043927Y-53250000D03*
X156918927Y-52300000D03*
D21*
X183529086Y-51050000D03*
X181979086Y-51050000D03*
D13*
X151044086Y-53575000D03*
X151044086Y-55225000D03*
D24*
X177944086Y-81437500D03*
X179844086Y-81437500D03*
X178894086Y-79162500D03*
D25*
X156994086Y-96825000D03*
X155094086Y-96825000D03*
X156044086Y-98700000D03*
D21*
X187319086Y-136200000D03*
X185769086Y-136200000D03*
D12*
X139604086Y-122350000D03*
X137954086Y-122350000D03*
D13*
X137984086Y-126990000D03*
X137984086Y-128640000D03*
D23*
X182704086Y-45400000D03*
D18*
X181529086Y-44650000D03*
X181529086Y-45150000D03*
X181529086Y-45650000D03*
X181529086Y-46150000D03*
X183879086Y-46150000D03*
X183879086Y-45650000D03*
X183879086Y-45150000D03*
X183879086Y-44650000D03*
D19*
X170484086Y-89150000D03*
X185604086Y-89150000D03*
D18*
X113916586Y-74550000D03*
X113916586Y-74050000D03*
X113916586Y-73550000D03*
X111166586Y-73550000D03*
X111166586Y-74050000D03*
X111166586Y-74550000D03*
D23*
X151504086Y-120400000D03*
D18*
X150329086Y-119650000D03*
X150329086Y-120150000D03*
X150329086Y-120650000D03*
X150329086Y-121150000D03*
X152679086Y-121150000D03*
X152679086Y-120650000D03*
X152679086Y-120150000D03*
X152679086Y-119650000D03*
D15*
X144069086Y-135443198D03*
X145719086Y-135443198D03*
D13*
X106784086Y-126990000D03*
X106784086Y-128640000D03*
X147844086Y-100375000D03*
X147844086Y-102025000D03*
X116644086Y-75375000D03*
X116644086Y-77025000D03*
X116844086Y-121325000D03*
X116844086Y-122975000D03*
D16*
X171644086Y-53575000D03*
X171644086Y-52025000D03*
D12*
X170744086Y-106143198D03*
X169094086Y-106143198D03*
X139544086Y-81143198D03*
X137894086Y-81143198D03*
X188269086Y-44200000D03*
X186619086Y-44200000D03*
X125869086Y-94200000D03*
X124219086Y-94200000D03*
D21*
X121129086Y-73750000D03*
X119579086Y-73750000D03*
D11*
X186243927Y-76350000D03*
X186243927Y-78250000D03*
X188118927Y-77300000D03*
D16*
X109244086Y-78575000D03*
X109244086Y-77025000D03*
D15*
X112856586Y-83330698D03*
X114506586Y-83330698D03*
D10*
X119481586Y-135443198D03*
X119481586Y-134493198D03*
X119481586Y-133543198D03*
X117206586Y-133543198D03*
X117206586Y-134493198D03*
X117206586Y-135443198D03*
D18*
X145116586Y-49550000D03*
X145116586Y-49050000D03*
X145116586Y-48550000D03*
X142366586Y-48550000D03*
X142366586Y-49050000D03*
X142366586Y-49550000D03*
D24*
X146744086Y-131437500D03*
X148644086Y-131437500D03*
X147694086Y-129162500D03*
D21*
X152329086Y-123750000D03*
X150779086Y-123750000D03*
D12*
X170719086Y-49650000D03*
X169069086Y-49650000D03*
D18*
X113916586Y-49550000D03*
X113916586Y-49050000D03*
X113916586Y-48550000D03*
X111166586Y-48550000D03*
X111166586Y-49050000D03*
X111166586Y-49550000D03*
D20*
X145344086Y-53625000D03*
X145344086Y-51975000D03*
D15*
X175256586Y-83330698D03*
X176906586Y-83330698D03*
D12*
X108404086Y-97350000D03*
X106754086Y-97350000D03*
D13*
X147844086Y-125375000D03*
X147844086Y-127025000D03*
D16*
X142844086Y-128550000D03*
X142844086Y-127000000D03*
D21*
X127019086Y-64900000D03*
X125469086Y-64900000D03*
D13*
X116644086Y-50375000D03*
X116644086Y-52025000D03*
D26*
X156894086Y-131600000D03*
X157544086Y-131600000D03*
X158194086Y-131600000D03*
X158194086Y-129990000D03*
X157544086Y-129990000D03*
X156894086Y-129990000D03*
D11*
X155043927Y-101350000D03*
X155043927Y-103250000D03*
X156918927Y-102300000D03*
D15*
X173919086Y-56100000D03*
X175569086Y-56100000D03*
D18*
X113916586Y-124550000D03*
X113916586Y-124050000D03*
X113916586Y-123550000D03*
X111166586Y-123550000D03*
X111166586Y-124050000D03*
X111166586Y-124550000D03*
D24*
X146744086Y-56437500D03*
X148644086Y-56437500D03*
X147694086Y-54162500D03*
X177944086Y-56437500D03*
X179844086Y-56437500D03*
X178894086Y-54162500D03*
D22*
X153494086Y-133237500D03*
X155394086Y-133237500D03*
X154444086Y-131362500D03*
D15*
X175269086Y-110443198D03*
X176919086Y-110443198D03*
D23*
X120304086Y-95400000D03*
D18*
X119129086Y-94650000D03*
X119129086Y-95150000D03*
X119129086Y-95650000D03*
X119129086Y-96150000D03*
X121479086Y-96150000D03*
X121479086Y-95650000D03*
X121479086Y-95150000D03*
X121479086Y-94650000D03*
D12*
X139519086Y-124650000D03*
X137869086Y-124650000D03*
D22*
X122294086Y-133237500D03*
X124194086Y-133237500D03*
X123244086Y-131362500D03*
D13*
X179044086Y-50375000D03*
X179044086Y-52025000D03*
D12*
X108319086Y-99650000D03*
X106669086Y-99650000D03*
D21*
X124919086Y-61200000D03*
X123369086Y-61200000D03*
D15*
X112869086Y-85443198D03*
X114519086Y-85443198D03*
D25*
X188194086Y-121825000D03*
X186294086Y-121825000D03*
X187244086Y-123700000D03*
D12*
X125869086Y-44200000D03*
X124219086Y-44200000D03*
D17*
X142524086Y-94200000D03*
X143494086Y-94200000D03*
X144464086Y-94200000D03*
X145434086Y-94200000D03*
X145434086Y-95600000D03*
X144464086Y-95600000D03*
X143494086Y-95600000D03*
X142524086Y-95600000D03*
D23*
X120304086Y-45400000D03*
D18*
X119129086Y-44650000D03*
X119129086Y-45150000D03*
X119129086Y-45650000D03*
X119129086Y-46150000D03*
X121479086Y-46150000D03*
X121479086Y-45650000D03*
X121479086Y-45150000D03*
X121479086Y-44650000D03*
D16*
X111644086Y-103550000D03*
X111644086Y-102000000D03*
D12*
X139604086Y-72350000D03*
X137954086Y-72350000D03*
D26*
X188094086Y-81600000D03*
X188744086Y-81600000D03*
X189394086Y-81600000D03*
X189394086Y-79990000D03*
X188744086Y-79990000D03*
X188094086Y-79990000D03*
D21*
X124919086Y-111200000D03*
X123369086Y-111200000D03*
D26*
X188094086Y-131600000D03*
X188744086Y-131600000D03*
X189394086Y-131600000D03*
X189394086Y-129990000D03*
X188744086Y-129990000D03*
X188094086Y-129990000D03*
D13*
X148044086Y-121325000D03*
X148044086Y-122975000D03*
X137984086Y-101990000D03*
X137984086Y-103640000D03*
D15*
X142719086Y-81100000D03*
X144369086Y-81100000D03*
D21*
X152329086Y-51050000D03*
X150779086Y-51050000D03*
D13*
X116844086Y-46325000D03*
X116844086Y-47975000D03*
D15*
X142719086Y-131100000D03*
X144369086Y-131100000D03*
D17*
X142524086Y-119200000D03*
X143494086Y-119200000D03*
X144464086Y-119200000D03*
X145434086Y-119200000D03*
X145434086Y-120600000D03*
X144464086Y-120600000D03*
X143494086Y-120600000D03*
X142524086Y-120600000D03*
D20*
X176544086Y-103625000D03*
X176544086Y-101975000D03*
D21*
X189419086Y-89900000D03*
X187869086Y-89900000D03*
D24*
X146744086Y-81437500D03*
X148644086Y-81437500D03*
X147694086Y-79162500D03*
D15*
X144069086Y-60443198D03*
X145719086Y-60443198D03*
D13*
X151044086Y-128575000D03*
X151044086Y-130225000D03*
D22*
X153494086Y-83237500D03*
X155394086Y-83237500D03*
X154444086Y-81362500D03*
D21*
X152329086Y-98750000D03*
X150779086Y-98750000D03*
D11*
X123843927Y-101350000D03*
X123843927Y-103250000D03*
X125718927Y-102300000D03*
D19*
X139284086Y-139150000D03*
X154404086Y-139150000D03*
D16*
X171644086Y-103575000D03*
X171644086Y-102025000D03*
D20*
X114144086Y-78625000D03*
X114144086Y-76975000D03*
D14*
X107144086Y-84343198D03*
X169544086Y-84343198D03*
X169544086Y-59343198D03*
D16*
X111644086Y-53550000D03*
X111644086Y-52000000D03*
D15*
X111519086Y-131100000D03*
X113169086Y-131100000D03*
D10*
X150681586Y-60443198D03*
X150681586Y-59493198D03*
X150681586Y-58543198D03*
X148406586Y-58543198D03*
X148406586Y-59493198D03*
X148406586Y-60443198D03*
D12*
X139604086Y-120050000D03*
X137954086Y-120050000D03*
D19*
X139284086Y-89150000D03*
X154404086Y-89150000D03*
X170484086Y-64150000D03*
X185604086Y-64150000D03*
D10*
X119481586Y-110443198D03*
X119481586Y-109493198D03*
X119481586Y-108543198D03*
X117206586Y-108543198D03*
X117206586Y-109493198D03*
X117206586Y-110443198D03*
D18*
X145116586Y-99550000D03*
X145116586Y-99050000D03*
X145116586Y-98550000D03*
X142366586Y-98550000D03*
X142366586Y-99050000D03*
X142366586Y-99550000D03*
D21*
X127019086Y-139900000D03*
X125469086Y-139900000D03*
D14*
X138344086Y-59343198D03*
D15*
X142719086Y-106100000D03*
X144369086Y-106100000D03*
D21*
X121129086Y-98750000D03*
X119579086Y-98750000D03*
D26*
X156894086Y-106600000D03*
X157544086Y-106600000D03*
X158194086Y-106600000D03*
X158194086Y-104990000D03*
X157544086Y-104990000D03*
X156894086Y-104990000D03*
D25*
X125794086Y-96825000D03*
X123894086Y-96825000D03*
X124844086Y-98700000D03*
D12*
X170804086Y-120050000D03*
X169154086Y-120050000D03*
D24*
X177944086Y-131437500D03*
X179844086Y-131437500D03*
X178894086Y-129162500D03*
D11*
X155043927Y-76350000D03*
X155043927Y-78250000D03*
X156918927Y-77300000D03*
D21*
X121129086Y-51050000D03*
X119579086Y-51050000D03*
D17*
X111324086Y-44200000D03*
X112294086Y-44200000D03*
X113264086Y-44200000D03*
X114234086Y-44200000D03*
X114234086Y-45600000D03*
X113264086Y-45600000D03*
X112294086Y-45600000D03*
X111324086Y-45600000D03*
D25*
X156994086Y-46825000D03*
X155094086Y-46825000D03*
X156044086Y-48700000D03*
D11*
X186243927Y-51350000D03*
X186243927Y-53250000D03*
X188118927Y-52300000D03*
D13*
X147844086Y-75375000D03*
X147844086Y-77025000D03*
D21*
X121129086Y-126050000D03*
X119579086Y-126050000D03*
D16*
X140444086Y-53575000D03*
X140444086Y-52025000D03*
D20*
X114144086Y-53625000D03*
X114144086Y-51975000D03*
D12*
X170804086Y-95050000D03*
X169154086Y-95050000D03*
D13*
X116844086Y-96325000D03*
X116844086Y-97975000D03*
D19*
X108084086Y-64150000D03*
X123204086Y-64150000D03*
D17*
X111324086Y-94200000D03*
X112294086Y-94200000D03*
X113264086Y-94200000D03*
X114234086Y-94200000D03*
X114234086Y-95600000D03*
X113264086Y-95600000D03*
X112294086Y-95600000D03*
X111324086Y-95600000D03*
D19*
X139284086Y-114150000D03*
X154404086Y-114150000D03*
D21*
X158219086Y-139900000D03*
X156669086Y-139900000D03*
D10*
X181881586Y-60443198D03*
X181881586Y-59493198D03*
X181881586Y-58543198D03*
X179606586Y-58543198D03*
X179606586Y-59493198D03*
X179606586Y-60443198D03*
D12*
X108404086Y-45050000D03*
X106754086Y-45050000D03*
D15*
X111519086Y-56100000D03*
X113169086Y-56100000D03*
D13*
X148044086Y-96325000D03*
X148044086Y-97975000D03*
D15*
X175269086Y-85443198D03*
X176919086Y-85443198D03*
D23*
X182704086Y-120400000D03*
D18*
X181529086Y-119650000D03*
X181529086Y-120150000D03*
X181529086Y-120650000D03*
X181529086Y-121150000D03*
X183879086Y-121150000D03*
X183879086Y-120650000D03*
X183879086Y-120150000D03*
X183879086Y-119650000D03*
D23*
X151504086Y-45400000D03*
D18*
X150329086Y-44650000D03*
X150329086Y-45150000D03*
X150329086Y-45650000D03*
X150329086Y-46150000D03*
X152679086Y-46150000D03*
X152679086Y-45650000D03*
X152679086Y-45150000D03*
X152679086Y-44650000D03*
X176316586Y-74550000D03*
X176316586Y-74050000D03*
X176316586Y-73550000D03*
X173566586Y-73550000D03*
X173566586Y-74050000D03*
X173566586Y-74550000D03*
D23*
X182704086Y-95400000D03*
D18*
X181529086Y-94650000D03*
X181529086Y-95150000D03*
X181529086Y-95650000D03*
X181529086Y-96150000D03*
X183879086Y-96150000D03*
X183879086Y-95650000D03*
X183879086Y-95150000D03*
X183879086Y-94650000D03*
D12*
X170804086Y-122350000D03*
X169154086Y-122350000D03*
D24*
X115544086Y-81437500D03*
X117444086Y-81437500D03*
X116494086Y-79162500D03*
D18*
X145116586Y-124550000D03*
X145116586Y-124050000D03*
X145116586Y-123550000D03*
X142366586Y-123550000D03*
X142366586Y-124050000D03*
X142366586Y-124550000D03*
D25*
X188194086Y-96825000D03*
X186294086Y-96825000D03*
X187244086Y-98700000D03*
D15*
X144056586Y-133330698D03*
X145706586Y-133330698D03*
D12*
X108344086Y-106143198D03*
X106694086Y-106143198D03*
D25*
X156994086Y-71825000D03*
X155094086Y-71825000D03*
X156044086Y-73700000D03*
D14*
X107144086Y-59343198D03*
D12*
X139604086Y-97350000D03*
X137954086Y-97350000D03*
D17*
X173724086Y-69200000D03*
X174694086Y-69200000D03*
X175664086Y-69200000D03*
X176634086Y-69200000D03*
X176634086Y-70600000D03*
X175664086Y-70600000D03*
X174694086Y-70600000D03*
X173724086Y-70600000D03*
D15*
X112869086Y-135443198D03*
X114519086Y-135443198D03*
D20*
X176544086Y-128625000D03*
X176544086Y-126975000D03*
D16*
X109244086Y-103575000D03*
X109244086Y-102025000D03*
X174044086Y-53550000D03*
X174044086Y-52000000D03*
D26*
X156894086Y-56600000D03*
X157544086Y-56600000D03*
X158194086Y-56600000D03*
X158194086Y-54990000D03*
X157544086Y-54990000D03*
X156894086Y-54990000D03*
D12*
X125869086Y-119200000D03*
X124219086Y-119200000D03*
D26*
X156894086Y-81600000D03*
X157544086Y-81600000D03*
X158194086Y-81600000D03*
X158194086Y-79990000D03*
X157544086Y-79990000D03*
X156894086Y-79990000D03*
D10*
X150681586Y-85443198D03*
X150681586Y-84493198D03*
X150681586Y-83543198D03*
X148406586Y-83543198D03*
X148406586Y-84493198D03*
X148406586Y-85443198D03*
D24*
X177944086Y-106437500D03*
X179844086Y-106437500D03*
X178894086Y-104162500D03*
D20*
X145344086Y-128625000D03*
X145344086Y-126975000D03*
D15*
X111519086Y-81100000D03*
X113169086Y-81100000D03*
D21*
X189419086Y-64900000D03*
X187869086Y-64900000D03*
D12*
X108319086Y-49650000D03*
X106669086Y-49650000D03*
X170719086Y-99650000D03*
X169069086Y-99650000D03*
D16*
X140444086Y-103575000D03*
X140444086Y-102025000D03*
D17*
X173724086Y-119200000D03*
X174694086Y-119200000D03*
X175664086Y-119200000D03*
X176634086Y-119200000D03*
X176634086Y-120600000D03*
X175664086Y-120600000D03*
X174694086Y-120600000D03*
X173724086Y-120600000D03*
D14*
X107144086Y-134343198D03*
D15*
X144069086Y-110443198D03*
X145719086Y-110443198D03*
D13*
X169184086Y-51990000D03*
X169184086Y-53640000D03*
D11*
X186243927Y-101350000D03*
X186243927Y-103250000D03*
X188118927Y-102300000D03*
D12*
X108404086Y-122350000D03*
X106754086Y-122350000D03*
D21*
X183529086Y-123750000D03*
X181979086Y-123750000D03*
D15*
X173919086Y-131100000D03*
X175569086Y-131100000D03*
D13*
X116644086Y-125375000D03*
X116644086Y-127025000D03*
D26*
X188094086Y-56600000D03*
X188744086Y-56600000D03*
X189394086Y-56600000D03*
X189394086Y-54990000D03*
X188744086Y-54990000D03*
X188094086Y-54990000D03*
D21*
X183529086Y-98750000D03*
X181979086Y-98750000D03*
D12*
X108319086Y-124650000D03*
X106669086Y-124650000D03*
X108404086Y-47350000D03*
X106754086Y-47350000D03*
D18*
X176316586Y-99550000D03*
X176316586Y-99050000D03*
X176316586Y-98550000D03*
X173566586Y-98550000D03*
X173566586Y-99050000D03*
X173566586Y-99550000D03*
D13*
X151044086Y-103575000D03*
X151044086Y-105225000D03*
D20*
X176544086Y-53625000D03*
X176544086Y-51975000D03*
D15*
X111519086Y-106100000D03*
X113169086Y-106100000D03*
D12*
X170719086Y-74650000D03*
X169069086Y-74650000D03*
X125869086Y-69200000D03*
X124219086Y-69200000D03*
D23*
X120304086Y-120400000D03*
D18*
X119129086Y-119650000D03*
X119129086Y-120150000D03*
X119129086Y-120650000D03*
X119129086Y-121150000D03*
X121479086Y-121150000D03*
X121479086Y-120650000D03*
X121479086Y-120150000D03*
X121479086Y-119650000D03*
D12*
X188269086Y-69200000D03*
X186619086Y-69200000D03*
D18*
X176316586Y-49550000D03*
X176316586Y-49050000D03*
X176316586Y-48550000D03*
X173566586Y-48550000D03*
X173566586Y-49050000D03*
X173566586Y-49550000D03*
D13*
X182244086Y-103575000D03*
X182244086Y-105225000D03*
D12*
X108344086Y-81143198D03*
X106694086Y-81143198D03*
D13*
X119844086Y-53575000D03*
X119844086Y-55225000D03*
D19*
X170484086Y-139150000D03*
X185604086Y-139150000D03*
D15*
X175256586Y-108330698D03*
X176906586Y-108330698D03*
D22*
X153494086Y-108237500D03*
X155394086Y-108237500D03*
X154444086Y-106362500D03*
D23*
X182704086Y-70400000D03*
D18*
X181529086Y-69650000D03*
X181529086Y-70150000D03*
X181529086Y-70650000D03*
X181529086Y-71150000D03*
X183879086Y-71150000D03*
X183879086Y-70650000D03*
X183879086Y-70150000D03*
X183879086Y-69650000D03*
D21*
X183529086Y-73750000D03*
X181979086Y-73750000D03*
D23*
X151504086Y-95400000D03*
D18*
X150329086Y-94650000D03*
X150329086Y-95150000D03*
X150329086Y-95650000D03*
X150329086Y-96150000D03*
X152679086Y-96150000D03*
X152679086Y-95650000D03*
X152679086Y-95150000D03*
X152679086Y-94650000D03*
D24*
X115544086Y-131437500D03*
X117444086Y-131437500D03*
X116494086Y-129162500D03*
D16*
X142844086Y-53550000D03*
X142844086Y-52000000D03*
D21*
X183529086Y-76050000D03*
X181979086Y-76050000D03*
D15*
X175269086Y-135443198D03*
X176919086Y-135443198D03*
X112869086Y-60443198D03*
X114519086Y-60443198D03*
X112869086Y-110443198D03*
X114519086Y-110443198D03*
X175256586Y-133330698D03*
X176906586Y-133330698D03*
D12*
X170719086Y-124650000D03*
X169069086Y-124650000D03*
D24*
X146744086Y-106437500D03*
X148644086Y-106437500D03*
X147694086Y-104162500D03*
D12*
X170804086Y-45050000D03*
X169154086Y-45050000D03*
D13*
X169184086Y-101990000D03*
X169184086Y-103640000D03*
D16*
X109244086Y-53575000D03*
X109244086Y-52025000D03*
D11*
X123843927Y-51350000D03*
X123843927Y-53250000D03*
X125718927Y-52300000D03*
D13*
X137984086Y-51990000D03*
X137984086Y-53640000D03*
D16*
X171644086Y-128575000D03*
X171644086Y-127025000D03*
D12*
X139544086Y-106143198D03*
X137894086Y-106143198D03*
D15*
X112856586Y-108330698D03*
X114506586Y-108330698D03*
D22*
X184694086Y-58237500D03*
X186594086Y-58237500D03*
X185644086Y-56362500D03*
D21*
X187319086Y-86200000D03*
X185769086Y-86200000D03*
D22*
X122294086Y-58237500D03*
X124194086Y-58237500D03*
X123244086Y-56362500D03*
D13*
X106784086Y-76990000D03*
X106784086Y-78640000D03*
X179244086Y-121325000D03*
X179244086Y-122975000D03*
D21*
X158219086Y-64900000D03*
X156669086Y-64900000D03*
D26*
X125694086Y-56600000D03*
X126344086Y-56600000D03*
X126994086Y-56600000D03*
X126994086Y-54990000D03*
X126344086Y-54990000D03*
X125694086Y-54990000D03*
D25*
X156994086Y-121825000D03*
X155094086Y-121825000D03*
X156044086Y-123700000D03*
D10*
X181881586Y-85443198D03*
X181881586Y-84493198D03*
X181881586Y-83543198D03*
X179606586Y-83543198D03*
X179606586Y-84493198D03*
X179606586Y-85443198D03*
D21*
X152329086Y-101050000D03*
X150779086Y-101050000D03*
X127019086Y-114900000D03*
X125469086Y-114900000D03*
D12*
X139519086Y-99650000D03*
X137869086Y-99650000D03*
D19*
X170484086Y-114150000D03*
X185604086Y-114150000D03*
D26*
X188094086Y-106600000D03*
X188744086Y-106600000D03*
X189394086Y-106600000D03*
X189394086Y-104990000D03*
X188744086Y-104990000D03*
X188094086Y-104990000D03*
D19*
X139284086Y-64150000D03*
X154404086Y-64150000D03*
D13*
X182244086Y-128575000D03*
X182244086Y-130225000D03*
D21*
X183529086Y-126050000D03*
X181979086Y-126050000D03*
D12*
X108404086Y-72350000D03*
X106754086Y-72350000D03*
D16*
X174044086Y-128550000D03*
X174044086Y-127000000D03*
D23*
X151504086Y-70400000D03*
D18*
X150329086Y-69650000D03*
X150329086Y-70150000D03*
X150329086Y-70650000D03*
X150329086Y-71150000D03*
X152679086Y-71150000D03*
X152679086Y-70650000D03*
X152679086Y-70150000D03*
X152679086Y-69650000D03*
D16*
X111644086Y-78550000D03*
X111644086Y-77000000D03*
D21*
X156119086Y-136200000D03*
X154569086Y-136200000D03*
D13*
X179244086Y-96325000D03*
X179244086Y-97975000D03*
D15*
X144069086Y-85443198D03*
X145719086Y-85443198D03*
D13*
X116644086Y-100375000D03*
X116644086Y-102025000D03*
D21*
X156119086Y-86200000D03*
X154569086Y-86200000D03*
D12*
X188269086Y-94200000D03*
X186619086Y-94200000D03*
D18*
X113916586Y-99550000D03*
X113916586Y-99050000D03*
X113916586Y-98550000D03*
X111166586Y-98550000D03*
X111166586Y-99050000D03*
X111166586Y-99550000D03*
D13*
X179244086Y-71325000D03*
X179244086Y-72975000D03*
D15*
X142719086Y-56100000D03*
X144369086Y-56100000D03*
D12*
X139519086Y-49650000D03*
X137869086Y-49650000D03*
D21*
X127019086Y-89900000D03*
X125469086Y-89900000D03*
D17*
X142524086Y-69200000D03*
X143494086Y-69200000D03*
X144464086Y-69200000D03*
X145434086Y-69200000D03*
X145434086Y-70600000D03*
X144464086Y-70600000D03*
X143494086Y-70600000D03*
X142524086Y-70600000D03*
D20*
X145344086Y-78625000D03*
X145344086Y-76975000D03*
D12*
X157069086Y-69200000D03*
X155419086Y-69200000D03*
D15*
X173919086Y-106100000D03*
X175569086Y-106100000D03*
D12*
X108404086Y-95050000D03*
X106754086Y-95050000D03*
D19*
X108084086Y-139150000D03*
X123204086Y-139150000D03*
D21*
X121129086Y-101050000D03*
X119579086Y-101050000D03*
D22*
X184694086Y-108237500D03*
X186594086Y-108237500D03*
X185644086Y-106362500D03*
D21*
X187319086Y-61200000D03*
X185769086Y-61200000D03*
D20*
X114144086Y-103625000D03*
X114144086Y-101975000D03*
D21*
X183529086Y-101050000D03*
X181979086Y-101050000D03*
D22*
X122294086Y-83237500D03*
X124194086Y-83237500D03*
X123244086Y-81362500D03*
D12*
X170744086Y-131143198D03*
X169094086Y-131143198D03*
D25*
X188194086Y-71825000D03*
X186294086Y-71825000D03*
X187244086Y-73700000D03*
D18*
X176316586Y-124550000D03*
X176316586Y-124050000D03*
X176316586Y-123550000D03*
X173566586Y-123550000D03*
X173566586Y-124050000D03*
X173566586Y-124550000D03*
D15*
X173919086Y-81100000D03*
X175569086Y-81100000D03*
D19*
X108084086Y-89150000D03*
X123204086Y-89150000D03*
D22*
X184694086Y-133237500D03*
X186594086Y-133237500D03*
X185644086Y-131362500D03*
D16*
X140444086Y-128575000D03*
X140444086Y-127025000D03*
D26*
X125694086Y-131600000D03*
X126344086Y-131600000D03*
X126994086Y-131600000D03*
X126994086Y-129990000D03*
X126344086Y-129990000D03*
X125694086Y-129990000D03*
D14*
X138344086Y-134343198D03*
D21*
X156119086Y-111200000D03*
X154569086Y-111200000D03*
D14*
X138344086Y-109343198D03*
D22*
X122294086Y-108237500D03*
X124194086Y-108237500D03*
X123244086Y-106362500D03*
D13*
X151044086Y-78575000D03*
X151044086Y-80225000D03*
D21*
X189419086Y-114900000D03*
X187869086Y-114900000D03*
D13*
X106784086Y-101990000D03*
X106784086Y-103640000D03*
D17*
X111324086Y-119200000D03*
X112294086Y-119200000D03*
X113264086Y-119200000D03*
X114234086Y-119200000D03*
X114234086Y-120600000D03*
X113264086Y-120600000D03*
X112294086Y-120600000D03*
X111324086Y-120600000D03*
D21*
X156119086Y-61200000D03*
X154569086Y-61200000D03*
D26*
X125694086Y-106600000D03*
X126344086Y-106600000D03*
X126994086Y-106600000D03*
X126994086Y-104990000D03*
X126344086Y-104990000D03*
X125694086Y-104990000D03*
D16*
X111644086Y-128550000D03*
X111644086Y-127000000D03*
D21*
X121129086Y-123750000D03*
X119579086Y-123750000D03*
D13*
X119844086Y-78575000D03*
X119844086Y-80225000D03*
D11*
X186243927Y-126350000D03*
X186243927Y-128250000D03*
X188118927Y-127300000D03*
D21*
X121129086Y-76050000D03*
X119579086Y-76050000D03*
X187319086Y-111200000D03*
X185769086Y-111200000D03*
X152329086Y-48750000D03*
X150779086Y-48750000D03*
D20*
X145344086Y-103625000D03*
X145344086Y-101975000D03*
D13*
X119844086Y-103575000D03*
X119844086Y-105225000D03*
D12*
X139604086Y-70050000D03*
X137954086Y-70050000D03*
D21*
X124919086Y-136200000D03*
X123369086Y-136200000D03*
D16*
X142844086Y-78550000D03*
X142844086Y-77000000D03*
D13*
X179244086Y-46325000D03*
X179244086Y-47975000D03*
D25*
X188194086Y-46825000D03*
X186294086Y-46825000D03*
X187244086Y-48700000D03*
D12*
X139604086Y-45050000D03*
X137954086Y-45050000D03*
D10*
X150681586Y-135443198D03*
X150681586Y-134493198D03*
X150681586Y-133543198D03*
X148406586Y-133543198D03*
X148406586Y-134493198D03*
X148406586Y-135443198D03*
D16*
X109244086Y-128575000D03*
X109244086Y-127025000D03*
D11*
X123843927Y-76350000D03*
X123843927Y-78250000D03*
X125718927Y-77300000D03*
D10*
X150681586Y-110443198D03*
X150681586Y-109493198D03*
X150681586Y-108543198D03*
X148406586Y-108543198D03*
X148406586Y-109493198D03*
X148406586Y-110443198D03*
D13*
X182244086Y-78575000D03*
X182244086Y-80225000D03*
D14*
X138344086Y-84343198D03*
D21*
X124919086Y-86200000D03*
X123369086Y-86200000D03*
D12*
X170804086Y-70050000D03*
X169154086Y-70050000D03*
D21*
X152329086Y-76050000D03*
X150779086Y-76050000D03*
D13*
X116844086Y-71325000D03*
X116844086Y-72975000D03*
D24*
X115544086Y-56437500D03*
X117444086Y-56437500D03*
X116494086Y-54162500D03*
D12*
X108319086Y-74650000D03*
X106669086Y-74650000D03*
D17*
X111324086Y-69200000D03*
X112294086Y-69200000D03*
X113264086Y-69200000D03*
X114234086Y-69200000D03*
X114234086Y-70600000D03*
X113264086Y-70600000D03*
X112294086Y-70600000D03*
X111324086Y-70600000D03*
D12*
X139604086Y-47350000D03*
X137954086Y-47350000D03*
D15*
X144056586Y-83330698D03*
X145706586Y-83330698D03*
D13*
X169184086Y-126990000D03*
X169184086Y-128640000D03*
D15*
X144056586Y-108330698D03*
X145706586Y-108330698D03*
D13*
X148044086Y-46325000D03*
X148044086Y-47975000D03*
D15*
X112856586Y-133330698D03*
X114506586Y-133330698D03*
D21*
X121129086Y-48750000D03*
X119579086Y-48750000D03*
M02*
