M48
; DRILL file {KiCad 7.0.7} date Tue Feb 13 21:43:51 2024
; FORMAT={-:-/ absolute / metric / decimal}
; #@! TF.CreationDate,2024-02-13T21:43:51-05:00
; #@! TF.GenerationSoftware,Kicad,Pcbnew,7.0.7
; #@! TF.FileFunction,Plated,1,2,PTH
FMAT,2
METRIC
; #@! TA.AperFunction,Plated,PTH,ViaDrill
T1C0.300
; #@! TA.AperFunction,Plated,PTH,ComponentDrill
T2C1.000
%
G90
G05
T1
X103.444Y-65.5
X103.444Y-90.5
X103.444Y-115.5
X103.444Y-140.5
X105.944Y-57.4
X105.944Y-82.4
X105.944Y-107.4
X105.944Y-132.4
X107.344Y-61.3
X107.344Y-86.3
X107.344Y-111.3
X107.344Y-136.3
X108.894Y-60.35
X108.894Y-85.35
X108.894Y-110.35
X108.894Y-135.35
X109.644Y-55.9
X109.644Y-80.9
X109.644Y-105.9
X109.644Y-130.9
X110.49Y-51.024
X110.49Y-76.025
X110.49Y-101.024
X110.49Y-126.024
X110.644Y-52.2
X110.644Y-77.2
X110.644Y-102.2
X110.644Y-127.2
X111.344Y-57.125
X111.344Y-82.126
X111.344Y-107.125
X111.344Y-132.125
X112.844Y-57.125
X112.844Y-82.126
X112.844Y-107.125
X112.844Y-132.125
X113.044Y-64.7
X113.044Y-89.7
X113.044Y-114.7
X113.044Y-139.7
X113.244Y-46.5
X113.244Y-71.5
X113.244Y-96.5
X113.244Y-121.5
X113.544Y-62.6
X113.544Y-87.6
X113.544Y-112.6
X113.544Y-137.6
X114.544Y-47.5
X114.544Y-72.5
X114.544Y-97.5
X114.544Y-122.5
X114.593Y-51.125
X114.593Y-76.125
X114.593Y-101.125
X114.593Y-126.125
X115.444Y-44.35
X115.444Y-69.35
X115.444Y-94.35
X115.444Y-119.35
X115.536Y-53.054
X115.536Y-78.054
X115.536Y-103.054
X115.536Y-128.054
X115.611Y-52.167
X115.611Y-77.167
X115.611Y-102.167
X115.611Y-127.167
X115.644Y-53.8
X115.644Y-78.8
X115.644Y-103.8
X115.644Y-128.8
X116.944Y-49.0
X116.944Y-74.0
X116.944Y-99.0
X116.944Y-124.0
X117.444Y-44.125
X117.444Y-69.125
X117.444Y-94.125
X117.444Y-119.125
X119.009Y-57.674
X119.009Y-82.674
X119.009Y-107.674
X119.009Y-132.674
X119.044Y-55.7
X119.044Y-80.7
X119.044Y-105.7
X119.044Y-130.7
X119.069Y-62.525
X119.069Y-87.525
X119.069Y-112.525
X119.069Y-137.525
X120.544Y-64.6
X120.544Y-89.6
X120.544Y-114.6
X120.544Y-139.6
X121.219Y-54.474
X121.219Y-79.474
X121.219Y-104.474
X121.219Y-129.475
X121.744Y-59.8
X121.744Y-84.8
X121.744Y-109.8
X121.744Y-134.8
X125.344Y-45.3
X125.344Y-70.3
X125.344Y-95.3
X125.344Y-120.3
X125.644Y-57.9
X125.644Y-82.9
X125.644Y-107.9
X125.644Y-132.9
X126.194Y-48.512
X126.194Y-73.513
X126.194Y-98.512
X126.194Y-123.512
X127.444Y-44.1
X127.444Y-69.1
X127.444Y-94.1
X127.444Y-119.1
X128.244Y-65.1
X128.244Y-90.1
X128.244Y-115.1
X128.244Y-140.1
X130.944Y-65.4
X130.944Y-90.4
X130.944Y-115.4
X130.944Y-140.4
X134.644Y-65.5
X134.644Y-90.5
X134.644Y-115.5
X134.644Y-140.5
X137.144Y-57.4
X137.144Y-82.4
X137.144Y-107.4
X137.144Y-132.4
X138.544Y-61.3
X138.544Y-86.3
X138.544Y-111.3
X138.544Y-136.3
X140.094Y-60.35
X140.094Y-85.35
X140.094Y-110.35
X140.094Y-135.35
X140.844Y-55.9
X140.844Y-80.9
X140.844Y-105.9
X140.844Y-130.9
X141.69Y-51.024
X141.69Y-76.025
X141.69Y-101.024
X141.69Y-126.024
X141.844Y-52.2
X141.844Y-77.2
X141.844Y-102.2
X141.844Y-127.2
X142.544Y-57.125
X142.544Y-82.126
X142.544Y-107.125
X142.544Y-132.125
X144.044Y-57.125
X144.044Y-82.126
X144.044Y-107.125
X144.044Y-132.125
X144.244Y-64.7
X144.244Y-89.7
X144.244Y-114.7
X144.244Y-139.7
X144.444Y-46.5
X144.444Y-71.5
X144.444Y-96.5
X144.444Y-121.5
X144.744Y-62.6
X144.744Y-87.6
X144.744Y-112.6
X144.744Y-137.6
X145.744Y-47.5
X145.744Y-72.5
X145.744Y-97.5
X145.744Y-122.5
X145.793Y-51.125
X145.793Y-76.125
X145.793Y-101.125
X145.793Y-126.125
X146.644Y-44.35
X146.644Y-69.35
X146.644Y-94.35
X146.644Y-119.35
X146.736Y-53.054
X146.736Y-78.054
X146.736Y-103.054
X146.736Y-128.054
X146.811Y-52.167
X146.811Y-77.167
X146.811Y-102.167
X146.811Y-127.167
X146.844Y-53.8
X146.844Y-78.8
X146.844Y-103.8
X146.844Y-128.8
X148.144Y-49.0
X148.144Y-74.0
X148.144Y-99.0
X148.144Y-124.0
X148.644Y-44.125
X148.644Y-69.125
X148.644Y-94.125
X148.644Y-119.125
X150.209Y-57.674
X150.209Y-82.674
X150.209Y-107.674
X150.209Y-132.674
X150.244Y-55.7
X150.244Y-80.7
X150.244Y-105.7
X150.244Y-130.7
X150.269Y-62.525
X150.269Y-87.525
X150.269Y-112.525
X150.269Y-137.525
X151.744Y-64.6
X151.744Y-89.6
X151.744Y-114.6
X151.744Y-139.6
X152.419Y-54.474
X152.419Y-79.474
X152.419Y-104.474
X152.419Y-129.475
X152.944Y-59.8
X152.944Y-84.8
X152.944Y-109.8
X152.944Y-134.8
X156.544Y-45.3
X156.544Y-70.3
X156.544Y-95.3
X156.544Y-120.3
X156.844Y-57.9
X156.844Y-82.9
X156.844Y-107.9
X156.844Y-132.9
X157.394Y-48.512
X157.394Y-73.513
X157.394Y-98.512
X157.394Y-123.512
X158.644Y-44.1
X158.644Y-69.1
X158.644Y-94.1
X158.644Y-119.1
X159.444Y-65.1
X159.444Y-90.1
X159.444Y-115.1
X159.444Y-140.1
X162.144Y-65.4
X162.144Y-90.4
X162.144Y-115.4
X162.144Y-140.4
X165.844Y-65.5
X165.844Y-90.5
X165.844Y-115.5
X165.844Y-140.5
X168.344Y-57.4
X168.344Y-82.4
X168.344Y-107.4
X168.344Y-132.4
X169.744Y-61.3
X169.744Y-86.3
X169.744Y-111.3
X169.744Y-136.3
X171.294Y-60.35
X171.294Y-85.35
X171.294Y-110.35
X171.294Y-135.35
X172.044Y-55.9
X172.044Y-80.9
X172.044Y-105.9
X172.044Y-130.9
X172.89Y-51.024
X172.89Y-76.025
X172.89Y-101.024
X172.89Y-126.024
X173.044Y-52.2
X173.044Y-77.2
X173.044Y-102.2
X173.044Y-127.2
X173.744Y-57.125
X173.744Y-82.126
X173.744Y-107.125
X173.744Y-132.125
X175.244Y-57.125
X175.244Y-82.126
X175.244Y-107.125
X175.244Y-132.125
X175.444Y-64.7
X175.444Y-89.7
X175.444Y-114.7
X175.444Y-139.7
X175.644Y-46.5
X175.644Y-71.5
X175.644Y-96.5
X175.644Y-121.5
X175.944Y-62.6
X175.944Y-87.6
X175.944Y-112.6
X175.944Y-137.6
X176.944Y-47.5
X176.944Y-72.5
X176.944Y-97.5
X176.944Y-122.5
X176.993Y-51.125
X176.993Y-76.125
X176.993Y-101.125
X176.993Y-126.125
X177.844Y-44.35
X177.844Y-69.35
X177.844Y-94.35
X177.844Y-119.35
X177.936Y-53.054
X177.936Y-78.054
X177.936Y-103.054
X177.936Y-128.054
X178.011Y-52.167
X178.011Y-77.167
X178.011Y-102.167
X178.011Y-127.167
X178.044Y-53.8
X178.044Y-78.8
X178.044Y-103.8
X178.044Y-128.8
X179.344Y-49.0
X179.344Y-74.0
X179.344Y-99.0
X179.344Y-124.0
X179.844Y-44.125
X179.844Y-69.125
X179.844Y-94.125
X179.844Y-119.125
X181.409Y-57.674
X181.409Y-82.674
X181.409Y-107.674
X181.409Y-132.674
X181.444Y-55.7
X181.444Y-80.7
X181.444Y-105.7
X181.444Y-130.7
X181.469Y-62.525
X181.469Y-87.525
X181.469Y-112.525
X181.469Y-137.525
X182.944Y-64.6
X182.944Y-89.6
X182.944Y-114.6
X182.944Y-139.6
X183.619Y-54.474
X183.619Y-79.474
X183.619Y-104.474
X183.619Y-129.475
X184.144Y-59.8
X184.144Y-84.8
X184.144Y-109.8
X184.144Y-134.8
X187.744Y-45.3
X187.744Y-70.3
X187.744Y-95.3
X187.744Y-120.3
X188.044Y-57.9
X188.044Y-82.9
X188.044Y-107.9
X188.044Y-132.9
X188.594Y-48.512
X188.594Y-73.513
X188.594Y-98.512
X188.594Y-123.512
X189.844Y-44.1
X189.844Y-69.1
X189.844Y-94.1
X189.844Y-119.1
X190.644Y-65.1
X190.644Y-90.1
X190.644Y-115.1
X190.644Y-140.1
X193.344Y-65.4
X193.344Y-90.4
X193.344Y-115.4
X193.344Y-140.4
T2
X104.044Y-45.02
X104.044Y-47.56
X104.044Y-50.1
X104.044Y-52.64
X104.044Y-55.18
X104.044Y-57.72
X104.044Y-60.26
X104.044Y-62.8
X104.044Y-70.02
X104.044Y-72.56
X104.044Y-75.1
X104.044Y-77.64
X104.044Y-80.18
X104.044Y-82.72
X104.044Y-85.26
X104.044Y-87.8
X104.044Y-95.02
X104.044Y-97.56
X104.044Y-100.1
X104.044Y-102.64
X104.044Y-105.18
X104.044Y-107.72
X104.044Y-110.26
X104.044Y-112.8
X104.044Y-120.02
X104.044Y-122.56
X104.044Y-125.1
X104.044Y-127.64
X104.044Y-130.18
X104.044Y-132.72
X104.044Y-135.26
X104.044Y-137.8
X129.444Y-45.0
X129.444Y-47.54
X129.444Y-50.08
X129.444Y-52.62
X129.444Y-55.16
X129.444Y-57.7
X129.444Y-60.24
X129.444Y-62.78
X129.444Y-70.0
X129.444Y-72.54
X129.444Y-75.08
X129.444Y-77.62
X129.444Y-80.16
X129.444Y-82.7
X129.444Y-85.24
X129.444Y-87.78
X129.444Y-95.0
X129.444Y-97.54
X129.444Y-100.08
X129.444Y-102.62
X129.444Y-105.16
X129.444Y-107.7
X129.444Y-110.24
X129.444Y-112.78
X129.444Y-120.0
X129.444Y-122.54
X129.444Y-125.08
X129.444Y-127.62
X129.444Y-130.16
X129.444Y-132.7
X129.444Y-135.24
X129.444Y-137.78
X135.244Y-45.02
X135.244Y-47.56
X135.244Y-50.1
X135.244Y-52.64
X135.244Y-55.18
X135.244Y-57.72
X135.244Y-60.26
X135.244Y-62.8
X135.244Y-70.02
X135.244Y-72.56
X135.244Y-75.1
X135.244Y-77.64
X135.244Y-80.18
X135.244Y-82.72
X135.244Y-85.26
X135.244Y-87.8
X135.244Y-95.02
X135.244Y-97.56
X135.244Y-100.1
X135.244Y-102.64
X135.244Y-105.18
X135.244Y-107.72
X135.244Y-110.26
X135.244Y-112.8
X135.244Y-120.02
X135.244Y-122.56
X135.244Y-125.1
X135.244Y-127.64
X135.244Y-130.18
X135.244Y-132.72
X135.244Y-135.26
X135.244Y-137.8
X160.644Y-45.0
X160.644Y-47.54
X160.644Y-50.08
X160.644Y-52.62
X160.644Y-55.16
X160.644Y-57.7
X160.644Y-60.24
X160.644Y-62.78
X160.644Y-70.0
X160.644Y-72.54
X160.644Y-75.08
X160.644Y-77.62
X160.644Y-80.16
X160.644Y-82.7
X160.644Y-85.24
X160.644Y-87.78
X160.644Y-95.0
X160.644Y-97.54
X160.644Y-100.08
X160.644Y-102.62
X160.644Y-105.16
X160.644Y-107.7
X160.644Y-110.24
X160.644Y-112.78
X160.644Y-120.0
X160.644Y-122.54
X160.644Y-125.08
X160.644Y-127.62
X160.644Y-130.16
X160.644Y-132.7
X160.644Y-135.24
X160.644Y-137.78
X166.444Y-45.02
X166.444Y-47.56
X166.444Y-50.1
X166.444Y-52.64
X166.444Y-55.18
X166.444Y-57.72
X166.444Y-60.26
X166.444Y-62.8
X166.444Y-70.02
X166.444Y-72.56
X166.444Y-75.1
X166.444Y-77.64
X166.444Y-80.18
X166.444Y-82.72
X166.444Y-85.26
X166.444Y-87.8
X166.444Y-95.02
X166.444Y-97.56
X166.444Y-100.1
X166.444Y-102.64
X166.444Y-105.18
X166.444Y-107.72
X166.444Y-110.26
X166.444Y-112.8
X166.444Y-120.02
X166.444Y-122.56
X166.444Y-125.1
X166.444Y-127.64
X166.444Y-130.18
X166.444Y-132.72
X166.444Y-135.26
X166.444Y-137.8
X191.844Y-45.0
X191.844Y-47.54
X191.844Y-50.08
X191.844Y-52.62
X191.844Y-55.16
X191.844Y-57.7
X191.844Y-60.24
X191.844Y-62.78
X191.844Y-70.0
X191.844Y-72.54
X191.844Y-75.08
X191.844Y-77.62
X191.844Y-80.16
X191.844Y-82.7
X191.844Y-85.24
X191.844Y-87.78
X191.844Y-95.0
X191.844Y-97.54
X191.844Y-100.08
X191.844Y-102.62
X191.844Y-105.16
X191.844Y-107.7
X191.844Y-110.24
X191.844Y-112.78
X191.844Y-120.0
X191.844Y-122.54
X191.844Y-125.08
X191.844Y-127.62
X191.844Y-130.16
X191.844Y-132.7
X191.844Y-135.24
X191.844Y-137.78
T0
M30
