%TF.GenerationSoftware,KiCad,Pcbnew,(6.0.5)*%
%TF.CreationDate,2022-06-27T00:12:11-04:00*%
%TF.ProjectId,sensor_node,73656e73-6f72-45f6-9e6f-64652e6b6963,rev?*%
%TF.SameCoordinates,Original*%
%TF.FileFunction,Copper,L2,Bot*%
%TF.FilePolarity,Positive*%
%FSLAX46Y46*%
G04 Gerber Fmt 4.6, Leading zero omitted, Abs format (unit mm)*
G04 Created by KiCad (PCBNEW (6.0.5)) date 2022-06-27 00:12:11*
%MOMM*%
%LPD*%
G01*
G04 APERTURE LIST*
%TA.AperFunction,ComponentPad*%
%ADD10C,1.600000*%
%TD*%
%TA.AperFunction,ComponentPad*%
%ADD11R,1.600000X1.600000*%
%TD*%
%TA.AperFunction,ComponentPad*%
%ADD12O,1.600000X1.600000*%
%TD*%
%TA.AperFunction,ComponentPad*%
%ADD13C,1.524000*%
%TD*%
%TA.AperFunction,ComponentPad*%
%ADD14R,1.700000X1.700000*%
%TD*%
%TA.AperFunction,ComponentPad*%
%ADD15O,1.700000X1.700000*%
%TD*%
%TA.AperFunction,ComponentPad*%
%ADD16R,2.000000X2.000000*%
%TD*%
%TA.AperFunction,ComponentPad*%
%ADD17C,2.000000*%
%TD*%
%TA.AperFunction,ViaPad*%
%ADD18C,0.800000*%
%TD*%
%TA.AperFunction,Conductor*%
%ADD19C,0.150000*%
%TD*%
G04 APERTURE END LIST*
D10*
%TO.P,SW2,1,1*%
%TO.N,/BTN2*%
X142460000Y-88600000D03*
%TO.P,SW2,2,2*%
%TO.N,GND*%
X147540000Y-88600000D03*
%TO.P,SW2,3*%
%TO.N,N/C*%
X142460000Y-76000000D03*
%TO.P,SW2,4*%
X147540000Y-76000000D03*
%TD*%
D11*
%TO.P,SW3,1*%
%TO.N,/#SCK*%
X141266500Y-61986000D03*
D12*
%TO.P,SW3,2*%
%TO.N,/#SDA*%
X141266500Y-64526000D03*
%TO.P,SW3,3*%
%TO.N,/#A0*%
X141266500Y-67066000D03*
%TO.P,SW3,4*%
%TO.N,/#RST*%
X141266500Y-69606000D03*
%TO.P,SW3,5*%
%TO.N,GND*%
X148886500Y-69606000D03*
%TO.P,SW3,6*%
X148886500Y-67066000D03*
%TO.P,SW3,7*%
X148886500Y-64526000D03*
%TO.P,SW3,8*%
X148886500Y-61986000D03*
%TD*%
D13*
%TO.P,U6,1,GND*%
%TO.N,unconnected-(U6-Pad1)*%
X138538000Y-123572000D03*
%TO.P,U6,2,MISO*%
%TO.N,/MISO*%
X138538000Y-125572000D03*
%TO.P,U6,3,MOSI*%
%TO.N,/MOSI*%
X138538000Y-127572000D03*
%TO.P,U6,4,SCK*%
%TO.N,/SCK*%
X138538000Y-129572000D03*
%TO.P,U6,5,CS*%
%TO.N,/CS*%
X138538000Y-131572000D03*
%TO.P,U6,6,RST*%
%TO.N,unconnected-(U6-Pad6)*%
X138538000Y-133572000D03*
%TO.P,U6,7,DIO5*%
%TO.N,unconnected-(U6-Pad7)*%
X138538000Y-135572000D03*
%TO.P,U6,8,GND*%
%TO.N,GND*%
X138538000Y-137572000D03*
%TO.P,U6,9,DIO2*%
%TO.N,unconnected-(U6-Pad9)*%
X152138000Y-123572000D03*
%TO.P,U6,10,DIO1*%
%TO.N,unconnected-(U6-Pad10)*%
X152138000Y-125572000D03*
%TO.P,U6,11,DIO0*%
%TO.N,/DI0*%
X152138000Y-127572000D03*
%TO.P,U6,12,3.3V*%
%TO.N,+3V3*%
X152138000Y-129572000D03*
%TO.P,U6,13,DIO4*%
%TO.N,unconnected-(U6-Pad13)*%
X152138000Y-131572000D03*
%TO.P,U6,14,DIO3*%
%TO.N,unconnected-(U6-Pad14)*%
X152138000Y-133572000D03*
%TO.P,U6,15,GND*%
%TO.N,unconnected-(U6-Pad15)*%
X152138000Y-135572000D03*
%TO.P,U6,16,ANT*%
%TO.N,Net-(J1-Pad1)*%
X152138000Y-137572000D03*
%TD*%
D14*
%TO.P,U3,1,_EN2*%
%TO.N,/EN2*%
X136652000Y-60960000D03*
D15*
%TO.P,U3,2,IO_1*%
%TO.N,/IO_1*%
X134112000Y-60960000D03*
%TO.P,U3,3,EN2*%
%TO.N,/EN2*%
X136652000Y-63500000D03*
%TO.P,U3,4,RST2*%
%TO.N,/RST2*%
X134112000Y-63500000D03*
%TO.P,U3,5,3.3V*%
%TO.N,+3V3*%
X136652000Y-66040000D03*
%TO.P,U3,6,_RST2*%
%TO.N,/RST2*%
X134112000Y-66040000D03*
%TO.P,U3,7,33*%
%TO.N,/SCL1*%
X136652000Y-68580000D03*
%TO.P,U3,8,25*%
%TO.N,/SCL*%
X134112000Y-68580000D03*
%TO.P,U3,9,26*%
%TO.N,/SDA*%
X136652000Y-71120000D03*
%TO.P,U3,10,27*%
%TO.N,/X_1*%
X134112000Y-71120000D03*
%TO.P,U3,11,14*%
%TO.N,unconnected-(U3-Pad11)*%
X136652000Y-73660000D03*
%TO.P,U3,12,12*%
%TO.N,/WS28*%
X134112000Y-73660000D03*
%TO.P,U3,13,GND*%
%TO.N,GND*%
X136652000Y-76200000D03*
%TO.P,U3,14,GND*%
X134112000Y-76200000D03*
%TO.P,U3,15,GND*%
X136652000Y-78740000D03*
%TO.P,U3,16,_IO_2*%
%TO.N,/IO_2*%
X134112000Y-78740000D03*
%TO.P,U3,17,GND*%
%TO.N,GND*%
X136652000Y-81280000D03*
%TO.P,U3,18,IO_2*%
%TO.N,/IO_2*%
X134112000Y-81280000D03*
%TO.P,U3,19,IO_0*%
%TO.N,/IO_0*%
X136652000Y-83820000D03*
%TO.P,U3,20,IO_3*%
%TO.N,/IO_3*%
X134112000Y-83820000D03*
%TO.P,U3,21,_IO_3*%
X136652000Y-86360000D03*
%TO.P,U3,22,VP_36*%
%TO.N,/PIR0*%
X134112000Y-86360000D03*
%TO.P,U3,23,VN_39*%
%TO.N,/PIR1*%
X136652000Y-88900000D03*
%TO.P,U3,24,EN*%
%TO.N,/EN*%
X134112000Y-88900000D03*
%TO.P,U3,25,34*%
%TO.N,/PIR2*%
X136652000Y-91440000D03*
%TO.P,U3,26,35*%
%TO.N,/PIR3*%
X134112000Y-91440000D03*
%TO.P,U3,27,32*%
%TO.N,/SDA1*%
X136652000Y-93980000D03*
%TO.P,U3,28,3.3V*%
%TO.N,+3V3*%
X134112000Y-93980000D03*
%TO.P,U3,29,3.3V*%
X136652000Y-96520000D03*
%TO.P,U3,30,3.3V*%
X134112000Y-96520000D03*
%TD*%
D14*
%TO.P,U1,1,GND*%
%TO.N,GND*%
X130556000Y-60960000D03*
D15*
%TO.P,U1,2,VN_39*%
%TO.N,/PIR1*%
X130556000Y-63500000D03*
%TO.P,U1,3,3.3V*%
%TO.N,+3V3*%
X130556000Y-66040000D03*
%TO.P,U1,4,#SCK*%
%TO.N,/#SCK*%
X130556000Y-68580000D03*
%TO.P,U1,5,#SDA*%
%TO.N,/#SDA*%
X130556000Y-71120000D03*
%TO.P,U1,6,#A0*%
%TO.N,/#A0*%
X130556000Y-73660000D03*
%TO.P,U1,7,#RST*%
%TO.N,/#RST*%
X130556000Y-76200000D03*
%TO.P,U1,8,#CS*%
%TO.N,/#CS*%
X130556000Y-78740000D03*
%TO.P,U1,9,GND*%
%TO.N,GND*%
X130556000Y-81280000D03*
%TO.P,U1,10,3.3V*%
%TO.N,+3V3*%
X130556000Y-83820000D03*
%TO.P,U1,11,_SCL*%
%TO.N,/SDA*%
X130556000Y-86360000D03*
%TO.P,U1,12,_SDA*%
%TO.N,/SCL*%
X130556000Y-88900000D03*
%TO.P,U1,13,_GND*%
%TO.N,GND*%
X130556000Y-91440000D03*
%TO.P,U1,14,3.3V*%
%TO.N,+3V3*%
X130556000Y-93980000D03*
%TO.P,U1,15,GND*%
%TO.N,GND*%
X130556000Y-96520000D03*
%TO.P,U1,16,SCL*%
%TO.N,/SDA*%
X130556000Y-99060000D03*
%TO.P,U1,17,SDA*%
%TO.N,/SCL*%
X130556000Y-101600000D03*
%TO.P,U1,18,ADDR*%
%TO.N,unconnected-(U1-Pad18)*%
X130556000Y-104140000D03*
%TO.P,U1,19,VP_36*%
%TO.N,/PIR0*%
X130556000Y-106680000D03*
%TO.P,U1,20,SDA*%
%TO.N,/SDA*%
X130556000Y-109220000D03*
%TO.P,U1,21,SCL*%
%TO.N,/SCL*%
X130556000Y-111760000D03*
%TO.P,U1,22,GND*%
%TO.N,GND*%
X130556000Y-114300000D03*
%TO.P,U1,23,3.3V*%
%TO.N,+3V3*%
X130556000Y-116840000D03*
%TO.P,U1,24,_3.3V*%
X130556000Y-119380000D03*
%TO.P,U1,25,_3.3V*%
X130556000Y-121920000D03*
%TO.P,U1,26,_GND*%
%TO.N,GND*%
X130556000Y-124460000D03*
%TO.P,U1,27,SCL*%
%TO.N,/SCL*%
X130556000Y-127000000D03*
%TO.P,U1,28,SDA*%
%TO.N,/SDA*%
X130556000Y-129540000D03*
%TO.P,U1,29,3.3V*%
%TO.N,+3V3*%
X130556000Y-132080000D03*
%TO.P,U1,30,GND*%
%TO.N,GND*%
X130556000Y-134620000D03*
%TO.P,U1,31,GND*%
X130556000Y-137160000D03*
%TO.P,U1,32,35*%
%TO.N,/PIR3*%
X130556000Y-139700000D03*
%TO.P,U1,33,5V*%
%TO.N,unconnected-(U1-Pad33)*%
X130556000Y-142240000D03*
%TO.P,U1,34,5V*%
%TO.N,unconnected-(U1-Pad34)*%
X130556000Y-144780000D03*
%TO.P,U1,35,5V*%
%TO.N,unconnected-(U1-Pad35)*%
X130556000Y-147320000D03*
%TD*%
D10*
%TO.P,U2,1,VP_36*%
%TO.N,/PIR0*%
X133784000Y-106680000D03*
%TO.P,U2,2,VN_39*%
%TO.N,/PIR1*%
X133784000Y-109220000D03*
%TO.P,U2,3,EN*%
%TO.N,/EN*%
X133784000Y-111760000D03*
%TO.P,U2,4,34*%
%TO.N,/PIR2*%
X133784000Y-114300000D03*
%TO.P,U2,5,35*%
%TO.N,/PIR3*%
X133781759Y-116784827D03*
%TO.P,U2,6,32*%
%TO.N,/SDA1*%
X133784000Y-119380000D03*
%TO.P,U2,7,33*%
%TO.N,/SCL1*%
X133784000Y-121920000D03*
%TO.P,U2,8,25*%
%TO.N,/SCL*%
X133784000Y-124460000D03*
%TO.P,U2,9,26*%
%TO.N,/SDA*%
X133784000Y-127000000D03*
%TO.P,U2,10,27*%
%TO.N,/X_1*%
X133784000Y-129540000D03*
%TO.P,U2,11,14*%
%TO.N,/#CS*%
X133784000Y-132080000D03*
%TO.P,U2,12,12*%
%TO.N,/WS28*%
X133724345Y-134353448D03*
%TO.P,U2,13,GND*%
%TO.N,GND*%
X133784000Y-137160000D03*
%TO.P,U2,14,3.3V*%
%TO.N,+3V3*%
X156384000Y-106680000D03*
%TO.P,U2,15,22*%
%TO.N,/LED*%
X156384000Y-109220000D03*
%TO.P,U2,16,19*%
%TO.N,/BUZ1*%
X156384000Y-111760000D03*
%TO.P,U2,17,23*%
%TO.N,/BTN2*%
X156384000Y-114300000D03*
%TO.P,U2,18,18*%
%TO.N,/MISO*%
X156381759Y-116784827D03*
%TO.P,U2,19,5*%
%TO.N,/MOSI*%
X156384000Y-119380000D03*
%TO.P,U2,20,7*%
%TO.N,/SCK*%
X156384000Y-121920000D03*
%TO.P,U2,21,16*%
%TO.N,/CS*%
X156384000Y-124460000D03*
%TO.P,U2,22,4*%
%TO.N,/DIO*%
X156384000Y-127000000D03*
%TO.P,U2,23,0*%
%TO.N,/#SCK*%
X156384000Y-129540000D03*
%TO.P,U2,24,2*%
%TO.N,/#SDA*%
X156384000Y-132080000D03*
%TO.P,U2,25,15*%
%TO.N,/#A0*%
X156324345Y-134353448D03*
%TO.P,U2,26,13*%
%TO.N,/#RST*%
X156384000Y-137160000D03*
%TD*%
D14*
%TO.P,J1,1,Pin_1*%
%TO.N,Net-(J1-Pad1)*%
X138176000Y-142748000D03*
%TD*%
%TO.P,U4,1,_SCL*%
%TO.N,/SCL1*%
X155956000Y-60960000D03*
D15*
%TO.P,U4,2,_SDA*%
%TO.N,/SDA1*%
X153416000Y-60960000D03*
%TO.P,U4,3,3.3V*%
%TO.N,+3V3*%
X155956000Y-63500000D03*
%TO.P,U4,4,GND*%
%TO.N,GND*%
X153416000Y-63500000D03*
%TO.P,U4,5,23*%
%TO.N,/DIO*%
X155956000Y-66040000D03*
%TO.P,U4,6,X*%
%TO.N,unconnected-(U4-Pad6)*%
X153416000Y-66040000D03*
%TO.P,U4,7,22*%
%TO.N,/LED*%
X155956000Y-68580000D03*
%TO.P,U4,8,19*%
%TO.N,/BUZ1*%
X153416000Y-68580000D03*
%TO.P,U4,9,23*%
%TO.N,/BTN2*%
X155956000Y-71120000D03*
%TO.P,U4,10,18*%
%TO.N,/MISO*%
X153416000Y-71120000D03*
%TO.P,U4,11,5*%
%TO.N,/MOSI*%
X155956000Y-73660000D03*
%TO.P,U4,12,17*%
%TO.N,/X_1*%
X153416000Y-73660000D03*
%TO.P,U4,13,3.3V*%
%TO.N,+3V3*%
X155956000Y-76200000D03*
%TO.P,U4,14,3.3V*%
X153416000Y-76200000D03*
%TO.P,U4,15,3.3V*%
X155956000Y-78740000D03*
%TO.P,U4,16,_VCC*%
X153416000Y-78740000D03*
%TO.P,U4,17,_GND*%
%TO.N,GND*%
X155956000Y-81280000D03*
%TO.P,U4,18,SDA*%
%TO.N,/SDA1*%
X153416000Y-81280000D03*
%TO.P,U4,19,SCL*%
%TO.N,/SCL1*%
X155956000Y-83820000D03*
%TO.P,U4,20,GND*%
%TO.N,GND*%
X153416000Y-83820000D03*
%TO.P,U4,21,3.3V*%
%TO.N,+3V3*%
X155956000Y-86360000D03*
%TO.P,U4,22,16*%
%TO.N,/SCK*%
X153416000Y-86360000D03*
%TO.P,U4,23,4*%
%TO.N,/DIO*%
X155956000Y-88900000D03*
%TO.P,U4,24,0*%
%TO.N,/#SCK*%
X153416000Y-88900000D03*
%TO.P,U4,25,2*%
%TO.N,/#SDA*%
X155956000Y-91440000D03*
%TO.P,U4,26,15*%
%TO.N,/#A0*%
X153416000Y-91440000D03*
%TO.P,U4,27,13*%
%TO.N,/#RST*%
X155956000Y-93980000D03*
%TO.P,U4,28,GND*%
%TO.N,GND*%
X153416000Y-93980000D03*
%TO.P,U4,29,GND*%
X155956000Y-96520000D03*
%TO.P,U4,30,GND*%
X153416000Y-96520000D03*
%TD*%
D16*
%TO.P,BZ1,1,-*%
%TO.N,/BUZ1*%
X141234000Y-97400000D03*
D17*
%TO.P,BZ1,2,+*%
%TO.N,GND*%
X148834000Y-97400000D03*
%TD*%
D14*
%TO.P,U5,1,_X*%
%TO.N,unconnected-(U5-Pad1)*%
X159512000Y-60960000D03*
D15*
%TO.P,U5,2,SDA1*%
%TO.N,/SDA1*%
X159512000Y-63500000D03*
%TO.P,U5,3,SCL1*%
%TO.N,/SCL1*%
X159512000Y-66040000D03*
%TO.P,U5,4,GND*%
%TO.N,GND*%
X159512000Y-68580000D03*
%TO.P,U5,5,3.3V*%
%TO.N,+3V3*%
X159512000Y-71120000D03*
%TO.P,U5,6,SDA1*%
%TO.N,/SDA1*%
X159512000Y-73660000D03*
%TO.P,U5,7,SCL1*%
%TO.N,/SCL1*%
X159512000Y-76200000D03*
%TO.P,U5,8,3.3V*%
%TO.N,+3V3*%
X159512000Y-78740000D03*
%TO.P,U5,9,GND*%
%TO.N,GND*%
X159512000Y-81280000D03*
%TO.P,U5,10,_SCL1*%
%TO.N,/SCL1*%
X159512000Y-83820000D03*
%TO.P,U5,11,_SDA1*%
%TO.N,/SDA1*%
X159512000Y-86360000D03*
%TO.P,U5,12,_GND*%
%TO.N,/SCL1*%
X159512000Y-88900000D03*
%TO.P,U5,13,_3.3V*%
%TO.N,GND*%
X159512000Y-91440000D03*
%TO.P,U5,14,ADDR*%
%TO.N,+3V3*%
X159512000Y-93980000D03*
%TO.P,U5,15,SDA1*%
%TO.N,/SDA1*%
X159512000Y-96520000D03*
%TO.P,U5,16,SCL1*%
%TO.N,/SCL1*%
X159512000Y-99060000D03*
%TO.P,U5,17,GND*%
%TO.N,GND*%
X159512000Y-101600000D03*
%TO.P,U5,18,3.3V*%
%TO.N,+3V3*%
X159512000Y-104140000D03*
%TO.P,U5,19,_3.3V*%
X159512000Y-106680000D03*
%TO.P,U5,20,3.3V*%
X159512000Y-109220000D03*
%TO.P,U5,21,GND*%
%TO.N,GND*%
X159512000Y-111760000D03*
%TO.P,U5,22,SCL1*%
%TO.N,/SDA1*%
X159512000Y-114300000D03*
%TO.P,U5,23,SDA1*%
%TO.N,/SCL1*%
X159512000Y-116840000D03*
%TO.P,U5,24,MISO*%
%TO.N,/MISO*%
X159512000Y-119380000D03*
%TO.P,U5,25,MOSI*%
%TO.N,/MOSI*%
X159512000Y-121920000D03*
%TO.P,U5,26,CS*%
%TO.N,/SCK*%
X159512000Y-124460000D03*
%TO.P,U5,27,RST*%
%TO.N,/CS*%
X159512000Y-127000000D03*
%TO.P,U5,28,DIO*%
%TO.N,/DIO*%
X159512000Y-129540000D03*
%TO.P,U5,29,GND*%
%TO.N,GND*%
X159512000Y-132080000D03*
%TO.P,U5,30,GND*%
X159512000Y-134620000D03*
%TO.P,U5,31,3.3V*%
%TO.N,+3V3*%
X159512000Y-137160000D03*
%TO.P,U5,32,SDA1*%
%TO.N,/SCL1*%
X159512000Y-139700000D03*
%TO.P,U5,33,SCL1*%
%TO.N,/SDA1*%
X159512000Y-142240000D03*
%TO.P,U5,34,_3.3V*%
%TO.N,+3V3*%
X159512000Y-144780000D03*
%TO.P,U5,35,_GND*%
%TO.N,GND*%
X159512000Y-147320000D03*
%TD*%
D18*
%TO.N,/BTN2*%
X143500000Y-79100000D03*
X147200000Y-78700000D03*
%TO.N,GND*%
X129500000Y-67056000D03*
%TO.N,/PIR0*%
X132900000Y-102600000D03*
%TO.N,/X_1*%
X148336000Y-73660000D03*
%TO.N,/LED*%
X147320000Y-90600000D03*
%TO.N,/MISO*%
X148336000Y-120396000D03*
%TO.N,/MOSI*%
X150876000Y-119888000D03*
%TO.N,/#RST*%
X153807500Y-128016000D03*
%TO.N,/#A0*%
X154432000Y-126492000D03*
%TO.N,/#SDA*%
X154569500Y-125209989D03*
%TO.N,/#CS*%
X138900000Y-114700000D03*
%TO.N,/SCK*%
X151892000Y-121920000D03*
%TD*%
D19*
%TO.N,/BTN2*%
X147200000Y-78700000D02*
X143900000Y-78700000D01*
X143900000Y-78700000D02*
X143500000Y-79100000D01*
%TO.N,/LED*%
X154856489Y-69679511D02*
X155956000Y-68580000D01*
X153078489Y-69679511D02*
X154856489Y-69679511D01*
X146515489Y-89795489D02*
X146515489Y-87975633D01*
X146515489Y-87975633D02*
X150209520Y-84281602D01*
X147320000Y-90600000D02*
X146515489Y-89795489D01*
X150209520Y-84281602D02*
X150209520Y-72548480D01*
X150209520Y-72548480D02*
X153078489Y-69679511D01*
%TO.N,/BUZ1*%
X141234000Y-92446000D02*
X141234000Y-97400000D01*
X149860000Y-72136000D02*
X149860000Y-83820000D01*
X149860000Y-83820000D02*
X141234000Y-92446000D01*
X153416000Y-68580000D02*
X149860000Y-72136000D01*
%TO.N,GND*%
X133784000Y-137160000D02*
X138126000Y-137160000D01*
X130556000Y-96520000D02*
X129456489Y-95420489D01*
X138126000Y-137160000D02*
X138538000Y-137572000D01*
X129456489Y-67012489D02*
X129500000Y-67056000D01*
X139551489Y-136558511D02*
X152573605Y-136558511D01*
X152573605Y-136558511D02*
X152996627Y-136135489D01*
X130556000Y-124460000D02*
X129481489Y-123385489D01*
X129456489Y-95420489D02*
X129456489Y-92539511D01*
X129481489Y-115374511D02*
X130556000Y-114300000D01*
X129456489Y-92539511D02*
X130556000Y-91440000D01*
X152996627Y-136135489D02*
X157996511Y-136135489D01*
X157996511Y-136135489D02*
X159512000Y-134620000D01*
X129481489Y-123385489D02*
X129481489Y-115374511D01*
X138538000Y-137572000D02*
X139551489Y-136558511D01*
X129456489Y-62059511D02*
X129456489Y-67012489D01*
X153416000Y-83820000D02*
X155956000Y-81280000D01*
X130556000Y-60960000D02*
X129456489Y-62059511D01*
%TO.N,+3V3*%
X135552489Y-67139511D02*
X136652000Y-66040000D01*
X131655511Y-67139511D02*
X135552489Y-67139511D01*
X154856489Y-64599511D02*
X155956000Y-63500000D01*
X130556000Y-66040000D02*
X131655511Y-67139511D01*
X158437489Y-95054511D02*
X159512000Y-93980000D01*
X152146000Y-80010000D02*
X153416000Y-78740000D01*
X151200489Y-64599511D02*
X154856489Y-64599511D01*
X152146000Y-84104944D02*
X152146000Y-80010000D01*
X136652000Y-66040000D02*
X136675511Y-66016489D01*
X154515511Y-84919511D02*
X152960567Y-84919511D01*
X155956000Y-86360000D02*
X154515511Y-84919511D01*
X152960567Y-84919511D02*
X152146000Y-84104944D01*
X136675511Y-66016489D02*
X149783511Y-66016489D01*
X158437489Y-103065489D02*
X158437489Y-95054511D01*
X149783511Y-66016489D02*
X151200489Y-64599511D01*
X159512000Y-104140000D02*
X158437489Y-103065489D01*
%TO.N,/SDA*%
X131826000Y-71851056D02*
X131826000Y-85090000D01*
X133784000Y-127000000D02*
X131655511Y-124871511D01*
X131826000Y-85090000D02*
X130556000Y-86360000D01*
X136652000Y-71120000D02*
X135552489Y-70020489D01*
X135552489Y-70020489D02*
X133656567Y-70020489D01*
X131655511Y-110319511D02*
X130556000Y-109220000D01*
X131900000Y-87700000D02*
X131955031Y-87755031D01*
X131655511Y-124871511D02*
X131655511Y-110319511D01*
X130556000Y-86360000D02*
X131896000Y-87700000D01*
X131955031Y-97660969D02*
X130556000Y-99060000D01*
X133656567Y-70020489D02*
X131826000Y-71851056D01*
X131896000Y-87700000D02*
X131900000Y-87700000D01*
X131955031Y-87755031D02*
X131955031Y-97660969D01*
%TO.N,/SCL*%
X131000000Y-97700000D02*
X131655511Y-97044489D01*
X129456489Y-70664567D02*
X130100567Y-70020489D01*
X131655511Y-89999511D02*
X130556000Y-88900000D01*
X129481489Y-110685489D02*
X129481489Y-102674511D01*
X130361056Y-97700000D02*
X131000000Y-97700000D01*
X129481489Y-102674511D02*
X130556000Y-101600000D01*
X129456489Y-74115433D02*
X129540000Y-74198944D01*
X129456489Y-100500489D02*
X129456489Y-98604567D01*
X130100567Y-70020489D02*
X132671511Y-70020489D01*
X129456489Y-74282455D02*
X129456489Y-87800489D01*
X131655511Y-97044489D02*
X131655511Y-89999511D01*
X132671511Y-70020489D02*
X134112000Y-68580000D01*
X129456489Y-87800489D02*
X130556000Y-88900000D01*
X130556000Y-111760000D02*
X129481489Y-110685489D01*
X130556000Y-101600000D02*
X129456489Y-100500489D01*
X129456489Y-98604567D02*
X130361056Y-97700000D01*
X129540000Y-74198944D02*
X129456489Y-74282455D01*
X129456489Y-70664567D02*
X129456489Y-74115433D01*
%TO.N,/PIR0*%
X132900000Y-102600000D02*
X132737969Y-102437969D01*
X132737969Y-87734031D02*
X134112000Y-86360000D01*
X132737969Y-102437969D02*
X132737969Y-87734031D01*
%TO.N,/PIR3*%
X132759489Y-106255633D02*
X133900000Y-105115122D01*
X133037489Y-96965078D02*
X133037489Y-92514511D01*
X133900000Y-97827589D02*
X133037489Y-96965078D01*
X133037489Y-92514511D02*
X134112000Y-91440000D01*
X133781759Y-116784827D02*
X132759489Y-115762557D01*
X132759489Y-115762557D02*
X132759489Y-106255633D01*
X133900000Y-105115122D02*
X133900000Y-97827589D01*
%TO.N,/EN*%
X135211511Y-89999511D02*
X134112000Y-88900000D01*
X133784000Y-111760000D02*
X135211511Y-110332489D01*
X135211511Y-110332489D02*
X135211511Y-89999511D01*
%TO.N,/PIR2*%
X133784000Y-114300000D02*
X135511031Y-112572969D01*
X135511031Y-92580969D02*
X136652000Y-91440000D01*
X135511031Y-112572969D02*
X135511031Y-92580969D01*
%TO.N,/SDA1*%
X161036000Y-115824000D02*
X159512000Y-114300000D01*
X160961031Y-84910969D02*
X160961031Y-75109031D01*
X161036000Y-98044000D02*
X159512000Y-96520000D01*
X159512000Y-142240000D02*
X161036000Y-140716000D01*
X161036000Y-112776000D02*
X161036000Y-98044000D01*
X159512000Y-114300000D02*
X161036000Y-112776000D01*
X160611511Y-87459511D02*
X159512000Y-86360000D01*
X159512000Y-86360000D02*
X160961031Y-84910969D01*
X160611511Y-95420489D02*
X160611511Y-87459511D01*
X159512000Y-96520000D02*
X160611511Y-95420489D01*
X161036000Y-65024000D02*
X161036000Y-72136000D01*
X161036000Y-72136000D02*
X159512000Y-73660000D01*
X161036000Y-140716000D02*
X161036000Y-115824000D01*
X160961031Y-75109031D02*
X159512000Y-73660000D01*
X159512000Y-63500000D02*
X161036000Y-65024000D01*
%TO.N,/SCL1*%
X151100000Y-65861545D02*
X152061545Y-64900000D01*
X160611511Y-117939511D02*
X159512000Y-116840000D01*
X159967433Y-72219511D02*
X160611511Y-71575433D01*
X158412489Y-87800489D02*
X159512000Y-88900000D01*
X160611511Y-112215433D02*
X159967433Y-112859511D01*
X149960000Y-68556489D02*
X151100000Y-67416489D01*
X159512000Y-76200000D02*
X158412489Y-75100489D01*
X160611511Y-100159511D02*
X160611511Y-112215433D01*
X158437489Y-115765489D02*
X159512000Y-116840000D01*
X151100000Y-67416489D02*
X151100000Y-65861545D01*
X160611511Y-71575433D02*
X160611511Y-67139511D01*
X160611511Y-67139511D02*
X159512000Y-66040000D01*
X158437489Y-113596511D02*
X158437489Y-115765489D01*
X159512000Y-83820000D02*
X158412489Y-84919511D01*
X159967433Y-112859511D02*
X159174489Y-112859511D01*
X159512000Y-99060000D02*
X160611511Y-100159511D01*
X159512000Y-139700000D02*
X160611511Y-138600489D01*
X159056567Y-72219511D02*
X159967433Y-72219511D01*
X136675511Y-68556489D02*
X149960000Y-68556489D01*
X160611511Y-82720489D02*
X160611511Y-77299511D01*
X158412489Y-72863589D02*
X159056567Y-72219511D01*
X158412489Y-75100489D02*
X158412489Y-72863589D01*
X152061545Y-64900000D02*
X158372000Y-64900000D01*
X158412489Y-84919511D02*
X158412489Y-87800489D01*
X159174489Y-112859511D02*
X158437489Y-113596511D01*
X159512000Y-83820000D02*
X160611511Y-82720489D01*
X160611511Y-77299511D02*
X159512000Y-76200000D01*
X160611511Y-138600489D02*
X160611511Y-117939511D01*
X136652000Y-68580000D02*
X136675511Y-68556489D01*
X158372000Y-64900000D02*
X159512000Y-66040000D01*
%TO.N,/X_1*%
X148336000Y-73660000D02*
X146895511Y-72219511D01*
X132254551Y-72977449D02*
X134112000Y-71120000D01*
X135211511Y-72219511D02*
X134112000Y-71120000D01*
X135128000Y-128196000D02*
X135128000Y-126859766D01*
X133384633Y-125509511D02*
X132000000Y-124124878D01*
X132000000Y-124124878D02*
X132000000Y-98039586D01*
X146895511Y-72219511D02*
X135211511Y-72219511D01*
X132000000Y-98039586D02*
X132254551Y-97785035D01*
X133777745Y-125509511D02*
X133384633Y-125509511D01*
X132254551Y-97785035D02*
X132254551Y-72977449D01*
X135128000Y-126859766D02*
X133777745Y-125509511D01*
X133784000Y-129540000D02*
X135128000Y-128196000D01*
%TO.N,/WS28*%
X139984489Y-117784489D02*
X140100000Y-117900000D01*
X140100000Y-117900000D02*
X137324520Y-120675480D01*
X139700000Y-76200000D02*
X138259511Y-74759511D01*
X138259511Y-74759511D02*
X135211511Y-74759511D01*
X139700000Y-76200000D02*
X139984489Y-76484489D01*
X137324520Y-120675480D02*
X137324520Y-130753273D01*
X137324520Y-130753273D02*
X133724345Y-134353448D01*
X135211511Y-74759511D02*
X134112000Y-73660000D01*
X139984489Y-76484489D02*
X139984489Y-117784489D01*
%TO.N,/MISO*%
X150559040Y-112076960D02*
X150559040Y-73976960D01*
X148336000Y-114300000D02*
X150559040Y-112076960D01*
X150559040Y-73976960D02*
X153416000Y-71120000D01*
X148336000Y-120396000D02*
X148336000Y-114300000D01*
%TO.N,/MOSI*%
X154515511Y-75100489D02*
X155956000Y-73660000D01*
X152737511Y-75100489D02*
X154515511Y-75100489D01*
X150921520Y-119842480D02*
X150921520Y-76916480D01*
X150876000Y-119888000D02*
X150921520Y-119842480D01*
X150921520Y-76916480D02*
X152737511Y-75100489D01*
%TO.N,/#RST*%
X157055511Y-97706489D02*
X157055511Y-95079511D01*
X155194000Y-126629500D02*
X155194000Y-99568000D01*
X153807500Y-128016000D02*
X155194000Y-126629500D01*
X157055511Y-95079511D02*
X155956000Y-93980000D01*
X155194000Y-99568000D02*
X157055511Y-97706489D01*
%TO.N,/DIO*%
X158112969Y-91056969D02*
X158112969Y-125476000D01*
X157908000Y-125476000D02*
X158112969Y-125476000D01*
X158087969Y-68171969D02*
X158087969Y-86768031D01*
X158087969Y-86768031D02*
X155956000Y-88900000D01*
X155956000Y-66040000D02*
X158087969Y-68171969D01*
X156384000Y-127000000D02*
X157908000Y-125476000D01*
X155956000Y-88900000D02*
X158112969Y-91056969D01*
%TO.N,/#A0*%
X153424031Y-125484031D02*
X153424031Y-98082975D01*
X152316489Y-92539511D02*
X153416000Y-91440000D01*
X152316489Y-96975433D02*
X152316489Y-92539511D01*
X153424031Y-98082975D02*
X152316489Y-96975433D01*
X154432000Y-126492000D02*
X153424031Y-125484031D01*
%TO.N,/#SDA*%
X154569500Y-125209989D02*
X154881489Y-124898000D01*
X154881489Y-124898000D02*
X154881489Y-92514511D01*
X154881489Y-92514511D02*
X155956000Y-91440000D01*
%TO.N,/#SCK*%
X151638000Y-98161022D02*
X153124511Y-99647533D01*
X153416000Y-88900000D02*
X151638000Y-90678000D01*
X153124511Y-99647533D02*
X153124511Y-128994511D01*
X153670000Y-129540000D02*
X156384000Y-129540000D01*
X151638000Y-90678000D02*
X151638000Y-98161022D01*
X153124511Y-128994511D02*
X153670000Y-129540000D01*
%TO.N,/#CS*%
X137000000Y-128864000D02*
X133784000Y-132080000D01*
X138900000Y-114700000D02*
X138900000Y-118600000D01*
X138900000Y-118600000D02*
X137000000Y-120500000D01*
X137000000Y-120500000D02*
X137000000Y-128864000D01*
%TO.N,/SCK*%
X151892000Y-121920000D02*
X151892000Y-98838607D01*
X151338480Y-98285087D02*
X151338480Y-88437520D01*
X151338480Y-88437520D02*
X153416000Y-86360000D01*
X151892000Y-98838607D02*
X151338480Y-98285087D01*
%TD*%
M02*
