G04 #@! TF.GenerationSoftware,KiCad,Pcbnew,7.0.7*
G04 #@! TF.CreationDate,2024-02-29T14:06:03-05:00*
G04 #@! TF.ProjectId,panelized,70616e65-6c69-47a6-9564-2e6b69636164,rev?*
G04 #@! TF.SameCoordinates,Original*
G04 #@! TF.FileFunction,Soldermask,Top*
G04 #@! TF.FilePolarity,Negative*
%FSLAX46Y46*%
G04 Gerber Fmt 4.6, Leading zero omitted, Abs format (unit mm)*
G04 Created by KiCad (PCBNEW 7.0.7) date 2024-02-29 14:06:03*
%MOMM*%
%LPD*%
G01*
G04 APERTURE LIST*
G04 Aperture macros list*
%AMRoundRect*
0 Rectangle with rounded corners*
0 $1 Rounding radius*
0 $2 $3 $4 $5 $6 $7 $8 $9 X,Y pos of 4 corners*
0 Add a 4 corners polygon primitive as box body*
4,1,4,$2,$3,$4,$5,$6,$7,$8,$9,$2,$3,0*
0 Add four circle primitives for the rounded corners*
1,1,$1+$1,$2,$3*
1,1,$1+$1,$4,$5*
1,1,$1+$1,$6,$7*
1,1,$1+$1,$8,$9*
0 Add four rect primitives between the rounded corners*
20,1,$1+$1,$2,$3,$4,$5,0*
20,1,$1+$1,$4,$5,$6,$7,0*
20,1,$1+$1,$6,$7,$8,$9,0*
20,1,$1+$1,$8,$9,$2,$3,0*%
%AMFreePoly0*
4,1,6,0.500000,-0.850000,-0.500000,-0.850000,-0.500000,0.550000,-0.200000,0.850000,0.500000,0.850000,0.500000,-0.850000,0.500000,-0.850000,$1*%
G04 Aperture macros list end*
%ADD10RoundRect,0.200000X0.200000X0.275000X-0.200000X0.275000X-0.200000X-0.275000X0.200000X-0.275000X0*%
%ADD11RoundRect,0.135000X0.135000X0.185000X-0.135000X0.185000X-0.135000X-0.185000X0.135000X-0.185000X0*%
%ADD12R,1.700000X1.700000*%
%ADD13O,1.700000X1.700000*%
%ADD14RoundRect,0.200000X-0.275000X0.200000X-0.275000X-0.200000X0.275000X-0.200000X0.275000X0.200000X0*%
%ADD15RoundRect,0.225000X0.250000X-0.225000X0.250000X0.225000X-0.250000X0.225000X-0.250000X-0.225000X0*%
%ADD16R,0.650000X1.050000*%
%ADD17RoundRect,0.150000X0.150000X-0.512500X0.150000X0.512500X-0.150000X0.512500X-0.150000X-0.512500X0*%
%ADD18RoundRect,0.150000X-0.150000X0.512500X-0.150000X-0.512500X0.150000X-0.512500X0.150000X0.512500X0*%
%ADD19RoundRect,0.135000X-0.185000X0.135000X-0.185000X-0.135000X0.185000X-0.135000X0.185000X0.135000X0*%
%ADD20RoundRect,0.225000X0.225000X0.250000X-0.225000X0.250000X-0.225000X-0.250000X0.225000X-0.250000X0*%
%ADD21RoundRect,0.150000X0.150000X-0.587500X0.150000X0.587500X-0.150000X0.587500X-0.150000X-0.587500X0*%
%ADD22RoundRect,0.102000X0.495000X0.150000X-0.495000X0.150000X-0.495000X-0.150000X0.495000X-0.150000X0*%
%ADD23RoundRect,0.125000X0.537500X0.125000X-0.537500X0.125000X-0.537500X-0.125000X0.537500X-0.125000X0*%
%ADD24R,0.720000X0.600000*%
%ADD25RoundRect,0.200000X0.275000X-0.200000X0.275000X0.200000X-0.275000X0.200000X-0.275000X-0.200000X0*%
%ADD26RoundRect,0.102000X-0.125000X0.275000X-0.125000X-0.275000X0.125000X-0.275000X0.125000X0.275000X0*%
%ADD27RoundRect,0.135000X0.185000X-0.135000X0.185000X0.135000X-0.185000X0.135000X-0.185000X-0.135000X0*%
%ADD28RoundRect,0.150000X-0.150000X0.587500X-0.150000X-0.587500X0.150000X-0.587500X0.150000X0.587500X0*%
%ADD29RoundRect,0.225000X-0.250000X0.225000X-0.250000X-0.225000X0.250000X-0.225000X0.250000X0.225000X0*%
%ADD30RoundRect,0.200000X-0.200000X-0.275000X0.200000X-0.275000X0.200000X0.275000X-0.200000X0.275000X0*%
%ADD31RoundRect,0.250000X0.362500X1.425000X-0.362500X1.425000X-0.362500X-1.425000X0.362500X-1.425000X0*%
%ADD32R,0.250000X0.550000*%
%ADD33FreePoly0,270.000000*%
G04 APERTURE END LIST*
D10*
X118025000Y-24900000D03*
X116375000Y-24900000D03*
D11*
X191910000Y-36900000D03*
X190890000Y-36900000D03*
X169885000Y-88900000D03*
X168865000Y-88900000D03*
D12*
X195300000Y-112880000D03*
D13*
X195300000Y-110340000D03*
X195300000Y-107800000D03*
X195300000Y-105260000D03*
X195300000Y-102720000D03*
X195300000Y-100180000D03*
X195300000Y-97640000D03*
X195300000Y-95100000D03*
X195300000Y-92560000D03*
D14*
X130008250Y-100171500D03*
X130008250Y-101821500D03*
D15*
X157208250Y-101796500D03*
X157208250Y-100246500D03*
D16*
X113925000Y-97075000D03*
X113925000Y-92925000D03*
X116075000Y-97075000D03*
X116075000Y-92925000D03*
X107800000Y-97100000D03*
X107800000Y-92950000D03*
X109950000Y-97100000D03*
X109950000Y-92950000D03*
D14*
X126700000Y-75475000D03*
X126700000Y-77125000D03*
X118208250Y-100171500D03*
X118208250Y-101821500D03*
D17*
X150950000Y-34537500D03*
X151900000Y-34537500D03*
X152850000Y-34537500D03*
X152850000Y-32262500D03*
X151900000Y-32262500D03*
X150950000Y-32262500D03*
D18*
X163350000Y-28262500D03*
X161450000Y-28262500D03*
X162400000Y-30537500D03*
D19*
X192100000Y-63300000D03*
X192100000Y-64320000D03*
D16*
X187425000Y-97075000D03*
X187425000Y-92925000D03*
X189575000Y-97075000D03*
X189575000Y-92925000D03*
D20*
X128175000Y-72800000D03*
X126625000Y-72800000D03*
D15*
X189208250Y-53821500D03*
X189208250Y-52271500D03*
D20*
X128175000Y-22200000D03*
X126625000Y-22200000D03*
D14*
X167208250Y-52171500D03*
X167208250Y-53821500D03*
D11*
X135510000Y-90500000D03*
X134490000Y-90500000D03*
D21*
X136700000Y-35212500D03*
X138600000Y-35212500D03*
X137650000Y-33337500D03*
D11*
X145385000Y-88900000D03*
X144365000Y-88900000D03*
X142910000Y-86700000D03*
X141890000Y-86700000D03*
D10*
X191525000Y-72900000D03*
X189875000Y-72900000D03*
D11*
X179810000Y-41700000D03*
X178790000Y-41700000D03*
D12*
X170800000Y-112880000D03*
D13*
X170800000Y-110340000D03*
X170800000Y-107800000D03*
X170800000Y-105260000D03*
X170800000Y-102720000D03*
X170800000Y-100180000D03*
X170800000Y-97640000D03*
X170800000Y-95100000D03*
X170800000Y-92560000D03*
D22*
X186300000Y-101550000D03*
X186300000Y-100900000D03*
X186300000Y-100250000D03*
X184690000Y-100250000D03*
X184690000Y-100900000D03*
X184690000Y-101550000D03*
D10*
X142525000Y-70600000D03*
X140875000Y-70600000D03*
D21*
X161200000Y-35212500D03*
X163100000Y-35212500D03*
X162150000Y-33337500D03*
D23*
X186637500Y-106675000D03*
X186637500Y-106025000D03*
X186637500Y-105375000D03*
X186637500Y-104725000D03*
X184362500Y-104725000D03*
X184362500Y-105375000D03*
X184362500Y-106025000D03*
X184362500Y-106675000D03*
D24*
X179990000Y-70675000D03*
X180960000Y-70675000D03*
X181930000Y-70675000D03*
X182900000Y-70675000D03*
X182900000Y-72075000D03*
X181930000Y-72075000D03*
X180960000Y-72075000D03*
X179990000Y-72075000D03*
D16*
X138425000Y-49075000D03*
X138425000Y-44925000D03*
X140575000Y-49075000D03*
X140575000Y-44925000D03*
D17*
X126450000Y-34537500D03*
X127400000Y-34537500D03*
X128350000Y-34537500D03*
X128350000Y-32262500D03*
X127400000Y-32262500D03*
X126450000Y-32262500D03*
D14*
X142708250Y-100171500D03*
X142708250Y-101821500D03*
D25*
X165800000Y-81925000D03*
X165800000Y-80275000D03*
D21*
X161200000Y-83212500D03*
X163100000Y-83212500D03*
X162150000Y-81337500D03*
D14*
X130008250Y-52171500D03*
X130008250Y-53821500D03*
D10*
X163725000Y-38200000D03*
X162075000Y-38200000D03*
D25*
X141300000Y-33925000D03*
X141300000Y-32275000D03*
X121400000Y-76225000D03*
X121400000Y-74575000D03*
D26*
X113675000Y-70525000D03*
X113175000Y-70525000D03*
X112675000Y-70525000D03*
X112675000Y-73275000D03*
X113175000Y-73275000D03*
X113675000Y-73275000D03*
D20*
X152675000Y-24800000D03*
X151125000Y-24800000D03*
D11*
X167410000Y-84900000D03*
X166390000Y-84900000D03*
D18*
X187850000Y-76262500D03*
X185950000Y-76262500D03*
X186900000Y-78537500D03*
D14*
X109700000Y-75350000D03*
X109700000Y-77000000D03*
X179008250Y-52171500D03*
X179008250Y-53821500D03*
D20*
X194875000Y-80300000D03*
X193325000Y-80300000D03*
D25*
X178900000Y-39325000D03*
X178900000Y-37675000D03*
D22*
X161800000Y-53550000D03*
X161800000Y-52900000D03*
X161800000Y-52250000D03*
X160190000Y-52250000D03*
X160190000Y-52900000D03*
X160190000Y-53550000D03*
D27*
X194900000Y-23935000D03*
X194900000Y-22915000D03*
D14*
X183200000Y-27350000D03*
X183200000Y-29000000D03*
D19*
X192100000Y-111300000D03*
X192100000Y-112320000D03*
D25*
X105400000Y-87325000D03*
X105400000Y-85675000D03*
D28*
X106850000Y-28062500D03*
X104950000Y-28062500D03*
X105900000Y-29937500D03*
D25*
X178900000Y-87325000D03*
X178900000Y-85675000D03*
D11*
X194385000Y-40900000D03*
X193365000Y-40900000D03*
D23*
X186637500Y-58675000D03*
X186637500Y-58025000D03*
X186637500Y-57375000D03*
X186637500Y-56725000D03*
X184362500Y-56725000D03*
X184362500Y-57375000D03*
X184362500Y-58025000D03*
X184362500Y-58675000D03*
D25*
X154400000Y-39325000D03*
X154400000Y-37675000D03*
D22*
X137300000Y-101550000D03*
X137300000Y-100900000D03*
X137300000Y-100250000D03*
X135690000Y-100250000D03*
X135690000Y-100900000D03*
X135690000Y-101550000D03*
D10*
X134425000Y-40200000D03*
X132775000Y-40200000D03*
D11*
X118410000Y-84900000D03*
X117390000Y-84900000D03*
D15*
X115708250Y-53821500D03*
X115708250Y-52271500D03*
D20*
X170375000Y-32300000D03*
X168825000Y-32300000D03*
D23*
X162137500Y-58675000D03*
X162137500Y-58025000D03*
X162137500Y-57375000D03*
X162137500Y-56725000D03*
X159862500Y-56725000D03*
X159862500Y-57375000D03*
X159862500Y-58025000D03*
X159862500Y-58675000D03*
D20*
X121375000Y-80300000D03*
X119825000Y-80300000D03*
D12*
X150700000Y-110360000D03*
D13*
X150700000Y-107820000D03*
X150700000Y-105280000D03*
X150700000Y-102740000D03*
X150700000Y-100200000D03*
X150700000Y-97660000D03*
X150700000Y-95120000D03*
X150700000Y-92580000D03*
D14*
X175700000Y-27475000D03*
X175700000Y-29125000D03*
D20*
X128175000Y-70200000D03*
X126625000Y-70200000D03*
D10*
X167025000Y-70600000D03*
X165375000Y-70600000D03*
D28*
X155850000Y-28062500D03*
X153950000Y-28062500D03*
X154900000Y-29937500D03*
D16*
X187425000Y-49075000D03*
X187425000Y-44925000D03*
X189575000Y-49075000D03*
X189575000Y-44925000D03*
D10*
X109925000Y-37700000D03*
X108275000Y-37700000D03*
D21*
X180750000Y-34337500D03*
X182650000Y-34337500D03*
X181700000Y-32462500D03*
X131750000Y-82337500D03*
X133650000Y-82337500D03*
X132700000Y-80462500D03*
D20*
X177175000Y-70200000D03*
X175625000Y-70200000D03*
D29*
X194900000Y-35825000D03*
X194900000Y-37375000D03*
D20*
X177175000Y-72800000D03*
X175625000Y-72800000D03*
D12*
X126200000Y-62360000D03*
D13*
X126200000Y-59820000D03*
X126200000Y-57280000D03*
X126200000Y-54740000D03*
X126200000Y-52200000D03*
X126200000Y-49660000D03*
X126200000Y-47120000D03*
X126200000Y-44580000D03*
D30*
X189875000Y-89800000D03*
X191525000Y-89800000D03*
D26*
X138175000Y-22525000D03*
X137675000Y-22525000D03*
X137175000Y-22525000D03*
X137175000Y-25275000D03*
X137675000Y-25275000D03*
X138175000Y-25275000D03*
D20*
X194875000Y-32300000D03*
X193325000Y-32300000D03*
D19*
X167600000Y-111300000D03*
X167600000Y-112320000D03*
D27*
X194900000Y-71935000D03*
X194900000Y-70915000D03*
D31*
X164000000Y-110900000D03*
X158075000Y-110900000D03*
D30*
X140875000Y-41800000D03*
X142525000Y-41800000D03*
D19*
X143100000Y-63300000D03*
X143100000Y-64320000D03*
D15*
X181708250Y-101796500D03*
X181708250Y-100246500D03*
D11*
X160010000Y-42500000D03*
X158990000Y-42500000D03*
D19*
X143100000Y-111300000D03*
X143100000Y-112320000D03*
D12*
X126200000Y-110360000D03*
D13*
X126200000Y-107820000D03*
X126200000Y-105280000D03*
X126200000Y-102740000D03*
X126200000Y-100200000D03*
X126200000Y-97660000D03*
X126200000Y-95120000D03*
X126200000Y-92580000D03*
D25*
X194900000Y-28225000D03*
X194900000Y-26575000D03*
D11*
X118410000Y-38700000D03*
X117390000Y-38700000D03*
D12*
X195300000Y-64880000D03*
D13*
X195300000Y-62340000D03*
X195300000Y-59800000D03*
X195300000Y-57260000D03*
X195300000Y-54720000D03*
X195300000Y-52180000D03*
X195300000Y-49640000D03*
X195300000Y-47100000D03*
X195300000Y-44560000D03*
D23*
X113137500Y-58675000D03*
X113137500Y-58025000D03*
X113137500Y-57375000D03*
X113137500Y-56725000D03*
X110862500Y-56725000D03*
X110862500Y-57375000D03*
X110862500Y-58025000D03*
X110862500Y-58675000D03*
D31*
X115000000Y-110900000D03*
X109075000Y-110900000D03*
D14*
X109700000Y-27350000D03*
X109700000Y-29000000D03*
D30*
X165375000Y-41800000D03*
X167025000Y-41800000D03*
D20*
X121375000Y-32300000D03*
X119825000Y-32300000D03*
D27*
X170400000Y-23935000D03*
X170400000Y-22915000D03*
D11*
X145385000Y-40900000D03*
X144365000Y-40900000D03*
D15*
X164708250Y-53821500D03*
X164708250Y-52271500D03*
D20*
X152675000Y-70200000D03*
X151125000Y-70200000D03*
D11*
X135510000Y-42500000D03*
X134490000Y-42500000D03*
X111010000Y-42500000D03*
X109990000Y-42500000D03*
D20*
X177175000Y-24800000D03*
X175625000Y-24800000D03*
D11*
X120885000Y-88900000D03*
X119865000Y-88900000D03*
D25*
X194900000Y-76225000D03*
X194900000Y-74575000D03*
X141300000Y-81925000D03*
X141300000Y-80275000D03*
D16*
X156800000Y-97100000D03*
X156800000Y-92950000D03*
X158950000Y-97100000D03*
X158950000Y-92950000D03*
D26*
X162675000Y-22525000D03*
X162175000Y-22525000D03*
X161675000Y-22525000D03*
X161675000Y-25275000D03*
X162175000Y-25275000D03*
X162675000Y-25275000D03*
D24*
X130990000Y-70675000D03*
X131960000Y-70675000D03*
X132930000Y-70675000D03*
X133900000Y-70675000D03*
X133900000Y-72075000D03*
X132930000Y-72075000D03*
X131960000Y-72075000D03*
X130990000Y-72075000D03*
D23*
X137637500Y-106675000D03*
X137637500Y-106025000D03*
X137637500Y-105375000D03*
X137637500Y-104725000D03*
X135362500Y-104725000D03*
X135362500Y-105375000D03*
X135362500Y-106025000D03*
X135362500Y-106675000D03*
D21*
X112200000Y-83212500D03*
X114100000Y-83212500D03*
X113150000Y-81337500D03*
D32*
X118400000Y-75350000D03*
X117900000Y-75350000D03*
X117400000Y-75350000D03*
X116900000Y-75350000D03*
X116900000Y-77700000D03*
X117400000Y-77700000D03*
X117900000Y-77700000D03*
X118400000Y-77700000D03*
D33*
X117650000Y-76525000D03*
D11*
X118410000Y-86700000D03*
X117390000Y-86700000D03*
D10*
X134425000Y-85700000D03*
X132775000Y-85700000D03*
D14*
X151200000Y-27475000D03*
X151200000Y-29125000D03*
D11*
X106310000Y-89700000D03*
X105290000Y-89700000D03*
D10*
X158925000Y-85700000D03*
X157275000Y-85700000D03*
D32*
X191900000Y-27350000D03*
X191400000Y-27350000D03*
X190900000Y-27350000D03*
X190400000Y-27350000D03*
X190400000Y-29700000D03*
X190900000Y-29700000D03*
X191400000Y-29700000D03*
X191900000Y-29700000D03*
D33*
X191150000Y-28525000D03*
D25*
X145900000Y-28225000D03*
X145900000Y-26575000D03*
D28*
X131350000Y-28062500D03*
X129450000Y-28062500D03*
X130400000Y-29937500D03*
D26*
X187175000Y-22525000D03*
X186675000Y-22525000D03*
X186175000Y-22525000D03*
X186175000Y-25275000D03*
X186675000Y-25275000D03*
X187175000Y-25275000D03*
D11*
X191910000Y-84900000D03*
X190890000Y-84900000D03*
D29*
X194900000Y-83825000D03*
X194900000Y-85375000D03*
D11*
X155310000Y-41700000D03*
X154290000Y-41700000D03*
D20*
X177175000Y-22200000D03*
X175625000Y-22200000D03*
D12*
X175200000Y-110360000D03*
D13*
X175200000Y-107820000D03*
X175200000Y-105280000D03*
X175200000Y-102740000D03*
X175200000Y-100200000D03*
X175200000Y-97660000D03*
X175200000Y-95120000D03*
X175200000Y-92580000D03*
D19*
X118600000Y-111300000D03*
X118600000Y-112320000D03*
D28*
X155850000Y-76062500D03*
X153950000Y-76062500D03*
X154900000Y-77937500D03*
D21*
X180750000Y-82337500D03*
X182650000Y-82337500D03*
X181700000Y-80462500D03*
D16*
X181300000Y-97100000D03*
X181300000Y-92950000D03*
X183450000Y-97100000D03*
X183450000Y-92950000D03*
D14*
X179008250Y-100171500D03*
X179008250Y-101821500D03*
X105508250Y-100171500D03*
X105508250Y-101821500D03*
D32*
X191900000Y-75350000D03*
X191400000Y-75350000D03*
X190900000Y-75350000D03*
X190400000Y-75350000D03*
X190400000Y-77700000D03*
X190900000Y-77700000D03*
X191400000Y-77700000D03*
X191900000Y-77700000D03*
D33*
X191150000Y-76525000D03*
D10*
X158925000Y-40200000D03*
X157275000Y-40200000D03*
D14*
X154508250Y-100171500D03*
X154508250Y-101821500D03*
D25*
X154400000Y-87325000D03*
X154400000Y-85675000D03*
D12*
X101700000Y-62360000D03*
D13*
X101700000Y-59820000D03*
X101700000Y-57280000D03*
X101700000Y-54740000D03*
X101700000Y-52200000D03*
X101700000Y-49660000D03*
X101700000Y-47120000D03*
X101700000Y-44580000D03*
D20*
X170375000Y-80300000D03*
X168825000Y-80300000D03*
D14*
X102200000Y-75475000D03*
X102200000Y-77125000D03*
D11*
X191910000Y-38700000D03*
X190890000Y-38700000D03*
D24*
X155490000Y-22675000D03*
X156460000Y-22675000D03*
X157430000Y-22675000D03*
X158400000Y-22675000D03*
X158400000Y-24075000D03*
X157430000Y-24075000D03*
X156460000Y-24075000D03*
X155490000Y-24075000D03*
D32*
X118400000Y-27350000D03*
X117900000Y-27350000D03*
X117400000Y-27350000D03*
X116900000Y-27350000D03*
X116900000Y-29700000D03*
X117400000Y-29700000D03*
X117900000Y-29700000D03*
X118400000Y-29700000D03*
D33*
X117650000Y-28525000D03*
D16*
X181300000Y-49100000D03*
X181300000Y-44950000D03*
X183450000Y-49100000D03*
X183450000Y-44950000D03*
D32*
X142900000Y-27350000D03*
X142400000Y-27350000D03*
X141900000Y-27350000D03*
X141400000Y-27350000D03*
X141400000Y-29700000D03*
X141900000Y-29700000D03*
X142400000Y-29700000D03*
X142900000Y-29700000D03*
D33*
X142150000Y-28525000D03*
D16*
X132300000Y-49100000D03*
X132300000Y-44950000D03*
X134450000Y-49100000D03*
X134450000Y-44950000D03*
D14*
X126700000Y-27475000D03*
X126700000Y-29125000D03*
D20*
X103675000Y-24800000D03*
X102125000Y-24800000D03*
D17*
X150950000Y-82537500D03*
X151900000Y-82537500D03*
X152850000Y-82537500D03*
X152850000Y-80262500D03*
X151900000Y-80262500D03*
X150950000Y-80262500D03*
D29*
X121400000Y-83825000D03*
X121400000Y-85375000D03*
D11*
X191910000Y-86700000D03*
X190890000Y-86700000D03*
D14*
X175700000Y-75475000D03*
X175700000Y-77125000D03*
D10*
X183425000Y-88200000D03*
X181775000Y-88200000D03*
D29*
X170400000Y-35825000D03*
X170400000Y-37375000D03*
D17*
X101950000Y-82537500D03*
X102900000Y-82537500D03*
X103850000Y-82537500D03*
X103850000Y-80262500D03*
X102900000Y-80262500D03*
X101950000Y-80262500D03*
D22*
X137300000Y-53550000D03*
X137300000Y-52900000D03*
X137300000Y-52250000D03*
X135690000Y-52250000D03*
X135690000Y-52900000D03*
X135690000Y-53550000D03*
D14*
X151200000Y-75475000D03*
X151200000Y-77125000D03*
D32*
X142900000Y-75350000D03*
X142400000Y-75350000D03*
X141900000Y-75350000D03*
X141400000Y-75350000D03*
X141400000Y-77700000D03*
X141900000Y-77700000D03*
X142400000Y-77700000D03*
X142900000Y-77700000D03*
D33*
X142150000Y-76525000D03*
D11*
X167410000Y-86700000D03*
X166390000Y-86700000D03*
D15*
X140208250Y-53821500D03*
X140208250Y-52271500D03*
D10*
X118025000Y-70600000D03*
X116375000Y-70600000D03*
D24*
X179990000Y-22675000D03*
X180960000Y-22675000D03*
X181930000Y-22675000D03*
X182900000Y-22675000D03*
X182900000Y-24075000D03*
X181930000Y-24075000D03*
X180960000Y-24075000D03*
X179990000Y-24075000D03*
D16*
X156800000Y-49100000D03*
X156800000Y-44950000D03*
X158950000Y-49100000D03*
X158950000Y-44950000D03*
X113925000Y-49075000D03*
X113925000Y-44925000D03*
X116075000Y-49075000D03*
X116075000Y-44925000D03*
D11*
X118410000Y-36900000D03*
X117390000Y-36900000D03*
D25*
X170400000Y-76225000D03*
X170400000Y-74575000D03*
D11*
X184510000Y-42500000D03*
X183490000Y-42500000D03*
D21*
X156250000Y-34337500D03*
X158150000Y-34337500D03*
X157200000Y-32462500D03*
D26*
X138175000Y-70525000D03*
X137675000Y-70525000D03*
X137175000Y-70525000D03*
X137175000Y-73275000D03*
X137675000Y-73275000D03*
X138175000Y-73275000D03*
D14*
X191708250Y-52171500D03*
X191708250Y-53821500D03*
D17*
X175450000Y-82537500D03*
X176400000Y-82537500D03*
X177350000Y-82537500D03*
X177350000Y-80262500D03*
X176400000Y-80262500D03*
X175450000Y-80262500D03*
D32*
X167400000Y-27350000D03*
X166900000Y-27350000D03*
X166400000Y-27350000D03*
X165900000Y-27350000D03*
X165900000Y-29700000D03*
X166400000Y-29700000D03*
X166900000Y-29700000D03*
X167400000Y-29700000D03*
D33*
X166650000Y-28525000D03*
D10*
X118025000Y-22600000D03*
X116375000Y-22600000D03*
D14*
X158700000Y-75350000D03*
X158700000Y-77000000D03*
D23*
X162137500Y-106675000D03*
X162137500Y-106025000D03*
X162137500Y-105375000D03*
X162137500Y-104725000D03*
X159862500Y-104725000D03*
X159862500Y-105375000D03*
X159862500Y-106025000D03*
X159862500Y-106675000D03*
D21*
X107250000Y-34337500D03*
X109150000Y-34337500D03*
X108200000Y-32462500D03*
D31*
X139500000Y-62900000D03*
X133575000Y-62900000D03*
D12*
X121800000Y-112880000D03*
D13*
X121800000Y-110340000D03*
X121800000Y-107800000D03*
X121800000Y-105260000D03*
X121800000Y-102720000D03*
X121800000Y-100180000D03*
X121800000Y-97640000D03*
X121800000Y-95100000D03*
X121800000Y-92560000D03*
D10*
X158925000Y-37700000D03*
X157275000Y-37700000D03*
X183425000Y-37700000D03*
X181775000Y-37700000D03*
D26*
X162675000Y-70525000D03*
X162175000Y-70525000D03*
X161675000Y-70525000D03*
X161675000Y-73275000D03*
X162175000Y-73275000D03*
X162675000Y-73275000D03*
D17*
X101950000Y-34537500D03*
X102900000Y-34537500D03*
X103850000Y-34537500D03*
X103850000Y-32262500D03*
X102900000Y-32262500D03*
X101950000Y-32262500D03*
D30*
X140875000Y-89800000D03*
X142525000Y-89800000D03*
D14*
X167208250Y-100171500D03*
X167208250Y-101821500D03*
D16*
X107800000Y-49100000D03*
X107800000Y-44950000D03*
X109950000Y-49100000D03*
X109950000Y-44950000D03*
D23*
X137637500Y-58675000D03*
X137637500Y-58025000D03*
X137637500Y-57375000D03*
X137637500Y-56725000D03*
X135362500Y-56725000D03*
X135362500Y-57375000D03*
X135362500Y-58025000D03*
X135362500Y-58675000D03*
D10*
X158925000Y-88200000D03*
X157275000Y-88200000D03*
D19*
X167600000Y-63300000D03*
X167600000Y-64320000D03*
D11*
X142910000Y-36900000D03*
X141890000Y-36900000D03*
D28*
X131350000Y-76062500D03*
X129450000Y-76062500D03*
X130400000Y-77937500D03*
X180350000Y-76062500D03*
X178450000Y-76062500D03*
X179400000Y-77937500D03*
D11*
X169885000Y-40900000D03*
X168865000Y-40900000D03*
D25*
X129900000Y-39325000D03*
X129900000Y-37675000D03*
D21*
X185700000Y-35212500D03*
X187600000Y-35212500D03*
X186650000Y-33337500D03*
D14*
X158700000Y-27350000D03*
X158700000Y-29000000D03*
D30*
X116375000Y-41800000D03*
X118025000Y-41800000D03*
D10*
X167025000Y-24900000D03*
X165375000Y-24900000D03*
D27*
X121400000Y-23935000D03*
X121400000Y-22915000D03*
D24*
X106490000Y-22675000D03*
X107460000Y-22675000D03*
X108430000Y-22675000D03*
X109400000Y-22675000D03*
X109400000Y-24075000D03*
X108430000Y-24075000D03*
X107460000Y-24075000D03*
X106490000Y-24075000D03*
D10*
X142525000Y-24900000D03*
X140875000Y-24900000D03*
D11*
X167410000Y-36900000D03*
X166390000Y-36900000D03*
D31*
X115000000Y-62900000D03*
X109075000Y-62900000D03*
D25*
X170400000Y-28225000D03*
X170400000Y-26575000D03*
D12*
X150700000Y-62360000D03*
D13*
X150700000Y-59820000D03*
X150700000Y-57280000D03*
X150700000Y-54740000D03*
X150700000Y-52200000D03*
X150700000Y-49660000D03*
X150700000Y-47120000D03*
X150700000Y-44580000D03*
D28*
X106850000Y-76062500D03*
X104950000Y-76062500D03*
X105900000Y-77937500D03*
D21*
X131750000Y-34337500D03*
X133650000Y-34337500D03*
X132700000Y-32462500D03*
D20*
X152675000Y-72800000D03*
X151125000Y-72800000D03*
D11*
X179810000Y-89700000D03*
X178790000Y-89700000D03*
X130810000Y-41700000D03*
X129790000Y-41700000D03*
D12*
X121800000Y-64880000D03*
D13*
X121800000Y-62340000D03*
X121800000Y-59800000D03*
X121800000Y-57260000D03*
X121800000Y-54720000D03*
X121800000Y-52180000D03*
X121800000Y-49640000D03*
X121800000Y-47100000D03*
X121800000Y-44560000D03*
D10*
X191525000Y-22600000D03*
X189875000Y-22600000D03*
D15*
X108208250Y-101796500D03*
X108208250Y-100246500D03*
D25*
X116800000Y-81925000D03*
X116800000Y-80275000D03*
D22*
X112800000Y-101550000D03*
X112800000Y-100900000D03*
X112800000Y-100250000D03*
X111190000Y-100250000D03*
X111190000Y-100900000D03*
X111190000Y-101550000D03*
D11*
X111010000Y-90500000D03*
X109990000Y-90500000D03*
D10*
X134425000Y-88200000D03*
X132775000Y-88200000D03*
D16*
X162925000Y-97075000D03*
X162925000Y-92925000D03*
X165075000Y-97075000D03*
X165075000Y-92925000D03*
D14*
X105508250Y-52171500D03*
X105508250Y-53821500D03*
D15*
X132708250Y-101796500D03*
X132708250Y-100246500D03*
D12*
X101700000Y-110360000D03*
D13*
X101700000Y-107820000D03*
X101700000Y-105280000D03*
X101700000Y-102740000D03*
X101700000Y-100200000D03*
X101700000Y-97660000D03*
X101700000Y-95120000D03*
X101700000Y-92580000D03*
D31*
X188500000Y-62900000D03*
X182575000Y-62900000D03*
D18*
X187850000Y-28262500D03*
X185950000Y-28262500D03*
X186900000Y-30537500D03*
D11*
X155310000Y-89700000D03*
X154290000Y-89700000D03*
D20*
X103675000Y-70200000D03*
X102125000Y-70200000D03*
D10*
X114725000Y-38200000D03*
X113075000Y-38200000D03*
X183425000Y-85700000D03*
X181775000Y-85700000D03*
D20*
X128175000Y-24800000D03*
X126625000Y-24800000D03*
D16*
X138425000Y-97075000D03*
X138425000Y-92925000D03*
X140575000Y-97075000D03*
X140575000Y-92925000D03*
D15*
X140208250Y-101821500D03*
X140208250Y-100271500D03*
X189208250Y-101821500D03*
X189208250Y-100271500D03*
D18*
X138850000Y-76262500D03*
X136950000Y-76262500D03*
X137900000Y-78537500D03*
D27*
X170400000Y-71935000D03*
X170400000Y-70915000D03*
D17*
X175450000Y-34537500D03*
X176400000Y-34537500D03*
X177350000Y-34537500D03*
X177350000Y-32262500D03*
X176400000Y-32262500D03*
X175450000Y-32262500D03*
D15*
X164708250Y-101821500D03*
X164708250Y-100271500D03*
D14*
X142708250Y-52171500D03*
X142708250Y-53821500D03*
D26*
X187175000Y-70525000D03*
X186675000Y-70525000D03*
X186175000Y-70525000D03*
X186175000Y-73275000D03*
X186675000Y-73275000D03*
X187175000Y-73275000D03*
D11*
X167410000Y-38700000D03*
X166390000Y-38700000D03*
D17*
X126450000Y-82537500D03*
X127400000Y-82537500D03*
X128350000Y-82537500D03*
X128350000Y-80262500D03*
X127400000Y-80262500D03*
X126450000Y-80262500D03*
D22*
X161800000Y-101550000D03*
X161800000Y-100900000D03*
X161800000Y-100250000D03*
X160190000Y-100250000D03*
X160190000Y-100900000D03*
X160190000Y-101550000D03*
D10*
X139225000Y-86200000D03*
X137575000Y-86200000D03*
X167025000Y-72900000D03*
X165375000Y-72900000D03*
X109925000Y-88200000D03*
X108275000Y-88200000D03*
D25*
X165800000Y-33925000D03*
X165800000Y-32275000D03*
D10*
X142525000Y-22600000D03*
X140875000Y-22600000D03*
X134425000Y-37700000D03*
X132775000Y-37700000D03*
D29*
X170400000Y-83825000D03*
X170400000Y-85375000D03*
D25*
X129900000Y-87325000D03*
X129900000Y-85675000D03*
D15*
X157208250Y-53796500D03*
X157208250Y-52246500D03*
D30*
X165375000Y-89800000D03*
X167025000Y-89800000D03*
D21*
X185700000Y-83212500D03*
X187600000Y-83212500D03*
X186650000Y-81337500D03*
D27*
X121400000Y-71935000D03*
X121400000Y-70915000D03*
X145900000Y-23935000D03*
X145900000Y-22915000D03*
D11*
X194385000Y-88900000D03*
X193365000Y-88900000D03*
D25*
X105400000Y-39325000D03*
X105400000Y-37675000D03*
X145900000Y-76225000D03*
X145900000Y-74575000D03*
X121400000Y-28225000D03*
X121400000Y-26575000D03*
D14*
X134200000Y-27350000D03*
X134200000Y-29000000D03*
D24*
X130990000Y-22675000D03*
X131960000Y-22675000D03*
X132930000Y-22675000D03*
X133900000Y-22675000D03*
X133900000Y-24075000D03*
X132930000Y-24075000D03*
X131960000Y-24075000D03*
X130990000Y-24075000D03*
D10*
X163725000Y-86200000D03*
X162075000Y-86200000D03*
D29*
X121400000Y-35825000D03*
X121400000Y-37375000D03*
D11*
X184510000Y-90500000D03*
X183490000Y-90500000D03*
D23*
X113137500Y-106675000D03*
X113137500Y-106025000D03*
X113137500Y-105375000D03*
X113137500Y-104725000D03*
X110862500Y-104725000D03*
X110862500Y-105375000D03*
X110862500Y-106025000D03*
X110862500Y-106675000D03*
D22*
X112800000Y-53550000D03*
X112800000Y-52900000D03*
X112800000Y-52250000D03*
X111190000Y-52250000D03*
X111190000Y-52900000D03*
X111190000Y-53550000D03*
D30*
X116375000Y-89800000D03*
X118025000Y-89800000D03*
D25*
X190300000Y-81925000D03*
X190300000Y-80275000D03*
D21*
X156250000Y-82337500D03*
X158150000Y-82337500D03*
X157200000Y-80462500D03*
D18*
X138850000Y-28262500D03*
X136950000Y-28262500D03*
X137900000Y-30537500D03*
D11*
X142910000Y-38700000D03*
X141890000Y-38700000D03*
D14*
X183200000Y-75350000D03*
X183200000Y-77000000D03*
X154508250Y-52171500D03*
X154508250Y-53821500D03*
D10*
X142525000Y-72900000D03*
X140875000Y-72900000D03*
D18*
X114350000Y-28262500D03*
X112450000Y-28262500D03*
X113400000Y-30537500D03*
D31*
X188500000Y-110900000D03*
X182575000Y-110900000D03*
D18*
X163350000Y-76262500D03*
X161450000Y-76262500D03*
X162400000Y-78537500D03*
D14*
X118208250Y-52171500D03*
X118208250Y-53821500D03*
D16*
X132300000Y-97100000D03*
X132300000Y-92950000D03*
X134450000Y-97100000D03*
X134450000Y-92950000D03*
D10*
X109925000Y-85700000D03*
X108275000Y-85700000D03*
D24*
X106490000Y-70675000D03*
X107460000Y-70675000D03*
X108430000Y-70675000D03*
X109400000Y-70675000D03*
X109400000Y-72075000D03*
X108430000Y-72075000D03*
X107460000Y-72075000D03*
X106490000Y-72075000D03*
D22*
X186300000Y-53550000D03*
X186300000Y-52900000D03*
X186300000Y-52250000D03*
X184690000Y-52250000D03*
X184690000Y-52900000D03*
X184690000Y-53550000D03*
D10*
X139225000Y-38200000D03*
X137575000Y-38200000D03*
D14*
X134200000Y-75350000D03*
X134200000Y-77000000D03*
D10*
X118025000Y-72900000D03*
X116375000Y-72900000D03*
D28*
X180350000Y-28062500D03*
X178450000Y-28062500D03*
X179400000Y-29937500D03*
D29*
X145900000Y-35825000D03*
X145900000Y-37375000D03*
D15*
X108208250Y-53796500D03*
X108208250Y-52246500D03*
D20*
X103675000Y-22200000D03*
X102125000Y-22200000D03*
D32*
X167400000Y-75350000D03*
X166900000Y-75350000D03*
X166400000Y-75350000D03*
X165900000Y-75350000D03*
X165900000Y-77700000D03*
X166400000Y-77700000D03*
X166900000Y-77700000D03*
X167400000Y-77700000D03*
D33*
X166650000Y-76525000D03*
D31*
X139500000Y-110900000D03*
X133575000Y-110900000D03*
D15*
X181708250Y-53796500D03*
X181708250Y-52246500D03*
D10*
X188225000Y-86200000D03*
X186575000Y-86200000D03*
D30*
X189875000Y-41800000D03*
X191525000Y-41800000D03*
D10*
X191525000Y-24900000D03*
X189875000Y-24900000D03*
D20*
X152675000Y-22200000D03*
X151125000Y-22200000D03*
D14*
X191708250Y-100171500D03*
X191708250Y-101821500D03*
D10*
X167025000Y-22600000D03*
X165375000Y-22600000D03*
D19*
X118600000Y-63300000D03*
X118600000Y-64320000D03*
D20*
X145875000Y-32300000D03*
X144325000Y-32300000D03*
D25*
X190300000Y-33925000D03*
X190300000Y-32275000D03*
D21*
X107250000Y-82337500D03*
X109150000Y-82337500D03*
X108200000Y-80462500D03*
X136700000Y-83212500D03*
X138600000Y-83212500D03*
X137650000Y-81337500D03*
D10*
X183425000Y-40200000D03*
X181775000Y-40200000D03*
D15*
X132708250Y-53796500D03*
X132708250Y-52246500D03*
D14*
X102200000Y-27475000D03*
X102200000Y-29125000D03*
D18*
X114350000Y-76262500D03*
X112450000Y-76262500D03*
X113400000Y-78537500D03*
D15*
X115708250Y-101821500D03*
X115708250Y-100271500D03*
D11*
X120885000Y-40900000D03*
X119865000Y-40900000D03*
X130810000Y-89700000D03*
X129790000Y-89700000D03*
D25*
X116800000Y-33925000D03*
X116800000Y-32275000D03*
D24*
X155490000Y-70675000D03*
X156460000Y-70675000D03*
X157430000Y-70675000D03*
X158400000Y-70675000D03*
X158400000Y-72075000D03*
X157430000Y-72075000D03*
X156460000Y-72075000D03*
X155490000Y-72075000D03*
D11*
X160010000Y-90500000D03*
X158990000Y-90500000D03*
D12*
X146300000Y-112880000D03*
D13*
X146300000Y-110340000D03*
X146300000Y-107800000D03*
X146300000Y-105260000D03*
X146300000Y-102720000D03*
X146300000Y-100180000D03*
X146300000Y-97640000D03*
X146300000Y-95100000D03*
X146300000Y-92560000D03*
D11*
X106310000Y-41700000D03*
X105290000Y-41700000D03*
D10*
X191525000Y-70600000D03*
X189875000Y-70600000D03*
D20*
X103675000Y-72800000D03*
X102125000Y-72800000D03*
D11*
X142910000Y-84900000D03*
X141890000Y-84900000D03*
D10*
X188225000Y-38200000D03*
X186575000Y-38200000D03*
D29*
X145900000Y-83825000D03*
X145900000Y-85375000D03*
D12*
X146300000Y-64880000D03*
D13*
X146300000Y-62340000D03*
X146300000Y-59800000D03*
X146300000Y-57260000D03*
X146300000Y-54720000D03*
X146300000Y-52180000D03*
X146300000Y-49640000D03*
X146300000Y-47100000D03*
X146300000Y-44560000D03*
D31*
X164000000Y-62900000D03*
X158075000Y-62900000D03*
D27*
X145900000Y-71935000D03*
X145900000Y-70915000D03*
D12*
X175200000Y-62360000D03*
D13*
X175200000Y-59820000D03*
X175200000Y-57280000D03*
X175200000Y-54740000D03*
X175200000Y-52200000D03*
X175200000Y-49660000D03*
X175200000Y-47120000D03*
X175200000Y-44580000D03*
D20*
X145875000Y-80300000D03*
X144325000Y-80300000D03*
D12*
X170800000Y-64880000D03*
D13*
X170800000Y-62340000D03*
X170800000Y-59800000D03*
X170800000Y-57260000D03*
X170800000Y-54720000D03*
X170800000Y-52180000D03*
X170800000Y-49640000D03*
X170800000Y-47100000D03*
X170800000Y-44560000D03*
D10*
X109925000Y-40200000D03*
X108275000Y-40200000D03*
D26*
X113675000Y-22525000D03*
X113175000Y-22525000D03*
X112675000Y-22525000D03*
X112675000Y-25275000D03*
X113175000Y-25275000D03*
X113675000Y-25275000D03*
D10*
X114725000Y-86200000D03*
X113075000Y-86200000D03*
D21*
X112200000Y-35212500D03*
X114100000Y-35212500D03*
X113150000Y-33337500D03*
D16*
X162925000Y-49075000D03*
X162925000Y-44925000D03*
X165075000Y-49075000D03*
X165075000Y-44925000D03*
M02*
