G04 #@! TF.GenerationSoftware,KiCad,Pcbnew,7.0.7*
G04 #@! TF.CreationDate,2024-02-29T14:06:03-05:00*
G04 #@! TF.ProjectId,panelized,70616e65-6c69-47a6-9564-2e6b69636164,rev?*
G04 #@! TF.SameCoordinates,Original*
G04 #@! TF.FileFunction,Soldermask,Bot*
G04 #@! TF.FilePolarity,Negative*
%FSLAX46Y46*%
G04 Gerber Fmt 4.6, Leading zero omitted, Abs format (unit mm)*
G04 Created by KiCad (PCBNEW 7.0.7) date 2024-02-29 14:06:03*
%MOMM*%
%LPD*%
G01*
G04 APERTURE LIST*
%ADD10O,3.048000X1.850000*%
%ADD11R,2.500000X1.100000*%
%ADD12R,1.100000X2.500000*%
%ADD13R,1.700000X1.700000*%
%ADD14O,1.700000X1.700000*%
G04 APERTURE END LIST*
D10*
X130200000Y-111900000D03*
X142700000Y-111900000D03*
X130200000Y-106900000D03*
X142700000Y-106900000D03*
X105700000Y-111900000D03*
X118200000Y-111900000D03*
X105700000Y-106900000D03*
X118200000Y-106900000D03*
D11*
X119600000Y-71150000D03*
X119600000Y-73150000D03*
X119600000Y-75150000D03*
X119600000Y-77150000D03*
X119600000Y-79150000D03*
X119600000Y-81150000D03*
X119600000Y-83150000D03*
X119600000Y-85150000D03*
X104200000Y-85150000D03*
X104200000Y-83150000D03*
X104200000Y-81150000D03*
X104200000Y-79150000D03*
X104200000Y-77150000D03*
X104200000Y-75150000D03*
X104200000Y-73150000D03*
X104200000Y-71150000D03*
D12*
X116910000Y-86850000D03*
X114910000Y-86850000D03*
X112910000Y-86850000D03*
X110910000Y-86850000D03*
X108910000Y-86850000D03*
X106910000Y-86850000D03*
D10*
X105700000Y-63900000D03*
X118200000Y-63900000D03*
X105700000Y-58900000D03*
X118200000Y-58900000D03*
D11*
X119600000Y-23150000D03*
X119600000Y-25150000D03*
X119600000Y-27150000D03*
X119600000Y-29150000D03*
X119600000Y-31150000D03*
X119600000Y-33150000D03*
X119600000Y-35150000D03*
X119600000Y-37150000D03*
X104200000Y-37150000D03*
X104200000Y-35150000D03*
X104200000Y-33150000D03*
X104200000Y-31150000D03*
X104200000Y-29150000D03*
X104200000Y-27150000D03*
X104200000Y-25150000D03*
X104200000Y-23150000D03*
D12*
X116910000Y-38850000D03*
X114910000Y-38850000D03*
X112910000Y-38850000D03*
X110910000Y-38850000D03*
X108910000Y-38850000D03*
X106910000Y-38850000D03*
D11*
X168600000Y-23150000D03*
X168600000Y-25150000D03*
X168600000Y-27150000D03*
X168600000Y-29150000D03*
X168600000Y-31150000D03*
X168600000Y-33150000D03*
X168600000Y-35150000D03*
X168600000Y-37150000D03*
X153200000Y-37150000D03*
X153200000Y-35150000D03*
X153200000Y-33150000D03*
X153200000Y-31150000D03*
X153200000Y-29150000D03*
X153200000Y-27150000D03*
X153200000Y-25150000D03*
X153200000Y-23150000D03*
D12*
X165910000Y-38850000D03*
X163910000Y-38850000D03*
X161910000Y-38850000D03*
X159910000Y-38850000D03*
X157910000Y-38850000D03*
X155910000Y-38850000D03*
D10*
X154700000Y-50400000D03*
X167200000Y-50400000D03*
X154700000Y-45400000D03*
X167200000Y-45400000D03*
X179200000Y-98400000D03*
X191700000Y-98400000D03*
X179200000Y-93400000D03*
X191700000Y-93400000D03*
D11*
X193100000Y-23150000D03*
X193100000Y-25150000D03*
X193100000Y-27150000D03*
X193100000Y-29150000D03*
X193100000Y-31150000D03*
X193100000Y-33150000D03*
X193100000Y-35150000D03*
X193100000Y-37150000D03*
X177700000Y-37150000D03*
X177700000Y-35150000D03*
X177700000Y-33150000D03*
X177700000Y-31150000D03*
X177700000Y-29150000D03*
X177700000Y-27150000D03*
X177700000Y-25150000D03*
X177700000Y-23150000D03*
D12*
X190410000Y-38850000D03*
X188410000Y-38850000D03*
X186410000Y-38850000D03*
X184410000Y-38850000D03*
X182410000Y-38850000D03*
X180410000Y-38850000D03*
D10*
X130200000Y-63900000D03*
X142700000Y-63900000D03*
X130200000Y-58900000D03*
X142700000Y-58900000D03*
X105700000Y-50400000D03*
X118200000Y-50400000D03*
X105700000Y-45400000D03*
X118200000Y-45400000D03*
X130200000Y-50400000D03*
X142700000Y-50400000D03*
X130200000Y-45400000D03*
X142700000Y-45400000D03*
X179200000Y-50400000D03*
X191700000Y-50400000D03*
X179200000Y-45400000D03*
X191700000Y-45400000D03*
X154700000Y-111900000D03*
X167200000Y-111900000D03*
X154700000Y-106900000D03*
X167200000Y-106900000D03*
X154700000Y-98400000D03*
X167200000Y-98400000D03*
X154700000Y-93400000D03*
X167200000Y-93400000D03*
X154700000Y-63900000D03*
X167200000Y-63900000D03*
X154700000Y-58900000D03*
X167200000Y-58900000D03*
X179200000Y-111900000D03*
X191700000Y-111900000D03*
X179200000Y-106900000D03*
X191700000Y-106900000D03*
X105700000Y-98400000D03*
X118200000Y-98400000D03*
X105700000Y-93400000D03*
X118200000Y-93400000D03*
X130200000Y-98400000D03*
X142700000Y-98400000D03*
X130200000Y-93400000D03*
X142700000Y-93400000D03*
D11*
X144100000Y-23150000D03*
X144100000Y-25150000D03*
X144100000Y-27150000D03*
X144100000Y-29150000D03*
X144100000Y-31150000D03*
X144100000Y-33150000D03*
X144100000Y-35150000D03*
X144100000Y-37150000D03*
X128700000Y-37150000D03*
X128700000Y-35150000D03*
X128700000Y-33150000D03*
X128700000Y-31150000D03*
X128700000Y-29150000D03*
X128700000Y-27150000D03*
X128700000Y-25150000D03*
X128700000Y-23150000D03*
D12*
X141410000Y-38850000D03*
X139410000Y-38850000D03*
X137410000Y-38850000D03*
X135410000Y-38850000D03*
X133410000Y-38850000D03*
X131410000Y-38850000D03*
D10*
X179200000Y-63900000D03*
X191700000Y-63900000D03*
X179200000Y-58900000D03*
X191700000Y-58900000D03*
D11*
X193100000Y-71150000D03*
X193100000Y-73150000D03*
X193100000Y-75150000D03*
X193100000Y-77150000D03*
X193100000Y-79150000D03*
X193100000Y-81150000D03*
X193100000Y-83150000D03*
X193100000Y-85150000D03*
X177700000Y-85150000D03*
X177700000Y-83150000D03*
X177700000Y-81150000D03*
X177700000Y-79150000D03*
X177700000Y-77150000D03*
X177700000Y-75150000D03*
X177700000Y-73150000D03*
X177700000Y-71150000D03*
D12*
X190410000Y-86850000D03*
X188410000Y-86850000D03*
X186410000Y-86850000D03*
X184410000Y-86850000D03*
X182410000Y-86850000D03*
X180410000Y-86850000D03*
D11*
X168600000Y-71150000D03*
X168600000Y-73150000D03*
X168600000Y-75150000D03*
X168600000Y-77150000D03*
X168600000Y-79150000D03*
X168600000Y-81150000D03*
X168600000Y-83150000D03*
X168600000Y-85150000D03*
X153200000Y-85150000D03*
X153200000Y-83150000D03*
X153200000Y-81150000D03*
X153200000Y-79150000D03*
X153200000Y-77150000D03*
X153200000Y-75150000D03*
X153200000Y-73150000D03*
X153200000Y-71150000D03*
D12*
X165910000Y-86850000D03*
X163910000Y-86850000D03*
X161910000Y-86850000D03*
X159910000Y-86850000D03*
X157910000Y-86850000D03*
X155910000Y-86850000D03*
D11*
X144100000Y-71150000D03*
X144100000Y-73150000D03*
X144100000Y-75150000D03*
X144100000Y-77150000D03*
X144100000Y-79150000D03*
X144100000Y-81150000D03*
X144100000Y-83150000D03*
X144100000Y-85150000D03*
X128700000Y-85150000D03*
X128700000Y-83150000D03*
X128700000Y-81150000D03*
X128700000Y-79150000D03*
X128700000Y-77150000D03*
X128700000Y-75150000D03*
X128700000Y-73150000D03*
X128700000Y-71150000D03*
D12*
X141410000Y-86850000D03*
X139410000Y-86850000D03*
X137410000Y-86850000D03*
X135410000Y-86850000D03*
X133410000Y-86850000D03*
X131410000Y-86850000D03*
D13*
X195300000Y-112880000D03*
D14*
X195300000Y-110340000D03*
X195300000Y-107800000D03*
X195300000Y-105260000D03*
X195300000Y-102720000D03*
X195300000Y-100180000D03*
X195300000Y-97640000D03*
X195300000Y-95100000D03*
X195300000Y-92560000D03*
D13*
X170800000Y-112880000D03*
D14*
X170800000Y-110340000D03*
X170800000Y-107800000D03*
X170800000Y-105260000D03*
X170800000Y-102720000D03*
X170800000Y-100180000D03*
X170800000Y-97640000D03*
X170800000Y-95100000D03*
X170800000Y-92560000D03*
D13*
X150700000Y-110360000D03*
D14*
X150700000Y-107820000D03*
X150700000Y-105280000D03*
X150700000Y-102740000D03*
X150700000Y-100200000D03*
X150700000Y-97660000D03*
X150700000Y-95120000D03*
X150700000Y-92580000D03*
D13*
X126200000Y-62360000D03*
D14*
X126200000Y-59820000D03*
X126200000Y-57280000D03*
X126200000Y-54740000D03*
X126200000Y-52200000D03*
X126200000Y-49660000D03*
X126200000Y-47120000D03*
X126200000Y-44580000D03*
D13*
X126200000Y-110360000D03*
D14*
X126200000Y-107820000D03*
X126200000Y-105280000D03*
X126200000Y-102740000D03*
X126200000Y-100200000D03*
X126200000Y-97660000D03*
X126200000Y-95120000D03*
X126200000Y-92580000D03*
D13*
X195300000Y-64880000D03*
D14*
X195300000Y-62340000D03*
X195300000Y-59800000D03*
X195300000Y-57260000D03*
X195300000Y-54720000D03*
X195300000Y-52180000D03*
X195300000Y-49640000D03*
X195300000Y-47100000D03*
X195300000Y-44560000D03*
D13*
X175200000Y-110360000D03*
D14*
X175200000Y-107820000D03*
X175200000Y-105280000D03*
X175200000Y-102740000D03*
X175200000Y-100200000D03*
X175200000Y-97660000D03*
X175200000Y-95120000D03*
X175200000Y-92580000D03*
D13*
X101700000Y-62360000D03*
D14*
X101700000Y-59820000D03*
X101700000Y-57280000D03*
X101700000Y-54740000D03*
X101700000Y-52200000D03*
X101700000Y-49660000D03*
X101700000Y-47120000D03*
X101700000Y-44580000D03*
D13*
X121800000Y-112880000D03*
D14*
X121800000Y-110340000D03*
X121800000Y-107800000D03*
X121800000Y-105260000D03*
X121800000Y-102720000D03*
X121800000Y-100180000D03*
X121800000Y-97640000D03*
X121800000Y-95100000D03*
X121800000Y-92560000D03*
D13*
X150700000Y-62360000D03*
D14*
X150700000Y-59820000D03*
X150700000Y-57280000D03*
X150700000Y-54740000D03*
X150700000Y-52200000D03*
X150700000Y-49660000D03*
X150700000Y-47120000D03*
X150700000Y-44580000D03*
D13*
X121800000Y-64880000D03*
D14*
X121800000Y-62340000D03*
X121800000Y-59800000D03*
X121800000Y-57260000D03*
X121800000Y-54720000D03*
X121800000Y-52180000D03*
X121800000Y-49640000D03*
X121800000Y-47100000D03*
X121800000Y-44560000D03*
D13*
X101700000Y-110360000D03*
D14*
X101700000Y-107820000D03*
X101700000Y-105280000D03*
X101700000Y-102740000D03*
X101700000Y-100200000D03*
X101700000Y-97660000D03*
X101700000Y-95120000D03*
X101700000Y-92580000D03*
D13*
X146300000Y-112880000D03*
D14*
X146300000Y-110340000D03*
X146300000Y-107800000D03*
X146300000Y-105260000D03*
X146300000Y-102720000D03*
X146300000Y-100180000D03*
X146300000Y-97640000D03*
X146300000Y-95100000D03*
X146300000Y-92560000D03*
D13*
X146300000Y-64880000D03*
D14*
X146300000Y-62340000D03*
X146300000Y-59800000D03*
X146300000Y-57260000D03*
X146300000Y-54720000D03*
X146300000Y-52180000D03*
X146300000Y-49640000D03*
X146300000Y-47100000D03*
X146300000Y-44560000D03*
D13*
X175200000Y-62360000D03*
D14*
X175200000Y-59820000D03*
X175200000Y-57280000D03*
X175200000Y-54740000D03*
X175200000Y-52200000D03*
X175200000Y-49660000D03*
X175200000Y-47120000D03*
X175200000Y-44580000D03*
D13*
X170800000Y-64880000D03*
D14*
X170800000Y-62340000D03*
X170800000Y-59800000D03*
X170800000Y-57260000D03*
X170800000Y-54720000D03*
X170800000Y-52180000D03*
X170800000Y-49640000D03*
X170800000Y-47100000D03*
X170800000Y-44560000D03*
M02*
