G04 #@! TF.GenerationSoftware,KiCad,Pcbnew,7.0.7*
G04 #@! TF.CreationDate,2023-10-26T11:16:57-04:00*
G04 #@! TF.ProjectId,sensor_node,73656e73-6f72-45f6-9e6f-64652e6b6963,rev?*
G04 #@! TF.SameCoordinates,Original*
G04 #@! TF.FileFunction,Soldermask,Top*
G04 #@! TF.FilePolarity,Negative*
%FSLAX46Y46*%
G04 Gerber Fmt 4.6, Leading zero omitted, Abs format (unit mm)*
G04 Created by KiCad (PCBNEW 7.0.7) date 2023-10-26 11:16:57*
%MOMM*%
%LPD*%
G01*
G04 APERTURE LIST*
G04 Aperture macros list*
%AMRoundRect*
0 Rectangle with rounded corners*
0 $1 Rounding radius*
0 $2 $3 $4 $5 $6 $7 $8 $9 X,Y pos of 4 corners*
0 Add a 4 corners polygon primitive as box body*
4,1,4,$2,$3,$4,$5,$6,$7,$8,$9,$2,$3,0*
0 Add four circle primitives for the rounded corners*
1,1,$1+$1,$2,$3*
1,1,$1+$1,$4,$5*
1,1,$1+$1,$6,$7*
1,1,$1+$1,$8,$9*
0 Add four rect primitives between the rounded corners*
20,1,$1+$1,$2,$3,$4,$5,0*
20,1,$1+$1,$4,$5,$6,$7,0*
20,1,$1+$1,$6,$7,$8,$9,0*
20,1,$1+$1,$8,$9,$2,$3,0*%
G04 Aperture macros list end*
%ADD10RoundRect,0.250000X-1.425000X0.362500X-1.425000X-0.362500X1.425000X-0.362500X1.425000X0.362500X0*%
%ADD11C,1.500000*%
%ADD12R,2.000000X2.000000*%
%ADD13C,2.000000*%
%ADD14R,3.200000X2.000000*%
%ADD15R,1.700000X1.700000*%
%ADD16O,1.700000X1.700000*%
%ADD17O,3.500000X1.350000*%
%ADD18RoundRect,0.250000X1.425000X-0.362500X1.425000X0.362500X-1.425000X0.362500X-1.425000X-0.362500X0*%
%ADD19RoundRect,0.100000X-0.637500X-0.100000X0.637500X-0.100000X0.637500X0.100000X-0.637500X0.100000X0*%
%ADD20R,1.500000X0.900000*%
%ADD21R,0.900000X1.500000*%
%ADD22C,0.600000*%
%ADD23R,3.800000X3.800000*%
%ADD24R,1.600000X1.600000*%
%ADD25C,1.600000*%
%ADD26R,1.500000X1.500000*%
%ADD27R,1.120000X2.440000*%
%ADD28R,1.500000X1.050000*%
%ADD29O,1.500000X1.050000*%
%ADD30O,3.048000X1.850000*%
G04 APERTURE END LIST*
D10*
X123222000Y-125038500D03*
X123222000Y-130963500D03*
D11*
X126982000Y-93676000D03*
X126982000Y-98676000D03*
D12*
X112482000Y-93676000D03*
D13*
X112482000Y-98676000D03*
X112482000Y-96176000D03*
D14*
X119982000Y-90576000D03*
X119982000Y-101776000D03*
D15*
X130407000Y-99526000D03*
D16*
X130407000Y-96986000D03*
X130407000Y-94446000D03*
D17*
X130382000Y-150951000D03*
X130382000Y-148951000D03*
X130382000Y-146951000D03*
X130382000Y-144951000D03*
X130382000Y-142951000D03*
X130382000Y-140951000D03*
X130382000Y-138951000D03*
X130382000Y-136951000D03*
X116388000Y-150951000D03*
X116388000Y-148951000D03*
X116388000Y-146951000D03*
X116388000Y-144951000D03*
X116388000Y-142951000D03*
X116388000Y-140951000D03*
X116388000Y-138951000D03*
X116388000Y-136951000D03*
D18*
X99682000Y-103226000D03*
X99682000Y-97301000D03*
D19*
X94319500Y-131101000D03*
X94319500Y-131751000D03*
X94319500Y-132401000D03*
X94319500Y-133051000D03*
X94319500Y-133701000D03*
X94319500Y-134351000D03*
X94319500Y-135001000D03*
X94319500Y-135651000D03*
X94319500Y-136301000D03*
X94319500Y-136951000D03*
X100044500Y-136951000D03*
X100044500Y-136301000D03*
X100044500Y-135651000D03*
X100044500Y-135001000D03*
X100044500Y-134351000D03*
X100044500Y-133701000D03*
X100044500Y-133051000D03*
X100044500Y-132401000D03*
X100044500Y-131751000D03*
X100044500Y-131101000D03*
D10*
X117222000Y-125038500D03*
X117222000Y-130963500D03*
D20*
X114652000Y-55700000D03*
X114652000Y-56970000D03*
X114652000Y-58240000D03*
X114652000Y-59510000D03*
X114652000Y-60780000D03*
X114652000Y-62050000D03*
X114652000Y-63320000D03*
X114652000Y-64590000D03*
X114652000Y-65860000D03*
X114652000Y-67130000D03*
X114652000Y-68400000D03*
X114652000Y-69670000D03*
X114652000Y-70940000D03*
X114652000Y-72210000D03*
D21*
X117692000Y-73460000D03*
X118962000Y-73460000D03*
X120232000Y-73460000D03*
X121502000Y-73460000D03*
X122772000Y-73460000D03*
X124042000Y-73460000D03*
X125312000Y-73460000D03*
X126582000Y-73460000D03*
X127852000Y-73460000D03*
X129122000Y-73460000D03*
D20*
X132152000Y-72210000D03*
X132152000Y-70940000D03*
X132152000Y-69670000D03*
X132152000Y-68400000D03*
X132152000Y-67130000D03*
X132152000Y-65860000D03*
X132152000Y-64590000D03*
X132152000Y-63320000D03*
X132152000Y-62050000D03*
X132152000Y-60780000D03*
X132152000Y-59510000D03*
X132152000Y-58240000D03*
X132152000Y-56970000D03*
X132152000Y-55700000D03*
D22*
X120502000Y-62720000D03*
X120502000Y-64120000D03*
X121202000Y-62020000D03*
X121202000Y-63420000D03*
X121202000Y-64820000D03*
X121877000Y-62720000D03*
X121877000Y-64120000D03*
D23*
X121902000Y-63420000D03*
D22*
X122602000Y-62020000D03*
X122602000Y-63420000D03*
X122602000Y-64820000D03*
X123302000Y-62720000D03*
X123302000Y-64120000D03*
D15*
X108957000Y-56326000D03*
D16*
X108957000Y-58866000D03*
X108957000Y-61406000D03*
X108957000Y-63946000D03*
X108957000Y-66486000D03*
X108957000Y-69026000D03*
X108957000Y-71566000D03*
X108957000Y-74106000D03*
X108957000Y-76646000D03*
X108957000Y-79186000D03*
X108957000Y-81726000D03*
X108957000Y-84266000D03*
X108957000Y-86806000D03*
X108957000Y-89346000D03*
X108957000Y-91886000D03*
X108957000Y-94426000D03*
X108957000Y-96966000D03*
X108957000Y-99506000D03*
X108957000Y-102046000D03*
X108957000Y-104586000D03*
X108957000Y-107126000D03*
X108957000Y-109666000D03*
X108957000Y-112206000D03*
X108957000Y-114746000D03*
X108957000Y-117286000D03*
X108957000Y-119826000D03*
X108957000Y-122366000D03*
X108957000Y-124906000D03*
X108957000Y-127446000D03*
X108957000Y-129986000D03*
X108957000Y-132526000D03*
X108957000Y-135066000D03*
X108957000Y-137606000D03*
X108957000Y-140146000D03*
X108957000Y-142686000D03*
X108957000Y-145226000D03*
X108957000Y-147766000D03*
X108957000Y-150306000D03*
X108957000Y-152846000D03*
D15*
X137982000Y-56326000D03*
D16*
X137982000Y-58866000D03*
X137982000Y-61406000D03*
X137982000Y-63946000D03*
X137982000Y-66486000D03*
X137982000Y-69026000D03*
X137982000Y-71566000D03*
X137982000Y-74106000D03*
X137982000Y-76646000D03*
X137982000Y-79186000D03*
X137982000Y-81726000D03*
X137982000Y-84266000D03*
X137982000Y-86806000D03*
X137982000Y-89346000D03*
X137982000Y-91886000D03*
X137982000Y-94426000D03*
X137982000Y-96966000D03*
X137982000Y-99506000D03*
X137982000Y-102046000D03*
X137982000Y-104586000D03*
X137982000Y-107126000D03*
X137982000Y-109666000D03*
X137982000Y-112206000D03*
X137982000Y-114746000D03*
X137982000Y-117286000D03*
X137982000Y-119826000D03*
X137982000Y-122366000D03*
X137982000Y-124906000D03*
X137982000Y-127446000D03*
X137982000Y-129986000D03*
X137982000Y-132526000D03*
X137982000Y-135066000D03*
X137982000Y-137606000D03*
X137982000Y-140146000D03*
X137982000Y-142686000D03*
X137982000Y-145226000D03*
X137982000Y-147766000D03*
X137982000Y-150306000D03*
X137982000Y-152846000D03*
D10*
X99882000Y-71163500D03*
X99882000Y-77088500D03*
D18*
X129722000Y-131013500D03*
X129722000Y-125088500D03*
D24*
X99732000Y-125431113D03*
D25*
X99732000Y-123431113D03*
D26*
X134600000Y-88026000D03*
D15*
X105782000Y-56300000D03*
D16*
X105782000Y-58840000D03*
X105782000Y-61380000D03*
X105782000Y-63920000D03*
X105782000Y-66460000D03*
X105782000Y-69000000D03*
X105782000Y-71540000D03*
X105782000Y-74080000D03*
X105782000Y-76620000D03*
X105782000Y-79160000D03*
X105782000Y-81700000D03*
X105782000Y-84240000D03*
X105782000Y-86780000D03*
X105782000Y-89320000D03*
X105782000Y-91860000D03*
X105782000Y-94400000D03*
X105782000Y-96940000D03*
X105782000Y-99480000D03*
X105782000Y-102020000D03*
X105782000Y-104560000D03*
X105782000Y-107100000D03*
X105782000Y-109640000D03*
X105782000Y-112180000D03*
X105782000Y-114720000D03*
X105782000Y-117260000D03*
X105782000Y-119800000D03*
X105782000Y-122340000D03*
X105782000Y-124880000D03*
X105782000Y-127420000D03*
X105782000Y-129960000D03*
X105782000Y-132500000D03*
X105782000Y-135040000D03*
X105782000Y-137580000D03*
X105782000Y-140120000D03*
X105782000Y-142660000D03*
X105782000Y-145200000D03*
X105782000Y-147740000D03*
X105782000Y-150280000D03*
X105782000Y-152820000D03*
D18*
X99882000Y-89888500D03*
X99882000Y-83963500D03*
D13*
X97532000Y-64076000D03*
X97532000Y-57576000D03*
X102032000Y-64076000D03*
X102032000Y-57576000D03*
D26*
X134600000Y-91576000D03*
D15*
X93500000Y-56276000D03*
D16*
X93500000Y-58816000D03*
X93500000Y-61356000D03*
X93500000Y-63896000D03*
X93500000Y-66436000D03*
X93500000Y-68976000D03*
X93500000Y-71516000D03*
X93500000Y-74056000D03*
X93500000Y-76596000D03*
X93500000Y-79136000D03*
X93500000Y-81676000D03*
X93500000Y-84216000D03*
X93500000Y-86756000D03*
X93500000Y-89296000D03*
X93500000Y-91836000D03*
X93500000Y-94376000D03*
X93500000Y-96916000D03*
X93500000Y-99456000D03*
X93500000Y-101996000D03*
X93500000Y-104536000D03*
X93500000Y-107076000D03*
X93500000Y-109616000D03*
X93500000Y-112156000D03*
X93500000Y-114696000D03*
X93500000Y-117236000D03*
X93500000Y-119776000D03*
X93500000Y-122316000D03*
X93500000Y-124856000D03*
X93500000Y-127396000D03*
D26*
X95082000Y-152926000D03*
X134600000Y-98876000D03*
D27*
X127002000Y-109726000D03*
X124462000Y-109726000D03*
X121922000Y-109726000D03*
X119382000Y-109726000D03*
X119382000Y-118336000D03*
X121922000Y-118336000D03*
X124462000Y-118336000D03*
X127002000Y-118336000D03*
D26*
X134600000Y-95326000D03*
D15*
X112047000Y-104566000D03*
D16*
X112047000Y-107106000D03*
X112047000Y-109646000D03*
X112047000Y-112186000D03*
X112047000Y-114726000D03*
X112047000Y-117266000D03*
X112047000Y-119806000D03*
X112047000Y-122346000D03*
X112047000Y-124886000D03*
X112047000Y-127426000D03*
X112047000Y-129966000D03*
X112047000Y-132506000D03*
X112047000Y-135046000D03*
X112047000Y-137586000D03*
X112047000Y-140126000D03*
X112047000Y-142666000D03*
X112047000Y-145206000D03*
X112047000Y-147746000D03*
X112047000Y-150286000D03*
X112047000Y-152826000D03*
D15*
X134907000Y-104566000D03*
D16*
X134907000Y-107106000D03*
X134907000Y-109646000D03*
X134907000Y-112186000D03*
X134907000Y-114726000D03*
X134907000Y-117266000D03*
X134907000Y-119806000D03*
X134907000Y-122346000D03*
X134907000Y-124886000D03*
X134907000Y-127426000D03*
X134907000Y-129966000D03*
X134907000Y-132506000D03*
X134907000Y-135046000D03*
X134907000Y-137586000D03*
X134907000Y-140126000D03*
X134907000Y-142666000D03*
X134907000Y-145206000D03*
X134907000Y-147746000D03*
X134907000Y-150286000D03*
X134907000Y-152826000D03*
D26*
X92182000Y-152926000D03*
D28*
X99600000Y-111560000D03*
D29*
X99600000Y-112830000D03*
X99600000Y-114100000D03*
D27*
X93490000Y-149031000D03*
X96030000Y-149031000D03*
X98570000Y-149031000D03*
X101110000Y-149031000D03*
X101110000Y-140421000D03*
X98570000Y-140421000D03*
X96030000Y-140421000D03*
X93490000Y-140421000D03*
D16*
X131622000Y-85366000D03*
X131622000Y-80286000D03*
D26*
X102382000Y-152926000D03*
X99482000Y-152926000D03*
D30*
X113032000Y-80326000D03*
X125532000Y-80326000D03*
X113032000Y-85326000D03*
X125532000Y-85326000D03*
M02*
