G04 #@! TF.GenerationSoftware,KiCad,Pcbnew,7.0.7*
G04 #@! TF.CreationDate,2023-10-26T11:16:57-04:00*
G04 #@! TF.ProjectId,sensor_node,73656e73-6f72-45f6-9e6f-64652e6b6963,rev?*
G04 #@! TF.SameCoordinates,Original*
G04 #@! TF.FileFunction,Paste,Top*
G04 #@! TF.FilePolarity,Positive*
%FSLAX46Y46*%
G04 Gerber Fmt 4.6, Leading zero omitted, Abs format (unit mm)*
G04 Created by KiCad (PCBNEW 7.0.7) date 2023-10-26 11:16:57*
%MOMM*%
%LPD*%
G01*
G04 APERTURE LIST*
G04 Aperture macros list*
%AMRoundRect*
0 Rectangle with rounded corners*
0 $1 Rounding radius*
0 $2 $3 $4 $5 $6 $7 $8 $9 X,Y pos of 4 corners*
0 Add a 4 corners polygon primitive as box body*
4,1,4,$2,$3,$4,$5,$6,$7,$8,$9,$2,$3,0*
0 Add four circle primitives for the rounded corners*
1,1,$1+$1,$2,$3*
1,1,$1+$1,$4,$5*
1,1,$1+$1,$6,$7*
1,1,$1+$1,$8,$9*
0 Add four rect primitives between the rounded corners*
20,1,$1+$1,$2,$3,$4,$5,0*
20,1,$1+$1,$4,$5,$6,$7,0*
20,1,$1+$1,$6,$7,$8,$9,0*
20,1,$1+$1,$8,$9,$2,$3,0*%
G04 Aperture macros list end*
%ADD10RoundRect,0.250000X-1.425000X0.362500X-1.425000X-0.362500X1.425000X-0.362500X1.425000X0.362500X0*%
%ADD11RoundRect,0.250000X1.425000X-0.362500X1.425000X0.362500X-1.425000X0.362500X-1.425000X-0.362500X0*%
%ADD12RoundRect,0.100000X-0.637500X-0.100000X0.637500X-0.100000X0.637500X0.100000X-0.637500X0.100000X0*%
%ADD13R,1.500000X0.900000*%
%ADD14R,0.900000X1.500000*%
%ADD15R,0.900000X0.900000*%
%ADD16R,1.120000X2.440000*%
G04 APERTURE END LIST*
D10*
X123222000Y-125038500D03*
X123222000Y-130963500D03*
D11*
X99682000Y-103226000D03*
X99682000Y-97301000D03*
D12*
X94319500Y-131101000D03*
X94319500Y-131751000D03*
X94319500Y-132401000D03*
X94319500Y-133051000D03*
X94319500Y-133701000D03*
X94319500Y-134351000D03*
X94319500Y-135001000D03*
X94319500Y-135651000D03*
X94319500Y-136301000D03*
X94319500Y-136951000D03*
X100044500Y-136951000D03*
X100044500Y-136301000D03*
X100044500Y-135651000D03*
X100044500Y-135001000D03*
X100044500Y-134351000D03*
X100044500Y-133701000D03*
X100044500Y-133051000D03*
X100044500Y-132401000D03*
X100044500Y-131751000D03*
X100044500Y-131101000D03*
D10*
X117222000Y-125038500D03*
X117222000Y-130963500D03*
D13*
X114652000Y-55700000D03*
X114652000Y-56970000D03*
X114652000Y-58240000D03*
X114652000Y-59510000D03*
X114652000Y-60780000D03*
X114652000Y-62050000D03*
X114652000Y-63320000D03*
X114652000Y-64590000D03*
X114652000Y-65860000D03*
X114652000Y-67130000D03*
X114652000Y-68400000D03*
X114652000Y-69670000D03*
X114652000Y-70940000D03*
X114652000Y-72210000D03*
D14*
X117692000Y-73460000D03*
X118962000Y-73460000D03*
X120232000Y-73460000D03*
X121502000Y-73460000D03*
X122772000Y-73460000D03*
X124042000Y-73460000D03*
X125312000Y-73460000D03*
X126582000Y-73460000D03*
X127852000Y-73460000D03*
X129122000Y-73460000D03*
D13*
X132152000Y-72210000D03*
X132152000Y-70940000D03*
X132152000Y-69670000D03*
X132152000Y-68400000D03*
X132152000Y-67130000D03*
X132152000Y-65860000D03*
X132152000Y-64590000D03*
X132152000Y-63320000D03*
X132152000Y-62050000D03*
X132152000Y-60780000D03*
X132152000Y-59510000D03*
X132152000Y-58240000D03*
X132152000Y-56970000D03*
X132152000Y-55700000D03*
D15*
X120502000Y-62020000D03*
X120502000Y-63420000D03*
X120502000Y-64820000D03*
X121902000Y-62020000D03*
X121902000Y-63420000D03*
X121902000Y-64820000D03*
X123302000Y-62020000D03*
X123302000Y-63420000D03*
X123302000Y-64820000D03*
D10*
X99882000Y-71163500D03*
X99882000Y-77088500D03*
D11*
X129722000Y-131013500D03*
X129722000Y-125088500D03*
X99882000Y-89888500D03*
X99882000Y-83963500D03*
D16*
X127002000Y-109726000D03*
X124462000Y-109726000D03*
X121922000Y-109726000D03*
X119382000Y-109726000D03*
X119382000Y-118336000D03*
X121922000Y-118336000D03*
X124462000Y-118336000D03*
X127002000Y-118336000D03*
X93490000Y-149031000D03*
X96030000Y-149031000D03*
X98570000Y-149031000D03*
X101110000Y-149031000D03*
X101110000Y-140421000D03*
X98570000Y-140421000D03*
X96030000Y-140421000D03*
X93490000Y-140421000D03*
M02*
