G04 #@! TF.GenerationSoftware,KiCad,Pcbnew,7.0.7*
G04 #@! TF.CreationDate,2023-10-26T11:16:57-04:00*
G04 #@! TF.ProjectId,sensor_node,73656e73-6f72-45f6-9e6f-64652e6b6963,rev?*
G04 #@! TF.SameCoordinates,Original*
G04 #@! TF.FileFunction,Copper,L1,Top*
G04 #@! TF.FilePolarity,Positive*
%FSLAX46Y46*%
G04 Gerber Fmt 4.6, Leading zero omitted, Abs format (unit mm)*
G04 Created by KiCad (PCBNEW 7.0.7) date 2023-10-26 11:16:57*
%MOMM*%
%LPD*%
G01*
G04 APERTURE LIST*
G04 Aperture macros list*
%AMRoundRect*
0 Rectangle with rounded corners*
0 $1 Rounding radius*
0 $2 $3 $4 $5 $6 $7 $8 $9 X,Y pos of 4 corners*
0 Add a 4 corners polygon primitive as box body*
4,1,4,$2,$3,$4,$5,$6,$7,$8,$9,$2,$3,0*
0 Add four circle primitives for the rounded corners*
1,1,$1+$1,$2,$3*
1,1,$1+$1,$4,$5*
1,1,$1+$1,$6,$7*
1,1,$1+$1,$8,$9*
0 Add four rect primitives between the rounded corners*
20,1,$1+$1,$2,$3,$4,$5,0*
20,1,$1+$1,$4,$5,$6,$7,0*
20,1,$1+$1,$6,$7,$8,$9,0*
20,1,$1+$1,$8,$9,$2,$3,0*%
G04 Aperture macros list end*
G04 #@! TA.AperFunction,SMDPad,CuDef*
%ADD10RoundRect,0.250000X-1.425000X0.362500X-1.425000X-0.362500X1.425000X-0.362500X1.425000X0.362500X0*%
G04 #@! TD*
G04 #@! TA.AperFunction,ComponentPad*
%ADD11C,1.500000*%
G04 #@! TD*
G04 #@! TA.AperFunction,ComponentPad*
%ADD12R,2.000000X2.000000*%
G04 #@! TD*
G04 #@! TA.AperFunction,ComponentPad*
%ADD13C,2.000000*%
G04 #@! TD*
G04 #@! TA.AperFunction,ComponentPad*
%ADD14R,3.200000X2.000000*%
G04 #@! TD*
G04 #@! TA.AperFunction,ComponentPad*
%ADD15R,1.700000X1.700000*%
G04 #@! TD*
G04 #@! TA.AperFunction,ComponentPad*
%ADD16O,1.700000X1.700000*%
G04 #@! TD*
G04 #@! TA.AperFunction,ComponentPad*
%ADD17O,3.500000X1.350000*%
G04 #@! TD*
G04 #@! TA.AperFunction,SMDPad,CuDef*
%ADD18RoundRect,0.250000X1.425000X-0.362500X1.425000X0.362500X-1.425000X0.362500X-1.425000X-0.362500X0*%
G04 #@! TD*
G04 #@! TA.AperFunction,SMDPad,CuDef*
%ADD19RoundRect,0.100000X-0.637500X-0.100000X0.637500X-0.100000X0.637500X0.100000X-0.637500X0.100000X0*%
G04 #@! TD*
G04 #@! TA.AperFunction,SMDPad,CuDef*
%ADD20R,1.500000X0.900000*%
G04 #@! TD*
G04 #@! TA.AperFunction,SMDPad,CuDef*
%ADD21R,0.900000X1.500000*%
G04 #@! TD*
G04 #@! TA.AperFunction,SMDPad,CuDef*
%ADD22R,0.900000X0.900000*%
G04 #@! TD*
G04 #@! TA.AperFunction,HeatsinkPad*
%ADD23C,0.600000*%
G04 #@! TD*
G04 #@! TA.AperFunction,SMDPad,CuDef*
%ADD24R,3.800000X3.800000*%
G04 #@! TD*
G04 #@! TA.AperFunction,ComponentPad*
%ADD25R,1.600000X1.600000*%
G04 #@! TD*
G04 #@! TA.AperFunction,ComponentPad*
%ADD26C,1.600000*%
G04 #@! TD*
G04 #@! TA.AperFunction,SMDPad,CuDef*
%ADD27R,1.500000X1.500000*%
G04 #@! TD*
G04 #@! TA.AperFunction,SMDPad,CuDef*
%ADD28R,1.120000X2.440000*%
G04 #@! TD*
G04 #@! TA.AperFunction,ComponentPad*
%ADD29R,1.500000X1.050000*%
G04 #@! TD*
G04 #@! TA.AperFunction,ComponentPad*
%ADD30O,1.500000X1.050000*%
G04 #@! TD*
G04 #@! TA.AperFunction,ComponentPad*
%ADD31O,3.048000X1.850000*%
G04 #@! TD*
G04 #@! TA.AperFunction,ViaPad*
%ADD32C,0.800000*%
G04 #@! TD*
G04 #@! TA.AperFunction,Conductor*
%ADD33C,0.200000*%
G04 #@! TD*
G04 #@! TA.AperFunction,Conductor*
%ADD34C,0.150000*%
G04 #@! TD*
G04 #@! TA.AperFunction,Conductor*
%ADD35C,0.400000*%
G04 #@! TD*
G04 APERTURE END LIST*
D10*
X123222000Y-125038500D03*
X123222000Y-130963500D03*
D11*
X126982000Y-93676000D03*
X126982000Y-98676000D03*
D12*
X112482000Y-93676000D03*
D13*
X112482000Y-98676000D03*
X112482000Y-96176000D03*
D14*
X119982000Y-90576000D03*
X119982000Y-101776000D03*
D15*
X130407000Y-99526000D03*
D16*
X130407000Y-96986000D03*
X130407000Y-94446000D03*
D17*
X130382000Y-150951000D03*
X130382000Y-148951000D03*
X130382000Y-146951000D03*
X130382000Y-144951000D03*
X130382000Y-142951000D03*
X130382000Y-140951000D03*
X130382000Y-138951000D03*
X130382000Y-136951000D03*
X116388000Y-150951000D03*
X116388000Y-148951000D03*
X116388000Y-146951000D03*
X116388000Y-144951000D03*
X116388000Y-142951000D03*
X116388000Y-140951000D03*
X116388000Y-138951000D03*
X116388000Y-136951000D03*
D18*
X99682000Y-103226000D03*
X99682000Y-97301000D03*
D19*
X94319500Y-131101000D03*
X94319500Y-131751000D03*
X94319500Y-132401000D03*
X94319500Y-133051000D03*
X94319500Y-133701000D03*
X94319500Y-134351000D03*
X94319500Y-135001000D03*
X94319500Y-135651000D03*
X94319500Y-136301000D03*
X94319500Y-136951000D03*
X100044500Y-136951000D03*
X100044500Y-136301000D03*
X100044500Y-135651000D03*
X100044500Y-135001000D03*
X100044500Y-134351000D03*
X100044500Y-133701000D03*
X100044500Y-133051000D03*
X100044500Y-132401000D03*
X100044500Y-131751000D03*
X100044500Y-131101000D03*
D10*
X117222000Y-125038500D03*
X117222000Y-130963500D03*
D20*
X114652000Y-55700000D03*
X114652000Y-56970000D03*
X114652000Y-58240000D03*
X114652000Y-59510000D03*
X114652000Y-60780000D03*
X114652000Y-62050000D03*
X114652000Y-63320000D03*
X114652000Y-64590000D03*
X114652000Y-65860000D03*
X114652000Y-67130000D03*
X114652000Y-68400000D03*
X114652000Y-69670000D03*
X114652000Y-70940000D03*
X114652000Y-72210000D03*
D21*
X117692000Y-73460000D03*
X118962000Y-73460000D03*
X120232000Y-73460000D03*
X121502000Y-73460000D03*
X122772000Y-73460000D03*
X124042000Y-73460000D03*
X125312000Y-73460000D03*
X126582000Y-73460000D03*
X127852000Y-73460000D03*
X129122000Y-73460000D03*
D20*
X132152000Y-72210000D03*
X132152000Y-70940000D03*
X132152000Y-69670000D03*
X132152000Y-68400000D03*
X132152000Y-67130000D03*
X132152000Y-65860000D03*
X132152000Y-64590000D03*
X132152000Y-63320000D03*
X132152000Y-62050000D03*
X132152000Y-60780000D03*
X132152000Y-59510000D03*
X132152000Y-58240000D03*
X132152000Y-56970000D03*
X132152000Y-55700000D03*
D22*
X120502000Y-62020000D03*
D23*
X120502000Y-62720000D03*
D22*
X120502000Y-63420000D03*
D23*
X120502000Y-64120000D03*
D22*
X120502000Y-64820000D03*
D23*
X121202000Y-62020000D03*
X121202000Y-63420000D03*
X121202000Y-64820000D03*
X121877000Y-62720000D03*
X121877000Y-64120000D03*
D22*
X121902000Y-62020000D03*
X121902000Y-63420000D03*
D24*
X121902000Y-63420000D03*
D22*
X121902000Y-64820000D03*
D23*
X122602000Y-62020000D03*
X122602000Y-63420000D03*
X122602000Y-64820000D03*
D22*
X123302000Y-62020000D03*
D23*
X123302000Y-62720000D03*
D22*
X123302000Y-63420000D03*
D23*
X123302000Y-64120000D03*
D22*
X123302000Y-64820000D03*
D15*
X108957000Y-56326000D03*
D16*
X108957000Y-58866000D03*
X108957000Y-61406000D03*
X108957000Y-63946000D03*
X108957000Y-66486000D03*
X108957000Y-69026000D03*
X108957000Y-71566000D03*
X108957000Y-74106000D03*
X108957000Y-76646000D03*
X108957000Y-79186000D03*
X108957000Y-81726000D03*
X108957000Y-84266000D03*
X108957000Y-86806000D03*
X108957000Y-89346000D03*
X108957000Y-91886000D03*
X108957000Y-94426000D03*
X108957000Y-96966000D03*
X108957000Y-99506000D03*
X108957000Y-102046000D03*
X108957000Y-104586000D03*
X108957000Y-107126000D03*
X108957000Y-109666000D03*
X108957000Y-112206000D03*
X108957000Y-114746000D03*
X108957000Y-117286000D03*
X108957000Y-119826000D03*
X108957000Y-122366000D03*
X108957000Y-124906000D03*
X108957000Y-127446000D03*
X108957000Y-129986000D03*
X108957000Y-132526000D03*
X108957000Y-135066000D03*
X108957000Y-137606000D03*
X108957000Y-140146000D03*
X108957000Y-142686000D03*
X108957000Y-145226000D03*
X108957000Y-147766000D03*
X108957000Y-150306000D03*
X108957000Y-152846000D03*
D15*
X137982000Y-56326000D03*
D16*
X137982000Y-58866000D03*
X137982000Y-61406000D03*
X137982000Y-63946000D03*
X137982000Y-66486000D03*
X137982000Y-69026000D03*
X137982000Y-71566000D03*
X137982000Y-74106000D03*
X137982000Y-76646000D03*
X137982000Y-79186000D03*
X137982000Y-81726000D03*
X137982000Y-84266000D03*
X137982000Y-86806000D03*
X137982000Y-89346000D03*
X137982000Y-91886000D03*
X137982000Y-94426000D03*
X137982000Y-96966000D03*
X137982000Y-99506000D03*
X137982000Y-102046000D03*
X137982000Y-104586000D03*
X137982000Y-107126000D03*
X137982000Y-109666000D03*
X137982000Y-112206000D03*
X137982000Y-114746000D03*
X137982000Y-117286000D03*
X137982000Y-119826000D03*
X137982000Y-122366000D03*
X137982000Y-124906000D03*
X137982000Y-127446000D03*
X137982000Y-129986000D03*
X137982000Y-132526000D03*
X137982000Y-135066000D03*
X137982000Y-137606000D03*
X137982000Y-140146000D03*
X137982000Y-142686000D03*
X137982000Y-145226000D03*
X137982000Y-147766000D03*
X137982000Y-150306000D03*
X137982000Y-152846000D03*
D10*
X99882000Y-71163500D03*
X99882000Y-77088500D03*
D18*
X129722000Y-131013500D03*
X129722000Y-125088500D03*
D25*
X99732000Y-125431113D03*
D26*
X99732000Y-123431113D03*
D27*
X134600000Y-88026000D03*
D15*
X105782000Y-56300000D03*
D16*
X105782000Y-58840000D03*
X105782000Y-61380000D03*
X105782000Y-63920000D03*
X105782000Y-66460000D03*
X105782000Y-69000000D03*
X105782000Y-71540000D03*
X105782000Y-74080000D03*
X105782000Y-76620000D03*
X105782000Y-79160000D03*
X105782000Y-81700000D03*
X105782000Y-84240000D03*
X105782000Y-86780000D03*
X105782000Y-89320000D03*
X105782000Y-91860000D03*
X105782000Y-94400000D03*
X105782000Y-96940000D03*
X105782000Y-99480000D03*
X105782000Y-102020000D03*
X105782000Y-104560000D03*
X105782000Y-107100000D03*
X105782000Y-109640000D03*
X105782000Y-112180000D03*
X105782000Y-114720000D03*
X105782000Y-117260000D03*
X105782000Y-119800000D03*
X105782000Y-122340000D03*
X105782000Y-124880000D03*
X105782000Y-127420000D03*
X105782000Y-129960000D03*
X105782000Y-132500000D03*
X105782000Y-135040000D03*
X105782000Y-137580000D03*
X105782000Y-140120000D03*
X105782000Y-142660000D03*
X105782000Y-145200000D03*
X105782000Y-147740000D03*
X105782000Y-150280000D03*
X105782000Y-152820000D03*
D18*
X99882000Y-89888500D03*
X99882000Y-83963500D03*
D13*
X97532000Y-64076000D03*
X97532000Y-57576000D03*
X102032000Y-64076000D03*
X102032000Y-57576000D03*
D27*
X134600000Y-91576000D03*
D15*
X93500000Y-56276000D03*
D16*
X93500000Y-58816000D03*
X93500000Y-61356000D03*
X93500000Y-63896000D03*
X93500000Y-66436000D03*
X93500000Y-68976000D03*
X93500000Y-71516000D03*
X93500000Y-74056000D03*
X93500000Y-76596000D03*
X93500000Y-79136000D03*
X93500000Y-81676000D03*
X93500000Y-84216000D03*
X93500000Y-86756000D03*
X93500000Y-89296000D03*
X93500000Y-91836000D03*
X93500000Y-94376000D03*
X93500000Y-96916000D03*
X93500000Y-99456000D03*
X93500000Y-101996000D03*
X93500000Y-104536000D03*
X93500000Y-107076000D03*
X93500000Y-109616000D03*
X93500000Y-112156000D03*
X93500000Y-114696000D03*
X93500000Y-117236000D03*
X93500000Y-119776000D03*
X93500000Y-122316000D03*
X93500000Y-124856000D03*
X93500000Y-127396000D03*
D27*
X95082000Y-152926000D03*
X134600000Y-98876000D03*
D28*
X127002000Y-109726000D03*
X124462000Y-109726000D03*
X121922000Y-109726000D03*
X119382000Y-109726000D03*
X119382000Y-118336000D03*
X121922000Y-118336000D03*
X124462000Y-118336000D03*
X127002000Y-118336000D03*
D27*
X134600000Y-95326000D03*
D15*
X112047000Y-104566000D03*
D16*
X112047000Y-107106000D03*
X112047000Y-109646000D03*
X112047000Y-112186000D03*
X112047000Y-114726000D03*
X112047000Y-117266000D03*
X112047000Y-119806000D03*
X112047000Y-122346000D03*
X112047000Y-124886000D03*
X112047000Y-127426000D03*
X112047000Y-129966000D03*
X112047000Y-132506000D03*
X112047000Y-135046000D03*
X112047000Y-137586000D03*
X112047000Y-140126000D03*
X112047000Y-142666000D03*
X112047000Y-145206000D03*
X112047000Y-147746000D03*
X112047000Y-150286000D03*
X112047000Y-152826000D03*
D15*
X134907000Y-104566000D03*
D16*
X134907000Y-107106000D03*
X134907000Y-109646000D03*
X134907000Y-112186000D03*
X134907000Y-114726000D03*
X134907000Y-117266000D03*
X134907000Y-119806000D03*
X134907000Y-122346000D03*
X134907000Y-124886000D03*
X134907000Y-127426000D03*
X134907000Y-129966000D03*
X134907000Y-132506000D03*
X134907000Y-135046000D03*
X134907000Y-137586000D03*
X134907000Y-140126000D03*
X134907000Y-142666000D03*
X134907000Y-145206000D03*
X134907000Y-147746000D03*
X134907000Y-150286000D03*
X134907000Y-152826000D03*
D27*
X92182000Y-152926000D03*
D29*
X99600000Y-111560000D03*
D30*
X99600000Y-112830000D03*
X99600000Y-114100000D03*
D28*
X93490000Y-149031000D03*
X96030000Y-149031000D03*
X98570000Y-149031000D03*
X101110000Y-149031000D03*
X101110000Y-140421000D03*
X98570000Y-140421000D03*
X96030000Y-140421000D03*
X93490000Y-140421000D03*
D16*
X131622000Y-85366000D03*
X131622000Y-80286000D03*
D27*
X102382000Y-152926000D03*
X99482000Y-152926000D03*
D31*
X113032000Y-80326000D03*
X125532000Y-80326000D03*
X113032000Y-85326000D03*
X125532000Y-85326000D03*
D32*
X131099500Y-116800000D03*
X95400000Y-99900000D03*
X94700000Y-116000000D03*
X94500000Y-129200000D03*
X92000000Y-103600000D03*
X91500000Y-56000000D03*
X99882000Y-71163500D03*
X95000000Y-98200000D03*
X132300000Y-103200000D03*
X128100000Y-65200000D03*
X128000000Y-69600000D03*
X102800000Y-71700000D03*
X122500500Y-123200000D03*
X122200000Y-88100000D03*
X128300000Y-57700000D03*
X103100000Y-87665686D03*
X125800000Y-71800000D03*
X110838673Y-99761327D03*
X134100500Y-102600000D03*
X103302233Y-68281590D03*
X97900500Y-106900000D03*
X129300000Y-129500000D03*
X129600500Y-105799500D03*
X96622000Y-77178000D03*
X117222000Y-130963500D03*
X117382500Y-114800000D03*
X127000500Y-130900000D03*
X95100000Y-59100000D03*
X114700000Y-59700000D03*
X97900500Y-108700000D03*
X95800000Y-65600000D03*
X117100000Y-132400000D03*
X104300000Y-143800000D03*
X116399500Y-117400000D03*
X120900000Y-132400000D03*
X121500000Y-140400000D03*
X113459051Y-143440949D03*
X114652000Y-60946000D03*
X99882000Y-83963500D03*
X126900000Y-64600000D03*
X128600000Y-120799500D03*
X96500000Y-66800000D03*
X129100000Y-81600000D03*
X114700000Y-63300000D03*
X100600000Y-91836000D03*
X116982500Y-90700000D03*
X99682000Y-97301000D03*
X100600000Y-120800000D03*
X130400000Y-126900000D03*
X127200000Y-118300000D03*
X124100500Y-134600000D03*
X129439597Y-83839597D03*
X124800000Y-92376000D03*
X125900000Y-95200000D03*
X128199500Y-114200000D03*
X130200000Y-58500000D03*
X114700000Y-72400000D03*
X117400500Y-106300000D03*
X91899500Y-133400000D03*
X94300000Y-138100000D03*
X93049500Y-129600000D03*
X97500000Y-137700000D03*
X125400000Y-56300500D03*
X95000000Y-143700000D03*
X99300500Y-138300000D03*
X122200000Y-149800000D03*
X128400000Y-55700000D03*
X102800000Y-123200000D03*
X114700500Y-100400000D03*
X113900000Y-89600000D03*
X110900000Y-75300000D03*
X103200500Y-92000000D03*
X102300000Y-82100000D03*
X97499500Y-136412533D03*
X97300000Y-114800000D03*
X98800000Y-117200000D03*
X96788105Y-134711895D03*
X120500000Y-84300000D03*
X97100000Y-113600000D03*
X114800000Y-131100000D03*
X120500000Y-76000000D03*
X133100000Y-135736500D03*
X95792622Y-87992622D03*
X103700000Y-117200000D03*
X97800000Y-81600000D03*
X104300000Y-81200000D03*
X98200000Y-121900000D03*
X96900000Y-133700000D03*
X102200000Y-75900000D03*
X101200000Y-122331113D03*
X129400000Y-127800000D03*
X98589035Y-133001500D03*
X99395397Y-127084641D03*
X116582495Y-98800000D03*
X114700000Y-128700000D03*
X101100000Y-140400000D03*
X100094897Y-129500000D03*
X100000000Y-141941000D03*
X100900000Y-130100000D03*
X123000000Y-136176201D03*
X124462000Y-109726000D03*
X124155378Y-68655378D03*
X123100000Y-67900000D03*
X122000000Y-135200000D03*
X121922000Y-109726000D03*
X119382000Y-109726000D03*
X120000000Y-138100000D03*
X120600000Y-70400000D03*
X114000000Y-104100000D03*
X95258879Y-129850468D03*
X121922000Y-118336000D03*
X121000000Y-104600000D03*
X95200000Y-103100000D03*
X95100000Y-93100000D03*
X95847601Y-132198809D03*
X96900000Y-118600000D03*
X114700000Y-58400000D03*
X129500000Y-131000000D03*
X118300000Y-128800000D03*
X118500000Y-120700500D03*
X127000000Y-127399500D03*
X117100000Y-77599500D03*
X127000000Y-123500000D03*
X112800000Y-59800000D03*
X127900000Y-112000000D03*
X127000000Y-90200000D03*
X117300000Y-83700000D03*
X99500000Y-153100000D03*
X114700000Y-64800000D03*
X125300000Y-137500000D03*
X114200000Y-109400000D03*
X114652000Y-66026000D03*
X127100000Y-153700000D03*
X115700500Y-87400000D03*
X129299500Y-118500000D03*
X134504000Y-87804000D03*
X128700000Y-99700000D03*
X115700500Y-97400000D03*
X130600000Y-63000000D03*
X110700000Y-67900000D03*
X135700000Y-67100000D03*
X136132500Y-69500000D03*
X139401160Y-69321030D03*
X136132500Y-71100000D03*
X103500000Y-138225500D03*
X132200000Y-72300000D03*
X131099500Y-119500000D03*
X127599500Y-138000000D03*
X130500000Y-121800000D03*
X129200000Y-73700000D03*
X133899500Y-79200000D03*
X132300000Y-61000000D03*
X134999025Y-64073075D03*
X128900000Y-63100000D03*
X130400000Y-82700500D03*
X127002000Y-109726000D03*
X123906851Y-135606851D03*
X125089858Y-69009995D03*
X97300000Y-147000000D03*
X114800000Y-57100000D03*
X101100000Y-128600000D03*
X94500000Y-126200000D03*
X99882000Y-77088500D03*
X119750000Y-147050000D03*
X99600000Y-92800000D03*
X92182000Y-152926000D03*
X99682000Y-103226000D03*
X115349500Y-102500500D03*
X99000000Y-100400500D03*
X96100000Y-137400000D03*
X121600000Y-147800000D03*
X99882000Y-89888500D03*
X117222000Y-125038500D03*
X117600000Y-111400000D03*
X134000000Y-65200000D03*
X134733000Y-100600000D03*
X132101795Y-87501795D03*
X136300500Y-77916245D03*
D33*
X91950000Y-99250000D02*
X93000000Y-98200000D01*
X105215654Y-116000000D02*
X105315654Y-116100000D01*
X96600000Y-101100000D02*
X104862000Y-101100000D01*
X93900000Y-98200000D02*
X95400000Y-99700000D01*
X92000000Y-103600000D02*
X91950000Y-103550000D01*
X94500000Y-130920500D02*
X94319500Y-131101000D01*
X130799500Y-116500000D02*
X121218000Y-116500000D01*
X121218000Y-116500000D02*
X119382000Y-118336000D01*
X91950000Y-103550000D02*
X91950000Y-99250000D01*
X105315654Y-116100000D02*
X117146000Y-116100000D01*
X94700000Y-116000000D02*
X105215654Y-116000000D01*
X93000000Y-98200000D02*
X93900000Y-98200000D01*
X117146000Y-116100000D02*
X119382000Y-118336000D01*
X95400000Y-99700000D02*
X95400000Y-99900000D01*
X94500000Y-129200000D02*
X94500000Y-130920500D01*
X131099500Y-116800000D02*
X130799500Y-116500000D01*
X95400000Y-99900000D02*
X96600000Y-101100000D01*
X104862000Y-101100000D02*
X105782000Y-102020000D01*
X105782000Y-152820000D02*
X104239000Y-152820000D01*
X130382000Y-150951000D02*
X128333000Y-153000000D01*
X99557000Y-150551000D02*
X96132000Y-153976000D01*
X106958000Y-153996000D02*
X105782000Y-152820000D01*
X112503346Y-153996000D02*
X106958000Y-153996000D01*
X90800000Y-151536000D02*
X90800000Y-56700000D01*
X91132000Y-151868000D02*
X90800000Y-151536000D01*
X104239000Y-152820000D02*
X101970000Y-150551000D01*
X113499346Y-153000000D02*
X112503346Y-153996000D01*
X101970000Y-150551000D02*
X99557000Y-150551000D01*
X91132000Y-153976000D02*
X91132000Y-151868000D01*
X128333000Y-153000000D02*
X113499346Y-153000000D01*
X90800000Y-56700000D02*
X91500000Y-56000000D01*
X96132000Y-153976000D02*
X91132000Y-153976000D01*
X119916858Y-139926000D02*
X114909142Y-139926000D01*
X120891858Y-138951000D02*
X119916858Y-139926000D01*
X106962000Y-141300000D02*
X105782000Y-140120000D01*
X114909142Y-139926000D02*
X113535142Y-141300000D01*
X113535142Y-141300000D02*
X106962000Y-141300000D01*
X130382000Y-138951000D02*
X120891858Y-138951000D01*
X112833142Y-143900000D02*
X107022000Y-143900000D01*
X122849000Y-140951000D02*
X117860327Y-145939673D01*
X117860327Y-145939673D02*
X114872815Y-145939673D01*
X114872815Y-145939673D02*
X112833142Y-143900000D01*
X107022000Y-143900000D02*
X105782000Y-142660000D01*
X130982000Y-140951000D02*
X122849000Y-140951000D01*
X92200000Y-56289950D02*
X92200000Y-55276000D01*
X125975000Y-54675000D02*
X126550000Y-55250000D01*
X127344364Y-102900000D02*
X124920364Y-100476000D01*
X95500000Y-98200000D02*
X96780000Y-99480000D01*
X132000000Y-102900000D02*
X132300000Y-103200000D01*
X117458000Y-101100000D02*
X114400000Y-101100000D01*
X108696000Y-100896000D02*
X107280000Y-99480000D01*
X127600000Y-56300000D02*
X127600000Y-64000000D01*
X114196000Y-100896000D02*
X108696000Y-100896000D01*
X131622000Y-67296000D02*
X132152000Y-67296000D01*
X128100000Y-64500000D02*
X128100000Y-65200000D01*
X118082000Y-100476000D02*
X117458000Y-101100000D01*
X95000000Y-98200000D02*
X95500000Y-98200000D01*
X128000000Y-69600000D02*
X129318000Y-69600000D01*
X124920364Y-100476000D02*
X118082000Y-100476000D01*
X126550000Y-55250000D02*
X127600000Y-56300000D01*
X107280000Y-99480000D02*
X105782000Y-99480000D01*
X92200000Y-55276000D02*
X92676000Y-54800000D01*
X126550000Y-55250000D02*
X126600000Y-55300000D01*
X129318000Y-69600000D02*
X131622000Y-67296000D01*
X113628894Y-54800000D02*
X113753894Y-54675000D01*
X93500000Y-63896000D02*
X91400500Y-61796500D01*
X127800000Y-69600000D02*
X128000000Y-69600000D01*
X127600000Y-64000000D02*
X128100000Y-64500000D01*
X130900500Y-102900000D02*
X132000000Y-102900000D01*
X96780000Y-99480000D02*
X105782000Y-99480000D01*
X92676000Y-54800000D02*
X113628894Y-54800000D01*
X91400500Y-57089450D02*
X92200000Y-56289950D01*
X114400000Y-101100000D02*
X114196000Y-100896000D01*
X91400500Y-61796500D02*
X91400500Y-57089450D01*
X130900500Y-102900000D02*
X127344364Y-102900000D01*
X113753894Y-54675000D02*
X125975000Y-54675000D01*
X107122000Y-70200000D02*
X105782000Y-71540000D01*
X125600000Y-72000000D02*
X117518000Y-72000000D01*
X131819686Y-122346000D02*
X130165686Y-124000000D01*
X103534314Y-88100000D02*
X122200000Y-88100000D01*
X113500000Y-75300000D02*
X110107000Y-71907000D01*
X103218000Y-68976000D02*
X93500000Y-68976000D01*
X102800000Y-71700000D02*
X102960000Y-71540000D01*
X125800000Y-71800000D02*
X125600000Y-72000000D01*
X128300000Y-57700000D02*
X128864000Y-57136000D01*
X116942000Y-72576000D02*
X116942000Y-74058000D01*
X127289950Y-124200000D02*
X124948817Y-124200000D01*
X109217346Y-70200000D02*
X107122000Y-70200000D01*
X116942000Y-74058000D02*
X115700000Y-75300000D01*
X123948817Y-123200000D02*
X122500500Y-123200000D01*
X134907000Y-122346000D02*
X131819686Y-122346000D01*
X110107000Y-71907000D02*
X110107000Y-71089654D01*
X124948817Y-124200000D02*
X123948817Y-123200000D01*
X102960000Y-71540000D02*
X105782000Y-71540000D01*
X130165686Y-124000000D02*
X127489950Y-124000000D01*
X115700000Y-75300000D02*
X113500000Y-75300000D01*
X127489950Y-124000000D02*
X127289950Y-124200000D01*
X103100000Y-87665686D02*
X103534314Y-88100000D01*
X105782000Y-71540000D02*
X103218000Y-68976000D01*
X128864000Y-57136000D02*
X132152000Y-57136000D01*
X117518000Y-72000000D02*
X116942000Y-72576000D01*
X110107000Y-71089654D02*
X109217346Y-70200000D01*
X93500000Y-71516000D02*
X92350000Y-70366000D01*
X94431936Y-68281590D02*
X103302233Y-68281590D01*
X105782000Y-69000000D02*
X104020643Y-69000000D01*
X124710050Y-99700000D02*
X113296478Y-99700000D01*
X133376000Y-100676000D02*
X125686050Y-100676000D01*
X116542000Y-72858000D02*
X116542000Y-72410314D01*
X92783654Y-67826000D02*
X93976346Y-67826000D01*
X117352315Y-71600000D02*
X125010050Y-71600000D01*
X113665686Y-74900000D02*
X114500000Y-74900000D01*
X113296478Y-99700000D02*
X113020478Y-99976000D01*
X92350000Y-68259654D02*
X92783654Y-67826000D01*
X125686050Y-100676000D02*
X124710050Y-99700000D01*
X105782000Y-69000000D02*
X106906000Y-67876000D01*
X111200000Y-72434314D02*
X113665686Y-74900000D01*
X104020643Y-69000000D02*
X103302233Y-68281590D01*
X93976346Y-67826000D02*
X94431936Y-68281590D01*
X114500000Y-74900000D02*
X116542000Y-72858000D01*
X130584050Y-66026000D02*
X132152000Y-66026000D01*
X134100500Y-101400500D02*
X133376000Y-100676000D01*
X111200000Y-69600000D02*
X111200000Y-72434314D01*
X116542000Y-72410314D02*
X117352315Y-71600000D01*
X134100500Y-102600000D02*
X134100500Y-101400500D01*
X111053346Y-99976000D02*
X110838673Y-99761327D01*
X109476000Y-67876000D02*
X111200000Y-69600000D01*
X106906000Y-67876000D02*
X109476000Y-67876000D01*
X92350000Y-70366000D02*
X92350000Y-68259654D01*
X125010050Y-71600000D02*
X130584050Y-66026000D01*
X113020478Y-99976000D02*
X111053346Y-99976000D01*
X110329346Y-76900000D02*
X127648000Y-76900000D01*
X98100500Y-107100000D02*
X105782000Y-107100000D01*
X111492000Y-110800000D02*
X110900000Y-110800000D01*
X97900500Y-106900000D02*
X98100500Y-107100000D01*
X110900000Y-110800000D02*
X110107000Y-110007000D01*
X109433346Y-108516000D02*
X107198000Y-108516000D01*
X131697000Y-130423183D02*
X131697000Y-131836000D01*
X115604000Y-110796000D02*
X111496000Y-110796000D01*
X110107000Y-110007000D02*
X110107000Y-109189654D01*
X96622000Y-77178000D02*
X97445000Y-78001000D01*
X130773817Y-129500000D02*
X131697000Y-130423183D01*
X128087378Y-107312622D02*
X119087378Y-107312622D01*
X131100000Y-73448000D02*
X131100000Y-71208000D01*
X110107000Y-109189654D02*
X109433346Y-108516000D01*
X107198000Y-108516000D02*
X105782000Y-107100000D01*
X97445000Y-78001000D02*
X109228346Y-78001000D01*
X119087378Y-107312622D02*
X115604000Y-110796000D01*
X93500000Y-74056000D02*
X96622000Y-77178000D01*
X131697000Y-131836000D02*
X134907000Y-135046000D01*
X129600500Y-105799500D02*
X128087378Y-107312622D01*
X131202000Y-71106000D02*
X132152000Y-71106000D01*
X127648000Y-76900000D02*
X131100000Y-73448000D01*
X111496000Y-110796000D02*
X111492000Y-110800000D01*
X109228346Y-78001000D02*
X110329346Y-76900000D01*
X131100000Y-71208000D02*
X131202000Y-71106000D01*
X129300000Y-129500000D02*
X130773817Y-129500000D01*
X104095654Y-58900000D02*
X105305654Y-57690000D01*
X97900500Y-108700000D02*
X98110500Y-108490000D01*
X112047000Y-114726000D02*
X116526000Y-114726000D01*
X114652000Y-59676000D02*
X114676000Y-59676000D01*
X117308500Y-114726000D02*
X117382500Y-114800000D01*
X110107000Y-111607000D02*
X110107000Y-112682346D01*
X107715654Y-110900000D02*
X109400000Y-110900000D01*
X111990000Y-57690000D02*
X113976000Y-59676000D01*
X106258346Y-108490000D02*
X107715654Y-109947308D01*
X109400000Y-110900000D02*
X110107000Y-111607000D01*
X116526000Y-114726000D02*
X117308500Y-114726000D01*
X114676000Y-59676000D02*
X114700000Y-59700000D01*
X127000500Y-130900000D02*
X125600500Y-129500000D01*
X125600500Y-129500000D02*
X118685500Y-129500000D01*
X98110500Y-108490000D02*
X106258346Y-108490000D01*
X110055173Y-112734173D02*
X112047000Y-114726000D01*
X113976000Y-59676000D02*
X114652000Y-59676000D01*
X105305654Y-57690000D02*
X111990000Y-57690000D01*
X95300000Y-58900000D02*
X104095654Y-58900000D01*
X95100000Y-59100000D02*
X95300000Y-58900000D01*
X110107000Y-112682346D02*
X110055173Y-112734173D01*
X107715654Y-109947308D02*
X107715654Y-110900000D01*
X118685500Y-129500000D02*
X117222000Y-130963500D01*
X111043346Y-60946000D02*
X109219346Y-62770000D01*
X121600000Y-140500000D02*
X121500000Y-140400000D01*
X121500000Y-141000000D02*
X121500000Y-140400000D01*
X109219346Y-62770000D02*
X100676478Y-62770000D01*
X106375714Y-143846795D02*
X104346795Y-143846795D01*
X121785500Y-132400000D02*
X123222000Y-130963500D01*
X108957000Y-145226000D02*
X107754919Y-145226000D01*
X107754919Y-145226000D02*
X106375714Y-143846795D01*
X114652000Y-60946000D02*
X111043346Y-60946000D01*
X120900000Y-132400000D02*
X121785500Y-132400000D01*
X95800000Y-63969522D02*
X95800000Y-65600000D01*
X117100000Y-132400000D02*
X120900000Y-132400000D01*
X100670478Y-62776000D02*
X96993522Y-62776000D01*
X96993522Y-62776000D02*
X95800000Y-63969522D01*
X104346795Y-143846795D02*
X104300000Y-143800000D01*
X116399500Y-117400000D02*
X116265500Y-117266000D01*
X100676478Y-62770000D02*
X100670478Y-62776000D01*
X113459051Y-143440949D02*
X113994102Y-143976000D01*
X116265500Y-117266000D02*
X112047000Y-117266000D01*
X118524000Y-143976000D02*
X121500000Y-141000000D01*
X113994102Y-143976000D02*
X118524000Y-143976000D01*
X98832500Y-83963500D02*
X99882000Y-83963500D01*
X126900000Y-64600000D02*
X125700000Y-65800000D01*
X114652000Y-62216000D02*
X114122000Y-62216000D01*
X105290000Y-65310000D02*
X103800000Y-66800000D01*
X114122000Y-62216000D02*
X111028000Y-65310000D01*
X111028000Y-65310000D02*
X105290000Y-65310000D01*
X127599500Y-121800000D02*
X128600000Y-120799500D01*
X112047000Y-122346000D02*
X112593000Y-121800000D01*
X133800000Y-81600000D02*
X137982000Y-77418000D01*
X119186000Y-65800000D02*
X115602000Y-62216000D01*
X128900000Y-81600000D02*
X133800000Y-81600000D01*
X112593000Y-121800000D02*
X127599500Y-121800000D01*
X125700000Y-65800000D02*
X119186000Y-65800000D01*
X137982000Y-77418000D02*
X137982000Y-76646000D01*
X103800000Y-66800000D02*
X96500000Y-66800000D01*
X115602000Y-62216000D02*
X114652000Y-62216000D01*
X93500000Y-89296000D02*
X98832500Y-83963500D01*
X100600000Y-120800000D02*
X100990000Y-121190000D01*
X116778500Y-90496000D02*
X103054817Y-90496000D01*
X107807000Y-122842346D02*
X108701997Y-123737343D01*
X101714817Y-91836000D02*
X100600000Y-91836000D01*
X129600000Y-126100000D02*
X113261000Y-126100000D01*
X109762657Y-123737343D02*
X110911314Y-124886000D01*
X108701997Y-123737343D02*
X109762657Y-123737343D01*
X110911314Y-124886000D02*
X112047000Y-124886000D01*
X130400000Y-126900000D02*
X129600000Y-126100000D01*
X114652000Y-63348000D02*
X114700000Y-63300000D01*
X103054817Y-90496000D02*
X101714817Y-91836000D01*
X100990000Y-121190000D02*
X106297000Y-121190000D01*
X116982500Y-90700000D02*
X116778500Y-90496000D01*
X100600000Y-91836000D02*
X93500000Y-91836000D01*
X113261000Y-126100000D02*
X112047000Y-124886000D01*
X107807000Y-122700000D02*
X107807000Y-122842346D01*
X106297000Y-121190000D02*
X107807000Y-122700000D01*
X114652000Y-63486000D02*
X114652000Y-63348000D01*
X106662478Y-95637522D02*
X94761522Y-95637522D01*
X127002000Y-118336000D02*
X127164000Y-118336000D01*
X95985360Y-133051000D02*
X94319500Y-133051000D01*
X96547601Y-131252399D02*
X96547601Y-132488759D01*
X109600000Y-93200000D02*
X108556654Y-93200000D01*
X112303346Y-131136000D02*
X105331654Y-131136000D01*
X117606000Y-91400000D02*
X111400000Y-91400000D01*
X113197000Y-132797000D02*
X113197000Y-132029654D01*
X107807000Y-94493000D02*
X106662478Y-95637522D01*
X129879194Y-83400000D02*
X133768000Y-83400000D01*
X127164000Y-118336000D02*
X127200000Y-118300000D01*
X114646000Y-134246000D02*
X113197000Y-132797000D01*
X107807000Y-93949654D02*
X107807000Y-94493000D01*
X111400000Y-91400000D02*
X109600000Y-93200000D01*
X129439597Y-83839597D02*
X129879194Y-83400000D01*
X124400000Y-91900000D02*
X124376000Y-91876000D01*
X133768000Y-83400000D02*
X137982000Y-79186000D01*
X124400000Y-91976000D02*
X124400000Y-91900000D01*
X100000000Y-127800000D02*
X96547601Y-131252399D01*
X113197000Y-132029654D02*
X112303346Y-131136000D01*
X123746500Y-134246000D02*
X114646000Y-134246000D01*
X96547601Y-132488759D02*
X95985360Y-133051000D01*
X94761522Y-95637522D02*
X93500000Y-94376000D01*
X124376000Y-91876000D02*
X118082000Y-91876000D01*
X128337000Y-92376000D02*
X130407000Y-94446000D01*
X124800000Y-92376000D02*
X124400000Y-91976000D01*
X124100500Y-134600000D02*
X123746500Y-134246000D01*
X118082000Y-91876000D02*
X117606000Y-91400000D01*
X105331654Y-131136000D02*
X101995654Y-127800000D01*
X101995654Y-127800000D02*
X100000000Y-127800000D01*
X108556654Y-93200000D02*
X107807000Y-93949654D01*
X124800000Y-92376000D02*
X128337000Y-92376000D01*
X130382000Y-148951000D02*
X120841858Y-148951000D01*
X117816531Y-151976327D02*
X112823673Y-151976327D01*
X120841858Y-148951000D02*
X117816531Y-151976327D01*
X112347346Y-151500000D02*
X107002000Y-151500000D01*
X107002000Y-151500000D02*
X105782000Y-150280000D01*
X112823673Y-151976327D02*
X112347346Y-151500000D01*
X117866858Y-149976000D02*
X113363346Y-149976000D01*
X130382000Y-144951000D02*
X123049000Y-144951000D01*
X123049000Y-144951000D02*
X117945429Y-150054571D01*
X112387346Y-149000000D02*
X107042000Y-149000000D01*
X107042000Y-149000000D02*
X105782000Y-147740000D01*
X117945429Y-150054571D02*
X117866858Y-149976000D01*
X113363346Y-149976000D02*
X112387346Y-149000000D01*
X122841858Y-142951000D02*
X117816858Y-147976000D01*
X106982000Y-146400000D02*
X105782000Y-145200000D01*
X130382000Y-142951000D02*
X122841858Y-142951000D01*
X112327346Y-146400000D02*
X106982000Y-146400000D01*
X117816858Y-147976000D02*
X113903346Y-147976000D01*
X113903346Y-147976000D02*
X112327346Y-146400000D01*
X130200000Y-58500000D02*
X132058000Y-58500000D01*
X132058000Y-58500000D02*
X132152000Y-58406000D01*
X110297522Y-98330000D02*
X110297522Y-93260478D01*
X98145683Y-98330000D02*
X96731683Y-96916000D01*
X128199500Y-114200000D02*
X131841000Y-114200000D01*
X96731683Y-96916000D02*
X93500000Y-96916000D01*
X123076000Y-92376000D02*
X125900000Y-95200000D01*
X111182000Y-92376000D02*
X123076000Y-92376000D01*
X110297522Y-98330000D02*
X98145683Y-98330000D01*
X110297522Y-93260478D02*
X111182000Y-92376000D01*
X131841000Y-114200000D02*
X134907000Y-117266000D01*
X130500000Y-105100000D02*
X131600000Y-106200000D01*
X118800000Y-142000000D02*
X117890858Y-142000000D01*
X136612000Y-136436000D02*
X136612000Y-137688000D01*
X117890858Y-142000000D02*
X117866858Y-141976000D01*
X121489950Y-105100000D02*
X130500000Y-105100000D01*
X136612000Y-137688000D02*
X135324000Y-138976000D01*
X135324000Y-138976000D02*
X133224000Y-138976000D01*
X93263654Y-103386000D02*
X92350000Y-102472346D01*
X131600000Y-106200000D02*
X131600000Y-106400000D01*
X134670654Y-111036000D02*
X136812000Y-111036000D01*
X105127827Y-106127827D02*
X96927827Y-106127827D01*
X118600500Y-105100000D02*
X120510050Y-105100000D01*
X128903142Y-139926000D02*
X128477142Y-139500000D01*
X133757000Y-108557000D02*
X133757000Y-110122346D01*
X120710050Y-105300000D02*
X121289950Y-105300000D01*
X117000500Y-105900000D02*
X105355654Y-105900000D01*
X92350000Y-102472346D02*
X92350000Y-100606000D01*
X117400500Y-106300000D02*
X118600500Y-105100000D01*
X112737000Y-141976000D02*
X112047000Y-142666000D01*
X131600000Y-106400000D02*
X133757000Y-108557000D01*
X105355654Y-105900000D02*
X105127827Y-106127827D01*
X121289950Y-105300000D02*
X121489950Y-105100000D01*
X132274000Y-139926000D02*
X128903142Y-139926000D01*
X120510050Y-105100000D02*
X120710050Y-105300000D01*
X92350000Y-100606000D02*
X93500000Y-99456000D01*
X114676000Y-72376000D02*
X114700000Y-72400000D01*
X133224000Y-138976000D02*
X132274000Y-139926000D01*
X96927827Y-106127827D02*
X94186000Y-103386000D01*
X117400500Y-106300000D02*
X117000500Y-105900000D01*
X136812000Y-111036000D02*
X137982000Y-112206000D01*
X128477142Y-139500000D02*
X121300000Y-139500000D01*
X114652000Y-72376000D02*
X114676000Y-72376000D01*
X137982000Y-135066000D02*
X136612000Y-136436000D01*
X94186000Y-103386000D02*
X93263654Y-103386000D01*
X117866858Y-141976000D02*
X112737000Y-141976000D01*
X121300000Y-139500000D02*
X118800000Y-142000000D01*
X133757000Y-110122346D02*
X134670654Y-111036000D01*
X93281001Y-133400000D02*
X93582001Y-133701000D01*
X93582001Y-133701000D02*
X94319500Y-133701000D01*
X91899500Y-133400000D02*
X93281001Y-133400000D01*
X91200000Y-134300000D02*
X91200000Y-109376000D01*
X91200000Y-109376000D02*
X93500000Y-107076000D01*
X94319500Y-134351000D02*
X91251000Y-134351000D01*
X91251000Y-134351000D02*
X91200000Y-134300000D01*
X94319500Y-138080500D02*
X94300000Y-138100000D01*
X94319500Y-136951000D02*
X94319500Y-138080500D01*
X91800500Y-111315500D02*
X93500000Y-109616000D01*
X93049500Y-129600000D02*
X91800500Y-128351000D01*
X91800500Y-128351000D02*
X91800500Y-111315500D01*
X97500000Y-137700000D02*
X97500000Y-137542315D01*
X99391315Y-135651000D02*
X100044500Y-135651000D01*
X97500000Y-137542315D02*
X99391315Y-135651000D01*
D34*
X105302000Y-64400000D02*
X105782000Y-63920000D01*
X139575000Y-90293000D02*
X139575000Y-70619000D01*
X139107000Y-149181000D02*
X139107000Y-145300000D01*
X103484000Y-151405000D02*
X101110000Y-149031000D01*
X137982000Y-114746000D02*
X139107000Y-115871000D01*
X131622000Y-80286000D02*
X125572000Y-80286000D01*
X113646000Y-89346000D02*
X113900000Y-89600000D01*
X137982000Y-104586000D02*
X139107000Y-105711000D01*
X97532000Y-57576000D02*
X94740000Y-57576000D01*
X108957000Y-152846000D02*
X107398991Y-152846000D01*
X94937330Y-136301000D02*
X95332000Y-136695670D01*
X134622000Y-150001000D02*
X122401000Y-150001000D01*
X139700000Y-125438000D02*
X139107000Y-126031000D01*
X105957991Y-151405000D02*
X103484000Y-151405000D01*
X103449000Y-65351000D02*
X104400000Y-64400000D01*
X136857000Y-144101000D02*
X136857000Y-138731000D01*
X114600500Y-100500000D02*
X114700500Y-100400000D01*
X136857000Y-138731000D02*
X137982000Y-137606000D01*
X140000000Y-144407000D02*
X140000000Y-128293000D01*
X113961000Y-55175000D02*
X99933000Y-55175000D01*
X138200000Y-95841000D02*
X137359000Y-95841000D01*
X95000000Y-137600000D02*
X95000000Y-143700000D01*
X99900500Y-138900000D02*
X99300500Y-138300000D01*
X105782000Y-137580000D02*
X104462000Y-138900000D01*
X95332000Y-136695670D02*
X95332000Y-137268000D01*
X137982000Y-104586000D02*
X134927000Y-104586000D01*
X95000000Y-143700000D02*
X95000000Y-147521000D01*
X125572000Y-80286000D02*
X125532000Y-80326000D01*
X139107000Y-94934000D02*
X138200000Y-95841000D01*
X139061000Y-127446000D02*
X139107000Y-127400000D01*
X135408000Y-99684000D02*
X134600000Y-98876000D01*
X101110000Y-149031000D02*
X106542670Y-149031000D01*
X139107000Y-145300000D02*
X140000000Y-144407000D01*
X134907000Y-150286000D02*
X137962000Y-150286000D01*
X97532000Y-64076000D02*
X98807000Y-65351000D01*
X99732000Y-123431113D02*
X102568887Y-123431113D01*
X115943000Y-75675000D02*
X111275000Y-75675000D01*
X117692000Y-73626000D02*
X117692000Y-73926000D01*
X103862000Y-111560000D02*
X105782000Y-109640000D01*
X134600000Y-98600000D02*
X134600000Y-98876000D01*
X108957000Y-89346000D02*
X113646000Y-89346000D01*
X114600000Y-100400000D02*
X114800000Y-100400000D01*
X134900000Y-104559000D02*
X134907000Y-104566000D01*
X139107000Y-93011000D02*
X139107000Y-94934000D01*
X137982000Y-150306000D02*
X139107000Y-149181000D01*
X139700000Y-116464000D02*
X139700000Y-125438000D01*
X137982000Y-91886000D02*
X139107000Y-93011000D01*
X122401000Y-150001000D02*
X122200000Y-149800000D01*
X98807000Y-65351000D02*
X103449000Y-65351000D01*
X102568887Y-123431113D02*
X102800000Y-123200000D01*
X134907000Y-104566000D02*
X135408000Y-104065000D01*
X105782000Y-109640000D02*
X108348000Y-112206000D01*
X137359000Y-95841000D02*
X134600000Y-98600000D01*
X125532000Y-80326000D02*
X113032000Y-80326000D01*
D35*
X114652000Y-55866000D02*
X113961000Y-55175000D01*
D34*
X134907000Y-150286000D02*
X134622000Y-150001000D01*
X109951000Y-100500000D02*
X114600500Y-100500000D01*
X139107000Y-115871000D02*
X139700000Y-116464000D01*
X139107000Y-126031000D02*
X137982000Y-124906000D01*
X93490000Y-149031000D02*
X101110000Y-149031000D01*
X137982000Y-145226000D02*
X138056000Y-145300000D01*
X134907000Y-104566000D02*
X134907000Y-107106000D01*
X95000000Y-147521000D02*
X93490000Y-149031000D01*
X117692000Y-73926000D02*
X115943000Y-75675000D01*
X139575000Y-70619000D02*
X137982000Y-69026000D01*
X134927000Y-104586000D02*
X134907000Y-104566000D01*
D35*
X120502000Y-60816000D02*
X115552000Y-55866000D01*
X122602000Y-58498000D02*
X122602000Y-62186000D01*
X115552000Y-55866000D02*
X114652000Y-55866000D01*
D34*
X94319500Y-136301000D02*
X94937330Y-136301000D01*
X107817670Y-150306000D02*
X108957000Y-150306000D01*
X139107000Y-105711000D02*
X139107000Y-115871000D01*
X137962000Y-150286000D02*
X137982000Y-150306000D01*
X140000000Y-128293000D02*
X139107000Y-127400000D01*
X137982000Y-127446000D02*
X139061000Y-127446000D01*
X128400000Y-55700000D02*
X128566000Y-55866000D01*
X104462000Y-138900000D02*
X99900500Y-138900000D01*
X106542670Y-149031000D02*
X107817670Y-150306000D01*
X108348000Y-112206000D02*
X108957000Y-112206000D01*
X104400000Y-64400000D02*
X105302000Y-64400000D01*
D35*
X124799500Y-56300500D02*
X122602000Y-58498000D01*
D34*
X99600000Y-111560000D02*
X103862000Y-111560000D01*
X135408000Y-104065000D02*
X135408000Y-99684000D01*
X111275000Y-75675000D02*
X110900000Y-75300000D01*
X96030000Y-149031000D02*
X96030000Y-151978000D01*
X114600000Y-100400000D02*
X114700500Y-100400000D01*
X99933000Y-55175000D02*
X97532000Y-57576000D01*
D35*
X120502000Y-62186000D02*
X120502000Y-60816000D01*
X125400000Y-56300500D02*
X124799500Y-56300500D01*
D34*
X107398991Y-152846000D02*
X105957991Y-151405000D01*
X95332000Y-137268000D02*
X95000000Y-137600000D01*
X134282000Y-98876000D02*
X134900000Y-99494000D01*
X128566000Y-55866000D02*
X132152000Y-55866000D01*
X134907000Y-152826000D02*
X134907000Y-150286000D01*
X108957000Y-99506000D02*
X109951000Y-100500000D01*
X138056000Y-145300000D02*
X139107000Y-145300000D01*
X94740000Y-57576000D02*
X93500000Y-58816000D01*
X137982000Y-145226000D02*
X136857000Y-144101000D01*
X137982000Y-91886000D02*
X139575000Y-90293000D01*
X103340500Y-91860000D02*
X105782000Y-91860000D01*
X96030000Y-151978000D02*
X95082000Y-152926000D01*
X103200500Y-92000000D02*
X103340500Y-91860000D01*
X139107000Y-127400000D02*
X139107000Y-126031000D01*
D33*
X102300000Y-82100000D02*
X102600000Y-82400000D01*
X99600000Y-112830000D02*
X99970000Y-113200000D01*
X102600000Y-82400000D02*
X105082000Y-82400000D01*
X104762000Y-113200000D02*
X105782000Y-112180000D01*
X105082000Y-82400000D02*
X105782000Y-81700000D01*
X99970000Y-113200000D02*
X104762000Y-113200000D01*
X99053321Y-135001000D02*
X100044500Y-135001000D01*
X97196000Y-114696000D02*
X93500000Y-114696000D01*
X97499500Y-136412533D02*
X97641788Y-136412533D01*
X97300000Y-114800000D02*
X97196000Y-114696000D01*
X97641788Y-136412533D02*
X99053321Y-135001000D01*
X98800000Y-117200000D02*
X98764000Y-117236000D01*
X98089069Y-134976008D02*
X98714077Y-134351000D01*
X98714077Y-134351000D02*
X100044500Y-134351000D01*
X96788105Y-134711895D02*
X97052218Y-134976008D01*
X98764000Y-117236000D02*
X93500000Y-117236000D01*
X97052218Y-134976008D02*
X98089069Y-134976008D01*
X126428000Y-76000000D02*
X120500000Y-76000000D01*
X97000000Y-113500000D02*
X92900000Y-113500000D01*
X92300000Y-114100000D02*
X92300000Y-118576000D01*
X114800000Y-131100000D02*
X114800000Y-132501282D01*
X114800000Y-84400000D02*
X114501000Y-84101000D01*
X103700000Y-117200000D02*
X102964000Y-117936000D01*
X120500000Y-84300000D02*
X120400000Y-84400000D01*
X114800000Y-132501282D02*
X115744718Y-133446000D01*
X109249346Y-85600000D02*
X98185244Y-85600000D01*
X94610050Y-117900000D02*
X93500000Y-119010050D01*
X97510050Y-117936000D02*
X97474050Y-117900000D01*
X115744718Y-133446000D02*
X130809500Y-133446000D01*
X92900000Y-113500000D02*
X92300000Y-114100000D01*
X110748346Y-84101000D02*
X109249346Y-85600000D01*
X127852000Y-73626000D02*
X127852000Y-74576000D01*
X97474050Y-117900000D02*
X94610050Y-117900000D01*
X92300000Y-118576000D02*
X93500000Y-119776000D01*
X98185244Y-85600000D02*
X95792622Y-87992622D01*
X130809500Y-133446000D02*
X133100000Y-135736500D01*
X120400000Y-84400000D02*
X114800000Y-84400000D01*
X102964000Y-117936000D02*
X97510050Y-117936000D01*
X93500000Y-119010050D02*
X93500000Y-119776000D01*
X97100000Y-113600000D02*
X97000000Y-113500000D01*
X114501000Y-84101000D02*
X110748346Y-84101000D01*
X127852000Y-74576000D02*
X126428000Y-76000000D01*
X98200000Y-81200000D02*
X97800000Y-81600000D01*
X98200000Y-121900000D02*
X97784000Y-122316000D01*
X97400000Y-134200000D02*
X98299391Y-134200000D01*
X96900000Y-133700000D02*
X97400000Y-134200000D01*
X98299391Y-134200000D02*
X98798391Y-133701000D01*
X104300000Y-81200000D02*
X98200000Y-81200000D01*
X97784000Y-122316000D02*
X93500000Y-122316000D01*
X98798391Y-133701000D02*
X100044500Y-133701000D01*
X129400000Y-127800000D02*
X128300000Y-126700000D01*
X105545654Y-126270000D02*
X104632000Y-125356346D01*
X104632000Y-125356346D02*
X104632000Y-122732000D01*
X99276365Y-122331113D02*
X96751478Y-124856000D01*
X101200000Y-122331113D02*
X99276365Y-122331113D01*
X112947346Y-126700000D02*
X112517346Y-126270000D01*
X96751478Y-124856000D02*
X93500000Y-124856000D01*
X104231113Y-122331113D02*
X101200000Y-122331113D01*
X110107000Y-76169654D02*
X117368346Y-76169654D01*
X118962000Y-74576000D02*
X118962000Y-73626000D01*
X102200000Y-75900000D02*
X102630000Y-75470000D01*
X117368346Y-76169654D02*
X118962000Y-74576000D01*
X102630000Y-75470000D02*
X109407346Y-75470000D01*
X109407346Y-75470000D02*
X110107000Y-76169654D01*
X128300000Y-126700000D02*
X112947346Y-126700000D01*
X112517346Y-126270000D02*
X105545654Y-126270000D01*
X104632000Y-122732000D02*
X104231113Y-122331113D01*
X99395397Y-127084641D02*
X99084038Y-127396000D01*
X99610756Y-127300000D02*
X104035654Y-127300000D01*
X104035654Y-127300000D02*
X105435654Y-128700000D01*
X105435654Y-128700000D02*
X114700000Y-128700000D01*
X98589035Y-133001500D02*
X98638535Y-133051000D01*
X99395397Y-127084641D02*
X99610756Y-127300000D01*
X112482000Y-98676000D02*
X116458495Y-98676000D01*
X99084038Y-127396000D02*
X93500000Y-127396000D01*
X98638535Y-133051000D02*
X100044500Y-133051000D01*
X116458495Y-98676000D02*
X116582495Y-98800000D01*
X101110000Y-140410000D02*
X101100000Y-140400000D01*
X100094897Y-129500000D02*
X100000000Y-129594897D01*
X100000000Y-129594897D02*
X100000000Y-131056500D01*
X101110000Y-140421000D02*
X101110000Y-140410000D01*
X100000000Y-131056500D02*
X100044500Y-131101000D01*
X100697685Y-131751000D02*
X100044500Y-131751000D01*
X100697685Y-131751000D02*
X101082000Y-131366685D01*
X98570000Y-140421000D02*
X98570000Y-141941000D01*
X98570000Y-141941000D02*
X100000000Y-141941000D01*
X101082000Y-131366685D02*
X101082000Y-130282000D01*
X101082000Y-130282000D02*
X100900000Y-130100000D01*
X96151046Y-133451000D02*
X96947601Y-132654445D01*
X96800000Y-136262630D02*
X95600000Y-135062630D01*
X98890315Y-131900000D02*
X99391315Y-132401000D01*
X96030000Y-140421000D02*
X96800000Y-139651000D01*
X96947601Y-131900000D02*
X98890315Y-131900000D01*
X96800000Y-139651000D02*
X96800000Y-136262630D01*
X99391315Y-132401000D02*
X100044500Y-132401000D01*
X95600000Y-134000000D02*
X96149000Y-133451000D01*
X95600000Y-135062630D02*
X95600000Y-134000000D01*
X96149000Y-133451000D02*
X96151046Y-133451000D01*
X96947601Y-132654445D02*
X96947601Y-131900000D01*
X93282000Y-136035315D02*
X93666315Y-135651000D01*
X93490000Y-140421000D02*
X93282000Y-140213000D01*
X93666315Y-135651000D02*
X94319500Y-135651000D01*
X93282000Y-140213000D02*
X93282000Y-136035315D01*
X114741378Y-68655378D02*
X124155378Y-68655378D01*
X121300000Y-135300000D02*
X121046000Y-135046000D01*
X123000000Y-136176201D02*
X121986251Y-136176201D01*
X121986251Y-136176201D02*
X121300000Y-135489950D01*
X121300000Y-135489950D02*
X121300000Y-135300000D01*
X114652000Y-68566000D02*
X114741378Y-68655378D01*
X121046000Y-135046000D02*
X112047000Y-135046000D01*
X122000000Y-135200000D02*
X121446000Y-134646000D01*
X114187000Y-134646000D02*
X112047000Y-132506000D01*
X122496000Y-67296000D02*
X123100000Y-67900000D01*
X114652000Y-67296000D02*
X122496000Y-67296000D01*
X121446000Y-134646000D02*
X114187000Y-134646000D01*
X115602000Y-71106000D02*
X114652000Y-71106000D01*
X114197000Y-137976000D02*
X112047000Y-140126000D01*
X120600000Y-70400000D02*
X116308000Y-70400000D01*
X119876000Y-137976000D02*
X114197000Y-137976000D01*
X120000000Y-138100000D02*
X119876000Y-137976000D01*
X116308000Y-70400000D02*
X115602000Y-71106000D01*
X94972685Y-131751000D02*
X94319500Y-131751000D01*
X95200000Y-103100000D02*
X96660000Y-104560000D01*
X96660000Y-104560000D02*
X105782000Y-104560000D01*
X95357000Y-131366685D02*
X94972685Y-131751000D01*
X95258879Y-129850468D02*
X95357000Y-129948589D01*
X95357000Y-129948589D02*
X95357000Y-131366685D01*
X114500000Y-104600000D02*
X121000000Y-104600000D01*
X114000000Y-104100000D02*
X114500000Y-104600000D01*
X96900000Y-118600000D02*
X117266000Y-118600000D01*
X92350000Y-75446000D02*
X92350000Y-73339654D01*
X92350000Y-77746000D02*
X92350000Y-92312346D01*
X92350000Y-73339654D02*
X92789654Y-72900000D01*
X122898000Y-119900000D02*
X124462000Y-118336000D01*
X92350000Y-92312346D02*
X93137654Y-93100000D01*
X94319500Y-132401000D02*
X96068968Y-132401000D01*
X93500000Y-76596000D02*
X92350000Y-75446000D01*
X93137654Y-93100000D02*
X95100000Y-93100000D01*
X92789654Y-72900000D02*
X104602000Y-72900000D01*
X117266000Y-118600000D02*
X118566000Y-119900000D01*
X118566000Y-119900000D02*
X122898000Y-119900000D01*
X93500000Y-76596000D02*
X92350000Y-77746000D01*
X104602000Y-72900000D02*
X105782000Y-74080000D01*
X127508500Y-128800000D02*
X118300000Y-128800000D01*
X129513500Y-131013500D02*
X129500000Y-131000000D01*
X129722000Y-131013500D02*
X129513500Y-131013500D01*
X117605500Y-119806000D02*
X112047000Y-119806000D01*
X118500000Y-120700500D02*
X117605500Y-119806000D01*
X114652000Y-58406000D02*
X114694000Y-58406000D01*
X114694000Y-58406000D02*
X114700000Y-58400000D01*
X129722000Y-131013500D02*
X127508500Y-128800000D01*
X130600000Y-123000000D02*
X132644000Y-120956000D01*
X119300000Y-111900000D02*
X117700000Y-113500000D01*
X139200000Y-76237654D02*
X139200000Y-88128000D01*
X136832000Y-65096000D02*
X136832000Y-75428000D01*
X137982000Y-63946000D02*
X136832000Y-65096000D01*
X109523000Y-83700000D02*
X108957000Y-84266000D01*
X110897000Y-112662346D02*
X110897000Y-111606000D01*
X126399500Y-128000000D02*
X112621000Y-128000000D01*
X137982000Y-89346000D02*
X136512000Y-89346000D01*
X127000000Y-123500000D02*
X127500000Y-123000000D01*
X127000000Y-90200000D02*
X128376000Y-91576000D01*
X105782000Y-58840000D02*
X108931000Y-58840000D01*
X138458346Y-75496000D02*
X136900000Y-75496000D01*
X136832000Y-75428000D02*
X136900000Y-75496000D01*
X114656000Y-64756000D02*
X114700000Y-64800000D01*
X127800000Y-111900000D02*
X119300000Y-111900000D01*
X117300000Y-83700000D02*
X109523000Y-83700000D01*
X136512000Y-89346000D02*
X134282000Y-91576000D01*
X111866000Y-58866000D02*
X112800000Y-59800000D01*
X132644000Y-120956000D02*
X136852000Y-120956000D01*
X114652000Y-64756000D02*
X114656000Y-64756000D01*
X111734654Y-113500000D02*
X110897000Y-112662346D01*
X110897000Y-111606000D02*
X108957000Y-109666000D01*
X127900000Y-112000000D02*
X127800000Y-111900000D01*
X108931000Y-58840000D02*
X108957000Y-58866000D01*
X117700000Y-113500000D02*
X111734654Y-113500000D01*
X128376000Y-91576000D02*
X134600000Y-91576000D01*
X117199500Y-77500000D02*
X134400000Y-77500000D01*
X117100000Y-77599500D02*
X117199500Y-77500000D01*
X139200000Y-88128000D02*
X137982000Y-89346000D01*
X138458346Y-75496000D02*
X139200000Y-76237654D01*
X99482000Y-152926000D02*
X99482000Y-153082000D01*
X112621000Y-128000000D02*
X112047000Y-127426000D01*
X127000000Y-127399500D02*
X126399500Y-128000000D01*
X108957000Y-58866000D02*
X111866000Y-58866000D01*
X136852000Y-120956000D02*
X137982000Y-119826000D01*
X127500000Y-123000000D02*
X130600000Y-123000000D01*
X134400000Y-77500000D02*
X136404000Y-75496000D01*
X99482000Y-153082000D02*
X99500000Y-153100000D01*
X136404000Y-75496000D02*
X136900000Y-75496000D01*
X125300000Y-137500000D02*
X124800000Y-137000000D01*
X127190925Y-97400000D02*
X115700500Y-97400000D01*
X108957000Y-129986000D02*
X112027000Y-129986000D01*
X110327000Y-108496000D02*
X113296000Y-108496000D01*
X112027000Y-129986000D02*
X112047000Y-129966000D01*
X103852000Y-154396000D02*
X126404000Y-154396000D01*
X137982000Y-86806000D02*
X135502000Y-86806000D01*
X112469031Y-130736000D02*
X112047000Y-130736000D01*
X105808000Y-56326000D02*
X105782000Y-56300000D01*
X130600000Y-64400000D02*
X128800000Y-66200000D01*
X128700000Y-98909075D02*
X127190925Y-97400000D01*
X114122000Y-66026000D02*
X114652000Y-66026000D01*
X102382000Y-152926000D02*
X103852000Y-154396000D01*
X115106500Y-86806000D02*
X108957000Y-86806000D01*
X130600000Y-63000000D02*
X130600000Y-64400000D01*
X129455500Y-118656000D02*
X136612000Y-118656000D01*
X115700500Y-87400000D02*
X115106500Y-86806000D01*
X128800000Y-66200000D02*
X114826000Y-66200000D01*
X134600000Y-88026000D02*
X134600000Y-87900000D01*
X128700000Y-99700000D02*
X128700000Y-98909075D01*
X136612000Y-118656000D02*
X137982000Y-117286000D01*
X124800000Y-134000000D02*
X124646000Y-133846000D01*
X114826000Y-66200000D02*
X114652000Y-66026000D01*
X124646000Y-133846000D02*
X115579032Y-133846000D01*
X124800000Y-137000000D02*
X124800000Y-134000000D01*
X108957000Y-107126000D02*
X110327000Y-108496000D01*
X134504000Y-87804000D02*
X134282000Y-88026000D01*
X135502000Y-86806000D02*
X134504000Y-87804000D01*
X134600000Y-87900000D02*
X134504000Y-87804000D01*
X129299500Y-118500000D02*
X129455500Y-118656000D01*
X113296000Y-108496000D02*
X114200000Y-109400000D01*
X108957000Y-56326000D02*
X105808000Y-56326000D01*
X112047000Y-130736000D02*
X112047000Y-129966000D01*
X126404000Y-154396000D02*
X127100000Y-153700000D01*
X115579032Y-133846000D02*
X112469031Y-130736000D01*
X134500000Y-67100000D02*
X133202000Y-65802000D01*
X117102000Y-71200000D02*
X115702000Y-72600000D01*
X133202000Y-65802000D02*
X133202000Y-65276000D01*
X115702000Y-72600000D02*
X115702000Y-72998000D01*
X114300000Y-74400000D02*
X111600000Y-71700000D01*
X132152000Y-64756000D02*
X131133950Y-64756000D01*
X131133950Y-64756000D02*
X124689950Y-71200000D01*
X135700000Y-67100000D02*
X134500000Y-67100000D01*
X111600000Y-71700000D02*
X111600000Y-68800000D01*
X133202000Y-65276000D02*
X132682000Y-64756000D01*
X132682000Y-64756000D02*
X132152000Y-64756000D01*
X124689950Y-71200000D02*
X117102000Y-71200000D01*
X111600000Y-68800000D02*
X110700000Y-67900000D01*
X115702000Y-72998000D02*
X114300000Y-74400000D01*
X136132500Y-69500000D02*
X135198500Y-68566000D01*
X139950000Y-94998000D02*
X139950000Y-69869870D01*
X137982000Y-96966000D02*
X139950000Y-94998000D01*
X139950000Y-69869870D02*
X139401160Y-69321030D01*
X135198500Y-68566000D02*
X132152000Y-68566000D01*
X134868500Y-69836000D02*
X132152000Y-69836000D01*
X136132500Y-71100000D02*
X134868500Y-69836000D01*
X110331000Y-121200000D02*
X108957000Y-119826000D01*
X105305654Y-141510000D02*
X103415654Y-143400000D01*
X111566654Y-121200000D02*
X110331000Y-121200000D01*
X106310000Y-141510000D02*
X105305654Y-141510000D01*
X100551000Y-136951000D02*
X100044500Y-136951000D01*
X97710000Y-141941000D02*
X97710000Y-138490000D01*
X125803686Y-120100000D02*
X124503686Y-121400000D01*
X103415654Y-143400000D02*
X99169000Y-143400000D01*
X132152000Y-72376000D02*
X132152000Y-72348000D01*
X99169000Y-143400000D02*
X97710000Y-141941000D01*
X101825500Y-138225500D02*
X100551000Y-136951000D01*
X97710000Y-138490000D02*
X99249000Y-136951000D01*
X131099500Y-119500000D02*
X130499500Y-120100000D01*
X107486000Y-142686000D02*
X106310000Y-141510000D01*
X132152000Y-72348000D02*
X132200000Y-72300000D01*
X99249000Y-136951000D02*
X100044500Y-136951000D01*
X111570654Y-121196000D02*
X111566654Y-121200000D01*
X108957000Y-142686000D02*
X107486000Y-142686000D01*
X112523346Y-121196000D02*
X111570654Y-121196000D01*
X130499500Y-120100000D02*
X125803686Y-120100000D01*
X124503686Y-121400000D02*
X112727346Y-121400000D01*
X112727346Y-121400000D02*
X112523346Y-121196000D01*
X103500000Y-138225500D02*
X101825500Y-138225500D01*
X108957000Y-140146000D02*
X110127000Y-138976000D01*
X110087000Y-123496000D02*
X108957000Y-122366000D01*
X113588827Y-137296315D02*
X114909142Y-135976000D01*
X127399500Y-138200000D02*
X127599500Y-138000000D01*
X113588827Y-137670519D02*
X113588827Y-137296315D01*
X104235654Y-137500000D02*
X102365686Y-137500000D01*
X130100000Y-122200000D02*
X113197000Y-122200000D01*
X129122000Y-73626000D02*
X129126000Y-73626000D01*
X110127000Y-138976000D02*
X112283346Y-138976000D01*
X122300000Y-138200000D02*
X127399500Y-138200000D01*
X114909142Y-135976000D02*
X120076000Y-135976000D01*
X107807000Y-138082346D02*
X107807000Y-137738654D01*
X108957000Y-140146000D02*
X108480654Y-139669654D01*
X120076000Y-135976000D02*
X122300000Y-138200000D01*
X113197000Y-122822346D02*
X112523346Y-123496000D01*
X112523346Y-123496000D02*
X110087000Y-123496000D01*
X106498346Y-136430000D02*
X105305654Y-136430000D01*
X112283346Y-138976000D02*
X113588827Y-137670519D01*
X105305654Y-136430000D02*
X104235654Y-137500000D01*
X113197000Y-122200000D02*
X113197000Y-122822346D01*
X101166686Y-136301000D02*
X100044500Y-136301000D01*
X108480654Y-139669654D02*
X108480654Y-138756000D01*
X129126000Y-73626000D02*
X129200000Y-73700000D01*
X102365686Y-137500000D02*
X101166686Y-136301000D01*
X130500000Y-121800000D02*
X130100000Y-122200000D01*
X107807000Y-137738654D02*
X106498346Y-136430000D01*
X108480654Y-138756000D02*
X107807000Y-138082346D01*
X112026588Y-79000000D02*
X133699500Y-79000000D01*
X133699500Y-79000000D02*
X133899500Y-79200000D01*
X110690588Y-80336000D02*
X112026588Y-79000000D01*
X93500000Y-79136000D02*
X94700000Y-80336000D01*
X133156000Y-61000000D02*
X132300000Y-61000000D01*
X134999025Y-64073075D02*
X134999025Y-62843025D01*
X94700000Y-80336000D02*
X110690588Y-80336000D01*
X134999025Y-62843025D02*
X133156000Y-61000000D01*
X131202000Y-59676000D02*
X128900000Y-61978000D01*
X130400000Y-82700500D02*
X130300500Y-82800000D01*
X132152000Y-59676000D02*
X131202000Y-59676000D01*
X109433346Y-82876000D02*
X94700000Y-82876000D01*
X130300500Y-82800000D02*
X109509346Y-82800000D01*
X128900000Y-61978000D02*
X128900000Y-63100000D01*
X109509346Y-82800000D02*
X109433346Y-82876000D01*
X94700000Y-82876000D02*
X93500000Y-81676000D01*
X121875701Y-136875701D02*
X120446000Y-135446000D01*
X125089858Y-69009995D02*
X124699853Y-69400000D01*
X123906851Y-135606851D02*
X123906851Y-136793149D01*
X123824299Y-136875701D02*
X121875701Y-136875701D01*
X115088000Y-69400000D02*
X114652000Y-69836000D01*
X124699853Y-69400000D02*
X115088000Y-69400000D01*
X114187000Y-135446000D02*
X112047000Y-137586000D01*
X123906851Y-136793149D02*
X123824299Y-136875701D01*
X120446000Y-135446000D02*
X114187000Y-135446000D01*
X139132000Y-60929654D02*
X138218346Y-60016000D01*
X123226000Y-147926000D02*
X123200000Y-147900000D01*
X114652000Y-57136000D02*
X114764000Y-57136000D01*
X99810000Y-93010000D02*
X99600000Y-92800000D01*
X137982000Y-56326000D02*
X136800000Y-57508000D01*
X134907000Y-147746000D02*
X137962000Y-147746000D01*
X137982000Y-94426000D02*
X137082000Y-95326000D01*
X138300000Y-115896000D02*
X136077000Y-115896000D01*
X136600000Y-134979346D02*
X136600000Y-133908000D01*
X134907000Y-109646000D02*
X137962000Y-109646000D01*
X136800000Y-57508000D02*
X136800000Y-60000000D01*
X114946000Y-102046000D02*
X115300000Y-102400000D01*
X129672000Y-125038500D02*
X129722000Y-125088500D01*
X101829968Y-129329968D02*
X101100000Y-128600000D01*
X131311500Y-125088500D02*
X132800000Y-123600000D01*
X93263654Y-60206000D02*
X104608000Y-60206000D01*
X117222000Y-125038500D02*
X129672000Y-125038500D01*
X99000000Y-100400500D02*
X99299500Y-100700000D01*
X137962000Y-109646000D02*
X137982000Y-109666000D01*
X136600000Y-133908000D02*
X137982000Y-132526000D01*
X96100000Y-137400000D02*
X96100000Y-136128315D01*
X139132000Y-138996000D02*
X137982000Y-140146000D01*
X117600000Y-111400000D02*
X116814000Y-112186000D01*
X115300000Y-102400000D02*
X115300000Y-102451000D01*
X116814000Y-112186000D02*
X112047000Y-112186000D01*
X121700000Y-147900000D02*
X121600000Y-147800000D01*
X136077000Y-115896000D02*
X134907000Y-114726000D01*
X114764000Y-57136000D02*
X114800000Y-57100000D01*
X134907000Y-147746000D02*
X134727000Y-147926000D01*
X108348000Y-137606000D02*
X108957000Y-137606000D01*
X93666315Y-135001000D02*
X94319500Y-135001000D01*
X99600000Y-114100000D02*
X105162000Y-114100000D01*
X100350500Y-76620000D02*
X105782000Y-76620000D01*
X96100000Y-136128315D02*
X94972685Y-135001000D01*
X105782000Y-135040000D02*
X108348000Y-137606000D01*
X137982000Y-66486000D02*
X139132000Y-65336000D01*
X139200000Y-121148000D02*
X139200000Y-116796000D01*
X130897000Y-136436000D02*
X135143346Y-136436000D01*
X139132000Y-65336000D02*
X139132000Y-60929654D01*
X92350000Y-59292346D02*
X93263654Y-60206000D01*
X104608000Y-60206000D02*
X105782000Y-61380000D01*
X99299500Y-100700000D02*
X107611000Y-100700000D01*
X108957000Y-102046000D02*
X114946000Y-102046000D01*
X101829968Y-131087968D02*
X101829968Y-129329968D01*
X99882000Y-77088500D02*
X100350500Y-76620000D01*
X106258346Y-146590000D02*
X97710000Y-146590000D01*
X138218346Y-60016000D02*
X136816000Y-60016000D01*
X92182000Y-152926000D02*
X92182000Y-136485315D01*
X137982000Y-132526000D02*
X139132000Y-133676000D01*
X107833000Y-93010000D02*
X99810000Y-93010000D01*
X107611000Y-100700000D02*
X108957000Y-102046000D01*
X105162000Y-114100000D02*
X105782000Y-114720000D01*
X107434346Y-147766000D02*
X106258346Y-146590000D01*
X108957000Y-91886000D02*
X107833000Y-93010000D01*
X132800000Y-123600000D02*
X136748000Y-123600000D01*
X92350000Y-57426000D02*
X92350000Y-59292346D01*
X94500000Y-126200000D02*
X95268887Y-125431113D01*
X108931000Y-114720000D02*
X108957000Y-114746000D01*
X97710000Y-146590000D02*
X97300000Y-147000000D01*
X105782000Y-114720000D02*
X108931000Y-114720000D01*
X108957000Y-147766000D02*
X107434346Y-147766000D01*
X94972685Y-135001000D02*
X94319500Y-135001000D01*
X136748000Y-123600000D02*
X137982000Y-122366000D01*
X134907000Y-114726000D02*
X134907000Y-112186000D01*
X105782000Y-135040000D02*
X101829968Y-131087968D01*
X93500000Y-56276000D02*
X92350000Y-57426000D01*
X95268887Y-125431113D02*
X99732000Y-125431113D01*
X137982000Y-122366000D02*
X139200000Y-121148000D01*
X139132000Y-133676000D02*
X139132000Y-138996000D01*
X129722000Y-125088500D02*
X131311500Y-125088500D01*
X139200000Y-116796000D02*
X138300000Y-115896000D01*
X92182000Y-136485315D02*
X93666315Y-135001000D01*
X137982000Y-129986000D02*
X137982000Y-132526000D01*
X134727000Y-147926000D02*
X123226000Y-147926000D01*
X135143346Y-136436000D02*
X136600000Y-134979346D01*
X136816000Y-60016000D02*
X136800000Y-60000000D01*
X137082000Y-95326000D02*
X134282000Y-95326000D01*
X115300000Y-102451000D02*
X115349500Y-102500500D01*
X137962000Y-147746000D02*
X137982000Y-147766000D01*
X123200000Y-147900000D02*
X121700000Y-147900000D01*
X134800000Y-100667000D02*
X134800000Y-103416000D01*
X134000000Y-65200000D02*
X134000000Y-63114000D01*
X105535654Y-103400000D02*
X104131654Y-101996000D01*
X134733000Y-100600000D02*
X134800000Y-100667000D01*
X120789950Y-103400000D02*
X105535654Y-103400000D01*
X134800000Y-103416000D02*
X133757000Y-103416000D01*
X133102000Y-62216000D02*
X132152000Y-62216000D01*
X121689950Y-104300000D02*
X120789950Y-103400000D01*
X134000000Y-63114000D02*
X133102000Y-62216000D01*
X133757000Y-103416000D02*
X132873000Y-104300000D01*
X132873000Y-104300000D02*
X121689950Y-104300000D01*
X104131654Y-101996000D02*
X93500000Y-101996000D01*
X127606000Y-87400000D02*
X125532000Y-85326000D01*
X132101795Y-87501795D02*
X132000000Y-87400000D01*
X132000000Y-87400000D02*
X127606000Y-87400000D01*
X125532000Y-85326000D02*
X113032000Y-85326000D01*
X135716745Y-78500000D02*
X109643000Y-78500000D01*
X109643000Y-78500000D02*
X108957000Y-79186000D01*
X136300500Y-77916245D02*
X135716745Y-78500000D01*
M02*
