M48
; DRILL file {KiCad 7.0.7} date Tue Apr  2 17:30:49 2024
; FORMAT={-:-/ absolute / metric / decimal}
; #@! TF.CreationDate,2024-04-02T17:30:49-04:00
; #@! TF.GenerationSoftware,Kicad,Pcbnew,7.0.7
; #@! TF.FileFunction,Plated,1,2,PTH
FMAT,2
METRIC
; #@! TA.AperFunction,Plated,PTH,ViaDrill
T1C0.300
; #@! TA.AperFunction,Plated,PTH,ComponentDrill
T2C0.800
%
G90
G05
T1
X134.35Y-101.038
X136.851Y-100.038
X137.15Y-92.838
X137.25Y-93.638
X138.35Y-101.838
X138.904Y-91.948
X139.65Y-107.438
X141.65Y-105.338
X142.05Y-109.038
X143.35Y-110.938
X144.75Y-84.138
X145.05Y-86.038
X147.45Y-95.438
X149.25Y-109.238
X149.95Y-86.238
X150.35Y-82.638
X153.15Y-106.838
X153.85Y-86.338
X155.55Y-90.138
X155.95Y-102.738
X156.15Y-92.638
X157.322Y-100.409
X157.351Y-92.539
X157.75Y-86.438
X159.15Y-92.138
T2
X155.636Y-107.252
X157.05Y-105.838
X158.464Y-104.423
T0
M30
