%TF.GenerationSoftware,KiCad,Pcbnew,7.0.7*%
%TF.CreationDate,2024-04-02T17:30:46-04:00*%
%TF.ProjectId,battery_leds,62617474-6572-4795-9f6c-6564732e6b69,rev?*%
%TF.SameCoordinates,Original*%
%TF.FileFunction,Copper,L1,Top*%
%TF.FilePolarity,Positive*%
%FSLAX46Y46*%
G04 Gerber Fmt 4.6, Leading zero omitted, Abs format (unit mm)*
G04 Created by KiCad (PCBNEW 7.0.7) date 2024-04-02 17:30:46*
%MOMM*%
%LPD*%
G01*
G04 APERTURE LIST*
G04 Aperture macros list*
%AMRoundRect*
0 Rectangle with rounded corners*
0 $1 Rounding radius*
0 $2 $3 $4 $5 $6 $7 $8 $9 X,Y pos of 4 corners*
0 Add a 4 corners polygon primitive as box body*
4,1,4,$2,$3,$4,$5,$6,$7,$8,$9,$2,$3,0*
0 Add four circle primitives for the rounded corners*
1,1,$1+$1,$2,$3*
1,1,$1+$1,$4,$5*
1,1,$1+$1,$6,$7*
1,1,$1+$1,$8,$9*
0 Add four rect primitives between the rounded corners*
20,1,$1+$1,$2,$3,$4,$5,0*
20,1,$1+$1,$4,$5,$6,$7,0*
20,1,$1+$1,$6,$7,$8,$9,0*
20,1,$1+$1,$8,$9,$2,$3,0*%
%AMHorizOval*
0 Thick line with rounded ends*
0 $1 width*
0 $2 $3 position (X,Y) of the first rounded end (center of the circle)*
0 $4 $5 position (X,Y) of the second rounded end (center of the circle)*
0 Add line between two ends*
20,1,$1,$2,$3,$4,$5,0*
0 Add two circle primitives to create the rounded ends*
1,1,$1,$2,$3*
1,1,$1,$4,$5*%
%AMRotRect*
0 Rectangle, with rotation*
0 The origin of the aperture is its center*
0 $1 length*
0 $2 width*
0 $3 Rotation angle, in degrees counterclockwise*
0 Add horizontal line*
21,1,$1,$2,0,0,$3*%
G04 Aperture macros list end*
%TA.AperFunction,SMDPad,CuDef*%
%ADD10RoundRect,0.200000X0.335876X0.053033X0.053033X0.335876X-0.335876X-0.053033X-0.053033X-0.335876X0*%
%TD*%
%TA.AperFunction,SMDPad,CuDef*%
%ADD11RoundRect,0.150000X-0.150000X0.587500X-0.150000X-0.587500X0.150000X-0.587500X0.150000X0.587500X0*%
%TD*%
%TA.AperFunction,SMDPad,CuDef*%
%ADD12RoundRect,0.218750X-0.218750X-0.256250X0.218750X-0.256250X0.218750X0.256250X-0.218750X0.256250X0*%
%TD*%
%TA.AperFunction,ComponentPad*%
%ADD13RotRect,1.350000X1.350000X315.000000*%
%TD*%
%TA.AperFunction,ComponentPad*%
%ADD14HorizOval,1.350000X0.000000X0.000000X0.000000X0.000000X0*%
%TD*%
%TA.AperFunction,SMDPad,CuDef*%
%ADD15RoundRect,0.218750X-0.335876X-0.026517X-0.026517X-0.335876X0.335876X0.026517X0.026517X0.335876X0*%
%TD*%
%TA.AperFunction,SMDPad,CuDef*%
%ADD16RoundRect,0.218750X0.256250X-0.218750X0.256250X0.218750X-0.256250X0.218750X-0.256250X-0.218750X0*%
%TD*%
%TA.AperFunction,SMDPad,CuDef*%
%ADD17RoundRect,0.218750X0.335876X0.026517X0.026517X0.335876X-0.335876X-0.026517X-0.026517X-0.335876X0*%
%TD*%
%TA.AperFunction,SMDPad,CuDef*%
%ADD18RoundRect,0.218750X-0.026517X0.335876X-0.335876X0.026517X0.026517X-0.335876X0.335876X-0.026517X0*%
%TD*%
%TA.AperFunction,SMDPad,CuDef*%
%ADD19RoundRect,0.218750X0.026517X-0.335876X0.335876X-0.026517X-0.026517X0.335876X-0.335876X0.026517X0*%
%TD*%
%TA.AperFunction,SMDPad,CuDef*%
%ADD20RoundRect,0.200000X0.200000X0.275000X-0.200000X0.275000X-0.200000X-0.275000X0.200000X-0.275000X0*%
%TD*%
%TA.AperFunction,SMDPad,CuDef*%
%ADD21RoundRect,0.218750X-0.256250X0.218750X-0.256250X-0.218750X0.256250X-0.218750X0.256250X0.218750X0*%
%TD*%
%TA.AperFunction,SMDPad,CuDef*%
%ADD22RoundRect,0.050000X-0.229810X-0.300520X0.300520X0.229810X0.229810X0.300520X-0.300520X-0.229810X0*%
%TD*%
%TA.AperFunction,SMDPad,CuDef*%
%ADD23RoundRect,0.050000X0.229810X-0.300520X0.300520X-0.229810X-0.229810X0.300520X-0.300520X0.229810X0*%
%TD*%
%TA.AperFunction,SMDPad,CuDef*%
%ADD24RotRect,1.650000X1.650000X45.000000*%
%TD*%
%TA.AperFunction,SMDPad,CuDef*%
%ADD25RoundRect,0.200000X-0.053033X0.335876X-0.335876X0.053033X0.053033X-0.335876X0.335876X-0.053033X0*%
%TD*%
%TA.AperFunction,SMDPad,CuDef*%
%ADD26R,0.650000X1.050000*%
%TD*%
%TA.AperFunction,ViaPad*%
%ADD27C,0.600000*%
%TD*%
%TA.AperFunction,Conductor*%
%ADD28C,0.200000*%
%TD*%
G04 APERTURE END LIST*
D10*
%TO.P,R1,1*%
%TO.N,Net-(U1-PD6)*%
X135133364Y-100420864D03*
%TO.P,R1,2*%
%TO.N,Net-(D1-A)*%
X133966638Y-99254138D03*
%TD*%
D11*
%TO.P,Q2,1,G*%
%TO.N,Net-(Q2-G)*%
X142900001Y-95500001D03*
%TO.P,Q2,2,S*%
%TO.N,GND*%
X141000001Y-95500001D03*
%TO.P,Q2,3,D*%
%TO.N,Net-(Q1-D)*%
X141950001Y-97375001D03*
%TD*%
D12*
%TO.P,D2,1,K*%
%TO.N,Net-(D1-A)*%
X140762501Y-88437501D03*
%TO.P,D2,2,A*%
%TO.N,Net-(D1-K)*%
X142337501Y-88437501D03*
%TD*%
D13*
%TO.P,J1,1,Pin_1*%
%TO.N,GND*%
X158464215Y-104423287D03*
D14*
%TO.P,J1,2,Pin_2*%
%TO.N,+3.3V*%
X157050001Y-105837501D03*
%TO.P,J1,3,Pin_3*%
%TO.N,SWIO*%
X155635788Y-107251714D03*
%TD*%
D15*
%TO.P,D1,1,K*%
%TO.N,Net-(D1-K)*%
X144593154Y-89780654D03*
%TO.P,D1,2,A*%
%TO.N,Net-(D1-A)*%
X145706848Y-90894348D03*
%TD*%
D11*
%TO.P,Q1,1,G*%
%TO.N,Net-(Q1-G)*%
X154300001Y-95500001D03*
%TO.P,Q1,2,S*%
%TO.N,GND*%
X152400001Y-95500001D03*
%TO.P,Q1,3,D*%
%TO.N,Net-(Q1-D)*%
X153350001Y-97375001D03*
%TD*%
D16*
%TO.P,D17,1,K*%
%TO.N,Net-(D1-K)*%
X159150001Y-94725001D03*
%TO.P,D17,2,A*%
%TO.N,Net-(D10-K)*%
X159150001Y-93150001D03*
%TD*%
D15*
%TO.P,D13,1,K*%
%TO.N,Net-(D13-K)*%
X151793154Y-101880654D03*
%TO.P,D13,2,A*%
%TO.N,Net-(D1-K)*%
X152906848Y-102994348D03*
%TD*%
D17*
%TO.P,D5,1,K*%
%TO.N,Net-(D13-K)*%
X137506848Y-98494348D03*
%TO.P,D5,2,A*%
%TO.N,Net-(D1-A)*%
X136393154Y-97380654D03*
%TD*%
D18*
%TO.P,D12,1,K*%
%TO.N,Net-(D1-K)*%
X151206848Y-104580654D03*
%TO.P,D12,2,A*%
%TO.N,Net-(D11-K)*%
X150093154Y-105694348D03*
%TD*%
%TO.P,D3,1,K*%
%TO.N,Net-(D11-K)*%
X138006848Y-89380654D03*
%TO.P,D3,2,A*%
%TO.N,Net-(D1-A)*%
X136893154Y-90494348D03*
%TD*%
D19*
%TO.P,D18,1,K*%
%TO.N,Net-(D10-K)*%
X149193154Y-90894348D03*
%TO.P,D18,2,A*%
%TO.N,Net-(D11-K)*%
X150306848Y-89780654D03*
%TD*%
D17*
%TO.P,D10,1,K*%
%TO.N,Net-(D10-K)*%
X143006848Y-103994348D03*
%TO.P,D10,2,A*%
%TO.N,Net-(D1-A)*%
X141893154Y-102880654D03*
%TD*%
D20*
%TO.P,R15,1*%
%TO.N,Net-(Q2-G)*%
X142600003Y-93037501D03*
%TO.P,R15,2*%
%TO.N,GND*%
X140950003Y-93037501D03*
%TD*%
D17*
%TO.P,D6,1,K*%
%TO.N,Net-(D1-A)*%
X140306848Y-101294348D03*
%TO.P,D6,2,A*%
%TO.N,Net-(D13-K)*%
X139193154Y-100180654D03*
%TD*%
D21*
%TO.P,D4,1,K*%
%TO.N,Net-(D1-A)*%
X135750001Y-93150001D03*
%TO.P,D4,2,A*%
%TO.N,Net-(D11-K)*%
X135750001Y-94725001D03*
%TD*%
D17*
%TO.P,D19,1,K*%
%TO.N,Net-(D13-K)*%
X157906848Y-90594348D03*
%TO.P,D19,2,A*%
%TO.N,Net-(D11-K)*%
X156793154Y-89480654D03*
%TD*%
D19*
%TO.P,D14,1,K*%
%TO.N,Net-(D1-K)*%
X154593154Y-101194348D03*
%TO.P,D14,2,A*%
%TO.N,Net-(D13-K)*%
X155706848Y-100080654D03*
%TD*%
%TO.P,D20,1,K*%
%TO.N,Net-(D11-K)*%
X146393154Y-93794348D03*
%TO.P,D20,2,A*%
%TO.N,Net-(D10-K)*%
X147506848Y-92680654D03*
%TD*%
D20*
%TO.P,R4,1*%
%TO.N,Net-(D13-K)*%
X142775001Y-85237501D03*
%TO.P,R4,2*%
%TO.N,Net-(U1-PD3)*%
X141125001Y-85237501D03*
%TD*%
D12*
%TO.P,D7,1,K*%
%TO.N,Net-(D11-K)*%
X152662501Y-88537501D03*
%TO.P,D7,2,A*%
%TO.N,Net-(D13-K)*%
X154237501Y-88537501D03*
%TD*%
D22*
%TO.P,U1,1,PD7*%
%TO.N,unconnected-(U1-PD7-Pad1)*%
X136759011Y-105617292D03*
%TO.P,U1,2,PA1*%
%TO.N,unconnected-(U1-PA1-Pad2)*%
X137041853Y-105900135D03*
%TO.P,U1,3,PA2*%
%TO.N,unconnected-(U1-PA2-Pad3)*%
X137324696Y-106182978D03*
%TO.P,U1,4,GND*%
%TO.N,Net-(Q1-D)*%
X137607539Y-106465821D03*
%TO.P,U1,5,PD0*%
%TO.N,Net-(U1-PD0)*%
X137890382Y-106748663D03*
D23*
%TO.P,U1,6,VDD*%
%TO.N,+3.3V*%
X138809620Y-106748663D03*
%TO.P,U1,7,PC0*%
%TO.N,Net-(Q1-G)*%
X139092463Y-106465821D03*
%TO.P,U1,8,PC1*%
%TO.N,unconnected-(U1-PC1-Pad8)*%
X139375306Y-106182978D03*
%TO.P,U1,9,PC2*%
%TO.N,Net-(U1-PC2)*%
X139658149Y-105900135D03*
%TO.P,U1,10,PC3*%
%TO.N,Net-(U1-PC3)*%
X139940991Y-105617292D03*
D22*
%TO.P,U1,11,PC4*%
%TO.N,unconnected-(U1-PC4-Pad11)*%
X139940991Y-104698054D03*
%TO.P,U1,12,PC5*%
%TO.N,unconnected-(U1-PC5-Pad12)*%
X139658149Y-104415211D03*
%TO.P,U1,13,PC6*%
%TO.N,unconnected-(U1-PC6-Pad13)*%
X139375306Y-104132368D03*
%TO.P,U1,14,PC7*%
%TO.N,unconnected-(U1-PC7-Pad14)*%
X139092463Y-103849525D03*
%TO.P,U1,15,PD1*%
%TO.N,SWIO*%
X138809620Y-103566683D03*
D23*
%TO.P,U1,16,PD2*%
%TO.N,Net-(Q2-G)*%
X137890382Y-103566683D03*
%TO.P,U1,17,PD3*%
%TO.N,Net-(U1-PD3)*%
X137607539Y-103849525D03*
%TO.P,U1,18,PD4*%
%TO.N,unconnected-(U1-PD4-Pad18)*%
X137324696Y-104132368D03*
%TO.P,U1,19,PD5*%
%TO.N,unconnected-(U1-PD5-Pad19)*%
X137041853Y-104415211D03*
%TO.P,U1,20,PD6*%
%TO.N,Net-(U1-PD6)*%
X136759011Y-104698054D03*
D24*
%TO.P,U1,21*%
%TO.N,N/C*%
X138350001Y-105157673D03*
%TD*%
D19*
%TO.P,D16,1,K*%
%TO.N,Net-(D10-K)*%
X157393154Y-98394348D03*
%TO.P,D16,2,A*%
%TO.N,Net-(D1-K)*%
X158506848Y-97280654D03*
%TD*%
D20*
%TO.P,R6,1*%
%TO.N,Net-(Q1-G)*%
X154104290Y-93061650D03*
%TO.P,R6,2*%
%TO.N,GND*%
X152454290Y-93061650D03*
%TD*%
D25*
%TO.P,R3,1*%
%TO.N,Net-(D11-K)*%
X152033364Y-107854138D03*
%TO.P,R3,2*%
%TO.N,Net-(U1-PD0)*%
X150866638Y-109020864D03*
%TD*%
%TO.P,R2,1*%
%TO.N,Net-(D1-K)*%
X161050001Y-99437501D03*
%TO.P,R2,2*%
%TO.N,Net-(U1-PC3)*%
X159883275Y-100604227D03*
%TD*%
D18*
%TO.P,D11,1,K*%
%TO.N,Net-(D11-K)*%
X148506848Y-107280654D03*
%TO.P,D11,2,A*%
%TO.N,Net-(D1-K)*%
X147393154Y-108394348D03*
%TD*%
D26*
%TO.P,SW2,1,1*%
%TO.N,Net-(Q1-G)*%
X148525001Y-97962501D03*
X148525001Y-102112501D03*
%TO.P,SW2,2,2*%
%TO.N,+3.3V*%
X146375001Y-97962501D03*
X146375001Y-102112501D03*
%TD*%
D17*
%TO.P,D15,1,K*%
%TO.N,Net-(D1-A)*%
X145706848Y-106694348D03*
%TO.P,D15,2,A*%
%TO.N,Net-(D10-K)*%
X144593154Y-105580654D03*
%TD*%
D10*
%TO.P,R5,1*%
%TO.N,Net-(D10-K)*%
X143933364Y-108720864D03*
%TO.P,R5,2*%
%TO.N,Net-(U1-PC2)*%
X142766638Y-107554138D03*
%TD*%
D27*
%TO.N,Net-(D1-K)*%
X157750001Y-86437501D03*
X150350001Y-82637501D03*
%TO.N,Net-(D13-K)*%
X136850501Y-100037501D03*
X144750001Y-84137501D03*
X153850001Y-86337501D03*
%TO.N,GND*%
X147450001Y-95437501D03*
%TO.N,Net-(Q1-G)*%
X142050001Y-109037501D03*
X157351090Y-92538590D03*
X153150001Y-106837501D03*
X155950001Y-102737501D03*
%TO.N,Net-(Q1-D)*%
X149950001Y-86237501D03*
X134350001Y-101037501D03*
X137150001Y-92837501D03*
X156150001Y-92637501D03*
X145050001Y-86037501D03*
%TO.N,+3.3V*%
X139650001Y-107437501D03*
X137250001Y-93637501D03*
%TO.N,SWIO*%
X141650001Y-105337501D03*
%TO.N,Net-(Q2-G)*%
X138350001Y-101837501D03*
X138903915Y-91947947D03*
%TO.N,Net-(D10-K)*%
X155550001Y-90137501D03*
X157321921Y-100409421D03*
X159150001Y-92137501D03*
%TO.N,Net-(U1-PD0)*%
X143350001Y-110937501D03*
X149250001Y-109237501D03*
%TD*%
D28*
%TO.N,Net-(D1-K)*%
X147650001Y-108137501D02*
X147650001Y-106837501D01*
X158506848Y-97280654D02*
X157306848Y-97280654D01*
X161050001Y-90937501D02*
X161050001Y-94937501D01*
X150350001Y-82637501D02*
X151250001Y-83537501D01*
X159362501Y-94937501D02*
X161050001Y-94937501D01*
X159150001Y-94725001D02*
X159362501Y-94937501D01*
X151250001Y-86637501D02*
X148106848Y-89780654D01*
X152906848Y-102880654D02*
X154593154Y-101194348D01*
X158506848Y-97280654D02*
X158893154Y-97280654D01*
X152793154Y-102994348D02*
X152906848Y-102994348D01*
X147393154Y-108394348D02*
X147650001Y-108137501D01*
X159550001Y-89437501D02*
X161050001Y-90937501D01*
X157750001Y-86437501D02*
X159550001Y-88237501D01*
X156898010Y-99985510D02*
X155689171Y-101194348D01*
X156250001Y-99337501D02*
X156898010Y-99985510D01*
X156250001Y-98337501D02*
X156250001Y-99337501D01*
X143680654Y-89780654D02*
X142337501Y-88437501D01*
X157306848Y-97280654D02*
X156250001Y-98337501D01*
X149906848Y-104580654D02*
X151206848Y-104580654D01*
X161050001Y-94937501D02*
X161050001Y-99437501D01*
X148106848Y-89780654D02*
X144593154Y-89780654D01*
X159550001Y-88237501D02*
X159550001Y-89437501D01*
X147650001Y-106837501D02*
X149906848Y-104580654D01*
X155689171Y-101194348D02*
X154593154Y-101194348D01*
X144593154Y-89780654D02*
X143680654Y-89780654D01*
X151206848Y-104580654D02*
X152793154Y-102994348D01*
X158506848Y-97280654D02*
X158506848Y-95368154D01*
X152906848Y-102994348D02*
X152906848Y-102880654D01*
X151250001Y-83537501D02*
X151250001Y-86637501D01*
X158506848Y-95368154D02*
X159150001Y-94725001D01*
%TO.N,Net-(D1-A)*%
X140762501Y-88437501D02*
X140262501Y-87937501D01*
X143493154Y-102880654D02*
X145706848Y-105094348D01*
X133450501Y-98738001D02*
X133966638Y-99254138D01*
X135840122Y-97380654D02*
X136393154Y-97380654D01*
X140262501Y-87937501D02*
X137850001Y-87937501D01*
X135750001Y-91637501D02*
X135750001Y-93150001D01*
X144506848Y-90894348D02*
X143793154Y-90180654D01*
X134750001Y-95737501D02*
X136393154Y-97380654D01*
X145706848Y-105094348D02*
X145706848Y-106694348D01*
X136393154Y-97380654D02*
X137893154Y-97380654D01*
X140306848Y-101294348D02*
X141893154Y-102880654D01*
X142505654Y-90180654D02*
X140762501Y-88437501D01*
X134750001Y-94150001D02*
X134750001Y-95737501D01*
X143793154Y-90180654D02*
X142505654Y-90180654D01*
X137850001Y-87937501D02*
X136893154Y-88894348D01*
X141893154Y-102880654D02*
X143493154Y-102880654D01*
X136893154Y-90494348D02*
X135750001Y-91637501D01*
X145706848Y-90894348D02*
X144506848Y-90894348D01*
X133450501Y-97380654D02*
X136393154Y-97380654D01*
X137893154Y-97380654D02*
X140306848Y-99794348D01*
X140306848Y-99794348D02*
X140306848Y-101294348D01*
X133450501Y-97380654D02*
X133450501Y-98738001D01*
X136893154Y-88894348D02*
X136893154Y-90494348D01*
X135750001Y-93150001D02*
X134750001Y-94150001D01*
%TO.N,Net-(D11-K)*%
X135750001Y-94437501D02*
X135750001Y-94725001D01*
X146393154Y-93794348D02*
X146393154Y-92598331D01*
X148506848Y-107280654D02*
X150093154Y-105694348D01*
X145543797Y-91748974D02*
X145465457Y-91748974D01*
X146393154Y-92598331D02*
X149210831Y-89780654D01*
X153605654Y-89480654D02*
X156793154Y-89480654D01*
X152662501Y-88537501D02*
X153605654Y-89480654D01*
X138563695Y-89937501D02*
X138006848Y-89380654D01*
X150093154Y-105913928D02*
X152033364Y-107854138D01*
X143627468Y-90580654D02*
X142339968Y-90580654D01*
X138006848Y-89380654D02*
X137850001Y-89537501D01*
X136550001Y-91937501D02*
X136550001Y-93637501D01*
X137850001Y-89537501D02*
X137850001Y-90637501D01*
X135903186Y-94725001D02*
X147250001Y-106071816D01*
X137850001Y-90637501D02*
X136550001Y-91937501D01*
X147446018Y-109437501D02*
X148506848Y-108376671D01*
X142339968Y-90580654D02*
X141696815Y-89937501D01*
X149210831Y-89780654D02*
X150306848Y-89780654D01*
X147250001Y-107437501D02*
X146538528Y-108148974D01*
X136550001Y-93637501D02*
X135750001Y-94437501D01*
X145010831Y-91294348D02*
X144341162Y-91294348D01*
X148506848Y-108376671D02*
X148506848Y-107280654D01*
X145465457Y-91748974D02*
X145010831Y-91294348D01*
X146950001Y-109437501D02*
X147446018Y-109437501D01*
X144341162Y-91294348D02*
X143627468Y-90580654D01*
X147250001Y-106071816D02*
X147250001Y-107437501D01*
X146538528Y-108148974D02*
X146538528Y-109026028D01*
X146538528Y-109026028D02*
X146950001Y-109437501D01*
X141696815Y-89937501D02*
X138563695Y-89937501D01*
X151419348Y-89780654D02*
X152662501Y-88537501D01*
X135750001Y-94725001D02*
X135903186Y-94725001D01*
X146393154Y-92598331D02*
X145543797Y-91748974D01*
X150306848Y-89780654D02*
X151419348Y-89780654D01*
X149831846Y-105694348D02*
X150093154Y-105694348D01*
X150093154Y-105694348D02*
X150093154Y-105913928D01*
%TO.N,Net-(D13-K)*%
X143875001Y-84137501D02*
X142775001Y-85237501D01*
X156946018Y-88537501D02*
X157906848Y-89498331D01*
X137506848Y-98494348D02*
X139193154Y-100180654D01*
X155706848Y-98280654D02*
X155706848Y-100080654D01*
X157906848Y-90594348D02*
X158106848Y-90794348D01*
X155706848Y-100080654D02*
X153593154Y-100080654D01*
X158106848Y-95880654D02*
X155706848Y-98280654D01*
X137506848Y-98494348D02*
X137506848Y-99381154D01*
X153593154Y-100080654D02*
X151793154Y-101880654D01*
X158106848Y-90794348D02*
X158106848Y-95880654D01*
X155750001Y-88237501D02*
X155750001Y-88537501D01*
X157906848Y-89498331D02*
X157906848Y-90594348D01*
X155750001Y-88537501D02*
X155850001Y-88537501D01*
X137506848Y-99381154D02*
X136850501Y-100037501D01*
X155850001Y-88537501D02*
X156946018Y-88537501D01*
X144750001Y-84137501D02*
X143875001Y-84137501D01*
X153850001Y-86337501D02*
X155750001Y-88237501D01*
X154237501Y-88537501D02*
X155750001Y-88537501D01*
%TO.N,Net-(Q1-G)*%
X148499999Y-97887503D02*
X148499999Y-98762501D01*
X154300001Y-94237501D02*
X152250001Y-94237501D01*
X142050001Y-109037501D02*
X142050001Y-108988972D01*
X151350001Y-95137501D02*
X151250001Y-95137501D01*
X154300001Y-93257362D02*
X154300001Y-94237501D01*
X153150001Y-106837501D02*
X153150001Y-105537501D01*
X148500000Y-102087500D02*
X148500000Y-98762501D01*
X156750001Y-91937501D02*
X155228439Y-91937501D01*
X139894527Y-106833498D02*
X139460140Y-106833498D01*
X154300001Y-94237501D02*
X154300000Y-95500000D01*
X153150001Y-105537501D02*
X155950001Y-102737501D01*
X139460140Y-106833498D02*
X139092463Y-106465821D01*
X154104290Y-93061650D02*
X154300001Y-93257362D01*
X157351090Y-92538590D02*
X156750001Y-91937501D01*
X148525001Y-102112501D02*
X148500000Y-102087500D01*
X152250001Y-94237501D02*
X151350001Y-95137501D01*
X151250001Y-95137501D02*
X148499999Y-97887503D01*
X142050001Y-108988972D02*
X139894527Y-106833498D01*
X155228439Y-91937501D02*
X154104290Y-93061650D01*
%TO.N,Net-(Q1-D)*%
X148248332Y-88040028D02*
X149950001Y-86338359D01*
X140400001Y-96273897D02*
X141501105Y-97375001D01*
X155306848Y-94037501D02*
X155306848Y-96280654D01*
X137239860Y-106833498D02*
X137607539Y-106465821D01*
X134350001Y-101037501D02*
X134350001Y-104233587D01*
X155306848Y-94037501D02*
X155306848Y-93480654D01*
X137350001Y-92837501D02*
X140400001Y-95887501D01*
X155306848Y-93480654D02*
X156150001Y-92637501D01*
X136949912Y-106833498D02*
X137239860Y-106833498D01*
X146651670Y-88040028D02*
X148248332Y-88040028D01*
X137150001Y-92837501D02*
X137350001Y-92837501D01*
X141501105Y-97375001D02*
X141950001Y-97375001D01*
X149950001Y-86338359D02*
X149950001Y-86237501D01*
X145050001Y-86438359D02*
X146651670Y-88040028D01*
X155306848Y-96280654D02*
X154212501Y-97375001D01*
X140400001Y-95887501D02*
X140400001Y-96273897D01*
X154212501Y-97375001D02*
X153350001Y-97375001D01*
X145050001Y-86037501D02*
X145050001Y-86438359D01*
X134350001Y-104233587D02*
X136949912Y-106833498D01*
%TO.N,+3.3V*%
X153995310Y-110271051D02*
X157050001Y-107216360D01*
X152550001Y-110837501D02*
X153050001Y-110337501D01*
X139650001Y-107437501D02*
X139650001Y-107486030D01*
X140944639Y-98762501D02*
X146349999Y-98762501D01*
X139650001Y-107486030D02*
X142501472Y-110337501D01*
X143650001Y-110337501D02*
X144150001Y-110837501D01*
X146350001Y-97987501D02*
X146375001Y-97962501D01*
X137250001Y-95067863D02*
X140944639Y-98762501D01*
X142501472Y-110337501D02*
X143650001Y-110337501D01*
X137250001Y-93637501D02*
X137250001Y-95067863D01*
X144150001Y-110837501D02*
X152550001Y-110837501D01*
X157050001Y-107216360D02*
X157050001Y-105837501D01*
X139498458Y-107437501D02*
X138809620Y-106748663D01*
X153050001Y-110337501D02*
X153848042Y-110337501D01*
X139650001Y-107437501D02*
X139498458Y-107437501D01*
X153848042Y-110337501D02*
X153995310Y-110271051D01*
X146350001Y-102087501D02*
X146350001Y-97987501D01*
X146375001Y-102112501D02*
X146350001Y-102087501D01*
%TO.N,SWIO*%
X139177299Y-103199005D02*
X139511505Y-103199005D01*
X139511505Y-103199005D02*
X141650001Y-105337501D01*
X138809620Y-103566683D02*
X139177299Y-103199005D01*
%TO.N,Net-(Q2-G)*%
X142900002Y-95500001D02*
X142900000Y-93337501D01*
X141825003Y-92262501D02*
X142600003Y-93037501D01*
X138350001Y-101837501D02*
X137890382Y-102297120D01*
X142900000Y-93337501D02*
X142600000Y-93037501D01*
X137890382Y-102297120D02*
X137890382Y-103566683D01*
X138903915Y-91947947D02*
X139218469Y-92262501D01*
X139218469Y-92262501D02*
X141825003Y-92262501D01*
%TO.N,Net-(U1-PD6)*%
X135133364Y-103072407D02*
X136759011Y-104698054D01*
X135133364Y-100420864D02*
X135133364Y-103072407D01*
%TO.N,Net-(U1-PD3)*%
X141125001Y-85237501D02*
X138050001Y-85237501D01*
X138050001Y-85237501D02*
X133950001Y-89337501D01*
X134979291Y-99584988D02*
X135393503Y-99584988D01*
X136950001Y-101141486D02*
X136950001Y-103191987D01*
X135393503Y-99584988D02*
X136950001Y-101141486D01*
X136950001Y-103191987D02*
X137607539Y-103849525D01*
X132550001Y-92737501D02*
X132550001Y-98933516D01*
X133706499Y-100090014D02*
X134474265Y-100090014D01*
X134474265Y-100090014D02*
X134979291Y-99584988D01*
X132550001Y-98933516D02*
X133706499Y-100090014D01*
X133950001Y-89337501D02*
X133950001Y-91337501D01*
X133950001Y-91337501D02*
X132550001Y-92737501D01*
%TO.N,Net-(D10-K)*%
X151230762Y-109856740D02*
X150712565Y-109856740D01*
X149423912Y-90663590D02*
X149193154Y-90894348D01*
X155023912Y-90663590D02*
X149423912Y-90663590D01*
X150712565Y-109856740D02*
X150693326Y-109837501D01*
X159150001Y-92137501D02*
X159150001Y-93150001D01*
X155550001Y-90137501D02*
X155023912Y-90663590D01*
X149193154Y-90994348D02*
X149193154Y-90894348D01*
X144593154Y-108061074D02*
X143933364Y-108720864D01*
X150693326Y-109837501D02*
X145050001Y-109837501D01*
X147506848Y-92680654D02*
X149193154Y-90994348D01*
X154050001Y-106037501D02*
X154050001Y-107037501D01*
X145050001Y-109837501D02*
X143933364Y-108720864D01*
X157321921Y-102765581D02*
X154050001Y-106037501D01*
X157321921Y-100409421D02*
X157321921Y-102765581D01*
X154050001Y-107037501D02*
X151230762Y-109856740D01*
X157321921Y-100409421D02*
X157321921Y-98465581D01*
X157321921Y-98465581D02*
X157393154Y-98394348D01*
X143006848Y-103994348D02*
X144593154Y-105580654D01*
X144593154Y-105580654D02*
X144593154Y-108061074D01*
%TO.N,Net-(U1-PC2)*%
X141312152Y-107554138D02*
X142766638Y-107554138D01*
X139658149Y-105900135D02*
X141312152Y-107554138D01*
%TO.N,Net-(U1-PD0)*%
X150650001Y-109237501D02*
X150866638Y-109020864D01*
X141795576Y-110653857D02*
X137890382Y-106748663D01*
X149250001Y-109237501D02*
X150650001Y-109237501D01*
X143150001Y-110737501D02*
X142008697Y-110737501D01*
X143350001Y-110937501D02*
X143150001Y-110737501D01*
X142008697Y-110737501D02*
X141795576Y-110653857D01*
%TO.N,Net-(U1-PC3)*%
X142245667Y-105937501D02*
X143779291Y-107471125D01*
X143779291Y-107884988D02*
X143097488Y-108566791D01*
X154650001Y-106003187D02*
X159883275Y-100769913D01*
X144373225Y-110256740D02*
X151396448Y-110256740D01*
X139940991Y-105617292D02*
X140261200Y-105937501D01*
X159883275Y-100769913D02*
X159883275Y-100604227D01*
X143097488Y-108981003D02*
X144373225Y-110256740D01*
X140261200Y-105937501D02*
X142245667Y-105937501D01*
X151396448Y-110256740D02*
X154650001Y-107003187D01*
X143779291Y-107471125D02*
X143779291Y-107884988D01*
X143097488Y-108566791D02*
X143097488Y-108981003D01*
X154650001Y-107003187D02*
X154650001Y-106003187D01*
%TD*%
%TA.AperFunction,Conductor*%
%TO.N,GND*%
G36*
X148233464Y-80857854D02*
G01*
X148236599Y-80858013D01*
X148478158Y-80876408D01*
X149016510Y-80917406D01*
X149019603Y-80917720D01*
X149795511Y-81016539D01*
X149798595Y-81017011D01*
X150568516Y-81155006D01*
X150571538Y-81155627D01*
X151333462Y-81332435D01*
X151336474Y-81333214D01*
X152088488Y-81548393D01*
X152091461Y-81549326D01*
X152831593Y-81802311D01*
X152834494Y-81803385D01*
X153560871Y-82093535D01*
X153563734Y-82094763D01*
X154202730Y-82388365D01*
X154274445Y-82421316D01*
X154277265Y-82422699D01*
X154970547Y-82784840D01*
X154973294Y-82786364D01*
X155647340Y-83183151D01*
X155649972Y-83184791D01*
X156303063Y-83615215D01*
X156305621Y-83616995D01*
X156936077Y-84079946D01*
X156938561Y-84081869D01*
X157544726Y-84576133D01*
X157547110Y-84578179D01*
X158127488Y-85102531D01*
X158129765Y-85104696D01*
X158682805Y-85657736D01*
X158684970Y-85660013D01*
X159209322Y-86240391D01*
X159211368Y-86242775D01*
X159705632Y-86848940D01*
X159707555Y-86851424D01*
X160170506Y-87481880D01*
X160172292Y-87484446D01*
X160602703Y-88137518D01*
X160604350Y-88140161D01*
X161001137Y-88814207D01*
X161002661Y-88816954D01*
X161364802Y-89510236D01*
X161366185Y-89513056D01*
X161692727Y-90223743D01*
X161693966Y-90226630D01*
X161984108Y-90952986D01*
X161985199Y-90955932D01*
X162238171Y-91696028D01*
X162239112Y-91699026D01*
X162454283Y-92451014D01*
X162455070Y-92454056D01*
X162631868Y-93215937D01*
X162632501Y-93219015D01*
X162770489Y-93988905D01*
X162770965Y-93992011D01*
X162869778Y-94767875D01*
X162870096Y-94771001D01*
X162929488Y-95550902D01*
X162929647Y-95554039D01*
X162949461Y-96335928D01*
X162949461Y-96339074D01*
X162929647Y-97120962D01*
X162929488Y-97124099D01*
X162870096Y-97904000D01*
X162869778Y-97907126D01*
X162770965Y-98682990D01*
X162770489Y-98686096D01*
X162632501Y-99455986D01*
X162631868Y-99459064D01*
X162455070Y-100220945D01*
X162454283Y-100223987D01*
X162239112Y-100975975D01*
X162238171Y-100978973D01*
X161985199Y-101719069D01*
X161984108Y-101722015D01*
X161693966Y-102448371D01*
X161692727Y-102451258D01*
X161366185Y-103161945D01*
X161364802Y-103164765D01*
X161002661Y-103858047D01*
X161001137Y-103860794D01*
X160604350Y-104534840D01*
X160602691Y-104537500D01*
X160497979Y-104696384D01*
X160172301Y-105190542D01*
X160170506Y-105193121D01*
X159707555Y-105823577D01*
X159705632Y-105826061D01*
X159211368Y-106432226D01*
X159209322Y-106434610D01*
X158684970Y-107014988D01*
X158682805Y-107017265D01*
X158129765Y-107570305D01*
X158127488Y-107572470D01*
X157547110Y-108096822D01*
X157544726Y-108098868D01*
X156938561Y-108593132D01*
X156936077Y-108595055D01*
X156684524Y-108779774D01*
X156618837Y-108803586D01*
X156550704Y-108788106D01*
X156501756Y-108738248D01*
X156487534Y-108669841D01*
X156512553Y-108604604D01*
X156523446Y-108592149D01*
X157443924Y-107671671D01*
X157450007Y-107666337D01*
X157478283Y-107644642D01*
X157497347Y-107619798D01*
X157508811Y-107604859D01*
X157574536Y-107519202D01*
X157574535Y-107519202D01*
X157574537Y-107519201D01*
X157635045Y-107373122D01*
X157655683Y-107216360D01*
X157651031Y-107181029D01*
X157650501Y-107172931D01*
X157650501Y-106917341D01*
X157670186Y-106850302D01*
X157709221Y-106811916D01*
X157761433Y-106779589D01*
X157922428Y-106632823D01*
X158053713Y-106458973D01*
X158150818Y-106263960D01*
X158210436Y-106054424D01*
X158217413Y-105979123D01*
X158243199Y-105914188D01*
X158299999Y-105873500D01*
X158358531Y-105867828D01*
X158464215Y-105883022D01*
X158606528Y-105862562D01*
X158606533Y-105862561D01*
X158737312Y-105802835D01*
X158783947Y-105765255D01*
X158783951Y-105765251D01*
X159118289Y-105430914D01*
X159118289Y-105430913D01*
X158648081Y-104960706D01*
X158614596Y-104899383D01*
X158619580Y-104829691D01*
X158661452Y-104773758D01*
X158679460Y-104762545D01*
X158702260Y-104750928D01*
X158791856Y-104661332D01*
X158803469Y-104638539D01*
X158851440Y-104587745D01*
X158919261Y-104570948D01*
X158985396Y-104593484D01*
X159001634Y-104607153D01*
X159471842Y-105077361D01*
X159806179Y-104743023D01*
X159806183Y-104743019D01*
X159843763Y-104696384D01*
X159903489Y-104565605D01*
X159903490Y-104565600D01*
X159923950Y-104423286D01*
X159903490Y-104280973D01*
X159903489Y-104280968D01*
X159843763Y-104150189D01*
X159806183Y-104103554D01*
X159471841Y-103769212D01*
X159471840Y-103769212D01*
X159001634Y-104239419D01*
X158940311Y-104272904D01*
X158870620Y-104267920D01*
X158814686Y-104226049D01*
X158803471Y-104208038D01*
X158791856Y-104185242D01*
X158791852Y-104185238D01*
X158791851Y-104185236D01*
X158702265Y-104095650D01*
X158702262Y-104095648D01*
X158702260Y-104095646D01*
X158679465Y-104084031D01*
X158628671Y-104036058D01*
X158611876Y-103968237D01*
X158634413Y-103902102D01*
X158648081Y-103885867D01*
X159118289Y-103415660D01*
X159118289Y-103415659D01*
X158783951Y-103081322D01*
X158783947Y-103081318D01*
X158737313Y-103043739D01*
X158708489Y-103030575D01*
X158655685Y-102984819D01*
X158636002Y-102917779D01*
X158655688Y-102850740D01*
X158672314Y-102830108D01*
X159825500Y-101676922D01*
X159886824Y-101643437D01*
X159913182Y-101640603D01*
X160021364Y-101640603D01*
X160186533Y-101599893D01*
X160337160Y-101520837D01*
X160391603Y-101475465D01*
X160754513Y-101112555D01*
X160799885Y-101058112D01*
X160878941Y-100907485D01*
X160919651Y-100742316D01*
X160919651Y-100597877D01*
X160939336Y-100530838D01*
X160992140Y-100485083D01*
X161043651Y-100473877D01*
X161188090Y-100473877D01*
X161353259Y-100433167D01*
X161503886Y-100354111D01*
X161558329Y-100308739D01*
X161921239Y-99945829D01*
X161966611Y-99891386D01*
X162045667Y-99740759D01*
X162086377Y-99575590D01*
X162086377Y-99405478D01*
X162045667Y-99240309D01*
X161966611Y-99089682D01*
X161921239Y-99035239D01*
X161686819Y-98800820D01*
X161653335Y-98739497D01*
X161650501Y-98713139D01*
X161650501Y-94980928D01*
X161651032Y-94972827D01*
X161655683Y-94937501D01*
X161655683Y-94937500D01*
X161651032Y-94902174D01*
X161650501Y-94894072D01*
X161650501Y-90980929D01*
X161651032Y-90972827D01*
X161653257Y-90955932D01*
X161655683Y-90937501D01*
X161655316Y-90934716D01*
X161635045Y-90780740D01*
X161635045Y-90780739D01*
X161574537Y-90634660D01*
X161551726Y-90604932D01*
X161478283Y-90509219D01*
X161455924Y-90492062D01*
X161450010Y-90487524D01*
X161443914Y-90482179D01*
X160186820Y-89225084D01*
X160153335Y-89163761D01*
X160150501Y-89137403D01*
X160150501Y-88280929D01*
X160151032Y-88272827D01*
X160155683Y-88237500D01*
X160155683Y-88237499D01*
X160135045Y-88080740D01*
X160135043Y-88080735D01*
X160074539Y-87934664D01*
X160074536Y-87934659D01*
X160035101Y-87883266D01*
X160028924Y-87875216D01*
X159978283Y-87809219D01*
X159950006Y-87787521D01*
X159943905Y-87782170D01*
X158580701Y-86418966D01*
X158547216Y-86357643D01*
X158545164Y-86345187D01*
X158535369Y-86258246D01*
X158475790Y-86087979D01*
X158379817Y-85935239D01*
X158252263Y-85807685D01*
X158243386Y-85802107D01*
X158099524Y-85711712D01*
X157929255Y-85652132D01*
X157929250Y-85652131D01*
X157750005Y-85631936D01*
X157749997Y-85631936D01*
X157570751Y-85652131D01*
X157570746Y-85652132D01*
X157400477Y-85711712D01*
X157247738Y-85807685D01*
X157120185Y-85935238D01*
X157024212Y-86087977D01*
X156964632Y-86258246D01*
X156964631Y-86258251D01*
X156944436Y-86437497D01*
X156944436Y-86437504D01*
X156964631Y-86616750D01*
X156964632Y-86616755D01*
X157024212Y-86787024D01*
X157120185Y-86939762D01*
X157120185Y-86939763D01*
X157247739Y-87067317D01*
X157400479Y-87163290D01*
X157570746Y-87222869D01*
X157657670Y-87232662D01*
X157722081Y-87259727D01*
X157731466Y-87268200D01*
X158913183Y-88449918D01*
X158946667Y-88511239D01*
X158949501Y-88537597D01*
X158949501Y-89394072D01*
X158948970Y-89402174D01*
X158944319Y-89437500D01*
X158944319Y-89437501D01*
X158949501Y-89476861D01*
X158964956Y-89594261D01*
X158964957Y-89594263D01*
X158993809Y-89663919D01*
X159025465Y-89740342D01*
X159121719Y-89865783D01*
X159149996Y-89887481D01*
X159156086Y-89892821D01*
X160413183Y-91149918D01*
X160446667Y-91211239D01*
X160449501Y-91237597D01*
X160449501Y-94213001D01*
X160429816Y-94280040D01*
X160377012Y-94325795D01*
X160325501Y-94337001D01*
X160197418Y-94337001D01*
X160130379Y-94317316D01*
X160084624Y-94264512D01*
X160079712Y-94252005D01*
X160078357Y-94247917D01*
X160062550Y-94200214D01*
X160055856Y-94189362D01*
X159974284Y-94057113D01*
X159974281Y-94057108D01*
X159942353Y-94025180D01*
X159908868Y-93963856D01*
X159913854Y-93894165D01*
X159942353Y-93849820D01*
X159974282Y-93817892D01*
X160062550Y-93674788D01*
X160115437Y-93515186D01*
X160125501Y-93416675D01*
X160125501Y-92883327D01*
X160115437Y-92784816D01*
X160062550Y-92625214D01*
X160062546Y-92625208D01*
X160062545Y-92625205D01*
X159974284Y-92482113D01*
X159974281Y-92482109D01*
X159957687Y-92465515D01*
X159924202Y-92404192D01*
X159928327Y-92336877D01*
X159935369Y-92316756D01*
X159936805Y-92304009D01*
X159955566Y-92137504D01*
X159955566Y-92137497D01*
X159935370Y-91958251D01*
X159935369Y-91958246D01*
X159929058Y-91940211D01*
X159875790Y-91787979D01*
X159844363Y-91737964D01*
X159803435Y-91672827D01*
X159779817Y-91635239D01*
X159652263Y-91507685D01*
X159618493Y-91486466D01*
X159499524Y-91411712D01*
X159329255Y-91352132D01*
X159329250Y-91352131D01*
X159150005Y-91331936D01*
X159149997Y-91331936D01*
X158970751Y-91352131D01*
X158970743Y-91352133D01*
X158872302Y-91386579D01*
X158802523Y-91390140D01*
X158741896Y-91355411D01*
X158709669Y-91293417D01*
X158707348Y-91269537D01*
X158707348Y-91171742D01*
X158727033Y-91104703D01*
X158743663Y-91084065D01*
X158785198Y-91042531D01*
X158847739Y-90965757D01*
X158923198Y-90815504D01*
X158961973Y-90651899D01*
X158961973Y-90483764D01*
X158923198Y-90320159D01*
X158847739Y-90169906D01*
X158785198Y-90093132D01*
X158785191Y-90093125D01*
X158785186Y-90093119D01*
X158543667Y-89851599D01*
X158510182Y-89790276D01*
X158507348Y-89763918D01*
X158507348Y-89541759D01*
X158507879Y-89533657D01*
X158510226Y-89515835D01*
X158512530Y-89498331D01*
X158509703Y-89476861D01*
X158491892Y-89341570D01*
X158491890Y-89341565D01*
X158431386Y-89195494D01*
X158431383Y-89195489D01*
X158403766Y-89159497D01*
X158354140Y-89094824D01*
X158335130Y-89070049D01*
X158306853Y-89048351D01*
X158300752Y-89043000D01*
X157868242Y-88610490D01*
X157401338Y-88143586D01*
X157395996Y-88137494D01*
X157374300Y-88109219D01*
X157248859Y-88012965D01*
X157157698Y-87975205D01*
X157102780Y-87952457D01*
X157102778Y-87952456D01*
X156985379Y-87937001D01*
X156946018Y-87931819D01*
X156910688Y-87936470D01*
X156902590Y-87937001D01*
X156337483Y-87937001D01*
X156270444Y-87917316D01*
X156239107Y-87888487D01*
X156235101Y-87883266D01*
X156178283Y-87809219D01*
X156150006Y-87787521D01*
X156143905Y-87782170D01*
X154680701Y-86318966D01*
X154647216Y-86257643D01*
X154645164Y-86245187D01*
X154635369Y-86158246D01*
X154575790Y-85987979D01*
X154479817Y-85835239D01*
X154352263Y-85707685D01*
X154276394Y-85660013D01*
X154199524Y-85611712D01*
X154029255Y-85552132D01*
X154029250Y-85552131D01*
X153850005Y-85531936D01*
X153849997Y-85531936D01*
X153670751Y-85552131D01*
X153670746Y-85552132D01*
X153500477Y-85611712D01*
X153347738Y-85707685D01*
X153220185Y-85835238D01*
X153124212Y-85987977D01*
X153064632Y-86158246D01*
X153064631Y-86158251D01*
X153044436Y-86337497D01*
X153044436Y-86337504D01*
X153064631Y-86516750D01*
X153064632Y-86516755D01*
X153124212Y-86687024D01*
X153187046Y-86787023D01*
X153220185Y-86839763D01*
X153347739Y-86967317D01*
X153500479Y-87063290D01*
X153670746Y-87122869D01*
X153757670Y-87132662D01*
X153822081Y-87159727D01*
X153831466Y-87168201D01*
X154017163Y-87353898D01*
X154050648Y-87415221D01*
X154045664Y-87484913D01*
X154003792Y-87540846D01*
X153942085Y-87564937D01*
X153872318Y-87572064D01*
X153872317Y-87572064D01*
X153872316Y-87572065D01*
X153793220Y-87598274D01*
X153712716Y-87624951D01*
X153712705Y-87624956D01*
X153569613Y-87713217D01*
X153569609Y-87713220D01*
X153537682Y-87745148D01*
X153476359Y-87778633D01*
X153406667Y-87773649D01*
X153362320Y-87745148D01*
X153330392Y-87713220D01*
X153330388Y-87713217D01*
X153187296Y-87624956D01*
X153187290Y-87624953D01*
X153187288Y-87624952D01*
X153027686Y-87572065D01*
X153027684Y-87572064D01*
X152929182Y-87562001D01*
X152929175Y-87562001D01*
X152395827Y-87562001D01*
X152395819Y-87562001D01*
X152297317Y-87572064D01*
X152297316Y-87572065D01*
X152218220Y-87598274D01*
X152137716Y-87624951D01*
X152137705Y-87624956D01*
X151994613Y-87713217D01*
X151994609Y-87713220D01*
X151875720Y-87832109D01*
X151875717Y-87832113D01*
X151787456Y-87975205D01*
X151787451Y-87975216D01*
X151767702Y-88034816D01*
X151734565Y-88134816D01*
X151734565Y-88134817D01*
X151734564Y-88134817D01*
X151724501Y-88233319D01*
X151724501Y-88574904D01*
X151704816Y-88641943D01*
X151688182Y-88662585D01*
X151206932Y-89143835D01*
X151145609Y-89177320D01*
X151119251Y-89180154D01*
X151084243Y-89180154D01*
X151017204Y-89160469D01*
X150996562Y-89143835D01*
X150755037Y-88902310D01*
X150755031Y-88902304D01*
X150678257Y-88839763D01*
X150678252Y-88839760D01*
X150678250Y-88839759D01*
X150528007Y-88764305D01*
X150528005Y-88764304D01*
X150528004Y-88764304D01*
X150364399Y-88725529D01*
X150310569Y-88725529D01*
X150243530Y-88705844D01*
X150197775Y-88653040D01*
X150187831Y-88583882D01*
X150216856Y-88520326D01*
X150222888Y-88513848D01*
X150927518Y-87809218D01*
X151643915Y-87092820D01*
X151650000Y-87087484D01*
X151678283Y-87065783D01*
X151774537Y-86940342D01*
X151835045Y-86794263D01*
X151850501Y-86676862D01*
X151855683Y-86637501D01*
X151851031Y-86602170D01*
X151850501Y-86594072D01*
X151850501Y-83580929D01*
X151851032Y-83572827D01*
X151855683Y-83537500D01*
X151855683Y-83537499D01*
X151835045Y-83380740D01*
X151835045Y-83380739D01*
X151774537Y-83234660D01*
X151774536Y-83234660D01*
X151771444Y-83227195D01*
X151762073Y-83218418D01*
X151678283Y-83109219D01*
X151650006Y-83087521D01*
X151643905Y-83082170D01*
X151180701Y-82618966D01*
X151147216Y-82557643D01*
X151145164Y-82545187D01*
X151135369Y-82458246D01*
X151075790Y-82287979D01*
X150979817Y-82135239D01*
X150852263Y-82007685D01*
X150839237Y-81999500D01*
X150699524Y-81911712D01*
X150529255Y-81852132D01*
X150529250Y-81852131D01*
X150350005Y-81831936D01*
X150349997Y-81831936D01*
X150170751Y-81852131D01*
X150170746Y-81852132D01*
X150000477Y-81911712D01*
X149847738Y-82007685D01*
X149720185Y-82135238D01*
X149624212Y-82287977D01*
X149564632Y-82458246D01*
X149564631Y-82458251D01*
X149544436Y-82637497D01*
X149544436Y-82637504D01*
X149564631Y-82816750D01*
X149564632Y-82816755D01*
X149624212Y-82987024D01*
X149683997Y-83082170D01*
X149720185Y-83139763D01*
X149847739Y-83267317D01*
X150000479Y-83363290D01*
X150170746Y-83422869D01*
X150257670Y-83432662D01*
X150322081Y-83459727D01*
X150331466Y-83468201D01*
X150613182Y-83749917D01*
X150646667Y-83811240D01*
X150649501Y-83837598D01*
X150649501Y-85507488D01*
X150629816Y-85574527D01*
X150577012Y-85620282D01*
X150507854Y-85630226D01*
X150459462Y-85609315D01*
X150458159Y-85611390D01*
X150440826Y-85600499D01*
X150399492Y-85574527D01*
X150299524Y-85511712D01*
X150129255Y-85452132D01*
X150129250Y-85452131D01*
X149950005Y-85431936D01*
X149949997Y-85431936D01*
X149770751Y-85452131D01*
X149770746Y-85452132D01*
X149600477Y-85511712D01*
X149447738Y-85607685D01*
X149320185Y-85735238D01*
X149224212Y-85887977D01*
X149164632Y-86058246D01*
X149164631Y-86058251D01*
X149144436Y-86237497D01*
X149144436Y-86243326D01*
X149124751Y-86310365D01*
X149108117Y-86331007D01*
X148035916Y-87403209D01*
X147974593Y-87436694D01*
X147948235Y-87439528D01*
X146951767Y-87439528D01*
X146884728Y-87419843D01*
X146864086Y-87403209D01*
X145849575Y-86388698D01*
X145816090Y-86327375D01*
X145820214Y-86260062D01*
X145835369Y-86216756D01*
X145841961Y-86158251D01*
X145855566Y-86037504D01*
X145855566Y-86037497D01*
X145835370Y-85858251D01*
X145835369Y-85858246D01*
X145828285Y-85838001D01*
X145775790Y-85687979D01*
X145753266Y-85652133D01*
X145695551Y-85560280D01*
X145679817Y-85535239D01*
X145552263Y-85407685D01*
X145482190Y-85363655D01*
X145399524Y-85311712D01*
X145229255Y-85252132D01*
X145229250Y-85252131D01*
X145050005Y-85231936D01*
X145049997Y-85231936D01*
X144870751Y-85252131D01*
X144870746Y-85252132D01*
X144700477Y-85311712D01*
X144547738Y-85407685D01*
X144420185Y-85535238D01*
X144324212Y-85687977D01*
X144264632Y-85858246D01*
X144264631Y-85858251D01*
X144244436Y-86037497D01*
X144244436Y-86037504D01*
X144264631Y-86216750D01*
X144264632Y-86216755D01*
X144324212Y-86387024D01*
X144420185Y-86539763D01*
X144440030Y-86559608D01*
X144466910Y-86599836D01*
X144503024Y-86687024D01*
X144525465Y-86741200D01*
X144621719Y-86866641D01*
X144649996Y-86888339D01*
X144656086Y-86893679D01*
X145436054Y-87673647D01*
X146196339Y-88433932D01*
X146201690Y-88440033D01*
X146223388Y-88468310D01*
X146316508Y-88539763D01*
X146348829Y-88564564D01*
X146348831Y-88564564D01*
X146348833Y-88564566D01*
X146413870Y-88591505D01*
X146494908Y-88625072D01*
X146573288Y-88635390D01*
X146651669Y-88645710D01*
X146651670Y-88645710D01*
X146686999Y-88641058D01*
X146695098Y-88640528D01*
X148098376Y-88640528D01*
X148165415Y-88660213D01*
X148211170Y-88713017D01*
X148221114Y-88782175D01*
X148192089Y-88845731D01*
X148186057Y-88852209D01*
X147894432Y-89143835D01*
X147833109Y-89177320D01*
X147806751Y-89180154D01*
X145423582Y-89180154D01*
X145356543Y-89160469D01*
X145335901Y-89143835D01*
X145094376Y-88902310D01*
X145094370Y-88902304D01*
X145017596Y-88839763D01*
X145017591Y-88839760D01*
X145017589Y-88839759D01*
X144867346Y-88764305D01*
X144867344Y-88764304D01*
X144867343Y-88764304D01*
X144703738Y-88725529D01*
X144535603Y-88725529D01*
X144371998Y-88764304D01*
X144371994Y-88764305D01*
X144221751Y-88839759D01*
X144221744Y-88839764D01*
X144144970Y-88902305D01*
X144144964Y-88902310D01*
X143985936Y-89061339D01*
X143924613Y-89094824D01*
X143854921Y-89089840D01*
X143810574Y-89061339D01*
X143311820Y-88562585D01*
X143278335Y-88501262D01*
X143275501Y-88474904D01*
X143275501Y-88133332D01*
X143275500Y-88133319D01*
X143270128Y-88080739D01*
X143265437Y-88034816D01*
X143212550Y-87875214D01*
X143212546Y-87875208D01*
X143212545Y-87875205D01*
X143124284Y-87732113D01*
X143124281Y-87732109D01*
X143005392Y-87613220D01*
X143005388Y-87613217D01*
X142862296Y-87524956D01*
X142862290Y-87524953D01*
X142862288Y-87524952D01*
X142702686Y-87472065D01*
X142702684Y-87472064D01*
X142604182Y-87462001D01*
X142604175Y-87462001D01*
X142070827Y-87462001D01*
X142070819Y-87462001D01*
X141972317Y-87472064D01*
X141972316Y-87472065D01*
X141893220Y-87498274D01*
X141812716Y-87524951D01*
X141812705Y-87524956D01*
X141669613Y-87613217D01*
X141669608Y-87613220D01*
X141637681Y-87645148D01*
X141576357Y-87678633D01*
X141506666Y-87673647D01*
X141462321Y-87645148D01*
X141430393Y-87613220D01*
X141430388Y-87613217D01*
X141287296Y-87524956D01*
X141287290Y-87524953D01*
X141287288Y-87524952D01*
X141127686Y-87472065D01*
X141127684Y-87472064D01*
X141029182Y-87462001D01*
X141029175Y-87462001D01*
X140671339Y-87462001D01*
X140604300Y-87442316D01*
X140595865Y-87436386D01*
X140565342Y-87412965D01*
X140565339Y-87412964D01*
X140565337Y-87412962D01*
X140419266Y-87352458D01*
X140419261Y-87352456D01*
X140301862Y-87337001D01*
X140262501Y-87331819D01*
X140227171Y-87336470D01*
X140219073Y-87337001D01*
X137893429Y-87337001D01*
X137885330Y-87336470D01*
X137850001Y-87331819D01*
X137810640Y-87337001D01*
X137693240Y-87352456D01*
X137693238Y-87352457D01*
X137547158Y-87412965D01*
X137421720Y-87509217D01*
X137400020Y-87537495D01*
X137394669Y-87543597D01*
X136499250Y-88439016D01*
X136493148Y-88444367D01*
X136464870Y-88466067D01*
X136368618Y-88591505D01*
X136308110Y-88737585D01*
X136308109Y-88737587D01*
X136287472Y-88894346D01*
X136287472Y-88894348D01*
X136288519Y-88902304D01*
X136292123Y-88929674D01*
X136292654Y-88937776D01*
X136292654Y-89663919D01*
X136272969Y-89730958D01*
X136256335Y-89751600D01*
X136014810Y-89993125D01*
X136014805Y-89993131D01*
X136014804Y-89993132D01*
X135957816Y-90063090D01*
X135952264Y-90069905D01*
X135952259Y-90069912D01*
X135876805Y-90220155D01*
X135838029Y-90383765D01*
X135838029Y-90551898D01*
X135850489Y-90604477D01*
X135846794Y-90674249D01*
X135817512Y-90720752D01*
X135356097Y-91182168D01*
X135349995Y-91187520D01*
X135321721Y-91209216D01*
X135291475Y-91248634D01*
X135240768Y-91314717D01*
X135237571Y-91318883D01*
X135225464Y-91334661D01*
X135164957Y-91480738D01*
X135164956Y-91480740D01*
X135144319Y-91637499D01*
X135144319Y-91637500D01*
X135148970Y-91672827D01*
X135149501Y-91680929D01*
X135149501Y-92229315D01*
X135129816Y-92296354D01*
X135090599Y-92334853D01*
X135044610Y-92363219D01*
X134925720Y-92482109D01*
X134925717Y-92482113D01*
X134837456Y-92625205D01*
X134837451Y-92625214D01*
X134837452Y-92625214D01*
X134784565Y-92784816D01*
X134784565Y-92784817D01*
X134784564Y-92784817D01*
X134774501Y-92883319D01*
X134774501Y-93224902D01*
X134754816Y-93291941D01*
X134738182Y-93312583D01*
X134356097Y-93694669D01*
X134349995Y-93700020D01*
X134321717Y-93721719D01*
X134269363Y-93789951D01*
X134225465Y-93847159D01*
X134225462Y-93847164D01*
X134164958Y-93993235D01*
X134164956Y-93993240D01*
X134144319Y-94149999D01*
X134148969Y-94185329D01*
X134149500Y-94193429D01*
X134149500Y-95694072D01*
X134148969Y-95702171D01*
X134144319Y-95737501D01*
X134149501Y-95776861D01*
X134164956Y-95894261D01*
X134164957Y-95894263D01*
X134225465Y-96040342D01*
X134321719Y-96165783D01*
X134349996Y-96187481D01*
X134356086Y-96192821D01*
X134548901Y-96385636D01*
X134731738Y-96568473D01*
X134765223Y-96629796D01*
X134760239Y-96699488D01*
X134718367Y-96755421D01*
X134652903Y-96779838D01*
X134644057Y-96780154D01*
X133493929Y-96780154D01*
X133485830Y-96779623D01*
X133450501Y-96774972D01*
X133411140Y-96780154D01*
X133293739Y-96795610D01*
X133293738Y-96795610D01*
X133290686Y-96796012D01*
X133221651Y-96785246D01*
X133169395Y-96738866D01*
X133150501Y-96673073D01*
X133150501Y-93037596D01*
X133170186Y-92970557D01*
X133186815Y-92949920D01*
X134343923Y-91792812D01*
X134350000Y-91787484D01*
X134378283Y-91765783D01*
X134474537Y-91640342D01*
X134535045Y-91494263D01*
X134550501Y-91376862D01*
X134555683Y-91337501D01*
X134551031Y-91302170D01*
X134550501Y-91294072D01*
X134550501Y-89637597D01*
X134570186Y-89570558D01*
X134586820Y-89549916D01*
X138262417Y-85874320D01*
X138323740Y-85840835D01*
X138350098Y-85838001D01*
X140233286Y-85838001D01*
X140300325Y-85857686D01*
X140339403Y-85897851D01*
X140369531Y-85947689D01*
X140489812Y-86067970D01*
X140489814Y-86067971D01*
X140489816Y-86067973D01*
X140635395Y-86155979D01*
X140797805Y-86206587D01*
X140868385Y-86213001D01*
X140868388Y-86213001D01*
X141381614Y-86213001D01*
X141381617Y-86213001D01*
X141452197Y-86206587D01*
X141614607Y-86155979D01*
X141760186Y-86067973D01*
X141790662Y-86037497D01*
X141862320Y-85965840D01*
X141923643Y-85932355D01*
X141993335Y-85937339D01*
X142037682Y-85965840D01*
X142139812Y-86067970D01*
X142139814Y-86067971D01*
X142139816Y-86067973D01*
X142285395Y-86155979D01*
X142447805Y-86206587D01*
X142518385Y-86213001D01*
X142518388Y-86213001D01*
X143031614Y-86213001D01*
X143031617Y-86213001D01*
X143102197Y-86206587D01*
X143264607Y-86155979D01*
X143410186Y-86067973D01*
X143530473Y-85947686D01*
X143618479Y-85802107D01*
X143669087Y-85639697D01*
X143675501Y-85569117D01*
X143675501Y-85237597D01*
X143695186Y-85170558D01*
X143711820Y-85149916D01*
X143833651Y-85028085D01*
X144084087Y-84777649D01*
X144145408Y-84744166D01*
X144215100Y-84749150D01*
X144241528Y-84764111D01*
X144241843Y-84763612D01*
X144247738Y-84767316D01*
X144247739Y-84767317D01*
X144314426Y-84809219D01*
X144369134Y-84843595D01*
X144400479Y-84863290D01*
X144570745Y-84922868D01*
X144570746Y-84922869D01*
X144570751Y-84922870D01*
X144749997Y-84943066D01*
X144750001Y-84943066D01*
X144750005Y-84943066D01*
X144929250Y-84922870D01*
X144929253Y-84922869D01*
X144929256Y-84922869D01*
X145099523Y-84863290D01*
X145252263Y-84767317D01*
X145379817Y-84639763D01*
X145475790Y-84487023D01*
X145511359Y-84385370D01*
X145552082Y-84328594D01*
X145617035Y-84302846D01*
X145685596Y-84316302D01*
X145735999Y-84364689D01*
X145743830Y-84381021D01*
X145821209Y-84578179D01*
X145823258Y-84583398D01*
X145958186Y-84817102D01*
X146094081Y-84987509D01*
X146126443Y-85028089D01*
X146279989Y-85170558D01*
X146324260Y-85211635D01*
X146547227Y-85363651D01*
X146790360Y-85480738D01*
X147048229Y-85560280D01*
X147048230Y-85560280D01*
X147048233Y-85560281D01*
X147315064Y-85600499D01*
X147315069Y-85600499D01*
X147315072Y-85600500D01*
X147315073Y-85600500D01*
X147584929Y-85600500D01*
X147584930Y-85600500D01*
X147584937Y-85600499D01*
X147851768Y-85560281D01*
X147851769Y-85560280D01*
X147851773Y-85560280D01*
X148109642Y-85480738D01*
X148352776Y-85363651D01*
X148575742Y-85211635D01*
X148773562Y-85028085D01*
X148941816Y-84817102D01*
X149076744Y-84583398D01*
X149175335Y-84332195D01*
X149235384Y-84069103D01*
X149243691Y-83958246D01*
X149255550Y-83800004D01*
X149255550Y-83799995D01*
X149235384Y-83530898D01*
X149235384Y-83530897D01*
X149175335Y-83267805D01*
X149076744Y-83016602D01*
X148941816Y-82782898D01*
X148773562Y-82571915D01*
X148773561Y-82571914D01*
X148773558Y-82571910D01*
X148575742Y-82388365D01*
X148352776Y-82236349D01*
X148352770Y-82236346D01*
X148352769Y-82236345D01*
X148352768Y-82236344D01*
X148109644Y-82119263D01*
X148109646Y-82119263D01*
X147851774Y-82039720D01*
X147851768Y-82039718D01*
X147584937Y-81999500D01*
X147584930Y-81999500D01*
X147315072Y-81999500D01*
X147315064Y-81999500D01*
X147048233Y-82039718D01*
X147048227Y-82039720D01*
X146790359Y-82119262D01*
X146547231Y-82236346D01*
X146324259Y-82388365D01*
X146126443Y-82571910D01*
X145958186Y-82782898D01*
X145823259Y-83016599D01*
X145823257Y-83016603D01*
X145724667Y-83267804D01*
X145724665Y-83267811D01*
X145664617Y-83530898D01*
X145655444Y-83653303D01*
X145630805Y-83718684D01*
X145574729Y-83760365D01*
X145505021Y-83765112D01*
X145443812Y-83731418D01*
X145426799Y-83710011D01*
X145379817Y-83635239D01*
X145252263Y-83507685D01*
X145189425Y-83468201D01*
X145099524Y-83411712D01*
X144929255Y-83352132D01*
X144929250Y-83352131D01*
X144750005Y-83331936D01*
X144749997Y-83331936D01*
X144570751Y-83352131D01*
X144570746Y-83352132D01*
X144400477Y-83411712D01*
X144247737Y-83507686D01*
X144244904Y-83509946D01*
X144242725Y-83510835D01*
X144241843Y-83511390D01*
X144241745Y-83511235D01*
X144180218Y-83536356D01*
X144167589Y-83537001D01*
X143918429Y-83537001D01*
X143910330Y-83536470D01*
X143875001Y-83531819D01*
X143835640Y-83537001D01*
X143718240Y-83552456D01*
X143718238Y-83552457D01*
X143572158Y-83612965D01*
X143446720Y-83709217D01*
X143425020Y-83737495D01*
X143419669Y-83743597D01*
X142937585Y-84225682D01*
X142876262Y-84259167D01*
X142849904Y-84262001D01*
X142518385Y-84262001D01*
X142499145Y-84263749D01*
X142447808Y-84268414D01*
X142285394Y-84319023D01*
X142139812Y-84407031D01*
X142139811Y-84407032D01*
X142037682Y-84509162D01*
X141976359Y-84542647D01*
X141906667Y-84537663D01*
X141862320Y-84509162D01*
X141760189Y-84407031D01*
X141614607Y-84319023D01*
X141548681Y-84298480D01*
X141452197Y-84268415D01*
X141452195Y-84268414D01*
X141452193Y-84268414D01*
X141402779Y-84263924D01*
X141381617Y-84262001D01*
X140868385Y-84262001D01*
X140849146Y-84263749D01*
X140797808Y-84268414D01*
X140635394Y-84319023D01*
X140489812Y-84407031D01*
X140369531Y-84527312D01*
X140339403Y-84577151D01*
X140287875Y-84624339D01*
X140233286Y-84637001D01*
X138093429Y-84637001D01*
X138085330Y-84636470D01*
X138050001Y-84631819D01*
X138010640Y-84637001D01*
X137893240Y-84652456D01*
X137893238Y-84652457D01*
X137747161Y-84712964D01*
X137621715Y-84809222D01*
X137600025Y-84837491D01*
X137594672Y-84843595D01*
X135253789Y-87184476D01*
X135192466Y-87217961D01*
X135122774Y-87212977D01*
X135066841Y-87171105D01*
X135042424Y-87105641D01*
X135057276Y-87037368D01*
X135066152Y-87023414D01*
X135192460Y-86851404D01*
X135194349Y-86848965D01*
X135616689Y-86331007D01*
X135688633Y-86242775D01*
X135690679Y-86240391D01*
X135846456Y-86067970D01*
X136215040Y-85660002D01*
X136217176Y-85657756D01*
X136770256Y-85104676D01*
X136772502Y-85102540D01*
X137255276Y-84666371D01*
X137352891Y-84578179D01*
X137355275Y-84576133D01*
X137614590Y-84364689D01*
X137961465Y-84081849D01*
X137963904Y-84079960D01*
X138594384Y-83616992D01*
X138596919Y-83615227D01*
X139250046Y-83184780D01*
X139252650Y-83183157D01*
X139926713Y-82786360D01*
X139929454Y-82784840D01*
X140622736Y-82422699D01*
X140625539Y-82421324D01*
X141336281Y-82094757D01*
X141339109Y-82093543D01*
X142065520Y-81803380D01*
X142068395Y-81802315D01*
X142808551Y-81549322D01*
X142811502Y-81548396D01*
X143563537Y-81333212D01*
X143566529Y-81332437D01*
X144328471Y-81155625D01*
X144331477Y-81155007D01*
X145101412Y-81017010D01*
X145104484Y-81016540D01*
X145880402Y-80917720D01*
X145883487Y-80917406D01*
X146570233Y-80865108D01*
X146663402Y-80858013D01*
X146666535Y-80857854D01*
X147448462Y-80838040D01*
X147451540Y-80838040D01*
X148233464Y-80857854D01*
G37*
%TD.AperFunction*%
%TA.AperFunction,Conductor*%
G36*
X141463757Y-90557686D02*
G01*
X141484399Y-90574320D01*
X141884637Y-90974558D01*
X141889988Y-90980659D01*
X141911686Y-91008936D01*
X141982623Y-91063367D01*
X142019770Y-91091872D01*
X142024582Y-91095564D01*
X142037127Y-91105190D01*
X142037129Y-91105190D01*
X142037131Y-91105192D01*
X142062027Y-91115504D01*
X142183206Y-91165698D01*
X142229115Y-91171742D01*
X142339967Y-91186336D01*
X142339968Y-91186336D01*
X142375297Y-91181684D01*
X142383396Y-91181154D01*
X143327371Y-91181154D01*
X143394410Y-91200839D01*
X143415052Y-91217473D01*
X143885831Y-91688252D01*
X143891184Y-91694355D01*
X143912880Y-91722630D01*
X144038499Y-91819022D01*
X144040194Y-91819660D01*
X144184400Y-91879392D01*
X144262780Y-91889710D01*
X144341161Y-91900030D01*
X144341162Y-91900030D01*
X144376491Y-91895378D01*
X144384590Y-91894848D01*
X144710734Y-91894848D01*
X144777773Y-91914533D01*
X144798415Y-91931167D01*
X145010126Y-92142878D01*
X145015477Y-92148979D01*
X145037175Y-92177256D01*
X145119391Y-92240342D01*
X145162616Y-92273510D01*
X145217767Y-92296354D01*
X145236248Y-92304009D01*
X145276477Y-92330889D01*
X145756335Y-92810747D01*
X145789820Y-92872070D01*
X145792654Y-92898428D01*
X145792654Y-92963920D01*
X145772969Y-93030959D01*
X145756335Y-93051601D01*
X145514810Y-93293125D01*
X145514805Y-93293131D01*
X145514804Y-93293132D01*
X145452934Y-93369083D01*
X145452264Y-93369905D01*
X145452259Y-93369912D01*
X145376805Y-93520155D01*
X145376804Y-93520158D01*
X145376804Y-93520159D01*
X145338029Y-93683764D01*
X145338029Y-93851899D01*
X145376092Y-94012499D01*
X145376805Y-94015507D01*
X145444349Y-94149999D01*
X145452263Y-94165757D01*
X145514804Y-94242531D01*
X145944971Y-94672698D01*
X146021745Y-94735239D01*
X146171998Y-94810698D01*
X146335603Y-94849473D01*
X146335605Y-94849473D01*
X146503736Y-94849473D01*
X146503738Y-94849473D01*
X146667343Y-94810698D01*
X146817596Y-94735239D01*
X146894370Y-94672698D01*
X147271504Y-94295564D01*
X147334045Y-94218790D01*
X147409504Y-94068537D01*
X147448279Y-93904932D01*
X147448279Y-93859778D01*
X147467964Y-93792740D01*
X147520768Y-93746985D01*
X147572279Y-93735779D01*
X147617430Y-93735779D01*
X147617432Y-93735779D01*
X147781037Y-93697004D01*
X147931290Y-93621545D01*
X148008064Y-93559004D01*
X148385198Y-93181870D01*
X148447739Y-93105096D01*
X148523198Y-92954843D01*
X148557135Y-92811650D01*
X151554290Y-92811650D01*
X152204290Y-92811650D01*
X152204290Y-92086650D01*
X152204289Y-92086649D01*
X152197726Y-92086650D01*
X152197707Y-92086651D01*
X152127187Y-92093058D01*
X152127182Y-92093059D01*
X151964893Y-92143631D01*
X151819412Y-92231577D01*
X151699217Y-92351772D01*
X151611270Y-92497254D01*
X151560699Y-92659543D01*
X151554290Y-92730077D01*
X151554290Y-92811650D01*
X148557135Y-92811650D01*
X148561973Y-92791238D01*
X148561973Y-92623103D01*
X148549511Y-92570524D01*
X148553203Y-92500756D01*
X148582485Y-92454250D01*
X149050943Y-91985792D01*
X149112267Y-91952307D01*
X149138625Y-91949473D01*
X149303736Y-91949473D01*
X149303738Y-91949473D01*
X149467343Y-91910698D01*
X149617596Y-91835239D01*
X149694370Y-91772698D01*
X150071504Y-91395564D01*
X150104213Y-91355411D01*
X150138322Y-91313541D01*
X150139766Y-91314717D01*
X150185748Y-91275131D01*
X150236898Y-91264090D01*
X154754324Y-91264090D01*
X154821363Y-91283775D01*
X154867118Y-91336579D01*
X154877062Y-91405737D01*
X154848037Y-91469293D01*
X154829812Y-91486463D01*
X154821765Y-91492637D01*
X154800154Y-91509220D01*
X154778463Y-91537491D01*
X154773110Y-91543595D01*
X154266874Y-92049831D01*
X154205551Y-92083316D01*
X154179193Y-92086150D01*
X153847674Y-92086150D01*
X153828434Y-92087898D01*
X153777097Y-92092563D01*
X153614683Y-92143172D01*
X153469101Y-92231180D01*
X153469100Y-92231181D01*
X153366617Y-92333665D01*
X153305294Y-92367150D01*
X153235602Y-92362166D01*
X153191255Y-92333665D01*
X153089167Y-92231577D01*
X152943685Y-92143630D01*
X152943686Y-92143630D01*
X152781395Y-92093059D01*
X152781396Y-92093059D01*
X152710862Y-92086650D01*
X152704290Y-92086650D01*
X152704290Y-93187650D01*
X152684605Y-93254689D01*
X152631801Y-93300444D01*
X152580290Y-93311650D01*
X151554291Y-93311650D01*
X151554291Y-93393232D01*
X151560698Y-93463752D01*
X151560699Y-93463757D01*
X151611271Y-93626046D01*
X151699217Y-93771527D01*
X151703844Y-93777433D01*
X151701615Y-93779178D01*
X151728781Y-93828929D01*
X151723797Y-93898621D01*
X151695296Y-93942968D01*
X151097997Y-94540268D01*
X151057770Y-94567148D01*
X150947159Y-94612965D01*
X150821716Y-94709220D01*
X150800025Y-94737491D01*
X150794672Y-94743595D01*
X148637583Y-96900682D01*
X148576260Y-96934167D01*
X148549902Y-96937001D01*
X148152130Y-96937001D01*
X148152124Y-96937002D01*
X148092517Y-96943409D01*
X147957672Y-96993703D01*
X147957665Y-96993707D01*
X147842456Y-97079953D01*
X147842453Y-97079956D01*
X147756207Y-97195165D01*
X147756203Y-97195172D01*
X147705909Y-97330018D01*
X147699502Y-97389617D01*
X147699502Y-97389624D01*
X147699501Y-97389636D01*
X147699501Y-98535371D01*
X147699502Y-98535377D01*
X147705909Y-98594984D01*
X147756203Y-98729829D01*
X147756204Y-98729830D01*
X147756205Y-98729832D01*
X147842455Y-98845047D01*
X147849808Y-98850551D01*
X147891680Y-98906482D01*
X147899500Y-98949820D01*
X147899500Y-101125181D01*
X147879815Y-101192220D01*
X147849812Y-101224447D01*
X147842458Y-101229951D01*
X147842452Y-101229958D01*
X147756207Y-101345165D01*
X147756203Y-101345172D01*
X147705909Y-101480018D01*
X147701521Y-101520837D01*
X147699502Y-101539624D01*
X147699501Y-101539636D01*
X147699501Y-102685371D01*
X147699502Y-102685377D01*
X147705909Y-102744984D01*
X147756203Y-102879829D01*
X147756207Y-102879836D01*
X147842453Y-102995045D01*
X147842456Y-102995048D01*
X147957665Y-103081294D01*
X147957672Y-103081298D01*
X147971735Y-103086543D01*
X148092518Y-103131592D01*
X148152128Y-103138001D01*
X148897873Y-103138000D01*
X148957484Y-103131592D01*
X149092332Y-103081297D01*
X149207547Y-102995047D01*
X149293797Y-102879832D01*
X149344092Y-102744984D01*
X149350501Y-102685374D01*
X149350500Y-101539629D01*
X149344092Y-101480018D01*
X149321987Y-101420752D01*
X149293798Y-101345172D01*
X149293794Y-101345165D01*
X149211907Y-101235779D01*
X149207547Y-101229955D01*
X149207545Y-101229953D01*
X149207543Y-101229951D01*
X149150188Y-101187015D01*
X149108318Y-101131081D01*
X149100500Y-101087749D01*
X149100500Y-98987251D01*
X149120185Y-98920212D01*
X149150185Y-98887987D01*
X149207547Y-98845047D01*
X149293797Y-98729832D01*
X149344092Y-98594984D01*
X149350501Y-98535374D01*
X149350500Y-97937596D01*
X149370184Y-97870558D01*
X149386814Y-97849921D01*
X151388319Y-95848416D01*
X151449643Y-95814931D01*
X151519335Y-95819915D01*
X151575268Y-95861787D01*
X151599685Y-95927251D01*
X151600001Y-95936097D01*
X151600001Y-96153145D01*
X151602900Y-96189990D01*
X151602901Y-96189996D01*
X151648717Y-96347694D01*
X151648718Y-96347697D01*
X151732315Y-96489053D01*
X151732322Y-96489062D01*
X151848439Y-96605179D01*
X151848448Y-96605186D01*
X151989802Y-96688782D01*
X152147515Y-96734601D01*
X152147512Y-96734601D01*
X152149999Y-96734796D01*
X152150001Y-96734796D01*
X152150001Y-95374001D01*
X152169686Y-95306962D01*
X152222490Y-95261207D01*
X152274001Y-95250001D01*
X153200001Y-95250001D01*
X153200001Y-94962001D01*
X153219686Y-94894962D01*
X153272490Y-94849207D01*
X153324001Y-94838001D01*
X153375501Y-94838001D01*
X153442540Y-94857686D01*
X153488295Y-94910490D01*
X153499501Y-94962001D01*
X153499501Y-96013001D01*
X153479816Y-96080040D01*
X153427012Y-96125795D01*
X153375501Y-96137001D01*
X153324001Y-96137001D01*
X153256962Y-96117316D01*
X153211207Y-96064512D01*
X153200001Y-96013001D01*
X153200001Y-95750001D01*
X152650001Y-95750001D01*
X152650001Y-96405685D01*
X152632734Y-96468805D01*
X152598255Y-96527106D01*
X152598255Y-96527107D01*
X152552403Y-96684927D01*
X152552402Y-96684933D01*
X152549501Y-96721805D01*
X152549501Y-98028197D01*
X152552402Y-98065068D01*
X152552403Y-98065074D01*
X152598255Y-98222894D01*
X152598256Y-98222897D01*
X152681918Y-98364363D01*
X152681924Y-98364371D01*
X152798130Y-98480577D01*
X152798134Y-98480580D01*
X152798136Y-98480582D01*
X152939603Y-98564245D01*
X152981225Y-98576337D01*
X153097427Y-98610098D01*
X153097430Y-98610098D01*
X153097432Y-98610099D01*
X153109723Y-98611066D01*
X153134305Y-98613001D01*
X153134307Y-98613001D01*
X153565697Y-98613001D01*
X153584132Y-98611550D01*
X153602570Y-98610099D01*
X153602572Y-98610098D01*
X153602574Y-98610098D01*
X153654599Y-98594983D01*
X153760399Y-98564245D01*
X153901866Y-98480582D01*
X154018082Y-98364366D01*
X154101745Y-98222899D01*
X154147599Y-98065070D01*
X154147599Y-98065064D01*
X154147913Y-98063985D01*
X154185520Y-98005099D01*
X154248992Y-97975892D01*
X154250776Y-97975643D01*
X154369263Y-97960045D01*
X154515342Y-97899537D01*
X154566999Y-97859899D01*
X154640783Y-97803283D01*
X154662484Y-97775000D01*
X154667812Y-97768923D01*
X155700770Y-96735965D01*
X155706847Y-96730637D01*
X155735130Y-96708936D01*
X155831384Y-96583495D01*
X155891892Y-96437416D01*
X155907348Y-96320015D01*
X155912530Y-96280654D01*
X155911640Y-96273897D01*
X155907879Y-96245327D01*
X155907348Y-96237225D01*
X155907348Y-93780750D01*
X155927033Y-93713711D01*
X155943663Y-93693073D01*
X156168536Y-93468199D01*
X156229857Y-93434716D01*
X156242312Y-93432664D01*
X156329256Y-93422869D01*
X156499523Y-93363290D01*
X156652263Y-93267317D01*
X156718936Y-93200643D01*
X156780255Y-93167161D01*
X156849947Y-93172145D01*
X156872581Y-93183331D01*
X156900138Y-93200646D01*
X157001565Y-93264378D01*
X157171835Y-93323958D01*
X157171840Y-93323959D01*
X157351087Y-93344155D01*
X157351088Y-93344155D01*
X157351088Y-93344154D01*
X157351090Y-93344155D01*
X157368463Y-93342197D01*
X157437283Y-93354250D01*
X157488664Y-93401597D01*
X157506348Y-93465417D01*
X157506348Y-95580556D01*
X157486663Y-95647595D01*
X157470029Y-95668237D01*
X155312944Y-97825322D01*
X155306842Y-97830673D01*
X155278564Y-97852373D01*
X155195946Y-97960044D01*
X155182312Y-97977812D01*
X155182309Y-97977817D01*
X155121805Y-98123888D01*
X155121803Y-98123893D01*
X155101166Y-98280652D01*
X155101166Y-98280654D01*
X155105817Y-98315980D01*
X155106348Y-98324081D01*
X155106348Y-99250225D01*
X155086663Y-99317264D01*
X155070033Y-99337901D01*
X154964099Y-99443836D01*
X154902779Y-99477320D01*
X154876420Y-99480154D01*
X153636582Y-99480154D01*
X153628483Y-99479623D01*
X153593154Y-99474972D01*
X153553793Y-99480154D01*
X153436393Y-99495609D01*
X153436391Y-99495610D01*
X153290311Y-99556118D01*
X153164873Y-99652370D01*
X153143173Y-99680648D01*
X153137822Y-99686750D01*
X152029719Y-100794852D01*
X151968396Y-100828337D01*
X151913444Y-100827829D01*
X151903739Y-100825529D01*
X151903738Y-100825529D01*
X151735603Y-100825529D01*
X151597593Y-100858238D01*
X151571994Y-100864305D01*
X151421751Y-100939759D01*
X151421746Y-100939762D01*
X151421745Y-100939763D01*
X151355897Y-100993404D01*
X151344970Y-101002305D01*
X151344964Y-101002310D01*
X150914810Y-101432464D01*
X150914805Y-101432470D01*
X150914804Y-101432471D01*
X150876073Y-101480017D01*
X150852264Y-101509244D01*
X150852259Y-101509251D01*
X150776805Y-101659494D01*
X150776804Y-101659497D01*
X150776804Y-101659498D01*
X150738029Y-101823103D01*
X150738029Y-101991238D01*
X150776804Y-102154843D01*
X150776805Y-102154846D01*
X150852259Y-102305089D01*
X150852263Y-102305096D01*
X150914804Y-102381870D01*
X151291938Y-102759004D01*
X151368712Y-102821545D01*
X151518965Y-102897004D01*
X151682570Y-102935779D01*
X151682572Y-102935779D01*
X151703125Y-102935779D01*
X151770164Y-102955464D01*
X151815919Y-103008268D01*
X151825863Y-103077426D01*
X151796838Y-103140982D01*
X151790806Y-103147460D01*
X151433252Y-103505012D01*
X151371929Y-103538497D01*
X151316977Y-103537989D01*
X151264399Y-103525529D01*
X151096264Y-103525529D01*
X150932659Y-103564304D01*
X150932655Y-103564305D01*
X150782412Y-103639759D01*
X150782405Y-103639764D01*
X150705631Y-103702305D01*
X150705625Y-103702310D01*
X150464101Y-103943835D01*
X150402778Y-103977320D01*
X150376420Y-103980154D01*
X149950276Y-103980154D01*
X149942177Y-103979623D01*
X149906848Y-103974972D01*
X149867487Y-103980154D01*
X149750087Y-103995609D01*
X149750085Y-103995610D01*
X149604008Y-104056117D01*
X149478562Y-104152375D01*
X149456872Y-104180644D01*
X149451519Y-104186748D01*
X147915658Y-105722607D01*
X147854335Y-105756092D01*
X147784643Y-105751108D01*
X147729602Y-105710413D01*
X147678283Y-105643534D01*
X147650008Y-105621838D01*
X147643905Y-105616485D01*
X141602102Y-99574682D01*
X141568617Y-99513359D01*
X141573601Y-99443667D01*
X141615473Y-99387734D01*
X141680937Y-99363317D01*
X141689783Y-99363001D01*
X145625501Y-99363001D01*
X145692540Y-99382686D01*
X145738295Y-99435490D01*
X145749501Y-99487001D01*
X145749501Y-101125180D01*
X145729816Y-101192219D01*
X145699814Y-101224445D01*
X145692460Y-101229950D01*
X145692452Y-101229958D01*
X145606207Y-101345165D01*
X145606203Y-101345172D01*
X145555909Y-101480018D01*
X145551521Y-101520837D01*
X145549502Y-101539624D01*
X145549501Y-101539636D01*
X145549501Y-102685371D01*
X145549502Y-102685377D01*
X145555909Y-102744984D01*
X145606203Y-102879829D01*
X145606207Y-102879836D01*
X145692453Y-102995045D01*
X145692456Y-102995048D01*
X145807665Y-103081294D01*
X145807672Y-103081298D01*
X145821735Y-103086543D01*
X145942518Y-103131592D01*
X146002128Y-103138001D01*
X146747873Y-103138000D01*
X146807484Y-103131592D01*
X146942332Y-103081297D01*
X147057547Y-102995047D01*
X147143797Y-102879832D01*
X147194092Y-102744984D01*
X147200501Y-102685374D01*
X147200500Y-101539629D01*
X147194092Y-101480018D01*
X147171987Y-101420752D01*
X147143798Y-101345172D01*
X147143794Y-101345165D01*
X147061907Y-101235779D01*
X147057547Y-101229955D01*
X147039914Y-101216755D01*
X147000189Y-101187016D01*
X146958319Y-101131082D01*
X146950501Y-101087750D01*
X146950501Y-100056034D01*
X146950501Y-98987246D01*
X146970185Y-98920211D01*
X147000183Y-98887988D01*
X147057547Y-98845047D01*
X147143797Y-98729832D01*
X147194092Y-98594984D01*
X147200501Y-98535374D01*
X147200500Y-97389629D01*
X147194092Y-97330018D01*
X147154215Y-97223103D01*
X147143798Y-97195172D01*
X147143794Y-97195165D01*
X147057548Y-97079956D01*
X147057545Y-97079953D01*
X146942336Y-96993707D01*
X146942329Y-96993703D01*
X146807487Y-96943411D01*
X146807486Y-96943410D01*
X146807484Y-96943410D01*
X146747874Y-96937001D01*
X146747864Y-96937001D01*
X146002130Y-96937001D01*
X146002124Y-96937002D01*
X145942517Y-96943409D01*
X145807672Y-96993703D01*
X145807665Y-96993707D01*
X145692456Y-97079953D01*
X145692453Y-97079956D01*
X145606207Y-97195165D01*
X145606203Y-97195172D01*
X145555911Y-97330014D01*
X145555910Y-97330018D01*
X145549501Y-97389628D01*
X145549501Y-97775013D01*
X145549502Y-98038001D01*
X145529818Y-98105040D01*
X145477014Y-98150795D01*
X145425502Y-98162001D01*
X142874113Y-98162001D01*
X142807074Y-98142316D01*
X142761319Y-98089512D01*
X142750495Y-98028279D01*
X142750501Y-98028201D01*
X142750501Y-96862001D01*
X142770186Y-96794962D01*
X142822990Y-96749207D01*
X142874501Y-96738001D01*
X143115697Y-96738001D01*
X143141375Y-96735980D01*
X143152570Y-96735099D01*
X143152572Y-96735098D01*
X143152574Y-96735098D01*
X143198328Y-96721805D01*
X143310399Y-96689245D01*
X143451866Y-96605582D01*
X143568082Y-96489366D01*
X143651745Y-96347899D01*
X143685862Y-96230468D01*
X143697598Y-96190074D01*
X143697599Y-96190068D01*
X143697794Y-96187598D01*
X143700501Y-96153195D01*
X143700501Y-94846807D01*
X143697599Y-94809932D01*
X143693006Y-94794124D01*
X143651746Y-94652107D01*
X143651745Y-94652104D01*
X143651745Y-94652103D01*
X143568082Y-94510636D01*
X143568080Y-94510634D01*
X143568077Y-94510630D01*
X143536820Y-94479374D01*
X143503334Y-94418052D01*
X143500500Y-94391700D01*
X143500500Y-93380927D01*
X143501031Y-93372827D01*
X143501520Y-93369117D01*
X143505682Y-93337501D01*
X143501033Y-93302193D01*
X143500503Y-93294095D01*
X143500503Y-92705887D01*
X143497581Y-92673736D01*
X143494089Y-92635305D01*
X143443481Y-92472895D01*
X143355475Y-92327316D01*
X143355473Y-92327314D01*
X143355472Y-92327312D01*
X143235191Y-92207031D01*
X143185937Y-92177256D01*
X143089609Y-92119023D01*
X142927199Y-92068415D01*
X142927197Y-92068414D01*
X142927195Y-92068414D01*
X142877781Y-92063924D01*
X142856619Y-92062001D01*
X142856616Y-92062001D01*
X142525100Y-92062001D01*
X142458061Y-92042316D01*
X142437419Y-92025682D01*
X142280331Y-91868594D01*
X142274977Y-91862489D01*
X142253289Y-91834223D01*
X142253286Y-91834221D01*
X142253285Y-91834219D01*
X142127844Y-91737965D01*
X142008477Y-91688521D01*
X141995571Y-91679273D01*
X141825006Y-91656819D01*
X141825002Y-91656819D01*
X141811795Y-91658557D01*
X141789673Y-91661470D01*
X141781576Y-91662001D01*
X139738184Y-91662001D01*
X139671145Y-91642316D01*
X139633190Y-91603973D01*
X139593443Y-91540716D01*
X139533731Y-91445685D01*
X139406177Y-91318131D01*
X139374360Y-91298139D01*
X139253438Y-91222158D01*
X139083169Y-91162578D01*
X139083164Y-91162577D01*
X138903919Y-91142382D01*
X138903911Y-91142382D01*
X138724665Y-91162577D01*
X138724660Y-91162578D01*
X138554391Y-91222158D01*
X138401652Y-91318131D01*
X138274099Y-91445684D01*
X138178126Y-91598423D01*
X138118546Y-91768692D01*
X138118545Y-91768697D01*
X138098350Y-91947943D01*
X138098350Y-91947950D01*
X138118545Y-92127196D01*
X138118546Y-92127201D01*
X138178126Y-92297470D01*
X138274098Y-92450208D01*
X138274099Y-92450209D01*
X138401653Y-92577763D01*
X138554393Y-92673736D01*
X138724660Y-92733315D01*
X138832180Y-92745428D01*
X138893778Y-92770271D01*
X138912735Y-92784817D01*
X138915628Y-92787037D01*
X139061707Y-92847545D01*
X139218468Y-92868184D01*
X139218469Y-92868184D01*
X139253803Y-92863531D01*
X139261903Y-92863001D01*
X141076003Y-92863001D01*
X141143042Y-92882686D01*
X141188797Y-92935490D01*
X141200003Y-92987001D01*
X141200003Y-94012500D01*
X141206584Y-94012500D01*
X141277105Y-94006092D01*
X141277110Y-94006091D01*
X141439399Y-93955519D01*
X141584880Y-93867573D01*
X141584881Y-93867572D01*
X141686966Y-93765486D01*
X141748289Y-93732000D01*
X141817980Y-93736984D01*
X141862329Y-93765485D01*
X141964814Y-93867970D01*
X141964816Y-93867971D01*
X141964818Y-93867973D01*
X142110397Y-93955979D01*
X142212391Y-93987761D01*
X142270538Y-94026498D01*
X142298512Y-94090523D01*
X142299500Y-94106146D01*
X142299500Y-94391692D01*
X142279815Y-94458731D01*
X142263184Y-94479371D01*
X142231921Y-94510635D01*
X142231916Y-94510641D01*
X142148256Y-94652104D01*
X142148255Y-94652107D01*
X142102403Y-94809927D01*
X142102402Y-94809933D01*
X142099501Y-94846805D01*
X142099501Y-96013001D01*
X142079816Y-96080040D01*
X142027012Y-96125795D01*
X141975501Y-96137001D01*
X141924001Y-96137001D01*
X141856962Y-96117316D01*
X141811207Y-96064512D01*
X141800001Y-96013001D01*
X141800001Y-95750001D01*
X141075878Y-95750001D01*
X141008839Y-95730316D01*
X140963084Y-95677512D01*
X140961317Y-95673454D01*
X140924538Y-95584663D01*
X140924537Y-95584660D01*
X140899832Y-95552464D01*
X140828283Y-95459219D01*
X140800006Y-95437521D01*
X140793905Y-95432170D01*
X140786320Y-95424585D01*
X140752835Y-95363262D01*
X140750001Y-95336904D01*
X140750001Y-94265204D01*
X141250001Y-94265204D01*
X141250001Y-95250001D01*
X141800001Y-95250001D01*
X141800001Y-94846857D01*
X141797101Y-94810011D01*
X141797100Y-94810005D01*
X141751284Y-94652307D01*
X141751283Y-94652304D01*
X141667686Y-94510948D01*
X141667679Y-94510939D01*
X141551562Y-94394822D01*
X141551553Y-94394815D01*
X141410197Y-94311218D01*
X141410194Y-94311217D01*
X141252495Y-94265401D01*
X141252498Y-94265401D01*
X141250001Y-94265204D01*
X140750001Y-94265204D01*
X140747504Y-94265401D01*
X140589807Y-94311217D01*
X140589804Y-94311218D01*
X140448448Y-94394815D01*
X140448439Y-94394822D01*
X140332322Y-94510939D01*
X140332315Y-94510948D01*
X140244748Y-94659018D01*
X140242687Y-94657799D01*
X140205604Y-94702361D01*
X140138970Y-94723377D01*
X140071552Y-94705033D01*
X140048818Y-94687083D01*
X138649236Y-93287501D01*
X140050004Y-93287501D01*
X140050004Y-93369083D01*
X140056411Y-93439603D01*
X140056412Y-93439608D01*
X140106984Y-93601897D01*
X140194930Y-93747378D01*
X140315125Y-93867573D01*
X140460607Y-93955520D01*
X140460606Y-93955520D01*
X140622897Y-94006091D01*
X140622896Y-94006091D01*
X140693411Y-94012499D01*
X140693429Y-94012500D01*
X140700002Y-94012499D01*
X140700003Y-94012499D01*
X140700003Y-93287501D01*
X140050004Y-93287501D01*
X138649236Y-93287501D01*
X137909838Y-92548103D01*
X137880476Y-92501372D01*
X137875790Y-92487979D01*
X137779817Y-92335239D01*
X137652263Y-92207685D01*
X137603834Y-92177255D01*
X137499522Y-92111711D01*
X137482448Y-92105737D01*
X137425672Y-92065015D01*
X137399924Y-92000063D01*
X137413380Y-91931501D01*
X137435718Y-91901017D01*
X138243923Y-91092812D01*
X138250000Y-91087484D01*
X138278283Y-91065783D01*
X138374537Y-90940342D01*
X138435045Y-90794263D01*
X138450501Y-90676862D01*
X138453994Y-90650327D01*
X138482259Y-90586431D01*
X138540583Y-90547959D01*
X138560747Y-90543572D01*
X138563694Y-90543183D01*
X138563695Y-90543184D01*
X138599029Y-90538531D01*
X138607130Y-90538001D01*
X141396718Y-90538001D01*
X141463757Y-90557686D01*
G37*
%TD.AperFunction*%
%TD*%
M02*
