%TF.GenerationSoftware,KiCad,Pcbnew,7.0.7*%
%TF.CreationDate,2024-04-02T17:30:46-04:00*%
%TF.ProjectId,battery_leds,62617474-6572-4795-9f6c-6564732e6b69,rev?*%
%TF.SameCoordinates,Original*%
%TF.FileFunction,Legend,Bot*%
%TF.FilePolarity,Positive*%
%FSLAX46Y46*%
G04 Gerber Fmt 4.6, Leading zero omitted, Abs format (unit mm)*
G04 Created by KiCad (PCBNEW 7.0.7) date 2024-04-02 17:30:46*
%MOMM*%
%LPD*%
G01*
G04 APERTURE LIST*
%ADD10C,0.100000*%
%ADD11C,0.300000*%
%ADD12C,0.150000*%
%ADD13C,0.127000*%
G04 APERTURE END LIST*
D10*
X151766667Y-108662419D02*
X152242857Y-108662419D01*
X152242857Y-108662419D02*
X152242857Y-107662419D01*
X151290476Y-108662419D02*
X151385714Y-108614800D01*
X151385714Y-108614800D02*
X151433333Y-108567180D01*
X151433333Y-108567180D02*
X151480952Y-108471942D01*
X151480952Y-108471942D02*
X151480952Y-108186228D01*
X151480952Y-108186228D02*
X151433333Y-108090990D01*
X151433333Y-108090990D02*
X151385714Y-108043371D01*
X151385714Y-108043371D02*
X151290476Y-107995752D01*
X151290476Y-107995752D02*
X151147619Y-107995752D01*
X151147619Y-107995752D02*
X151052381Y-108043371D01*
X151052381Y-108043371D02*
X151004762Y-108090990D01*
X151004762Y-108090990D02*
X150957143Y-108186228D01*
X150957143Y-108186228D02*
X150957143Y-108471942D01*
X150957143Y-108471942D02*
X151004762Y-108567180D01*
X151004762Y-108567180D02*
X151052381Y-108614800D01*
X151052381Y-108614800D02*
X151147619Y-108662419D01*
X151147619Y-108662419D02*
X151290476Y-108662419D01*
X150623809Y-107995752D02*
X150385714Y-108662419D01*
X150385714Y-108662419D02*
X150147619Y-107995752D01*
X149385714Y-108614800D02*
X149480952Y-108662419D01*
X149480952Y-108662419D02*
X149671428Y-108662419D01*
X149671428Y-108662419D02*
X149766666Y-108614800D01*
X149766666Y-108614800D02*
X149814285Y-108519561D01*
X149814285Y-108519561D02*
X149814285Y-108138609D01*
X149814285Y-108138609D02*
X149766666Y-108043371D01*
X149766666Y-108043371D02*
X149671428Y-107995752D01*
X149671428Y-107995752D02*
X149480952Y-107995752D01*
X149480952Y-107995752D02*
X149385714Y-108043371D01*
X149385714Y-108043371D02*
X149338095Y-108138609D01*
X149338095Y-108138609D02*
X149338095Y-108233847D01*
X149338095Y-108233847D02*
X149814285Y-108329085D01*
X147338094Y-108662419D02*
X147385714Y-108662419D01*
X147385714Y-108662419D02*
X147480952Y-108614800D01*
X147480952Y-108614800D02*
X147623809Y-108471942D01*
X147623809Y-108471942D02*
X147861904Y-108186228D01*
X147861904Y-108186228D02*
X147957142Y-108043371D01*
X147957142Y-108043371D02*
X148004761Y-107900514D01*
X148004761Y-107900514D02*
X148004761Y-107805276D01*
X148004761Y-107805276D02*
X147957142Y-107710038D01*
X147957142Y-107710038D02*
X147861904Y-107662419D01*
X147861904Y-107662419D02*
X147814285Y-107662419D01*
X147814285Y-107662419D02*
X147719047Y-107710038D01*
X147719047Y-107710038D02*
X147671428Y-107805276D01*
X147671428Y-107805276D02*
X147671428Y-107852895D01*
X147671428Y-107852895D02*
X147719047Y-107948133D01*
X147719047Y-107948133D02*
X147766666Y-107995752D01*
X147766666Y-107995752D02*
X148052380Y-108186228D01*
X148052380Y-108186228D02*
X148099999Y-108233847D01*
X148099999Y-108233847D02*
X148147618Y-108329085D01*
X148147618Y-108329085D02*
X148147618Y-108471942D01*
X148147618Y-108471942D02*
X148099999Y-108567180D01*
X148099999Y-108567180D02*
X148052380Y-108614800D01*
X148052380Y-108614800D02*
X147957142Y-108662419D01*
X147957142Y-108662419D02*
X147814285Y-108662419D01*
X147814285Y-108662419D02*
X147719047Y-108614800D01*
X147719047Y-108614800D02*
X147671428Y-108567180D01*
X147671428Y-108567180D02*
X147528571Y-108376704D01*
X147528571Y-108376704D02*
X147480952Y-108233847D01*
X147480952Y-108233847D02*
X147480952Y-108138609D01*
X145671428Y-108662419D02*
X146147618Y-108662419D01*
X146147618Y-108662419D02*
X146147618Y-107662419D01*
X145338094Y-108662419D02*
X145338094Y-107995752D01*
X145338094Y-107662419D02*
X145385713Y-107710038D01*
X145385713Y-107710038D02*
X145338094Y-107757657D01*
X145338094Y-107757657D02*
X145290475Y-107710038D01*
X145290475Y-107710038D02*
X145338094Y-107662419D01*
X145338094Y-107662419D02*
X145338094Y-107757657D01*
X144433333Y-107995752D02*
X144433333Y-108805276D01*
X144433333Y-108805276D02*
X144480952Y-108900514D01*
X144480952Y-108900514D02*
X144528571Y-108948133D01*
X144528571Y-108948133D02*
X144623809Y-108995752D01*
X144623809Y-108995752D02*
X144766666Y-108995752D01*
X144766666Y-108995752D02*
X144861904Y-108948133D01*
X144433333Y-108614800D02*
X144528571Y-108662419D01*
X144528571Y-108662419D02*
X144719047Y-108662419D01*
X144719047Y-108662419D02*
X144814285Y-108614800D01*
X144814285Y-108614800D02*
X144861904Y-108567180D01*
X144861904Y-108567180D02*
X144909523Y-108471942D01*
X144909523Y-108471942D02*
X144909523Y-108186228D01*
X144909523Y-108186228D02*
X144861904Y-108090990D01*
X144861904Y-108090990D02*
X144814285Y-108043371D01*
X144814285Y-108043371D02*
X144719047Y-107995752D01*
X144719047Y-107995752D02*
X144528571Y-107995752D01*
X144528571Y-107995752D02*
X144433333Y-108043371D01*
X143957142Y-108662419D02*
X143957142Y-107662419D01*
X143528571Y-108662419D02*
X143528571Y-108138609D01*
X143528571Y-108138609D02*
X143576190Y-108043371D01*
X143576190Y-108043371D02*
X143671428Y-107995752D01*
X143671428Y-107995752D02*
X143814285Y-107995752D01*
X143814285Y-107995752D02*
X143909523Y-108043371D01*
X143909523Y-108043371D02*
X143957142Y-108090990D01*
X143195237Y-107995752D02*
X142814285Y-107995752D01*
X143052380Y-107662419D02*
X143052380Y-108519561D01*
X143052380Y-108519561D02*
X143004761Y-108614800D01*
X143004761Y-108614800D02*
X142909523Y-108662419D01*
X142909523Y-108662419D02*
X142814285Y-108662419D01*
X151314285Y-109748609D02*
X151171428Y-109796228D01*
X151171428Y-109796228D02*
X151123809Y-109843847D01*
X151123809Y-109843847D02*
X151076190Y-109939085D01*
X151076190Y-109939085D02*
X151076190Y-110081942D01*
X151076190Y-110081942D02*
X151123809Y-110177180D01*
X151123809Y-110177180D02*
X151171428Y-110224800D01*
X151171428Y-110224800D02*
X151266666Y-110272419D01*
X151266666Y-110272419D02*
X151647618Y-110272419D01*
X151647618Y-110272419D02*
X151647618Y-109272419D01*
X151647618Y-109272419D02*
X151314285Y-109272419D01*
X151314285Y-109272419D02*
X151219047Y-109320038D01*
X151219047Y-109320038D02*
X151171428Y-109367657D01*
X151171428Y-109367657D02*
X151123809Y-109462895D01*
X151123809Y-109462895D02*
X151123809Y-109558133D01*
X151123809Y-109558133D02*
X151171428Y-109653371D01*
X151171428Y-109653371D02*
X151219047Y-109700990D01*
X151219047Y-109700990D02*
X151314285Y-109748609D01*
X151314285Y-109748609D02*
X151647618Y-109748609D01*
X150219047Y-110272419D02*
X150219047Y-109748609D01*
X150219047Y-109748609D02*
X150266666Y-109653371D01*
X150266666Y-109653371D02*
X150361904Y-109605752D01*
X150361904Y-109605752D02*
X150552380Y-109605752D01*
X150552380Y-109605752D02*
X150647618Y-109653371D01*
X150219047Y-110224800D02*
X150314285Y-110272419D01*
X150314285Y-110272419D02*
X150552380Y-110272419D01*
X150552380Y-110272419D02*
X150647618Y-110224800D01*
X150647618Y-110224800D02*
X150695237Y-110129561D01*
X150695237Y-110129561D02*
X150695237Y-110034323D01*
X150695237Y-110034323D02*
X150647618Y-109939085D01*
X150647618Y-109939085D02*
X150552380Y-109891466D01*
X150552380Y-109891466D02*
X150314285Y-109891466D01*
X150314285Y-109891466D02*
X150219047Y-109843847D01*
X149314285Y-110272419D02*
X149314285Y-109272419D01*
X149314285Y-110224800D02*
X149409523Y-110272419D01*
X149409523Y-110272419D02*
X149599999Y-110272419D01*
X149599999Y-110272419D02*
X149695237Y-110224800D01*
X149695237Y-110224800D02*
X149742856Y-110177180D01*
X149742856Y-110177180D02*
X149790475Y-110081942D01*
X149790475Y-110081942D02*
X149790475Y-109796228D01*
X149790475Y-109796228D02*
X149742856Y-109700990D01*
X149742856Y-109700990D02*
X149695237Y-109653371D01*
X149695237Y-109653371D02*
X149599999Y-109605752D01*
X149599999Y-109605752D02*
X149409523Y-109605752D01*
X149409523Y-109605752D02*
X149314285Y-109653371D01*
X148409523Y-109605752D02*
X148409523Y-110415276D01*
X148409523Y-110415276D02*
X148457142Y-110510514D01*
X148457142Y-110510514D02*
X148504761Y-110558133D01*
X148504761Y-110558133D02*
X148599999Y-110605752D01*
X148599999Y-110605752D02*
X148742856Y-110605752D01*
X148742856Y-110605752D02*
X148838094Y-110558133D01*
X148409523Y-110224800D02*
X148504761Y-110272419D01*
X148504761Y-110272419D02*
X148695237Y-110272419D01*
X148695237Y-110272419D02*
X148790475Y-110224800D01*
X148790475Y-110224800D02*
X148838094Y-110177180D01*
X148838094Y-110177180D02*
X148885713Y-110081942D01*
X148885713Y-110081942D02*
X148885713Y-109796228D01*
X148885713Y-109796228D02*
X148838094Y-109700990D01*
X148838094Y-109700990D02*
X148790475Y-109653371D01*
X148790475Y-109653371D02*
X148695237Y-109605752D01*
X148695237Y-109605752D02*
X148504761Y-109605752D01*
X148504761Y-109605752D02*
X148409523Y-109653371D01*
X147552380Y-110224800D02*
X147647618Y-110272419D01*
X147647618Y-110272419D02*
X147838094Y-110272419D01*
X147838094Y-110272419D02*
X147933332Y-110224800D01*
X147933332Y-110224800D02*
X147980951Y-110129561D01*
X147980951Y-110129561D02*
X147980951Y-109748609D01*
X147980951Y-109748609D02*
X147933332Y-109653371D01*
X147933332Y-109653371D02*
X147838094Y-109605752D01*
X147838094Y-109605752D02*
X147647618Y-109605752D01*
X147647618Y-109605752D02*
X147552380Y-109653371D01*
X147552380Y-109653371D02*
X147504761Y-109748609D01*
X147504761Y-109748609D02*
X147504761Y-109843847D01*
X147504761Y-109843847D02*
X147980951Y-109939085D01*
X147314285Y-110367657D02*
X146552380Y-110367657D01*
X146457141Y-109272419D02*
X146123808Y-110272419D01*
X146123808Y-110272419D02*
X145790475Y-109272419D01*
X144933332Y-110272419D02*
X145504760Y-110272419D01*
X145219046Y-110272419D02*
X145219046Y-109272419D01*
X145219046Y-109272419D02*
X145314284Y-109415276D01*
X145314284Y-109415276D02*
X145409522Y-109510514D01*
X145409522Y-109510514D02*
X145504760Y-109558133D01*
X144504760Y-110177180D02*
X144457141Y-110224800D01*
X144457141Y-110224800D02*
X144504760Y-110272419D01*
X144504760Y-110272419D02*
X144552379Y-110224800D01*
X144552379Y-110224800D02*
X144504760Y-110177180D01*
X144504760Y-110177180D02*
X144504760Y-110272419D01*
X143838094Y-109272419D02*
X143742856Y-109272419D01*
X143742856Y-109272419D02*
X143647618Y-109320038D01*
X143647618Y-109320038D02*
X143599999Y-109367657D01*
X143599999Y-109367657D02*
X143552380Y-109462895D01*
X143552380Y-109462895D02*
X143504761Y-109653371D01*
X143504761Y-109653371D02*
X143504761Y-109891466D01*
X143504761Y-109891466D02*
X143552380Y-110081942D01*
X143552380Y-110081942D02*
X143599999Y-110177180D01*
X143599999Y-110177180D02*
X143647618Y-110224800D01*
X143647618Y-110224800D02*
X143742856Y-110272419D01*
X143742856Y-110272419D02*
X143838094Y-110272419D01*
X143838094Y-110272419D02*
X143933332Y-110224800D01*
X143933332Y-110224800D02*
X143980951Y-110177180D01*
X143980951Y-110177180D02*
X144028570Y-110081942D01*
X144028570Y-110081942D02*
X144076189Y-109891466D01*
X144076189Y-109891466D02*
X144076189Y-109653371D01*
X144076189Y-109653371D02*
X144028570Y-109462895D01*
X144028570Y-109462895D02*
X143980951Y-109367657D01*
X143980951Y-109367657D02*
X143933332Y-109320038D01*
X143933332Y-109320038D02*
X143838094Y-109272419D01*
D11*
X156560413Y-104110231D02*
X155903814Y-103453632D01*
X155903814Y-103453632D02*
X155853306Y-104211246D01*
X155853306Y-104211246D02*
X155701783Y-104059723D01*
X155701783Y-104059723D02*
X155550260Y-104009215D01*
X155550260Y-104009215D02*
X155449245Y-104009215D01*
X155449245Y-104009215D02*
X155297722Y-104059723D01*
X155297722Y-104059723D02*
X155045184Y-104312261D01*
X155045184Y-104312261D02*
X154994677Y-104463784D01*
X154994677Y-104463784D02*
X154994677Y-104564799D01*
X154994677Y-104564799D02*
X155045184Y-104716322D01*
X155045184Y-104716322D02*
X155348230Y-105019368D01*
X155348230Y-105019368D02*
X155499753Y-105069876D01*
X155499753Y-105069876D02*
X155600768Y-105069876D01*
X154489601Y-103958708D02*
X154388585Y-103958708D01*
X154388585Y-103958708D02*
X154388585Y-104059723D01*
X154388585Y-104059723D02*
X154489601Y-104059723D01*
X154489601Y-104059723D02*
X154489601Y-103958708D01*
X154489601Y-103958708D02*
X154388585Y-104059723D01*
X155045184Y-102595002D02*
X154388585Y-101938403D01*
X154388585Y-101938403D02*
X154338078Y-102696017D01*
X154338078Y-102696017D02*
X154186555Y-102544494D01*
X154186555Y-102544494D02*
X154035032Y-102493987D01*
X154035032Y-102493987D02*
X153934016Y-102493987D01*
X153934016Y-102493987D02*
X153782494Y-102544494D01*
X153782494Y-102544494D02*
X153529955Y-102797033D01*
X153529955Y-102797033D02*
X153479448Y-102948555D01*
X153479448Y-102948555D02*
X153479448Y-103049571D01*
X153479448Y-103049571D02*
X153529955Y-103201094D01*
X153529955Y-103201094D02*
X153833001Y-103504139D01*
X153833001Y-103504139D02*
X153984524Y-103554647D01*
X153984524Y-103554647D02*
X154085539Y-103554647D01*
X154085540Y-101635357D02*
X152671326Y-102342464D01*
X152671326Y-102342464D02*
X153378433Y-100928251D01*
X154399753Y-106969875D02*
X154197722Y-106868859D01*
X154197722Y-106868859D02*
X153945184Y-106616321D01*
X153945184Y-106616321D02*
X153894677Y-106464798D01*
X153894677Y-106464798D02*
X153894677Y-106363783D01*
X153894677Y-106363783D02*
X153945184Y-106212260D01*
X153945184Y-106212260D02*
X154046199Y-106111245D01*
X154046199Y-106111245D02*
X154197722Y-106060737D01*
X154197722Y-106060737D02*
X154298738Y-106060737D01*
X154298738Y-106060737D02*
X154450260Y-106111245D01*
X154450260Y-106111245D02*
X154702799Y-106262768D01*
X154702799Y-106262768D02*
X154854321Y-106313275D01*
X154854321Y-106313275D02*
X154955337Y-106313275D01*
X154955337Y-106313275D02*
X155106860Y-106262768D01*
X155106860Y-106262768D02*
X155207875Y-106161753D01*
X155207875Y-106161753D02*
X155258382Y-106010230D01*
X155258382Y-106010230D02*
X155258382Y-105909214D01*
X155258382Y-105909214D02*
X155207875Y-105757692D01*
X155207875Y-105757692D02*
X154955337Y-105505153D01*
X154955337Y-105505153D02*
X154753306Y-105404138D01*
X154450261Y-105000077D02*
X153137062Y-105808200D01*
X153137062Y-105808200D02*
X153692646Y-104848555D01*
X153692646Y-104848555D02*
X152733001Y-105404139D01*
X152733001Y-105404139D02*
X153541123Y-104090940D01*
X152076402Y-104747539D02*
X153137062Y-103686879D01*
X152429955Y-102979772D02*
X152227925Y-102777741D01*
X152227925Y-102777741D02*
X152076402Y-102727234D01*
X152076402Y-102727234D02*
X151874371Y-102727234D01*
X151874371Y-102727234D02*
X151621833Y-102878757D01*
X151621833Y-102878757D02*
X151268280Y-103232310D01*
X151268280Y-103232310D02*
X151116757Y-103484848D01*
X151116757Y-103484848D02*
X151116757Y-103686879D01*
X151116757Y-103686879D02*
X151167265Y-103838402D01*
X151167265Y-103838402D02*
X151369295Y-104040432D01*
X151369295Y-104040432D02*
X151520818Y-104090940D01*
X151520818Y-104090940D02*
X151722848Y-104090940D01*
X151722848Y-104090940D02*
X151975387Y-103939417D01*
X151975387Y-103939417D02*
X152328940Y-103585864D01*
X152328940Y-103585864D02*
X152480463Y-103333325D01*
X152480463Y-103333325D02*
X152480463Y-103131295D01*
X152480463Y-103131295D02*
X152429955Y-102979772D01*
X157653306Y-102038830D02*
X157804829Y-102089338D01*
X157804829Y-102089338D02*
X157956352Y-102240861D01*
X157956352Y-102240861D02*
X158057367Y-102442891D01*
X158057367Y-102442891D02*
X158057367Y-102644922D01*
X158057367Y-102644922D02*
X158006860Y-102796445D01*
X158006860Y-102796445D02*
X157855337Y-103048983D01*
X157855337Y-103048983D02*
X157703814Y-103200506D01*
X157703814Y-103200506D02*
X157451276Y-103352029D01*
X157451276Y-103352029D02*
X157299753Y-103402536D01*
X157299753Y-103402536D02*
X157097722Y-103402536D01*
X157097722Y-103402536D02*
X156895692Y-103301521D01*
X156895692Y-103301521D02*
X156794677Y-103200506D01*
X156794677Y-103200506D02*
X156693661Y-102998475D01*
X156693661Y-102998475D02*
X156693661Y-102897460D01*
X156693661Y-102897460D02*
X157047215Y-102543906D01*
X157047215Y-102543906D02*
X157249245Y-102745937D01*
X156138077Y-102543906D02*
X157198738Y-101483246D01*
X157198738Y-101483246D02*
X155531986Y-101937815D01*
X155531986Y-101937815D02*
X156592646Y-100877155D01*
X155026909Y-101432738D02*
X156087569Y-100372078D01*
X156087569Y-100372078D02*
X155835031Y-100119540D01*
X155835031Y-100119540D02*
X155633001Y-100018525D01*
X155633001Y-100018525D02*
X155430970Y-100018525D01*
X155430970Y-100018525D02*
X155279447Y-100069032D01*
X155279447Y-100069032D02*
X155026909Y-100220555D01*
X155026909Y-100220555D02*
X154875386Y-100372078D01*
X154875386Y-100372078D02*
X154723864Y-100624616D01*
X154723864Y-100624616D02*
X154673356Y-100776139D01*
X154673356Y-100776139D02*
X154673356Y-100978170D01*
X154673356Y-100978170D02*
X154774371Y-101180200D01*
X154774371Y-101180200D02*
X155026909Y-101432738D01*
D12*
X142495001Y-106733034D02*
X142295001Y-106799701D01*
X142295001Y-106799701D02*
X142228334Y-106866367D01*
X142228334Y-106866367D02*
X142161667Y-106999701D01*
X142161667Y-106999701D02*
X142161667Y-107199701D01*
X142161667Y-107199701D02*
X142228334Y-107333034D01*
X142228334Y-107333034D02*
X142295001Y-107399701D01*
X142295001Y-107399701D02*
X142428334Y-107466367D01*
X142428334Y-107466367D02*
X142961667Y-107466367D01*
X142961667Y-107466367D02*
X142961667Y-106066367D01*
X142961667Y-106066367D02*
X142495001Y-106066367D01*
X142495001Y-106066367D02*
X142361667Y-106133034D01*
X142361667Y-106133034D02*
X142295001Y-106199701D01*
X142295001Y-106199701D02*
X142228334Y-106333034D01*
X142228334Y-106333034D02*
X142228334Y-106466367D01*
X142228334Y-106466367D02*
X142295001Y-106599701D01*
X142295001Y-106599701D02*
X142361667Y-106666367D01*
X142361667Y-106666367D02*
X142495001Y-106733034D01*
X142495001Y-106733034D02*
X142961667Y-106733034D01*
X141761667Y-106066367D02*
X140961667Y-106066367D01*
X141361667Y-107466367D02*
X141361667Y-106066367D01*
X140561667Y-106199701D02*
X140495000Y-106133034D01*
X140495000Y-106133034D02*
X140361667Y-106066367D01*
X140361667Y-106066367D02*
X140028334Y-106066367D01*
X140028334Y-106066367D02*
X139895000Y-106133034D01*
X139895000Y-106133034D02*
X139828334Y-106199701D01*
X139828334Y-106199701D02*
X139761667Y-106333034D01*
X139761667Y-106333034D02*
X139761667Y-106466367D01*
X139761667Y-106466367D02*
X139828334Y-106666367D01*
X139828334Y-106666367D02*
X140628334Y-107466367D01*
X140628334Y-107466367D02*
X139761667Y-107466367D01*
D13*
%TO.C,BT2*%
X136900001Y-88487501D02*
X141950001Y-88487501D01*
X136900001Y-93567501D02*
X136900001Y-88487501D01*
X136900001Y-99307501D02*
X136900001Y-103987501D01*
X136900001Y-103987501D02*
X141450001Y-103987501D01*
X152950001Y-88487501D02*
X158000001Y-88487501D01*
X153450001Y-103987501D02*
X158000001Y-103987501D01*
X158000001Y-88487501D02*
X158000001Y-93567501D01*
X158000001Y-103987501D02*
X158000001Y-99307501D01*
%TD*%
M02*
