G04 #@! TF.GenerationSoftware,KiCad,Pcbnew,7.0.7*
G04 #@! TF.CreationDate,2024-04-02T17:00:38-04:00*
G04 #@! TF.ProjectId,sensor_node,73656e73-6f72-45f6-9e6f-64652e6b6963,rev?*
G04 #@! TF.SameCoordinates,Original*
G04 #@! TF.FileFunction,Copper,L2,Bot*
G04 #@! TF.FilePolarity,Positive*
%FSLAX46Y46*%
G04 Gerber Fmt 4.6, Leading zero omitted, Abs format (unit mm)*
G04 Created by KiCad (PCBNEW 7.0.7) date 2024-04-02 17:00:38*
%MOMM*%
%LPD*%
G01*
G04 APERTURE LIST*
G04 Aperture macros list*
%AMRoundRect*
0 Rectangle with rounded corners*
0 $1 Rounding radius*
0 $2 $3 $4 $5 $6 $7 $8 $9 X,Y pos of 4 corners*
0 Add a 4 corners polygon primitive as box body*
4,1,4,$2,$3,$4,$5,$6,$7,$8,$9,$2,$3,0*
0 Add four circle primitives for the rounded corners*
1,1,$1+$1,$2,$3*
1,1,$1+$1,$4,$5*
1,1,$1+$1,$6,$7*
1,1,$1+$1,$8,$9*
0 Add four rect primitives between the rounded corners*
20,1,$1+$1,$2,$3,$4,$5,0*
20,1,$1+$1,$4,$5,$6,$7,0*
20,1,$1+$1,$6,$7,$8,$9,0*
20,1,$1+$1,$8,$9,$2,$3,0*%
G04 Aperture macros list end*
G04 #@! TA.AperFunction,ComponentPad*
%ADD10R,1.700000X1.700000*%
G04 #@! TD*
G04 #@! TA.AperFunction,ComponentPad*
%ADD11O,1.700000X1.700000*%
G04 #@! TD*
G04 #@! TA.AperFunction,SMDPad,CuDef*
%ADD12RoundRect,0.200000X-0.275000X0.200000X-0.275000X-0.200000X0.275000X-0.200000X0.275000X0.200000X0*%
G04 #@! TD*
G04 #@! TA.AperFunction,SMDPad,CuDef*
%ADD13RoundRect,0.225000X-0.250000X0.225000X-0.250000X-0.225000X0.250000X-0.225000X0.250000X0.225000X0*%
G04 #@! TD*
G04 #@! TA.AperFunction,SMDPad,CuDef*
%ADD14RoundRect,0.250000X-0.650000X0.325000X-0.650000X-0.325000X0.650000X-0.325000X0.650000X0.325000X0*%
G04 #@! TD*
G04 #@! TA.AperFunction,SMDPad,CuDef*
%ADD15RoundRect,0.200000X0.275000X-0.200000X0.275000X0.200000X-0.275000X0.200000X-0.275000X-0.200000X0*%
G04 #@! TD*
G04 #@! TA.AperFunction,SMDPad,CuDef*
%ADD16RoundRect,0.250000X0.500000X-0.250000X0.500000X0.250000X-0.500000X0.250000X-0.500000X-0.250000X0*%
G04 #@! TD*
G04 #@! TA.AperFunction,ViaPad*
%ADD17C,0.500000*%
G04 #@! TD*
G04 #@! TA.AperFunction,Conductor*
%ADD18C,0.250000*%
G04 #@! TD*
G04 APERTURE END LIST*
D10*
X137700000Y-80840000D03*
D11*
X137700000Y-78300000D03*
X137700000Y-75760000D03*
X137700000Y-73220000D03*
X137700000Y-70680000D03*
X137700000Y-68140000D03*
X137700000Y-65600000D03*
X137700000Y-63060000D03*
X137700000Y-60520000D03*
D10*
X160700000Y-60500000D03*
D11*
X160700000Y-63040000D03*
X160700000Y-65580000D03*
X160700000Y-68120000D03*
X160700000Y-70660000D03*
X160700000Y-73200000D03*
X160700000Y-75740000D03*
X160700000Y-78280000D03*
X160700000Y-80820000D03*
D12*
X144800000Y-63124999D03*
X144800000Y-64774999D03*
D13*
X146400000Y-70900000D03*
X146400000Y-72450000D03*
X144790001Y-70875000D03*
X144790001Y-72425000D03*
D14*
X144800000Y-77450000D03*
X144800000Y-80400000D03*
X147400000Y-77425000D03*
X147400000Y-80375000D03*
D12*
X144800000Y-60224997D03*
X144800000Y-61874997D03*
D15*
X153200000Y-72325000D03*
X153200000Y-70675000D03*
D16*
X141500000Y-64000000D03*
X141500000Y-62600000D03*
D12*
X147600000Y-60250000D03*
X147600000Y-61900000D03*
D14*
X142200000Y-77450000D03*
X142200000Y-80400000D03*
D12*
X147599999Y-63200000D03*
X147599999Y-64850000D03*
D17*
X143706233Y-71506233D03*
X154000000Y-65400000D03*
X150800000Y-65500000D03*
X149400000Y-63200000D03*
X154600000Y-63000000D03*
X149800000Y-70900000D03*
X140656250Y-75656250D03*
X147702132Y-70920711D03*
X146100000Y-78625000D03*
X143800000Y-60200000D03*
X143400000Y-62500000D03*
X154800000Y-72100000D03*
X145200000Y-65900000D03*
X152800000Y-68500000D03*
X152200000Y-78625000D03*
X143400000Y-66100000D03*
X143300000Y-69800000D03*
X146600000Y-63200000D03*
D18*
X154625000Y-72100000D02*
X154800000Y-72100000D01*
X153200000Y-70675000D02*
X154625000Y-72100000D01*
X147681421Y-70900000D02*
X146400000Y-70900000D01*
X147702132Y-70920711D02*
X147681421Y-70900000D01*
X143706233Y-71506233D02*
X144158768Y-71506233D01*
X144158768Y-71506233D02*
X144790001Y-70875000D01*
X144558768Y-71106233D02*
X144790001Y-70875000D01*
X145775000Y-66875000D02*
X145775000Y-64099999D01*
X145775000Y-64099999D02*
X144800000Y-63124999D01*
X149800000Y-70900000D02*
X145775000Y-66875000D01*
X153900000Y-65500000D02*
X154000000Y-65400000D01*
X150800000Y-65500000D02*
X153900000Y-65500000D01*
X149500000Y-63100000D02*
X149400000Y-63200000D01*
X154600000Y-63000000D02*
X154500000Y-63100000D01*
X154500000Y-63100000D02*
X149500000Y-63100000D01*
X144814999Y-70900000D02*
X144790000Y-70875001D01*
X142200000Y-77450000D02*
X142200000Y-77200000D01*
X142225000Y-77450000D02*
X147400000Y-77450000D01*
X144800000Y-61875000D02*
X144799999Y-61874998D01*
X144990000Y-77260000D02*
X144800000Y-77450000D01*
X144800000Y-63124999D02*
X144800000Y-61875000D01*
X146400000Y-70900000D02*
X144814999Y-70900000D01*
X144800000Y-61874997D02*
X145499997Y-61175000D01*
X142200000Y-77200000D02*
X140656250Y-75656250D01*
X145499997Y-61175000D02*
X160085000Y-61175000D01*
X147400000Y-77450000D02*
X147425000Y-77425000D01*
X160085000Y-61175000D02*
X160700000Y-60560000D01*
X143800000Y-60200000D02*
X144775003Y-60200000D01*
X143400000Y-62500000D02*
X141600000Y-62500000D01*
X144775003Y-60200000D02*
X144800000Y-60224997D01*
X148900000Y-71000000D02*
X144000000Y-66100000D01*
X144000000Y-66100000D02*
X144000000Y-63100000D01*
X148900000Y-77713173D02*
X148900000Y-71000000D01*
X147988173Y-78625000D02*
X148900000Y-77713173D01*
X146100000Y-78625000D02*
X147988173Y-78625000D01*
X144000000Y-63100000D02*
X143400000Y-62500000D01*
X141600000Y-62500000D02*
X141500000Y-62600000D01*
X145200000Y-65900000D02*
X145200000Y-65174999D01*
X145200000Y-65174999D02*
X144800000Y-64774999D01*
X152200000Y-69100000D02*
X152800000Y-68500000D01*
X152200000Y-78625000D02*
X152200000Y-69100000D01*
X151480000Y-80880000D02*
X160700000Y-80880000D01*
X147599999Y-64850000D02*
X150700000Y-67950001D01*
X150700000Y-67950001D02*
X150700000Y-80100000D01*
X150700000Y-80100000D02*
X151480000Y-80880000D01*
X141500000Y-64000000D02*
X143400000Y-65900000D01*
X143400000Y-65900000D02*
X143400000Y-66100000D01*
X143300000Y-69800000D02*
X143400000Y-69700000D01*
X143400000Y-69700000D02*
X143400000Y-66100000D01*
X147599999Y-63200000D02*
X147599999Y-61899999D01*
X146600000Y-63200000D02*
X147599999Y-63200000D01*
G04 #@! TA.AperFunction,Conductor*
G36*
X162943039Y-58420185D02*
G01*
X162988794Y-58472989D01*
X163000000Y-58524500D01*
X163000000Y-82975500D01*
X162980315Y-83042539D01*
X162927511Y-83088294D01*
X162876000Y-83099500D01*
X135524000Y-83099500D01*
X135456961Y-83079815D01*
X135411206Y-83027011D01*
X135400000Y-82975500D01*
X135400000Y-78550000D01*
X136369364Y-78550000D01*
X136426567Y-78763486D01*
X136426570Y-78763492D01*
X136526399Y-78977578D01*
X136661894Y-79171082D01*
X136828917Y-79338105D01*
X137022421Y-79473600D01*
X137085723Y-79503118D01*
X137138162Y-79549290D01*
X137157314Y-79616484D01*
X137137098Y-79683365D01*
X137083933Y-79728700D01*
X137033318Y-79739500D01*
X136825323Y-79739500D01*
X136752264Y-79754032D01*
X136752260Y-79754033D01*
X136669399Y-79809399D01*
X136614033Y-79892260D01*
X136614032Y-79892264D01*
X136599500Y-79965321D01*
X136599500Y-81714678D01*
X136614032Y-81787735D01*
X136614033Y-81787739D01*
X136614034Y-81787740D01*
X136669399Y-81870601D01*
X136752259Y-81925966D01*
X136752260Y-81925966D01*
X136752264Y-81925967D01*
X136825321Y-81940499D01*
X136825324Y-81940500D01*
X136825326Y-81940500D01*
X138574676Y-81940500D01*
X138574677Y-81940499D01*
X138647740Y-81925966D01*
X138730601Y-81870601D01*
X138785966Y-81787740D01*
X138800500Y-81714674D01*
X138800500Y-80650000D01*
X140800001Y-80650000D01*
X140800001Y-80774986D01*
X140810494Y-80877697D01*
X140865641Y-81044119D01*
X140865643Y-81044124D01*
X140957684Y-81193345D01*
X141081654Y-81317315D01*
X141230875Y-81409356D01*
X141230880Y-81409358D01*
X141397302Y-81464505D01*
X141397309Y-81464506D01*
X141500019Y-81474999D01*
X141949999Y-81474999D01*
X141950000Y-81474998D01*
X141950000Y-80650000D01*
X142450000Y-80650000D01*
X142450000Y-81474999D01*
X142899972Y-81474999D01*
X142899986Y-81474998D01*
X143002697Y-81464505D01*
X143169119Y-81409358D01*
X143169124Y-81409356D01*
X143318345Y-81317315D01*
X143412319Y-81223342D01*
X143473642Y-81189857D01*
X143543334Y-81194841D01*
X143587681Y-81223342D01*
X143681654Y-81317315D01*
X143830875Y-81409356D01*
X143830880Y-81409358D01*
X143997302Y-81464505D01*
X143997309Y-81464506D01*
X144100019Y-81474999D01*
X144549999Y-81474999D01*
X145050000Y-81474999D01*
X145499972Y-81474999D01*
X145499986Y-81474998D01*
X145602697Y-81464505D01*
X145769119Y-81409358D01*
X145769124Y-81409356D01*
X145918342Y-81317317D01*
X146024817Y-81210842D01*
X146086140Y-81177357D01*
X146155832Y-81182341D01*
X146200180Y-81210841D01*
X146281657Y-81292317D01*
X146430875Y-81384356D01*
X146430880Y-81384358D01*
X146597302Y-81439505D01*
X146597309Y-81439506D01*
X146700019Y-81449999D01*
X147149999Y-81449999D01*
X147150000Y-81449998D01*
X147150000Y-80625000D01*
X147650000Y-80625000D01*
X147650000Y-81449999D01*
X148099972Y-81449999D01*
X148099986Y-81449998D01*
X148202697Y-81439505D01*
X148369119Y-81384358D01*
X148369124Y-81384356D01*
X148518345Y-81292315D01*
X148642315Y-81168345D01*
X148734356Y-81019124D01*
X148734358Y-81019119D01*
X148789505Y-80852697D01*
X148789506Y-80852690D01*
X148799999Y-80749986D01*
X148800000Y-80749973D01*
X148800000Y-80625000D01*
X147650000Y-80625000D01*
X147150000Y-80625000D01*
X146230590Y-80625000D01*
X146189996Y-80647166D01*
X146163638Y-80650000D01*
X145050000Y-80650000D01*
X145050000Y-81474999D01*
X144549999Y-81474999D01*
X144550000Y-81474998D01*
X144550000Y-80650000D01*
X142450000Y-80650000D01*
X141950000Y-80650000D01*
X140800001Y-80650000D01*
X138800500Y-80650000D01*
X138800500Y-80150000D01*
X140800000Y-80150000D01*
X141950000Y-80150000D01*
X141950000Y-79325000D01*
X142450000Y-79325000D01*
X142450000Y-80150000D01*
X144550000Y-80150000D01*
X145050000Y-80150000D01*
X145969410Y-80150000D01*
X146010004Y-80127834D01*
X146036362Y-80125000D01*
X147150000Y-80125000D01*
X147150000Y-79300000D01*
X147650000Y-79300000D01*
X147650000Y-80125000D01*
X148799999Y-80125000D01*
X148799999Y-80000028D01*
X148799998Y-80000013D01*
X148789505Y-79897302D01*
X148734358Y-79730880D01*
X148734356Y-79730875D01*
X148642315Y-79581654D01*
X148518345Y-79457684D01*
X148369124Y-79365643D01*
X148369119Y-79365641D01*
X148202697Y-79310494D01*
X148202690Y-79310493D01*
X148099986Y-79300000D01*
X147650000Y-79300000D01*
X147150000Y-79300000D01*
X146700028Y-79300000D01*
X146700012Y-79300001D01*
X146597302Y-79310494D01*
X146430880Y-79365641D01*
X146430875Y-79365643D01*
X146281654Y-79457684D01*
X146175179Y-79564158D01*
X146113856Y-79597642D01*
X146044164Y-79592657D01*
X145999818Y-79564157D01*
X145918345Y-79482684D01*
X145769124Y-79390643D01*
X145769119Y-79390641D01*
X145602697Y-79335494D01*
X145602690Y-79335493D01*
X145499986Y-79325000D01*
X145050000Y-79325000D01*
X145050000Y-80150000D01*
X144550000Y-80150000D01*
X144550000Y-79325000D01*
X144100028Y-79325000D01*
X144100012Y-79325001D01*
X143997302Y-79335494D01*
X143830880Y-79390641D01*
X143830875Y-79390643D01*
X143681657Y-79482682D01*
X143587681Y-79576658D01*
X143526357Y-79610142D01*
X143456666Y-79605158D01*
X143412319Y-79576658D01*
X143318342Y-79482682D01*
X143169124Y-79390643D01*
X143169119Y-79390641D01*
X143002697Y-79335494D01*
X143002690Y-79335493D01*
X142899986Y-79325000D01*
X142450000Y-79325000D01*
X141950000Y-79325000D01*
X141500028Y-79325000D01*
X141500012Y-79325001D01*
X141397302Y-79335494D01*
X141230880Y-79390641D01*
X141230875Y-79390643D01*
X141081654Y-79482684D01*
X140957684Y-79606654D01*
X140865643Y-79755875D01*
X140865641Y-79755880D01*
X140810494Y-79922302D01*
X140810493Y-79922309D01*
X140800000Y-80025013D01*
X140800000Y-80150000D01*
X138800500Y-80150000D01*
X138800500Y-79965326D01*
X138800500Y-79965323D01*
X138800499Y-79965321D01*
X138785967Y-79892264D01*
X138785966Y-79892260D01*
X138785965Y-79892259D01*
X138730601Y-79809399D01*
X138652145Y-79756977D01*
X138647739Y-79754033D01*
X138647735Y-79754032D01*
X138574677Y-79739500D01*
X138574674Y-79739500D01*
X138366682Y-79739500D01*
X138299643Y-79719815D01*
X138253888Y-79667011D01*
X138243944Y-79597853D01*
X138272969Y-79534297D01*
X138314277Y-79503118D01*
X138377578Y-79473600D01*
X138571082Y-79338105D01*
X138738105Y-79171082D01*
X138873600Y-78977578D01*
X138973429Y-78763492D01*
X138973432Y-78763486D01*
X139030636Y-78550000D01*
X138313347Y-78550000D01*
X138246308Y-78530315D01*
X138200553Y-78477511D01*
X138190609Y-78408353D01*
X138194369Y-78391067D01*
X138200000Y-78371888D01*
X138200000Y-78228111D01*
X138194369Y-78208933D01*
X138194370Y-78139064D01*
X138232145Y-78080286D01*
X138295701Y-78051262D01*
X138313347Y-78050000D01*
X139030636Y-78050000D01*
X139030635Y-78049999D01*
X138973432Y-77836513D01*
X138973429Y-77836507D01*
X138873600Y-77622422D01*
X138873599Y-77622420D01*
X138738113Y-77428926D01*
X138738108Y-77428920D01*
X138571082Y-77261894D01*
X138377578Y-77126399D01*
X138163492Y-77026570D01*
X138163477Y-77026564D01*
X138124414Y-77016097D01*
X138064754Y-76979732D01*
X138034226Y-76916885D01*
X138042521Y-76847509D01*
X138087007Y-76793632D01*
X138111710Y-76780698D01*
X138192637Y-76749348D01*
X138366041Y-76641981D01*
X138516764Y-76504579D01*
X138639673Y-76341821D01*
X138730582Y-76159250D01*
X138786397Y-75963083D01*
X138805215Y-75760000D01*
X138795601Y-75656250D01*
X140150603Y-75656250D01*
X140171084Y-75798706D01*
X140230872Y-75929621D01*
X140230873Y-75929623D01*
X140325122Y-76038393D01*
X140446197Y-76116203D01*
X140446200Y-76116204D01*
X140446199Y-76116204D01*
X140584287Y-76156750D01*
X140591814Y-76157832D01*
X140655370Y-76186854D01*
X140661852Y-76192889D01*
X141135298Y-76666335D01*
X141168783Y-76727658D01*
X141163799Y-76797350D01*
X141146884Y-76828327D01*
X141106204Y-76882668D01*
X141106202Y-76882671D01*
X141055910Y-77017513D01*
X141055909Y-77017517D01*
X141049500Y-77077127D01*
X141049500Y-77077134D01*
X141049500Y-77077135D01*
X141049500Y-77822870D01*
X141049501Y-77822876D01*
X141055908Y-77882483D01*
X141106202Y-78017328D01*
X141106206Y-78017335D01*
X141192452Y-78132544D01*
X141192455Y-78132547D01*
X141307664Y-78218793D01*
X141307671Y-78218797D01*
X141442517Y-78269091D01*
X141442516Y-78269091D01*
X141449444Y-78269835D01*
X141502127Y-78275500D01*
X142897872Y-78275499D01*
X142957483Y-78269091D01*
X143092331Y-78218796D01*
X143207546Y-78132546D01*
X143293796Y-78017331D01*
X143303120Y-77992331D01*
X143335258Y-77906167D01*
X143377129Y-77850233D01*
X143442593Y-77825816D01*
X143451440Y-77825500D01*
X143548560Y-77825500D01*
X143615599Y-77845185D01*
X143661354Y-77897989D01*
X143664742Y-77906167D01*
X143706202Y-78017328D01*
X143706206Y-78017335D01*
X143792452Y-78132544D01*
X143792455Y-78132547D01*
X143907664Y-78218793D01*
X143907671Y-78218797D01*
X144042517Y-78269091D01*
X144042516Y-78269091D01*
X144049444Y-78269835D01*
X144102127Y-78275500D01*
X145497872Y-78275499D01*
X145503796Y-78274862D01*
X145572555Y-78287264D01*
X145623695Y-78334872D01*
X145640977Y-78402571D01*
X145629851Y-78449660D01*
X145614835Y-78482540D01*
X145614834Y-78482542D01*
X145594353Y-78624999D01*
X145614834Y-78767456D01*
X145629697Y-78800000D01*
X145674623Y-78898373D01*
X145768872Y-79007143D01*
X145889947Y-79084953D01*
X145889950Y-79084954D01*
X145889949Y-79084954D01*
X146028036Y-79125499D01*
X146028038Y-79125500D01*
X146028039Y-79125500D01*
X146171962Y-79125500D01*
X146171962Y-79125499D01*
X146310053Y-79084953D01*
X146410834Y-79020184D01*
X146477874Y-79000500D01*
X147936369Y-79000500D01*
X147961814Y-79003139D01*
X147965613Y-79003935D01*
X147972441Y-79005367D01*
X147993398Y-79002754D01*
X148007665Y-79000977D01*
X148015341Y-79000500D01*
X148019285Y-79000500D01*
X148019287Y-79000500D01*
X148019289Y-79000499D01*
X148019295Y-79000499D01*
X148034660Y-78997934D01*
X148042313Y-78996657D01*
X148096799Y-78989866D01*
X148096800Y-78989865D01*
X148096802Y-78989865D01*
X148104314Y-78987628D01*
X148111779Y-78985066D01*
X148111779Y-78985065D01*
X148111783Y-78985065D01*
X148160050Y-78958944D01*
X148209384Y-78934826D01*
X148209386Y-78934823D01*
X148215767Y-78930268D01*
X148221992Y-78925422D01*
X148221999Y-78925419D01*
X148259181Y-78885028D01*
X149128889Y-78015319D01*
X149148746Y-77999195D01*
X149157836Y-77993257D01*
X149179638Y-77965244D01*
X149184733Y-77959476D01*
X149187519Y-77956691D01*
X149187528Y-77956679D01*
X149201086Y-77937689D01*
X149234807Y-77894365D01*
X149238547Y-77887453D01*
X149242003Y-77880380D01*
X149242010Y-77880372D01*
X149257670Y-77827769D01*
X149275500Y-77775833D01*
X149275500Y-77775828D01*
X149276790Y-77768097D01*
X149277768Y-77760258D01*
X149275500Y-77705417D01*
X149275500Y-71384959D01*
X149295185Y-71317920D01*
X149347989Y-71272165D01*
X149417147Y-71262221D01*
X149466540Y-71280644D01*
X149468871Y-71282142D01*
X149468872Y-71282143D01*
X149489166Y-71295185D01*
X149589948Y-71359954D01*
X149728036Y-71400499D01*
X149728038Y-71400500D01*
X149728039Y-71400500D01*
X149871962Y-71400500D01*
X149871962Y-71400499D01*
X150010050Y-71359954D01*
X150010051Y-71359954D01*
X150017402Y-71355230D01*
X150131128Y-71282143D01*
X150131128Y-71282142D01*
X150133460Y-71280644D01*
X150200500Y-71260959D01*
X150267539Y-71280643D01*
X150313294Y-71333447D01*
X150324500Y-71384959D01*
X150324500Y-80048196D01*
X150321862Y-80073634D01*
X150319633Y-80084268D01*
X150319633Y-80084269D01*
X150319633Y-80084271D01*
X150324023Y-80119491D01*
X150324500Y-80127167D01*
X150324500Y-80131116D01*
X150328342Y-80154141D01*
X150335134Y-80208627D01*
X150337373Y-80216147D01*
X150339934Y-80223608D01*
X150339935Y-80223610D01*
X150347819Y-80238178D01*
X150366055Y-80271877D01*
X150390174Y-80321211D01*
X150394742Y-80327609D01*
X150399582Y-80333827D01*
X150439971Y-80371009D01*
X151177849Y-81108886D01*
X151193978Y-81128747D01*
X151199916Y-81137836D01*
X151227929Y-81159639D01*
X151233691Y-81164728D01*
X151236483Y-81167520D01*
X151255486Y-81181088D01*
X151298811Y-81214809D01*
X151298813Y-81214809D01*
X151305735Y-81218555D01*
X151312798Y-81222008D01*
X151312801Y-81222010D01*
X151365412Y-81237673D01*
X151391376Y-81246586D01*
X151417339Y-81255500D01*
X151425101Y-81256795D01*
X151432911Y-81257768D01*
X151432912Y-81257769D01*
X151432912Y-81257768D01*
X151432913Y-81257769D01*
X151460340Y-81256634D01*
X151487769Y-81255500D01*
X159610691Y-81255500D01*
X159677730Y-81275185D01*
X159721689Y-81324226D01*
X159760327Y-81401821D01*
X159815588Y-81474998D01*
X159883237Y-81564581D01*
X160033958Y-81701980D01*
X160033960Y-81701982D01*
X160054462Y-81714676D01*
X160207363Y-81809348D01*
X160397544Y-81883024D01*
X160598024Y-81920500D01*
X160598026Y-81920500D01*
X160801974Y-81920500D01*
X160801976Y-81920500D01*
X161002456Y-81883024D01*
X161192637Y-81809348D01*
X161366041Y-81701981D01*
X161516764Y-81564579D01*
X161639673Y-81401821D01*
X161730582Y-81219250D01*
X161786397Y-81023083D01*
X161805215Y-80820000D01*
X161786397Y-80616917D01*
X161730582Y-80420750D01*
X161639673Y-80238179D01*
X161558821Y-80131114D01*
X161516762Y-80075418D01*
X161366041Y-79938019D01*
X161366039Y-79938017D01*
X161192642Y-79830655D01*
X161192635Y-79830651D01*
X161097546Y-79793814D01*
X161002456Y-79756976D01*
X160801976Y-79719500D01*
X160598024Y-79719500D01*
X160397544Y-79756976D01*
X160397541Y-79756976D01*
X160397541Y-79756977D01*
X160207364Y-79830651D01*
X160207357Y-79830655D01*
X160033960Y-79938017D01*
X160033958Y-79938019D01*
X159883237Y-80075418D01*
X159760327Y-80238178D01*
X159669418Y-80420748D01*
X159667659Y-80425290D01*
X159625088Y-80480693D01*
X159559322Y-80504285D01*
X159552031Y-80504500D01*
X151686899Y-80504500D01*
X151619860Y-80484815D01*
X151599218Y-80468181D01*
X151111819Y-79980781D01*
X151078334Y-79919458D01*
X151075500Y-79893100D01*
X151075500Y-78625000D01*
X151694353Y-78625000D01*
X151714834Y-78767456D01*
X151729697Y-78800000D01*
X151774623Y-78898373D01*
X151868872Y-79007143D01*
X151989947Y-79084953D01*
X151989950Y-79084954D01*
X151989949Y-79084954D01*
X152128036Y-79125499D01*
X152128038Y-79125500D01*
X152128039Y-79125500D01*
X152271962Y-79125500D01*
X152271962Y-79125499D01*
X152410053Y-79084953D01*
X152531128Y-79007143D01*
X152625377Y-78898373D01*
X152685165Y-78767457D01*
X152705647Y-78625000D01*
X152685165Y-78482543D01*
X152625377Y-78351627D01*
X152605785Y-78329016D01*
X152583402Y-78280000D01*
X159594785Y-78280000D01*
X159613602Y-78483082D01*
X159669417Y-78679247D01*
X159669422Y-78679260D01*
X159760327Y-78861821D01*
X159883237Y-79024581D01*
X160033958Y-79161980D01*
X160033960Y-79161982D01*
X160133141Y-79223392D01*
X160207363Y-79269348D01*
X160397544Y-79343024D01*
X160598024Y-79380500D01*
X160598026Y-79380500D01*
X160801974Y-79380500D01*
X160801976Y-79380500D01*
X161002456Y-79343024D01*
X161192637Y-79269348D01*
X161366041Y-79161981D01*
X161516764Y-79024579D01*
X161639673Y-78861821D01*
X161730582Y-78679250D01*
X161786397Y-78483083D01*
X161805215Y-78280000D01*
X161799543Y-78218793D01*
X161786397Y-78076917D01*
X161784339Y-78069685D01*
X161730582Y-77880750D01*
X161718996Y-77857483D01*
X161643277Y-77705417D01*
X161639673Y-77698179D01*
X161516764Y-77535421D01*
X161516762Y-77535418D01*
X161366041Y-77398019D01*
X161366039Y-77398017D01*
X161192642Y-77290655D01*
X161192635Y-77290651D01*
X161097546Y-77253814D01*
X161002456Y-77216976D01*
X160801976Y-77179500D01*
X160598024Y-77179500D01*
X160397544Y-77216976D01*
X160397541Y-77216976D01*
X160397541Y-77216977D01*
X160207364Y-77290651D01*
X160207357Y-77290655D01*
X160033960Y-77398017D01*
X160033958Y-77398019D01*
X159883237Y-77535418D01*
X159760327Y-77698178D01*
X159669422Y-77880739D01*
X159669417Y-77880752D01*
X159613602Y-78076917D01*
X159594785Y-78279999D01*
X159594785Y-78280000D01*
X152583402Y-78280000D01*
X152576762Y-78265460D01*
X152575500Y-78247815D01*
X152575500Y-75740000D01*
X159594785Y-75740000D01*
X159613602Y-75943082D01*
X159669417Y-76139247D01*
X159669422Y-76139260D01*
X159760327Y-76321821D01*
X159883237Y-76484581D01*
X160033958Y-76621980D01*
X160033960Y-76621982D01*
X160078116Y-76649322D01*
X160207363Y-76729348D01*
X160397544Y-76803024D01*
X160598024Y-76840500D01*
X160598026Y-76840500D01*
X160801974Y-76840500D01*
X160801976Y-76840500D01*
X161002456Y-76803024D01*
X161192637Y-76729348D01*
X161366041Y-76621981D01*
X161516764Y-76484579D01*
X161639673Y-76321821D01*
X161730582Y-76139250D01*
X161786397Y-75943083D01*
X161805215Y-75740000D01*
X161786397Y-75536917D01*
X161730582Y-75340750D01*
X161697397Y-75274106D01*
X161658652Y-75196295D01*
X161639673Y-75158179D01*
X161516764Y-74995421D01*
X161516762Y-74995418D01*
X161366041Y-74858019D01*
X161366039Y-74858017D01*
X161192642Y-74750655D01*
X161192635Y-74750651D01*
X161054082Y-74696976D01*
X161002456Y-74676976D01*
X160801976Y-74639500D01*
X160598024Y-74639500D01*
X160397544Y-74676976D01*
X160397541Y-74676976D01*
X160397541Y-74676977D01*
X160207364Y-74750651D01*
X160207357Y-74750655D01*
X160033960Y-74858017D01*
X160033958Y-74858019D01*
X159883237Y-74995418D01*
X159760327Y-75158178D01*
X159669422Y-75340739D01*
X159669417Y-75340752D01*
X159613602Y-75536917D01*
X159594785Y-75739999D01*
X159594785Y-75740000D01*
X152575500Y-75740000D01*
X152575500Y-73317810D01*
X152595185Y-73250771D01*
X152647989Y-73205016D01*
X152717147Y-73195072D01*
X152736391Y-73199425D01*
X152797895Y-73218590D01*
X152868418Y-73224999D01*
X152949999Y-73224998D01*
X152950000Y-73224998D01*
X152950000Y-72199000D01*
X152969685Y-72131961D01*
X153022489Y-72086206D01*
X153074000Y-72075000D01*
X153326000Y-72075000D01*
X153393039Y-72094685D01*
X153438794Y-72147489D01*
X153450000Y-72199000D01*
X153450000Y-73224999D01*
X153531581Y-73224999D01*
X153602102Y-73218591D01*
X153602107Y-73218590D01*
X153661764Y-73200000D01*
X159594785Y-73200000D01*
X159613602Y-73403082D01*
X159669417Y-73599247D01*
X159669422Y-73599260D01*
X159760327Y-73781821D01*
X159883237Y-73944581D01*
X160033958Y-74081980D01*
X160033960Y-74081982D01*
X160133141Y-74143392D01*
X160207363Y-74189348D01*
X160397544Y-74263024D01*
X160598024Y-74300500D01*
X160598026Y-74300500D01*
X160801974Y-74300500D01*
X160801976Y-74300500D01*
X161002456Y-74263024D01*
X161192637Y-74189348D01*
X161366041Y-74081981D01*
X161516764Y-73944579D01*
X161639673Y-73781821D01*
X161730582Y-73599250D01*
X161786397Y-73403083D01*
X161805215Y-73200000D01*
X161802251Y-73168018D01*
X161786397Y-72996917D01*
X161775461Y-72958481D01*
X161730582Y-72800750D01*
X161639673Y-72618179D01*
X161580704Y-72540092D01*
X161516762Y-72455418D01*
X161366041Y-72318019D01*
X161366039Y-72318017D01*
X161192642Y-72210655D01*
X161192635Y-72210651D01*
X161054082Y-72156976D01*
X161002456Y-72136976D01*
X160801976Y-72099500D01*
X160598024Y-72099500D01*
X160397544Y-72136976D01*
X160397541Y-72136976D01*
X160397541Y-72136977D01*
X160207364Y-72210651D01*
X160207357Y-72210655D01*
X160033960Y-72318017D01*
X160033958Y-72318019D01*
X159883237Y-72455418D01*
X159760327Y-72618178D01*
X159669422Y-72800739D01*
X159669417Y-72800752D01*
X159613602Y-72996917D01*
X159594785Y-73199999D01*
X159594785Y-73200000D01*
X153661764Y-73200000D01*
X153764396Y-73168018D01*
X153909877Y-73080072D01*
X154030072Y-72959877D01*
X154118019Y-72814395D01*
X154168590Y-72652106D01*
X154174999Y-72581572D01*
X154174999Y-72480160D01*
X154194683Y-72413121D01*
X154247486Y-72367365D01*
X154316645Y-72357421D01*
X154377208Y-72384663D01*
X154377301Y-72384534D01*
X154377949Y-72384997D01*
X154379130Y-72385528D01*
X154381473Y-72387512D01*
X154381479Y-72387516D01*
X154381482Y-72387519D01*
X154383629Y-72389052D01*
X154405296Y-72408771D01*
X154468872Y-72482143D01*
X154589947Y-72559953D01*
X154589950Y-72559954D01*
X154589949Y-72559954D01*
X154728036Y-72600499D01*
X154728038Y-72600500D01*
X154728039Y-72600500D01*
X154871962Y-72600500D01*
X154871962Y-72600499D01*
X155010053Y-72559953D01*
X155131128Y-72482143D01*
X155225377Y-72373373D01*
X155285165Y-72242457D01*
X155305647Y-72100000D01*
X155285165Y-71957543D01*
X155225377Y-71826627D01*
X155131128Y-71717857D01*
X155010053Y-71640047D01*
X155010051Y-71640046D01*
X155010049Y-71640045D01*
X155010050Y-71640045D01*
X154871963Y-71599500D01*
X154871961Y-71599500D01*
X154728039Y-71599500D01*
X154726084Y-71599781D01*
X154724130Y-71599500D01*
X154719170Y-71599500D01*
X154719169Y-71598786D01*
X154656926Y-71589834D01*
X154620761Y-71564723D01*
X154297859Y-71241821D01*
X153961819Y-70905780D01*
X153928334Y-70844457D01*
X153925500Y-70818099D01*
X153925500Y-70660000D01*
X159594785Y-70660000D01*
X159613602Y-70863082D01*
X159669417Y-71059247D01*
X159669422Y-71059260D01*
X159760327Y-71241821D01*
X159883237Y-71404581D01*
X160033958Y-71541980D01*
X160033960Y-71541982D01*
X160111244Y-71589834D01*
X160207363Y-71649348D01*
X160397544Y-71723024D01*
X160598024Y-71760500D01*
X160598026Y-71760500D01*
X160801974Y-71760500D01*
X160801976Y-71760500D01*
X161002456Y-71723024D01*
X161192637Y-71649348D01*
X161366041Y-71541981D01*
X161516764Y-71404579D01*
X161639673Y-71241821D01*
X161730582Y-71059250D01*
X161786397Y-70863083D01*
X161805215Y-70660000D01*
X161786397Y-70456917D01*
X161730582Y-70260750D01*
X161730185Y-70259953D01*
X161686272Y-70171764D01*
X161639673Y-70078179D01*
X161516764Y-69915421D01*
X161516762Y-69915418D01*
X161366041Y-69778019D01*
X161366039Y-69778017D01*
X161192642Y-69670655D01*
X161192635Y-69670651D01*
X161034539Y-69609405D01*
X161002456Y-69596976D01*
X160801976Y-69559500D01*
X160598024Y-69559500D01*
X160397544Y-69596976D01*
X160397541Y-69596976D01*
X160397541Y-69596977D01*
X160207364Y-69670651D01*
X160207357Y-69670655D01*
X160033960Y-69778017D01*
X160033958Y-69778019D01*
X159883237Y-69915418D01*
X159760327Y-70078178D01*
X159669422Y-70260739D01*
X159669417Y-70260752D01*
X159613602Y-70456917D01*
X159594785Y-70659999D01*
X159594785Y-70660000D01*
X153925500Y-70660000D01*
X153925500Y-70420730D01*
X153922646Y-70390300D01*
X153922646Y-70390298D01*
X153884313Y-70280752D01*
X153877793Y-70262118D01*
X153797150Y-70152850D01*
X153687882Y-70072207D01*
X153687880Y-70072206D01*
X153559700Y-70027353D01*
X153529270Y-70024500D01*
X153529266Y-70024500D01*
X152870734Y-70024500D01*
X152870730Y-70024500D01*
X152840300Y-70027353D01*
X152840298Y-70027354D01*
X152740455Y-70062291D01*
X152670676Y-70065853D01*
X152610049Y-70031125D01*
X152577821Y-69969131D01*
X152575500Y-69945250D01*
X152575500Y-69306899D01*
X152595185Y-69239860D01*
X152611819Y-69219218D01*
X152701693Y-69129344D01*
X152794399Y-69036637D01*
X152855720Y-69003154D01*
X152864436Y-69001581D01*
X152871954Y-69000500D01*
X152871961Y-69000500D01*
X152871968Y-69000498D01*
X153010050Y-68959954D01*
X153010050Y-68959953D01*
X153010053Y-68959953D01*
X153131128Y-68882143D01*
X153225377Y-68773373D01*
X153285165Y-68642457D01*
X153305647Y-68500000D01*
X153285165Y-68357543D01*
X153225377Y-68226627D01*
X153132985Y-68120000D01*
X159594785Y-68120000D01*
X159613602Y-68323082D01*
X159669417Y-68519247D01*
X159669422Y-68519260D01*
X159760327Y-68701821D01*
X159883237Y-68864581D01*
X160015774Y-68985403D01*
X160032334Y-69000500D01*
X160033958Y-69001980D01*
X160033960Y-69001982D01*
X160133141Y-69063392D01*
X160207363Y-69109348D01*
X160397544Y-69183024D01*
X160598024Y-69220500D01*
X160598026Y-69220500D01*
X160801974Y-69220500D01*
X160801976Y-69220500D01*
X161002456Y-69183024D01*
X161192637Y-69109348D01*
X161366041Y-69001981D01*
X161516764Y-68864579D01*
X161639673Y-68701821D01*
X161730582Y-68519250D01*
X161786397Y-68323083D01*
X161805215Y-68120000D01*
X161805016Y-68117857D01*
X161786397Y-67916917D01*
X161736273Y-67740752D01*
X161730582Y-67720750D01*
X161639673Y-67538179D01*
X161516764Y-67375421D01*
X161516762Y-67375418D01*
X161366041Y-67238019D01*
X161366039Y-67238017D01*
X161192642Y-67130655D01*
X161192635Y-67130651D01*
X161054082Y-67076976D01*
X161002456Y-67056976D01*
X160801976Y-67019500D01*
X160598024Y-67019500D01*
X160397544Y-67056976D01*
X160397541Y-67056976D01*
X160397541Y-67056977D01*
X160207364Y-67130651D01*
X160207357Y-67130655D01*
X160033960Y-67238017D01*
X160033958Y-67238019D01*
X159883237Y-67375418D01*
X159760327Y-67538178D01*
X159669422Y-67720739D01*
X159669417Y-67720752D01*
X159613602Y-67916917D01*
X159594785Y-68119999D01*
X159594785Y-68120000D01*
X153132985Y-68120000D01*
X153131128Y-68117857D01*
X153010053Y-68040047D01*
X153010051Y-68040046D01*
X153010049Y-68040045D01*
X153010050Y-68040045D01*
X152871963Y-67999500D01*
X152871961Y-67999500D01*
X152728039Y-67999500D01*
X152728036Y-67999500D01*
X152589949Y-68040045D01*
X152468873Y-68117856D01*
X152374623Y-68226626D01*
X152374622Y-68226628D01*
X152314835Y-68357541D01*
X152314834Y-68357546D01*
X152304489Y-68429496D01*
X152275463Y-68493051D01*
X152269432Y-68499529D01*
X151971108Y-68797852D01*
X151951254Y-68813976D01*
X151942165Y-68819914D01*
X151942164Y-68819915D01*
X151920363Y-68847923D01*
X151915286Y-68853674D01*
X151912484Y-68856477D01*
X151912474Y-68856488D01*
X151898905Y-68875495D01*
X151865192Y-68918808D01*
X151861447Y-68925729D01*
X151857988Y-68932804D01*
X151842329Y-68985403D01*
X151824500Y-69037338D01*
X151823206Y-69045092D01*
X151822231Y-69052911D01*
X151824500Y-69107755D01*
X151824500Y-78247815D01*
X151804815Y-78314854D01*
X151794215Y-78329016D01*
X151774623Y-78351627D01*
X151774622Y-78351628D01*
X151714834Y-78482543D01*
X151694353Y-78625000D01*
X151075500Y-78625000D01*
X151075500Y-68001804D01*
X151078139Y-67976359D01*
X151078785Y-67973275D01*
X151080367Y-67965732D01*
X151078287Y-67949052D01*
X151075977Y-67930509D01*
X151075500Y-67922833D01*
X151075500Y-67918890D01*
X151075499Y-67918884D01*
X151071655Y-67895847D01*
X151064865Y-67841374D01*
X151062617Y-67833828D01*
X151060065Y-67826391D01*
X151033942Y-67778120D01*
X151033942Y-67778119D01*
X151009826Y-67728789D01*
X151009823Y-67728786D01*
X151009823Y-67728785D01*
X151005267Y-67722403D01*
X151000423Y-67716179D01*
X151000419Y-67716175D01*
X150960041Y-67679004D01*
X149038580Y-65757543D01*
X148781036Y-65499999D01*
X150294353Y-65499999D01*
X150314834Y-65642456D01*
X150374622Y-65773371D01*
X150374623Y-65773373D01*
X150468872Y-65882143D01*
X150589947Y-65959953D01*
X150589950Y-65959954D01*
X150589949Y-65959954D01*
X150728036Y-66000499D01*
X150728038Y-66000500D01*
X150728039Y-66000500D01*
X150871962Y-66000500D01*
X150871962Y-66000499D01*
X151010053Y-65959953D01*
X151110834Y-65895184D01*
X151177874Y-65875500D01*
X153825068Y-65875500D01*
X153860003Y-65880523D01*
X153928038Y-65900500D01*
X153928039Y-65900500D01*
X154071962Y-65900500D01*
X154071962Y-65900499D01*
X154210053Y-65859953D01*
X154331128Y-65782143D01*
X154425377Y-65673373D01*
X154485165Y-65542457D01*
X154505647Y-65400000D01*
X154485165Y-65257543D01*
X154425377Y-65126627D01*
X154331128Y-65017857D01*
X154210053Y-64940047D01*
X154210051Y-64940046D01*
X154210049Y-64940045D01*
X154210050Y-64940045D01*
X154071963Y-64899500D01*
X154071961Y-64899500D01*
X153928039Y-64899500D01*
X153928036Y-64899500D01*
X153789949Y-64940045D01*
X153668873Y-65017856D01*
X153668872Y-65017856D01*
X153668872Y-65017857D01*
X153614350Y-65080780D01*
X153613550Y-65081703D01*
X153554772Y-65119477D01*
X153519837Y-65124500D01*
X151177874Y-65124500D01*
X151110835Y-65104815D01*
X151110834Y-65104815D01*
X151010053Y-65040047D01*
X151010052Y-65040046D01*
X151010051Y-65040046D01*
X151010050Y-65040045D01*
X150871963Y-64999500D01*
X150871961Y-64999500D01*
X150728039Y-64999500D01*
X150728036Y-64999500D01*
X150589949Y-65040045D01*
X150468873Y-65117856D01*
X150374623Y-65226626D01*
X150374622Y-65226628D01*
X150314834Y-65357543D01*
X150294353Y-65499999D01*
X148781036Y-65499999D01*
X148361818Y-65080780D01*
X148328333Y-65019457D01*
X148325499Y-64993099D01*
X148325499Y-64595730D01*
X148322645Y-64565300D01*
X148322645Y-64565298D01*
X148289005Y-64469163D01*
X148277792Y-64437118D01*
X148197149Y-64327850D01*
X148087881Y-64247207D01*
X148087879Y-64247206D01*
X147959699Y-64202353D01*
X147929269Y-64199500D01*
X147929265Y-64199500D01*
X147270733Y-64199500D01*
X147270729Y-64199500D01*
X147240299Y-64202353D01*
X147240297Y-64202353D01*
X147112118Y-64247206D01*
X147112116Y-64247207D01*
X147002849Y-64327850D01*
X146922206Y-64437117D01*
X146922205Y-64437119D01*
X146877352Y-64565298D01*
X146877352Y-64565300D01*
X146874499Y-64595730D01*
X146874499Y-65104269D01*
X146877352Y-65134699D01*
X146877352Y-65134701D01*
X146922205Y-65262880D01*
X146922206Y-65262882D01*
X147002849Y-65372150D01*
X147112117Y-65452793D01*
X147154844Y-65467744D01*
X147240298Y-65497646D01*
X147270729Y-65500500D01*
X147270733Y-65500500D01*
X147668100Y-65500500D01*
X147735139Y-65520185D01*
X147755781Y-65536819D01*
X150288181Y-68069219D01*
X150321666Y-68130542D01*
X150324500Y-68156900D01*
X150324500Y-70415040D01*
X150304815Y-70482079D01*
X150252011Y-70527834D01*
X150182853Y-70537778D01*
X150133461Y-70519356D01*
X150067424Y-70476917D01*
X150010053Y-70440047D01*
X150010051Y-70440046D01*
X150010049Y-70440045D01*
X150010050Y-70440045D01*
X149871965Y-70399500D01*
X149864429Y-70398417D01*
X149800874Y-70369391D01*
X149794397Y-70363360D01*
X146186819Y-66755781D01*
X146153334Y-66694458D01*
X146150500Y-66668100D01*
X146150500Y-64151803D01*
X146153139Y-64126358D01*
X146153838Y-64123022D01*
X146155367Y-64115731D01*
X146153377Y-64099766D01*
X146150977Y-64080505D01*
X146150500Y-64072829D01*
X146150500Y-64068888D01*
X146150498Y-64068875D01*
X146146657Y-64045858D01*
X146139866Y-63991375D01*
X146139866Y-63991373D01*
X146139864Y-63991369D01*
X146137622Y-63983839D01*
X146135065Y-63976391D01*
X146135065Y-63976389D01*
X146108944Y-63928121D01*
X146084826Y-63878788D01*
X146084824Y-63878786D01*
X146084824Y-63878785D01*
X146080276Y-63872415D01*
X146075420Y-63866175D01*
X146075419Y-63866173D01*
X146035029Y-63828991D01*
X145798505Y-63592467D01*
X145561819Y-63355780D01*
X145528334Y-63294457D01*
X145525500Y-63268099D01*
X145525500Y-62870729D01*
X145522646Y-62840299D01*
X145522646Y-62840297D01*
X145487565Y-62740045D01*
X145477793Y-62712117D01*
X145397150Y-62602849D01*
X145392975Y-62599768D01*
X145350725Y-62544124D01*
X145345265Y-62474468D01*
X145378330Y-62412918D01*
X145392974Y-62400229D01*
X145397150Y-62397147D01*
X145477793Y-62287879D01*
X145500219Y-62223787D01*
X145522646Y-62159698D01*
X145522646Y-62159696D01*
X145525500Y-62129266D01*
X145525500Y-61731896D01*
X145545185Y-61664857D01*
X145561820Y-61644214D01*
X145619217Y-61586818D01*
X145680540Y-61553334D01*
X145706897Y-61550500D01*
X146750500Y-61550500D01*
X146817539Y-61570185D01*
X146863294Y-61622989D01*
X146874500Y-61674500D01*
X146874500Y-62154269D01*
X146877353Y-62184699D01*
X146877353Y-62184701D01*
X146922206Y-62312880D01*
X146922207Y-62312882D01*
X146996036Y-62412918D01*
X147002850Y-62422150D01*
X147040897Y-62450230D01*
X147083147Y-62505876D01*
X147088606Y-62575532D01*
X147055539Y-62637081D01*
X147040898Y-62649768D01*
X147002848Y-62677850D01*
X146978711Y-62710555D01*
X146923063Y-62752805D01*
X146853407Y-62758262D01*
X146811909Y-62741240D01*
X146810053Y-62740047D01*
X146810051Y-62740046D01*
X146810049Y-62740045D01*
X146671963Y-62699500D01*
X146671961Y-62699500D01*
X146528039Y-62699500D01*
X146528036Y-62699500D01*
X146389949Y-62740045D01*
X146268873Y-62817856D01*
X146174623Y-62926626D01*
X146174622Y-62926628D01*
X146114834Y-63057543D01*
X146094353Y-63200000D01*
X146114834Y-63342456D01*
X146165897Y-63454266D01*
X146174623Y-63473373D01*
X146268872Y-63582143D01*
X146389947Y-63659953D01*
X146389950Y-63659954D01*
X146389949Y-63659954D01*
X146528036Y-63700499D01*
X146528038Y-63700500D01*
X146528039Y-63700500D01*
X146671962Y-63700500D01*
X146671962Y-63700499D01*
X146810053Y-63659953D01*
X146811897Y-63658767D01*
X146814004Y-63658148D01*
X146818118Y-63656270D01*
X146818388Y-63656861D01*
X146878934Y-63639079D01*
X146945975Y-63658759D01*
X146978711Y-63689444D01*
X147002849Y-63722150D01*
X147112117Y-63802793D01*
X147137909Y-63811818D01*
X147240298Y-63847646D01*
X147270729Y-63850500D01*
X147270733Y-63850500D01*
X147929269Y-63850500D01*
X147959698Y-63847646D01*
X147959700Y-63847646D01*
X148023789Y-63825219D01*
X148087881Y-63802793D01*
X148197149Y-63722150D01*
X148277792Y-63612882D01*
X148300218Y-63548790D01*
X148322645Y-63484701D01*
X148322645Y-63484699D01*
X148325499Y-63454269D01*
X148325499Y-63200000D01*
X148894353Y-63200000D01*
X148914834Y-63342456D01*
X148965897Y-63454266D01*
X148974623Y-63473373D01*
X149068872Y-63582143D01*
X149189947Y-63659953D01*
X149189950Y-63659954D01*
X149189949Y-63659954D01*
X149328036Y-63700499D01*
X149328038Y-63700500D01*
X149328039Y-63700500D01*
X149471962Y-63700500D01*
X149471962Y-63700499D01*
X149610053Y-63659953D01*
X149731128Y-63582143D01*
X149786451Y-63518296D01*
X149845228Y-63480523D01*
X149880163Y-63475500D01*
X154425068Y-63475500D01*
X154460003Y-63480523D01*
X154528038Y-63500500D01*
X154528039Y-63500500D01*
X154671962Y-63500500D01*
X154671962Y-63500499D01*
X154810053Y-63459953D01*
X154931128Y-63382143D01*
X155025377Y-63273373D01*
X155085165Y-63142457D01*
X155105647Y-63000000D01*
X155085165Y-62857543D01*
X155025377Y-62726627D01*
X154931128Y-62617857D01*
X154810053Y-62540047D01*
X154810051Y-62540046D01*
X154810049Y-62540045D01*
X154810050Y-62540045D01*
X154671963Y-62499500D01*
X154671961Y-62499500D01*
X154528039Y-62499500D01*
X154528036Y-62499500D01*
X154389949Y-62540045D01*
X154268873Y-62617856D01*
X154268872Y-62617856D01*
X154268872Y-62617857D01*
X154216889Y-62677850D01*
X154213550Y-62681703D01*
X154154772Y-62719477D01*
X154119837Y-62724500D01*
X149574932Y-62724500D01*
X149539997Y-62719477D01*
X149471962Y-62699500D01*
X149471961Y-62699500D01*
X149328039Y-62699500D01*
X149328036Y-62699500D01*
X149189949Y-62740045D01*
X149068873Y-62817856D01*
X148974623Y-62926626D01*
X148974622Y-62926628D01*
X148914834Y-63057543D01*
X148894353Y-63200000D01*
X148325499Y-63200000D01*
X148325499Y-62945730D01*
X148322645Y-62915300D01*
X148322645Y-62915298D01*
X148288548Y-62817856D01*
X148277792Y-62787118D01*
X148197149Y-62677850D01*
X148197147Y-62677849D01*
X148197147Y-62677848D01*
X148159102Y-62649770D01*
X148116851Y-62594123D01*
X148111392Y-62524467D01*
X148144459Y-62462917D01*
X148159096Y-62450234D01*
X148197150Y-62422150D01*
X148277793Y-62312882D01*
X148307975Y-62226626D01*
X148322646Y-62184701D01*
X148322646Y-62184699D01*
X148325500Y-62154269D01*
X148325500Y-61674500D01*
X148345185Y-61607461D01*
X148397989Y-61561706D01*
X148449500Y-61550500D01*
X159661566Y-61550500D01*
X159728605Y-61570185D01*
X159730425Y-61571376D01*
X159752260Y-61585966D01*
X159770526Y-61589599D01*
X159825323Y-61600500D01*
X160033318Y-61600500D01*
X160100357Y-61620185D01*
X160146112Y-61672989D01*
X160156056Y-61742147D01*
X160127031Y-61805703D01*
X160085723Y-61836882D01*
X160022422Y-61866399D01*
X160022420Y-61866400D01*
X159828926Y-62001886D01*
X159828920Y-62001891D01*
X159661891Y-62168920D01*
X159661886Y-62168926D01*
X159526400Y-62362420D01*
X159526399Y-62362422D01*
X159426570Y-62576507D01*
X159426567Y-62576513D01*
X159369364Y-62789999D01*
X159369364Y-62790000D01*
X160086653Y-62790000D01*
X160153692Y-62809685D01*
X160199447Y-62862489D01*
X160209391Y-62931647D01*
X160205631Y-62948933D01*
X160200000Y-62968111D01*
X160200000Y-63111888D01*
X160205631Y-63131067D01*
X160205630Y-63200936D01*
X160167855Y-63259714D01*
X160104299Y-63288738D01*
X160086653Y-63290000D01*
X159369364Y-63290000D01*
X159426567Y-63503486D01*
X159426570Y-63503492D01*
X159526399Y-63717578D01*
X159661894Y-63911082D01*
X159828917Y-64078105D01*
X160022421Y-64213600D01*
X160236507Y-64313429D01*
X160236516Y-64313433D01*
X160275583Y-64323901D01*
X160335244Y-64360266D01*
X160365773Y-64423113D01*
X160357479Y-64492488D01*
X160312993Y-64546366D01*
X160288284Y-64559302D01*
X160207373Y-64590647D01*
X160207357Y-64590655D01*
X160033960Y-64698017D01*
X160033958Y-64698019D01*
X159883237Y-64835418D01*
X159760327Y-64998178D01*
X159669422Y-65180739D01*
X159669417Y-65180752D01*
X159613602Y-65376917D01*
X159594785Y-65579999D01*
X159594785Y-65580000D01*
X159613602Y-65783082D01*
X159669417Y-65979247D01*
X159669422Y-65979260D01*
X159760327Y-66161821D01*
X159883237Y-66324581D01*
X160033958Y-66461980D01*
X160033960Y-66461982D01*
X160133141Y-66523392D01*
X160207363Y-66569348D01*
X160397544Y-66643024D01*
X160598024Y-66680500D01*
X160598026Y-66680500D01*
X160801974Y-66680500D01*
X160801976Y-66680500D01*
X161002456Y-66643024D01*
X161192637Y-66569348D01*
X161366041Y-66461981D01*
X161516764Y-66324579D01*
X161639673Y-66161821D01*
X161730582Y-65979250D01*
X161786397Y-65783083D01*
X161805215Y-65580000D01*
X161799672Y-65520185D01*
X161786397Y-65376917D01*
X161781908Y-65361139D01*
X161730582Y-65180750D01*
X161707652Y-65134701D01*
X161662719Y-65044462D01*
X161639673Y-64998179D01*
X161516764Y-64835421D01*
X161516762Y-64835418D01*
X161366041Y-64698019D01*
X161366039Y-64698017D01*
X161192642Y-64590655D01*
X161192635Y-64590651D01*
X161111715Y-64559303D01*
X161056313Y-64516730D01*
X161032723Y-64450963D01*
X161048434Y-64382883D01*
X161098458Y-64334104D01*
X161124417Y-64323901D01*
X161163481Y-64313434D01*
X161163492Y-64313429D01*
X161377578Y-64213600D01*
X161571082Y-64078105D01*
X161738105Y-63911082D01*
X161873600Y-63717578D01*
X161973429Y-63503492D01*
X161973432Y-63503486D01*
X162030636Y-63290000D01*
X161313347Y-63290000D01*
X161246308Y-63270315D01*
X161200553Y-63217511D01*
X161190609Y-63148353D01*
X161194369Y-63131067D01*
X161200000Y-63111888D01*
X161200000Y-62968111D01*
X161194369Y-62948933D01*
X161194370Y-62879064D01*
X161232145Y-62820286D01*
X161295701Y-62791262D01*
X161313347Y-62790000D01*
X162030636Y-62790000D01*
X162030635Y-62789999D01*
X161973432Y-62576513D01*
X161973429Y-62576507D01*
X161873600Y-62362422D01*
X161873599Y-62362420D01*
X161738113Y-62168926D01*
X161738108Y-62168920D01*
X161571082Y-62001894D01*
X161377578Y-61866399D01*
X161314277Y-61836882D01*
X161261838Y-61790710D01*
X161242686Y-61723516D01*
X161262902Y-61656635D01*
X161316067Y-61611300D01*
X161366682Y-61600500D01*
X161574676Y-61600500D01*
X161574677Y-61600499D01*
X161647740Y-61585966D01*
X161730601Y-61530601D01*
X161785966Y-61447740D01*
X161800500Y-61374674D01*
X161800500Y-59625326D01*
X161800500Y-59625323D01*
X161800499Y-59625321D01*
X161785967Y-59552264D01*
X161785966Y-59552260D01*
X161771528Y-59530652D01*
X161730601Y-59469399D01*
X161647740Y-59414034D01*
X161647739Y-59414033D01*
X161647735Y-59414032D01*
X161574677Y-59399500D01*
X161574674Y-59399500D01*
X159825326Y-59399500D01*
X159825323Y-59399500D01*
X159752264Y-59414032D01*
X159752260Y-59414033D01*
X159669399Y-59469399D01*
X159614033Y-59552260D01*
X159614032Y-59552264D01*
X159599500Y-59625321D01*
X159599500Y-60675500D01*
X159579815Y-60742539D01*
X159527011Y-60788294D01*
X159475500Y-60799500D01*
X148667810Y-60799500D01*
X148600771Y-60779815D01*
X148555016Y-60727011D01*
X148545072Y-60657853D01*
X148549425Y-60638609D01*
X148568590Y-60577104D01*
X148575000Y-60506572D01*
X148575000Y-60500000D01*
X146625001Y-60500000D01*
X146625001Y-60506582D01*
X146631408Y-60577102D01*
X146631409Y-60577107D01*
X146650574Y-60638609D01*
X146651726Y-60708469D01*
X146614925Y-60767862D01*
X146551856Y-60797930D01*
X146532189Y-60799500D01*
X145596000Y-60799500D01*
X145528961Y-60779815D01*
X145483206Y-60727011D01*
X145473262Y-60657853D01*
X145478956Y-60634553D01*
X145522646Y-60509696D01*
X145525500Y-60479263D01*
X145525500Y-60000000D01*
X146625000Y-60000000D01*
X147350000Y-60000000D01*
X147350000Y-59350000D01*
X147850000Y-59350000D01*
X147850000Y-60000000D01*
X148574999Y-60000000D01*
X148574999Y-59993417D01*
X148568591Y-59922897D01*
X148568590Y-59922892D01*
X148518018Y-59760603D01*
X148430072Y-59615122D01*
X148309877Y-59494927D01*
X148164395Y-59406980D01*
X148164396Y-59406980D01*
X148002105Y-59356409D01*
X148002106Y-59356409D01*
X147931572Y-59350000D01*
X147850000Y-59350000D01*
X147350000Y-59350000D01*
X147349999Y-59349999D01*
X147268417Y-59350000D01*
X147197897Y-59356408D01*
X147197892Y-59356409D01*
X147035603Y-59406981D01*
X146890122Y-59494927D01*
X146769927Y-59615122D01*
X146681980Y-59760604D01*
X146631409Y-59922893D01*
X146625000Y-59993427D01*
X146625000Y-60000000D01*
X145525500Y-60000000D01*
X145525500Y-59970731D01*
X145522646Y-59940298D01*
X145522646Y-59940297D01*
X145522646Y-59940295D01*
X145477793Y-59812116D01*
X145477792Y-59812114D01*
X145397150Y-59702847D01*
X145287882Y-59622204D01*
X145287880Y-59622203D01*
X145159700Y-59577350D01*
X145129270Y-59574497D01*
X145129266Y-59574497D01*
X144470734Y-59574497D01*
X144470730Y-59574497D01*
X144440300Y-59577350D01*
X144440298Y-59577350D01*
X144312119Y-59622203D01*
X144312117Y-59622204D01*
X144202849Y-59702847D01*
X144191224Y-59718599D01*
X144135575Y-59760848D01*
X144065918Y-59766304D01*
X144024418Y-59749278D01*
X144010053Y-59740047D01*
X144010050Y-59740045D01*
X143871963Y-59699500D01*
X143871961Y-59699500D01*
X143728039Y-59699500D01*
X143728036Y-59699500D01*
X143589949Y-59740045D01*
X143468873Y-59817856D01*
X143374623Y-59926626D01*
X143374622Y-59926628D01*
X143314834Y-60057543D01*
X143294353Y-60200000D01*
X143314834Y-60342456D01*
X143374622Y-60473371D01*
X143374623Y-60473373D01*
X143468872Y-60582143D01*
X143589947Y-60659953D01*
X143589950Y-60659954D01*
X143589949Y-60659954D01*
X143728036Y-60700499D01*
X143728038Y-60700500D01*
X143728039Y-60700500D01*
X143871962Y-60700500D01*
X143871962Y-60700499D01*
X144010053Y-60659953D01*
X144010057Y-60659950D01*
X144014583Y-60657884D01*
X144083740Y-60647936D01*
X144147298Y-60676957D01*
X144165871Y-60697042D01*
X144202848Y-60747145D01*
X144202849Y-60747145D01*
X144202850Y-60747147D01*
X144312118Y-60827790D01*
X144350027Y-60841055D01*
X144440299Y-60872643D01*
X144470730Y-60875497D01*
X144969101Y-60875497D01*
X145036140Y-60895182D01*
X145081895Y-60947986D01*
X145091839Y-61017144D01*
X145062814Y-61080700D01*
X145056782Y-61087178D01*
X144955782Y-61188178D01*
X144894459Y-61221663D01*
X144868101Y-61224497D01*
X144470730Y-61224497D01*
X144440300Y-61227350D01*
X144440298Y-61227350D01*
X144312119Y-61272203D01*
X144312117Y-61272204D01*
X144202850Y-61352847D01*
X144122207Y-61462114D01*
X144122206Y-61462116D01*
X144077353Y-61590295D01*
X144077353Y-61590297D01*
X144074500Y-61620727D01*
X144074500Y-62129266D01*
X144077353Y-62159693D01*
X144077353Y-62159695D01*
X144077354Y-62159696D01*
X144083765Y-62178019D01*
X144111698Y-62257845D01*
X144112542Y-62274385D01*
X144117353Y-62279937D01*
X144117867Y-62279666D01*
X144119038Y-62281882D01*
X144119907Y-62282885D01*
X144120987Y-62285570D01*
X144122207Y-62287879D01*
X144202850Y-62397147D01*
X144207026Y-62400229D01*
X144249276Y-62455877D01*
X144254733Y-62525533D01*
X144221666Y-62587082D01*
X144207026Y-62599767D01*
X144195375Y-62608366D01*
X144193857Y-62606309D01*
X144144708Y-62633138D01*
X144075017Y-62628143D01*
X144030687Y-62599649D01*
X143930566Y-62499528D01*
X143897081Y-62438205D01*
X143895511Y-62429507D01*
X143885165Y-62357543D01*
X143885163Y-62357540D01*
X143884871Y-62355503D01*
X143881862Y-62350311D01*
X143825379Y-62226630D01*
X143825376Y-62226626D01*
X143783258Y-62178019D01*
X143731128Y-62117857D01*
X143610053Y-62040047D01*
X143610051Y-62040046D01*
X143610049Y-62040045D01*
X143610050Y-62040045D01*
X143471963Y-61999500D01*
X143471961Y-61999500D01*
X143328039Y-61999500D01*
X143328036Y-61999500D01*
X143189949Y-62040045D01*
X143189948Y-62040046D01*
X143089166Y-62104815D01*
X143022126Y-62124500D01*
X142518465Y-62124500D01*
X142451426Y-62104815D01*
X142419198Y-62074811D01*
X142416084Y-62070651D01*
X142357546Y-61992454D01*
X142313525Y-61959500D01*
X142242335Y-61906206D01*
X142242328Y-61906202D01*
X142107482Y-61855908D01*
X142107483Y-61855908D01*
X142047883Y-61849501D01*
X142047881Y-61849500D01*
X142047873Y-61849500D01*
X142047864Y-61849500D01*
X140952129Y-61849500D01*
X140952123Y-61849501D01*
X140892516Y-61855908D01*
X140757671Y-61906202D01*
X140757664Y-61906206D01*
X140642455Y-61992452D01*
X140642452Y-61992455D01*
X140556206Y-62107664D01*
X140556202Y-62107671D01*
X140511834Y-62226630D01*
X140505909Y-62242517D01*
X140499500Y-62302127D01*
X140499500Y-62302134D01*
X140499500Y-62302135D01*
X140499500Y-62897870D01*
X140499501Y-62897876D01*
X140505908Y-62957483D01*
X140556202Y-63092328D01*
X140556206Y-63092335D01*
X140642452Y-63207544D01*
X140647227Y-63212319D01*
X140680712Y-63273642D01*
X140675728Y-63343334D01*
X140647227Y-63387681D01*
X140642452Y-63392455D01*
X140556206Y-63507664D01*
X140556202Y-63507671D01*
X140505910Y-63642513D01*
X140505909Y-63642517D01*
X140499500Y-63702127D01*
X140499500Y-63702134D01*
X140499500Y-63702135D01*
X140499500Y-64297870D01*
X140499501Y-64297876D01*
X140505908Y-64357483D01*
X140556202Y-64492328D01*
X140556206Y-64492335D01*
X140642452Y-64607544D01*
X140642455Y-64607547D01*
X140757664Y-64693793D01*
X140757671Y-64693797D01*
X140768986Y-64698017D01*
X140892517Y-64744091D01*
X140952127Y-64750500D01*
X141668100Y-64750499D01*
X141735139Y-64770183D01*
X141755781Y-64786818D01*
X142872411Y-65903449D01*
X142905896Y-65964772D01*
X142907468Y-66008776D01*
X142894353Y-66099999D01*
X142914834Y-66242456D01*
X142932959Y-66282143D01*
X142974623Y-66373373D01*
X142994212Y-66395980D01*
X143023238Y-66459534D01*
X143024500Y-66477183D01*
X143024500Y-69314397D01*
X143004815Y-69381436D01*
X142974941Y-69411313D01*
X142975577Y-69412047D01*
X142968874Y-69417855D01*
X142874623Y-69526626D01*
X142874622Y-69526628D01*
X142814834Y-69657543D01*
X142794353Y-69800000D01*
X142814834Y-69942456D01*
X142855329Y-70031125D01*
X142874623Y-70073373D01*
X142968872Y-70182143D01*
X143089947Y-70259953D01*
X143089950Y-70259954D01*
X143089949Y-70259954D01*
X143197107Y-70291417D01*
X143218380Y-70297664D01*
X143228036Y-70300499D01*
X143228038Y-70300500D01*
X143228039Y-70300500D01*
X143371962Y-70300500D01*
X143371962Y-70300499D01*
X143479121Y-70269035D01*
X143510050Y-70259954D01*
X143510050Y-70259953D01*
X143510053Y-70259953D01*
X143631128Y-70182143D01*
X143725377Y-70073373D01*
X143785165Y-69942457D01*
X143805647Y-69800000D01*
X143785165Y-69657543D01*
X143785163Y-69657538D01*
X143782667Y-69649035D01*
X143784032Y-69648633D01*
X143775500Y-69609405D01*
X143775500Y-66705898D01*
X143795185Y-66638859D01*
X143847989Y-66593104D01*
X143917147Y-66583160D01*
X143980703Y-66612185D01*
X143987166Y-66618203D01*
X145798459Y-68429496D01*
X147605304Y-70236341D01*
X147638789Y-70297664D01*
X147633805Y-70367356D01*
X147591933Y-70423289D01*
X147552558Y-70442999D01*
X147492080Y-70460756D01*
X147423522Y-70504816D01*
X147356484Y-70524500D01*
X147187459Y-70524500D01*
X147120420Y-70504815D01*
X147074665Y-70452011D01*
X147071790Y-70445071D01*
X147071627Y-70444773D01*
X147068088Y-70440045D01*
X146989687Y-70335313D01*
X146891911Y-70262119D01*
X146880228Y-70253373D01*
X146880226Y-70253372D01*
X146752114Y-70205588D01*
X146752112Y-70205587D01*
X146752110Y-70205587D01*
X146695493Y-70199500D01*
X146104518Y-70199500D01*
X146104509Y-70199501D01*
X146047885Y-70205587D01*
X145919773Y-70253372D01*
X145810313Y-70335313D01*
X145728372Y-70444773D01*
X145724123Y-70452556D01*
X145722753Y-70451808D01*
X145686850Y-70499768D01*
X145621385Y-70524184D01*
X145612541Y-70524500D01*
X145586784Y-70524500D01*
X145519745Y-70504815D01*
X145473990Y-70452011D01*
X145470611Y-70443857D01*
X145461629Y-70419774D01*
X145379688Y-70310313D01*
X145303623Y-70253372D01*
X145270229Y-70228373D01*
X145270227Y-70228372D01*
X145142115Y-70180588D01*
X145142113Y-70180587D01*
X145142111Y-70180587D01*
X145085494Y-70174500D01*
X144494519Y-70174500D01*
X144494510Y-70174501D01*
X144437886Y-70180587D01*
X144309774Y-70228372D01*
X144200314Y-70310313D01*
X144118374Y-70419771D01*
X144070588Y-70547889D01*
X144064501Y-70604498D01*
X144064501Y-70924154D01*
X144044816Y-70991193D01*
X143992012Y-71036948D01*
X143922854Y-71046892D01*
X143905567Y-71043131D01*
X143778197Y-71005733D01*
X143778194Y-71005733D01*
X143634272Y-71005733D01*
X143634269Y-71005733D01*
X143496182Y-71046278D01*
X143375106Y-71124089D01*
X143280856Y-71232859D01*
X143280855Y-71232861D01*
X143221067Y-71363776D01*
X143200586Y-71506232D01*
X143221067Y-71648689D01*
X143264148Y-71743022D01*
X143280856Y-71779606D01*
X143375105Y-71888376D01*
X143496180Y-71966186D01*
X143496183Y-71966187D01*
X143496182Y-71966187D01*
X143634269Y-72006732D01*
X143634271Y-72006733D01*
X143692496Y-72006733D01*
X143759535Y-72026418D01*
X143805290Y-72079222D01*
X143815854Y-72143337D01*
X143815001Y-72151680D01*
X143815001Y-72175000D01*
X145728639Y-72175000D01*
X145795678Y-72194685D01*
X145802274Y-72200000D01*
X147374999Y-72200000D01*
X147374999Y-72176692D01*
X147374998Y-72176677D01*
X147364855Y-72077392D01*
X147311547Y-71916518D01*
X147311542Y-71916507D01*
X147222575Y-71772271D01*
X147222572Y-71772267D01*
X147102732Y-71652427D01*
X147102728Y-71652424D01*
X147044730Y-71616650D01*
X146998005Y-71564702D01*
X146986784Y-71495739D01*
X147010558Y-71436805D01*
X147071628Y-71355226D01*
X147071628Y-71355223D01*
X147075877Y-71347444D01*
X147077246Y-71348191D01*
X147113150Y-71300232D01*
X147178615Y-71275816D01*
X147187459Y-71275500D01*
X147293186Y-71275500D01*
X147360225Y-71295185D01*
X147367232Y-71300429D01*
X147371002Y-71302851D01*
X147371004Y-71302854D01*
X147492079Y-71380664D01*
X147492082Y-71380665D01*
X147492081Y-71380665D01*
X147630168Y-71421210D01*
X147630170Y-71421211D01*
X147630171Y-71421211D01*
X147774094Y-71421211D01*
X147774094Y-71421210D01*
X147881253Y-71389746D01*
X147912182Y-71380665D01*
X147912182Y-71380664D01*
X147912185Y-71380664D01*
X148033260Y-71302854D01*
X148127509Y-71194084D01*
X148187297Y-71063168D01*
X148187297Y-71063166D01*
X148189864Y-71057546D01*
X148235618Y-71004742D01*
X148302658Y-70985057D01*
X148369697Y-71004741D01*
X148390339Y-71021376D01*
X148488181Y-71119218D01*
X148521666Y-71180541D01*
X148524500Y-71206899D01*
X148524500Y-76582283D01*
X148504815Y-76649322D01*
X148452011Y-76695077D01*
X148382853Y-76705021D01*
X148326189Y-76681550D01*
X148292331Y-76656204D01*
X148292328Y-76656202D01*
X148157482Y-76605908D01*
X148157483Y-76605908D01*
X148097883Y-76599501D01*
X148097881Y-76599500D01*
X148097873Y-76599500D01*
X148097864Y-76599500D01*
X146702129Y-76599500D01*
X146702123Y-76599501D01*
X146642516Y-76605908D01*
X146507671Y-76656202D01*
X146507664Y-76656206D01*
X146392455Y-76742452D01*
X146392452Y-76742455D01*
X146306206Y-76857664D01*
X146306202Y-76857671D01*
X146255418Y-76993833D01*
X146213547Y-77049767D01*
X146148083Y-77074184D01*
X146139236Y-77074500D01*
X146051440Y-77074500D01*
X145984401Y-77054815D01*
X145938646Y-77002011D01*
X145935258Y-76993833D01*
X145893797Y-76882671D01*
X145893793Y-76882664D01*
X145807547Y-76767455D01*
X145807544Y-76767452D01*
X145692335Y-76681206D01*
X145692328Y-76681202D01*
X145557482Y-76630908D01*
X145557483Y-76630908D01*
X145497883Y-76624501D01*
X145497881Y-76624500D01*
X145497873Y-76624500D01*
X145497864Y-76624500D01*
X144102129Y-76624500D01*
X144102123Y-76624501D01*
X144042516Y-76630908D01*
X143907671Y-76681202D01*
X143907664Y-76681206D01*
X143792455Y-76767452D01*
X143792452Y-76767455D01*
X143706206Y-76882664D01*
X143706202Y-76882671D01*
X143664742Y-76993833D01*
X143622871Y-77049767D01*
X143557407Y-77074184D01*
X143548560Y-77074500D01*
X143451440Y-77074500D01*
X143384401Y-77054815D01*
X143338646Y-77002011D01*
X143335258Y-76993833D01*
X143293797Y-76882671D01*
X143293793Y-76882664D01*
X143207547Y-76767455D01*
X143207544Y-76767452D01*
X143092335Y-76681206D01*
X143092328Y-76681202D01*
X142957482Y-76630908D01*
X142957483Y-76630908D01*
X142897883Y-76624501D01*
X142897881Y-76624500D01*
X142897873Y-76624500D01*
X142897865Y-76624500D01*
X142206899Y-76624500D01*
X142139860Y-76604815D01*
X142119218Y-76588181D01*
X141186816Y-75655778D01*
X141153331Y-75594455D01*
X141151759Y-75585742D01*
X141144739Y-75536917D01*
X141141415Y-75513793D01*
X141081627Y-75382877D01*
X140987378Y-75274107D01*
X140866303Y-75196297D01*
X140866301Y-75196296D01*
X140866299Y-75196295D01*
X140866300Y-75196295D01*
X140728213Y-75155750D01*
X140728211Y-75155750D01*
X140584289Y-75155750D01*
X140584286Y-75155750D01*
X140446199Y-75196295D01*
X140325123Y-75274106D01*
X140230873Y-75382876D01*
X140230872Y-75382878D01*
X140171084Y-75513793D01*
X140150603Y-75656250D01*
X138795601Y-75656250D01*
X138792853Y-75626595D01*
X138786397Y-75556917D01*
X138736878Y-75382878D01*
X138730582Y-75360750D01*
X138720624Y-75340752D01*
X138686272Y-75271764D01*
X138639673Y-75178179D01*
X138516764Y-75015421D01*
X138516762Y-75015418D01*
X138366041Y-74878019D01*
X138366039Y-74878017D01*
X138192642Y-74770655D01*
X138192635Y-74770651D01*
X138097546Y-74733813D01*
X138002456Y-74696976D01*
X137801976Y-74659500D01*
X137598024Y-74659500D01*
X137397544Y-74696976D01*
X137397541Y-74696976D01*
X137397541Y-74696977D01*
X137207364Y-74770651D01*
X137207357Y-74770655D01*
X137033960Y-74878017D01*
X137033958Y-74878019D01*
X136883237Y-75015418D01*
X136760327Y-75178178D01*
X136669422Y-75360739D01*
X136669417Y-75360752D01*
X136613602Y-75556917D01*
X136594785Y-75759999D01*
X136594785Y-75760000D01*
X136613602Y-75963082D01*
X136669417Y-76159247D01*
X136669422Y-76159260D01*
X136760327Y-76341821D01*
X136883237Y-76504581D01*
X137033958Y-76641980D01*
X137033960Y-76641982D01*
X137097865Y-76681550D01*
X137207363Y-76749348D01*
X137288283Y-76780696D01*
X137343685Y-76823269D01*
X137367276Y-76889035D01*
X137351565Y-76957116D01*
X137301542Y-77005895D01*
X137275586Y-77016097D01*
X137236519Y-77026565D01*
X137236507Y-77026570D01*
X137022422Y-77126399D01*
X137022420Y-77126400D01*
X136828926Y-77261886D01*
X136828920Y-77261891D01*
X136661891Y-77428920D01*
X136661886Y-77428926D01*
X136526400Y-77622420D01*
X136526399Y-77622422D01*
X136426570Y-77836507D01*
X136426567Y-77836513D01*
X136369364Y-78049999D01*
X136369364Y-78050000D01*
X137086653Y-78050000D01*
X137153692Y-78069685D01*
X137199447Y-78122489D01*
X137209391Y-78191647D01*
X137205631Y-78208933D01*
X137200000Y-78228111D01*
X137200000Y-78371888D01*
X137205631Y-78391067D01*
X137205630Y-78460936D01*
X137167855Y-78519714D01*
X137104299Y-78548738D01*
X137086653Y-78550000D01*
X136369364Y-78550000D01*
X135400000Y-78550000D01*
X135400000Y-73220000D01*
X136594785Y-73220000D01*
X136613602Y-73423082D01*
X136669417Y-73619247D01*
X136669422Y-73619260D01*
X136760327Y-73801821D01*
X136883237Y-73964581D01*
X137033958Y-74101980D01*
X137033960Y-74101982D01*
X137133141Y-74163392D01*
X137207363Y-74209348D01*
X137397544Y-74283024D01*
X137598024Y-74320500D01*
X137598026Y-74320500D01*
X137801974Y-74320500D01*
X137801976Y-74320500D01*
X138002456Y-74283024D01*
X138192637Y-74209348D01*
X138366041Y-74101981D01*
X138516764Y-73964579D01*
X138639673Y-73801821D01*
X138730582Y-73619250D01*
X138786397Y-73423083D01*
X138805215Y-73220000D01*
X138805084Y-73218591D01*
X138786397Y-73016917D01*
X138776887Y-72983492D01*
X138730582Y-72820750D01*
X138720624Y-72800752D01*
X138660654Y-72680315D01*
X138658007Y-72675000D01*
X143815002Y-72675000D01*
X143815002Y-72698322D01*
X143825145Y-72797607D01*
X143878453Y-72958481D01*
X143878458Y-72958492D01*
X143967425Y-73102728D01*
X143967428Y-73102732D01*
X144087268Y-73222572D01*
X144087272Y-73222575D01*
X144231508Y-73311542D01*
X144231519Y-73311547D01*
X144392394Y-73364855D01*
X144491684Y-73374999D01*
X144540000Y-73374998D01*
X144540001Y-73374998D01*
X144540001Y-72675000D01*
X145040001Y-72675000D01*
X145040001Y-73374999D01*
X145088309Y-73374999D01*
X145088323Y-73374998D01*
X145187608Y-73364855D01*
X145348482Y-73311547D01*
X145348493Y-73311542D01*
X145492730Y-73222575D01*
X145494807Y-73220498D01*
X145496589Y-73219524D01*
X145498401Y-73218092D01*
X145498645Y-73218401D01*
X145556125Y-73187004D01*
X145625817Y-73191979D01*
X145670181Y-73220486D01*
X145697267Y-73247572D01*
X145697271Y-73247575D01*
X145841507Y-73336542D01*
X145841518Y-73336547D01*
X146002393Y-73389855D01*
X146101683Y-73399999D01*
X146149999Y-73399998D01*
X146150000Y-73399998D01*
X146150000Y-72700000D01*
X146650000Y-72700000D01*
X146650000Y-73399999D01*
X146698308Y-73399999D01*
X146698322Y-73399998D01*
X146797607Y-73389855D01*
X146958481Y-73336547D01*
X146958492Y-73336542D01*
X147102728Y-73247575D01*
X147102732Y-73247572D01*
X147222572Y-73127732D01*
X147222575Y-73127728D01*
X147311542Y-72983492D01*
X147311547Y-72983481D01*
X147364855Y-72822606D01*
X147374999Y-72723322D01*
X147375000Y-72723309D01*
X147375000Y-72700000D01*
X146650000Y-72700000D01*
X146150000Y-72700000D01*
X145461362Y-72700000D01*
X145394323Y-72680315D01*
X145387727Y-72675000D01*
X145040001Y-72675000D01*
X144540001Y-72675000D01*
X143815002Y-72675000D01*
X138658007Y-72675000D01*
X138639673Y-72638179D01*
X138521840Y-72482143D01*
X138516762Y-72475418D01*
X138366041Y-72338019D01*
X138366039Y-72338017D01*
X138192642Y-72230655D01*
X138192635Y-72230651D01*
X138053310Y-72176677D01*
X138002456Y-72156976D01*
X137801976Y-72119500D01*
X137598024Y-72119500D01*
X137397544Y-72156976D01*
X137397541Y-72156976D01*
X137397541Y-72156977D01*
X137207364Y-72230651D01*
X137207357Y-72230655D01*
X137033960Y-72338017D01*
X137033958Y-72338019D01*
X136883237Y-72475418D01*
X136760327Y-72638178D01*
X136669422Y-72820739D01*
X136669417Y-72820752D01*
X136613602Y-73016917D01*
X136594785Y-73219999D01*
X136594785Y-73220000D01*
X135400000Y-73220000D01*
X135400000Y-70680000D01*
X136594785Y-70680000D01*
X136613602Y-70883082D01*
X136669417Y-71079247D01*
X136669422Y-71079260D01*
X136760327Y-71261821D01*
X136883237Y-71424581D01*
X137033958Y-71561980D01*
X137033960Y-71561982D01*
X137055791Y-71575499D01*
X137207363Y-71669348D01*
X137397544Y-71743024D01*
X137598024Y-71780500D01*
X137598026Y-71780500D01*
X137801974Y-71780500D01*
X137801976Y-71780500D01*
X138002456Y-71743024D01*
X138192637Y-71669348D01*
X138366041Y-71561981D01*
X138516764Y-71424579D01*
X138639673Y-71261821D01*
X138730582Y-71079250D01*
X138786397Y-70883083D01*
X138805215Y-70680000D01*
X138792036Y-70537778D01*
X138786397Y-70476917D01*
X138779466Y-70452556D01*
X138730582Y-70280750D01*
X138721304Y-70262118D01*
X138681482Y-70182143D01*
X138639673Y-70098179D01*
X138524187Y-69945250D01*
X138516762Y-69935418D01*
X138366041Y-69798019D01*
X138366039Y-69798017D01*
X138192642Y-69690655D01*
X138192635Y-69690651D01*
X138052541Y-69636379D01*
X138002456Y-69616976D01*
X137801976Y-69579500D01*
X137598024Y-69579500D01*
X137397544Y-69616976D01*
X137397541Y-69616976D01*
X137397541Y-69616977D01*
X137207364Y-69690651D01*
X137207357Y-69690655D01*
X137033960Y-69798017D01*
X137033958Y-69798019D01*
X136883237Y-69935418D01*
X136760327Y-70098178D01*
X136669422Y-70280739D01*
X136669417Y-70280752D01*
X136613602Y-70476917D01*
X136594785Y-70679999D01*
X136594785Y-70680000D01*
X135400000Y-70680000D01*
X135400000Y-68140000D01*
X136594785Y-68140000D01*
X136613602Y-68343082D01*
X136669417Y-68539247D01*
X136669422Y-68539260D01*
X136760327Y-68721821D01*
X136883237Y-68884581D01*
X137033958Y-69021980D01*
X137033960Y-69021982D01*
X137083914Y-69052912D01*
X137207363Y-69129348D01*
X137397544Y-69203024D01*
X137598024Y-69240500D01*
X137598026Y-69240500D01*
X137801974Y-69240500D01*
X137801976Y-69240500D01*
X138002456Y-69203024D01*
X138192637Y-69129348D01*
X138366041Y-69021981D01*
X138516764Y-68884579D01*
X138639673Y-68721821D01*
X138730582Y-68539250D01*
X138786397Y-68343083D01*
X138805215Y-68140000D01*
X138786397Y-67936917D01*
X138730582Y-67740750D01*
X138724626Y-67728789D01*
X138686272Y-67651764D01*
X138639673Y-67558179D01*
X138516764Y-67395421D01*
X138516762Y-67395418D01*
X138366041Y-67258019D01*
X138366039Y-67258017D01*
X138192642Y-67150655D01*
X138192635Y-67150651D01*
X138097546Y-67113814D01*
X138002456Y-67076976D01*
X137801976Y-67039500D01*
X137598024Y-67039500D01*
X137397544Y-67076976D01*
X137397541Y-67076976D01*
X137397541Y-67076977D01*
X137207364Y-67150651D01*
X137207357Y-67150655D01*
X137033960Y-67258017D01*
X137033958Y-67258019D01*
X136883237Y-67395418D01*
X136760327Y-67558178D01*
X136669422Y-67740739D01*
X136669417Y-67740752D01*
X136613602Y-67936917D01*
X136594785Y-68139999D01*
X136594785Y-68140000D01*
X135400000Y-68140000D01*
X135400000Y-65600000D01*
X136594785Y-65600000D01*
X136613602Y-65803082D01*
X136669417Y-65999247D01*
X136669422Y-65999260D01*
X136760327Y-66181821D01*
X136883237Y-66344581D01*
X137033958Y-66481980D01*
X137033960Y-66481982D01*
X137133141Y-66543392D01*
X137207363Y-66589348D01*
X137397544Y-66663024D01*
X137598024Y-66700500D01*
X137598026Y-66700500D01*
X137801974Y-66700500D01*
X137801976Y-66700500D01*
X138002456Y-66663024D01*
X138192637Y-66589348D01*
X138366041Y-66481981D01*
X138516764Y-66344579D01*
X138639673Y-66181821D01*
X138730582Y-65999250D01*
X138786397Y-65803083D01*
X138805215Y-65600000D01*
X138800535Y-65549499D01*
X138786397Y-65396917D01*
X138775194Y-65357543D01*
X138730582Y-65200750D01*
X138720624Y-65180752D01*
X138640309Y-65019457D01*
X138639673Y-65018179D01*
X138516764Y-64855421D01*
X138516762Y-64855418D01*
X138366041Y-64718019D01*
X138366039Y-64718017D01*
X138192642Y-64610655D01*
X138192635Y-64610651D01*
X138060086Y-64559302D01*
X138002456Y-64536976D01*
X137801976Y-64499500D01*
X137598024Y-64499500D01*
X137397544Y-64536976D01*
X137397541Y-64536976D01*
X137397541Y-64536977D01*
X137207364Y-64610651D01*
X137207357Y-64610655D01*
X137033960Y-64718017D01*
X137033958Y-64718019D01*
X136883237Y-64855418D01*
X136760327Y-65018178D01*
X136669422Y-65200739D01*
X136669417Y-65200752D01*
X136613602Y-65396917D01*
X136594785Y-65599999D01*
X136594785Y-65600000D01*
X135400000Y-65600000D01*
X135400000Y-63060000D01*
X136594785Y-63060000D01*
X136613602Y-63263082D01*
X136669417Y-63459247D01*
X136669422Y-63459260D01*
X136760327Y-63641821D01*
X136883237Y-63804581D01*
X137033958Y-63941980D01*
X137033960Y-63941982D01*
X137085899Y-63974141D01*
X137207363Y-64049348D01*
X137397544Y-64123024D01*
X137598024Y-64160500D01*
X137598026Y-64160500D01*
X137801974Y-64160500D01*
X137801976Y-64160500D01*
X138002456Y-64123024D01*
X138192637Y-64049348D01*
X138366041Y-63941981D01*
X138516764Y-63804579D01*
X138639673Y-63641821D01*
X138730582Y-63459250D01*
X138786397Y-63263083D01*
X138805215Y-63060000D01*
X138795944Y-62959953D01*
X138786397Y-62856917D01*
X138772958Y-62809685D01*
X138730582Y-62660750D01*
X138718796Y-62637081D01*
X138678084Y-62555320D01*
X138639673Y-62478179D01*
X138578480Y-62397146D01*
X138516762Y-62315418D01*
X138366041Y-62178019D01*
X138366039Y-62178017D01*
X138192642Y-62070655D01*
X138192635Y-62070651D01*
X138097546Y-62033814D01*
X138002456Y-61996976D01*
X137801976Y-61959500D01*
X137598024Y-61959500D01*
X137397544Y-61996976D01*
X137397541Y-61996976D01*
X137397541Y-61996977D01*
X137207364Y-62070651D01*
X137207357Y-62070655D01*
X137033960Y-62178017D01*
X137033958Y-62178019D01*
X136883237Y-62315418D01*
X136760327Y-62478178D01*
X136669422Y-62660739D01*
X136669417Y-62660752D01*
X136613602Y-62856917D01*
X136594785Y-63059999D01*
X136594785Y-63060000D01*
X135400000Y-63060000D01*
X135400000Y-60520000D01*
X136594785Y-60520000D01*
X136613602Y-60723082D01*
X136669417Y-60919247D01*
X136669422Y-60919260D01*
X136760327Y-61101821D01*
X136883237Y-61264581D01*
X137033958Y-61401980D01*
X137033960Y-61401982D01*
X137107854Y-61447735D01*
X137207363Y-61509348D01*
X137397544Y-61583024D01*
X137598024Y-61620500D01*
X137598026Y-61620500D01*
X137801974Y-61620500D01*
X137801976Y-61620500D01*
X138002456Y-61583024D01*
X138192637Y-61509348D01*
X138366041Y-61401981D01*
X138516764Y-61264579D01*
X138639673Y-61101821D01*
X138730582Y-60919250D01*
X138786397Y-60723083D01*
X138805215Y-60520000D01*
X138800894Y-60473373D01*
X138786397Y-60316917D01*
X138753131Y-60200000D01*
X138730582Y-60120750D01*
X138639673Y-59938179D01*
X138548810Y-59817857D01*
X138516762Y-59775418D01*
X138366041Y-59638019D01*
X138366039Y-59638017D01*
X138192642Y-59530655D01*
X138192635Y-59530651D01*
X138097546Y-59493814D01*
X138002456Y-59456976D01*
X137801976Y-59419500D01*
X137598024Y-59419500D01*
X137397544Y-59456976D01*
X137397541Y-59456976D01*
X137397541Y-59456977D01*
X137207364Y-59530651D01*
X137207357Y-59530655D01*
X137033960Y-59638017D01*
X137033958Y-59638019D01*
X136883237Y-59775418D01*
X136760327Y-59938178D01*
X136669422Y-60120739D01*
X136669417Y-60120752D01*
X136613602Y-60316917D01*
X136594785Y-60519999D01*
X136594785Y-60520000D01*
X135400000Y-60520000D01*
X135400000Y-58524500D01*
X135419685Y-58457461D01*
X135472489Y-58411706D01*
X135524000Y-58400500D01*
X162876000Y-58400500D01*
X162943039Y-58420185D01*
G37*
G04 #@! TD.AperFunction*
M02*
