G04 #@! TF.GenerationSoftware,KiCad,Pcbnew,7.0.7*
G04 #@! TF.CreationDate,2024-04-02T17:00:38-04:00*
G04 #@! TF.ProjectId,sensor_node,73656e73-6f72-45f6-9e6f-64652e6b6963,rev?*
G04 #@! TF.SameCoordinates,Original*
G04 #@! TF.FileFunction,Copper,L1,Top*
G04 #@! TF.FilePolarity,Positive*
%FSLAX46Y46*%
G04 Gerber Fmt 4.6, Leading zero omitted, Abs format (unit mm)*
G04 Created by KiCad (PCBNEW 7.0.7) date 2024-04-02 17:00:38*
%MOMM*%
%LPD*%
G01*
G04 APERTURE LIST*
G04 #@! TA.AperFunction,ComponentPad*
%ADD10R,1.700000X1.700000*%
G04 #@! TD*
G04 #@! TA.AperFunction,ComponentPad*
%ADD11O,1.700000X1.700000*%
G04 #@! TD*
G04 #@! TA.AperFunction,SMDPad,CuDef*
%ADD12R,1.050000X0.650000*%
G04 #@! TD*
G04 #@! TA.AperFunction,SMDPad,CuDef*
%ADD13R,2.500000X1.100000*%
G04 #@! TD*
G04 #@! TA.AperFunction,ViaPad*
%ADD14C,0.500000*%
G04 #@! TD*
G04 #@! TA.AperFunction,Conductor*
%ADD15C,0.250000*%
G04 #@! TD*
G04 APERTURE END LIST*
D10*
X137700000Y-80840000D03*
D11*
X137700000Y-78300000D03*
X137700000Y-75760000D03*
X137700000Y-73220000D03*
X137700000Y-70680000D03*
X137700000Y-68140000D03*
X137700000Y-65600000D03*
X137700000Y-63060000D03*
X137700000Y-60520000D03*
D12*
X143450000Y-78625000D03*
X147600000Y-78625000D03*
X143450000Y-80775000D03*
X147600000Y-80775000D03*
D10*
X160700000Y-60500000D03*
D11*
X160700000Y-63040000D03*
X160700000Y-65580000D03*
X160700000Y-68120000D03*
X160700000Y-70660000D03*
X160700000Y-73200000D03*
X160700000Y-75740000D03*
X160700000Y-78280000D03*
X160700000Y-80820000D03*
D12*
X154975000Y-80775000D03*
X150825000Y-80775000D03*
X154975000Y-78625000D03*
X150825000Y-78625000D03*
D13*
X141500000Y-60112500D03*
X141500000Y-62112500D03*
X141500000Y-64112500D03*
X141500000Y-66112500D03*
X141500000Y-68112500D03*
X141500000Y-70112500D03*
X141500000Y-72112500D03*
X141500000Y-74112500D03*
X156900000Y-74112500D03*
X156900000Y-72112500D03*
X156900000Y-70112500D03*
X156900000Y-68112500D03*
X156900000Y-66112500D03*
X156900000Y-64112500D03*
X156900000Y-62112500D03*
X156900000Y-60112500D03*
D14*
X143706233Y-71506233D03*
X154000000Y-65400000D03*
X150800000Y-65500000D03*
X149400000Y-63200000D03*
X154600000Y-63000000D03*
X149800000Y-70900000D03*
X140656250Y-75656250D03*
X147702132Y-70920711D03*
X146100000Y-78625000D03*
X143800000Y-60200000D03*
X143400000Y-62500000D03*
X154800000Y-72100000D03*
X145200000Y-65900000D03*
X152800000Y-68500000D03*
X152200000Y-78625000D03*
X143400000Y-66100000D03*
X143300000Y-69800000D03*
X146600000Y-63200000D03*
D15*
X143706233Y-72992663D02*
X143706233Y-71506233D01*
X142586396Y-74112500D02*
X143706233Y-72992663D01*
X142200000Y-74112500D02*
X142586396Y-74112500D01*
X149800000Y-70900000D02*
X149779289Y-70920711D01*
X149779289Y-70920711D02*
X147702132Y-70920711D01*
X152400000Y-67600000D02*
X154712500Y-67600000D01*
X151012500Y-68987500D02*
X152400000Y-67600000D01*
X139925000Y-68703299D02*
X139925000Y-68987500D01*
X137700000Y-66478299D02*
X139925000Y-68703299D01*
X139925000Y-68987500D02*
X151012500Y-68987500D01*
X154712500Y-67600000D02*
X156200000Y-66112500D01*
X137700000Y-65600000D02*
X137700000Y-66478299D01*
X158475000Y-65237500D02*
X158625000Y-65387500D01*
X158625000Y-65387500D02*
X158625000Y-65600000D01*
X154162500Y-65237500D02*
X158475000Y-65237500D01*
X154000000Y-65400000D02*
X154162500Y-65237500D01*
X158625000Y-68645000D02*
X158625000Y-65600000D01*
X150400000Y-65900000D02*
X150800000Y-65500000D01*
X146200000Y-65900000D02*
X150400000Y-65900000D01*
X146200000Y-65900000D02*
X145200000Y-65900000D01*
X154600000Y-63000000D02*
X155712500Y-64112500D01*
X155712500Y-64112500D02*
X156200000Y-64112500D01*
X136525000Y-61885000D02*
X137700000Y-63060000D01*
X136525000Y-59900000D02*
X136525000Y-61885000D01*
X148800000Y-63200000D02*
X144837500Y-59237500D01*
X149400000Y-63200000D02*
X148800000Y-63200000D01*
X137187500Y-59237500D02*
X136525000Y-59900000D01*
X144837500Y-59237500D02*
X137187500Y-59237500D01*
X154087500Y-70000000D02*
X156200000Y-72112500D01*
X143075000Y-72987500D02*
X143075000Y-71325000D01*
X137932500Y-72987500D02*
X143075000Y-72987500D01*
X144400000Y-70000000D02*
X154087500Y-70000000D01*
X137700000Y-73220000D02*
X137932500Y-72987500D01*
X143075000Y-71325000D02*
X144400000Y-70000000D01*
X140656250Y-75656250D02*
X142200000Y-74112500D01*
X137700000Y-75760000D02*
X140552500Y-75760000D01*
X140552500Y-75760000D02*
X140656250Y-75656250D01*
X143712500Y-60112500D02*
X143800000Y-60200000D01*
X146100000Y-78625000D02*
X147700000Y-78625000D01*
X143550000Y-78625000D02*
X146100000Y-78625000D01*
X143400000Y-62400000D02*
X143400000Y-62500000D01*
X142200000Y-60112500D02*
X143400000Y-61312500D01*
X143400000Y-61312500D02*
X143400000Y-62400000D01*
X142200000Y-60112500D02*
X143712500Y-60112500D01*
X137213299Y-69505000D02*
X141592500Y-69505000D01*
X136525000Y-70193299D02*
X137213299Y-69505000D01*
X137700000Y-80840000D02*
X136525000Y-79665000D01*
X136525000Y-79665000D02*
X136525000Y-70193299D01*
X141592500Y-69505000D02*
X142200000Y-70112500D01*
X154800000Y-72100000D02*
X156187500Y-72100000D01*
X156187500Y-72100000D02*
X156200000Y-72112500D01*
X139132500Y-72112500D02*
X142200000Y-72112500D01*
X137700000Y-70680000D02*
X139132500Y-72112500D01*
X140612500Y-68112500D02*
X142200000Y-68112500D01*
X137700000Y-60520000D02*
X138875000Y-61695000D01*
X138875000Y-61695000D02*
X138875000Y-66375000D01*
X138875000Y-66375000D02*
X140612500Y-68112500D01*
X142200000Y-64112500D02*
X143412500Y-64112500D01*
X160700000Y-70720000D02*
X158625000Y-68645000D01*
X143412500Y-64112500D02*
X145200000Y-65900000D01*
X160415000Y-78625000D02*
X160700000Y-78340000D01*
X153187500Y-68112500D02*
X152800000Y-68500000D01*
X154975000Y-78625000D02*
X152200000Y-78625000D01*
X154975000Y-78625000D02*
X160415000Y-78625000D01*
X156200000Y-68112500D02*
X153187500Y-68112500D01*
X152200000Y-78625000D02*
X150825000Y-78625000D01*
X159100000Y-74200000D02*
X160700000Y-75800000D01*
X159100000Y-71862500D02*
X159100000Y-74200000D01*
X157350000Y-70112500D02*
X159100000Y-71862500D01*
X156200000Y-70112500D02*
X157350000Y-70112500D01*
X159075000Y-66555000D02*
X160700000Y-68180000D01*
X157350000Y-62112500D02*
X159075000Y-63837500D01*
X159075000Y-63837500D02*
X159075000Y-66555000D01*
X156200000Y-62112500D02*
X157350000Y-62112500D01*
X159525000Y-62287500D02*
X159525000Y-64465000D01*
X157350000Y-60112500D02*
X159525000Y-62287500D01*
X156200000Y-60112500D02*
X157350000Y-60112500D01*
X159525000Y-64465000D02*
X160700000Y-65640000D01*
X143400000Y-66100000D02*
X142212500Y-66100000D01*
X143662500Y-69437500D02*
X153511396Y-69437500D01*
X143300000Y-69800000D02*
X143662500Y-69437500D01*
X153511396Y-69437500D02*
X153711396Y-69237500D01*
X158475000Y-69237500D02*
X158475000Y-70175000D01*
X142212500Y-66100000D02*
X142200000Y-66112500D01*
X153711396Y-69237500D02*
X158475000Y-69237500D01*
X158475000Y-70175000D02*
X160700000Y-72400000D01*
X160700000Y-72400000D02*
X160700000Y-73260000D01*
X142200000Y-62113173D02*
X142200000Y-62112500D01*
X143286827Y-63200000D02*
X142200000Y-62113173D01*
X146600000Y-63200000D02*
X143286827Y-63200000D01*
G04 #@! TA.AperFunction,Conductor*
G36*
X162943039Y-58420185D02*
G01*
X162988794Y-58472989D01*
X163000000Y-58524500D01*
X163000000Y-82975500D01*
X162980315Y-83042539D01*
X162927511Y-83088294D01*
X162876000Y-83099500D01*
X135524000Y-83099500D01*
X135456961Y-83079815D01*
X135411206Y-83027011D01*
X135400000Y-82975500D01*
X135400000Y-79649271D01*
X136144633Y-79649271D01*
X136149023Y-79684491D01*
X136149500Y-79692167D01*
X136149500Y-79696116D01*
X136153342Y-79719141D01*
X136160134Y-79773627D01*
X136162373Y-79781147D01*
X136164934Y-79788608D01*
X136164935Y-79788610D01*
X136176185Y-79809399D01*
X136191055Y-79836877D01*
X136215174Y-79886211D01*
X136219742Y-79892609D01*
X136224582Y-79898827D01*
X136264970Y-79936008D01*
X136563181Y-80234218D01*
X136596666Y-80295541D01*
X136599500Y-80321899D01*
X136599500Y-81714678D01*
X136614032Y-81787735D01*
X136614033Y-81787739D01*
X136614034Y-81787740D01*
X136669399Y-81870601D01*
X136752259Y-81925966D01*
X136752260Y-81925966D01*
X136752264Y-81925967D01*
X136825321Y-81940499D01*
X136825324Y-81940500D01*
X136825326Y-81940500D01*
X138574676Y-81940500D01*
X138574677Y-81940499D01*
X138647740Y-81925966D01*
X138730601Y-81870601D01*
X138785966Y-81787740D01*
X138800500Y-81714674D01*
X138800500Y-81025000D01*
X142425000Y-81025000D01*
X142425000Y-81147844D01*
X142431401Y-81207372D01*
X142431403Y-81207379D01*
X142481645Y-81342086D01*
X142481649Y-81342093D01*
X142567809Y-81457187D01*
X142567812Y-81457190D01*
X142682906Y-81543350D01*
X142682913Y-81543354D01*
X142817620Y-81593596D01*
X142817627Y-81593598D01*
X142877155Y-81599999D01*
X142877172Y-81600000D01*
X143200000Y-81600000D01*
X143200000Y-81025000D01*
X143700000Y-81025000D01*
X143700000Y-81600000D01*
X144022828Y-81600000D01*
X144022844Y-81599999D01*
X144082372Y-81593598D01*
X144082379Y-81593596D01*
X144217086Y-81543354D01*
X144217093Y-81543350D01*
X144332187Y-81457190D01*
X144332190Y-81457187D01*
X144418350Y-81342093D01*
X144418354Y-81342086D01*
X144468596Y-81207379D01*
X144468598Y-81207372D01*
X144474999Y-81147844D01*
X144475000Y-81147827D01*
X144475000Y-81025000D01*
X146575000Y-81025000D01*
X146575000Y-81147844D01*
X146581401Y-81207372D01*
X146581403Y-81207379D01*
X146631645Y-81342086D01*
X146631649Y-81342093D01*
X146717809Y-81457187D01*
X146717812Y-81457190D01*
X146832906Y-81543350D01*
X146832913Y-81543354D01*
X146967620Y-81593596D01*
X146967627Y-81593598D01*
X147027155Y-81599999D01*
X147027172Y-81600000D01*
X147350000Y-81600000D01*
X147350000Y-81025000D01*
X147850000Y-81025000D01*
X147850000Y-81600000D01*
X148172828Y-81600000D01*
X148172844Y-81599999D01*
X148232372Y-81593598D01*
X148232379Y-81593596D01*
X148367086Y-81543354D01*
X148367093Y-81543350D01*
X148482187Y-81457190D01*
X148482190Y-81457187D01*
X148568350Y-81342093D01*
X148568354Y-81342086D01*
X148618596Y-81207379D01*
X148618598Y-81207372D01*
X148624999Y-81147844D01*
X148625000Y-81147827D01*
X148625000Y-81025000D01*
X149800000Y-81025000D01*
X149800000Y-81147844D01*
X149806401Y-81207372D01*
X149806403Y-81207379D01*
X149856645Y-81342086D01*
X149856649Y-81342093D01*
X149942809Y-81457187D01*
X149942812Y-81457190D01*
X150057906Y-81543350D01*
X150057913Y-81543354D01*
X150192620Y-81593596D01*
X150192627Y-81593598D01*
X150252155Y-81599999D01*
X150252172Y-81600000D01*
X150575000Y-81600000D01*
X150575000Y-81025000D01*
X151075000Y-81025000D01*
X151075000Y-81600000D01*
X151397828Y-81600000D01*
X151397844Y-81599999D01*
X151457372Y-81593598D01*
X151457379Y-81593596D01*
X151592086Y-81543354D01*
X151592093Y-81543350D01*
X151707187Y-81457190D01*
X151707190Y-81457187D01*
X151793350Y-81342093D01*
X151793354Y-81342086D01*
X151843596Y-81207379D01*
X151843598Y-81207372D01*
X151849999Y-81147844D01*
X151850000Y-81147827D01*
X151850000Y-81025000D01*
X153950000Y-81025000D01*
X153950000Y-81147844D01*
X153956401Y-81207372D01*
X153956403Y-81207379D01*
X154006645Y-81342086D01*
X154006649Y-81342093D01*
X154092809Y-81457187D01*
X154092812Y-81457190D01*
X154207906Y-81543350D01*
X154207913Y-81543354D01*
X154342620Y-81593596D01*
X154342627Y-81593598D01*
X154402155Y-81599999D01*
X154402172Y-81600000D01*
X154725000Y-81600000D01*
X154725000Y-81025000D01*
X155225000Y-81025000D01*
X155225000Y-81600000D01*
X155547828Y-81600000D01*
X155547844Y-81599999D01*
X155607372Y-81593598D01*
X155607379Y-81593596D01*
X155742086Y-81543354D01*
X155742093Y-81543350D01*
X155857187Y-81457190D01*
X155857190Y-81457187D01*
X155943350Y-81342093D01*
X155943354Y-81342086D01*
X155993596Y-81207379D01*
X155993598Y-81207372D01*
X155999999Y-81147844D01*
X156000000Y-81147827D01*
X156000000Y-81025000D01*
X155225000Y-81025000D01*
X154725000Y-81025000D01*
X153950000Y-81025000D01*
X151850000Y-81025000D01*
X151075000Y-81025000D01*
X150575000Y-81025000D01*
X149800000Y-81025000D01*
X148625000Y-81025000D01*
X147850000Y-81025000D01*
X147350000Y-81025000D01*
X146575000Y-81025000D01*
X144475000Y-81025000D01*
X143700000Y-81025000D01*
X143200000Y-81025000D01*
X142425000Y-81025000D01*
X138800500Y-81025000D01*
X138800500Y-80820000D01*
X159594785Y-80820000D01*
X159613602Y-81023082D01*
X159669417Y-81219247D01*
X159669422Y-81219260D01*
X159760327Y-81401821D01*
X159883237Y-81564581D01*
X160033958Y-81701980D01*
X160033960Y-81701982D01*
X160054462Y-81714676D01*
X160207363Y-81809348D01*
X160397544Y-81883024D01*
X160598024Y-81920500D01*
X160598026Y-81920500D01*
X160801974Y-81920500D01*
X160801976Y-81920500D01*
X161002456Y-81883024D01*
X161192637Y-81809348D01*
X161366041Y-81701981D01*
X161516764Y-81564579D01*
X161639673Y-81401821D01*
X161730582Y-81219250D01*
X161786397Y-81023083D01*
X161805215Y-80820000D01*
X161786397Y-80616917D01*
X161730582Y-80420750D01*
X161721331Y-80402172D01*
X161655785Y-80270537D01*
X161639673Y-80238179D01*
X161516764Y-80075421D01*
X161516762Y-80075418D01*
X161366041Y-79938019D01*
X161366039Y-79938017D01*
X161192642Y-79830655D01*
X161192635Y-79830651D01*
X161045435Y-79773626D01*
X161002456Y-79756976D01*
X160801976Y-79719500D01*
X160598024Y-79719500D01*
X160397544Y-79756976D01*
X160397541Y-79756976D01*
X160397541Y-79756977D01*
X160207364Y-79830651D01*
X160207357Y-79830655D01*
X160033960Y-79938017D01*
X160033958Y-79938019D01*
X159883237Y-80075418D01*
X159760327Y-80238178D01*
X159669422Y-80420739D01*
X159669417Y-80420752D01*
X159613602Y-80616917D01*
X159594785Y-80819999D01*
X159594785Y-80820000D01*
X138800500Y-80820000D01*
X138800500Y-80525000D01*
X142425000Y-80525000D01*
X143200000Y-80525000D01*
X143200000Y-79950000D01*
X143700000Y-79950000D01*
X143700000Y-80525000D01*
X144475000Y-80525000D01*
X146575000Y-80525000D01*
X147350000Y-80525000D01*
X147350000Y-79950000D01*
X147850000Y-79950000D01*
X147850000Y-80525000D01*
X148625000Y-80525000D01*
X149800000Y-80525000D01*
X150575000Y-80525000D01*
X150575000Y-79950000D01*
X151075000Y-79950000D01*
X151075000Y-80525000D01*
X151850000Y-80525000D01*
X153950000Y-80525000D01*
X154725000Y-80525000D01*
X154725000Y-79950000D01*
X155225000Y-79950000D01*
X155225000Y-80525000D01*
X156000000Y-80525000D01*
X156000000Y-80402172D01*
X155999999Y-80402155D01*
X155993598Y-80342627D01*
X155993596Y-80342620D01*
X155943354Y-80207913D01*
X155943350Y-80207906D01*
X155857190Y-80092812D01*
X155857187Y-80092809D01*
X155742093Y-80006649D01*
X155742086Y-80006645D01*
X155607379Y-79956403D01*
X155607372Y-79956401D01*
X155547844Y-79950000D01*
X155225000Y-79950000D01*
X154725000Y-79950000D01*
X154402155Y-79950000D01*
X154342627Y-79956401D01*
X154342620Y-79956403D01*
X154207913Y-80006645D01*
X154207906Y-80006649D01*
X154092812Y-80092809D01*
X154092809Y-80092812D01*
X154006649Y-80207906D01*
X154006645Y-80207913D01*
X153956403Y-80342620D01*
X153956401Y-80342627D01*
X153950000Y-80402155D01*
X153950000Y-80525000D01*
X151850000Y-80525000D01*
X151850000Y-80402172D01*
X151849999Y-80402155D01*
X151843598Y-80342627D01*
X151843596Y-80342620D01*
X151793354Y-80207913D01*
X151793350Y-80207906D01*
X151707190Y-80092812D01*
X151707187Y-80092809D01*
X151592093Y-80006649D01*
X151592086Y-80006645D01*
X151457379Y-79956403D01*
X151457372Y-79956401D01*
X151397844Y-79950000D01*
X151075000Y-79950000D01*
X150575000Y-79950000D01*
X150252155Y-79950000D01*
X150192627Y-79956401D01*
X150192620Y-79956403D01*
X150057913Y-80006645D01*
X150057906Y-80006649D01*
X149942812Y-80092809D01*
X149942809Y-80092812D01*
X149856649Y-80207906D01*
X149856645Y-80207913D01*
X149806403Y-80342620D01*
X149806401Y-80342627D01*
X149800000Y-80402155D01*
X149800000Y-80525000D01*
X148625000Y-80525000D01*
X148625000Y-80402172D01*
X148624999Y-80402155D01*
X148618598Y-80342627D01*
X148618596Y-80342620D01*
X148568354Y-80207913D01*
X148568350Y-80207906D01*
X148482190Y-80092812D01*
X148482187Y-80092809D01*
X148367093Y-80006649D01*
X148367086Y-80006645D01*
X148232379Y-79956403D01*
X148232372Y-79956401D01*
X148172844Y-79950000D01*
X147850000Y-79950000D01*
X147350000Y-79950000D01*
X147027155Y-79950000D01*
X146967627Y-79956401D01*
X146967620Y-79956403D01*
X146832913Y-80006645D01*
X146832906Y-80006649D01*
X146717812Y-80092809D01*
X146717809Y-80092812D01*
X146631649Y-80207906D01*
X146631645Y-80207913D01*
X146581403Y-80342620D01*
X146581401Y-80342627D01*
X146575000Y-80402155D01*
X146575000Y-80525000D01*
X144475000Y-80525000D01*
X144475000Y-80402172D01*
X144474999Y-80402155D01*
X144468598Y-80342627D01*
X144468596Y-80342620D01*
X144418354Y-80207913D01*
X144418350Y-80207906D01*
X144332190Y-80092812D01*
X144332187Y-80092809D01*
X144217093Y-80006649D01*
X144217086Y-80006645D01*
X144082379Y-79956403D01*
X144082372Y-79956401D01*
X144022844Y-79950000D01*
X143700000Y-79950000D01*
X143200000Y-79950000D01*
X142877155Y-79950000D01*
X142817627Y-79956401D01*
X142817620Y-79956403D01*
X142682913Y-80006645D01*
X142682906Y-80006649D01*
X142567812Y-80092809D01*
X142567809Y-80092812D01*
X142481649Y-80207906D01*
X142481645Y-80207913D01*
X142431403Y-80342620D01*
X142431401Y-80342627D01*
X142425000Y-80402155D01*
X142425000Y-80525000D01*
X138800500Y-80525000D01*
X138800500Y-79965326D01*
X138800500Y-79965323D01*
X138800499Y-79965321D01*
X138785967Y-79892264D01*
X138785966Y-79892260D01*
X138781924Y-79886211D01*
X138730601Y-79809399D01*
X138652145Y-79756977D01*
X138647739Y-79754033D01*
X138647735Y-79754032D01*
X138574677Y-79739500D01*
X138574674Y-79739500D01*
X138366682Y-79739500D01*
X138299643Y-79719815D01*
X138253888Y-79667011D01*
X138243944Y-79597853D01*
X138272969Y-79534297D01*
X138314277Y-79503118D01*
X138377578Y-79473600D01*
X138571082Y-79338105D01*
X138738105Y-79171082D01*
X138873600Y-78977578D01*
X138874952Y-78974678D01*
X142674500Y-78974678D01*
X142689032Y-79047735D01*
X142689033Y-79047739D01*
X142689034Y-79047740D01*
X142744399Y-79130601D01*
X142827260Y-79185966D01*
X142827264Y-79185967D01*
X142900321Y-79200499D01*
X142900324Y-79200500D01*
X142900326Y-79200500D01*
X143999676Y-79200500D01*
X143999677Y-79200499D01*
X144072740Y-79185966D01*
X144155601Y-79130601D01*
X144186101Y-79084954D01*
X144205709Y-79055609D01*
X144259321Y-79010804D01*
X144308811Y-79000500D01*
X145722126Y-79000500D01*
X145789165Y-79020185D01*
X145789166Y-79020185D01*
X145889947Y-79084953D01*
X145889948Y-79084953D01*
X145889949Y-79084954D01*
X146028036Y-79125499D01*
X146028038Y-79125500D01*
X146028039Y-79125500D01*
X146171962Y-79125500D01*
X146171962Y-79125499D01*
X146310053Y-79084953D01*
X146410834Y-79020184D01*
X146477874Y-79000500D01*
X146741189Y-79000500D01*
X146808228Y-79020185D01*
X146844291Y-79055609D01*
X146894398Y-79130600D01*
X146894399Y-79130601D01*
X146941365Y-79161982D01*
X146977260Y-79185966D01*
X146977264Y-79185967D01*
X147050321Y-79200499D01*
X147050324Y-79200500D01*
X147050326Y-79200500D01*
X148149676Y-79200500D01*
X148149677Y-79200499D01*
X148222740Y-79185966D01*
X148305601Y-79130601D01*
X148360966Y-79047740D01*
X148375499Y-78974678D01*
X150049500Y-78974678D01*
X150064032Y-79047735D01*
X150064033Y-79047739D01*
X150064034Y-79047740D01*
X150119399Y-79130601D01*
X150202259Y-79185966D01*
X150202260Y-79185966D01*
X150202264Y-79185967D01*
X150275321Y-79200499D01*
X150275324Y-79200500D01*
X150275326Y-79200500D01*
X151374676Y-79200500D01*
X151374677Y-79200499D01*
X151447740Y-79185966D01*
X151530601Y-79130601D01*
X151561101Y-79084954D01*
X151580709Y-79055609D01*
X151634321Y-79010804D01*
X151683811Y-79000500D01*
X151822126Y-79000500D01*
X151889165Y-79020185D01*
X151889166Y-79020185D01*
X151989947Y-79084953D01*
X151989948Y-79084953D01*
X151989949Y-79084954D01*
X152128036Y-79125499D01*
X152128038Y-79125500D01*
X152128039Y-79125500D01*
X152271962Y-79125500D01*
X152271962Y-79125499D01*
X152410053Y-79084953D01*
X152510834Y-79020184D01*
X152577874Y-79000500D01*
X154116189Y-79000500D01*
X154183228Y-79020185D01*
X154219291Y-79055609D01*
X154269398Y-79130600D01*
X154269399Y-79130601D01*
X154316365Y-79161982D01*
X154352260Y-79185966D01*
X154352264Y-79185967D01*
X154425321Y-79200499D01*
X154425324Y-79200500D01*
X154425326Y-79200500D01*
X155524676Y-79200500D01*
X155524677Y-79200499D01*
X155597740Y-79185966D01*
X155680601Y-79130601D01*
X155711101Y-79084954D01*
X155730709Y-79055609D01*
X155784321Y-79010804D01*
X155833811Y-79000500D01*
X159808785Y-79000500D01*
X159875824Y-79020185D01*
X159892323Y-79032863D01*
X160033958Y-79161980D01*
X160033960Y-79161982D01*
X160096168Y-79200499D01*
X160207363Y-79269348D01*
X160397544Y-79343024D01*
X160598024Y-79380500D01*
X160598026Y-79380500D01*
X160801974Y-79380500D01*
X160801976Y-79380500D01*
X161002456Y-79343024D01*
X161192637Y-79269348D01*
X161366041Y-79161981D01*
X161516764Y-79024579D01*
X161639673Y-78861821D01*
X161730582Y-78679250D01*
X161786397Y-78483083D01*
X161805215Y-78280000D01*
X161804781Y-78275321D01*
X161786397Y-78076917D01*
X161755749Y-77969202D01*
X161730582Y-77880750D01*
X161639673Y-77698179D01*
X161516764Y-77535421D01*
X161516762Y-77535418D01*
X161366041Y-77398019D01*
X161366039Y-77398017D01*
X161192642Y-77290655D01*
X161192635Y-77290651D01*
X161097546Y-77253814D01*
X161002456Y-77216976D01*
X160801976Y-77179500D01*
X160598024Y-77179500D01*
X160397544Y-77216976D01*
X160397541Y-77216976D01*
X160397541Y-77216977D01*
X160207364Y-77290651D01*
X160207357Y-77290655D01*
X160033960Y-77398017D01*
X160033958Y-77398019D01*
X159883237Y-77535418D01*
X159760327Y-77698178D01*
X159669422Y-77880739D01*
X159669417Y-77880752D01*
X159613602Y-78076917D01*
X159608041Y-78136941D01*
X159582255Y-78201878D01*
X159525454Y-78242566D01*
X159484570Y-78249500D01*
X155833811Y-78249500D01*
X155766772Y-78229815D01*
X155730709Y-78194391D01*
X155680601Y-78119399D01*
X155597739Y-78064033D01*
X155597735Y-78064032D01*
X155524677Y-78049500D01*
X155524674Y-78049500D01*
X154425326Y-78049500D01*
X154425323Y-78049500D01*
X154352264Y-78064032D01*
X154352260Y-78064033D01*
X154269398Y-78119399D01*
X154219291Y-78194391D01*
X154165679Y-78239196D01*
X154116189Y-78249500D01*
X152577874Y-78249500D01*
X152510835Y-78229815D01*
X152510834Y-78229815D01*
X152467964Y-78202264D01*
X152410053Y-78165047D01*
X152410052Y-78165046D01*
X152410051Y-78165046D01*
X152410050Y-78165045D01*
X152271963Y-78124500D01*
X152271961Y-78124500D01*
X152128039Y-78124500D01*
X152128036Y-78124500D01*
X151989949Y-78165045D01*
X151989948Y-78165046D01*
X151889166Y-78229815D01*
X151822126Y-78249500D01*
X151683811Y-78249500D01*
X151616772Y-78229815D01*
X151580709Y-78194391D01*
X151530601Y-78119399D01*
X151447739Y-78064033D01*
X151447735Y-78064032D01*
X151374677Y-78049500D01*
X151374674Y-78049500D01*
X150275326Y-78049500D01*
X150275323Y-78049500D01*
X150202264Y-78064032D01*
X150202260Y-78064033D01*
X150119399Y-78119399D01*
X150064033Y-78202260D01*
X150064032Y-78202264D01*
X150049500Y-78275321D01*
X150049500Y-78974678D01*
X148375499Y-78974678D01*
X148375500Y-78974674D01*
X148375500Y-78275326D01*
X148375500Y-78275323D01*
X148375499Y-78275321D01*
X148360967Y-78202264D01*
X148360966Y-78202260D01*
X148336101Y-78165047D01*
X148305601Y-78119399D01*
X148222740Y-78064034D01*
X148222739Y-78064033D01*
X148222735Y-78064032D01*
X148149677Y-78049500D01*
X148149674Y-78049500D01*
X147050326Y-78049500D01*
X147050323Y-78049500D01*
X146977264Y-78064032D01*
X146977260Y-78064033D01*
X146894398Y-78119399D01*
X146844291Y-78194391D01*
X146790679Y-78239196D01*
X146741189Y-78249500D01*
X146477874Y-78249500D01*
X146410835Y-78229815D01*
X146410834Y-78229815D01*
X146367964Y-78202264D01*
X146310053Y-78165047D01*
X146310052Y-78165046D01*
X146310051Y-78165046D01*
X146310050Y-78165045D01*
X146171963Y-78124500D01*
X146171961Y-78124500D01*
X146028039Y-78124500D01*
X146028036Y-78124500D01*
X145889949Y-78165045D01*
X145889948Y-78165046D01*
X145789166Y-78229815D01*
X145722126Y-78249500D01*
X144308811Y-78249500D01*
X144241772Y-78229815D01*
X144205709Y-78194391D01*
X144155601Y-78119399D01*
X144072739Y-78064033D01*
X144072735Y-78064032D01*
X143999677Y-78049500D01*
X143999674Y-78049500D01*
X142900326Y-78049500D01*
X142900323Y-78049500D01*
X142827264Y-78064032D01*
X142827260Y-78064033D01*
X142744399Y-78119399D01*
X142689033Y-78202260D01*
X142689032Y-78202264D01*
X142674500Y-78275321D01*
X142674500Y-78974678D01*
X138874952Y-78974678D01*
X138973429Y-78763492D01*
X138973432Y-78763486D01*
X139030636Y-78550000D01*
X138313347Y-78550000D01*
X138246308Y-78530315D01*
X138200553Y-78477511D01*
X138190609Y-78408353D01*
X138194369Y-78391067D01*
X138200000Y-78371888D01*
X138200000Y-78228111D01*
X138194369Y-78208933D01*
X138194370Y-78139064D01*
X138232145Y-78080286D01*
X138295701Y-78051262D01*
X138313347Y-78050000D01*
X139030636Y-78050000D01*
X139030635Y-78049999D01*
X138973432Y-77836513D01*
X138973429Y-77836507D01*
X138873600Y-77622422D01*
X138873599Y-77622420D01*
X138738113Y-77428926D01*
X138738108Y-77428920D01*
X138571082Y-77261894D01*
X138377578Y-77126399D01*
X138163492Y-77026570D01*
X138163477Y-77026564D01*
X138124414Y-77016097D01*
X138064754Y-76979732D01*
X138034226Y-76916885D01*
X138042521Y-76847509D01*
X138087007Y-76793632D01*
X138111710Y-76780698D01*
X138192637Y-76749348D01*
X138366041Y-76641981D01*
X138516764Y-76504579D01*
X138639673Y-76341821D01*
X138708186Y-76204226D01*
X138755687Y-76152992D01*
X138819185Y-76135500D01*
X140494090Y-76135500D01*
X140529023Y-76140522D01*
X140556122Y-76148479D01*
X140584288Y-76156750D01*
X140584289Y-76156750D01*
X140728212Y-76156750D01*
X140728212Y-76156749D01*
X140866303Y-76116203D01*
X140987378Y-76038393D01*
X141081627Y-75929623D01*
X141141415Y-75798707D01*
X141151759Y-75726752D01*
X141180783Y-75663199D01*
X141186801Y-75656734D01*
X141894217Y-74949319D01*
X141955541Y-74915834D01*
X141981899Y-74913000D01*
X142376000Y-74913000D01*
X142443039Y-74932685D01*
X142488794Y-74985489D01*
X142500000Y-75036999D01*
X142500000Y-77000000D01*
X155900000Y-77000000D01*
X155900000Y-75286500D01*
X155919685Y-75219461D01*
X155972489Y-75173706D01*
X156024000Y-75162500D01*
X156650000Y-75162500D01*
X156650000Y-73986500D01*
X156669685Y-73919461D01*
X156722489Y-73873706D01*
X156774000Y-73862500D01*
X157026000Y-73862500D01*
X157093039Y-73882185D01*
X157138794Y-73934989D01*
X157150000Y-73986500D01*
X157150000Y-75162500D01*
X158197828Y-75162500D01*
X158197844Y-75162499D01*
X158257372Y-75156098D01*
X158257379Y-75156096D01*
X158392086Y-75105854D01*
X158392093Y-75105850D01*
X158507187Y-75019690D01*
X158507190Y-75019687D01*
X158593350Y-74904593D01*
X158593354Y-74904586D01*
X158643596Y-74769879D01*
X158643598Y-74769872D01*
X158649999Y-74710344D01*
X158650000Y-74710327D01*
X158650000Y-74580399D01*
X158669685Y-74513360D01*
X158722489Y-74467605D01*
X158791647Y-74457661D01*
X158855203Y-74486686D01*
X158861681Y-74492718D01*
X159626815Y-75257852D01*
X159660300Y-75319175D01*
X159658401Y-75379466D01*
X159613602Y-75536919D01*
X159594785Y-75739999D01*
X159594785Y-75740000D01*
X159613602Y-75943082D01*
X159669417Y-76139247D01*
X159669422Y-76139260D01*
X159760327Y-76321821D01*
X159883237Y-76484581D01*
X160033958Y-76621980D01*
X160033960Y-76621982D01*
X160094120Y-76659231D01*
X160207363Y-76729348D01*
X160397544Y-76803024D01*
X160598024Y-76840500D01*
X160598026Y-76840500D01*
X160801974Y-76840500D01*
X160801976Y-76840500D01*
X161002456Y-76803024D01*
X161192637Y-76729348D01*
X161366041Y-76621981D01*
X161516764Y-76484579D01*
X161639673Y-76321821D01*
X161730582Y-76139250D01*
X161786397Y-75943083D01*
X161805215Y-75740000D01*
X161798098Y-75663199D01*
X161786397Y-75536917D01*
X161742568Y-75382877D01*
X161730582Y-75340750D01*
X161697397Y-75274106D01*
X161686272Y-75251764D01*
X161639673Y-75158179D01*
X161516764Y-74995421D01*
X161516762Y-74995418D01*
X161366041Y-74858019D01*
X161366039Y-74858017D01*
X161192642Y-74750655D01*
X161192635Y-74750651D01*
X161066496Y-74701785D01*
X161002456Y-74676976D01*
X160801976Y-74639500D01*
X160598024Y-74639500D01*
X160397544Y-74676976D01*
X160397539Y-74676977D01*
X160264199Y-74728633D01*
X160194576Y-74734495D01*
X160132836Y-74701785D01*
X160131725Y-74700687D01*
X159511819Y-74080781D01*
X159478334Y-74019458D01*
X159475500Y-73993100D01*
X159475500Y-73737026D01*
X159495185Y-73669987D01*
X159547989Y-73624232D01*
X159617147Y-73614288D01*
X159680703Y-73643313D01*
X159710500Y-73681755D01*
X159760327Y-73781821D01*
X159821253Y-73862500D01*
X159883237Y-73944581D01*
X160033958Y-74081980D01*
X160033960Y-74081982D01*
X160094120Y-74119231D01*
X160207363Y-74189348D01*
X160397544Y-74263024D01*
X160598024Y-74300500D01*
X160598026Y-74300500D01*
X160801974Y-74300500D01*
X160801976Y-74300500D01*
X161002456Y-74263024D01*
X161192637Y-74189348D01*
X161366041Y-74081981D01*
X161516764Y-73944579D01*
X161639673Y-73781821D01*
X161730582Y-73599250D01*
X161786397Y-73403083D01*
X161805215Y-73200000D01*
X161786397Y-72996917D01*
X161730582Y-72800750D01*
X161715012Y-72769482D01*
X161668464Y-72676000D01*
X161639673Y-72618179D01*
X161543079Y-72490268D01*
X161516762Y-72455418D01*
X161366041Y-72318019D01*
X161366039Y-72318017D01*
X161192642Y-72210655D01*
X161192641Y-72210654D01*
X161192637Y-72210652D01*
X161002456Y-72136976D01*
X161002452Y-72136975D01*
X161002447Y-72136974D01*
X160997836Y-72136112D01*
X160935555Y-72104443D01*
X160932942Y-72101905D01*
X160791022Y-71959985D01*
X160757537Y-71898662D01*
X160762521Y-71828970D01*
X160804393Y-71773037D01*
X160855913Y-71750417D01*
X161002456Y-71723024D01*
X161192637Y-71649348D01*
X161366041Y-71541981D01*
X161516764Y-71404579D01*
X161639673Y-71241821D01*
X161730582Y-71059250D01*
X161786397Y-70863083D01*
X161805215Y-70660000D01*
X161794578Y-70545211D01*
X161786397Y-70456917D01*
X161783856Y-70447988D01*
X161730582Y-70260750D01*
X161730185Y-70259953D01*
X161665794Y-70130637D01*
X161639673Y-70078179D01*
X161542716Y-69949787D01*
X161516762Y-69915418D01*
X161366041Y-69778019D01*
X161366039Y-69778017D01*
X161192642Y-69670655D01*
X161192635Y-69670651D01*
X161066493Y-69621784D01*
X161002456Y-69596976D01*
X160801976Y-69559500D01*
X160598024Y-69559500D01*
X160446739Y-69587779D01*
X160397538Y-69596977D01*
X160264198Y-69648633D01*
X160194575Y-69654495D01*
X160132835Y-69621784D01*
X160131724Y-69620687D01*
X159591961Y-69080924D01*
X159036819Y-68525781D01*
X159003334Y-68464458D01*
X159000500Y-68438100D01*
X159000500Y-67310898D01*
X159020185Y-67243859D01*
X159072989Y-67198104D01*
X159142147Y-67188160D01*
X159205703Y-67217185D01*
X159212176Y-67223212D01*
X159453723Y-67464760D01*
X159626815Y-67637852D01*
X159660300Y-67699175D01*
X159658401Y-67759466D01*
X159613602Y-67916919D01*
X159594785Y-68119999D01*
X159594785Y-68120000D01*
X159613602Y-68323082D01*
X159669417Y-68519247D01*
X159669422Y-68519260D01*
X159760327Y-68701821D01*
X159883237Y-68864581D01*
X160007069Y-68977468D01*
X160032334Y-69000500D01*
X160033958Y-69001980D01*
X160033960Y-69001982D01*
X160066260Y-69021981D01*
X160207363Y-69109348D01*
X160397544Y-69183024D01*
X160598024Y-69220500D01*
X160598026Y-69220500D01*
X160801974Y-69220500D01*
X160801976Y-69220500D01*
X161002456Y-69183024D01*
X161192637Y-69109348D01*
X161366041Y-69001981D01*
X161516764Y-68864579D01*
X161639673Y-68701821D01*
X161730582Y-68519250D01*
X161786397Y-68323083D01*
X161805215Y-68120000D01*
X161805016Y-68117857D01*
X161786397Y-67916917D01*
X161730582Y-67720750D01*
X161639673Y-67538179D01*
X161516764Y-67375421D01*
X161516762Y-67375418D01*
X161366041Y-67238019D01*
X161366039Y-67238017D01*
X161192642Y-67130655D01*
X161192635Y-67130651D01*
X161066496Y-67081785D01*
X161002456Y-67056976D01*
X160801976Y-67019500D01*
X160598024Y-67019500D01*
X160397544Y-67056976D01*
X160397539Y-67056977D01*
X160264199Y-67108633D01*
X160194576Y-67114495D01*
X160132836Y-67081785D01*
X160131725Y-67080687D01*
X159486819Y-66435780D01*
X159453334Y-66374457D01*
X159450500Y-66348099D01*
X159450500Y-66066820D01*
X159470185Y-65999781D01*
X159522989Y-65954026D01*
X159592147Y-65944082D01*
X159655703Y-65973107D01*
X159685500Y-66011548D01*
X159760327Y-66161821D01*
X159883237Y-66324581D01*
X160033958Y-66461980D01*
X160033960Y-66461982D01*
X160068917Y-66483626D01*
X160207363Y-66569348D01*
X160397544Y-66643024D01*
X160598024Y-66680500D01*
X160598026Y-66680500D01*
X160801974Y-66680500D01*
X160801976Y-66680500D01*
X161002456Y-66643024D01*
X161192637Y-66569348D01*
X161366041Y-66461981D01*
X161516764Y-66324579D01*
X161639673Y-66161821D01*
X161730582Y-65979250D01*
X161786397Y-65783083D01*
X161805215Y-65580000D01*
X161786397Y-65376917D01*
X161730582Y-65180750D01*
X161639673Y-64998179D01*
X161562126Y-64895490D01*
X161516762Y-64835418D01*
X161366041Y-64698019D01*
X161366039Y-64698017D01*
X161192642Y-64590655D01*
X161192635Y-64590651D01*
X161111715Y-64559303D01*
X161056313Y-64516730D01*
X161032723Y-64450963D01*
X161048434Y-64382883D01*
X161098458Y-64334104D01*
X161124417Y-64323901D01*
X161163481Y-64313434D01*
X161163492Y-64313429D01*
X161377578Y-64213600D01*
X161571082Y-64078105D01*
X161738105Y-63911082D01*
X161873600Y-63717578D01*
X161973429Y-63503492D01*
X161973432Y-63503486D01*
X162030636Y-63290000D01*
X161313347Y-63290000D01*
X161246308Y-63270315D01*
X161200553Y-63217511D01*
X161190609Y-63148353D01*
X161194369Y-63131067D01*
X161200000Y-63111888D01*
X161200000Y-62968111D01*
X161194369Y-62948933D01*
X161194370Y-62879064D01*
X161232145Y-62820286D01*
X161295701Y-62791262D01*
X161313347Y-62790000D01*
X162030636Y-62790000D01*
X162030635Y-62789999D01*
X161973432Y-62576513D01*
X161973429Y-62576507D01*
X161873600Y-62362422D01*
X161873599Y-62362420D01*
X161738113Y-62168926D01*
X161738108Y-62168920D01*
X161571082Y-62001894D01*
X161377578Y-61866399D01*
X161314277Y-61836882D01*
X161261838Y-61790710D01*
X161242686Y-61723516D01*
X161262902Y-61656635D01*
X161316067Y-61611300D01*
X161366682Y-61600500D01*
X161574676Y-61600500D01*
X161574677Y-61600499D01*
X161647740Y-61585966D01*
X161730601Y-61530601D01*
X161785966Y-61447740D01*
X161800500Y-61374674D01*
X161800500Y-59625326D01*
X161800500Y-59625323D01*
X161800499Y-59625321D01*
X161785967Y-59552264D01*
X161785966Y-59552260D01*
X161776322Y-59537826D01*
X161730601Y-59469399D01*
X161647740Y-59414034D01*
X161647739Y-59414033D01*
X161647735Y-59414032D01*
X161574677Y-59399500D01*
X161574674Y-59399500D01*
X159825326Y-59399500D01*
X159825323Y-59399500D01*
X159752264Y-59414032D01*
X159752260Y-59414033D01*
X159669399Y-59469399D01*
X159614033Y-59552260D01*
X159614032Y-59552264D01*
X159599500Y-59625321D01*
X159599499Y-59625323D01*
X159599499Y-61374676D01*
X159599500Y-61374678D01*
X159614032Y-61447735D01*
X159614033Y-61447739D01*
X159614034Y-61447740D01*
X159669399Y-61530601D01*
X159741595Y-61578840D01*
X159752260Y-61585966D01*
X159752264Y-61585967D01*
X159825321Y-61600499D01*
X159825324Y-61600500D01*
X160033318Y-61600500D01*
X160100357Y-61620185D01*
X160146112Y-61672989D01*
X160156056Y-61742147D01*
X160127031Y-61805703D01*
X160085723Y-61836882D01*
X160022422Y-61866399D01*
X160022420Y-61866400D01*
X159879748Y-61966300D01*
X159813542Y-61988627D01*
X159745774Y-61971617D01*
X159720944Y-61952406D01*
X159080538Y-61312000D01*
X158436819Y-60668280D01*
X158403334Y-60606957D01*
X158400500Y-60580599D01*
X158400500Y-59537823D01*
X158400499Y-59537821D01*
X158385967Y-59464764D01*
X158385966Y-59464760D01*
X158385966Y-59464759D01*
X158330601Y-59381899D01*
X158247740Y-59326534D01*
X158247739Y-59326533D01*
X158247735Y-59326532D01*
X158174677Y-59312000D01*
X158174674Y-59312000D01*
X155625326Y-59312000D01*
X155625323Y-59312000D01*
X155552264Y-59326532D01*
X155552260Y-59326533D01*
X155469399Y-59381899D01*
X155414033Y-59464760D01*
X155414032Y-59464764D01*
X155399500Y-59537821D01*
X155399500Y-60687178D01*
X155414032Y-60760235D01*
X155414033Y-60760239D01*
X155414034Y-60760240D01*
X155469399Y-60843101D01*
X155552260Y-60898466D01*
X155552264Y-60898467D01*
X155625321Y-60912999D01*
X155625324Y-60913000D01*
X155625326Y-60913000D01*
X157568101Y-60913000D01*
X157635140Y-60932685D01*
X157655782Y-60949319D01*
X157806782Y-61100319D01*
X157840267Y-61161642D01*
X157835283Y-61231334D01*
X157793411Y-61287267D01*
X157727947Y-61311684D01*
X157719101Y-61312000D01*
X155625323Y-61312000D01*
X155552264Y-61326532D01*
X155552260Y-61326533D01*
X155469399Y-61381899D01*
X155414033Y-61464760D01*
X155414032Y-61464764D01*
X155399500Y-61537821D01*
X155399500Y-62687178D01*
X155414032Y-62760235D01*
X155414033Y-62760239D01*
X155414034Y-62760240D01*
X155469399Y-62843101D01*
X155552259Y-62898466D01*
X155552260Y-62898466D01*
X155552264Y-62898467D01*
X155625321Y-62912999D01*
X155625324Y-62913000D01*
X155625326Y-62913000D01*
X157568101Y-62913000D01*
X157635140Y-62932685D01*
X157655782Y-62949319D01*
X157806782Y-63100319D01*
X157840267Y-63161642D01*
X157835283Y-63231334D01*
X157793411Y-63287267D01*
X157727947Y-63311684D01*
X157719101Y-63312000D01*
X155625324Y-63312000D01*
X155540283Y-63328916D01*
X155539497Y-63324968D01*
X155492330Y-63330019D01*
X155429864Y-63298718D01*
X155426718Y-63295680D01*
X155130566Y-62999528D01*
X155097081Y-62938205D01*
X155095509Y-62929492D01*
X155095097Y-62926628D01*
X155085165Y-62857543D01*
X155025377Y-62726627D01*
X154931128Y-62617857D01*
X154810053Y-62540047D01*
X154810051Y-62540046D01*
X154810049Y-62540045D01*
X154810050Y-62540045D01*
X154671963Y-62499500D01*
X154671961Y-62499500D01*
X154528039Y-62499500D01*
X154528036Y-62499500D01*
X154389949Y-62540045D01*
X154268873Y-62617856D01*
X154174623Y-62726626D01*
X154174622Y-62726628D01*
X154114834Y-62857543D01*
X154094353Y-63000000D01*
X154114834Y-63142456D01*
X154169923Y-63263082D01*
X154174623Y-63273373D01*
X154268872Y-63382143D01*
X154389947Y-63459953D01*
X154389950Y-63459954D01*
X154389949Y-63459954D01*
X154528037Y-63500500D01*
X154535564Y-63501582D01*
X154599120Y-63530604D01*
X154605602Y-63536639D01*
X155363181Y-64294218D01*
X155396666Y-64355541D01*
X155399500Y-64381899D01*
X155399500Y-64687174D01*
X155399501Y-64687178D01*
X155404798Y-64713810D01*
X155398569Y-64783402D01*
X155355706Y-64838578D01*
X155289816Y-64861822D01*
X155283180Y-64862000D01*
X154214303Y-64862000D01*
X154188858Y-64859361D01*
X154178232Y-64857133D01*
X154178229Y-64857133D01*
X154143007Y-64861523D01*
X154135331Y-64862000D01*
X154131386Y-64862000D01*
X154114115Y-64864881D01*
X154108358Y-64865842D01*
X154053870Y-64872634D01*
X154046343Y-64874875D01*
X154038892Y-64877433D01*
X154029100Y-64882732D01*
X154025734Y-64884554D01*
X153966717Y-64899500D01*
X153928036Y-64899500D01*
X153789949Y-64940045D01*
X153668873Y-65017856D01*
X153574623Y-65126626D01*
X153574622Y-65126628D01*
X153514834Y-65257543D01*
X153494353Y-65399999D01*
X153514834Y-65542456D01*
X153560504Y-65642457D01*
X153574623Y-65673373D01*
X153668872Y-65782143D01*
X153789947Y-65859953D01*
X153789950Y-65859954D01*
X153789949Y-65859954D01*
X153865520Y-65882143D01*
X153927933Y-65900469D01*
X153928036Y-65900499D01*
X153928038Y-65900500D01*
X153928039Y-65900500D01*
X154071962Y-65900500D01*
X154071962Y-65900499D01*
X154210053Y-65859953D01*
X154331128Y-65782143D01*
X154425377Y-65673373D01*
X154425377Y-65673371D01*
X154427572Y-65669958D01*
X154430637Y-65667301D01*
X154431185Y-65666670D01*
X154431275Y-65666748D01*
X154480377Y-65624204D01*
X154531886Y-65613000D01*
X155275500Y-65613000D01*
X155342539Y-65632685D01*
X155388294Y-65685489D01*
X155399500Y-65737000D01*
X155399500Y-66330600D01*
X155379815Y-66397639D01*
X155363181Y-66418281D01*
X154593281Y-67188181D01*
X154531958Y-67221666D01*
X154505600Y-67224500D01*
X152451804Y-67224500D01*
X152426357Y-67221861D01*
X152423713Y-67221306D01*
X152415729Y-67219632D01*
X152380509Y-67224023D01*
X152372832Y-67224500D01*
X152368886Y-67224500D01*
X152351606Y-67227383D01*
X152345846Y-67228344D01*
X152291368Y-67235135D01*
X152283844Y-67237375D01*
X152276392Y-67239934D01*
X152276390Y-67239934D01*
X152276390Y-67239935D01*
X152228119Y-67266057D01*
X152178790Y-67290172D01*
X152172398Y-67294735D01*
X152166174Y-67299580D01*
X152141363Y-67326532D01*
X152129003Y-67339958D01*
X151493462Y-67975500D01*
X150893281Y-68575681D01*
X150831958Y-68609166D01*
X150805600Y-68612000D01*
X143124500Y-68612000D01*
X143057461Y-68592315D01*
X143011706Y-68539511D01*
X143000500Y-68488000D01*
X143000500Y-67537823D01*
X143000499Y-67537821D01*
X142985967Y-67464764D01*
X142985966Y-67464760D01*
X142930601Y-67381899D01*
X142847740Y-67326534D01*
X142847739Y-67326533D01*
X142847735Y-67326532D01*
X142774677Y-67312000D01*
X142774674Y-67312000D01*
X140394399Y-67312000D01*
X140327360Y-67292315D01*
X140306718Y-67275681D01*
X140155718Y-67124681D01*
X140122233Y-67063358D01*
X140127217Y-66993666D01*
X140169089Y-66937733D01*
X140234553Y-66913316D01*
X140243399Y-66913000D01*
X142774676Y-66913000D01*
X142774677Y-66912999D01*
X142847740Y-66898466D01*
X142930601Y-66843101D01*
X142985966Y-66760240D01*
X143000500Y-66687174D01*
X143000500Y-66665291D01*
X143020185Y-66598252D01*
X143072989Y-66552497D01*
X143142147Y-66542553D01*
X143181450Y-66557215D01*
X143181882Y-66556270D01*
X143189949Y-66559954D01*
X143328036Y-66600499D01*
X143328038Y-66600500D01*
X143328039Y-66600500D01*
X143471962Y-66600500D01*
X143471962Y-66600499D01*
X143610053Y-66559953D01*
X143731128Y-66482143D01*
X143825377Y-66373373D01*
X143885165Y-66242457D01*
X143905647Y-66100000D01*
X143885165Y-65957543D01*
X143825377Y-65826627D01*
X143731128Y-65717857D01*
X143610053Y-65640047D01*
X143610051Y-65640046D01*
X143610049Y-65640045D01*
X143610050Y-65640045D01*
X143471963Y-65599500D01*
X143471961Y-65599500D01*
X143328039Y-65599500D01*
X143328036Y-65599500D01*
X143189949Y-65640045D01*
X143181882Y-65643730D01*
X143181128Y-65642081D01*
X143124498Y-65658708D01*
X143057459Y-65639022D01*
X143011705Y-65586218D01*
X143002467Y-65543751D01*
X143001097Y-65543886D01*
X143000500Y-65537831D01*
X143000500Y-65537826D01*
X142985966Y-65464760D01*
X142930601Y-65381899D01*
X142847740Y-65326534D01*
X142847739Y-65326533D01*
X142847735Y-65326532D01*
X142774677Y-65312000D01*
X142774674Y-65312000D01*
X140225326Y-65312000D01*
X140225323Y-65312000D01*
X140152264Y-65326532D01*
X140152260Y-65326533D01*
X140069399Y-65381899D01*
X140014033Y-65464760D01*
X140014032Y-65464764D01*
X139999500Y-65537821D01*
X139999500Y-66669100D01*
X139979815Y-66736139D01*
X139927011Y-66781894D01*
X139857853Y-66791838D01*
X139794297Y-66762813D01*
X139787819Y-66756781D01*
X139286819Y-66255781D01*
X139253334Y-66194458D01*
X139250500Y-66168100D01*
X139250500Y-61746804D01*
X139253139Y-61721359D01*
X139253785Y-61718275D01*
X139255367Y-61710732D01*
X139253286Y-61694036D01*
X139250977Y-61675506D01*
X139250500Y-61667830D01*
X139250500Y-61663889D01*
X139250498Y-61663876D01*
X139246657Y-61640859D01*
X139242973Y-61611300D01*
X139239866Y-61586374D01*
X139239864Y-61586370D01*
X139237622Y-61578840D01*
X139235065Y-61571392D01*
X139235065Y-61571390D01*
X139208944Y-61523122D01*
X139184826Y-61473789D01*
X139184824Y-61473787D01*
X139184824Y-61473786D01*
X139180276Y-61467416D01*
X139175420Y-61461176D01*
X139175419Y-61461174D01*
X139135029Y-61423992D01*
X138759709Y-61048672D01*
X138726224Y-60987349D01*
X138730666Y-60925234D01*
X138729013Y-60924764D01*
X138732360Y-60913000D01*
X138786397Y-60723083D01*
X138805215Y-60520000D01*
X138800894Y-60473373D01*
X138786397Y-60316917D01*
X138753131Y-60200000D01*
X138730582Y-60120750D01*
X138639673Y-59938179D01*
X138544181Y-59811727D01*
X138519489Y-59746365D01*
X138534054Y-59678031D01*
X138583252Y-59628418D01*
X138643135Y-59613000D01*
X139875500Y-59613000D01*
X139942539Y-59632685D01*
X139988294Y-59685489D01*
X139999500Y-59737000D01*
X139999500Y-60687178D01*
X140014032Y-60760235D01*
X140014033Y-60760239D01*
X140014034Y-60760240D01*
X140069399Y-60843101D01*
X140152259Y-60898466D01*
X140152260Y-60898466D01*
X140152264Y-60898467D01*
X140225321Y-60912999D01*
X140225324Y-60913000D01*
X140225326Y-60913000D01*
X142418101Y-60913000D01*
X142485140Y-60932685D01*
X142505782Y-60949319D01*
X142656782Y-61100319D01*
X142690267Y-61161642D01*
X142685283Y-61231334D01*
X142643411Y-61287267D01*
X142577947Y-61311684D01*
X142569101Y-61312000D01*
X140225323Y-61312000D01*
X140152264Y-61326532D01*
X140152260Y-61326533D01*
X140069399Y-61381899D01*
X140014033Y-61464760D01*
X140014032Y-61464764D01*
X139999500Y-61537821D01*
X139999500Y-62687178D01*
X140014032Y-62760235D01*
X140014033Y-62760239D01*
X140014034Y-62760240D01*
X140069399Y-62843101D01*
X140152259Y-62898465D01*
X140152260Y-62898466D01*
X140152264Y-62898467D01*
X140225321Y-62912999D01*
X140225324Y-62913000D01*
X140225326Y-62913000D01*
X142417428Y-62913000D01*
X142484467Y-62932685D01*
X142505109Y-62949319D01*
X142656109Y-63100319D01*
X142689594Y-63161642D01*
X142684610Y-63231334D01*
X142642738Y-63287267D01*
X142577274Y-63311684D01*
X142568428Y-63312000D01*
X140225323Y-63312000D01*
X140152264Y-63326532D01*
X140152260Y-63326533D01*
X140069399Y-63381899D01*
X140014033Y-63464760D01*
X140014033Y-63464763D01*
X139999500Y-63537821D01*
X139999500Y-64687178D01*
X140014032Y-64760235D01*
X140014033Y-64760239D01*
X140014034Y-64760240D01*
X140069399Y-64843101D01*
X140131439Y-64884554D01*
X140152260Y-64898466D01*
X140152264Y-64898467D01*
X140225321Y-64912999D01*
X140225324Y-64913000D01*
X140225326Y-64913000D01*
X142774676Y-64913000D01*
X142774677Y-64912999D01*
X142847740Y-64898466D01*
X142930601Y-64843101D01*
X142985966Y-64760240D01*
X143000500Y-64687174D01*
X143000500Y-64612000D01*
X143020185Y-64544961D01*
X143072989Y-64499206D01*
X143124500Y-64488000D01*
X143205601Y-64488000D01*
X143272640Y-64507685D01*
X143293282Y-64524319D01*
X144669432Y-65900469D01*
X144702917Y-65961792D01*
X144704489Y-65970502D01*
X144714834Y-66042454D01*
X144714835Y-66042457D01*
X144774623Y-66173373D01*
X144868872Y-66282143D01*
X144989947Y-66359953D01*
X144989950Y-66359954D01*
X144989949Y-66359954D01*
X145128036Y-66400499D01*
X145128038Y-66400500D01*
X145128039Y-66400500D01*
X145271962Y-66400500D01*
X145271962Y-66400499D01*
X145379121Y-66369035D01*
X145410050Y-66359954D01*
X145410050Y-66359953D01*
X145410053Y-66359953D01*
X145510834Y-66295184D01*
X145577874Y-66275500D01*
X146137340Y-66275500D01*
X150348196Y-66275500D01*
X150373641Y-66278139D01*
X150377440Y-66278935D01*
X150384268Y-66280367D01*
X150405225Y-66277754D01*
X150419492Y-66275977D01*
X150427168Y-66275500D01*
X150431112Y-66275500D01*
X150431114Y-66275500D01*
X150431116Y-66275499D01*
X150431122Y-66275499D01*
X150446487Y-66272934D01*
X150454140Y-66271657D01*
X150508626Y-66264866D01*
X150508627Y-66264865D01*
X150508629Y-66264865D01*
X150516141Y-66262628D01*
X150523606Y-66260066D01*
X150523606Y-66260065D01*
X150523610Y-66260065D01*
X150571877Y-66233944D01*
X150621211Y-66209826D01*
X150621213Y-66209823D01*
X150627594Y-66205268D01*
X150633818Y-66200423D01*
X150633826Y-66200419D01*
X150671008Y-66160028D01*
X150794397Y-66036639D01*
X150855721Y-66003154D01*
X150864436Y-66001582D01*
X150871962Y-66000500D01*
X151010050Y-65959954D01*
X151010050Y-65959953D01*
X151010053Y-65959953D01*
X151131128Y-65882143D01*
X151225377Y-65773373D01*
X151285165Y-65642457D01*
X151305647Y-65500000D01*
X151285165Y-65357543D01*
X151225377Y-65226627D01*
X151131128Y-65117857D01*
X151010053Y-65040047D01*
X151010051Y-65040046D01*
X151010049Y-65040045D01*
X151010050Y-65040045D01*
X150871963Y-64999500D01*
X150871961Y-64999500D01*
X150728039Y-64999500D01*
X150728036Y-64999500D01*
X150589949Y-65040045D01*
X150468873Y-65117856D01*
X150374623Y-65226626D01*
X150374622Y-65226628D01*
X150314835Y-65357541D01*
X150314834Y-65357546D01*
X150306121Y-65418147D01*
X150277096Y-65481703D01*
X150218317Y-65519477D01*
X150183383Y-65524500D01*
X145577874Y-65524500D01*
X145510835Y-65504815D01*
X145510834Y-65504815D01*
X145474871Y-65481703D01*
X145410053Y-65440047D01*
X145410052Y-65440046D01*
X145410051Y-65440046D01*
X145410050Y-65440045D01*
X145271965Y-65399500D01*
X145264429Y-65398417D01*
X145200874Y-65369391D01*
X145194397Y-65363360D01*
X143714649Y-63883611D01*
X143698522Y-63863752D01*
X143692586Y-63854667D01*
X143692583Y-63854663D01*
X143664574Y-63832863D01*
X143658810Y-63827772D01*
X143656015Y-63824977D01*
X143637005Y-63811406D01*
X143618949Y-63797352D01*
X143578137Y-63740641D01*
X143574464Y-63670868D01*
X143609096Y-63610186D01*
X143671038Y-63577860D01*
X143695113Y-63575500D01*
X146222126Y-63575500D01*
X146289165Y-63595185D01*
X146289166Y-63595185D01*
X146389947Y-63659953D01*
X146389948Y-63659953D01*
X146389949Y-63659954D01*
X146528036Y-63700499D01*
X146528038Y-63700500D01*
X146528039Y-63700500D01*
X146671962Y-63700500D01*
X146671962Y-63700499D01*
X146810053Y-63659953D01*
X146931128Y-63582143D01*
X147025377Y-63473373D01*
X147085165Y-63342457D01*
X147105647Y-63200000D01*
X147085165Y-63057543D01*
X147025377Y-62926627D01*
X146931128Y-62817857D01*
X146810053Y-62740047D01*
X146810051Y-62740046D01*
X146810049Y-62740045D01*
X146810050Y-62740045D01*
X146671963Y-62699500D01*
X146671961Y-62699500D01*
X146528039Y-62699500D01*
X146528036Y-62699500D01*
X146389949Y-62740045D01*
X146389948Y-62740046D01*
X146289166Y-62804815D01*
X146222126Y-62824500D01*
X143994976Y-62824500D01*
X143927937Y-62804815D01*
X143882182Y-62752011D01*
X143872238Y-62682853D01*
X143882183Y-62648987D01*
X143882938Y-62647333D01*
X143885165Y-62642457D01*
X143905647Y-62500000D01*
X143885165Y-62357543D01*
X143825377Y-62226627D01*
X143805785Y-62204016D01*
X143776762Y-62140460D01*
X143775500Y-62122815D01*
X143775500Y-61364304D01*
X143778139Y-61338859D01*
X143778785Y-61335775D01*
X143780367Y-61328232D01*
X143778287Y-61311552D01*
X143775977Y-61293009D01*
X143775500Y-61285333D01*
X143775500Y-61281390D01*
X143775499Y-61281382D01*
X143775321Y-61280317D01*
X143771655Y-61258346D01*
X143764865Y-61203874D01*
X143764865Y-61203873D01*
X143762617Y-61196327D01*
X143760066Y-61188893D01*
X143760065Y-61188891D01*
X143760065Y-61188890D01*
X143733939Y-61140614D01*
X143709826Y-61091289D01*
X143709823Y-61091286D01*
X143709823Y-61091285D01*
X143705280Y-61084921D01*
X143700420Y-61078676D01*
X143700419Y-61078674D01*
X143667828Y-61048672D01*
X143660029Y-61041492D01*
X143492555Y-60874017D01*
X143459070Y-60812694D01*
X143464054Y-60743002D01*
X143505926Y-60687069D01*
X143571390Y-60662652D01*
X143615169Y-60667358D01*
X143676457Y-60685354D01*
X143728038Y-60700500D01*
X143728039Y-60700500D01*
X143871962Y-60700500D01*
X143871962Y-60700499D01*
X144010053Y-60659953D01*
X144131128Y-60582143D01*
X144225377Y-60473373D01*
X144285165Y-60342457D01*
X144305647Y-60200000D01*
X144285165Y-60057543D01*
X144225377Y-59926627D01*
X144131426Y-59818201D01*
X144102402Y-59754647D01*
X144112346Y-59685488D01*
X144158101Y-59632685D01*
X144225140Y-59613000D01*
X144630601Y-59613000D01*
X144697640Y-59632685D01*
X144718282Y-59649319D01*
X148497849Y-63428886D01*
X148513977Y-63448745D01*
X148519916Y-63457836D01*
X148547932Y-63479641D01*
X148553693Y-63484730D01*
X148556482Y-63487519D01*
X148575483Y-63501085D01*
X148618810Y-63534809D01*
X148618811Y-63534809D01*
X148625722Y-63538549D01*
X148632800Y-63542010D01*
X148685404Y-63557670D01*
X148685405Y-63557671D01*
X148737340Y-63575500D01*
X148737342Y-63575500D01*
X148745079Y-63576791D01*
X148752909Y-63577767D01*
X148752911Y-63577768D01*
X148752912Y-63577767D01*
X148752913Y-63577768D01*
X148807755Y-63575500D01*
X149022126Y-63575500D01*
X149089165Y-63595185D01*
X149089166Y-63595185D01*
X149189947Y-63659953D01*
X149189948Y-63659953D01*
X149189949Y-63659954D01*
X149328036Y-63700499D01*
X149328038Y-63700500D01*
X149328039Y-63700500D01*
X149471962Y-63700500D01*
X149471962Y-63700499D01*
X149610053Y-63659953D01*
X149731128Y-63582143D01*
X149825377Y-63473373D01*
X149885165Y-63342457D01*
X149905647Y-63200000D01*
X149885165Y-63057543D01*
X149825377Y-62926627D01*
X149731128Y-62817857D01*
X149610053Y-62740047D01*
X149610051Y-62740046D01*
X149610049Y-62740045D01*
X149610050Y-62740045D01*
X149471963Y-62699500D01*
X149471961Y-62699500D01*
X149328039Y-62699500D01*
X149328036Y-62699500D01*
X149189949Y-62740045D01*
X149189948Y-62740046D01*
X149089166Y-62804815D01*
X149022126Y-62824500D01*
X149006899Y-62824500D01*
X148939860Y-62804815D01*
X148919218Y-62788181D01*
X147029504Y-60898467D01*
X145139649Y-59008611D01*
X145123522Y-58988752D01*
X145117586Y-58979667D01*
X145117583Y-58979663D01*
X145089574Y-58957863D01*
X145083810Y-58952772D01*
X145081015Y-58949977D01*
X145062005Y-58936406D01*
X145018689Y-58902690D01*
X145011774Y-58898948D01*
X145004700Y-58895490D01*
X144952096Y-58879829D01*
X144900158Y-58861999D01*
X144892423Y-58860708D01*
X144884585Y-58859731D01*
X144829744Y-58862000D01*
X137239304Y-58862000D01*
X137213857Y-58859361D01*
X137211213Y-58858806D01*
X137203229Y-58857132D01*
X137168009Y-58861523D01*
X137160332Y-58862000D01*
X137156386Y-58862000D01*
X137139106Y-58864883D01*
X137133346Y-58865844D01*
X137078868Y-58872635D01*
X137071344Y-58874875D01*
X137063892Y-58877434D01*
X137015619Y-58903557D01*
X136966290Y-58927672D01*
X136959898Y-58932235D01*
X136953674Y-58937080D01*
X136916503Y-58977458D01*
X136296108Y-59597852D01*
X136276254Y-59613976D01*
X136267165Y-59619914D01*
X136267164Y-59619915D01*
X136245363Y-59647923D01*
X136240286Y-59653674D01*
X136237484Y-59656477D01*
X136237474Y-59656488D01*
X136223905Y-59675495D01*
X136190192Y-59718808D01*
X136186447Y-59725729D01*
X136182988Y-59732804D01*
X136167329Y-59785403D01*
X136149500Y-59837338D01*
X136148206Y-59845092D01*
X136147231Y-59852911D01*
X136149500Y-59907755D01*
X136149500Y-61833196D01*
X136146862Y-61858634D01*
X136144633Y-61869268D01*
X136144633Y-61869269D01*
X136144633Y-61869271D01*
X136149023Y-61904491D01*
X136149500Y-61912167D01*
X136149500Y-61916116D01*
X136153342Y-61939141D01*
X136160134Y-61993627D01*
X136162373Y-62001147D01*
X136164934Y-62008608D01*
X136164935Y-62008610D01*
X136177527Y-62031879D01*
X136191055Y-62056877D01*
X136215174Y-62106211D01*
X136219742Y-62112609D01*
X136224582Y-62118827D01*
X136264970Y-62156008D01*
X136640289Y-62531326D01*
X136673774Y-62592649D01*
X136669331Y-62654765D01*
X136670986Y-62655236D01*
X136613603Y-62856915D01*
X136613602Y-62856917D01*
X136594785Y-63059999D01*
X136594785Y-63060000D01*
X136613602Y-63263082D01*
X136669417Y-63459247D01*
X136669422Y-63459260D01*
X136760327Y-63641821D01*
X136883237Y-63804581D01*
X137033958Y-63941980D01*
X137033960Y-63941982D01*
X137059808Y-63957986D01*
X137207363Y-64049348D01*
X137397544Y-64123024D01*
X137598024Y-64160500D01*
X137598026Y-64160500D01*
X137801974Y-64160500D01*
X137801976Y-64160500D01*
X138002456Y-64123024D01*
X138192637Y-64049348D01*
X138310223Y-63976541D01*
X138377583Y-63957986D01*
X138444282Y-63978794D01*
X138489144Y-64032360D01*
X138499500Y-64081969D01*
X138499500Y-64578030D01*
X138479815Y-64645069D01*
X138427011Y-64690824D01*
X138357853Y-64700768D01*
X138310223Y-64683457D01*
X138192642Y-64610655D01*
X138192635Y-64610651D01*
X138060089Y-64559303D01*
X138002456Y-64536976D01*
X137801976Y-64499500D01*
X137598024Y-64499500D01*
X137397544Y-64536976D01*
X137397541Y-64536976D01*
X137397541Y-64536977D01*
X137207364Y-64610651D01*
X137207357Y-64610655D01*
X137033960Y-64718017D01*
X137033958Y-64718019D01*
X136883237Y-64855418D01*
X136760327Y-65018178D01*
X136669422Y-65200739D01*
X136669417Y-65200752D01*
X136613602Y-65396917D01*
X136594785Y-65599999D01*
X136594785Y-65600000D01*
X136613602Y-65803082D01*
X136669417Y-65999247D01*
X136669422Y-65999260D01*
X136760327Y-66181821D01*
X136883237Y-66344581D01*
X137033958Y-66481980D01*
X137033960Y-66481982D01*
X137115062Y-66532198D01*
X137207363Y-66589348D01*
X137257642Y-66608826D01*
X137321168Y-66633436D01*
X137376570Y-66676009D01*
X137387772Y-66694597D01*
X137390173Y-66699509D01*
X137394741Y-66705907D01*
X137399582Y-66712126D01*
X137439971Y-66749308D01*
X137472558Y-66781894D01*
X137543010Y-66852346D01*
X137576494Y-66913667D01*
X137571510Y-66983359D01*
X137529639Y-67039293D01*
X137478114Y-67061914D01*
X137397545Y-67076975D01*
X137207364Y-67150651D01*
X137207357Y-67150655D01*
X137033960Y-67258017D01*
X137033958Y-67258019D01*
X136883237Y-67395418D01*
X136760327Y-67558178D01*
X136669422Y-67740739D01*
X136669417Y-67740752D01*
X136613602Y-67936917D01*
X136594785Y-68139999D01*
X136594785Y-68140000D01*
X136613602Y-68343082D01*
X136669417Y-68539247D01*
X136669422Y-68539260D01*
X136760327Y-68721821D01*
X136883237Y-68884581D01*
X137008702Y-68998957D01*
X137044984Y-69058668D01*
X137043223Y-69128516D01*
X137003980Y-69186323D01*
X136997218Y-69191511D01*
X136985680Y-69199749D01*
X136979474Y-69204579D01*
X136942291Y-69244970D01*
X136296108Y-69891151D01*
X136276254Y-69907275D01*
X136267165Y-69913213D01*
X136267164Y-69913214D01*
X136245363Y-69941222D01*
X136240286Y-69946973D01*
X136237484Y-69949776D01*
X136237474Y-69949787D01*
X136223905Y-69968794D01*
X136190192Y-70012107D01*
X136186447Y-70019028D01*
X136182988Y-70026103D01*
X136167329Y-70078702D01*
X136149500Y-70130637D01*
X136148206Y-70138391D01*
X136147231Y-70146210D01*
X136149500Y-70201054D01*
X136149500Y-79613196D01*
X136146862Y-79638634D01*
X136144633Y-79649268D01*
X136144633Y-79649269D01*
X136144633Y-79649271D01*
X135400000Y-79649271D01*
X135400000Y-58524500D01*
X135419685Y-58457461D01*
X135472489Y-58411706D01*
X135524000Y-58400500D01*
X162876000Y-58400500D01*
X162943039Y-58420185D01*
G37*
G04 #@! TD.AperFunction*
M02*
