M48
; DRILL file {KiCad 7.0.7} date Tue Apr  2 17:00:40 2024
; FORMAT={-:-/ absolute / metric / decimal}
; #@! TF.CreationDate,2024-04-02T17:00:40-04:00
; #@! TF.GenerationSoftware,Kicad,Pcbnew,7.0.7
; #@! TF.FileFunction,Plated,1,2,PTH
FMAT,2
METRIC
; #@! TA.AperFunction,Plated,PTH,ViaDrill
T1C0.300
; #@! TA.AperFunction,Plated,PTH,ComponentDrill
T2C1.000
%
G90
G05
T1
X140.656Y-75.656
X143.3Y-69.8
X143.4Y-62.5
X143.4Y-66.1
X143.706Y-71.506
X143.8Y-60.2
X145.2Y-65.9
X146.1Y-78.625
X146.6Y-63.2
X147.702Y-70.921
X149.4Y-63.2
X149.8Y-70.9
X150.8Y-65.5
X152.2Y-78.625
X152.8Y-68.5
X154.0Y-65.4
X154.6Y-63.0
X154.8Y-72.1
T2
X137.7Y-60.52
X137.7Y-63.06
X137.7Y-65.6
X137.7Y-68.14
X137.7Y-70.68
X137.7Y-73.22
X137.7Y-75.76
X137.7Y-78.3
X137.7Y-80.84
X160.7Y-60.5
X160.7Y-63.04
X160.7Y-65.58
X160.7Y-68.12
X160.7Y-70.66
X160.7Y-73.2
X160.7Y-75.74
X160.7Y-78.28
X160.7Y-80.82
T0
M30
