G04 #@! TF.GenerationSoftware,KiCad,Pcbnew,7.0.7*
G04 #@! TF.CreationDate,2024-04-02T17:00:38-04:00*
G04 #@! TF.ProjectId,sensor_node,73656e73-6f72-45f6-9e6f-64652e6b6963,rev?*
G04 #@! TF.SameCoordinates,Original*
G04 #@! TF.FileFunction,Soldermask,Bot*
G04 #@! TF.FilePolarity,Negative*
%FSLAX46Y46*%
G04 Gerber Fmt 4.6, Leading zero omitted, Abs format (unit mm)*
G04 Created by KiCad (PCBNEW 7.0.7) date 2024-04-02 17:00:38*
%MOMM*%
%LPD*%
G01*
G04 APERTURE LIST*
G04 Aperture macros list*
%AMRoundRect*
0 Rectangle with rounded corners*
0 $1 Rounding radius*
0 $2 $3 $4 $5 $6 $7 $8 $9 X,Y pos of 4 corners*
0 Add a 4 corners polygon primitive as box body*
4,1,4,$2,$3,$4,$5,$6,$7,$8,$9,$2,$3,0*
0 Add four circle primitives for the rounded corners*
1,1,$1+$1,$2,$3*
1,1,$1+$1,$4,$5*
1,1,$1+$1,$6,$7*
1,1,$1+$1,$8,$9*
0 Add four rect primitives between the rounded corners*
20,1,$1+$1,$2,$3,$4,$5,0*
20,1,$1+$1,$4,$5,$6,$7,0*
20,1,$1+$1,$6,$7,$8,$9,0*
20,1,$1+$1,$8,$9,$2,$3,0*%
G04 Aperture macros list end*
%ADD10R,1.700000X1.700000*%
%ADD11O,1.700000X1.700000*%
%ADD12RoundRect,0.200000X-0.275000X0.200000X-0.275000X-0.200000X0.275000X-0.200000X0.275000X0.200000X0*%
%ADD13RoundRect,0.225000X-0.250000X0.225000X-0.250000X-0.225000X0.250000X-0.225000X0.250000X0.225000X0*%
%ADD14RoundRect,0.250000X-0.650000X0.325000X-0.650000X-0.325000X0.650000X-0.325000X0.650000X0.325000X0*%
%ADD15RoundRect,0.200000X0.275000X-0.200000X0.275000X0.200000X-0.275000X0.200000X-0.275000X-0.200000X0*%
%ADD16RoundRect,0.250000X0.500000X-0.250000X0.500000X0.250000X-0.500000X0.250000X-0.500000X-0.250000X0*%
G04 APERTURE END LIST*
D10*
X137700000Y-80840000D03*
D11*
X137700000Y-78300000D03*
X137700000Y-75760000D03*
X137700000Y-73220000D03*
X137700000Y-70680000D03*
X137700000Y-68140000D03*
X137700000Y-65600000D03*
X137700000Y-63060000D03*
X137700000Y-60520000D03*
D10*
X160700000Y-60500000D03*
D11*
X160700000Y-63040000D03*
X160700000Y-65580000D03*
X160700000Y-68120000D03*
X160700000Y-70660000D03*
X160700000Y-73200000D03*
X160700000Y-75740000D03*
X160700000Y-78280000D03*
X160700000Y-80820000D03*
D12*
X144800000Y-63124999D03*
X144800000Y-64774999D03*
D13*
X146400000Y-70900000D03*
X146400000Y-72450000D03*
X144790001Y-70875000D03*
X144790001Y-72425000D03*
D14*
X144800000Y-77450000D03*
X144800000Y-80400000D03*
X147400000Y-77425000D03*
X147400000Y-80375000D03*
D12*
X144800000Y-60224997D03*
X144800000Y-61874997D03*
D15*
X153200000Y-72325000D03*
X153200000Y-70675000D03*
D16*
X141500000Y-64000000D03*
X141500000Y-62600000D03*
D12*
X147600000Y-60250000D03*
X147600000Y-61900000D03*
D14*
X142200000Y-77450000D03*
X142200000Y-80400000D03*
D12*
X147599999Y-63200000D03*
X147599999Y-64850000D03*
M02*
