G04 #@! TF.GenerationSoftware,KiCad,Pcbnew,7.0.7*
G04 #@! TF.CreationDate,2024-04-02T17:00:38-04:00*
G04 #@! TF.ProjectId,sensor_node,73656e73-6f72-45f6-9e6f-64652e6b6963,rev?*
G04 #@! TF.SameCoordinates,Original*
G04 #@! TF.FileFunction,Soldermask,Top*
G04 #@! TF.FilePolarity,Negative*
%FSLAX46Y46*%
G04 Gerber Fmt 4.6, Leading zero omitted, Abs format (unit mm)*
G04 Created by KiCad (PCBNEW 7.0.7) date 2024-04-02 17:00:38*
%MOMM*%
%LPD*%
G01*
G04 APERTURE LIST*
%ADD10R,1.700000X1.700000*%
%ADD11O,1.700000X1.700000*%
%ADD12R,1.050000X0.650000*%
%ADD13R,2.500000X1.100000*%
G04 APERTURE END LIST*
D10*
X137700000Y-80840000D03*
D11*
X137700000Y-78300000D03*
X137700000Y-75760000D03*
X137700000Y-73220000D03*
X137700000Y-70680000D03*
X137700000Y-68140000D03*
X137700000Y-65600000D03*
X137700000Y-63060000D03*
X137700000Y-60520000D03*
D12*
X143450000Y-78625000D03*
X147600000Y-78625000D03*
X143450000Y-80775000D03*
X147600000Y-80775000D03*
D10*
X160700000Y-60500000D03*
D11*
X160700000Y-63040000D03*
X160700000Y-65580000D03*
X160700000Y-68120000D03*
X160700000Y-70660000D03*
X160700000Y-73200000D03*
X160700000Y-75740000D03*
X160700000Y-78280000D03*
X160700000Y-80820000D03*
D12*
X154975000Y-80775000D03*
X150825000Y-80775000D03*
X154975000Y-78625000D03*
X150825000Y-78625000D03*
D13*
X141500000Y-60112500D03*
X141500000Y-62112500D03*
X141500000Y-64112500D03*
X141500000Y-66112500D03*
X141500000Y-68112500D03*
X141500000Y-70112500D03*
X141500000Y-72112500D03*
X141500000Y-74112500D03*
X156900000Y-74112500D03*
X156900000Y-72112500D03*
X156900000Y-70112500D03*
X156900000Y-68112500D03*
X156900000Y-66112500D03*
X156900000Y-64112500D03*
X156900000Y-62112500D03*
X156900000Y-60112500D03*
M02*
