G04 #@! TF.GenerationSoftware,KiCad,Pcbnew,7.0.7*
G04 #@! TF.CreationDate,2024-04-02T17:00:38-04:00*
G04 #@! TF.ProjectId,sensor_node,73656e73-6f72-45f6-9e6f-64652e6b6963,rev?*
G04 #@! TF.SameCoordinates,Original*
G04 #@! TF.FileFunction,Legend,Top*
G04 #@! TF.FilePolarity,Positive*
%FSLAX46Y46*%
G04 Gerber Fmt 4.6, Leading zero omitted, Abs format (unit mm)*
G04 Created by KiCad (PCBNEW 7.0.7) date 2024-04-02 17:00:38*
%MOMM*%
%LPD*%
G01*
G04 APERTURE LIST*
%ADD10C,0.150000*%
%ADD11C,0.120000*%
%ADD12C,0.152400*%
%ADD13R,1.700000X1.700000*%
%ADD14O,1.700000X1.700000*%
%ADD15R,1.050000X0.650000*%
%ADD16R,2.500000X1.100000*%
G04 APERTURE END LIST*
D10*
X156520111Y-78969819D02*
X156520111Y-77969819D01*
X157186777Y-77969819D02*
X157377253Y-77969819D01*
X157377253Y-77969819D02*
X157472491Y-78017438D01*
X157472491Y-78017438D02*
X157567729Y-78112676D01*
X157567729Y-78112676D02*
X157615348Y-78303152D01*
X157615348Y-78303152D02*
X157615348Y-78636485D01*
X157615348Y-78636485D02*
X157567729Y-78826961D01*
X157567729Y-78826961D02*
X157472491Y-78922200D01*
X157472491Y-78922200D02*
X157377253Y-78969819D01*
X157377253Y-78969819D02*
X157186777Y-78969819D01*
X157186777Y-78969819D02*
X157091539Y-78922200D01*
X157091539Y-78922200D02*
X156996301Y-78826961D01*
X156996301Y-78826961D02*
X156948682Y-78636485D01*
X156948682Y-78636485D02*
X156948682Y-78303152D01*
X156948682Y-78303152D02*
X156996301Y-78112676D01*
X156996301Y-78112676D02*
X157091539Y-78017438D01*
X157091539Y-78017438D02*
X157186777Y-77969819D01*
X158234396Y-77969819D02*
X158329634Y-77969819D01*
X158329634Y-77969819D02*
X158424872Y-78017438D01*
X158424872Y-78017438D02*
X158472491Y-78065057D01*
X158472491Y-78065057D02*
X158520110Y-78160295D01*
X158520110Y-78160295D02*
X158567729Y-78350771D01*
X158567729Y-78350771D02*
X158567729Y-78588866D01*
X158567729Y-78588866D02*
X158520110Y-78779342D01*
X158520110Y-78779342D02*
X158472491Y-78874580D01*
X158472491Y-78874580D02*
X158424872Y-78922200D01*
X158424872Y-78922200D02*
X158329634Y-78969819D01*
X158329634Y-78969819D02*
X158234396Y-78969819D01*
X158234396Y-78969819D02*
X158139158Y-78922200D01*
X158139158Y-78922200D02*
X158091539Y-78874580D01*
X158091539Y-78874580D02*
X158043920Y-78779342D01*
X158043920Y-78779342D02*
X157996301Y-78588866D01*
X157996301Y-78588866D02*
X157996301Y-78350771D01*
X157996301Y-78350771D02*
X158043920Y-78160295D01*
X158043920Y-78160295D02*
X158091539Y-78065057D01*
X158091539Y-78065057D02*
X158139158Y-78017438D01*
X158139158Y-78017438D02*
X158234396Y-77969819D01*
X156472492Y-81084104D02*
X156948682Y-81084104D01*
X156377254Y-81369819D02*
X156710587Y-80369819D01*
X156710587Y-80369819D02*
X157043920Y-81369819D01*
X157377254Y-81369819D02*
X157377254Y-80369819D01*
X157853444Y-81369819D02*
X157853444Y-80369819D01*
X157853444Y-80369819D02*
X158424872Y-81369819D01*
X158424872Y-81369819D02*
X158424872Y-80369819D01*
X139029160Y-61047200D02*
X139172017Y-61094819D01*
X139172017Y-61094819D02*
X139410112Y-61094819D01*
X139410112Y-61094819D02*
X139505350Y-61047200D01*
X139505350Y-61047200D02*
X139552969Y-60999580D01*
X139552969Y-60999580D02*
X139600588Y-60904342D01*
X139600588Y-60904342D02*
X139600588Y-60809104D01*
X139600588Y-60809104D02*
X139552969Y-60713866D01*
X139552969Y-60713866D02*
X139505350Y-60666247D01*
X139505350Y-60666247D02*
X139410112Y-60618628D01*
X139410112Y-60618628D02*
X139219636Y-60571009D01*
X139219636Y-60571009D02*
X139124398Y-60523390D01*
X139124398Y-60523390D02*
X139076779Y-60475771D01*
X139076779Y-60475771D02*
X139029160Y-60380533D01*
X139029160Y-60380533D02*
X139029160Y-60285295D01*
X139029160Y-60285295D02*
X139076779Y-60190057D01*
X139076779Y-60190057D02*
X139124398Y-60142438D01*
X139124398Y-60142438D02*
X139219636Y-60094819D01*
X139219636Y-60094819D02*
X139457731Y-60094819D01*
X139457731Y-60094819D02*
X139600588Y-60142438D01*
X139933922Y-60094819D02*
X140172017Y-61094819D01*
X140172017Y-61094819D02*
X140362493Y-60380533D01*
X140362493Y-60380533D02*
X140552969Y-61094819D01*
X140552969Y-61094819D02*
X140791065Y-60094819D01*
X141505350Y-60571009D02*
X141648207Y-60618628D01*
X141648207Y-60618628D02*
X141695826Y-60666247D01*
X141695826Y-60666247D02*
X141743445Y-60761485D01*
X141743445Y-60761485D02*
X141743445Y-60904342D01*
X141743445Y-60904342D02*
X141695826Y-60999580D01*
X141695826Y-60999580D02*
X141648207Y-61047200D01*
X141648207Y-61047200D02*
X141552969Y-61094819D01*
X141552969Y-61094819D02*
X141172017Y-61094819D01*
X141172017Y-61094819D02*
X141172017Y-60094819D01*
X141172017Y-60094819D02*
X141505350Y-60094819D01*
X141505350Y-60094819D02*
X141600588Y-60142438D01*
X141600588Y-60142438D02*
X141648207Y-60190057D01*
X141648207Y-60190057D02*
X141695826Y-60285295D01*
X141695826Y-60285295D02*
X141695826Y-60380533D01*
X141695826Y-60380533D02*
X141648207Y-60475771D01*
X141648207Y-60475771D02*
X141600588Y-60523390D01*
X141600588Y-60523390D02*
X141505350Y-60571009D01*
X141505350Y-60571009D02*
X141172017Y-60571009D01*
X156996301Y-76469819D02*
X156520111Y-76469819D01*
X156520111Y-76469819D02*
X156520111Y-75469819D01*
X157329635Y-75946009D02*
X157662968Y-75946009D01*
X157805825Y-76469819D02*
X157329635Y-76469819D01*
X157329635Y-76469819D02*
X157329635Y-75469819D01*
X157329635Y-75469819D02*
X157805825Y-75469819D01*
X158234397Y-76469819D02*
X158234397Y-75469819D01*
X158234397Y-75469819D02*
X158472492Y-75469819D01*
X158472492Y-75469819D02*
X158615349Y-75517438D01*
X158615349Y-75517438D02*
X158710587Y-75612676D01*
X158710587Y-75612676D02*
X158758206Y-75707914D01*
X158758206Y-75707914D02*
X158805825Y-75898390D01*
X158805825Y-75898390D02*
X158805825Y-76041247D01*
X158805825Y-76041247D02*
X158758206Y-76231723D01*
X158758206Y-76231723D02*
X158710587Y-76326961D01*
X158710587Y-76326961D02*
X158615349Y-76422200D01*
X158615349Y-76422200D02*
X158472492Y-76469819D01*
X158472492Y-76469819D02*
X158234397Y-76469819D01*
X159186778Y-75565057D02*
X159234397Y-75517438D01*
X159234397Y-75517438D02*
X159329635Y-75469819D01*
X159329635Y-75469819D02*
X159567730Y-75469819D01*
X159567730Y-75469819D02*
X159662968Y-75517438D01*
X159662968Y-75517438D02*
X159710587Y-75565057D01*
X159710587Y-75565057D02*
X159758206Y-75660295D01*
X159758206Y-75660295D02*
X159758206Y-75755533D01*
X159758206Y-75755533D02*
X159710587Y-75898390D01*
X159710587Y-75898390D02*
X159139159Y-76469819D01*
X159139159Y-76469819D02*
X159758206Y-76469819D01*
X139029160Y-81347200D02*
X139172017Y-81394819D01*
X139172017Y-81394819D02*
X139410112Y-81394819D01*
X139410112Y-81394819D02*
X139505350Y-81347200D01*
X139505350Y-81347200D02*
X139552969Y-81299580D01*
X139552969Y-81299580D02*
X139600588Y-81204342D01*
X139600588Y-81204342D02*
X139600588Y-81109104D01*
X139600588Y-81109104D02*
X139552969Y-81013866D01*
X139552969Y-81013866D02*
X139505350Y-80966247D01*
X139505350Y-80966247D02*
X139410112Y-80918628D01*
X139410112Y-80918628D02*
X139219636Y-80871009D01*
X139219636Y-80871009D02*
X139124398Y-80823390D01*
X139124398Y-80823390D02*
X139076779Y-80775771D01*
X139076779Y-80775771D02*
X139029160Y-80680533D01*
X139029160Y-80680533D02*
X139029160Y-80585295D01*
X139029160Y-80585295D02*
X139076779Y-80490057D01*
X139076779Y-80490057D02*
X139124398Y-80442438D01*
X139124398Y-80442438D02*
X139219636Y-80394819D01*
X139219636Y-80394819D02*
X139457731Y-80394819D01*
X139457731Y-80394819D02*
X139600588Y-80442438D01*
X139933922Y-80394819D02*
X140172017Y-81394819D01*
X140172017Y-81394819D02*
X140362493Y-80680533D01*
X140362493Y-80680533D02*
X140552969Y-81394819D01*
X140552969Y-81394819D02*
X140791065Y-80394819D01*
X141124398Y-81109104D02*
X141600588Y-81109104D01*
X141029160Y-81394819D02*
X141362493Y-80394819D01*
X141362493Y-80394819D02*
X141695826Y-81394819D01*
X158408207Y-68769819D02*
X158074874Y-68293628D01*
X157836779Y-68769819D02*
X157836779Y-67769819D01*
X157836779Y-67769819D02*
X158217731Y-67769819D01*
X158217731Y-67769819D02*
X158312969Y-67817438D01*
X158312969Y-67817438D02*
X158360588Y-67865057D01*
X158360588Y-67865057D02*
X158408207Y-67960295D01*
X158408207Y-67960295D02*
X158408207Y-68103152D01*
X158408207Y-68103152D02*
X158360588Y-68198390D01*
X158360588Y-68198390D02*
X158312969Y-68246009D01*
X158312969Y-68246009D02*
X158217731Y-68293628D01*
X158217731Y-68293628D02*
X157836779Y-68293628D01*
X158741541Y-67769819D02*
X159408207Y-68769819D01*
X159408207Y-67769819D02*
X158741541Y-68769819D01*
X139276779Y-73794819D02*
X139276779Y-72794819D01*
X139276779Y-72794819D02*
X139514874Y-72794819D01*
X139514874Y-72794819D02*
X139657731Y-72842438D01*
X139657731Y-72842438D02*
X139752969Y-72937676D01*
X139752969Y-72937676D02*
X139800588Y-73032914D01*
X139800588Y-73032914D02*
X139848207Y-73223390D01*
X139848207Y-73223390D02*
X139848207Y-73366247D01*
X139848207Y-73366247D02*
X139800588Y-73556723D01*
X139800588Y-73556723D02*
X139752969Y-73651961D01*
X139752969Y-73651961D02*
X139657731Y-73747200D01*
X139657731Y-73747200D02*
X139514874Y-73794819D01*
X139514874Y-73794819D02*
X139276779Y-73794819D01*
X140848207Y-73794819D02*
X140514874Y-73318628D01*
X140276779Y-73794819D02*
X140276779Y-72794819D01*
X140276779Y-72794819D02*
X140657731Y-72794819D01*
X140657731Y-72794819D02*
X140752969Y-72842438D01*
X140752969Y-72842438D02*
X140800588Y-72890057D01*
X140800588Y-72890057D02*
X140848207Y-72985295D01*
X140848207Y-72985295D02*
X140848207Y-73128152D01*
X140848207Y-73128152D02*
X140800588Y-73223390D01*
X140800588Y-73223390D02*
X140752969Y-73271009D01*
X140752969Y-73271009D02*
X140657731Y-73318628D01*
X140657731Y-73318628D02*
X140276779Y-73318628D01*
X141133922Y-72794819D02*
X141467255Y-73794819D01*
X141467255Y-73794819D02*
X141800588Y-72794819D01*
X156520111Y-73869819D02*
X156520111Y-72869819D01*
X157186777Y-72869819D02*
X157377253Y-72869819D01*
X157377253Y-72869819D02*
X157472491Y-72917438D01*
X157472491Y-72917438D02*
X157567729Y-73012676D01*
X157567729Y-73012676D02*
X157615348Y-73203152D01*
X157615348Y-73203152D02*
X157615348Y-73536485D01*
X157615348Y-73536485D02*
X157567729Y-73726961D01*
X157567729Y-73726961D02*
X157472491Y-73822200D01*
X157472491Y-73822200D02*
X157377253Y-73869819D01*
X157377253Y-73869819D02*
X157186777Y-73869819D01*
X157186777Y-73869819D02*
X157091539Y-73822200D01*
X157091539Y-73822200D02*
X156996301Y-73726961D01*
X156996301Y-73726961D02*
X156948682Y-73536485D01*
X156948682Y-73536485D02*
X156948682Y-73203152D01*
X156948682Y-73203152D02*
X156996301Y-73012676D01*
X156996301Y-73012676D02*
X157091539Y-72917438D01*
X157091539Y-72917438D02*
X157186777Y-72869819D01*
X158567729Y-73869819D02*
X157996301Y-73869819D01*
X158282015Y-73869819D02*
X158282015Y-72869819D01*
X158282015Y-72869819D02*
X158186777Y-73012676D01*
X158186777Y-73012676D02*
X158091539Y-73107914D01*
X158091539Y-73107914D02*
X157996301Y-73155533D01*
X159424872Y-72869819D02*
X159234396Y-72869819D01*
X159234396Y-72869819D02*
X159139158Y-72917438D01*
X159139158Y-72917438D02*
X159091539Y-72965057D01*
X159091539Y-72965057D02*
X158996301Y-73107914D01*
X158996301Y-73107914D02*
X158948682Y-73298390D01*
X158948682Y-73298390D02*
X158948682Y-73679342D01*
X158948682Y-73679342D02*
X158996301Y-73774580D01*
X158996301Y-73774580D02*
X159043920Y-73822200D01*
X159043920Y-73822200D02*
X159139158Y-73869819D01*
X159139158Y-73869819D02*
X159329634Y-73869819D01*
X159329634Y-73869819D02*
X159424872Y-73822200D01*
X159424872Y-73822200D02*
X159472491Y-73774580D01*
X159472491Y-73774580D02*
X159520110Y-73679342D01*
X159520110Y-73679342D02*
X159520110Y-73441247D01*
X159520110Y-73441247D02*
X159472491Y-73346009D01*
X159472491Y-73346009D02*
X159424872Y-73298390D01*
X159424872Y-73298390D02*
X159329634Y-73250771D01*
X159329634Y-73250771D02*
X159139158Y-73250771D01*
X159139158Y-73250771D02*
X159043920Y-73298390D01*
X159043920Y-73298390D02*
X158996301Y-73346009D01*
X158996301Y-73346009D02*
X158948682Y-73441247D01*
X157043920Y-62717438D02*
X156948682Y-62669819D01*
X156948682Y-62669819D02*
X156805825Y-62669819D01*
X156805825Y-62669819D02*
X156662968Y-62717438D01*
X156662968Y-62717438D02*
X156567730Y-62812676D01*
X156567730Y-62812676D02*
X156520111Y-62907914D01*
X156520111Y-62907914D02*
X156472492Y-63098390D01*
X156472492Y-63098390D02*
X156472492Y-63241247D01*
X156472492Y-63241247D02*
X156520111Y-63431723D01*
X156520111Y-63431723D02*
X156567730Y-63526961D01*
X156567730Y-63526961D02*
X156662968Y-63622200D01*
X156662968Y-63622200D02*
X156805825Y-63669819D01*
X156805825Y-63669819D02*
X156901063Y-63669819D01*
X156901063Y-63669819D02*
X157043920Y-63622200D01*
X157043920Y-63622200D02*
X157091539Y-63574580D01*
X157091539Y-63574580D02*
X157091539Y-63241247D01*
X157091539Y-63241247D02*
X156901063Y-63241247D01*
X157520111Y-63669819D02*
X157520111Y-62669819D01*
X157520111Y-62669819D02*
X158091539Y-63669819D01*
X158091539Y-63669819D02*
X158091539Y-62669819D01*
X158567730Y-63669819D02*
X158567730Y-62669819D01*
X158567730Y-62669819D02*
X158805825Y-62669819D01*
X158805825Y-62669819D02*
X158948682Y-62717438D01*
X158948682Y-62717438D02*
X159043920Y-62812676D01*
X159043920Y-62812676D02*
X159091539Y-62907914D01*
X159091539Y-62907914D02*
X159139158Y-63098390D01*
X159139158Y-63098390D02*
X159139158Y-63241247D01*
X159139158Y-63241247D02*
X159091539Y-63431723D01*
X159091539Y-63431723D02*
X159043920Y-63526961D01*
X159043920Y-63526961D02*
X158948682Y-63622200D01*
X158948682Y-63622200D02*
X158805825Y-63669819D01*
X158805825Y-63669819D02*
X158567730Y-63669819D01*
X157693922Y-65269819D02*
X158265350Y-65269819D01*
X157979636Y-66269819D02*
X157979636Y-65269819D01*
X158503446Y-65269819D02*
X159170112Y-66269819D01*
X159170112Y-65269819D02*
X158503446Y-66269819D01*
X138276779Y-71294819D02*
X138276779Y-70294819D01*
X138276779Y-70294819D02*
X138514874Y-70294819D01*
X138514874Y-70294819D02*
X138657731Y-70342438D01*
X138657731Y-70342438D02*
X138752969Y-70437676D01*
X138752969Y-70437676D02*
X138800588Y-70532914D01*
X138800588Y-70532914D02*
X138848207Y-70723390D01*
X138848207Y-70723390D02*
X138848207Y-70866247D01*
X138848207Y-70866247D02*
X138800588Y-71056723D01*
X138800588Y-71056723D02*
X138752969Y-71151961D01*
X138752969Y-71151961D02*
X138657731Y-71247200D01*
X138657731Y-71247200D02*
X138514874Y-71294819D01*
X138514874Y-71294819D02*
X138276779Y-71294819D01*
X139467255Y-70294819D02*
X139657731Y-70294819D01*
X139657731Y-70294819D02*
X139752969Y-70342438D01*
X139752969Y-70342438D02*
X139848207Y-70437676D01*
X139848207Y-70437676D02*
X139895826Y-70628152D01*
X139895826Y-70628152D02*
X139895826Y-70961485D01*
X139895826Y-70961485D02*
X139848207Y-71151961D01*
X139848207Y-71151961D02*
X139752969Y-71247200D01*
X139752969Y-71247200D02*
X139657731Y-71294819D01*
X139657731Y-71294819D02*
X139467255Y-71294819D01*
X139467255Y-71294819D02*
X139372017Y-71247200D01*
X139372017Y-71247200D02*
X139276779Y-71151961D01*
X139276779Y-71151961D02*
X139229160Y-70961485D01*
X139229160Y-70961485D02*
X139229160Y-70628152D01*
X139229160Y-70628152D02*
X139276779Y-70437676D01*
X139276779Y-70437676D02*
X139372017Y-70342438D01*
X139372017Y-70342438D02*
X139467255Y-70294819D01*
X140324398Y-71294819D02*
X140324398Y-70294819D01*
X140324398Y-70294819D02*
X140895826Y-71294819D01*
X140895826Y-71294819D02*
X140895826Y-70294819D01*
X141372017Y-70771009D02*
X141705350Y-70771009D01*
X141848207Y-71294819D02*
X141372017Y-71294819D01*
X141372017Y-71294819D02*
X141372017Y-70294819D01*
X141372017Y-70294819D02*
X141848207Y-70294819D01*
X139329160Y-63547200D02*
X139472017Y-63594819D01*
X139472017Y-63594819D02*
X139710112Y-63594819D01*
X139710112Y-63594819D02*
X139805350Y-63547200D01*
X139805350Y-63547200D02*
X139852969Y-63499580D01*
X139852969Y-63499580D02*
X139900588Y-63404342D01*
X139900588Y-63404342D02*
X139900588Y-63309104D01*
X139900588Y-63309104D02*
X139852969Y-63213866D01*
X139852969Y-63213866D02*
X139805350Y-63166247D01*
X139805350Y-63166247D02*
X139710112Y-63118628D01*
X139710112Y-63118628D02*
X139519636Y-63071009D01*
X139519636Y-63071009D02*
X139424398Y-63023390D01*
X139424398Y-63023390D02*
X139376779Y-62975771D01*
X139376779Y-62975771D02*
X139329160Y-62880533D01*
X139329160Y-62880533D02*
X139329160Y-62785295D01*
X139329160Y-62785295D02*
X139376779Y-62690057D01*
X139376779Y-62690057D02*
X139424398Y-62642438D01*
X139424398Y-62642438D02*
X139519636Y-62594819D01*
X139519636Y-62594819D02*
X139757731Y-62594819D01*
X139757731Y-62594819D02*
X139900588Y-62642438D01*
X140900588Y-63499580D02*
X140852969Y-63547200D01*
X140852969Y-63547200D02*
X140710112Y-63594819D01*
X140710112Y-63594819D02*
X140614874Y-63594819D01*
X140614874Y-63594819D02*
X140472017Y-63547200D01*
X140472017Y-63547200D02*
X140376779Y-63451961D01*
X140376779Y-63451961D02*
X140329160Y-63356723D01*
X140329160Y-63356723D02*
X140281541Y-63166247D01*
X140281541Y-63166247D02*
X140281541Y-63023390D01*
X140281541Y-63023390D02*
X140329160Y-62832914D01*
X140329160Y-62832914D02*
X140376779Y-62737676D01*
X140376779Y-62737676D02*
X140472017Y-62642438D01*
X140472017Y-62642438D02*
X140614874Y-62594819D01*
X140614874Y-62594819D02*
X140710112Y-62594819D01*
X140710112Y-62594819D02*
X140852969Y-62642438D01*
X140852969Y-62642438D02*
X140900588Y-62690057D01*
X141805350Y-63594819D02*
X141329160Y-63594819D01*
X141329160Y-63594819D02*
X141329160Y-62594819D01*
X142846934Y-69253105D02*
X143180267Y-69253105D01*
X143323124Y-69776915D02*
X142846934Y-69776915D01*
X142846934Y-69776915D02*
X142846934Y-68776915D01*
X142846934Y-68776915D02*
X143323124Y-68776915D01*
X143704077Y-69729296D02*
X143846934Y-69776915D01*
X143846934Y-69776915D02*
X144085029Y-69776915D01*
X144085029Y-69776915D02*
X144180267Y-69729296D01*
X144180267Y-69729296D02*
X144227886Y-69681676D01*
X144227886Y-69681676D02*
X144275505Y-69586438D01*
X144275505Y-69586438D02*
X144275505Y-69491200D01*
X144275505Y-69491200D02*
X144227886Y-69395962D01*
X144227886Y-69395962D02*
X144180267Y-69348343D01*
X144180267Y-69348343D02*
X144085029Y-69300724D01*
X144085029Y-69300724D02*
X143894553Y-69253105D01*
X143894553Y-69253105D02*
X143799315Y-69205486D01*
X143799315Y-69205486D02*
X143751696Y-69157867D01*
X143751696Y-69157867D02*
X143704077Y-69062629D01*
X143704077Y-69062629D02*
X143704077Y-68967391D01*
X143704077Y-68967391D02*
X143751696Y-68872153D01*
X143751696Y-68872153D02*
X143799315Y-68824534D01*
X143799315Y-68824534D02*
X143894553Y-68776915D01*
X143894553Y-68776915D02*
X144132648Y-68776915D01*
X144132648Y-68776915D02*
X144275505Y-68824534D01*
X144704077Y-69776915D02*
X144704077Y-68776915D01*
X144704077Y-68776915D02*
X145085029Y-68776915D01*
X145085029Y-68776915D02*
X145180267Y-68824534D01*
X145180267Y-68824534D02*
X145227886Y-68872153D01*
X145227886Y-68872153D02*
X145275505Y-68967391D01*
X145275505Y-68967391D02*
X145275505Y-69110248D01*
X145275505Y-69110248D02*
X145227886Y-69205486D01*
X145227886Y-69205486D02*
X145180267Y-69253105D01*
X145180267Y-69253105D02*
X145085029Y-69300724D01*
X145085029Y-69300724D02*
X144704077Y-69300724D01*
X146227886Y-69776915D02*
X145656458Y-69776915D01*
X145942172Y-69776915D02*
X145942172Y-68776915D01*
X145942172Y-68776915D02*
X145846934Y-68919772D01*
X145846934Y-68919772D02*
X145751696Y-69015010D01*
X145751696Y-69015010D02*
X145656458Y-69062629D01*
X146608839Y-68872153D02*
X146656458Y-68824534D01*
X146656458Y-68824534D02*
X146751696Y-68776915D01*
X146751696Y-68776915D02*
X146989791Y-68776915D01*
X146989791Y-68776915D02*
X147085029Y-68824534D01*
X147085029Y-68824534D02*
X147132648Y-68872153D01*
X147132648Y-68872153D02*
X147180267Y-68967391D01*
X147180267Y-68967391D02*
X147180267Y-69062629D01*
X147180267Y-69062629D02*
X147132648Y-69205486D01*
X147132648Y-69205486D02*
X146561220Y-69776915D01*
X146561220Y-69776915D02*
X147180267Y-69776915D01*
X147370744Y-69872153D02*
X148132648Y-69872153D01*
X148704077Y-69253105D02*
X148846934Y-69300724D01*
X148846934Y-69300724D02*
X148894553Y-69348343D01*
X148894553Y-69348343D02*
X148942172Y-69443581D01*
X148942172Y-69443581D02*
X148942172Y-69586438D01*
X148942172Y-69586438D02*
X148894553Y-69681676D01*
X148894553Y-69681676D02*
X148846934Y-69729296D01*
X148846934Y-69729296D02*
X148751696Y-69776915D01*
X148751696Y-69776915D02*
X148370744Y-69776915D01*
X148370744Y-69776915D02*
X148370744Y-68776915D01*
X148370744Y-68776915D02*
X148704077Y-68776915D01*
X148704077Y-68776915D02*
X148799315Y-68824534D01*
X148799315Y-68824534D02*
X148846934Y-68872153D01*
X148846934Y-68872153D02*
X148894553Y-68967391D01*
X148894553Y-68967391D02*
X148894553Y-69062629D01*
X148894553Y-69062629D02*
X148846934Y-69157867D01*
X148846934Y-69157867D02*
X148799315Y-69205486D01*
X148799315Y-69205486D02*
X148704077Y-69253105D01*
X148704077Y-69253105D02*
X148370744Y-69253105D01*
X149799315Y-69776915D02*
X149799315Y-69253105D01*
X149799315Y-69253105D02*
X149751696Y-69157867D01*
X149751696Y-69157867D02*
X149656458Y-69110248D01*
X149656458Y-69110248D02*
X149465982Y-69110248D01*
X149465982Y-69110248D02*
X149370744Y-69157867D01*
X149799315Y-69729296D02*
X149704077Y-69776915D01*
X149704077Y-69776915D02*
X149465982Y-69776915D01*
X149465982Y-69776915D02*
X149370744Y-69729296D01*
X149370744Y-69729296D02*
X149323125Y-69634057D01*
X149323125Y-69634057D02*
X149323125Y-69538819D01*
X149323125Y-69538819D02*
X149370744Y-69443581D01*
X149370744Y-69443581D02*
X149465982Y-69395962D01*
X149465982Y-69395962D02*
X149704077Y-69395962D01*
X149704077Y-69395962D02*
X149799315Y-69348343D01*
X150227887Y-69729296D02*
X150323125Y-69776915D01*
X150323125Y-69776915D02*
X150513601Y-69776915D01*
X150513601Y-69776915D02*
X150608839Y-69729296D01*
X150608839Y-69729296D02*
X150656458Y-69634057D01*
X150656458Y-69634057D02*
X150656458Y-69586438D01*
X150656458Y-69586438D02*
X150608839Y-69491200D01*
X150608839Y-69491200D02*
X150513601Y-69443581D01*
X150513601Y-69443581D02*
X150370744Y-69443581D01*
X150370744Y-69443581D02*
X150275506Y-69395962D01*
X150275506Y-69395962D02*
X150227887Y-69300724D01*
X150227887Y-69300724D02*
X150227887Y-69253105D01*
X150227887Y-69253105D02*
X150275506Y-69157867D01*
X150275506Y-69157867D02*
X150370744Y-69110248D01*
X150370744Y-69110248D02*
X150513601Y-69110248D01*
X150513601Y-69110248D02*
X150608839Y-69157867D01*
X151465982Y-69729296D02*
X151370744Y-69776915D01*
X151370744Y-69776915D02*
X151180268Y-69776915D01*
X151180268Y-69776915D02*
X151085030Y-69729296D01*
X151085030Y-69729296D02*
X151037411Y-69634057D01*
X151037411Y-69634057D02*
X151037411Y-69253105D01*
X151037411Y-69253105D02*
X151085030Y-69157867D01*
X151085030Y-69157867D02*
X151180268Y-69110248D01*
X151180268Y-69110248D02*
X151370744Y-69110248D01*
X151370744Y-69110248D02*
X151465982Y-69157867D01*
X151465982Y-69157867D02*
X151513601Y-69253105D01*
X151513601Y-69253105D02*
X151513601Y-69348343D01*
X151513601Y-69348343D02*
X151037411Y-69443581D01*
X151704078Y-69872153D02*
X152465982Y-69872153D01*
X152561221Y-68776915D02*
X152894554Y-69776915D01*
X152894554Y-69776915D02*
X153227887Y-68776915D01*
X154085030Y-69776915D02*
X153513602Y-69776915D01*
X153799316Y-69776915D02*
X153799316Y-68776915D01*
X153799316Y-68776915D02*
X153704078Y-68919772D01*
X153704078Y-68919772D02*
X153608840Y-69015010D01*
X153608840Y-69015010D02*
X153513602Y-69062629D01*
X154513602Y-69681676D02*
X154561221Y-69729296D01*
X154561221Y-69729296D02*
X154513602Y-69776915D01*
X154513602Y-69776915D02*
X154465983Y-69729296D01*
X154465983Y-69729296D02*
X154513602Y-69681676D01*
X154513602Y-69681676D02*
X154513602Y-69776915D01*
X155180268Y-68776915D02*
X155275506Y-68776915D01*
X155275506Y-68776915D02*
X155370744Y-68824534D01*
X155370744Y-68824534D02*
X155418363Y-68872153D01*
X155418363Y-68872153D02*
X155465982Y-68967391D01*
X155465982Y-68967391D02*
X155513601Y-69157867D01*
X155513601Y-69157867D02*
X155513601Y-69395962D01*
X155513601Y-69395962D02*
X155465982Y-69586438D01*
X155465982Y-69586438D02*
X155418363Y-69681676D01*
X155418363Y-69681676D02*
X155370744Y-69729296D01*
X155370744Y-69729296D02*
X155275506Y-69776915D01*
X155275506Y-69776915D02*
X155180268Y-69776915D01*
X155180268Y-69776915D02*
X155085030Y-69729296D01*
X155085030Y-69729296D02*
X155037411Y-69681676D01*
X155037411Y-69681676D02*
X154989792Y-69586438D01*
X154989792Y-69586438D02*
X154942173Y-69395962D01*
X154942173Y-69395962D02*
X154942173Y-69157867D01*
X154942173Y-69157867D02*
X154989792Y-68967391D01*
X154989792Y-68967391D02*
X155037411Y-68872153D01*
X155037411Y-68872153D02*
X155085030Y-68824534D01*
X155085030Y-68824534D02*
X155180268Y-68776915D01*
X145489791Y-70386915D02*
X145585029Y-70386915D01*
X145585029Y-70386915D02*
X145680267Y-70434534D01*
X145680267Y-70434534D02*
X145727886Y-70482153D01*
X145727886Y-70482153D02*
X145775505Y-70577391D01*
X145775505Y-70577391D02*
X145823124Y-70767867D01*
X145823124Y-70767867D02*
X145823124Y-71005962D01*
X145823124Y-71005962D02*
X145775505Y-71196438D01*
X145775505Y-71196438D02*
X145727886Y-71291676D01*
X145727886Y-71291676D02*
X145680267Y-71339296D01*
X145680267Y-71339296D02*
X145585029Y-71386915D01*
X145585029Y-71386915D02*
X145489791Y-71386915D01*
X145489791Y-71386915D02*
X145394553Y-71339296D01*
X145394553Y-71339296D02*
X145346934Y-71291676D01*
X145346934Y-71291676D02*
X145299315Y-71196438D01*
X145299315Y-71196438D02*
X145251696Y-71005962D01*
X145251696Y-71005962D02*
X145251696Y-70767867D01*
X145251696Y-70767867D02*
X145299315Y-70577391D01*
X145299315Y-70577391D02*
X145346934Y-70482153D01*
X145346934Y-70482153D02*
X145394553Y-70434534D01*
X145394553Y-70434534D02*
X145489791Y-70386915D01*
X146680267Y-70720248D02*
X146680267Y-71386915D01*
X146442172Y-70339296D02*
X146204077Y-71053581D01*
X146204077Y-71053581D02*
X146823124Y-71053581D01*
X147204077Y-71005962D02*
X147965982Y-71005962D01*
X148632648Y-70386915D02*
X148727886Y-70386915D01*
X148727886Y-70386915D02*
X148823124Y-70434534D01*
X148823124Y-70434534D02*
X148870743Y-70482153D01*
X148870743Y-70482153D02*
X148918362Y-70577391D01*
X148918362Y-70577391D02*
X148965981Y-70767867D01*
X148965981Y-70767867D02*
X148965981Y-71005962D01*
X148965981Y-71005962D02*
X148918362Y-71196438D01*
X148918362Y-71196438D02*
X148870743Y-71291676D01*
X148870743Y-71291676D02*
X148823124Y-71339296D01*
X148823124Y-71339296D02*
X148727886Y-71386915D01*
X148727886Y-71386915D02*
X148632648Y-71386915D01*
X148632648Y-71386915D02*
X148537410Y-71339296D01*
X148537410Y-71339296D02*
X148489791Y-71291676D01*
X148489791Y-71291676D02*
X148442172Y-71196438D01*
X148442172Y-71196438D02*
X148394553Y-71005962D01*
X148394553Y-71005962D02*
X148394553Y-70767867D01*
X148394553Y-70767867D02*
X148442172Y-70577391D01*
X148442172Y-70577391D02*
X148489791Y-70482153D01*
X148489791Y-70482153D02*
X148537410Y-70434534D01*
X148537410Y-70434534D02*
X148632648Y-70386915D01*
X149918362Y-71386915D02*
X149346934Y-71386915D01*
X149632648Y-71386915D02*
X149632648Y-70386915D01*
X149632648Y-70386915D02*
X149537410Y-70529772D01*
X149537410Y-70529772D02*
X149442172Y-70625010D01*
X149442172Y-70625010D02*
X149346934Y-70672629D01*
X150346934Y-71005962D02*
X151108839Y-71005962D01*
X151537410Y-70482153D02*
X151585029Y-70434534D01*
X151585029Y-70434534D02*
X151680267Y-70386915D01*
X151680267Y-70386915D02*
X151918362Y-70386915D01*
X151918362Y-70386915D02*
X152013600Y-70434534D01*
X152013600Y-70434534D02*
X152061219Y-70482153D01*
X152061219Y-70482153D02*
X152108838Y-70577391D01*
X152108838Y-70577391D02*
X152108838Y-70672629D01*
X152108838Y-70672629D02*
X152061219Y-70815486D01*
X152061219Y-70815486D02*
X151489791Y-71386915D01*
X151489791Y-71386915D02*
X152108838Y-71386915D01*
X152965981Y-70720248D02*
X152965981Y-71386915D01*
X152727886Y-70339296D02*
X152489791Y-71053581D01*
X152489791Y-71053581D02*
X153108838Y-71053581D01*
X157836779Y-70946009D02*
X158170112Y-70946009D01*
X158312969Y-71469819D02*
X157836779Y-71469819D01*
X157836779Y-71469819D02*
X157836779Y-70469819D01*
X157836779Y-70469819D02*
X158312969Y-70469819D01*
X158741541Y-71469819D02*
X158741541Y-70469819D01*
X158741541Y-70469819D02*
X159312969Y-71469819D01*
X159312969Y-71469819D02*
X159312969Y-70469819D01*
X138781541Y-75294819D02*
X139400588Y-75294819D01*
X139400588Y-75294819D02*
X139067255Y-75675771D01*
X139067255Y-75675771D02*
X139210112Y-75675771D01*
X139210112Y-75675771D02*
X139305350Y-75723390D01*
X139305350Y-75723390D02*
X139352969Y-75771009D01*
X139352969Y-75771009D02*
X139400588Y-75866247D01*
X139400588Y-75866247D02*
X139400588Y-76104342D01*
X139400588Y-76104342D02*
X139352969Y-76199580D01*
X139352969Y-76199580D02*
X139305350Y-76247200D01*
X139305350Y-76247200D02*
X139210112Y-76294819D01*
X139210112Y-76294819D02*
X138924398Y-76294819D01*
X138924398Y-76294819D02*
X138829160Y-76247200D01*
X138829160Y-76247200D02*
X138781541Y-76199580D01*
X139829160Y-76199580D02*
X139876779Y-76247200D01*
X139876779Y-76247200D02*
X139829160Y-76294819D01*
X139829160Y-76294819D02*
X139781541Y-76247200D01*
X139781541Y-76247200D02*
X139829160Y-76199580D01*
X139829160Y-76199580D02*
X139829160Y-76294819D01*
X140210112Y-75294819D02*
X140829159Y-75294819D01*
X140829159Y-75294819D02*
X140495826Y-75675771D01*
X140495826Y-75675771D02*
X140638683Y-75675771D01*
X140638683Y-75675771D02*
X140733921Y-75723390D01*
X140733921Y-75723390D02*
X140781540Y-75771009D01*
X140781540Y-75771009D02*
X140829159Y-75866247D01*
X140829159Y-75866247D02*
X140829159Y-76104342D01*
X140829159Y-76104342D02*
X140781540Y-76199580D01*
X140781540Y-76199580D02*
X140733921Y-76247200D01*
X140733921Y-76247200D02*
X140638683Y-76294819D01*
X140638683Y-76294819D02*
X140352969Y-76294819D01*
X140352969Y-76294819D02*
X140257731Y-76247200D01*
X140257731Y-76247200D02*
X140210112Y-76199580D01*
X141114874Y-75294819D02*
X141448207Y-76294819D01*
X141448207Y-76294819D02*
X141781540Y-75294819D01*
X139700588Y-77842438D02*
X139605350Y-77794819D01*
X139605350Y-77794819D02*
X139462493Y-77794819D01*
X139462493Y-77794819D02*
X139319636Y-77842438D01*
X139319636Y-77842438D02*
X139224398Y-77937676D01*
X139224398Y-77937676D02*
X139176779Y-78032914D01*
X139176779Y-78032914D02*
X139129160Y-78223390D01*
X139129160Y-78223390D02*
X139129160Y-78366247D01*
X139129160Y-78366247D02*
X139176779Y-78556723D01*
X139176779Y-78556723D02*
X139224398Y-78651961D01*
X139224398Y-78651961D02*
X139319636Y-78747200D01*
X139319636Y-78747200D02*
X139462493Y-78794819D01*
X139462493Y-78794819D02*
X139557731Y-78794819D01*
X139557731Y-78794819D02*
X139700588Y-78747200D01*
X139700588Y-78747200D02*
X139748207Y-78699580D01*
X139748207Y-78699580D02*
X139748207Y-78366247D01*
X139748207Y-78366247D02*
X139557731Y-78366247D01*
X140176779Y-78794819D02*
X140176779Y-77794819D01*
X140176779Y-77794819D02*
X140748207Y-78794819D01*
X140748207Y-78794819D02*
X140748207Y-77794819D01*
X141224398Y-78794819D02*
X141224398Y-77794819D01*
X141224398Y-77794819D02*
X141462493Y-77794819D01*
X141462493Y-77794819D02*
X141605350Y-77842438D01*
X141605350Y-77842438D02*
X141700588Y-77937676D01*
X141700588Y-77937676D02*
X141748207Y-78032914D01*
X141748207Y-78032914D02*
X141795826Y-78223390D01*
X141795826Y-78223390D02*
X141795826Y-78366247D01*
X141795826Y-78366247D02*
X141748207Y-78556723D01*
X141748207Y-78556723D02*
X141700588Y-78651961D01*
X141700588Y-78651961D02*
X141605350Y-78747200D01*
X141605350Y-78747200D02*
X141462493Y-78794819D01*
X141462493Y-78794819D02*
X141224398Y-78794819D01*
X139329160Y-66147200D02*
X139472017Y-66194819D01*
X139472017Y-66194819D02*
X139710112Y-66194819D01*
X139710112Y-66194819D02*
X139805350Y-66147200D01*
X139805350Y-66147200D02*
X139852969Y-66099580D01*
X139852969Y-66099580D02*
X139900588Y-66004342D01*
X139900588Y-66004342D02*
X139900588Y-65909104D01*
X139900588Y-65909104D02*
X139852969Y-65813866D01*
X139852969Y-65813866D02*
X139805350Y-65766247D01*
X139805350Y-65766247D02*
X139710112Y-65718628D01*
X139710112Y-65718628D02*
X139519636Y-65671009D01*
X139519636Y-65671009D02*
X139424398Y-65623390D01*
X139424398Y-65623390D02*
X139376779Y-65575771D01*
X139376779Y-65575771D02*
X139329160Y-65480533D01*
X139329160Y-65480533D02*
X139329160Y-65385295D01*
X139329160Y-65385295D02*
X139376779Y-65290057D01*
X139376779Y-65290057D02*
X139424398Y-65242438D01*
X139424398Y-65242438D02*
X139519636Y-65194819D01*
X139519636Y-65194819D02*
X139757731Y-65194819D01*
X139757731Y-65194819D02*
X139900588Y-65242438D01*
X140329160Y-66194819D02*
X140329160Y-65194819D01*
X140329160Y-65194819D02*
X140567255Y-65194819D01*
X140567255Y-65194819D02*
X140710112Y-65242438D01*
X140710112Y-65242438D02*
X140805350Y-65337676D01*
X140805350Y-65337676D02*
X140852969Y-65432914D01*
X140852969Y-65432914D02*
X140900588Y-65623390D01*
X140900588Y-65623390D02*
X140900588Y-65766247D01*
X140900588Y-65766247D02*
X140852969Y-65956723D01*
X140852969Y-65956723D02*
X140805350Y-66051961D01*
X140805350Y-66051961D02*
X140710112Y-66147200D01*
X140710112Y-66147200D02*
X140567255Y-66194819D01*
X140567255Y-66194819D02*
X140329160Y-66194819D01*
X141281541Y-65909104D02*
X141757731Y-65909104D01*
X141186303Y-66194819D02*
X141519636Y-65194819D01*
X141519636Y-65194819D02*
X141852969Y-66194819D01*
X156524873Y-60169819D02*
X157143920Y-60169819D01*
X157143920Y-60169819D02*
X156810587Y-60550771D01*
X156810587Y-60550771D02*
X156953444Y-60550771D01*
X156953444Y-60550771D02*
X157048682Y-60598390D01*
X157048682Y-60598390D02*
X157096301Y-60646009D01*
X157096301Y-60646009D02*
X157143920Y-60741247D01*
X157143920Y-60741247D02*
X157143920Y-60979342D01*
X157143920Y-60979342D02*
X157096301Y-61074580D01*
X157096301Y-61074580D02*
X157048682Y-61122200D01*
X157048682Y-61122200D02*
X156953444Y-61169819D01*
X156953444Y-61169819D02*
X156667730Y-61169819D01*
X156667730Y-61169819D02*
X156572492Y-61122200D01*
X156572492Y-61122200D02*
X156524873Y-61074580D01*
X157572492Y-61074580D02*
X157620111Y-61122200D01*
X157620111Y-61122200D02*
X157572492Y-61169819D01*
X157572492Y-61169819D02*
X157524873Y-61122200D01*
X157524873Y-61122200D02*
X157572492Y-61074580D01*
X157572492Y-61074580D02*
X157572492Y-61169819D01*
X157953444Y-60169819D02*
X158572491Y-60169819D01*
X158572491Y-60169819D02*
X158239158Y-60550771D01*
X158239158Y-60550771D02*
X158382015Y-60550771D01*
X158382015Y-60550771D02*
X158477253Y-60598390D01*
X158477253Y-60598390D02*
X158524872Y-60646009D01*
X158524872Y-60646009D02*
X158572491Y-60741247D01*
X158572491Y-60741247D02*
X158572491Y-60979342D01*
X158572491Y-60979342D02*
X158524872Y-61074580D01*
X158524872Y-61074580D02*
X158477253Y-61122200D01*
X158477253Y-61122200D02*
X158382015Y-61169819D01*
X158382015Y-61169819D02*
X158096301Y-61169819D01*
X158096301Y-61169819D02*
X158001063Y-61122200D01*
X158001063Y-61122200D02*
X157953444Y-61074580D01*
X158858206Y-60169819D02*
X159191539Y-61169819D01*
X159191539Y-61169819D02*
X159524872Y-60169819D01*
X137366666Y-82624819D02*
X137366666Y-83339104D01*
X137366666Y-83339104D02*
X137319047Y-83481961D01*
X137319047Y-83481961D02*
X137223809Y-83577200D01*
X137223809Y-83577200D02*
X137080952Y-83624819D01*
X137080952Y-83624819D02*
X136985714Y-83624819D01*
X138366666Y-83624819D02*
X137795238Y-83624819D01*
X138080952Y-83624819D02*
X138080952Y-82624819D01*
X138080952Y-82624819D02*
X137985714Y-82767676D01*
X137985714Y-82767676D02*
X137890476Y-82862914D01*
X137890476Y-82862914D02*
X137795238Y-82910533D01*
X144191667Y-77507200D02*
X144334524Y-77554819D01*
X144334524Y-77554819D02*
X144572619Y-77554819D01*
X144572619Y-77554819D02*
X144667857Y-77507200D01*
X144667857Y-77507200D02*
X144715476Y-77459580D01*
X144715476Y-77459580D02*
X144763095Y-77364342D01*
X144763095Y-77364342D02*
X144763095Y-77269104D01*
X144763095Y-77269104D02*
X144715476Y-77173866D01*
X144715476Y-77173866D02*
X144667857Y-77126247D01*
X144667857Y-77126247D02*
X144572619Y-77078628D01*
X144572619Y-77078628D02*
X144382143Y-77031009D01*
X144382143Y-77031009D02*
X144286905Y-76983390D01*
X144286905Y-76983390D02*
X144239286Y-76935771D01*
X144239286Y-76935771D02*
X144191667Y-76840533D01*
X144191667Y-76840533D02*
X144191667Y-76745295D01*
X144191667Y-76745295D02*
X144239286Y-76650057D01*
X144239286Y-76650057D02*
X144286905Y-76602438D01*
X144286905Y-76602438D02*
X144382143Y-76554819D01*
X144382143Y-76554819D02*
X144620238Y-76554819D01*
X144620238Y-76554819D02*
X144763095Y-76602438D01*
X145096429Y-76554819D02*
X145334524Y-77554819D01*
X145334524Y-77554819D02*
X145525000Y-76840533D01*
X145525000Y-76840533D02*
X145715476Y-77554819D01*
X145715476Y-77554819D02*
X145953572Y-76554819D01*
X146239286Y-76554819D02*
X146905952Y-76554819D01*
X146905952Y-76554819D02*
X146477381Y-77554819D01*
X160366666Y-57624819D02*
X160366666Y-58339104D01*
X160366666Y-58339104D02*
X160319047Y-58481961D01*
X160319047Y-58481961D02*
X160223809Y-58577200D01*
X160223809Y-58577200D02*
X160080952Y-58624819D01*
X160080952Y-58624819D02*
X159985714Y-58624819D01*
X160747619Y-57624819D02*
X161366666Y-57624819D01*
X161366666Y-57624819D02*
X161033333Y-58005771D01*
X161033333Y-58005771D02*
X161176190Y-58005771D01*
X161176190Y-58005771D02*
X161271428Y-58053390D01*
X161271428Y-58053390D02*
X161319047Y-58101009D01*
X161319047Y-58101009D02*
X161366666Y-58196247D01*
X161366666Y-58196247D02*
X161366666Y-58434342D01*
X161366666Y-58434342D02*
X161319047Y-58529580D01*
X161319047Y-58529580D02*
X161271428Y-58577200D01*
X161271428Y-58577200D02*
X161176190Y-58624819D01*
X161176190Y-58624819D02*
X160890476Y-58624819D01*
X160890476Y-58624819D02*
X160795238Y-58577200D01*
X160795238Y-58577200D02*
X160747619Y-58529580D01*
X151566667Y-82707200D02*
X151709524Y-82754819D01*
X151709524Y-82754819D02*
X151947619Y-82754819D01*
X151947619Y-82754819D02*
X152042857Y-82707200D01*
X152042857Y-82707200D02*
X152090476Y-82659580D01*
X152090476Y-82659580D02*
X152138095Y-82564342D01*
X152138095Y-82564342D02*
X152138095Y-82469104D01*
X152138095Y-82469104D02*
X152090476Y-82373866D01*
X152090476Y-82373866D02*
X152042857Y-82326247D01*
X152042857Y-82326247D02*
X151947619Y-82278628D01*
X151947619Y-82278628D02*
X151757143Y-82231009D01*
X151757143Y-82231009D02*
X151661905Y-82183390D01*
X151661905Y-82183390D02*
X151614286Y-82135771D01*
X151614286Y-82135771D02*
X151566667Y-82040533D01*
X151566667Y-82040533D02*
X151566667Y-81945295D01*
X151566667Y-81945295D02*
X151614286Y-81850057D01*
X151614286Y-81850057D02*
X151661905Y-81802438D01*
X151661905Y-81802438D02*
X151757143Y-81754819D01*
X151757143Y-81754819D02*
X151995238Y-81754819D01*
X151995238Y-81754819D02*
X152138095Y-81802438D01*
X152471429Y-81754819D02*
X152709524Y-82754819D01*
X152709524Y-82754819D02*
X152900000Y-82040533D01*
X152900000Y-82040533D02*
X153090476Y-82754819D01*
X153090476Y-82754819D02*
X153328572Y-81754819D01*
X153661905Y-81850057D02*
X153709524Y-81802438D01*
X153709524Y-81802438D02*
X153804762Y-81754819D01*
X153804762Y-81754819D02*
X154042857Y-81754819D01*
X154042857Y-81754819D02*
X154138095Y-81802438D01*
X154138095Y-81802438D02*
X154185714Y-81850057D01*
X154185714Y-81850057D02*
X154233333Y-81945295D01*
X154233333Y-81945295D02*
X154233333Y-82040533D01*
X154233333Y-82040533D02*
X154185714Y-82183390D01*
X154185714Y-82183390D02*
X153614286Y-82754819D01*
X153614286Y-82754819D02*
X154233333Y-82754819D01*
D11*
X139030000Y-82170000D02*
X137700000Y-82170000D01*
X139030000Y-80840000D02*
X139030000Y-82170000D01*
X139030000Y-79570000D02*
X139030000Y-59190000D01*
X139030000Y-79570000D02*
X136370000Y-79570000D01*
X139030000Y-59190000D02*
X136370000Y-59190000D01*
X136370000Y-79570000D02*
X136370000Y-59190000D01*
X143325000Y-78000000D02*
X143325000Y-78120000D01*
X143325000Y-79130000D02*
X143325000Y-80270000D01*
X143325000Y-81280000D02*
X143325000Y-81400000D01*
X143325000Y-81400000D02*
X147725000Y-81400000D01*
X147725000Y-78000000D02*
X143325000Y-78000000D01*
X147725000Y-78120000D02*
X147725000Y-78000000D01*
X147725000Y-80270000D02*
X147725000Y-79130000D01*
X147725000Y-81400000D02*
X147725000Y-81280000D01*
X159370000Y-59170000D02*
X160700000Y-59170000D01*
X159370000Y-60500000D02*
X159370000Y-59170000D01*
X159370000Y-61770000D02*
X159370000Y-82150000D01*
X159370000Y-61770000D02*
X162030000Y-61770000D01*
X159370000Y-82150000D02*
X162030000Y-82150000D01*
X162030000Y-61770000D02*
X162030000Y-82150000D01*
X155100000Y-81400000D02*
X155100000Y-81280000D01*
X155100000Y-80270000D02*
X155100000Y-79130000D01*
X155100000Y-78120000D02*
X155100000Y-78000000D01*
X155100000Y-78000000D02*
X150700000Y-78000000D01*
X150700000Y-81400000D02*
X155100000Y-81400000D01*
X150700000Y-81280000D02*
X150700000Y-81400000D01*
X150700000Y-79130000D02*
X150700000Y-80270000D01*
X150700000Y-78000000D02*
X150700000Y-78120000D01*
G36*
X150480427Y-63988330D02*
G01*
X150499885Y-64015419D01*
X150515426Y-64069745D01*
X150519786Y-64091462D01*
X150543038Y-64174881D01*
X150578369Y-64231823D01*
X150629800Y-64265820D01*
X150701356Y-64280402D01*
X150736394Y-64281590D01*
X150811172Y-64275525D01*
X150872726Y-64258872D01*
X150913836Y-64233946D01*
X150923198Y-64221699D01*
X150933389Y-64191747D01*
X150943773Y-64144643D01*
X150948074Y-64118471D01*
X150964604Y-64049580D01*
X150992010Y-64007312D01*
X151033058Y-63988293D01*
X151056453Y-63986422D01*
X151108289Y-63996439D01*
X151142483Y-64028038D01*
X151160594Y-64083540D01*
X151164548Y-64147288D01*
X151150664Y-64250212D01*
X151111111Y-64336246D01*
X151046762Y-64404648D01*
X150958490Y-64454679D01*
X150847170Y-64485599D01*
X150753517Y-64495598D01*
X150686214Y-64497889D01*
X150638985Y-64495659D01*
X150600942Y-64486980D01*
X150561196Y-64469925D01*
X150536290Y-64457132D01*
X150450718Y-64397125D01*
X150389267Y-64321319D01*
X150354551Y-64233222D01*
X150350008Y-64207074D01*
X150346995Y-64123076D01*
X150363435Y-64060296D01*
X150400617Y-64014742D01*
X150415685Y-64004044D01*
X150453533Y-63985523D01*
X150480427Y-63988330D01*
G37*
G36*
X148547576Y-64015965D02*
G01*
X148582268Y-64053207D01*
X148601632Y-64106509D01*
X148602206Y-64162618D01*
X148574387Y-64256374D01*
X148522459Y-64348367D01*
X148452642Y-64430090D01*
X148371156Y-64493035D01*
X148353333Y-64502972D01*
X148278740Y-64528536D01*
X148177449Y-64541165D01*
X148174679Y-64541312D01*
X148107554Y-64542962D01*
X148058254Y-64538199D01*
X148013827Y-64524896D01*
X147977834Y-64508952D01*
X147887106Y-64452517D01*
X147810565Y-64379268D01*
X147752549Y-64295178D01*
X147717391Y-64206221D01*
X147708624Y-64137996D01*
X147712234Y-64088377D01*
X147726481Y-64056331D01*
X147749557Y-64034155D01*
X147802749Y-64007564D01*
X147857598Y-64005161D01*
X147904341Y-64027110D01*
X147909027Y-64031473D01*
X147929678Y-64062605D01*
X147951450Y-64111347D01*
X147964008Y-64148585D01*
X147984906Y-64206673D01*
X148010140Y-64243957D01*
X148039354Y-64266595D01*
X148105454Y-64290990D01*
X148182527Y-64295460D01*
X148257629Y-64279912D01*
X148283667Y-64268360D01*
X148332625Y-64232488D01*
X148374383Y-64184680D01*
X148401472Y-64134826D01*
X148407706Y-64104095D01*
X148420585Y-64053579D01*
X148454070Y-64016750D01*
X148500437Y-64001972D01*
X148502027Y-64001957D01*
X148547576Y-64015965D01*
G37*
G36*
X147679245Y-61002876D02*
G01*
X147764168Y-61020616D01*
X147846283Y-61048208D01*
X147929283Y-61087966D01*
X148016863Y-61142204D01*
X148112717Y-61213237D01*
X148220539Y-61303377D01*
X148344024Y-61414940D01*
X148358315Y-61428239D01*
X148424801Y-61488341D01*
X148489107Y-61543050D01*
X148545364Y-61587608D01*
X148587704Y-61617259D01*
X148599980Y-61624149D01*
X148635152Y-61639044D01*
X148675742Y-61651519D01*
X148724520Y-61661745D01*
X148784254Y-61669891D01*
X148857713Y-61676126D01*
X148947665Y-61680621D01*
X149056878Y-61683544D01*
X149188122Y-61685065D01*
X149344164Y-61685355D01*
X149527774Y-61684581D01*
X149580612Y-61684226D01*
X150248624Y-61679449D01*
X150339922Y-61636685D01*
X150396779Y-61607403D01*
X150460540Y-61569054D01*
X150534885Y-61519112D01*
X150623495Y-61455054D01*
X150730051Y-61374353D01*
X150789994Y-61327919D01*
X150919192Y-61233566D01*
X151036252Y-61162597D01*
X151146608Y-61112771D01*
X151255693Y-61081846D01*
X151368938Y-61067581D01*
X151424830Y-61065995D01*
X151546984Y-61075748D01*
X151652239Y-61107371D01*
X151748326Y-61163788D01*
X151803073Y-61209181D01*
X151885210Y-61298893D01*
X151942191Y-61397719D01*
X151978959Y-61514407D01*
X151981034Y-61524098D01*
X151989368Y-61585087D01*
X151995061Y-61671447D01*
X151998159Y-61777595D01*
X151998708Y-61897949D01*
X151996755Y-62026926D01*
X151992347Y-62158942D01*
X151985528Y-62288415D01*
X151976346Y-62409762D01*
X151973442Y-62440673D01*
X151956124Y-62628897D01*
X151944218Y-62791815D01*
X151937929Y-62934747D01*
X151937461Y-63063019D01*
X151943018Y-63181952D01*
X151954806Y-63296870D01*
X151973028Y-63413096D01*
X151997889Y-63535953D01*
X152019039Y-63627448D01*
X152040603Y-63723660D01*
X152060845Y-63825515D01*
X152077638Y-63921573D01*
X152088859Y-64000392D01*
X152089720Y-64008059D01*
X152099149Y-64094411D01*
X152108381Y-64154912D01*
X152121555Y-64194477D01*
X152142808Y-64218020D01*
X152176278Y-64230458D01*
X152226102Y-64236706D01*
X152285750Y-64240914D01*
X152399601Y-64250619D01*
X152533681Y-64264816D01*
X152677680Y-64282281D01*
X152821287Y-64301791D01*
X152909021Y-64314908D01*
X152968669Y-64325552D01*
X153003309Y-64335999D01*
X153018891Y-64348676D01*
X153021651Y-64360851D01*
X153009186Y-64390445D01*
X152991375Y-64405446D01*
X152967184Y-64411043D01*
X152917086Y-64417333D01*
X152846224Y-64423857D01*
X152759739Y-64430156D01*
X152662773Y-64435772D01*
X152637950Y-64436994D01*
X152504515Y-64443423D01*
X152398446Y-64449010D01*
X152316069Y-64454339D01*
X152253714Y-64459992D01*
X152207707Y-64466554D01*
X152174376Y-64474607D01*
X152150049Y-64484735D01*
X152131054Y-64497519D01*
X152113718Y-64513545D01*
X152105961Y-64521472D01*
X152076435Y-64557357D01*
X152069474Y-64579743D01*
X152072656Y-64583691D01*
X152084227Y-64606511D01*
X152088902Y-64649739D01*
X152086973Y-64703556D01*
X152078731Y-64758143D01*
X152066239Y-64799622D01*
X152051310Y-64837155D01*
X152043344Y-64860697D01*
X152042936Y-64863113D01*
X152048854Y-64872537D01*
X152068518Y-64882947D01*
X152104793Y-64895104D01*
X152160543Y-64909773D01*
X152238634Y-64927713D01*
X152341929Y-64949688D01*
X152455707Y-64972919D01*
X152632850Y-65009312D01*
X152794753Y-65043928D01*
X152938996Y-65076190D01*
X153063159Y-65105519D01*
X153164822Y-65131339D01*
X153241565Y-65153070D01*
X153290969Y-65170135D01*
X153301189Y-65174813D01*
X153333838Y-65198889D01*
X153347061Y-65223189D01*
X153338960Y-65240562D01*
X153319745Y-65244770D01*
X153291595Y-65240997D01*
X153243245Y-65231036D01*
X153184457Y-65216927D01*
X153176045Y-65214761D01*
X153086536Y-65192488D01*
X152978458Y-65167136D01*
X152858241Y-65140068D01*
X152732312Y-65112650D01*
X152607100Y-65086246D01*
X152489032Y-65062221D01*
X152384537Y-65041939D01*
X152300042Y-65026765D01*
X152262306Y-65020780D01*
X152191440Y-65010557D01*
X152140237Y-65005607D01*
X152100255Y-65007972D01*
X152063056Y-65019692D01*
X152020199Y-65042806D01*
X151963242Y-65079354D01*
X151930306Y-65101028D01*
X151877771Y-65136679D01*
X151846429Y-65162550D01*
X151830894Y-65184952D01*
X151825780Y-65210196D01*
X151825443Y-65223893D01*
X151827835Y-65261219D01*
X151836860Y-65293647D01*
X151855295Y-65322701D01*
X151885917Y-65349908D01*
X151931500Y-65376794D01*
X151994823Y-65404884D01*
X152078660Y-65435705D01*
X152185788Y-65470783D01*
X152318983Y-65511644D01*
X152384709Y-65531296D01*
X152494501Y-65564111D01*
X152598041Y-65595340D01*
X152690496Y-65623503D01*
X152767034Y-65647122D01*
X152822822Y-65664715D01*
X152850765Y-65673986D01*
X152897184Y-65693254D01*
X152945916Y-65717763D01*
X152989761Y-65743249D01*
X153021520Y-65765448D01*
X153033992Y-65780096D01*
X153033261Y-65782070D01*
X153017071Y-65780079D01*
X152975074Y-65771028D01*
X152911455Y-65755980D01*
X152830398Y-65735999D01*
X152736087Y-65712146D01*
X152632705Y-65685485D01*
X152524436Y-65657078D01*
X152415464Y-65627989D01*
X152309973Y-65599279D01*
X152268196Y-65587725D01*
X152133871Y-65551272D01*
X152027385Y-65524426D01*
X151947138Y-65506856D01*
X151891531Y-65498231D01*
X151858965Y-65498219D01*
X151850884Y-65501293D01*
X151826958Y-65519166D01*
X151788848Y-65547853D01*
X151764440Y-65566292D01*
X151717461Y-65597214D01*
X151683163Y-65607452D01*
X151665027Y-65604709D01*
X151617059Y-65596213D01*
X151566887Y-65597955D01*
X151532591Y-65608416D01*
X151522797Y-65629782D01*
X151516430Y-65675878D01*
X151514399Y-65731161D01*
X151508591Y-65819663D01*
X151489034Y-65892673D01*
X151451623Y-65959046D01*
X151392250Y-66027638D01*
X151364170Y-66055091D01*
X151214968Y-66178305D01*
X151040009Y-66290893D01*
X150843300Y-66391137D01*
X150628849Y-66477322D01*
X150400662Y-66547731D01*
X150162748Y-66600650D01*
X150046620Y-66619285D01*
X149934159Y-66630875D01*
X149799890Y-66637969D01*
X149652745Y-66640562D01*
X149501661Y-66638653D01*
X149355571Y-66632237D01*
X149223410Y-66621312D01*
X149207768Y-66619567D01*
X148851952Y-66563110D01*
X148497326Y-66476383D01*
X148146439Y-66360158D01*
X147801839Y-66215205D01*
X147685745Y-66159107D01*
X147468856Y-66040690D01*
X147280201Y-65916399D01*
X147120482Y-65786787D01*
X146990400Y-65652404D01*
X146917139Y-65555474D01*
X146884535Y-65507054D01*
X146859058Y-65469533D01*
X146845266Y-65449616D01*
X146844235Y-65448240D01*
X146830136Y-65447768D01*
X146793031Y-65453865D01*
X146731668Y-65466818D01*
X146644796Y-65486910D01*
X146531166Y-65514427D01*
X146389525Y-65549655D01*
X146294924Y-65573510D01*
X146126017Y-65616955D01*
X145986410Y-65654378D01*
X145874991Y-65686111D01*
X145790646Y-65712486D01*
X145732261Y-65733834D01*
X145698722Y-65750486D01*
X145697640Y-65751227D01*
X145663881Y-65770310D01*
X145646968Y-65765628D01*
X145642446Y-65737058D01*
X145656935Y-65689713D01*
X145700742Y-65649081D01*
X145774379Y-65614750D01*
X145809713Y-65603440D01*
X145862556Y-65588507D01*
X145937944Y-65567810D01*
X146030280Y-65542830D01*
X146133969Y-65515047D01*
X146243414Y-65485943D01*
X146353019Y-65456998D01*
X146457187Y-65429694D01*
X146550323Y-65405512D01*
X146626830Y-65385932D01*
X146681112Y-65372436D01*
X146694954Y-65369163D01*
X146741990Y-65357279D01*
X146766214Y-65344985D01*
X146775180Y-65325289D01*
X146776446Y-65293710D01*
X146771143Y-65250237D01*
X146757304Y-65190786D01*
X146737936Y-65128257D01*
X146718901Y-65070060D01*
X146705049Y-65019427D01*
X146699202Y-64986756D01*
X146699166Y-64985473D01*
X146699015Y-64969098D01*
X146697075Y-64956103D01*
X146690599Y-64946822D01*
X146676838Y-64941594D01*
X146653043Y-64940754D01*
X146616467Y-64944639D01*
X146564360Y-64953585D01*
X146493974Y-64967928D01*
X146402561Y-64988006D01*
X146287373Y-65014153D01*
X146145661Y-65046707D01*
X146085199Y-65060617D01*
X145949706Y-65092257D01*
X145794853Y-65129212D01*
X145631326Y-65168881D01*
X145469810Y-65208662D01*
X145320990Y-65245954D01*
X145260814Y-65261282D01*
X145149862Y-65289431D01*
X145047565Y-65314838D01*
X144958126Y-65336501D01*
X144885750Y-65353419D01*
X144834642Y-65364592D01*
X144809007Y-65369018D01*
X144808072Y-65369052D01*
X144776205Y-65357960D01*
X144765854Y-65331655D01*
X144781025Y-65300589D01*
X144781604Y-65300004D01*
X144811029Y-65281526D01*
X144855800Y-65264055D01*
X144870271Y-65259953D01*
X144903426Y-65251306D01*
X144961569Y-65235966D01*
X145039670Y-65215268D01*
X145132703Y-65190545D01*
X145235638Y-65163131D01*
X145308440Y-65143709D01*
X145431845Y-65111020D01*
X145575745Y-65073321D01*
X145730491Y-65033113D01*
X145886428Y-64992900D01*
X146033906Y-64955183D01*
X146113778Y-64934928D01*
X146227036Y-64906001D01*
X146332126Y-64878559D01*
X146424784Y-64853762D01*
X146500743Y-64832771D01*
X146555739Y-64816747D01*
X146585507Y-64806851D01*
X146587601Y-64805935D01*
X146610027Y-64792467D01*
X146623043Y-64773379D01*
X146629792Y-64740254D01*
X146633414Y-64684676D01*
X146633488Y-64683011D01*
X146634959Y-64632861D01*
X146857110Y-64632861D01*
X146863004Y-64690703D01*
X146875294Y-64731170D01*
X146899467Y-64767944D01*
X146921542Y-64793467D01*
X146977334Y-64866156D01*
X147005403Y-64930822D01*
X147009541Y-64964957D01*
X146997611Y-65001209D01*
X146968277Y-65041785D01*
X146931221Y-65075790D01*
X146896381Y-65092291D01*
X146875296Y-65098888D01*
X146866381Y-65116487D01*
X146866193Y-65153884D01*
X146867087Y-65167095D01*
X146874162Y-65221770D01*
X146888902Y-65249530D01*
X146916874Y-65254458D01*
X146963647Y-65240638D01*
X146966099Y-65239712D01*
X147021890Y-65223162D01*
X147062918Y-65225460D01*
X147095972Y-65249926D01*
X147127841Y-65299876D01*
X147140419Y-65324917D01*
X147176094Y-65385460D01*
X147227844Y-65456343D01*
X147288262Y-65527556D01*
X147298473Y-65538561D01*
X147435646Y-65666232D01*
X147600110Y-65788116D01*
X147788390Y-65902756D01*
X147997009Y-66008696D01*
X148222493Y-66104479D01*
X148461365Y-66188648D01*
X148710150Y-66259748D01*
X148965371Y-66316320D01*
X149223553Y-66356909D01*
X149262141Y-66361508D01*
X149348713Y-66368621D01*
X149457365Y-66373386D01*
X149579193Y-66375786D01*
X149705294Y-66375807D01*
X149826766Y-66373432D01*
X149934706Y-66368646D01*
X150007829Y-66362812D01*
X150223083Y-66329778D01*
X150438354Y-66276992D01*
X150646262Y-66206938D01*
X150839425Y-66122102D01*
X151009847Y-66025371D01*
X151175736Y-65903521D01*
X151316353Y-65768497D01*
X151436479Y-65615013D01*
X151540288Y-65438960D01*
X151570913Y-65379824D01*
X151596028Y-65331924D01*
X151612402Y-65301389D01*
X151616892Y-65293675D01*
X151631258Y-65297461D01*
X151657009Y-65313094D01*
X151707951Y-65336264D01*
X151751187Y-65330678D01*
X151783776Y-65296770D01*
X151785163Y-65294166D01*
X151796010Y-65268446D01*
X151799171Y-65241552D01*
X151794189Y-65204543D01*
X151780606Y-65148480D01*
X151777014Y-65134930D01*
X151762450Y-65073567D01*
X151756635Y-65022559D01*
X151761344Y-64975336D01*
X151778350Y-64925324D01*
X151809430Y-64865953D01*
X151856358Y-64790650D01*
X151879592Y-64755161D01*
X151919135Y-64694221D01*
X151951442Y-64642598D01*
X151973123Y-64605837D01*
X151980795Y-64589609D01*
X151968419Y-64575016D01*
X151938262Y-64555598D01*
X151934650Y-64553694D01*
X151897328Y-64528032D01*
X151872509Y-64499943D01*
X151858375Y-64447484D01*
X151860036Y-64382385D01*
X151876859Y-64318378D01*
X151881333Y-64308273D01*
X151890951Y-64285521D01*
X151896104Y-64262409D01*
X151896408Y-64232906D01*
X151891479Y-64190979D01*
X151880935Y-64130596D01*
X151864749Y-64047532D01*
X151847411Y-63963163D01*
X151824900Y-63858084D01*
X151799303Y-63741793D01*
X151772709Y-63623790D01*
X151750620Y-63528134D01*
X151726176Y-63423068D01*
X151707958Y-63341073D01*
X151695082Y-63274973D01*
X151686660Y-63217596D01*
X151681808Y-63161765D01*
X151679639Y-63100307D01*
X151679269Y-63026047D01*
X151679667Y-62953333D01*
X151684077Y-62793248D01*
X151694748Y-62616402D01*
X151710801Y-62436273D01*
X151717116Y-62378532D01*
X151736115Y-62184335D01*
X151748725Y-61992233D01*
X151754080Y-61815674D01*
X151754164Y-61803731D01*
X151754442Y-61706422D01*
X151753697Y-61634450D01*
X151751298Y-61582085D01*
X151746618Y-61543595D01*
X151739028Y-61513249D01*
X151727900Y-61485317D01*
X151716697Y-61462195D01*
X151686330Y-61411260D01*
X151649727Y-61374937D01*
X151595320Y-61341886D01*
X151592416Y-61340371D01*
X151548520Y-61318955D01*
X151511508Y-61306285D01*
X151471086Y-61300607D01*
X151416960Y-61300163D01*
X151367156Y-61301952D01*
X151296471Y-61307282D01*
X151234749Y-61318508D01*
X151176874Y-61338326D01*
X151117735Y-61369436D01*
X151052217Y-61414535D01*
X150975207Y-61476321D01*
X150881592Y-61557492D01*
X150879767Y-61559108D01*
X150765981Y-61657456D01*
X150667832Y-61735521D01*
X150579906Y-61795871D01*
X150496786Y-61841072D01*
X150413056Y-61873692D01*
X150323301Y-61896298D01*
X150222105Y-61911457D01*
X150116575Y-61920868D01*
X150041624Y-61924895D01*
X149943513Y-61928219D01*
X149826947Y-61930840D01*
X149696626Y-61932760D01*
X149557252Y-61933979D01*
X149413529Y-61934497D01*
X149270159Y-61934315D01*
X149131843Y-61933434D01*
X149003284Y-61931853D01*
X148889184Y-61929575D01*
X148794245Y-61926599D01*
X148723171Y-61922926D01*
X148696744Y-61920692D01*
X148621275Y-61910911D01*
X148556575Y-61897024D01*
X148497996Y-61876213D01*
X148440890Y-61845657D01*
X148380610Y-61802539D01*
X148312506Y-61744038D01*
X148231931Y-61667336D01*
X148158747Y-61594383D01*
X148059660Y-61496434D01*
X147976688Y-61419701D01*
X147905806Y-61361743D01*
X147842988Y-61320118D01*
X147784209Y-61292384D01*
X147725442Y-61276100D01*
X147662662Y-61268825D01*
X147620200Y-61267767D01*
X147511473Y-61276208D01*
X147425017Y-61302370D01*
X147356752Y-61347516D01*
X147353984Y-61350068D01*
X147325150Y-61380027D01*
X147304656Y-61411454D01*
X147289226Y-61452307D01*
X147275585Y-61510545D01*
X147265490Y-61565107D01*
X147256176Y-61622222D01*
X147248360Y-61680827D01*
X147241856Y-61744557D01*
X147236478Y-61817048D01*
X147232042Y-61901933D01*
X147228362Y-62002849D01*
X147225252Y-62123429D01*
X147222527Y-62267309D01*
X147220003Y-62438123D01*
X147219660Y-62463975D01*
X147217857Y-62605906D01*
X147215941Y-62722860D01*
X147213015Y-62820174D01*
X147208181Y-62903187D01*
X147200539Y-62977235D01*
X147189192Y-63047656D01*
X147173242Y-63119788D01*
X147151790Y-63198968D01*
X147123938Y-63290533D01*
X147088789Y-63399822D01*
X147045443Y-63532170D01*
X147034043Y-63566972D01*
X146976374Y-63748000D01*
X146930846Y-63901941D01*
X146897173Y-64030183D01*
X146875071Y-64134116D01*
X146864253Y-64215130D01*
X146864435Y-64274614D01*
X146875331Y-64313958D01*
X146879376Y-64320376D01*
X146898308Y-64365163D01*
X146894821Y-64420989D01*
X146875894Y-64477208D01*
X146858012Y-64551136D01*
X146857110Y-64632861D01*
X146634959Y-64632861D01*
X146635124Y-64627228D01*
X146631883Y-64593062D01*
X146620788Y-64571122D01*
X146598860Y-64552011D01*
X146589902Y-64545553D01*
X146571406Y-64534225D01*
X146548326Y-64524882D01*
X146516456Y-64516871D01*
X146471589Y-64509542D01*
X146409516Y-64502240D01*
X146326031Y-64494315D01*
X146216926Y-64485114D01*
X146181429Y-64482238D01*
X146024788Y-64469494D01*
X145896160Y-64458638D01*
X145792574Y-64449244D01*
X145711061Y-64440886D01*
X145648649Y-64433139D01*
X145602367Y-64425577D01*
X145569246Y-64417773D01*
X145546314Y-64409304D01*
X145530600Y-64399742D01*
X145519135Y-64388662D01*
X145517849Y-64387144D01*
X145493397Y-64353771D01*
X145490214Y-64333404D01*
X145506351Y-64318128D01*
X145525940Y-64315093D01*
X145572886Y-64311856D01*
X145643477Y-64308553D01*
X145734002Y-64305318D01*
X145840749Y-64302290D01*
X145960006Y-64299602D01*
X146061733Y-64297792D01*
X146597859Y-64289358D01*
X146607566Y-64140792D01*
X146617354Y-64046345D01*
X146635402Y-63946565D01*
X146663066Y-63836223D01*
X146701703Y-63710090D01*
X146752669Y-63562936D01*
X146769221Y-63517559D01*
X146801203Y-63427872D01*
X146833871Y-63331521D01*
X146863058Y-63241050D01*
X146881884Y-63178593D01*
X146924098Y-63031009D01*
X146925076Y-62370764D01*
X146925580Y-62189906D01*
X146926739Y-62036837D01*
X146928897Y-61908277D01*
X146932395Y-61800947D01*
X146937575Y-61711565D01*
X146944780Y-61636853D01*
X146954352Y-61573530D01*
X146966633Y-61518316D01*
X146981966Y-61467932D01*
X147000693Y-61419099D01*
X147023155Y-61368534D01*
X147031515Y-61350765D01*
X147105529Y-61225273D01*
X147195338Y-61126359D01*
X147300096Y-61054478D01*
X147418956Y-61010084D01*
X147551073Y-60993631D01*
X147679245Y-61002876D01*
G37*
D12*
X141184000Y-74971500D02*
X141184000Y-75733500D01*
X141184000Y-75733500D02*
X157186000Y-75733500D01*
X157186000Y-75733500D02*
X157186000Y-74971500D01*
%LPC*%
D13*
X137700000Y-80840000D03*
D14*
X137700000Y-78300000D03*
X137700000Y-75760000D03*
X137700000Y-73220000D03*
X137700000Y-70680000D03*
X137700000Y-68140000D03*
X137700000Y-65600000D03*
X137700000Y-63060000D03*
X137700000Y-60520000D03*
D15*
X143450000Y-78625000D03*
X147600000Y-78625000D03*
X143450000Y-80775000D03*
X147600000Y-80775000D03*
D13*
X160700000Y-60500000D03*
D14*
X160700000Y-63040000D03*
X160700000Y-65580000D03*
X160700000Y-68120000D03*
X160700000Y-70660000D03*
X160700000Y-73200000D03*
X160700000Y-75740000D03*
X160700000Y-78280000D03*
X160700000Y-80820000D03*
D15*
X154975000Y-80775000D03*
X150825000Y-80775000D03*
X154975000Y-78625000D03*
X150825000Y-78625000D03*
D16*
X141500000Y-60112500D03*
X141500000Y-62112500D03*
X141500000Y-64112500D03*
X141500000Y-66112500D03*
X141500000Y-68112500D03*
X141500000Y-70112500D03*
X141500000Y-72112500D03*
X141500000Y-74112500D03*
X156900000Y-74112500D03*
X156900000Y-72112500D03*
X156900000Y-70112500D03*
X156900000Y-68112500D03*
X156900000Y-66112500D03*
X156900000Y-64112500D03*
X156900000Y-62112500D03*
X156900000Y-60112500D03*
%LPD*%
M02*
