G04 #@! TF.GenerationSoftware,KiCad,Pcbnew,7.0.7*
G04 #@! TF.CreationDate,2024-04-01T22:56:26-04:00*
G04 #@! TF.ProjectId,sensor_node,73656e73-6f72-45f6-9e6f-64652e6b6963,rev?*
G04 #@! TF.SameCoordinates,Original*
G04 #@! TF.FileFunction,Copper,L1,Top*
G04 #@! TF.FilePolarity,Positive*
%FSLAX46Y46*%
G04 Gerber Fmt 4.6, Leading zero omitted, Abs format (unit mm)*
G04 Created by KiCad (PCBNEW 7.0.7) date 2024-04-01 22:56:26*
%MOMM*%
%LPD*%
G01*
G04 APERTURE LIST*
G04 #@! TA.AperFunction,ComponentPad*
%ADD10R,1.700000X1.700000*%
G04 #@! TD*
G04 #@! TA.AperFunction,ComponentPad*
%ADD11O,1.700000X1.700000*%
G04 #@! TD*
G04 #@! TA.AperFunction,SMDPad,CuDef*
%ADD12R,1.050000X0.650000*%
G04 #@! TD*
G04 #@! TA.AperFunction,SMDPad,CuDef*
%ADD13R,2.500000X1.100000*%
G04 #@! TD*
G04 #@! TA.AperFunction,ViaPad*
%ADD14C,0.500000*%
G04 #@! TD*
G04 #@! TA.AperFunction,Conductor*
%ADD15C,0.250000*%
G04 #@! TD*
G04 APERTURE END LIST*
D10*
X137700000Y-80840000D03*
D11*
X137700000Y-78300000D03*
X137700000Y-75760000D03*
X137700000Y-73220000D03*
X137700000Y-70680000D03*
X137700000Y-68140000D03*
X137700000Y-65600000D03*
X137700000Y-63060000D03*
X137700000Y-60520000D03*
D12*
X143450000Y-78625000D03*
X147600000Y-78625000D03*
X143450000Y-80775000D03*
X147600000Y-80775000D03*
D10*
X160700000Y-60560000D03*
D11*
X160700000Y-63100000D03*
X160700000Y-65640000D03*
X160700000Y-68180000D03*
X160700000Y-70720000D03*
X160700000Y-73260000D03*
X160700000Y-75800000D03*
X160700000Y-78340000D03*
X160700000Y-80880000D03*
D12*
X154975000Y-80775000D03*
X150825000Y-80775000D03*
X154975000Y-78625000D03*
X150825000Y-78625000D03*
D13*
X141500000Y-60112500D03*
X141500000Y-62112500D03*
X141500000Y-64112500D03*
X141500000Y-66112500D03*
X141500000Y-68112500D03*
X141500000Y-70112500D03*
X141500000Y-72112500D03*
X141500000Y-74112500D03*
X156900000Y-74112500D03*
X156900000Y-72112500D03*
X156900000Y-70112500D03*
X156900000Y-68112500D03*
X156900000Y-66112500D03*
X156900000Y-64112500D03*
X156900000Y-62112500D03*
X156900000Y-60112500D03*
D14*
X149500000Y-74100000D03*
X140656250Y-75656250D03*
X147700000Y-74100000D03*
X146100000Y-78625000D03*
X143800000Y-60200000D03*
X143400000Y-62500000D03*
X154800000Y-72100000D03*
X145200000Y-65900000D03*
X152800000Y-68500000D03*
X152200000Y-78625000D03*
X143400000Y-66100000D03*
X143300000Y-69800000D03*
X146600000Y-63200000D03*
D15*
X140656250Y-75656250D02*
X142200000Y-74112500D01*
X137700000Y-75760000D02*
X140552500Y-75760000D01*
X149500000Y-74100000D02*
X147700000Y-74100000D01*
X140552500Y-75760000D02*
X140656250Y-75656250D01*
X143712500Y-60112500D02*
X143800000Y-60200000D01*
X146100000Y-78625000D02*
X147700000Y-78625000D01*
X143550000Y-78625000D02*
X146100000Y-78625000D01*
X143400000Y-62400000D02*
X143400000Y-62500000D01*
X142200000Y-60112500D02*
X143400000Y-61312500D01*
X143400000Y-61312500D02*
X143400000Y-62400000D01*
X142200000Y-60112500D02*
X143712500Y-60112500D01*
X137213299Y-69505000D02*
X141592500Y-69505000D01*
X136525000Y-70193299D02*
X137213299Y-69505000D01*
X137700000Y-80840000D02*
X136525000Y-79665000D01*
X136525000Y-79665000D02*
X136525000Y-70193299D01*
X141592500Y-69505000D02*
X142200000Y-70112500D01*
X155092500Y-73220000D02*
X156200000Y-72112500D01*
X137700000Y-73220000D02*
X155092500Y-73220000D01*
X154800000Y-72100000D02*
X156187500Y-72100000D01*
X156187500Y-72100000D02*
X156200000Y-72112500D01*
X139132500Y-72112500D02*
X142200000Y-72112500D01*
X137700000Y-70680000D02*
X139132500Y-72112500D01*
X137700000Y-65600000D02*
X137700000Y-66478299D01*
X137700000Y-66478299D02*
X139925000Y-68703299D01*
X139925000Y-68703299D02*
X139925000Y-68987500D01*
X139925000Y-68987500D02*
X150212500Y-68987500D01*
X150212500Y-68987500D02*
X153087500Y-66112500D01*
X153087500Y-66112500D02*
X156200000Y-66112500D01*
X151325000Y-59237500D02*
X156200000Y-64112500D01*
X137700000Y-63060000D02*
X136525000Y-61885000D01*
X137187500Y-59237500D02*
X151325000Y-59237500D01*
X136525000Y-59900000D02*
X137187500Y-59237500D01*
X136525000Y-61885000D02*
X136525000Y-59900000D01*
X140612500Y-68112500D02*
X142200000Y-68112500D01*
X137700000Y-60520000D02*
X138875000Y-61695000D01*
X138875000Y-61695000D02*
X138875000Y-66375000D01*
X138875000Y-66375000D02*
X140612500Y-68112500D01*
X158625000Y-68645000D02*
X158625000Y-65325000D01*
X142200000Y-64112500D02*
X143412500Y-64112500D01*
X158500000Y-65200000D02*
X145900000Y-65200000D01*
X160700000Y-70720000D02*
X158625000Y-68645000D01*
X158625000Y-65325000D02*
X158500000Y-65200000D01*
X143412500Y-64112500D02*
X145200000Y-65900000D01*
X145900000Y-65200000D02*
X145200000Y-65900000D01*
X160415000Y-78625000D02*
X160700000Y-78340000D01*
X153187500Y-68112500D02*
X152800000Y-68500000D01*
X154975000Y-78625000D02*
X152200000Y-78625000D01*
X154975000Y-78625000D02*
X160415000Y-78625000D01*
X156200000Y-68112500D02*
X153187500Y-68112500D01*
X152200000Y-78625000D02*
X150825000Y-78625000D01*
X159100000Y-74200000D02*
X160700000Y-75800000D01*
X159100000Y-71862500D02*
X159100000Y-74200000D01*
X157350000Y-70112500D02*
X159100000Y-71862500D01*
X156200000Y-70112500D02*
X157350000Y-70112500D01*
X159075000Y-66555000D02*
X160700000Y-68180000D01*
X157350000Y-62112500D02*
X159075000Y-63837500D01*
X159075000Y-63837500D02*
X159075000Y-66555000D01*
X156200000Y-62112500D02*
X157350000Y-62112500D01*
X159525000Y-62287500D02*
X159525000Y-64465000D01*
X157350000Y-60112500D02*
X159525000Y-62287500D01*
X156200000Y-60112500D02*
X157350000Y-60112500D01*
X159525000Y-64465000D02*
X160700000Y-65640000D01*
X143400000Y-66100000D02*
X142212500Y-66100000D01*
X143662500Y-69437500D02*
X153511396Y-69437500D01*
X143300000Y-69800000D02*
X143662500Y-69437500D01*
X153511396Y-69437500D02*
X153711396Y-69237500D01*
X158475000Y-69237500D02*
X158475000Y-70175000D01*
X142212500Y-66100000D02*
X142200000Y-66112500D01*
X153711396Y-69237500D02*
X158475000Y-69237500D01*
X158475000Y-70175000D02*
X160700000Y-72400000D01*
X160700000Y-72400000D02*
X160700000Y-73260000D01*
X142200000Y-62113173D02*
X142200000Y-62112500D01*
X143286827Y-63200000D02*
X142200000Y-62113173D01*
X146600000Y-63200000D02*
X143286827Y-63200000D01*
G04 #@! TA.AperFunction,Conductor*
G36*
X162943039Y-58420185D02*
G01*
X162988794Y-58472989D01*
X163000000Y-58524500D01*
X163000000Y-82975500D01*
X162980315Y-83042539D01*
X162927511Y-83088294D01*
X162876000Y-83099500D01*
X135524000Y-83099500D01*
X135456961Y-83079815D01*
X135411206Y-83027011D01*
X135400000Y-82975500D01*
X135400000Y-79649271D01*
X136144633Y-79649271D01*
X136149023Y-79684491D01*
X136149500Y-79692167D01*
X136149500Y-79696116D01*
X136153342Y-79719141D01*
X136160134Y-79773627D01*
X136162373Y-79781147D01*
X136164934Y-79788608D01*
X136164935Y-79788610D01*
X136180286Y-79816977D01*
X136191055Y-79836877D01*
X136215174Y-79886211D01*
X136219742Y-79892609D01*
X136224582Y-79898827D01*
X136264970Y-79936008D01*
X136563181Y-80234218D01*
X136596666Y-80295541D01*
X136599500Y-80321899D01*
X136599500Y-81714678D01*
X136614032Y-81787735D01*
X136614033Y-81787739D01*
X136614034Y-81787740D01*
X136669399Y-81870601D01*
X136752259Y-81925966D01*
X136752260Y-81925966D01*
X136752264Y-81925967D01*
X136825321Y-81940499D01*
X136825324Y-81940500D01*
X136825326Y-81940500D01*
X138574676Y-81940500D01*
X138574677Y-81940499D01*
X138647740Y-81925966D01*
X138730601Y-81870601D01*
X138785966Y-81787740D01*
X138800500Y-81714674D01*
X138800500Y-81025000D01*
X142425000Y-81025000D01*
X142425000Y-81147844D01*
X142431401Y-81207372D01*
X142431403Y-81207379D01*
X142481645Y-81342086D01*
X142481649Y-81342093D01*
X142567809Y-81457187D01*
X142567812Y-81457190D01*
X142682906Y-81543350D01*
X142682913Y-81543354D01*
X142817620Y-81593596D01*
X142817627Y-81593598D01*
X142877155Y-81599999D01*
X142877172Y-81600000D01*
X143200000Y-81600000D01*
X143200000Y-81025000D01*
X143700000Y-81025000D01*
X143700000Y-81600000D01*
X144022828Y-81600000D01*
X144022844Y-81599999D01*
X144082372Y-81593598D01*
X144082379Y-81593596D01*
X144217086Y-81543354D01*
X144217093Y-81543350D01*
X144332187Y-81457190D01*
X144332190Y-81457187D01*
X144418350Y-81342093D01*
X144418354Y-81342086D01*
X144468596Y-81207379D01*
X144468598Y-81207372D01*
X144474999Y-81147844D01*
X144475000Y-81147827D01*
X144475000Y-81025000D01*
X146575000Y-81025000D01*
X146575000Y-81147844D01*
X146581401Y-81207372D01*
X146581403Y-81207379D01*
X146631645Y-81342086D01*
X146631649Y-81342093D01*
X146717809Y-81457187D01*
X146717812Y-81457190D01*
X146832906Y-81543350D01*
X146832913Y-81543354D01*
X146967620Y-81593596D01*
X146967627Y-81593598D01*
X147027155Y-81599999D01*
X147027172Y-81600000D01*
X147350000Y-81600000D01*
X147350000Y-81025000D01*
X147850000Y-81025000D01*
X147850000Y-81600000D01*
X148172828Y-81600000D01*
X148172844Y-81599999D01*
X148232372Y-81593598D01*
X148232379Y-81593596D01*
X148367086Y-81543354D01*
X148367093Y-81543350D01*
X148482187Y-81457190D01*
X148482190Y-81457187D01*
X148568350Y-81342093D01*
X148568354Y-81342086D01*
X148618596Y-81207379D01*
X148618598Y-81207372D01*
X148624999Y-81147844D01*
X148625000Y-81147827D01*
X148625000Y-81025000D01*
X149800000Y-81025000D01*
X149800000Y-81147844D01*
X149806401Y-81207372D01*
X149806403Y-81207379D01*
X149856645Y-81342086D01*
X149856649Y-81342093D01*
X149942809Y-81457187D01*
X149942812Y-81457190D01*
X150057906Y-81543350D01*
X150057913Y-81543354D01*
X150192620Y-81593596D01*
X150192627Y-81593598D01*
X150252155Y-81599999D01*
X150252172Y-81600000D01*
X150575000Y-81600000D01*
X150575000Y-81025000D01*
X151075000Y-81025000D01*
X151075000Y-81600000D01*
X151397828Y-81600000D01*
X151397844Y-81599999D01*
X151457372Y-81593598D01*
X151457379Y-81593596D01*
X151592086Y-81543354D01*
X151592093Y-81543350D01*
X151707187Y-81457190D01*
X151707190Y-81457187D01*
X151793350Y-81342093D01*
X151793354Y-81342086D01*
X151843596Y-81207379D01*
X151843598Y-81207372D01*
X151849999Y-81147844D01*
X151850000Y-81147827D01*
X151850000Y-81025000D01*
X153950000Y-81025000D01*
X153950000Y-81147844D01*
X153956401Y-81207372D01*
X153956403Y-81207379D01*
X154006645Y-81342086D01*
X154006649Y-81342093D01*
X154092809Y-81457187D01*
X154092812Y-81457190D01*
X154207906Y-81543350D01*
X154207913Y-81543354D01*
X154342620Y-81593596D01*
X154342627Y-81593598D01*
X154402155Y-81599999D01*
X154402172Y-81600000D01*
X154725000Y-81600000D01*
X154725000Y-81025000D01*
X155225000Y-81025000D01*
X155225000Y-81600000D01*
X155547828Y-81600000D01*
X155547844Y-81599999D01*
X155607372Y-81593598D01*
X155607379Y-81593596D01*
X155742086Y-81543354D01*
X155742093Y-81543350D01*
X155857187Y-81457190D01*
X155857190Y-81457187D01*
X155943350Y-81342093D01*
X155943354Y-81342086D01*
X155993596Y-81207379D01*
X155993598Y-81207372D01*
X155999999Y-81147844D01*
X156000000Y-81147827D01*
X156000000Y-81025000D01*
X155225000Y-81025000D01*
X154725000Y-81025000D01*
X153950000Y-81025000D01*
X151850000Y-81025000D01*
X151075000Y-81025000D01*
X150575000Y-81025000D01*
X149800000Y-81025000D01*
X148625000Y-81025000D01*
X147850000Y-81025000D01*
X147350000Y-81025000D01*
X146575000Y-81025000D01*
X144475000Y-81025000D01*
X143700000Y-81025000D01*
X143200000Y-81025000D01*
X142425000Y-81025000D01*
X138800500Y-81025000D01*
X138800500Y-80880000D01*
X159594785Y-80880000D01*
X159613602Y-81083082D01*
X159669417Y-81279247D01*
X159669422Y-81279260D01*
X159760327Y-81461821D01*
X159883237Y-81624581D01*
X160033958Y-81761980D01*
X160033960Y-81761982D01*
X160075561Y-81787740D01*
X160207363Y-81869348D01*
X160397544Y-81943024D01*
X160598024Y-81980500D01*
X160598026Y-81980500D01*
X160801974Y-81980500D01*
X160801976Y-81980500D01*
X161002456Y-81943024D01*
X161192637Y-81869348D01*
X161366041Y-81761981D01*
X161516764Y-81624579D01*
X161639673Y-81461821D01*
X161730582Y-81279250D01*
X161786397Y-81083083D01*
X161805215Y-80880000D01*
X161786397Y-80676917D01*
X161730582Y-80480750D01*
X161639673Y-80298179D01*
X161516764Y-80135421D01*
X161516762Y-80135418D01*
X161366041Y-79998019D01*
X161366039Y-79998017D01*
X161192642Y-79890655D01*
X161192635Y-79890651D01*
X161097546Y-79853814D01*
X161002456Y-79816976D01*
X160801976Y-79779500D01*
X160598024Y-79779500D01*
X160397544Y-79816976D01*
X160397541Y-79816976D01*
X160397541Y-79816977D01*
X160207364Y-79890651D01*
X160207357Y-79890655D01*
X160033960Y-79998017D01*
X160033958Y-79998019D01*
X159883237Y-80135418D01*
X159760327Y-80298178D01*
X159669422Y-80480739D01*
X159669417Y-80480752D01*
X159613602Y-80676917D01*
X159594785Y-80879999D01*
X159594785Y-80880000D01*
X138800500Y-80880000D01*
X138800500Y-80525000D01*
X142425000Y-80525000D01*
X143200000Y-80525000D01*
X143200000Y-79950000D01*
X143700000Y-79950000D01*
X143700000Y-80525000D01*
X144475000Y-80525000D01*
X146575000Y-80525000D01*
X147350000Y-80525000D01*
X147350000Y-79950000D01*
X147850000Y-79950000D01*
X147850000Y-80525000D01*
X148625000Y-80525000D01*
X149800000Y-80525000D01*
X150575000Y-80525000D01*
X150575000Y-79950000D01*
X151075000Y-79950000D01*
X151075000Y-80525000D01*
X151850000Y-80525000D01*
X153950000Y-80525000D01*
X154725000Y-80525000D01*
X154725000Y-79950000D01*
X155225000Y-79950000D01*
X155225000Y-80525000D01*
X156000000Y-80525000D01*
X156000000Y-80402172D01*
X155999999Y-80402155D01*
X155993598Y-80342627D01*
X155993596Y-80342620D01*
X155943354Y-80207913D01*
X155943350Y-80207906D01*
X155857190Y-80092812D01*
X155857187Y-80092809D01*
X155742093Y-80006649D01*
X155742086Y-80006645D01*
X155607379Y-79956403D01*
X155607372Y-79956401D01*
X155547844Y-79950000D01*
X155225000Y-79950000D01*
X154725000Y-79950000D01*
X154402155Y-79950000D01*
X154342627Y-79956401D01*
X154342620Y-79956403D01*
X154207913Y-80006645D01*
X154207906Y-80006649D01*
X154092812Y-80092809D01*
X154092809Y-80092812D01*
X154006649Y-80207906D01*
X154006645Y-80207913D01*
X153956403Y-80342620D01*
X153956401Y-80342627D01*
X153950000Y-80402155D01*
X153950000Y-80525000D01*
X151850000Y-80525000D01*
X151850000Y-80402172D01*
X151849999Y-80402155D01*
X151843598Y-80342627D01*
X151843596Y-80342620D01*
X151793354Y-80207913D01*
X151793350Y-80207906D01*
X151707190Y-80092812D01*
X151707187Y-80092809D01*
X151592093Y-80006649D01*
X151592086Y-80006645D01*
X151457379Y-79956403D01*
X151457372Y-79956401D01*
X151397844Y-79950000D01*
X151075000Y-79950000D01*
X150575000Y-79950000D01*
X150252155Y-79950000D01*
X150192627Y-79956401D01*
X150192620Y-79956403D01*
X150057913Y-80006645D01*
X150057906Y-80006649D01*
X149942812Y-80092809D01*
X149942809Y-80092812D01*
X149856649Y-80207906D01*
X149856645Y-80207913D01*
X149806403Y-80342620D01*
X149806401Y-80342627D01*
X149800000Y-80402155D01*
X149800000Y-80525000D01*
X148625000Y-80525000D01*
X148625000Y-80402172D01*
X148624999Y-80402155D01*
X148618598Y-80342627D01*
X148618596Y-80342620D01*
X148568354Y-80207913D01*
X148568350Y-80207906D01*
X148482190Y-80092812D01*
X148482187Y-80092809D01*
X148367093Y-80006649D01*
X148367086Y-80006645D01*
X148232379Y-79956403D01*
X148232372Y-79956401D01*
X148172844Y-79950000D01*
X147850000Y-79950000D01*
X147350000Y-79950000D01*
X147027155Y-79950000D01*
X146967627Y-79956401D01*
X146967620Y-79956403D01*
X146832913Y-80006645D01*
X146832906Y-80006649D01*
X146717812Y-80092809D01*
X146717809Y-80092812D01*
X146631649Y-80207906D01*
X146631645Y-80207913D01*
X146581403Y-80342620D01*
X146581401Y-80342627D01*
X146575000Y-80402155D01*
X146575000Y-80525000D01*
X144475000Y-80525000D01*
X144475000Y-80402172D01*
X144474999Y-80402155D01*
X144468598Y-80342627D01*
X144468596Y-80342620D01*
X144418354Y-80207913D01*
X144418350Y-80207906D01*
X144332190Y-80092812D01*
X144332187Y-80092809D01*
X144217093Y-80006649D01*
X144217086Y-80006645D01*
X144082379Y-79956403D01*
X144082372Y-79956401D01*
X144022844Y-79950000D01*
X143700000Y-79950000D01*
X143200000Y-79950000D01*
X142877155Y-79950000D01*
X142817627Y-79956401D01*
X142817620Y-79956403D01*
X142682913Y-80006645D01*
X142682906Y-80006649D01*
X142567812Y-80092809D01*
X142567809Y-80092812D01*
X142481649Y-80207906D01*
X142481645Y-80207913D01*
X142431403Y-80342620D01*
X142431401Y-80342627D01*
X142425000Y-80402155D01*
X142425000Y-80525000D01*
X138800500Y-80525000D01*
X138800500Y-79965326D01*
X138800500Y-79965323D01*
X138800499Y-79965321D01*
X138785967Y-79892264D01*
X138785966Y-79892260D01*
X138781924Y-79886211D01*
X138730601Y-79809399D01*
X138647740Y-79754034D01*
X138647739Y-79754033D01*
X138647735Y-79754032D01*
X138574677Y-79739500D01*
X138574674Y-79739500D01*
X138366682Y-79739500D01*
X138299643Y-79719815D01*
X138253888Y-79667011D01*
X138243944Y-79597853D01*
X138272969Y-79534297D01*
X138314277Y-79503118D01*
X138377578Y-79473600D01*
X138571082Y-79338105D01*
X138738105Y-79171082D01*
X138873600Y-78977578D01*
X138874952Y-78974678D01*
X142674500Y-78974678D01*
X142689032Y-79047735D01*
X142689033Y-79047739D01*
X142689034Y-79047740D01*
X142744399Y-79130601D01*
X142827260Y-79185966D01*
X142827264Y-79185967D01*
X142900321Y-79200499D01*
X142900324Y-79200500D01*
X142900326Y-79200500D01*
X143999676Y-79200500D01*
X143999677Y-79200499D01*
X144072740Y-79185966D01*
X144155601Y-79130601D01*
X144186101Y-79084954D01*
X144205709Y-79055609D01*
X144259321Y-79010804D01*
X144308811Y-79000500D01*
X145722126Y-79000500D01*
X145789165Y-79020185D01*
X145789166Y-79020185D01*
X145889947Y-79084953D01*
X145889948Y-79084953D01*
X145889949Y-79084954D01*
X146028036Y-79125499D01*
X146028038Y-79125500D01*
X146028039Y-79125500D01*
X146171962Y-79125500D01*
X146171962Y-79125499D01*
X146310053Y-79084953D01*
X146410834Y-79020184D01*
X146477874Y-79000500D01*
X146741189Y-79000500D01*
X146808228Y-79020185D01*
X146844291Y-79055609D01*
X146894398Y-79130600D01*
X146977260Y-79185966D01*
X146977264Y-79185967D01*
X147050321Y-79200499D01*
X147050324Y-79200500D01*
X147050326Y-79200500D01*
X148149676Y-79200500D01*
X148149677Y-79200499D01*
X148222740Y-79185966D01*
X148305601Y-79130601D01*
X148360966Y-79047740D01*
X148375499Y-78974678D01*
X150049500Y-78974678D01*
X150064032Y-79047735D01*
X150064033Y-79047739D01*
X150064034Y-79047740D01*
X150119399Y-79130601D01*
X150202259Y-79185966D01*
X150202260Y-79185966D01*
X150202264Y-79185967D01*
X150275321Y-79200499D01*
X150275324Y-79200500D01*
X150275326Y-79200500D01*
X151374676Y-79200500D01*
X151374677Y-79200499D01*
X151447740Y-79185966D01*
X151530601Y-79130601D01*
X151561101Y-79084954D01*
X151580709Y-79055609D01*
X151634321Y-79010804D01*
X151683811Y-79000500D01*
X151822126Y-79000500D01*
X151889165Y-79020185D01*
X151889166Y-79020185D01*
X151989947Y-79084953D01*
X151989948Y-79084953D01*
X151989949Y-79084954D01*
X152128036Y-79125499D01*
X152128038Y-79125500D01*
X152128039Y-79125500D01*
X152271962Y-79125500D01*
X152271962Y-79125499D01*
X152410053Y-79084953D01*
X152510834Y-79020184D01*
X152577874Y-79000500D01*
X154116189Y-79000500D01*
X154183228Y-79020185D01*
X154219291Y-79055609D01*
X154269398Y-79130600D01*
X154352260Y-79185966D01*
X154352264Y-79185967D01*
X154425321Y-79200499D01*
X154425324Y-79200500D01*
X154425326Y-79200500D01*
X155524676Y-79200500D01*
X155524677Y-79200499D01*
X155597740Y-79185966D01*
X155680601Y-79130601D01*
X155711101Y-79084954D01*
X155730709Y-79055609D01*
X155784321Y-79010804D01*
X155833811Y-79000500D01*
X159757998Y-79000500D01*
X159825037Y-79020185D01*
X159856953Y-79049774D01*
X159883237Y-79084581D01*
X160033958Y-79221980D01*
X160033960Y-79221982D01*
X160133141Y-79283392D01*
X160207363Y-79329348D01*
X160397544Y-79403024D01*
X160598024Y-79440500D01*
X160598026Y-79440500D01*
X160801974Y-79440500D01*
X160801976Y-79440500D01*
X161002456Y-79403024D01*
X161192637Y-79329348D01*
X161366041Y-79221981D01*
X161516764Y-79084579D01*
X161639673Y-78921821D01*
X161730582Y-78739250D01*
X161786397Y-78543083D01*
X161805215Y-78340000D01*
X161786397Y-78136917D01*
X161730582Y-77940750D01*
X161697866Y-77875048D01*
X161678675Y-77836507D01*
X161639673Y-77758179D01*
X161516764Y-77595421D01*
X161516762Y-77595418D01*
X161366041Y-77458019D01*
X161366039Y-77458017D01*
X161192642Y-77350655D01*
X161192635Y-77350651D01*
X161097546Y-77313814D01*
X161002456Y-77276976D01*
X160801976Y-77239500D01*
X160598024Y-77239500D01*
X160397544Y-77276976D01*
X160397541Y-77276976D01*
X160397541Y-77276977D01*
X160207364Y-77350651D01*
X160207357Y-77350655D01*
X160033960Y-77458017D01*
X160033958Y-77458019D01*
X159883237Y-77595418D01*
X159760327Y-77758178D01*
X159669422Y-77940739D01*
X159669417Y-77940752D01*
X159634340Y-78064034D01*
X159613603Y-78136917D01*
X159613601Y-78136938D01*
X159613597Y-78136947D01*
X159612549Y-78142555D01*
X159611452Y-78142349D01*
X159587818Y-78201874D01*
X159531019Y-78242564D01*
X159490130Y-78249500D01*
X155833811Y-78249500D01*
X155766772Y-78229815D01*
X155730709Y-78194391D01*
X155680601Y-78119399D01*
X155597739Y-78064033D01*
X155597735Y-78064032D01*
X155524677Y-78049500D01*
X155524674Y-78049500D01*
X154425326Y-78049500D01*
X154425323Y-78049500D01*
X154352264Y-78064032D01*
X154352260Y-78064033D01*
X154269398Y-78119399D01*
X154219291Y-78194391D01*
X154165679Y-78239196D01*
X154116189Y-78249500D01*
X152577874Y-78249500D01*
X152510835Y-78229815D01*
X152510834Y-78229815D01*
X152467964Y-78202264D01*
X152410053Y-78165047D01*
X152410052Y-78165046D01*
X152410051Y-78165046D01*
X152410050Y-78165045D01*
X152271963Y-78124500D01*
X152271961Y-78124500D01*
X152128039Y-78124500D01*
X152128036Y-78124500D01*
X151989949Y-78165045D01*
X151989948Y-78165046D01*
X151889166Y-78229815D01*
X151822126Y-78249500D01*
X151683811Y-78249500D01*
X151616772Y-78229815D01*
X151580709Y-78194391D01*
X151530601Y-78119399D01*
X151447739Y-78064033D01*
X151447735Y-78064032D01*
X151374677Y-78049500D01*
X151374674Y-78049500D01*
X150275326Y-78049500D01*
X150275323Y-78049500D01*
X150202264Y-78064032D01*
X150202260Y-78064033D01*
X150119399Y-78119399D01*
X150064033Y-78202260D01*
X150064032Y-78202264D01*
X150049500Y-78275321D01*
X150049500Y-78974678D01*
X148375499Y-78974678D01*
X148375500Y-78974674D01*
X148375500Y-78275326D01*
X148375500Y-78275323D01*
X148375499Y-78275321D01*
X148360967Y-78202264D01*
X148360966Y-78202260D01*
X148336101Y-78165047D01*
X148305601Y-78119399D01*
X148222740Y-78064034D01*
X148222739Y-78064033D01*
X148222735Y-78064032D01*
X148149677Y-78049500D01*
X148149674Y-78049500D01*
X147050326Y-78049500D01*
X147050323Y-78049500D01*
X146977264Y-78064032D01*
X146977260Y-78064033D01*
X146894398Y-78119399D01*
X146844291Y-78194391D01*
X146790679Y-78239196D01*
X146741189Y-78249500D01*
X146477874Y-78249500D01*
X146410835Y-78229815D01*
X146410834Y-78229815D01*
X146367964Y-78202264D01*
X146310053Y-78165047D01*
X146310052Y-78165046D01*
X146310051Y-78165046D01*
X146310050Y-78165045D01*
X146171963Y-78124500D01*
X146171961Y-78124500D01*
X146028039Y-78124500D01*
X146028036Y-78124500D01*
X145889949Y-78165045D01*
X145889948Y-78165046D01*
X145789166Y-78229815D01*
X145722126Y-78249500D01*
X144308811Y-78249500D01*
X144241772Y-78229815D01*
X144205709Y-78194391D01*
X144155601Y-78119399D01*
X144072739Y-78064033D01*
X144072735Y-78064032D01*
X143999677Y-78049500D01*
X143999674Y-78049500D01*
X142900326Y-78049500D01*
X142900323Y-78049500D01*
X142827264Y-78064032D01*
X142827260Y-78064033D01*
X142744399Y-78119399D01*
X142689033Y-78202260D01*
X142689032Y-78202264D01*
X142674500Y-78275321D01*
X142674500Y-78974678D01*
X138874952Y-78974678D01*
X138973429Y-78763492D01*
X138973432Y-78763486D01*
X139030636Y-78550000D01*
X138313347Y-78550000D01*
X138246308Y-78530315D01*
X138200553Y-78477511D01*
X138190609Y-78408353D01*
X138194369Y-78391067D01*
X138200000Y-78371888D01*
X138200000Y-78228111D01*
X138194369Y-78208933D01*
X138194370Y-78139064D01*
X138232145Y-78080286D01*
X138295701Y-78051262D01*
X138313347Y-78050000D01*
X139030636Y-78050000D01*
X139030635Y-78049999D01*
X138973432Y-77836513D01*
X138973429Y-77836507D01*
X138873600Y-77622422D01*
X138873599Y-77622420D01*
X138738113Y-77428926D01*
X138738108Y-77428920D01*
X138571082Y-77261894D01*
X138377578Y-77126399D01*
X138163492Y-77026570D01*
X138163477Y-77026564D01*
X138124414Y-77016097D01*
X138064754Y-76979732D01*
X138034226Y-76916885D01*
X138042521Y-76847509D01*
X138087007Y-76793632D01*
X138111710Y-76780698D01*
X138192637Y-76749348D01*
X138366041Y-76641981D01*
X138516764Y-76504579D01*
X138639673Y-76341821D01*
X138708186Y-76204226D01*
X138755687Y-76152992D01*
X138819185Y-76135500D01*
X140494090Y-76135500D01*
X140529023Y-76140522D01*
X140556122Y-76148479D01*
X140584288Y-76156750D01*
X140584289Y-76156750D01*
X140728212Y-76156750D01*
X140728212Y-76156749D01*
X140866303Y-76116203D01*
X140987378Y-76038393D01*
X141081627Y-75929623D01*
X141141415Y-75798707D01*
X141151759Y-75726752D01*
X141180783Y-75663199D01*
X141186801Y-75656734D01*
X141894217Y-74949319D01*
X141955541Y-74915834D01*
X141981899Y-74913000D01*
X142774676Y-74913000D01*
X142774677Y-74912999D01*
X142847740Y-74898466D01*
X142930601Y-74843101D01*
X142985966Y-74760240D01*
X143000500Y-74687174D01*
X143000500Y-73719500D01*
X143020185Y-73652461D01*
X143072989Y-73606706D01*
X143124500Y-73595500D01*
X147203373Y-73595500D01*
X147270412Y-73615185D01*
X147316167Y-73667989D01*
X147326111Y-73737147D01*
X147297087Y-73800702D01*
X147274623Y-73826627D01*
X147274622Y-73826628D01*
X147214834Y-73957543D01*
X147194353Y-74100000D01*
X147214834Y-74242456D01*
X147268744Y-74360500D01*
X147274623Y-74373373D01*
X147368872Y-74482143D01*
X147489947Y-74559953D01*
X147489950Y-74559954D01*
X147489949Y-74559954D01*
X147628036Y-74600499D01*
X147628038Y-74600500D01*
X147628039Y-74600500D01*
X147771962Y-74600500D01*
X147771962Y-74600499D01*
X147910053Y-74559953D01*
X148010834Y-74495184D01*
X148077874Y-74475500D01*
X149122126Y-74475500D01*
X149189165Y-74495185D01*
X149189166Y-74495185D01*
X149289947Y-74559953D01*
X149289948Y-74559953D01*
X149289949Y-74559954D01*
X149428036Y-74600499D01*
X149428038Y-74600500D01*
X149428039Y-74600500D01*
X149571962Y-74600500D01*
X149571962Y-74600499D01*
X149710053Y-74559953D01*
X149831128Y-74482143D01*
X149925377Y-74373373D01*
X149930343Y-74362500D01*
X155150000Y-74362500D01*
X155150000Y-74710344D01*
X155156401Y-74769872D01*
X155156403Y-74769879D01*
X155206645Y-74904586D01*
X155206649Y-74904593D01*
X155292809Y-75019687D01*
X155292812Y-75019690D01*
X155407906Y-75105850D01*
X155407913Y-75105854D01*
X155542620Y-75156096D01*
X155542627Y-75156098D01*
X155602155Y-75162499D01*
X155602172Y-75162500D01*
X156650000Y-75162500D01*
X156650000Y-74362500D01*
X155150000Y-74362500D01*
X149930343Y-74362500D01*
X149985165Y-74242457D01*
X150005647Y-74100000D01*
X149985165Y-73957543D01*
X149925377Y-73826627D01*
X149902912Y-73800701D01*
X149873889Y-73737146D01*
X149883833Y-73667988D01*
X149929588Y-73615184D01*
X149996627Y-73595500D01*
X155026000Y-73595500D01*
X155093039Y-73615185D01*
X155138794Y-73667989D01*
X155150000Y-73719500D01*
X155150000Y-73862500D01*
X157026000Y-73862500D01*
X157093039Y-73882185D01*
X157138794Y-73934989D01*
X157150000Y-73986500D01*
X157150000Y-75162500D01*
X158197828Y-75162500D01*
X158197844Y-75162499D01*
X158257372Y-75156098D01*
X158257379Y-75156096D01*
X158392086Y-75105854D01*
X158392093Y-75105850D01*
X158507187Y-75019690D01*
X158507190Y-75019687D01*
X158593350Y-74904593D01*
X158593354Y-74904586D01*
X158643596Y-74769879D01*
X158643598Y-74769872D01*
X158649999Y-74710344D01*
X158650000Y-74710327D01*
X158650000Y-74580399D01*
X158669685Y-74513360D01*
X158722489Y-74467605D01*
X158791647Y-74457661D01*
X158855203Y-74486686D01*
X158861681Y-74492718D01*
X159640289Y-75271326D01*
X159673774Y-75332649D01*
X159669331Y-75394765D01*
X159670986Y-75395236D01*
X159613603Y-75596915D01*
X159613602Y-75596917D01*
X159594785Y-75799999D01*
X159594785Y-75800000D01*
X159613602Y-76003082D01*
X159669417Y-76199247D01*
X159669422Y-76199260D01*
X159760327Y-76381821D01*
X159883237Y-76544581D01*
X160033958Y-76681980D01*
X160033960Y-76681982D01*
X160133141Y-76743392D01*
X160207363Y-76789348D01*
X160397544Y-76863024D01*
X160598024Y-76900500D01*
X160598026Y-76900500D01*
X160801974Y-76900500D01*
X160801976Y-76900500D01*
X161002456Y-76863024D01*
X161192637Y-76789348D01*
X161366041Y-76681981D01*
X161516764Y-76544579D01*
X161639673Y-76381821D01*
X161730582Y-76199250D01*
X161786397Y-76003083D01*
X161805215Y-75800000D01*
X161805095Y-75798710D01*
X161786397Y-75596917D01*
X161786396Y-75596915D01*
X161730582Y-75400750D01*
X161727836Y-75395236D01*
X161686272Y-75311764D01*
X161639673Y-75218179D01*
X161516764Y-75055421D01*
X161516762Y-75055418D01*
X161366041Y-74918019D01*
X161366039Y-74918017D01*
X161192642Y-74810655D01*
X161192635Y-74810651D01*
X161062495Y-74760235D01*
X161002456Y-74736976D01*
X160801976Y-74699500D01*
X160598024Y-74699500D01*
X160446739Y-74727779D01*
X160397538Y-74736977D01*
X160307445Y-74771879D01*
X160237821Y-74777740D01*
X160176081Y-74745030D01*
X160174971Y-74743933D01*
X159511819Y-74080781D01*
X159478334Y-74019458D01*
X159475500Y-73993100D01*
X159475500Y-73797026D01*
X159495185Y-73729987D01*
X159547989Y-73684232D01*
X159617147Y-73674288D01*
X159680703Y-73703313D01*
X159710500Y-73741755D01*
X159760327Y-73841821D01*
X159821781Y-73923200D01*
X159883237Y-74004581D01*
X160033958Y-74141980D01*
X160033960Y-74141982D01*
X160102255Y-74184268D01*
X160207363Y-74249348D01*
X160397544Y-74323024D01*
X160598024Y-74360500D01*
X160598026Y-74360500D01*
X160801974Y-74360500D01*
X160801976Y-74360500D01*
X161002456Y-74323024D01*
X161192637Y-74249348D01*
X161366041Y-74141981D01*
X161494122Y-74025219D01*
X161516762Y-74004581D01*
X161516764Y-74004579D01*
X161639673Y-73841821D01*
X161730582Y-73659250D01*
X161786397Y-73463083D01*
X161805215Y-73260000D01*
X161803917Y-73245997D01*
X161786397Y-73056917D01*
X161783957Y-73048341D01*
X161730582Y-72860750D01*
X161715012Y-72829482D01*
X161680532Y-72760235D01*
X161639673Y-72678179D01*
X161516764Y-72515421D01*
X161516762Y-72515418D01*
X161366041Y-72378019D01*
X161366039Y-72378017D01*
X161192640Y-72270653D01*
X161192634Y-72270650D01*
X161065170Y-72221271D01*
X161018069Y-72185076D01*
X161017092Y-72186054D01*
X161016977Y-72185939D01*
X161014008Y-72181956D01*
X161009768Y-72178698D01*
X161009044Y-72177694D01*
X161005272Y-72172411D01*
X161000420Y-72166176D01*
X161000419Y-72166174D01*
X160990428Y-72156977D01*
X160960029Y-72128992D01*
X160931037Y-72100000D01*
X160841571Y-72010534D01*
X160808088Y-71949214D01*
X160813072Y-71879522D01*
X160854943Y-71823588D01*
X160906466Y-71800967D01*
X161002456Y-71783024D01*
X161192637Y-71709348D01*
X161366041Y-71601981D01*
X161516561Y-71464764D01*
X161516762Y-71464581D01*
X161516764Y-71464579D01*
X161639673Y-71301821D01*
X161730582Y-71119250D01*
X161786397Y-70923083D01*
X161805215Y-70720000D01*
X161802173Y-70687176D01*
X161786397Y-70516917D01*
X161752941Y-70399333D01*
X161730582Y-70320750D01*
X161727836Y-70315236D01*
X161643672Y-70146211D01*
X161639673Y-70138179D01*
X161550022Y-70019462D01*
X161516762Y-69975418D01*
X161366041Y-69838019D01*
X161366039Y-69838017D01*
X161192642Y-69730655D01*
X161192635Y-69730651D01*
X161076057Y-69685489D01*
X161002456Y-69656976D01*
X160801976Y-69619500D01*
X160598024Y-69619500D01*
X160527490Y-69632685D01*
X160397536Y-69656977D01*
X160307443Y-69691879D01*
X160237820Y-69697740D01*
X160176080Y-69665030D01*
X160174970Y-69663933D01*
X159036819Y-68525781D01*
X159003334Y-68464458D01*
X159000500Y-68438100D01*
X159000500Y-67310898D01*
X159020185Y-67243859D01*
X159072989Y-67198104D01*
X159142147Y-67188160D01*
X159205703Y-67217185D01*
X159212176Y-67223212D01*
X159453723Y-67464760D01*
X159640289Y-67651326D01*
X159673774Y-67712649D01*
X159669331Y-67774765D01*
X159670986Y-67775236D01*
X159613603Y-67976915D01*
X159613602Y-67976917D01*
X159594785Y-68179999D01*
X159594785Y-68180000D01*
X159613602Y-68383082D01*
X159669417Y-68579247D01*
X159669422Y-68579260D01*
X159760327Y-68761821D01*
X159883237Y-68924581D01*
X160033958Y-69061980D01*
X160033960Y-69061982D01*
X160038232Y-69064627D01*
X160207363Y-69169348D01*
X160397544Y-69243024D01*
X160598024Y-69280500D01*
X160598026Y-69280500D01*
X160801974Y-69280500D01*
X160801976Y-69280500D01*
X161002456Y-69243024D01*
X161192637Y-69169348D01*
X161366041Y-69061981D01*
X161516764Y-68924579D01*
X161639673Y-68761821D01*
X161730582Y-68579250D01*
X161786397Y-68383083D01*
X161805215Y-68180000D01*
X161801508Y-68139999D01*
X161786397Y-67976917D01*
X161750988Y-67852469D01*
X161730582Y-67780750D01*
X161727836Y-67775236D01*
X161647053Y-67613000D01*
X161639673Y-67598179D01*
X161516764Y-67435421D01*
X161516762Y-67435418D01*
X161366041Y-67298019D01*
X161366039Y-67298017D01*
X161192642Y-67190655D01*
X161192635Y-67190651D01*
X161089382Y-67150651D01*
X161002456Y-67116976D01*
X160801976Y-67079500D01*
X160598024Y-67079500D01*
X160446739Y-67107779D01*
X160397538Y-67116977D01*
X160307445Y-67151879D01*
X160237821Y-67157740D01*
X160176081Y-67125030D01*
X160174971Y-67123933D01*
X159486819Y-66435781D01*
X159453334Y-66374458D01*
X159450500Y-66348100D01*
X159450500Y-66126820D01*
X159470185Y-66059781D01*
X159522989Y-66014026D01*
X159592147Y-66004082D01*
X159655703Y-66033107D01*
X159685500Y-66071548D01*
X159760327Y-66221821D01*
X159883237Y-66384581D01*
X160033958Y-66521980D01*
X160033960Y-66521982D01*
X160133141Y-66583392D01*
X160207363Y-66629348D01*
X160397544Y-66703024D01*
X160598024Y-66740500D01*
X160598026Y-66740500D01*
X160801974Y-66740500D01*
X160801976Y-66740500D01*
X161002456Y-66703024D01*
X161192637Y-66629348D01*
X161366041Y-66521981D01*
X161494122Y-66405219D01*
X161516762Y-66384581D01*
X161516764Y-66384579D01*
X161639673Y-66221821D01*
X161730582Y-66039250D01*
X161786397Y-65843083D01*
X161805215Y-65640000D01*
X161801508Y-65599999D01*
X161786397Y-65436917D01*
X161754990Y-65326534D01*
X161730582Y-65240750D01*
X161710665Y-65200752D01*
X161686272Y-65151764D01*
X161639673Y-65058179D01*
X161530038Y-64912999D01*
X161516762Y-64895418D01*
X161366041Y-64758019D01*
X161366039Y-64758017D01*
X161192642Y-64650655D01*
X161192635Y-64650651D01*
X161111715Y-64619303D01*
X161056313Y-64576730D01*
X161032723Y-64510963D01*
X161048434Y-64442883D01*
X161098458Y-64394104D01*
X161124417Y-64383901D01*
X161163481Y-64373434D01*
X161163492Y-64373429D01*
X161377578Y-64273600D01*
X161571082Y-64138105D01*
X161738105Y-63971082D01*
X161873600Y-63777578D01*
X161973429Y-63563492D01*
X161973432Y-63563486D01*
X162030636Y-63350000D01*
X161313347Y-63350000D01*
X161246308Y-63330315D01*
X161200553Y-63277511D01*
X161190609Y-63208353D01*
X161194369Y-63191067D01*
X161200000Y-63171888D01*
X161200000Y-63028111D01*
X161194369Y-63008933D01*
X161194370Y-62939064D01*
X161232145Y-62880286D01*
X161295701Y-62851262D01*
X161313347Y-62850000D01*
X162030636Y-62850000D01*
X162030635Y-62849999D01*
X161973432Y-62636513D01*
X161973429Y-62636507D01*
X161873600Y-62422422D01*
X161873599Y-62422420D01*
X161738113Y-62228926D01*
X161738108Y-62228920D01*
X161571082Y-62061894D01*
X161377578Y-61926399D01*
X161314277Y-61896882D01*
X161261838Y-61850710D01*
X161242686Y-61783516D01*
X161262902Y-61716635D01*
X161316067Y-61671300D01*
X161366682Y-61660500D01*
X161574676Y-61660500D01*
X161574677Y-61660499D01*
X161647740Y-61645966D01*
X161730601Y-61590601D01*
X161785966Y-61507740D01*
X161800500Y-61434674D01*
X161800500Y-59685326D01*
X161800500Y-59685323D01*
X161800499Y-59685321D01*
X161785967Y-59612264D01*
X161785966Y-59612260D01*
X161776339Y-59597852D01*
X161730601Y-59529399D01*
X161647740Y-59474034D01*
X161647739Y-59474033D01*
X161647735Y-59474032D01*
X161574677Y-59459500D01*
X161574674Y-59459500D01*
X159825326Y-59459500D01*
X159825323Y-59459500D01*
X159752264Y-59474032D01*
X159752260Y-59474033D01*
X159669399Y-59529399D01*
X159614033Y-59612260D01*
X159614032Y-59612264D01*
X159599500Y-59685321D01*
X159599499Y-59685323D01*
X159599499Y-61434676D01*
X159599500Y-61434678D01*
X159614032Y-61507735D01*
X159614301Y-61508384D01*
X159614465Y-61509912D01*
X159616416Y-61519719D01*
X159615538Y-61519893D01*
X159621771Y-61577853D01*
X159590499Y-61640333D01*
X159530411Y-61675987D01*
X159460585Y-61673496D01*
X159412060Y-61643521D01*
X158436819Y-60668280D01*
X158403334Y-60606957D01*
X158400500Y-60580599D01*
X158400500Y-59537823D01*
X158400499Y-59537821D01*
X158385967Y-59464764D01*
X158385966Y-59464760D01*
X158382451Y-59459500D01*
X158330601Y-59381899D01*
X158247740Y-59326534D01*
X158247739Y-59326533D01*
X158247735Y-59326532D01*
X158174677Y-59312000D01*
X158174674Y-59312000D01*
X155625326Y-59312000D01*
X155625323Y-59312000D01*
X155552264Y-59326532D01*
X155552260Y-59326533D01*
X155469399Y-59381899D01*
X155414033Y-59464760D01*
X155414032Y-59464764D01*
X155399500Y-59537821D01*
X155399500Y-60687178D01*
X155414032Y-60760235D01*
X155414033Y-60760239D01*
X155414034Y-60760240D01*
X155469399Y-60843101D01*
X155552260Y-60898466D01*
X155552264Y-60898467D01*
X155625321Y-60912999D01*
X155625324Y-60913000D01*
X155625326Y-60913000D01*
X157568101Y-60913000D01*
X157635140Y-60932685D01*
X157655782Y-60949319D01*
X157806782Y-61100319D01*
X157840267Y-61161642D01*
X157835283Y-61231334D01*
X157793411Y-61287267D01*
X157727947Y-61311684D01*
X157719101Y-61312000D01*
X155625323Y-61312000D01*
X155552264Y-61326532D01*
X155552260Y-61326533D01*
X155469399Y-61381899D01*
X155414033Y-61464760D01*
X155414032Y-61464764D01*
X155399500Y-61537821D01*
X155399500Y-62481600D01*
X155379815Y-62548639D01*
X155327011Y-62594394D01*
X155257853Y-62604338D01*
X155194297Y-62575313D01*
X155187819Y-62569281D01*
X151627149Y-59008611D01*
X151611022Y-58988752D01*
X151605086Y-58979667D01*
X151605083Y-58979663D01*
X151577074Y-58957863D01*
X151571310Y-58952772D01*
X151568515Y-58949977D01*
X151549505Y-58936406D01*
X151506189Y-58902690D01*
X151499274Y-58898948D01*
X151492200Y-58895490D01*
X151439596Y-58879829D01*
X151387658Y-58861999D01*
X151379923Y-58860708D01*
X151372085Y-58859731D01*
X151317244Y-58862000D01*
X137239304Y-58862000D01*
X137213857Y-58859361D01*
X137211213Y-58858806D01*
X137203229Y-58857132D01*
X137168009Y-58861523D01*
X137160332Y-58862000D01*
X137156386Y-58862000D01*
X137139106Y-58864883D01*
X137133346Y-58865844D01*
X137078868Y-58872635D01*
X137071344Y-58874875D01*
X137063892Y-58877434D01*
X137015619Y-58903557D01*
X136966290Y-58927672D01*
X136959898Y-58932235D01*
X136953674Y-58937080D01*
X136916503Y-58977458D01*
X136296108Y-59597852D01*
X136276254Y-59613976D01*
X136267165Y-59619914D01*
X136267164Y-59619915D01*
X136245363Y-59647923D01*
X136240286Y-59653674D01*
X136237484Y-59656477D01*
X136237474Y-59656488D01*
X136223905Y-59675495D01*
X136190192Y-59718808D01*
X136186447Y-59725729D01*
X136182988Y-59732804D01*
X136167329Y-59785403D01*
X136149500Y-59837338D01*
X136148206Y-59845092D01*
X136147231Y-59852911D01*
X136149500Y-59907755D01*
X136149500Y-61833196D01*
X136146862Y-61858634D01*
X136144633Y-61869268D01*
X136144633Y-61869269D01*
X136144633Y-61869271D01*
X136149023Y-61904491D01*
X136149500Y-61912167D01*
X136149500Y-61916116D01*
X136153342Y-61939141D01*
X136160134Y-61993627D01*
X136162373Y-62001147D01*
X136164934Y-62008608D01*
X136164935Y-62008610D01*
X136173219Y-62023918D01*
X136191055Y-62056877D01*
X136215174Y-62106211D01*
X136219742Y-62112609D01*
X136224582Y-62118827D01*
X136264970Y-62156008D01*
X136640289Y-62531326D01*
X136673774Y-62592649D01*
X136669331Y-62654765D01*
X136670986Y-62655236D01*
X136613603Y-62856915D01*
X136613602Y-62856917D01*
X136594785Y-63059999D01*
X136594785Y-63060000D01*
X136613602Y-63263082D01*
X136669417Y-63459247D01*
X136669422Y-63459260D01*
X136760327Y-63641821D01*
X136883237Y-63804581D01*
X137033958Y-63941980D01*
X137033960Y-63941982D01*
X137089777Y-63976542D01*
X137207363Y-64049348D01*
X137397544Y-64123024D01*
X137598024Y-64160500D01*
X137598026Y-64160500D01*
X137801974Y-64160500D01*
X137801976Y-64160500D01*
X138002456Y-64123024D01*
X138192637Y-64049348D01*
X138310223Y-63976541D01*
X138377583Y-63957986D01*
X138444282Y-63978794D01*
X138489144Y-64032360D01*
X138499500Y-64081969D01*
X138499500Y-64578030D01*
X138479815Y-64645069D01*
X138427011Y-64690824D01*
X138357853Y-64700768D01*
X138310223Y-64683457D01*
X138192642Y-64610655D01*
X138192635Y-64610651D01*
X138097546Y-64573814D01*
X138002456Y-64536976D01*
X137801976Y-64499500D01*
X137598024Y-64499500D01*
X137397544Y-64536976D01*
X137397541Y-64536976D01*
X137397541Y-64536977D01*
X137207364Y-64610651D01*
X137207357Y-64610655D01*
X137033960Y-64718017D01*
X137033958Y-64718019D01*
X136883237Y-64855418D01*
X136760327Y-65018178D01*
X136669422Y-65200739D01*
X136669417Y-65200752D01*
X136613602Y-65396917D01*
X136594785Y-65599999D01*
X136594785Y-65600000D01*
X136613602Y-65803082D01*
X136669417Y-65999247D01*
X136669422Y-65999260D01*
X136760327Y-66181821D01*
X136883237Y-66344581D01*
X137033958Y-66481980D01*
X137033960Y-66481982D01*
X137075472Y-66507685D01*
X137207363Y-66589348D01*
X137257642Y-66608826D01*
X137321168Y-66633436D01*
X137376570Y-66676009D01*
X137387772Y-66694597D01*
X137390173Y-66699509D01*
X137394741Y-66705907D01*
X137399582Y-66712126D01*
X137439971Y-66749308D01*
X137472558Y-66781894D01*
X137543010Y-66852346D01*
X137576494Y-66913667D01*
X137571510Y-66983359D01*
X137529639Y-67039293D01*
X137478114Y-67061914D01*
X137397545Y-67076975D01*
X137207364Y-67150651D01*
X137207357Y-67150655D01*
X137033960Y-67258017D01*
X137033958Y-67258019D01*
X136883237Y-67395418D01*
X136760327Y-67558178D01*
X136669422Y-67740739D01*
X136669417Y-67740752D01*
X136613602Y-67936917D01*
X136594785Y-68139999D01*
X136594785Y-68140000D01*
X136613602Y-68343082D01*
X136669417Y-68539247D01*
X136669422Y-68539260D01*
X136760327Y-68721821D01*
X136883237Y-68884581D01*
X137008702Y-68998957D01*
X137044984Y-69058668D01*
X137043223Y-69128516D01*
X137003980Y-69186323D01*
X136997218Y-69191511D01*
X136985680Y-69199749D01*
X136979474Y-69204579D01*
X136942291Y-69244970D01*
X136296108Y-69891151D01*
X136276254Y-69907275D01*
X136267165Y-69913213D01*
X136267164Y-69913214D01*
X136245363Y-69941222D01*
X136240286Y-69946973D01*
X136237484Y-69949776D01*
X136237474Y-69949787D01*
X136223905Y-69968794D01*
X136190192Y-70012107D01*
X136186447Y-70019028D01*
X136182988Y-70026103D01*
X136167329Y-70078702D01*
X136149500Y-70130637D01*
X136148206Y-70138391D01*
X136147231Y-70146210D01*
X136149500Y-70201054D01*
X136149500Y-79613196D01*
X136146862Y-79638634D01*
X136144633Y-79649268D01*
X136144633Y-79649269D01*
X136144633Y-79649271D01*
X135400000Y-79649271D01*
X135400000Y-58524500D01*
X135419685Y-58457461D01*
X135472489Y-58411706D01*
X135524000Y-58400500D01*
X162876000Y-58400500D01*
X162943039Y-58420185D01*
G37*
G04 #@! TD.AperFunction*
M02*
