G04 #@! TF.GenerationSoftware,KiCad,Pcbnew,7.0.7*
G04 #@! TF.CreationDate,2023-09-13T10:23:32-04:00*
G04 #@! TF.ProjectId,sensor_node,73656e73-6f72-45f6-9e6f-64652e6b6963,rev?*
G04 #@! TF.SameCoordinates,Original*
G04 #@! TF.FileFunction,Soldermask,Bot*
G04 #@! TF.FilePolarity,Negative*
%FSLAX46Y46*%
G04 Gerber Fmt 4.6, Leading zero omitted, Abs format (unit mm)*
G04 Created by KiCad (PCBNEW 7.0.7) date 2023-09-13 10:23:32*
%MOMM*%
%LPD*%
G01*
G04 APERTURE LIST*
%ADD10R,1.700000X1.700000*%
%ADD11O,1.700000X1.700000*%
%ADD12R,1.600000X1.600000*%
%ADD13O,1.600000X1.600000*%
%ADD14R,2.000000X2.000000*%
%ADD15C,2.000000*%
%ADD16R,1.500000X1.050000*%
%ADD17O,1.500000X1.050000*%
%ADD18C,1.500000*%
%ADD19R,2.000000X3.200000*%
%ADD20O,3.500000X1.350000*%
%ADD21C,1.600000*%
%ADD22O,1.850000X3.048000*%
G04 APERTURE END LIST*
D10*
X154686000Y-115062000D03*
D11*
X154686000Y-112522000D03*
D10*
X139446000Y-38557200D03*
D11*
X139446000Y-41097200D03*
X139446000Y-43637200D03*
X139446000Y-46177200D03*
X139446000Y-48717200D03*
X139446000Y-51257200D03*
X139446000Y-53797200D03*
X139446000Y-56337200D03*
X139446000Y-58877200D03*
X139446000Y-61417200D03*
X139446000Y-63957200D03*
X139446000Y-66497200D03*
X139446000Y-69037200D03*
X139446000Y-71577200D03*
X139446000Y-74117200D03*
D10*
X133315000Y-38590000D03*
D11*
X133315000Y-41130000D03*
X133315000Y-43670000D03*
X133315000Y-46210000D03*
X133315000Y-48750000D03*
X133315000Y-51290000D03*
X133315000Y-53830000D03*
X133315000Y-56370000D03*
X133315000Y-58910000D03*
X133315000Y-61450000D03*
X133315000Y-63990000D03*
X133315000Y-66530000D03*
X133315000Y-69070000D03*
X133315000Y-71610000D03*
X133315000Y-74150000D03*
X133315000Y-76690000D03*
X133315000Y-79230000D03*
X133315000Y-81770000D03*
X133315000Y-84310000D03*
X133315000Y-86850000D03*
X133315000Y-89390000D03*
X133315000Y-91930000D03*
X133315000Y-94470000D03*
X133315000Y-97010000D03*
X133315000Y-99550000D03*
X133315000Y-102090000D03*
X133315000Y-104630000D03*
X133315000Y-107170000D03*
X133315000Y-109710000D03*
X133315000Y-112250000D03*
X133315000Y-114790000D03*
X133315000Y-117330000D03*
X133315000Y-119870000D03*
X133315000Y-122410000D03*
X133315000Y-124950000D03*
X133315000Y-127490000D03*
X133315000Y-130030000D03*
X133315000Y-132570000D03*
X133315000Y-135110000D03*
D10*
X162340000Y-38590000D03*
D11*
X162340000Y-41130000D03*
X162340000Y-43670000D03*
X162340000Y-46210000D03*
X162340000Y-48750000D03*
X162340000Y-51290000D03*
X162340000Y-53830000D03*
X162340000Y-56370000D03*
X162340000Y-58910000D03*
X162340000Y-61450000D03*
X162340000Y-63990000D03*
X162340000Y-66530000D03*
X162340000Y-69070000D03*
X162340000Y-71610000D03*
X162340000Y-74150000D03*
X162340000Y-76690000D03*
X162340000Y-79230000D03*
X162340000Y-81770000D03*
X162340000Y-84310000D03*
X162340000Y-86850000D03*
X162340000Y-89390000D03*
X162340000Y-91930000D03*
X162340000Y-94470000D03*
X162340000Y-97010000D03*
X162340000Y-99550000D03*
X162340000Y-102090000D03*
X162340000Y-104630000D03*
X162340000Y-107170000D03*
X162340000Y-109710000D03*
X162340000Y-112250000D03*
X162340000Y-114790000D03*
X162340000Y-117330000D03*
X162340000Y-119870000D03*
X162340000Y-122410000D03*
X162340000Y-124950000D03*
X162340000Y-127490000D03*
X162340000Y-130030000D03*
X162340000Y-132570000D03*
X162340000Y-135110000D03*
D12*
X144526000Y-100838000D03*
D13*
X147066000Y-100838000D03*
X149606000Y-100838000D03*
X152146000Y-100838000D03*
X152146000Y-93218000D03*
X149606000Y-93218000D03*
X147066000Y-93218000D03*
X144526000Y-93218000D03*
D14*
X141742000Y-110744000D03*
D15*
X149342000Y-110744000D03*
D16*
X128750000Y-57000000D03*
D17*
X128750000Y-55730000D03*
X128750000Y-54460000D03*
D18*
X145622000Y-75042000D03*
X150622000Y-75042000D03*
D14*
X145622000Y-89542000D03*
D15*
X150622000Y-89542000D03*
X148122000Y-89542000D03*
D19*
X142522000Y-82042000D03*
X153722000Y-82042000D03*
D10*
X146558000Y-132108000D03*
D11*
X149098000Y-132108000D03*
D10*
X129500000Y-66470000D03*
D11*
X129500000Y-69010000D03*
X129500000Y-71550000D03*
X129500000Y-74090000D03*
X129500000Y-76630000D03*
X129500000Y-79170000D03*
X129500000Y-81710000D03*
X129500000Y-84250000D03*
X129500000Y-86790000D03*
X129500000Y-89330000D03*
D20*
X154798000Y-134568000D03*
X154798000Y-132568000D03*
X154798000Y-130568000D03*
X154798000Y-128568000D03*
X154798000Y-126568000D03*
X154798000Y-124568000D03*
X154798000Y-122568000D03*
X154798000Y-120568000D03*
X140804000Y-134568000D03*
X140804000Y-132568000D03*
X140804000Y-130568000D03*
X140804000Y-128568000D03*
X140804000Y-126568000D03*
X140804000Y-124568000D03*
X140804000Y-122568000D03*
X140804000Y-120568000D03*
D10*
X154686000Y-107696000D03*
D11*
X154686000Y-105156000D03*
D12*
X144526000Y-46228000D03*
D13*
X147066000Y-46228000D03*
X149606000Y-46228000D03*
X152146000Y-46228000D03*
X152146000Y-38608000D03*
X149606000Y-38608000D03*
X147066000Y-38608000D03*
X144526000Y-38608000D03*
D10*
X146558000Y-127508000D03*
D11*
X149098000Y-127508000D03*
D12*
X129000000Y-62750000D03*
D21*
X129000000Y-60750000D03*
D10*
X146558000Y-122428000D03*
D11*
X149098000Y-122428000D03*
D22*
X145836000Y-62882000D03*
X145836000Y-50382000D03*
X150836000Y-62882000D03*
X150836000Y-50382000D03*
D15*
X151535200Y-71846000D03*
X145035200Y-71846000D03*
X151535200Y-67346000D03*
X145035200Y-67346000D03*
D10*
X136398000Y-38608000D03*
D11*
X136398000Y-41148000D03*
X136398000Y-43688000D03*
X136398000Y-46228000D03*
X136398000Y-48768000D03*
X136398000Y-51308000D03*
X136398000Y-53848000D03*
X136398000Y-56388000D03*
X136398000Y-58928000D03*
X136398000Y-61468000D03*
X136398000Y-64008000D03*
X136398000Y-66548000D03*
X136398000Y-69088000D03*
X136398000Y-71628000D03*
X136398000Y-74168000D03*
X136398000Y-76708000D03*
X136398000Y-79248000D03*
X136398000Y-81788000D03*
X136398000Y-84328000D03*
X136398000Y-86868000D03*
X136398000Y-89408000D03*
X136398000Y-91948000D03*
X136398000Y-94488000D03*
X136398000Y-97028000D03*
X136398000Y-99568000D03*
X136398000Y-102108000D03*
X136398000Y-104648000D03*
X136398000Y-107188000D03*
X136398000Y-109728000D03*
X136398000Y-112268000D03*
X136398000Y-114808000D03*
X136398000Y-117348000D03*
X136398000Y-119888000D03*
X136398000Y-122428000D03*
X136398000Y-124968000D03*
X136398000Y-127508000D03*
X136398000Y-130048000D03*
X136398000Y-132588000D03*
X136398000Y-135128000D03*
D10*
X159258000Y-38608000D03*
D11*
X159258000Y-41148000D03*
X159258000Y-43688000D03*
X159258000Y-46228000D03*
X159258000Y-48768000D03*
X159258000Y-51308000D03*
X159258000Y-53848000D03*
X159258000Y-56388000D03*
X159258000Y-58928000D03*
X159258000Y-61468000D03*
X159258000Y-64008000D03*
X159258000Y-66548000D03*
X159258000Y-69088000D03*
X159258000Y-71628000D03*
X159258000Y-74168000D03*
X159258000Y-76708000D03*
X159258000Y-79248000D03*
X159258000Y-81788000D03*
X159258000Y-84328000D03*
X159258000Y-86868000D03*
X159258000Y-89408000D03*
X159258000Y-91948000D03*
X159258000Y-94488000D03*
X159258000Y-97028000D03*
X159258000Y-99568000D03*
X159258000Y-102108000D03*
X159258000Y-104648000D03*
X159258000Y-107188000D03*
X159258000Y-109728000D03*
X159258000Y-112268000D03*
X159258000Y-114808000D03*
X159258000Y-117348000D03*
X159258000Y-119888000D03*
X159258000Y-122428000D03*
X159258000Y-124968000D03*
X159258000Y-127508000D03*
X159258000Y-130048000D03*
X159258000Y-132588000D03*
X159258000Y-135128000D03*
M02*
