G04 #@! TF.GenerationSoftware,KiCad,Pcbnew,7.0.7*
G04 #@! TF.CreationDate,2023-09-13T10:23:32-04:00*
G04 #@! TF.ProjectId,sensor_node,73656e73-6f72-45f6-9e6f-64652e6b6963,rev?*
G04 #@! TF.SameCoordinates,Original*
G04 #@! TF.FileFunction,Copper,L2,Bot*
G04 #@! TF.FilePolarity,Positive*
%FSLAX46Y46*%
G04 Gerber Fmt 4.6, Leading zero omitted, Abs format (unit mm)*
G04 Created by KiCad (PCBNEW 7.0.7) date 2023-09-13 10:23:32*
%MOMM*%
%LPD*%
G01*
G04 APERTURE LIST*
G04 #@! TA.AperFunction,ComponentPad*
%ADD10R,1.700000X1.700000*%
G04 #@! TD*
G04 #@! TA.AperFunction,ComponentPad*
%ADD11O,1.700000X1.700000*%
G04 #@! TD*
G04 #@! TA.AperFunction,ComponentPad*
%ADD12R,1.600000X1.600000*%
G04 #@! TD*
G04 #@! TA.AperFunction,ComponentPad*
%ADD13O,1.600000X1.600000*%
G04 #@! TD*
G04 #@! TA.AperFunction,ComponentPad*
%ADD14R,2.000000X2.000000*%
G04 #@! TD*
G04 #@! TA.AperFunction,ComponentPad*
%ADD15C,2.000000*%
G04 #@! TD*
G04 #@! TA.AperFunction,ComponentPad*
%ADD16R,1.500000X1.050000*%
G04 #@! TD*
G04 #@! TA.AperFunction,ComponentPad*
%ADD17O,1.500000X1.050000*%
G04 #@! TD*
G04 #@! TA.AperFunction,ComponentPad*
%ADD18C,1.500000*%
G04 #@! TD*
G04 #@! TA.AperFunction,ComponentPad*
%ADD19R,2.000000X3.200000*%
G04 #@! TD*
G04 #@! TA.AperFunction,ComponentPad*
%ADD20O,3.500000X1.350000*%
G04 #@! TD*
G04 #@! TA.AperFunction,ComponentPad*
%ADD21C,1.600000*%
G04 #@! TD*
G04 #@! TA.AperFunction,ComponentPad*
%ADD22O,1.850000X3.048000*%
G04 #@! TD*
G04 #@! TA.AperFunction,ViaPad*
%ADD23C,0.800000*%
G04 #@! TD*
G04 #@! TA.AperFunction,Conductor*
%ADD24C,0.200000*%
G04 #@! TD*
G04 #@! TA.AperFunction,Conductor*
%ADD25C,0.150000*%
G04 #@! TD*
G04 APERTURE END LIST*
D10*
X154686000Y-115062000D03*
D11*
X154686000Y-112522000D03*
D10*
X139446000Y-38557200D03*
D11*
X139446000Y-41097200D03*
X139446000Y-43637200D03*
X139446000Y-46177200D03*
X139446000Y-48717200D03*
X139446000Y-51257200D03*
X139446000Y-53797200D03*
X139446000Y-56337200D03*
X139446000Y-58877200D03*
X139446000Y-61417200D03*
X139446000Y-63957200D03*
X139446000Y-66497200D03*
X139446000Y-69037200D03*
X139446000Y-71577200D03*
X139446000Y-74117200D03*
D10*
X133315000Y-38590000D03*
D11*
X133315000Y-41130000D03*
X133315000Y-43670000D03*
X133315000Y-46210000D03*
X133315000Y-48750000D03*
X133315000Y-51290000D03*
X133315000Y-53830000D03*
X133315000Y-56370000D03*
X133315000Y-58910000D03*
X133315000Y-61450000D03*
X133315000Y-63990000D03*
X133315000Y-66530000D03*
X133315000Y-69070000D03*
X133315000Y-71610000D03*
X133315000Y-74150000D03*
X133315000Y-76690000D03*
X133315000Y-79230000D03*
X133315000Y-81770000D03*
X133315000Y-84310000D03*
X133315000Y-86850000D03*
X133315000Y-89390000D03*
X133315000Y-91930000D03*
X133315000Y-94470000D03*
X133315000Y-97010000D03*
X133315000Y-99550000D03*
X133315000Y-102090000D03*
X133315000Y-104630000D03*
X133315000Y-107170000D03*
X133315000Y-109710000D03*
X133315000Y-112250000D03*
X133315000Y-114790000D03*
X133315000Y-117330000D03*
X133315000Y-119870000D03*
X133315000Y-122410000D03*
X133315000Y-124950000D03*
X133315000Y-127490000D03*
X133315000Y-130030000D03*
X133315000Y-132570000D03*
X133315000Y-135110000D03*
D10*
X162340000Y-38590000D03*
D11*
X162340000Y-41130000D03*
X162340000Y-43670000D03*
X162340000Y-46210000D03*
X162340000Y-48750000D03*
X162340000Y-51290000D03*
X162340000Y-53830000D03*
X162340000Y-56370000D03*
X162340000Y-58910000D03*
X162340000Y-61450000D03*
X162340000Y-63990000D03*
X162340000Y-66530000D03*
X162340000Y-69070000D03*
X162340000Y-71610000D03*
X162340000Y-74150000D03*
X162340000Y-76690000D03*
X162340000Y-79230000D03*
X162340000Y-81770000D03*
X162340000Y-84310000D03*
X162340000Y-86850000D03*
X162340000Y-89390000D03*
X162340000Y-91930000D03*
X162340000Y-94470000D03*
X162340000Y-97010000D03*
X162340000Y-99550000D03*
X162340000Y-102090000D03*
X162340000Y-104630000D03*
X162340000Y-107170000D03*
X162340000Y-109710000D03*
X162340000Y-112250000D03*
X162340000Y-114790000D03*
X162340000Y-117330000D03*
X162340000Y-119870000D03*
X162340000Y-122410000D03*
X162340000Y-124950000D03*
X162340000Y-127490000D03*
X162340000Y-130030000D03*
X162340000Y-132570000D03*
X162340000Y-135110000D03*
D12*
X144526000Y-100838000D03*
D13*
X147066000Y-100838000D03*
X149606000Y-100838000D03*
X152146000Y-100838000D03*
X152146000Y-93218000D03*
X149606000Y-93218000D03*
X147066000Y-93218000D03*
X144526000Y-93218000D03*
D14*
X141742000Y-110744000D03*
D15*
X149342000Y-110744000D03*
D16*
X128750000Y-57000000D03*
D17*
X128750000Y-55730000D03*
X128750000Y-54460000D03*
D18*
X145622000Y-75042000D03*
X150622000Y-75042000D03*
D14*
X145622000Y-89542000D03*
D15*
X150622000Y-89542000D03*
X148122000Y-89542000D03*
D19*
X142522000Y-82042000D03*
X153722000Y-82042000D03*
D10*
X146558000Y-132108000D03*
D11*
X149098000Y-132108000D03*
D10*
X129500000Y-66470000D03*
D11*
X129500000Y-69010000D03*
X129500000Y-71550000D03*
X129500000Y-74090000D03*
X129500000Y-76630000D03*
X129500000Y-79170000D03*
X129500000Y-81710000D03*
X129500000Y-84250000D03*
X129500000Y-86790000D03*
X129500000Y-89330000D03*
D20*
X154798000Y-134568000D03*
X154798000Y-132568000D03*
X154798000Y-130568000D03*
X154798000Y-128568000D03*
X154798000Y-126568000D03*
X154798000Y-124568000D03*
X154798000Y-122568000D03*
X154798000Y-120568000D03*
X140804000Y-134568000D03*
X140804000Y-132568000D03*
X140804000Y-130568000D03*
X140804000Y-128568000D03*
X140804000Y-126568000D03*
X140804000Y-124568000D03*
X140804000Y-122568000D03*
X140804000Y-120568000D03*
D10*
X154686000Y-107696000D03*
D11*
X154686000Y-105156000D03*
D12*
X144526000Y-46228000D03*
D13*
X147066000Y-46228000D03*
X149606000Y-46228000D03*
X152146000Y-46228000D03*
X152146000Y-38608000D03*
X149606000Y-38608000D03*
X147066000Y-38608000D03*
X144526000Y-38608000D03*
D10*
X146558000Y-127508000D03*
D11*
X149098000Y-127508000D03*
D12*
X129000000Y-62750000D03*
D21*
X129000000Y-60750000D03*
D10*
X146558000Y-122428000D03*
D11*
X149098000Y-122428000D03*
D22*
X145836000Y-62882000D03*
X145836000Y-50382000D03*
X150836000Y-62882000D03*
X150836000Y-50382000D03*
D15*
X151535200Y-71846000D03*
X145035200Y-71846000D03*
X151535200Y-67346000D03*
X145035200Y-67346000D03*
D10*
X136398000Y-38608000D03*
D11*
X136398000Y-41148000D03*
X136398000Y-43688000D03*
X136398000Y-46228000D03*
X136398000Y-48768000D03*
X136398000Y-51308000D03*
X136398000Y-53848000D03*
X136398000Y-56388000D03*
X136398000Y-58928000D03*
X136398000Y-61468000D03*
X136398000Y-64008000D03*
X136398000Y-66548000D03*
X136398000Y-69088000D03*
X136398000Y-71628000D03*
X136398000Y-74168000D03*
X136398000Y-76708000D03*
X136398000Y-79248000D03*
X136398000Y-81788000D03*
X136398000Y-84328000D03*
X136398000Y-86868000D03*
X136398000Y-89408000D03*
X136398000Y-91948000D03*
X136398000Y-94488000D03*
X136398000Y-97028000D03*
X136398000Y-99568000D03*
X136398000Y-102108000D03*
X136398000Y-104648000D03*
X136398000Y-107188000D03*
X136398000Y-109728000D03*
X136398000Y-112268000D03*
X136398000Y-114808000D03*
X136398000Y-117348000D03*
X136398000Y-119888000D03*
X136398000Y-122428000D03*
X136398000Y-124968000D03*
X136398000Y-127508000D03*
X136398000Y-130048000D03*
X136398000Y-132588000D03*
X136398000Y-135128000D03*
D10*
X159258000Y-38608000D03*
D11*
X159258000Y-41148000D03*
X159258000Y-43688000D03*
X159258000Y-46228000D03*
X159258000Y-48768000D03*
X159258000Y-51308000D03*
X159258000Y-53848000D03*
X159258000Y-56388000D03*
X159258000Y-58928000D03*
X159258000Y-61468000D03*
X159258000Y-64008000D03*
X159258000Y-66548000D03*
X159258000Y-69088000D03*
X159258000Y-71628000D03*
X159258000Y-74168000D03*
X159258000Y-76708000D03*
X159258000Y-79248000D03*
X159258000Y-81788000D03*
X159258000Y-84328000D03*
X159258000Y-86868000D03*
X159258000Y-89408000D03*
X159258000Y-91948000D03*
X159258000Y-94488000D03*
X159258000Y-97028000D03*
X159258000Y-99568000D03*
X159258000Y-102108000D03*
X159258000Y-104648000D03*
X159258000Y-107188000D03*
X159258000Y-109728000D03*
X159258000Y-112268000D03*
X159258000Y-114808000D03*
X159258000Y-117348000D03*
X159258000Y-119888000D03*
X159258000Y-122428000D03*
X159258000Y-124968000D03*
X159258000Y-127508000D03*
X159258000Y-130048000D03*
X159258000Y-132588000D03*
X159258000Y-135128000D03*
D23*
X151892000Y-91186000D03*
X149500000Y-55792500D03*
X152058595Y-59655493D03*
X143307067Y-99314000D03*
X152000000Y-124300000D03*
X143756500Y-129283535D03*
X157250000Y-113750000D03*
X152250000Y-118000000D03*
X155684662Y-60279569D03*
X158242000Y-93218000D03*
X153249503Y-118000000D03*
X153732500Y-64008000D03*
X153332500Y-65278000D03*
X139689692Y-85189692D03*
X164146500Y-95758000D03*
X139549500Y-110750000D03*
X156508500Y-57912000D03*
X156718000Y-56896000D03*
X139900000Y-115300000D03*
X132080000Y-96000000D03*
X155892474Y-59301909D03*
X137700000Y-131000000D03*
X152400000Y-135300000D03*
X147232500Y-124460000D03*
X142700000Y-118900000D03*
X141300000Y-118000000D03*
X147685221Y-119914779D03*
X148597820Y-118502180D03*
X140300000Y-117449500D03*
X154494500Y-77000000D03*
X151829500Y-129600000D03*
X160479500Y-103308359D03*
X144272000Y-134174500D03*
X151575500Y-102362000D03*
D24*
X152850000Y-116091686D02*
X153370314Y-116612000D01*
X160408000Y-123578000D02*
X159258000Y-122428000D01*
X160408000Y-126358000D02*
X160408000Y-123578000D01*
X146922000Y-90842000D02*
X151548000Y-90842000D01*
X152850000Y-103886313D02*
X152850000Y-116091686D01*
X153816000Y-93110000D02*
X153816000Y-102920313D01*
X151892000Y-91186000D02*
X153816000Y-93110000D01*
X153912000Y-116612000D02*
X159258000Y-121958000D01*
X153816000Y-102920313D02*
X152850000Y-103886313D01*
X151548000Y-90842000D02*
X151892000Y-91186000D01*
X159258000Y-121958000D02*
X159258000Y-122428000D01*
X159258000Y-127508000D02*
X160408000Y-126358000D01*
X153370314Y-116612000D02*
X153912000Y-116612000D01*
X145622000Y-89542000D02*
X146922000Y-90842000D01*
X144526000Y-38726000D02*
X144526000Y-38608000D01*
X149500000Y-55792500D02*
X149500000Y-48604314D01*
X149500000Y-48604314D02*
X148506000Y-47610314D01*
X148506000Y-47610314D02*
X148506000Y-42706000D01*
X148506000Y-42706000D02*
X144526000Y-38726000D01*
X154686000Y-73768000D02*
X151750000Y-76704000D01*
X154584662Y-56896000D02*
X154584662Y-60735205D01*
X154584662Y-60735205D02*
X154686000Y-60836543D01*
X151750000Y-76704000D02*
X151750000Y-88446315D01*
X147066000Y-38608000D02*
X154584662Y-46126662D01*
X152058595Y-59655493D02*
X153504950Y-59655493D01*
X154686000Y-91382315D02*
X154686000Y-105156000D01*
X151750000Y-88446315D02*
X154686000Y-91382315D01*
X153504950Y-59655493D02*
X154584662Y-60735205D01*
X154686000Y-60836543D02*
X154686000Y-73768000D01*
X154584662Y-46126662D02*
X154584662Y-56896000D01*
X151834943Y-124300000D02*
X151100000Y-123565057D01*
X147174000Y-118068310D02*
X147174000Y-106424000D01*
X151100000Y-121400000D02*
X148902180Y-119202180D01*
X143307067Y-102557067D02*
X143307067Y-99314000D01*
X151100000Y-123565057D02*
X151100000Y-121400000D01*
X143263473Y-99270406D02*
X143263473Y-88072841D01*
X149352000Y-64366000D02*
X150836000Y-62882000D01*
X149352000Y-81984314D02*
X149352000Y-64366000D01*
X148902180Y-119202180D02*
X148307870Y-119202180D01*
X143307067Y-99314000D02*
X143263473Y-99270406D01*
X150836000Y-50382000D02*
X150836000Y-62882000D01*
X143263473Y-88072841D02*
X149352000Y-81984314D01*
X147174000Y-106424000D02*
X143307067Y-102557067D01*
X148307870Y-119202180D02*
X147174000Y-118068310D01*
X152000000Y-124300000D02*
X151834943Y-124300000D01*
X143756500Y-129283535D02*
X143497035Y-129543000D01*
X157000000Y-103565686D02*
X155492000Y-102057686D01*
X154984662Y-60569519D02*
X154984662Y-41446662D01*
X157000000Y-113500000D02*
X157000000Y-103565686D01*
X137668000Y-103378000D02*
X136398000Y-102108000D01*
X155492000Y-102057686D02*
X155492000Y-87456824D01*
X154984662Y-41446662D02*
X152146000Y-38608000D01*
X138748000Y-129543000D02*
X138748000Y-106432314D01*
X137668000Y-105352314D02*
X137668000Y-103378000D01*
X138748000Y-106432314D02*
X137668000Y-105352314D01*
X155194000Y-87158823D02*
X155194000Y-60778857D01*
X155492000Y-87456824D02*
X155194000Y-87158823D01*
X157250000Y-113750000D02*
X157000000Y-113500000D01*
X155194000Y-60778857D02*
X154984662Y-60569519D01*
X143497035Y-129543000D02*
X138748000Y-129543000D01*
X151676000Y-103928942D02*
X152945999Y-102658943D01*
X152945999Y-102658943D02*
X152945999Y-101637999D01*
X151676000Y-117426000D02*
X151676000Y-103928942D01*
X152250000Y-118000000D02*
X151676000Y-117426000D01*
X152945999Y-101637999D02*
X152146000Y-100838000D01*
X155594000Y-60613171D02*
X155594000Y-86993138D01*
X155472530Y-60491701D02*
X155594000Y-60613171D01*
X155892000Y-87291138D02*
X155892000Y-101892000D01*
X155684662Y-60279569D02*
X155472530Y-60491701D01*
X155594000Y-86993138D02*
X155892000Y-87291138D01*
X155892000Y-101892000D02*
X158108000Y-104108000D01*
X158108000Y-106038000D02*
X159258000Y-107188000D01*
X158108000Y-104108000D02*
X158108000Y-106038000D01*
X157693000Y-86193000D02*
X158000000Y-86500000D01*
X157693000Y-73193000D02*
X157693000Y-86193000D01*
X158000000Y-86500000D02*
X157942000Y-86558000D01*
X157942000Y-86558000D02*
X157942000Y-92918000D01*
X157942000Y-92918000D02*
X158242000Y-93218000D01*
X159258000Y-71628000D02*
X157693000Y-73193000D01*
X153235200Y-66365250D02*
X153235200Y-74479411D01*
X151276000Y-76438611D02*
X151276000Y-81191685D01*
X153732500Y-64008000D02*
X154032500Y-64308000D01*
X144322000Y-90842000D02*
X144722000Y-91242000D01*
X153416000Y-102754627D02*
X153416000Y-94488000D01*
X144722000Y-91242000D02*
X150170000Y-91242000D01*
X151276000Y-81191685D02*
X144322000Y-88145686D01*
X153249503Y-118000000D02*
X152450000Y-117200497D01*
X144322000Y-88145686D02*
X144322000Y-90842000D01*
X153235200Y-74479411D02*
X151276000Y-76438611D01*
X150170000Y-91242000D02*
X152146000Y-93218000D01*
X154032500Y-65567950D02*
X153235200Y-66365250D01*
X153416000Y-94488000D02*
X152146000Y-93218000D01*
X152450000Y-117200497D02*
X152450000Y-103720627D01*
X152450000Y-103720627D02*
X153416000Y-102754627D01*
X154032500Y-64308000D02*
X154032500Y-65567950D01*
X157600000Y-122100000D02*
X157600000Y-133400000D01*
X149606000Y-93218000D02*
X148030000Y-91642000D01*
X150876000Y-118659744D02*
X152700000Y-120483744D01*
X156432000Y-134568000D02*
X154798000Y-134568000D01*
X144556314Y-91642000D02*
X143922000Y-91007685D01*
X150876000Y-109728000D02*
X150876000Y-118659744D01*
X152893000Y-121593000D02*
X157093000Y-121593000D01*
X148030000Y-91642000D02*
X144556314Y-91642000D01*
X150876000Y-81026000D02*
X150876000Y-76272925D01*
X150876000Y-76272925D02*
X152835200Y-74313725D01*
X152835200Y-65775300D02*
X153332500Y-65278000D01*
X143922000Y-87980000D02*
X150876000Y-81026000D01*
X152700000Y-120483744D02*
X152700000Y-121400000D01*
X150706000Y-94318000D02*
X150706000Y-102786000D01*
X149350000Y-104142000D02*
X149350000Y-108201999D01*
X149350000Y-108201999D02*
X150876000Y-109728000D01*
X149606000Y-93218000D02*
X150706000Y-94318000D01*
X150706000Y-102786000D02*
X149350000Y-104142000D01*
X157600000Y-133400000D02*
X156432000Y-134568000D01*
X152835200Y-74313725D02*
X152835200Y-65775300D01*
X157093000Y-121593000D02*
X157600000Y-122100000D01*
X152700000Y-121400000D02*
X152893000Y-121593000D01*
X143922000Y-91007685D02*
X143922000Y-87980000D01*
X148201200Y-94353200D02*
X147066000Y-93218000D01*
X148201200Y-101258435D02*
X148201200Y-94353200D01*
X148042000Y-116391430D02*
X148042000Y-101417635D01*
X154798000Y-122568000D02*
X152300000Y-122568000D01*
X148042000Y-101417635D02*
X148201200Y-101258435D01*
X152300000Y-120649430D02*
X148042000Y-116391430D01*
X152300000Y-122568000D02*
X152300000Y-120649430D01*
X145796000Y-102108000D02*
X145796000Y-94488000D01*
X145796000Y-94488000D02*
X144526000Y-93218000D01*
X151900000Y-122733685D02*
X151900000Y-120815116D01*
X152134315Y-122968000D02*
X151900000Y-122733685D01*
X154068000Y-124568000D02*
X152468000Y-122968000D01*
X140022000Y-84857384D02*
X139689692Y-85189692D01*
X147574000Y-116489116D02*
X147574000Y-103886000D01*
X141400000Y-77902942D02*
X140022000Y-79280942D01*
X154798000Y-124568000D02*
X154068000Y-124568000D01*
X140022000Y-79280942D02*
X140022000Y-84857384D01*
X139446000Y-71577200D02*
X141400000Y-73531200D01*
X141400000Y-73531200D02*
X141400000Y-77902942D01*
X151900000Y-120815116D02*
X147574000Y-116489116D01*
X152468000Y-122968000D02*
X152134315Y-122968000D01*
X147574000Y-103886000D02*
X145796000Y-102108000D01*
X140804000Y-126568000D02*
X143632000Y-126568000D01*
X143808000Y-119647686D02*
X144750000Y-118705686D01*
X143987686Y-84342000D02*
X144304000Y-84025685D01*
X140932000Y-87217688D02*
X143807686Y-84342000D01*
X140932000Y-96561572D02*
X140932000Y-87217688D01*
X145035200Y-67346000D02*
X145035200Y-64517200D01*
X144500000Y-125003256D02*
X144500000Y-124932744D01*
X144611000Y-64093000D02*
X144611000Y-58962200D01*
X144304000Y-84025685D02*
X144304000Y-78494744D01*
X144611000Y-58962200D02*
X139446000Y-53797200D01*
X144500000Y-124932744D02*
X143808000Y-124240742D01*
X144750000Y-118705686D02*
X144750000Y-107171570D01*
X143808000Y-125695257D02*
X144500000Y-125003256D01*
X145035200Y-64517200D02*
X144611000Y-64093000D01*
X140862000Y-103283570D02*
X140862000Y-96631572D01*
X143632000Y-126568000D02*
X143808000Y-126392000D01*
X147066000Y-75732744D02*
X147066000Y-69376800D01*
X144304000Y-78494744D02*
X147066000Y-75732744D01*
X143807686Y-84342000D02*
X143987686Y-84342000D01*
X147066000Y-69376800D02*
X145035200Y-67346000D01*
X140862000Y-96631572D02*
X140932000Y-96561572D01*
X143808000Y-126392000D02*
X143808000Y-125695257D01*
X144750000Y-107171570D02*
X140862000Y-103283570D01*
X143808000Y-124240742D02*
X143808000Y-119647686D01*
X162812346Y-45056000D02*
X164540000Y-46783654D01*
X162966000Y-111100000D02*
X163490000Y-110576000D01*
X132080000Y-37510000D02*
X132080000Y-42442000D01*
X161264827Y-112801173D02*
X161190000Y-112726346D01*
X132000000Y-121102000D02*
X132000000Y-111010000D01*
X163490000Y-110576000D02*
X163490000Y-108327000D01*
X134500000Y-46829314D02*
X134900000Y-47229315D01*
X152654000Y-37084000D02*
X132506000Y-37084000D01*
X133304000Y-122406000D02*
X132000000Y-121102000D01*
X132154000Y-100696000D02*
X133304000Y-99546000D01*
X132154000Y-108556000D02*
X132154000Y-100696000D01*
X164540000Y-95364500D02*
X164146500Y-95758000D01*
X164540000Y-77150000D02*
X164540000Y-95364500D01*
X134900000Y-49810000D02*
X136398000Y-51308000D01*
X160626000Y-45056000D02*
X162812346Y-45056000D01*
X134500000Y-44855000D02*
X134500000Y-46829314D01*
X132080000Y-42442000D02*
X133304000Y-43666000D01*
X132000000Y-111010000D02*
X133304000Y-109706000D01*
X133304000Y-109706000D02*
X132154000Y-108556000D01*
X159258000Y-43688000D02*
X160626000Y-45056000D01*
X159258000Y-43688000D02*
X152654000Y-37084000D01*
X133315000Y-43670000D02*
X134500000Y-44855000D01*
X161863654Y-111100000D02*
X162966000Y-111100000D01*
X164540000Y-46783654D02*
X164540000Y-77150000D01*
X163490000Y-108327000D02*
X162329000Y-107166000D01*
X134900000Y-47229315D02*
X134900000Y-49810000D01*
X162340000Y-76690000D02*
X164080000Y-76690000D01*
X161190000Y-111773654D02*
X161863654Y-111100000D01*
X161190000Y-112726346D02*
X161190000Y-111773654D01*
X132506000Y-37084000D02*
X132080000Y-37510000D01*
X159258000Y-114808000D02*
X161264827Y-112801173D01*
X164080000Y-76690000D02*
X164540000Y-77150000D01*
X134465000Y-60060000D02*
X133315000Y-58910000D01*
X136398000Y-76708000D02*
X134465000Y-74775000D01*
X136398000Y-41148000D02*
X136144000Y-41148000D01*
X134465000Y-74775000D02*
X134465000Y-60060000D01*
X138830000Y-104080000D02*
X138830000Y-85059434D01*
X136874346Y-54998000D02*
X135748000Y-54998000D01*
X136398000Y-74168000D02*
X138296000Y-72270000D01*
X134465000Y-53353654D02*
X133315000Y-52203654D01*
X139000000Y-76770000D02*
X136398000Y-74168000D01*
X133315000Y-52203654D02*
X133315000Y-51290000D01*
X138296000Y-56419654D02*
X136874346Y-54998000D01*
X135748000Y-54998000D02*
X134465000Y-53715000D01*
X139549500Y-110750000D02*
X139549500Y-104799500D01*
X134465000Y-53715000D02*
X134465000Y-53353654D01*
X138296000Y-72270000D02*
X138296000Y-56419654D01*
X139000000Y-84889434D02*
X139000000Y-76770000D01*
X139549500Y-104799500D02*
X138830000Y-104080000D01*
X138830000Y-85059434D02*
X139000000Y-84889434D01*
D25*
X156667000Y-99517000D02*
X159258000Y-102108000D01*
X156508500Y-57912000D02*
X156759662Y-58163162D01*
X156369000Y-86672122D02*
X156667000Y-86970122D01*
X159258000Y-102108000D02*
X159766000Y-102108000D01*
X156759662Y-58163162D02*
X156759662Y-60823338D01*
X156759662Y-60823338D02*
X156369000Y-61214000D01*
X156667000Y-86970122D02*
X156667000Y-99517000D01*
X156369000Y-61214000D02*
X156369000Y-86672122D01*
X156718000Y-56896000D02*
X156718000Y-57287000D01*
X157133500Y-57653116D02*
X157133500Y-60873764D01*
X156718000Y-61289264D02*
X156718000Y-86596858D01*
X156767384Y-57287000D02*
X157133500Y-57653116D01*
X156718000Y-86596858D02*
X156967000Y-86845858D01*
X156718000Y-57287000D02*
X156767384Y-57287000D01*
X156967000Y-96769000D02*
X159766000Y-99568000D01*
X157133500Y-60873764D02*
X156718000Y-61289264D01*
X156967000Y-86845858D02*
X156967000Y-96769000D01*
D24*
X138500000Y-84823749D02*
X138500000Y-81350000D01*
X135248000Y-99091654D02*
X135921654Y-98418000D01*
X136398000Y-114808000D02*
X135248000Y-113658000D01*
X138430000Y-97028000D02*
X138430000Y-84893749D01*
X138500000Y-81350000D02*
X136398000Y-79248000D01*
X138430000Y-84893749D02*
X138500000Y-84823749D01*
X135921654Y-98418000D02*
X137040000Y-98418000D01*
X135248000Y-113658000D02*
X135248000Y-99091654D01*
X137040000Y-98418000D02*
X138430000Y-97028000D01*
X139900000Y-115300000D02*
X141742000Y-113458000D01*
X141742000Y-113458000D02*
X141742000Y-110744000D01*
X136398000Y-81788000D02*
X136398000Y-80874346D01*
X134465000Y-78941346D02*
X134465000Y-75965000D01*
X136398000Y-80874346D02*
X134465000Y-78941346D01*
X133315000Y-74815000D02*
X133315000Y-74150000D01*
X132080000Y-75370000D02*
X133304000Y-74146000D01*
X134465000Y-75965000D02*
X133315000Y-74815000D01*
X132080000Y-96000000D02*
X132080000Y-75370000D01*
D25*
X157267000Y-86721594D02*
X157267000Y-94529000D01*
X157433500Y-60752500D02*
X157433500Y-60998028D01*
X157267000Y-94529000D02*
X159766000Y-97028000D01*
X157018000Y-86472594D02*
X157267000Y-86721594D01*
X157433500Y-60998028D02*
X157018000Y-61413528D01*
X157018000Y-61413528D02*
X157018000Y-86472594D01*
X159258000Y-58928000D02*
X157433500Y-60752500D01*
D24*
X156292000Y-101174000D02*
X159766000Y-104648000D01*
X156213670Y-60740511D02*
X155994000Y-60960181D01*
X156384662Y-60668008D02*
X156312159Y-60740511D01*
X155892474Y-59301909D02*
X156384662Y-59794097D01*
X156384662Y-59794097D02*
X156384662Y-60668008D01*
X156312159Y-60740511D02*
X156213670Y-60740511D01*
X155994000Y-60960181D02*
X155994000Y-86827452D01*
X155994000Y-86827452D02*
X156292000Y-87125452D01*
X156292000Y-87125452D02*
X156292000Y-101174000D01*
X159258000Y-119888000D02*
X158188000Y-119888000D01*
X160779000Y-131923969D02*
X160782000Y-131920969D01*
X160782000Y-131920969D02*
X160782000Y-130150346D01*
X152280000Y-89542000D02*
X150622000Y-89542000D01*
X159258000Y-135128000D02*
X160779000Y-133607000D01*
X153250000Y-104051999D02*
X154216000Y-103085999D01*
X154216000Y-103085999D02*
X154216000Y-91478000D01*
X153536000Y-116212000D02*
X153250000Y-115926000D01*
X132154000Y-135582346D02*
X132849654Y-136278000D01*
X158188000Y-119888000D02*
X154512000Y-116212000D01*
X160808000Y-130124346D02*
X160808000Y-121438000D01*
X132154000Y-131176000D02*
X132154000Y-135582346D01*
X160782000Y-130150346D02*
X160808000Y-130124346D01*
X160808000Y-121438000D02*
X159258000Y-119888000D01*
X154512000Y-116212000D02*
X153536000Y-116212000D01*
X160779000Y-133607000D02*
X160779000Y-131923969D01*
X158108000Y-136278000D02*
X159258000Y-135128000D01*
X132849654Y-136278000D02*
X158108000Y-136278000D01*
X153250000Y-115926000D02*
X153250000Y-104051999D01*
X154216000Y-91478000D02*
X152280000Y-89542000D01*
X133304000Y-130026000D02*
X132154000Y-131176000D01*
X137948000Y-130752000D02*
X137948000Y-108738000D01*
X163890000Y-98567000D02*
X163890000Y-113225000D01*
X163600000Y-126210000D02*
X163600000Y-130729314D01*
X162909314Y-131420000D02*
X161863654Y-131420000D01*
X162340000Y-124950000D02*
X163600000Y-126210000D01*
X163890000Y-113225000D02*
X162329000Y-114786000D01*
X162306000Y-134874000D02*
X162329000Y-134897000D01*
X161190000Y-133960000D02*
X162340000Y-135110000D01*
X137948000Y-108738000D02*
X136398000Y-107188000D01*
X162329000Y-97006000D02*
X163890000Y-98567000D01*
X161863654Y-131420000D02*
X161190000Y-132093654D01*
X163600000Y-130729314D02*
X162909314Y-131420000D01*
X162329000Y-134897000D02*
X162329000Y-135106000D01*
X161190000Y-132093654D02*
X161190000Y-133960000D01*
X137700000Y-131000000D02*
X137948000Y-130752000D01*
X162329000Y-132566000D02*
X164000000Y-130895000D01*
X138943000Y-135543000D02*
X138400000Y-135000000D01*
X138400000Y-135000000D02*
X138400000Y-130710050D01*
X162329000Y-117326000D02*
X164290000Y-115365000D01*
X164000000Y-130895000D02*
X164000000Y-124077000D01*
X138348000Y-130658050D02*
X138348000Y-106598000D01*
X152400000Y-135300000D02*
X152157000Y-135543000D01*
X164290000Y-97234000D02*
X162329000Y-95273000D01*
X138348000Y-106598000D02*
X136398000Y-104648000D01*
X162329000Y-95273000D02*
X162329000Y-94466000D01*
X152157000Y-135543000D02*
X138943000Y-135543000D01*
X164290000Y-115365000D02*
X164290000Y-97234000D01*
X164000000Y-124077000D02*
X162329000Y-122406000D01*
X138400000Y-130710050D02*
X138348000Y-130658050D01*
X134848000Y-96951654D02*
X136161654Y-95638000D01*
X136398000Y-119888000D02*
X136398000Y-119634000D01*
X137548000Y-121038000D02*
X137548000Y-126358000D01*
X136398000Y-119888000D02*
X137548000Y-121038000D01*
X138030000Y-94482346D02*
X138030000Y-85960000D01*
X138030000Y-85960000D02*
X136398000Y-84328000D01*
X136161654Y-95638000D02*
X136874346Y-95638000D01*
X134848000Y-113823685D02*
X134848000Y-96951654D01*
X134850000Y-118340000D02*
X134850000Y-113825686D01*
X136398000Y-119888000D02*
X134850000Y-118340000D01*
X137548000Y-126358000D02*
X136398000Y-127508000D01*
X136874346Y-95638000D02*
X138030000Y-94482346D01*
D25*
X159766000Y-94488000D02*
X157988000Y-94488000D01*
X160333000Y-59667000D02*
X160333000Y-57463000D01*
X160333000Y-57463000D02*
X159258000Y-56388000D01*
X157318000Y-61887720D02*
X158812720Y-60393000D01*
X157567000Y-94067000D02*
X157567000Y-86597330D01*
X159607000Y-60393000D02*
X160333000Y-59667000D01*
X158812720Y-60393000D02*
X159607000Y-60393000D01*
X157567000Y-86597330D02*
X157318000Y-86348330D01*
X157988000Y-94488000D02*
X157567000Y-94067000D01*
X157318000Y-86348330D02*
X157318000Y-61887720D01*
D24*
X142600000Y-67111200D02*
X139446000Y-63957200D01*
X140030000Y-103582942D02*
X140030000Y-96332201D01*
X142700000Y-118900000D02*
X143004157Y-119204157D01*
X150368000Y-126724491D02*
X148103509Y-124460000D01*
X142600000Y-78400000D02*
X142600000Y-67111200D01*
X150368000Y-130868000D02*
X150368000Y-126724491D01*
X140030000Y-96332201D02*
X140132000Y-96230201D01*
X143900000Y-107452943D02*
X140030000Y-103582942D01*
X140132000Y-96230201D02*
X140132000Y-86868000D01*
X141222000Y-85778000D02*
X141222000Y-79778000D01*
X143900000Y-118312157D02*
X143900000Y-107452943D01*
X152068000Y-132568000D02*
X150368000Y-130868000D01*
X148103509Y-124460000D02*
X147232500Y-124460000D01*
X143004157Y-119204157D02*
X143008000Y-119204157D01*
X143008000Y-119204157D02*
X143900000Y-118312157D01*
X154798000Y-132568000D02*
X152068000Y-132568000D01*
X141222000Y-79778000D02*
X142600000Y-78400000D01*
X140132000Y-86868000D02*
X141222000Y-85778000D01*
X139732000Y-96064515D02*
X139732000Y-86702314D01*
X150700000Y-123989950D02*
X152204500Y-125494450D01*
X140822000Y-79612314D02*
X142200000Y-78234314D01*
X143500000Y-107618628D02*
X139630000Y-103748628D01*
X139732000Y-86702314D02*
X140822000Y-85612314D01*
X147685221Y-119914779D02*
X148814779Y-119914779D01*
X152204500Y-125494450D02*
X152204500Y-128240500D01*
X140822000Y-85612314D02*
X140822000Y-79612314D01*
X143500000Y-115800000D02*
X143500000Y-107618628D01*
X142200000Y-69251200D02*
X139446000Y-66497200D01*
X139630000Y-103748628D02*
X139630000Y-96166515D01*
X152204500Y-128240500D02*
X152532000Y-128568000D01*
X148814779Y-119914779D02*
X150700000Y-121800000D01*
X139630000Y-96166515D02*
X139732000Y-96064515D01*
X141300000Y-118000000D02*
X143500000Y-115800000D01*
X142200000Y-78234314D02*
X142200000Y-69251200D01*
X152532000Y-128568000D02*
X154798000Y-128568000D01*
X150700000Y-121800000D02*
X150700000Y-123989950D01*
X141800000Y-71391200D02*
X139446000Y-69037200D01*
X139230000Y-86638629D02*
X140422000Y-85446628D01*
X139230000Y-103914314D02*
X139230000Y-86638629D01*
X151500000Y-123336629D02*
X151531371Y-123368000D01*
X152748000Y-123948000D02*
X152748000Y-126448000D01*
X140300000Y-117449500D02*
X140300000Y-117002000D01*
X140422000Y-79446628D02*
X141800000Y-78068628D01*
X148597820Y-118502180D02*
X148802180Y-118502180D01*
X141800000Y-78068628D02*
X141800000Y-71391200D01*
X151531371Y-123368000D02*
X152168000Y-123368000D01*
X152868000Y-126568000D02*
X154798000Y-126568000D01*
X140300000Y-117002000D02*
X143042000Y-114260000D01*
X152748000Y-126448000D02*
X152868000Y-126568000D01*
X143042000Y-107726314D02*
X139230000Y-103914314D01*
X143042000Y-114260000D02*
X143042000Y-107726314D01*
X151500000Y-121200000D02*
X151500000Y-123336629D01*
X148802180Y-118502180D02*
X151500000Y-121200000D01*
X152168000Y-123368000D02*
X152748000Y-123948000D01*
X140422000Y-85446628D02*
X140422000Y-79446628D01*
X145408000Y-123578000D02*
X145408000Y-120310429D01*
X142532000Y-102690826D02*
X142532000Y-87903686D01*
X146350000Y-106508826D02*
X142532000Y-102690826D01*
X145408000Y-120310429D02*
X146350000Y-119368429D01*
X147687999Y-47358000D02*
X142354000Y-47358000D01*
X146350000Y-119368429D02*
X146350000Y-106508826D01*
X142354000Y-47358000D02*
X139446000Y-44450000D01*
X145408000Y-126358000D02*
X146100000Y-125666000D01*
X144650428Y-85942000D02*
X148707157Y-81885269D01*
X146100000Y-124270000D02*
X145408000Y-123578000D01*
X142532000Y-87903686D02*
X144493686Y-85942000D01*
X146100000Y-125666000D02*
X146100000Y-124270000D01*
X142332000Y-134568000D02*
X145408000Y-131492000D01*
X139446000Y-44450000D02*
X139446000Y-43637200D01*
X148707157Y-48377157D02*
X147688000Y-47358000D01*
X140804000Y-134568000D02*
X142332000Y-134568000D01*
X144493686Y-85942000D02*
X144650428Y-85942000D01*
X145408000Y-131492000D02*
X145408000Y-126358000D01*
X148707157Y-81885269D02*
X148707157Y-48377157D01*
X147522314Y-47758000D02*
X141026800Y-47758000D01*
X141026800Y-47758000D02*
X139446000Y-46177200D01*
X148266000Y-48501687D02*
X147522314Y-47758000D01*
X145504000Y-84522741D02*
X145504000Y-79736314D01*
X145008000Y-123743685D02*
X145008000Y-120144743D01*
X145700000Y-125500314D02*
X145700000Y-124435686D01*
X143732000Y-132568000D02*
X145008000Y-131292000D01*
X144484742Y-85542000D02*
X145504000Y-84522741D01*
X142132000Y-87738001D02*
X144328000Y-85542000D01*
X145008000Y-131292000D02*
X145008000Y-126192314D01*
X144328000Y-85542000D02*
X144484742Y-85542000D01*
X145950000Y-106674512D02*
X142132000Y-102856512D01*
X142132000Y-102856512D02*
X142132000Y-87738001D01*
X140804000Y-132568000D02*
X143732000Y-132568000D01*
X145700000Y-124435686D02*
X145008000Y-123743685D01*
X145504000Y-79736314D02*
X148307157Y-76933157D01*
X145008000Y-126192314D02*
X145700000Y-125500314D01*
X148266000Y-73406000D02*
X148266000Y-48501687D01*
X148307157Y-76933157D02*
X148307157Y-73447157D01*
X145950000Y-119202744D02*
X145950000Y-106674512D01*
X145008000Y-120144743D02*
X145950000Y-119202744D01*
X144139058Y-85142000D02*
X141732000Y-87549058D01*
X145104000Y-84357055D02*
X144319056Y-85142000D01*
X144608000Y-126026628D02*
X144608000Y-129992000D01*
X139446000Y-48717200D02*
X140005200Y-48158000D01*
X145104000Y-79570628D02*
X145104000Y-84357055D01*
X145300000Y-125334628D02*
X144608000Y-126026628D01*
X141732000Y-87549058D02*
X141732000Y-103022198D01*
X145550000Y-119037056D02*
X144608000Y-119979057D01*
X141732000Y-103022198D02*
X145550000Y-106840200D01*
X144319056Y-85142000D02*
X144139058Y-85142000D01*
X144608000Y-129992000D02*
X144032000Y-130568000D01*
X144032000Y-130568000D02*
X140804000Y-130568000D01*
X144608000Y-119979057D02*
X144608000Y-123909371D01*
X147866000Y-76808628D02*
X145104000Y-79570628D01*
X145550000Y-106840200D02*
X145550000Y-119037056D01*
X147356628Y-48158000D02*
X147866000Y-48667372D01*
X147866000Y-48667372D02*
X147866000Y-76808628D01*
X145300000Y-124601372D02*
X145300000Y-125334628D01*
X144608000Y-123909371D02*
X145300000Y-124601372D01*
X140005200Y-48158000D02*
X147356628Y-48158000D01*
X147466000Y-76642942D02*
X144704000Y-79404942D01*
X144208000Y-119813372D02*
X144208000Y-124075057D01*
X147110000Y-48558000D02*
X147466000Y-48914000D01*
X143832000Y-128568000D02*
X140804000Y-128568000D01*
X144704000Y-84191370D02*
X144153371Y-84742000D01*
X144208000Y-125860943D02*
X144208000Y-128192000D01*
X143973372Y-84742000D02*
X141332000Y-87383373D01*
X141262000Y-96797257D02*
X141262000Y-103117884D01*
X139446000Y-51257200D02*
X140004800Y-51257200D01*
X141262000Y-103117884D02*
X145150000Y-107005885D01*
X141332000Y-87383373D02*
X141332000Y-96727257D01*
X144900000Y-124767058D02*
X144900000Y-125168942D01*
X144208000Y-128192000D02*
X143832000Y-128568000D01*
X141332000Y-96727257D02*
X141262000Y-96797257D01*
X144208000Y-124075057D02*
X144900000Y-124767058D01*
X144153371Y-84742000D02*
X143973372Y-84742000D01*
X144704000Y-79404942D02*
X144704000Y-84191370D01*
X144900000Y-125168942D02*
X144208000Y-125860943D01*
X147466000Y-48914000D02*
X147466000Y-76642942D01*
X140004800Y-51257200D02*
X142704000Y-48558000D01*
X145150000Y-107005885D02*
X145150000Y-118871371D01*
X142704000Y-48558000D02*
X147110000Y-48558000D01*
X145150000Y-118871371D02*
X144208000Y-119813372D01*
X143822000Y-83942000D02*
X143904000Y-83860000D01*
X144300000Y-107287258D02*
X140462000Y-103449256D01*
X143000000Y-77425059D02*
X143000000Y-59891200D01*
X141736000Y-125500000D02*
X143408000Y-125500000D01*
X143904000Y-83860000D02*
X143904000Y-78329059D01*
X143904000Y-78329059D02*
X143000000Y-77425059D01*
X143000000Y-59891200D02*
X139446000Y-56337200D01*
X143642000Y-83942000D02*
X143822000Y-83942000D01*
X140804000Y-124568000D02*
X141736000Y-125500000D01*
X143408000Y-125500000D02*
X143408000Y-119482000D01*
X140462000Y-96465886D02*
X140532000Y-96395886D01*
X140462000Y-103449256D02*
X140462000Y-96465886D01*
X144300000Y-118589999D02*
X144300000Y-107287258D01*
X140532000Y-87052000D02*
X143642000Y-83942000D01*
X143408000Y-119482000D02*
X144300000Y-118589999D01*
X140532000Y-96395886D02*
X140532000Y-87052000D01*
X156186000Y-114276000D02*
X159258000Y-117348000D01*
X156186000Y-103317372D02*
X156186000Y-114276000D01*
X152422000Y-79072500D02*
X152422000Y-85172000D01*
X154494500Y-77000000D02*
X152422000Y-79072500D01*
X155086000Y-102217372D02*
X156186000Y-103317372D01*
X155086000Y-87836000D02*
X155086000Y-102217372D01*
X152422000Y-85172000D02*
X155086000Y-87836000D01*
X162816346Y-49900000D02*
X161400000Y-49900000D01*
X161863654Y-77840000D02*
X162590000Y-77840000D01*
X134500000Y-51950000D02*
X136398000Y-53848000D01*
X161400000Y-49900000D02*
X160408000Y-48908000D01*
X160408000Y-47378000D02*
X159258000Y-46228000D01*
X160408000Y-48908000D02*
X160408000Y-47378000D01*
X162886346Y-93250000D02*
X161190000Y-93250000D01*
X163490000Y-50573654D02*
X162816346Y-49900000D01*
X162340000Y-74150000D02*
X161190000Y-75300000D01*
X162590000Y-77840000D02*
X163840000Y-79090000D01*
X133315000Y-46210000D02*
X134500000Y-47395000D01*
X159258000Y-112268000D02*
X160779000Y-110747000D01*
X162340000Y-104630000D02*
X161190000Y-103480000D01*
X163840000Y-92296346D02*
X162886346Y-93250000D01*
X161190000Y-77166346D02*
X161863654Y-77840000D01*
X162340000Y-74150000D02*
X163490000Y-73000000D01*
X134500000Y-47395000D02*
X134500000Y-51950000D01*
X163840000Y-79090000D02*
X163840000Y-92296346D01*
X163490000Y-73000000D02*
X163490000Y-50573654D01*
X160779000Y-110747000D02*
X160779000Y-106191000D01*
X160779000Y-106191000D02*
X162340000Y-104630000D01*
X161190000Y-75300000D02*
X161190000Y-77166346D01*
X161190000Y-103480000D02*
X161190000Y-93250000D01*
D25*
X132190000Y-67655000D02*
X132190000Y-70485000D01*
X151829500Y-129600000D02*
X151829500Y-127655661D01*
X163465000Y-90805000D02*
X162340000Y-91930000D01*
X149606000Y-46228000D02*
X152146000Y-46228000D01*
X133315000Y-127490000D02*
X134440000Y-128615000D01*
X134440000Y-128615000D02*
X134440000Y-130630000D01*
X134440000Y-98135000D02*
X133315000Y-97010000D01*
X136376000Y-71606000D02*
X136398000Y-71628000D01*
X159258000Y-41148000D02*
X161780000Y-43670000D01*
X136962000Y-93363000D02*
X137655000Y-92670000D01*
X133315000Y-41130000D02*
X135873000Y-43688000D01*
X137655000Y-92670000D02*
X137655000Y-88125000D01*
X162340000Y-79230000D02*
X163465000Y-80355000D01*
X133333000Y-66548000D02*
X133315000Y-66530000D01*
X134475000Y-115950000D02*
X134475000Y-120505000D01*
X133315000Y-79230000D02*
X135250000Y-81165000D01*
X134473000Y-105788000D02*
X134473000Y-113632000D01*
X135273000Y-94953991D02*
X135273000Y-94022009D01*
X135273000Y-62593000D02*
X135273000Y-65423000D01*
X132190000Y-54325280D02*
X132190000Y-49875000D01*
X144526000Y-45618400D02*
X144526000Y-46228000D01*
X135866000Y-43688000D02*
X136398000Y-43688000D01*
X152146000Y-46228000D02*
X152022000Y-46228000D01*
X132190000Y-70485000D02*
X133315000Y-71610000D01*
X135250000Y-85720000D02*
X136150513Y-86620513D01*
X133315000Y-127490000D02*
X135589513Y-125215487D01*
X133328000Y-48746000D02*
X133350000Y-48768000D01*
X133315000Y-114790000D02*
X134475000Y-115950000D01*
X135322005Y-95002995D02*
X135273000Y-94953991D01*
X135000000Y-46798985D02*
X136398000Y-48196985D01*
X134473000Y-113632000D02*
X133315000Y-114790000D01*
X133304000Y-48746000D02*
X133328000Y-48746000D01*
X135000000Y-45086000D02*
X135000000Y-46798985D01*
X136398000Y-48196985D02*
X136398000Y-48768000D01*
X136398000Y-43688000D02*
X135000000Y-45086000D01*
X134440000Y-130630000D02*
X136398000Y-132588000D01*
X134475000Y-120505000D02*
X136398000Y-122428000D01*
X133315000Y-104630000D02*
X134440000Y-103505000D01*
X133315000Y-66530000D02*
X132190000Y-67655000D01*
X135589513Y-125215487D02*
X136150513Y-125215487D01*
X136376000Y-124946000D02*
X136398000Y-124968000D01*
X145836000Y-50382000D02*
X145836000Y-62882000D01*
X138988800Y-41097200D02*
X139446000Y-41097200D01*
X135273000Y-65423000D02*
X136398000Y-66548000D01*
X136398000Y-124968000D02*
X136398000Y-122428000D01*
X128750000Y-57000000D02*
X129515280Y-57000000D01*
X136398000Y-61468000D02*
X135273000Y-62593000D01*
X133315000Y-135110000D02*
X135837000Y-132588000D01*
X163465000Y-80355000D02*
X163465000Y-90805000D01*
X152022000Y-46228000D02*
X152000000Y-46250000D01*
X136855200Y-43688000D02*
X136398000Y-43688000D01*
X135932009Y-93363000D02*
X136962000Y-93363000D01*
X135250000Y-81165000D02*
X135250000Y-85720000D01*
X159258000Y-76708000D02*
X161780000Y-79230000D01*
X135873000Y-43688000D02*
X136398000Y-43688000D01*
X137655000Y-88125000D02*
X136398000Y-86868000D01*
X161780000Y-43670000D02*
X162340000Y-43670000D01*
X133315000Y-104630000D02*
X134473000Y-105788000D01*
X134440000Y-103505000D02*
X134440000Y-98135000D01*
X146601839Y-122428000D02*
X146558000Y-122428000D01*
X151829500Y-127655661D02*
X146601839Y-122428000D01*
X135837000Y-132588000D02*
X136398000Y-132588000D01*
X159818000Y-89408000D02*
X159258000Y-89408000D01*
X135273000Y-94022009D02*
X135932009Y-93363000D01*
X129515280Y-57000000D02*
X132190000Y-54325280D01*
X162340000Y-91930000D02*
X159818000Y-89408000D01*
X152000000Y-46250000D02*
X151978000Y-46228000D01*
X132190000Y-49875000D02*
X133315000Y-48750000D01*
X139446000Y-41097200D02*
X140004800Y-41097200D01*
X133315000Y-97010000D02*
X135322005Y-95002995D01*
X161780000Y-79230000D02*
X162340000Y-79230000D01*
D24*
X136906000Y-57760000D02*
X137548000Y-58402000D01*
X159258000Y-91948000D02*
X160408000Y-93098000D01*
D25*
X158242000Y-118618000D02*
X159578991Y-118618000D01*
D24*
X161035000Y-55250000D02*
X161035000Y-63000000D01*
X137548000Y-62858000D02*
X136398000Y-64008000D01*
X160408000Y-103236859D02*
X160479500Y-103308359D01*
X131990000Y-57760000D02*
X136906000Y-57760000D01*
X159258000Y-74168000D02*
X158108000Y-75318000D01*
X160408000Y-115095654D02*
X160408000Y-119342000D01*
X151781942Y-119000000D02*
X153230000Y-119000000D01*
X158108000Y-122904346D02*
X158108000Y-121373686D01*
X162340000Y-113163654D02*
X160408000Y-115095654D01*
D25*
X160355495Y-119394505D02*
X160383000Y-119422009D01*
D24*
X157100000Y-133334314D02*
X156841314Y-133593000D01*
D25*
X161183000Y-126340000D02*
X162329000Y-127486000D01*
D24*
X160408000Y-119342000D02*
X160355495Y-119394505D01*
X158108000Y-78000000D02*
X158108000Y-85718000D01*
X158108000Y-121373686D02*
X157302314Y-120568000D01*
X151106000Y-102831500D02*
X151106000Y-103148000D01*
X161035000Y-63000000D02*
X161035000Y-72391000D01*
X158108000Y-85718000D02*
X159258000Y-86868000D01*
X157068000Y-130568000D02*
X157100000Y-130600000D01*
X146558000Y-134308000D02*
X146500000Y-134366000D01*
X158108000Y-126118000D02*
X159258000Y-124968000D01*
X137548000Y-45078000D02*
X136398000Y-46228000D01*
X160408000Y-78924346D02*
X160408000Y-78771654D01*
X162340000Y-56370000D02*
X161220000Y-55250000D01*
X137548000Y-67938000D02*
X136398000Y-69088000D01*
X151276000Y-109562314D02*
X151276000Y-118494058D01*
X156841314Y-133593000D02*
X147273000Y-133593000D01*
X160408000Y-93098000D02*
X160408000Y-103236859D01*
X159636346Y-78000000D02*
X158108000Y-78000000D01*
X133333000Y-69088000D02*
X133315000Y-69070000D01*
X146558000Y-132108000D02*
X146558000Y-134308000D01*
X154798000Y-130568000D02*
X157068000Y-130568000D01*
D25*
X159578991Y-118618000D02*
X160355495Y-119394505D01*
X154686000Y-115062000D02*
X158242000Y-118618000D01*
X155811000Y-113937000D02*
X155811000Y-108821000D01*
D24*
X144272000Y-134174500D02*
X144463500Y-134366000D01*
X157100000Y-130600000D02*
X157100000Y-133334314D01*
X135837000Y-89408000D02*
X136398000Y-89408000D01*
X162340000Y-112250000D02*
X162340000Y-113163654D01*
D25*
X155811000Y-108821000D02*
X154686000Y-107696000D01*
D24*
X129000000Y-60750000D02*
X131990000Y-57760000D01*
X162340000Y-63990000D02*
X161350000Y-63000000D01*
X161035000Y-53085000D02*
X161035000Y-53493654D01*
X137548000Y-65158000D02*
X137548000Y-67938000D01*
D25*
X154686000Y-115062000D02*
X155811000Y-113937000D01*
D24*
X137548000Y-58402000D02*
X137548000Y-62858000D01*
X133315000Y-91930000D02*
X135837000Y-89408000D01*
X162340000Y-80856346D02*
X160408000Y-78924346D01*
X157302314Y-120568000D02*
X154798000Y-120568000D01*
X161035000Y-53493654D02*
X161035000Y-55250000D01*
X151276000Y-118494058D02*
X151781942Y-119000000D01*
X159258000Y-51308000D02*
X161035000Y-53085000D01*
D25*
X160383000Y-120482670D02*
X161183000Y-121282670D01*
D24*
X149750000Y-108036314D02*
X151276000Y-109562314D01*
X147273000Y-133593000D02*
X146500000Y-134366000D01*
D25*
X160383000Y-119422009D02*
X160383000Y-120482670D01*
D24*
X149750000Y-104504000D02*
X149750000Y-108036314D01*
X159258000Y-124968000D02*
X159258000Y-123578000D01*
X153230000Y-119000000D02*
X154798000Y-120568000D01*
X137548000Y-39758000D02*
X137548000Y-45078000D01*
X136398000Y-64008000D02*
X137548000Y-65158000D01*
X158108000Y-75318000D02*
X158108000Y-78000000D01*
X136398000Y-38608000D02*
X137548000Y-39758000D01*
D25*
X161183000Y-121282670D02*
X161183000Y-126340000D01*
D24*
X162340000Y-81770000D02*
X162340000Y-80856346D01*
X144463500Y-134366000D02*
X146500000Y-134366000D01*
X146558000Y-127508000D02*
X146558000Y-132108000D01*
X161350000Y-63000000D02*
X161035000Y-63000000D01*
X161035000Y-72391000D02*
X159258000Y-74168000D01*
X151575500Y-102362000D02*
X151106000Y-102831500D01*
X158108000Y-131438000D02*
X158108000Y-126118000D01*
X159258000Y-123578000D02*
X158781654Y-123578000D01*
X161220000Y-55250000D02*
X161035000Y-55250000D01*
X160408000Y-78771654D02*
X159636346Y-78000000D01*
X158781654Y-123578000D02*
X158108000Y-122904346D01*
X159258000Y-132588000D02*
X158108000Y-131438000D01*
X151106000Y-103148000D02*
X149750000Y-104504000D01*
X127500000Y-77170000D02*
X127500000Y-56175000D01*
X129500000Y-79170000D02*
X127500000Y-77170000D01*
X127500000Y-56175000D02*
X128305000Y-56175000D01*
X128305000Y-56175000D02*
X128750000Y-55730000D01*
M02*
