G04 #@! TF.GenerationSoftware,KiCad,Pcbnew,7.0.7*
G04 #@! TF.CreationDate,2024-01-04T14:31:22-05:00*
G04 #@! TF.ProjectId,sensor_node,73656e73-6f72-45f6-9e6f-64652e6b6963,rev?*
G04 #@! TF.SameCoordinates,Original*
G04 #@! TF.FileFunction,Soldermask,Top*
G04 #@! TF.FilePolarity,Negative*
%FSLAX46Y46*%
G04 Gerber Fmt 4.6, Leading zero omitted, Abs format (unit mm)*
G04 Created by KiCad (PCBNEW 7.0.7) date 2024-01-04 14:31:22*
%MOMM*%
%LPD*%
G01*
G04 APERTURE LIST*
G04 Aperture macros list*
%AMRoundRect*
0 Rectangle with rounded corners*
0 $1 Rounding radius*
0 $2 $3 $4 $5 $6 $7 $8 $9 X,Y pos of 4 corners*
0 Add a 4 corners polygon primitive as box body*
4,1,4,$2,$3,$4,$5,$6,$7,$8,$9,$2,$3,0*
0 Add four circle primitives for the rounded corners*
1,1,$1+$1,$2,$3*
1,1,$1+$1,$4,$5*
1,1,$1+$1,$6,$7*
1,1,$1+$1,$8,$9*
0 Add four rect primitives between the rounded corners*
20,1,$1+$1,$2,$3,$4,$5,0*
20,1,$1+$1,$4,$5,$6,$7,0*
20,1,$1+$1,$6,$7,$8,$9,0*
20,1,$1+$1,$8,$9,$2,$3,0*%
%AMFreePoly0*
4,1,6,0.500000,-0.850000,-0.500000,-0.850000,-0.500000,0.550000,-0.200000,0.850000,0.500000,0.850000,0.500000,-0.850000,0.500000,-0.850000,$1*%
G04 Aperture macros list end*
%ADD10RoundRect,0.250000X-0.625000X0.312500X-0.625000X-0.312500X0.625000X-0.312500X0.625000X0.312500X0*%
%ADD11RoundRect,0.150000X0.150000X-0.587500X0.150000X0.587500X-0.150000X0.587500X-0.150000X-0.587500X0*%
%ADD12RoundRect,0.250000X0.650000X-0.325000X0.650000X0.325000X-0.650000X0.325000X-0.650000X-0.325000X0*%
%ADD13RoundRect,0.250000X0.325000X0.650000X-0.325000X0.650000X-0.325000X-0.650000X0.325000X-0.650000X0*%
%ADD14RoundRect,0.250000X-0.312500X-0.625000X0.312500X-0.625000X0.312500X0.625000X-0.312500X0.625000X0*%
%ADD15RoundRect,0.200000X0.200000X0.275000X-0.200000X0.275000X-0.200000X-0.275000X0.200000X-0.275000X0*%
%ADD16RoundRect,0.102000X1.750000X-0.500000X1.750000X0.500000X-1.750000X0.500000X-1.750000X-0.500000X0*%
%ADD17RoundRect,0.102000X1.700000X-0.750000X1.700000X0.750000X-1.700000X0.750000X-1.700000X-0.750000X0*%
%ADD18C,1.000000*%
%ADD19RoundRect,0.102000X0.125000X-0.275000X0.125000X0.275000X-0.125000X0.275000X-0.125000X-0.275000X0*%
%ADD20RoundRect,0.200000X-0.275000X0.200000X-0.275000X-0.200000X0.275000X-0.200000X0.275000X0.200000X0*%
%ADD21R,1.000000X1.000000*%
%ADD22O,1.000000X1.000000*%
%ADD23RoundRect,0.200000X0.275000X-0.200000X0.275000X0.200000X-0.275000X0.200000X-0.275000X-0.200000X0*%
%ADD24RoundRect,0.150000X-0.512500X-0.150000X0.512500X-0.150000X0.512500X0.150000X-0.512500X0.150000X0*%
%ADD25R,1.700000X1.700000*%
%ADD26O,1.700000X1.700000*%
%ADD27RoundRect,0.250000X-0.450000X0.262500X-0.450000X-0.262500X0.450000X-0.262500X0.450000X0.262500X0*%
%ADD28RoundRect,0.112500X0.112500X-0.187500X0.112500X0.187500X-0.112500X0.187500X-0.112500X-0.187500X0*%
%ADD29RoundRect,0.150000X-0.587500X-0.150000X0.587500X-0.150000X0.587500X0.150000X-0.587500X0.150000X0*%
%ADD30RoundRect,0.102000X-0.600000X-0.450000X0.600000X-0.450000X0.600000X0.450000X-0.600000X0.450000X0*%
%ADD31RoundRect,0.150000X-0.150000X0.512500X-0.150000X-0.512500X0.150000X-0.512500X0.150000X0.512500X0*%
%ADD32R,0.250000X0.550000*%
%ADD33FreePoly0,270.000000*%
%ADD34RoundRect,0.100000X0.100000X-0.637500X0.100000X0.637500X-0.100000X0.637500X-0.100000X-0.637500X0*%
%ADD35RoundRect,0.102000X0.750000X-0.800000X0.750000X0.800000X-0.750000X0.800000X-0.750000X-0.800000X0*%
%ADD36R,2.100000X2.100000*%
%ADD37C,2.100000*%
%ADD38RoundRect,0.250000X-0.650000X0.325000X-0.650000X-0.325000X0.650000X-0.325000X0.650000X0.325000X0*%
%ADD39R,0.600000X0.720000*%
%ADD40R,0.650000X1.050000*%
%ADD41RoundRect,0.250000X0.312500X0.625000X-0.312500X0.625000X-0.312500X-0.625000X0.312500X-0.625000X0*%
%ADD42RoundRect,0.250000X-0.325000X-0.650000X0.325000X-0.650000X0.325000X0.650000X-0.325000X0.650000X0*%
%ADD43R,1.350000X1.350000*%
%ADD44O,1.350000X1.350000*%
%ADD45RoundRect,0.218750X0.218750X0.256250X-0.218750X0.256250X-0.218750X-0.256250X0.218750X-0.256250X0*%
%ADD46R,1.050000X0.650000*%
G04 APERTURE END LIST*
G36*
X115250000Y-85200000D02*
G01*
X113850000Y-85200000D01*
X113850000Y-84200000D01*
X114250000Y-83800000D01*
X115250000Y-83800000D01*
X115250000Y-85200000D01*
G37*
G36*
X115250000Y-83200000D02*
G01*
X114250000Y-83200000D01*
X113850000Y-82800000D01*
X113850000Y-81800000D01*
X115250000Y-81800000D01*
X115250000Y-83200000D01*
G37*
D10*
X130470000Y-59250000D03*
X130470000Y-62175000D03*
D11*
X119458000Y-79000000D03*
X121358000Y-79000000D03*
X120408000Y-77125000D03*
D12*
X143770500Y-72225000D03*
X143770500Y-69275000D03*
D13*
X109375000Y-75750000D03*
X106425000Y-75750000D03*
D10*
X120470000Y-57825000D03*
X120470000Y-60750000D03*
D14*
X112275000Y-68750000D03*
X115200000Y-68750000D03*
D15*
X141845500Y-59750000D03*
X140195500Y-59750000D03*
D16*
X108350000Y-67250000D03*
X108350000Y-69250000D03*
X108350000Y-71250000D03*
X108350000Y-73250000D03*
D17*
X102600000Y-64900000D03*
X102600000Y-75600000D03*
D18*
X133470000Y-55150000D03*
X133470000Y-56850000D03*
D13*
X109425000Y-64750000D03*
X106475000Y-64750000D03*
D19*
X146770500Y-85150000D03*
X147270500Y-85150000D03*
X147770500Y-85150000D03*
X147770500Y-82400000D03*
X147270500Y-82400000D03*
X146770500Y-82400000D03*
D20*
X122770500Y-86925000D03*
X122770500Y-88575000D03*
D21*
X132970000Y-65250000D03*
D22*
X131700000Y-65250000D03*
X130430000Y-65250000D03*
X129160000Y-65250000D03*
D14*
X111808000Y-76750000D03*
X114733000Y-76750000D03*
D23*
X123858000Y-79325000D03*
X123858000Y-77675000D03*
D24*
X117258000Y-82350000D03*
X117258000Y-83300000D03*
X117258000Y-84250000D03*
X119533000Y-84250000D03*
X119533000Y-83300000D03*
X119533000Y-82350000D03*
D25*
X147710000Y-46050000D03*
D26*
X145170000Y-46050000D03*
X142630000Y-46050000D03*
X140090000Y-46050000D03*
X137550000Y-46050000D03*
X135010000Y-46050000D03*
X132470000Y-46050000D03*
X129930000Y-46050000D03*
X127390000Y-46050000D03*
X124850000Y-46050000D03*
X122310000Y-46050000D03*
X119770000Y-46050000D03*
X117230000Y-46050000D03*
X114690000Y-46050000D03*
X112150000Y-46050000D03*
X109610000Y-46050000D03*
X107070000Y-46050000D03*
X104530000Y-46050000D03*
X101990000Y-46050000D03*
D16*
X108400000Y-55350000D03*
X108400000Y-57350000D03*
X108400000Y-59350000D03*
D17*
X102650000Y-53000000D03*
X102650000Y-61700000D03*
D27*
X134770500Y-75087500D03*
X134770500Y-76912500D03*
D25*
X144880500Y-53630000D03*
D26*
X147420500Y-53630000D03*
X144880500Y-56170000D03*
X147420500Y-56170000D03*
X144880500Y-58710000D03*
X147420500Y-58710000D03*
X144880500Y-61250000D03*
X147420500Y-61250000D03*
X144880500Y-63790000D03*
X147420500Y-63790000D03*
X144880500Y-66330000D03*
X147420500Y-66330000D03*
D28*
X138144500Y-64800000D03*
X138144500Y-62700000D03*
D29*
X123333000Y-81800000D03*
X123333000Y-83700000D03*
X125208000Y-82750000D03*
D16*
X108300000Y-81100000D03*
X108300000Y-83100000D03*
X108300000Y-85100000D03*
D17*
X102550000Y-78750000D03*
X102550000Y-87450000D03*
D23*
X146770500Y-88825000D03*
X146770500Y-87175000D03*
D15*
X112695500Y-79500000D03*
X111045500Y-79500000D03*
D20*
X144520500Y-87100000D03*
X144520500Y-88750000D03*
D30*
X124570000Y-59600000D03*
X127370000Y-59600000D03*
X127370000Y-57900000D03*
X124570000Y-57900000D03*
D31*
X133720500Y-80612500D03*
X131820500Y-80612500D03*
X132770500Y-82887500D03*
D32*
X148020500Y-77825000D03*
X147520500Y-77825000D03*
X147020500Y-77825000D03*
X146520500Y-77825000D03*
X146520500Y-80175000D03*
X147020500Y-80175000D03*
X147520500Y-80175000D03*
X148020500Y-80175000D03*
D33*
X147270500Y-79000000D03*
D15*
X115845500Y-79500000D03*
X114195500Y-79500000D03*
D34*
X119720500Y-70398407D03*
X120370500Y-70398407D03*
X121020500Y-70398407D03*
X121670500Y-70398407D03*
X122320500Y-70398407D03*
X122970500Y-70398407D03*
X123620500Y-70398407D03*
X124270500Y-70398407D03*
X124920500Y-70398407D03*
X125570500Y-70398407D03*
X125570500Y-64673407D03*
X124920500Y-64673407D03*
X124270500Y-64673407D03*
X123620500Y-64673407D03*
X122970500Y-64673407D03*
X122320500Y-64673407D03*
X121670500Y-64673407D03*
X121020500Y-64673407D03*
X120370500Y-64673407D03*
X119720500Y-64673407D03*
D21*
X117950000Y-86500000D03*
D22*
X117950000Y-87770000D03*
X117950000Y-89040000D03*
X117950000Y-90310000D03*
D35*
X111300000Y-83500000D03*
D36*
X122000000Y-91500000D03*
D37*
X102000000Y-91500000D03*
D38*
X143770500Y-74000000D03*
X143770500Y-76950000D03*
D39*
X147920500Y-71585000D03*
X147920500Y-72555000D03*
X147920500Y-73525000D03*
X147920500Y-74495000D03*
X146520500Y-74495000D03*
X146520500Y-73525000D03*
X146520500Y-72555000D03*
X146520500Y-71585000D03*
D40*
X114775000Y-61175000D03*
X114775000Y-65325000D03*
X112625000Y-61175000D03*
X112625000Y-65325000D03*
D41*
X108612000Y-52500000D03*
X105687000Y-52500000D03*
D42*
X144770000Y-91250000D03*
X147720000Y-91250000D03*
D43*
X115450000Y-88750000D03*
D44*
X113450000Y-88750000D03*
X111450000Y-88750000D03*
X109450000Y-88750000D03*
X107450000Y-88750000D03*
X105450000Y-88750000D03*
D45*
X139308000Y-76000000D03*
X137733000Y-76000000D03*
D23*
X120020500Y-88575000D03*
X120020500Y-86925000D03*
D14*
X106437500Y-78250000D03*
X109362500Y-78250000D03*
D25*
X147700000Y-49800000D03*
D26*
X145160000Y-49800000D03*
X142620000Y-49800000D03*
X140080000Y-49800000D03*
X137540000Y-49800000D03*
X135000000Y-49800000D03*
X132460000Y-49800000D03*
X129920000Y-49800000D03*
X127380000Y-49800000D03*
X124840000Y-49800000D03*
X122300000Y-49800000D03*
X119760000Y-49800000D03*
X117220000Y-49800000D03*
X114680000Y-49800000D03*
X112140000Y-49800000D03*
X109600000Y-49800000D03*
X107060000Y-49800000D03*
X104520000Y-49800000D03*
X101980000Y-49800000D03*
D15*
X130920500Y-83000000D03*
X129270500Y-83000000D03*
D14*
X106487500Y-62000000D03*
X109412500Y-62000000D03*
D46*
X140595500Y-81325000D03*
X136445500Y-81325000D03*
X140595500Y-79175000D03*
X136445500Y-79175000D03*
D18*
X125412500Y-91600000D03*
X125412500Y-84600000D03*
M02*
