G04 #@! TF.GenerationSoftware,KiCad,Pcbnew,7.0.7*
G04 #@! TF.CreationDate,2024-01-04T14:31:22-05:00*
G04 #@! TF.ProjectId,sensor_node,73656e73-6f72-45f6-9e6f-64652e6b6963,rev?*
G04 #@! TF.SameCoordinates,Original*
G04 #@! TF.FileFunction,Soldermask,Bot*
G04 #@! TF.FilePolarity,Negative*
%FSLAX46Y46*%
G04 Gerber Fmt 4.6, Leading zero omitted, Abs format (unit mm)*
G04 Created by KiCad (PCBNEW 7.0.7) date 2024-01-04 14:31:22*
%MOMM*%
%LPD*%
G01*
G04 APERTURE LIST*
G04 Aperture macros list*
%AMRoundRect*
0 Rectangle with rounded corners*
0 $1 Rounding radius*
0 $2 $3 $4 $5 $6 $7 $8 $9 X,Y pos of 4 corners*
0 Add a 4 corners polygon primitive as box body*
4,1,4,$2,$3,$4,$5,$6,$7,$8,$9,$2,$3,0*
0 Add four circle primitives for the rounded corners*
1,1,$1+$1,$2,$3*
1,1,$1+$1,$4,$5*
1,1,$1+$1,$6,$7*
1,1,$1+$1,$8,$9*
0 Add four rect primitives between the rounded corners*
20,1,$1+$1,$2,$3,$4,$5,0*
20,1,$1+$1,$4,$5,$6,$7,0*
20,1,$1+$1,$6,$7,$8,$9,0*
20,1,$1+$1,$8,$9,$2,$3,0*%
G04 Aperture macros list end*
%ADD10C,1.000000*%
%ADD11R,1.000000X1.000000*%
%ADD12O,1.000000X1.000000*%
%ADD13R,1.700000X1.700000*%
%ADD14O,1.700000X1.700000*%
%ADD15R,2.100000X2.100000*%
%ADD16C,2.100000*%
%ADD17R,1.350000X1.350000*%
%ADD18O,1.350000X1.350000*%
%ADD19RoundRect,0.218750X0.256250X-0.218750X0.256250X0.218750X-0.256250X0.218750X-0.256250X-0.218750X0*%
%ADD20RoundRect,0.250000X0.450000X-0.262500X0.450000X0.262500X-0.450000X0.262500X-0.450000X-0.262500X0*%
%ADD21RoundRect,0.250000X-0.262500X-0.450000X0.262500X-0.450000X0.262500X0.450000X-0.262500X0.450000X0*%
%ADD22RoundRect,0.218750X-0.218750X-0.256250X0.218750X-0.256250X0.218750X0.256250X-0.218750X0.256250X0*%
%ADD23RoundRect,0.150000X-0.825000X-0.150000X0.825000X-0.150000X0.825000X0.150000X-0.825000X0.150000X0*%
%ADD24RoundRect,0.200000X0.275000X-0.200000X0.275000X0.200000X-0.275000X0.200000X-0.275000X-0.200000X0*%
%ADD25R,1.100000X2.500000*%
%ADD26R,2.500000X1.100000*%
%ADD27R,0.700000X2.000000*%
%ADD28R,1.800000X1.000000*%
%ADD29RoundRect,0.200000X-0.200000X0.800000X-0.200000X-0.800000X0.200000X-0.800000X0.200000X0.800000X0*%
%ADD30RoundRect,0.200000X0.800000X0.200000X-0.800000X0.200000X-0.800000X-0.200000X0.800000X-0.200000X0*%
%ADD31RoundRect,0.150000X0.875000X0.150000X-0.875000X0.150000X-0.875000X-0.150000X0.875000X-0.150000X0*%
%ADD32RoundRect,0.102000X1.250000X-0.600000X1.250000X0.600000X-1.250000X0.600000X-1.250000X-0.600000X0*%
G04 APERTURE END LIST*
D10*
X133470000Y-55150000D03*
X133470000Y-56850000D03*
D11*
X132970000Y-65250000D03*
D12*
X131700000Y-65250000D03*
X130430000Y-65250000D03*
X129160000Y-65250000D03*
D13*
X147710000Y-46050000D03*
D14*
X145170000Y-46050000D03*
X142630000Y-46050000D03*
X140090000Y-46050000D03*
X137550000Y-46050000D03*
X135010000Y-46050000D03*
X132470000Y-46050000D03*
X129930000Y-46050000D03*
X127390000Y-46050000D03*
X124850000Y-46050000D03*
X122310000Y-46050000D03*
X119770000Y-46050000D03*
X117230000Y-46050000D03*
X114690000Y-46050000D03*
X112150000Y-46050000D03*
X109610000Y-46050000D03*
X107070000Y-46050000D03*
X104530000Y-46050000D03*
X101990000Y-46050000D03*
D13*
X144880500Y-53630000D03*
D14*
X147420500Y-53630000D03*
X144880500Y-56170000D03*
X147420500Y-56170000D03*
X144880500Y-58710000D03*
X147420500Y-58710000D03*
X144880500Y-61250000D03*
X147420500Y-61250000D03*
X144880500Y-63790000D03*
X147420500Y-63790000D03*
X144880500Y-66330000D03*
X147420500Y-66330000D03*
D11*
X117950000Y-86500000D03*
D12*
X117950000Y-87770000D03*
X117950000Y-89040000D03*
X117950000Y-90310000D03*
D15*
X122000000Y-91500000D03*
D16*
X102000000Y-91500000D03*
D17*
X115450000Y-88750000D03*
D18*
X113450000Y-88750000D03*
X111450000Y-88750000D03*
X109450000Y-88750000D03*
X107450000Y-88750000D03*
X105450000Y-88750000D03*
D13*
X147700000Y-49800000D03*
D14*
X145160000Y-49800000D03*
X142620000Y-49800000D03*
X140080000Y-49800000D03*
X137540000Y-49800000D03*
X135000000Y-49800000D03*
X132460000Y-49800000D03*
X129920000Y-49800000D03*
X127380000Y-49800000D03*
X124840000Y-49800000D03*
X122300000Y-49800000D03*
X119760000Y-49800000D03*
X117220000Y-49800000D03*
X114680000Y-49800000D03*
X112140000Y-49800000D03*
X109600000Y-49800000D03*
X107060000Y-49800000D03*
X104520000Y-49800000D03*
X101980000Y-49800000D03*
D19*
X131470000Y-91287500D03*
X131470000Y-89712500D03*
D20*
X133220000Y-91412500D03*
X133220000Y-89587500D03*
D21*
X133395000Y-71250000D03*
X135220000Y-71250000D03*
D22*
X126812500Y-77250000D03*
X128387500Y-77250000D03*
D23*
X135720000Y-65655000D03*
X135720000Y-64385000D03*
X135720000Y-63115000D03*
X135720000Y-61845000D03*
X140670000Y-61845000D03*
X140670000Y-63115000D03*
X140670000Y-64385000D03*
X140670000Y-65655000D03*
D24*
X141920500Y-54750000D03*
X141920500Y-53100000D03*
D25*
X101500000Y-55550000D03*
X103500000Y-55550000D03*
X105500000Y-55550000D03*
X107500000Y-55550000D03*
X109500000Y-55550000D03*
X111500000Y-55550000D03*
X113500000Y-55550000D03*
X115500000Y-55550000D03*
X115500000Y-70950000D03*
X113500000Y-70950000D03*
X111500000Y-70950000D03*
X109500000Y-70950000D03*
X107500000Y-70950000D03*
X105500000Y-70950000D03*
X103500000Y-70950000D03*
X101500000Y-70950000D03*
D26*
X117200000Y-58240000D03*
X117200000Y-60240000D03*
X117200000Y-62240000D03*
X117200000Y-64240000D03*
X117200000Y-66240000D03*
X117200000Y-68240000D03*
D24*
X139920500Y-54750000D03*
X139920500Y-53100000D03*
D20*
X130600000Y-79162500D03*
X130600000Y-77337500D03*
D27*
X148300000Y-91100000D03*
X147030000Y-91100000D03*
X145760000Y-91100000D03*
X144490000Y-91100000D03*
X143220000Y-91100000D03*
X141950000Y-91100000D03*
X140680000Y-91100000D03*
X139410000Y-91100000D03*
X138140000Y-91100000D03*
X136870000Y-91100000D03*
X135600000Y-91100000D03*
X135600000Y-77000000D03*
X136870000Y-77000000D03*
X138140000Y-77000000D03*
X139410000Y-77000000D03*
X140680000Y-77000000D03*
X141950000Y-77000000D03*
X143220000Y-77000000D03*
X144490000Y-77000000D03*
X145760000Y-77000000D03*
X147030000Y-77000000D03*
X148300000Y-77000000D03*
D28*
X135770500Y-54500000D03*
X135770500Y-57000000D03*
D22*
X129682500Y-74000000D03*
X131257500Y-74000000D03*
D29*
X145500000Y-88450000D03*
X144000000Y-88450000D03*
X142500000Y-88450000D03*
X141000000Y-88450000D03*
X139500000Y-88450000D03*
X138000000Y-88450000D03*
X136500000Y-88450000D03*
X135000000Y-88500000D03*
D30*
X133500000Y-86200000D03*
X133500000Y-84700000D03*
X133500000Y-83200000D03*
X133500000Y-81700000D03*
X133500000Y-80200000D03*
X133500000Y-78700000D03*
X133500000Y-77200000D03*
X133450000Y-75700000D03*
D29*
X135000000Y-73500000D03*
X136500000Y-73500000D03*
X138000000Y-73500000D03*
X139500000Y-73500000D03*
X141000000Y-73500000D03*
X142500000Y-73500000D03*
X144000000Y-73500000D03*
X145500000Y-73500000D03*
D24*
X142720000Y-70575000D03*
X142720000Y-68925000D03*
D31*
X130670500Y-53420000D03*
X130670500Y-54690000D03*
X130670500Y-55960000D03*
X130670500Y-57230000D03*
X130670500Y-58500000D03*
X130670500Y-59770000D03*
X130670500Y-61040000D03*
X130670500Y-62310000D03*
X121370500Y-62310000D03*
X121370500Y-61040000D03*
X121370500Y-59770000D03*
X121370500Y-58500000D03*
X121370500Y-57230000D03*
X121370500Y-55960000D03*
X121370500Y-54690000D03*
X121370500Y-53420000D03*
D24*
X141920500Y-58400000D03*
X141920500Y-56750000D03*
D22*
X139182500Y-70500000D03*
X140757500Y-70500000D03*
D24*
X139920500Y-58400000D03*
X139920500Y-56750000D03*
D10*
X125412500Y-91600000D03*
X125412500Y-84600000D03*
D32*
X122162500Y-81900000D03*
X128662500Y-83000000D03*
X128662500Y-87000000D03*
X128662500Y-90000000D03*
M02*
