G04 #@! TF.GenerationSoftware,KiCad,Pcbnew,7.0.7*
G04 #@! TF.CreationDate,2024-01-04T14:31:21-05:00*
G04 #@! TF.ProjectId,sensor_node,73656e73-6f72-45f6-9e6f-64652e6b6963,rev?*
G04 #@! TF.SameCoordinates,Original*
G04 #@! TF.FileFunction,Paste,Top*
G04 #@! TF.FilePolarity,Positive*
%FSLAX46Y46*%
G04 Gerber Fmt 4.6, Leading zero omitted, Abs format (unit mm)*
G04 Created by KiCad (PCBNEW 7.0.7) date 2024-01-04 14:31:21*
%MOMM*%
%LPD*%
G01*
G04 APERTURE LIST*
G04 Aperture macros list*
%AMRoundRect*
0 Rectangle with rounded corners*
0 $1 Rounding radius*
0 $2 $3 $4 $5 $6 $7 $8 $9 X,Y pos of 4 corners*
0 Add a 4 corners polygon primitive as box body*
4,1,4,$2,$3,$4,$5,$6,$7,$8,$9,$2,$3,0*
0 Add four circle primitives for the rounded corners*
1,1,$1+$1,$2,$3*
1,1,$1+$1,$4,$5*
1,1,$1+$1,$6,$7*
1,1,$1+$1,$8,$9*
0 Add four rect primitives between the rounded corners*
20,1,$1+$1,$2,$3,$4,$5,0*
20,1,$1+$1,$4,$5,$6,$7,0*
20,1,$1+$1,$6,$7,$8,$9,0*
20,1,$1+$1,$8,$9,$2,$3,0*%
%AMFreePoly0*
4,1,6,0.450000,-0.800000,-0.450000,-0.800000,-0.450000,0.530000,-0.180000,0.800000,0.450000,0.800000,0.450000,-0.800000,0.450000,-0.800000,$1*%
G04 Aperture macros list end*
%ADD10RoundRect,0.250000X-0.625000X0.312500X-0.625000X-0.312500X0.625000X-0.312500X0.625000X0.312500X0*%
%ADD11RoundRect,0.150000X0.150000X-0.587500X0.150000X0.587500X-0.150000X0.587500X-0.150000X-0.587500X0*%
%ADD12RoundRect,0.250000X0.650000X-0.325000X0.650000X0.325000X-0.650000X0.325000X-0.650000X-0.325000X0*%
%ADD13RoundRect,0.250000X0.325000X0.650000X-0.325000X0.650000X-0.325000X-0.650000X0.325000X-0.650000X0*%
%ADD14RoundRect,0.250000X-0.312500X-0.625000X0.312500X-0.625000X0.312500X0.625000X-0.312500X0.625000X0*%
%ADD15RoundRect,0.200000X0.200000X0.275000X-0.200000X0.275000X-0.200000X-0.275000X0.200000X-0.275000X0*%
%ADD16R,3.500000X1.000000*%
%ADD17R,3.400000X1.500000*%
%ADD18R,0.250000X0.550000*%
%ADD19RoundRect,0.200000X-0.275000X0.200000X-0.275000X-0.200000X0.275000X-0.200000X0.275000X0.200000X0*%
%ADD20RoundRect,0.200000X0.275000X-0.200000X0.275000X0.200000X-0.275000X0.200000X-0.275000X-0.200000X0*%
%ADD21RoundRect,0.150000X-0.512500X-0.150000X0.512500X-0.150000X0.512500X0.150000X-0.512500X0.150000X0*%
%ADD22RoundRect,0.250000X-0.450000X0.262500X-0.450000X-0.262500X0.450000X-0.262500X0.450000X0.262500X0*%
%ADD23RoundRect,0.112500X0.112500X-0.187500X0.112500X0.187500X-0.112500X0.187500X-0.112500X-0.187500X0*%
%ADD24RoundRect,0.150000X-0.587500X-0.150000X0.587500X-0.150000X0.587500X0.150000X-0.587500X0.150000X0*%
%ADD25R,1.200000X0.900000*%
%ADD26RoundRect,0.150000X-0.150000X0.512500X-0.150000X-0.512500X0.150000X-0.512500X0.150000X0.512500X0*%
%ADD27FreePoly0,270.000000*%
%ADD28RoundRect,0.100000X0.100000X-0.637500X0.100000X0.637500X-0.100000X0.637500X-0.100000X-0.637500X0*%
%ADD29R,1.500000X1.600000*%
%ADD30RoundRect,0.250000X-0.650000X0.325000X-0.650000X-0.325000X0.650000X-0.325000X0.650000X0.325000X0*%
%ADD31R,0.600000X0.720000*%
%ADD32R,0.650000X1.050000*%
%ADD33RoundRect,0.250000X0.312500X0.625000X-0.312500X0.625000X-0.312500X-0.625000X0.312500X-0.625000X0*%
%ADD34RoundRect,0.250000X-0.325000X-0.650000X0.325000X-0.650000X0.325000X0.650000X-0.325000X0.650000X0*%
%ADD35RoundRect,0.218750X0.218750X0.256250X-0.218750X0.256250X-0.218750X-0.256250X0.218750X-0.256250X0*%
%ADD36R,1.050000X0.650000*%
G04 APERTURE END LIST*
G36*
X115150000Y-85100000D02*
G01*
X113950000Y-85100000D01*
X113950000Y-84200000D01*
X114250000Y-83900000D01*
X115150000Y-83900000D01*
X115150000Y-85100000D01*
G37*
G36*
X115150000Y-83100000D02*
G01*
X114250000Y-83100000D01*
X113950000Y-82800000D01*
X113950000Y-81900000D01*
X115150000Y-81900000D01*
X115150000Y-83100000D01*
G37*
D10*
X130470000Y-59250000D03*
X130470000Y-62175000D03*
D11*
X119458000Y-79000000D03*
X121358000Y-79000000D03*
X120408000Y-77125000D03*
D12*
X143770500Y-72225000D03*
X143770500Y-69275000D03*
D13*
X109375000Y-75750000D03*
X106425000Y-75750000D03*
D10*
X120470000Y-57825000D03*
X120470000Y-60750000D03*
D14*
X112275000Y-68750000D03*
X115200000Y-68750000D03*
D15*
X141845500Y-59750000D03*
X140195500Y-59750000D03*
D16*
X108350000Y-67250000D03*
X108350000Y-69250000D03*
X108350000Y-71250000D03*
X108350000Y-73250000D03*
D17*
X102600000Y-64900000D03*
X102600000Y-75600000D03*
D13*
X109425000Y-64750000D03*
X106475000Y-64750000D03*
D18*
X146770500Y-85150000D03*
X147270500Y-85150000D03*
X147770500Y-85150000D03*
X147770500Y-82400000D03*
X147270500Y-82400000D03*
X146770500Y-82400000D03*
D19*
X122770500Y-86925000D03*
X122770500Y-88575000D03*
D14*
X111808000Y-76750000D03*
X114733000Y-76750000D03*
D20*
X123858000Y-79325000D03*
X123858000Y-77675000D03*
D21*
X117258000Y-82350000D03*
X117258000Y-83300000D03*
X117258000Y-84250000D03*
X119533000Y-84250000D03*
X119533000Y-83300000D03*
X119533000Y-82350000D03*
D16*
X108400000Y-55350000D03*
X108400000Y-57350000D03*
X108400000Y-59350000D03*
D17*
X102650000Y-53000000D03*
X102650000Y-61700000D03*
D22*
X134770500Y-75087500D03*
X134770500Y-76912500D03*
D23*
X138144500Y-64800000D03*
X138144500Y-62700000D03*
D24*
X123333000Y-81800000D03*
X123333000Y-83700000D03*
X125208000Y-82750000D03*
D16*
X108300000Y-81100000D03*
X108300000Y-83100000D03*
X108300000Y-85100000D03*
D17*
X102550000Y-78750000D03*
X102550000Y-87450000D03*
D20*
X146770500Y-88825000D03*
X146770500Y-87175000D03*
D15*
X112695500Y-79500000D03*
X111045500Y-79500000D03*
D19*
X144520500Y-87100000D03*
X144520500Y-88750000D03*
D25*
X124570000Y-59600000D03*
X127370000Y-59600000D03*
X127370000Y-57900000D03*
X124570000Y-57900000D03*
D26*
X133720500Y-80612500D03*
X131820500Y-80612500D03*
X132770500Y-82887500D03*
D27*
X147270500Y-79000000D03*
D18*
X148020500Y-77825000D03*
X147520500Y-77825000D03*
X147020500Y-77825000D03*
X146520500Y-77825000D03*
X146520500Y-80175000D03*
X147020500Y-80175000D03*
X147520500Y-80175000D03*
X148020500Y-80175000D03*
D15*
X115845500Y-79500000D03*
X114195500Y-79500000D03*
D28*
X119720500Y-70398407D03*
X120370500Y-70398407D03*
X121020500Y-70398407D03*
X121670500Y-70398407D03*
X122320500Y-70398407D03*
X122970500Y-70398407D03*
X123620500Y-70398407D03*
X124270500Y-70398407D03*
X124920500Y-70398407D03*
X125570500Y-70398407D03*
X125570500Y-64673407D03*
X124920500Y-64673407D03*
X124270500Y-64673407D03*
X123620500Y-64673407D03*
X122970500Y-64673407D03*
X122320500Y-64673407D03*
X121670500Y-64673407D03*
X121020500Y-64673407D03*
X120370500Y-64673407D03*
X119720500Y-64673407D03*
D29*
X111300000Y-83500000D03*
D30*
X143770500Y-74000000D03*
X143770500Y-76950000D03*
D31*
X147920500Y-71585000D03*
X147920500Y-72555000D03*
X147920500Y-73525000D03*
X147920500Y-74495000D03*
X146520500Y-74495000D03*
X146520500Y-73525000D03*
X146520500Y-72555000D03*
X146520500Y-71585000D03*
D32*
X114775000Y-61175000D03*
X114775000Y-65325000D03*
X112625000Y-61175000D03*
X112625000Y-65325000D03*
D33*
X108612000Y-52500000D03*
X105687000Y-52500000D03*
D34*
X144770000Y-91250000D03*
X147720000Y-91250000D03*
D35*
X139308000Y-76000000D03*
X137733000Y-76000000D03*
D20*
X120020500Y-88575000D03*
X120020500Y-86925000D03*
D14*
X106437500Y-78250000D03*
X109362500Y-78250000D03*
D15*
X130920500Y-83000000D03*
X129270500Y-83000000D03*
D14*
X106487500Y-62000000D03*
X109412500Y-62000000D03*
D36*
X140595500Y-81325000D03*
X136445500Y-81325000D03*
X140595500Y-79175000D03*
X136445500Y-79175000D03*
M02*
