G04 #@! TF.GenerationSoftware,KiCad,Pcbnew,7.0.7*
G04 #@! TF.CreationDate,2024-01-04T14:31:22-05:00*
G04 #@! TF.ProjectId,sensor_node,73656e73-6f72-45f6-9e6f-64652e6b6963,rev?*
G04 #@! TF.SameCoordinates,Original*
G04 #@! TF.FileFunction,Legend,Bot*
G04 #@! TF.FilePolarity,Positive*
%FSLAX46Y46*%
G04 Gerber Fmt 4.6, Leading zero omitted, Abs format (unit mm)*
G04 Created by KiCad (PCBNEW 7.0.7) date 2024-01-04 14:31:22*
%MOMM*%
%LPD*%
G01*
G04 APERTURE LIST*
G04 Aperture macros list*
%AMRoundRect*
0 Rectangle with rounded corners*
0 $1 Rounding radius*
0 $2 $3 $4 $5 $6 $7 $8 $9 X,Y pos of 4 corners*
0 Add a 4 corners polygon primitive as box body*
4,1,4,$2,$3,$4,$5,$6,$7,$8,$9,$2,$3,0*
0 Add four circle primitives for the rounded corners*
1,1,$1+$1,$2,$3*
1,1,$1+$1,$4,$5*
1,1,$1+$1,$6,$7*
1,1,$1+$1,$8,$9*
0 Add four rect primitives between the rounded corners*
20,1,$1+$1,$2,$3,$4,$5,0*
20,1,$1+$1,$4,$5,$6,$7,0*
20,1,$1+$1,$6,$7,$8,$9,0*
20,1,$1+$1,$8,$9,$2,$3,0*%
G04 Aperture macros list end*
%ADD10C,0.150000*%
%ADD11C,0.100000*%
%ADD12C,0.120000*%
%ADD13C,0.152400*%
%ADD14C,0.127000*%
%ADD15C,0.200000*%
%ADD16C,1.000000*%
%ADD17R,1.000000X1.000000*%
%ADD18O,1.000000X1.000000*%
%ADD19R,1.700000X1.700000*%
%ADD20O,1.700000X1.700000*%
%ADD21R,2.100000X2.100000*%
%ADD22C,2.100000*%
%ADD23R,1.350000X1.350000*%
%ADD24O,1.350000X1.350000*%
%ADD25RoundRect,0.218750X0.256250X-0.218750X0.256250X0.218750X-0.256250X0.218750X-0.256250X-0.218750X0*%
%ADD26RoundRect,0.250000X0.450000X-0.262500X0.450000X0.262500X-0.450000X0.262500X-0.450000X-0.262500X0*%
%ADD27RoundRect,0.250000X-0.262500X-0.450000X0.262500X-0.450000X0.262500X0.450000X-0.262500X0.450000X0*%
%ADD28RoundRect,0.218750X-0.218750X-0.256250X0.218750X-0.256250X0.218750X0.256250X-0.218750X0.256250X0*%
%ADD29RoundRect,0.150000X-0.825000X-0.150000X0.825000X-0.150000X0.825000X0.150000X-0.825000X0.150000X0*%
%ADD30RoundRect,0.200000X0.275000X-0.200000X0.275000X0.200000X-0.275000X0.200000X-0.275000X-0.200000X0*%
%ADD31R,1.100000X2.500000*%
%ADD32R,2.500000X1.100000*%
%ADD33R,0.700000X2.000000*%
%ADD34R,1.800000X1.000000*%
%ADD35RoundRect,0.200000X-0.200000X0.800000X-0.200000X-0.800000X0.200000X-0.800000X0.200000X0.800000X0*%
%ADD36RoundRect,0.200000X0.800000X0.200000X-0.800000X0.200000X-0.800000X-0.200000X0.800000X-0.200000X0*%
%ADD37RoundRect,0.150000X0.875000X0.150000X-0.875000X0.150000X-0.875000X-0.150000X0.875000X-0.150000X0*%
%ADD38RoundRect,0.102000X1.250000X-0.600000X1.250000X0.600000X-1.250000X0.600000X-1.250000X-0.600000X0*%
G04 APERTURE END LIST*
D10*
X114850180Y-52056077D02*
X113850180Y-51722744D01*
X113850180Y-51722744D02*
X114850180Y-51389411D01*
X114231133Y-51056077D02*
X114231133Y-50294173D01*
X113850180Y-50675125D02*
X114612085Y-50675125D01*
X103647800Y-52710839D02*
X103600180Y-52567982D01*
X103600180Y-52567982D02*
X103600180Y-52329887D01*
X103600180Y-52329887D02*
X103647800Y-52234649D01*
X103647800Y-52234649D02*
X103695419Y-52187030D01*
X103695419Y-52187030D02*
X103790657Y-52139411D01*
X103790657Y-52139411D02*
X103885895Y-52139411D01*
X103885895Y-52139411D02*
X103981133Y-52187030D01*
X103981133Y-52187030D02*
X104028752Y-52234649D01*
X104028752Y-52234649D02*
X104076371Y-52329887D01*
X104076371Y-52329887D02*
X104123990Y-52520363D01*
X104123990Y-52520363D02*
X104171609Y-52615601D01*
X104171609Y-52615601D02*
X104219228Y-52663220D01*
X104219228Y-52663220D02*
X104314466Y-52710839D01*
X104314466Y-52710839D02*
X104409704Y-52710839D01*
X104409704Y-52710839D02*
X104504942Y-52663220D01*
X104504942Y-52663220D02*
X104552561Y-52615601D01*
X104552561Y-52615601D02*
X104600180Y-52520363D01*
X104600180Y-52520363D02*
X104600180Y-52282268D01*
X104600180Y-52282268D02*
X104552561Y-52139411D01*
X103600180Y-51710839D02*
X104600180Y-51710839D01*
X104600180Y-51710839D02*
X104600180Y-51472744D01*
X104600180Y-51472744D02*
X104552561Y-51329887D01*
X104552561Y-51329887D02*
X104457323Y-51234649D01*
X104457323Y-51234649D02*
X104362085Y-51187030D01*
X104362085Y-51187030D02*
X104171609Y-51139411D01*
X104171609Y-51139411D02*
X104028752Y-51139411D01*
X104028752Y-51139411D02*
X103838276Y-51187030D01*
X103838276Y-51187030D02*
X103743038Y-51234649D01*
X103743038Y-51234649D02*
X103647800Y-51329887D01*
X103647800Y-51329887D02*
X103600180Y-51472744D01*
X103600180Y-51472744D02*
X103600180Y-51710839D01*
X103885895Y-50758458D02*
X103885895Y-50282268D01*
X103600180Y-50853696D02*
X104600180Y-50520363D01*
X104600180Y-50520363D02*
X103600180Y-50187030D01*
X132600180Y-47806077D02*
X131600180Y-47472744D01*
X131600180Y-47472744D02*
X132600180Y-47139411D01*
X131981133Y-46806077D02*
X131981133Y-46044173D01*
X101147800Y-52710839D02*
X101100180Y-52567982D01*
X101100180Y-52567982D02*
X101100180Y-52329887D01*
X101100180Y-52329887D02*
X101147800Y-52234649D01*
X101147800Y-52234649D02*
X101195419Y-52187030D01*
X101195419Y-52187030D02*
X101290657Y-52139411D01*
X101290657Y-52139411D02*
X101385895Y-52139411D01*
X101385895Y-52139411D02*
X101481133Y-52187030D01*
X101481133Y-52187030D02*
X101528752Y-52234649D01*
X101528752Y-52234649D02*
X101576371Y-52329887D01*
X101576371Y-52329887D02*
X101623990Y-52520363D01*
X101623990Y-52520363D02*
X101671609Y-52615601D01*
X101671609Y-52615601D02*
X101719228Y-52663220D01*
X101719228Y-52663220D02*
X101814466Y-52710839D01*
X101814466Y-52710839D02*
X101909704Y-52710839D01*
X101909704Y-52710839D02*
X102004942Y-52663220D01*
X102004942Y-52663220D02*
X102052561Y-52615601D01*
X102052561Y-52615601D02*
X102100180Y-52520363D01*
X102100180Y-52520363D02*
X102100180Y-52282268D01*
X102100180Y-52282268D02*
X102052561Y-52139411D01*
X101195419Y-51139411D02*
X101147800Y-51187030D01*
X101147800Y-51187030D02*
X101100180Y-51329887D01*
X101100180Y-51329887D02*
X101100180Y-51425125D01*
X101100180Y-51425125D02*
X101147800Y-51567982D01*
X101147800Y-51567982D02*
X101243038Y-51663220D01*
X101243038Y-51663220D02*
X101338276Y-51710839D01*
X101338276Y-51710839D02*
X101528752Y-51758458D01*
X101528752Y-51758458D02*
X101671609Y-51758458D01*
X101671609Y-51758458D02*
X101862085Y-51710839D01*
X101862085Y-51710839D02*
X101957323Y-51663220D01*
X101957323Y-51663220D02*
X102052561Y-51567982D01*
X102052561Y-51567982D02*
X102100180Y-51425125D01*
X102100180Y-51425125D02*
X102100180Y-51329887D01*
X102100180Y-51329887D02*
X102052561Y-51187030D01*
X102052561Y-51187030D02*
X102004942Y-51139411D01*
X101100180Y-50234649D02*
X101100180Y-50710839D01*
X101100180Y-50710839D02*
X102100180Y-50710839D01*
X137850180Y-53056077D02*
X136850180Y-52722744D01*
X136850180Y-52722744D02*
X137850180Y-52389411D01*
X136850180Y-52056077D02*
X137516847Y-52056077D01*
X137850180Y-52056077D02*
X137802561Y-52103696D01*
X137802561Y-52103696D02*
X137754942Y-52056077D01*
X137754942Y-52056077D02*
X137802561Y-52008458D01*
X137802561Y-52008458D02*
X137850180Y-52056077D01*
X137850180Y-52056077D02*
X137754942Y-52056077D01*
X137516847Y-51579887D02*
X136850180Y-51579887D01*
X137421609Y-51579887D02*
X137469228Y-51532268D01*
X137469228Y-51532268D02*
X137516847Y-51437030D01*
X137516847Y-51437030D02*
X137516847Y-51294173D01*
X137516847Y-51294173D02*
X137469228Y-51198935D01*
X137469228Y-51198935D02*
X137373990Y-51151316D01*
X137373990Y-51151316D02*
X136850180Y-51151316D01*
X137231133Y-50675125D02*
X137231133Y-49913221D01*
X143776077Y-60869819D02*
X143442744Y-61869819D01*
X143442744Y-61869819D02*
X143109411Y-60869819D01*
X142776077Y-61488866D02*
X142014173Y-61488866D01*
X142395125Y-61869819D02*
X142395125Y-61107914D01*
X132600180Y-52056077D02*
X131600180Y-51722744D01*
X131600180Y-51722744D02*
X132600180Y-51389411D01*
X131981133Y-51056077D02*
X131981133Y-50294173D01*
X131600180Y-50675125D02*
X132362085Y-50675125D01*
X122600180Y-47806077D02*
X121600180Y-47472744D01*
X121600180Y-47472744D02*
X122600180Y-47139411D01*
X121981133Y-46806077D02*
X121981133Y-46044173D01*
X121600180Y-46425125D02*
X122362085Y-46425125D01*
X120026077Y-89369819D02*
X119692744Y-90369819D01*
X119692744Y-90369819D02*
X119359411Y-89369819D01*
X118883220Y-90369819D02*
X118978458Y-90322200D01*
X118978458Y-90322200D02*
X119026077Y-90274580D01*
X119026077Y-90274580D02*
X119073696Y-90179342D01*
X119073696Y-90179342D02*
X119073696Y-89893628D01*
X119073696Y-89893628D02*
X119026077Y-89798390D01*
X119026077Y-89798390D02*
X118978458Y-89750771D01*
X118978458Y-89750771D02*
X118883220Y-89703152D01*
X118883220Y-89703152D02*
X118740363Y-89703152D01*
X118740363Y-89703152D02*
X118645125Y-89750771D01*
X118645125Y-89750771D02*
X118597506Y-89798390D01*
X118597506Y-89798390D02*
X118549887Y-89893628D01*
X118549887Y-89893628D02*
X118549887Y-90179342D01*
X118549887Y-90179342D02*
X118597506Y-90274580D01*
X118597506Y-90274580D02*
X118645125Y-90322200D01*
X118645125Y-90322200D02*
X118740363Y-90369819D01*
X118740363Y-90369819D02*
X118883220Y-90369819D01*
X117350180Y-52056077D02*
X116350180Y-51722744D01*
X116350180Y-51722744D02*
X117350180Y-51389411D01*
X116731133Y-51056077D02*
X116731133Y-50294173D01*
X119137030Y-91369819D02*
X119613220Y-91369819D01*
X119613220Y-91369819D02*
X119660839Y-91846009D01*
X119660839Y-91846009D02*
X119613220Y-91798390D01*
X119613220Y-91798390D02*
X119517982Y-91750771D01*
X119517982Y-91750771D02*
X119279887Y-91750771D01*
X119279887Y-91750771D02*
X119184649Y-91798390D01*
X119184649Y-91798390D02*
X119137030Y-91846009D01*
X119137030Y-91846009D02*
X119089411Y-91941247D01*
X119089411Y-91941247D02*
X119089411Y-92179342D01*
X119089411Y-92179342D02*
X119137030Y-92274580D01*
X119137030Y-92274580D02*
X119184649Y-92322200D01*
X119184649Y-92322200D02*
X119279887Y-92369819D01*
X119279887Y-92369819D02*
X119517982Y-92369819D01*
X119517982Y-92369819D02*
X119613220Y-92322200D01*
X119613220Y-92322200D02*
X119660839Y-92274580D01*
X118803696Y-91369819D02*
X118470363Y-92369819D01*
X118470363Y-92369819D02*
X118137030Y-91369819D01*
X107850180Y-91056077D02*
X106850180Y-90722744D01*
X106850180Y-90722744D02*
X107850180Y-90389411D01*
X107231133Y-90056077D02*
X107231133Y-89294173D01*
X120026077Y-86869819D02*
X119454649Y-86869819D01*
X119740363Y-87869819D02*
X119740363Y-86869819D01*
X119216553Y-86869819D02*
X118549887Y-87869819D01*
X118549887Y-86869819D02*
X119216553Y-87869819D01*
X107350180Y-47806077D02*
X106350180Y-47472744D01*
X106350180Y-47472744D02*
X107350180Y-47139411D01*
X106731133Y-46806077D02*
X106731133Y-46044173D01*
X106350180Y-46425125D02*
X107112085Y-46425125D01*
X102100180Y-47806077D02*
X101100180Y-47472744D01*
X101100180Y-47472744D02*
X102100180Y-47139411D01*
X101481133Y-46806077D02*
X101481133Y-46044173D01*
X101100180Y-46425125D02*
X101862085Y-46425125D01*
X141897800Y-48210839D02*
X141850180Y-48067982D01*
X141850180Y-48067982D02*
X141850180Y-47829887D01*
X141850180Y-47829887D02*
X141897800Y-47734649D01*
X141897800Y-47734649D02*
X141945419Y-47687030D01*
X141945419Y-47687030D02*
X142040657Y-47639411D01*
X142040657Y-47639411D02*
X142135895Y-47639411D01*
X142135895Y-47639411D02*
X142231133Y-47687030D01*
X142231133Y-47687030D02*
X142278752Y-47734649D01*
X142278752Y-47734649D02*
X142326371Y-47829887D01*
X142326371Y-47829887D02*
X142373990Y-48020363D01*
X142373990Y-48020363D02*
X142421609Y-48115601D01*
X142421609Y-48115601D02*
X142469228Y-48163220D01*
X142469228Y-48163220D02*
X142564466Y-48210839D01*
X142564466Y-48210839D02*
X142659704Y-48210839D01*
X142659704Y-48210839D02*
X142754942Y-48163220D01*
X142754942Y-48163220D02*
X142802561Y-48115601D01*
X142802561Y-48115601D02*
X142850180Y-48020363D01*
X142850180Y-48020363D02*
X142850180Y-47782268D01*
X142850180Y-47782268D02*
X142802561Y-47639411D01*
X141945419Y-46639411D02*
X141897800Y-46687030D01*
X141897800Y-46687030D02*
X141850180Y-46829887D01*
X141850180Y-46829887D02*
X141850180Y-46925125D01*
X141850180Y-46925125D02*
X141897800Y-47067982D01*
X141897800Y-47067982D02*
X141993038Y-47163220D01*
X141993038Y-47163220D02*
X142088276Y-47210839D01*
X142088276Y-47210839D02*
X142278752Y-47258458D01*
X142278752Y-47258458D02*
X142421609Y-47258458D01*
X142421609Y-47258458D02*
X142612085Y-47210839D01*
X142612085Y-47210839D02*
X142707323Y-47163220D01*
X142707323Y-47163220D02*
X142802561Y-47067982D01*
X142802561Y-47067982D02*
X142850180Y-46925125D01*
X142850180Y-46925125D02*
X142850180Y-46829887D01*
X142850180Y-46829887D02*
X142802561Y-46687030D01*
X142802561Y-46687030D02*
X142754942Y-46639411D01*
X141850180Y-46210839D02*
X142850180Y-46210839D01*
X141850180Y-45639411D02*
X142421609Y-46067982D01*
X142850180Y-45639411D02*
X142278752Y-46210839D01*
X111350180Y-52663220D02*
X112350180Y-52663220D01*
X112350180Y-52663220D02*
X112350180Y-52282268D01*
X112350180Y-52282268D02*
X112302561Y-52187030D01*
X112302561Y-52187030D02*
X112254942Y-52139411D01*
X112254942Y-52139411D02*
X112159704Y-52091792D01*
X112159704Y-52091792D02*
X112016847Y-52091792D01*
X112016847Y-52091792D02*
X111921609Y-52139411D01*
X111921609Y-52139411D02*
X111873990Y-52187030D01*
X111873990Y-52187030D02*
X111826371Y-52282268D01*
X111826371Y-52282268D02*
X111826371Y-52663220D01*
X111350180Y-51663220D02*
X112350180Y-51663220D01*
X112350180Y-51663220D02*
X112350180Y-51425125D01*
X112350180Y-51425125D02*
X112302561Y-51282268D01*
X112302561Y-51282268D02*
X112207323Y-51187030D01*
X112207323Y-51187030D02*
X112112085Y-51139411D01*
X112112085Y-51139411D02*
X111921609Y-51091792D01*
X111921609Y-51091792D02*
X111778752Y-51091792D01*
X111778752Y-51091792D02*
X111588276Y-51139411D01*
X111588276Y-51139411D02*
X111493038Y-51187030D01*
X111493038Y-51187030D02*
X111397800Y-51282268D01*
X111397800Y-51282268D02*
X111350180Y-51425125D01*
X111350180Y-51425125D02*
X111350180Y-51663220D01*
X112254942Y-50710839D02*
X112302561Y-50663220D01*
X112302561Y-50663220D02*
X112350180Y-50567982D01*
X112350180Y-50567982D02*
X112350180Y-50329887D01*
X112350180Y-50329887D02*
X112302561Y-50234649D01*
X112302561Y-50234649D02*
X112254942Y-50187030D01*
X112254942Y-50187030D02*
X112159704Y-50139411D01*
X112159704Y-50139411D02*
X112064466Y-50139411D01*
X112064466Y-50139411D02*
X111921609Y-50187030D01*
X111921609Y-50187030D02*
X111350180Y-50758458D01*
X111350180Y-50758458D02*
X111350180Y-50139411D01*
X147850180Y-47806077D02*
X146850180Y-47472744D01*
X146850180Y-47472744D02*
X147850180Y-47139411D01*
X147231133Y-46806077D02*
X147231133Y-46044173D01*
X121647800Y-52710839D02*
X121600180Y-52567982D01*
X121600180Y-52567982D02*
X121600180Y-52329887D01*
X121600180Y-52329887D02*
X121647800Y-52234649D01*
X121647800Y-52234649D02*
X121695419Y-52187030D01*
X121695419Y-52187030D02*
X121790657Y-52139411D01*
X121790657Y-52139411D02*
X121885895Y-52139411D01*
X121885895Y-52139411D02*
X121981133Y-52187030D01*
X121981133Y-52187030D02*
X122028752Y-52234649D01*
X122028752Y-52234649D02*
X122076371Y-52329887D01*
X122076371Y-52329887D02*
X122123990Y-52520363D01*
X122123990Y-52520363D02*
X122171609Y-52615601D01*
X122171609Y-52615601D02*
X122219228Y-52663220D01*
X122219228Y-52663220D02*
X122314466Y-52710839D01*
X122314466Y-52710839D02*
X122409704Y-52710839D01*
X122409704Y-52710839D02*
X122504942Y-52663220D01*
X122504942Y-52663220D02*
X122552561Y-52615601D01*
X122552561Y-52615601D02*
X122600180Y-52520363D01*
X122600180Y-52520363D02*
X122600180Y-52282268D01*
X122600180Y-52282268D02*
X122552561Y-52139411D01*
X121695419Y-51139411D02*
X121647800Y-51187030D01*
X121647800Y-51187030D02*
X121600180Y-51329887D01*
X121600180Y-51329887D02*
X121600180Y-51425125D01*
X121600180Y-51425125D02*
X121647800Y-51567982D01*
X121647800Y-51567982D02*
X121743038Y-51663220D01*
X121743038Y-51663220D02*
X121838276Y-51710839D01*
X121838276Y-51710839D02*
X122028752Y-51758458D01*
X122028752Y-51758458D02*
X122171609Y-51758458D01*
X122171609Y-51758458D02*
X122362085Y-51710839D01*
X122362085Y-51710839D02*
X122457323Y-51663220D01*
X122457323Y-51663220D02*
X122552561Y-51567982D01*
X122552561Y-51567982D02*
X122600180Y-51425125D01*
X122600180Y-51425125D02*
X122600180Y-51329887D01*
X122600180Y-51329887D02*
X122552561Y-51187030D01*
X122552561Y-51187030D02*
X122504942Y-51139411D01*
X121600180Y-50234649D02*
X121600180Y-50710839D01*
X121600180Y-50710839D02*
X122600180Y-50710839D01*
X145839819Y-61693922D02*
X146839819Y-62027255D01*
X146839819Y-62027255D02*
X145839819Y-62360588D01*
X146458866Y-62693922D02*
X146458866Y-63455827D01*
X139350180Y-48663220D02*
X140350180Y-48663220D01*
X140350180Y-48663220D02*
X139635895Y-48329887D01*
X139635895Y-48329887D02*
X140350180Y-47996554D01*
X140350180Y-47996554D02*
X139350180Y-47996554D01*
X140350180Y-47329887D02*
X140350180Y-47139411D01*
X140350180Y-47139411D02*
X140302561Y-47044173D01*
X140302561Y-47044173D02*
X140207323Y-46948935D01*
X140207323Y-46948935D02*
X140016847Y-46901316D01*
X140016847Y-46901316D02*
X139683514Y-46901316D01*
X139683514Y-46901316D02*
X139493038Y-46948935D01*
X139493038Y-46948935D02*
X139397800Y-47044173D01*
X139397800Y-47044173D02*
X139350180Y-47139411D01*
X139350180Y-47139411D02*
X139350180Y-47329887D01*
X139350180Y-47329887D02*
X139397800Y-47425125D01*
X139397800Y-47425125D02*
X139493038Y-47520363D01*
X139493038Y-47520363D02*
X139683514Y-47567982D01*
X139683514Y-47567982D02*
X140016847Y-47567982D01*
X140016847Y-47567982D02*
X140207323Y-47520363D01*
X140207323Y-47520363D02*
X140302561Y-47425125D01*
X140302561Y-47425125D02*
X140350180Y-47329887D01*
X139397800Y-46520363D02*
X139350180Y-46377506D01*
X139350180Y-46377506D02*
X139350180Y-46139411D01*
X139350180Y-46139411D02*
X139397800Y-46044173D01*
X139397800Y-46044173D02*
X139445419Y-45996554D01*
X139445419Y-45996554D02*
X139540657Y-45948935D01*
X139540657Y-45948935D02*
X139635895Y-45948935D01*
X139635895Y-45948935D02*
X139731133Y-45996554D01*
X139731133Y-45996554D02*
X139778752Y-46044173D01*
X139778752Y-46044173D02*
X139826371Y-46139411D01*
X139826371Y-46139411D02*
X139873990Y-46329887D01*
X139873990Y-46329887D02*
X139921609Y-46425125D01*
X139921609Y-46425125D02*
X139969228Y-46472744D01*
X139969228Y-46472744D02*
X140064466Y-46520363D01*
X140064466Y-46520363D02*
X140159704Y-46520363D01*
X140159704Y-46520363D02*
X140254942Y-46472744D01*
X140254942Y-46472744D02*
X140302561Y-46425125D01*
X140302561Y-46425125D02*
X140350180Y-46329887D01*
X140350180Y-46329887D02*
X140350180Y-46091792D01*
X140350180Y-46091792D02*
X140302561Y-45948935D01*
X139350180Y-45520363D02*
X140350180Y-45520363D01*
X107350180Y-52056077D02*
X106350180Y-51722744D01*
X106350180Y-51722744D02*
X107350180Y-51389411D01*
X106731133Y-51056077D02*
X106731133Y-50294173D01*
X119311792Y-86619819D02*
X119645125Y-86143628D01*
X119883220Y-86619819D02*
X119883220Y-85619819D01*
X119883220Y-85619819D02*
X119502268Y-85619819D01*
X119502268Y-85619819D02*
X119407030Y-85667438D01*
X119407030Y-85667438D02*
X119359411Y-85715057D01*
X119359411Y-85715057D02*
X119311792Y-85810295D01*
X119311792Y-85810295D02*
X119311792Y-85953152D01*
X119311792Y-85953152D02*
X119359411Y-86048390D01*
X119359411Y-86048390D02*
X119407030Y-86096009D01*
X119407030Y-86096009D02*
X119502268Y-86143628D01*
X119502268Y-86143628D02*
X119883220Y-86143628D01*
X118978458Y-85619819D02*
X118311792Y-86619819D01*
X118311792Y-85619819D02*
X118978458Y-86619819D01*
X110850180Y-90341792D02*
X111326371Y-90675125D01*
X110850180Y-90913220D02*
X111850180Y-90913220D01*
X111850180Y-90913220D02*
X111850180Y-90532268D01*
X111850180Y-90532268D02*
X111802561Y-90437030D01*
X111802561Y-90437030D02*
X111754942Y-90389411D01*
X111754942Y-90389411D02*
X111659704Y-90341792D01*
X111659704Y-90341792D02*
X111516847Y-90341792D01*
X111516847Y-90341792D02*
X111421609Y-90389411D01*
X111421609Y-90389411D02*
X111373990Y-90437030D01*
X111373990Y-90437030D02*
X111326371Y-90532268D01*
X111326371Y-90532268D02*
X111326371Y-90913220D01*
X111850180Y-90008458D02*
X110850180Y-89341792D01*
X111850180Y-89341792D02*
X110850180Y-90008458D01*
X143680839Y-59322200D02*
X143537982Y-59369819D01*
X143537982Y-59369819D02*
X143299887Y-59369819D01*
X143299887Y-59369819D02*
X143204649Y-59322200D01*
X143204649Y-59322200D02*
X143157030Y-59274580D01*
X143157030Y-59274580D02*
X143109411Y-59179342D01*
X143109411Y-59179342D02*
X143109411Y-59084104D01*
X143109411Y-59084104D02*
X143157030Y-58988866D01*
X143157030Y-58988866D02*
X143204649Y-58941247D01*
X143204649Y-58941247D02*
X143299887Y-58893628D01*
X143299887Y-58893628D02*
X143490363Y-58846009D01*
X143490363Y-58846009D02*
X143585601Y-58798390D01*
X143585601Y-58798390D02*
X143633220Y-58750771D01*
X143633220Y-58750771D02*
X143680839Y-58655533D01*
X143680839Y-58655533D02*
X143680839Y-58560295D01*
X143680839Y-58560295D02*
X143633220Y-58465057D01*
X143633220Y-58465057D02*
X143585601Y-58417438D01*
X143585601Y-58417438D02*
X143490363Y-58369819D01*
X143490363Y-58369819D02*
X143252268Y-58369819D01*
X143252268Y-58369819D02*
X143109411Y-58417438D01*
X142823696Y-58369819D02*
X142490363Y-59369819D01*
X142490363Y-59369819D02*
X142157030Y-58369819D01*
X141823696Y-59369819D02*
X141823696Y-58703152D01*
X141823696Y-58369819D02*
X141871315Y-58417438D01*
X141871315Y-58417438D02*
X141823696Y-58465057D01*
X141823696Y-58465057D02*
X141776077Y-58417438D01*
X141776077Y-58417438D02*
X141823696Y-58369819D01*
X141823696Y-58369819D02*
X141823696Y-58465057D01*
X143680839Y-66822200D02*
X143537982Y-66869819D01*
X143537982Y-66869819D02*
X143299887Y-66869819D01*
X143299887Y-66869819D02*
X143204649Y-66822200D01*
X143204649Y-66822200D02*
X143157030Y-66774580D01*
X143157030Y-66774580D02*
X143109411Y-66679342D01*
X143109411Y-66679342D02*
X143109411Y-66584104D01*
X143109411Y-66584104D02*
X143157030Y-66488866D01*
X143157030Y-66488866D02*
X143204649Y-66441247D01*
X143204649Y-66441247D02*
X143299887Y-66393628D01*
X143299887Y-66393628D02*
X143490363Y-66346009D01*
X143490363Y-66346009D02*
X143585601Y-66298390D01*
X143585601Y-66298390D02*
X143633220Y-66250771D01*
X143633220Y-66250771D02*
X143680839Y-66155533D01*
X143680839Y-66155533D02*
X143680839Y-66060295D01*
X143680839Y-66060295D02*
X143633220Y-65965057D01*
X143633220Y-65965057D02*
X143585601Y-65917438D01*
X143585601Y-65917438D02*
X143490363Y-65869819D01*
X143490363Y-65869819D02*
X143252268Y-65869819D01*
X143252268Y-65869819D02*
X143109411Y-65917438D01*
X142109411Y-66774580D02*
X142157030Y-66822200D01*
X142157030Y-66822200D02*
X142299887Y-66869819D01*
X142299887Y-66869819D02*
X142395125Y-66869819D01*
X142395125Y-66869819D02*
X142537982Y-66822200D01*
X142537982Y-66822200D02*
X142633220Y-66726961D01*
X142633220Y-66726961D02*
X142680839Y-66631723D01*
X142680839Y-66631723D02*
X142728458Y-66441247D01*
X142728458Y-66441247D02*
X142728458Y-66298390D01*
X142728458Y-66298390D02*
X142680839Y-66107914D01*
X142680839Y-66107914D02*
X142633220Y-66012676D01*
X142633220Y-66012676D02*
X142537982Y-65917438D01*
X142537982Y-65917438D02*
X142395125Y-65869819D01*
X142395125Y-65869819D02*
X142299887Y-65869819D01*
X142299887Y-65869819D02*
X142157030Y-65917438D01*
X142157030Y-65917438D02*
X142109411Y-65965057D01*
X141204649Y-66869819D02*
X141680839Y-66869819D01*
X141680839Y-66869819D02*
X141680839Y-65869819D01*
X108897800Y-48460839D02*
X108850180Y-48317982D01*
X108850180Y-48317982D02*
X108850180Y-48079887D01*
X108850180Y-48079887D02*
X108897800Y-47984649D01*
X108897800Y-47984649D02*
X108945419Y-47937030D01*
X108945419Y-47937030D02*
X109040657Y-47889411D01*
X109040657Y-47889411D02*
X109135895Y-47889411D01*
X109135895Y-47889411D02*
X109231133Y-47937030D01*
X109231133Y-47937030D02*
X109278752Y-47984649D01*
X109278752Y-47984649D02*
X109326371Y-48079887D01*
X109326371Y-48079887D02*
X109373990Y-48270363D01*
X109373990Y-48270363D02*
X109421609Y-48365601D01*
X109421609Y-48365601D02*
X109469228Y-48413220D01*
X109469228Y-48413220D02*
X109564466Y-48460839D01*
X109564466Y-48460839D02*
X109659704Y-48460839D01*
X109659704Y-48460839D02*
X109754942Y-48413220D01*
X109754942Y-48413220D02*
X109802561Y-48365601D01*
X109802561Y-48365601D02*
X109850180Y-48270363D01*
X109850180Y-48270363D02*
X109850180Y-48032268D01*
X109850180Y-48032268D02*
X109802561Y-47889411D01*
X108850180Y-47460839D02*
X109850180Y-47460839D01*
X109850180Y-47460839D02*
X109850180Y-47222744D01*
X109850180Y-47222744D02*
X109802561Y-47079887D01*
X109802561Y-47079887D02*
X109707323Y-46984649D01*
X109707323Y-46984649D02*
X109612085Y-46937030D01*
X109612085Y-46937030D02*
X109421609Y-46889411D01*
X109421609Y-46889411D02*
X109278752Y-46889411D01*
X109278752Y-46889411D02*
X109088276Y-46937030D01*
X109088276Y-46937030D02*
X108993038Y-46984649D01*
X108993038Y-46984649D02*
X108897800Y-47079887D01*
X108897800Y-47079887D02*
X108850180Y-47222744D01*
X108850180Y-47222744D02*
X108850180Y-47460839D01*
X109135895Y-46508458D02*
X109135895Y-46032268D01*
X108850180Y-46603696D02*
X109850180Y-46270363D01*
X109850180Y-46270363D02*
X108850180Y-45937030D01*
X104850180Y-47806077D02*
X103850180Y-47472744D01*
X103850180Y-47472744D02*
X104850180Y-47139411D01*
X104231133Y-46806077D02*
X104231133Y-46044173D01*
X130100180Y-52056077D02*
X129100180Y-51722744D01*
X129100180Y-51722744D02*
X130100180Y-51389411D01*
X129481133Y-51056077D02*
X129481133Y-50294173D01*
X146839819Y-64086779D02*
X145839819Y-64086779D01*
X145839819Y-64086779D02*
X145839819Y-64324874D01*
X145839819Y-64324874D02*
X145887438Y-64467731D01*
X145887438Y-64467731D02*
X145982676Y-64562969D01*
X145982676Y-64562969D02*
X146077914Y-64610588D01*
X146077914Y-64610588D02*
X146268390Y-64658207D01*
X146268390Y-64658207D02*
X146411247Y-64658207D01*
X146411247Y-64658207D02*
X146601723Y-64610588D01*
X146601723Y-64610588D02*
X146696961Y-64562969D01*
X146696961Y-64562969D02*
X146792200Y-64467731D01*
X146792200Y-64467731D02*
X146839819Y-64324874D01*
X146839819Y-64324874D02*
X146839819Y-64086779D01*
X146839819Y-65658207D02*
X146363628Y-65324874D01*
X146839819Y-65086779D02*
X145839819Y-65086779D01*
X145839819Y-65086779D02*
X145839819Y-65467731D01*
X145839819Y-65467731D02*
X145887438Y-65562969D01*
X145887438Y-65562969D02*
X145935057Y-65610588D01*
X145935057Y-65610588D02*
X146030295Y-65658207D01*
X146030295Y-65658207D02*
X146173152Y-65658207D01*
X146173152Y-65658207D02*
X146268390Y-65610588D01*
X146268390Y-65610588D02*
X146316009Y-65562969D01*
X146316009Y-65562969D02*
X146363628Y-65467731D01*
X146363628Y-65467731D02*
X146363628Y-65086779D01*
X145839819Y-65991541D02*
X146839819Y-66658207D01*
X145839819Y-66658207D02*
X146839819Y-65991541D01*
X143633220Y-64369819D02*
X143633220Y-63369819D01*
X143633220Y-63369819D02*
X143395125Y-63369819D01*
X143395125Y-63369819D02*
X143252268Y-63417438D01*
X143252268Y-63417438D02*
X143157030Y-63512676D01*
X143157030Y-63512676D02*
X143109411Y-63607914D01*
X143109411Y-63607914D02*
X143061792Y-63798390D01*
X143061792Y-63798390D02*
X143061792Y-63941247D01*
X143061792Y-63941247D02*
X143109411Y-64131723D01*
X143109411Y-64131723D02*
X143157030Y-64226961D01*
X143157030Y-64226961D02*
X143252268Y-64322200D01*
X143252268Y-64322200D02*
X143395125Y-64369819D01*
X143395125Y-64369819D02*
X143633220Y-64369819D01*
X142776077Y-63369819D02*
X142204649Y-63369819D01*
X142490363Y-64369819D02*
X142490363Y-63369819D01*
X141966553Y-63369819D02*
X141299887Y-64369819D01*
X141299887Y-63369819D02*
X141966553Y-64369819D01*
X113850180Y-91056077D02*
X113850180Y-90484649D01*
X112850180Y-90770363D02*
X113850180Y-90770363D01*
X113850180Y-90246553D02*
X112850180Y-89579887D01*
X113850180Y-89579887D02*
X112850180Y-90246553D01*
X145839819Y-56693922D02*
X146839819Y-57027255D01*
X146839819Y-57027255D02*
X145839819Y-57360588D01*
X146839819Y-57693922D02*
X146173152Y-57693922D01*
X145839819Y-57693922D02*
X145887438Y-57646303D01*
X145887438Y-57646303D02*
X145935057Y-57693922D01*
X145935057Y-57693922D02*
X145887438Y-57741541D01*
X145887438Y-57741541D02*
X145839819Y-57693922D01*
X145839819Y-57693922D02*
X145935057Y-57693922D01*
X146458866Y-58170112D02*
X146458866Y-58932017D01*
X115850180Y-91056077D02*
X114850180Y-90722744D01*
X114850180Y-90722744D02*
X115850180Y-90389411D01*
X115231133Y-90056077D02*
X115231133Y-89294173D01*
X114850180Y-89675125D02*
X115612085Y-89675125D01*
X139397800Y-52960839D02*
X139350180Y-52817982D01*
X139350180Y-52817982D02*
X139350180Y-52579887D01*
X139350180Y-52579887D02*
X139397800Y-52484649D01*
X139397800Y-52484649D02*
X139445419Y-52437030D01*
X139445419Y-52437030D02*
X139540657Y-52389411D01*
X139540657Y-52389411D02*
X139635895Y-52389411D01*
X139635895Y-52389411D02*
X139731133Y-52437030D01*
X139731133Y-52437030D02*
X139778752Y-52484649D01*
X139778752Y-52484649D02*
X139826371Y-52579887D01*
X139826371Y-52579887D02*
X139873990Y-52770363D01*
X139873990Y-52770363D02*
X139921609Y-52865601D01*
X139921609Y-52865601D02*
X139969228Y-52913220D01*
X139969228Y-52913220D02*
X140064466Y-52960839D01*
X140064466Y-52960839D02*
X140159704Y-52960839D01*
X140159704Y-52960839D02*
X140254942Y-52913220D01*
X140254942Y-52913220D02*
X140302561Y-52865601D01*
X140302561Y-52865601D02*
X140350180Y-52770363D01*
X140350180Y-52770363D02*
X140350180Y-52532268D01*
X140350180Y-52532268D02*
X140302561Y-52389411D01*
X139350180Y-51960839D02*
X140350180Y-51960839D01*
X140350180Y-51960839D02*
X140350180Y-51722744D01*
X140350180Y-51722744D02*
X140302561Y-51579887D01*
X140302561Y-51579887D02*
X140207323Y-51484649D01*
X140207323Y-51484649D02*
X140112085Y-51437030D01*
X140112085Y-51437030D02*
X139921609Y-51389411D01*
X139921609Y-51389411D02*
X139778752Y-51389411D01*
X139778752Y-51389411D02*
X139588276Y-51437030D01*
X139588276Y-51437030D02*
X139493038Y-51484649D01*
X139493038Y-51484649D02*
X139397800Y-51579887D01*
X139397800Y-51579887D02*
X139350180Y-51722744D01*
X139350180Y-51722744D02*
X139350180Y-51960839D01*
X139635895Y-51008458D02*
X139635895Y-50532268D01*
X139350180Y-51103696D02*
X140350180Y-50770363D01*
X140350180Y-50770363D02*
X139350180Y-50437030D01*
X109850180Y-52056077D02*
X108850180Y-51722744D01*
X108850180Y-51722744D02*
X109850180Y-51389411D01*
X109231133Y-51056077D02*
X109231133Y-50294173D01*
X108850180Y-50675125D02*
X109612085Y-50675125D01*
X120883220Y-89119819D02*
X120883220Y-88119819D01*
X120883220Y-88119819D02*
X120645125Y-88119819D01*
X120645125Y-88119819D02*
X120502268Y-88167438D01*
X120502268Y-88167438D02*
X120407030Y-88262676D01*
X120407030Y-88262676D02*
X120359411Y-88357914D01*
X120359411Y-88357914D02*
X120311792Y-88548390D01*
X120311792Y-88548390D02*
X120311792Y-88691247D01*
X120311792Y-88691247D02*
X120359411Y-88881723D01*
X120359411Y-88881723D02*
X120407030Y-88976961D01*
X120407030Y-88976961D02*
X120502268Y-89072200D01*
X120502268Y-89072200D02*
X120645125Y-89119819D01*
X120645125Y-89119819D02*
X120883220Y-89119819D01*
X119311792Y-89119819D02*
X119645125Y-88643628D01*
X119883220Y-89119819D02*
X119883220Y-88119819D01*
X119883220Y-88119819D02*
X119502268Y-88119819D01*
X119502268Y-88119819D02*
X119407030Y-88167438D01*
X119407030Y-88167438D02*
X119359411Y-88215057D01*
X119359411Y-88215057D02*
X119311792Y-88310295D01*
X119311792Y-88310295D02*
X119311792Y-88453152D01*
X119311792Y-88453152D02*
X119359411Y-88548390D01*
X119359411Y-88548390D02*
X119407030Y-88596009D01*
X119407030Y-88596009D02*
X119502268Y-88643628D01*
X119502268Y-88643628D02*
X119883220Y-88643628D01*
X119026077Y-88119819D02*
X118692744Y-89119819D01*
X118692744Y-89119819D02*
X118359411Y-88119819D01*
X141897800Y-52960839D02*
X141850180Y-52817982D01*
X141850180Y-52817982D02*
X141850180Y-52579887D01*
X141850180Y-52579887D02*
X141897800Y-52484649D01*
X141897800Y-52484649D02*
X141945419Y-52437030D01*
X141945419Y-52437030D02*
X142040657Y-52389411D01*
X142040657Y-52389411D02*
X142135895Y-52389411D01*
X142135895Y-52389411D02*
X142231133Y-52437030D01*
X142231133Y-52437030D02*
X142278752Y-52484649D01*
X142278752Y-52484649D02*
X142326371Y-52579887D01*
X142326371Y-52579887D02*
X142373990Y-52770363D01*
X142373990Y-52770363D02*
X142421609Y-52865601D01*
X142421609Y-52865601D02*
X142469228Y-52913220D01*
X142469228Y-52913220D02*
X142564466Y-52960839D01*
X142564466Y-52960839D02*
X142659704Y-52960839D01*
X142659704Y-52960839D02*
X142754942Y-52913220D01*
X142754942Y-52913220D02*
X142802561Y-52865601D01*
X142802561Y-52865601D02*
X142850180Y-52770363D01*
X142850180Y-52770363D02*
X142850180Y-52532268D01*
X142850180Y-52532268D02*
X142802561Y-52389411D01*
X141945419Y-51389411D02*
X141897800Y-51437030D01*
X141897800Y-51437030D02*
X141850180Y-51579887D01*
X141850180Y-51579887D02*
X141850180Y-51675125D01*
X141850180Y-51675125D02*
X141897800Y-51817982D01*
X141897800Y-51817982D02*
X141993038Y-51913220D01*
X141993038Y-51913220D02*
X142088276Y-51960839D01*
X142088276Y-51960839D02*
X142278752Y-52008458D01*
X142278752Y-52008458D02*
X142421609Y-52008458D01*
X142421609Y-52008458D02*
X142612085Y-51960839D01*
X142612085Y-51960839D02*
X142707323Y-51913220D01*
X142707323Y-51913220D02*
X142802561Y-51817982D01*
X142802561Y-51817982D02*
X142850180Y-51675125D01*
X142850180Y-51675125D02*
X142850180Y-51579887D01*
X142850180Y-51579887D02*
X142802561Y-51437030D01*
X142802561Y-51437030D02*
X142754942Y-51389411D01*
X141850180Y-50484649D02*
X141850180Y-50960839D01*
X141850180Y-50960839D02*
X142850180Y-50960839D01*
X135350180Y-53056077D02*
X134350180Y-52722744D01*
X134350180Y-52722744D02*
X135350180Y-52389411D01*
X134350180Y-52056077D02*
X135016847Y-52056077D01*
X135350180Y-52056077D02*
X135302561Y-52103696D01*
X135302561Y-52103696D02*
X135254942Y-52056077D01*
X135254942Y-52056077D02*
X135302561Y-52008458D01*
X135302561Y-52008458D02*
X135350180Y-52056077D01*
X135350180Y-52056077D02*
X135254942Y-52056077D01*
X135016847Y-51579887D02*
X134350180Y-51579887D01*
X134921609Y-51579887D02*
X134969228Y-51532268D01*
X134969228Y-51532268D02*
X135016847Y-51437030D01*
X135016847Y-51437030D02*
X135016847Y-51294173D01*
X135016847Y-51294173D02*
X134969228Y-51198935D01*
X134969228Y-51198935D02*
X134873990Y-51151316D01*
X134873990Y-51151316D02*
X134350180Y-51151316D01*
X134731133Y-50675125D02*
X134731133Y-49913221D01*
X134350180Y-50294173D02*
X135112085Y-50294173D01*
X145350180Y-47806077D02*
X144350180Y-47472744D01*
X144350180Y-47472744D02*
X145350180Y-47139411D01*
X144731133Y-46806077D02*
X144731133Y-46044173D01*
X144350180Y-46425125D02*
X145112085Y-46425125D01*
X117350180Y-47806077D02*
X116350180Y-47472744D01*
X116350180Y-47472744D02*
X117350180Y-47139411D01*
X116731133Y-46806077D02*
X116731133Y-46044173D01*
X145350180Y-52056077D02*
X144350180Y-51722744D01*
X144350180Y-51722744D02*
X145350180Y-51389411D01*
X144731133Y-51056077D02*
X144731133Y-50294173D01*
X143299887Y-53596009D02*
X143157030Y-53643628D01*
X143157030Y-53643628D02*
X143109411Y-53691247D01*
X143109411Y-53691247D02*
X143061792Y-53786485D01*
X143061792Y-53786485D02*
X143061792Y-53929342D01*
X143061792Y-53929342D02*
X143109411Y-54024580D01*
X143109411Y-54024580D02*
X143157030Y-54072200D01*
X143157030Y-54072200D02*
X143252268Y-54119819D01*
X143252268Y-54119819D02*
X143633220Y-54119819D01*
X143633220Y-54119819D02*
X143633220Y-53119819D01*
X143633220Y-53119819D02*
X143299887Y-53119819D01*
X143299887Y-53119819D02*
X143204649Y-53167438D01*
X143204649Y-53167438D02*
X143157030Y-53215057D01*
X143157030Y-53215057D02*
X143109411Y-53310295D01*
X143109411Y-53310295D02*
X143109411Y-53405533D01*
X143109411Y-53405533D02*
X143157030Y-53500771D01*
X143157030Y-53500771D02*
X143204649Y-53548390D01*
X143204649Y-53548390D02*
X143299887Y-53596009D01*
X143299887Y-53596009D02*
X143633220Y-53596009D01*
X142633220Y-54119819D02*
X142633220Y-53453152D01*
X142633220Y-53119819D02*
X142680839Y-53167438D01*
X142680839Y-53167438D02*
X142633220Y-53215057D01*
X142633220Y-53215057D02*
X142585601Y-53167438D01*
X142585601Y-53167438D02*
X142633220Y-53119819D01*
X142633220Y-53119819D02*
X142633220Y-53215057D01*
X147850180Y-52056077D02*
X146850180Y-51722744D01*
X146850180Y-51722744D02*
X147850180Y-51389411D01*
X147231133Y-51056077D02*
X147231133Y-50294173D01*
X146850180Y-50675125D02*
X147612085Y-50675125D01*
X105850180Y-91056077D02*
X104850180Y-90722744D01*
X104850180Y-90722744D02*
X105850180Y-90389411D01*
X105231133Y-90056077D02*
X105231133Y-89294173D01*
X111397800Y-48460839D02*
X111350180Y-48317982D01*
X111350180Y-48317982D02*
X111350180Y-48079887D01*
X111350180Y-48079887D02*
X111397800Y-47984649D01*
X111397800Y-47984649D02*
X111445419Y-47937030D01*
X111445419Y-47937030D02*
X111540657Y-47889411D01*
X111540657Y-47889411D02*
X111635895Y-47889411D01*
X111635895Y-47889411D02*
X111731133Y-47937030D01*
X111731133Y-47937030D02*
X111778752Y-47984649D01*
X111778752Y-47984649D02*
X111826371Y-48079887D01*
X111826371Y-48079887D02*
X111873990Y-48270363D01*
X111873990Y-48270363D02*
X111921609Y-48365601D01*
X111921609Y-48365601D02*
X111969228Y-48413220D01*
X111969228Y-48413220D02*
X112064466Y-48460839D01*
X112064466Y-48460839D02*
X112159704Y-48460839D01*
X112159704Y-48460839D02*
X112254942Y-48413220D01*
X112254942Y-48413220D02*
X112302561Y-48365601D01*
X112302561Y-48365601D02*
X112350180Y-48270363D01*
X112350180Y-48270363D02*
X112350180Y-48032268D01*
X112350180Y-48032268D02*
X112302561Y-47889411D01*
X111445419Y-46889411D02*
X111397800Y-46937030D01*
X111397800Y-46937030D02*
X111350180Y-47079887D01*
X111350180Y-47079887D02*
X111350180Y-47175125D01*
X111350180Y-47175125D02*
X111397800Y-47317982D01*
X111397800Y-47317982D02*
X111493038Y-47413220D01*
X111493038Y-47413220D02*
X111588276Y-47460839D01*
X111588276Y-47460839D02*
X111778752Y-47508458D01*
X111778752Y-47508458D02*
X111921609Y-47508458D01*
X111921609Y-47508458D02*
X112112085Y-47460839D01*
X112112085Y-47460839D02*
X112207323Y-47413220D01*
X112207323Y-47413220D02*
X112302561Y-47317982D01*
X112302561Y-47317982D02*
X112350180Y-47175125D01*
X112350180Y-47175125D02*
X112350180Y-47079887D01*
X112350180Y-47079887D02*
X112302561Y-46937030D01*
X112302561Y-46937030D02*
X112254942Y-46889411D01*
X111350180Y-45984649D02*
X111350180Y-46460839D01*
X111350180Y-46460839D02*
X112350180Y-46460839D01*
X124100180Y-48663220D02*
X125100180Y-48663220D01*
X125100180Y-48663220D02*
X125100180Y-48425125D01*
X125100180Y-48425125D02*
X125052561Y-48282268D01*
X125052561Y-48282268D02*
X124957323Y-48187030D01*
X124957323Y-48187030D02*
X124862085Y-48139411D01*
X124862085Y-48139411D02*
X124671609Y-48091792D01*
X124671609Y-48091792D02*
X124528752Y-48091792D01*
X124528752Y-48091792D02*
X124338276Y-48139411D01*
X124338276Y-48139411D02*
X124243038Y-48187030D01*
X124243038Y-48187030D02*
X124147800Y-48282268D01*
X124147800Y-48282268D02*
X124100180Y-48425125D01*
X124100180Y-48425125D02*
X124100180Y-48663220D01*
X125100180Y-47472744D02*
X125100180Y-47282268D01*
X125100180Y-47282268D02*
X125052561Y-47187030D01*
X125052561Y-47187030D02*
X124957323Y-47091792D01*
X124957323Y-47091792D02*
X124766847Y-47044173D01*
X124766847Y-47044173D02*
X124433514Y-47044173D01*
X124433514Y-47044173D02*
X124243038Y-47091792D01*
X124243038Y-47091792D02*
X124147800Y-47187030D01*
X124147800Y-47187030D02*
X124100180Y-47282268D01*
X124100180Y-47282268D02*
X124100180Y-47472744D01*
X124100180Y-47472744D02*
X124147800Y-47567982D01*
X124147800Y-47567982D02*
X124243038Y-47663220D01*
X124243038Y-47663220D02*
X124433514Y-47710839D01*
X124433514Y-47710839D02*
X124766847Y-47710839D01*
X124766847Y-47710839D02*
X124957323Y-47663220D01*
X124957323Y-47663220D02*
X125052561Y-47567982D01*
X125052561Y-47567982D02*
X125100180Y-47472744D01*
X124100180Y-46615601D02*
X125100180Y-46615601D01*
X125100180Y-46615601D02*
X124100180Y-46044173D01*
X124100180Y-46044173D02*
X125100180Y-46044173D01*
X124623990Y-45567982D02*
X124623990Y-45234649D01*
X124100180Y-45091792D02*
X124100180Y-45567982D01*
X124100180Y-45567982D02*
X125100180Y-45567982D01*
X125100180Y-45567982D02*
X125100180Y-45091792D01*
X144026077Y-55619819D02*
X143692744Y-56619819D01*
X143692744Y-56619819D02*
X143359411Y-55619819D01*
X143026077Y-56619819D02*
X143026077Y-55953152D01*
X143026077Y-55619819D02*
X143073696Y-55667438D01*
X143073696Y-55667438D02*
X143026077Y-55715057D01*
X143026077Y-55715057D02*
X142978458Y-55667438D01*
X142978458Y-55667438D02*
X143026077Y-55619819D01*
X143026077Y-55619819D02*
X143026077Y-55715057D01*
X142549887Y-56238866D02*
X141787983Y-56238866D01*
X142168935Y-56619819D02*
X142168935Y-55857914D01*
X147792200Y-67789160D02*
X147839819Y-67932017D01*
X147839819Y-67932017D02*
X147839819Y-68170112D01*
X147839819Y-68170112D02*
X147792200Y-68265350D01*
X147792200Y-68265350D02*
X147744580Y-68312969D01*
X147744580Y-68312969D02*
X147649342Y-68360588D01*
X147649342Y-68360588D02*
X147554104Y-68360588D01*
X147554104Y-68360588D02*
X147458866Y-68312969D01*
X147458866Y-68312969D02*
X147411247Y-68265350D01*
X147411247Y-68265350D02*
X147363628Y-68170112D01*
X147363628Y-68170112D02*
X147316009Y-67979636D01*
X147316009Y-67979636D02*
X147268390Y-67884398D01*
X147268390Y-67884398D02*
X147220771Y-67836779D01*
X147220771Y-67836779D02*
X147125533Y-67789160D01*
X147125533Y-67789160D02*
X147030295Y-67789160D01*
X147030295Y-67789160D02*
X146935057Y-67836779D01*
X146935057Y-67836779D02*
X146887438Y-67884398D01*
X146887438Y-67884398D02*
X146839819Y-67979636D01*
X146839819Y-67979636D02*
X146839819Y-68217731D01*
X146839819Y-68217731D02*
X146887438Y-68360588D01*
X147839819Y-68789160D02*
X146839819Y-68789160D01*
X146839819Y-68789160D02*
X146839819Y-69027255D01*
X146839819Y-69027255D02*
X146887438Y-69170112D01*
X146887438Y-69170112D02*
X146982676Y-69265350D01*
X146982676Y-69265350D02*
X147077914Y-69312969D01*
X147077914Y-69312969D02*
X147268390Y-69360588D01*
X147268390Y-69360588D02*
X147411247Y-69360588D01*
X147411247Y-69360588D02*
X147601723Y-69312969D01*
X147601723Y-69312969D02*
X147696961Y-69265350D01*
X147696961Y-69265350D02*
X147792200Y-69170112D01*
X147792200Y-69170112D02*
X147839819Y-69027255D01*
X147839819Y-69027255D02*
X147839819Y-68789160D01*
X147554104Y-69741541D02*
X147554104Y-70217731D01*
X147839819Y-69646303D02*
X146839819Y-69979636D01*
X146839819Y-69979636D02*
X147839819Y-70312969D01*
X130100180Y-47806077D02*
X129100180Y-47472744D01*
X129100180Y-47472744D02*
X130100180Y-47139411D01*
X129481133Y-46806077D02*
X129481133Y-46044173D01*
X129100180Y-46425125D02*
X129862085Y-46425125D01*
X146316009Y-54670112D02*
X146363628Y-54812969D01*
X146363628Y-54812969D02*
X146411247Y-54860588D01*
X146411247Y-54860588D02*
X146506485Y-54908207D01*
X146506485Y-54908207D02*
X146649342Y-54908207D01*
X146649342Y-54908207D02*
X146744580Y-54860588D01*
X146744580Y-54860588D02*
X146792200Y-54812969D01*
X146792200Y-54812969D02*
X146839819Y-54717731D01*
X146839819Y-54717731D02*
X146839819Y-54336779D01*
X146839819Y-54336779D02*
X145839819Y-54336779D01*
X145839819Y-54336779D02*
X145839819Y-54670112D01*
X145839819Y-54670112D02*
X145887438Y-54765350D01*
X145887438Y-54765350D02*
X145935057Y-54812969D01*
X145935057Y-54812969D02*
X146030295Y-54860588D01*
X146030295Y-54860588D02*
X146125533Y-54860588D01*
X146125533Y-54860588D02*
X146220771Y-54812969D01*
X146220771Y-54812969D02*
X146268390Y-54765350D01*
X146268390Y-54765350D02*
X146316009Y-54670112D01*
X146316009Y-54670112D02*
X146316009Y-54336779D01*
X146839819Y-55479636D02*
X146792200Y-55384398D01*
X146792200Y-55384398D02*
X146744580Y-55336779D01*
X146744580Y-55336779D02*
X146649342Y-55289160D01*
X146649342Y-55289160D02*
X146363628Y-55289160D01*
X146363628Y-55289160D02*
X146268390Y-55336779D01*
X146268390Y-55336779D02*
X146220771Y-55384398D01*
X146220771Y-55384398D02*
X146173152Y-55479636D01*
X146173152Y-55479636D02*
X146173152Y-55622493D01*
X146173152Y-55622493D02*
X146220771Y-55717731D01*
X146220771Y-55717731D02*
X146268390Y-55765350D01*
X146268390Y-55765350D02*
X146363628Y-55812969D01*
X146363628Y-55812969D02*
X146649342Y-55812969D01*
X146649342Y-55812969D02*
X146744580Y-55765350D01*
X146744580Y-55765350D02*
X146792200Y-55717731D01*
X146792200Y-55717731D02*
X146839819Y-55622493D01*
X146839819Y-55622493D02*
X146839819Y-55479636D01*
X109850180Y-91056077D02*
X108850180Y-90722744D01*
X108850180Y-90722744D02*
X109850180Y-90389411D01*
X109231133Y-90056077D02*
X109231133Y-89294173D01*
X124385895Y-52710839D02*
X124385895Y-52234649D01*
X124100180Y-52806077D02*
X125100180Y-52472744D01*
X125100180Y-52472744D02*
X124100180Y-52139411D01*
X124100180Y-51806077D02*
X125100180Y-51806077D01*
X125100180Y-51806077D02*
X125100180Y-51567982D01*
X125100180Y-51567982D02*
X125052561Y-51425125D01*
X125052561Y-51425125D02*
X124957323Y-51329887D01*
X124957323Y-51329887D02*
X124862085Y-51282268D01*
X124862085Y-51282268D02*
X124671609Y-51234649D01*
X124671609Y-51234649D02*
X124528752Y-51234649D01*
X124528752Y-51234649D02*
X124338276Y-51282268D01*
X124338276Y-51282268D02*
X124243038Y-51329887D01*
X124243038Y-51329887D02*
X124147800Y-51425125D01*
X124147800Y-51425125D02*
X124100180Y-51567982D01*
X124100180Y-51567982D02*
X124100180Y-51806077D01*
X124100180Y-50806077D02*
X125100180Y-50806077D01*
X125100180Y-50806077D02*
X125100180Y-50567982D01*
X125100180Y-50567982D02*
X125052561Y-50425125D01*
X125052561Y-50425125D02*
X124957323Y-50329887D01*
X124957323Y-50329887D02*
X124862085Y-50282268D01*
X124862085Y-50282268D02*
X124671609Y-50234649D01*
X124671609Y-50234649D02*
X124528752Y-50234649D01*
X124528752Y-50234649D02*
X124338276Y-50282268D01*
X124338276Y-50282268D02*
X124243038Y-50329887D01*
X124243038Y-50329887D02*
X124147800Y-50425125D01*
X124147800Y-50425125D02*
X124100180Y-50567982D01*
X124100180Y-50567982D02*
X124100180Y-50806077D01*
X124100180Y-49234649D02*
X124576371Y-49567982D01*
X124100180Y-49806077D02*
X125100180Y-49806077D01*
X125100180Y-49806077D02*
X125100180Y-49425125D01*
X125100180Y-49425125D02*
X125052561Y-49329887D01*
X125052561Y-49329887D02*
X125004942Y-49282268D01*
X125004942Y-49282268D02*
X124909704Y-49234649D01*
X124909704Y-49234649D02*
X124766847Y-49234649D01*
X124766847Y-49234649D02*
X124671609Y-49282268D01*
X124671609Y-49282268D02*
X124623990Y-49329887D01*
X124623990Y-49329887D02*
X124576371Y-49425125D01*
X124576371Y-49425125D02*
X124576371Y-49806077D01*
X146792200Y-59039160D02*
X146839819Y-59182017D01*
X146839819Y-59182017D02*
X146839819Y-59420112D01*
X146839819Y-59420112D02*
X146792200Y-59515350D01*
X146792200Y-59515350D02*
X146744580Y-59562969D01*
X146744580Y-59562969D02*
X146649342Y-59610588D01*
X146649342Y-59610588D02*
X146554104Y-59610588D01*
X146554104Y-59610588D02*
X146458866Y-59562969D01*
X146458866Y-59562969D02*
X146411247Y-59515350D01*
X146411247Y-59515350D02*
X146363628Y-59420112D01*
X146363628Y-59420112D02*
X146316009Y-59229636D01*
X146316009Y-59229636D02*
X146268390Y-59134398D01*
X146268390Y-59134398D02*
X146220771Y-59086779D01*
X146220771Y-59086779D02*
X146125533Y-59039160D01*
X146125533Y-59039160D02*
X146030295Y-59039160D01*
X146030295Y-59039160D02*
X145935057Y-59086779D01*
X145935057Y-59086779D02*
X145887438Y-59134398D01*
X145887438Y-59134398D02*
X145839819Y-59229636D01*
X145839819Y-59229636D02*
X145839819Y-59467731D01*
X145839819Y-59467731D02*
X145887438Y-59610588D01*
X145839819Y-59896303D02*
X146839819Y-60229636D01*
X146839819Y-60229636D02*
X145839819Y-60562969D01*
X146839819Y-61039160D02*
X146792200Y-60943922D01*
X146792200Y-60943922D02*
X146744580Y-60896303D01*
X146744580Y-60896303D02*
X146649342Y-60848684D01*
X146649342Y-60848684D02*
X146363628Y-60848684D01*
X146363628Y-60848684D02*
X146268390Y-60896303D01*
X146268390Y-60896303D02*
X146220771Y-60943922D01*
X146220771Y-60943922D02*
X146173152Y-61039160D01*
X146173152Y-61039160D02*
X146173152Y-61182017D01*
X146173152Y-61182017D02*
X146220771Y-61277255D01*
X146220771Y-61277255D02*
X146268390Y-61324874D01*
X146268390Y-61324874D02*
X146363628Y-61372493D01*
X146363628Y-61372493D02*
X146649342Y-61372493D01*
X146649342Y-61372493D02*
X146744580Y-61324874D01*
X146744580Y-61324874D02*
X146792200Y-61277255D01*
X146792200Y-61277255D02*
X146839819Y-61182017D01*
X146839819Y-61182017D02*
X146839819Y-61039160D01*
X126600180Y-52663220D02*
X127600180Y-52663220D01*
X127600180Y-52663220D02*
X127600180Y-52425125D01*
X127600180Y-52425125D02*
X127552561Y-52282268D01*
X127552561Y-52282268D02*
X127457323Y-52187030D01*
X127457323Y-52187030D02*
X127362085Y-52139411D01*
X127362085Y-52139411D02*
X127171609Y-52091792D01*
X127171609Y-52091792D02*
X127028752Y-52091792D01*
X127028752Y-52091792D02*
X126838276Y-52139411D01*
X126838276Y-52139411D02*
X126743038Y-52187030D01*
X126743038Y-52187030D02*
X126647800Y-52282268D01*
X126647800Y-52282268D02*
X126600180Y-52425125D01*
X126600180Y-52425125D02*
X126600180Y-52663220D01*
X126600180Y-51139411D02*
X126600180Y-51710839D01*
X126600180Y-51425125D02*
X127600180Y-51425125D01*
X127600180Y-51425125D02*
X127457323Y-51520363D01*
X127457323Y-51520363D02*
X127362085Y-51615601D01*
X127362085Y-51615601D02*
X127314466Y-51710839D01*
X127600180Y-50234649D02*
X127600180Y-50710839D01*
X127600180Y-50710839D02*
X127123990Y-50758458D01*
X127123990Y-50758458D02*
X127171609Y-50710839D01*
X127171609Y-50710839D02*
X127219228Y-50615601D01*
X127219228Y-50615601D02*
X127219228Y-50377506D01*
X127219228Y-50377506D02*
X127171609Y-50282268D01*
X127171609Y-50282268D02*
X127123990Y-50234649D01*
X127123990Y-50234649D02*
X127028752Y-50187030D01*
X127028752Y-50187030D02*
X126790657Y-50187030D01*
X126790657Y-50187030D02*
X126695419Y-50234649D01*
X126695419Y-50234649D02*
X126647800Y-50282268D01*
X126647800Y-50282268D02*
X126600180Y-50377506D01*
X126600180Y-50377506D02*
X126600180Y-50615601D01*
X126600180Y-50615601D02*
X126647800Y-50710839D01*
X126647800Y-50710839D02*
X126695419Y-50758458D01*
X119147800Y-52710839D02*
X119100180Y-52567982D01*
X119100180Y-52567982D02*
X119100180Y-52329887D01*
X119100180Y-52329887D02*
X119147800Y-52234649D01*
X119147800Y-52234649D02*
X119195419Y-52187030D01*
X119195419Y-52187030D02*
X119290657Y-52139411D01*
X119290657Y-52139411D02*
X119385895Y-52139411D01*
X119385895Y-52139411D02*
X119481133Y-52187030D01*
X119481133Y-52187030D02*
X119528752Y-52234649D01*
X119528752Y-52234649D02*
X119576371Y-52329887D01*
X119576371Y-52329887D02*
X119623990Y-52520363D01*
X119623990Y-52520363D02*
X119671609Y-52615601D01*
X119671609Y-52615601D02*
X119719228Y-52663220D01*
X119719228Y-52663220D02*
X119814466Y-52710839D01*
X119814466Y-52710839D02*
X119909704Y-52710839D01*
X119909704Y-52710839D02*
X120004942Y-52663220D01*
X120004942Y-52663220D02*
X120052561Y-52615601D01*
X120052561Y-52615601D02*
X120100180Y-52520363D01*
X120100180Y-52520363D02*
X120100180Y-52282268D01*
X120100180Y-52282268D02*
X120052561Y-52139411D01*
X119100180Y-51710839D02*
X120100180Y-51710839D01*
X120100180Y-51710839D02*
X120100180Y-51472744D01*
X120100180Y-51472744D02*
X120052561Y-51329887D01*
X120052561Y-51329887D02*
X119957323Y-51234649D01*
X119957323Y-51234649D02*
X119862085Y-51187030D01*
X119862085Y-51187030D02*
X119671609Y-51139411D01*
X119671609Y-51139411D02*
X119528752Y-51139411D01*
X119528752Y-51139411D02*
X119338276Y-51187030D01*
X119338276Y-51187030D02*
X119243038Y-51234649D01*
X119243038Y-51234649D02*
X119147800Y-51329887D01*
X119147800Y-51329887D02*
X119100180Y-51472744D01*
X119100180Y-51472744D02*
X119100180Y-51710839D01*
X119385895Y-50758458D02*
X119385895Y-50282268D01*
X119100180Y-50853696D02*
X120100180Y-50520363D01*
X120100180Y-50520363D02*
X119100180Y-50187030D01*
X133354819Y-89761905D02*
X132354819Y-89761905D01*
X132354819Y-89761905D02*
X132354819Y-90000000D01*
X132354819Y-90000000D02*
X132402438Y-90142857D01*
X132402438Y-90142857D02*
X132497676Y-90238095D01*
X132497676Y-90238095D02*
X132592914Y-90285714D01*
X132592914Y-90285714D02*
X132783390Y-90333333D01*
X132783390Y-90333333D02*
X132926247Y-90333333D01*
X132926247Y-90333333D02*
X133116723Y-90285714D01*
X133116723Y-90285714D02*
X133211961Y-90238095D01*
X133211961Y-90238095D02*
X133307200Y-90142857D01*
X133307200Y-90142857D02*
X133354819Y-90000000D01*
X133354819Y-90000000D02*
X133354819Y-89761905D01*
X132354819Y-91238095D02*
X132354819Y-90761905D01*
X132354819Y-90761905D02*
X132831009Y-90714286D01*
X132831009Y-90714286D02*
X132783390Y-90761905D01*
X132783390Y-90761905D02*
X132735771Y-90857143D01*
X132735771Y-90857143D02*
X132735771Y-91095238D01*
X132735771Y-91095238D02*
X132783390Y-91190476D01*
X132783390Y-91190476D02*
X132831009Y-91238095D01*
X132831009Y-91238095D02*
X132926247Y-91285714D01*
X132926247Y-91285714D02*
X133164342Y-91285714D01*
X133164342Y-91285714D02*
X133259580Y-91238095D01*
X133259580Y-91238095D02*
X133307200Y-91190476D01*
X133307200Y-91190476D02*
X133354819Y-91095238D01*
X133354819Y-91095238D02*
X133354819Y-90857143D01*
X133354819Y-90857143D02*
X133307200Y-90761905D01*
X133307200Y-90761905D02*
X133259580Y-90714286D01*
X135324819Y-89857142D02*
X134848628Y-89523809D01*
X135324819Y-89285714D02*
X134324819Y-89285714D01*
X134324819Y-89285714D02*
X134324819Y-89666666D01*
X134324819Y-89666666D02*
X134372438Y-89761904D01*
X134372438Y-89761904D02*
X134420057Y-89809523D01*
X134420057Y-89809523D02*
X134515295Y-89857142D01*
X134515295Y-89857142D02*
X134658152Y-89857142D01*
X134658152Y-89857142D02*
X134753390Y-89809523D01*
X134753390Y-89809523D02*
X134801009Y-89761904D01*
X134801009Y-89761904D02*
X134848628Y-89666666D01*
X134848628Y-89666666D02*
X134848628Y-89285714D01*
X135324819Y-90809523D02*
X135324819Y-90238095D01*
X135324819Y-90523809D02*
X134324819Y-90523809D01*
X134324819Y-90523809D02*
X134467676Y-90428571D01*
X134467676Y-90428571D02*
X134562914Y-90333333D01*
X134562914Y-90333333D02*
X134610533Y-90238095D01*
X134324819Y-91428571D02*
X134324819Y-91523809D01*
X134324819Y-91523809D02*
X134372438Y-91619047D01*
X134372438Y-91619047D02*
X134420057Y-91666666D01*
X134420057Y-91666666D02*
X134515295Y-91714285D01*
X134515295Y-91714285D02*
X134705771Y-91761904D01*
X134705771Y-91761904D02*
X134943866Y-91761904D01*
X134943866Y-91761904D02*
X135134342Y-91714285D01*
X135134342Y-91714285D02*
X135229580Y-91666666D01*
X135229580Y-91666666D02*
X135277200Y-91619047D01*
X135277200Y-91619047D02*
X135324819Y-91523809D01*
X135324819Y-91523809D02*
X135324819Y-91428571D01*
X135324819Y-91428571D02*
X135277200Y-91333333D01*
X135277200Y-91333333D02*
X135229580Y-91285714D01*
X135229580Y-91285714D02*
X135134342Y-91238095D01*
X135134342Y-91238095D02*
X134943866Y-91190476D01*
X134943866Y-91190476D02*
X134705771Y-91190476D01*
X134705771Y-91190476D02*
X134515295Y-91238095D01*
X134515295Y-91238095D02*
X134420057Y-91285714D01*
X134420057Y-91285714D02*
X134372438Y-91333333D01*
X134372438Y-91333333D02*
X134324819Y-91428571D01*
X134950357Y-73354819D02*
X135283690Y-72878628D01*
X135521785Y-73354819D02*
X135521785Y-72354819D01*
X135521785Y-72354819D02*
X135140833Y-72354819D01*
X135140833Y-72354819D02*
X135045595Y-72402438D01*
X135045595Y-72402438D02*
X134997976Y-72450057D01*
X134997976Y-72450057D02*
X134950357Y-72545295D01*
X134950357Y-72545295D02*
X134950357Y-72688152D01*
X134950357Y-72688152D02*
X134997976Y-72783390D01*
X134997976Y-72783390D02*
X135045595Y-72831009D01*
X135045595Y-72831009D02*
X135140833Y-72878628D01*
X135140833Y-72878628D02*
X135521785Y-72878628D01*
X134569404Y-72450057D02*
X134521785Y-72402438D01*
X134521785Y-72402438D02*
X134426547Y-72354819D01*
X134426547Y-72354819D02*
X134188452Y-72354819D01*
X134188452Y-72354819D02*
X134093214Y-72402438D01*
X134093214Y-72402438D02*
X134045595Y-72450057D01*
X134045595Y-72450057D02*
X133997976Y-72545295D01*
X133997976Y-72545295D02*
X133997976Y-72640533D01*
X133997976Y-72640533D02*
X134045595Y-72783390D01*
X134045595Y-72783390D02*
X134617023Y-73354819D01*
X134617023Y-73354819D02*
X133997976Y-73354819D01*
X133426547Y-72783390D02*
X133521785Y-72735771D01*
X133521785Y-72735771D02*
X133569404Y-72688152D01*
X133569404Y-72688152D02*
X133617023Y-72592914D01*
X133617023Y-72592914D02*
X133617023Y-72545295D01*
X133617023Y-72545295D02*
X133569404Y-72450057D01*
X133569404Y-72450057D02*
X133521785Y-72402438D01*
X133521785Y-72402438D02*
X133426547Y-72354819D01*
X133426547Y-72354819D02*
X133236071Y-72354819D01*
X133236071Y-72354819D02*
X133140833Y-72402438D01*
X133140833Y-72402438D02*
X133093214Y-72450057D01*
X133093214Y-72450057D02*
X133045595Y-72545295D01*
X133045595Y-72545295D02*
X133045595Y-72592914D01*
X133045595Y-72592914D02*
X133093214Y-72688152D01*
X133093214Y-72688152D02*
X133140833Y-72735771D01*
X133140833Y-72735771D02*
X133236071Y-72783390D01*
X133236071Y-72783390D02*
X133426547Y-72783390D01*
X133426547Y-72783390D02*
X133521785Y-72831009D01*
X133521785Y-72831009D02*
X133569404Y-72878628D01*
X133569404Y-72878628D02*
X133617023Y-72973866D01*
X133617023Y-72973866D02*
X133617023Y-73164342D01*
X133617023Y-73164342D02*
X133569404Y-73259580D01*
X133569404Y-73259580D02*
X133521785Y-73307200D01*
X133521785Y-73307200D02*
X133426547Y-73354819D01*
X133426547Y-73354819D02*
X133236071Y-73354819D01*
X133236071Y-73354819D02*
X133140833Y-73307200D01*
X133140833Y-73307200D02*
X133093214Y-73259580D01*
X133093214Y-73259580D02*
X133045595Y-73164342D01*
X133045595Y-73164342D02*
X133045595Y-72973866D01*
X133045595Y-72973866D02*
X133093214Y-72878628D01*
X133093214Y-72878628D02*
X133140833Y-72831009D01*
X133140833Y-72831009D02*
X133236071Y-72783390D01*
X128338094Y-79134819D02*
X128338094Y-78134819D01*
X128338094Y-78134819D02*
X128099999Y-78134819D01*
X128099999Y-78134819D02*
X127957142Y-78182438D01*
X127957142Y-78182438D02*
X127861904Y-78277676D01*
X127861904Y-78277676D02*
X127814285Y-78372914D01*
X127814285Y-78372914D02*
X127766666Y-78563390D01*
X127766666Y-78563390D02*
X127766666Y-78706247D01*
X127766666Y-78706247D02*
X127814285Y-78896723D01*
X127814285Y-78896723D02*
X127861904Y-78991961D01*
X127861904Y-78991961D02*
X127957142Y-79087200D01*
X127957142Y-79087200D02*
X128099999Y-79134819D01*
X128099999Y-79134819D02*
X128338094Y-79134819D01*
X126814285Y-79134819D02*
X127385713Y-79134819D01*
X127099999Y-79134819D02*
X127099999Y-78134819D01*
X127099999Y-78134819D02*
X127195237Y-78277676D01*
X127195237Y-78277676D02*
X127290475Y-78372914D01*
X127290475Y-78372914D02*
X127385713Y-78420533D01*
X138956904Y-66604819D02*
X138956904Y-67414342D01*
X138956904Y-67414342D02*
X138909285Y-67509580D01*
X138909285Y-67509580D02*
X138861666Y-67557200D01*
X138861666Y-67557200D02*
X138766428Y-67604819D01*
X138766428Y-67604819D02*
X138575952Y-67604819D01*
X138575952Y-67604819D02*
X138480714Y-67557200D01*
X138480714Y-67557200D02*
X138433095Y-67509580D01*
X138433095Y-67509580D02*
X138385476Y-67414342D01*
X138385476Y-67414342D02*
X138385476Y-66604819D01*
X137480714Y-66604819D02*
X137671190Y-66604819D01*
X137671190Y-66604819D02*
X137766428Y-66652438D01*
X137766428Y-66652438D02*
X137814047Y-66700057D01*
X137814047Y-66700057D02*
X137909285Y-66842914D01*
X137909285Y-66842914D02*
X137956904Y-67033390D01*
X137956904Y-67033390D02*
X137956904Y-67414342D01*
X137956904Y-67414342D02*
X137909285Y-67509580D01*
X137909285Y-67509580D02*
X137861666Y-67557200D01*
X137861666Y-67557200D02*
X137766428Y-67604819D01*
X137766428Y-67604819D02*
X137575952Y-67604819D01*
X137575952Y-67604819D02*
X137480714Y-67557200D01*
X137480714Y-67557200D02*
X137433095Y-67509580D01*
X137433095Y-67509580D02*
X137385476Y-67414342D01*
X137385476Y-67414342D02*
X137385476Y-67176247D01*
X137385476Y-67176247D02*
X137433095Y-67081009D01*
X137433095Y-67081009D02*
X137480714Y-67033390D01*
X137480714Y-67033390D02*
X137575952Y-66985771D01*
X137575952Y-66985771D02*
X137766428Y-66985771D01*
X137766428Y-66985771D02*
X137861666Y-67033390D01*
X137861666Y-67033390D02*
X137909285Y-67081009D01*
X137909285Y-67081009D02*
X137956904Y-67176247D01*
X143805319Y-53282142D02*
X143329128Y-52948809D01*
X143805319Y-52710714D02*
X142805319Y-52710714D01*
X142805319Y-52710714D02*
X142805319Y-53091666D01*
X142805319Y-53091666D02*
X142852938Y-53186904D01*
X142852938Y-53186904D02*
X142900557Y-53234523D01*
X142900557Y-53234523D02*
X142995795Y-53282142D01*
X142995795Y-53282142D02*
X143138652Y-53282142D01*
X143138652Y-53282142D02*
X143233890Y-53234523D01*
X143233890Y-53234523D02*
X143281509Y-53186904D01*
X143281509Y-53186904D02*
X143329128Y-53091666D01*
X143329128Y-53091666D02*
X143329128Y-52710714D01*
X143805319Y-54234523D02*
X143805319Y-53663095D01*
X143805319Y-53948809D02*
X142805319Y-53948809D01*
X142805319Y-53948809D02*
X142948176Y-53853571D01*
X142948176Y-53853571D02*
X143043414Y-53758333D01*
X143043414Y-53758333D02*
X143091033Y-53663095D01*
X143233890Y-54805952D02*
X143186271Y-54710714D01*
X143186271Y-54710714D02*
X143138652Y-54663095D01*
X143138652Y-54663095D02*
X143043414Y-54615476D01*
X143043414Y-54615476D02*
X142995795Y-54615476D01*
X142995795Y-54615476D02*
X142900557Y-54663095D01*
X142900557Y-54663095D02*
X142852938Y-54710714D01*
X142852938Y-54710714D02*
X142805319Y-54805952D01*
X142805319Y-54805952D02*
X142805319Y-54996428D01*
X142805319Y-54996428D02*
X142852938Y-55091666D01*
X142852938Y-55091666D02*
X142900557Y-55139285D01*
X142900557Y-55139285D02*
X142995795Y-55186904D01*
X142995795Y-55186904D02*
X143043414Y-55186904D01*
X143043414Y-55186904D02*
X143138652Y-55139285D01*
X143138652Y-55139285D02*
X143186271Y-55091666D01*
X143186271Y-55091666D02*
X143233890Y-54996428D01*
X143233890Y-54996428D02*
X143233890Y-54805952D01*
X143233890Y-54805952D02*
X143281509Y-54710714D01*
X143281509Y-54710714D02*
X143329128Y-54663095D01*
X143329128Y-54663095D02*
X143424366Y-54615476D01*
X143424366Y-54615476D02*
X143614842Y-54615476D01*
X143614842Y-54615476D02*
X143710080Y-54663095D01*
X143710080Y-54663095D02*
X143757700Y-54710714D01*
X143757700Y-54710714D02*
X143805319Y-54805952D01*
X143805319Y-54805952D02*
X143805319Y-54996428D01*
X143805319Y-54996428D02*
X143757700Y-55091666D01*
X143757700Y-55091666D02*
X143710080Y-55139285D01*
X143710080Y-55139285D02*
X143614842Y-55186904D01*
X143614842Y-55186904D02*
X143424366Y-55186904D01*
X143424366Y-55186904D02*
X143329128Y-55139285D01*
X143329128Y-55139285D02*
X143281509Y-55091666D01*
X143281509Y-55091666D02*
X143233890Y-54996428D01*
X141805319Y-53282142D02*
X141329128Y-52948809D01*
X141805319Y-52710714D02*
X140805319Y-52710714D01*
X140805319Y-52710714D02*
X140805319Y-53091666D01*
X140805319Y-53091666D02*
X140852938Y-53186904D01*
X140852938Y-53186904D02*
X140900557Y-53234523D01*
X140900557Y-53234523D02*
X140995795Y-53282142D01*
X140995795Y-53282142D02*
X141138652Y-53282142D01*
X141138652Y-53282142D02*
X141233890Y-53234523D01*
X141233890Y-53234523D02*
X141281509Y-53186904D01*
X141281509Y-53186904D02*
X141329128Y-53091666D01*
X141329128Y-53091666D02*
X141329128Y-52710714D01*
X141805319Y-54234523D02*
X141805319Y-53663095D01*
X141805319Y-53948809D02*
X140805319Y-53948809D01*
X140805319Y-53948809D02*
X140948176Y-53853571D01*
X140948176Y-53853571D02*
X141043414Y-53758333D01*
X141043414Y-53758333D02*
X141091033Y-53663095D01*
X141805319Y-54710714D02*
X141805319Y-54901190D01*
X141805319Y-54901190D02*
X141757700Y-54996428D01*
X141757700Y-54996428D02*
X141710080Y-55044047D01*
X141710080Y-55044047D02*
X141567223Y-55139285D01*
X141567223Y-55139285D02*
X141376747Y-55186904D01*
X141376747Y-55186904D02*
X140995795Y-55186904D01*
X140995795Y-55186904D02*
X140900557Y-55139285D01*
X140900557Y-55139285D02*
X140852938Y-55091666D01*
X140852938Y-55091666D02*
X140805319Y-54996428D01*
X140805319Y-54996428D02*
X140805319Y-54805952D01*
X140805319Y-54805952D02*
X140852938Y-54710714D01*
X140852938Y-54710714D02*
X140900557Y-54663095D01*
X140900557Y-54663095D02*
X140995795Y-54615476D01*
X140995795Y-54615476D02*
X141233890Y-54615476D01*
X141233890Y-54615476D02*
X141329128Y-54663095D01*
X141329128Y-54663095D02*
X141376747Y-54710714D01*
X141376747Y-54710714D02*
X141424366Y-54805952D01*
X141424366Y-54805952D02*
X141424366Y-54996428D01*
X141424366Y-54996428D02*
X141376747Y-55091666D01*
X141376747Y-55091666D02*
X141329128Y-55139285D01*
X141329128Y-55139285D02*
X141233890Y-55186904D01*
X132704819Y-78083333D02*
X132228628Y-77750000D01*
X132704819Y-77511905D02*
X131704819Y-77511905D01*
X131704819Y-77511905D02*
X131704819Y-77892857D01*
X131704819Y-77892857D02*
X131752438Y-77988095D01*
X131752438Y-77988095D02*
X131800057Y-78035714D01*
X131800057Y-78035714D02*
X131895295Y-78083333D01*
X131895295Y-78083333D02*
X132038152Y-78083333D01*
X132038152Y-78083333D02*
X132133390Y-78035714D01*
X132133390Y-78035714D02*
X132181009Y-77988095D01*
X132181009Y-77988095D02*
X132228628Y-77892857D01*
X132228628Y-77892857D02*
X132228628Y-77511905D01*
X132133390Y-78654762D02*
X132085771Y-78559524D01*
X132085771Y-78559524D02*
X132038152Y-78511905D01*
X132038152Y-78511905D02*
X131942914Y-78464286D01*
X131942914Y-78464286D02*
X131895295Y-78464286D01*
X131895295Y-78464286D02*
X131800057Y-78511905D01*
X131800057Y-78511905D02*
X131752438Y-78559524D01*
X131752438Y-78559524D02*
X131704819Y-78654762D01*
X131704819Y-78654762D02*
X131704819Y-78845238D01*
X131704819Y-78845238D02*
X131752438Y-78940476D01*
X131752438Y-78940476D02*
X131800057Y-78988095D01*
X131800057Y-78988095D02*
X131895295Y-79035714D01*
X131895295Y-79035714D02*
X131942914Y-79035714D01*
X131942914Y-79035714D02*
X132038152Y-78988095D01*
X132038152Y-78988095D02*
X132085771Y-78940476D01*
X132085771Y-78940476D02*
X132133390Y-78845238D01*
X132133390Y-78845238D02*
X132133390Y-78654762D01*
X132133390Y-78654762D02*
X132181009Y-78559524D01*
X132181009Y-78559524D02*
X132228628Y-78511905D01*
X132228628Y-78511905D02*
X132323866Y-78464286D01*
X132323866Y-78464286D02*
X132514342Y-78464286D01*
X132514342Y-78464286D02*
X132609580Y-78511905D01*
X132609580Y-78511905D02*
X132657200Y-78559524D01*
X132657200Y-78559524D02*
X132704819Y-78654762D01*
X132704819Y-78654762D02*
X132704819Y-78845238D01*
X132704819Y-78845238D02*
X132657200Y-78940476D01*
X132657200Y-78940476D02*
X132609580Y-78988095D01*
X132609580Y-78988095D02*
X132514342Y-79035714D01*
X132514342Y-79035714D02*
X132323866Y-79035714D01*
X132323866Y-79035714D02*
X132228628Y-78988095D01*
X132228628Y-78988095D02*
X132181009Y-78940476D01*
X132181009Y-78940476D02*
X132133390Y-78845238D01*
D11*
X150272580Y-93111904D02*
X149463057Y-93111904D01*
X149463057Y-93111904D02*
X149367819Y-93064285D01*
X149367819Y-93064285D02*
X149320200Y-93016666D01*
X149320200Y-93016666D02*
X149272580Y-92921428D01*
X149272580Y-92921428D02*
X149272580Y-92730952D01*
X149272580Y-92730952D02*
X149320200Y-92635714D01*
X149320200Y-92635714D02*
X149367819Y-92588095D01*
X149367819Y-92588095D02*
X149463057Y-92540476D01*
X149463057Y-92540476D02*
X150272580Y-92540476D01*
X150177342Y-92111904D02*
X150224961Y-92064285D01*
X150224961Y-92064285D02*
X150272580Y-91969047D01*
X150272580Y-91969047D02*
X150272580Y-91730952D01*
X150272580Y-91730952D02*
X150224961Y-91635714D01*
X150224961Y-91635714D02*
X150177342Y-91588095D01*
X150177342Y-91588095D02*
X150082104Y-91540476D01*
X150082104Y-91540476D02*
X149986866Y-91540476D01*
X149986866Y-91540476D02*
X149844009Y-91588095D01*
X149844009Y-91588095D02*
X149272580Y-92159523D01*
X149272580Y-92159523D02*
X149272580Y-91540476D01*
D10*
X137749128Y-55273809D02*
X138225319Y-55273809D01*
X137225319Y-54940476D02*
X137749128Y-55273809D01*
X137749128Y-55273809D02*
X137225319Y-55607142D01*
X138225319Y-56464285D02*
X138225319Y-55892857D01*
X138225319Y-56178571D02*
X137225319Y-56178571D01*
X137225319Y-56178571D02*
X137368176Y-56083333D01*
X137368176Y-56083333D02*
X137463414Y-55988095D01*
X137463414Y-55988095D02*
X137511033Y-55892857D01*
X131208094Y-75884819D02*
X131208094Y-74884819D01*
X131208094Y-74884819D02*
X130969999Y-74884819D01*
X130969999Y-74884819D02*
X130827142Y-74932438D01*
X130827142Y-74932438D02*
X130731904Y-75027676D01*
X130731904Y-75027676D02*
X130684285Y-75122914D01*
X130684285Y-75122914D02*
X130636666Y-75313390D01*
X130636666Y-75313390D02*
X130636666Y-75456247D01*
X130636666Y-75456247D02*
X130684285Y-75646723D01*
X130684285Y-75646723D02*
X130731904Y-75741961D01*
X130731904Y-75741961D02*
X130827142Y-75837200D01*
X130827142Y-75837200D02*
X130969999Y-75884819D01*
X130969999Y-75884819D02*
X131208094Y-75884819D01*
X130303332Y-74884819D02*
X129684285Y-74884819D01*
X129684285Y-74884819D02*
X130017618Y-75265771D01*
X130017618Y-75265771D02*
X129874761Y-75265771D01*
X129874761Y-75265771D02*
X129779523Y-75313390D01*
X129779523Y-75313390D02*
X129731904Y-75361009D01*
X129731904Y-75361009D02*
X129684285Y-75456247D01*
X129684285Y-75456247D02*
X129684285Y-75694342D01*
X129684285Y-75694342D02*
X129731904Y-75789580D01*
X129731904Y-75789580D02*
X129779523Y-75837200D01*
X129779523Y-75837200D02*
X129874761Y-75884819D01*
X129874761Y-75884819D02*
X130160475Y-75884819D01*
X130160475Y-75884819D02*
X130255713Y-75837200D01*
X130255713Y-75837200D02*
X130303332Y-75789580D01*
D11*
X132457419Y-72261905D02*
X133266942Y-72261905D01*
X133266942Y-72261905D02*
X133362180Y-72309524D01*
X133362180Y-72309524D02*
X133409800Y-72357143D01*
X133409800Y-72357143D02*
X133457419Y-72452381D01*
X133457419Y-72452381D02*
X133457419Y-72642857D01*
X133457419Y-72642857D02*
X133409800Y-72738095D01*
X133409800Y-72738095D02*
X133362180Y-72785714D01*
X133362180Y-72785714D02*
X133266942Y-72833333D01*
X133266942Y-72833333D02*
X132457419Y-72833333D01*
X133457419Y-73833333D02*
X133457419Y-73261905D01*
X133457419Y-73547619D02*
X132457419Y-73547619D01*
X132457419Y-73547619D02*
X132600276Y-73452381D01*
X132600276Y-73452381D02*
X132695514Y-73357143D01*
X132695514Y-73357143D02*
X132743133Y-73261905D01*
X133457419Y-74785714D02*
X133457419Y-74214286D01*
X133457419Y-74500000D02*
X132457419Y-74500000D01*
X132457419Y-74500000D02*
X132600276Y-74404762D01*
X132600276Y-74404762D02*
X132695514Y-74309524D01*
X132695514Y-74309524D02*
X132743133Y-74214286D01*
D10*
X144604819Y-69583333D02*
X144128628Y-69250000D01*
X144604819Y-69011905D02*
X143604819Y-69011905D01*
X143604819Y-69011905D02*
X143604819Y-69392857D01*
X143604819Y-69392857D02*
X143652438Y-69488095D01*
X143652438Y-69488095D02*
X143700057Y-69535714D01*
X143700057Y-69535714D02*
X143795295Y-69583333D01*
X143795295Y-69583333D02*
X143938152Y-69583333D01*
X143938152Y-69583333D02*
X144033390Y-69535714D01*
X144033390Y-69535714D02*
X144081009Y-69488095D01*
X144081009Y-69488095D02*
X144128628Y-69392857D01*
X144128628Y-69392857D02*
X144128628Y-69011905D01*
X144604819Y-70535714D02*
X144604819Y-69964286D01*
X144604819Y-70250000D02*
X143604819Y-70250000D01*
X143604819Y-70250000D02*
X143747676Y-70154762D01*
X143747676Y-70154762D02*
X143842914Y-70059524D01*
X143842914Y-70059524D02*
X143890533Y-69964286D01*
X127258594Y-51219819D02*
X127258594Y-52029342D01*
X127258594Y-52029342D02*
X127210975Y-52124580D01*
X127210975Y-52124580D02*
X127163356Y-52172200D01*
X127163356Y-52172200D02*
X127068118Y-52219819D01*
X127068118Y-52219819D02*
X126877642Y-52219819D01*
X126877642Y-52219819D02*
X126782404Y-52172200D01*
X126782404Y-52172200D02*
X126734785Y-52124580D01*
X126734785Y-52124580D02*
X126687166Y-52029342D01*
X126687166Y-52029342D02*
X126687166Y-51219819D01*
X125687166Y-52219819D02*
X126258594Y-52219819D01*
X125972880Y-52219819D02*
X125972880Y-51219819D01*
X125972880Y-51219819D02*
X126068118Y-51362676D01*
X126068118Y-51362676D02*
X126163356Y-51457914D01*
X126163356Y-51457914D02*
X126258594Y-51505533D01*
X124830023Y-51553152D02*
X124830023Y-52219819D01*
X125068118Y-51172200D02*
X125306213Y-51886485D01*
X125306213Y-51886485D02*
X124687166Y-51886485D01*
X143805319Y-56932142D02*
X143329128Y-56598809D01*
X143805319Y-56360714D02*
X142805319Y-56360714D01*
X142805319Y-56360714D02*
X142805319Y-56741666D01*
X142805319Y-56741666D02*
X142852938Y-56836904D01*
X142852938Y-56836904D02*
X142900557Y-56884523D01*
X142900557Y-56884523D02*
X142995795Y-56932142D01*
X142995795Y-56932142D02*
X143138652Y-56932142D01*
X143138652Y-56932142D02*
X143233890Y-56884523D01*
X143233890Y-56884523D02*
X143281509Y-56836904D01*
X143281509Y-56836904D02*
X143329128Y-56741666D01*
X143329128Y-56741666D02*
X143329128Y-56360714D01*
X142900557Y-57313095D02*
X142852938Y-57360714D01*
X142852938Y-57360714D02*
X142805319Y-57455952D01*
X142805319Y-57455952D02*
X142805319Y-57694047D01*
X142805319Y-57694047D02*
X142852938Y-57789285D01*
X142852938Y-57789285D02*
X142900557Y-57836904D01*
X142900557Y-57836904D02*
X142995795Y-57884523D01*
X142995795Y-57884523D02*
X143091033Y-57884523D01*
X143091033Y-57884523D02*
X143233890Y-57836904D01*
X143233890Y-57836904D02*
X143805319Y-57265476D01*
X143805319Y-57265476D02*
X143805319Y-57884523D01*
X142900557Y-58265476D02*
X142852938Y-58313095D01*
X142852938Y-58313095D02*
X142805319Y-58408333D01*
X142805319Y-58408333D02*
X142805319Y-58646428D01*
X142805319Y-58646428D02*
X142852938Y-58741666D01*
X142852938Y-58741666D02*
X142900557Y-58789285D01*
X142900557Y-58789285D02*
X142995795Y-58836904D01*
X142995795Y-58836904D02*
X143091033Y-58836904D01*
X143091033Y-58836904D02*
X143233890Y-58789285D01*
X143233890Y-58789285D02*
X143805319Y-58217857D01*
X143805319Y-58217857D02*
X143805319Y-58836904D01*
X140708094Y-72384819D02*
X140708094Y-71384819D01*
X140708094Y-71384819D02*
X140469999Y-71384819D01*
X140469999Y-71384819D02*
X140327142Y-71432438D01*
X140327142Y-71432438D02*
X140231904Y-71527676D01*
X140231904Y-71527676D02*
X140184285Y-71622914D01*
X140184285Y-71622914D02*
X140136666Y-71813390D01*
X140136666Y-71813390D02*
X140136666Y-71956247D01*
X140136666Y-71956247D02*
X140184285Y-72146723D01*
X140184285Y-72146723D02*
X140231904Y-72241961D01*
X140231904Y-72241961D02*
X140327142Y-72337200D01*
X140327142Y-72337200D02*
X140469999Y-72384819D01*
X140469999Y-72384819D02*
X140708094Y-72384819D01*
X139279523Y-71718152D02*
X139279523Y-72384819D01*
X139517618Y-71337200D02*
X139755713Y-72051485D01*
X139755713Y-72051485D02*
X139136666Y-72051485D01*
X141805319Y-56932142D02*
X141329128Y-56598809D01*
X141805319Y-56360714D02*
X140805319Y-56360714D01*
X140805319Y-56360714D02*
X140805319Y-56741666D01*
X140805319Y-56741666D02*
X140852938Y-56836904D01*
X140852938Y-56836904D02*
X140900557Y-56884523D01*
X140900557Y-56884523D02*
X140995795Y-56932142D01*
X140995795Y-56932142D02*
X141138652Y-56932142D01*
X141138652Y-56932142D02*
X141233890Y-56884523D01*
X141233890Y-56884523D02*
X141281509Y-56836904D01*
X141281509Y-56836904D02*
X141329128Y-56741666D01*
X141329128Y-56741666D02*
X141329128Y-56360714D01*
X140900557Y-57313095D02*
X140852938Y-57360714D01*
X140852938Y-57360714D02*
X140805319Y-57455952D01*
X140805319Y-57455952D02*
X140805319Y-57694047D01*
X140805319Y-57694047D02*
X140852938Y-57789285D01*
X140852938Y-57789285D02*
X140900557Y-57836904D01*
X140900557Y-57836904D02*
X140995795Y-57884523D01*
X140995795Y-57884523D02*
X141091033Y-57884523D01*
X141091033Y-57884523D02*
X141233890Y-57836904D01*
X141233890Y-57836904D02*
X141805319Y-57265476D01*
X141805319Y-57265476D02*
X141805319Y-57884523D01*
X140805319Y-58217857D02*
X140805319Y-58836904D01*
X140805319Y-58836904D02*
X141186271Y-58503571D01*
X141186271Y-58503571D02*
X141186271Y-58646428D01*
X141186271Y-58646428D02*
X141233890Y-58741666D01*
X141233890Y-58741666D02*
X141281509Y-58789285D01*
X141281509Y-58789285D02*
X141376747Y-58836904D01*
X141376747Y-58836904D02*
X141614842Y-58836904D01*
X141614842Y-58836904D02*
X141710080Y-58789285D01*
X141710080Y-58789285D02*
X141757700Y-58741666D01*
X141757700Y-58741666D02*
X141805319Y-58646428D01*
X141805319Y-58646428D02*
X141805319Y-58360714D01*
X141805319Y-58360714D02*
X141757700Y-58265476D01*
X141757700Y-58265476D02*
X141710080Y-58217857D01*
D11*
X126455080Y-88033333D02*
X125740795Y-88033333D01*
X125740795Y-88033333D02*
X125597938Y-88080952D01*
X125597938Y-88080952D02*
X125502700Y-88176190D01*
X125502700Y-88176190D02*
X125455080Y-88319047D01*
X125455080Y-88319047D02*
X125455080Y-88414285D01*
X126359842Y-87604761D02*
X126407461Y-87557142D01*
X126407461Y-87557142D02*
X126455080Y-87461904D01*
X126455080Y-87461904D02*
X126455080Y-87223809D01*
X126455080Y-87223809D02*
X126407461Y-87128571D01*
X126407461Y-87128571D02*
X126359842Y-87080952D01*
X126359842Y-87080952D02*
X126264604Y-87033333D01*
X126264604Y-87033333D02*
X126169366Y-87033333D01*
X126169366Y-87033333D02*
X126026509Y-87080952D01*
X126026509Y-87080952D02*
X125455080Y-87652380D01*
X125455080Y-87652380D02*
X125455080Y-87033333D01*
D12*
X130735000Y-91985000D02*
X130735000Y-89700000D01*
X132205000Y-91985000D02*
X130735000Y-91985000D01*
X132205000Y-89700000D02*
X132205000Y-91985000D01*
X132485000Y-90727064D02*
X132485000Y-90272936D01*
X133955000Y-90727064D02*
X133955000Y-90272936D01*
X134080436Y-70515000D02*
X134534564Y-70515000D01*
X134080436Y-71985000D02*
X134534564Y-71985000D01*
X126115000Y-76515000D02*
X128400000Y-76515000D01*
X126115000Y-77985000D02*
X126115000Y-76515000D01*
X128400000Y-77985000D02*
X126115000Y-77985000D01*
X138195000Y-61190000D02*
X136245000Y-61190000D01*
X138195000Y-61190000D02*
X140145000Y-61190000D01*
X138195000Y-66310000D02*
X134745000Y-66310000D01*
X138195000Y-66310000D02*
X140145000Y-66310000D01*
X141398000Y-54162258D02*
X141398000Y-53687742D01*
X142443000Y-54162258D02*
X142443000Y-53687742D01*
D13*
X117121000Y-55234000D02*
X117121000Y-71236000D01*
X116359000Y-55234000D02*
X117121000Y-55234000D01*
X117121000Y-71236000D02*
X116359000Y-71236000D01*
D12*
X139398000Y-54162258D02*
X139398000Y-53687742D01*
X140443000Y-54162258D02*
X140443000Y-53687742D01*
X129865000Y-78477064D02*
X129865000Y-78022936D01*
X131335000Y-78477064D02*
X131335000Y-78022936D01*
X134895500Y-56425000D02*
X134895500Y-55075000D01*
X136645500Y-56425000D02*
X136645500Y-55075000D01*
X128985000Y-73265000D02*
X131270000Y-73265000D01*
X128985000Y-74735000D02*
X128985000Y-73265000D01*
X131270000Y-74735000D02*
X128985000Y-74735000D01*
D11*
X153100000Y-73500000D02*
X133500000Y-73500000D01*
X153100000Y-73500000D02*
X153100000Y-88450000D01*
X133500000Y-73500000D02*
X133500000Y-88450000D01*
X153100000Y-88450000D02*
X133500000Y-88460000D01*
D12*
X142197500Y-69987258D02*
X142197500Y-69512742D01*
X143242500Y-69987258D02*
X143242500Y-69512742D01*
X129880500Y-63125000D02*
X129880500Y-62870000D01*
X129880500Y-52860000D02*
X131695500Y-52860000D01*
X129880500Y-52605000D02*
X129880500Y-52860000D01*
X126020500Y-63125000D02*
X129880500Y-63125000D01*
X126020500Y-63125000D02*
X122160500Y-63125000D01*
X126020500Y-52605000D02*
X129880500Y-52605000D01*
X126020500Y-52605000D02*
X122160500Y-52605000D01*
X122160500Y-63125000D02*
X122160500Y-62870000D01*
X122160500Y-52605000D02*
X122160500Y-52860000D01*
X141398000Y-57812258D02*
X141398000Y-57337742D01*
X142443000Y-57812258D02*
X142443000Y-57337742D01*
X138485000Y-69765000D02*
X140770000Y-69765000D01*
X138485000Y-71235000D02*
X138485000Y-69765000D01*
X140770000Y-71235000D02*
X138485000Y-71235000D01*
X139398000Y-57812258D02*
X139398000Y-57337742D01*
X140443000Y-57812258D02*
X140443000Y-57337742D01*
D14*
X128462500Y-82080000D02*
X128462500Y-81100000D01*
X128462500Y-81100000D02*
X123732500Y-81100000D01*
D15*
X120012500Y-81900000D02*
G75*
G03*
X120012500Y-81900000I-100000J0D01*
G01*
%LPC*%
D16*
X133470000Y-55150000D03*
X133470000Y-56850000D03*
D17*
X132970000Y-65250000D03*
D18*
X131700000Y-65250000D03*
X130430000Y-65250000D03*
X129160000Y-65250000D03*
D19*
X147710000Y-46050000D03*
D20*
X145170000Y-46050000D03*
X142630000Y-46050000D03*
X140090000Y-46050000D03*
X137550000Y-46050000D03*
X135010000Y-46050000D03*
X132470000Y-46050000D03*
X129930000Y-46050000D03*
X127390000Y-46050000D03*
X124850000Y-46050000D03*
X122310000Y-46050000D03*
X119770000Y-46050000D03*
X117230000Y-46050000D03*
X114690000Y-46050000D03*
X112150000Y-46050000D03*
X109610000Y-46050000D03*
X107070000Y-46050000D03*
X104530000Y-46050000D03*
X101990000Y-46050000D03*
D19*
X144880500Y-53630000D03*
D20*
X147420500Y-53630000D03*
X144880500Y-56170000D03*
X147420500Y-56170000D03*
X144880500Y-58710000D03*
X147420500Y-58710000D03*
X144880500Y-61250000D03*
X147420500Y-61250000D03*
X144880500Y-63790000D03*
X147420500Y-63790000D03*
X144880500Y-66330000D03*
X147420500Y-66330000D03*
D17*
X117950000Y-86500000D03*
D18*
X117950000Y-87770000D03*
X117950000Y-89040000D03*
X117950000Y-90310000D03*
D21*
X122000000Y-91500000D03*
D22*
X102000000Y-91500000D03*
D23*
X115450000Y-88750000D03*
D24*
X113450000Y-88750000D03*
X111450000Y-88750000D03*
X109450000Y-88750000D03*
X107450000Y-88750000D03*
X105450000Y-88750000D03*
D19*
X147700000Y-49800000D03*
D20*
X145160000Y-49800000D03*
X142620000Y-49800000D03*
X140080000Y-49800000D03*
X137540000Y-49800000D03*
X135000000Y-49800000D03*
X132460000Y-49800000D03*
X129920000Y-49800000D03*
X127380000Y-49800000D03*
X124840000Y-49800000D03*
X122300000Y-49800000D03*
X119760000Y-49800000D03*
X117220000Y-49800000D03*
X114680000Y-49800000D03*
X112140000Y-49800000D03*
X109600000Y-49800000D03*
X107060000Y-49800000D03*
X104520000Y-49800000D03*
X101980000Y-49800000D03*
D25*
X131470000Y-91287500D03*
X131470000Y-89712500D03*
D26*
X133220000Y-91412500D03*
X133220000Y-89587500D03*
D27*
X133395000Y-71250000D03*
X135220000Y-71250000D03*
D28*
X126812500Y-77250000D03*
X128387500Y-77250000D03*
D29*
X135720000Y-65655000D03*
X135720000Y-64385000D03*
X135720000Y-63115000D03*
X135720000Y-61845000D03*
X140670000Y-61845000D03*
X140670000Y-63115000D03*
X140670000Y-64385000D03*
X140670000Y-65655000D03*
D30*
X141920500Y-54750000D03*
X141920500Y-53100000D03*
D31*
X101500000Y-55550000D03*
X103500000Y-55550000D03*
X105500000Y-55550000D03*
X107500000Y-55550000D03*
X109500000Y-55550000D03*
X111500000Y-55550000D03*
X113500000Y-55550000D03*
X115500000Y-55550000D03*
X115500000Y-70950000D03*
X113500000Y-70950000D03*
X111500000Y-70950000D03*
X109500000Y-70950000D03*
X107500000Y-70950000D03*
X105500000Y-70950000D03*
X103500000Y-70950000D03*
X101500000Y-70950000D03*
D32*
X117200000Y-58240000D03*
X117200000Y-60240000D03*
X117200000Y-62240000D03*
X117200000Y-64240000D03*
X117200000Y-66240000D03*
X117200000Y-68240000D03*
D30*
X139920500Y-54750000D03*
X139920500Y-53100000D03*
D26*
X130600000Y-79162500D03*
X130600000Y-77337500D03*
D33*
X148300000Y-91100000D03*
X147030000Y-91100000D03*
X145760000Y-91100000D03*
X144490000Y-91100000D03*
X143220000Y-91100000D03*
X141950000Y-91100000D03*
X140680000Y-91100000D03*
X139410000Y-91100000D03*
X138140000Y-91100000D03*
X136870000Y-91100000D03*
X135600000Y-91100000D03*
X135600000Y-77000000D03*
X136870000Y-77000000D03*
X138140000Y-77000000D03*
X139410000Y-77000000D03*
X140680000Y-77000000D03*
X141950000Y-77000000D03*
X143220000Y-77000000D03*
X144490000Y-77000000D03*
X145760000Y-77000000D03*
X147030000Y-77000000D03*
X148300000Y-77000000D03*
D34*
X135770500Y-54500000D03*
X135770500Y-57000000D03*
D28*
X129682500Y-74000000D03*
X131257500Y-74000000D03*
D35*
X145500000Y-88450000D03*
X144000000Y-88450000D03*
X142500000Y-88450000D03*
X141000000Y-88450000D03*
X139500000Y-88450000D03*
X138000000Y-88450000D03*
X136500000Y-88450000D03*
X135000000Y-88500000D03*
D36*
X133500000Y-86200000D03*
X133500000Y-84700000D03*
X133500000Y-83200000D03*
X133500000Y-81700000D03*
X133500000Y-80200000D03*
X133500000Y-78700000D03*
X133500000Y-77200000D03*
X133450000Y-75700000D03*
D35*
X135000000Y-73500000D03*
X136500000Y-73500000D03*
X138000000Y-73500000D03*
X139500000Y-73500000D03*
X141000000Y-73500000D03*
X142500000Y-73500000D03*
X144000000Y-73500000D03*
X145500000Y-73500000D03*
D30*
X142720000Y-70575000D03*
X142720000Y-68925000D03*
D37*
X130670500Y-53420000D03*
X130670500Y-54690000D03*
X130670500Y-55960000D03*
X130670500Y-57230000D03*
X130670500Y-58500000D03*
X130670500Y-59770000D03*
X130670500Y-61040000D03*
X130670500Y-62310000D03*
X121370500Y-62310000D03*
X121370500Y-61040000D03*
X121370500Y-59770000D03*
X121370500Y-58500000D03*
X121370500Y-57230000D03*
X121370500Y-55960000D03*
X121370500Y-54690000D03*
X121370500Y-53420000D03*
D30*
X141920500Y-58400000D03*
X141920500Y-56750000D03*
D28*
X139182500Y-70500000D03*
X140757500Y-70500000D03*
D30*
X139920500Y-58400000D03*
X139920500Y-56750000D03*
D16*
X125412500Y-91600000D03*
X125412500Y-84600000D03*
D38*
X122162500Y-81900000D03*
X128662500Y-83000000D03*
X128662500Y-87000000D03*
X128662500Y-90000000D03*
%LPD*%
M02*
