M48
; DRILL file {KiCad 7.0.7} date Thu Jan  4 14:31:25 2024
; FORMAT={-:-/ absolute / metric / decimal}
; #@! TF.CreationDate,2024-01-04T14:31:25-05:00
; #@! TF.GenerationSoftware,Kicad,Pcbnew,7.0.7
; #@! TF.FileFunction,Plated,1,2,PTH
FMAT,2
METRIC
; #@! TA.AperFunction,Plated,PTH,ViaDrill
T1C0.400
; #@! TA.AperFunction,Plated,PTH,ComponentDrill
T2C0.500
; #@! TA.AperFunction,Plated,PTH,ComponentDrill
T3C0.650
; #@! TA.AperFunction,Plated,PTH,ComponentDrill
T4C0.800
; #@! TA.AperFunction,Plated,PTH,ComponentDrill
T5C1.000
; #@! TA.AperFunction,Plated,PTH,ComponentDrill
T6C1.300
%
G90
G05
T1
X101.399Y-51.65
X102.805Y-68.844
X104.899Y-73.25
X105.149Y-62.0
X105.2Y-74.25
X107.27Y-85.0
X107.4Y-77.3
X108.834Y-48.045
X110.45Y-52.5
X110.646Y-76.5
X110.95Y-59.0
X110.95Y-74.5
X111.649Y-52.75
X112.079Y-47.6
X112.625Y-65.075
X113.1Y-51.3
X113.149Y-59.25
X113.2Y-70.25
X113.22Y-76.75
X113.899Y-67.25
X114.399Y-53.75
X114.45Y-87.0
X115.579Y-48.399
X115.829Y-47.1
X115.963Y-82.044
X115.97Y-76.75
X116.789Y-79.8
X118.47Y-51.25
X119.22Y-77.25
X119.3Y-61.9
X119.47Y-76.25
X119.919Y-56.0
X119.97Y-68.148
X120.321Y-74.4
X120.459Y-79.25
X121.058Y-68.049
X121.22Y-76.0
X121.47Y-84.25
X122.09Y-66.768
X122.22Y-80.5
X122.72Y-85.5
X123.22Y-56.75
X123.571Y-75.5
X123.97Y-68.898
X124.2Y-88.75
X124.807Y-77.045
X124.97Y-80.0
X125.22Y-61.25
X125.77Y-62.648
X125.8Y-88.65
X125.97Y-66.75
X125.97Y-82.0
X126.22Y-69.0
X128.47Y-81.75
X128.72Y-56.5
X128.97Y-71.5
X129.2Y-91.5
X129.47Y-70.0
X130.47Y-68.75
X133.72Y-53.5
X133.8Y-48.5
X134.47Y-90.626
X135.311Y-79.013
X135.47Y-58.75
X135.72Y-64.385
X135.72Y-65.655
X136.72Y-53.25
X137.6Y-85.7
X137.72Y-71.0
X139.22Y-59.75
X139.926Y-53.095
X142.52Y-60.5
X142.72Y-62.0
X143.47Y-80.5
X143.72Y-68.25
X143.72Y-85.0
X144.1Y-51.7
X145.3Y-79.025
X145.6Y-71.7
X145.72Y-81.5
X147.8Y-89.3
X147.84Y-68.13
X147.97Y-75.455
T2
X133.47Y-55.15
X133.47Y-56.85
T3
X117.95Y-86.5
X117.95Y-87.77
X117.95Y-89.04
X117.95Y-90.31
X129.16Y-65.25
X130.43Y-65.25
X131.7Y-65.25
X132.97Y-65.25
T4
X105.45Y-88.75
X107.45Y-88.75
X109.45Y-88.75
X111.45Y-88.75
X113.45Y-88.75
X115.45Y-88.75
T5
X101.98Y-49.8
X101.99Y-46.05
X104.52Y-49.8
X104.53Y-46.05
X107.06Y-49.8
X107.07Y-46.05
X109.6Y-49.8
X109.61Y-46.05
X112.14Y-49.8
X112.15Y-46.05
X114.68Y-49.8
X114.69Y-46.05
X117.22Y-49.8
X117.23Y-46.05
X119.76Y-49.8
X119.77Y-46.05
X122.3Y-49.8
X122.31Y-46.05
X124.84Y-49.8
X124.85Y-46.05
X127.38Y-49.8
X127.39Y-46.05
X129.92Y-49.8
X129.93Y-46.05
X132.46Y-49.8
X132.47Y-46.05
X135.0Y-49.8
X135.01Y-46.05
X137.54Y-49.8
X137.55Y-46.05
X140.08Y-49.8
X140.09Y-46.05
X142.62Y-49.8
X142.63Y-46.05
X144.88Y-53.63
X144.88Y-56.17
X144.88Y-58.71
X144.88Y-61.25
X144.88Y-63.79
X144.88Y-66.33
X145.16Y-49.8
X145.17Y-46.05
X147.421Y-53.63
X147.421Y-56.17
X147.421Y-58.71
X147.421Y-61.25
X147.421Y-63.79
X147.421Y-66.33
X147.7Y-49.8
X147.71Y-46.05
T6
X102.0Y-91.5
X122.0Y-91.5
T0
M30
