G04 #@! TF.GenerationSoftware,KiCad,Pcbnew,7.0.7*
G04 #@! TF.CreationDate,2024-04-02T12:53:20-04:00*
G04 #@! TF.ProjectId,sensor_node,73656e73-6f72-45f6-9e6f-64652e6b6963,rev?*
G04 #@! TF.SameCoordinates,Original*
G04 #@! TF.FileFunction,Soldermask,Bot*
G04 #@! TF.FilePolarity,Negative*
%FSLAX46Y46*%
G04 Gerber Fmt 4.6, Leading zero omitted, Abs format (unit mm)*
G04 Created by KiCad (PCBNEW 7.0.7) date 2024-04-02 12:53:20*
%MOMM*%
%LPD*%
G01*
G04 APERTURE LIST*
G04 Aperture macros list*
%AMRoundRect*
0 Rectangle with rounded corners*
0 $1 Rounding radius*
0 $2 $3 $4 $5 $6 $7 $8 $9 X,Y pos of 4 corners*
0 Add a 4 corners polygon primitive as box body*
4,1,4,$2,$3,$4,$5,$6,$7,$8,$9,$2,$3,0*
0 Add four circle primitives for the rounded corners*
1,1,$1+$1,$2,$3*
1,1,$1+$1,$4,$5*
1,1,$1+$1,$6,$7*
1,1,$1+$1,$8,$9*
0 Add four rect primitives between the rounded corners*
20,1,$1+$1,$2,$3,$4,$5,0*
20,1,$1+$1,$4,$5,$6,$7,0*
20,1,$1+$1,$6,$7,$8,$9,0*
20,1,$1+$1,$8,$9,$2,$3,0*%
G04 Aperture macros list end*
%ADD10R,1.700000X1.700000*%
%ADD11O,1.700000X1.700000*%
%ADD12RoundRect,0.200000X-0.200000X-0.275000X0.200000X-0.275000X0.200000X0.275000X-0.200000X0.275000X0*%
%ADD13RoundRect,0.250000X-0.362500X-1.425000X0.362500X-1.425000X0.362500X1.425000X-0.362500X1.425000X0*%
%ADD14R,0.650000X1.050000*%
%ADD15RoundRect,0.250000X-0.500000X0.250000X-0.500000X-0.250000X0.500000X-0.250000X0.500000X0.250000X0*%
%ADD16RoundRect,0.102000X-0.495000X-0.150000X0.495000X-0.150000X0.495000X0.150000X-0.495000X0.150000X0*%
%ADD17RoundRect,0.200000X0.200000X0.275000X-0.200000X0.275000X-0.200000X-0.275000X0.200000X-0.275000X0*%
%ADD18RoundRect,0.250000X0.500000X-0.250000X0.500000X0.250000X-0.500000X0.250000X-0.500000X-0.250000X0*%
%ADD19RoundRect,0.250000X-0.250000X-0.500000X0.250000X-0.500000X0.250000X0.500000X-0.250000X0.500000X0*%
%ADD20RoundRect,0.225000X-0.225000X-0.250000X0.225000X-0.250000X0.225000X0.250000X-0.225000X0.250000X0*%
%ADD21RoundRect,0.225000X0.225000X0.250000X-0.225000X0.250000X-0.225000X-0.250000X0.225000X-0.250000X0*%
G04 APERTURE END LIST*
D10*
X112729369Y-69081998D03*
D11*
X110189369Y-69081998D03*
X107649369Y-69081998D03*
X105109369Y-69081998D03*
X102569369Y-69081998D03*
X100029369Y-69081998D03*
X97489369Y-69081998D03*
X94949369Y-69081998D03*
X92409369Y-69081998D03*
D12*
X110271147Y-75488777D03*
X111921147Y-75488777D03*
D13*
X99476869Y-87331998D03*
X105401869Y-87331998D03*
D14*
X96839370Y-83831998D03*
X96839370Y-79681998D03*
X94689370Y-83831998D03*
X94689370Y-79681998D03*
D15*
X107000000Y-74181999D03*
X107000000Y-75581999D03*
D16*
X101884369Y-81710499D03*
X101884369Y-81060499D03*
X101884369Y-80410499D03*
X103494369Y-80410499D03*
X103494369Y-81060499D03*
X103494369Y-81710499D03*
D17*
X95107593Y-73581999D03*
X93457593Y-73581999D03*
D14*
X108189369Y-79682000D03*
X108189369Y-83832000D03*
X110339369Y-79682000D03*
X110339369Y-83832000D03*
D18*
X99439369Y-75531998D03*
X99439369Y-74131998D03*
D19*
X102000000Y-87500000D03*
X103400000Y-87500000D03*
D20*
X93522594Y-75581999D03*
X95072594Y-75581999D03*
D21*
X111871147Y-73488775D03*
X110321147Y-73488775D03*
D18*
X103500000Y-75500000D03*
X103500000Y-74100000D03*
M02*
