M48
; DRILL file {KiCad 7.0.7} date Mon Apr  1 23:39:46 2024
; FORMAT={-:-/ absolute / metric / decimal}
; #@! TF.CreationDate,2024-04-01T23:39:46-04:00
; #@! TF.GenerationSoftware,Kicad,Pcbnew,7.0.7
; #@! TF.FileFunction,Plated,1,2,PTH
FMAT,2
METRIC
; #@! TA.AperFunction,Plated,PTH,ViaDrill
T1C0.300
; #@! TA.AperFunction,Plated,PTH,ComponentDrill
T2C1.000
%
G90
G05
T1
X91.689Y-81.582
X91.739Y-86.082
X91.764Y-76.7
X91.8Y-74.7
X91.814Y-80.082
X92.204Y-72.832
X92.8Y-87.4
X93.439Y-80.082
X93.439Y-81.832
X94.614Y-80.832
X94.764Y-77.582
X95.189Y-82.082
X96.2Y-90.1
X96.689Y-77.082
X98.041Y-85.418
X99.189Y-82.124
X100.189Y-89.332
X101.689Y-78.082
X101.689Y-83.232
X102.439Y-76.832
X102.689Y-79.082
X102.789Y-84.932
X104.3Y-90.2
X105.2Y-79.406
X105.439Y-84.832
X107.264Y-84.332
X108.189Y-81.332
X109.439Y-86.832
X109.764Y-77.22
X110.189Y-71.622
X113.189Y-84.582
X113.439Y-78.082
X113.439Y-88.082
T2
X92.409Y-69.082
X94.949Y-69.082
X97.489Y-69.082
X100.029Y-69.082
X102.569Y-69.082
X105.109Y-69.082
X107.649Y-69.082
X110.189Y-69.082
X112.729Y-69.082
T0
M30
