G04 #@! TF.GenerationSoftware,KiCad,Pcbnew,7.0.7*
G04 #@! TF.CreationDate,2024-04-01T23:39:43-04:00*
G04 #@! TF.ProjectId,sensor_node,73656e73-6f72-45f6-9e6f-64652e6b6963,rev?*
G04 #@! TF.SameCoordinates,Original*
G04 #@! TF.FileFunction,Legend,Top*
G04 #@! TF.FilePolarity,Positive*
%FSLAX46Y46*%
G04 Gerber Fmt 4.6, Leading zero omitted, Abs format (unit mm)*
G04 Created by KiCad (PCBNEW 7.0.7) date 2024-04-01 23:39:43*
%MOMM*%
%LPD*%
G01*
G04 APERTURE LIST*
G04 Aperture macros list*
%AMRoundRect*
0 Rectangle with rounded corners*
0 $1 Rounding radius*
0 $2 $3 $4 $5 $6 $7 $8 $9 X,Y pos of 4 corners*
0 Add a 4 corners polygon primitive as box body*
4,1,4,$2,$3,$4,$5,$6,$7,$8,$9,$2,$3,0*
0 Add four circle primitives for the rounded corners*
1,1,$1+$1,$2,$3*
1,1,$1+$1,$4,$5*
1,1,$1+$1,$6,$7*
1,1,$1+$1,$8,$9*
0 Add four rect primitives between the rounded corners*
20,1,$1+$1,$2,$3,$4,$5,0*
20,1,$1+$1,$4,$5,$6,$7,0*
20,1,$1+$1,$6,$7,$8,$9,0*
20,1,$1+$1,$8,$9,$2,$3,0*%
%AMFreePoly0*
4,1,6,0.500000,-0.850000,-0.500000,-0.850000,-0.500000,0.550000,-0.200000,0.850000,0.500000,0.850000,0.500000,-0.850000,0.500000,-0.850000,$1*%
G04 Aperture macros list end*
%ADD10C,0.150000*%
%ADD11C,0.120000*%
%ADD12C,0.127000*%
%ADD13C,0.200000*%
%ADD14R,1.000000X0.300000*%
%ADD15RoundRect,0.200000X-0.275000X0.200000X-0.275000X-0.200000X0.275000X-0.200000X0.275000X0.200000X0*%
%ADD16RoundRect,0.200000X0.275000X-0.200000X0.275000X0.200000X-0.275000X0.200000X-0.275000X-0.200000X0*%
%ADD17FreePoly0,180.000000*%
%ADD18R,1.200000X0.250000*%
%ADD19RoundRect,0.150000X0.150000X-0.587500X0.150000X0.587500X-0.150000X0.587500X-0.150000X-0.587500X0*%
%ADD20RoundRect,0.125000X-0.125000X0.537500X-0.125000X-0.537500X0.125000X-0.537500X0.125000X0.537500X0*%
%ADD21RoundRect,0.102000X-0.600000X-0.125000X0.600000X-0.125000X0.600000X0.125000X-0.600000X0.125000X0*%
%ADD22RoundRect,0.225000X0.250000X-0.225000X0.250000X0.225000X-0.250000X0.225000X-0.250000X-0.225000X0*%
%ADD23R,1.700000X1.700000*%
%ADD24O,1.700000X1.700000*%
%ADD25RoundRect,0.200000X-0.200000X-0.275000X0.200000X-0.275000X0.200000X0.275000X-0.200000X0.275000X0*%
%ADD26RoundRect,0.150000X-0.512500X-0.150000X0.512500X-0.150000X0.512500X0.150000X-0.512500X0.150000X0*%
%ADD27RoundRect,0.150000X-0.150000X0.512500X-0.150000X-0.512500X0.150000X-0.512500X0.150000X0.512500X0*%
%ADD28R,0.720000X0.600000*%
G04 APERTURE END LIST*
D10*
X91977800Y-70289160D02*
X91930180Y-70432017D01*
X91930180Y-70432017D02*
X91930180Y-70670112D01*
X91930180Y-70670112D02*
X91977800Y-70765350D01*
X91977800Y-70765350D02*
X92025419Y-70812969D01*
X92025419Y-70812969D02*
X92120657Y-70860588D01*
X92120657Y-70860588D02*
X92215895Y-70860588D01*
X92215895Y-70860588D02*
X92311133Y-70812969D01*
X92311133Y-70812969D02*
X92358752Y-70765350D01*
X92358752Y-70765350D02*
X92406371Y-70670112D01*
X92406371Y-70670112D02*
X92453990Y-70479636D01*
X92453990Y-70479636D02*
X92501609Y-70384398D01*
X92501609Y-70384398D02*
X92549228Y-70336779D01*
X92549228Y-70336779D02*
X92644466Y-70289160D01*
X92644466Y-70289160D02*
X92739704Y-70289160D01*
X92739704Y-70289160D02*
X92834942Y-70336779D01*
X92834942Y-70336779D02*
X92882561Y-70384398D01*
X92882561Y-70384398D02*
X92930180Y-70479636D01*
X92930180Y-70479636D02*
X92930180Y-70717731D01*
X92930180Y-70717731D02*
X92882561Y-70860588D01*
X92930180Y-71193922D02*
X91930180Y-71432017D01*
X91930180Y-71432017D02*
X92644466Y-71622493D01*
X92644466Y-71622493D02*
X91930180Y-71812969D01*
X91930180Y-71812969D02*
X92930180Y-72051065D01*
X92453990Y-72765350D02*
X92406371Y-72908207D01*
X92406371Y-72908207D02*
X92358752Y-72955826D01*
X92358752Y-72955826D02*
X92263514Y-73003445D01*
X92263514Y-73003445D02*
X92120657Y-73003445D01*
X92120657Y-73003445D02*
X92025419Y-72955826D01*
X92025419Y-72955826D02*
X91977800Y-72908207D01*
X91977800Y-72908207D02*
X91930180Y-72812969D01*
X91930180Y-72812969D02*
X91930180Y-72432017D01*
X91930180Y-72432017D02*
X92930180Y-72432017D01*
X92930180Y-72432017D02*
X92930180Y-72765350D01*
X92930180Y-72765350D02*
X92882561Y-72860588D01*
X92882561Y-72860588D02*
X92834942Y-72908207D01*
X92834942Y-72908207D02*
X92739704Y-72955826D01*
X92739704Y-72955826D02*
X92644466Y-72955826D01*
X92644466Y-72955826D02*
X92549228Y-72908207D01*
X92549228Y-72908207D02*
X92501609Y-72860588D01*
X92501609Y-72860588D02*
X92453990Y-72765350D01*
X92453990Y-72765350D02*
X92453990Y-72432017D01*
X94477800Y-70289160D02*
X94430180Y-70432017D01*
X94430180Y-70432017D02*
X94430180Y-70670112D01*
X94430180Y-70670112D02*
X94477800Y-70765350D01*
X94477800Y-70765350D02*
X94525419Y-70812969D01*
X94525419Y-70812969D02*
X94620657Y-70860588D01*
X94620657Y-70860588D02*
X94715895Y-70860588D01*
X94715895Y-70860588D02*
X94811133Y-70812969D01*
X94811133Y-70812969D02*
X94858752Y-70765350D01*
X94858752Y-70765350D02*
X94906371Y-70670112D01*
X94906371Y-70670112D02*
X94953990Y-70479636D01*
X94953990Y-70479636D02*
X95001609Y-70384398D01*
X95001609Y-70384398D02*
X95049228Y-70336779D01*
X95049228Y-70336779D02*
X95144466Y-70289160D01*
X95144466Y-70289160D02*
X95239704Y-70289160D01*
X95239704Y-70289160D02*
X95334942Y-70336779D01*
X95334942Y-70336779D02*
X95382561Y-70384398D01*
X95382561Y-70384398D02*
X95430180Y-70479636D01*
X95430180Y-70479636D02*
X95430180Y-70717731D01*
X95430180Y-70717731D02*
X95382561Y-70860588D01*
X94525419Y-71860588D02*
X94477800Y-71812969D01*
X94477800Y-71812969D02*
X94430180Y-71670112D01*
X94430180Y-71670112D02*
X94430180Y-71574874D01*
X94430180Y-71574874D02*
X94477800Y-71432017D01*
X94477800Y-71432017D02*
X94573038Y-71336779D01*
X94573038Y-71336779D02*
X94668276Y-71289160D01*
X94668276Y-71289160D02*
X94858752Y-71241541D01*
X94858752Y-71241541D02*
X95001609Y-71241541D01*
X95001609Y-71241541D02*
X95192085Y-71289160D01*
X95192085Y-71289160D02*
X95287323Y-71336779D01*
X95287323Y-71336779D02*
X95382561Y-71432017D01*
X95382561Y-71432017D02*
X95430180Y-71574874D01*
X95430180Y-71574874D02*
X95430180Y-71670112D01*
X95430180Y-71670112D02*
X95382561Y-71812969D01*
X95382561Y-71812969D02*
X95334942Y-71860588D01*
X94430180Y-72765350D02*
X94430180Y-72289160D01*
X94430180Y-72289160D02*
X95430180Y-72289160D01*
X97077800Y-70389160D02*
X97030180Y-70532017D01*
X97030180Y-70532017D02*
X97030180Y-70770112D01*
X97030180Y-70770112D02*
X97077800Y-70865350D01*
X97077800Y-70865350D02*
X97125419Y-70912969D01*
X97125419Y-70912969D02*
X97220657Y-70960588D01*
X97220657Y-70960588D02*
X97315895Y-70960588D01*
X97315895Y-70960588D02*
X97411133Y-70912969D01*
X97411133Y-70912969D02*
X97458752Y-70865350D01*
X97458752Y-70865350D02*
X97506371Y-70770112D01*
X97506371Y-70770112D02*
X97553990Y-70579636D01*
X97553990Y-70579636D02*
X97601609Y-70484398D01*
X97601609Y-70484398D02*
X97649228Y-70436779D01*
X97649228Y-70436779D02*
X97744466Y-70389160D01*
X97744466Y-70389160D02*
X97839704Y-70389160D01*
X97839704Y-70389160D02*
X97934942Y-70436779D01*
X97934942Y-70436779D02*
X97982561Y-70484398D01*
X97982561Y-70484398D02*
X98030180Y-70579636D01*
X98030180Y-70579636D02*
X98030180Y-70817731D01*
X98030180Y-70817731D02*
X97982561Y-70960588D01*
X97030180Y-71389160D02*
X98030180Y-71389160D01*
X98030180Y-71389160D02*
X98030180Y-71627255D01*
X98030180Y-71627255D02*
X97982561Y-71770112D01*
X97982561Y-71770112D02*
X97887323Y-71865350D01*
X97887323Y-71865350D02*
X97792085Y-71912969D01*
X97792085Y-71912969D02*
X97601609Y-71960588D01*
X97601609Y-71960588D02*
X97458752Y-71960588D01*
X97458752Y-71960588D02*
X97268276Y-71912969D01*
X97268276Y-71912969D02*
X97173038Y-71865350D01*
X97173038Y-71865350D02*
X97077800Y-71770112D01*
X97077800Y-71770112D02*
X97030180Y-71627255D01*
X97030180Y-71627255D02*
X97030180Y-71389160D01*
X97315895Y-72341541D02*
X97315895Y-72817731D01*
X97030180Y-72246303D02*
X98030180Y-72579636D01*
X98030180Y-72579636D02*
X97030180Y-72912969D01*
X100630180Y-70193922D02*
X99630180Y-70527255D01*
X99630180Y-70527255D02*
X100630180Y-70860588D01*
X99630180Y-71193922D02*
X100296847Y-71193922D01*
X100630180Y-71193922D02*
X100582561Y-71146303D01*
X100582561Y-71146303D02*
X100534942Y-71193922D01*
X100534942Y-71193922D02*
X100582561Y-71241541D01*
X100582561Y-71241541D02*
X100630180Y-71193922D01*
X100630180Y-71193922D02*
X100534942Y-71193922D01*
X100011133Y-71670112D02*
X100011133Y-72432017D01*
X99630180Y-72051064D02*
X100392085Y-72051064D01*
X102030180Y-70336779D02*
X103030180Y-70336779D01*
X103030180Y-70336779D02*
X103030180Y-70574874D01*
X103030180Y-70574874D02*
X102982561Y-70717731D01*
X102982561Y-70717731D02*
X102887323Y-70812969D01*
X102887323Y-70812969D02*
X102792085Y-70860588D01*
X102792085Y-70860588D02*
X102601609Y-70908207D01*
X102601609Y-70908207D02*
X102458752Y-70908207D01*
X102458752Y-70908207D02*
X102268276Y-70860588D01*
X102268276Y-70860588D02*
X102173038Y-70812969D01*
X102173038Y-70812969D02*
X102077800Y-70717731D01*
X102077800Y-70717731D02*
X102030180Y-70574874D01*
X102030180Y-70574874D02*
X102030180Y-70336779D01*
X103030180Y-71527255D02*
X103030180Y-71717731D01*
X103030180Y-71717731D02*
X102982561Y-71812969D01*
X102982561Y-71812969D02*
X102887323Y-71908207D01*
X102887323Y-71908207D02*
X102696847Y-71955826D01*
X102696847Y-71955826D02*
X102363514Y-71955826D01*
X102363514Y-71955826D02*
X102173038Y-71908207D01*
X102173038Y-71908207D02*
X102077800Y-71812969D01*
X102077800Y-71812969D02*
X102030180Y-71717731D01*
X102030180Y-71717731D02*
X102030180Y-71527255D01*
X102030180Y-71527255D02*
X102077800Y-71432017D01*
X102077800Y-71432017D02*
X102173038Y-71336779D01*
X102173038Y-71336779D02*
X102363514Y-71289160D01*
X102363514Y-71289160D02*
X102696847Y-71289160D01*
X102696847Y-71289160D02*
X102887323Y-71336779D01*
X102887323Y-71336779D02*
X102982561Y-71432017D01*
X102982561Y-71432017D02*
X103030180Y-71527255D01*
X102030180Y-72384398D02*
X103030180Y-72384398D01*
X103030180Y-72384398D02*
X102030180Y-72955826D01*
X102030180Y-72955826D02*
X103030180Y-72955826D01*
X102553990Y-73432017D02*
X102553990Y-73765350D01*
X102030180Y-73908207D02*
X102030180Y-73432017D01*
X102030180Y-73432017D02*
X103030180Y-73432017D01*
X103030180Y-73432017D02*
X103030180Y-73908207D01*
X104530180Y-70336779D02*
X105530180Y-70336779D01*
X105530180Y-70336779D02*
X105530180Y-70574874D01*
X105530180Y-70574874D02*
X105482561Y-70717731D01*
X105482561Y-70717731D02*
X105387323Y-70812969D01*
X105387323Y-70812969D02*
X105292085Y-70860588D01*
X105292085Y-70860588D02*
X105101609Y-70908207D01*
X105101609Y-70908207D02*
X104958752Y-70908207D01*
X104958752Y-70908207D02*
X104768276Y-70860588D01*
X104768276Y-70860588D02*
X104673038Y-70812969D01*
X104673038Y-70812969D02*
X104577800Y-70717731D01*
X104577800Y-70717731D02*
X104530180Y-70574874D01*
X104530180Y-70574874D02*
X104530180Y-70336779D01*
X104530180Y-71908207D02*
X105006371Y-71574874D01*
X104530180Y-71336779D02*
X105530180Y-71336779D01*
X105530180Y-71336779D02*
X105530180Y-71717731D01*
X105530180Y-71717731D02*
X105482561Y-71812969D01*
X105482561Y-71812969D02*
X105434942Y-71860588D01*
X105434942Y-71860588D02*
X105339704Y-71908207D01*
X105339704Y-71908207D02*
X105196847Y-71908207D01*
X105196847Y-71908207D02*
X105101609Y-71860588D01*
X105101609Y-71860588D02*
X105053990Y-71812969D01*
X105053990Y-71812969D02*
X105006371Y-71717731D01*
X105006371Y-71717731D02*
X105006371Y-71336779D01*
X105530180Y-72193922D02*
X104530180Y-72527255D01*
X104530180Y-72527255D02*
X105530180Y-72860588D01*
X108030180Y-70241541D02*
X108030180Y-70860588D01*
X108030180Y-70860588D02*
X107649228Y-70527255D01*
X107649228Y-70527255D02*
X107649228Y-70670112D01*
X107649228Y-70670112D02*
X107601609Y-70765350D01*
X107601609Y-70765350D02*
X107553990Y-70812969D01*
X107553990Y-70812969D02*
X107458752Y-70860588D01*
X107458752Y-70860588D02*
X107220657Y-70860588D01*
X107220657Y-70860588D02*
X107125419Y-70812969D01*
X107125419Y-70812969D02*
X107077800Y-70765350D01*
X107077800Y-70765350D02*
X107030180Y-70670112D01*
X107030180Y-70670112D02*
X107030180Y-70384398D01*
X107030180Y-70384398D02*
X107077800Y-70289160D01*
X107077800Y-70289160D02*
X107125419Y-70241541D01*
X107125419Y-71289160D02*
X107077800Y-71336779D01*
X107077800Y-71336779D02*
X107030180Y-71289160D01*
X107030180Y-71289160D02*
X107077800Y-71241541D01*
X107077800Y-71241541D02*
X107125419Y-71289160D01*
X107125419Y-71289160D02*
X107030180Y-71289160D01*
X108030180Y-71670112D02*
X108030180Y-72289159D01*
X108030180Y-72289159D02*
X107649228Y-71955826D01*
X107649228Y-71955826D02*
X107649228Y-72098683D01*
X107649228Y-72098683D02*
X107601609Y-72193921D01*
X107601609Y-72193921D02*
X107553990Y-72241540D01*
X107553990Y-72241540D02*
X107458752Y-72289159D01*
X107458752Y-72289159D02*
X107220657Y-72289159D01*
X107220657Y-72289159D02*
X107125419Y-72241540D01*
X107125419Y-72241540D02*
X107077800Y-72193921D01*
X107077800Y-72193921D02*
X107030180Y-72098683D01*
X107030180Y-72098683D02*
X107030180Y-71812969D01*
X107030180Y-71812969D02*
X107077800Y-71717731D01*
X107077800Y-71717731D02*
X107125419Y-71670112D01*
X108030180Y-72574874D02*
X107030180Y-72908207D01*
X107030180Y-72908207D02*
X108030180Y-73241540D01*
X110682561Y-70860588D02*
X110730180Y-70765350D01*
X110730180Y-70765350D02*
X110730180Y-70622493D01*
X110730180Y-70622493D02*
X110682561Y-70479636D01*
X110682561Y-70479636D02*
X110587323Y-70384398D01*
X110587323Y-70384398D02*
X110492085Y-70336779D01*
X110492085Y-70336779D02*
X110301609Y-70289160D01*
X110301609Y-70289160D02*
X110158752Y-70289160D01*
X110158752Y-70289160D02*
X109968276Y-70336779D01*
X109968276Y-70336779D02*
X109873038Y-70384398D01*
X109873038Y-70384398D02*
X109777800Y-70479636D01*
X109777800Y-70479636D02*
X109730180Y-70622493D01*
X109730180Y-70622493D02*
X109730180Y-70717731D01*
X109730180Y-70717731D02*
X109777800Y-70860588D01*
X109777800Y-70860588D02*
X109825419Y-70908207D01*
X109825419Y-70908207D02*
X110158752Y-70908207D01*
X110158752Y-70908207D02*
X110158752Y-70717731D01*
X109730180Y-71336779D02*
X110730180Y-71336779D01*
X110730180Y-71336779D02*
X109730180Y-71908207D01*
X109730180Y-71908207D02*
X110730180Y-71908207D01*
X109730180Y-72384398D02*
X110730180Y-72384398D01*
X110730180Y-72384398D02*
X110730180Y-72622493D01*
X110730180Y-72622493D02*
X110682561Y-72765350D01*
X110682561Y-72765350D02*
X110587323Y-72860588D01*
X110587323Y-72860588D02*
X110492085Y-72908207D01*
X110492085Y-72908207D02*
X110301609Y-72955826D01*
X110301609Y-72955826D02*
X110158752Y-72955826D01*
X110158752Y-72955826D02*
X109968276Y-72908207D01*
X109968276Y-72908207D02*
X109873038Y-72860588D01*
X109873038Y-72860588D02*
X109777800Y-72765350D01*
X109777800Y-72765350D02*
X109730180Y-72622493D01*
X109730180Y-72622493D02*
X109730180Y-72384398D01*
X112277800Y-70289160D02*
X112230180Y-70432017D01*
X112230180Y-70432017D02*
X112230180Y-70670112D01*
X112230180Y-70670112D02*
X112277800Y-70765350D01*
X112277800Y-70765350D02*
X112325419Y-70812969D01*
X112325419Y-70812969D02*
X112420657Y-70860588D01*
X112420657Y-70860588D02*
X112515895Y-70860588D01*
X112515895Y-70860588D02*
X112611133Y-70812969D01*
X112611133Y-70812969D02*
X112658752Y-70765350D01*
X112658752Y-70765350D02*
X112706371Y-70670112D01*
X112706371Y-70670112D02*
X112753990Y-70479636D01*
X112753990Y-70479636D02*
X112801609Y-70384398D01*
X112801609Y-70384398D02*
X112849228Y-70336779D01*
X112849228Y-70336779D02*
X112944466Y-70289160D01*
X112944466Y-70289160D02*
X113039704Y-70289160D01*
X113039704Y-70289160D02*
X113134942Y-70336779D01*
X113134942Y-70336779D02*
X113182561Y-70384398D01*
X113182561Y-70384398D02*
X113230180Y-70479636D01*
X113230180Y-70479636D02*
X113230180Y-70717731D01*
X113230180Y-70717731D02*
X113182561Y-70860588D01*
X113230180Y-71193922D02*
X112230180Y-71432017D01*
X112230180Y-71432017D02*
X112944466Y-71622493D01*
X112944466Y-71622493D02*
X112230180Y-71812969D01*
X112230180Y-71812969D02*
X113230180Y-72051065D01*
X112515895Y-72384398D02*
X112515895Y-72860588D01*
X112230180Y-72289160D02*
X113230180Y-72622493D01*
X113230180Y-72622493D02*
X112230180Y-72955826D01*
X93538095Y-89354819D02*
X93538095Y-90164342D01*
X93538095Y-90164342D02*
X93585714Y-90259580D01*
X93585714Y-90259580D02*
X93633333Y-90307200D01*
X93633333Y-90307200D02*
X93728571Y-90354819D01*
X93728571Y-90354819D02*
X93919047Y-90354819D01*
X93919047Y-90354819D02*
X94014285Y-90307200D01*
X94014285Y-90307200D02*
X94061904Y-90259580D01*
X94061904Y-90259580D02*
X94109523Y-90164342D01*
X94109523Y-90164342D02*
X94109523Y-89354819D01*
X95109523Y-90354819D02*
X94538095Y-90354819D01*
X94823809Y-90354819D02*
X94823809Y-89354819D01*
X94823809Y-89354819D02*
X94728571Y-89497676D01*
X94728571Y-89497676D02*
X94633333Y-89592914D01*
X94633333Y-89592914D02*
X94538095Y-89640533D01*
X101184819Y-74342857D02*
X100708628Y-74676190D01*
X101184819Y-74914285D02*
X100184819Y-74914285D01*
X100184819Y-74914285D02*
X100184819Y-74533333D01*
X100184819Y-74533333D02*
X100232438Y-74438095D01*
X100232438Y-74438095D02*
X100280057Y-74390476D01*
X100280057Y-74390476D02*
X100375295Y-74342857D01*
X100375295Y-74342857D02*
X100518152Y-74342857D01*
X100518152Y-74342857D02*
X100613390Y-74390476D01*
X100613390Y-74390476D02*
X100661009Y-74438095D01*
X100661009Y-74438095D02*
X100708628Y-74533333D01*
X100708628Y-74533333D02*
X100708628Y-74914285D01*
X101184819Y-73390476D02*
X101184819Y-73961904D01*
X101184819Y-73676190D02*
X100184819Y-73676190D01*
X100184819Y-73676190D02*
X100327676Y-73771428D01*
X100327676Y-73771428D02*
X100422914Y-73866666D01*
X100422914Y-73866666D02*
X100470533Y-73961904D01*
X100184819Y-73057142D02*
X100184819Y-72438095D01*
X100184819Y-72438095D02*
X100565771Y-72771428D01*
X100565771Y-72771428D02*
X100565771Y-72628571D01*
X100565771Y-72628571D02*
X100613390Y-72533333D01*
X100613390Y-72533333D02*
X100661009Y-72485714D01*
X100661009Y-72485714D02*
X100756247Y-72438095D01*
X100756247Y-72438095D02*
X100994342Y-72438095D01*
X100994342Y-72438095D02*
X101089580Y-72485714D01*
X101089580Y-72485714D02*
X101137200Y-72533333D01*
X101137200Y-72533333D02*
X101184819Y-72628571D01*
X101184819Y-72628571D02*
X101184819Y-72914285D01*
X101184819Y-72914285D02*
X101137200Y-73009523D01*
X101137200Y-73009523D02*
X101089580Y-73057142D01*
X103884819Y-74342857D02*
X103408628Y-74676190D01*
X103884819Y-74914285D02*
X102884819Y-74914285D01*
X102884819Y-74914285D02*
X102884819Y-74533333D01*
X102884819Y-74533333D02*
X102932438Y-74438095D01*
X102932438Y-74438095D02*
X102980057Y-74390476D01*
X102980057Y-74390476D02*
X103075295Y-74342857D01*
X103075295Y-74342857D02*
X103218152Y-74342857D01*
X103218152Y-74342857D02*
X103313390Y-74390476D01*
X103313390Y-74390476D02*
X103361009Y-74438095D01*
X103361009Y-74438095D02*
X103408628Y-74533333D01*
X103408628Y-74533333D02*
X103408628Y-74914285D01*
X103884819Y-73390476D02*
X103884819Y-73961904D01*
X103884819Y-73676190D02*
X102884819Y-73676190D01*
X102884819Y-73676190D02*
X103027676Y-73771428D01*
X103027676Y-73771428D02*
X103122914Y-73866666D01*
X103122914Y-73866666D02*
X103170533Y-73961904D01*
X102884819Y-72771428D02*
X102884819Y-72676190D01*
X102884819Y-72676190D02*
X102932438Y-72580952D01*
X102932438Y-72580952D02*
X102980057Y-72533333D01*
X102980057Y-72533333D02*
X103075295Y-72485714D01*
X103075295Y-72485714D02*
X103265771Y-72438095D01*
X103265771Y-72438095D02*
X103503866Y-72438095D01*
X103503866Y-72438095D02*
X103694342Y-72485714D01*
X103694342Y-72485714D02*
X103789580Y-72533333D01*
X103789580Y-72533333D02*
X103837200Y-72580952D01*
X103837200Y-72580952D02*
X103884819Y-72676190D01*
X103884819Y-72676190D02*
X103884819Y-72771428D01*
X103884819Y-72771428D02*
X103837200Y-72866666D01*
X103837200Y-72866666D02*
X103789580Y-72914285D01*
X103789580Y-72914285D02*
X103694342Y-72961904D01*
X103694342Y-72961904D02*
X103503866Y-73009523D01*
X103503866Y-73009523D02*
X103265771Y-73009523D01*
X103265771Y-73009523D02*
X103075295Y-72961904D01*
X103075295Y-72961904D02*
X102980057Y-72914285D01*
X102980057Y-72914285D02*
X102932438Y-72866666D01*
X102932438Y-72866666D02*
X102884819Y-72771428D01*
X97524819Y-88066666D02*
X97048628Y-88399999D01*
X97524819Y-88638094D02*
X96524819Y-88638094D01*
X96524819Y-88638094D02*
X96524819Y-88257142D01*
X96524819Y-88257142D02*
X96572438Y-88161904D01*
X96572438Y-88161904D02*
X96620057Y-88114285D01*
X96620057Y-88114285D02*
X96715295Y-88066666D01*
X96715295Y-88066666D02*
X96858152Y-88066666D01*
X96858152Y-88066666D02*
X96953390Y-88114285D01*
X96953390Y-88114285D02*
X97001009Y-88161904D01*
X97001009Y-88161904D02*
X97048628Y-88257142D01*
X97048628Y-88257142D02*
X97048628Y-88638094D01*
X96524819Y-87161904D02*
X96524819Y-87638094D01*
X96524819Y-87638094D02*
X97001009Y-87685713D01*
X97001009Y-87685713D02*
X96953390Y-87638094D01*
X96953390Y-87638094D02*
X96905771Y-87542856D01*
X96905771Y-87542856D02*
X96905771Y-87304761D01*
X96905771Y-87304761D02*
X96953390Y-87209523D01*
X96953390Y-87209523D02*
X97001009Y-87161904D01*
X97001009Y-87161904D02*
X97096247Y-87114285D01*
X97096247Y-87114285D02*
X97334342Y-87114285D01*
X97334342Y-87114285D02*
X97429580Y-87161904D01*
X97429580Y-87161904D02*
X97477200Y-87209523D01*
X97477200Y-87209523D02*
X97524819Y-87304761D01*
X97524819Y-87304761D02*
X97524819Y-87542856D01*
X97524819Y-87542856D02*
X97477200Y-87638094D01*
X97477200Y-87638094D02*
X97429580Y-87685713D01*
X93201274Y-85286818D02*
X93201274Y-86096341D01*
X93201274Y-86096341D02*
X93248893Y-86191579D01*
X93248893Y-86191579D02*
X93296512Y-86239199D01*
X93296512Y-86239199D02*
X93391750Y-86286818D01*
X93391750Y-86286818D02*
X93582226Y-86286818D01*
X93582226Y-86286818D02*
X93677464Y-86239199D01*
X93677464Y-86239199D02*
X93725083Y-86191579D01*
X93725083Y-86191579D02*
X93772702Y-86096341D01*
X93772702Y-86096341D02*
X93772702Y-85286818D01*
X94772702Y-86286818D02*
X94201274Y-86286818D01*
X94486988Y-86286818D02*
X94486988Y-85286818D01*
X94486988Y-85286818D02*
X94391750Y-85429675D01*
X94391750Y-85429675D02*
X94296512Y-85524913D01*
X94296512Y-85524913D02*
X94201274Y-85572532D01*
X95106036Y-85286818D02*
X95725083Y-85286818D01*
X95725083Y-85286818D02*
X95391750Y-85667770D01*
X95391750Y-85667770D02*
X95534607Y-85667770D01*
X95534607Y-85667770D02*
X95629845Y-85715389D01*
X95629845Y-85715389D02*
X95677464Y-85763008D01*
X95677464Y-85763008D02*
X95725083Y-85858246D01*
X95725083Y-85858246D02*
X95725083Y-86096341D01*
X95725083Y-86096341D02*
X95677464Y-86191579D01*
X95677464Y-86191579D02*
X95629845Y-86239199D01*
X95629845Y-86239199D02*
X95534607Y-86286818D01*
X95534607Y-86286818D02*
X95248893Y-86286818D01*
X95248893Y-86286818D02*
X95153655Y-86239199D01*
X95153655Y-86239199D02*
X95106036Y-86191579D01*
X109901926Y-81927236D02*
X109854307Y-82022474D01*
X109854307Y-82022474D02*
X109759069Y-82117712D01*
X109759069Y-82117712D02*
X109616211Y-82260569D01*
X109616211Y-82260569D02*
X109568592Y-82355807D01*
X109568592Y-82355807D02*
X109568592Y-82451045D01*
X109806688Y-82403426D02*
X109759069Y-82498664D01*
X109759069Y-82498664D02*
X109663830Y-82593902D01*
X109663830Y-82593902D02*
X109473354Y-82641521D01*
X109473354Y-82641521D02*
X109140021Y-82641521D01*
X109140021Y-82641521D02*
X108949545Y-82593902D01*
X108949545Y-82593902D02*
X108854307Y-82498664D01*
X108854307Y-82498664D02*
X108806688Y-82403426D01*
X108806688Y-82403426D02*
X108806688Y-82212950D01*
X108806688Y-82212950D02*
X108854307Y-82117712D01*
X108854307Y-82117712D02*
X108949545Y-82022474D01*
X108949545Y-82022474D02*
X109140021Y-81974855D01*
X109140021Y-81974855D02*
X109473354Y-81974855D01*
X109473354Y-81974855D02*
X109663830Y-82022474D01*
X109663830Y-82022474D02*
X109759069Y-82117712D01*
X109759069Y-82117712D02*
X109806688Y-82212950D01*
X109806688Y-82212950D02*
X109806688Y-82403426D01*
X108806688Y-81641521D02*
X108806688Y-81022474D01*
X108806688Y-81022474D02*
X109187640Y-81355807D01*
X109187640Y-81355807D02*
X109187640Y-81212950D01*
X109187640Y-81212950D02*
X109235259Y-81117712D01*
X109235259Y-81117712D02*
X109282878Y-81070093D01*
X109282878Y-81070093D02*
X109378116Y-81022474D01*
X109378116Y-81022474D02*
X109616211Y-81022474D01*
X109616211Y-81022474D02*
X109711449Y-81070093D01*
X109711449Y-81070093D02*
X109759069Y-81117712D01*
X109759069Y-81117712D02*
X109806688Y-81212950D01*
X109806688Y-81212950D02*
X109806688Y-81498664D01*
X109806688Y-81498664D02*
X109759069Y-81593902D01*
X109759069Y-81593902D02*
X109711449Y-81641521D01*
X104069190Y-88593903D02*
X104878713Y-88593903D01*
X104878713Y-88593903D02*
X104973951Y-88546284D01*
X104973951Y-88546284D02*
X105021571Y-88498665D01*
X105021571Y-88498665D02*
X105069190Y-88403427D01*
X105069190Y-88403427D02*
X105069190Y-88212951D01*
X105069190Y-88212951D02*
X105021571Y-88117713D01*
X105021571Y-88117713D02*
X104973951Y-88070094D01*
X104973951Y-88070094D02*
X104878713Y-88022475D01*
X104878713Y-88022475D02*
X104069190Y-88022475D01*
X104069190Y-87641522D02*
X104069190Y-87022475D01*
X104069190Y-87022475D02*
X104450142Y-87355808D01*
X104450142Y-87355808D02*
X104450142Y-87212951D01*
X104450142Y-87212951D02*
X104497761Y-87117713D01*
X104497761Y-87117713D02*
X104545380Y-87070094D01*
X104545380Y-87070094D02*
X104640618Y-87022475D01*
X104640618Y-87022475D02*
X104878713Y-87022475D01*
X104878713Y-87022475D02*
X104973951Y-87070094D01*
X104973951Y-87070094D02*
X105021571Y-87117713D01*
X105021571Y-87117713D02*
X105069190Y-87212951D01*
X105069190Y-87212951D02*
X105069190Y-87498665D01*
X105069190Y-87498665D02*
X105021571Y-87593903D01*
X105021571Y-87593903D02*
X104973951Y-87641522D01*
X94476251Y-76348644D02*
X94476251Y-77159206D01*
X94476251Y-77159206D02*
X94523931Y-77254566D01*
X94523931Y-77254566D02*
X94571612Y-77302247D01*
X94571612Y-77302247D02*
X94666972Y-77349927D01*
X94666972Y-77349927D02*
X94857692Y-77349927D01*
X94857692Y-77349927D02*
X94953053Y-77302247D01*
X94953053Y-77302247D02*
X95000733Y-77254566D01*
X95000733Y-77254566D02*
X95048413Y-77159206D01*
X95048413Y-77159206D02*
X95048413Y-76348644D01*
X96049696Y-77349927D02*
X95477534Y-77349927D01*
X95763615Y-77349927D02*
X95763615Y-76348644D01*
X95763615Y-76348644D02*
X95668255Y-76491684D01*
X95668255Y-76491684D02*
X95572894Y-76587044D01*
X95572894Y-76587044D02*
X95477534Y-76634725D01*
X96383457Y-76348644D02*
X97050979Y-76348644D01*
X97050979Y-76348644D02*
X96621858Y-77349927D01*
X103729580Y-73866666D02*
X103777200Y-73914285D01*
X103777200Y-73914285D02*
X103824819Y-74057142D01*
X103824819Y-74057142D02*
X103824819Y-74152380D01*
X103824819Y-74152380D02*
X103777200Y-74295237D01*
X103777200Y-74295237D02*
X103681961Y-74390475D01*
X103681961Y-74390475D02*
X103586723Y-74438094D01*
X103586723Y-74438094D02*
X103396247Y-74485713D01*
X103396247Y-74485713D02*
X103253390Y-74485713D01*
X103253390Y-74485713D02*
X103062914Y-74438094D01*
X103062914Y-74438094D02*
X102967676Y-74390475D01*
X102967676Y-74390475D02*
X102872438Y-74295237D01*
X102872438Y-74295237D02*
X102824819Y-74152380D01*
X102824819Y-74152380D02*
X102824819Y-74057142D01*
X102824819Y-74057142D02*
X102872438Y-73914285D01*
X102872438Y-73914285D02*
X102920057Y-73866666D01*
X102824819Y-73533332D02*
X102824819Y-72866666D01*
X102824819Y-72866666D02*
X103824819Y-73295237D01*
X107024819Y-88266666D02*
X106548628Y-88599999D01*
X107024819Y-88838094D02*
X106024819Y-88838094D01*
X106024819Y-88838094D02*
X106024819Y-88457142D01*
X106024819Y-88457142D02*
X106072438Y-88361904D01*
X106072438Y-88361904D02*
X106120057Y-88314285D01*
X106120057Y-88314285D02*
X106215295Y-88266666D01*
X106215295Y-88266666D02*
X106358152Y-88266666D01*
X106358152Y-88266666D02*
X106453390Y-88314285D01*
X106453390Y-88314285D02*
X106501009Y-88361904D01*
X106501009Y-88361904D02*
X106548628Y-88457142D01*
X106548628Y-88457142D02*
X106548628Y-88838094D01*
X107024819Y-87314285D02*
X107024819Y-87885713D01*
X107024819Y-87599999D02*
X106024819Y-87599999D01*
X106024819Y-87599999D02*
X106167676Y-87695237D01*
X106167676Y-87695237D02*
X106262914Y-87790475D01*
X106262914Y-87790475D02*
X106310533Y-87885713D01*
X114514188Y-69415331D02*
X115228473Y-69415331D01*
X115228473Y-69415331D02*
X115371330Y-69462950D01*
X115371330Y-69462950D02*
X115466569Y-69558188D01*
X115466569Y-69558188D02*
X115514188Y-69701045D01*
X115514188Y-69701045D02*
X115514188Y-69796283D01*
X115514188Y-68415331D02*
X115514188Y-68986759D01*
X115514188Y-68701045D02*
X114514188Y-68701045D01*
X114514188Y-68701045D02*
X114657045Y-68796283D01*
X114657045Y-68796283D02*
X114752283Y-68891521D01*
X114752283Y-68891521D02*
X114799902Y-68986759D01*
X105146509Y-76031815D02*
X104813176Y-75555624D01*
X104575081Y-76031815D02*
X104575081Y-75031815D01*
X104575081Y-75031815D02*
X104956033Y-75031815D01*
X104956033Y-75031815D02*
X105051271Y-75079434D01*
X105051271Y-75079434D02*
X105098890Y-75127053D01*
X105098890Y-75127053D02*
X105146509Y-75222291D01*
X105146509Y-75222291D02*
X105146509Y-75365148D01*
X105146509Y-75365148D02*
X105098890Y-75460386D01*
X105098890Y-75460386D02*
X105051271Y-75508005D01*
X105051271Y-75508005D02*
X104956033Y-75555624D01*
X104956033Y-75555624D02*
X104575081Y-75555624D01*
X106098890Y-76031815D02*
X105527462Y-76031815D01*
X105813176Y-76031815D02*
X105813176Y-75031815D01*
X105813176Y-75031815D02*
X105717938Y-75174672D01*
X105717938Y-75174672D02*
X105622700Y-75269910D01*
X105622700Y-75269910D02*
X105527462Y-75317529D01*
X106432224Y-75031815D02*
X107098890Y-75031815D01*
X107098890Y-75031815D02*
X106670319Y-76031815D01*
X98986686Y-82323665D02*
X98510495Y-82656998D01*
X98986686Y-82895093D02*
X97986686Y-82895093D01*
X97986686Y-82895093D02*
X97986686Y-82514141D01*
X97986686Y-82514141D02*
X98034305Y-82418903D01*
X98034305Y-82418903D02*
X98081924Y-82371284D01*
X98081924Y-82371284D02*
X98177162Y-82323665D01*
X98177162Y-82323665D02*
X98320019Y-82323665D01*
X98320019Y-82323665D02*
X98415257Y-82371284D01*
X98415257Y-82371284D02*
X98462876Y-82418903D01*
X98462876Y-82418903D02*
X98510495Y-82514141D01*
X98510495Y-82514141D02*
X98510495Y-82895093D01*
X98081924Y-81942712D02*
X98034305Y-81895093D01*
X98034305Y-81895093D02*
X97986686Y-81799855D01*
X97986686Y-81799855D02*
X97986686Y-81561760D01*
X97986686Y-81561760D02*
X98034305Y-81466522D01*
X98034305Y-81466522D02*
X98081924Y-81418903D01*
X98081924Y-81418903D02*
X98177162Y-81371284D01*
X98177162Y-81371284D02*
X98272400Y-81371284D01*
X98272400Y-81371284D02*
X98415257Y-81418903D01*
X98415257Y-81418903D02*
X98986686Y-81990331D01*
X98986686Y-81990331D02*
X98986686Y-81371284D01*
X104677464Y-78886817D02*
X104677464Y-79696340D01*
X104677464Y-79696340D02*
X104725083Y-79791578D01*
X104725083Y-79791578D02*
X104772702Y-79839198D01*
X104772702Y-79839198D02*
X104867940Y-79886817D01*
X104867940Y-79886817D02*
X105058416Y-79886817D01*
X105058416Y-79886817D02*
X105153654Y-79839198D01*
X105153654Y-79839198D02*
X105201273Y-79791578D01*
X105201273Y-79791578D02*
X105248892Y-79696340D01*
X105248892Y-79696340D02*
X105248892Y-78886817D01*
X105867940Y-79315388D02*
X105772702Y-79267769D01*
X105772702Y-79267769D02*
X105725083Y-79220150D01*
X105725083Y-79220150D02*
X105677464Y-79124912D01*
X105677464Y-79124912D02*
X105677464Y-79077293D01*
X105677464Y-79077293D02*
X105725083Y-78982055D01*
X105725083Y-78982055D02*
X105772702Y-78934436D01*
X105772702Y-78934436D02*
X105867940Y-78886817D01*
X105867940Y-78886817D02*
X106058416Y-78886817D01*
X106058416Y-78886817D02*
X106153654Y-78934436D01*
X106153654Y-78934436D02*
X106201273Y-78982055D01*
X106201273Y-78982055D02*
X106248892Y-79077293D01*
X106248892Y-79077293D02*
X106248892Y-79124912D01*
X106248892Y-79124912D02*
X106201273Y-79220150D01*
X106201273Y-79220150D02*
X106153654Y-79267769D01*
X106153654Y-79267769D02*
X106058416Y-79315388D01*
X106058416Y-79315388D02*
X105867940Y-79315388D01*
X105867940Y-79315388D02*
X105772702Y-79363007D01*
X105772702Y-79363007D02*
X105725083Y-79410626D01*
X105725083Y-79410626D02*
X105677464Y-79505864D01*
X105677464Y-79505864D02*
X105677464Y-79696340D01*
X105677464Y-79696340D02*
X105725083Y-79791578D01*
X105725083Y-79791578D02*
X105772702Y-79839198D01*
X105772702Y-79839198D02*
X105867940Y-79886817D01*
X105867940Y-79886817D02*
X106058416Y-79886817D01*
X106058416Y-79886817D02*
X106153654Y-79839198D01*
X106153654Y-79839198D02*
X106201273Y-79791578D01*
X106201273Y-79791578D02*
X106248892Y-79696340D01*
X106248892Y-79696340D02*
X106248892Y-79505864D01*
X106248892Y-79505864D02*
X106201273Y-79410626D01*
X106201273Y-79410626D02*
X106153654Y-79363007D01*
X106153654Y-79363007D02*
X106058416Y-79315388D01*
X109384819Y-73866666D02*
X108908628Y-74199999D01*
X109384819Y-74438094D02*
X108384819Y-74438094D01*
X108384819Y-74438094D02*
X108384819Y-74057142D01*
X108384819Y-74057142D02*
X108432438Y-73961904D01*
X108432438Y-73961904D02*
X108480057Y-73914285D01*
X108480057Y-73914285D02*
X108575295Y-73866666D01*
X108575295Y-73866666D02*
X108718152Y-73866666D01*
X108718152Y-73866666D02*
X108813390Y-73914285D01*
X108813390Y-73914285D02*
X108861009Y-73961904D01*
X108861009Y-73961904D02*
X108908628Y-74057142D01*
X108908628Y-74057142D02*
X108908628Y-74438094D01*
X108813390Y-73295237D02*
X108765771Y-73390475D01*
X108765771Y-73390475D02*
X108718152Y-73438094D01*
X108718152Y-73438094D02*
X108622914Y-73485713D01*
X108622914Y-73485713D02*
X108575295Y-73485713D01*
X108575295Y-73485713D02*
X108480057Y-73438094D01*
X108480057Y-73438094D02*
X108432438Y-73390475D01*
X108432438Y-73390475D02*
X108384819Y-73295237D01*
X108384819Y-73295237D02*
X108384819Y-73104761D01*
X108384819Y-73104761D02*
X108432438Y-73009523D01*
X108432438Y-73009523D02*
X108480057Y-72961904D01*
X108480057Y-72961904D02*
X108575295Y-72914285D01*
X108575295Y-72914285D02*
X108622914Y-72914285D01*
X108622914Y-72914285D02*
X108718152Y-72961904D01*
X108718152Y-72961904D02*
X108765771Y-73009523D01*
X108765771Y-73009523D02*
X108813390Y-73104761D01*
X108813390Y-73104761D02*
X108813390Y-73295237D01*
X108813390Y-73295237D02*
X108861009Y-73390475D01*
X108861009Y-73390475D02*
X108908628Y-73438094D01*
X108908628Y-73438094D02*
X109003866Y-73485713D01*
X109003866Y-73485713D02*
X109194342Y-73485713D01*
X109194342Y-73485713D02*
X109289580Y-73438094D01*
X109289580Y-73438094D02*
X109337200Y-73390475D01*
X109337200Y-73390475D02*
X109384819Y-73295237D01*
X109384819Y-73295237D02*
X109384819Y-73104761D01*
X109384819Y-73104761D02*
X109337200Y-73009523D01*
X109337200Y-73009523D02*
X109289580Y-72961904D01*
X109289580Y-72961904D02*
X109194342Y-72914285D01*
X109194342Y-72914285D02*
X109003866Y-72914285D01*
X109003866Y-72914285D02*
X108908628Y-72961904D01*
X108908628Y-72961904D02*
X108861009Y-73009523D01*
X108861009Y-73009523D02*
X108813390Y-73104761D01*
X113556686Y-76906403D02*
X114366209Y-76906403D01*
X114366209Y-76906403D02*
X114461447Y-76858784D01*
X114461447Y-76858784D02*
X114509067Y-76811165D01*
X114509067Y-76811165D02*
X114556686Y-76715927D01*
X114556686Y-76715927D02*
X114556686Y-76525451D01*
X114556686Y-76525451D02*
X114509067Y-76430213D01*
X114509067Y-76430213D02*
X114461447Y-76382594D01*
X114461447Y-76382594D02*
X114366209Y-76334975D01*
X114366209Y-76334975D02*
X113556686Y-76334975D01*
X113556686Y-75954022D02*
X113556686Y-75287356D01*
X113556686Y-75287356D02*
X114556686Y-75715927D01*
X109901925Y-87563113D02*
X109854306Y-87658351D01*
X109854306Y-87658351D02*
X109759068Y-87753589D01*
X109759068Y-87753589D02*
X109616210Y-87896446D01*
X109616210Y-87896446D02*
X109568591Y-87991684D01*
X109568591Y-87991684D02*
X109568591Y-88086922D01*
X109806687Y-88039303D02*
X109759068Y-88134541D01*
X109759068Y-88134541D02*
X109663829Y-88229779D01*
X109663829Y-88229779D02*
X109473353Y-88277398D01*
X109473353Y-88277398D02*
X109140020Y-88277398D01*
X109140020Y-88277398D02*
X108949544Y-88229779D01*
X108949544Y-88229779D02*
X108854306Y-88134541D01*
X108854306Y-88134541D02*
X108806687Y-88039303D01*
X108806687Y-88039303D02*
X108806687Y-87848827D01*
X108806687Y-87848827D02*
X108854306Y-87753589D01*
X108854306Y-87753589D02*
X108949544Y-87658351D01*
X108949544Y-87658351D02*
X109140020Y-87610732D01*
X109140020Y-87610732D02*
X109473353Y-87610732D01*
X109473353Y-87610732D02*
X109663829Y-87658351D01*
X109663829Y-87658351D02*
X109759068Y-87753589D01*
X109759068Y-87753589D02*
X109806687Y-87848827D01*
X109806687Y-87848827D02*
X109806687Y-88039303D01*
X108901925Y-87229779D02*
X108854306Y-87182160D01*
X108854306Y-87182160D02*
X108806687Y-87086922D01*
X108806687Y-87086922D02*
X108806687Y-86848827D01*
X108806687Y-86848827D02*
X108854306Y-86753589D01*
X108854306Y-86753589D02*
X108901925Y-86705970D01*
X108901925Y-86705970D02*
X108997163Y-86658351D01*
X108997163Y-86658351D02*
X109092401Y-86658351D01*
X109092401Y-86658351D02*
X109235258Y-86705970D01*
X109235258Y-86705970D02*
X109806687Y-87277398D01*
X109806687Y-87277398D02*
X109806687Y-86658351D01*
X93321272Y-71625715D02*
X93321272Y-72435238D01*
X93321272Y-72435238D02*
X93368891Y-72530476D01*
X93368891Y-72530476D02*
X93416510Y-72578096D01*
X93416510Y-72578096D02*
X93511748Y-72625715D01*
X93511748Y-72625715D02*
X93702224Y-72625715D01*
X93702224Y-72625715D02*
X93797462Y-72578096D01*
X93797462Y-72578096D02*
X93845081Y-72530476D01*
X93845081Y-72530476D02*
X93892700Y-72435238D01*
X93892700Y-72435238D02*
X93892700Y-71625715D01*
X94892700Y-72625715D02*
X94321272Y-72625715D01*
X94606986Y-72625715D02*
X94606986Y-71625715D01*
X94606986Y-71625715D02*
X94511748Y-71768572D01*
X94511748Y-71768572D02*
X94416510Y-71863810D01*
X94416510Y-71863810D02*
X94321272Y-71911429D01*
X95273653Y-71720953D02*
X95321272Y-71673334D01*
X95321272Y-71673334D02*
X95416510Y-71625715D01*
X95416510Y-71625715D02*
X95654605Y-71625715D01*
X95654605Y-71625715D02*
X95749843Y-71673334D01*
X95749843Y-71673334D02*
X95797462Y-71720953D01*
X95797462Y-71720953D02*
X95845081Y-71816191D01*
X95845081Y-71816191D02*
X95845081Y-71911429D01*
X95845081Y-71911429D02*
X95797462Y-72054286D01*
X95797462Y-72054286D02*
X95226034Y-72625715D01*
X95226034Y-72625715D02*
X95845081Y-72625715D01*
X98888944Y-78933666D02*
X98936564Y-78981285D01*
X98936564Y-78981285D02*
X98984183Y-79124142D01*
X98984183Y-79124142D02*
X98984183Y-79219380D01*
X98984183Y-79219380D02*
X98936564Y-79362237D01*
X98936564Y-79362237D02*
X98841325Y-79457475D01*
X98841325Y-79457475D02*
X98746087Y-79505094D01*
X98746087Y-79505094D02*
X98555611Y-79552713D01*
X98555611Y-79552713D02*
X98412754Y-79552713D01*
X98412754Y-79552713D02*
X98222278Y-79505094D01*
X98222278Y-79505094D02*
X98127040Y-79457475D01*
X98127040Y-79457475D02*
X98031802Y-79362237D01*
X98031802Y-79362237D02*
X97984183Y-79219380D01*
X97984183Y-79219380D02*
X97984183Y-79124142D01*
X97984183Y-79124142D02*
X98031802Y-78981285D01*
X98031802Y-78981285D02*
X98079421Y-78933666D01*
X98317516Y-78076523D02*
X98984183Y-78076523D01*
X97936564Y-78314618D02*
X98650849Y-78552713D01*
X98650849Y-78552713D02*
X98650849Y-77933666D01*
D11*
X95050000Y-87340000D02*
X93550000Y-87340000D01*
X94300000Y-89060000D02*
X93550000Y-89060000D01*
X98777500Y-73462742D02*
X98777500Y-73937258D01*
X99822500Y-73462742D02*
X99822500Y-73937258D01*
X101477500Y-73462742D02*
X101477500Y-73937258D01*
X102522500Y-73462742D02*
X102522500Y-73937258D01*
X99022500Y-88137258D02*
X99022500Y-87662742D01*
X97977500Y-88137258D02*
X97977500Y-87662742D01*
X95089369Y-82171999D02*
X93789369Y-82171999D01*
X95529369Y-84991999D02*
X93789369Y-84991999D01*
X110191869Y-81831998D02*
X110191869Y-83506998D01*
X110191869Y-81831998D02*
X110191869Y-81181998D01*
X113311869Y-81831998D02*
X113311869Y-82481998D01*
X113311869Y-81831998D02*
X113311869Y-81181998D01*
X100654371Y-87831999D02*
X100654371Y-88631999D01*
X100654371Y-87831999D02*
X100654371Y-87031999D01*
X103774371Y-87831999D02*
X103774371Y-88631999D01*
X103774371Y-87831999D02*
X103774371Y-86031999D01*
D12*
X93709370Y-79631999D02*
X95269370Y-79631999D01*
X95269370Y-78031999D02*
X93709370Y-78031999D01*
D13*
X92489370Y-78331999D02*
G75*
G03*
X92489370Y-78331999I-100000J0D01*
G01*
D11*
X105310000Y-73840580D02*
X105310000Y-73559420D01*
X104290000Y-73840580D02*
X104290000Y-73559420D01*
X107477500Y-88337258D02*
X107477500Y-87862742D01*
X108522500Y-88337258D02*
X108522500Y-87862742D01*
X114059369Y-67751998D02*
X114059369Y-69081998D01*
X112729369Y-67751998D02*
X114059369Y-67751998D01*
X111459369Y-67751998D02*
X91079369Y-67751998D01*
X111459369Y-67751998D02*
X111459369Y-70411998D01*
X91079369Y-67751998D02*
X91079369Y-70411998D01*
X111459369Y-70411998D02*
X91079369Y-70411998D01*
X105552109Y-76484496D02*
X106026625Y-76484496D01*
X105552109Y-77529496D02*
X106026625Y-77529496D01*
X99439367Y-82394257D02*
X99439367Y-81919741D01*
X100484367Y-82394257D02*
X100484367Y-81919741D01*
X105439369Y-80271998D02*
X103639369Y-80271998D01*
X105439369Y-80271998D02*
X106239369Y-80271998D01*
X105439369Y-83391998D02*
X104639369Y-83391998D01*
X105439369Y-83391998D02*
X106239369Y-83391998D01*
X108022500Y-73462742D02*
X108022500Y-73937258D01*
X106977500Y-73462742D02*
X106977500Y-73937258D01*
X113261867Y-76144499D02*
X113261867Y-74344499D01*
X113261867Y-76144499D02*
X113261867Y-76944499D01*
X110141867Y-76144499D02*
X110141867Y-75344499D01*
X110141867Y-76144499D02*
X110141867Y-76944499D01*
X110191868Y-87467875D02*
X110191868Y-89142875D01*
X110191868Y-87467875D02*
X110191868Y-86817875D01*
X113311868Y-87467875D02*
X113311868Y-88117875D01*
X113311868Y-87467875D02*
X113311868Y-86817875D01*
X92589367Y-75460896D02*
X96529367Y-75460896D01*
X96529367Y-72880896D02*
X93089367Y-72880896D01*
X99449364Y-78907580D02*
X99449364Y-78626420D01*
X100469364Y-78907580D02*
X100469364Y-78626420D01*
%LPC*%
D14*
X93400000Y-88600000D03*
X93400000Y-87800000D03*
X95200000Y-87800000D03*
X95200000Y-88600000D03*
D15*
X99300000Y-72875000D03*
X99300000Y-74525000D03*
X102000000Y-72875000D03*
X102000000Y-74525000D03*
D16*
X98500000Y-88725000D03*
X98500000Y-87075000D03*
D17*
X94439369Y-83581999D03*
D18*
X92939369Y-84331999D03*
X92939369Y-83831999D03*
X92939369Y-83331999D03*
X92939369Y-82831999D03*
X95939369Y-82831999D03*
X95939369Y-83331999D03*
X95939369Y-83831999D03*
X95939369Y-84331999D03*
D19*
X110801869Y-82769498D03*
X112701869Y-82769498D03*
X111751869Y-80894498D03*
D20*
X103189371Y-88969499D03*
X102539371Y-88969499D03*
X101889371Y-88969499D03*
X101239371Y-88969499D03*
X101239371Y-86694499D03*
X101889371Y-86694499D03*
X102539371Y-86694499D03*
X103189371Y-86694499D03*
D21*
X92789370Y-78331999D03*
X92789370Y-78831999D03*
X92789370Y-79331999D03*
X96189370Y-79331999D03*
X96189370Y-78831999D03*
X96189370Y-78331999D03*
D22*
X104800000Y-72925000D03*
X104800000Y-74475000D03*
D16*
X108000000Y-88925000D03*
X108000000Y-87275000D03*
D23*
X112729369Y-69081998D03*
D24*
X110189369Y-69081998D03*
X107649369Y-69081998D03*
X105109369Y-69081998D03*
X102569369Y-69081998D03*
X100029369Y-69081998D03*
X97489369Y-69081998D03*
X94949369Y-69081998D03*
X92409369Y-69081998D03*
D25*
X104964367Y-77006996D03*
X106614367Y-77006996D03*
D16*
X99961867Y-82981999D03*
X99961867Y-81331999D03*
D26*
X104301869Y-80881998D03*
X104301869Y-81831998D03*
X104301869Y-82781998D03*
X106576869Y-82781998D03*
X106576869Y-81831998D03*
X106576869Y-80881998D03*
D15*
X107500000Y-72875000D03*
X107500000Y-74525000D03*
D27*
X112651867Y-75006999D03*
X110751867Y-75006999D03*
X111701867Y-77281999D03*
D19*
X110801868Y-88405375D03*
X112701868Y-88405375D03*
X111751868Y-86530375D03*
D28*
X93104367Y-73470896D03*
X94074367Y-73470896D03*
X95044367Y-73470896D03*
X96014367Y-73470896D03*
X96014367Y-74870896D03*
X95044367Y-74870896D03*
X94074367Y-74870896D03*
X93104367Y-74870896D03*
D22*
X99959364Y-79542000D03*
X99959364Y-77992000D03*
%LPD*%
M02*
