G04 #@! TF.GenerationSoftware,KiCad,Pcbnew,7.0.7*
G04 #@! TF.CreationDate,2024-02-13T08:09:53-05:00*
G04 #@! TF.ProjectId,sensor_node,73656e73-6f72-45f6-9e6f-64652e6b6963,rev?*
G04 #@! TF.SameCoordinates,Original*
G04 #@! TF.FileFunction,Copper,L2,Bot*
G04 #@! TF.FilePolarity,Positive*
%FSLAX46Y46*%
G04 Gerber Fmt 4.6, Leading zero omitted, Abs format (unit mm)*
G04 Created by KiCad (PCBNEW 7.0.7) date 2024-02-13 08:09:53*
%MOMM*%
%LPD*%
G01*
G04 APERTURE LIST*
G04 Aperture macros list*
%AMRoundRect*
0 Rectangle with rounded corners*
0 $1 Rounding radius*
0 $2 $3 $4 $5 $6 $7 $8 $9 X,Y pos of 4 corners*
0 Add a 4 corners polygon primitive as box body*
4,1,4,$2,$3,$4,$5,$6,$7,$8,$9,$2,$3,0*
0 Add four circle primitives for the rounded corners*
1,1,$1+$1,$2,$3*
1,1,$1+$1,$4,$5*
1,1,$1+$1,$6,$7*
1,1,$1+$1,$8,$9*
0 Add four rect primitives between the rounded corners*
20,1,$1+$1,$2,$3,$4,$5,0*
20,1,$1+$1,$4,$5,$6,$7,0*
20,1,$1+$1,$6,$7,$8,$9,0*
20,1,$1+$1,$8,$9,$2,$3,0*%
G04 Aperture macros list end*
G04 #@! TA.AperFunction,ComponentPad*
%ADD10R,2.100000X2.100000*%
G04 #@! TD*
G04 #@! TA.AperFunction,ComponentPad*
%ADD11C,2.100000*%
G04 #@! TD*
G04 #@! TA.AperFunction,ComponentPad*
%ADD12R,1.700000X1.700000*%
G04 #@! TD*
G04 #@! TA.AperFunction,ComponentPad*
%ADD13O,1.700000X1.700000*%
G04 #@! TD*
G04 #@! TA.AperFunction,SMDPad,CuDef*
%ADD14RoundRect,0.200000X0.275000X-0.200000X0.275000X0.200000X-0.275000X0.200000X-0.275000X-0.200000X0*%
G04 #@! TD*
G04 #@! TA.AperFunction,SMDPad,CuDef*
%ADD15R,2.500000X1.100000*%
G04 #@! TD*
G04 #@! TA.AperFunction,SMDPad,CuDef*
%ADD16R,1.100000X2.500000*%
G04 #@! TD*
G04 #@! TA.AperFunction,SMDPad,CuDef*
%ADD17R,1.050000X0.650000*%
G04 #@! TD*
G04 #@! TA.AperFunction,SMDPad,CuDef*
%ADD18RoundRect,0.200000X-0.200000X-0.275000X0.200000X-0.275000X0.200000X0.275000X-0.200000X0.275000X0*%
G04 #@! TD*
G04 #@! TA.AperFunction,SMDPad,CuDef*
%ADD19RoundRect,0.200000X0.200000X0.275000X-0.200000X0.275000X-0.200000X-0.275000X0.200000X-0.275000X0*%
G04 #@! TD*
G04 #@! TA.AperFunction,SMDPad,CuDef*
%ADD20RoundRect,0.100000X0.637500X0.100000X-0.637500X0.100000X-0.637500X-0.100000X0.637500X-0.100000X0*%
G04 #@! TD*
G04 #@! TA.AperFunction,SMDPad,CuDef*
%ADD21O,3.048000X1.850000*%
G04 #@! TD*
G04 #@! TA.AperFunction,ViaPad*
%ADD22C,0.500000*%
G04 #@! TD*
G04 #@! TA.AperFunction,Conductor*
%ADD23C,0.130000*%
G04 #@! TD*
G04 APERTURE END LIST*
D10*
X155000000Y-106289087D03*
D11*
X155000000Y-86289087D03*
D12*
X135425000Y-87925000D03*
D13*
X135425000Y-90465000D03*
X135425000Y-93005000D03*
X135425000Y-95545000D03*
X135425000Y-98085000D03*
X135425000Y-100625000D03*
X135425000Y-103165000D03*
X135425000Y-105705000D03*
D14*
X155200000Y-63425000D03*
X155200000Y-61775000D03*
D15*
X152500000Y-61800000D03*
X152500000Y-63800000D03*
X152500000Y-65800000D03*
X152500000Y-67800000D03*
X152500000Y-69800000D03*
X152500000Y-71800000D03*
X152500000Y-73800000D03*
X152500000Y-75800000D03*
X137100000Y-75800000D03*
X137100000Y-73800000D03*
X137100000Y-71800000D03*
X137100000Y-69800000D03*
X137100000Y-67800000D03*
X137100000Y-65800000D03*
X137100000Y-63800000D03*
X137100000Y-61800000D03*
D16*
X149810000Y-77500000D03*
X147810000Y-77500000D03*
X145810000Y-77500000D03*
X143810000Y-77500000D03*
X141810000Y-77500000D03*
X139810000Y-77500000D03*
D17*
X143515000Y-102550000D03*
X147665000Y-102550000D03*
X143515000Y-100400000D03*
X147665000Y-100400000D03*
D18*
X152475000Y-80200000D03*
X154125000Y-80200000D03*
D19*
X146825000Y-74300000D03*
X145175000Y-74300000D03*
D20*
X147962500Y-66275000D03*
X147962500Y-66925000D03*
X147962500Y-67575000D03*
X147962500Y-68225000D03*
X147962500Y-68875000D03*
X147962500Y-69525000D03*
X147962500Y-70175000D03*
X147962500Y-70825000D03*
X147962500Y-71475000D03*
X147962500Y-72125000D03*
X142237500Y-72125000D03*
X142237500Y-71475000D03*
X142237500Y-70825000D03*
X142237500Y-70175000D03*
X142237500Y-69525000D03*
X142237500Y-68875000D03*
X142237500Y-68225000D03*
X142237500Y-67575000D03*
X142237500Y-66925000D03*
X142237500Y-66275000D03*
D21*
X139212500Y-89737500D03*
X151712500Y-89737500D03*
X139212500Y-84737500D03*
X151712500Y-84737500D03*
D17*
X147600000Y-86125000D03*
X143450000Y-86125000D03*
X147600000Y-88275000D03*
X143450000Y-88275000D03*
D21*
X151637500Y-99062500D03*
X139137500Y-99062500D03*
X151637500Y-104062500D03*
X139137500Y-104062500D03*
D22*
X148000000Y-104600000D03*
X138815000Y-64700000D03*
X137900000Y-93500000D03*
X143105000Y-64465500D03*
X136100000Y-80000000D03*
X137600000Y-105500000D03*
X137800000Y-83200000D03*
X145700000Y-70300000D03*
X141900000Y-85900000D03*
X154775500Y-81700000D03*
X145200000Y-81000000D03*
X155200000Y-67300000D03*
X148100000Y-80300000D03*
X150000000Y-74800000D03*
X148000000Y-87300000D03*
X150110000Y-100730000D03*
X154725956Y-78474044D03*
X137990000Y-100850000D03*
X152400000Y-77800000D03*
X144180000Y-103660000D03*
X134914500Y-82900000D03*
X142400000Y-99062500D03*
X142500000Y-89737500D03*
X134449500Y-84200000D03*
X154600000Y-66000000D03*
X140100000Y-69400000D03*
X143514500Y-73000000D03*
X134990000Y-74970000D03*
X138700000Y-70800000D03*
X143000000Y-74100000D03*
X139500000Y-70200000D03*
X144290000Y-64980000D03*
X144115000Y-70400000D03*
X141705000Y-64980000D03*
X148900000Y-62500000D03*
X134200000Y-64600000D03*
X149500000Y-67200000D03*
X149000000Y-61200000D03*
X134600000Y-65400000D03*
D23*
X143514500Y-72148312D02*
X142841188Y-71475000D01*
X142841188Y-71475000D02*
X142237500Y-71475000D01*
X143514500Y-73000000D02*
X143514500Y-72148312D01*
X134015000Y-72985000D02*
X133930000Y-72900000D01*
X141885000Y-72985000D02*
X134015000Y-72985000D01*
X143000000Y-74100000D02*
X143000000Y-72887500D01*
X143000000Y-74100000D02*
X141885000Y-72985000D01*
X143000000Y-72887500D02*
X142237500Y-72125000D01*
X144100000Y-65170000D02*
X144290000Y-64980000D01*
X144100000Y-70385000D02*
X144100000Y-65170000D01*
X144115000Y-70400000D02*
X144100000Y-70385000D01*
X145825000Y-70175000D02*
X147962500Y-70175000D01*
X145700000Y-70300000D02*
X145825000Y-70175000D01*
X154575500Y-81500000D02*
X145700000Y-81500000D01*
X151800000Y-67800000D02*
X154800000Y-67800000D01*
X155200000Y-63425000D02*
X155200000Y-67300000D01*
X154775500Y-81700000D02*
X154575500Y-81500000D01*
X155200000Y-67300000D02*
X155200000Y-67400000D01*
X145700000Y-81500000D02*
X145200000Y-81000000D01*
X154800000Y-67800000D02*
X155200000Y-67400000D01*
X150000000Y-74800000D02*
X149500000Y-74300000D01*
X147700000Y-87600000D02*
X135750000Y-87600000D01*
X152375000Y-80300000D02*
X152475000Y-80200000D01*
X149500000Y-74300000D02*
X146825000Y-74300000D01*
X135750000Y-87600000D02*
X135425000Y-87925000D01*
X148000000Y-87300000D02*
X147700000Y-87600000D01*
X148100000Y-80300000D02*
X152375000Y-80300000D01*
X155400000Y-72370000D02*
X152830000Y-69800000D01*
X150110000Y-100730000D02*
X149640000Y-101200000D01*
X154725956Y-78474044D02*
X155400000Y-77800000D01*
X138340000Y-101200000D02*
X137990000Y-100850000D01*
X152830000Y-69800000D02*
X151800000Y-69800000D01*
X155400000Y-77800000D02*
X155400000Y-72370000D01*
X149640000Y-101200000D02*
X138340000Y-101200000D01*
X152400000Y-77800000D02*
X152400000Y-78475000D01*
X152400000Y-78475000D02*
X154125000Y-80200000D01*
X152400000Y-76400000D02*
X151800000Y-75800000D01*
X152400000Y-77800000D02*
X152400000Y-76400000D01*
X153685000Y-86833778D02*
X153800000Y-86948778D01*
X147940000Y-103770000D02*
X148000000Y-103830000D01*
X143777500Y-104062500D02*
X139212500Y-104062500D01*
X155620000Y-80095701D02*
X155619999Y-83380001D01*
X139075000Y-104400000D02*
X139412500Y-104062500D01*
X151480000Y-103830000D02*
X151712500Y-104062500D01*
X150800000Y-70300000D02*
X151800000Y-71300000D01*
X154344999Y-76751691D02*
X154030000Y-77066690D01*
X147940000Y-102550000D02*
X147940000Y-103770000D01*
X150800000Y-68875000D02*
X150800000Y-70300000D01*
X153800000Y-102175000D02*
X151912500Y-104062500D01*
X154030000Y-78505701D02*
X155620000Y-80095701D01*
X147962500Y-68875000D02*
X150800000Y-68875000D01*
X154344999Y-73314999D02*
X154344999Y-76751691D01*
X153685000Y-85315000D02*
X153685000Y-86833778D01*
X148000000Y-103830000D02*
X151480000Y-103830000D01*
X144180000Y-103660000D02*
X144350000Y-103830000D01*
X144180000Y-103660000D02*
X143777500Y-104062500D01*
X155619999Y-83380001D02*
X153685000Y-85315000D01*
X153800000Y-86948778D02*
X153800000Y-102175000D01*
X143790000Y-102550000D02*
X147940000Y-102550000D01*
X151800000Y-71300000D02*
X151800000Y-71800000D01*
X151800000Y-71800000D02*
X152830000Y-71800000D01*
X154030000Y-77066690D02*
X154030000Y-78505701D01*
X144350000Y-103830000D02*
X148000000Y-103830000D01*
X152830000Y-71800000D02*
X154344999Y-73314999D01*
X134914500Y-82900000D02*
X134914500Y-82914500D01*
X155290000Y-83010000D02*
X153562500Y-84737500D01*
X143725000Y-86125000D02*
X147875000Y-86125000D01*
X147800000Y-84737500D02*
X139487500Y-84737500D01*
X154015000Y-74985000D02*
X154015000Y-76615000D01*
X147875000Y-86125000D02*
X147875000Y-84812500D01*
X148751188Y-69340000D02*
X148886188Y-69205000D01*
X150470000Y-69205000D02*
X150470000Y-72470000D01*
X151800000Y-73800000D02*
X152830000Y-73800000D01*
X151987500Y-84737500D02*
X147800000Y-84737500D01*
X155290000Y-80232391D02*
X155290000Y-83010000D01*
X154517609Y-79460000D02*
X155290000Y-80232391D01*
X136737500Y-84737500D02*
X139487500Y-84737500D01*
X148147500Y-69340000D02*
X148751188Y-69340000D01*
X153851690Y-79460000D02*
X154517609Y-79460000D01*
X148886188Y-69205000D02*
X150470000Y-69205000D01*
X134914500Y-82914500D02*
X136737500Y-84737500D01*
X153700000Y-79308310D02*
X153851690Y-79460000D01*
X152830000Y-73800000D02*
X154015000Y-74985000D01*
X147962500Y-69525000D02*
X148147500Y-69340000D01*
X150470000Y-72470000D02*
X151800000Y-73800000D01*
X147875000Y-84812500D02*
X147800000Y-84737500D01*
X153700000Y-76930000D02*
X153700000Y-79308310D01*
X154015000Y-76615000D02*
X153700000Y-76930000D01*
X153562500Y-84737500D02*
X151987500Y-84737500D01*
X134310000Y-84339500D02*
X134449500Y-84200000D01*
X134310000Y-89040000D02*
X134310000Y-84339500D01*
X147800000Y-99062500D02*
X151712500Y-99062500D01*
X151987500Y-89737500D02*
X147800000Y-89737500D01*
X143790000Y-100400000D02*
X143737500Y-100400000D01*
X139700000Y-99200000D02*
X139700000Y-90000000D01*
X143725000Y-88275000D02*
X147875000Y-88275000D01*
X147940000Y-100400000D02*
X143790000Y-100400000D01*
X139212500Y-99062500D02*
X142400000Y-99062500D01*
X147940000Y-99202500D02*
X147800000Y-99062500D01*
X147875000Y-89662500D02*
X147800000Y-89737500D01*
X147875000Y-88275000D02*
X147875000Y-89662500D01*
X147940000Y-100400000D02*
X147940000Y-99202500D01*
X142400000Y-99062500D02*
X147800000Y-99062500D01*
X138790000Y-89040000D02*
X134310000Y-89040000D01*
X147800000Y-89737500D02*
X139487500Y-89737500D01*
X139487500Y-89737500D02*
X138790000Y-89040000D01*
X152000000Y-66000000D02*
X151800000Y-65800000D01*
X154600000Y-66000000D02*
X152000000Y-66000000D01*
X151825000Y-61775000D02*
X151800000Y-61800000D01*
X155200000Y-61775000D02*
X151825000Y-61775000D01*
X137430000Y-65800000D02*
X136915000Y-65800000D01*
X140100000Y-69400000D02*
X139400000Y-68700000D01*
X133600000Y-68970000D02*
X133600000Y-93720000D01*
X136770000Y-65800000D02*
X133600000Y-68970000D01*
X139400000Y-67770000D02*
X137430000Y-65800000D01*
X139400000Y-68700000D02*
X139400000Y-67770000D01*
X140100000Y-69941188D02*
X141633812Y-71475000D01*
X141633812Y-71475000D02*
X142237500Y-71475000D01*
X133600000Y-93720000D02*
X135425000Y-95545000D01*
X140100000Y-69400000D02*
X140100000Y-69941188D01*
X136160000Y-73800000D02*
X137800000Y-73800000D01*
X134990000Y-74970000D02*
X136160000Y-73800000D01*
X138700000Y-70700000D02*
X137800000Y-69800000D01*
X141425000Y-72125000D02*
X142237500Y-72125000D01*
X133930000Y-72900000D02*
X133930000Y-91510000D01*
X133930000Y-91510000D02*
X135425000Y-93005000D01*
X136600000Y-67800000D02*
X133930000Y-70470000D01*
X139500000Y-70200000D02*
X141425000Y-72125000D01*
X133930000Y-70470000D02*
X133930000Y-72900000D01*
X141705000Y-64980000D02*
X144290000Y-64980000D01*
X145175000Y-73553320D02*
X145175000Y-74300000D01*
X147962500Y-71475000D02*
X147253320Y-71475000D01*
X147253320Y-71475000D02*
X145175000Y-73553320D01*
X146960000Y-64440000D02*
X148900000Y-62500000D01*
X147962500Y-66925000D02*
X147358812Y-66925000D01*
X148900000Y-62500000D02*
X149515000Y-61885000D01*
X146960000Y-66526188D02*
X146960000Y-64440000D01*
X149515000Y-60986680D02*
X149213320Y-60685000D01*
X138915000Y-60685000D02*
X137800000Y-61800000D01*
X134200000Y-64370000D02*
X134200000Y-64600000D01*
X149213320Y-60685000D02*
X138915000Y-60685000D01*
X149515000Y-61885000D02*
X149515000Y-60986680D01*
X136770000Y-61800000D02*
X134200000Y-64370000D01*
X147358812Y-66925000D02*
X146960000Y-66526188D01*
X137800000Y-63800000D02*
X136200000Y-63800000D01*
X149125000Y-67575000D02*
X147962500Y-67575000D01*
X149500000Y-67200000D02*
X149125000Y-67575000D01*
X138900000Y-62700000D02*
X138700000Y-62700000D01*
X138700000Y-62700000D02*
X137800000Y-63600000D01*
X137800000Y-63600000D02*
X137800000Y-63800000D01*
X149000000Y-61200000D02*
X140400000Y-61200000D01*
X140400000Y-61200000D02*
X138900000Y-62700000D01*
X136200000Y-63800000D02*
X134600000Y-65400000D01*
G04 #@! TA.AperFunction,Conductor*
G36*
X138783083Y-60020185D02*
G01*
X138828838Y-60072989D01*
X138838782Y-60142147D01*
X138809757Y-60205703D01*
X138766926Y-60234797D01*
X138767731Y-60236319D01*
X138705190Y-60269372D01*
X138649811Y-60296042D01*
X138642554Y-60300988D01*
X138635450Y-60306232D01*
X138591988Y-60349694D01*
X138546949Y-60391485D01*
X138541156Y-60398749D01*
X138540534Y-60398253D01*
X138530967Y-60410714D01*
X138128500Y-60813181D01*
X138067177Y-60846666D01*
X138040819Y-60849500D01*
X135818482Y-60849500D01*
X135737519Y-60862323D01*
X135724696Y-60864354D01*
X135611658Y-60921950D01*
X135611657Y-60921951D01*
X135611652Y-60921954D01*
X135521954Y-61011652D01*
X135521951Y-61011657D01*
X135464352Y-61124698D01*
X135449500Y-61218475D01*
X135449500Y-62381520D01*
X135450647Y-62388759D01*
X135441687Y-62458052D01*
X135415853Y-62495829D01*
X133891787Y-64019894D01*
X133886600Y-64024530D01*
X133876379Y-64032681D01*
X133856694Y-64045530D01*
X133827761Y-64060715D01*
X133709516Y-64165471D01*
X133619781Y-64295475D01*
X133619780Y-64295476D01*
X133563762Y-64443181D01*
X133544721Y-64599999D01*
X133544721Y-64600000D01*
X133563762Y-64756818D01*
X133619779Y-64904523D01*
X133619780Y-64904523D01*
X133709517Y-65034530D01*
X133807661Y-65121477D01*
X133827762Y-65139285D01*
X133891688Y-65172836D01*
X133941901Y-65221421D01*
X133957875Y-65289440D01*
X133957158Y-65297578D01*
X133944722Y-65399999D01*
X133944721Y-65400000D01*
X133963762Y-65556818D01*
X134019779Y-65704521D01*
X134019780Y-65704523D01*
X134109517Y-65834530D01*
X134227760Y-65939283D01*
X134227762Y-65939284D01*
X134367634Y-66012696D01*
X134521014Y-66050500D01*
X134521015Y-66050500D01*
X134678985Y-66050500D01*
X134832365Y-66012696D01*
X134832364Y-66012695D01*
X134972240Y-65939283D01*
X135090483Y-65834530D01*
X135180220Y-65704523D01*
X135209558Y-65627163D01*
X135251735Y-65571461D01*
X135317333Y-65547403D01*
X135385523Y-65562630D01*
X135434657Y-65612305D01*
X135449500Y-65671134D01*
X135449500Y-66381519D01*
X135450647Y-66388759D01*
X135441687Y-66458052D01*
X135415853Y-66495829D01*
X133291789Y-68619892D01*
X133286602Y-68624528D01*
X133254913Y-68649799D01*
X133254910Y-68649802D01*
X133220295Y-68700573D01*
X133183796Y-68750027D01*
X133179684Y-68757808D01*
X133175863Y-68765742D01*
X133157748Y-68824467D01*
X133137449Y-68882478D01*
X133135809Y-68891146D01*
X133134500Y-68899837D01*
X133134500Y-68961293D01*
X133132201Y-69022707D01*
X133133242Y-69031941D01*
X133132450Y-69032030D01*
X133134499Y-69047609D01*
X133134499Y-93690369D01*
X133134109Y-93697315D01*
X133129570Y-93737603D01*
X133140994Y-93797976D01*
X133150155Y-93858755D01*
X133152745Y-93867150D01*
X133155661Y-93875485D01*
X133184367Y-93929798D01*
X133211038Y-93985183D01*
X133216011Y-93992476D01*
X133221227Y-93999544D01*
X133242954Y-94021270D01*
X133264681Y-94042997D01*
X133285584Y-94065525D01*
X133306487Y-94088054D01*
X133313753Y-94093848D01*
X133313255Y-94094472D01*
X133325721Y-94104037D01*
X134214228Y-94992545D01*
X134247713Y-95053868D01*
X134246322Y-95112319D01*
X134188793Y-95327020D01*
X134188793Y-95327024D01*
X134169723Y-95544997D01*
X134169723Y-95545002D01*
X134188793Y-95762975D01*
X134188793Y-95762979D01*
X134245422Y-95974322D01*
X134245424Y-95974326D01*
X134245425Y-95974330D01*
X134291661Y-96073484D01*
X134337897Y-96172638D01*
X134337898Y-96172639D01*
X134463402Y-96351877D01*
X134618123Y-96506598D01*
X134797361Y-96632101D01*
X134797361Y-96632102D01*
X134948583Y-96702618D01*
X135001022Y-96748790D01*
X135020174Y-96815984D01*
X134999958Y-96882865D01*
X134948583Y-96927382D01*
X134797361Y-96997898D01*
X134797357Y-96997900D01*
X134618121Y-97123402D01*
X134463402Y-97278121D01*
X134337900Y-97457357D01*
X134337898Y-97457361D01*
X134245426Y-97655668D01*
X134245422Y-97655677D01*
X134188793Y-97867020D01*
X134188793Y-97867024D01*
X134169723Y-98084997D01*
X134169723Y-98085002D01*
X134188793Y-98302975D01*
X134188793Y-98302979D01*
X134245422Y-98514322D01*
X134245424Y-98514326D01*
X134245425Y-98514330D01*
X134283388Y-98595742D01*
X134337897Y-98712638D01*
X134337898Y-98712639D01*
X134463402Y-98891877D01*
X134618123Y-99046598D01*
X134797361Y-99172101D01*
X134797361Y-99172102D01*
X134948583Y-99242618D01*
X135001022Y-99288790D01*
X135020174Y-99355984D01*
X134999958Y-99422865D01*
X134948583Y-99467382D01*
X134797361Y-99537898D01*
X134797357Y-99537900D01*
X134618121Y-99663402D01*
X134463402Y-99818121D01*
X134337900Y-99997357D01*
X134337898Y-99997361D01*
X134245426Y-100195668D01*
X134245422Y-100195677D01*
X134188793Y-100407020D01*
X134188793Y-100407024D01*
X134169723Y-100624997D01*
X134169723Y-100625002D01*
X134188793Y-100842975D01*
X134188793Y-100842979D01*
X134245422Y-101054322D01*
X134245424Y-101054326D01*
X134245425Y-101054330D01*
X134291661Y-101153484D01*
X134337897Y-101252638D01*
X134337898Y-101252639D01*
X134463402Y-101431877D01*
X134618123Y-101586598D01*
X134758920Y-101685185D01*
X134797361Y-101712102D01*
X134948583Y-101782618D01*
X135001022Y-101828790D01*
X135020174Y-101895984D01*
X134999958Y-101962865D01*
X134948583Y-102007382D01*
X134797361Y-102077898D01*
X134797357Y-102077900D01*
X134618121Y-102203402D01*
X134463402Y-102358121D01*
X134337900Y-102537357D01*
X134337898Y-102537361D01*
X134245426Y-102735668D01*
X134245422Y-102735677D01*
X134188793Y-102947020D01*
X134188793Y-102947024D01*
X134169723Y-103164997D01*
X134169723Y-103165002D01*
X134188793Y-103382975D01*
X134188793Y-103382979D01*
X134245422Y-103594322D01*
X134245424Y-103594326D01*
X134245425Y-103594330D01*
X134291661Y-103693484D01*
X134337897Y-103792638D01*
X134337898Y-103792639D01*
X134463402Y-103971877D01*
X134618123Y-104126598D01*
X134797360Y-104252101D01*
X134797361Y-104252102D01*
X134948583Y-104322618D01*
X135001022Y-104368790D01*
X135020174Y-104435984D01*
X134999958Y-104502865D01*
X134948583Y-104547382D01*
X134797361Y-104617898D01*
X134797357Y-104617900D01*
X134618121Y-104743402D01*
X134463402Y-104898121D01*
X134337900Y-105077357D01*
X134337898Y-105077361D01*
X134245426Y-105275668D01*
X134245422Y-105275677D01*
X134188793Y-105487020D01*
X134188793Y-105487024D01*
X134169723Y-105704997D01*
X134169723Y-105705002D01*
X134188793Y-105922975D01*
X134188793Y-105922979D01*
X134245422Y-106134322D01*
X134245424Y-106134326D01*
X134245425Y-106134330D01*
X134291661Y-106233484D01*
X134337897Y-106332638D01*
X134337898Y-106332639D01*
X134463402Y-106511877D01*
X134618123Y-106666598D01*
X134797361Y-106792102D01*
X134995670Y-106884575D01*
X135207023Y-106941207D01*
X135389926Y-106957208D01*
X135424998Y-106960277D01*
X135425000Y-106960277D01*
X135425002Y-106960277D01*
X135453254Y-106957805D01*
X135642977Y-106941207D01*
X135854330Y-106884575D01*
X136052639Y-106792102D01*
X136231877Y-106666598D01*
X136386598Y-106511877D01*
X136512102Y-106332639D01*
X136604575Y-106134330D01*
X136661207Y-105922977D01*
X136680277Y-105705000D01*
X136661207Y-105487023D01*
X136604575Y-105275670D01*
X136512102Y-105077362D01*
X136512100Y-105077359D01*
X136512099Y-105077357D01*
X136386599Y-104898124D01*
X136327062Y-104838587D01*
X136231877Y-104743402D01*
X136052639Y-104617898D01*
X135901414Y-104547381D01*
X135848977Y-104501210D01*
X135829825Y-104434016D01*
X135850041Y-104367135D01*
X135901414Y-104322618D01*
X136052639Y-104252102D01*
X136231877Y-104126598D01*
X136386598Y-103971877D01*
X136512102Y-103792639D01*
X136604575Y-103594330D01*
X136661207Y-103382977D01*
X136680277Y-103165000D01*
X136679211Y-103152819D01*
X136669980Y-103047304D01*
X136661207Y-102947023D01*
X136625076Y-102812180D01*
X136604577Y-102735677D01*
X136604576Y-102735676D01*
X136604575Y-102735670D01*
X136512102Y-102537362D01*
X136512100Y-102537359D01*
X136512099Y-102537357D01*
X136386599Y-102358124D01*
X136349007Y-102320532D01*
X136231877Y-102203402D01*
X136052639Y-102077898D01*
X135901414Y-102007381D01*
X135848977Y-101961210D01*
X135829825Y-101894016D01*
X135850041Y-101827135D01*
X135901414Y-101782618D01*
X136052639Y-101712102D01*
X136231877Y-101586598D01*
X136386598Y-101431877D01*
X136512102Y-101252639D01*
X136604575Y-101054330D01*
X136661207Y-100842977D01*
X136680277Y-100625000D01*
X136679008Y-100610500D01*
X136673320Y-100545476D01*
X136661207Y-100407023D01*
X136604575Y-100195670D01*
X136512102Y-99997362D01*
X136512100Y-99997359D01*
X136512099Y-99997357D01*
X136386599Y-99818124D01*
X136315425Y-99746950D01*
X136231877Y-99663402D01*
X136093978Y-99566844D01*
X136052638Y-99537897D01*
X135901416Y-99467381D01*
X135848977Y-99421208D01*
X135829825Y-99354015D01*
X135850041Y-99287134D01*
X135901414Y-99242619D01*
X136052639Y-99172102D01*
X136231877Y-99046598D01*
X136386598Y-98891877D01*
X136512102Y-98712639D01*
X136604575Y-98514330D01*
X136661207Y-98302977D01*
X136680277Y-98085000D01*
X136661207Y-97867023D01*
X136604575Y-97655670D01*
X136512102Y-97457362D01*
X136512100Y-97457359D01*
X136512099Y-97457357D01*
X136386599Y-97278124D01*
X136386596Y-97278121D01*
X136231877Y-97123402D01*
X136052639Y-96997898D01*
X135901414Y-96927381D01*
X135848977Y-96881210D01*
X135829825Y-96814016D01*
X135850041Y-96747135D01*
X135901414Y-96702618D01*
X136052639Y-96632102D01*
X136231877Y-96506598D01*
X136386598Y-96351877D01*
X136512102Y-96172639D01*
X136604575Y-95974330D01*
X136661207Y-95762977D01*
X136680277Y-95545000D01*
X136661207Y-95327023D01*
X136604575Y-95115670D01*
X136512102Y-94917362D01*
X136512100Y-94917359D01*
X136512099Y-94917357D01*
X136386599Y-94738124D01*
X136386598Y-94738123D01*
X136231877Y-94583402D01*
X136052639Y-94457898D01*
X135901414Y-94387381D01*
X135848977Y-94341210D01*
X135829825Y-94274016D01*
X135850041Y-94207135D01*
X135901414Y-94162618D01*
X136052639Y-94092102D01*
X136231877Y-93966598D01*
X136386598Y-93811877D01*
X136512102Y-93632639D01*
X136604575Y-93434330D01*
X136661207Y-93222977D01*
X136680277Y-93005000D01*
X136661207Y-92787023D01*
X136604575Y-92575670D01*
X136512102Y-92377362D01*
X136512100Y-92377359D01*
X136512099Y-92377357D01*
X136386599Y-92198124D01*
X136386598Y-92198123D01*
X136231877Y-92043402D01*
X136052639Y-91917898D01*
X136052633Y-91917895D01*
X136019133Y-91902273D01*
X135966694Y-91856100D01*
X135947543Y-91788907D01*
X135967760Y-91722026D01*
X136019135Y-91677509D01*
X136102580Y-91638598D01*
X136296082Y-91503105D01*
X136463105Y-91336082D01*
X136598600Y-91142578D01*
X136698429Y-90928492D01*
X136698432Y-90928486D01*
X136755636Y-90715000D01*
X136038347Y-90715000D01*
X135971308Y-90695315D01*
X135925553Y-90642511D01*
X135915609Y-90573353D01*
X135919369Y-90556067D01*
X135925000Y-90536888D01*
X135925000Y-90393111D01*
X135919369Y-90373933D01*
X135919370Y-90304064D01*
X135957145Y-90245286D01*
X136020701Y-90216262D01*
X136038347Y-90215000D01*
X136755636Y-90215000D01*
X136755635Y-90214999D01*
X136698432Y-90001513D01*
X136698429Y-90001507D01*
X136598600Y-89787422D01*
X136598599Y-89787420D01*
X136537823Y-89700623D01*
X136515496Y-89634417D01*
X136532506Y-89566650D01*
X136583454Y-89518837D01*
X136639398Y-89505500D01*
X137167912Y-89505500D01*
X137234951Y-89525185D01*
X137280706Y-89577989D01*
X137291440Y-89640307D01*
X137282937Y-89737497D01*
X137282937Y-89737501D01*
X137303150Y-89968544D01*
X137303151Y-89968551D01*
X137363181Y-90192582D01*
X137461199Y-90402781D01*
X137461201Y-90402785D01*
X137594226Y-90592764D01*
X137594231Y-90592770D01*
X137758229Y-90756768D01*
X137758235Y-90756773D01*
X137948214Y-90889798D01*
X137948216Y-90889799D01*
X137948219Y-90889801D01*
X138158421Y-90987820D01*
X138382450Y-91047849D01*
X138555629Y-91063000D01*
X139110500Y-91063000D01*
X139177539Y-91082685D01*
X139223294Y-91135489D01*
X139234500Y-91187000D01*
X139234500Y-97613000D01*
X139214815Y-97680039D01*
X139162011Y-97725794D01*
X139110500Y-97737000D01*
X138480629Y-97737000D01*
X138307455Y-97752150D01*
X138307448Y-97752151D01*
X138083417Y-97812181D01*
X137873218Y-97910199D01*
X137873214Y-97910201D01*
X137683235Y-98043226D01*
X137683229Y-98043231D01*
X137519230Y-98207230D01*
X137386199Y-98397218D01*
X137288181Y-98607419D01*
X137288178Y-98607425D01*
X137228151Y-98831448D01*
X137228150Y-98831455D01*
X137207937Y-99062498D01*
X137207937Y-99062501D01*
X137228150Y-99293544D01*
X137228151Y-99293551D01*
X137288181Y-99517582D01*
X137386199Y-99727781D01*
X137386201Y-99727785D01*
X137519105Y-99917591D01*
X137519230Y-99917769D01*
X137683231Y-100081770D01*
X137683235Y-100081773D01*
X137684246Y-100082622D01*
X137684572Y-100083111D01*
X137687059Y-100085599D01*
X137686559Y-100086098D01*
X137722949Y-100140793D01*
X137724059Y-100210654D01*
X137687223Y-100270025D01*
X137662168Y-100287409D01*
X137617762Y-100310714D01*
X137527161Y-100390980D01*
X137501196Y-100413983D01*
X137499516Y-100415471D01*
X137409781Y-100545475D01*
X137409780Y-100545476D01*
X137353762Y-100693181D01*
X137334722Y-100849999D01*
X137334722Y-100850000D01*
X137353762Y-101006818D01*
X137371782Y-101054331D01*
X137409780Y-101154523D01*
X137499517Y-101284530D01*
X137617760Y-101389283D01*
X137617762Y-101389284D01*
X137757634Y-101462696D01*
X137911014Y-101500500D01*
X137911015Y-101500500D01*
X137924529Y-101500500D01*
X137991568Y-101520185D01*
X138012611Y-101539184D01*
X138012994Y-101538772D01*
X138019803Y-101545090D01*
X138070565Y-101579698D01*
X138120029Y-101616205D01*
X138120031Y-101616205D01*
X138127796Y-101620309D01*
X138135746Y-101624138D01*
X138194455Y-101642247D01*
X138208756Y-101647251D01*
X138252480Y-101662551D01*
X138252482Y-101662551D01*
X138252485Y-101662552D01*
X138261118Y-101664186D01*
X138269836Y-101665499D01*
X138269837Y-101665500D01*
X138331293Y-101665500D01*
X138392707Y-101667798D01*
X138392707Y-101667797D01*
X138392708Y-101667798D01*
X138392708Y-101667797D01*
X138401941Y-101666758D01*
X138402030Y-101667551D01*
X138417610Y-101665500D01*
X142689408Y-101665500D01*
X142756447Y-101685185D01*
X142802202Y-101737989D01*
X142812146Y-101807147D01*
X142783121Y-101870703D01*
X142758591Y-101889897D01*
X142759550Y-101891217D01*
X142751652Y-101896954D01*
X142661954Y-101986652D01*
X142661951Y-101986657D01*
X142604352Y-102099698D01*
X142589500Y-102193475D01*
X142589500Y-102906517D01*
X142595916Y-102947024D01*
X142604354Y-103000304D01*
X142661950Y-103113342D01*
X142661952Y-103113344D01*
X142661954Y-103113347D01*
X142751652Y-103203045D01*
X142751654Y-103203046D01*
X142751658Y-103203050D01*
X142860798Y-103258660D01*
X142864698Y-103260647D01*
X142958475Y-103275499D01*
X142958481Y-103275500D01*
X143450467Y-103275499D01*
X143517505Y-103295183D01*
X143563260Y-103347987D01*
X143573204Y-103417146D01*
X143566408Y-103443469D01*
X143541103Y-103510194D01*
X143539797Y-103509698D01*
X143508733Y-103563054D01*
X143446514Y-103594844D01*
X143423491Y-103597000D01*
X141060958Y-103597000D01*
X140993919Y-103577315D01*
X140948576Y-103525405D01*
X140888801Y-103397219D01*
X140888800Y-103397217D01*
X140755773Y-103207235D01*
X140755768Y-103207229D01*
X140591770Y-103043231D01*
X140591764Y-103043226D01*
X140401785Y-102910201D01*
X140401781Y-102910199D01*
X140191582Y-102812181D01*
X140191579Y-102812180D01*
X140044034Y-102772645D01*
X139967551Y-102752151D01*
X139967544Y-102752150D01*
X139794371Y-102737000D01*
X138480629Y-102737000D01*
X138307455Y-102752150D01*
X138307448Y-102752151D01*
X138083417Y-102812181D01*
X137873218Y-102910199D01*
X137873214Y-102910201D01*
X137683235Y-103043226D01*
X137683229Y-103043231D01*
X137519230Y-103207230D01*
X137386199Y-103397218D01*
X137288181Y-103607419D01*
X137288178Y-103607425D01*
X137228151Y-103831448D01*
X137228150Y-103831455D01*
X137207937Y-104062498D01*
X137207937Y-104062501D01*
X137228150Y-104293544D01*
X137228151Y-104293551D01*
X137256998Y-104401207D01*
X137286082Y-104509751D01*
X137288181Y-104517582D01*
X137386199Y-104727781D01*
X137386201Y-104727785D01*
X137519226Y-104917764D01*
X137519231Y-104917770D01*
X137683229Y-105081768D01*
X137683235Y-105081773D01*
X137873214Y-105214798D01*
X137873216Y-105214799D01*
X137873219Y-105214801D01*
X138083421Y-105312820D01*
X138307450Y-105372849D01*
X138480629Y-105388000D01*
X139794371Y-105388000D01*
X139967550Y-105372849D01*
X140191579Y-105312820D01*
X140401781Y-105214801D01*
X140591769Y-105081770D01*
X140755770Y-104917769D01*
X140888801Y-104727782D01*
X140948575Y-104599595D01*
X140994749Y-104547156D01*
X141060958Y-104528000D01*
X143747874Y-104528000D01*
X143754814Y-104528389D01*
X143786603Y-104531971D01*
X143795101Y-104532929D01*
X143795101Y-104532928D01*
X143795102Y-104532929D01*
X143825289Y-104527217D01*
X143855477Y-104521505D01*
X143881558Y-104517574D01*
X143916258Y-104512344D01*
X143916266Y-104512339D01*
X143924658Y-104509751D01*
X143932972Y-104506841D01*
X143932981Y-104506840D01*
X143987298Y-104478132D01*
X144042687Y-104451459D01*
X144042690Y-104451455D01*
X144042692Y-104451455D01*
X144049947Y-104446508D01*
X144057041Y-104441272D01*
X144057045Y-104441271D01*
X144100498Y-104397817D01*
X144111719Y-104387406D01*
X144152367Y-104349691D01*
X144153522Y-104350936D01*
X144201797Y-104317049D01*
X144241563Y-104310500D01*
X144258985Y-104310500D01*
X144305226Y-104299102D01*
X144334900Y-104295500D01*
X144341293Y-104295500D01*
X144402707Y-104297798D01*
X144402707Y-104297797D01*
X144402708Y-104297798D01*
X144402708Y-104297797D01*
X144411941Y-104296758D01*
X144412030Y-104297551D01*
X144427610Y-104295500D01*
X147929837Y-104295500D01*
X147991293Y-104295500D01*
X148052707Y-104297798D01*
X148052707Y-104297797D01*
X148052708Y-104297798D01*
X148052708Y-104297797D01*
X148061941Y-104296758D01*
X148062030Y-104297551D01*
X148077610Y-104295500D01*
X149633525Y-104295500D01*
X149700564Y-104315185D01*
X149746319Y-104367989D01*
X149753300Y-104387406D01*
X149788178Y-104517574D01*
X149788179Y-104517576D01*
X149788180Y-104517579D01*
X149826425Y-104599595D01*
X149886199Y-104727781D01*
X149886201Y-104727785D01*
X150019226Y-104917764D01*
X150019231Y-104917770D01*
X150183229Y-105081768D01*
X150183235Y-105081773D01*
X150373214Y-105214798D01*
X150373216Y-105214799D01*
X150373219Y-105214801D01*
X150583421Y-105312820D01*
X150807450Y-105372849D01*
X150980629Y-105388000D01*
X152294371Y-105388000D01*
X152467550Y-105372849D01*
X152691579Y-105312820D01*
X152901781Y-105214801D01*
X153091769Y-105081770D01*
X153255770Y-104917769D01*
X153388801Y-104727782D01*
X153486820Y-104517579D01*
X153546849Y-104293550D01*
X153567063Y-104062500D01*
X153546849Y-103831450D01*
X153486820Y-103607421D01*
X153388801Y-103397219D01*
X153385590Y-103392633D01*
X153363263Y-103326427D01*
X153380275Y-103258660D01*
X153399481Y-103233834D01*
X154108223Y-102525092D01*
X154113395Y-102520472D01*
X154114376Y-102519689D01*
X154145090Y-102495197D01*
X154179703Y-102444427D01*
X154216204Y-102394971D01*
X154216204Y-102394968D01*
X154220312Y-102387195D01*
X154224131Y-102379263D01*
X154224138Y-102379254D01*
X154242251Y-102320532D01*
X154262551Y-102262520D01*
X154262551Y-102262518D01*
X154262552Y-102262516D01*
X154264183Y-102253893D01*
X154265500Y-102245162D01*
X154265500Y-102183706D01*
X154267798Y-102122293D01*
X154266758Y-102113061D01*
X154267549Y-102112971D01*
X154265500Y-102097391D01*
X154265500Y-87848134D01*
X154285185Y-87781095D01*
X154337989Y-87735340D01*
X154407147Y-87725396D01*
X154436954Y-87733573D01*
X154519544Y-87767783D01*
X154756780Y-87824738D01*
X154756779Y-87824738D01*
X155000000Y-87843879D01*
X155243219Y-87824738D01*
X155480457Y-87767783D01*
X155705861Y-87674418D01*
X155907942Y-87550581D01*
X155363234Y-87005874D01*
X155329749Y-86944551D01*
X155334733Y-86874860D01*
X155376604Y-86818926D01*
X155377949Y-86817934D01*
X155448492Y-86766682D01*
X155534871Y-86662267D01*
X155592768Y-86623161D01*
X155662620Y-86621565D01*
X155718094Y-86653628D01*
X156261494Y-87197029D01*
X156385331Y-86994948D01*
X156478696Y-86769544D01*
X156514926Y-86618635D01*
X156549717Y-86558043D01*
X156611743Y-86525879D01*
X156681312Y-86532355D01*
X156736336Y-86575414D01*
X156759345Y-86641387D01*
X156759500Y-86647582D01*
X156759500Y-107875500D01*
X156739815Y-107942539D01*
X156687011Y-107988294D01*
X156635500Y-107999500D01*
X132824000Y-107999500D01*
X132756961Y-107979815D01*
X132711206Y-107927011D01*
X132700000Y-107875500D01*
X132700000Y-107370604D01*
X153549500Y-107370604D01*
X153560292Y-107438744D01*
X153564354Y-107464391D01*
X153621950Y-107577429D01*
X153621952Y-107577431D01*
X153621954Y-107577434D01*
X153711652Y-107667132D01*
X153711654Y-107667133D01*
X153711658Y-107667137D01*
X153824694Y-107724732D01*
X153824698Y-107724734D01*
X153918475Y-107739586D01*
X153918481Y-107739587D01*
X156081518Y-107739586D01*
X156175304Y-107724733D01*
X156288342Y-107667137D01*
X156378050Y-107577429D01*
X156435646Y-107464391D01*
X156435646Y-107464389D01*
X156435647Y-107464388D01*
X156450499Y-107370611D01*
X156450500Y-107370606D01*
X156450499Y-105207569D01*
X156435646Y-105113783D01*
X156378050Y-105000745D01*
X156378046Y-105000741D01*
X156378045Y-105000739D01*
X156288347Y-104911041D01*
X156288344Y-104911039D01*
X156288342Y-104911037D01*
X156211517Y-104871892D01*
X156175301Y-104853439D01*
X156081524Y-104838587D01*
X153918482Y-104838587D01*
X153837519Y-104851410D01*
X153824696Y-104853441D01*
X153711658Y-104911037D01*
X153711657Y-104911038D01*
X153711652Y-104911041D01*
X153621954Y-105000739D01*
X153621951Y-105000744D01*
X153564352Y-105113785D01*
X153549500Y-105207562D01*
X153549500Y-107370604D01*
X132700000Y-107370604D01*
X132700000Y-60124500D01*
X132719685Y-60057461D01*
X132772489Y-60011706D01*
X132824000Y-60000500D01*
X138716044Y-60000500D01*
X138783083Y-60020185D01*
G37*
G04 #@! TD.AperFunction*
G04 #@! TA.AperFunction,Conductor*
G36*
X135280119Y-83941665D02*
G01*
X135298486Y-83956802D01*
X136387387Y-85045703D01*
X136392024Y-85050891D01*
X136417302Y-85082589D01*
X136417303Y-85082590D01*
X136468082Y-85117210D01*
X136517529Y-85153704D01*
X136525317Y-85157820D01*
X136533246Y-85161638D01*
X136591967Y-85179751D01*
X136649980Y-85200051D01*
X136649982Y-85200051D01*
X136658618Y-85201686D01*
X136667336Y-85202999D01*
X136667337Y-85203000D01*
X136728793Y-85203000D01*
X136790207Y-85205298D01*
X136790207Y-85205297D01*
X136790208Y-85205298D01*
X136790208Y-85205297D01*
X136799441Y-85204258D01*
X136799530Y-85205051D01*
X136815110Y-85203000D01*
X137289042Y-85203000D01*
X137356081Y-85222685D01*
X137401424Y-85274595D01*
X137461198Y-85402780D01*
X137461199Y-85402782D01*
X137594226Y-85592764D01*
X137594231Y-85592770D01*
X137758229Y-85756768D01*
X137758235Y-85756773D01*
X137948214Y-85889798D01*
X137948216Y-85889799D01*
X137948219Y-85889801D01*
X138158421Y-85987820D01*
X138382450Y-86047849D01*
X138555629Y-86063000D01*
X139869371Y-86063000D01*
X140042550Y-86047849D01*
X140266579Y-85987820D01*
X140476781Y-85889801D01*
X140666769Y-85756770D01*
X140830770Y-85592769D01*
X140963801Y-85402782D01*
X141023575Y-85274595D01*
X141069749Y-85222156D01*
X141135958Y-85203000D01*
X142698006Y-85203000D01*
X142765045Y-85222685D01*
X142810800Y-85275489D01*
X142820744Y-85344647D01*
X142791719Y-85408203D01*
X142754304Y-85437482D01*
X142709501Y-85460311D01*
X142686656Y-85471951D01*
X142686652Y-85471954D01*
X142596954Y-85561652D01*
X142596951Y-85561657D01*
X142596950Y-85561658D01*
X142585961Y-85583225D01*
X142539352Y-85674698D01*
X142524500Y-85768475D01*
X142524500Y-86481517D01*
X142532552Y-86532355D01*
X142539354Y-86575304D01*
X142596950Y-86688342D01*
X142596952Y-86688344D01*
X142596954Y-86688347D01*
X142686652Y-86778045D01*
X142686654Y-86778046D01*
X142686658Y-86778050D01*
X142799694Y-86835645D01*
X142799698Y-86835647D01*
X142893475Y-86850499D01*
X142893481Y-86850500D01*
X144006518Y-86850499D01*
X144100304Y-86835646D01*
X144213342Y-86778050D01*
X144303050Y-86688342D01*
X144318406Y-86658203D01*
X144366380Y-86607409D01*
X144428890Y-86590500D01*
X146621110Y-86590500D01*
X146688149Y-86610185D01*
X146731593Y-86658203D01*
X146746950Y-86688342D01*
X146746952Y-86688344D01*
X146746954Y-86688347D01*
X146836652Y-86778045D01*
X146836654Y-86778046D01*
X146836658Y-86778050D01*
X146949694Y-86835645D01*
X146949698Y-86835647D01*
X147043475Y-86850499D01*
X147043481Y-86850500D01*
X147295119Y-86850499D01*
X147362157Y-86870183D01*
X147407912Y-86922987D01*
X147417856Y-86992146D01*
X147411060Y-87018469D01*
X147397407Y-87054470D01*
X147355230Y-87110173D01*
X147289633Y-87134231D01*
X147281465Y-87134500D01*
X136795821Y-87134500D01*
X136728782Y-87114815D01*
X136683027Y-87062011D01*
X136673347Y-87029896D01*
X136660646Y-86949696D01*
X136603050Y-86836658D01*
X136603046Y-86836654D01*
X136603045Y-86836652D01*
X136513347Y-86746954D01*
X136513344Y-86746952D01*
X136513342Y-86746950D01*
X136434359Y-86706706D01*
X136400301Y-86689352D01*
X136306524Y-86674500D01*
X136306519Y-86674500D01*
X134899500Y-86674500D01*
X134832461Y-86654815D01*
X134786706Y-86602011D01*
X134775500Y-86550500D01*
X134775500Y-84836055D01*
X134795185Y-84769016D01*
X134817274Y-84743239D01*
X134821738Y-84739283D01*
X134821740Y-84739283D01*
X134939983Y-84634530D01*
X135029720Y-84504523D01*
X135085737Y-84356818D01*
X135104778Y-84200000D01*
X135087709Y-84059427D01*
X135099169Y-83990507D01*
X135146073Y-83938720D01*
X135213528Y-83920513D01*
X135280119Y-83941665D01*
G37*
G04 #@! TD.AperFunction*
G04 #@! TA.AperFunction,Conductor*
G36*
X156702539Y-60020185D02*
G01*
X156748294Y-60072989D01*
X156759500Y-60124500D01*
X156759500Y-85930591D01*
X156739815Y-85997630D01*
X156687011Y-86043385D01*
X156617853Y-86053329D01*
X156554297Y-86024304D01*
X156516523Y-85965526D01*
X156514926Y-85959538D01*
X156478696Y-85808629D01*
X156385331Y-85583225D01*
X156261494Y-85381143D01*
X155717667Y-85924971D01*
X155656344Y-85958456D01*
X155586652Y-85953472D01*
X155530719Y-85911600D01*
X155525290Y-85903733D01*
X155516448Y-85889800D01*
X155504814Y-85871468D01*
X155385097Y-85759047D01*
X155381732Y-85756602D01*
X155379731Y-85754007D01*
X155379410Y-85753706D01*
X155379458Y-85753654D01*
X155339064Y-85701274D01*
X155333082Y-85631661D01*
X155365685Y-85569865D01*
X155366932Y-85568600D01*
X155907942Y-85027591D01*
X155705861Y-84903755D01*
X155480457Y-84810390D01*
X155243219Y-84753435D01*
X155243220Y-84753435D01*
X155197712Y-84749854D01*
X155132424Y-84724970D01*
X155090953Y-84668739D01*
X155086466Y-84599014D01*
X155119758Y-84538557D01*
X155928222Y-83730093D01*
X155933394Y-83725473D01*
X155942475Y-83718231D01*
X155965089Y-83700198D01*
X155999697Y-83649435D01*
X156036204Y-83599972D01*
X156036204Y-83599969D01*
X156036206Y-83599968D01*
X156040300Y-83592221D01*
X156044133Y-83584259D01*
X156044137Y-83584255D01*
X156051945Y-83558940D01*
X156062246Y-83525545D01*
X156075670Y-83487181D01*
X156082550Y-83467521D01*
X156082550Y-83467518D01*
X156084182Y-83458894D01*
X156085499Y-83450163D01*
X156085499Y-83388707D01*
X156087797Y-83327294D01*
X156086757Y-83318062D01*
X156087548Y-83317972D01*
X156085499Y-83302392D01*
X156085499Y-80125329D01*
X156085889Y-80118380D01*
X156090429Y-80078099D01*
X156079003Y-80017713D01*
X156069844Y-79956943D01*
X156069844Y-79956942D01*
X156067253Y-79948545D01*
X156064341Y-79940221D01*
X156064341Y-79940220D01*
X156035627Y-79885890D01*
X156008959Y-79830514D01*
X156008956Y-79830511D01*
X156004003Y-79823245D01*
X155998772Y-79816156D01*
X155977045Y-79794430D01*
X155955318Y-79772703D01*
X155913513Y-79727648D01*
X155913512Y-79727647D01*
X155913510Y-79727645D01*
X155906247Y-79721853D01*
X155906744Y-79721229D01*
X155894279Y-79711664D01*
X155238363Y-79055748D01*
X155204878Y-78994425D01*
X155209862Y-78924733D01*
X155223988Y-78897636D01*
X155306176Y-78778567D01*
X155362193Y-78630862D01*
X155375656Y-78519977D01*
X155403277Y-78455801D01*
X155411060Y-78447255D01*
X155708223Y-78150092D01*
X155713395Y-78145472D01*
X155714376Y-78144689D01*
X155745090Y-78120197D01*
X155779703Y-78069427D01*
X155816204Y-78019971D01*
X155816204Y-78019968D01*
X155820312Y-78012195D01*
X155824131Y-78004263D01*
X155824138Y-78004254D01*
X155842251Y-77945532D01*
X155862551Y-77887520D01*
X155862551Y-77887518D01*
X155862552Y-77887516D01*
X155864183Y-77878893D01*
X155865500Y-77870162D01*
X155865500Y-77808706D01*
X155867798Y-77747293D01*
X155866758Y-77738061D01*
X155867549Y-77737971D01*
X155865500Y-77722391D01*
X155865500Y-72399624D01*
X155865889Y-72392685D01*
X155870429Y-72352398D01*
X155859005Y-72292023D01*
X155849844Y-72231242D01*
X155849841Y-72231236D01*
X155847255Y-72222853D01*
X155844340Y-72214519D01*
X155815632Y-72160201D01*
X155788958Y-72104811D01*
X155784003Y-72097545D01*
X155778772Y-72090457D01*
X155778771Y-72090455D01*
X155735318Y-72047002D01*
X155693513Y-72001947D01*
X155693512Y-72001946D01*
X155693510Y-72001944D01*
X155686247Y-71996152D01*
X155686744Y-71995528D01*
X155674279Y-71985963D01*
X154184146Y-70495830D01*
X154150661Y-70434507D01*
X154149355Y-70388745D01*
X154150500Y-70381519D01*
X154150499Y-69218482D01*
X154135646Y-69124696D01*
X154078050Y-69011658D01*
X154078046Y-69011654D01*
X154078045Y-69011652D01*
X153988347Y-68921954D01*
X153988342Y-68921950D01*
X153965837Y-68910483D01*
X153915042Y-68862507D01*
X153898248Y-68794686D01*
X153920787Y-68728551D01*
X153965838Y-68689516D01*
X153988342Y-68678050D01*
X154078050Y-68588342D01*
X154135646Y-68475304D01*
X154135646Y-68475302D01*
X154135647Y-68475301D01*
X154150498Y-68381531D01*
X154150500Y-68381519D01*
X154150500Y-68381505D01*
X154150636Y-68379786D01*
X154150874Y-68379160D01*
X154151263Y-68376707D01*
X154151778Y-68376788D01*
X154175512Y-68314495D01*
X154231738Y-68273017D01*
X154274255Y-68265500D01*
X154770374Y-68265500D01*
X154777314Y-68265889D01*
X154809103Y-68269471D01*
X154817601Y-68270429D01*
X154817601Y-68270428D01*
X154817602Y-68270429D01*
X154847789Y-68264717D01*
X154877977Y-68259005D01*
X154903672Y-68255132D01*
X154938758Y-68249844D01*
X154938766Y-68249839D01*
X154947158Y-68247251D01*
X154955472Y-68244341D01*
X154955481Y-68244340D01*
X155009798Y-68215632D01*
X155065187Y-68188959D01*
X155065190Y-68188955D01*
X155065192Y-68188955D01*
X155072447Y-68184008D01*
X155079541Y-68178772D01*
X155079545Y-68178771D01*
X155122997Y-68135318D01*
X155168053Y-68093513D01*
X155168055Y-68093509D01*
X155173847Y-68086247D01*
X155174474Y-68086747D01*
X155184035Y-68074279D01*
X155292804Y-67965510D01*
X155350808Y-67932797D01*
X155432365Y-67912696D01*
X155572240Y-67839283D01*
X155690483Y-67734530D01*
X155780220Y-67604523D01*
X155836237Y-67456818D01*
X155855278Y-67300000D01*
X155843946Y-67206667D01*
X155836237Y-67143181D01*
X155810955Y-67076520D01*
X155780220Y-66995477D01*
X155690483Y-66865470D01*
X155690482Y-66865469D01*
X155687450Y-66861076D01*
X155665567Y-66794721D01*
X155665500Y-66790636D01*
X155665500Y-64278923D01*
X155685185Y-64211884D01*
X155737989Y-64166129D01*
X155742048Y-64164362D01*
X155752986Y-64159831D01*
X155777841Y-64149536D01*
X155903282Y-64053282D01*
X155999536Y-63927841D01*
X156060044Y-63781762D01*
X156075500Y-63664361D01*
X156075499Y-63185640D01*
X156075499Y-63185639D01*
X156075499Y-63185636D01*
X156060046Y-63068246D01*
X156060044Y-63068241D01*
X156060044Y-63068238D01*
X155999536Y-62922159D01*
X155903282Y-62796718D01*
X155879733Y-62778648D01*
X155775119Y-62698374D01*
X155733917Y-62641946D01*
X155729762Y-62572200D01*
X155763975Y-62511280D01*
X155775120Y-62501623D01*
X155777838Y-62499537D01*
X155777841Y-62499536D01*
X155903282Y-62403282D01*
X155999536Y-62277841D01*
X156060044Y-62131762D01*
X156075500Y-62014361D01*
X156075499Y-61535640D01*
X156075499Y-61535636D01*
X156060046Y-61418246D01*
X156060044Y-61418241D01*
X156060044Y-61418238D01*
X155999536Y-61272159D01*
X155903282Y-61146718D01*
X155777841Y-61050464D01*
X155631762Y-60989956D01*
X155631760Y-60989955D01*
X155514361Y-60974500D01*
X154885636Y-60974500D01*
X154768246Y-60989953D01*
X154768237Y-60989956D01*
X154622160Y-61050463D01*
X154622158Y-61050464D01*
X154622159Y-61050464D01*
X154496718Y-61146718D01*
X154438194Y-61222989D01*
X154409037Y-61260987D01*
X154352609Y-61302189D01*
X154310661Y-61309500D01*
X154270821Y-61309500D01*
X154203782Y-61289815D01*
X154158027Y-61237011D01*
X154148347Y-61204896D01*
X154145484Y-61186819D01*
X154135646Y-61124696D01*
X154078050Y-61011658D01*
X154078046Y-61011654D01*
X154078045Y-61011652D01*
X153988347Y-60921954D01*
X153988344Y-60921952D01*
X153988342Y-60921950D01*
X153911517Y-60882805D01*
X153875301Y-60864352D01*
X153781524Y-60849500D01*
X151218482Y-60849500D01*
X151137519Y-60862323D01*
X151124696Y-60864354D01*
X151011658Y-60921950D01*
X151011657Y-60921951D01*
X151011652Y-60921954D01*
X150921954Y-61011652D01*
X150921951Y-61011657D01*
X150864352Y-61124698D01*
X150849500Y-61218475D01*
X150849500Y-62381517D01*
X150860292Y-62449657D01*
X150864354Y-62475304D01*
X150921950Y-62588342D01*
X150921952Y-62588344D01*
X150921954Y-62588347D01*
X151011652Y-62678045D01*
X151011655Y-62678047D01*
X151011658Y-62678050D01*
X151030574Y-62687688D01*
X151034161Y-62689516D01*
X151084956Y-62737490D01*
X151101751Y-62805312D01*
X151079213Y-62871446D01*
X151034161Y-62910484D01*
X151011659Y-62921949D01*
X151011652Y-62921954D01*
X150921954Y-63011652D01*
X150921951Y-63011657D01*
X150921950Y-63011658D01*
X150909895Y-63035317D01*
X150864352Y-63124698D01*
X150849500Y-63218475D01*
X150849500Y-64381517D01*
X150857384Y-64431293D01*
X150864354Y-64475304D01*
X150921950Y-64588342D01*
X150921952Y-64588344D01*
X150921954Y-64588347D01*
X151011652Y-64678045D01*
X151011655Y-64678047D01*
X151011658Y-64678050D01*
X151023685Y-64684178D01*
X151034161Y-64689516D01*
X151084956Y-64737490D01*
X151101751Y-64805312D01*
X151079213Y-64871446D01*
X151034161Y-64910484D01*
X151011659Y-64921949D01*
X151011652Y-64921954D01*
X150921954Y-65011652D01*
X150921951Y-65011657D01*
X150864352Y-65124698D01*
X150849500Y-65218475D01*
X150849500Y-66381517D01*
X150857893Y-66434507D01*
X150864354Y-66475304D01*
X150921950Y-66588342D01*
X150921952Y-66588344D01*
X150921954Y-66588347D01*
X151011652Y-66678045D01*
X151011655Y-66678047D01*
X151011658Y-66678050D01*
X151018761Y-66681669D01*
X151034161Y-66689516D01*
X151084956Y-66737490D01*
X151101751Y-66805312D01*
X151079213Y-66871446D01*
X151034161Y-66910484D01*
X151011659Y-66921949D01*
X151011652Y-66921954D01*
X150921954Y-67011652D01*
X150921951Y-67011657D01*
X150864352Y-67124698D01*
X150849500Y-67218475D01*
X150849500Y-67218478D01*
X150849500Y-67218481D01*
X150849500Y-67799624D01*
X150849501Y-68285500D01*
X150829817Y-68352539D01*
X150777013Y-68398294D01*
X150725501Y-68409500D01*
X149224500Y-68409500D01*
X149157461Y-68389815D01*
X149111706Y-68337011D01*
X149100500Y-68285501D01*
X149100499Y-68156162D01*
X149120183Y-68089122D01*
X149172987Y-68043367D01*
X149206018Y-68033546D01*
X149263758Y-68024844D01*
X149263764Y-68024840D01*
X149272158Y-68022251D01*
X149280472Y-68019341D01*
X149280481Y-68019340D01*
X149334798Y-67990632D01*
X149390187Y-67963959D01*
X149390190Y-67963955D01*
X149390192Y-67963955D01*
X149397447Y-67959008D01*
X149404541Y-67953772D01*
X149404545Y-67953771D01*
X149447998Y-67910317D01*
X149476791Y-67883601D01*
X149539324Y-67852433D01*
X149561132Y-67850500D01*
X149578985Y-67850500D01*
X149732365Y-67812696D01*
X149757271Y-67799624D01*
X149872240Y-67739283D01*
X149990483Y-67634530D01*
X150080220Y-67504523D01*
X150136237Y-67356818D01*
X150155278Y-67200000D01*
X150139843Y-67072876D01*
X150136237Y-67043181D01*
X150090261Y-66921954D01*
X150080220Y-66895477D01*
X149990483Y-66765470D01*
X149872240Y-66660717D01*
X149872238Y-66660716D01*
X149872237Y-66660715D01*
X149732365Y-66587303D01*
X149578986Y-66549500D01*
X149578985Y-66549500D01*
X149421015Y-66549500D01*
X149421014Y-66549500D01*
X149267634Y-66587303D01*
X149263816Y-66588752D01*
X149260823Y-66588982D01*
X149260351Y-66589099D01*
X149260331Y-66589020D01*
X149194152Y-66594119D01*
X149132646Y-66560971D01*
X149098825Y-66499833D01*
X149096556Y-66459554D01*
X149100500Y-66422873D01*
X149100499Y-66127128D01*
X149094091Y-66067517D01*
X149043796Y-65932669D01*
X149043795Y-65932668D01*
X149043793Y-65932664D01*
X148957547Y-65817455D01*
X148957544Y-65817452D01*
X148842335Y-65731206D01*
X148842328Y-65731202D01*
X148707482Y-65680908D01*
X148707483Y-65680908D01*
X148647883Y-65674501D01*
X148647881Y-65674500D01*
X148647873Y-65674500D01*
X148647865Y-65674500D01*
X147549500Y-65674500D01*
X147482461Y-65654815D01*
X147436706Y-65602011D01*
X147425500Y-65550500D01*
X147425500Y-64684178D01*
X147445185Y-64617139D01*
X147461819Y-64596497D01*
X148871497Y-63186819D01*
X148932820Y-63153334D01*
X148959178Y-63150500D01*
X148978985Y-63150500D01*
X149132365Y-63112696D01*
X149177599Y-63088955D01*
X149272240Y-63039283D01*
X149390483Y-62934530D01*
X149480220Y-62804523D01*
X149536237Y-62656818D01*
X149549700Y-62545932D01*
X149577321Y-62481756D01*
X149585104Y-62473210D01*
X149823218Y-62235096D01*
X149828390Y-62230476D01*
X149829392Y-62229676D01*
X149860090Y-62205197D01*
X149894710Y-62154417D01*
X149931204Y-62104971D01*
X149931206Y-62104963D01*
X149935318Y-62097183D01*
X149939131Y-62089263D01*
X149939138Y-62089254D01*
X149957251Y-62030532D01*
X149977551Y-61972520D01*
X149977551Y-61972517D01*
X149977552Y-61972515D01*
X149979183Y-61963895D01*
X149980500Y-61955162D01*
X149980500Y-61893707D01*
X149982798Y-61832294D01*
X149981758Y-61823062D01*
X149982549Y-61822972D01*
X149980500Y-61807392D01*
X149980500Y-61016304D01*
X149980889Y-61009365D01*
X149985429Y-60969078D01*
X149974005Y-60908703D01*
X149964844Y-60847922D01*
X149964841Y-60847916D01*
X149962255Y-60839533D01*
X149959340Y-60831199D01*
X149930632Y-60776881D01*
X149903958Y-60721491D01*
X149899003Y-60714225D01*
X149893772Y-60707137D01*
X149893771Y-60707135D01*
X149850317Y-60663681D01*
X149808513Y-60618627D01*
X149808512Y-60618626D01*
X149808509Y-60618623D01*
X149801250Y-60612834D01*
X149801746Y-60612211D01*
X149789282Y-60602645D01*
X149789281Y-60602645D01*
X149563414Y-60376777D01*
X149558796Y-60371609D01*
X149533517Y-60339910D01*
X149484120Y-60306232D01*
X149482746Y-60305295D01*
X149470207Y-60296041D01*
X149433291Y-60268796D01*
X149433288Y-60268795D01*
X149433287Y-60268794D01*
X149425513Y-60264685D01*
X149417574Y-60260861D01*
X149369979Y-60246180D01*
X149358852Y-60242748D01*
X149357031Y-60242110D01*
X149355395Y-60241538D01*
X149298622Y-60200812D01*
X149272879Y-60135858D01*
X149286341Y-60067297D01*
X149334732Y-60016898D01*
X149396358Y-60000500D01*
X156635500Y-60000500D01*
X156702539Y-60020185D01*
G37*
G04 #@! TD.AperFunction*
G04 #@! TA.AperFunction,Conductor*
G36*
X148564487Y-61685185D02*
G01*
X148579674Y-61696684D01*
X148613049Y-61726251D01*
X148650176Y-61785440D01*
X148649410Y-61855305D01*
X148610993Y-61913665D01*
X148588451Y-61928863D01*
X148527760Y-61960717D01*
X148409516Y-62065471D01*
X148319781Y-62195475D01*
X148319780Y-62195476D01*
X148263763Y-62343178D01*
X148263762Y-62343183D01*
X148250298Y-62454065D01*
X148222675Y-62518243D01*
X148214883Y-62526798D01*
X146651789Y-64089892D01*
X146646602Y-64094528D01*
X146614913Y-64119799D01*
X146614910Y-64119802D01*
X146580295Y-64170573D01*
X146543796Y-64220027D01*
X146539684Y-64227808D01*
X146535863Y-64235742D01*
X146517748Y-64294467D01*
X146497449Y-64352478D01*
X146495809Y-64361146D01*
X146494500Y-64369837D01*
X146494500Y-64431293D01*
X146492201Y-64492707D01*
X146493242Y-64501941D01*
X146492448Y-64502030D01*
X146494500Y-64517609D01*
X146494500Y-66496561D01*
X146494110Y-66503509D01*
X146489570Y-66543790D01*
X146500994Y-66604165D01*
X146510155Y-66664943D01*
X146512745Y-66673338D01*
X146515661Y-66681673D01*
X146544367Y-66735986D01*
X146571038Y-66791371D01*
X146576011Y-66798664D01*
X146581227Y-66805732D01*
X146602954Y-66827458D01*
X146624681Y-66849185D01*
X146645336Y-66871446D01*
X146666487Y-66894242D01*
X146673753Y-66900036D01*
X146673255Y-66900660D01*
X146685721Y-66910225D01*
X146790693Y-67015197D01*
X146824178Y-67076520D01*
X146826302Y-67089625D01*
X146830908Y-67132483D01*
X146858577Y-67206667D01*
X146863561Y-67276358D01*
X146858577Y-67293331D01*
X146830910Y-67367511D01*
X146830909Y-67367515D01*
X146830909Y-67367517D01*
X146824500Y-67427127D01*
X146824500Y-67427134D01*
X146824500Y-67427135D01*
X146824500Y-67722869D01*
X146824501Y-67722876D01*
X146830908Y-67782483D01*
X146858577Y-67856667D01*
X146863561Y-67926358D01*
X146858577Y-67943331D01*
X146830910Y-68017511D01*
X146830909Y-68017515D01*
X146830909Y-68017517D01*
X146824500Y-68077127D01*
X146824500Y-68077134D01*
X146824500Y-68077135D01*
X146824500Y-68372869D01*
X146824501Y-68372876D01*
X146830908Y-68432483D01*
X146858577Y-68506667D01*
X146863561Y-68576358D01*
X146858577Y-68593331D01*
X146830910Y-68667511D01*
X146830909Y-68667515D01*
X146830909Y-68667517D01*
X146824500Y-68727127D01*
X146824500Y-68727134D01*
X146824500Y-68727135D01*
X146824500Y-69022869D01*
X146824501Y-69022876D01*
X146830908Y-69082483D01*
X146858577Y-69156667D01*
X146863561Y-69226358D01*
X146858577Y-69243331D01*
X146830910Y-69317511D01*
X146830909Y-69317515D01*
X146830909Y-69317517D01*
X146824500Y-69377127D01*
X146824500Y-69377134D01*
X146824500Y-69377135D01*
X146824500Y-69672869D01*
X146824501Y-69672886D01*
X146825680Y-69683850D01*
X146813271Y-69752609D01*
X146801188Y-69771912D01*
X146800900Y-69772410D01*
X146740444Y-69918368D01*
X146732987Y-69975000D01*
X146916103Y-69975000D01*
X146983142Y-69994685D01*
X146990403Y-69999726D01*
X147027008Y-70027128D01*
X147089770Y-70074112D01*
X147088070Y-70076381D01*
X147127264Y-70115580D01*
X147142111Y-70183854D01*
X147117690Y-70249317D01*
X147088690Y-70274445D01*
X147089770Y-70275888D01*
X147082668Y-70281204D01*
X147082669Y-70281204D01*
X146990413Y-70350266D01*
X146924950Y-70374684D01*
X146916103Y-70375000D01*
X146732990Y-70375000D01*
X146732988Y-70375001D01*
X146740442Y-70431627D01*
X146740444Y-70431633D01*
X146800899Y-70577587D01*
X146804965Y-70584628D01*
X146803812Y-70585293D01*
X146825960Y-70642581D01*
X146825680Y-70666148D01*
X146824500Y-70677120D01*
X146824500Y-70972869D01*
X146824501Y-70972876D01*
X146830908Y-71032483D01*
X146858577Y-71106667D01*
X146863561Y-71176358D01*
X146858573Y-71193343D01*
X146857237Y-71196924D01*
X146828740Y-71241261D01*
X144866789Y-73203212D01*
X144861602Y-73207848D01*
X144829913Y-73233119D01*
X144829910Y-73233122D01*
X144795295Y-73283893D01*
X144758796Y-73333347D01*
X144754684Y-73341128D01*
X144750863Y-73349062D01*
X144732748Y-73407788D01*
X144722644Y-73436662D01*
X144681922Y-73493438D01*
X144676910Y-73496818D01*
X144546719Y-73596716D01*
X144450463Y-73722160D01*
X144389956Y-73868237D01*
X144389955Y-73868239D01*
X144374500Y-73985638D01*
X144374500Y-74614363D01*
X144389953Y-74731753D01*
X144389956Y-74731762D01*
X144419653Y-74803458D01*
X144450464Y-74877841D01*
X144546718Y-75003282D01*
X144672159Y-75099536D01*
X144818238Y-75160044D01*
X144935639Y-75175500D01*
X145414360Y-75175499D01*
X145414363Y-75175499D01*
X145531753Y-75160046D01*
X145531757Y-75160044D01*
X145531762Y-75160044D01*
X145677841Y-75099536D01*
X145803282Y-75003282D01*
X145899536Y-74877841D01*
X145899535Y-74877841D01*
X145901624Y-74875120D01*
X145958052Y-74833917D01*
X146027798Y-74829762D01*
X146088718Y-74863974D01*
X146098376Y-74875120D01*
X146100464Y-74877841D01*
X146196718Y-75003282D01*
X146322159Y-75099536D01*
X146468238Y-75160044D01*
X146585639Y-75175500D01*
X147064360Y-75175499D01*
X147064363Y-75175499D01*
X147181753Y-75160046D01*
X147181757Y-75160044D01*
X147181762Y-75160044D01*
X147327841Y-75099536D01*
X147453282Y-75003282D01*
X147549536Y-74877841D01*
X147564361Y-74842048D01*
X147608202Y-74787644D01*
X147674496Y-74765579D01*
X147678923Y-74765500D01*
X149230678Y-74765500D01*
X149297717Y-74785185D01*
X149343472Y-74837989D01*
X149353774Y-74874553D01*
X149363762Y-74956816D01*
X149363763Y-74956821D01*
X149417889Y-75099536D01*
X149419780Y-75104523D01*
X149509517Y-75234530D01*
X149627760Y-75339283D01*
X149627762Y-75339284D01*
X149767634Y-75412696D01*
X149921014Y-75450500D01*
X149921015Y-75450500D01*
X150078985Y-75450500D01*
X150232365Y-75412696D01*
X150247924Y-75404530D01*
X150372240Y-75339283D01*
X150490483Y-75234530D01*
X150580220Y-75104523D01*
X150636237Y-74956818D01*
X150655278Y-74800000D01*
X150646993Y-74731762D01*
X150636237Y-74643181D01*
X150595387Y-74535470D01*
X150580220Y-74495477D01*
X150490483Y-74365470D01*
X150372240Y-74260717D01*
X150372238Y-74260716D01*
X150372237Y-74260715D01*
X150232365Y-74187303D01*
X150078986Y-74149500D01*
X150078985Y-74149500D01*
X150059179Y-74149500D01*
X149992140Y-74129815D01*
X149971498Y-74113181D01*
X149931517Y-74073200D01*
X149850094Y-73991777D01*
X149845476Y-73986609D01*
X149820197Y-73954910D01*
X149769427Y-73920296D01*
X149719971Y-73883796D01*
X149719968Y-73883795D01*
X149719967Y-73883794D01*
X149712193Y-73879685D01*
X149704254Y-73875861D01*
X149645532Y-73857748D01*
X149587524Y-73837449D01*
X149578861Y-73835810D01*
X149570163Y-73834500D01*
X149570162Y-73834500D01*
X149508707Y-73834500D01*
X149447292Y-73832201D01*
X149438059Y-73833242D01*
X149437969Y-73832448D01*
X149422390Y-73834500D01*
X147678923Y-73834500D01*
X147611884Y-73814815D01*
X147566129Y-73762011D01*
X147564362Y-73757952D01*
X147549537Y-73722161D01*
X147549536Y-73722160D01*
X147549536Y-73722159D01*
X147453282Y-73596718D01*
X147327841Y-73500464D01*
X147286058Y-73483157D01*
X147181762Y-73439956D01*
X147181760Y-73439955D01*
X147064361Y-73424500D01*
X146585636Y-73424500D01*
X146468246Y-73439953D01*
X146468237Y-73439956D01*
X146322160Y-73500463D01*
X146196718Y-73596718D01*
X146098376Y-73724880D01*
X146041947Y-73766082D01*
X145972201Y-73770237D01*
X145911281Y-73736024D01*
X145901625Y-73724881D01*
X145888882Y-73708274D01*
X145863678Y-73675428D01*
X145838484Y-73610261D01*
X145852522Y-73541816D01*
X145874370Y-73512264D01*
X146798092Y-72588542D01*
X146859413Y-72555059D01*
X146929105Y-72560043D01*
X146958891Y-72579186D01*
X146960355Y-72577232D01*
X147082664Y-72668793D01*
X147082671Y-72668797D01*
X147217517Y-72719091D01*
X147217516Y-72719091D01*
X147224444Y-72719835D01*
X147277127Y-72725500D01*
X148647872Y-72725499D01*
X148707483Y-72719091D01*
X148842331Y-72668796D01*
X148957546Y-72582546D01*
X149043796Y-72467331D01*
X149094091Y-72332483D01*
X149100500Y-72272873D01*
X149100499Y-71977128D01*
X149094091Y-71917517D01*
X149066421Y-71843332D01*
X149061438Y-71773642D01*
X149066420Y-71756672D01*
X149094091Y-71682483D01*
X149100500Y-71622873D01*
X149100499Y-71327128D01*
X149094091Y-71267517D01*
X149066422Y-71193332D01*
X149061438Y-71123640D01*
X149066418Y-71106676D01*
X149094091Y-71032483D01*
X149100500Y-70972873D01*
X149100499Y-70677128D01*
X149100498Y-70677120D01*
X149100498Y-70677111D01*
X149099320Y-70666155D01*
X149111725Y-70597395D01*
X149123794Y-70578115D01*
X149124102Y-70577582D01*
X149184555Y-70431631D01*
X149192012Y-70375000D01*
X149008897Y-70375000D01*
X148941858Y-70355315D01*
X148934596Y-70350273D01*
X148842331Y-70281204D01*
X148835230Y-70275888D01*
X148836930Y-70273616D01*
X148797743Y-70234435D01*
X148782886Y-70166163D01*
X148807298Y-70100697D01*
X148836311Y-70075556D01*
X148835230Y-70074112D01*
X148897992Y-70027128D01*
X148934586Y-69999733D01*
X149000050Y-69975316D01*
X149008897Y-69975000D01*
X149192010Y-69975000D01*
X149192011Y-69974998D01*
X149184557Y-69918372D01*
X149184555Y-69918366D01*
X149152904Y-69841952D01*
X149145435Y-69772483D01*
X149176710Y-69710004D01*
X149236799Y-69674352D01*
X149267465Y-69670500D01*
X149880500Y-69670500D01*
X149947539Y-69690185D01*
X149993294Y-69742989D01*
X150004500Y-69794500D01*
X150004500Y-72440373D01*
X150004110Y-72447315D01*
X150003038Y-72456823D01*
X149999570Y-72487602D01*
X150010994Y-72547977D01*
X150020155Y-72608755D01*
X150022745Y-72617150D01*
X150025661Y-72625485D01*
X150054367Y-72679798D01*
X150081038Y-72735183D01*
X150086011Y-72742476D01*
X150091227Y-72749544D01*
X150112953Y-72771269D01*
X150134681Y-72792997D01*
X150155584Y-72815524D01*
X150176487Y-72838054D01*
X150183753Y-72843848D01*
X150183255Y-72844472D01*
X150195721Y-72854037D01*
X150813181Y-73471497D01*
X150846666Y-73532820D01*
X150849500Y-73559178D01*
X150849500Y-74381517D01*
X150859542Y-74444922D01*
X150864354Y-74475304D01*
X150921950Y-74588342D01*
X150921952Y-74588344D01*
X150921954Y-74588347D01*
X151011652Y-74678045D01*
X151011655Y-74678047D01*
X151011658Y-74678050D01*
X151030574Y-74687688D01*
X151034161Y-74689516D01*
X151084956Y-74737490D01*
X151101751Y-74805312D01*
X151079213Y-74871446D01*
X151034161Y-74910484D01*
X151011659Y-74921949D01*
X151011652Y-74921954D01*
X150921954Y-75011652D01*
X150921951Y-75011657D01*
X150864352Y-75124698D01*
X150849500Y-75218475D01*
X150849500Y-75873745D01*
X150829815Y-75940784D01*
X150777011Y-75986539D01*
X150707853Y-75996483D01*
X150644297Y-75967458D01*
X150637819Y-75961426D01*
X150598347Y-75921954D01*
X150598344Y-75921952D01*
X150598342Y-75921950D01*
X150503735Y-75873745D01*
X150485301Y-75864352D01*
X150391524Y-75849500D01*
X149228482Y-75849500D01*
X149147519Y-75862323D01*
X149134696Y-75864354D01*
X149021658Y-75921950D01*
X149021656Y-75921951D01*
X149021657Y-75921951D01*
X149021652Y-75921954D01*
X148931954Y-76011652D01*
X148931950Y-76011658D01*
X148920482Y-76034164D01*
X148872506Y-76084958D01*
X148804684Y-76101751D01*
X148738550Y-76079211D01*
X148699516Y-76034161D01*
X148688050Y-76011658D01*
X148688048Y-76011656D01*
X148688045Y-76011652D01*
X148598347Y-75921954D01*
X148598344Y-75921952D01*
X148598342Y-75921950D01*
X148503735Y-75873745D01*
X148485301Y-75864352D01*
X148391524Y-75849500D01*
X147228482Y-75849500D01*
X147147519Y-75862323D01*
X147134696Y-75864354D01*
X147021658Y-75921950D01*
X147021656Y-75921951D01*
X147021657Y-75921951D01*
X147021652Y-75921954D01*
X146931954Y-76011652D01*
X146931950Y-76011658D01*
X146920482Y-76034164D01*
X146872506Y-76084958D01*
X146804684Y-76101751D01*
X146738550Y-76079211D01*
X146699516Y-76034161D01*
X146688050Y-76011658D01*
X146688048Y-76011656D01*
X146688045Y-76011652D01*
X146598347Y-75921954D01*
X146598344Y-75921952D01*
X146598342Y-75921950D01*
X146503735Y-75873745D01*
X146485301Y-75864352D01*
X146391524Y-75849500D01*
X145228482Y-75849500D01*
X145147519Y-75862323D01*
X145134696Y-75864354D01*
X145021658Y-75921950D01*
X145021656Y-75921951D01*
X145021657Y-75921951D01*
X145021652Y-75921954D01*
X144931954Y-76011652D01*
X144931950Y-76011658D01*
X144920482Y-76034164D01*
X144872506Y-76084958D01*
X144804684Y-76101751D01*
X144738550Y-76079211D01*
X144699516Y-76034161D01*
X144688050Y-76011658D01*
X144688048Y-76011656D01*
X144688045Y-76011652D01*
X144598347Y-75921954D01*
X144598344Y-75921952D01*
X144598342Y-75921950D01*
X144503735Y-75873745D01*
X144485301Y-75864352D01*
X144391524Y-75849500D01*
X143228482Y-75849500D01*
X143147519Y-75862323D01*
X143134696Y-75864354D01*
X143021658Y-75921950D01*
X143021656Y-75921951D01*
X143021657Y-75921951D01*
X143021652Y-75921954D01*
X142931954Y-76011652D01*
X142931950Y-76011658D01*
X142920482Y-76034164D01*
X142872506Y-76084958D01*
X142804684Y-76101751D01*
X142738550Y-76079211D01*
X142699516Y-76034161D01*
X142688050Y-76011658D01*
X142688048Y-76011656D01*
X142688045Y-76011652D01*
X142598347Y-75921954D01*
X142598344Y-75921952D01*
X142598342Y-75921950D01*
X142503735Y-75873745D01*
X142485301Y-75864352D01*
X142391524Y-75849500D01*
X141228482Y-75849500D01*
X141147519Y-75862323D01*
X141134696Y-75864354D01*
X141021658Y-75921950D01*
X141021656Y-75921951D01*
X141021657Y-75921951D01*
X141021652Y-75921954D01*
X140931954Y-76011652D01*
X140931950Y-76011658D01*
X140920482Y-76034164D01*
X140872506Y-76084958D01*
X140804684Y-76101751D01*
X140738550Y-76079211D01*
X140699516Y-76034161D01*
X140688050Y-76011658D01*
X140688048Y-76011656D01*
X140688045Y-76011652D01*
X140598347Y-75921954D01*
X140598344Y-75921952D01*
X140598342Y-75921950D01*
X140503735Y-75873745D01*
X140485301Y-75864352D01*
X140391524Y-75849500D01*
X139228482Y-75849500D01*
X139147519Y-75862323D01*
X139134696Y-75864354D01*
X139021658Y-75921950D01*
X139021656Y-75921951D01*
X139021657Y-75921951D01*
X139021652Y-75921954D01*
X138929926Y-76013681D01*
X138868603Y-76047166D01*
X138842245Y-76050000D01*
X137350000Y-76050000D01*
X137350000Y-76850000D01*
X138397828Y-76850000D01*
X138397844Y-76849999D01*
X138457372Y-76843598D01*
X138457379Y-76843596D01*
X138592086Y-76793354D01*
X138592089Y-76793352D01*
X138661188Y-76741625D01*
X138726652Y-76717207D01*
X138794926Y-76732058D01*
X138844331Y-76781463D01*
X138859500Y-76840891D01*
X138859500Y-78781517D01*
X138869949Y-78847492D01*
X138874354Y-78875304D01*
X138931950Y-78988342D01*
X138931952Y-78988344D01*
X138931954Y-78988347D01*
X139021652Y-79078045D01*
X139021654Y-79078046D01*
X139021658Y-79078050D01*
X139134694Y-79135645D01*
X139134698Y-79135647D01*
X139228475Y-79150499D01*
X139228481Y-79150500D01*
X140391518Y-79150499D01*
X140485304Y-79135646D01*
X140598342Y-79078050D01*
X140688050Y-78988342D01*
X140699515Y-78965839D01*
X140747489Y-78915043D01*
X140815310Y-78898248D01*
X140881445Y-78920785D01*
X140920485Y-78965840D01*
X140931949Y-78988340D01*
X140931954Y-78988347D01*
X141021652Y-79078045D01*
X141021654Y-79078046D01*
X141021658Y-79078050D01*
X141134694Y-79135645D01*
X141134698Y-79135647D01*
X141228475Y-79150499D01*
X141228481Y-79150500D01*
X142391518Y-79150499D01*
X142485304Y-79135646D01*
X142598342Y-79078050D01*
X142688050Y-78988342D01*
X142699515Y-78965839D01*
X142747489Y-78915043D01*
X142815310Y-78898248D01*
X142881445Y-78920785D01*
X142920485Y-78965840D01*
X142931949Y-78988340D01*
X142931954Y-78988347D01*
X143021652Y-79078045D01*
X143021654Y-79078046D01*
X143021658Y-79078050D01*
X143134694Y-79135645D01*
X143134698Y-79135647D01*
X143228475Y-79150499D01*
X143228481Y-79150500D01*
X144391518Y-79150499D01*
X144485304Y-79135646D01*
X144598342Y-79078050D01*
X144688050Y-78988342D01*
X144699515Y-78965839D01*
X144747489Y-78915043D01*
X144815310Y-78898248D01*
X144881445Y-78920785D01*
X144920485Y-78965840D01*
X144931949Y-78988340D01*
X144931954Y-78988347D01*
X145021652Y-79078045D01*
X145021654Y-79078046D01*
X145021658Y-79078050D01*
X145134694Y-79135645D01*
X145134698Y-79135647D01*
X145228475Y-79150499D01*
X145228481Y-79150500D01*
X146391518Y-79150499D01*
X146485304Y-79135646D01*
X146598342Y-79078050D01*
X146688050Y-78988342D01*
X146699515Y-78965839D01*
X146747489Y-78915043D01*
X146815310Y-78898248D01*
X146881445Y-78920785D01*
X146920485Y-78965840D01*
X146931949Y-78988340D01*
X146931954Y-78988347D01*
X147021652Y-79078045D01*
X147021654Y-79078046D01*
X147021658Y-79078050D01*
X147134694Y-79135645D01*
X147134698Y-79135647D01*
X147228475Y-79150499D01*
X147228481Y-79150500D01*
X148391518Y-79150499D01*
X148485304Y-79135646D01*
X148598342Y-79078050D01*
X148688050Y-78988342D01*
X148699515Y-78965839D01*
X148747489Y-78915043D01*
X148815310Y-78898248D01*
X148881445Y-78920785D01*
X148920485Y-78965840D01*
X148931949Y-78988340D01*
X148931954Y-78988347D01*
X149021652Y-79078045D01*
X149021654Y-79078046D01*
X149021658Y-79078050D01*
X149134694Y-79135645D01*
X149134698Y-79135647D01*
X149228475Y-79150499D01*
X149228481Y-79150500D01*
X150391518Y-79150499D01*
X150485304Y-79135646D01*
X150598342Y-79078050D01*
X150688050Y-78988342D01*
X150745646Y-78875304D01*
X150745646Y-78875302D01*
X150745647Y-78875301D01*
X150760499Y-78781524D01*
X150760500Y-78781519D01*
X150760499Y-76726253D01*
X150780184Y-76659215D01*
X150832987Y-76613460D01*
X150902146Y-76603516D01*
X150965702Y-76632541D01*
X150972180Y-76638573D01*
X151011652Y-76678045D01*
X151011654Y-76678046D01*
X151011658Y-76678050D01*
X151117654Y-76732058D01*
X151124698Y-76735647D01*
X151218475Y-76750499D01*
X151218481Y-76750500D01*
X151810500Y-76750499D01*
X151877539Y-76770183D01*
X151923294Y-76822987D01*
X151934500Y-76874499D01*
X151934500Y-77290636D01*
X151914815Y-77357675D01*
X151912550Y-77361076D01*
X151819781Y-77495475D01*
X151819780Y-77495476D01*
X151763762Y-77643181D01*
X151744722Y-77799999D01*
X151744722Y-77800000D01*
X151763762Y-77956818D01*
X151819780Y-78104523D01*
X151819780Y-78104524D01*
X151864458Y-78169251D01*
X151909517Y-78234530D01*
X151909518Y-78234531D01*
X151912550Y-78238923D01*
X151934433Y-78305277D01*
X151934500Y-78309363D01*
X151934500Y-78445373D01*
X151934110Y-78452321D01*
X151929570Y-78492602D01*
X151940994Y-78552977D01*
X151950155Y-78613755D01*
X151952745Y-78622150D01*
X151955661Y-78630485D01*
X151984367Y-78684798D01*
X152011038Y-78740183D01*
X152016011Y-78747476D01*
X152021227Y-78754544D01*
X152042954Y-78776270D01*
X152064681Y-78797997D01*
X152085584Y-78820524D01*
X152106487Y-78843054D01*
X152113753Y-78848848D01*
X152113255Y-78849472D01*
X152125721Y-78859037D01*
X152379503Y-79112819D01*
X152412988Y-79174142D01*
X152408004Y-79243834D01*
X152366132Y-79299767D01*
X152300668Y-79324184D01*
X152291824Y-79324500D01*
X152235637Y-79324500D01*
X152118246Y-79339953D01*
X152118237Y-79339956D01*
X151972160Y-79400463D01*
X151846718Y-79496718D01*
X151750463Y-79622160D01*
X151694216Y-79757953D01*
X151650375Y-79812356D01*
X151584081Y-79834421D01*
X151579655Y-79834500D01*
X148602552Y-79834500D01*
X148535513Y-79814815D01*
X148520326Y-79803316D01*
X148472240Y-79760717D01*
X148472238Y-79760715D01*
X148332365Y-79687303D01*
X148178986Y-79649500D01*
X148178985Y-79649500D01*
X148021015Y-79649500D01*
X148021014Y-79649500D01*
X147867634Y-79687303D01*
X147727762Y-79760715D01*
X147609516Y-79865471D01*
X147519781Y-79995475D01*
X147519780Y-79995476D01*
X147463762Y-80143181D01*
X147444722Y-80299999D01*
X147444722Y-80300000D01*
X147463762Y-80456818D01*
X147519779Y-80604523D01*
X147519780Y-80604523D01*
X147609517Y-80734530D01*
X147703380Y-80817684D01*
X147740507Y-80876874D01*
X147739739Y-80946739D01*
X147701322Y-81005099D01*
X147637451Y-81033424D01*
X147621153Y-81034500D01*
X145969322Y-81034500D01*
X145902283Y-81014815D01*
X145856528Y-80962011D01*
X145846226Y-80925447D01*
X145840328Y-80876874D01*
X145836237Y-80843182D01*
X145780220Y-80695477D01*
X145690483Y-80565470D01*
X145572240Y-80460717D01*
X145572238Y-80460716D01*
X145572237Y-80460715D01*
X145432365Y-80387303D01*
X145278986Y-80349500D01*
X145278985Y-80349500D01*
X145121015Y-80349500D01*
X145121014Y-80349500D01*
X144967634Y-80387303D01*
X144827762Y-80460715D01*
X144709516Y-80565471D01*
X144619781Y-80695475D01*
X144619780Y-80695476D01*
X144563762Y-80843181D01*
X144544722Y-80999999D01*
X144544722Y-81000000D01*
X144563762Y-81156818D01*
X144619780Y-81304522D01*
X144619780Y-81304523D01*
X144709517Y-81434530D01*
X144827760Y-81539283D01*
X144827762Y-81539284D01*
X144967634Y-81612696D01*
X145121014Y-81650500D01*
X145121015Y-81650500D01*
X145140821Y-81650500D01*
X145207860Y-81670185D01*
X145228502Y-81686819D01*
X145349891Y-81808208D01*
X145354527Y-81813395D01*
X145379803Y-81845090D01*
X145430565Y-81879698D01*
X145480029Y-81916205D01*
X145480031Y-81916205D01*
X145487796Y-81920309D01*
X145495746Y-81924138D01*
X145554455Y-81942247D01*
X145572922Y-81948708D01*
X145612480Y-81962551D01*
X145612482Y-81962551D01*
X145612485Y-81962552D01*
X145621118Y-81964186D01*
X145629836Y-81965499D01*
X145629837Y-81965500D01*
X145691293Y-81965500D01*
X145752707Y-81967798D01*
X145752707Y-81967797D01*
X145752708Y-81967798D01*
X145752708Y-81967797D01*
X145761941Y-81966758D01*
X145762030Y-81967551D01*
X145777610Y-81965500D01*
X154103264Y-81965500D01*
X154170303Y-81985185D01*
X154205314Y-82019060D01*
X154285017Y-82134530D01*
X154403260Y-82239283D01*
X154403262Y-82239284D01*
X154543134Y-82312696D01*
X154696514Y-82350500D01*
X154696515Y-82350500D01*
X154700500Y-82350500D01*
X154703309Y-82351325D01*
X154703960Y-82351404D01*
X154703946Y-82351512D01*
X154767539Y-82370185D01*
X154813294Y-82422989D01*
X154824500Y-82474500D01*
X154824500Y-82765820D01*
X154804815Y-82832859D01*
X154788181Y-82853501D01*
X153611810Y-84029871D01*
X153550487Y-84063356D01*
X153480795Y-84058372D01*
X153424862Y-84016500D01*
X153422571Y-84013337D01*
X153330770Y-83882231D01*
X153166769Y-83718230D01*
X153166767Y-83718229D01*
X153166764Y-83718226D01*
X152976785Y-83585201D01*
X152976781Y-83585199D01*
X152766582Y-83487181D01*
X152766579Y-83487180D01*
X152587827Y-83439283D01*
X152542551Y-83427151D01*
X152542544Y-83427150D01*
X152369371Y-83412000D01*
X151055629Y-83412000D01*
X150882455Y-83427150D01*
X150882448Y-83427151D01*
X150658417Y-83487181D01*
X150448218Y-83585199D01*
X150448214Y-83585201D01*
X150258235Y-83718226D01*
X150258229Y-83718231D01*
X150094230Y-83882230D01*
X149961198Y-84072218D01*
X149901424Y-84200405D01*
X149855251Y-84252844D01*
X149789042Y-84272000D01*
X147808707Y-84272000D01*
X147747292Y-84269701D01*
X147738059Y-84270742D01*
X147737969Y-84269948D01*
X147722390Y-84272000D01*
X141135958Y-84272000D01*
X141068919Y-84252315D01*
X141023576Y-84200405D01*
X140963801Y-84072219D01*
X140963800Y-84072217D01*
X140830773Y-83882235D01*
X140830768Y-83882229D01*
X140666770Y-83718231D01*
X140666764Y-83718226D01*
X140476785Y-83585201D01*
X140476781Y-83585199D01*
X140266582Y-83487181D01*
X140266579Y-83487180D01*
X140087827Y-83439283D01*
X140042551Y-83427151D01*
X140042544Y-83427150D01*
X139869371Y-83412000D01*
X138555629Y-83412000D01*
X138382455Y-83427150D01*
X138382448Y-83427151D01*
X138158417Y-83487181D01*
X137948218Y-83585199D01*
X137948214Y-83585201D01*
X137758235Y-83718226D01*
X137758229Y-83718231D01*
X137594230Y-83882230D01*
X137461198Y-84072218D01*
X137401424Y-84200405D01*
X137355251Y-84252844D01*
X137289042Y-84272000D01*
X136981679Y-84272000D01*
X136914640Y-84252315D01*
X136893998Y-84235681D01*
X135601619Y-82943302D01*
X135568134Y-82881979D01*
X135566204Y-82870567D01*
X135564132Y-82853501D01*
X135550737Y-82743182D01*
X135494720Y-82595477D01*
X135404983Y-82465470D01*
X135286740Y-82360717D01*
X135286738Y-82360716D01*
X135286737Y-82360715D01*
X135146865Y-82287303D01*
X134993486Y-82249500D01*
X134993485Y-82249500D01*
X134835515Y-82249500D01*
X134835514Y-82249500D01*
X134682134Y-82287303D01*
X134577126Y-82342417D01*
X134508618Y-82356143D01*
X134443565Y-82330651D01*
X134402620Y-82274035D01*
X134395500Y-82232621D01*
X134395500Y-76050000D01*
X135350000Y-76050000D01*
X135350000Y-76397844D01*
X135356401Y-76457372D01*
X135356403Y-76457379D01*
X135406645Y-76592086D01*
X135406649Y-76592093D01*
X135492809Y-76707187D01*
X135492812Y-76707190D01*
X135607906Y-76793350D01*
X135607913Y-76793354D01*
X135742620Y-76843596D01*
X135742627Y-76843598D01*
X135802155Y-76849999D01*
X135802172Y-76850000D01*
X136850000Y-76850000D01*
X136850000Y-76050000D01*
X135350000Y-76050000D01*
X134395500Y-76050000D01*
X134395500Y-75587894D01*
X134415185Y-75520855D01*
X134467989Y-75475100D01*
X134537147Y-75465156D01*
X134600703Y-75494181D01*
X134601728Y-75495080D01*
X134617759Y-75509282D01*
X134617761Y-75509284D01*
X134757634Y-75582696D01*
X134911014Y-75620500D01*
X134911015Y-75620500D01*
X135068985Y-75620500D01*
X135222365Y-75582696D01*
X135257599Y-75564204D01*
X135315225Y-75550000D01*
X138850000Y-75550000D01*
X138850000Y-75202172D01*
X138849999Y-75202155D01*
X138843598Y-75142627D01*
X138843596Y-75142620D01*
X138793354Y-75007913D01*
X138793350Y-75007906D01*
X138707190Y-74892813D01*
X138630962Y-74835748D01*
X138589091Y-74779814D01*
X138584107Y-74710122D01*
X138617590Y-74648801D01*
X138678050Y-74588342D01*
X138735646Y-74475304D01*
X138735646Y-74475302D01*
X138735647Y-74475301D01*
X138750499Y-74381524D01*
X138750500Y-74381519D01*
X138750499Y-73574499D01*
X138770183Y-73507461D01*
X138822987Y-73461706D01*
X138874499Y-73450500D01*
X141640822Y-73450500D01*
X141707861Y-73470185D01*
X141728503Y-73486819D01*
X142314883Y-74073200D01*
X142348368Y-74134523D01*
X142350298Y-74145933D01*
X142363762Y-74256816D01*
X142363763Y-74256821D01*
X142419779Y-74404523D01*
X142419780Y-74404523D01*
X142509517Y-74534530D01*
X142627760Y-74639283D01*
X142627762Y-74639284D01*
X142767634Y-74712696D01*
X142921014Y-74750500D01*
X142921015Y-74750500D01*
X143078985Y-74750500D01*
X143232365Y-74712696D01*
X143276530Y-74689516D01*
X143372240Y-74639283D01*
X143490483Y-74534530D01*
X143580220Y-74404523D01*
X143636237Y-74256818D01*
X143655278Y-74100000D01*
X143636237Y-73943182D01*
X143580703Y-73796752D01*
X143575337Y-73727092D01*
X143608484Y-73665586D01*
X143666970Y-73632387D01*
X143746865Y-73612696D01*
X143886740Y-73539283D01*
X144004983Y-73434530D01*
X144094720Y-73304523D01*
X144150737Y-73156818D01*
X144169778Y-73000000D01*
X144150737Y-72843182D01*
X144150475Y-72842492D01*
X144112544Y-72742476D01*
X144094720Y-72695477D01*
X144004983Y-72565470D01*
X144004982Y-72565469D01*
X144001950Y-72561076D01*
X143980067Y-72494721D01*
X143980000Y-72490636D01*
X143980000Y-72177936D01*
X143980389Y-72170997D01*
X143984929Y-72130710D01*
X143980029Y-72104813D01*
X143973505Y-72070334D01*
X143969988Y-72047002D01*
X143964344Y-72009554D01*
X143964341Y-72009548D01*
X143961755Y-72001165D01*
X143958840Y-71992831D01*
X143930132Y-71938513D01*
X143930131Y-71938512D01*
X143903459Y-71883125D01*
X143903458Y-71883124D01*
X143903458Y-71883123D01*
X143898503Y-71875857D01*
X143893272Y-71868769D01*
X143893271Y-71868767D01*
X143849818Y-71825314D01*
X143808013Y-71780259D01*
X143808012Y-71780258D01*
X143808010Y-71780256D01*
X143800747Y-71774464D01*
X143801244Y-71773840D01*
X143788779Y-71764275D01*
X143409307Y-71384802D01*
X143375822Y-71323479D01*
X143373698Y-71310374D01*
X143369091Y-71267518D01*
X143369091Y-71267517D01*
X143341421Y-71193332D01*
X143336438Y-71123642D01*
X143341422Y-71106667D01*
X143369091Y-71032483D01*
X143375500Y-70972873D01*
X143375499Y-70871693D01*
X143395183Y-70804657D01*
X143447986Y-70758901D01*
X143517145Y-70748957D01*
X143580701Y-70777981D01*
X143601549Y-70801255D01*
X143624517Y-70834530D01*
X143742760Y-70939283D01*
X143742762Y-70939284D01*
X143882634Y-71012696D01*
X144036014Y-71050500D01*
X144036015Y-71050500D01*
X144193985Y-71050500D01*
X144347365Y-71012696D01*
X144349354Y-71011652D01*
X144487240Y-70939283D01*
X144605483Y-70834530D01*
X144695220Y-70704523D01*
X144751237Y-70556818D01*
X144770278Y-70400000D01*
X144768912Y-70388745D01*
X144751237Y-70243181D01*
X144728737Y-70183854D01*
X144695220Y-70095477D01*
X144605483Y-69965470D01*
X144605479Y-69965466D01*
X144600509Y-69959856D01*
X144601953Y-69958576D01*
X144570145Y-69907860D01*
X144565500Y-69874240D01*
X144565500Y-65645016D01*
X144585185Y-65577977D01*
X144631876Y-65535219D01*
X144655164Y-65522997D01*
X144662240Y-65519283D01*
X144780483Y-65414530D01*
X144870220Y-65284523D01*
X144926237Y-65136818D01*
X144945278Y-64980000D01*
X144938230Y-64921949D01*
X144926237Y-64823181D01*
X144904992Y-64767163D01*
X144870220Y-64675477D01*
X144780483Y-64545470D01*
X144662240Y-64440717D01*
X144662238Y-64440716D01*
X144662237Y-64440715D01*
X144522365Y-64367303D01*
X144368986Y-64329500D01*
X144368985Y-64329500D01*
X144211015Y-64329500D01*
X144211014Y-64329500D01*
X144057634Y-64367303D01*
X143917761Y-64440715D01*
X143917759Y-64440717D01*
X143869674Y-64483316D01*
X143806441Y-64513037D01*
X143787448Y-64514500D01*
X142207552Y-64514500D01*
X142140513Y-64494815D01*
X142125326Y-64483316D01*
X142077240Y-64440717D01*
X142077238Y-64440715D01*
X141937365Y-64367303D01*
X141783986Y-64329500D01*
X141783985Y-64329500D01*
X141626015Y-64329500D01*
X141626014Y-64329500D01*
X141472634Y-64367303D01*
X141332762Y-64440715D01*
X141214516Y-64545471D01*
X141124781Y-64675475D01*
X141124780Y-64675476D01*
X141068762Y-64823181D01*
X141049722Y-64979999D01*
X141049722Y-64980000D01*
X141068762Y-65136818D01*
X141109101Y-65243182D01*
X141124780Y-65284523D01*
X141214517Y-65414530D01*
X141332760Y-65519283D01*
X141332762Y-65519284D01*
X141339836Y-65522997D01*
X141390049Y-65571580D01*
X141406025Y-65639599D01*
X141382691Y-65705457D01*
X141356524Y-65732060D01*
X141242452Y-65817455D01*
X141156206Y-65932664D01*
X141156202Y-65932671D01*
X141105910Y-66067513D01*
X141105909Y-66067517D01*
X141099500Y-66127127D01*
X141099500Y-66127134D01*
X141099500Y-66127135D01*
X141099500Y-66422869D01*
X141099501Y-66422876D01*
X141105908Y-66482483D01*
X141133577Y-66556667D01*
X141138561Y-66626358D01*
X141133577Y-66643331D01*
X141105910Y-66717511D01*
X141105909Y-66717515D01*
X141105909Y-66717517D01*
X141099500Y-66777127D01*
X141099500Y-66777134D01*
X141099500Y-66777135D01*
X141099500Y-67072869D01*
X141099501Y-67072876D01*
X141105908Y-67132483D01*
X141133577Y-67206667D01*
X141138561Y-67276358D01*
X141133577Y-67293331D01*
X141105910Y-67367511D01*
X141105909Y-67367515D01*
X141105909Y-67367517D01*
X141099500Y-67427127D01*
X141099500Y-67427134D01*
X141099500Y-67427135D01*
X141099500Y-67722869D01*
X141099501Y-67722876D01*
X141105908Y-67782483D01*
X141133577Y-67856667D01*
X141138561Y-67926358D01*
X141133577Y-67943331D01*
X141105910Y-68017511D01*
X141105909Y-68017515D01*
X141105909Y-68017517D01*
X141099500Y-68077127D01*
X141099500Y-68077134D01*
X141099500Y-68077135D01*
X141099500Y-68372869D01*
X141099501Y-68372876D01*
X141105908Y-68432483D01*
X141133577Y-68506667D01*
X141138561Y-68576358D01*
X141133577Y-68593331D01*
X141105910Y-68667511D01*
X141105909Y-68667515D01*
X141105909Y-68667517D01*
X141099500Y-68727127D01*
X141099500Y-68727134D01*
X141099500Y-68727135D01*
X141099500Y-69022869D01*
X141099501Y-69022876D01*
X141105908Y-69082483D01*
X141133577Y-69156667D01*
X141138561Y-69226358D01*
X141133577Y-69243331D01*
X141105910Y-69317511D01*
X141105909Y-69317515D01*
X141105909Y-69317517D01*
X141099500Y-69377127D01*
X141099500Y-69377134D01*
X141099500Y-69377135D01*
X141099500Y-69672869D01*
X141099501Y-69672876D01*
X141105908Y-69732483D01*
X141133577Y-69806667D01*
X141138561Y-69876358D01*
X141133577Y-69893331D01*
X141105909Y-69967514D01*
X141105909Y-69967515D01*
X141102426Y-69999905D01*
X141075687Y-70064456D01*
X141018293Y-70104302D01*
X140948468Y-70106794D01*
X140891456Y-70074328D01*
X140849649Y-70032521D01*
X140688538Y-69871409D01*
X140655053Y-69810086D01*
X140660037Y-69740394D01*
X140674167Y-69713291D01*
X140680220Y-69704523D01*
X140736237Y-69556818D01*
X140755278Y-69400000D01*
X140736256Y-69243334D01*
X140736237Y-69243181D01*
X140691984Y-69126496D01*
X140680220Y-69095477D01*
X140590483Y-68965470D01*
X140472240Y-68860717D01*
X140472238Y-68860716D01*
X140472237Y-68860715D01*
X140332365Y-68787303D01*
X140178986Y-68749500D01*
X140178985Y-68749500D01*
X140159179Y-68749500D01*
X140092140Y-68729815D01*
X140071498Y-68713181D01*
X139901819Y-68543502D01*
X139868334Y-68482179D01*
X139865500Y-68455821D01*
X139865500Y-67799624D01*
X139865889Y-67792685D01*
X139870429Y-67752398D01*
X139859005Y-67692023D01*
X139849844Y-67631242D01*
X139849841Y-67631236D01*
X139847255Y-67622853D01*
X139844340Y-67614519D01*
X139815632Y-67560201D01*
X139788958Y-67504811D01*
X139784003Y-67497545D01*
X139778772Y-67490457D01*
X139778771Y-67490455D01*
X139735318Y-67447002D01*
X139693513Y-67401947D01*
X139693512Y-67401946D01*
X139693510Y-67401944D01*
X139686247Y-67396152D01*
X139686744Y-67395528D01*
X139674279Y-67385963D01*
X138784146Y-66495830D01*
X138750661Y-66434507D01*
X138749355Y-66388745D01*
X138750500Y-66381519D01*
X138750499Y-65218482D01*
X138735646Y-65124696D01*
X138678050Y-65011658D01*
X138678046Y-65011654D01*
X138678045Y-65011652D01*
X138588347Y-64921954D01*
X138588342Y-64921950D01*
X138565837Y-64910483D01*
X138515042Y-64862507D01*
X138498248Y-64794686D01*
X138520787Y-64728551D01*
X138565838Y-64689516D01*
X138588342Y-64678050D01*
X138678050Y-64588342D01*
X138735646Y-64475304D01*
X138735646Y-64475302D01*
X138735647Y-64475301D01*
X138750499Y-64381524D01*
X138750500Y-64381519D01*
X138750499Y-63359176D01*
X138770183Y-63292138D01*
X138786813Y-63271501D01*
X138853906Y-63204408D01*
X138915227Y-63170925D01*
X138918515Y-63170256D01*
X138977976Y-63159005D01*
X139038758Y-63149844D01*
X139038764Y-63149840D01*
X139047158Y-63147251D01*
X139055472Y-63144341D01*
X139055481Y-63144340D01*
X139109798Y-63115632D01*
X139165187Y-63088959D01*
X139165190Y-63088955D01*
X139165192Y-63088955D01*
X139172447Y-63084008D01*
X139179541Y-63078772D01*
X139179545Y-63078771D01*
X139222997Y-63035318D01*
X139268053Y-62993513D01*
X139268055Y-62993509D01*
X139273847Y-62986247D01*
X139274474Y-62986747D01*
X139284035Y-62974279D01*
X140556496Y-61701819D01*
X140617820Y-61668334D01*
X140644178Y-61665500D01*
X148497448Y-61665500D01*
X148564487Y-61685185D01*
G37*
G04 #@! TD.AperFunction*
M02*
