G04 #@! TF.GenerationSoftware,KiCad,Pcbnew,7.0.7*
G04 #@! TF.CreationDate,2024-02-13T08:09:53-05:00*
G04 #@! TF.ProjectId,sensor_node,73656e73-6f72-45f6-9e6f-64652e6b6963,rev?*
G04 #@! TF.SameCoordinates,Original*
G04 #@! TF.FileFunction,Legend,Bot*
G04 #@! TF.FilePolarity,Positive*
%FSLAX46Y46*%
G04 Gerber Fmt 4.6, Leading zero omitted, Abs format (unit mm)*
G04 Created by KiCad (PCBNEW 7.0.7) date 2024-02-13 08:09:53*
%MOMM*%
%LPD*%
G01*
G04 APERTURE LIST*
G04 Aperture macros list*
%AMRoundRect*
0 Rectangle with rounded corners*
0 $1 Rounding radius*
0 $2 $3 $4 $5 $6 $7 $8 $9 X,Y pos of 4 corners*
0 Add a 4 corners polygon primitive as box body*
4,1,4,$2,$3,$4,$5,$6,$7,$8,$9,$2,$3,0*
0 Add four circle primitives for the rounded corners*
1,1,$1+$1,$2,$3*
1,1,$1+$1,$4,$5*
1,1,$1+$1,$6,$7*
1,1,$1+$1,$8,$9*
0 Add four rect primitives between the rounded corners*
20,1,$1+$1,$2,$3,$4,$5,0*
20,1,$1+$1,$4,$5,$6,$7,0*
20,1,$1+$1,$6,$7,$8,$9,0*
20,1,$1+$1,$8,$9,$2,$3,0*%
G04 Aperture macros list end*
%ADD10C,0.150000*%
%ADD11C,0.120000*%
%ADD12C,0.152400*%
%ADD13R,2.100000X2.100000*%
%ADD14C,2.100000*%
%ADD15R,1.700000X1.700000*%
%ADD16O,1.700000X1.700000*%
%ADD17RoundRect,0.200000X0.275000X-0.200000X0.275000X0.200000X-0.275000X0.200000X-0.275000X-0.200000X0*%
%ADD18R,2.500000X1.100000*%
%ADD19R,1.100000X2.500000*%
%ADD20R,1.050000X0.650000*%
%ADD21RoundRect,0.200000X-0.200000X-0.275000X0.200000X-0.275000X0.200000X0.275000X-0.200000X0.275000X0*%
%ADD22RoundRect,0.200000X0.200000X0.275000X-0.200000X0.275000X-0.200000X-0.275000X0.200000X-0.275000X0*%
%ADD23RoundRect,0.100000X0.637500X0.100000X-0.637500X0.100000X-0.637500X-0.100000X0.637500X-0.100000X0*%
%ADD24O,3.048000X1.850000*%
G04 APERTURE END LIST*
D10*
X138394173Y-100069819D02*
X137822745Y-100069819D01*
X138108459Y-101069819D02*
X138108459Y-100069819D01*
X137584649Y-100069819D02*
X136917983Y-101069819D01*
X136917983Y-100069819D02*
X137584649Y-101069819D01*
X137679888Y-98569819D02*
X138013221Y-98093628D01*
X138251316Y-98569819D02*
X138251316Y-97569819D01*
X138251316Y-97569819D02*
X137870364Y-97569819D01*
X137870364Y-97569819D02*
X137775126Y-97617438D01*
X137775126Y-97617438D02*
X137727507Y-97665057D01*
X137727507Y-97665057D02*
X137679888Y-97760295D01*
X137679888Y-97760295D02*
X137679888Y-97903152D01*
X137679888Y-97903152D02*
X137727507Y-97998390D01*
X137727507Y-97998390D02*
X137775126Y-98046009D01*
X137775126Y-98046009D02*
X137870364Y-98093628D01*
X137870364Y-98093628D02*
X138251316Y-98093628D01*
X137346554Y-97569819D02*
X136679888Y-98569819D01*
X136679888Y-97569819D02*
X137346554Y-98569819D01*
X143091792Y-74674580D02*
X143139411Y-74722200D01*
X143139411Y-74722200D02*
X143282268Y-74769819D01*
X143282268Y-74769819D02*
X143377506Y-74769819D01*
X143377506Y-74769819D02*
X143520363Y-74722200D01*
X143520363Y-74722200D02*
X143615601Y-74626961D01*
X143615601Y-74626961D02*
X143663220Y-74531723D01*
X143663220Y-74531723D02*
X143710839Y-74341247D01*
X143710839Y-74341247D02*
X143710839Y-74198390D01*
X143710839Y-74198390D02*
X143663220Y-74007914D01*
X143663220Y-74007914D02*
X143615601Y-73912676D01*
X143615601Y-73912676D02*
X143520363Y-73817438D01*
X143520363Y-73817438D02*
X143377506Y-73769819D01*
X143377506Y-73769819D02*
X143282268Y-73769819D01*
X143282268Y-73769819D02*
X143139411Y-73817438D01*
X143139411Y-73817438D02*
X143091792Y-73865057D01*
X142663220Y-74769819D02*
X142663220Y-73769819D01*
X142663220Y-74246009D02*
X142091792Y-74246009D01*
X142091792Y-74769819D02*
X142091792Y-73769819D01*
X141710839Y-73769819D02*
X141091792Y-73769819D01*
X141091792Y-73769819D02*
X141425125Y-74150771D01*
X141425125Y-74150771D02*
X141282268Y-74150771D01*
X141282268Y-74150771D02*
X141187030Y-74198390D01*
X141187030Y-74198390D02*
X141139411Y-74246009D01*
X141139411Y-74246009D02*
X141091792Y-74341247D01*
X141091792Y-74341247D02*
X141091792Y-74579342D01*
X141091792Y-74579342D02*
X141139411Y-74674580D01*
X141139411Y-74674580D02*
X141187030Y-74722200D01*
X141187030Y-74722200D02*
X141282268Y-74769819D01*
X141282268Y-74769819D02*
X141567982Y-74769819D01*
X141567982Y-74769819D02*
X141663220Y-74722200D01*
X141663220Y-74722200D02*
X141710839Y-74674580D01*
X140710839Y-73865057D02*
X140663220Y-73817438D01*
X140663220Y-73817438D02*
X140567982Y-73769819D01*
X140567982Y-73769819D02*
X140329887Y-73769819D01*
X140329887Y-73769819D02*
X140234649Y-73817438D01*
X140234649Y-73817438D02*
X140187030Y-73865057D01*
X140187030Y-73865057D02*
X140139411Y-73960295D01*
X140139411Y-73960295D02*
X140139411Y-74055533D01*
X140139411Y-74055533D02*
X140187030Y-74198390D01*
X140187030Y-74198390D02*
X140758458Y-74769819D01*
X140758458Y-74769819D02*
X140139411Y-74769819D01*
X138394173Y-87469819D02*
X138060840Y-88469819D01*
X138060840Y-88469819D02*
X137727507Y-87469819D01*
X137394173Y-88088866D02*
X136632269Y-88088866D01*
X137013221Y-88469819D02*
X137013221Y-87707914D01*
X139410839Y-93422200D02*
X139267982Y-93469819D01*
X139267982Y-93469819D02*
X139029887Y-93469819D01*
X139029887Y-93469819D02*
X138934649Y-93422200D01*
X138934649Y-93422200D02*
X138887030Y-93374580D01*
X138887030Y-93374580D02*
X138839411Y-93279342D01*
X138839411Y-93279342D02*
X138839411Y-93184104D01*
X138839411Y-93184104D02*
X138887030Y-93088866D01*
X138887030Y-93088866D02*
X138934649Y-93041247D01*
X138934649Y-93041247D02*
X139029887Y-92993628D01*
X139029887Y-92993628D02*
X139220363Y-92946009D01*
X139220363Y-92946009D02*
X139315601Y-92898390D01*
X139315601Y-92898390D02*
X139363220Y-92850771D01*
X139363220Y-92850771D02*
X139410839Y-92755533D01*
X139410839Y-92755533D02*
X139410839Y-92660295D01*
X139410839Y-92660295D02*
X139363220Y-92565057D01*
X139363220Y-92565057D02*
X139315601Y-92517438D01*
X139315601Y-92517438D02*
X139220363Y-92469819D01*
X139220363Y-92469819D02*
X138982268Y-92469819D01*
X138982268Y-92469819D02*
X138839411Y-92517438D01*
X138410839Y-93469819D02*
X138410839Y-92469819D01*
X138410839Y-92469819D02*
X138172744Y-92469819D01*
X138172744Y-92469819D02*
X138029887Y-92517438D01*
X138029887Y-92517438D02*
X137934649Y-92612676D01*
X137934649Y-92612676D02*
X137887030Y-92707914D01*
X137887030Y-92707914D02*
X137839411Y-92898390D01*
X137839411Y-92898390D02*
X137839411Y-93041247D01*
X137839411Y-93041247D02*
X137887030Y-93231723D01*
X137887030Y-93231723D02*
X137934649Y-93326961D01*
X137934649Y-93326961D02*
X138029887Y-93422200D01*
X138029887Y-93422200D02*
X138172744Y-93469819D01*
X138172744Y-93469819D02*
X138410839Y-93469819D01*
X137458458Y-93184104D02*
X136982268Y-93184104D01*
X137553696Y-93469819D02*
X137220363Y-92469819D01*
X137220363Y-92469819D02*
X136887030Y-93469819D01*
X155563990Y-103363220D02*
X155563990Y-103029887D01*
X155040180Y-102887030D02*
X155040180Y-103363220D01*
X155040180Y-103363220D02*
X156040180Y-103363220D01*
X156040180Y-103363220D02*
X156040180Y-102887030D01*
X155087800Y-102506077D02*
X155040180Y-102363220D01*
X155040180Y-102363220D02*
X155040180Y-102125125D01*
X155040180Y-102125125D02*
X155087800Y-102029887D01*
X155087800Y-102029887D02*
X155135419Y-101982268D01*
X155135419Y-101982268D02*
X155230657Y-101934649D01*
X155230657Y-101934649D02*
X155325895Y-101934649D01*
X155325895Y-101934649D02*
X155421133Y-101982268D01*
X155421133Y-101982268D02*
X155468752Y-102029887D01*
X155468752Y-102029887D02*
X155516371Y-102125125D01*
X155516371Y-102125125D02*
X155563990Y-102315601D01*
X155563990Y-102315601D02*
X155611609Y-102410839D01*
X155611609Y-102410839D02*
X155659228Y-102458458D01*
X155659228Y-102458458D02*
X155754466Y-102506077D01*
X155754466Y-102506077D02*
X155849704Y-102506077D01*
X155849704Y-102506077D02*
X155944942Y-102458458D01*
X155944942Y-102458458D02*
X155992561Y-102410839D01*
X155992561Y-102410839D02*
X156040180Y-102315601D01*
X156040180Y-102315601D02*
X156040180Y-102077506D01*
X156040180Y-102077506D02*
X155992561Y-101934649D01*
X155040180Y-101506077D02*
X156040180Y-101506077D01*
X156040180Y-101506077D02*
X156040180Y-101125125D01*
X156040180Y-101125125D02*
X155992561Y-101029887D01*
X155992561Y-101029887D02*
X155944942Y-100982268D01*
X155944942Y-100982268D02*
X155849704Y-100934649D01*
X155849704Y-100934649D02*
X155706847Y-100934649D01*
X155706847Y-100934649D02*
X155611609Y-100982268D01*
X155611609Y-100982268D02*
X155563990Y-101029887D01*
X155563990Y-101029887D02*
X155516371Y-101125125D01*
X155516371Y-101125125D02*
X155516371Y-101506077D01*
X155421133Y-100506077D02*
X155421133Y-99744173D01*
X155040180Y-99267982D02*
X156040180Y-99267982D01*
X156040180Y-99267982D02*
X155325895Y-98934649D01*
X155325895Y-98934649D02*
X156040180Y-98601316D01*
X156040180Y-98601316D02*
X155040180Y-98601316D01*
X155563990Y-98125125D02*
X155563990Y-97791792D01*
X155040180Y-97648935D02*
X155040180Y-98125125D01*
X155040180Y-98125125D02*
X156040180Y-98125125D01*
X156040180Y-98125125D02*
X156040180Y-97648935D01*
X155087800Y-97267982D02*
X155040180Y-97125125D01*
X155040180Y-97125125D02*
X155040180Y-96887030D01*
X155040180Y-96887030D02*
X155087800Y-96791792D01*
X155087800Y-96791792D02*
X155135419Y-96744173D01*
X155135419Y-96744173D02*
X155230657Y-96696554D01*
X155230657Y-96696554D02*
X155325895Y-96696554D01*
X155325895Y-96696554D02*
X155421133Y-96744173D01*
X155421133Y-96744173D02*
X155468752Y-96791792D01*
X155468752Y-96791792D02*
X155516371Y-96887030D01*
X155516371Y-96887030D02*
X155563990Y-97077506D01*
X155563990Y-97077506D02*
X155611609Y-97172744D01*
X155611609Y-97172744D02*
X155659228Y-97220363D01*
X155659228Y-97220363D02*
X155754466Y-97267982D01*
X155754466Y-97267982D02*
X155849704Y-97267982D01*
X155849704Y-97267982D02*
X155944942Y-97220363D01*
X155944942Y-97220363D02*
X155992561Y-97172744D01*
X155992561Y-97172744D02*
X156040180Y-97077506D01*
X156040180Y-97077506D02*
X156040180Y-96839411D01*
X156040180Y-96839411D02*
X155992561Y-96696554D01*
X155087800Y-96315601D02*
X155040180Y-96172744D01*
X155040180Y-96172744D02*
X155040180Y-95934649D01*
X155040180Y-95934649D02*
X155087800Y-95839411D01*
X155087800Y-95839411D02*
X155135419Y-95791792D01*
X155135419Y-95791792D02*
X155230657Y-95744173D01*
X155230657Y-95744173D02*
X155325895Y-95744173D01*
X155325895Y-95744173D02*
X155421133Y-95791792D01*
X155421133Y-95791792D02*
X155468752Y-95839411D01*
X155468752Y-95839411D02*
X155516371Y-95934649D01*
X155516371Y-95934649D02*
X155563990Y-96125125D01*
X155563990Y-96125125D02*
X155611609Y-96220363D01*
X155611609Y-96220363D02*
X155659228Y-96267982D01*
X155659228Y-96267982D02*
X155754466Y-96315601D01*
X155754466Y-96315601D02*
X155849704Y-96315601D01*
X155849704Y-96315601D02*
X155944942Y-96267982D01*
X155944942Y-96267982D02*
X155992561Y-96220363D01*
X155992561Y-96220363D02*
X156040180Y-96125125D01*
X156040180Y-96125125D02*
X156040180Y-95887030D01*
X156040180Y-95887030D02*
X155992561Y-95744173D01*
X155563990Y-94220363D02*
X155516371Y-94077506D01*
X155516371Y-94077506D02*
X155468752Y-94029887D01*
X155468752Y-94029887D02*
X155373514Y-93982268D01*
X155373514Y-93982268D02*
X155230657Y-93982268D01*
X155230657Y-93982268D02*
X155135419Y-94029887D01*
X155135419Y-94029887D02*
X155087800Y-94077506D01*
X155087800Y-94077506D02*
X155040180Y-94172744D01*
X155040180Y-94172744D02*
X155040180Y-94553696D01*
X155040180Y-94553696D02*
X156040180Y-94553696D01*
X156040180Y-94553696D02*
X156040180Y-94220363D01*
X156040180Y-94220363D02*
X155992561Y-94125125D01*
X155992561Y-94125125D02*
X155944942Y-94077506D01*
X155944942Y-94077506D02*
X155849704Y-94029887D01*
X155849704Y-94029887D02*
X155754466Y-94029887D01*
X155754466Y-94029887D02*
X155659228Y-94077506D01*
X155659228Y-94077506D02*
X155611609Y-94125125D01*
X155611609Y-94125125D02*
X155563990Y-94220363D01*
X155563990Y-94220363D02*
X155563990Y-94553696D01*
X156040180Y-92934648D02*
X155040180Y-92601315D01*
X155040180Y-92601315D02*
X156040180Y-92267982D01*
X155040180Y-91410839D02*
X155040180Y-91982267D01*
X155040180Y-91696553D02*
X156040180Y-91696553D01*
X156040180Y-91696553D02*
X155897323Y-91791791D01*
X155897323Y-91791791D02*
X155802085Y-91887029D01*
X155802085Y-91887029D02*
X155754466Y-91982267D01*
X155040180Y-90458458D02*
X155040180Y-91029886D01*
X155040180Y-90744172D02*
X156040180Y-90744172D01*
X156040180Y-90744172D02*
X155897323Y-90839410D01*
X155897323Y-90839410D02*
X155802085Y-90934648D01*
X155802085Y-90934648D02*
X155754466Y-91029886D01*
X155135419Y-90029886D02*
X155087800Y-89982267D01*
X155087800Y-89982267D02*
X155040180Y-90029886D01*
X155040180Y-90029886D02*
X155087800Y-90077505D01*
X155087800Y-90077505D02*
X155135419Y-90029886D01*
X155135419Y-90029886D02*
X155040180Y-90029886D01*
X156040180Y-89363220D02*
X156040180Y-89267982D01*
X156040180Y-89267982D02*
X155992561Y-89172744D01*
X155992561Y-89172744D02*
X155944942Y-89125125D01*
X155944942Y-89125125D02*
X155849704Y-89077506D01*
X155849704Y-89077506D02*
X155659228Y-89029887D01*
X155659228Y-89029887D02*
X155421133Y-89029887D01*
X155421133Y-89029887D02*
X155230657Y-89077506D01*
X155230657Y-89077506D02*
X155135419Y-89125125D01*
X155135419Y-89125125D02*
X155087800Y-89172744D01*
X155087800Y-89172744D02*
X155040180Y-89267982D01*
X155040180Y-89267982D02*
X155040180Y-89363220D01*
X155040180Y-89363220D02*
X155087800Y-89458458D01*
X155087800Y-89458458D02*
X155135419Y-89506077D01*
X155135419Y-89506077D02*
X155230657Y-89553696D01*
X155230657Y-89553696D02*
X155421133Y-89601315D01*
X155421133Y-89601315D02*
X155659228Y-89601315D01*
X155659228Y-89601315D02*
X155849704Y-89553696D01*
X155849704Y-89553696D02*
X155944942Y-89506077D01*
X155944942Y-89506077D02*
X155992561Y-89458458D01*
X155992561Y-89458458D02*
X156040180Y-89363220D01*
X154430180Y-103172744D02*
X154430180Y-103077506D01*
X154430180Y-103077506D02*
X154382561Y-102982268D01*
X154382561Y-102982268D02*
X154334942Y-102934649D01*
X154334942Y-102934649D02*
X154239704Y-102887030D01*
X154239704Y-102887030D02*
X154049228Y-102839411D01*
X154049228Y-102839411D02*
X153811133Y-102839411D01*
X153811133Y-102839411D02*
X153620657Y-102887030D01*
X153620657Y-102887030D02*
X153525419Y-102934649D01*
X153525419Y-102934649D02*
X153477800Y-102982268D01*
X153477800Y-102982268D02*
X153430180Y-103077506D01*
X153430180Y-103077506D02*
X153430180Y-103172744D01*
X153430180Y-103172744D02*
X153477800Y-103267982D01*
X153477800Y-103267982D02*
X153525419Y-103315601D01*
X153525419Y-103315601D02*
X153620657Y-103363220D01*
X153620657Y-103363220D02*
X153811133Y-103410839D01*
X153811133Y-103410839D02*
X154049228Y-103410839D01*
X154049228Y-103410839D02*
X154239704Y-103363220D01*
X154239704Y-103363220D02*
X154334942Y-103315601D01*
X154334942Y-103315601D02*
X154382561Y-103267982D01*
X154382561Y-103267982D02*
X154430180Y-103172744D01*
X154334942Y-102458458D02*
X154382561Y-102410839D01*
X154382561Y-102410839D02*
X154430180Y-102315601D01*
X154430180Y-102315601D02*
X154430180Y-102077506D01*
X154430180Y-102077506D02*
X154382561Y-101982268D01*
X154382561Y-101982268D02*
X154334942Y-101934649D01*
X154334942Y-101934649D02*
X154239704Y-101887030D01*
X154239704Y-101887030D02*
X154144466Y-101887030D01*
X154144466Y-101887030D02*
X154001609Y-101934649D01*
X154001609Y-101934649D02*
X153430180Y-102506077D01*
X153430180Y-102506077D02*
X153430180Y-101887030D01*
X153811133Y-101458458D02*
X153811133Y-100696554D01*
X154430180Y-100029887D02*
X154430180Y-99934649D01*
X154430180Y-99934649D02*
X154382561Y-99839411D01*
X154382561Y-99839411D02*
X154334942Y-99791792D01*
X154334942Y-99791792D02*
X154239704Y-99744173D01*
X154239704Y-99744173D02*
X154049228Y-99696554D01*
X154049228Y-99696554D02*
X153811133Y-99696554D01*
X153811133Y-99696554D02*
X153620657Y-99744173D01*
X153620657Y-99744173D02*
X153525419Y-99791792D01*
X153525419Y-99791792D02*
X153477800Y-99839411D01*
X153477800Y-99839411D02*
X153430180Y-99934649D01*
X153430180Y-99934649D02*
X153430180Y-100029887D01*
X153430180Y-100029887D02*
X153477800Y-100125125D01*
X153477800Y-100125125D02*
X153525419Y-100172744D01*
X153525419Y-100172744D02*
X153620657Y-100220363D01*
X153620657Y-100220363D02*
X153811133Y-100267982D01*
X153811133Y-100267982D02*
X154049228Y-100267982D01*
X154049228Y-100267982D02*
X154239704Y-100220363D01*
X154239704Y-100220363D02*
X154334942Y-100172744D01*
X154334942Y-100172744D02*
X154382561Y-100125125D01*
X154382561Y-100125125D02*
X154430180Y-100029887D01*
X153430180Y-99220363D02*
X153430180Y-99029887D01*
X153430180Y-99029887D02*
X153477800Y-98934649D01*
X153477800Y-98934649D02*
X153525419Y-98887030D01*
X153525419Y-98887030D02*
X153668276Y-98791792D01*
X153668276Y-98791792D02*
X153858752Y-98744173D01*
X153858752Y-98744173D02*
X154239704Y-98744173D01*
X154239704Y-98744173D02*
X154334942Y-98791792D01*
X154334942Y-98791792D02*
X154382561Y-98839411D01*
X154382561Y-98839411D02*
X154430180Y-98934649D01*
X154430180Y-98934649D02*
X154430180Y-99125125D01*
X154430180Y-99125125D02*
X154382561Y-99220363D01*
X154382561Y-99220363D02*
X154334942Y-99267982D01*
X154334942Y-99267982D02*
X154239704Y-99315601D01*
X154239704Y-99315601D02*
X154001609Y-99315601D01*
X154001609Y-99315601D02*
X153906371Y-99267982D01*
X153906371Y-99267982D02*
X153858752Y-99220363D01*
X153858752Y-99220363D02*
X153811133Y-99125125D01*
X153811133Y-99125125D02*
X153811133Y-98934649D01*
X153811133Y-98934649D02*
X153858752Y-98839411D01*
X153858752Y-98839411D02*
X153906371Y-98791792D01*
X153906371Y-98791792D02*
X154001609Y-98744173D01*
X153811133Y-98315601D02*
X153811133Y-97553697D01*
X154334942Y-97125125D02*
X154382561Y-97077506D01*
X154382561Y-97077506D02*
X154430180Y-96982268D01*
X154430180Y-96982268D02*
X154430180Y-96744173D01*
X154430180Y-96744173D02*
X154382561Y-96648935D01*
X154382561Y-96648935D02*
X154334942Y-96601316D01*
X154334942Y-96601316D02*
X154239704Y-96553697D01*
X154239704Y-96553697D02*
X154144466Y-96553697D01*
X154144466Y-96553697D02*
X154001609Y-96601316D01*
X154001609Y-96601316D02*
X153430180Y-97172744D01*
X153430180Y-97172744D02*
X153430180Y-96553697D01*
X154430180Y-95934649D02*
X154430180Y-95839411D01*
X154430180Y-95839411D02*
X154382561Y-95744173D01*
X154382561Y-95744173D02*
X154334942Y-95696554D01*
X154334942Y-95696554D02*
X154239704Y-95648935D01*
X154239704Y-95648935D02*
X154049228Y-95601316D01*
X154049228Y-95601316D02*
X153811133Y-95601316D01*
X153811133Y-95601316D02*
X153620657Y-95648935D01*
X153620657Y-95648935D02*
X153525419Y-95696554D01*
X153525419Y-95696554D02*
X153477800Y-95744173D01*
X153477800Y-95744173D02*
X153430180Y-95839411D01*
X153430180Y-95839411D02*
X153430180Y-95934649D01*
X153430180Y-95934649D02*
X153477800Y-96029887D01*
X153477800Y-96029887D02*
X153525419Y-96077506D01*
X153525419Y-96077506D02*
X153620657Y-96125125D01*
X153620657Y-96125125D02*
X153811133Y-96172744D01*
X153811133Y-96172744D02*
X154049228Y-96172744D01*
X154049228Y-96172744D02*
X154239704Y-96125125D01*
X154239704Y-96125125D02*
X154334942Y-96077506D01*
X154334942Y-96077506D02*
X154382561Y-96029887D01*
X154382561Y-96029887D02*
X154430180Y-95934649D01*
X154334942Y-95220363D02*
X154382561Y-95172744D01*
X154382561Y-95172744D02*
X154430180Y-95077506D01*
X154430180Y-95077506D02*
X154430180Y-94839411D01*
X154430180Y-94839411D02*
X154382561Y-94744173D01*
X154382561Y-94744173D02*
X154334942Y-94696554D01*
X154334942Y-94696554D02*
X154239704Y-94648935D01*
X154239704Y-94648935D02*
X154144466Y-94648935D01*
X154144466Y-94648935D02*
X154001609Y-94696554D01*
X154001609Y-94696554D02*
X153430180Y-95267982D01*
X153430180Y-95267982D02*
X153430180Y-94648935D01*
X154096847Y-93791792D02*
X153430180Y-93791792D01*
X154477800Y-94029887D02*
X153763514Y-94267982D01*
X153763514Y-94267982D02*
X153763514Y-93648935D01*
X138394173Y-89969819D02*
X138060840Y-90969819D01*
X138060840Y-90969819D02*
X137727507Y-89969819D01*
X137394173Y-90588866D02*
X136632269Y-90588866D01*
X138394173Y-105269819D02*
X138060840Y-106269819D01*
X138060840Y-106269819D02*
X137727507Y-105269819D01*
X137394173Y-106269819D02*
X137394173Y-105603152D01*
X137394173Y-105269819D02*
X137441792Y-105317438D01*
X137441792Y-105317438D02*
X137394173Y-105365057D01*
X137394173Y-105365057D02*
X137346554Y-105317438D01*
X137346554Y-105317438D02*
X137394173Y-105269819D01*
X137394173Y-105269819D02*
X137394173Y-105365057D01*
X136917983Y-105603152D02*
X136917983Y-106269819D01*
X136917983Y-105698390D02*
X136870364Y-105650771D01*
X136870364Y-105650771D02*
X136775126Y-105603152D01*
X136775126Y-105603152D02*
X136632269Y-105603152D01*
X136632269Y-105603152D02*
X136537031Y-105650771D01*
X136537031Y-105650771D02*
X136489412Y-105746009D01*
X136489412Y-105746009D02*
X136489412Y-106269819D01*
X139310839Y-95922200D02*
X139167982Y-95969819D01*
X139167982Y-95969819D02*
X138929887Y-95969819D01*
X138929887Y-95969819D02*
X138834649Y-95922200D01*
X138834649Y-95922200D02*
X138787030Y-95874580D01*
X138787030Y-95874580D02*
X138739411Y-95779342D01*
X138739411Y-95779342D02*
X138739411Y-95684104D01*
X138739411Y-95684104D02*
X138787030Y-95588866D01*
X138787030Y-95588866D02*
X138834649Y-95541247D01*
X138834649Y-95541247D02*
X138929887Y-95493628D01*
X138929887Y-95493628D02*
X139120363Y-95446009D01*
X139120363Y-95446009D02*
X139215601Y-95398390D01*
X139215601Y-95398390D02*
X139263220Y-95350771D01*
X139263220Y-95350771D02*
X139310839Y-95255533D01*
X139310839Y-95255533D02*
X139310839Y-95160295D01*
X139310839Y-95160295D02*
X139263220Y-95065057D01*
X139263220Y-95065057D02*
X139215601Y-95017438D01*
X139215601Y-95017438D02*
X139120363Y-94969819D01*
X139120363Y-94969819D02*
X138882268Y-94969819D01*
X138882268Y-94969819D02*
X138739411Y-95017438D01*
X137739411Y-95874580D02*
X137787030Y-95922200D01*
X137787030Y-95922200D02*
X137929887Y-95969819D01*
X137929887Y-95969819D02*
X138025125Y-95969819D01*
X138025125Y-95969819D02*
X138167982Y-95922200D01*
X138167982Y-95922200D02*
X138263220Y-95826961D01*
X138263220Y-95826961D02*
X138310839Y-95731723D01*
X138310839Y-95731723D02*
X138358458Y-95541247D01*
X138358458Y-95541247D02*
X138358458Y-95398390D01*
X138358458Y-95398390D02*
X138310839Y-95207914D01*
X138310839Y-95207914D02*
X138263220Y-95112676D01*
X138263220Y-95112676D02*
X138167982Y-95017438D01*
X138167982Y-95017438D02*
X138025125Y-94969819D01*
X138025125Y-94969819D02*
X137929887Y-94969819D01*
X137929887Y-94969819D02*
X137787030Y-95017438D01*
X137787030Y-95017438D02*
X137739411Y-95065057D01*
X136834649Y-95969819D02*
X137310839Y-95969819D01*
X137310839Y-95969819D02*
X137310839Y-94969819D01*
X139606077Y-102669819D02*
X139272744Y-103669819D01*
X139272744Y-103669819D02*
X138939411Y-102669819D01*
X138463220Y-103669819D02*
X138558458Y-103622200D01*
X138558458Y-103622200D02*
X138606077Y-103574580D01*
X138606077Y-103574580D02*
X138653696Y-103479342D01*
X138653696Y-103479342D02*
X138653696Y-103193628D01*
X138653696Y-103193628D02*
X138606077Y-103098390D01*
X138606077Y-103098390D02*
X138558458Y-103050771D01*
X138558458Y-103050771D02*
X138463220Y-103003152D01*
X138463220Y-103003152D02*
X138320363Y-103003152D01*
X138320363Y-103003152D02*
X138225125Y-103050771D01*
X138225125Y-103050771D02*
X138177506Y-103098390D01*
X138177506Y-103098390D02*
X138129887Y-103193628D01*
X138129887Y-103193628D02*
X138129887Y-103479342D01*
X138129887Y-103479342D02*
X138177506Y-103574580D01*
X138177506Y-103574580D02*
X138225125Y-103622200D01*
X138225125Y-103622200D02*
X138320363Y-103669819D01*
X138320363Y-103669819D02*
X138463220Y-103669819D01*
X137272744Y-103003152D02*
X137272744Y-103669819D01*
X137701315Y-103003152D02*
X137701315Y-103526961D01*
X137701315Y-103526961D02*
X137653696Y-103622200D01*
X137653696Y-103622200D02*
X137558458Y-103669819D01*
X137558458Y-103669819D02*
X137415601Y-103669819D01*
X137415601Y-103669819D02*
X137320363Y-103622200D01*
X137320363Y-103622200D02*
X137272744Y-103574580D01*
X136939410Y-103003152D02*
X136558458Y-103003152D01*
X136796553Y-102669819D02*
X136796553Y-103526961D01*
X136796553Y-103526961D02*
X136748934Y-103622200D01*
X136748934Y-103622200D02*
X136653696Y-103669819D01*
X136653696Y-103669819D02*
X136558458Y-103669819D01*
X150863220Y-80046009D02*
X150529887Y-80046009D01*
X150387030Y-80569819D02*
X150863220Y-80569819D01*
X150863220Y-80569819D02*
X150863220Y-79569819D01*
X150863220Y-79569819D02*
X150387030Y-79569819D01*
X150006077Y-80522200D02*
X149863220Y-80569819D01*
X149863220Y-80569819D02*
X149625125Y-80569819D01*
X149625125Y-80569819D02*
X149529887Y-80522200D01*
X149529887Y-80522200D02*
X149482268Y-80474580D01*
X149482268Y-80474580D02*
X149434649Y-80379342D01*
X149434649Y-80379342D02*
X149434649Y-80284104D01*
X149434649Y-80284104D02*
X149482268Y-80188866D01*
X149482268Y-80188866D02*
X149529887Y-80141247D01*
X149529887Y-80141247D02*
X149625125Y-80093628D01*
X149625125Y-80093628D02*
X149815601Y-80046009D01*
X149815601Y-80046009D02*
X149910839Y-79998390D01*
X149910839Y-79998390D02*
X149958458Y-79950771D01*
X149958458Y-79950771D02*
X150006077Y-79855533D01*
X150006077Y-79855533D02*
X150006077Y-79760295D01*
X150006077Y-79760295D02*
X149958458Y-79665057D01*
X149958458Y-79665057D02*
X149910839Y-79617438D01*
X149910839Y-79617438D02*
X149815601Y-79569819D01*
X149815601Y-79569819D02*
X149577506Y-79569819D01*
X149577506Y-79569819D02*
X149434649Y-79617438D01*
X149006077Y-80569819D02*
X149006077Y-79569819D01*
X149006077Y-79569819D02*
X148625125Y-79569819D01*
X148625125Y-79569819D02*
X148529887Y-79617438D01*
X148529887Y-79617438D02*
X148482268Y-79665057D01*
X148482268Y-79665057D02*
X148434649Y-79760295D01*
X148434649Y-79760295D02*
X148434649Y-79903152D01*
X148434649Y-79903152D02*
X148482268Y-79998390D01*
X148482268Y-79998390D02*
X148529887Y-80046009D01*
X148529887Y-80046009D02*
X148625125Y-80093628D01*
X148625125Y-80093628D02*
X149006077Y-80093628D01*
X157084819Y-61957142D02*
X156608628Y-61623809D01*
X157084819Y-61385714D02*
X156084819Y-61385714D01*
X156084819Y-61385714D02*
X156084819Y-61766666D01*
X156084819Y-61766666D02*
X156132438Y-61861904D01*
X156132438Y-61861904D02*
X156180057Y-61909523D01*
X156180057Y-61909523D02*
X156275295Y-61957142D01*
X156275295Y-61957142D02*
X156418152Y-61957142D01*
X156418152Y-61957142D02*
X156513390Y-61909523D01*
X156513390Y-61909523D02*
X156561009Y-61861904D01*
X156561009Y-61861904D02*
X156608628Y-61766666D01*
X156608628Y-61766666D02*
X156608628Y-61385714D01*
X157084819Y-62909523D02*
X157084819Y-62338095D01*
X157084819Y-62623809D02*
X156084819Y-62623809D01*
X156084819Y-62623809D02*
X156227676Y-62528571D01*
X156227676Y-62528571D02*
X156322914Y-62433333D01*
X156322914Y-62433333D02*
X156370533Y-62338095D01*
X157084819Y-63861904D02*
X157084819Y-63290476D01*
X157084819Y-63576190D02*
X156084819Y-63576190D01*
X156084819Y-63576190D02*
X156227676Y-63480952D01*
X156227676Y-63480952D02*
X156322914Y-63385714D01*
X156322914Y-63385714D02*
X156370533Y-63290476D01*
X146923332Y-104482200D02*
X146780475Y-104529819D01*
X146780475Y-104529819D02*
X146542380Y-104529819D01*
X146542380Y-104529819D02*
X146447142Y-104482200D01*
X146447142Y-104482200D02*
X146399523Y-104434580D01*
X146399523Y-104434580D02*
X146351904Y-104339342D01*
X146351904Y-104339342D02*
X146351904Y-104244104D01*
X146351904Y-104244104D02*
X146399523Y-104148866D01*
X146399523Y-104148866D02*
X146447142Y-104101247D01*
X146447142Y-104101247D02*
X146542380Y-104053628D01*
X146542380Y-104053628D02*
X146732856Y-104006009D01*
X146732856Y-104006009D02*
X146828094Y-103958390D01*
X146828094Y-103958390D02*
X146875713Y-103910771D01*
X146875713Y-103910771D02*
X146923332Y-103815533D01*
X146923332Y-103815533D02*
X146923332Y-103720295D01*
X146923332Y-103720295D02*
X146875713Y-103625057D01*
X146875713Y-103625057D02*
X146828094Y-103577438D01*
X146828094Y-103577438D02*
X146732856Y-103529819D01*
X146732856Y-103529819D02*
X146494761Y-103529819D01*
X146494761Y-103529819D02*
X146351904Y-103577438D01*
X146018570Y-103529819D02*
X145780475Y-104529819D01*
X145780475Y-104529819D02*
X145589999Y-103815533D01*
X145589999Y-103815533D02*
X145399523Y-104529819D01*
X145399523Y-104529819D02*
X145161428Y-103529819D01*
X144304285Y-103529819D02*
X144780475Y-103529819D01*
X144780475Y-103529819D02*
X144828094Y-104006009D01*
X144828094Y-104006009D02*
X144780475Y-103958390D01*
X144780475Y-103958390D02*
X144685237Y-103910771D01*
X144685237Y-103910771D02*
X144447142Y-103910771D01*
X144447142Y-103910771D02*
X144351904Y-103958390D01*
X144351904Y-103958390D02*
X144304285Y-104006009D01*
X144304285Y-104006009D02*
X144256666Y-104101247D01*
X144256666Y-104101247D02*
X144256666Y-104339342D01*
X144256666Y-104339342D02*
X144304285Y-104434580D01*
X144304285Y-104434580D02*
X144351904Y-104482200D01*
X144351904Y-104482200D02*
X144447142Y-104529819D01*
X144447142Y-104529819D02*
X144685237Y-104529819D01*
X144685237Y-104529819D02*
X144780475Y-104482200D01*
X144780475Y-104482200D02*
X144828094Y-104434580D01*
X153466666Y-82084819D02*
X153799999Y-81608628D01*
X154038094Y-82084819D02*
X154038094Y-81084819D01*
X154038094Y-81084819D02*
X153657142Y-81084819D01*
X153657142Y-81084819D02*
X153561904Y-81132438D01*
X153561904Y-81132438D02*
X153514285Y-81180057D01*
X153514285Y-81180057D02*
X153466666Y-81275295D01*
X153466666Y-81275295D02*
X153466666Y-81418152D01*
X153466666Y-81418152D02*
X153514285Y-81513390D01*
X153514285Y-81513390D02*
X153561904Y-81561009D01*
X153561904Y-81561009D02*
X153657142Y-81608628D01*
X153657142Y-81608628D02*
X154038094Y-81608628D01*
X152990475Y-82084819D02*
X152799999Y-82084819D01*
X152799999Y-82084819D02*
X152704761Y-82037200D01*
X152704761Y-82037200D02*
X152657142Y-81989580D01*
X152657142Y-81989580D02*
X152561904Y-81846723D01*
X152561904Y-81846723D02*
X152514285Y-81656247D01*
X152514285Y-81656247D02*
X152514285Y-81275295D01*
X152514285Y-81275295D02*
X152561904Y-81180057D01*
X152561904Y-81180057D02*
X152609523Y-81132438D01*
X152609523Y-81132438D02*
X152704761Y-81084819D01*
X152704761Y-81084819D02*
X152895237Y-81084819D01*
X152895237Y-81084819D02*
X152990475Y-81132438D01*
X152990475Y-81132438D02*
X153038094Y-81180057D01*
X153038094Y-81180057D02*
X153085713Y-81275295D01*
X153085713Y-81275295D02*
X153085713Y-81513390D01*
X153085713Y-81513390D02*
X153038094Y-81608628D01*
X153038094Y-81608628D02*
X152990475Y-81656247D01*
X152990475Y-81656247D02*
X152895237Y-81703866D01*
X152895237Y-81703866D02*
X152704761Y-81703866D01*
X152704761Y-81703866D02*
X152609523Y-81656247D01*
X152609523Y-81656247D02*
X152561904Y-81608628D01*
X152561904Y-81608628D02*
X152514285Y-81513390D01*
X146642857Y-73324819D02*
X146976190Y-72848628D01*
X147214285Y-73324819D02*
X147214285Y-72324819D01*
X147214285Y-72324819D02*
X146833333Y-72324819D01*
X146833333Y-72324819D02*
X146738095Y-72372438D01*
X146738095Y-72372438D02*
X146690476Y-72420057D01*
X146690476Y-72420057D02*
X146642857Y-72515295D01*
X146642857Y-72515295D02*
X146642857Y-72658152D01*
X146642857Y-72658152D02*
X146690476Y-72753390D01*
X146690476Y-72753390D02*
X146738095Y-72801009D01*
X146738095Y-72801009D02*
X146833333Y-72848628D01*
X146833333Y-72848628D02*
X147214285Y-72848628D01*
X145690476Y-73324819D02*
X146261904Y-73324819D01*
X145976190Y-73324819D02*
X145976190Y-72324819D01*
X145976190Y-72324819D02*
X146071428Y-72467676D01*
X146071428Y-72467676D02*
X146166666Y-72562914D01*
X146166666Y-72562914D02*
X146261904Y-72610533D01*
X144833333Y-72658152D02*
X144833333Y-73324819D01*
X145071428Y-72277200D02*
X145309523Y-72991485D01*
X145309523Y-72991485D02*
X144690476Y-72991485D01*
X145861904Y-64454819D02*
X145861904Y-65264342D01*
X145861904Y-65264342D02*
X145814285Y-65359580D01*
X145814285Y-65359580D02*
X145766666Y-65407200D01*
X145766666Y-65407200D02*
X145671428Y-65454819D01*
X145671428Y-65454819D02*
X145480952Y-65454819D01*
X145480952Y-65454819D02*
X145385714Y-65407200D01*
X145385714Y-65407200D02*
X145338095Y-65359580D01*
X145338095Y-65359580D02*
X145290476Y-65264342D01*
X145290476Y-65264342D02*
X145290476Y-64454819D01*
X144385714Y-64788152D02*
X144385714Y-65454819D01*
X144623809Y-64407200D02*
X144861904Y-65121485D01*
X144861904Y-65121485D02*
X144242857Y-65121485D01*
X146858332Y-85007200D02*
X146715475Y-85054819D01*
X146715475Y-85054819D02*
X146477380Y-85054819D01*
X146477380Y-85054819D02*
X146382142Y-85007200D01*
X146382142Y-85007200D02*
X146334523Y-84959580D01*
X146334523Y-84959580D02*
X146286904Y-84864342D01*
X146286904Y-84864342D02*
X146286904Y-84769104D01*
X146286904Y-84769104D02*
X146334523Y-84673866D01*
X146334523Y-84673866D02*
X146382142Y-84626247D01*
X146382142Y-84626247D02*
X146477380Y-84578628D01*
X146477380Y-84578628D02*
X146667856Y-84531009D01*
X146667856Y-84531009D02*
X146763094Y-84483390D01*
X146763094Y-84483390D02*
X146810713Y-84435771D01*
X146810713Y-84435771D02*
X146858332Y-84340533D01*
X146858332Y-84340533D02*
X146858332Y-84245295D01*
X146858332Y-84245295D02*
X146810713Y-84150057D01*
X146810713Y-84150057D02*
X146763094Y-84102438D01*
X146763094Y-84102438D02*
X146667856Y-84054819D01*
X146667856Y-84054819D02*
X146429761Y-84054819D01*
X146429761Y-84054819D02*
X146286904Y-84102438D01*
X145953570Y-84054819D02*
X145715475Y-85054819D01*
X145715475Y-85054819D02*
X145524999Y-84340533D01*
X145524999Y-84340533D02*
X145334523Y-85054819D01*
X145334523Y-85054819D02*
X145096428Y-84054819D01*
X144286904Y-84054819D02*
X144477380Y-84054819D01*
X144477380Y-84054819D02*
X144572618Y-84102438D01*
X144572618Y-84102438D02*
X144620237Y-84150057D01*
X144620237Y-84150057D02*
X144715475Y-84292914D01*
X144715475Y-84292914D02*
X144763094Y-84483390D01*
X144763094Y-84483390D02*
X144763094Y-84864342D01*
X144763094Y-84864342D02*
X144715475Y-84959580D01*
X144715475Y-84959580D02*
X144667856Y-85007200D01*
X144667856Y-85007200D02*
X144572618Y-85054819D01*
X144572618Y-85054819D02*
X144382142Y-85054819D01*
X144382142Y-85054819D02*
X144286904Y-85007200D01*
X144286904Y-85007200D02*
X144239285Y-84959580D01*
X144239285Y-84959580D02*
X144191666Y-84864342D01*
X144191666Y-84864342D02*
X144191666Y-84626247D01*
X144191666Y-84626247D02*
X144239285Y-84531009D01*
X144239285Y-84531009D02*
X144286904Y-84483390D01*
X144286904Y-84483390D02*
X144382142Y-84435771D01*
X144382142Y-84435771D02*
X144572618Y-84435771D01*
X144572618Y-84435771D02*
X144667856Y-84483390D01*
X144667856Y-84483390D02*
X144715475Y-84531009D01*
X144715475Y-84531009D02*
X144763094Y-84626247D01*
D11*
X154677500Y-62837258D02*
X154677500Y-62362742D01*
X155722500Y-62837258D02*
X155722500Y-62362742D01*
D12*
X152816000Y-77421000D02*
X136814000Y-77421000D01*
X152816000Y-76659000D02*
X152816000Y-77421000D01*
X136814000Y-77421000D02*
X136814000Y-76659000D01*
D11*
X143390000Y-99775000D02*
X147790000Y-99775000D01*
X143390000Y-99895000D02*
X143390000Y-99775000D01*
X143390000Y-102045000D02*
X143390000Y-100905000D01*
X143390000Y-103175000D02*
X143390000Y-103055000D01*
X147790000Y-99775000D02*
X147790000Y-99895000D01*
X147790000Y-100905000D02*
X147790000Y-102045000D01*
X147790000Y-103055000D02*
X147790000Y-103175000D01*
X147790000Y-103175000D02*
X143390000Y-103175000D01*
X153062742Y-79677500D02*
X153537258Y-79677500D01*
X153062742Y-80722500D02*
X153537258Y-80722500D01*
X146237258Y-74822500D02*
X145762742Y-74822500D01*
X146237258Y-73777500D02*
X145762742Y-73777500D01*
X145100000Y-72585000D02*
X147300000Y-72585000D01*
X145100000Y-72585000D02*
X142900000Y-72585000D01*
X145100000Y-65815000D02*
X148700000Y-65815000D01*
X145100000Y-65815000D02*
X142900000Y-65815000D01*
X139312500Y-81087500D02*
X139312500Y-83807500D01*
X139312500Y-85667500D02*
X139312500Y-88807500D01*
X139312500Y-90667500D02*
X139312500Y-93387500D01*
X139312500Y-93387500D02*
X151612500Y-93387500D01*
X151612500Y-81087500D02*
X139312500Y-81087500D01*
X151612500Y-83807500D02*
X151612500Y-81087500D01*
X151612500Y-88807500D02*
X151612500Y-85667500D01*
X151612500Y-93387500D02*
X151612500Y-90667500D01*
X150141550Y-87197500D02*
G75*
G03*
X150141550Y-87197500I-4579050J0D01*
G01*
X147725000Y-88900000D02*
X143325000Y-88900000D01*
X147725000Y-88780000D02*
X147725000Y-88900000D01*
X147725000Y-86630000D02*
X147725000Y-87770000D01*
X147725000Y-85500000D02*
X147725000Y-85620000D01*
X143325000Y-88900000D02*
X143325000Y-88780000D01*
X143325000Y-87770000D02*
X143325000Y-86630000D01*
X143325000Y-85620000D02*
X143325000Y-85500000D01*
X143325000Y-85500000D02*
X147725000Y-85500000D01*
X151537500Y-107712500D02*
X151537500Y-104992500D01*
X151537500Y-103132500D02*
X151537500Y-99992500D01*
X151537500Y-98132500D02*
X151537500Y-95412500D01*
X151537500Y-95412500D02*
X139237500Y-95412500D01*
X139237500Y-107712500D02*
X151537500Y-107712500D01*
X139237500Y-104992500D02*
X139237500Y-107712500D01*
X139237500Y-99992500D02*
X139237500Y-103132500D01*
X139237500Y-95412500D02*
X139237500Y-98132500D01*
X149866550Y-101602500D02*
G75*
G03*
X149866550Y-101602500I-4579050J0D01*
G01*
%LPC*%
D13*
X155000000Y-106289087D03*
D14*
X155000000Y-86289087D03*
D15*
X135425000Y-87925000D03*
D16*
X135425000Y-90465000D03*
X135425000Y-93005000D03*
X135425000Y-95545000D03*
X135425000Y-98085000D03*
X135425000Y-100625000D03*
X135425000Y-103165000D03*
X135425000Y-105705000D03*
D17*
X155200000Y-63425000D03*
X155200000Y-61775000D03*
D18*
X152500000Y-61800000D03*
X152500000Y-63800000D03*
X152500000Y-65800000D03*
X152500000Y-67800000D03*
X152500000Y-69800000D03*
X152500000Y-71800000D03*
X152500000Y-73800000D03*
X152500000Y-75800000D03*
X137100000Y-75800000D03*
X137100000Y-73800000D03*
X137100000Y-71800000D03*
X137100000Y-69800000D03*
X137100000Y-67800000D03*
X137100000Y-65800000D03*
X137100000Y-63800000D03*
X137100000Y-61800000D03*
D19*
X149810000Y-77500000D03*
X147810000Y-77500000D03*
X145810000Y-77500000D03*
X143810000Y-77500000D03*
X141810000Y-77500000D03*
X139810000Y-77500000D03*
D20*
X143515000Y-102550000D03*
X147665000Y-102550000D03*
X143515000Y-100400000D03*
X147665000Y-100400000D03*
D21*
X152475000Y-80200000D03*
X154125000Y-80200000D03*
D22*
X146825000Y-74300000D03*
X145175000Y-74300000D03*
D23*
X147962500Y-66275000D03*
X147962500Y-66925000D03*
X147962500Y-67575000D03*
X147962500Y-68225000D03*
X147962500Y-68875000D03*
X147962500Y-69525000D03*
X147962500Y-70175000D03*
X147962500Y-70825000D03*
X147962500Y-71475000D03*
X147962500Y-72125000D03*
X142237500Y-72125000D03*
X142237500Y-71475000D03*
X142237500Y-70825000D03*
X142237500Y-70175000D03*
X142237500Y-69525000D03*
X142237500Y-68875000D03*
X142237500Y-68225000D03*
X142237500Y-67575000D03*
X142237500Y-66925000D03*
X142237500Y-66275000D03*
D24*
X139212500Y-89737500D03*
X151712500Y-89737500D03*
X139212500Y-84737500D03*
X151712500Y-84737500D03*
D20*
X147600000Y-86125000D03*
X143450000Y-86125000D03*
X147600000Y-88275000D03*
X143450000Y-88275000D03*
D24*
X151637500Y-99062500D03*
X139137500Y-99062500D03*
X151637500Y-104062500D03*
X139137500Y-104062500D03*
%LPD*%
M02*
