M48
; DRILL file {KiCad 7.0.7} date Tue Feb 13 08:09:57 2024
; FORMAT={-:-/ absolute / metric / decimal}
; #@! TF.CreationDate,2024-02-13T08:09:57-05:00
; #@! TF.GenerationSoftware,Kicad,Pcbnew,7.0.7
; #@! TF.FileFunction,Plated,1,2,PTH
FMAT,2
METRIC
; #@! TA.AperFunction,Plated,PTH,ViaDrill
T1C0.300
; #@! TA.AperFunction,Plated,PTH,ComponentDrill
T2C1.000
; #@! TA.AperFunction,Plated,PTH,ComponentDrill
T3C1.300
%
G90
G05
T1
X134.2Y-64.6
X134.45Y-84.2
X134.6Y-65.4
X134.915Y-82.9
X134.99Y-74.97
X136.1Y-80.0
X137.6Y-105.5
X137.8Y-83.2
X137.9Y-93.5
X137.99Y-100.85
X138.7Y-70.8
X138.815Y-64.7
X139.5Y-70.2
X140.1Y-69.4
X141.705Y-64.98
X141.9Y-85.9
X142.4Y-99.062
X142.5Y-89.737
X143.0Y-74.1
X143.105Y-64.465
X143.514Y-73.0
X144.115Y-70.4
X144.18Y-103.66
X144.29Y-64.98
X145.2Y-81.0
X145.7Y-70.3
X148.0Y-87.3
X148.0Y-104.6
X148.1Y-80.3
X148.9Y-62.5
X149.0Y-61.2
X149.5Y-67.2
X150.0Y-74.8
X150.11Y-100.73
X152.4Y-77.8
X154.6Y-66.0
X154.726Y-78.474
X154.775Y-81.7
X155.2Y-67.3
T2
X135.425Y-87.925
X135.425Y-90.465
X135.425Y-93.005
X135.425Y-95.545
X135.425Y-98.085
X135.425Y-100.625
X135.425Y-103.165
X135.425Y-105.705
T3
X155.0Y-86.289
X155.0Y-106.289
T0
M30
