G04 #@! TF.GenerationSoftware,KiCad,Pcbnew,7.0.7*
G04 #@! TF.CreationDate,2024-02-13T08:09:53-05:00*
G04 #@! TF.ProjectId,sensor_node,73656e73-6f72-45f6-9e6f-64652e6b6963,rev?*
G04 #@! TF.SameCoordinates,Original*
G04 #@! TF.FileFunction,Copper,L1,Top*
G04 #@! TF.FilePolarity,Positive*
%FSLAX46Y46*%
G04 Gerber Fmt 4.6, Leading zero omitted, Abs format (unit mm)*
G04 Created by KiCad (PCBNEW 7.0.7) date 2024-02-13 08:09:53*
%MOMM*%
%LPD*%
G01*
G04 APERTURE LIST*
G04 Aperture macros list*
%AMRoundRect*
0 Rectangle with rounded corners*
0 $1 Rounding radius*
0 $2 $3 $4 $5 $6 $7 $8 $9 X,Y pos of 4 corners*
0 Add a 4 corners polygon primitive as box body*
4,1,4,$2,$3,$4,$5,$6,$7,$8,$9,$2,$3,0*
0 Add four circle primitives for the rounded corners*
1,1,$1+$1,$2,$3*
1,1,$1+$1,$4,$5*
1,1,$1+$1,$6,$7*
1,1,$1+$1,$8,$9*
0 Add four rect primitives between the rounded corners*
20,1,$1+$1,$2,$3,$4,$5,0*
20,1,$1+$1,$4,$5,$6,$7,0*
20,1,$1+$1,$6,$7,$8,$9,0*
20,1,$1+$1,$8,$9,$2,$3,0*%
%AMFreePoly0*
4,1,48,0.304658,0.675378,0.306642,0.675910,0.309680,0.674493,0.326062,0.671605,0.338804,0.660912,0.353882,0.653882,0.653881,0.353882,0.656594,0.350006,0.658373,0.348980,0.659519,0.345829,0.669061,0.332204,0.670510,0.315631,0.676200,0.300000,0.676200,-0.600000,0.674454,-0.609900,0.675042,-0.613232,0.673350,-0.616161,0.671605,-0.626062,0.658877,-0.641229,0.648980,-0.658373,
0.642519,-0.660724,0.638100,-0.665991,0.618605,-0.669428,0.600000,-0.676200,-0.600000,-0.676200,-0.609900,-0.674454,-0.613232,-0.675042,-0.616161,-0.673350,-0.626062,-0.671605,-0.641229,-0.658877,-0.658373,-0.648980,-0.660724,-0.642519,-0.665991,-0.638100,-0.669428,-0.618605,-0.676200,-0.600000,-0.676200,0.600000,-0.674454,0.609900,-0.675042,0.613232,-0.673350,0.616161,-0.671605,0.626062,
-0.658877,0.641229,-0.648980,0.658373,-0.642519,0.660724,-0.638100,0.665991,-0.618605,0.669428,-0.600000,0.676200,0.300000,0.676200,0.304658,0.675378,0.304658,0.675378,$1*%
%AMFreePoly1*
4,1,48,0.609900,0.674454,0.613232,0.675042,0.616161,0.673350,0.626062,0.671605,0.641229,0.658877,0.658373,0.648980,0.660724,0.642519,0.665991,0.638100,0.669428,0.618605,0.676200,0.600000,0.676200,-0.600000,0.674454,-0.609900,0.675042,-0.613232,0.673350,-0.616161,0.671605,-0.626062,0.658877,-0.641229,0.648980,-0.658373,0.642519,-0.660724,0.638100,-0.665991,0.618605,-0.669428,
0.600000,-0.676200,-0.600000,-0.676200,-0.609900,-0.674454,-0.613232,-0.675042,-0.616161,-0.673350,-0.626062,-0.671605,-0.641229,-0.658877,-0.658373,-0.648980,-0.660724,-0.642519,-0.665991,-0.638100,-0.669428,-0.618605,-0.676200,-0.600000,-0.676200,0.300000,-0.675378,0.304658,-0.675910,0.306642,-0.674493,0.309680,-0.671605,0.326062,-0.660912,0.338804,-0.653882,0.353882,-0.353882,0.653881,
-0.350006,0.656594,-0.348980,0.658373,-0.345829,0.659519,-0.332204,0.669061,-0.315631,0.670510,-0.300000,0.676200,0.600000,0.676200,0.609900,0.674454,0.609900,0.674454,$1*%
%AMFreePoly2*
4,1,6,0.500000,-0.850000,-0.500000,-0.850000,-0.500000,0.550000,-0.200000,0.850000,0.500000,0.850000,0.500000,-0.850000,0.500000,-0.850000,$1*%
G04 Aperture macros list end*
G04 #@! TA.AperFunction,SMDPad,CuDef*
%ADD10RoundRect,0.150000X0.150000X-0.587500X0.150000X0.587500X-0.150000X0.587500X-0.150000X-0.587500X0*%
G04 #@! TD*
G04 #@! TA.AperFunction,SMDPad,CuDef*
%ADD11FreePoly0,180.000000*%
G04 #@! TD*
G04 #@! TA.AperFunction,SMDPad,CuDef*
%ADD12R,1.600000X1.500000*%
G04 #@! TD*
G04 #@! TA.AperFunction,SMDPad,CuDef*
%ADD13FreePoly1,180.000000*%
G04 #@! TD*
G04 #@! TA.AperFunction,SMDPad,CuDef*
%ADD14RoundRect,0.225000X0.250000X-0.225000X0.250000X0.225000X-0.250000X0.225000X-0.250000X-0.225000X0*%
G04 #@! TD*
G04 #@! TA.AperFunction,SMDPad,CuDef*
%ADD15R,0.990000X0.300000*%
G04 #@! TD*
G04 #@! TA.AperFunction,SMDPad,CuDef*
%ADD16RoundRect,0.225000X-0.250000X0.225000X-0.250000X-0.225000X0.250000X-0.225000X0.250000X0.225000X0*%
G04 #@! TD*
G04 #@! TA.AperFunction,SMDPad,CuDef*
%ADD17RoundRect,0.200000X-0.275000X0.200000X-0.275000X-0.200000X0.275000X-0.200000X0.275000X0.200000X0*%
G04 #@! TD*
G04 #@! TA.AperFunction,SMDPad,CuDef*
%ADD18RoundRect,0.150000X-0.512500X-0.150000X0.512500X-0.150000X0.512500X0.150000X-0.512500X0.150000X0*%
G04 #@! TD*
G04 #@! TA.AperFunction,SMDPad,CuDef*
%ADD19RoundRect,0.200000X0.275000X-0.200000X0.275000X0.200000X-0.275000X0.200000X-0.275000X-0.200000X0*%
G04 #@! TD*
G04 #@! TA.AperFunction,SMDPad,CuDef*
%ADD20RoundRect,0.200000X-0.200000X-0.275000X0.200000X-0.275000X0.200000X0.275000X-0.200000X0.275000X0*%
G04 #@! TD*
G04 #@! TA.AperFunction,SMDPad,CuDef*
%ADD21RoundRect,0.200000X0.200000X0.275000X-0.200000X0.275000X-0.200000X-0.275000X0.200000X-0.275000X0*%
G04 #@! TD*
G04 #@! TA.AperFunction,SMDPad,CuDef*
%ADD22R,0.550000X0.250000*%
G04 #@! TD*
G04 #@! TA.AperFunction,SMDPad,CuDef*
%ADD23FreePoly2,0.000000*%
G04 #@! TD*
G04 #@! TA.AperFunction,SMDPad,CuDef*
%ADD24R,0.600000X0.720000*%
G04 #@! TD*
G04 #@! TA.AperFunction,SMDPad,CuDef*
%ADD25R,2.000000X2.000000*%
G04 #@! TD*
G04 #@! TA.AperFunction,SMDPad,CuDef*
%ADD26RoundRect,0.150000X0.512500X0.150000X-0.512500X0.150000X-0.512500X-0.150000X0.512500X-0.150000X0*%
G04 #@! TD*
G04 #@! TA.AperFunction,ComponentPad*
%ADD27R,2.100000X2.100000*%
G04 #@! TD*
G04 #@! TA.AperFunction,ComponentPad*
%ADD28C,2.100000*%
G04 #@! TD*
G04 #@! TA.AperFunction,SMDPad,CuDef*
%ADD29RoundRect,0.150000X-0.150000X0.587500X-0.150000X-0.587500X0.150000X-0.587500X0.150000X0.587500X0*%
G04 #@! TD*
G04 #@! TA.AperFunction,SMDPad,CuDef*
%ADD30RoundRect,0.225000X-0.225000X-0.250000X0.225000X-0.250000X0.225000X0.250000X-0.225000X0.250000X0*%
G04 #@! TD*
G04 #@! TA.AperFunction,SMDPad,CuDef*
%ADD31R,0.250000X0.550000*%
G04 #@! TD*
G04 #@! TA.AperFunction,SMDPad,CuDef*
%ADD32R,1.050000X0.650000*%
G04 #@! TD*
G04 #@! TA.AperFunction,SMDPad,CuDef*
%ADD33R,3.500000X1.000000*%
G04 #@! TD*
G04 #@! TA.AperFunction,SMDPad,CuDef*
%ADD34R,3.400000X1.500000*%
G04 #@! TD*
G04 #@! TA.AperFunction,ComponentPad*
%ADD35R,1.700000X1.700000*%
G04 #@! TD*
G04 #@! TA.AperFunction,ComponentPad*
%ADD36O,1.700000X1.700000*%
G04 #@! TD*
G04 #@! TA.AperFunction,ViaPad*
%ADD37C,0.500000*%
G04 #@! TD*
G04 #@! TA.AperFunction,Conductor*
%ADD38C,0.130000*%
G04 #@! TD*
G04 APERTURE END LIST*
D10*
X138050000Y-92137500D03*
X139950000Y-92137500D03*
X139000000Y-90262500D03*
D11*
X140200000Y-94875000D03*
D12*
X139200000Y-98125000D03*
D13*
X138200000Y-94875000D03*
D14*
X141600000Y-83375000D03*
X141600000Y-81825000D03*
D15*
X137200000Y-82050000D03*
X137200000Y-81400000D03*
X137200000Y-80750000D03*
X135590000Y-80750000D03*
X135590000Y-81400000D03*
X135590000Y-82050000D03*
D16*
X153400000Y-75025000D03*
X153400000Y-76575000D03*
D17*
X138643750Y-105025000D03*
X138643750Y-106675000D03*
D18*
X145600000Y-104700000D03*
X145600000Y-106600000D03*
X147875000Y-105650000D03*
D19*
X143137500Y-106625000D03*
X143137500Y-104975000D03*
D20*
X147075000Y-78200000D03*
X148725000Y-78200000D03*
X144000000Y-75910000D03*
X145650000Y-75910000D03*
D21*
X149250000Y-75910000D03*
X147600000Y-75910000D03*
D22*
X141940000Y-61874500D03*
X141940000Y-62374500D03*
X141940000Y-62874500D03*
X141940000Y-63374500D03*
X144290000Y-63374500D03*
X144290000Y-62874500D03*
X144290000Y-62374500D03*
X144290000Y-61874500D03*
D23*
X143115000Y-62624500D03*
D19*
X151400000Y-76650000D03*
X151400000Y-75000000D03*
D24*
X142715000Y-69040000D03*
X142715000Y-68070000D03*
X142715000Y-67100000D03*
X142715000Y-66130000D03*
X144115000Y-66130000D03*
X144115000Y-67100000D03*
X144115000Y-68070000D03*
X144115000Y-69040000D03*
D25*
X135200000Y-77800000D03*
X135200000Y-62680000D03*
D21*
X137025000Y-84400000D03*
X135375000Y-84400000D03*
D16*
X155400000Y-75000000D03*
X155400000Y-76550000D03*
D26*
X141737500Y-102750000D03*
X141737500Y-101800000D03*
X141737500Y-100850000D03*
X139462500Y-100850000D03*
X139462500Y-101800000D03*
X139462500Y-102750000D03*
D16*
X139600000Y-79450000D03*
X139600000Y-81000000D03*
D27*
X155000000Y-106289087D03*
D28*
X155000000Y-86289087D03*
D17*
X139690000Y-61895000D03*
X139690000Y-63545000D03*
D19*
X140843750Y-106675000D03*
X140843750Y-105025000D03*
D29*
X144550000Y-78662500D03*
X142650000Y-78662500D03*
X143600000Y-80537500D03*
D30*
X146350000Y-72200000D03*
X144800000Y-72200000D03*
D21*
X140025000Y-77000000D03*
X138375000Y-77000000D03*
D31*
X139900000Y-65650000D03*
X139400000Y-65650000D03*
X138900000Y-65650000D03*
X138900000Y-68400000D03*
X139400000Y-68400000D03*
X139900000Y-68400000D03*
D20*
X144015000Y-74030000D03*
X145665000Y-74030000D03*
D32*
X141975000Y-74300000D03*
X137825000Y-74300000D03*
X141975000Y-72150000D03*
X137825000Y-72150000D03*
D33*
X148450000Y-70180000D03*
X148450000Y-68180000D03*
X148450000Y-66180000D03*
X148450000Y-64180000D03*
D34*
X154200000Y-72530000D03*
X154200000Y-61830000D03*
D35*
X135425000Y-87925000D03*
D36*
X135425000Y-90465000D03*
X135425000Y-93005000D03*
X135425000Y-95545000D03*
X135425000Y-98085000D03*
X135425000Y-100625000D03*
X135425000Y-103165000D03*
X135425000Y-105705000D03*
D30*
X147595000Y-74070000D03*
X149145000Y-74070000D03*
D10*
X138240000Y-87287500D03*
X140140000Y-87287500D03*
X139190000Y-85412500D03*
D37*
X148000000Y-104600000D03*
X138815000Y-64700000D03*
X137900000Y-93500000D03*
X143105000Y-64465500D03*
X136100000Y-80000000D03*
X137600000Y-105500000D03*
X137800000Y-83200000D03*
X145700000Y-70300000D03*
X141900000Y-85900000D03*
X154775500Y-81700000D03*
X145200000Y-81000000D03*
X155200000Y-67300000D03*
X148100000Y-80300000D03*
X150000000Y-74800000D03*
X148000000Y-87300000D03*
X150110000Y-100730000D03*
X154725956Y-78474044D03*
X137990000Y-100850000D03*
X152400000Y-77800000D03*
X144180000Y-103660000D03*
X134914500Y-82900000D03*
X142400000Y-99062500D03*
X142500000Y-89737500D03*
X134449500Y-84200000D03*
X154600000Y-66000000D03*
X140100000Y-69400000D03*
X143514500Y-73000000D03*
X134990000Y-74970000D03*
X138700000Y-70800000D03*
X143000000Y-74100000D03*
X139500000Y-70200000D03*
X144290000Y-64980000D03*
X144115000Y-70400000D03*
X141705000Y-64980000D03*
X148900000Y-62500000D03*
X134200000Y-64600000D03*
X149500000Y-67200000D03*
X149000000Y-61200000D03*
X134600000Y-65400000D03*
D38*
X135425000Y-62905000D02*
X135200000Y-62680000D01*
X133270002Y-64801678D02*
X135166680Y-62905000D01*
X133270002Y-101010002D02*
X133270002Y-64801678D01*
X135166680Y-62905000D02*
X135425000Y-62905000D01*
X135425000Y-103165000D02*
X133270002Y-101010002D01*
X133600001Y-98800001D02*
X135425000Y-100625000D01*
X133600001Y-65199999D02*
X133600001Y-98800001D01*
X134200000Y-64600000D02*
X133600001Y-65199999D01*
X133930000Y-66070000D02*
X133930000Y-96590000D01*
X133930000Y-96590000D02*
X135425000Y-98085000D01*
X134600000Y-65400000D02*
X133930000Y-66070000D01*
X144680000Y-75230000D02*
X144000000Y-75910000D01*
X143514500Y-73000000D02*
X144117609Y-73000000D01*
X144117609Y-73000000D02*
X144680000Y-73562391D01*
X144680000Y-73562391D02*
X144680000Y-75230000D01*
X148400000Y-75060000D02*
X148400000Y-70610000D01*
X149250000Y-75910000D02*
X148400000Y-75060000D01*
X148400000Y-70610000D02*
X148830000Y-70180000D01*
X150000000Y-75160000D02*
X149250000Y-75910000D01*
X144115000Y-71215000D02*
X145000000Y-72100000D01*
X144115000Y-70400000D02*
X144115000Y-71215000D01*
X146970000Y-74070000D02*
X145000000Y-72100000D01*
X147595000Y-74070000D02*
X146970000Y-74070000D01*
X143000000Y-74100000D02*
X143070000Y-74030000D01*
X143070000Y-74030000D02*
X144015000Y-74030000D01*
X144115000Y-70400000D02*
X144115000Y-69040000D01*
X143115000Y-62624500D02*
X143365000Y-62374500D01*
X138075000Y-105025000D02*
X137600000Y-105500000D01*
X143105000Y-64465500D02*
X143115000Y-64455500D01*
X138900000Y-65155000D02*
X138900000Y-64785000D01*
X143115000Y-64455500D02*
X143115000Y-62624500D01*
X140700000Y-102968750D02*
X138643750Y-105025000D01*
X141737500Y-101800000D02*
X141438101Y-101800000D01*
X143365000Y-62374500D02*
X144290000Y-62374500D01*
X144290000Y-61874500D02*
X144290000Y-62374500D01*
X138643750Y-105025000D02*
X138075000Y-105025000D01*
X140700000Y-102538101D02*
X140700000Y-102968750D01*
X141438101Y-101800000D02*
X140700000Y-102538101D01*
X138900000Y-64785000D02*
X138815000Y-64700000D01*
X139200000Y-81400000D02*
X139600000Y-81000000D01*
X135590000Y-80750000D02*
X135590000Y-80510000D01*
X138900000Y-65650000D02*
X138900000Y-65155000D01*
X135590000Y-80510000D02*
X136100000Y-80000000D01*
X154775500Y-81700000D02*
X156165000Y-80310500D01*
X156165000Y-80310500D02*
X156165000Y-68265000D01*
X145200000Y-81000000D02*
X145200000Y-79312500D01*
X156165000Y-68265000D02*
X155200000Y-67300000D01*
X145200000Y-79312500D02*
X144550000Y-78662500D01*
X137000000Y-106100000D02*
X137000000Y-102800000D01*
X137000000Y-102800000D02*
X137050000Y-102750000D01*
X137575000Y-106675000D02*
X137000000Y-106100000D01*
X137050000Y-102750000D02*
X139462500Y-102750000D01*
X138643750Y-106675000D02*
X140843750Y-106675000D01*
X138643750Y-106675000D02*
X137575000Y-106675000D01*
X140140000Y-87460000D02*
X139310000Y-88290000D01*
X138561899Y-88290000D02*
X135790000Y-88290000D01*
X140140000Y-87287500D02*
X140140000Y-87460000D01*
X148060000Y-80260000D02*
X148100000Y-80300000D01*
X139310000Y-88290000D02*
X138561899Y-88290000D01*
X148000000Y-80400000D02*
X148000000Y-87300000D01*
X149250000Y-75910000D02*
X148060000Y-77100000D01*
X139000000Y-88290000D02*
X138561899Y-88290000D01*
X148100000Y-80300000D02*
X148000000Y-80400000D01*
X139000000Y-90262500D02*
X139000000Y-88290000D01*
X150000000Y-74800000D02*
X150000000Y-75160000D01*
X135790000Y-88290000D02*
X135425000Y-87925000D01*
X148060000Y-77100000D02*
X148060000Y-80260000D01*
X137258800Y-101188800D02*
X137870000Y-101800000D01*
X137258800Y-92928700D02*
X137258800Y-101188800D01*
X137870000Y-101800000D02*
X139462500Y-101800000D01*
X138050000Y-92137500D02*
X137258800Y-92928700D01*
X154725956Y-78474044D02*
X154566912Y-78315000D01*
X150110000Y-100730000D02*
X149970000Y-100590000D01*
X149970000Y-100590000D02*
X149970000Y-79445000D01*
X154566912Y-78315000D02*
X148840000Y-78315000D01*
X139462500Y-100850000D02*
X137990000Y-100850000D01*
X148840000Y-78315000D02*
X148725000Y-78200000D01*
X149970000Y-79445000D02*
X148725000Y-78200000D01*
X140860500Y-62374500D02*
X142175000Y-62374500D01*
X139400000Y-65650000D02*
X139400000Y-63625000D01*
X139690000Y-63545000D02*
X140860500Y-62374500D01*
X142715000Y-67100000D02*
X142715000Y-66130000D01*
X139200000Y-98125000D02*
X139200000Y-95875000D01*
X139237500Y-95837500D02*
X140200000Y-94875000D01*
X139200000Y-98125000D02*
X139200000Y-98312500D01*
X139200000Y-98312500D02*
X141737500Y-100850000D01*
X151400000Y-76650000D02*
X152400000Y-77650000D01*
X152400000Y-77650000D02*
X152400000Y-77800000D01*
X153400000Y-75025000D02*
X155375000Y-75025000D01*
X151750000Y-76575000D02*
X153300000Y-75025000D01*
X155275000Y-75025000D02*
X155300000Y-75000000D01*
X151100000Y-76575000D02*
X151750000Y-76575000D01*
X155375000Y-75025000D02*
X155400000Y-75000000D01*
X141600000Y-83375000D02*
X139175000Y-83375000D01*
X137960000Y-82160000D02*
X137960000Y-81535000D01*
X139175000Y-83375000D02*
X137960000Y-82160000D01*
X144260000Y-86035000D02*
X141600000Y-83375000D01*
X137825000Y-81400000D02*
X137200000Y-81400000D01*
X144260000Y-103580000D02*
X144260000Y-86035000D01*
X137960000Y-81535000D02*
X137825000Y-81400000D01*
X134730000Y-81400000D02*
X135590000Y-81400000D01*
X139600000Y-79450000D02*
X135550000Y-79450000D01*
X134730000Y-82715500D02*
X134730000Y-81365000D01*
X134914500Y-82900000D02*
X134730000Y-82715500D01*
X135550000Y-79450000D02*
X134730000Y-80270000D01*
X134730000Y-80270000D02*
X134730000Y-81365000D01*
X142665000Y-102121899D02*
X142665000Y-99327500D01*
X141737500Y-104131250D02*
X140843750Y-105025000D01*
X135175000Y-84200000D02*
X135375000Y-84400000D01*
X134400000Y-78600000D02*
X134400000Y-84200000D01*
X142500000Y-88040000D02*
X139872500Y-85412500D01*
X135200000Y-77800000D02*
X134400000Y-78600000D01*
X142500000Y-89737500D02*
X142500000Y-88040000D01*
X143137500Y-106625000D02*
X145575000Y-106625000D01*
X141737500Y-102750000D02*
X141737500Y-104131250D01*
X143137500Y-106625000D02*
X142443750Y-106625000D01*
X142443750Y-106625000D02*
X140843750Y-105025000D01*
X145575000Y-106625000D02*
X145600000Y-106600000D01*
X134400000Y-84200000D02*
X135175000Y-84200000D01*
X142350000Y-89737500D02*
X139950000Y-92137500D01*
X142036899Y-102750000D02*
X142665000Y-102121899D01*
X141737500Y-102750000D02*
X142036899Y-102750000D01*
X142665000Y-99327500D02*
X142400000Y-99062500D01*
X142500000Y-89737500D02*
X142350000Y-89737500D01*
X139872500Y-85412500D02*
X139190000Y-85412500D01*
X151400000Y-74100000D02*
X152100000Y-73400000D01*
X152100000Y-73400000D02*
X152100000Y-68500000D01*
X151400000Y-75000000D02*
X151400000Y-74100000D01*
X152100000Y-68500000D02*
X154600000Y-66000000D01*
X140100000Y-68600000D02*
X139900000Y-68400000D01*
X142305000Y-65174500D02*
X142305000Y-63739500D01*
X140190000Y-67465000D02*
X142305000Y-65350000D01*
X142305000Y-65350000D02*
X142305000Y-65174500D01*
X143400000Y-65174500D02*
X142305000Y-65174500D01*
X142305000Y-63739500D02*
X141940000Y-63374500D01*
X140100000Y-69400000D02*
X140100000Y-68600000D01*
X143685000Y-68070000D02*
X143400000Y-67785000D01*
X139900000Y-68400000D02*
X139900000Y-67755000D01*
X143400000Y-67785000D02*
X143400000Y-65174500D01*
X139900000Y-67755000D02*
X140190000Y-67465000D01*
X144115000Y-68070000D02*
X143685000Y-68070000D01*
X137020000Y-77000000D02*
X138375000Y-77000000D01*
X134990000Y-74970000D02*
X137020000Y-77000000D01*
X138700000Y-70800000D02*
X139200000Y-71300000D01*
X141975000Y-72150000D02*
X139200000Y-72150000D01*
X139200000Y-72150000D02*
X137825000Y-72150000D01*
X139200000Y-71300000D02*
X139200000Y-72150000D01*
X138900000Y-69600000D02*
X138900000Y-68400000D01*
X141555000Y-70200000D02*
X142715000Y-69040000D01*
X138900000Y-68400000D02*
X138445000Y-68400000D01*
X138445000Y-68400000D02*
X137800000Y-67755000D01*
X140857609Y-61860000D02*
X141415000Y-61860000D01*
X137800000Y-64215000D02*
X139135000Y-62880000D01*
X139837609Y-62880000D02*
X140857609Y-61860000D01*
X137800000Y-67755000D02*
X137800000Y-64215000D01*
X141925500Y-61860000D02*
X141940000Y-61874500D01*
X139135000Y-62880000D02*
X139837609Y-62880000D01*
X139190000Y-69890000D02*
X138900000Y-69600000D01*
X139500000Y-70200000D02*
X139190000Y-69890000D01*
X139500000Y-70200000D02*
X141555000Y-70200000D01*
X141180000Y-61860000D02*
X141925500Y-61860000D01*
X136440000Y-80885000D02*
X136575000Y-80750000D01*
X137665000Y-80285000D02*
X140977965Y-80285000D01*
X135590000Y-82050000D02*
X136215000Y-82050000D01*
X138062500Y-87287500D02*
X138240000Y-87287500D01*
X140977965Y-80285000D02*
X141230465Y-80537500D01*
X136575000Y-80750000D02*
X137200000Y-80750000D01*
X143600000Y-80537500D02*
X141230465Y-80537500D01*
X138240000Y-85615000D02*
X137025000Y-84400000D01*
X136440000Y-81825000D02*
X136440000Y-80885000D01*
X138240000Y-87287500D02*
X138240000Y-85615000D01*
X135590000Y-82965000D02*
X135590000Y-82050000D01*
X137025000Y-84400000D02*
X135590000Y-82965000D01*
X136215000Y-82050000D02*
X136440000Y-81825000D01*
X137200000Y-80750000D02*
X137665000Y-80285000D01*
X148514087Y-106289087D02*
X155000000Y-106289087D01*
X147875000Y-105650000D02*
X146185000Y-107340000D01*
X134100000Y-104490000D02*
X135425000Y-103165000D01*
X143137500Y-104975000D02*
X143812500Y-105650000D01*
X147875000Y-105650000D02*
X148514087Y-106289087D01*
X135483151Y-107340000D02*
X134100000Y-105956849D01*
X146185000Y-107340000D02*
X135483151Y-107340000D01*
X134100000Y-105956849D02*
X134100000Y-104490000D01*
X143812500Y-105650000D02*
X147875000Y-105650000D01*
X145705000Y-74070000D02*
X145665000Y-74030000D01*
X140825000Y-65650000D02*
X139900000Y-65650000D01*
X144290000Y-64980000D02*
X144290000Y-65955000D01*
X144290000Y-65955000D02*
X144115000Y-66130000D01*
X145650000Y-75910000D02*
X145650000Y-74045000D01*
X147605000Y-74060000D02*
X147595000Y-74070000D01*
X141035000Y-65650000D02*
X140825000Y-65650000D01*
X145650000Y-74045000D02*
X145665000Y-74030000D01*
X141705000Y-64980000D02*
X141035000Y-65650000D01*
X144290000Y-63374500D02*
X144290000Y-64980000D01*
X147595000Y-74070000D02*
X145705000Y-74070000D01*
X145650000Y-75910000D02*
X147600000Y-75910000D01*
X148450000Y-62950000D02*
X148900000Y-62500000D01*
X148450000Y-64180000D02*
X148450000Y-62950000D01*
X150465000Y-64945000D02*
X150465000Y-62665000D01*
X148450000Y-66180000D02*
X148480000Y-66180000D01*
X149230000Y-66180000D02*
X150465000Y-64945000D01*
X148480000Y-66180000D02*
X149500000Y-67200000D01*
X147670000Y-66180000D02*
X148830000Y-66180000D01*
X148450000Y-66180000D02*
X149230000Y-66180000D01*
X150465000Y-62665000D02*
X149000000Y-61200000D01*
G04 #@! TA.AperFunction,Conductor*
G36*
X156702539Y-60020185D02*
G01*
X156748294Y-60072989D01*
X156759500Y-60124500D01*
X156759500Y-67901820D01*
X156739815Y-67968859D01*
X156687011Y-68014614D01*
X156617853Y-68024558D01*
X156554297Y-67995533D01*
X156547820Y-67989502D01*
X156500305Y-67941988D01*
X156458515Y-67896949D01*
X156458514Y-67896948D01*
X156458513Y-67896947D01*
X156458511Y-67896945D01*
X156451252Y-67891157D01*
X156451749Y-67890532D01*
X156439282Y-67880965D01*
X155885115Y-67326798D01*
X155851630Y-67265475D01*
X155849700Y-67254063D01*
X155836237Y-67143182D01*
X155780220Y-66995477D01*
X155690483Y-66865470D01*
X155572240Y-66760717D01*
X155572238Y-66760716D01*
X155572237Y-66760715D01*
X155432365Y-66687303D01*
X155278986Y-66649500D01*
X155278985Y-66649500D01*
X155174793Y-66649500D01*
X155107754Y-66629815D01*
X155061999Y-66577011D01*
X155052055Y-66507853D01*
X155081080Y-66444297D01*
X155088272Y-66437025D01*
X155090481Y-66434532D01*
X155090481Y-66434531D01*
X155090483Y-66434530D01*
X155180220Y-66304523D01*
X155236237Y-66156818D01*
X155255278Y-66000000D01*
X155236237Y-65843182D01*
X155236235Y-65843178D01*
X155214992Y-65787164D01*
X155180220Y-65695477D01*
X155090483Y-65565470D01*
X154972240Y-65460717D01*
X154972238Y-65460716D01*
X154972237Y-65460715D01*
X154832365Y-65387303D01*
X154678986Y-65349500D01*
X154678985Y-65349500D01*
X154521015Y-65349500D01*
X154521014Y-65349500D01*
X154367634Y-65387303D01*
X154227762Y-65460715D01*
X154227759Y-65460717D01*
X154227760Y-65460717D01*
X154121679Y-65554696D01*
X154109516Y-65565471D01*
X154019781Y-65695475D01*
X154019780Y-65695476D01*
X153963763Y-65843178D01*
X153963762Y-65843183D01*
X153950298Y-65954065D01*
X153922675Y-66018243D01*
X153914883Y-66026798D01*
X151791789Y-68149892D01*
X151786602Y-68154528D01*
X151754913Y-68179799D01*
X151754910Y-68179802D01*
X151720295Y-68230573D01*
X151683796Y-68280027D01*
X151679684Y-68287808D01*
X151675863Y-68295742D01*
X151657748Y-68354467D01*
X151637449Y-68412478D01*
X151635809Y-68421146D01*
X151634500Y-68429837D01*
X151634500Y-68491293D01*
X151632201Y-68552707D01*
X151633242Y-68561941D01*
X151632448Y-68562030D01*
X151634500Y-68577609D01*
X151634500Y-73155820D01*
X151614815Y-73222859D01*
X151598181Y-73243501D01*
X151091789Y-73749892D01*
X151086602Y-73754528D01*
X151054913Y-73779799D01*
X151054910Y-73779802D01*
X151020295Y-73830573D01*
X150983796Y-73880027D01*
X150979684Y-73887808D01*
X150975863Y-73895742D01*
X150957748Y-73954467D01*
X150937449Y-74012478D01*
X150935809Y-74021146D01*
X150934500Y-74029837D01*
X150934500Y-74091294D01*
X150932242Y-74151613D01*
X150910064Y-74217869D01*
X150855783Y-74261536D01*
X150822159Y-74275463D01*
X150822158Y-74275464D01*
X150696717Y-74371718D01*
X150694091Y-74375141D01*
X150691142Y-74377293D01*
X150690971Y-74377465D01*
X150690944Y-74377438D01*
X150637660Y-74416340D01*
X150567914Y-74420490D01*
X150506996Y-74386274D01*
X150493668Y-74370085D01*
X150490483Y-74365470D01*
X150475397Y-74352105D01*
X150372240Y-74260717D01*
X150372238Y-74260716D01*
X150372237Y-74260715D01*
X150232365Y-74187303D01*
X150078986Y-74149500D01*
X150078985Y-74149500D01*
X149921015Y-74149500D01*
X149921014Y-74149500D01*
X149767634Y-74187303D01*
X149627762Y-74260715D01*
X149624202Y-74263869D01*
X149596041Y-74288816D01*
X149532809Y-74318537D01*
X149513816Y-74320000D01*
X149019000Y-74320000D01*
X148951961Y-74300315D01*
X148906206Y-74247511D01*
X148895000Y-74196000D01*
X148895000Y-73095000D01*
X149395000Y-73095000D01*
X149395000Y-73820000D01*
X150094999Y-73820000D01*
X150094999Y-73771692D01*
X150094998Y-73771677D01*
X150084855Y-73672392D01*
X150031547Y-73511518D01*
X150031542Y-73511507D01*
X149942575Y-73367271D01*
X149942572Y-73367267D01*
X149822732Y-73247427D01*
X149822728Y-73247424D01*
X149678492Y-73158457D01*
X149678481Y-73158452D01*
X149517606Y-73105144D01*
X149418322Y-73095000D01*
X149395000Y-73095000D01*
X148895000Y-73095000D01*
X148895000Y-73089330D01*
X148868334Y-73040497D01*
X148865500Y-73014137D01*
X148865500Y-71204499D01*
X148885185Y-71137460D01*
X148937989Y-71091705D01*
X148989500Y-71080499D01*
X150231517Y-71080499D01*
X150231518Y-71080499D01*
X150325304Y-71065646D01*
X150438342Y-71008050D01*
X150528050Y-70918342D01*
X150585646Y-70805304D01*
X150585646Y-70805302D01*
X150585647Y-70805301D01*
X150600499Y-70711524D01*
X150600500Y-70711519D01*
X150600499Y-69648482D01*
X150585646Y-69554696D01*
X150528050Y-69441658D01*
X150528046Y-69441654D01*
X150528045Y-69441652D01*
X150438347Y-69351954D01*
X150438341Y-69351949D01*
X150432256Y-69348849D01*
X150381462Y-69300872D01*
X150364669Y-69233051D01*
X150387209Y-69166917D01*
X150435033Y-69128940D01*
X150434304Y-69127604D01*
X150442093Y-69123350D01*
X150557187Y-69037190D01*
X150557190Y-69037187D01*
X150643350Y-68922093D01*
X150643354Y-68922086D01*
X150693596Y-68787379D01*
X150693598Y-68787372D01*
X150699999Y-68727844D01*
X150700000Y-68727827D01*
X150700000Y-68430000D01*
X146200000Y-68430000D01*
X146200000Y-68727844D01*
X146206401Y-68787372D01*
X146206403Y-68787379D01*
X146256645Y-68922086D01*
X146256649Y-68922093D01*
X146342809Y-69037187D01*
X146342812Y-69037190D01*
X146457906Y-69123350D01*
X146465696Y-69127604D01*
X146464627Y-69129560D01*
X146510704Y-69164046D01*
X146535127Y-69229508D01*
X146520282Y-69297783D01*
X146470881Y-69347193D01*
X146467746Y-69348847D01*
X146461662Y-69351947D01*
X146461652Y-69351954D01*
X146371954Y-69441652D01*
X146371951Y-69441657D01*
X146314352Y-69554698D01*
X146299500Y-69648475D01*
X146299500Y-70711517D01*
X146303898Y-70739282D01*
X146314354Y-70805304D01*
X146371950Y-70918342D01*
X146371952Y-70918344D01*
X146371954Y-70918347D01*
X146461652Y-71008045D01*
X146461655Y-71008047D01*
X146461658Y-71008050D01*
X146491515Y-71023263D01*
X146544956Y-71050493D01*
X146595751Y-71098467D01*
X146612546Y-71166288D01*
X146600000Y-71203102D01*
X146600000Y-71950000D01*
X147299999Y-71950000D01*
X147299999Y-71901692D01*
X147299998Y-71901677D01*
X147289855Y-71802392D01*
X147236547Y-71641518D01*
X147236542Y-71641507D01*
X147147575Y-71497271D01*
X147147572Y-71497267D01*
X147027732Y-71377427D01*
X147027728Y-71377424D01*
X146918478Y-71310037D01*
X146871753Y-71258089D01*
X146860532Y-71189126D01*
X146888375Y-71125044D01*
X146946444Y-71086189D01*
X146983570Y-71080499D01*
X147810500Y-71080499D01*
X147877539Y-71100184D01*
X147923294Y-71152988D01*
X147934500Y-71204499D01*
X147934500Y-73070500D01*
X147914815Y-73137539D01*
X147862011Y-73183294D01*
X147810500Y-73194500D01*
X147306838Y-73194501D01*
X147271375Y-73197290D01*
X147145467Y-73233870D01*
X147075598Y-73233670D01*
X147016928Y-73195727D01*
X146988085Y-73132089D01*
X146998226Y-73062959D01*
X147023192Y-73027111D01*
X147147576Y-72902727D01*
X147236542Y-72758492D01*
X147236547Y-72758481D01*
X147289855Y-72597606D01*
X147299999Y-72498322D01*
X147300000Y-72498309D01*
X147300000Y-72450000D01*
X146224000Y-72450000D01*
X146156961Y-72430315D01*
X146111206Y-72377511D01*
X146100000Y-72326000D01*
X146100000Y-71224999D01*
X146076693Y-71225000D01*
X146076674Y-71225001D01*
X145977392Y-71235144D01*
X145816518Y-71288452D01*
X145816507Y-71288457D01*
X145672271Y-71377424D01*
X145672267Y-71377427D01*
X145592322Y-71457371D01*
X145530999Y-71490856D01*
X145461307Y-71485870D01*
X145416961Y-71457370D01*
X145411425Y-71451834D01*
X145411416Y-71451827D01*
X145275390Y-71371382D01*
X145275385Y-71371380D01*
X145123633Y-71327292D01*
X145123620Y-71327290D01*
X145088165Y-71324500D01*
X145088163Y-71324500D01*
X144934178Y-71324500D01*
X144867139Y-71304815D01*
X144846497Y-71288181D01*
X144616819Y-71058502D01*
X144583334Y-70997179D01*
X144580500Y-70970821D01*
X144580500Y-70909363D01*
X144600185Y-70842324D01*
X144602450Y-70838923D01*
X144605481Y-70834531D01*
X144605483Y-70834530D01*
X144695220Y-70704523D01*
X144751237Y-70556818D01*
X144770278Y-70400000D01*
X144766086Y-70365471D01*
X144751237Y-70243181D01*
X144695525Y-70096282D01*
X144695220Y-70095477D01*
X144605483Y-69965470D01*
X144605482Y-69965469D01*
X144602450Y-69961076D01*
X144580567Y-69894721D01*
X144580500Y-69890636D01*
X144580500Y-69841151D01*
X144600185Y-69774112D01*
X144648207Y-69730666D01*
X144653342Y-69728050D01*
X144743050Y-69638342D01*
X144800646Y-69525304D01*
X144800646Y-69525302D01*
X144800647Y-69525301D01*
X144813895Y-69441652D01*
X144815500Y-69431519D01*
X144815499Y-68648482D01*
X144815499Y-68648480D01*
X144815499Y-68648476D01*
X144803766Y-68574395D01*
X144803766Y-68535602D01*
X144815500Y-68461519D01*
X144815499Y-67930000D01*
X146200000Y-67930000D01*
X150700000Y-67930000D01*
X150700000Y-67632172D01*
X150699999Y-67632155D01*
X150693598Y-67572627D01*
X150693596Y-67572620D01*
X150643354Y-67437913D01*
X150643350Y-67437906D01*
X150557190Y-67322812D01*
X150557187Y-67322809D01*
X150442093Y-67236649D01*
X150434304Y-67232396D01*
X150435371Y-67230441D01*
X150389287Y-67195942D01*
X150364871Y-67130477D01*
X150379724Y-67062205D01*
X150429130Y-67012800D01*
X150432211Y-67011173D01*
X150438342Y-67008050D01*
X150528050Y-66918342D01*
X150585646Y-66805304D01*
X150585646Y-66805302D01*
X150585647Y-66805301D01*
X150596282Y-66738147D01*
X150600500Y-66711519D01*
X150600499Y-65648482D01*
X150585681Y-65554917D01*
X150594637Y-65485625D01*
X150620471Y-65447844D01*
X150773223Y-65295092D01*
X150778395Y-65290472D01*
X150785855Y-65284523D01*
X150810090Y-65265197D01*
X150844698Y-65214434D01*
X150881205Y-65164971D01*
X150881205Y-65164968D01*
X150881207Y-65164967D01*
X150885301Y-65157220D01*
X150889134Y-65149258D01*
X150889138Y-65149254D01*
X150905725Y-65095477D01*
X150907247Y-65090544D01*
X150922501Y-65046951D01*
X150927551Y-65032520D01*
X150927551Y-65032517D01*
X150929183Y-65023893D01*
X150930500Y-65015162D01*
X150930500Y-64953706D01*
X150932798Y-64892293D01*
X150931758Y-64883061D01*
X150932549Y-64882971D01*
X150930500Y-64867391D01*
X150930500Y-62694624D01*
X150930889Y-62687685D01*
X150935429Y-62647398D01*
X150928640Y-62611517D01*
X152099500Y-62611517D01*
X152105685Y-62650568D01*
X152114354Y-62705304D01*
X152171950Y-62818342D01*
X152171952Y-62818344D01*
X152171954Y-62818347D01*
X152261652Y-62908045D01*
X152261654Y-62908046D01*
X152261658Y-62908050D01*
X152371466Y-62964000D01*
X152374698Y-62965647D01*
X152468475Y-62980499D01*
X152468481Y-62980500D01*
X155931518Y-62980499D01*
X156025304Y-62965646D01*
X156138342Y-62908050D01*
X156228050Y-62818342D01*
X156285646Y-62705304D01*
X156285646Y-62705302D01*
X156285647Y-62705301D01*
X156300499Y-62611524D01*
X156300500Y-62611519D01*
X156300499Y-61048482D01*
X156285646Y-60954696D01*
X156228050Y-60841658D01*
X156228046Y-60841654D01*
X156228045Y-60841652D01*
X156138347Y-60751954D01*
X156138344Y-60751952D01*
X156138342Y-60751950D01*
X156061517Y-60712805D01*
X156025301Y-60694352D01*
X155931524Y-60679500D01*
X152468482Y-60679500D01*
X152387519Y-60692323D01*
X152374696Y-60694354D01*
X152261658Y-60751950D01*
X152261656Y-60751951D01*
X152261657Y-60751951D01*
X152261652Y-60751954D01*
X152171954Y-60841652D01*
X152171951Y-60841657D01*
X152114352Y-60954698D01*
X152099500Y-61048475D01*
X152099500Y-62611517D01*
X150928640Y-62611517D01*
X150926907Y-62602358D01*
X150924005Y-62587022D01*
X150919708Y-62558514D01*
X150914844Y-62526242D01*
X150914841Y-62526236D01*
X150912255Y-62517853D01*
X150909340Y-62509519D01*
X150880632Y-62455201D01*
X150853958Y-62399811D01*
X150849003Y-62392545D01*
X150843772Y-62385457D01*
X150843771Y-62385455D01*
X150800318Y-62342002D01*
X150758513Y-62296947D01*
X150758512Y-62296946D01*
X150758510Y-62296944D01*
X150751247Y-62291152D01*
X150751744Y-62290528D01*
X150739279Y-62280963D01*
X149685115Y-61226798D01*
X149651630Y-61165475D01*
X149649700Y-61154063D01*
X149637305Y-61051981D01*
X149636237Y-61043182D01*
X149580220Y-60895477D01*
X149490483Y-60765470D01*
X149372240Y-60660717D01*
X149372238Y-60660716D01*
X149372237Y-60660715D01*
X149232365Y-60587303D01*
X149078986Y-60549500D01*
X149078985Y-60549500D01*
X148921015Y-60549500D01*
X148921014Y-60549500D01*
X148767634Y-60587303D01*
X148627762Y-60660715D01*
X148509516Y-60765471D01*
X148419781Y-60895475D01*
X148419780Y-60895476D01*
X148363762Y-61043181D01*
X148344722Y-61199999D01*
X148344722Y-61200000D01*
X148363762Y-61356818D01*
X148410191Y-61479238D01*
X148419780Y-61504523D01*
X148509517Y-61634530D01*
X148585305Y-61701672D01*
X148613050Y-61726251D01*
X148650177Y-61785441D01*
X148649409Y-61855306D01*
X148610992Y-61913666D01*
X148588451Y-61928863D01*
X148527759Y-61960717D01*
X148527760Y-61960717D01*
X148429997Y-62047327D01*
X148409516Y-62065471D01*
X148319781Y-62195475D01*
X148319780Y-62195476D01*
X148263763Y-62343178D01*
X148263762Y-62343183D01*
X148250298Y-62454065D01*
X148222675Y-62518243D01*
X148214883Y-62526798D01*
X148141789Y-62599892D01*
X148136602Y-62604528D01*
X148104913Y-62629799D01*
X148104910Y-62629802D01*
X148070295Y-62680573D01*
X148033796Y-62730027D01*
X148029684Y-62737808D01*
X148025863Y-62745742D01*
X148007748Y-62804467D01*
X147987449Y-62862478D01*
X147985809Y-62871146D01*
X147984500Y-62879837D01*
X147984500Y-62941293D01*
X147982201Y-63002707D01*
X147983242Y-63011941D01*
X147982448Y-63012030D01*
X147984500Y-63027609D01*
X147984500Y-63155500D01*
X147964815Y-63222539D01*
X147912011Y-63268294D01*
X147860500Y-63279500D01*
X146668482Y-63279500D01*
X146587519Y-63292323D01*
X146574696Y-63294354D01*
X146461658Y-63351950D01*
X146461656Y-63351951D01*
X146461657Y-63351951D01*
X146461652Y-63351954D01*
X146371954Y-63441652D01*
X146371951Y-63441657D01*
X146371950Y-63441658D01*
X146355311Y-63474313D01*
X146314352Y-63554698D01*
X146299500Y-63648475D01*
X146299500Y-64711517D01*
X146306675Y-64756818D01*
X146314354Y-64805304D01*
X146371950Y-64918342D01*
X146371952Y-64918344D01*
X146371954Y-64918347D01*
X146461652Y-65008045D01*
X146461654Y-65008046D01*
X146461658Y-65008050D01*
X146574696Y-65065646D01*
X146574697Y-65065646D01*
X146582290Y-65069515D01*
X146633086Y-65117490D01*
X146649881Y-65185311D01*
X146627343Y-65251446D01*
X146582290Y-65290485D01*
X146574697Y-65294353D01*
X146574696Y-65294354D01*
X146461658Y-65351950D01*
X146461657Y-65351950D01*
X146461657Y-65351951D01*
X146461652Y-65351954D01*
X146371954Y-65441652D01*
X146371951Y-65441657D01*
X146314352Y-65554698D01*
X146299500Y-65648475D01*
X146299500Y-66711517D01*
X146309480Y-66774531D01*
X146314354Y-66805304D01*
X146371950Y-66918342D01*
X146371952Y-66918344D01*
X146371954Y-66918347D01*
X146461652Y-67008045D01*
X146461655Y-67008047D01*
X146461658Y-67008050D01*
X146467175Y-67010861D01*
X146467740Y-67011149D01*
X146518536Y-67059124D01*
X146535330Y-67126945D01*
X146512792Y-67193080D01*
X146464966Y-67231059D01*
X146465696Y-67232396D01*
X146457906Y-67236649D01*
X146342812Y-67322809D01*
X146342809Y-67322812D01*
X146256649Y-67437906D01*
X146256645Y-67437913D01*
X146206403Y-67572620D01*
X146206401Y-67572627D01*
X146200000Y-67632155D01*
X146200000Y-67930000D01*
X144815499Y-67930000D01*
X144815499Y-67800603D01*
X144835183Y-67733565D01*
X144840234Y-67726291D01*
X144858351Y-67702090D01*
X144858352Y-67702088D01*
X144908597Y-67567376D01*
X144908598Y-67567372D01*
X144914999Y-67507844D01*
X144915000Y-67507827D01*
X144915000Y-67350000D01*
X144620407Y-67350000D01*
X144564112Y-67336485D01*
X144540301Y-67324352D01*
X144446524Y-67309500D01*
X144446519Y-67309500D01*
X143989500Y-67309500D01*
X143922461Y-67289815D01*
X143876706Y-67237011D01*
X143865500Y-67185500D01*
X143865500Y-67014499D01*
X143885185Y-66947460D01*
X143937989Y-66901705D01*
X143989500Y-66890499D01*
X144446517Y-66890499D01*
X144446518Y-66890499D01*
X144540304Y-66875646D01*
X144564114Y-66863513D01*
X144620407Y-66850000D01*
X144915000Y-66850000D01*
X144915000Y-66692172D01*
X144914999Y-66692155D01*
X144908598Y-66632627D01*
X144908597Y-66632623D01*
X144858352Y-66497911D01*
X144840232Y-66473706D01*
X144815815Y-66408242D01*
X144815499Y-66399418D01*
X144815499Y-65738482D01*
X144800646Y-65644696D01*
X144769015Y-65582616D01*
X144755500Y-65526322D01*
X144755500Y-65489363D01*
X144775185Y-65422324D01*
X144777450Y-65418923D01*
X144780481Y-65414531D01*
X144780483Y-65414530D01*
X144870220Y-65284523D01*
X144926237Y-65136818D01*
X144945278Y-64980000D01*
X144940851Y-64943535D01*
X144926237Y-64823181D01*
X144904992Y-64767163D01*
X144870220Y-64675477D01*
X144780483Y-64545470D01*
X144780482Y-64545469D01*
X144777450Y-64541076D01*
X144755567Y-64474721D01*
X144755500Y-64470636D01*
X144755500Y-63925490D01*
X144775185Y-63858451D01*
X144797166Y-63835175D01*
X144796441Y-63834450D01*
X144803339Y-63827551D01*
X144803342Y-63827550D01*
X144893050Y-63737842D01*
X144950646Y-63624804D01*
X144950646Y-63624802D01*
X144950647Y-63624801D01*
X144965499Y-63531024D01*
X144965500Y-63531019D01*
X144965499Y-63217982D01*
X144965499Y-63217980D01*
X144965499Y-63217977D01*
X144953766Y-63143897D01*
X144953766Y-63105102D01*
X144965500Y-63031019D01*
X144965499Y-62840103D01*
X144985183Y-62773065D01*
X144990234Y-62765791D01*
X145008351Y-62741590D01*
X145008352Y-62741588D01*
X145058597Y-62606876D01*
X145058598Y-62606872D01*
X145064999Y-62547344D01*
X145065000Y-62547327D01*
X145065000Y-62499500D01*
X144932754Y-62499500D01*
X144865715Y-62479815D01*
X144845073Y-62463181D01*
X144843073Y-62461181D01*
X144809588Y-62399858D01*
X144814572Y-62330166D01*
X144856444Y-62274233D01*
X144921908Y-62249816D01*
X144930754Y-62249500D01*
X145065000Y-62249500D01*
X145065000Y-62201672D01*
X145064999Y-62201658D01*
X145058128Y-62137757D01*
X145058128Y-62111243D01*
X145064999Y-62047341D01*
X145065000Y-62047327D01*
X145065000Y-61999500D01*
X144289000Y-61999500D01*
X144221961Y-61979815D01*
X144176206Y-61927011D01*
X144165000Y-61875500D01*
X144165000Y-61249500D01*
X144415000Y-61249500D01*
X144415000Y-61749500D01*
X145065000Y-61749500D01*
X145065000Y-61701672D01*
X145064999Y-61701655D01*
X145058598Y-61642127D01*
X145058596Y-61642120D01*
X145008354Y-61507413D01*
X145008350Y-61507406D01*
X144922190Y-61392312D01*
X144922187Y-61392309D01*
X144807093Y-61306149D01*
X144807086Y-61306145D01*
X144672379Y-61255903D01*
X144672372Y-61255901D01*
X144612844Y-61249500D01*
X144415000Y-61249500D01*
X144165000Y-61249500D01*
X143967155Y-61249500D01*
X143907627Y-61255901D01*
X143907620Y-61255903D01*
X143772913Y-61306145D01*
X143772907Y-61306148D01*
X143717418Y-61347687D01*
X143651954Y-61372103D01*
X143623720Y-61370894D01*
X143615003Y-61369514D01*
X142914998Y-61369514D01*
X142851646Y-61374500D01*
X142851644Y-61374500D01*
X142731137Y-61413656D01*
X142651406Y-61471584D01*
X142585600Y-61495064D01*
X142517546Y-61479238D01*
X142490840Y-61458947D01*
X142453347Y-61421454D01*
X142453344Y-61421452D01*
X142453342Y-61421450D01*
X142354121Y-61370894D01*
X142340301Y-61363852D01*
X142246524Y-61349000D01*
X141633482Y-61349000D01*
X141539695Y-61363854D01*
X141506074Y-61380985D01*
X141449780Y-61394500D01*
X140887234Y-61394500D01*
X140880295Y-61394110D01*
X140865150Y-61392404D01*
X140840006Y-61389570D01*
X140779632Y-61400994D01*
X140709662Y-61411541D01*
X140709407Y-61409853D01*
X140650443Y-61410652D01*
X140591159Y-61373677D01*
X140577647Y-61355363D01*
X140520072Y-61260122D01*
X140399877Y-61139927D01*
X140254395Y-61051980D01*
X140254396Y-61051980D01*
X140092105Y-61001409D01*
X140092106Y-61001409D01*
X140021572Y-60995000D01*
X139940000Y-60995000D01*
X139940000Y-62021000D01*
X139920315Y-62088039D01*
X139867511Y-62133794D01*
X139816000Y-62145000D01*
X138715001Y-62145000D01*
X138715001Y-62151582D01*
X138721408Y-62222102D01*
X138721409Y-62222107D01*
X138771980Y-62384395D01*
X138771982Y-62384400D01*
X138796215Y-62424486D01*
X138814051Y-62492040D01*
X138792533Y-62558514D01*
X138774445Y-62579528D01*
X138766952Y-62586481D01*
X138761156Y-62593749D01*
X138760534Y-62593253D01*
X138750967Y-62605714D01*
X137491789Y-63864892D01*
X137486602Y-63869528D01*
X137454913Y-63894799D01*
X137454910Y-63894802D01*
X137420295Y-63945573D01*
X137383796Y-63995027D01*
X137379684Y-64002808D01*
X137375863Y-64010742D01*
X137357748Y-64069467D01*
X137337449Y-64127478D01*
X137335809Y-64136146D01*
X137334500Y-64144837D01*
X137334500Y-64206293D01*
X137332201Y-64267707D01*
X137333242Y-64276941D01*
X137332448Y-64277030D01*
X137334500Y-64292609D01*
X137334500Y-67725373D01*
X137334110Y-67732321D01*
X137329570Y-67772602D01*
X137340994Y-67832977D01*
X137350155Y-67893755D01*
X137352745Y-67902150D01*
X137355661Y-67910485D01*
X137384367Y-67964798D01*
X137411038Y-68020183D01*
X137416011Y-68027476D01*
X137421227Y-68034544D01*
X137441874Y-68055190D01*
X137464681Y-68077997D01*
X137479049Y-68093482D01*
X137506487Y-68123054D01*
X137513753Y-68128848D01*
X137513255Y-68129472D01*
X137525720Y-68139036D01*
X137816520Y-68429837D01*
X138094891Y-68708208D01*
X138099527Y-68713395D01*
X138124803Y-68745090D01*
X138175565Y-68779698D01*
X138225029Y-68816205D01*
X138225031Y-68816205D01*
X138232796Y-68820309D01*
X138240746Y-68824138D01*
X138299454Y-68842247D01*
X138326271Y-68851630D01*
X138351453Y-68860442D01*
X138408229Y-68901161D01*
X138433978Y-68966113D01*
X138434500Y-68977483D01*
X138434500Y-69570373D01*
X138434110Y-69577321D01*
X138429570Y-69617602D01*
X138440994Y-69677977D01*
X138450155Y-69738755D01*
X138452745Y-69747150D01*
X138455661Y-69755485D01*
X138484367Y-69809798D01*
X138511038Y-69865183D01*
X138516011Y-69872476D01*
X138521228Y-69879544D01*
X138564682Y-69922998D01*
X138602997Y-69964293D01*
X138634165Y-70026825D01*
X138626578Y-70096282D01*
X138582644Y-70150610D01*
X138541774Y-70169030D01*
X138467632Y-70187304D01*
X138327762Y-70260715D01*
X138209516Y-70365471D01*
X138119781Y-70495475D01*
X138119780Y-70495476D01*
X138063762Y-70643181D01*
X138044722Y-70799999D01*
X138044722Y-70800000D01*
X138063762Y-70956818D01*
X138119780Y-71104523D01*
X138119781Y-71104524D01*
X138206431Y-71230060D01*
X138228314Y-71296415D01*
X138210848Y-71364067D01*
X138159580Y-71411536D01*
X138104381Y-71424500D01*
X137268482Y-71424500D01*
X137187519Y-71437323D01*
X137174696Y-71439354D01*
X137061658Y-71496950D01*
X137061656Y-71496951D01*
X137061657Y-71496951D01*
X137061652Y-71496954D01*
X136971954Y-71586652D01*
X136971951Y-71586657D01*
X136971950Y-71586658D01*
X136965643Y-71599037D01*
X136914352Y-71699698D01*
X136899500Y-71793475D01*
X136899500Y-72506517D01*
X136908837Y-72565470D01*
X136914354Y-72600304D01*
X136971950Y-72713342D01*
X136971952Y-72713344D01*
X136971954Y-72713347D01*
X137061652Y-72803045D01*
X137061654Y-72803046D01*
X137061658Y-72803050D01*
X137174694Y-72860645D01*
X137174698Y-72860647D01*
X137268475Y-72875499D01*
X137268481Y-72875500D01*
X138381518Y-72875499D01*
X138475304Y-72860646D01*
X138588342Y-72803050D01*
X138678050Y-72713342D01*
X138693406Y-72683203D01*
X138741380Y-72632409D01*
X138803890Y-72615500D01*
X139129837Y-72615500D01*
X139133577Y-72615500D01*
X139161170Y-72618609D01*
X139164820Y-72619442D01*
X139215121Y-72615672D01*
X139219738Y-72615500D01*
X140996110Y-72615500D01*
X141063149Y-72635185D01*
X141106593Y-72683203D01*
X141121950Y-72713342D01*
X141121952Y-72713344D01*
X141121954Y-72713347D01*
X141211652Y-72803045D01*
X141211654Y-72803046D01*
X141211658Y-72803050D01*
X141324694Y-72860645D01*
X141324698Y-72860647D01*
X141418475Y-72875499D01*
X141418481Y-72875500D01*
X142531518Y-72875499D01*
X142625304Y-72860646D01*
X142685232Y-72830110D01*
X142753895Y-72817215D01*
X142818636Y-72843490D01*
X142858894Y-72900596D01*
X142864619Y-72955540D01*
X142859222Y-72999996D01*
X142859222Y-73000000D01*
X142878263Y-73156818D01*
X142933795Y-73303244D01*
X142939162Y-73372907D01*
X142906015Y-73434413D01*
X142847529Y-73467612D01*
X142767630Y-73487305D01*
X142756683Y-73493051D01*
X142688175Y-73506774D01*
X142655728Y-73499435D01*
X142607383Y-73481404D01*
X142607372Y-73481401D01*
X142547844Y-73475000D01*
X142225000Y-73475000D01*
X142225000Y-75125000D01*
X142547828Y-75125000D01*
X142547844Y-75124999D01*
X142607372Y-75118598D01*
X142607379Y-75118596D01*
X142742086Y-75068354D01*
X142742093Y-75068350D01*
X142857187Y-74982190D01*
X142857190Y-74982187D01*
X142943350Y-74867093D01*
X142943355Y-74867084D01*
X142956751Y-74831168D01*
X142998621Y-74775234D01*
X143064085Y-74750816D01*
X143072933Y-74750500D01*
X143078985Y-74750500D01*
X143232365Y-74712696D01*
X143239293Y-74709059D01*
X143307798Y-74695330D01*
X143372854Y-74720817D01*
X143384601Y-74731165D01*
X143386714Y-74733278D01*
X143386716Y-74733279D01*
X143386718Y-74733282D01*
X143512159Y-74829536D01*
X143512160Y-74829536D01*
X143512161Y-74829537D01*
X143567193Y-74852332D01*
X143621597Y-74896173D01*
X143643662Y-74962467D01*
X143626383Y-75030166D01*
X143575246Y-75077777D01*
X143567195Y-75081454D01*
X143497159Y-75110464D01*
X143371718Y-75206718D01*
X143275463Y-75332160D01*
X143214956Y-75478237D01*
X143214955Y-75478239D01*
X143199500Y-75595638D01*
X143199500Y-76224363D01*
X143214953Y-76341753D01*
X143214956Y-76341762D01*
X143263083Y-76457952D01*
X143275464Y-76487841D01*
X143371718Y-76613282D01*
X143497159Y-76709536D01*
X143643238Y-76770044D01*
X143760639Y-76785500D01*
X144239360Y-76785499D01*
X144239363Y-76785499D01*
X144356753Y-76770046D01*
X144356757Y-76770044D01*
X144356762Y-76770044D01*
X144502841Y-76709536D01*
X144628282Y-76613282D01*
X144724536Y-76487841D01*
X144724535Y-76487841D01*
X144726624Y-76485120D01*
X144783052Y-76443917D01*
X144852798Y-76439762D01*
X144913718Y-76473974D01*
X144923376Y-76485120D01*
X145009912Y-76597897D01*
X145021718Y-76613282D01*
X145147159Y-76709536D01*
X145293238Y-76770044D01*
X145410639Y-76785500D01*
X145889360Y-76785499D01*
X145889363Y-76785499D01*
X146006753Y-76770046D01*
X146006757Y-76770044D01*
X146006762Y-76770044D01*
X146152841Y-76709536D01*
X146278282Y-76613282D01*
X146374536Y-76487841D01*
X146389361Y-76452048D01*
X146433202Y-76397644D01*
X146499496Y-76375579D01*
X146503923Y-76375500D01*
X146746077Y-76375500D01*
X146813116Y-76395185D01*
X146858871Y-76447989D01*
X146860638Y-76452048D01*
X146875462Y-76487838D01*
X146875463Y-76487839D01*
X146875464Y-76487841D01*
X146971718Y-76613282D01*
X147097159Y-76709536D01*
X147243238Y-76770044D01*
X147360639Y-76785500D01*
X147501854Y-76785499D01*
X147568892Y-76805183D01*
X147614647Y-76857987D01*
X147624591Y-76927145D01*
X147620350Y-76946030D01*
X147619311Y-76949397D01*
X147617748Y-76954467D01*
X147605798Y-76988618D01*
X147597449Y-77012479D01*
X147595809Y-77021146D01*
X147594500Y-77029837D01*
X147594500Y-77091294D01*
X147593160Y-77127088D01*
X147570982Y-77193344D01*
X147516503Y-77237092D01*
X147447021Y-77244442D01*
X147432359Y-77240836D01*
X147402105Y-77231409D01*
X147331572Y-77225000D01*
X147325000Y-77225000D01*
X147325000Y-79174999D01*
X147331581Y-79174999D01*
X147402102Y-79168591D01*
X147402104Y-79168591D01*
X147433608Y-79158774D01*
X147503468Y-79157622D01*
X147562861Y-79194422D01*
X147592930Y-79257490D01*
X147594500Y-79277159D01*
X147594500Y-79848586D01*
X147574815Y-79915625D01*
X147572559Y-79919011D01*
X147564514Y-79930668D01*
X147519781Y-79995475D01*
X147519780Y-79995476D01*
X147463762Y-80143181D01*
X147455121Y-80214354D01*
X147444722Y-80300000D01*
X147463763Y-80456818D01*
X147519780Y-80604523D01*
X147519784Y-80604529D01*
X147520293Y-80605499D01*
X147520558Y-80606575D01*
X147522440Y-80611537D01*
X147521837Y-80611765D01*
X147534500Y-80663132D01*
X147534500Y-86790636D01*
X147514815Y-86857675D01*
X147512550Y-86861076D01*
X147419781Y-86995475D01*
X147419780Y-86995476D01*
X147363762Y-87143181D01*
X147344722Y-87299999D01*
X147344722Y-87300000D01*
X147363762Y-87456818D01*
X147419780Y-87604523D01*
X147509517Y-87734530D01*
X147627760Y-87839283D01*
X147627762Y-87839284D01*
X147767634Y-87912696D01*
X147921014Y-87950500D01*
X147921015Y-87950500D01*
X148078985Y-87950500D01*
X148232365Y-87912696D01*
X148254188Y-87901242D01*
X148372240Y-87839283D01*
X148490483Y-87734530D01*
X148580220Y-87604523D01*
X148636237Y-87456818D01*
X148655278Y-87300000D01*
X148636237Y-87143182D01*
X148580220Y-86995477D01*
X148490483Y-86865470D01*
X148490482Y-86865469D01*
X148487450Y-86861076D01*
X148465567Y-86794721D01*
X148465500Y-86790636D01*
X148465500Y-80901061D01*
X148485185Y-80834022D01*
X148507270Y-80808248D01*
X148590483Y-80734530D01*
X148680220Y-80604523D01*
X148736237Y-80456818D01*
X148755278Y-80300000D01*
X148738666Y-80163182D01*
X148736237Y-80143181D01*
X148709241Y-80072000D01*
X148680220Y-79995477D01*
X148590483Y-79865470D01*
X148567271Y-79844906D01*
X148530146Y-79785717D01*
X148525500Y-79752092D01*
X148525500Y-79199499D01*
X148545185Y-79132460D01*
X148597989Y-79086705D01*
X148649500Y-79075499D01*
X148890820Y-79075499D01*
X148957859Y-79095184D01*
X148978501Y-79111818D01*
X149468181Y-79601497D01*
X149501666Y-79662820D01*
X149504500Y-79689178D01*
X149504500Y-100469411D01*
X149496442Y-100513382D01*
X149473762Y-100573181D01*
X149454722Y-100729999D01*
X149454722Y-100730000D01*
X149473762Y-100886818D01*
X149527156Y-101027604D01*
X149529780Y-101034523D01*
X149619517Y-101164530D01*
X149737760Y-101269283D01*
X149737762Y-101269284D01*
X149877634Y-101342696D01*
X150031014Y-101380500D01*
X150031015Y-101380500D01*
X150188985Y-101380500D01*
X150342365Y-101342696D01*
X150365337Y-101330639D01*
X150482240Y-101269283D01*
X150600483Y-101164530D01*
X150690220Y-101034523D01*
X150746237Y-100886818D01*
X150765278Y-100730000D01*
X150752529Y-100624997D01*
X150746237Y-100573181D01*
X150691047Y-100427658D01*
X150690220Y-100425477D01*
X150600483Y-100295470D01*
X150482240Y-100190717D01*
X150482239Y-100190716D01*
X150477273Y-100186317D01*
X150440146Y-100127127D01*
X150435500Y-100093501D01*
X150435500Y-79474624D01*
X150435889Y-79467685D01*
X150440429Y-79427398D01*
X150433030Y-79388294D01*
X150429005Y-79367022D01*
X150419844Y-79306245D01*
X150419844Y-79306242D01*
X150419841Y-79306236D01*
X150417255Y-79297853D01*
X150414340Y-79289519D01*
X150385632Y-79235201D01*
X150358958Y-79179811D01*
X150354003Y-79172545D01*
X150348772Y-79165457D01*
X150348771Y-79165455D01*
X150305318Y-79122002D01*
X150263513Y-79076947D01*
X150263512Y-79076946D01*
X150263510Y-79076944D01*
X150256247Y-79071152D01*
X150256744Y-79070528D01*
X150244279Y-79060963D01*
X150175497Y-78992181D01*
X150142012Y-78930858D01*
X150146996Y-78861166D01*
X150188868Y-78805233D01*
X150254332Y-78780816D01*
X150263178Y-78780500D01*
X154081990Y-78780500D01*
X154149029Y-78800185D01*
X154184039Y-78834059D01*
X154235473Y-78908574D01*
X154353716Y-79013327D01*
X154353718Y-79013328D01*
X154493590Y-79086740D01*
X154646970Y-79124544D01*
X154646971Y-79124544D01*
X154804941Y-79124544D01*
X154958321Y-79086740D01*
X154976985Y-79076944D01*
X155098196Y-79013327D01*
X155216439Y-78908574D01*
X155306176Y-78778567D01*
X155362193Y-78630862D01*
X155381234Y-78474044D01*
X155362193Y-78317226D01*
X155306176Y-78169521D01*
X155216439Y-78039514D01*
X155098196Y-77934761D01*
X155098194Y-77934760D01*
X155098193Y-77934759D01*
X154958321Y-77861347D01*
X154804942Y-77823544D01*
X154804941Y-77823544D01*
X154646971Y-77823544D01*
X154646968Y-77823544D01*
X154563042Y-77844229D01*
X154528733Y-77847745D01*
X154514203Y-77847201D01*
X154504970Y-77848242D01*
X154504880Y-77847448D01*
X154489301Y-77849500D01*
X153171143Y-77849500D01*
X153104104Y-77829815D01*
X153058349Y-77777011D01*
X153048047Y-77740447D01*
X153038758Y-77663945D01*
X153050218Y-77595021D01*
X153097122Y-77543235D01*
X153145351Y-77529647D01*
X153149999Y-77524999D01*
X153650000Y-77524999D01*
X153698308Y-77524999D01*
X153698322Y-77524998D01*
X153797607Y-77514855D01*
X153958481Y-77461547D01*
X153958492Y-77461542D01*
X154102728Y-77372575D01*
X154102732Y-77372572D01*
X154222571Y-77252733D01*
X154302171Y-77123683D01*
X154354119Y-77076958D01*
X154423082Y-77065737D01*
X154487164Y-77093580D01*
X154513248Y-77123683D01*
X154577424Y-77227728D01*
X154577427Y-77227732D01*
X154697267Y-77347572D01*
X154697271Y-77347575D01*
X154841507Y-77436542D01*
X154841518Y-77436547D01*
X155002393Y-77489855D01*
X155101683Y-77499999D01*
X155149999Y-77499998D01*
X155150000Y-77499998D01*
X155150000Y-76800000D01*
X154415591Y-76800000D01*
X154374997Y-76822166D01*
X154348639Y-76825000D01*
X153650000Y-76825000D01*
X153650000Y-77524999D01*
X153149999Y-77524999D01*
X153150000Y-77524998D01*
X153150000Y-76449000D01*
X153169685Y-76381961D01*
X153222489Y-76336206D01*
X153274000Y-76325000D01*
X154384409Y-76325000D01*
X154425003Y-76302834D01*
X154451361Y-76300000D01*
X155526000Y-76300000D01*
X155593039Y-76319685D01*
X155638794Y-76372489D01*
X155650000Y-76424000D01*
X155650000Y-77499999D01*
X155663181Y-77513180D01*
X155696666Y-77574503D01*
X155699500Y-77600861D01*
X155699500Y-80066321D01*
X155679815Y-80133360D01*
X155663181Y-80154002D01*
X154804002Y-81013181D01*
X154742679Y-81046666D01*
X154716321Y-81049500D01*
X154696514Y-81049500D01*
X154543134Y-81087303D01*
X154403262Y-81160715D01*
X154285016Y-81265471D01*
X154195281Y-81395475D01*
X154195280Y-81395476D01*
X154139262Y-81543181D01*
X154120222Y-81699999D01*
X154120222Y-81700000D01*
X154139262Y-81856818D01*
X154174791Y-81950499D01*
X154195280Y-82004523D01*
X154285017Y-82134530D01*
X154403260Y-82239283D01*
X154403262Y-82239284D01*
X154543134Y-82312696D01*
X154696514Y-82350500D01*
X154696515Y-82350500D01*
X154854485Y-82350500D01*
X155007865Y-82312696D01*
X155034421Y-82298758D01*
X155147740Y-82239283D01*
X155265983Y-82134530D01*
X155355720Y-82004523D01*
X155411737Y-81856818D01*
X155425200Y-81745933D01*
X155452821Y-81681757D01*
X155460604Y-81673211D01*
X156473223Y-80660592D01*
X156478395Y-80655972D01*
X156479167Y-80655356D01*
X156510090Y-80630697D01*
X156533045Y-80597025D01*
X156587073Y-80552723D01*
X156656476Y-80544663D01*
X156719219Y-80575404D01*
X156755383Y-80635187D01*
X156759500Y-80666876D01*
X156759500Y-85930591D01*
X156739815Y-85997630D01*
X156687011Y-86043385D01*
X156617853Y-86053329D01*
X156554297Y-86024304D01*
X156516523Y-85965526D01*
X156514926Y-85959538D01*
X156478696Y-85808629D01*
X156385331Y-85583225D01*
X156261494Y-85381143D01*
X155717667Y-85924971D01*
X155656344Y-85958456D01*
X155586652Y-85953472D01*
X155530719Y-85911600D01*
X155525290Y-85903733D01*
X155515215Y-85887858D01*
X155504814Y-85871468D01*
X155491726Y-85859178D01*
X155385097Y-85759047D01*
X155381732Y-85756602D01*
X155379731Y-85754007D01*
X155379410Y-85753706D01*
X155379458Y-85753654D01*
X155339064Y-85701274D01*
X155333082Y-85631661D01*
X155365685Y-85569865D01*
X155366932Y-85568600D01*
X155907942Y-85027591D01*
X155705861Y-84903755D01*
X155480457Y-84810390D01*
X155243219Y-84753435D01*
X155243220Y-84753435D01*
X155000000Y-84734294D01*
X154756780Y-84753435D01*
X154519542Y-84810390D01*
X154294146Y-84903752D01*
X154294141Y-84903755D01*
X154092056Y-85027591D01*
X154636765Y-85572299D01*
X154670250Y-85633622D01*
X154665266Y-85703313D01*
X154623395Y-85759247D01*
X154621970Y-85760297D01*
X154551510Y-85811489D01*
X154551508Y-85811492D01*
X154465130Y-85915905D01*
X154407230Y-85955012D01*
X154337378Y-85956608D01*
X154281905Y-85924545D01*
X153738504Y-85381143D01*
X153614668Y-85583228D01*
X153614665Y-85583233D01*
X153521303Y-85808629D01*
X153464348Y-86045867D01*
X153445207Y-86289087D01*
X153464348Y-86532306D01*
X153521303Y-86769544D01*
X153614668Y-86994948D01*
X153738504Y-87197029D01*
X154282331Y-86653201D01*
X154343654Y-86619716D01*
X154413345Y-86624700D01*
X154469279Y-86666571D01*
X154474707Y-86674437D01*
X154495187Y-86706707D01*
X154495188Y-86706708D01*
X154614904Y-86819128D01*
X154618266Y-86821571D01*
X154620264Y-86824161D01*
X154620590Y-86824468D01*
X154620540Y-86824520D01*
X154660934Y-86876899D01*
X154666915Y-86946512D01*
X154634311Y-87008308D01*
X154633065Y-87009572D01*
X154092056Y-87550581D01*
X154294138Y-87674418D01*
X154519542Y-87767783D01*
X154756780Y-87824738D01*
X154756779Y-87824738D01*
X155000000Y-87843879D01*
X155243219Y-87824738D01*
X155480457Y-87767783D01*
X155705861Y-87674418D01*
X155907942Y-87550581D01*
X155363234Y-87005874D01*
X155329749Y-86944551D01*
X155334733Y-86874860D01*
X155376604Y-86818926D01*
X155377949Y-86817934D01*
X155448492Y-86766682D01*
X155534871Y-86662267D01*
X155592768Y-86623161D01*
X155662620Y-86621565D01*
X155718094Y-86653628D01*
X156261494Y-87197029D01*
X156385331Y-86994948D01*
X156478696Y-86769544D01*
X156514926Y-86618635D01*
X156549717Y-86558043D01*
X156611743Y-86525879D01*
X156681312Y-86532355D01*
X156736336Y-86575414D01*
X156759345Y-86641387D01*
X156759500Y-86647582D01*
X156759500Y-107875500D01*
X156739815Y-107942539D01*
X156687011Y-107988294D01*
X156635500Y-107999500D01*
X146433369Y-107999500D01*
X146366330Y-107979815D01*
X146320575Y-107927011D01*
X146310631Y-107857853D01*
X146339656Y-107794297D01*
X146375427Y-107765870D01*
X146379382Y-107763780D01*
X146394798Y-107755632D01*
X146450187Y-107728959D01*
X146450190Y-107728955D01*
X146450192Y-107728955D01*
X146457447Y-107724008D01*
X146464541Y-107718772D01*
X146464545Y-107718771D01*
X146507997Y-107675318D01*
X146553053Y-107633513D01*
X146553055Y-107633509D01*
X146558847Y-107626247D01*
X146559474Y-107626747D01*
X146569035Y-107614279D01*
X147787321Y-106395995D01*
X147848642Y-106362512D01*
X147918334Y-106367496D01*
X147962681Y-106395997D01*
X148163974Y-106597290D01*
X148168610Y-106602477D01*
X148193890Y-106634177D01*
X148244659Y-106668791D01*
X148294116Y-106705292D01*
X148294118Y-106705292D01*
X148301901Y-106709405D01*
X148309833Y-106713225D01*
X148368542Y-106731334D01*
X148387009Y-106737795D01*
X148426567Y-106751638D01*
X148426569Y-106751638D01*
X148426572Y-106751639D01*
X148435205Y-106753273D01*
X148443923Y-106754586D01*
X148443924Y-106754587D01*
X148505380Y-106754587D01*
X148566794Y-106756885D01*
X148566794Y-106756884D01*
X148566795Y-106756885D01*
X148566795Y-106756884D01*
X148576028Y-106755845D01*
X148576117Y-106756638D01*
X148591697Y-106754587D01*
X153425501Y-106754587D01*
X153492540Y-106774272D01*
X153538295Y-106827076D01*
X153549501Y-106878586D01*
X153549501Y-107370605D01*
X153564354Y-107464391D01*
X153621950Y-107577429D01*
X153621952Y-107577431D01*
X153621954Y-107577434D01*
X153711652Y-107667132D01*
X153711654Y-107667133D01*
X153711658Y-107667137D01*
X153821134Y-107722918D01*
X153824698Y-107724734D01*
X153918475Y-107739586D01*
X153918481Y-107739587D01*
X156081518Y-107739586D01*
X156175304Y-107724733D01*
X156288342Y-107667137D01*
X156378050Y-107577429D01*
X156435646Y-107464391D01*
X156435646Y-107464389D01*
X156435647Y-107464388D01*
X156450499Y-107370611D01*
X156450500Y-107370606D01*
X156450499Y-105207569D01*
X156435646Y-105113783D01*
X156378050Y-105000745D01*
X156378046Y-105000741D01*
X156378045Y-105000739D01*
X156288347Y-104911041D01*
X156288344Y-104911039D01*
X156288342Y-104911037D01*
X156206625Y-104869400D01*
X156175301Y-104853439D01*
X156081524Y-104838587D01*
X153918482Y-104838587D01*
X153837519Y-104851410D01*
X153824696Y-104853441D01*
X153711658Y-104911037D01*
X153711657Y-104911038D01*
X153711652Y-104911041D01*
X153621954Y-105000739D01*
X153621951Y-105000744D01*
X153621950Y-105000745D01*
X153614361Y-105015639D01*
X153564352Y-105113785D01*
X153549500Y-105207562D01*
X153549500Y-105699587D01*
X153529815Y-105766626D01*
X153477011Y-105812381D01*
X153425500Y-105823587D01*
X149062000Y-105823587D01*
X148994961Y-105803902D01*
X148949206Y-105751098D01*
X148938000Y-105699587D01*
X148938000Y-105456903D01*
X148938000Y-105456902D01*
X148938000Y-105456898D01*
X148927377Y-105368436D01*
X148871861Y-105227658D01*
X148871860Y-105227657D01*
X148871860Y-105227656D01*
X148780422Y-105107077D01*
X148659843Y-105015639D01*
X148519061Y-104960122D01*
X148473426Y-104954642D01*
X148430602Y-104949500D01*
X147319398Y-104949500D01*
X147280353Y-104954188D01*
X147230938Y-104960122D01*
X147090156Y-105015639D01*
X146969575Y-105107079D01*
X146969574Y-105107080D01*
X146961160Y-105118176D01*
X146904967Y-105159698D01*
X146835245Y-105164247D01*
X146774132Y-105130380D01*
X146741031Y-105068849D01*
X146743283Y-105008652D01*
X146759599Y-104952491D01*
X146759600Y-104952488D01*
X146759795Y-104950001D01*
X146759795Y-104950000D01*
X144440205Y-104950000D01*
X144440204Y-104950001D01*
X144440399Y-104952488D01*
X144461729Y-105025906D01*
X144461529Y-105095775D01*
X144423586Y-105154445D01*
X144359948Y-105183288D01*
X144342652Y-105184500D01*
X144137000Y-105184500D01*
X144069961Y-105164815D01*
X144024206Y-105112011D01*
X144013000Y-105060500D01*
X144012999Y-104735636D01*
X143997546Y-104618246D01*
X143997544Y-104618239D01*
X143997544Y-104618238D01*
X143937647Y-104473634D01*
X143930178Y-104404164D01*
X143961453Y-104341685D01*
X144021542Y-104306033D01*
X144081884Y-104305785D01*
X144101011Y-104310499D01*
X144101014Y-104310500D01*
X144101015Y-104310500D01*
X144258985Y-104310500D01*
X144289060Y-104303087D01*
X144358861Y-104306154D01*
X144415924Y-104346473D01*
X144442130Y-104411242D01*
X144440720Y-104445750D01*
X144440400Y-104447499D01*
X144440204Y-104449998D01*
X144440205Y-104450000D01*
X145350000Y-104450000D01*
X145350000Y-103900000D01*
X145850000Y-103900000D01*
X145850000Y-104450000D01*
X146759795Y-104450000D01*
X146759795Y-104449998D01*
X146759600Y-104447513D01*
X146713781Y-104289801D01*
X146630185Y-104148447D01*
X146630178Y-104148438D01*
X146514061Y-104032321D01*
X146514052Y-104032314D01*
X146372696Y-103948717D01*
X146372693Y-103948716D01*
X146214995Y-103902900D01*
X146214989Y-103902899D01*
X146178144Y-103900000D01*
X145850000Y-103900000D01*
X145350000Y-103900000D01*
X145021856Y-103900000D01*
X144985010Y-103902899D01*
X144985006Y-103902900D01*
X144979548Y-103904486D01*
X144909679Y-103904282D01*
X144851011Y-103866336D01*
X144822172Y-103802695D01*
X144821865Y-103770466D01*
X144835278Y-103660000D01*
X144818548Y-103522222D01*
X144816237Y-103503181D01*
X144771174Y-103384361D01*
X144760220Y-103355477D01*
X144760218Y-103355474D01*
X144760216Y-103355470D01*
X144747450Y-103336975D01*
X144725567Y-103270621D01*
X144725500Y-103266536D01*
X144725500Y-86064624D01*
X144725889Y-86057685D01*
X144730429Y-86017398D01*
X144719004Y-85957021D01*
X144709844Y-85896242D01*
X144709841Y-85896236D01*
X144707257Y-85887858D01*
X144704338Y-85879513D01*
X144675627Y-85825190D01*
X144648960Y-85769814D01*
X144644008Y-85762550D01*
X144638773Y-85755458D01*
X144638771Y-85755454D01*
X144595305Y-85711988D01*
X144553513Y-85666947D01*
X144553511Y-85666945D01*
X144546252Y-85661157D01*
X144546749Y-85660532D01*
X144534282Y-85650965D01*
X142511818Y-83628501D01*
X142478333Y-83567178D01*
X142475499Y-83540820D01*
X142475499Y-83086838D01*
X142475498Y-83086837D01*
X142472709Y-83051373D01*
X142428618Y-82899610D01*
X142348170Y-82763580D01*
X142342631Y-82758041D01*
X142309144Y-82696721D01*
X142314125Y-82627029D01*
X142342628Y-82582675D01*
X142422576Y-82502727D01*
X142511542Y-82358492D01*
X142511547Y-82358481D01*
X142564855Y-82197606D01*
X142574999Y-82098322D01*
X142575000Y-82098309D01*
X142575000Y-82075000D01*
X140625001Y-82075000D01*
X140625001Y-82098322D01*
X140635144Y-82197607D01*
X140688452Y-82358481D01*
X140688457Y-82358492D01*
X140777424Y-82502728D01*
X140777427Y-82502732D01*
X140857371Y-82582676D01*
X140890856Y-82643999D01*
X140885872Y-82713691D01*
X140857375Y-82758034D01*
X140851835Y-82763574D01*
X140851826Y-82763585D01*
X140801537Y-82848621D01*
X140750468Y-82896304D01*
X140694805Y-82909500D01*
X139419179Y-82909500D01*
X139352140Y-82889815D01*
X139331498Y-82873181D01*
X138461819Y-82003502D01*
X138428334Y-81942179D01*
X138425500Y-81915821D01*
X138425500Y-81564625D01*
X138425890Y-81557677D01*
X138426565Y-81551692D01*
X138430429Y-81517398D01*
X138430428Y-81517397D01*
X138431303Y-81509642D01*
X138458370Y-81445228D01*
X138491124Y-81422733D01*
X138435890Y-81404024D01*
X138569825Y-81404024D01*
X138585802Y-81403536D01*
X138645708Y-81439495D01*
X138672229Y-81484522D01*
X138688452Y-81533481D01*
X138688457Y-81533492D01*
X138777424Y-81677728D01*
X138777427Y-81677732D01*
X138897267Y-81797572D01*
X138897271Y-81797575D01*
X139041507Y-81886542D01*
X139041518Y-81886547D01*
X139202393Y-81939855D01*
X139301683Y-81949999D01*
X139349999Y-81949998D01*
X139350000Y-81949998D01*
X139350000Y-81250000D01*
X138625001Y-81250000D01*
X138625001Y-81273324D01*
X138626563Y-81288607D01*
X138613793Y-81357299D01*
X138569825Y-81404024D01*
X138435890Y-81404024D01*
X138431946Y-81402688D01*
X138393575Y-81359150D01*
X138375632Y-81325201D01*
X138348958Y-81269811D01*
X138344006Y-81262549D01*
X138338772Y-81255457D01*
X138338771Y-81255455D01*
X138295316Y-81211999D01*
X138253513Y-81166947D01*
X138246249Y-81161155D01*
X138246747Y-81160530D01*
X138234281Y-81150964D01*
X138175103Y-81091786D01*
X138170467Y-81086598D01*
X138145197Y-81054910D01*
X138138385Y-81048590D01*
X138139815Y-81047048D01*
X138103310Y-81002523D01*
X138095202Y-80936376D01*
X138095118Y-80936370D01*
X138095150Y-80935954D01*
X138094996Y-80934697D01*
X138095500Y-80931519D01*
X138095500Y-80874499D01*
X138115185Y-80807461D01*
X138167989Y-80761706D01*
X138219500Y-80750500D01*
X140733786Y-80750500D01*
X140800825Y-80770185D01*
X140821467Y-80786819D01*
X140880364Y-80845716D01*
X140884991Y-80850894D01*
X140899667Y-80869297D01*
X140926076Y-80933980D01*
X140913322Y-81002676D01*
X140890403Y-81034290D01*
X140777427Y-81147267D01*
X140777426Y-81147268D01*
X140743337Y-81202535D01*
X140691388Y-81249259D01*
X140622426Y-81260480D01*
X140598307Y-81250000D01*
X139850000Y-81250000D01*
X139850000Y-81949999D01*
X139898308Y-81949999D01*
X139898322Y-81949998D01*
X139997607Y-81939855D01*
X140158481Y-81886547D01*
X140158492Y-81886542D01*
X140302728Y-81797575D01*
X140302732Y-81797572D01*
X140422573Y-81677731D01*
X140456661Y-81622466D01*
X140508609Y-81575741D01*
X140577571Y-81564518D01*
X140601696Y-81575000D01*
X142574999Y-81575000D01*
X142574999Y-81551692D01*
X142574998Y-81551677D01*
X142564855Y-81452392D01*
X142511547Y-81291518D01*
X142511545Y-81291513D01*
X142450224Y-81192097D01*
X142431784Y-81124705D01*
X142452706Y-81058041D01*
X142506348Y-81013271D01*
X142555763Y-81003000D01*
X142775500Y-81003000D01*
X142842539Y-81022685D01*
X142888294Y-81075489D01*
X142899500Y-81127000D01*
X142899500Y-81168102D01*
X142903635Y-81202535D01*
X142910122Y-81256561D01*
X142910122Y-81256563D01*
X142910123Y-81256564D01*
X142915347Y-81269811D01*
X142965639Y-81397343D01*
X143057077Y-81517922D01*
X143177656Y-81609360D01*
X143177657Y-81609360D01*
X143177658Y-81609361D01*
X143318436Y-81664877D01*
X143406898Y-81675500D01*
X143406903Y-81675500D01*
X143793097Y-81675500D01*
X143793102Y-81675500D01*
X143881564Y-81664877D01*
X144022342Y-81609361D01*
X144142922Y-81517922D01*
X144234361Y-81397342D01*
X144289877Y-81256564D01*
X144300500Y-81168102D01*
X144300500Y-81038615D01*
X144311527Y-81001058D01*
X144302179Y-80981723D01*
X144300500Y-80961384D01*
X144300500Y-79924500D01*
X144320185Y-79857461D01*
X144372989Y-79811706D01*
X144424500Y-79800500D01*
X144610500Y-79800500D01*
X144677539Y-79820185D01*
X144723294Y-79872989D01*
X144734500Y-79924500D01*
X144734500Y-80490636D01*
X144714815Y-80557675D01*
X144712550Y-80561076D01*
X144619781Y-80695475D01*
X144619780Y-80695476D01*
X144563762Y-80843181D01*
X144547596Y-80976330D01*
X144538893Y-80996548D01*
X144543477Y-81003680D01*
X144547595Y-81023667D01*
X144563763Y-81156818D01*
X144619780Y-81304523D01*
X144709517Y-81434530D01*
X144827760Y-81539283D01*
X144827762Y-81539284D01*
X144967634Y-81612696D01*
X145121014Y-81650500D01*
X145121015Y-81650500D01*
X145278985Y-81650500D01*
X145432365Y-81612696D01*
X145438721Y-81609360D01*
X145572240Y-81539283D01*
X145690483Y-81434530D01*
X145780220Y-81304523D01*
X145836237Y-81156818D01*
X145855278Y-81000000D01*
X145847502Y-80935954D01*
X145836237Y-80843181D01*
X145795031Y-80734531D01*
X145780220Y-80695477D01*
X145690483Y-80565470D01*
X145690482Y-80565469D01*
X145687450Y-80561076D01*
X145665567Y-80494721D01*
X145665500Y-80490636D01*
X145665500Y-79342124D01*
X145665889Y-79335185D01*
X145670429Y-79294898D01*
X145669411Y-79289519D01*
X145659005Y-79234522D01*
X145650759Y-79179813D01*
X145649844Y-79173742D01*
X145649841Y-79173736D01*
X145647255Y-79165353D01*
X145644340Y-79157019D01*
X145615632Y-79102701D01*
X145588958Y-79047311D01*
X145584003Y-79040045D01*
X145578772Y-79032957D01*
X145578771Y-79032955D01*
X145535318Y-78989502D01*
X145493513Y-78944447D01*
X145493512Y-78944446D01*
X145493510Y-78944444D01*
X145486247Y-78938652D01*
X145486744Y-78938028D01*
X145474279Y-78928463D01*
X145286819Y-78741002D01*
X145253334Y-78679679D01*
X145250500Y-78653321D01*
X145250500Y-78450000D01*
X146175001Y-78450000D01*
X146175001Y-78531582D01*
X146181408Y-78602102D01*
X146181409Y-78602107D01*
X146231981Y-78764396D01*
X146319927Y-78909877D01*
X146440122Y-79030072D01*
X146585604Y-79118019D01*
X146585603Y-79118019D01*
X146747894Y-79168590D01*
X146747893Y-79168590D01*
X146818408Y-79174998D01*
X146818426Y-79174999D01*
X146824999Y-79174998D01*
X146825000Y-79174998D01*
X146825000Y-78450000D01*
X146175001Y-78450000D01*
X145250500Y-78450000D01*
X145250500Y-78031903D01*
X145250500Y-78031902D01*
X145250500Y-78031898D01*
X145240665Y-77950000D01*
X146175000Y-77950000D01*
X146825000Y-77950000D01*
X146825000Y-77225000D01*
X146824999Y-77224999D01*
X146818436Y-77225000D01*
X146818417Y-77225001D01*
X146747897Y-77231408D01*
X146747892Y-77231409D01*
X146585603Y-77281981D01*
X146440122Y-77369927D01*
X146319927Y-77490122D01*
X146231980Y-77635604D01*
X146181409Y-77797893D01*
X146175000Y-77868427D01*
X146175000Y-77950000D01*
X145240665Y-77950000D01*
X145239877Y-77943436D01*
X145184361Y-77802658D01*
X145184360Y-77802657D01*
X145184360Y-77802656D01*
X145092922Y-77682077D01*
X144972343Y-77590639D01*
X144849124Y-77542048D01*
X144831564Y-77535123D01*
X144831563Y-77535122D01*
X144831561Y-77535122D01*
X144785926Y-77529642D01*
X144743102Y-77524500D01*
X144356898Y-77524500D01*
X144317853Y-77529188D01*
X144268438Y-77535122D01*
X144127656Y-77590639D01*
X144007077Y-77682077D01*
X143915639Y-77802656D01*
X143860122Y-77943438D01*
X143854188Y-77992853D01*
X143849500Y-78031898D01*
X143849500Y-78031903D01*
X143849500Y-79275500D01*
X143829815Y-79342539D01*
X143777011Y-79388294D01*
X143725500Y-79399500D01*
X143574000Y-79399500D01*
X143506961Y-79379815D01*
X143461206Y-79327011D01*
X143450000Y-79275500D01*
X143450000Y-78912500D01*
X141850000Y-78912500D01*
X141850000Y-79315644D01*
X141852899Y-79352489D01*
X141852900Y-79352495D01*
X141898716Y-79510193D01*
X141898717Y-79510196D01*
X141982314Y-79651552D01*
X141982321Y-79651561D01*
X142098438Y-79767678D01*
X142098446Y-79767684D01*
X142222870Y-79841268D01*
X142270553Y-79892337D01*
X142283057Y-79961079D01*
X142256412Y-80025668D01*
X142199076Y-80065598D01*
X142159749Y-80072000D01*
X141474644Y-80072000D01*
X141407605Y-80052315D01*
X141386963Y-80035681D01*
X141376950Y-80025668D01*
X141328059Y-79976777D01*
X141323441Y-79971609D01*
X141298162Y-79939910D01*
X141284606Y-79930668D01*
X141247391Y-79905295D01*
X141229833Y-79892337D01*
X141197936Y-79868796D01*
X141197933Y-79868795D01*
X141197932Y-79868794D01*
X141190158Y-79864685D01*
X141182219Y-79860861D01*
X141123497Y-79842748D01*
X141065489Y-79822449D01*
X141056826Y-79820810D01*
X141048128Y-79819500D01*
X141048127Y-79819500D01*
X140986672Y-79819500D01*
X140925257Y-79817201D01*
X140916024Y-79818242D01*
X140915934Y-79817448D01*
X140900355Y-79819500D01*
X140599500Y-79819500D01*
X140532461Y-79799815D01*
X140486706Y-79747011D01*
X140475500Y-79695500D01*
X140475499Y-79161838D01*
X140475120Y-79157019D01*
X140472709Y-79126373D01*
X140428618Y-78974610D01*
X140348170Y-78838580D01*
X140348168Y-78838578D01*
X140348165Y-78838574D01*
X140236425Y-78726834D01*
X140236416Y-78726827D01*
X140100390Y-78646382D01*
X140100385Y-78646380D01*
X139948633Y-78602292D01*
X139948620Y-78602290D01*
X139913165Y-78599500D01*
X139913163Y-78599500D01*
X139288576Y-78599501D01*
X139286838Y-78599501D01*
X139251372Y-78602291D01*
X139099614Y-78646380D01*
X139099609Y-78646382D01*
X138963583Y-78726827D01*
X138963574Y-78726834D01*
X138851834Y-78838574D01*
X138851828Y-78838582D01*
X138801537Y-78923621D01*
X138750468Y-78971304D01*
X138694805Y-78984500D01*
X136721456Y-78984500D01*
X136654417Y-78964815D01*
X136608662Y-78912011D01*
X136598718Y-78842853D01*
X136598983Y-78841102D01*
X136600499Y-78831524D01*
X136600500Y-78831519D01*
X136600500Y-78412500D01*
X141850000Y-78412500D01*
X142400000Y-78412500D01*
X142400000Y-77427703D01*
X142900000Y-77427703D01*
X142900000Y-78412500D01*
X143450000Y-78412500D01*
X143450000Y-78009356D01*
X143447100Y-77972510D01*
X143447099Y-77972504D01*
X143401283Y-77814806D01*
X143401282Y-77814803D01*
X143317685Y-77673447D01*
X143317678Y-77673438D01*
X143201561Y-77557321D01*
X143201552Y-77557314D01*
X143060196Y-77473717D01*
X143060193Y-77473716D01*
X142902494Y-77427900D01*
X142902497Y-77427900D01*
X142900000Y-77427703D01*
X142400000Y-77427703D01*
X142397503Y-77427900D01*
X142239806Y-77473716D01*
X142239803Y-77473717D01*
X142098447Y-77557314D01*
X142098438Y-77557321D01*
X141982321Y-77673438D01*
X141982314Y-77673447D01*
X141898717Y-77814803D01*
X141898716Y-77814806D01*
X141852900Y-77972504D01*
X141852899Y-77972510D01*
X141850000Y-78009356D01*
X141850000Y-78412500D01*
X136600500Y-78412500D01*
X136600499Y-77514574D01*
X136620184Y-77447536D01*
X136672987Y-77401781D01*
X136742146Y-77391837D01*
X136791654Y-77412149D01*
X136791807Y-77411860D01*
X136794787Y-77413434D01*
X136798138Y-77414809D01*
X136800029Y-77416205D01*
X136800031Y-77416205D01*
X136807814Y-77420318D01*
X136815746Y-77424138D01*
X136874455Y-77442247D01*
X136889571Y-77447536D01*
X136932480Y-77462551D01*
X136932482Y-77462551D01*
X136932485Y-77462552D01*
X136941118Y-77464186D01*
X136949836Y-77465499D01*
X136949837Y-77465500D01*
X137011293Y-77465500D01*
X137072707Y-77467798D01*
X137072707Y-77467797D01*
X137072708Y-77467798D01*
X137072708Y-77467797D01*
X137081941Y-77466758D01*
X137082030Y-77467551D01*
X137097610Y-77465500D01*
X137521077Y-77465500D01*
X137588116Y-77485185D01*
X137633871Y-77537989D01*
X137635638Y-77542048D01*
X137650462Y-77577838D01*
X137650463Y-77577840D01*
X137650464Y-77577841D01*
X137746718Y-77703282D01*
X137872159Y-77799536D01*
X138018238Y-77860044D01*
X138135639Y-77875500D01*
X138614360Y-77875499D01*
X138614363Y-77875499D01*
X138731753Y-77860046D01*
X138731757Y-77860044D01*
X138731762Y-77860044D01*
X138877841Y-77799536D01*
X139003282Y-77703282D01*
X139039649Y-77655886D01*
X139096077Y-77614684D01*
X139165823Y-77610529D01*
X139226743Y-77644741D01*
X139244142Y-77667223D01*
X139269927Y-77709877D01*
X139390122Y-77830072D01*
X139535604Y-77918019D01*
X139535603Y-77918019D01*
X139697894Y-77968590D01*
X139697893Y-77968590D01*
X139768408Y-77974998D01*
X139768426Y-77974999D01*
X139774999Y-77974998D01*
X139775000Y-77974998D01*
X139775000Y-77250000D01*
X140275000Y-77250000D01*
X140275000Y-77974999D01*
X140281581Y-77974999D01*
X140352102Y-77968591D01*
X140352107Y-77968590D01*
X140514396Y-77918018D01*
X140659877Y-77830072D01*
X140780072Y-77709877D01*
X140868019Y-77564395D01*
X140918590Y-77402106D01*
X140925000Y-77331572D01*
X140925000Y-77250000D01*
X140275000Y-77250000D01*
X139775000Y-77250000D01*
X139775000Y-76025000D01*
X140275000Y-76025000D01*
X140275000Y-76750000D01*
X140924999Y-76750000D01*
X140924999Y-76668417D01*
X140918591Y-76597897D01*
X140918590Y-76597892D01*
X140868018Y-76435603D01*
X140780072Y-76290122D01*
X140659877Y-76169927D01*
X140514395Y-76081980D01*
X140514396Y-76081980D01*
X140352105Y-76031409D01*
X140352106Y-76031409D01*
X140281572Y-76025000D01*
X140275000Y-76025000D01*
X139775000Y-76025000D01*
X139774999Y-76024999D01*
X139768436Y-76025000D01*
X139768417Y-76025001D01*
X139697897Y-76031408D01*
X139697892Y-76031409D01*
X139535603Y-76081981D01*
X139390122Y-76169927D01*
X139269928Y-76290121D01*
X139269925Y-76290125D01*
X139244141Y-76332777D01*
X139192613Y-76379964D01*
X139123753Y-76391802D01*
X139059425Y-76364532D01*
X139039650Y-76344113D01*
X139005800Y-76300000D01*
X139003282Y-76296718D01*
X138877841Y-76200464D01*
X138847313Y-76187819D01*
X138731762Y-76139956D01*
X138731760Y-76139955D01*
X138614361Y-76124500D01*
X138135636Y-76124500D01*
X138018246Y-76139953D01*
X138018237Y-76139956D01*
X137872160Y-76200463D01*
X137746718Y-76296718D01*
X137650462Y-76422161D01*
X137635638Y-76457952D01*
X137591798Y-76512356D01*
X137525504Y-76534421D01*
X137521077Y-76534500D01*
X137264178Y-76534500D01*
X137197139Y-76514815D01*
X137176497Y-76498181D01*
X136428091Y-75749775D01*
X135675115Y-74996798D01*
X135641630Y-74935475D01*
X135639700Y-74924063D01*
X135637446Y-74905499D01*
X135626237Y-74813182D01*
X135570220Y-74665477D01*
X135490512Y-74550000D01*
X136800000Y-74550000D01*
X136800000Y-74672844D01*
X136806401Y-74732372D01*
X136806403Y-74732379D01*
X136856645Y-74867086D01*
X136856649Y-74867093D01*
X136942809Y-74982187D01*
X136942812Y-74982190D01*
X137057906Y-75068350D01*
X137057913Y-75068354D01*
X137192620Y-75118596D01*
X137192627Y-75118598D01*
X137252155Y-75124999D01*
X137252172Y-75125000D01*
X137575000Y-75125000D01*
X137575000Y-74550000D01*
X138075000Y-74550000D01*
X138075000Y-75125000D01*
X138397828Y-75125000D01*
X138397844Y-75124999D01*
X138457372Y-75118598D01*
X138457379Y-75118596D01*
X138592086Y-75068354D01*
X138592093Y-75068350D01*
X138707187Y-74982190D01*
X138707190Y-74982187D01*
X138793350Y-74867093D01*
X138793354Y-74867086D01*
X138843596Y-74732379D01*
X138843598Y-74732372D01*
X138849999Y-74672844D01*
X138850000Y-74672827D01*
X138850000Y-74550000D01*
X140950000Y-74550000D01*
X140950000Y-74672844D01*
X140956401Y-74732372D01*
X140956403Y-74732379D01*
X141006645Y-74867086D01*
X141006649Y-74867093D01*
X141092809Y-74982187D01*
X141092812Y-74982190D01*
X141207906Y-75068350D01*
X141207913Y-75068354D01*
X141342620Y-75118596D01*
X141342627Y-75118598D01*
X141402155Y-75124999D01*
X141402172Y-75125000D01*
X141725000Y-75125000D01*
X141725000Y-74550000D01*
X140950000Y-74550000D01*
X138850000Y-74550000D01*
X138075000Y-74550000D01*
X137575000Y-74550000D01*
X136800000Y-74550000D01*
X135490512Y-74550000D01*
X135480483Y-74535470D01*
X135362240Y-74430717D01*
X135362238Y-74430716D01*
X135362237Y-74430715D01*
X135222365Y-74357303D01*
X135068986Y-74319500D01*
X135068985Y-74319500D01*
X134911015Y-74319500D01*
X134911014Y-74319500D01*
X134757634Y-74357303D01*
X134617762Y-74430714D01*
X134601726Y-74444922D01*
X134538492Y-74474642D01*
X134469229Y-74465458D01*
X134415926Y-74420285D01*
X134395507Y-74353465D01*
X134395500Y-74352105D01*
X134395500Y-74050000D01*
X136800000Y-74050000D01*
X137575000Y-74050000D01*
X137575000Y-73475000D01*
X138075000Y-73475000D01*
X138075000Y-74050000D01*
X138850000Y-74050000D01*
X140950000Y-74050000D01*
X141725000Y-74050000D01*
X141725000Y-73475000D01*
X141402155Y-73475000D01*
X141342627Y-73481401D01*
X141342620Y-73481403D01*
X141207913Y-73531645D01*
X141207906Y-73531649D01*
X141092812Y-73617809D01*
X141092809Y-73617812D01*
X141006649Y-73732906D01*
X141006645Y-73732913D01*
X140956403Y-73867620D01*
X140956401Y-73867627D01*
X140950000Y-73927155D01*
X140950000Y-74050000D01*
X138850000Y-74050000D01*
X138850000Y-73927172D01*
X138849999Y-73927155D01*
X138843598Y-73867627D01*
X138843596Y-73867620D01*
X138793354Y-73732913D01*
X138793350Y-73732906D01*
X138707190Y-73617812D01*
X138707187Y-73617809D01*
X138592093Y-73531649D01*
X138592086Y-73531645D01*
X138457379Y-73481403D01*
X138457372Y-73481401D01*
X138397844Y-73475000D01*
X138075000Y-73475000D01*
X137575000Y-73475000D01*
X137252155Y-73475000D01*
X137192627Y-73481401D01*
X137192620Y-73481403D01*
X137057913Y-73531645D01*
X137057906Y-73531649D01*
X136942812Y-73617809D01*
X136942809Y-73617812D01*
X136856649Y-73732906D01*
X136856645Y-73732913D01*
X136806403Y-73867620D01*
X136806401Y-73867627D01*
X136800000Y-73927155D01*
X136800000Y-74050000D01*
X134395500Y-74050000D01*
X134395500Y-66314178D01*
X134415185Y-66247139D01*
X134431814Y-66226502D01*
X134571499Y-66086817D01*
X134632821Y-66053334D01*
X134659179Y-66050500D01*
X134678985Y-66050500D01*
X134832365Y-66012696D01*
X134863145Y-65996541D01*
X134972240Y-65939283D01*
X135090483Y-65834530D01*
X135180220Y-65704523D01*
X135236237Y-65556818D01*
X135255278Y-65400000D01*
X135253737Y-65387304D01*
X135236237Y-65243181D01*
X135212907Y-65181666D01*
X135180220Y-65095477D01*
X135090483Y-64965470D01*
X134972240Y-64860717D01*
X134908308Y-64827162D01*
X134858099Y-64778580D01*
X134842124Y-64710561D01*
X134842838Y-64702449D01*
X134855278Y-64600000D01*
X134837555Y-64454036D01*
X134836237Y-64443181D01*
X134807460Y-64367303D01*
X134780220Y-64295477D01*
X134780218Y-64295474D01*
X134780216Y-64295470D01*
X134766044Y-64274938D01*
X134744161Y-64208584D01*
X134761627Y-64140932D01*
X134812895Y-64093463D01*
X134868094Y-64080499D01*
X136231517Y-64080499D01*
X136231518Y-64080499D01*
X136325304Y-64065646D01*
X136438342Y-64008050D01*
X136528050Y-63918342D01*
X136585646Y-63805304D01*
X136585646Y-63805302D01*
X136585647Y-63805301D01*
X136600499Y-63711524D01*
X136600500Y-63711519D01*
X136600499Y-61648482D01*
X136599948Y-61645000D01*
X138715000Y-61645000D01*
X139440000Y-61645000D01*
X139440000Y-60995000D01*
X139439999Y-60994999D01*
X139358417Y-60995000D01*
X139287897Y-61001408D01*
X139287892Y-61001409D01*
X139125603Y-61051981D01*
X138980122Y-61139927D01*
X138859927Y-61260122D01*
X138771980Y-61405604D01*
X138721409Y-61567893D01*
X138715000Y-61638427D01*
X138715000Y-61645000D01*
X136599948Y-61645000D01*
X136585646Y-61554696D01*
X136528050Y-61441658D01*
X136528046Y-61441654D01*
X136528045Y-61441652D01*
X136438347Y-61351954D01*
X136438344Y-61351952D01*
X136438342Y-61351950D01*
X136348445Y-61306145D01*
X136325301Y-61294352D01*
X136231524Y-61279500D01*
X134168482Y-61279500D01*
X134087519Y-61292323D01*
X134074696Y-61294354D01*
X133961658Y-61351950D01*
X133961657Y-61351950D01*
X133961657Y-61351951D01*
X133961652Y-61351954D01*
X133871954Y-61441652D01*
X133871951Y-61441657D01*
X133814352Y-61554698D01*
X133799500Y-61648475D01*
X133799500Y-63562500D01*
X133779815Y-63629539D01*
X133763181Y-63650181D01*
X132961791Y-64451570D01*
X132956604Y-64456206D01*
X132924915Y-64481477D01*
X132918596Y-64488289D01*
X132917094Y-64486895D01*
X132872419Y-64523524D01*
X132803015Y-64531579D01*
X132740274Y-64500833D01*
X132704115Y-64441048D01*
X132700000Y-64409368D01*
X132700000Y-60124500D01*
X132719685Y-60057461D01*
X132772489Y-60011706D01*
X132824000Y-60000500D01*
X156635500Y-60000500D01*
X156702539Y-60020185D01*
G37*
G04 #@! TD.AperFunction*
G04 #@! TA.AperFunction,Conductor*
G36*
X140661443Y-103046008D02*
G01*
X140709920Y-103096325D01*
X140715350Y-103108214D01*
X140724913Y-103132464D01*
X140740639Y-103172343D01*
X140832077Y-103292922D01*
X140952656Y-103384360D01*
X140952657Y-103384360D01*
X140952658Y-103384361D01*
X141093436Y-103439877D01*
X141162784Y-103448204D01*
X141226998Y-103475741D01*
X141266131Y-103533623D01*
X141272000Y-103571320D01*
X141272000Y-103887070D01*
X141252315Y-103954109D01*
X141235681Y-103974751D01*
X141022251Y-104188181D01*
X140960928Y-104221666D01*
X140934570Y-104224500D01*
X140529386Y-104224500D01*
X140411996Y-104239953D01*
X140411987Y-104239956D01*
X140265910Y-104300463D01*
X140140468Y-104396718D01*
X140044213Y-104522160D01*
X139983706Y-104668237D01*
X139983705Y-104668239D01*
X139968250Y-104785638D01*
X139968250Y-105264363D01*
X139983703Y-105381753D01*
X139983706Y-105381762D01*
X140002435Y-105426979D01*
X140044214Y-105527841D01*
X140140468Y-105653282D01*
X140256032Y-105741957D01*
X140268630Y-105751624D01*
X140309832Y-105808053D01*
X140313987Y-105877799D01*
X140279774Y-105938719D01*
X140268630Y-105948376D01*
X140265908Y-105950464D01*
X140265909Y-105950464D01*
X140140468Y-106046718D01*
X140082581Y-106122159D01*
X140052787Y-106160987D01*
X139996359Y-106202189D01*
X139954411Y-106209500D01*
X139533089Y-106209500D01*
X139466050Y-106189815D01*
X139434713Y-106160987D01*
X139406593Y-106124340D01*
X139347032Y-106046718D01*
X139347030Y-106046716D01*
X139347029Y-106046715D01*
X139299636Y-106010349D01*
X139258433Y-105953921D01*
X139254279Y-105884175D01*
X139288492Y-105823255D01*
X139310974Y-105805856D01*
X139353629Y-105780070D01*
X139473822Y-105659877D01*
X139561769Y-105514395D01*
X139612340Y-105352106D01*
X139618750Y-105281572D01*
X139618750Y-105275000D01*
X138517750Y-105275000D01*
X138450711Y-105255315D01*
X138404956Y-105202511D01*
X138393750Y-105151000D01*
X138393750Y-104125000D01*
X138893750Y-104125000D01*
X138893750Y-104775000D01*
X139618749Y-104775000D01*
X139618749Y-104768417D01*
X139612341Y-104697897D01*
X139612340Y-104697892D01*
X139561768Y-104535603D01*
X139473822Y-104390122D01*
X139353627Y-104269927D01*
X139208145Y-104181980D01*
X139208146Y-104181980D01*
X139045855Y-104131409D01*
X139045856Y-104131409D01*
X138975322Y-104125000D01*
X138893750Y-104125000D01*
X138393750Y-104125000D01*
X138393749Y-104124999D01*
X138312167Y-104125000D01*
X138241647Y-104131408D01*
X138241642Y-104131409D01*
X138079353Y-104181981D01*
X137933872Y-104269927D01*
X137813677Y-104390122D01*
X137725731Y-104535603D01*
X137707885Y-104592873D01*
X137669147Y-104651020D01*
X137605122Y-104678994D01*
X137536137Y-104667912D01*
X137484094Y-104621293D01*
X137465500Y-104555982D01*
X137465500Y-103339500D01*
X137485185Y-103272461D01*
X137537989Y-103226706D01*
X137589500Y-103215500D01*
X138436777Y-103215500D01*
X138503816Y-103235185D01*
X138535580Y-103264574D01*
X138557077Y-103292921D01*
X138677656Y-103384360D01*
X138677657Y-103384360D01*
X138677658Y-103384361D01*
X138818436Y-103439877D01*
X138906898Y-103450500D01*
X138906903Y-103450500D01*
X140018097Y-103450500D01*
X140018102Y-103450500D01*
X140106564Y-103439877D01*
X140247342Y-103384361D01*
X140367922Y-103292922D01*
X140459361Y-103172342D01*
X140484646Y-103108223D01*
X140527551Y-103053081D01*
X140593459Y-103029888D01*
X140661443Y-103046008D01*
G37*
G04 #@! TD.AperFunction*
G04 #@! TA.AperFunction,Conductor*
G36*
X137670703Y-105400305D02*
G01*
X137707885Y-105457127D01*
X137725731Y-105514396D01*
X137813677Y-105659877D01*
X137933872Y-105780072D01*
X137976526Y-105805857D01*
X138023713Y-105857384D01*
X138035552Y-105926244D01*
X138008284Y-105990573D01*
X137987864Y-106010348D01*
X137940469Y-106046716D01*
X137940467Y-106046718D01*
X137880906Y-106124340D01*
X137824478Y-106165542D01*
X137754732Y-106169697D01*
X137694850Y-106136534D01*
X137605034Y-106046718D01*
X137501819Y-105943502D01*
X137468334Y-105882179D01*
X137465500Y-105855821D01*
X137465500Y-105494018D01*
X137485185Y-105426979D01*
X137537989Y-105381224D01*
X137607147Y-105371280D01*
X137670703Y-105400305D01*
G37*
G04 #@! TD.AperFunction*
G04 #@! TA.AperFunction,Conductor*
G36*
X137293039Y-81970184D02*
G01*
X137338794Y-82022988D01*
X137350000Y-82074499D01*
X137350000Y-82700000D01*
X137742828Y-82700000D01*
X137742834Y-82699999D01*
X137773096Y-82696745D01*
X137841856Y-82709148D01*
X137874037Y-82732353D01*
X138824887Y-83683203D01*
X138829524Y-83688391D01*
X138854802Y-83720089D01*
X138854803Y-83720090D01*
X138905582Y-83754710D01*
X138955029Y-83791204D01*
X138962817Y-83795320D01*
X138970746Y-83799138D01*
X139029467Y-83817251D01*
X139087480Y-83837551D01*
X139087481Y-83837551D01*
X139096131Y-83839187D01*
X139104836Y-83840499D01*
X139104837Y-83840500D01*
X139166308Y-83840500D01*
X139227705Y-83842797D01*
X139227705Y-83842796D01*
X139227707Y-83842797D01*
X139227708Y-83842796D01*
X139236939Y-83841757D01*
X139237028Y-83842550D01*
X139252604Y-83840500D01*
X140694805Y-83840500D01*
X140761844Y-83860185D01*
X140801537Y-83901379D01*
X140851828Y-83986417D01*
X140851834Y-83986425D01*
X140963574Y-84098165D01*
X140963578Y-84098168D01*
X140963580Y-84098170D01*
X141099610Y-84178618D01*
X141251373Y-84222709D01*
X141277970Y-84224802D01*
X141286835Y-84225500D01*
X141286836Y-84225499D01*
X141286837Y-84225500D01*
X141740820Y-84225499D01*
X141807859Y-84245183D01*
X141828501Y-84261818D01*
X143758181Y-86191497D01*
X143791666Y-86252820D01*
X143794500Y-86279178D01*
X143794500Y-103076655D01*
X143774815Y-103143694D01*
X143752727Y-103169470D01*
X143689518Y-103225468D01*
X143599781Y-103355475D01*
X143599780Y-103355476D01*
X143543762Y-103503181D01*
X143524722Y-103659999D01*
X143524722Y-103660000D01*
X143543762Y-103816818D01*
X143599780Y-103964523D01*
X143615349Y-103987079D01*
X143637231Y-104053434D01*
X143619765Y-104121085D01*
X143568496Y-104168555D01*
X143499703Y-104180770D01*
X143497114Y-104180457D01*
X143451863Y-104174500D01*
X142823136Y-104174500D01*
X142705746Y-104189953D01*
X142705737Y-104189956D01*
X142559660Y-104250463D01*
X142523239Y-104278410D01*
X142434538Y-104346473D01*
X142434217Y-104346719D01*
X142393056Y-104400361D01*
X142336628Y-104441563D01*
X142270307Y-104445512D01*
X142300714Y-104495758D01*
X142298828Y-104565602D01*
X142295398Y-104574921D01*
X142277457Y-104618234D01*
X142277455Y-104618239D01*
X142262000Y-104735638D01*
X142262000Y-105214363D01*
X142277453Y-105331753D01*
X142277456Y-105331762D01*
X142337964Y-105477841D01*
X142434218Y-105603282D01*
X142434219Y-105603283D01*
X142562379Y-105701623D01*
X142603582Y-105758051D01*
X142607737Y-105827797D01*
X142573525Y-105888717D01*
X142562384Y-105898372D01*
X142549153Y-105908524D01*
X142542881Y-105913337D01*
X142477715Y-105938534D01*
X142409269Y-105924498D01*
X142379711Y-105902645D01*
X141755568Y-105278502D01*
X141722083Y-105217179D01*
X141719249Y-105190821D01*
X141719249Y-104859178D01*
X141738934Y-104792139D01*
X141755568Y-104771497D01*
X141791429Y-104735636D01*
X142045718Y-104481346D01*
X142050890Y-104476726D01*
X142056617Y-104472159D01*
X142082590Y-104451447D01*
X142082592Y-104451443D01*
X142088914Y-104444632D01*
X142091405Y-104446943D01*
X142132389Y-104413325D01*
X142201790Y-104405252D01*
X142202944Y-104405817D01*
X142173209Y-104349786D01*
X142176191Y-104288320D01*
X142179751Y-104276782D01*
X142200051Y-104218770D01*
X142200051Y-104218767D01*
X142200052Y-104218765D01*
X142201683Y-104210145D01*
X142203000Y-104201412D01*
X142203000Y-104139957D01*
X142205298Y-104078544D01*
X142204258Y-104069312D01*
X142205049Y-104069222D01*
X142203000Y-104053642D01*
X142203000Y-103571320D01*
X142222685Y-103504281D01*
X142275489Y-103458526D01*
X142312213Y-103448204D01*
X142381564Y-103439877D01*
X142522342Y-103384361D01*
X142642922Y-103292922D01*
X142734361Y-103172342D01*
X142789877Y-103031564D01*
X142800500Y-102943102D01*
X142800500Y-102696076D01*
X142820185Y-102629037D01*
X142836814Y-102608400D01*
X142973223Y-102471991D01*
X142978395Y-102467371D01*
X142979465Y-102466518D01*
X143010090Y-102442096D01*
X143044703Y-102391326D01*
X143081204Y-102341870D01*
X143081204Y-102341867D01*
X143085312Y-102334094D01*
X143089131Y-102326162D01*
X143089138Y-102326153D01*
X143107251Y-102267431D01*
X143127551Y-102209419D01*
X143127551Y-102209417D01*
X143127552Y-102209415D01*
X143129183Y-102200792D01*
X143130500Y-102192061D01*
X143130500Y-102130605D01*
X143132798Y-102069192D01*
X143131758Y-102059960D01*
X143132549Y-102059870D01*
X143130500Y-102044290D01*
X143130500Y-99357124D01*
X143130889Y-99350185D01*
X143135429Y-99309898D01*
X143124003Y-99249512D01*
X143119452Y-99219318D01*
X143114844Y-99188741D01*
X143112253Y-99180344D01*
X143109341Y-99172019D01*
X143080628Y-99117690D01*
X143064596Y-99084402D01*
X143053219Y-99045544D01*
X143047726Y-99000304D01*
X143036237Y-98905682D01*
X142980220Y-98757977D01*
X142890483Y-98627970D01*
X142772240Y-98523217D01*
X142772238Y-98523216D01*
X142772237Y-98523215D01*
X142632365Y-98449803D01*
X142478986Y-98412000D01*
X142478985Y-98412000D01*
X142321015Y-98412000D01*
X142321014Y-98412000D01*
X142167634Y-98449803D01*
X142027762Y-98523215D01*
X141909516Y-98627971D01*
X141819781Y-98757975D01*
X141819780Y-98757976D01*
X141763762Y-98905681D01*
X141744722Y-99062499D01*
X141744722Y-99062500D01*
X141763762Y-99219318D01*
X141813391Y-99350176D01*
X141819780Y-99367023D01*
X141909517Y-99497030D01*
X142027760Y-99601783D01*
X142027762Y-99601784D01*
X142133126Y-99657084D01*
X142183338Y-99705668D01*
X142199500Y-99766880D01*
X142199500Y-100025500D01*
X142179815Y-100092539D01*
X142127011Y-100138294D01*
X142075500Y-100149500D01*
X141746678Y-100149500D01*
X141679639Y-100129815D01*
X141658997Y-100113181D01*
X140436818Y-98891002D01*
X140403333Y-98829679D01*
X140400499Y-98803321D01*
X140400499Y-97343482D01*
X140400498Y-97343475D01*
X140385646Y-97249696D01*
X140328050Y-97136658D01*
X140328046Y-97136654D01*
X140328045Y-97136652D01*
X140238347Y-97046954D01*
X140238344Y-97046952D01*
X140238342Y-97046950D01*
X140161517Y-97007805D01*
X140125301Y-96989352D01*
X140031524Y-96974500D01*
X140031519Y-96974500D01*
X139789500Y-96974500D01*
X139722461Y-96954815D01*
X139676706Y-96902011D01*
X139665500Y-96850500D01*
X139665500Y-96119178D01*
X139685185Y-96052139D01*
X139701818Y-96031498D01*
X139742364Y-95990951D01*
X139803686Y-95957465D01*
X139855824Y-95957341D01*
X139871712Y-95960718D01*
X139899671Y-95957778D01*
X139906783Y-95957032D01*
X139913269Y-95956692D01*
X140825246Y-95956692D01*
X140832978Y-95955879D01*
X140832985Y-95955945D01*
X140848350Y-95954328D01*
X140856330Y-95954190D01*
X140877076Y-95950532D01*
X140909902Y-95944744D01*
X140909906Y-95944743D01*
X140910956Y-95944558D01*
X140910996Y-95944549D01*
X140920321Y-95942905D01*
X140923831Y-95941820D01*
X140938690Y-95938661D01*
X140938691Y-95938660D01*
X140938693Y-95938660D01*
X140943833Y-95936476D01*
X140962578Y-95928517D01*
X140965586Y-95927333D01*
X140983882Y-95920676D01*
X140983883Y-95920677D01*
X140990760Y-95918175D01*
X141017075Y-95907544D01*
X141017609Y-95907196D01*
X141036688Y-95897049D01*
X141055465Y-95889077D01*
X141081581Y-95866367D01*
X141088498Y-95861155D01*
X141099794Y-95853818D01*
X141123470Y-95838442D01*
X141137873Y-95820651D01*
X141140330Y-95818954D01*
X141140246Y-95818884D01*
X141149783Y-95807518D01*
X141149845Y-95807450D01*
X141161516Y-95793538D01*
X141186724Y-95763500D01*
X141186727Y-95763495D01*
X141186811Y-95763396D01*
X141204250Y-95741076D01*
X141215978Y-95718056D01*
X141217520Y-95715217D01*
X141231027Y-95691823D01*
X141231026Y-95691822D01*
X141244311Y-95666838D01*
X141244492Y-95666244D01*
X141252592Y-95646198D01*
X141261846Y-95628038D01*
X141267262Y-95593832D01*
X141269212Y-95585391D01*
X141278564Y-95554803D01*
X141281404Y-95545516D01*
X141281002Y-95522572D01*
X141281793Y-95519697D01*
X141281692Y-95519697D01*
X141281692Y-94249757D01*
X141280879Y-94242027D01*
X141280945Y-94242020D01*
X141279328Y-94226650D01*
X141279189Y-94218666D01*
X141276689Y-94204487D01*
X141269474Y-94163564D01*
X141269453Y-94163461D01*
X141267910Y-94154711D01*
X141266821Y-94151171D01*
X141266318Y-94148810D01*
X141263661Y-94136310D01*
X141253528Y-94112446D01*
X141252334Y-94109413D01*
X141243175Y-94084240D01*
X141242739Y-94083161D01*
X141232544Y-94057925D01*
X141232196Y-94057389D01*
X141222047Y-94038307D01*
X141220554Y-94034791D01*
X141214077Y-94019535D01*
X141191360Y-93993409D01*
X141186161Y-93986511D01*
X141163442Y-93951530D01*
X141145657Y-93937130D01*
X141143964Y-93934679D01*
X141143895Y-93934763D01*
X141132510Y-93925210D01*
X141132453Y-93925158D01*
X141130836Y-93923802D01*
X141130834Y-93923799D01*
X141125229Y-93919097D01*
X141125228Y-93919097D01*
X141119712Y-93914470D01*
X141088420Y-93888209D01*
X141088417Y-93888207D01*
X141088396Y-93888189D01*
X141088230Y-93888059D01*
X141088225Y-93888055D01*
X141082471Y-93883560D01*
X141066076Y-93870750D01*
X141063629Y-93869503D01*
X141043059Y-93859022D01*
X141040207Y-93857474D01*
X141023158Y-93847631D01*
X141023159Y-93847631D01*
X141016823Y-93843973D01*
X140991838Y-93830689D01*
X140991835Y-93830688D01*
X140991833Y-93830687D01*
X140991238Y-93830505D01*
X140971204Y-93822410D01*
X140953037Y-93813153D01*
X140925331Y-93808765D01*
X140918833Y-93807736D01*
X140910397Y-93805789D01*
X140889722Y-93799468D01*
X140870516Y-93793596D01*
X140870515Y-93793596D01*
X140847565Y-93793996D01*
X140844697Y-93793207D01*
X140844697Y-93793308D01*
X139574754Y-93793308D01*
X139567031Y-93794120D01*
X139567024Y-93794055D01*
X139551648Y-93795670D01*
X139543676Y-93795808D01*
X139479729Y-93807083D01*
X139476172Y-93808178D01*
X139461311Y-93811338D01*
X139461307Y-93811339D01*
X139437443Y-93821472D01*
X139434412Y-93822666D01*
X139416117Y-93829323D01*
X139409240Y-93831825D01*
X139404391Y-93833783D01*
X139382928Y-93842453D01*
X139382916Y-93842460D01*
X139382370Y-93842815D01*
X139363312Y-93852949D01*
X139344535Y-93860922D01*
X139344532Y-93860924D01*
X139318418Y-93883630D01*
X139311502Y-93888843D01*
X139276529Y-93911557D01*
X139276527Y-93911559D01*
X139262117Y-93929356D01*
X139259656Y-93931056D01*
X139259743Y-93931129D01*
X139250824Y-93941755D01*
X139250781Y-93941802D01*
X139239285Y-93955507D01*
X139213187Y-93986606D01*
X139195749Y-94008925D01*
X139195747Y-94008928D01*
X139184021Y-94031942D01*
X139182474Y-94034791D01*
X139172631Y-94051841D01*
X139169119Y-94057925D01*
X139168974Y-94058176D01*
X139155689Y-94083161D01*
X139155506Y-94083760D01*
X139147413Y-94103788D01*
X139138154Y-94121959D01*
X139138152Y-94121965D01*
X139132736Y-94156165D01*
X139130788Y-94164602D01*
X139118597Y-94204476D01*
X139118596Y-94204487D01*
X139118996Y-94227434D01*
X139118208Y-94230303D01*
X139118308Y-94230303D01*
X139118308Y-94258882D01*
X139098623Y-94325921D01*
X139081989Y-94346563D01*
X138287680Y-95140871D01*
X138226357Y-95174356D01*
X138156665Y-95169372D01*
X138112318Y-95140871D01*
X137934128Y-94962680D01*
X137900643Y-94901357D01*
X137905627Y-94831665D01*
X137934128Y-94787318D01*
X138995730Y-93725716D01*
X138995444Y-93724667D01*
X138985155Y-93721019D01*
X138970047Y-93714119D01*
X138930817Y-93708479D01*
X138924066Y-93707122D01*
X138870071Y-93693112D01*
X138848818Y-93693787D01*
X138844697Y-93692717D01*
X138844697Y-93693658D01*
X137848300Y-93693658D01*
X137781261Y-93673973D01*
X137735506Y-93621169D01*
X137724300Y-93569658D01*
X137724300Y-93399207D01*
X137743985Y-93332168D01*
X137796789Y-93286413D01*
X137853192Y-93275899D01*
X137853192Y-93275500D01*
X137855333Y-93275500D01*
X137855714Y-93275429D01*
X137856897Y-93275499D01*
X137856898Y-93275500D01*
X137856899Y-93275500D01*
X138243097Y-93275500D01*
X138243102Y-93275500D01*
X138331564Y-93264877D01*
X138472342Y-93209361D01*
X138592922Y-93117922D01*
X138684361Y-92997342D01*
X138739877Y-92856564D01*
X138750500Y-92768102D01*
X138750500Y-91524500D01*
X138770185Y-91457461D01*
X138822989Y-91411706D01*
X138874500Y-91400500D01*
X139125500Y-91400500D01*
X139192539Y-91420185D01*
X139238294Y-91472989D01*
X139249500Y-91524499D01*
X139249500Y-92768102D01*
X139255126Y-92814954D01*
X139260122Y-92856561D01*
X139315639Y-92997343D01*
X139407077Y-93117922D01*
X139527656Y-93209360D01*
X139527657Y-93209360D01*
X139527658Y-93209361D01*
X139668436Y-93264877D01*
X139756898Y-93275500D01*
X139756903Y-93275500D01*
X140143097Y-93275500D01*
X140143102Y-93275500D01*
X140231564Y-93264877D01*
X140372342Y-93209361D01*
X140492922Y-93117922D01*
X140584361Y-92997342D01*
X140639877Y-92856564D01*
X140650500Y-92768102D01*
X140650500Y-92146676D01*
X140670185Y-92079638D01*
X140686814Y-92059001D01*
X142321967Y-90423847D01*
X142383288Y-90390364D01*
X142413514Y-90388952D01*
X142413514Y-90388000D01*
X142578985Y-90388000D01*
X142732365Y-90350196D01*
X142872240Y-90276783D01*
X142990483Y-90172030D01*
X143080220Y-90042023D01*
X143136237Y-89894318D01*
X143155278Y-89737500D01*
X143136237Y-89580682D01*
X143134051Y-89574919D01*
X143114992Y-89524664D01*
X143080220Y-89432977D01*
X142990483Y-89302970D01*
X142990482Y-89302969D01*
X142987450Y-89298576D01*
X142965567Y-89232221D01*
X142965500Y-89228136D01*
X142965500Y-88069624D01*
X142965889Y-88062685D01*
X142970429Y-88022398D01*
X142959004Y-87962021D01*
X142949844Y-87901242D01*
X142949841Y-87901236D01*
X142947257Y-87892858D01*
X142944338Y-87884513D01*
X142915627Y-87830190D01*
X142888960Y-87774814D01*
X142884008Y-87767550D01*
X142878773Y-87760458D01*
X142878771Y-87760454D01*
X142835305Y-87716988D01*
X142793513Y-87671947D01*
X142793511Y-87671945D01*
X142786252Y-87666157D01*
X142786749Y-87665532D01*
X142774282Y-87655965D01*
X141530170Y-86411853D01*
X140222594Y-85104277D01*
X140217976Y-85099109D01*
X140192697Y-85067410D01*
X140141927Y-85032796D01*
X140134874Y-85027591D01*
X140124066Y-85019614D01*
X140092471Y-84996296D01*
X140092468Y-84996295D01*
X140092467Y-84996294D01*
X140084693Y-84992185D01*
X140076754Y-84988361D01*
X140018032Y-84970248D01*
X139973545Y-84954681D01*
X139916769Y-84913959D01*
X139891022Y-84849006D01*
X139890500Y-84837640D01*
X139890500Y-84781903D01*
X139890500Y-84781898D01*
X139879877Y-84693436D01*
X139824361Y-84552658D01*
X139824360Y-84552657D01*
X139824360Y-84552656D01*
X139732922Y-84432077D01*
X139612343Y-84340639D01*
X139471561Y-84285122D01*
X139425926Y-84279642D01*
X139383102Y-84274500D01*
X138996898Y-84274500D01*
X138957853Y-84279188D01*
X138908438Y-84285122D01*
X138767656Y-84340639D01*
X138647077Y-84432077D01*
X138555639Y-84552656D01*
X138500122Y-84693438D01*
X138494188Y-84742853D01*
X138489500Y-84781898D01*
X138489500Y-84781903D01*
X138489500Y-84906820D01*
X138469815Y-84973859D01*
X138417011Y-85019614D01*
X138347853Y-85029558D01*
X138284297Y-85000533D01*
X138277819Y-84994501D01*
X137861818Y-84578501D01*
X137828333Y-84517178D01*
X137825499Y-84490820D01*
X137825499Y-84085636D01*
X137810046Y-83968246D01*
X137810044Y-83968241D01*
X137810044Y-83968238D01*
X137749536Y-83822159D01*
X137653282Y-83696718D01*
X137527841Y-83600464D01*
X137381762Y-83539956D01*
X137381760Y-83539955D01*
X137264370Y-83524501D01*
X137264367Y-83524500D01*
X137264361Y-83524500D01*
X137264354Y-83524500D01*
X136859179Y-83524500D01*
X136792140Y-83504815D01*
X136771498Y-83488181D01*
X136091819Y-82808501D01*
X136058334Y-82747178D01*
X136055500Y-82720820D01*
X136055500Y-82716070D01*
X136075185Y-82649031D01*
X136127989Y-82603276D01*
X136160102Y-82593596D01*
X136210304Y-82585646D01*
X136245947Y-82567484D01*
X136314614Y-82554589D01*
X136376552Y-82578704D01*
X136462910Y-82643352D01*
X136462913Y-82643354D01*
X136597620Y-82693596D01*
X136597627Y-82693598D01*
X136657155Y-82699999D01*
X136657172Y-82700000D01*
X137050000Y-82700000D01*
X137050000Y-82074499D01*
X137069685Y-82007460D01*
X137122489Y-81961705D01*
X137174000Y-81950499D01*
X137226000Y-81950499D01*
X137293039Y-81970184D01*
G37*
G04 #@! TD.AperFunction*
G04 #@! TA.AperFunction,Conductor*
G36*
X138477539Y-88775185D02*
G01*
X138523294Y-88827989D01*
X138534500Y-88879500D01*
X138534500Y-89161777D01*
X138514815Y-89228816D01*
X138485428Y-89260579D01*
X138457077Y-89282078D01*
X138457074Y-89282082D01*
X138365639Y-89402656D01*
X138310122Y-89543438D01*
X138306342Y-89574919D01*
X138299500Y-89631898D01*
X138299500Y-89631902D01*
X138299500Y-89631903D01*
X138299500Y-90875500D01*
X138279815Y-90942539D01*
X138227011Y-90988294D01*
X138175500Y-90999500D01*
X137856898Y-90999500D01*
X137817853Y-91004188D01*
X137768438Y-91010122D01*
X137627656Y-91065639D01*
X137507077Y-91157077D01*
X137415639Y-91277656D01*
X137360122Y-91418438D01*
X137355437Y-91457461D01*
X137349500Y-91506898D01*
X137349500Y-91506902D01*
X137349500Y-91506903D01*
X137349500Y-92128320D01*
X137329815Y-92195359D01*
X137313181Y-92216001D01*
X136950589Y-92578592D01*
X136945402Y-92583228D01*
X136913713Y-92608499D01*
X136913711Y-92608502D01*
X136879095Y-92659274D01*
X136847031Y-92702718D01*
X136791383Y-92744969D01*
X136721727Y-92750427D01*
X136660178Y-92717359D01*
X136627486Y-92661176D01*
X136626976Y-92659274D01*
X136613373Y-92608503D01*
X136604578Y-92575679D01*
X136604576Y-92575675D01*
X136604575Y-92575670D01*
X136512102Y-92377362D01*
X136512100Y-92377359D01*
X136512099Y-92377357D01*
X136386599Y-92198124D01*
X136316795Y-92128320D01*
X136231877Y-92043402D01*
X136052639Y-91917898D01*
X136052633Y-91917895D01*
X136019133Y-91902273D01*
X135966694Y-91856100D01*
X135947543Y-91788907D01*
X135967760Y-91722026D01*
X136019135Y-91677509D01*
X136102580Y-91638598D01*
X136296082Y-91503105D01*
X136463105Y-91336082D01*
X136598600Y-91142578D01*
X136698429Y-90928492D01*
X136698432Y-90928486D01*
X136755636Y-90715000D01*
X136038347Y-90715000D01*
X135971308Y-90695315D01*
X135925553Y-90642511D01*
X135915609Y-90573353D01*
X135919369Y-90556067D01*
X135925000Y-90536888D01*
X135925000Y-90393111D01*
X135919369Y-90373933D01*
X135919370Y-90304064D01*
X135957145Y-90245286D01*
X136020701Y-90216262D01*
X136038347Y-90215000D01*
X136755636Y-90215000D01*
X136755635Y-90214999D01*
X136698432Y-90001513D01*
X136698429Y-90001507D01*
X136598600Y-89787422D01*
X136598599Y-89787420D01*
X136463113Y-89593926D01*
X136463108Y-89593920D01*
X136296080Y-89426892D01*
X136256614Y-89399257D01*
X136212990Y-89344679D01*
X136205798Y-89275181D01*
X136237321Y-89212826D01*
X136297552Y-89177414D01*
X136308321Y-89175213D01*
X136400304Y-89160646D01*
X136513342Y-89103050D01*
X136603050Y-89013342D01*
X136660646Y-88900304D01*
X136660646Y-88900302D01*
X136660647Y-88900301D01*
X136667014Y-88860102D01*
X136696943Y-88796967D01*
X136756255Y-88760036D01*
X136789487Y-88755500D01*
X138410500Y-88755500D01*
X138477539Y-88775185D01*
G37*
G04 #@! TD.AperFunction*
G04 #@! TA.AperFunction,Conductor*
G36*
X137143859Y-79935185D02*
G01*
X137189614Y-79987989D01*
X137199558Y-80057147D01*
X137170533Y-80120703D01*
X137164500Y-80127182D01*
X137128499Y-80163182D01*
X137067175Y-80196667D01*
X137040819Y-80199500D01*
X136673482Y-80199500D01*
X136579696Y-80214354D01*
X136544053Y-80232515D01*
X136475384Y-80245410D01*
X136413449Y-80221296D01*
X136327088Y-80156647D01*
X136327088Y-80156646D01*
X136324502Y-80155682D01*
X136322292Y-80154027D01*
X136319304Y-80152396D01*
X136319538Y-80151966D01*
X136268569Y-80113810D01*
X136244152Y-80048346D01*
X136259004Y-79980073D01*
X136308409Y-79930668D01*
X136367836Y-79915500D01*
X137076820Y-79915500D01*
X137143859Y-79935185D01*
G37*
G04 #@! TD.AperFunction*
G04 #@! TA.AperFunction,Conductor*
G36*
X138812641Y-63963188D02*
G01*
X138868574Y-64005060D01*
X138883867Y-64031914D01*
X138887010Y-64039504D01*
X138890463Y-64047840D01*
X138890464Y-64047841D01*
X138908876Y-64071835D01*
X138934070Y-64137002D01*
X138934500Y-64147321D01*
X138934500Y-64751000D01*
X138914815Y-64818039D01*
X138862011Y-64863794D01*
X138810500Y-64875000D01*
X138727155Y-64875000D01*
X138667627Y-64881401D01*
X138667620Y-64881403D01*
X138532913Y-64931645D01*
X138532910Y-64931647D01*
X138463811Y-64983375D01*
X138398346Y-65007792D01*
X138330073Y-64992940D01*
X138280668Y-64943535D01*
X138265500Y-64884108D01*
X138265500Y-64459177D01*
X138285185Y-64392138D01*
X138301814Y-64371501D01*
X138681628Y-63991687D01*
X138742949Y-63958204D01*
X138812641Y-63963188D01*
G37*
G04 #@! TD.AperFunction*
G04 #@! TA.AperFunction,Conductor*
G36*
X143750395Y-63877971D02*
G01*
X143803847Y-63922967D01*
X143824487Y-63989719D01*
X143824500Y-63991490D01*
X143824500Y-64470636D01*
X143804815Y-64537675D01*
X143802550Y-64541076D01*
X143705519Y-64681650D01*
X143703933Y-64680555D01*
X143662294Y-64723582D01*
X143594274Y-64739550D01*
X143573495Y-64736628D01*
X143522817Y-64725059D01*
X143518340Y-64723860D01*
X143478326Y-64711518D01*
X143470163Y-64709000D01*
X143470162Y-64709000D01*
X143466423Y-64709000D01*
X143438830Y-64705891D01*
X143435177Y-64705057D01*
X143403475Y-64707433D01*
X143384878Y-64708827D01*
X143380262Y-64709000D01*
X142894500Y-64709000D01*
X142827461Y-64689315D01*
X142781706Y-64636511D01*
X142770500Y-64585000D01*
X142770500Y-64003486D01*
X142790185Y-63936447D01*
X142842989Y-63890692D01*
X142894500Y-63879486D01*
X143615005Y-63879486D01*
X143681102Y-63869017D01*
X143750395Y-63877971D01*
G37*
G04 #@! TD.AperFunction*
M02*
