G04 #@! TF.GenerationSoftware,KiCad,Pcbnew,7.0.7*
G04 #@! TF.CreationDate,2024-02-13T08:09:53-05:00*
G04 #@! TF.ProjectId,sensor_node,73656e73-6f72-45f6-9e6f-64652e6b6963,rev?*
G04 #@! TF.SameCoordinates,Original*
G04 #@! TF.FileFunction,Soldermask,Top*
G04 #@! TF.FilePolarity,Negative*
%FSLAX46Y46*%
G04 Gerber Fmt 4.6, Leading zero omitted, Abs format (unit mm)*
G04 Created by KiCad (PCBNEW 7.0.7) date 2024-02-13 08:09:53*
%MOMM*%
%LPD*%
G01*
G04 APERTURE LIST*
G04 Aperture macros list*
%AMRoundRect*
0 Rectangle with rounded corners*
0 $1 Rounding radius*
0 $2 $3 $4 $5 $6 $7 $8 $9 X,Y pos of 4 corners*
0 Add a 4 corners polygon primitive as box body*
4,1,4,$2,$3,$4,$5,$6,$7,$8,$9,$2,$3,0*
0 Add four circle primitives for the rounded corners*
1,1,$1+$1,$2,$3*
1,1,$1+$1,$4,$5*
1,1,$1+$1,$6,$7*
1,1,$1+$1,$8,$9*
0 Add four rect primitives between the rounded corners*
20,1,$1+$1,$2,$3,$4,$5,0*
20,1,$1+$1,$4,$5,$6,$7,0*
20,1,$1+$1,$6,$7,$8,$9,0*
20,1,$1+$1,$8,$9,$2,$3,0*%
%AMFreePoly0*
4,1,6,0.500000,-0.850000,-0.500000,-0.850000,-0.500000,0.550000,-0.200000,0.850000,0.500000,0.850000,0.500000,-0.850000,0.500000,-0.850000,$1*%
G04 Aperture macros list end*
%ADD10RoundRect,0.150000X0.150000X-0.587500X0.150000X0.587500X-0.150000X0.587500X-0.150000X-0.587500X0*%
%ADD11RoundRect,0.102000X0.800000X0.750000X-0.800000X0.750000X-0.800000X-0.750000X0.800000X-0.750000X0*%
%ADD12RoundRect,0.225000X0.250000X-0.225000X0.250000X0.225000X-0.250000X0.225000X-0.250000X-0.225000X0*%
%ADD13RoundRect,0.102000X0.495000X0.150000X-0.495000X0.150000X-0.495000X-0.150000X0.495000X-0.150000X0*%
%ADD14RoundRect,0.225000X-0.250000X0.225000X-0.250000X-0.225000X0.250000X-0.225000X0.250000X0.225000X0*%
%ADD15RoundRect,0.200000X-0.275000X0.200000X-0.275000X-0.200000X0.275000X-0.200000X0.275000X0.200000X0*%
%ADD16RoundRect,0.150000X-0.512500X-0.150000X0.512500X-0.150000X0.512500X0.150000X-0.512500X0.150000X0*%
%ADD17RoundRect,0.200000X0.275000X-0.200000X0.275000X0.200000X-0.275000X0.200000X-0.275000X-0.200000X0*%
%ADD18RoundRect,0.200000X-0.200000X-0.275000X0.200000X-0.275000X0.200000X0.275000X-0.200000X0.275000X0*%
%ADD19RoundRect,0.200000X0.200000X0.275000X-0.200000X0.275000X-0.200000X-0.275000X0.200000X-0.275000X0*%
%ADD20R,0.550000X0.250000*%
%ADD21FreePoly0,0.000000*%
%ADD22R,0.600000X0.720000*%
%ADD23R,2.000000X2.000000*%
%ADD24RoundRect,0.150000X0.512500X0.150000X-0.512500X0.150000X-0.512500X-0.150000X0.512500X-0.150000X0*%
%ADD25R,2.100000X2.100000*%
%ADD26C,2.100000*%
%ADD27RoundRect,0.150000X-0.150000X0.587500X-0.150000X-0.587500X0.150000X-0.587500X0.150000X0.587500X0*%
%ADD28RoundRect,0.225000X-0.225000X-0.250000X0.225000X-0.250000X0.225000X0.250000X-0.225000X0.250000X0*%
%ADD29RoundRect,0.102000X-0.125000X0.275000X-0.125000X-0.275000X0.125000X-0.275000X0.125000X0.275000X0*%
%ADD30R,1.050000X0.650000*%
%ADD31RoundRect,0.102000X-1.750000X0.500000X-1.750000X-0.500000X1.750000X-0.500000X1.750000X0.500000X0*%
%ADD32RoundRect,0.102000X-1.700000X0.750000X-1.700000X-0.750000X1.700000X-0.750000X1.700000X0.750000X0*%
%ADD33R,1.700000X1.700000*%
%ADD34O,1.700000X1.700000*%
G04 APERTURE END LIST*
G36*
X140900000Y-95575000D02*
G01*
X139900000Y-95575000D01*
X139500000Y-95175000D01*
X139500000Y-94175000D01*
X140900000Y-94175000D01*
X140900000Y-95575000D01*
G37*
G36*
X138900000Y-95175000D02*
G01*
X138500000Y-95575000D01*
X137500000Y-95575000D01*
X137500000Y-94175000D01*
X138900000Y-94175000D01*
X138900000Y-95175000D01*
G37*
D10*
X138050000Y-92137500D03*
X139950000Y-92137500D03*
X139000000Y-90262500D03*
D11*
X139200000Y-98125000D03*
D12*
X141600000Y-83375000D03*
X141600000Y-81825000D03*
D13*
X137200000Y-82050000D03*
X137200000Y-81400000D03*
X137200000Y-80750000D03*
X135590000Y-80750000D03*
X135590000Y-81400000D03*
X135590000Y-82050000D03*
D14*
X153400000Y-75025000D03*
X153400000Y-76575000D03*
D15*
X138643750Y-105025000D03*
X138643750Y-106675000D03*
D16*
X145600000Y-104700000D03*
X145600000Y-106600000D03*
X147875000Y-105650000D03*
D17*
X143137500Y-106625000D03*
X143137500Y-104975000D03*
D18*
X147075000Y-78200000D03*
X148725000Y-78200000D03*
X144000000Y-75910000D03*
X145650000Y-75910000D03*
D19*
X149250000Y-75910000D03*
X147600000Y-75910000D03*
D20*
X141940000Y-61874500D03*
X141940000Y-62374500D03*
X141940000Y-62874500D03*
X141940000Y-63374500D03*
X144290000Y-63374500D03*
X144290000Y-62874500D03*
X144290000Y-62374500D03*
X144290000Y-61874500D03*
D21*
X143115000Y-62624500D03*
D17*
X151400000Y-76650000D03*
X151400000Y-75000000D03*
D22*
X142715000Y-69040000D03*
X142715000Y-68070000D03*
X142715000Y-67100000D03*
X142715000Y-66130000D03*
X144115000Y-66130000D03*
X144115000Y-67100000D03*
X144115000Y-68070000D03*
X144115000Y-69040000D03*
D23*
X135200000Y-77800000D03*
X135200000Y-62680000D03*
D19*
X137025000Y-84400000D03*
X135375000Y-84400000D03*
D14*
X155400000Y-75000000D03*
X155400000Y-76550000D03*
D24*
X141737500Y-102750000D03*
X141737500Y-101800000D03*
X141737500Y-100850000D03*
X139462500Y-100850000D03*
X139462500Y-101800000D03*
X139462500Y-102750000D03*
D14*
X139600000Y-79450000D03*
X139600000Y-81000000D03*
D25*
X155000000Y-106289087D03*
D26*
X155000000Y-86289087D03*
D15*
X139690000Y-61895000D03*
X139690000Y-63545000D03*
D17*
X140843750Y-106675000D03*
X140843750Y-105025000D03*
D27*
X144550000Y-78662500D03*
X142650000Y-78662500D03*
X143600000Y-80537500D03*
D28*
X146350000Y-72200000D03*
X144800000Y-72200000D03*
D19*
X140025000Y-77000000D03*
X138375000Y-77000000D03*
D29*
X139900000Y-65650000D03*
X139400000Y-65650000D03*
X138900000Y-65650000D03*
X138900000Y-68400000D03*
X139400000Y-68400000D03*
X139900000Y-68400000D03*
D18*
X144015000Y-74030000D03*
X145665000Y-74030000D03*
D30*
X141975000Y-74300000D03*
X137825000Y-74300000D03*
X141975000Y-72150000D03*
X137825000Y-72150000D03*
D31*
X148450000Y-70180000D03*
X148450000Y-68180000D03*
X148450000Y-66180000D03*
X148450000Y-64180000D03*
D32*
X154200000Y-72530000D03*
X154200000Y-61830000D03*
D33*
X135425000Y-87925000D03*
D34*
X135425000Y-90465000D03*
X135425000Y-93005000D03*
X135425000Y-95545000D03*
X135425000Y-98085000D03*
X135425000Y-100625000D03*
X135425000Y-103165000D03*
X135425000Y-105705000D03*
D28*
X147595000Y-74070000D03*
X149145000Y-74070000D03*
D10*
X138240000Y-87287500D03*
X140140000Y-87287500D03*
X139190000Y-85412500D03*
M02*
