G04 #@! TF.GenerationSoftware,KiCad,Pcbnew,7.0.7*
G04 #@! TF.CreationDate,2024-02-13T08:09:53-05:00*
G04 #@! TF.ProjectId,sensor_node,73656e73-6f72-45f6-9e6f-64652e6b6963,rev?*
G04 #@! TF.SameCoordinates,Original*
G04 #@! TF.FileFunction,Soldermask,Bot*
G04 #@! TF.FilePolarity,Negative*
%FSLAX46Y46*%
G04 Gerber Fmt 4.6, Leading zero omitted, Abs format (unit mm)*
G04 Created by KiCad (PCBNEW 7.0.7) date 2024-02-13 08:09:53*
%MOMM*%
%LPD*%
G01*
G04 APERTURE LIST*
G04 Aperture macros list*
%AMRoundRect*
0 Rectangle with rounded corners*
0 $1 Rounding radius*
0 $2 $3 $4 $5 $6 $7 $8 $9 X,Y pos of 4 corners*
0 Add a 4 corners polygon primitive as box body*
4,1,4,$2,$3,$4,$5,$6,$7,$8,$9,$2,$3,0*
0 Add four circle primitives for the rounded corners*
1,1,$1+$1,$2,$3*
1,1,$1+$1,$4,$5*
1,1,$1+$1,$6,$7*
1,1,$1+$1,$8,$9*
0 Add four rect primitives between the rounded corners*
20,1,$1+$1,$2,$3,$4,$5,0*
20,1,$1+$1,$4,$5,$6,$7,0*
20,1,$1+$1,$6,$7,$8,$9,0*
20,1,$1+$1,$8,$9,$2,$3,0*%
G04 Aperture macros list end*
%ADD10R,2.100000X2.100000*%
%ADD11C,2.100000*%
%ADD12R,1.700000X1.700000*%
%ADD13O,1.700000X1.700000*%
%ADD14RoundRect,0.200000X0.275000X-0.200000X0.275000X0.200000X-0.275000X0.200000X-0.275000X-0.200000X0*%
%ADD15R,2.500000X1.100000*%
%ADD16R,1.100000X2.500000*%
%ADD17R,1.050000X0.650000*%
%ADD18RoundRect,0.200000X-0.200000X-0.275000X0.200000X-0.275000X0.200000X0.275000X-0.200000X0.275000X0*%
%ADD19RoundRect,0.200000X0.200000X0.275000X-0.200000X0.275000X-0.200000X-0.275000X0.200000X-0.275000X0*%
%ADD20RoundRect,0.100000X0.637500X0.100000X-0.637500X0.100000X-0.637500X-0.100000X0.637500X-0.100000X0*%
%ADD21O,3.048000X1.850000*%
G04 APERTURE END LIST*
D10*
X155000000Y-106289087D03*
D11*
X155000000Y-86289087D03*
D12*
X135425000Y-87925000D03*
D13*
X135425000Y-90465000D03*
X135425000Y-93005000D03*
X135425000Y-95545000D03*
X135425000Y-98085000D03*
X135425000Y-100625000D03*
X135425000Y-103165000D03*
X135425000Y-105705000D03*
D14*
X155200000Y-63425000D03*
X155200000Y-61775000D03*
D15*
X152500000Y-61800000D03*
X152500000Y-63800000D03*
X152500000Y-65800000D03*
X152500000Y-67800000D03*
X152500000Y-69800000D03*
X152500000Y-71800000D03*
X152500000Y-73800000D03*
X152500000Y-75800000D03*
X137100000Y-75800000D03*
X137100000Y-73800000D03*
X137100000Y-71800000D03*
X137100000Y-69800000D03*
X137100000Y-67800000D03*
X137100000Y-65800000D03*
X137100000Y-63800000D03*
X137100000Y-61800000D03*
D16*
X149810000Y-77500000D03*
X147810000Y-77500000D03*
X145810000Y-77500000D03*
X143810000Y-77500000D03*
X141810000Y-77500000D03*
X139810000Y-77500000D03*
D17*
X143515000Y-102550000D03*
X147665000Y-102550000D03*
X143515000Y-100400000D03*
X147665000Y-100400000D03*
D18*
X152475000Y-80200000D03*
X154125000Y-80200000D03*
D19*
X146825000Y-74300000D03*
X145175000Y-74300000D03*
D20*
X147962500Y-66275000D03*
X147962500Y-66925000D03*
X147962500Y-67575000D03*
X147962500Y-68225000D03*
X147962500Y-68875000D03*
X147962500Y-69525000D03*
X147962500Y-70175000D03*
X147962500Y-70825000D03*
X147962500Y-71475000D03*
X147962500Y-72125000D03*
X142237500Y-72125000D03*
X142237500Y-71475000D03*
X142237500Y-70825000D03*
X142237500Y-70175000D03*
X142237500Y-69525000D03*
X142237500Y-68875000D03*
X142237500Y-68225000D03*
X142237500Y-67575000D03*
X142237500Y-66925000D03*
X142237500Y-66275000D03*
D21*
X139212500Y-89737500D03*
X151712500Y-89737500D03*
X139212500Y-84737500D03*
X151712500Y-84737500D03*
D17*
X147600000Y-86125000D03*
X143450000Y-86125000D03*
X147600000Y-88275000D03*
X143450000Y-88275000D03*
D21*
X151637500Y-99062500D03*
X139137500Y-99062500D03*
X151637500Y-104062500D03*
X139137500Y-104062500D03*
M02*
