M48
; DRILL file {KiCad 7.0.7} date Thu Feb 29 14:06:05 2024
; FORMAT={-:-/ absolute / metric / decimal}
; #@! TF.CreationDate,2024-02-29T14:06:05-05:00
; #@! TF.GenerationSoftware,Kicad,Pcbnew,7.0.7
; #@! TF.FileFunction,Plated,1,2,PTH
FMAT,2
METRIC
; #@! TA.AperFunction,Plated,PTH,ViaDrill
T1C0.300
; #@! TA.AperFunction,Plated,PTH,ComponentDrill
T2C1.000
%
G90
G05
T1
X101.599Y-26.713
X101.599Y-74.713
X102.0Y-30.6
X102.0Y-78.6
X102.049Y-37.6
X102.049Y-85.6
X103.525Y-48.4
X103.525Y-96.4
X104.0Y-55.6
X104.0Y-103.6
X105.7Y-45.4
X105.7Y-48.3
X105.7Y-93.4
X105.7Y-96.3
X106.7Y-55.3
X106.7Y-103.3
X106.8Y-32.9
X106.8Y-80.9
X108.132Y-30.605
X108.132Y-78.605
X108.7Y-25.8
X108.7Y-73.8
X108.8Y-60.4
X108.8Y-108.4
X109.7Y-25.6
X109.7Y-73.6
X110.1Y-47.2
X110.1Y-95.2
X110.2Y-52.9
X110.2Y-100.9
X110.4Y-63.7
X110.4Y-111.7
X110.55Y-26.35
X110.55Y-74.35
X110.825Y-44.7
X110.825Y-92.7
X111.193Y-24.281
X111.193Y-72.281
X111.2Y-50.1
X111.2Y-98.1
X111.683Y-54.233
X111.683Y-102.233
X111.748Y-23.5
X111.748Y-71.5
X112.0Y-51.35
X112.0Y-99.35
X112.2Y-45.4
X112.2Y-93.4
X112.8Y-40.6
X112.8Y-88.6
X113.7Y-40.7
X113.7Y-88.7
X114.0Y-46.9
X114.0Y-94.9
X114.1Y-59.8
X114.1Y-107.8
X114.2Y-56.1
X114.2Y-104.1
X114.85Y-57.5
X114.85Y-105.5
X115.044Y-32.156
X115.044Y-80.156
X115.1Y-33.7
X115.1Y-81.7
X116.6Y-30.6
X116.6Y-78.6
X116.9Y-65.7
X116.9Y-113.7
X117.1Y-56.6
X117.1Y-104.6
X117.8Y-35.9
X117.8Y-83.9
X117.925Y-32.275
X117.925Y-80.275
X118.2Y-45.4
X118.2Y-93.4
X119.2Y-21.7
X119.2Y-55.0
X119.2Y-57.3
X119.2Y-69.7
X119.2Y-103.0
X119.2Y-105.3
X119.569Y-40.219
X119.569Y-88.219
X120.0Y-36.0
X120.0Y-84.0
X120.6Y-42.5
X120.6Y-90.5
X121.5Y-25.5
X121.5Y-34.1
X121.5Y-73.5
X121.5Y-82.1
X122.2Y-23.6
X122.2Y-24.8
X122.2Y-71.6
X122.2Y-72.8
X126.099Y-26.713
X126.099Y-74.713
X126.5Y-30.6
X126.5Y-78.6
X126.549Y-37.6
X126.549Y-85.6
X128.025Y-48.4
X128.025Y-96.4
X128.5Y-55.6
X128.5Y-103.6
X130.2Y-45.4
X130.2Y-48.3
X130.2Y-93.4
X130.2Y-96.3
X131.2Y-55.3
X131.2Y-103.3
X131.3Y-32.9
X131.3Y-80.9
X132.632Y-30.605
X132.632Y-78.605
X133.2Y-25.8
X133.2Y-73.8
X133.3Y-60.4
X133.3Y-108.4
X134.2Y-25.6
X134.2Y-73.6
X134.6Y-47.2
X134.6Y-95.2
X134.7Y-52.9
X134.7Y-100.9
X134.9Y-63.7
X134.9Y-111.7
X135.05Y-26.35
X135.05Y-74.35
X135.326Y-44.7
X135.326Y-92.7
X135.693Y-24.281
X135.693Y-72.281
X135.7Y-50.1
X135.7Y-98.1
X136.183Y-54.233
X136.183Y-102.233
X136.249Y-23.5
X136.249Y-71.5
X136.5Y-51.35
X136.5Y-99.35
X136.7Y-45.4
X136.7Y-93.4
X137.3Y-40.6
X137.3Y-88.6
X138.2Y-40.7
X138.2Y-88.7
X138.5Y-46.9
X138.5Y-94.9
X138.6Y-59.8
X138.6Y-107.8
X138.7Y-56.1
X138.7Y-104.1
X139.35Y-57.5
X139.35Y-105.5
X139.544Y-32.156
X139.544Y-80.156
X139.6Y-33.7
X139.6Y-81.7
X141.1Y-30.6
X141.1Y-78.6
X141.4Y-65.7
X141.4Y-113.7
X141.6Y-56.6
X141.6Y-104.6
X142.3Y-35.9
X142.3Y-83.9
X142.425Y-32.275
X142.425Y-80.275
X142.7Y-45.4
X142.7Y-93.4
X143.7Y-21.7
X143.7Y-55.0
X143.7Y-57.3
X143.7Y-69.7
X143.7Y-103.0
X143.7Y-105.3
X144.069Y-40.219
X144.069Y-88.219
X144.5Y-36.0
X144.5Y-84.0
X145.1Y-42.5
X145.1Y-90.5
X146.0Y-25.5
X146.0Y-34.1
X146.0Y-73.5
X146.0Y-82.1
X146.7Y-23.6
X146.7Y-24.8
X146.7Y-71.6
X146.7Y-72.8
X150.599Y-26.713
X150.599Y-74.713
X151.0Y-30.6
X151.0Y-78.6
X151.049Y-37.6
X151.049Y-85.6
X152.525Y-48.4
X152.525Y-96.4
X153.0Y-55.6
X153.0Y-103.6
X154.7Y-45.4
X154.7Y-48.3
X154.7Y-93.4
X154.7Y-96.3
X155.7Y-55.3
X155.7Y-103.3
X155.8Y-32.9
X155.8Y-80.9
X157.132Y-30.605
X157.132Y-78.605
X157.7Y-25.8
X157.7Y-73.8
X157.8Y-60.4
X157.8Y-108.4
X158.7Y-25.6
X158.7Y-73.6
X159.1Y-47.2
X159.1Y-95.2
X159.2Y-52.9
X159.2Y-100.9
X159.4Y-63.7
X159.4Y-111.7
X159.55Y-26.35
X159.55Y-74.35
X159.826Y-44.7
X159.826Y-92.7
X160.193Y-24.281
X160.193Y-72.281
X160.2Y-50.1
X160.2Y-98.1
X160.683Y-54.233
X160.683Y-102.233
X160.748Y-23.5
X160.748Y-71.5
X161.0Y-51.35
X161.0Y-99.35
X161.2Y-45.4
X161.2Y-93.4
X161.8Y-40.6
X161.8Y-88.6
X162.7Y-40.7
X162.7Y-88.7
X163.0Y-46.9
X163.0Y-94.9
X163.1Y-59.8
X163.1Y-107.8
X163.2Y-56.1
X163.2Y-104.1
X163.85Y-57.5
X163.85Y-105.5
X164.044Y-32.156
X164.044Y-80.156
X164.1Y-33.7
X164.1Y-81.7
X165.6Y-30.6
X165.6Y-78.6
X165.9Y-65.7
X165.9Y-113.7
X166.1Y-56.6
X166.1Y-104.6
X166.8Y-35.9
X166.8Y-83.9
X166.925Y-32.275
X166.925Y-80.275
X167.2Y-45.4
X167.2Y-93.4
X168.2Y-21.7
X168.2Y-55.0
X168.2Y-57.3
X168.2Y-69.7
X168.2Y-103.0
X168.2Y-105.3
X168.569Y-40.219
X168.569Y-88.219
X169.0Y-36.0
X169.0Y-84.0
X169.6Y-42.5
X169.6Y-90.5
X170.5Y-25.5
X170.5Y-34.1
X170.5Y-73.5
X170.5Y-82.1
X171.2Y-23.6
X171.2Y-24.8
X171.2Y-71.6
X171.2Y-72.8
X175.099Y-26.713
X175.099Y-74.713
X175.5Y-30.6
X175.5Y-78.6
X175.549Y-37.6
X175.549Y-85.6
X177.025Y-48.4
X177.025Y-96.4
X177.5Y-55.6
X177.5Y-103.6
X179.2Y-45.4
X179.2Y-48.3
X179.2Y-93.4
X179.2Y-96.3
X180.2Y-55.3
X180.2Y-103.3
X180.3Y-32.9
X180.3Y-80.9
X181.632Y-30.605
X181.632Y-78.605
X182.2Y-25.8
X182.2Y-73.8
X182.3Y-60.4
X182.3Y-108.4
X183.2Y-25.6
X183.2Y-73.6
X183.6Y-47.2
X183.6Y-95.2
X183.7Y-52.9
X183.7Y-100.9
X183.9Y-63.7
X183.9Y-111.7
X184.05Y-26.35
X184.05Y-74.35
X184.326Y-44.7
X184.326Y-92.7
X184.693Y-24.281
X184.693Y-72.281
X184.7Y-50.1
X184.7Y-98.1
X185.183Y-54.233
X185.183Y-102.233
X185.248Y-23.5
X185.248Y-71.5
X185.5Y-51.35
X185.5Y-99.35
X185.7Y-45.4
X185.7Y-93.4
X186.3Y-40.6
X186.3Y-88.6
X187.2Y-40.7
X187.2Y-88.7
X187.5Y-46.9
X187.5Y-94.9
X187.6Y-59.8
X187.6Y-107.8
X187.7Y-56.1
X187.7Y-104.1
X188.35Y-57.5
X188.35Y-105.5
X188.544Y-32.156
X188.544Y-80.156
X188.6Y-33.7
X188.6Y-81.7
X190.1Y-30.6
X190.1Y-78.6
X190.4Y-65.7
X190.4Y-113.7
X190.6Y-56.6
X190.6Y-104.6
X191.3Y-35.9
X191.3Y-83.9
X191.425Y-32.275
X191.425Y-80.275
X191.7Y-45.4
X191.7Y-93.4
X192.7Y-21.7
X192.7Y-55.0
X192.7Y-57.3
X192.7Y-69.7
X192.7Y-103.0
X192.7Y-105.3
X193.069Y-40.219
X193.069Y-88.219
X193.5Y-36.0
X193.5Y-84.0
X194.1Y-42.5
X194.1Y-90.5
X195.0Y-25.5
X195.0Y-34.1
X195.0Y-73.5
X195.0Y-82.1
X195.7Y-23.6
X195.7Y-24.8
X195.7Y-71.6
X195.7Y-72.8
T2
X101.7Y-44.58
X101.7Y-47.12
X101.7Y-49.66
X101.7Y-52.2
X101.7Y-54.74
X101.7Y-57.28
X101.7Y-59.82
X101.7Y-62.36
X101.7Y-92.58
X101.7Y-95.12
X101.7Y-97.66
X101.7Y-100.2
X101.7Y-102.74
X101.7Y-105.28
X101.7Y-107.82
X101.7Y-110.36
X121.8Y-44.56
X121.8Y-47.1
X121.8Y-49.64
X121.8Y-52.18
X121.8Y-54.72
X121.8Y-57.26
X121.8Y-59.8
X121.8Y-62.34
X121.8Y-64.88
X121.8Y-92.56
X121.8Y-95.1
X121.8Y-97.64
X121.8Y-100.18
X121.8Y-102.72
X121.8Y-105.26
X121.8Y-107.8
X121.8Y-110.34
X121.8Y-112.88
X126.2Y-44.58
X126.2Y-47.12
X126.2Y-49.66
X126.2Y-52.2
X126.2Y-54.74
X126.2Y-57.28
X126.2Y-59.82
X126.2Y-62.36
X126.2Y-92.58
X126.2Y-95.12
X126.2Y-97.66
X126.2Y-100.2
X126.2Y-102.74
X126.2Y-105.28
X126.2Y-107.82
X126.2Y-110.36
X146.3Y-44.56
X146.3Y-47.1
X146.3Y-49.64
X146.3Y-52.18
X146.3Y-54.72
X146.3Y-57.26
X146.3Y-59.8
X146.3Y-62.34
X146.3Y-64.88
X146.3Y-92.56
X146.3Y-95.1
X146.3Y-97.64
X146.3Y-100.18
X146.3Y-102.72
X146.3Y-105.26
X146.3Y-107.8
X146.3Y-110.34
X146.3Y-112.88
X150.7Y-44.58
X150.7Y-47.12
X150.7Y-49.66
X150.7Y-52.2
X150.7Y-54.74
X150.7Y-57.28
X150.7Y-59.82
X150.7Y-62.36
X150.7Y-92.58
X150.7Y-95.12
X150.7Y-97.66
X150.7Y-100.2
X150.7Y-102.74
X150.7Y-105.28
X150.7Y-107.82
X150.7Y-110.36
X170.8Y-44.56
X170.8Y-47.1
X170.8Y-49.64
X170.8Y-52.18
X170.8Y-54.72
X170.8Y-57.26
X170.8Y-59.8
X170.8Y-62.34
X170.8Y-64.88
X170.8Y-92.56
X170.8Y-95.1
X170.8Y-97.64
X170.8Y-100.18
X170.8Y-102.72
X170.8Y-105.26
X170.8Y-107.8
X170.8Y-110.34
X170.8Y-112.88
X175.2Y-44.58
X175.2Y-47.12
X175.2Y-49.66
X175.2Y-52.2
X175.2Y-54.74
X175.2Y-57.28
X175.2Y-59.82
X175.2Y-62.36
X175.2Y-92.58
X175.2Y-95.12
X175.2Y-97.66
X175.2Y-100.2
X175.2Y-102.74
X175.2Y-105.28
X175.2Y-107.82
X175.2Y-110.36
X195.3Y-44.56
X195.3Y-47.1
X195.3Y-49.64
X195.3Y-52.18
X195.3Y-54.72
X195.3Y-57.26
X195.3Y-59.8
X195.3Y-62.34
X195.3Y-64.88
X195.3Y-92.56
X195.3Y-95.1
X195.3Y-97.64
X195.3Y-100.18
X195.3Y-102.72
X195.3Y-105.26
X195.3Y-107.8
X195.3Y-110.34
X195.3Y-112.88
T0
M30
